999
FBX AutoCAD (*.DXF) exporter
  0
SECTION
  2
HEADER
  9
$ACADVER
  1
AC1008
  9
$UCSORG
 10
0.0
 20
0.0
 30
0.0
  9
$UCSXDIR
 10
1.0
 20
0.0
 30
0.0
  9
$TILEMODE
 70
   1
  9
$UCSYDIR
 10
0.0
 20
1.0
 30
0.0
  0
ENDSEC
  0
SECTION
  2
TABLES
  0
TABLE
  2
LTYPE
 70
   1
  0
LTYPE
  2
CONTINUOUS
 70
   64
  3
Solid line
 72
   65
 73
   0
 40
0.0
  0
ENDTAB
  0
TABLE
  2
LAYER
 70
   1
  0
LAYER
  2
lollipop03
 70
   0
 62
   250
  6
CONTINUOUS
  0
ENDTAB
  0
ENDSEC
  0
SECTION
  2
BLOCKS
  0
ENDSEC
  0
SECTION
  2
ENTITIES
  0
POLYLINE
  8
lollipop03
 66
   1
 10
0.0
 20
0.0
 30
0.0
 70
   64
 71
   44
 72
   92
  0
VERTEX
  8
lollipop03
 10
63.448107
 20
142.533917
 30
11.373901
 70
   192
  0
VERTEX
  8
lollipop03
 10
63.448107
 20
142.533917
 30
-11.373902
 70
   192
  0
VERTEX
  8
lollipop03
 10
63.672399
 20
108.472080
 30
11.373902
 70
   192
  0
VERTEX
  8
lollipop03
 10
63.672399
 20
108.472080
 30
-11.373902
 70
   192
  0
VERTEX
  8
lollipop03
 10
46.835723
 20
78.861519
 30
11.373902
 70
   192
  0
VERTEX
  8
lollipop03
 10
46.835723
 20
78.861518
 30
-11.373901
 70
   192
  0
VERTEX
  8
lollipop03
 10
17.449453
 20
61.636358
 30
11.373902
 70
   192
  0
VERTEX
  8
lollipop03
 10
17.449453
 20
61.636358
 30
-11.373901
 70
   192
  0
VERTEX
  8
lollipop03
 10
-16.612384
 20
61.412066
 30
11.373902
 70
   192
  0
VERTEX
  8
lollipop03
 10
-16.612384
 20
61.412066
 30
-11.373901
 70
   192
  0
VERTEX
  8
lollipop03
 10
-46.222946
 20
78.248742
 30
11.373902
 70
   192
  0
VERTEX
  8
lollipop03
 10
-46.222946
 20
78.248742
 30
-11.373901
 70
   192
  0
VERTEX
  8
lollipop03
 10
-63.448107
 20
107.635012
 30
11.373902
 70
   192
  0
VERTEX
  8
lollipop03
 10
-63.448107
 20
107.635012
 30
-11.373901
 70
   192
  0
VERTEX
  8
lollipop03
 10
-63.672399
 20
141.696849
 30
11.373902
 70
   192
  0
VERTEX
  8
lollipop03
 10
-63.672399
 20
141.696848
 30
-11.373902
 70
   192
  0
VERTEX
  8
lollipop03
 10
-46.835723
 20
171.307410
 30
11.373901
 70
   192
  0
VERTEX
  8
lollipop03
 10
-46.835723
 20
171.307410
 30
-11.373902
 70
   192
  0
VERTEX
  8
lollipop03
 10
-17.449453
 20
188.532571
 30
11.373901
 70
   192
  0
VERTEX
  8
lollipop03
 10
-17.449453
 20
188.532571
 30
-11.373902
 70
   192
  0
VERTEX
  8
lollipop03
 10
16.612384
 20
188.756863
 30
11.373901
 70
   192
  0
VERTEX
  8
lollipop03
 10
16.612384
 20
188.756863
 30
-11.373902
 70
   192
  0
VERTEX
  8
lollipop03
 10
46.222946
 20
171.920187
 30
11.373901
 70
   192
  0
VERTEX
  8
lollipop03
 10
46.222946
 20
171.920187
 30
-11.373902
 70
   192
  0
VERTEX
  8
lollipop03
 10
3.591611
 20
61.545106
 30
2.609457
 70
   192
  0
VERTEX
  8
lollipop03
 10
1.371857
 20
61.530489
 30
4.222140
 70
   192
  0
VERTEX
  8
lollipop03
 10
4.439496
 20
61.550689
 30
-0.000001
 70
   192
  0
VERTEX
  8
lollipop03
 10
3.591611
 20
61.545106
 30
-2.609459
 70
   192
  0
VERTEX
  8
lollipop03
 10
1.371857
 20
61.530489
 30
-4.222141
 70
   192
  0
VERTEX
  8
lollipop03
 10
-1.371836
 20
61.512422
 30
-4.222078
 70
   192
  0
VERTEX
  8
lollipop03
 10
-3.591470
 20
61.497806
 30
-2.609356
 70
   192
  0
VERTEX
  8
lollipop03
 10
-4.439280
 20
61.492224
 30
0.000000
 70
   192
  0
VERTEX
  8
lollipop03
 10
-3.591470
 20
61.497806
 30
2.609356
 70
   192
  0
VERTEX
  8
lollipop03
 10
-1.371836
 20
61.512422
 30
4.222077
 70
   192
  0
VERTEX
  8
lollipop03
 10
4.216708
 20
1.040620
 30
-0.000000
 70
   192
  0
VERTEX
  8
lollipop03
 10
3.411389
 20
1.040619
 30
-2.478519
 70
   192
  0
VERTEX
  8
lollipop03
 10
1.303034
 20
1.040619
 30
-4.010328
 70
   192
  0
VERTEX
  8
lollipop03
 10
-1.303034
 20
1.040619
 30
-4.010328
 70
   192
  0
VERTEX
  8
lollipop03
 10
-3.411389
 20
1.040619
 30
-2.478519
 70
   192
  0
VERTEX
  8
lollipop03
 10
-4.216708
 20
1.040620
 30
0.000000
 70
   192
  0
VERTEX
  8
lollipop03
 10
-3.411389
 20
1.040620
 30
2.478519
 70
   192
  0
VERTEX
  8
lollipop03
 10
-1.303034
 20
1.040620
 30
4.010328
 70
   192
  0
VERTEX
  8
lollipop03
 10
1.303034
 20
1.040620
 30
4.010328
 70
   192
  0
VERTEX
  8
lollipop03
 10
3.411389
 20
1.040620
 30
2.478519
 70
   192
  0
VERTEX
  8
lollipop03
 10
0.0
 20
0.0
 30
0.0
 70
   128
 71
   1
 72
   3
 73
   21
  0
VERTEX
  8
lollipop03
 10
0.0
 20
0.0
 30
0.0
 70
   128
 71
   3
 72
   4
 73
   6
  0
VERTEX
  8
lollipop03
 10
0.0
 20
0.0
 30
0.0
 70
   128
 71
   16
 72
   10
 73
   4
  0
VERTEX
  8
lollipop03
 10
0.0
 20
0.0
 30
0.0
 70
   128
 71
   3
 72
   5
 73
   7
  0
VERTEX
  8
lollipop03
 10
0.0
 20
0.0
 30
0.0
 70
   128
 71
   5
 72
   6
 73
   8
  0
VERTEX
  8
lollipop03
 10
0.0
 20
0.0
 30
0.0
 70
   128
 71
   3
 72
   9
 73
   15
  0
VERTEX
  8
lollipop03
 10
0.0
 20
0.0
 30
0.0
 70
   128
 71
   9
 72
   11
 73
   13
  0
VERTEX
  8
lollipop03
 10
0.0
 20
0.0
 30
0.0
 70
   128
 71
   25
 72
   27
 73
   28
  0
VERTEX
  8
lollipop03
 10
0.0
 20
0.0
 30
0.0
 70
   128
 71
   26
 72
   25
 73
   28
  0
VERTEX
  8
lollipop03
 10
0.0
 20
0.0
 30
0.0
 70
   128
 71
   26
 72
   29
 73
   30
  0
VERTEX
  8
lollipop03
 10
0.0
 20
0.0
 30
0.0
 70
   128
 71
   30
 72
   31
 73
   33
  0
VERTEX
  8
lollipop03
 10
0.0
 20
0.0
 30
0.0
 70
   128
 71
   32
 72
   10
 73
   9
  0
VERTEX
  8
lollipop03
 10
0.0
 20
0.0
 30
0.0
 70
   128
 71
   31
 72
   32
 73
   33
  0
VERTEX
  8
lollipop03
 10
0.0
 20
0.0
 30
0.0
 70
   128
 71
   7
 72
   25
 73
   26
  0
VERTEX
  8
lollipop03
 10
0.0
 20
0.0
 30
0.0
 70
   128
 71
   8
 72
   29
 73
   28
  0
VERTEX
  8
lollipop03
 10
0.0
 20
0.0
 30
0.0
 70
   128
 71
   10
 72
   30
 73
   29
  0
VERTEX
  8
lollipop03
 10
0.0
 20
0.0
 30
0.0
 70
   128
 71
   10
 72
   32
 73
   31
  0
VERTEX
  8
lollipop03
 10
0.0
 20
0.0
 30
0.0
 70
   128
 71
   7
 72
   8
 73
   27
  0
VERTEX
  8
lollipop03
 10
0.0
 20
0.0
 30
0.0
 70
   128
 71
   10
 72
   31
 73
   30
  0
VERTEX
  8
lollipop03
 10
0.0
 20
0.0
 30
0.0
 70
   128
 71
   9
 72
   34
 73
   33
  0
VERTEX
  8
lollipop03
 10
0.0
 20
0.0
 30
0.0
 70
   128
 71
   8
 72
   28
 73
   27
  0
VERTEX
  8
lollipop03
 10
0.0
 20
0.0
 30
0.0
 70
   128
 71
   15
 72
   17
 73
   19
  0
VERTEX
  8
lollipop03
 10
0.0
 20
0.0
 30
0.0
 70
   128
 71
   6
 72
   4
 73
   10
  0
VERTEX
  8
lollipop03
 10
0.0
 20
0.0
 30
0.0
 70
   128
 71
   9
 72
   10
 73
   12
  0
VERTEX
  8
lollipop03
 10
0.0
 20
0.0
 30
0.0
 70
   128
 71
   4
 72
   2
 73
   24
  0
VERTEX
  8
lollipop03
 10
0.0
 20
0.0
 30
0.0
 70
   128
 71
   22
 72
   20
 73
   18
  0
VERTEX
  8
lollipop03
 10
0.0
 20
0.0
 30
0.0
 70
   128
 71
   11
 72
   12
 73
   14
  0
VERTEX
  8
lollipop03
 10
0.0
 20
0.0
 30
0.0
 70
   128
 71
   16
 72
   14
 73
   12
  0
VERTEX
  8
lollipop03
 10
0.0
 20
0.0
 30
0.0
 70
   128
 71
   17
 72
   18
 73
   20
  0
VERTEX
  8
lollipop03
 10
0.0
 20
0.0
 30
0.0
 70
   128
 71
   13
 72
   14
 73
   16
  0
VERTEX
  8
lollipop03
 10
0.0
 20
0.0
 30
0.0
 70
   128
 71
   19
 72
   20
 73
   22
  0
VERTEX
  8
lollipop03
 10
0.0
 20
0.0
 30
0.0
 70
   128
 71
   21
 72
   22
 73
   24
  0
VERTEX
  8
lollipop03
 10
0.0
 20
0.0
 30
0.0
 70
   128
 71
   15
 72
   16
 73
   18
  0
VERTEX
  8
lollipop03
 10
0.0
 20
0.0
 30
0.0
 70
   128
 71
   23
 72
   24
 73
   2
  0
VERTEX
  8
lollipop03
 10
0.0
 20
0.0
 30
0.0
 70
   128
 71
   1
 72
   2
 73
   4
  0
VERTEX
  8
lollipop03
 10
0.0
 20
0.0
 30
0.0
 70
   128
 71
   9
 72
   7
 73
   26
  0
VERTEX
  8
lollipop03
 10
0.0
 20
0.0
 30
0.0
 70
   128
 71
   25
 72
   44
 73
   43
  0
VERTEX
  8
lollipop03
 10
0.0
 20
0.0
 30
0.0
 70
   128
 71
   44
 72
   25
 73
   27
  0
VERTEX
  8
lollipop03
 10
0.0
 20
0.0
 30
0.0
 70
   128
 71
   27
 72
   28
 73
   36
  0
VERTEX
  8
lollipop03
 10
0.0
 20
0.0
 30
0.0
 70
   128
 71
   29
 72
   37
 73
   36
  0
VERTEX
  8
lollipop03
 10
0.0
 20
0.0
 30
0.0
 70
   128
 71
   43
 72
   44
 73
   35
  0
VERTEX
  8
lollipop03
 10
0.0
 20
0.0
 30
0.0
 70
   128
 71
   30
 72
   38
 73
   37
  0
VERTEX
  8
lollipop03
 10
0.0
 20
0.0
 30
0.0
 70
   128
 71
   35
 72
   36
 73
   37
  0
VERTEX
  8
lollipop03
 10
0.0
 20
0.0
 30
0.0
 70
   128
 71
   31
 72
   39
 73
   38
  0
VERTEX
  8
lollipop03
 10
0.0
 20
0.0
 30
0.0
 70
   128
 71
   35
 72
   38
 73
   41
  0
VERTEX
  8
lollipop03
 10
0.0
 20
0.0
 30
0.0
 70
   128
 71
   31
 72
   32
 73
   40
  0
VERTEX
  8
lollipop03
 10
0.0
 20
0.0
 30
0.0
 70
   128
 71
   38
 72
   39
 73
   40
  0
VERTEX
  8
lollipop03
 10
0.0
 20
0.0
 30
0.0
 70
   128
 71
   40
 72
   32
 73
   33
  0
VERTEX
  8
lollipop03
 10
0.0
 20
0.0
 30
0.0
 70
   128
 71
   34
 72
   42
 73
   41
  0
VERTEX
  8
lollipop03
 10
0.0
 20
0.0
 30
0.0
 70
   128
 71
   26
 72
   43
 73
   42
  0
VERTEX
  8
lollipop03
 10
0.0
 20
0.0
 30
0.0
 70
   128
 71
   1
 72
   21
 73
   23
  0
VERTEX
  8
lollipop03
 10
0.0
 20
0.0
 30
0.0
 70
   128
 71
   3
 72
   6
 73
   5
  0
VERTEX
  8
lollipop03
 10
0.0
 20
0.0
 30
0.0
 70
   128
 71
   16
 72
   4
 73
   22
  0
VERTEX
  8
lollipop03
 10
0.0
 20
0.0
 30
0.0
 70
   128
 71
   3
 72
   7
 73
   9
  0
VERTEX
  8
lollipop03
 10
0.0
 20
0.0
 30
0.0
 70
   128
 71
   5
 72
   8
 73
   7
  0
VERTEX
  8
lollipop03
 10
0.0
 20
0.0
 30
0.0
 70
   128
 71
   3
 72
   15
 73
   21
  0
VERTEX
  8
lollipop03
 10
0.0
 20
0.0
 30
0.0
 70
   128
 71
   9
 72
   13
 73
   15
  0
VERTEX
  8
lollipop03
 10
0.0
 20
0.0
 30
0.0
 70
   128
 71
   26
 72
   28
 73
   29
  0
VERTEX
  8
lollipop03
 10
0.0
 20
0.0
 30
0.0
 70
   128
 71
   26
 72
   30
 73
   34
  0
VERTEX
  8
lollipop03
 10
0.0
 20
0.0
 30
0.0
 70
   128
 71
   30
 72
   33
 73
   34
  0
VERTEX
  8
lollipop03
 10
0.0
 20
0.0
 30
0.0
 70
   128
 71
   32
 72
   9
 73
   33
  0
VERTEX
  8
lollipop03
 10
0.0
 20
0.0
 30
0.0
 70
   128
 71
   10
 72
   29
 73
   8
  0
VERTEX
  8
lollipop03
 10
0.0
 20
0.0
 30
0.0
 70
   128
 71
   7
 72
   27
 73
   25
  0
VERTEX
  8
lollipop03
 10
0.0
 20
0.0
 30
0.0
 70
   128
 71
   15
 72
   19
 73
   21
  0
VERTEX
  8
lollipop03
 10
0.0
 20
0.0
 30
0.0
 70
   128
 71
   6
 72
   10
 73
   8
  0
VERTEX
  8
lollipop03
 10
0.0
 20
0.0
 30
0.0
 70
   128
 71
   9
 72
   12
 73
   11
  0
VERTEX
  8
lollipop03
 10
0.0
 20
0.0
 30
0.0
 70
   128
 71
   4
 72
   24
 73
   22
  0
VERTEX
  8
lollipop03
 10
0.0
 20
0.0
 30
0.0
 70
   128
 71
   22
 72
   18
 73
   16
  0
VERTEX
  8
lollipop03
 10
0.0
 20
0.0
 30
0.0
 70
   128
 71
   11
 72
   14
 73
   13
  0
VERTEX
  8
lollipop03
 10
0.0
 20
0.0
 30
0.0
 70
   128
 71
   16
 72
   12
 73
   10
  0
VERTEX
  8
lollipop03
 10
0.0
 20
0.0
 30
0.0
 70
   128
 71
   17
 72
   20
 73
   19
  0
VERTEX
  8
lollipop03
 10
0.0
 20
0.0
 30
0.0
 70
   128
 71
   13
 72
   16
 73
   15
  0
VERTEX
  8
lollipop03
 10
0.0
 20
0.0
 30
0.0
 70
   128
 71
   19
 72
   22
 73
   21
  0
VERTEX
  8
lollipop03
 10
0.0
 20
0.0
 30
0.0
 70
   128
 71
   21
 72
   24
 73
   23
  0
VERTEX
  8
lollipop03
 10
0.0
 20
0.0
 30
0.0
 70
   128
 71
   15
 72
   18
 73
   17
  0
VERTEX
  8
lollipop03
 10
0.0
 20
0.0
 30
0.0
 70
   128
 71
   23
 72
   2
 73
   1
  0
VERTEX
  8
lollipop03
 10
0.0
 20
0.0
 30
0.0
 70
   128
 71
   1
 72
   4
 73
   3
  0
VERTEX
  8
lollipop03
 10
0.0
 20
0.0
 30
0.0
 70
   128
 71
   9
 72
   26
 73
   34
  0
VERTEX
  8
lollipop03
 10
0.0
 20
0.0
 30
0.0
 70
   128
 71
   25
 72
   43
 73
   26
  0
VERTEX
  8
lollipop03
 10
0.0
 20
0.0
 30
0.0
 70
   128
 71
   44
 72
   27
 73
   35
  0
VERTEX
  8
lollipop03
 10
0.0
 20
0.0
 30
0.0
 70
   128
 71
   27
 72
   36
 73
   35
  0
VERTEX
  8
lollipop03
 10
0.0
 20
0.0
 30
0.0
 70
   128
 71
   29
 72
   36
 73
   28
  0
VERTEX
  8
lollipop03
 10
0.0
 20
0.0
 30
0.0
 70
   128
 71
   43
 72
   35
 73
   42
  0
VERTEX
  8
lollipop03
 10
0.0
 20
0.0
 30
0.0
 70
   128
 71
   30
 72
   37
 73
   29
  0
VERTEX
  8
lollipop03
 10
0.0
 20
0.0
 30
0.0
 70
   128
 71
   35
 72
   37
 73
   38
  0
VERTEX
  8
lollipop03
 10
0.0
 20
0.0
 30
0.0
 70
   128
 71
   31
 72
   38
 73
   30
  0
VERTEX
  8
lollipop03
 10
0.0
 20
0.0
 30
0.0
 70
   128
 71
   35
 72
   41
 73
   42
  0
VERTEX
  8
lollipop03
 10
0.0
 20
0.0
 30
0.0
 70
   128
 71
   31
 72
   40
 73
   39
  0
VERTEX
  8
lollipop03
 10
0.0
 20
0.0
 30
0.0
 70
   128
 71
   38
 72
   40
 73
   41
  0
VERTEX
  8
lollipop03
 10
0.0
 20
0.0
 30
0.0
 70
   128
 71
   40
 72
   33
 73
   41
  0
VERTEX
  8
lollipop03
 10
0.0
 20
0.0
 30
0.0
 70
   128
 71
   34
 72
   41
 73
   33
  0
VERTEX
  8
lollipop03
 10
0.0
 20
0.0
 30
0.0
 70
   128
 71
   26
 72
   42
 73
   34
  0
SEQEND
  0
ENDSEC
  0
EOF
