999
FBX AutoCAD (*.DXF) exporter
  0
SECTION
  2
HEADER
  9
$ACADVER
  1
AC1008
  9
$UCSORG
 10
0.0
 20
0.0
 30
0.0
  9
$UCSXDIR
 10
1.0
 20
0.0
 30
0.0
  9
$TILEMODE
 70
   1
  9
$UCSYDIR
 10
0.0
 20
1.0
 30
0.0
  0
ENDSEC
  0
SECTION
  2
TABLES
  0
TABLE
  2
LTYPE
 70
   1
  0
LTYPE
  2
CONTINUOUS
 70
   64
  3
Solid line
 72
   65
 73
   0
 40
0.0
  0
ENDTAB
  0
TABLE
  2
LAYER
 70
   6
  0
LAYER
  2
sugarCup
 70
   0
 62
   250
  6
CONTINUOUS
  0
LAYER
  2
sugarcube
 70
   0
 62
   250
  6
CONTINUOUS
  0
LAYER
  2
sugarcube_2
 70
   0
 62
   250
  6
CONTINUOUS
  0
LAYER
  2
sugarcube_3
 70
   0
 62
   250
  6
CONTINUOUS
  0
LAYER
  2
sugarcube_4
 70
   0
 62
   250
  6
CONTINUOUS
  0
LAYER
  2
sugarcube_5
 70
   0
 62
   250
  6
CONTINUOUS
  0
ENDTAB
  0
ENDSEC
  0
SECTION
  2
BLOCKS
  0
ENDSEC
  0
SECTION
  2
ENTITIES
  0
POLYLINE
  8
sugarCup
 66
   1
 10
0.0
 20
0.0
 30
0.0
 70
   64
 71
   60
 72
   106
  0
VERTEX
  8
sugarCup
 10
36.547961
 20
0.611341
 30
0.000000
 70
   192
  0
VERTEX
  8
sugarCup
 10
46.223432
 20
29.331011
 30
0.000000
 70
   192
  0
VERTEX
  8
sugarCup
 10
43.139682
 20
31.592428
 30
0.000000
 70
   192
  0
VERTEX
  8
sugarCup
 10
40.467098
 20
29.536594
 30
0.000000
 70
   192
  0
VERTEX
  8
sugarCup
 10
32.847461
 20
5.134175
 30
0.000000
 70
   192
  0
VERTEX
  8
sugarCup
 10
30.746102
 20
0.611341
 30
-19.759320
 70
   192
  0
VERTEX
  8
sugarCup
 10
38.885626
 20
29.331011
 30
-24.990274
 70
   192
  0
VERTEX
  8
sugarCup
 10
36.291410
 20
31.592428
 30
-23.323073
 70
   192
  0
VERTEX
  8
sugarCup
 10
34.043089
 20
29.536594
 30
-21.878165
 70
   192
  0
VERTEX
  8
sugarCup
 10
27.633042
 20
5.134175
 30
-17.758678
 70
   192
  0
VERTEX
  8
sugarCup
 10
15.182572
 20
0.611341
 30
-33.245195
 70
   192
  0
VERTEX
  8
sugarCup
 10
19.201908
 20
29.331011
 30
-42.046313
 70
   192
  0
VERTEX
  8
sugarCup
 10
17.920872
 20
31.592428
 30
-39.241235
 70
   192
  0
VERTEX
  8
sugarCup
 10
16.810640
 20
29.536594
 30
-36.810167
 70
   192
  0
VERTEX
  8
sugarCup
 10
13.645328
 20
5.134175
 30
-29.879101
 70
   192
  0
VERTEX
  8
sugarCup
 10
-5.201317
 20
0.611341
 30
-36.175956
 70
   192
  0
VERTEX
  8
sugarCup
 10
-6.578280
 20
29.331011
 30
-45.752945
 70
   192
  0
VERTEX
  8
sugarCup
 10
-6.139417
 20
31.592428
 30
-42.700582
 70
   192
  0
VERTEX
  8
sugarCup
 10
-5.759069
 20
29.536594
 30
-40.055201
 70
   192
  0
VERTEX
  8
sugarCup
 10
-4.674681
 20
5.134175
 30
-32.513121
 70
   192
  0
VERTEX
  8
sugarCup
 10
-23.933825
 20
0.611341
 30
-27.621106
 70
   192
  0
VERTEX
  8
sugarCup
 10
-30.269911
 20
29.331011
 30
-34.933339
 70
   192
  0
VERTEX
  8
sugarCup
 10
-28.250484
 20
31.592428
 30
-32.602796
 70
   192
  0
VERTEX
  8
sugarCup
 10
-26.500314
 20
29.536594
 30
-30.582992
 70
   192
  0
VERTEX
  8
sugarCup
 10
-21.510512
 20
5.134175
 30
-24.824454
 70
   192
  0
VERTEX
  8
sugarCup
 10
-35.067512
 20
0.611341
 30
-10.296751
 70
   192
  0
VERTEX
  8
sugarCup
 10
-44.351059
 20
29.331011
 30
-13.022646
 70
   192
  0
VERTEX
  8
sugarCup
 10
-41.392222
 20
31.592428
 30
-12.153853
 70
   192
  0
VERTEX
  8
sugarCup
 10
-38.827896
 20
29.536594
 30
-11.400899
 70
   192
  0
VERTEX
  8
sugarCup
 10
-31.516908
 20
5.134175
 30
-9.254199
 70
   192
  0
VERTEX
  8
sugarCup
 10
-35.067512
 20
0.611341
 30
10.296751
 70
   192
  0
VERTEX
  8
sugarCup
 10
-44.351059
 20
29.331011
 30
13.022646
 70
   192
  0
VERTEX
  8
sugarCup
 10
-41.392222
 20
31.592428
 30
12.153853
 70
   192
  0
VERTEX
  8
sugarCup
 10
-38.827896
 20
29.536594
 30
11.400899
 70
   192
  0
VERTEX
  8
sugarCup
 10
-31.516908
 20
5.134175
 30
9.254199
 70
   192
  0
VERTEX
  8
sugarCup
 10
-23.933825
 20
0.611341
 30
27.621106
 70
   192
  0
VERTEX
  8
sugarCup
 10
-30.269911
 20
29.331011
 30
34.933339
 70
   192
  0
VERTEX
  8
sugarCup
 10
-28.250484
 20
31.592428
 30
32.602796
 70
   192
  0
VERTEX
  8
sugarCup
 10
-26.500314
 20
29.536594
 30
30.582992
 70
   192
  0
VERTEX
  8
sugarCup
 10
-21.510512
 20
5.134175
 30
24.824454
 70
   192
  0
VERTEX
  8
sugarCup
 10
-5.201317
 20
0.611341
 30
36.175956
 70
   192
  0
VERTEX
  8
sugarCup
 10
-6.578280
 20
29.331011
 30
45.752945
 70
   192
  0
VERTEX
  8
sugarCup
 10
-6.139417
 20
31.592428
 30
42.700582
 70
   192
  0
VERTEX
  8
sugarCup
 10
-5.759069
 20
29.536594
 30
40.055201
 70
   192
  0
VERTEX
  8
sugarCup
 10
-4.674681
 20
5.134175
 30
32.513121
 70
   192
  0
VERTEX
  8
sugarCup
 10
15.182572
 20
0.611341
 30
33.245195
 70
   192
  0
VERTEX
  8
sugarCup
 10
19.201908
 20
29.331011
 30
42.046313
 70
   192
  0
VERTEX
  8
sugarCup
 10
17.920872
 20
31.592428
 30
39.241235
 70
   192
  0
VERTEX
  8
sugarCup
 10
16.810640
 20
29.536594
 30
36.810167
 70
   192
  0
VERTEX
  8
sugarCup
 10
13.645328
 20
5.134175
 30
29.879101
 70
   192
  0
VERTEX
  8
sugarCup
 10
30.746102
 20
0.611341
 30
19.759320
 70
   192
  0
VERTEX
  8
sugarCup
 10
38.885626
 20
29.331011
 30
24.990274
 70
   192
  0
VERTEX
  8
sugarCup
 10
36.291410
 20
31.592428
 30
23.323073
 70
   192
  0
VERTEX
  8
sugarCup
 10
34.043089
 20
29.536594
 30
21.878165
 70
   192
  0
VERTEX
  8
sugarCup
 10
27.633042
 20
5.134175
 30
17.758678
 70
   192
  0
VERTEX
  8
sugarCup
 10
0.000000
 20
0.000000
 30
0.000000
 70
   192
  0
VERTEX
  8
sugarCup
 10
0.000000
 20
0.000000
 30
0.000000
 70
   192
  0
VERTEX
  8
sugarCup
 10
0.000000
 20
0.000000
 30
0.000000
 70
   192
  0
VERTEX
  8
sugarCup
 10
0.000000
 20
0.000000
 30
0.000000
 70
   192
  0
VERTEX
  8
sugarCup
 10
0.000000
 20
0.000000
 30
0.000000
 70
   192
  0
VERTEX
  8
sugarCup
 10
0.0
 20
0.0
 30
0.0
 70
   128
 71
   1
 72
   2
 73
   7
  0
VERTEX
  8
sugarCup
 10
0.0
 20
0.0
 30
0.0
 70
   128
 71
   2
 72
   3
 73
   8
  0
VERTEX
  8
sugarCup
 10
0.0
 20
0.0
 30
0.0
 70
   128
 71
   3
 72
   4
 73
   9
  0
VERTEX
  8
sugarCup
 10
0.0
 20
0.0
 30
0.0
 70
   128
 71
   4
 72
   5
 73
   10
  0
VERTEX
  8
sugarCup
 10
0.0
 20
0.0
 30
0.0
 70
   128
 71
   6
 72
   7
 73
   12
  0
VERTEX
  8
sugarCup
 10
0.0
 20
0.0
 30
0.0
 70
   128
 71
   7
 72
   8
 73
   13
  0
VERTEX
  8
sugarCup
 10
0.0
 20
0.0
 30
0.0
 70
   128
 71
   8
 72
   9
 73
   14
  0
VERTEX
  8
sugarCup
 10
0.0
 20
0.0
 30
0.0
 70
   128
 71
   9
 72
   10
 73
   15
  0
VERTEX
  8
sugarCup
 10
0.0
 20
0.0
 30
0.0
 70
   128
 71
   11
 72
   12
 73
   17
  0
VERTEX
  8
sugarCup
 10
0.0
 20
0.0
 30
0.0
 70
   128
 71
   12
 72
   13
 73
   18
  0
VERTEX
  8
sugarCup
 10
0.0
 20
0.0
 30
0.0
 70
   128
 71
   13
 72
   14
 73
   19
  0
VERTEX
  8
sugarCup
 10
0.0
 20
0.0
 30
0.0
 70
   128
 71
   14
 72
   15
 73
   20
  0
VERTEX
  8
sugarCup
 10
0.0
 20
0.0
 30
0.0
 70
   128
 71
   16
 72
   17
 73
   22
  0
VERTEX
  8
sugarCup
 10
0.0
 20
0.0
 30
0.0
 70
   128
 71
   17
 72
   18
 73
   23
  0
VERTEX
  8
sugarCup
 10
0.0
 20
0.0
 30
0.0
 70
   128
 71
   18
 72
   19
 73
   24
  0
VERTEX
  8
sugarCup
 10
0.0
 20
0.0
 30
0.0
 70
   128
 71
   19
 72
   20
 73
   25
  0
VERTEX
  8
sugarCup
 10
0.0
 20
0.0
 30
0.0
 70
   128
 71
   21
 72
   22
 73
   27
  0
VERTEX
  8
sugarCup
 10
0.0
 20
0.0
 30
0.0
 70
   128
 71
   22
 72
   23
 73
   28
  0
VERTEX
  8
sugarCup
 10
0.0
 20
0.0
 30
0.0
 70
   128
 71
   23
 72
   24
 73
   29
  0
VERTEX
  8
sugarCup
 10
0.0
 20
0.0
 30
0.0
 70
   128
 71
   24
 72
   25
 73
   30
  0
VERTEX
  8
sugarCup
 10
0.0
 20
0.0
 30
0.0
 70
   128
 71
   26
 72
   27
 73
   32
  0
VERTEX
  8
sugarCup
 10
0.0
 20
0.0
 30
0.0
 70
   128
 71
   27
 72
   28
 73
   33
  0
VERTEX
  8
sugarCup
 10
0.0
 20
0.0
 30
0.0
 70
   128
 71
   28
 72
   29
 73
   34
  0
VERTEX
  8
sugarCup
 10
0.0
 20
0.0
 30
0.0
 70
   128
 71
   29
 72
   30
 73
   35
  0
VERTEX
  8
sugarCup
 10
0.0
 20
0.0
 30
0.0
 70
   128
 71
   31
 72
   32
 73
   37
  0
VERTEX
  8
sugarCup
 10
0.0
 20
0.0
 30
0.0
 70
   128
 71
   32
 72
   33
 73
   38
  0
VERTEX
  8
sugarCup
 10
0.0
 20
0.0
 30
0.0
 70
   128
 71
   33
 72
   34
 73
   39
  0
VERTEX
  8
sugarCup
 10
0.0
 20
0.0
 30
0.0
 70
   128
 71
   34
 72
   35
 73
   40
  0
VERTEX
  8
sugarCup
 10
0.0
 20
0.0
 30
0.0
 70
   128
 71
   36
 72
   37
 73
   42
  0
VERTEX
  8
sugarCup
 10
0.0
 20
0.0
 30
0.0
 70
   128
 71
   37
 72
   38
 73
   43
  0
VERTEX
  8
sugarCup
 10
0.0
 20
0.0
 30
0.0
 70
   128
 71
   38
 72
   39
 73
   44
  0
VERTEX
  8
sugarCup
 10
0.0
 20
0.0
 30
0.0
 70
   128
 71
   39
 72
   40
 73
   45
  0
VERTEX
  8
sugarCup
 10
0.0
 20
0.0
 30
0.0
 70
   128
 71
   41
 72
   42
 73
   47
  0
VERTEX
  8
sugarCup
 10
0.0
 20
0.0
 30
0.0
 70
   128
 71
   42
 72
   43
 73
   48
  0
VERTEX
  8
sugarCup
 10
0.0
 20
0.0
 30
0.0
 70
   128
 71
   43
 72
   44
 73
   49
  0
VERTEX
  8
sugarCup
 10
0.0
 20
0.0
 30
0.0
 70
   128
 71
   44
 72
   45
 73
   50
  0
VERTEX
  8
sugarCup
 10
0.0
 20
0.0
 30
0.0
 70
   128
 71
   46
 72
   47
 73
   52
  0
VERTEX
  8
sugarCup
 10
0.0
 20
0.0
 30
0.0
 70
   128
 71
   47
 72
   48
 73
   53
  0
VERTEX
  8
sugarCup
 10
0.0
 20
0.0
 30
0.0
 70
   128
 71
   48
 72
   49
 73
   54
  0
VERTEX
  8
sugarCup
 10
0.0
 20
0.0
 30
0.0
 70
   128
 71
   49
 72
   50
 73
   55
  0
VERTEX
  8
sugarCup
 10
0.0
 20
0.0
 30
0.0
 70
   128
 71
   51
 72
   52
 73
   2
  0
VERTEX
  8
sugarCup
 10
0.0
 20
0.0
 30
0.0
 70
   128
 71
   52
 72
   53
 73
   3
  0
VERTEX
  8
sugarCup
 10
0.0
 20
0.0
 30
0.0
 70
   128
 71
   53
 72
   54
 73
   4
  0
VERTEX
  8
sugarCup
 10
0.0
 20
0.0
 30
0.0
 70
   128
 71
   54
 72
   55
 73
   5
  0
VERTEX
  8
sugarCup
 10
0.0
 20
0.0
 30
0.0
 70
   128
 71
   15
 72
   10
 73
   45
  0
VERTEX
  8
sugarCup
 10
0.0
 20
0.0
 30
0.0
 70
   128
 71
   15
 72
   25
 73
   20
  0
VERTEX
  8
sugarCup
 10
0.0
 20
0.0
 30
0.0
 70
   128
 71
   45
 72
   10
 73
   5
  0
VERTEX
  8
sugarCup
 10
0.0
 20
0.0
 30
0.0
 70
   128
 71
   55
 72
   50
 73
   45
  0
VERTEX
  8
sugarCup
 10
0.0
 20
0.0
 30
0.0
 70
   128
 71
   45
 72
   40
 73
   35
  0
VERTEX
  8
sugarCup
 10
0.0
 20
0.0
 30
0.0
 70
   128
 71
   35
 72
   30
 73
   25
  0
VERTEX
  8
sugarCup
 10
0.0
 20
0.0
 30
0.0
 70
   128
 71
   1
 72
   6
 73
   11
  0
VERTEX
  8
sugarCup
 10
0.0
 20
0.0
 30
0.0
 70
   128
 71
   36
 72
   1
 73
   11
  0
VERTEX
  8
sugarCup
 10
0.0
 20
0.0
 30
0.0
 70
   128
 71
   51
 72
   1
 73
   36
  0
VERTEX
  8
sugarCup
 10
0.0
 20
0.0
 30
0.0
 70
   128
 71
   11
 72
   16
 73
   21
  0
VERTEX
  8
sugarCup
 10
0.0
 20
0.0
 30
0.0
 70
   128
 71
   36
 72
   21
 73
   26
  0
VERTEX
  8
sugarCup
 10
0.0
 20
0.0
 30
0.0
 70
   128
 71
   36
 72
   41
 73
   46
  0
VERTEX
  8
sugarCup
 10
0.0
 20
0.0
 30
0.0
 70
   128
 71
   1
 72
   7
 73
   6
  0
VERTEX
  8
sugarCup
 10
0.0
 20
0.0
 30
0.0
 70
   128
 71
   2
 72
   8
 73
   7
  0
VERTEX
  8
sugarCup
 10
0.0
 20
0.0
 30
0.0
 70
   128
 71
   3
 72
   9
 73
   8
  0
VERTEX
  8
sugarCup
 10
0.0
 20
0.0
 30
0.0
 70
   128
 71
   4
 72
   10
 73
   9
  0
VERTEX
  8
sugarCup
 10
0.0
 20
0.0
 30
0.0
 70
   128
 71
   6
 72
   12
 73
   11
  0
VERTEX
  8
sugarCup
 10
0.0
 20
0.0
 30
0.0
 70
   128
 71
   7
 72
   13
 73
   12
  0
VERTEX
  8
sugarCup
 10
0.0
 20
0.0
 30
0.0
 70
   128
 71
   8
 72
   14
 73
   13
  0
VERTEX
  8
sugarCup
 10
0.0
 20
0.0
 30
0.0
 70
   128
 71
   9
 72
   15
 73
   14
  0
VERTEX
  8
sugarCup
 10
0.0
 20
0.0
 30
0.0
 70
   128
 71
   11
 72
   17
 73
   16
  0
VERTEX
  8
sugarCup
 10
0.0
 20
0.0
 30
0.0
 70
   128
 71
   12
 72
   18
 73
   17
  0
VERTEX
  8
sugarCup
 10
0.0
 20
0.0
 30
0.0
 70
   128
 71
   13
 72
   19
 73
   18
  0
VERTEX
  8
sugarCup
 10
0.0
 20
0.0
 30
0.0
 70
   128
 71
   14
 72
   20
 73
   19
  0
VERTEX
  8
sugarCup
 10
0.0
 20
0.0
 30
0.0
 70
   128
 71
   16
 72
   22
 73
   21
  0
VERTEX
  8
sugarCup
 10
0.0
 20
0.0
 30
0.0
 70
   128
 71
   17
 72
   23
 73
   22
  0
VERTEX
  8
sugarCup
 10
0.0
 20
0.0
 30
0.0
 70
   128
 71
   18
 72
   24
 73
   23
  0
VERTEX
  8
sugarCup
 10
0.0
 20
0.0
 30
0.0
 70
   128
 71
   19
 72
   25
 73
   24
  0
VERTEX
  8
sugarCup
 10
0.0
 20
0.0
 30
0.0
 70
   128
 71
   21
 72
   27
 73
   26
  0
VERTEX
  8
sugarCup
 10
0.0
 20
0.0
 30
0.0
 70
   128
 71
   22
 72
   28
 73
   27
  0
VERTEX
  8
sugarCup
 10
0.0
 20
0.0
 30
0.0
 70
   128
 71
   23
 72
   29
 73
   28
  0
VERTEX
  8
sugarCup
 10
0.0
 20
0.0
 30
0.0
 70
   128
 71
   24
 72
   30
 73
   29
  0
VERTEX
  8
sugarCup
 10
0.0
 20
0.0
 30
0.0
 70
   128
 71
   26
 72
   32
 73
   31
  0
VERTEX
  8
sugarCup
 10
0.0
 20
0.0
 30
0.0
 70
   128
 71
   27
 72
   33
 73
   32
  0
VERTEX
  8
sugarCup
 10
0.0
 20
0.0
 30
0.0
 70
   128
 71
   28
 72
   34
 73
   33
  0
VERTEX
  8
sugarCup
 10
0.0
 20
0.0
 30
0.0
 70
   128
 71
   29
 72
   35
 73
   34
  0
VERTEX
  8
sugarCup
 10
0.0
 20
0.0
 30
0.0
 70
   128
 71
   31
 72
   37
 73
   36
  0
VERTEX
  8
sugarCup
 10
0.0
 20
0.0
 30
0.0
 70
   128
 71
   32
 72
   38
 73
   37
  0
VERTEX
  8
sugarCup
 10
0.0
 20
0.0
 30
0.0
 70
   128
 71
   33
 72
   39
 73
   38
  0
VERTEX
  8
sugarCup
 10
0.0
 20
0.0
 30
0.0
 70
   128
 71
   34
 72
   40
 73
   39
  0
VERTEX
  8
sugarCup
 10
0.0
 20
0.0
 30
0.0
 70
   128
 71
   36
 72
   42
 73
   41
  0
VERTEX
  8
sugarCup
 10
0.0
 20
0.0
 30
0.0
 70
   128
 71
   37
 72
   43
 73
   42
  0
VERTEX
  8
sugarCup
 10
0.0
 20
0.0
 30
0.0
 70
   128
 71
   38
 72
   44
 73
   43
  0
VERTEX
  8
sugarCup
 10
0.0
 20
0.0
 30
0.0
 70
   128
 71
   39
 72
   45
 73
   44
  0
VERTEX
  8
sugarCup
 10
0.0
 20
0.0
 30
0.0
 70
   128
 71
   41
 72
   47
 73
   46
  0
VERTEX
  8
sugarCup
 10
0.0
 20
0.0
 30
0.0
 70
   128
 71
   42
 72
   48
 73
   47
  0
VERTEX
  8
sugarCup
 10
0.0
 20
0.0
 30
0.0
 70
   128
 71
   43
 72
   49
 73
   48
  0
VERTEX
  8
sugarCup
 10
0.0
 20
0.0
 30
0.0
 70
   128
 71
   44
 72
   50
 73
   49
  0
VERTEX
  8
sugarCup
 10
0.0
 20
0.0
 30
0.0
 70
   128
 71
   46
 72
   52
 73
   51
  0
VERTEX
  8
sugarCup
 10
0.0
 20
0.0
 30
0.0
 70
   128
 71
   47
 72
   53
 73
   52
  0
VERTEX
  8
sugarCup
 10
0.0
 20
0.0
 30
0.0
 70
   128
 71
   48
 72
   54
 73
   53
  0
VERTEX
  8
sugarCup
 10
0.0
 20
0.0
 30
0.0
 70
   128
 71
   49
 72
   55
 73
   54
  0
VERTEX
  8
sugarCup
 10
0.0
 20
0.0
 30
0.0
 70
   128
 71
   51
 72
   2
 73
   1
  0
VERTEX
  8
sugarCup
 10
0.0
 20
0.0
 30
0.0
 70
   128
 71
   52
 72
   3
 73
   2
  0
VERTEX
  8
sugarCup
 10
0.0
 20
0.0
 30
0.0
 70
   128
 71
   53
 72
   4
 73
   3
  0
VERTEX
  8
sugarCup
 10
0.0
 20
0.0
 30
0.0
 70
   128
 71
   54
 72
   5
 73
   4
  0
VERTEX
  8
sugarCup
 10
0.0
 20
0.0
 30
0.0
 70
   128
 71
   15
 72
   45
 73
   25
  0
VERTEX
  8
sugarCup
 10
0.0
 20
0.0
 30
0.0
 70
   128
 71
   45
 72
   5
 73
   55
  0
VERTEX
  8
sugarCup
 10
0.0
 20
0.0
 30
0.0
 70
   128
 71
   45
 72
   35
 73
   25
  0
VERTEX
  8
sugarCup
 10
0.0
 20
0.0
 30
0.0
 70
   128
 71
   36
 72
   11
 73
   21
  0
VERTEX
  8
sugarCup
 10
0.0
 20
0.0
 30
0.0
 70
   128
 71
   51
 72
   36
 73
   46
  0
VERTEX
  8
sugarCup
 10
0.0
 20
0.0
 30
0.0
 70
   128
 71
   36
 72
   26
 73
   31
  0
SEQEND
  0
POLYLINE
  8
sugarcube
 66
   1
 10
0.0
 20
0.0
 30
0.0
 70
   64
 71
   8
 72
   12
  0
VERTEX
  8
sugarcube
 10
3.107904
 20
35.770319
 30
33.926974
 70
   192
  0
VERTEX
  8
sugarcube
 10
-4.876331
 20
57.418966
 30
32.956982
 70
   192
  0
VERTEX
  8
sugarcube
 10
9.804953
 20
37.252176
 30
11.874618
 70
   192
  0
VERTEX
  8
sugarcube
 10
1.820719
 20
58.900823
 30
10.904625
 70
   192
  0
VERTEX
  8
sugarcube
 10
-10.804616
 20
29.346925
 30
5.084516
 70
   192
  0
VERTEX
  8
sugarcube
 10
-18.788850
 20
50.995572
 30
4.114524
 70
   192
  0
VERTEX
  8
sugarcube
 10
-17.501665
 20
27.865069
 30
27.136872
 70
   192
  0
VERTEX
  8
sugarcube
 10
-25.485899
 20
49.513715
 30
26.166880
 70
   192
  0
VERTEX
  8
sugarcube
 10
0.0
 20
0.0
 30
0.0
 70
   128
 71
   1
 72
   2
 73
   4
  0
VERTEX
  8
sugarcube
 10
0.0
 20
0.0
 30
0.0
 70
   128
 71
   3
 72
   4
 73
   6
  0
VERTEX
  8
sugarcube
 10
0.0
 20
0.0
 30
0.0
 70
   128
 71
   5
 72
   6
 73
   8
  0
VERTEX
  8
sugarcube
 10
0.0
 20
0.0
 30
0.0
 70
   128
 71
   7
 72
   8
 73
   2
  0
VERTEX
  8
sugarcube
 10
0.0
 20
0.0
 30
0.0
 70
   128
 71
   2
 72
   8
 73
   6
  0
VERTEX
  8
sugarcube
 10
0.0
 20
0.0
 30
0.0
 70
   128
 71
   7
 72
   1
 73
   3
  0
VERTEX
  8
sugarcube
 10
0.0
 20
0.0
 30
0.0
 70
   128
 71
   1
 72
   4
 73
   3
  0
VERTEX
  8
sugarcube
 10
0.0
 20
0.0
 30
0.0
 70
   128
 71
   3
 72
   6
 73
   5
  0
VERTEX
  8
sugarcube
 10
0.0
 20
0.0
 30
0.0
 70
   128
 71
   5
 72
   8
 73
   7
  0
VERTEX
  8
sugarcube
 10
0.0
 20
0.0
 30
0.0
 70
   128
 71
   7
 72
   2
 73
   1
  0
VERTEX
  8
sugarcube
 10
0.0
 20
0.0
 30
0.0
 70
   128
 71
   2
 72
   6
 73
   4
  0
VERTEX
  8
sugarcube
 10
0.0
 20
0.0
 30
0.0
 70
   128
 71
   7
 72
   3
 73
   5
  0
SEQEND
  0
POLYLINE
  8
sugarcube_2
 66
   1
 10
0.0
 20
0.0
 30
0.0
 70
   64
 71
   8
 72
   12
  0
VERTEX
  8
sugarcube_2
 10
-31.033977
 20
6.007974
 30
7.062093
 70
   192
  0
VERTEX
  8
sugarcube_2
 10
-38.096749
 20
29.457508
 30
5.531765
 70
   192
  0
VERTEX
  8
sugarcube_2
 10
-8.031864
 20
13.233608
 30
11.622609
 70
   192
  0
VERTEX
  8
sugarcube_2
 10
-15.094636
 20
36.683142
 30
10.092282
 70
   192
  0
VERTEX
  8
sugarcube_2
 10
-3.222981
 20
13.111719
 30
-12.439084
 70
   192
  0
VERTEX
  8
sugarcube_2
 10
-10.285753
 20
36.561254
 30
-13.969412
 70
   192
  0
VERTEX
  8
sugarcube_2
 10
-26.225094
 20
5.886085
 30
-16.999601
 70
   192
  0
VERTEX
  8
sugarcube_2
 10
-33.287866
 20
29.335619
 30
-18.529928
 70
   192
  0
VERTEX
  8
sugarcube_2
 10
0.0
 20
0.0
 30
0.0
 70
   128
 71
   1
 72
   2
 73
   4
  0
VERTEX
  8
sugarcube_2
 10
0.0
 20
0.0
 30
0.0
 70
   128
 71
   3
 72
   4
 73
   6
  0
VERTEX
  8
sugarcube_2
 10
0.0
 20
0.0
 30
0.0
 70
   128
 71
   5
 72
   6
 73
   8
  0
VERTEX
  8
sugarcube_2
 10
0.0
 20
0.0
 30
0.0
 70
   128
 71
   7
 72
   8
 73
   2
  0
VERTEX
  8
sugarcube_2
 10
0.0
 20
0.0
 30
0.0
 70
   128
 71
   2
 72
   8
 73
   6
  0
VERTEX
  8
sugarcube_2
 10
0.0
 20
0.0
 30
0.0
 70
   128
 71
   7
 72
   1
 73
   3
  0
VERTEX
  8
sugarcube_2
 10
0.0
 20
0.0
 30
0.0
 70
   128
 71
   1
 72
   4
 73
   3
  0
VERTEX
  8
sugarcube_2
 10
0.0
 20
0.0
 30
0.0
 70
   128
 71
   3
 72
   6
 73
   5
  0
VERTEX
  8
sugarcube_2
 10
0.0
 20
0.0
 30
0.0
 70
   128
 71
   5
 72
   8
 73
   7
  0
VERTEX
  8
sugarcube_2
 10
0.0
 20
0.0
 30
0.0
 70
   128
 71
   7
 72
   2
 73
   1
  0
VERTEX
  8
sugarcube_2
 10
0.0
 20
0.0
 30
0.0
 70
   128
 71
   2
 72
   6
 73
   4
  0
VERTEX
  8
sugarcube_2
 10
0.0
 20
0.0
 30
0.0
 70
   128
 71
   7
 72
   3
 73
   5
  0
SEQEND
  0
POLYLINE
  8
sugarcube_3
 66
   1
 10
0.0
 20
0.0
 30
0.0
 70
   64
 71
   8
 72
   12
  0
VERTEX
  8
sugarcube_3
 10
-9.587349
 20
6.166264
 30
24.986282
 70
   192
  0
VERTEX
  8
sugarcube_3
 10
-9.622193
 20
31.043120
 30
24.816639
 70
   192
  0
VERTEX
  8
sugarcube_3
 10
15.040679
 20
6.224720
 30
28.499788
 70
   192
  0
VERTEX
  8
sugarcube_3
 10
15.005835
 20
31.101575
 30
28.330145
 70
   192
  0
VERTEX
  8
sugarcube_3
 10
18.554499
 20
6.061699
 30
3.872275
 70
   192
  0
VERTEX
  8
sugarcube_3
 10
18.519655
 20
30.938554
 30
3.702632
 70
   192
  0
VERTEX
  8
sugarcube_3
 10
-6.073529
 20
6.003244
 30
0.358768
 70
   192
  0
VERTEX
  8
sugarcube_3
 10
-6.108374
 20
30.880099
 30
0.189126
 70
   192
  0
VERTEX
  8
sugarcube_3
 10
0.0
 20
0.0
 30
0.0
 70
   128
 71
   1
 72
   2
 73
   4
  0
VERTEX
  8
sugarcube_3
 10
0.0
 20
0.0
 30
0.0
 70
   128
 71
   3
 72
   4
 73
   6
  0
VERTEX
  8
sugarcube_3
 10
0.0
 20
0.0
 30
0.0
 70
   128
 71
   5
 72
   6
 73
   8
  0
VERTEX
  8
sugarcube_3
 10
0.0
 20
0.0
 30
0.0
 70
   128
 71
   7
 72
   8
 73
   2
  0
VERTEX
  8
sugarcube_3
 10
0.0
 20
0.0
 30
0.0
 70
   128
 71
   2
 72
   8
 73
   6
  0
VERTEX
  8
sugarcube_3
 10
0.0
 20
0.0
 30
0.0
 70
   128
 71
   7
 72
   1
 73
   3
  0
VERTEX
  8
sugarcube_3
 10
0.0
 20
0.0
 30
0.0
 70
   128
 71
   1
 72
   4
 73
   3
  0
VERTEX
  8
sugarcube_3
 10
0.0
 20
0.0
 30
0.0
 70
   128
 71
   3
 72
   6
 73
   5
  0
VERTEX
  8
sugarcube_3
 10
0.0
 20
0.0
 30
0.0
 70
   128
 71
   5
 72
   8
 73
   7
  0
VERTEX
  8
sugarcube_3
 10
0.0
 20
0.0
 30
0.0
 70
   128
 71
   7
 72
   2
 73
   1
  0
VERTEX
  8
sugarcube_3
 10
0.0
 20
0.0
 30
0.0
 70
   128
 71
   2
 72
   6
 73
   4
  0
VERTEX
  8
sugarcube_3
 10
0.0
 20
0.0
 30
0.0
 70
   128
 71
   7
 72
   3
 73
   5
  0
SEQEND
  0
POLYLINE
  8
sugarcube_4
 66
   1
 10
0.0
 20
0.0
 30
0.0
 70
   64
 71
   8
 72
   12
  0
VERTEX
  8
sugarcube_4
 10
23.179504
 20
21.932524
 30
20.718493
 70
   192
  0
VERTEX
  8
sugarcube_4
 10
7.907110
 20
41.175562
 30
16.800918
 70
   192
  0
VERTEX
  8
sugarcube_4
 10
42.315184
 20
37.630362
 30
23.226792
 70
   192
  0
VERTEX
  8
sugarcube_4
 10
27.042790
 20
56.873400
 30
19.309216
 70
   192
  0
VERTEX
  8
sugarcube_4
 10
46.727401
 20
36.156830
 30
-1.211886
 70
   192
  0
VERTEX
  8
sugarcube_4
 10
31.455007
 20
55.399867
 30
-5.129461
 70
   192
  0
VERTEX
  8
sugarcube_4
 10
27.591721
 20
20.458992
 30
-3.720184
 70
   192
  0
VERTEX
  8
sugarcube_4
 10
12.319327
 20
39.702029
 30
-7.637759
 70
   192
  0
VERTEX
  8
sugarcube_4
 10
0.0
 20
0.0
 30
0.0
 70
   128
 71
   1
 72
   2
 73
   4
  0
VERTEX
  8
sugarcube_4
 10
0.0
 20
0.0
 30
0.0
 70
   128
 71
   3
 72
   4
 73
   6
  0
VERTEX
  8
sugarcube_4
 10
0.0
 20
0.0
 30
0.0
 70
   128
 71
   5
 72
   6
 73
   8
  0
VERTEX
  8
sugarcube_4
 10
0.0
 20
0.0
 30
0.0
 70
   128
 71
   7
 72
   8
 73
   2
  0
VERTEX
  8
sugarcube_4
 10
0.0
 20
0.0
 30
0.0
 70
   128
 71
   2
 72
   8
 73
   6
  0
VERTEX
  8
sugarcube_4
 10
0.0
 20
0.0
 30
0.0
 70
   128
 71
   7
 72
   1
 73
   3
  0
VERTEX
  8
sugarcube_4
 10
0.0
 20
0.0
 30
0.0
 70
   128
 71
   1
 72
   4
 73
   3
  0
VERTEX
  8
sugarcube_4
 10
0.0
 20
0.0
 30
0.0
 70
   128
 71
   3
 72
   6
 73
   5
  0
VERTEX
  8
sugarcube_4
 10
0.0
 20
0.0
 30
0.0
 70
   128
 71
   5
 72
   8
 73
   7
  0
VERTEX
  8
sugarcube_4
 10
0.0
 20
0.0
 30
0.0
 70
   128
 71
   7
 72
   2
 73
   1
  0
VERTEX
  8
sugarcube_4
 10
0.0
 20
0.0
 30
0.0
 70
   128
 71
   2
 72
   6
 73
   4
  0
VERTEX
  8
sugarcube_4
 10
0.0
 20
0.0
 30
0.0
 70
   128
 71
   7
 72
   3
 73
   5
  0
SEQEND
  0
POLYLINE
  8
sugarcube_5
 66
   1
 10
0.0
 20
0.0
 30
0.0
 70
   64
 71
   8
 72
   12
  0
VERTEX
  8
sugarcube_5
 10
-3.933190
 20
6.064013
 30
-19.866611
 70
   192
  0
VERTEX
  8
sugarcube_5
 10
-9.714399
 20
27.199587
 30
-30.528019
 70
   192
  0
VERTEX
  8
sugarcube_5
 10
-1.298313
 20
17.545088
 30
1.465123
 70
   192
  0
VERTEX
  8
sugarcube_5
 10
-7.079523
 20
38.680662
 30
-9.196286
 70
   192
  0
VERTEX
  8
sugarcube_5
 10
22.226897
 20
21.453149
 30
-3.544070
 70
   192
  0
VERTEX
  8
sugarcube_5
 10
16.445688
 20
42.588723
 30
-14.205479
 70
   192
  0
VERTEX
  8
sugarcube_5
 10
19.592021
 20
9.972074
 30
-24.875803
 70
   192
  0
VERTEX
  8
sugarcube_5
 10
13.810812
 20
31.107648
 30
-35.537212
 70
   192
  0
VERTEX
  8
sugarcube_5
 10
0.0
 20
0.0
 30
0.0
 70
   128
 71
   1
 72
   2
 73
   4
  0
VERTEX
  8
sugarcube_5
 10
0.0
 20
0.0
 30
0.0
 70
   128
 71
   3
 72
   4
 73
   6
  0
VERTEX
  8
sugarcube_5
 10
0.0
 20
0.0
 30
0.0
 70
   128
 71
   5
 72
   6
 73
   8
  0
VERTEX
  8
sugarcube_5
 10
0.0
 20
0.0
 30
0.0
 70
   128
 71
   7
 72
   8
 73
   2
  0
VERTEX
  8
sugarcube_5
 10
0.0
 20
0.0
 30
0.0
 70
   128
 71
   2
 72
   8
 73
   6
  0
VERTEX
  8
sugarcube_5
 10
0.0
 20
0.0
 30
0.0
 70
   128
 71
   7
 72
   1
 73
   3
  0
VERTEX
  8
sugarcube_5
 10
0.0
 20
0.0
 30
0.0
 70
   128
 71
   1
 72
   4
 73
   3
  0
VERTEX
  8
sugarcube_5
 10
0.0
 20
0.0
 30
0.0
 70
   128
 71
   3
 72
   6
 73
   5
  0
VERTEX
  8
sugarcube_5
 10
0.0
 20
0.0
 30
0.0
 70
   128
 71
   5
 72
   8
 73
   7
  0
VERTEX
  8
sugarcube_5
 10
0.0
 20
0.0
 30
0.0
 70
   128
 71
   7
 72
   2
 73
   1
  0
VERTEX
  8
sugarcube_5
 10
0.0
 20
0.0
 30
0.0
 70
   128
 71
   2
 72
   6
 73
   4
  0
VERTEX
  8
sugarcube_5
 10
0.0
 20
0.0
 30
0.0
 70
   128
 71
   7
 72
   3
 73
   5
  0
SEQEND
  0
ENDSEC
  0
EOF
