999
FBX AutoCAD (*.DXF) exporter
  0
SECTION
  2
HEADER
  9
$ACADVER
  1
AC1008
  9
$UCSORG
 10
0.0
 20
0.0
 30
0.0
  9
$UCSXDIR
 10
1.0
 20
0.0
 30
0.0
  9
$TILEMODE
 70
   1
  9
$UCSYDIR
 10
0.0
 20
1.0
 30
0.0
  0
ENDSEC
  0
SECTION
  2
TABLES
  0
TABLE
  2
LTYPE
 70
   1
  0
LTYPE
  2
CONTINUOUS
 70
   64
  3
Solid line
 72
   65
 73
   0
 40
0.0
  0
ENDTAB
  0
TABLE
  2
LAYER
 70
   1
  0
LAYER
  2
mushroom02
 70
   0
 62
   250
  6
CONTINUOUS
  0
ENDTAB
  0
ENDSEC
  0
SECTION
  2
BLOCKS
  0
ENDSEC
  0
SECTION
  2
ENTITIES
  0
POLYLINE
  8
mushroom02
 66
   1
 10
0.0
 20
0.0
 30
0.0
 70
   64
 71
   93
 72
   158
  0
VERTEX
  8
mushroom02
 10
-9.909231
 20
48.150741
 30
11.939581
 70
   192
  0
VERTEX
  8
mushroom02
 10
0.000000
 20
-0.000000
 30
11.691264
 70
   192
  0
VERTEX
  8
mushroom02
 10
0.000000
 20
4.129963
 30
20.467435
 70
   192
  0
VERTEX
  8
mushroom02
 10
0.000000
 20
12.906134
 30
22.532416
 70
   192
  0
VERTEX
  8
mushroom02
 10
0.000000
 20
28.393494
 30
18.402453
 70
   192
  0
VERTEX
  8
mushroom02
 10
-0.000000
 20
48.150741
 30
15.546246
 70
   192
  0
VERTEX
  8
mushroom02
 10
-56.831837
 20
133.509966
 30
10.151205
 70
   192
  0
VERTEX
  8
mushroom02
 10
-0.000000
 20
47.541491
 30
56.865998
 70
   192
  0
VERTEX
  8
mushroom02
 10
-0.000000
 20
91.480934
 30
70.484914
 70
   192
  0
VERTEX
  8
mushroom02
 10
-0.000000
 20
133.509966
 30
57.838778
 70
   192
  0
VERTEX
  8
mushroom02
 10
-0.000000
 20
158.345303
 30
21.359540
 70
   192
  0
VERTEX
  8
mushroom02
 10
0.000000
 20
-0.524772
 30
-0.000000
 70
   192
  0
VERTEX
  8
mushroom02
 10
-36.469056
 20
47.541491
 30
43.592347
 70
   192
  0
VERTEX
  8
mushroom02
 10
7.514999
 20
-0.000000
 30
8.956028
 70
   192
  0
VERTEX
  8
mushroom02
 10
13.156213
 20
4.129963
 30
15.678965
 70
   192
  0
VERTEX
  8
mushroom02
 10
14.483558
 20
12.906134
 30
17.260832
 70
   192
  0
VERTEX
  8
mushroom02
 10
11.828869
 20
28.393494
 30
14.097097
 70
   192
  0
VERTEX
  8
mushroom02
 10
9.909231
 20
48.150741
 30
11.939581
 70
   192
  0
VERTEX
  8
mushroom02
 10
-20.906800
 20
158.345303
 30
3.816652
 70
   192
  0
VERTEX
  8
mushroom02
 10
36.469056
 20
47.541491
 30
43.592347
 70
   192
  0
VERTEX
  8
mushroom02
 10
45.223126
 20
91.480934
 30
54.025042
 70
   192
  0
VERTEX
  8
mushroom02
 10
37.094347
 20
133.509966
 30
44.337540
 70
   192
  0
VERTEX
  8
mushroom02
 10
13.645945
 20
158.345303
 30
16.392822
 70
   192
  0
VERTEX
  8
mushroom02
 10
0.000000
 20
-0.524772
 30
-0.000000
 70
   192
  0
VERTEX
  8
mushroom02
 10
-45.223126
 20
91.480934
 30
54.025042
 70
   192
  0
VERTEX
  8
mushroom02
 10
11.513647
 20
-0.000000
 30
2.030167
 70
   192
  0
VERTEX
  8
mushroom02
 10
20.156488
 20
4.129963
 30
3.554133
 70
   192
  0
VERTEX
  8
mushroom02
 10
22.190098
 20
12.906134
 30
3.912713
 70
   192
  0
VERTEX
  8
mushroom02
 10
18.122879
 20
28.393494
 30
3.195552
 70
   192
  0
VERTEX
  8
mushroom02
 10
15.181823
 20
48.150741
 30
2.807184
 70
   192
  0
VERTEX
  8
mushroom02
 10
0.000000
 20
-0.524772
 30
-0.000000
 70
   192
  0
VERTEX
  8
mushroom02
 10
55.873836
 20
47.541491
 30
9.982283
 70
   192
  0
VERTEX
  8
mushroom02
 10
69.285849
 20
91.480934
 30
12.347183
 70
   192
  0
VERTEX
  8
mushroom02
 10
56.831837
 20
133.509966
 30
10.151205
 70
   192
  0
VERTEX
  8
mushroom02
 10
20.906800
 20
158.345303
 30
3.816652
 70
   192
  0
VERTEX
  8
mushroom02
 10
0.000000
 20
-0.524772
 30
-0.000000
 70
   192
  0
VERTEX
  8
mushroom02
 10
-37.094347
 20
133.509966
 30
44.337540
 70
   192
  0
VERTEX
  8
mushroom02
 10
10.124931
 20
-0.000000
 30
-5.845632
 70
   192
  0
VERTEX
  8
mushroom02
 10
17.725318
 20
4.129963
 30
-10.233717
 70
   192
  0
VERTEX
  8
mushroom02
 10
19.513645
 20
12.906134
 30
-11.266208
 70
   192
  0
VERTEX
  8
mushroom02
 10
15.936992
 20
28.393494
 30
-9.201227
 70
   192
  0
VERTEX
  8
mushroom02
 10
13.350671
 20
48.150741
 30
-7.577795
 70
   192
  0
VERTEX
  8
mushroom02
 10
0.000000
 20
-0.524772
 30
-0.000000
 70
   192
  0
VERTEX
  8
mushroom02
 10
49.134626
 20
47.541491
 30
-28.237671
 70
   192
  0
VERTEX
  8
mushroom02
 10
60.928953
 20
91.480934
 30
-35.047129
 70
   192
  0
VERTEX
  8
mushroom02
 10
49.977078
 20
133.509966
 30
-28.724061
 70
   192
  0
VERTEX
  8
mushroom02
 10
18.385132
 20
158.345303
 30
-10.484442
 70
   192
  0
VERTEX
  8
mushroom02
 10
0.000000
 20
-0.524772
 30
-0.000000
 70
   192
  0
VERTEX
  8
mushroom02
 10
-13.645945
 20
158.345303
 30
16.392822
 70
   192
  0
VERTEX
  8
mushroom02
 10
3.998648
 20
-0.000000
 30
-10.986194
 70
   192
  0
VERTEX
  8
mushroom02
 10
7.000275
 20
4.129963
 30
-19.233097
 70
   192
  0
VERTEX
  8
mushroom02
 10
7.706540
 20
12.906134
 30
-21.173545
 70
   192
  0
VERTEX
  8
mushroom02
 10
6.294010
 20
28.393494
 30
-17.292649
 70
   192
  0
VERTEX
  8
mushroom02
 10
5.272592
 20
48.150741
 30
-14.356108
 70
   192
  0
VERTEX
  8
mushroom02
 10
-7.514999
 20
-0.000000
 30
8.956028
 70
   192
  0
VERTEX
  8
mushroom02
 10
19.404779
 20
47.541491
 30
-53.183975
 70
   192
  0
VERTEX
  8
mushroom02
 10
24.062723
 20
91.480934
 30
-65.981569
 70
   192
  0
VERTEX
  8
mushroom02
 10
19.737490
 20
133.509966
 30
-54.098089
 70
   192
  0
VERTEX
  8
mushroom02
 10
7.260856
 20
158.345303
 30
-19.818818
 70
   192
  0
VERTEX
  8
mushroom02
 10
0.000000
 20
-0.524772
 30
-0.000000
 70
   192
  0
VERTEX
  8
mushroom02
 10
0.000000
 20
-0.524772
 30
-0.000000
 70
   192
  0
VERTEX
  8
mushroom02
 10
-3.998648
 20
-0.000000
 30
-10.986194
 70
   192
  0
VERTEX
  8
mushroom02
 10
-7.000275
 20
4.129963
 30
-19.233097
 70
   192
  0
VERTEX
  8
mushroom02
 10
-7.706540
 20
12.906134
 30
-21.173545
 70
   192
  0
VERTEX
  8
mushroom02
 10
-6.294010
 20
28.393494
 30
-17.292649
 70
   192
  0
VERTEX
  8
mushroom02
 10
-5.272592
 20
48.150741
 30
-14.356108
 70
   192
  0
VERTEX
  8
mushroom02
 10
-13.156213
 20
4.129963
 30
15.678965
 70
   192
  0
VERTEX
  8
mushroom02
 10
-19.404779
 20
47.541491
 30
-53.183975
 70
   192
  0
VERTEX
  8
mushroom02
 10
-24.062723
 20
91.480934
 30
-65.981569
 70
   192
  0
VERTEX
  8
mushroom02
 10
-19.737490
 20
133.509966
 30
-54.098089
 70
   192
  0
VERTEX
  8
mushroom02
 10
-7.260856
 20
158.345303
 30
-19.818818
 70
   192
  0
VERTEX
  8
mushroom02
 10
0.000000
 20
-0.524772
 30
-0.000000
 70
   192
  0
VERTEX
  8
mushroom02
 10
0.000000
 20
-0.524772
 30
-0.000000
 70
   192
  0
VERTEX
  8
mushroom02
 10
-10.124931
 20
-0.000000
 30
-5.845632
 70
   192
  0
VERTEX
  8
mushroom02
 10
-17.725318
 20
4.129963
 30
-10.233717
 70
   192
  0
VERTEX
  8
mushroom02
 10
-19.513645
 20
12.906134
 30
-11.266208
 70
   192
  0
VERTEX
  8
mushroom02
 10
-15.936992
 20
28.393494
 30
-9.201227
 70
   192
  0
VERTEX
  8
mushroom02
 10
-13.350671
 20
48.150741
 30
-7.577795
 70
   192
  0
VERTEX
  8
mushroom02
 10
-14.483558
 20
12.906134
 30
17.260832
 70
   192
  0
VERTEX
  8
mushroom02
 10
-49.134626
 20
47.541491
 30
-28.237671
 70
   192
  0
VERTEX
  8
mushroom02
 10
-60.928953
 20
91.480934
 30
-35.047129
 70
   192
  0
VERTEX
  8
mushroom02
 10
-49.977078
 20
133.509966
 30
-28.724061
 70
   192
  0
VERTEX
  8
mushroom02
 10
-18.385132
 20
158.345303
 30
-10.484442
 70
   192
  0
VERTEX
  8
mushroom02
 10
0.000000
 20
-0.524772
 30
-0.000000
 70
   192
  0
VERTEX
  8
mushroom02
 10
0.000000
 20
-0.524772
 30
-0.000000
 70
   192
  0
VERTEX
  8
mushroom02
 10
-11.513647
 20
-0.000000
 30
2.030167
 70
   192
  0
VERTEX
  8
mushroom02
 10
-20.156488
 20
4.129963
 30
3.554133
 70
   192
  0
VERTEX
  8
mushroom02
 10
-22.190098
 20
12.906134
 30
3.912713
 70
   192
  0
VERTEX
  8
mushroom02
 10
-18.122879
 20
28.393494
 30
3.195552
 70
   192
  0
VERTEX
  8
mushroom02
 10
-15.181823
 20
48.150741
 30
2.807184
 70
   192
  0
VERTEX
  8
mushroom02
 10
-11.828869
 20
28.393494
 30
14.097097
 70
   192
  0
VERTEX
  8
mushroom02
 10
-55.873836
 20
47.541491
 30
9.982283
 70
   192
  0
VERTEX
  8
mushroom02
 10
-69.285849
 20
91.480934
 30
12.347183
 70
   192
  0
VERTEX
  8
mushroom02
 10
0.0
 20
0.0
 30
0.0
 70
   128
 71
   2
 72
   14
 73
   26
  0
VERTEX
  8
mushroom02
 10
0.0
 20
0.0
 30
0.0
 70
   128
 71
   2
 72
   3
 73
   15
  0
VERTEX
  8
mushroom02
 10
0.0
 20
0.0
 30
0.0
 70
   128
 71
   3
 72
   4
 73
   16
  0
VERTEX
  8
mushroom02
 10
0.0
 20
0.0
 30
0.0
 70
   128
 71
   4
 72
   5
 73
   17
  0
VERTEX
  8
mushroom02
 10
0.0
 20
0.0
 30
0.0
 70
   128
 71
   5
 72
   6
 73
   18
  0
VERTEX
  8
mushroom02
 10
0.0
 20
0.0
 30
0.0
 70
   128
 71
   6
 72
   8
 73
   20
  0
VERTEX
  8
mushroom02
 10
0.0
 20
0.0
 30
0.0
 70
   128
 71
   89
 72
   90
 73
   1
  0
VERTEX
  8
mushroom02
 10
0.0
 20
0.0
 30
0.0
 70
   128
 71
   8
 72
   9
 73
   21
  0
VERTEX
  8
mushroom02
 10
0.0
 20
0.0
 30
0.0
 70
   128
 71
   9
 72
   10
 73
   22
  0
VERTEX
  8
mushroom02
 10
0.0
 20
0.0
 30
0.0
 70
   128
 71
   10
 72
   11
 73
   23
  0
VERTEX
  8
mushroom02
 10
0.0
 20
0.0
 30
0.0
 70
   128
 71
   23
 72
   11
 73
   49
  0
VERTEX
  8
mushroom02
 10
0.0
 20
0.0
 30
0.0
 70
   128
 71
   26
 72
   38
 73
   50
  0
VERTEX
  8
mushroom02
 10
0.0
 20
0.0
 30
0.0
 70
   128
 71
   14
 72
   15
 73
   27
  0
VERTEX
  8
mushroom02
 10
0.0
 20
0.0
 30
0.0
 70
   128
 71
   15
 72
   16
 73
   28
  0
VERTEX
  8
mushroom02
 10
0.0
 20
0.0
 30
0.0
 70
   128
 71
   16
 72
   17
 73
   29
  0
VERTEX
  8
mushroom02
 10
0.0
 20
0.0
 30
0.0
 70
   128
 71
   17
 72
   18
 73
   30
  0
VERTEX
  8
mushroom02
 10
0.0
 20
0.0
 30
0.0
 70
   128
 71
   18
 72
   20
 73
   32
  0
VERTEX
  8
mushroom02
 10
0.0
 20
0.0
 30
0.0
 70
   128
 71
   90
 72
   92
 73
   13
  0
VERTEX
  8
mushroom02
 10
0.0
 20
0.0
 30
0.0
 70
   128
 71
   20
 72
   21
 73
   33
  0
VERTEX
  8
mushroom02
 10
0.0
 20
0.0
 30
0.0
 70
   128
 71
   21
 72
   22
 73
   34
  0
VERTEX
  8
mushroom02
 10
0.0
 20
0.0
 30
0.0
 70
   128
 71
   22
 72
   23
 73
   35
  0
VERTEX
  8
mushroom02
 10
0.0
 20
0.0
 30
0.0
 70
   128
 71
   19
 72
   83
 73
   71
  0
VERTEX
  8
mushroom02
 10
0.0
 20
0.0
 30
0.0
 70
   128
 71
   55
 72
   26
 73
   50
  0
VERTEX
  8
mushroom02
 10
0.0
 20
0.0
 30
0.0
 70
   128
 71
   26
 72
   27
 73
   39
  0
VERTEX
  8
mushroom02
 10
0.0
 20
0.0
 30
0.0
 70
   128
 71
   27
 72
   28
 73
   40
  0
VERTEX
  8
mushroom02
 10
0.0
 20
0.0
 30
0.0
 70
   128
 71
   28
 72
   29
 73
   41
  0
VERTEX
  8
mushroom02
 10
0.0
 20
0.0
 30
0.0
 70
   128
 71
   29
 72
   30
 73
   42
  0
VERTEX
  8
mushroom02
 10
0.0
 20
0.0
 30
0.0
 70
   128
 71
   30
 72
   32
 73
   44
  0
VERTEX
  8
mushroom02
 10
0.0
 20
0.0
 30
0.0
 70
   128
 71
   92
 72
   93
 73
   25
  0
VERTEX
  8
mushroom02
 10
0.0
 20
0.0
 30
0.0
 70
   128
 71
   32
 72
   33
 73
   45
  0
VERTEX
  8
mushroom02
 10
0.0
 20
0.0
 30
0.0
 70
   128
 71
   33
 72
   34
 73
   46
  0
VERTEX
  8
mushroom02
 10
0.0
 20
0.0
 30
0.0
 70
   128
 71
   34
 72
   35
 73
   47
  0
VERTEX
  8
mushroom02
 10
0.0
 20
0.0
 30
0.0
 70
   128
 71
   19
 72
   71
 73
   35
  0
VERTEX
  8
mushroom02
 10
0.0
 20
0.0
 30
0.0
 70
   128
 71
   86
 72
   50
 73
   62
  0
VERTEX
  8
mushroom02
 10
0.0
 20
0.0
 30
0.0
 70
   128
 71
   38
 72
   39
 73
   51
  0
VERTEX
  8
mushroom02
 10
0.0
 20
0.0
 30
0.0
 70
   128
 71
   39
 72
   40
 73
   52
  0
VERTEX
  8
mushroom02
 10
0.0
 20
0.0
 30
0.0
 70
   128
 71
   40
 72
   41
 73
   53
  0
VERTEX
  8
mushroom02
 10
0.0
 20
0.0
 30
0.0
 70
   128
 71
   41
 72
   42
 73
   54
  0
VERTEX
  8
mushroom02
 10
0.0
 20
0.0
 30
0.0
 70
   128
 71
   42
 72
   44
 73
   56
  0
VERTEX
  8
mushroom02
 10
0.0
 20
0.0
 30
0.0
 70
   128
 71
   88
 72
   89
 73
   91
  0
VERTEX
  8
mushroom02
 10
0.0
 20
0.0
 30
0.0
 70
   128
 71
   44
 72
   45
 73
   57
  0
VERTEX
  8
mushroom02
 10
0.0
 20
0.0
 30
0.0
 70
   128
 71
   45
 72
   46
 73
   58
  0
VERTEX
  8
mushroom02
 10
0.0
 20
0.0
 30
0.0
 70
   128
 71
   46
 72
   47
 73
   59
  0
VERTEX
  8
mushroom02
 10
0.0
 20
0.0
 30
0.0
 70
   128
 71
   71
 72
   59
 73
   47
  0
VERTEX
  8
mushroom02
 10
0.0
 20
0.0
 30
0.0
 70
   128
 71
   55
 72
   67
 73
   3
  0
VERTEX
  8
mushroom02
 10
0.0
 20
0.0
 30
0.0
 70
   128
 71
   50
 72
   51
 73
   63
  0
VERTEX
  8
mushroom02
 10
0.0
 20
0.0
 30
0.0
 70
   128
 71
   51
 72
   52
 73
   64
  0
VERTEX
  8
mushroom02
 10
0.0
 20
0.0
 30
0.0
 70
   128
 71
   52
 72
   53
 73
   65
  0
VERTEX
  8
mushroom02
 10
0.0
 20
0.0
 30
0.0
 70
   128
 71
   53
 72
   54
 73
   66
  0
VERTEX
  8
mushroom02
 10
0.0
 20
0.0
 30
0.0
 70
   128
 71
   54
 72
   56
 73
   68
  0
VERTEX
  8
mushroom02
 10
0.0
 20
0.0
 30
0.0
 70
   128
 71
   93
 72
   7
 73
   37
  0
VERTEX
  8
mushroom02
 10
0.0
 20
0.0
 30
0.0
 70
   128
 71
   56
 72
   57
 73
   69
  0
VERTEX
  8
mushroom02
 10
0.0
 20
0.0
 30
0.0
 70
   128
 71
   57
 72
   58
 73
   70
  0
VERTEX
  8
mushroom02
 10
0.0
 20
0.0
 30
0.0
 70
   128
 71
   58
 72
   59
 73
   71
  0
VERTEX
  8
mushroom02
 10
0.0
 20
0.0
 30
0.0
 70
   128
 71
   37
 72
   49
 73
   11
  0
VERTEX
  8
mushroom02
 10
0.0
 20
0.0
 30
0.0
 70
   128
 71
   67
 72
   79
 73
   4
  0
VERTEX
  8
mushroom02
 10
0.0
 20
0.0
 30
0.0
 70
   128
 71
   62
 72
   63
 73
   75
  0
VERTEX
  8
mushroom02
 10
0.0
 20
0.0
 30
0.0
 70
   128
 71
   63
 72
   64
 73
   76
  0
VERTEX
  8
mushroom02
 10
0.0
 20
0.0
 30
0.0
 70
   128
 71
   64
 72
   65
 73
   77
  0
VERTEX
  8
mushroom02
 10
0.0
 20
0.0
 30
0.0
 70
   128
 71
   65
 72
   66
 73
   78
  0
VERTEX
  8
mushroom02
 10
0.0
 20
0.0
 30
0.0
 70
   128
 71
   66
 72
   68
 73
   80
  0
VERTEX
  8
mushroom02
 10
0.0
 20
0.0
 30
0.0
 70
   128
 71
   7
 72
   19
 73
   49
  0
VERTEX
  8
mushroom02
 10
0.0
 20
0.0
 30
0.0
 70
   128
 71
   68
 72
   69
 73
   81
  0
VERTEX
  8
mushroom02
 10
0.0
 20
0.0
 30
0.0
 70
   128
 71
   69
 72
   70
 73
   82
  0
VERTEX
  8
mushroom02
 10
0.0
 20
0.0
 30
0.0
 70
   128
 71
   70
 72
   71
 73
   83
  0
VERTEX
  8
mushroom02
 10
0.0
 20
0.0
 30
0.0
 70
   128
 71
   13
 72
   8
 73
   6
  0
VERTEX
  8
mushroom02
 10
0.0
 20
0.0
 30
0.0
 70
   128
 71
   79
 72
   91
 73
   5
  0
VERTEX
  8
mushroom02
 10
0.0
 20
0.0
 30
0.0
 70
   128
 71
   74
 72
   75
 73
   87
  0
VERTEX
  8
mushroom02
 10
0.0
 20
0.0
 30
0.0
 70
   128
 71
   75
 72
   76
 73
   88
  0
VERTEX
  8
mushroom02
 10
0.0
 20
0.0
 30
0.0
 70
   128
 71
   76
 72
   77
 73
   89
  0
VERTEX
  8
mushroom02
 10
0.0
 20
0.0
 30
0.0
 70
   128
 71
   77
 72
   78
 73
   90
  0
VERTEX
  8
mushroom02
 10
0.0
 20
0.0
 30
0.0
 70
   128
 71
   78
 72
   80
 73
   92
  0
VERTEX
  8
mushroom02
 10
0.0
 20
0.0
 30
0.0
 70
   128
 71
   25
 72
   37
 73
   10
  0
VERTEX
  8
mushroom02
 10
0.0
 20
0.0
 30
0.0
 70
   128
 71
   80
 72
   81
 73
   93
  0
VERTEX
  8
mushroom02
 10
0.0
 20
0.0
 30
0.0
 70
   128
 71
   81
 72
   82
 73
   7
  0
VERTEX
  8
mushroom02
 10
0.0
 20
0.0
 30
0.0
 70
   128
 71
   82
 72
   83
 73
   19
  0
VERTEX
  8
mushroom02
 10
0.0
 20
0.0
 30
0.0
 70
   128
 71
   13
 72
   25
 73
   9
  0
VERTEX
  8
mushroom02
 10
0.0
 20
0.0
 30
0.0
 70
   128
 71
   91
 72
   1
 73
   6
  0
VERTEX
  8
mushroom02
 10
0.0
 20
0.0
 30
0.0
 70
   128
 71
   86
 72
   87
 73
   67
  0
VERTEX
  8
mushroom02
 10
0.0
 20
0.0
 30
0.0
 70
   128
 71
   87
 72
   88
 73
   79
  0
VERTEX
  8
mushroom02
 10
0.0
 20
0.0
 30
0.0
 70
   128
 71
   2
 72
   26
 73
   55
  0
VERTEX
  8
mushroom02
 10
0.0
 20
0.0
 30
0.0
 70
   128
 71
   2
 72
   15
 73
   14
  0
VERTEX
  8
mushroom02
 10
0.0
 20
0.0
 30
0.0
 70
   128
 71
   3
 72
   16
 73
   15
  0
VERTEX
  8
mushroom02
 10
0.0
 20
0.0
 30
0.0
 70
   128
 71
   4
 72
   17
 73
   16
  0
VERTEX
  8
mushroom02
 10
0.0
 20
0.0
 30
0.0
 70
   128
 71
   5
 72
   18
 73
   17
  0
VERTEX
  8
mushroom02
 10
0.0
 20
0.0
 30
0.0
 70
   128
 71
   6
 72
   20
 73
   18
  0
VERTEX
  8
mushroom02
 10
0.0
 20
0.0
 30
0.0
 70
   128
 71
   89
 72
   1
 73
   91
  0
VERTEX
  8
mushroom02
 10
0.0
 20
0.0
 30
0.0
 70
   128
 71
   8
 72
   21
 73
   20
  0
VERTEX
  8
mushroom02
 10
0.0
 20
0.0
 30
0.0
 70
   128
 71
   9
 72
   22
 73
   21
  0
VERTEX
  8
mushroom02
 10
0.0
 20
0.0
 30
0.0
 70
   128
 71
   10
 72
   23
 73
   22
  0
VERTEX
  8
mushroom02
 10
0.0
 20
0.0
 30
0.0
 70
   128
 71
   23
 72
   49
 73
   19
  0
VERTEX
  8
mushroom02
 10
0.0
 20
0.0
 30
0.0
 70
   128
 71
   14
 72
   27
 73
   26
  0
VERTEX
  8
mushroom02
 10
0.0
 20
0.0
 30
0.0
 70
   128
 71
   15
 72
   28
 73
   27
  0
VERTEX
  8
mushroom02
 10
0.0
 20
0.0
 30
0.0
 70
   128
 71
   16
 72
   29
 73
   28
  0
VERTEX
  8
mushroom02
 10
0.0
 20
0.0
 30
0.0
 70
   128
 71
   17
 72
   30
 73
   29
  0
VERTEX
  8
mushroom02
 10
0.0
 20
0.0
 30
0.0
 70
   128
 71
   18
 72
   32
 73
   30
  0
VERTEX
  8
mushroom02
 10
0.0
 20
0.0
 30
0.0
 70
   128
 71
   90
 72
   13
 73
   1
  0
VERTEX
  8
mushroom02
 10
0.0
 20
0.0
 30
0.0
 70
   128
 71
   20
 72
   33
 73
   32
  0
VERTEX
  8
mushroom02
 10
0.0
 20
0.0
 30
0.0
 70
   128
 71
   21
 72
   34
 73
   33
  0
VERTEX
  8
mushroom02
 10
0.0
 20
0.0
 30
0.0
 70
   128
 71
   22
 72
   35
 73
   34
  0
VERTEX
  8
mushroom02
 10
0.0
 20
0.0
 30
0.0
 70
   128
 71
   55
 72
   50
 73
   86
  0
VERTEX
  8
mushroom02
 10
0.0
 20
0.0
 30
0.0
 70
   128
 71
   26
 72
   39
 73
   38
  0
VERTEX
  8
mushroom02
 10
0.0
 20
0.0
 30
0.0
 70
   128
 71
   27
 72
   40
 73
   39
  0
VERTEX
  8
mushroom02
 10
0.0
 20
0.0
 30
0.0
 70
   128
 71
   28
 72
   41
 73
   40
  0
VERTEX
  8
mushroom02
 10
0.0
 20
0.0
 30
0.0
 70
   128
 71
   29
 72
   42
 73
   41
  0
VERTEX
  8
mushroom02
 10
0.0
 20
0.0
 30
0.0
 70
   128
 71
   30
 72
   44
 73
   42
  0
VERTEX
  8
mushroom02
 10
0.0
 20
0.0
 30
0.0
 70
   128
 71
   92
 72
   25
 73
   13
  0
VERTEX
  8
mushroom02
 10
0.0
 20
0.0
 30
0.0
 70
   128
 71
   32
 72
   45
 73
   44
  0
VERTEX
  8
mushroom02
 10
0.0
 20
0.0
 30
0.0
 70
   128
 71
   33
 72
   46
 73
   45
  0
VERTEX
  8
mushroom02
 10
0.0
 20
0.0
 30
0.0
 70
   128
 71
   34
 72
   47
 73
   46
  0
VERTEX
  8
mushroom02
 10
0.0
 20
0.0
 30
0.0
 70
   128
 71
   19
 72
   35
 73
   23
  0
VERTEX
  8
mushroom02
 10
0.0
 20
0.0
 30
0.0
 70
   128
 71
   86
 72
   62
 73
   74
  0
VERTEX
  8
mushroom02
 10
0.0
 20
0.0
 30
0.0
 70
   128
 71
   38
 72
   51
 73
   50
  0
VERTEX
  8
mushroom02
 10
0.0
 20
0.0
 30
0.0
 70
   128
 71
   39
 72
   52
 73
   51
  0
VERTEX
  8
mushroom02
 10
0.0
 20
0.0
 30
0.0
 70
   128
 71
   40
 72
   53
 73
   52
  0
VERTEX
  8
mushroom02
 10
0.0
 20
0.0
 30
0.0
 70
   128
 71
   41
 72
   54
 73
   53
  0
VERTEX
  8
mushroom02
 10
0.0
 20
0.0
 30
0.0
 70
   128
 71
   42
 72
   56
 73
   54
  0
VERTEX
  8
mushroom02
 10
0.0
 20
0.0
 30
0.0
 70
   128
 71
   88
 72
   91
 73
   79
  0
VERTEX
  8
mushroom02
 10
0.0
 20
0.0
 30
0.0
 70
   128
 71
   44
 72
   57
 73
   56
  0
VERTEX
  8
mushroom02
 10
0.0
 20
0.0
 30
0.0
 70
   128
 71
   45
 72
   58
 73
   57
  0
VERTEX
  8
mushroom02
 10
0.0
 20
0.0
 30
0.0
 70
   128
 71
   46
 72
   59
 73
   58
  0
VERTEX
  8
mushroom02
 10
0.0
 20
0.0
 30
0.0
 70
   128
 71
   71
 72
   47
 73
   35
  0
VERTEX
  8
mushroom02
 10
0.0
 20
0.0
 30
0.0
 70
   128
 71
   55
 72
   3
 73
   2
  0
VERTEX
  8
mushroom02
 10
0.0
 20
0.0
 30
0.0
 70
   128
 71
   50
 72
   63
 73
   62
  0
VERTEX
  8
mushroom02
 10
0.0
 20
0.0
 30
0.0
 70
   128
 71
   51
 72
   64
 73
   63
  0
VERTEX
  8
mushroom02
 10
0.0
 20
0.0
 30
0.0
 70
   128
 71
   52
 72
   65
 73
   64
  0
VERTEX
  8
mushroom02
 10
0.0
 20
0.0
 30
0.0
 70
   128
 71
   53
 72
   66
 73
   65
  0
VERTEX
  8
mushroom02
 10
0.0
 20
0.0
 30
0.0
 70
   128
 71
   54
 72
   68
 73
   66
  0
VERTEX
  8
mushroom02
 10
0.0
 20
0.0
 30
0.0
 70
   128
 71
   93
 72
   37
 73
   25
  0
VERTEX
  8
mushroom02
 10
0.0
 20
0.0
 30
0.0
 70
   128
 71
   56
 72
   69
 73
   68
  0
VERTEX
  8
mushroom02
 10
0.0
 20
0.0
 30
0.0
 70
   128
 71
   57
 72
   70
 73
   69
  0
VERTEX
  8
mushroom02
 10
0.0
 20
0.0
 30
0.0
 70
   128
 71
   58
 72
   71
 73
   70
  0
VERTEX
  8
mushroom02
 10
0.0
 20
0.0
 30
0.0
 70
   128
 71
   37
 72
   11
 73
   10
  0
VERTEX
  8
mushroom02
 10
0.0
 20
0.0
 30
0.0
 70
   128
 71
   67
 72
   4
 73
   3
  0
VERTEX
  8
mushroom02
 10
0.0
 20
0.0
 30
0.0
 70
   128
 71
   62
 72
   75
 73
   74
  0
VERTEX
  8
mushroom02
 10
0.0
 20
0.0
 30
0.0
 70
   128
 71
   63
 72
   76
 73
   75
  0
VERTEX
  8
mushroom02
 10
0.0
 20
0.0
 30
0.0
 70
   128
 71
   64
 72
   77
 73
   76
  0
VERTEX
  8
mushroom02
 10
0.0
 20
0.0
 30
0.0
 70
   128
 71
   65
 72
   78
 73
   77
  0
VERTEX
  8
mushroom02
 10
0.0
 20
0.0
 30
0.0
 70
   128
 71
   66
 72
   80
 73
   78
  0
VERTEX
  8
mushroom02
 10
0.0
 20
0.0
 30
0.0
 70
   128
 71
   7
 72
   49
 73
   37
  0
VERTEX
  8
mushroom02
 10
0.0
 20
0.0
 30
0.0
 70
   128
 71
   68
 72
   81
 73
   80
  0
VERTEX
  8
mushroom02
 10
0.0
 20
0.0
 30
0.0
 70
   128
 71
   69
 72
   82
 73
   81
  0
VERTEX
  8
mushroom02
 10
0.0
 20
0.0
 30
0.0
 70
   128
 71
   70
 72
   83
 73
   82
  0
VERTEX
  8
mushroom02
 10
0.0
 20
0.0
 30
0.0
 70
   128
 71
   13
 72
   6
 73
   1
  0
VERTEX
  8
mushroom02
 10
0.0
 20
0.0
 30
0.0
 70
   128
 71
   79
 72
   5
 73
   4
  0
VERTEX
  8
mushroom02
 10
0.0
 20
0.0
 30
0.0
 70
   128
 71
   74
 72
   87
 73
   86
  0
VERTEX
  8
mushroom02
 10
0.0
 20
0.0
 30
0.0
 70
   128
 71
   75
 72
   88
 73
   87
  0
VERTEX
  8
mushroom02
 10
0.0
 20
0.0
 30
0.0
 70
   128
 71
   76
 72
   89
 73
   88
  0
VERTEX
  8
mushroom02
 10
0.0
 20
0.0
 30
0.0
 70
   128
 71
   77
 72
   90
 73
   89
  0
VERTEX
  8
mushroom02
 10
0.0
 20
0.0
 30
0.0
 70
   128
 71
   78
 72
   92
 73
   90
  0
VERTEX
  8
mushroom02
 10
0.0
 20
0.0
 30
0.0
 70
   128
 71
   25
 72
   10
 73
   9
  0
VERTEX
  8
mushroom02
 10
0.0
 20
0.0
 30
0.0
 70
   128
 71
   80
 72
   93
 73
   92
  0
VERTEX
  8
mushroom02
 10
0.0
 20
0.0
 30
0.0
 70
   128
 71
   81
 72
   7
 73
   93
  0
VERTEX
  8
mushroom02
 10
0.0
 20
0.0
 30
0.0
 70
   128
 71
   82
 72
   19
 73
   7
  0
VERTEX
  8
mushroom02
 10
0.0
 20
0.0
 30
0.0
 70
   128
 71
   13
 72
   9
 73
   8
  0
VERTEX
  8
mushroom02
 10
0.0
 20
0.0
 30
0.0
 70
   128
 71
   91
 72
   6
 73
   5
  0
VERTEX
  8
mushroom02
 10
0.0
 20
0.0
 30
0.0
 70
   128
 71
   86
 72
   67
 73
   55
  0
VERTEX
  8
mushroom02
 10
0.0
 20
0.0
 30
0.0
 70
   128
 71
   87
 72
   79
 73
   67
  0
SEQEND
  0
ENDSEC
  0
EOF
