999
FBX AutoCAD (*.DXF) exporter
  0
SECTION
  2
HEADER
  9
$ACADVER
  1
AC1008
  9
$UCSORG
 10
0.0
 20
0.0
 30
0.0
  9
$UCSXDIR
 10
1.0
 20
0.0
 30
0.0
  9
$TILEMODE
 70
   1
  9
$UCSYDIR
 10
0.0
 20
1.0
 30
0.0
  0
ENDSEC
  0
SECTION
  2
TABLES
  0
TABLE
  2
LTYPE
 70
   1
  0
LTYPE
  2
CONTINUOUS
 70
   64
  3
Solid line
 72
   65
 73
   0
 40
0.0
  0
ENDTAB
  0
TABLE
  2
LAYER
 70
   5
  0
LAYER
  2
mustard
 70
   0
 62
   250
  6
CONTINUOUS
  0
LAYER
  2
hotdog_2
 70
   0
 62
   250
  6
CONTINUOUS
  0
LAYER
  2
bun
 70
   0
 62
   250
  6
CONTINUOUS
  0
LAYER
  2
bun_2
 70
   0
 62
   250
  6
CONTINUOUS
  0
ENDTAB
  0
ENDSEC
  0
SECTION
  2
BLOCKS
  0
ENDSEC
  0
SECTION
  2
ENTITIES
  0
POLYLINE
  8
mustard
 66
   1
 10
0.0
 20
0.0
 30
0.0
 70
   64
 71
   62
 72
   120
  0
VERTEX
  8
mustard
 10
81.968346
 20
99.191476
 30
5.934748
 70
   192
  0
VERTEX
  8
mustard
 10
83.665024
 20
101.825179
 30
-6.232647
 70
   192
  0
VERTEX
  8
mustard
 10
78.913489
 20
95.571157
 30
-15.501053
 70
   192
  0
VERTEX
  8
mustard
 10
73.247589
 20
96.400935
 30
9.653525
 70
   192
  0
VERTEX
  8
mustard
 10
71.965676
 20
88.173018
 30
-24.531245
 70
   192
  0
VERTEX
  8
mustard
 10
56.173759
 20
90.123054
 30
-16.551508
 70
   192
  0
VERTEX
  8
mustard
 10
49.162916
 20
92.343491
 30
-9.976521
 70
   192
  0
VERTEX
  8
mustard
 10
42.483515
 20
94.292783
 30
-3.191446
 70
   192
  0
VERTEX
  8
mustard
 10
36.204448
 20
91.228721
 30
3.026369
 70
   192
  0
VERTEX
  8
mustard
 10
31.394072
 20
89.325722
 30
6.298419
 70
   192
  0
VERTEX
  8
mustard
 10
18.420185
 20
87.480500
 30
8.740839
 70
   192
  0
VERTEX
  8
mustard
 10
4.523007
 20
88.422483
 30
4.658474
 70
   192
  0
VERTEX
  8
mustard
 10
-4.107702
 20
89.550113
 30
-4.963221
 70
   192
  0
VERTEX
  8
mustard
 10
-9.184074
 20
84.030106
 30
-14.910118
 70
   192
  0
VERTEX
  8
mustard
 10
-16.377306
 20
79.760055
 30
-22.531839
 70
   192
  0
VERTEX
  8
mustard
 10
-26.765541
 20
72.224059
 30
-25.113911
 70
   192
  0
VERTEX
  8
mustard
 10
-38.576245
 20
72.833269
 30
-25.342702
 70
   192
  0
VERTEX
  8
mustard
 10
-48.271007
 20
82.451790
 30
-22.940560
 70
   192
  0
VERTEX
  8
mustard
 10
-59.576059
 20
89.212511
 30
-14.529068
 70
   192
  0
VERTEX
  8
mustard
 10
-66.182760
 20
94.172316
 30
3.807161
 70
   192
  0
VERTEX
  8
mustard
 10
-55.941422
 20
91.305651
 30
7.824431
 70
   192
  0
VERTEX
  8
mustard
 10
-47.906929
 20
89.719745
 30
-9.891357
 70
   192
  0
VERTEX
  8
mustard
 10
-36.019871
 20
83.195944
 30
-17.694978
 70
   192
  0
VERTEX
  8
mustard
 10
-21.946258
 20
83.909056
 30
-14.743963
 70
   192
  0
VERTEX
  8
mustard
 10
-12.788017
 20
89.066420
 30
1.469444
 70
   192
  0
VERTEX
  8
mustard
 10
7.070938
 20
85.107253
 30
16.605923
 70
   192
  0
VERTEX
  8
mustard
 10
29.802476
 20
79.425919
 30
21.657724
 70
   192
  0
VERTEX
  8
mustard
 10
45.345485
 20
90.453749
 30
11.546351
 70
   192
  0
VERTEX
  8
mustard
 10
56.245743
 20
96.823934
 30
-4.725657
 70
   192
  0
VERTEX
  8
mustard
 10
68.121206
 20
94.465505
 30
-13.381627
 70
   192
  0
VERTEX
  8
mustard
 10
76.415672
 20
100.669666
 30
-5.539238
 70
   192
  0
VERTEX
  8
mustard
 10
81.760096
 20
103.627732
 30
5.209306
 70
   192
  0
VERTEX
  8
mustard
 10
83.456775
 20
106.261434
 30
-6.958090
 70
   192
  0
VERTEX
  8
mustard
 10
78.705239
 20
100.007413
 30
-16.226495
 70
   192
  0
VERTEX
  8
mustard
 10
73.039340
 20
100.837191
 30
8.928082
 70
   192
  0
VERTEX
  8
mustard
 10
71.757426
 20
92.609274
 30
-25.256687
 70
   192
  0
VERTEX
  8
mustard
 10
55.965509
 20
94.559310
 30
-17.276951
 70
   192
  0
VERTEX
  8
mustard
 10
48.954666
 20
96.779747
 30
-10.701963
 70
   192
  0
VERTEX
  8
mustard
 10
42.275265
 20
98.729039
 30
-3.916888
 70
   192
  0
VERTEX
  8
mustard
 10
35.996198
 20
95.664977
 30
2.300926
 70
   192
  0
VERTEX
  8
mustard
 10
31.185823
 20
93.761978
 30
5.572977
 70
   192
  0
VERTEX
  8
mustard
 10
18.211936
 20
91.916756
 30
8.015397
 70
   192
  0
VERTEX
  8
mustard
 10
4.314757
 20
92.858739
 30
3.933032
 70
   192
  0
VERTEX
  8
mustard
 10
-4.315952
 20
93.986369
 30
-5.688663
 70
   192
  0
VERTEX
  8
mustard
 10
-9.392323
 20
88.466361
 30
-15.635560
 70
   192
  0
VERTEX
  8
mustard
 10
-16.585556
 20
84.196311
 30
-23.257281
 70
   192
  0
VERTEX
  8
mustard
 10
-26.973791
 20
76.660314
 30
-25.839354
 70
   192
  0
VERTEX
  8
mustard
 10
-38.784494
 20
77.269525
 30
-26.068144
 70
   192
  0
VERTEX
  8
mustard
 10
-48.479257
 20
86.888045
 30
-23.666002
 70
   192
  0
VERTEX
  8
mustard
 10
-59.784309
 20
93.648767
 30
-15.254511
 70
   192
  0
VERTEX
  8
mustard
 10
-66.391010
 20
98.608571
 30
3.081718
 70
   192
  0
VERTEX
  8
mustard
 10
-56.149672
 20
95.741907
 30
7.098989
 70
   192
  0
VERTEX
  8
mustard
 10
-48.115179
 20
94.156001
 30
-10.616799
 70
   192
  0
VERTEX
  8
mustard
 10
-36.228121
 20
87.632200
 30
-18.420420
 70
   192
  0
VERTEX
  8
mustard
 10
-22.154507
 20
88.345311
 30
-15.469405
 70
   192
  0
VERTEX
  8
mustard
 10
-12.996266
 20
93.502676
 30
0.744002
 70
   192
  0
VERTEX
  8
mustard
 10
6.862688
 20
89.543509
 30
15.880481
 70
   192
  0
VERTEX
  8
mustard
 10
29.594226
 20
83.862175
 30
20.932281
 70
   192
  0
VERTEX
  8
mustard
 10
45.137236
 20
94.890004
 30
10.820909
 70
   192
  0
VERTEX
  8
mustard
 10
56.037493
 20
101.260190
 30
-5.451100
 70
   192
  0
VERTEX
  8
mustard
 10
67.912956
 20
98.901761
 30
-14.107069
 70
   192
  0
VERTEX
  8
mustard
 10
76.207422
 20
105.105921
 30
-6.264680
 70
   192
  0
VERTEX
  8
mustard
 10
0.0
 20
0.0
 30
0.0
 70
   128
 71
   32
 72
   35
 73
   62
  0
VERTEX
  8
mustard
 10
0.0
 20
0.0
 30
0.0
 70
   128
 71
   34
 72
   33
 73
   62
  0
VERTEX
  8
mustard
 10
0.0
 20
0.0
 30
0.0
 70
   128
 71
   55
 72
   54
 73
   47
  0
VERTEX
  8
mustard
 10
0.0
 20
0.0
 30
0.0
 70
   128
 71
   36
 72
   34
 73
   61
  0
VERTEX
  8
mustard
 10
0.0
 20
0.0
 30
0.0
 70
   128
 71
   50
 72
   53
 73
   52
  0
VERTEX
  8
mustard
 10
0.0
 20
0.0
 30
0.0
 70
   128
 71
   58
 72
   57
 73
   42
  0
VERTEX
  8
mustard
 10
0.0
 20
0.0
 30
0.0
 70
   128
 71
   37
 72
   61
 73
   60
  0
VERTEX
  8
mustard
 10
0.0
 20
0.0
 30
0.0
 70
   128
 71
   43
 72
   57
 73
   56
  0
VERTEX
  8
mustard
 10
0.0
 20
0.0
 30
0.0
 70
   128
 71
   59
 72
   58
 73
   41
  0
VERTEX
  8
mustard
 10
0.0
 20
0.0
 30
0.0
 70
   128
 71
   57
 72
   43
 73
   42
  0
VERTEX
  8
mustard
 10
0.0
 20
0.0
 30
0.0
 70
   128
 71
   54
 72
   49
 73
   48
  0
VERTEX
  8
mustard
 10
0.0
 20
0.0
 30
0.0
 70
   128
 71
   45
 72
   44
 73
   56
  0
VERTEX
  8
mustard
 10
0.0
 20
0.0
 30
0.0
 70
   128
 71
   49
 72
   54
 73
   53
  0
VERTEX
  8
mustard
 10
0.0
 20
0.0
 30
0.0
 70
   128
 71
   55
 72
   46
 73
   45
  0
VERTEX
  8
mustard
 10
0.0
 20
0.0
 30
0.0
 70
   128
 71
   60
 72
   39
 73
   38
  0
VERTEX
  8
mustard
 10
0.0
 20
0.0
 30
0.0
 70
   128
 71
   39
 72
   60
 73
   59
  0
VERTEX
  8
mustard
 10
0.0
 20
0.0
 30
0.0
 70
   128
 71
   30
 72
   3
 73
   5
  0
VERTEX
  8
mustard
 10
0.0
 20
0.0
 30
0.0
 70
   128
 71
   29
 72
   30
 73
   6
  0
VERTEX
  8
mustard
 10
0.0
 20
0.0
 30
0.0
 70
   128
 71
   7
 72
   8
 73
   29
  0
VERTEX
  8
mustard
 10
0.0
 20
0.0
 30
0.0
 70
   128
 71
   25
 72
   13
 73
   14
  0
VERTEX
  8
mustard
 10
0.0
 20
0.0
 30
0.0
 70
   128
 71
   21
 72
   22
 73
   19
  0
VERTEX
  8
mustard
 10
0.0
 20
0.0
 30
0.0
 70
   128
 71
   24
 72
   15
 73
   16
  0
VERTEX
  8
mustard
 10
0.0
 20
0.0
 30
0.0
 70
   128
 71
   23
 72
   16
 73
   17
  0
VERTEX
  8
mustard
 10
0.0
 20
0.0
 30
0.0
 70
   128
 71
   22
 72
   23
 73
   18
  0
VERTEX
  8
mustard
 10
0.0
 20
0.0
 30
0.0
 70
   128
 71
   28
 72
   9
 73
   10
  0
VERTEX
  8
mustard
 10
0.0
 20
0.0
 30
0.0
 70
   128
 71
   27
 72
   10
 73
   11
  0
VERTEX
  8
mustard
 10
0.0
 20
0.0
 30
0.0
 70
   128
 71
   1
 72
   2
 73
   31
  0
VERTEX
  8
mustard
 10
0.0
 20
0.0
 30
0.0
 70
   128
 71
   31
 72
   2
 73
   3
  0
VERTEX
  8
mustard
 10
0.0
 20
0.0
 30
0.0
 70
   128
 71
   28
 72
   29
 73
   8
  0
VERTEX
  8
mustard
 10
0.0
 20
0.0
 30
0.0
 70
   128
 71
   14
 72
   15
 73
   24
  0
VERTEX
  8
mustard
 10
0.0
 20
0.0
 30
0.0
 70
   128
 71
   11
 72
   12
 73
   26
  0
VERTEX
  8
mustard
 10
0.0
 20
0.0
 30
0.0
 70
   128
 71
   12
 72
   13
 73
   25
  0
VERTEX
  8
mustard
 10
0.0
 20
0.0
 30
0.0
 70
   128
 71
   4
 72
   35
 73
   32
  0
VERTEX
  8
mustard
 10
0.0
 20
0.0
 30
0.0
 70
   128
 71
   1
 72
   32
 73
   33
  0
VERTEX
  8
mustard
 10
0.0
 20
0.0
 30
0.0
 70
   128
 71
   2
 72
   33
 73
   34
  0
VERTEX
  8
mustard
 10
0.0
 20
0.0
 30
0.0
 70
   128
 71
   3
 72
   34
 73
   36
  0
VERTEX
  8
mustard
 10
0.0
 20
0.0
 30
0.0
 70
   128
 71
   5
 72
   36
 73
   37
  0
VERTEX
  8
mustard
 10
0.0
 20
0.0
 30
0.0
 70
   128
 71
   6
 72
   37
 73
   38
  0
VERTEX
  8
mustard
 10
0.0
 20
0.0
 30
0.0
 70
   128
 71
   7
 72
   38
 73
   39
  0
VERTEX
  8
mustard
 10
0.0
 20
0.0
 30
0.0
 70
   128
 71
   8
 72
   39
 73
   40
  0
VERTEX
  8
mustard
 10
0.0
 20
0.0
 30
0.0
 70
   128
 71
   9
 72
   40
 73
   41
  0
VERTEX
  8
mustard
 10
0.0
 20
0.0
 30
0.0
 70
   128
 71
   10
 72
   41
 73
   42
  0
VERTEX
  8
mustard
 10
0.0
 20
0.0
 30
0.0
 70
   128
 71
   11
 72
   42
 73
   43
  0
VERTEX
  8
mustard
 10
0.0
 20
0.0
 30
0.0
 70
   128
 71
   12
 72
   43
 73
   44
  0
VERTEX
  8
mustard
 10
0.0
 20
0.0
 30
0.0
 70
   128
 71
   13
 72
   44
 73
   45
  0
VERTEX
  8
mustard
 10
0.0
 20
0.0
 30
0.0
 70
   128
 71
   14
 72
   45
 73
   46
  0
VERTEX
  8
mustard
 10
0.0
 20
0.0
 30
0.0
 70
   128
 71
   15
 72
   46
 73
   47
  0
VERTEX
  8
mustard
 10
0.0
 20
0.0
 30
0.0
 70
   128
 71
   16
 72
   47
 73
   48
  0
VERTEX
  8
mustard
 10
0.0
 20
0.0
 30
0.0
 70
   128
 71
   17
 72
   48
 73
   49
  0
VERTEX
  8
mustard
 10
0.0
 20
0.0
 30
0.0
 70
   128
 71
   18
 72
   49
 73
   50
  0
VERTEX
  8
mustard
 10
0.0
 20
0.0
 30
0.0
 70
   128
 71
   19
 72
   50
 73
   51
  0
VERTEX
  8
mustard
 10
0.0
 20
0.0
 30
0.0
 70
   128
 71
   20
 72
   51
 73
   52
  0
VERTEX
  8
mustard
 10
0.0
 20
0.0
 30
0.0
 70
   128
 71
   21
 72
   52
 73
   53
  0
VERTEX
  8
mustard
 10
0.0
 20
0.0
 30
0.0
 70
   128
 71
   22
 72
   53
 73
   54
  0
VERTEX
  8
mustard
 10
0.0
 20
0.0
 30
0.0
 70
   128
 71
   23
 72
   54
 73
   55
  0
VERTEX
  8
mustard
 10
0.0
 20
0.0
 30
0.0
 70
   128
 71
   24
 72
   55
 73
   56
  0
VERTEX
  8
mustard
 10
0.0
 20
0.0
 30
0.0
 70
   128
 71
   25
 72
   56
 73
   57
  0
VERTEX
  8
mustard
 10
0.0
 20
0.0
 30
0.0
 70
   128
 71
   26
 72
   57
 73
   58
  0
VERTEX
  8
mustard
 10
0.0
 20
0.0
 30
0.0
 70
   128
 71
   27
 72
   58
 73
   59
  0
VERTEX
  8
mustard
 10
0.0
 20
0.0
 30
0.0
 70
   128
 71
   28
 72
   59
 73
   60
  0
VERTEX
  8
mustard
 10
0.0
 20
0.0
 30
0.0
 70
   128
 71
   29
 72
   60
 73
   61
  0
VERTEX
  8
mustard
 10
0.0
 20
0.0
 30
0.0
 70
   128
 71
   30
 72
   61
 73
   62
  0
VERTEX
  8
mustard
 10
0.0
 20
0.0
 30
0.0
 70
   128
 71
   31
 72
   62
 73
   35
  0
VERTEX
  8
mustard
 10
0.0
 20
0.0
 30
0.0
 70
   128
 71
   32
 72
   62
 73
   33
  0
VERTEX
  8
mustard
 10
0.0
 20
0.0
 30
0.0
 70
   128
 71
   34
 72
   62
 73
   61
  0
VERTEX
  8
mustard
 10
0.0
 20
0.0
 30
0.0
 70
   128
 71
   55
 72
   47
 73
   46
  0
VERTEX
  8
mustard
 10
0.0
 20
0.0
 30
0.0
 70
   128
 71
   36
 72
   61
 73
   37
  0
VERTEX
  8
mustard
 10
0.0
 20
0.0
 30
0.0
 70
   128
 71
   50
 72
   52
 73
   51
  0
VERTEX
  8
mustard
 10
0.0
 20
0.0
 30
0.0
 70
   128
 71
   58
 72
   42
 73
   41
  0
VERTEX
  8
mustard
 10
0.0
 20
0.0
 30
0.0
 70
   128
 71
   37
 72
   60
 73
   38
  0
VERTEX
  8
mustard
 10
0.0
 20
0.0
 30
0.0
 70
   128
 71
   43
 72
   56
 73
   44
  0
VERTEX
  8
mustard
 10
0.0
 20
0.0
 30
0.0
 70
   128
 71
   59
 72
   41
 73
   40
  0
VERTEX
  8
mustard
 10
0.0
 20
0.0
 30
0.0
 70
   128
 71
   54
 72
   48
 73
   47
  0
VERTEX
  8
mustard
 10
0.0
 20
0.0
 30
0.0
 70
   128
 71
   45
 72
   56
 73
   55
  0
VERTEX
  8
mustard
 10
0.0
 20
0.0
 30
0.0
 70
   128
 71
   49
 72
   53
 73
   50
  0
VERTEX
  8
mustard
 10
0.0
 20
0.0
 30
0.0
 70
   128
 71
   39
 72
   59
 73
   40
  0
VERTEX
  8
mustard
 10
0.0
 20
0.0
 30
0.0
 70
   128
 71
   30
 72
   5
 73
   6
  0
VERTEX
  8
mustard
 10
0.0
 20
0.0
 30
0.0
 70
   128
 71
   29
 72
   6
 73
   7
  0
VERTEX
  8
mustard
 10
0.0
 20
0.0
 30
0.0
 70
   128
 71
   25
 72
   14
 73
   24
  0
VERTEX
  8
mustard
 10
0.0
 20
0.0
 30
0.0
 70
   128
 71
   21
 72
   19
 73
   20
  0
VERTEX
  8
mustard
 10
0.0
 20
0.0
 30
0.0
 70
   128
 71
   24
 72
   16
 73
   23
  0
VERTEX
  8
mustard
 10
0.0
 20
0.0
 30
0.0
 70
   128
 71
   23
 72
   17
 73
   18
  0
VERTEX
  8
mustard
 10
0.0
 20
0.0
 30
0.0
 70
   128
 71
   22
 72
   18
 73
   19
  0
VERTEX
  8
mustard
 10
0.0
 20
0.0
 30
0.0
 70
   128
 71
   28
 72
   10
 73
   27
  0
VERTEX
  8
mustard
 10
0.0
 20
0.0
 30
0.0
 70
   128
 71
   27
 72
   11
 73
   26
  0
VERTEX
  8
mustard
 10
0.0
 20
0.0
 30
0.0
 70
   128
 71
   1
 72
   31
 73
   4
  0
VERTEX
  8
mustard
 10
0.0
 20
0.0
 30
0.0
 70
   128
 71
   31
 72
   3
 73
   30
  0
VERTEX
  8
mustard
 10
0.0
 20
0.0
 30
0.0
 70
   128
 71
   28
 72
   8
 73
   9
  0
VERTEX
  8
mustard
 10
0.0
 20
0.0
 30
0.0
 70
   128
 71
   12
 72
   25
 73
   26
  0
VERTEX
  8
mustard
 10
0.0
 20
0.0
 30
0.0
 70
   128
 71
   4
 72
   32
 73
   1
  0
VERTEX
  8
mustard
 10
0.0
 20
0.0
 30
0.0
 70
   128
 71
   1
 72
   33
 73
   2
  0
VERTEX
  8
mustard
 10
0.0
 20
0.0
 30
0.0
 70
   128
 71
   2
 72
   34
 73
   3
  0
VERTEX
  8
mustard
 10
0.0
 20
0.0
 30
0.0
 70
   128
 71
   3
 72
   36
 73
   5
  0
VERTEX
  8
mustard
 10
0.0
 20
0.0
 30
0.0
 70
   128
 71
   5
 72
   37
 73
   6
  0
VERTEX
  8
mustard
 10
0.0
 20
0.0
 30
0.0
 70
   128
 71
   6
 72
   38
 73
   7
  0
VERTEX
  8
mustard
 10
0.0
 20
0.0
 30
0.0
 70
   128
 71
   7
 72
   39
 73
   8
  0
VERTEX
  8
mustard
 10
0.0
 20
0.0
 30
0.0
 70
   128
 71
   8
 72
   40
 73
   9
  0
VERTEX
  8
mustard
 10
0.0
 20
0.0
 30
0.0
 70
   128
 71
   9
 72
   41
 73
   10
  0
VERTEX
  8
mustard
 10
0.0
 20
0.0
 30
0.0
 70
   128
 71
   10
 72
   42
 73
   11
  0
VERTEX
  8
mustard
 10
0.0
 20
0.0
 30
0.0
 70
   128
 71
   11
 72
   43
 73
   12
  0
VERTEX
  8
mustard
 10
0.0
 20
0.0
 30
0.0
 70
   128
 71
   12
 72
   44
 73
   13
  0
VERTEX
  8
mustard
 10
0.0
 20
0.0
 30
0.0
 70
   128
 71
   13
 72
   45
 73
   14
  0
VERTEX
  8
mustard
 10
0.0
 20
0.0
 30
0.0
 70
   128
 71
   14
 72
   46
 73
   15
  0
VERTEX
  8
mustard
 10
0.0
 20
0.0
 30
0.0
 70
   128
 71
   15
 72
   47
 73
   16
  0
VERTEX
  8
mustard
 10
0.0
 20
0.0
 30
0.0
 70
   128
 71
   16
 72
   48
 73
   17
  0
VERTEX
  8
mustard
 10
0.0
 20
0.0
 30
0.0
 70
   128
 71
   17
 72
   49
 73
   18
  0
VERTEX
  8
mustard
 10
0.0
 20
0.0
 30
0.0
 70
   128
 71
   18
 72
   50
 73
   19
  0
VERTEX
  8
mustard
 10
0.0
 20
0.0
 30
0.0
 70
   128
 71
   19
 72
   51
 73
   20
  0
VERTEX
  8
mustard
 10
0.0
 20
0.0
 30
0.0
 70
   128
 71
   20
 72
   52
 73
   21
  0
VERTEX
  8
mustard
 10
0.0
 20
0.0
 30
0.0
 70
   128
 71
   21
 72
   53
 73
   22
  0
VERTEX
  8
mustard
 10
0.0
 20
0.0
 30
0.0
 70
   128
 71
   22
 72
   54
 73
   23
  0
VERTEX
  8
mustard
 10
0.0
 20
0.0
 30
0.0
 70
   128
 71
   23
 72
   55
 73
   24
  0
VERTEX
  8
mustard
 10
0.0
 20
0.0
 30
0.0
 70
   128
 71
   24
 72
   56
 73
   25
  0
VERTEX
  8
mustard
 10
0.0
 20
0.0
 30
0.0
 70
   128
 71
   25
 72
   57
 73
   26
  0
VERTEX
  8
mustard
 10
0.0
 20
0.0
 30
0.0
 70
   128
 71
   26
 72
   58
 73
   27
  0
VERTEX
  8
mustard
 10
0.0
 20
0.0
 30
0.0
 70
   128
 71
   27
 72
   59
 73
   28
  0
VERTEX
  8
mustard
 10
0.0
 20
0.0
 30
0.0
 70
   128
 71
   28
 72
   60
 73
   29
  0
VERTEX
  8
mustard
 10
0.0
 20
0.0
 30
0.0
 70
   128
 71
   29
 72
   61
 73
   30
  0
VERTEX
  8
mustard
 10
0.0
 20
0.0
 30
0.0
 70
   128
 71
   30
 72
   62
 73
   31
  0
VERTEX
  8
mustard
 10
0.0
 20
0.0
 30
0.0
 70
   128
 71
   31
 72
   35
 73
   4
  0
SEQEND
  0
POLYLINE
  8
hotdog_2
 66
   1
 10
0.0
 20
0.0
 30
0.0
 70
   64
 71
   66
 72
   128
  0
VERTEX
  8
hotdog_2
 10
-129.556128
 20
78.315726
 30
-1.700115
 70
   192
  0
VERTEX
  8
hotdog_2
 10
128.564698
 20
81.414068
 30
-2.349411
 70
   192
  0
VERTEX
  8
hotdog_2
 10
-125.087752
 20
79.073159
 30
13.133917
 70
   192
  0
VERTEX
  8
hotdog_2
 10
-112.914028
 20
77.807579
 30
24.188828
 70
   192
  0
VERTEX
  8
hotdog_2
 10
-96.296896
 20
74.858097
 30
28.502461
 70
   192
  0
VERTEX
  8
hotdog_2
 10
-34.343885
 20
64.342451
 30
29.620656
 70
   192
  0
VERTEX
  8
hotdog_2
 10
32.663257
 20
65.559919
 30
29.405351
 70
   192
  0
VERTEX
  8
hotdog_2
 10
95.341319
 20
78.096816
 30
27.914217
 70
   192
  0
VERTEX
  8
hotdog_2
 10
111.965493
 20
80.976109
 30
23.570057
 70
   192
  0
VERTEX
  8
hotdog_2
 10
124.126093
 20
82.190308
 30
12.492800
 70
   192
  0
VERTEX
  8
hotdog_2
 10
-127.870393
 20
68.445206
 30
9.968329
 70
   192
  0
VERTEX
  8
hotdog_2
 10
-117.733703
 20
59.399425
 30
18.705868
 70
   192
  0
VERTEX
  8
hotdog_2
 10
-101.862177
 20
53.602191
 30
22.171285
 70
   192
  0
VERTEX
  8
hotdog_2
 10
-38.082574
 20
42.776770
 30
23.322418
 70
   192
  0
VERTEX
  8
hotdog_2
 10
38.110884
 20
44.280760
 30
23.064062
 70
   192
  0
VERTEX
  8
hotdog_2
 10
100.788947
 20
56.817656
 30
21.572927
 70
   192
  0
VERTEX
  8
hotdog_2
 10
116.683276
 20
62.547817
 30
18.078339
 70
   192
  0
VERTEX
  8
hotdog_2
 10
126.849907
 20
71.550729
 30
9.322156
 70
   192
  0
VERTEX
  8
hotdog_2
 10
-129.032990
 20
63.066187
 30
0.024828
 70
   192
  0
VERTEX
  8
hotdog_2
 10
-119.747381
 20
50.082690
 30
1.483218
 70
   192
  0
VERTEX
  8
hotdog_2
 10
-104.187372
 20
42.844153
 30
2.284282
 70
   192
  0
VERTEX
  8
hotdog_2
 10
-39.651168
 20
31.890418
 30
3.449059
 70
   192
  0
VERTEX
  8
hotdog_2
 10
40.347387
 20
33.513089
 30
3.172870
 70
   192
  0
VERTEX
  8
hotdog_2
 10
103.025449
 20
46.049986
 30
1.681735
 70
   192
  0
VERTEX
  8
hotdog_2
 10
118.620144
 20
53.222741
 30
0.852062
 70
   192
  0
VERTEX
  8
hotdog_2
 10
127.968158
 20
66.166893
 30
-0.623440
 70
   192
  0
VERTEX
  8
hotdog_2
 10
-127.894510
 20
66.087058
 30
-10.871818
 70
   192
  0
VERTEX
  8
hotdog_2
 10
-117.775475
 20
55.314992
 30
-17.390327
 70
   192
  0
VERTEX
  8
hotdog_2
 10
-101.910411
 20
48.885894
 30
-19.509011
 70
   192
  0
VERTEX
  8
hotdog_2
 10
-38.130807
 20
38.060473
 30
-18.357878
 70
   192
  0
VERTEX
  8
hotdog_2
 10
38.062651
 20
39.564463
 30
-18.616234
 70
   192
  0
VERTEX
  8
hotdog_2
 10
100.740713
 20
52.101359
 30
-20.107369
 70
   192
  0
VERTEX
  8
hotdog_2
 10
116.641505
 20
58.463384
 30
-18.017856
 70
   192
  0
VERTEX
  8
hotdog_2
 10
126.825790
 20
69.192580
 30
-11.517992
 70
   192
  0
VERTEX
  8
hotdog_2
 10
-125.121859
 20
75.738233
 30
-16.338502
 70
   192
  0
VERTEX
  8
hotdog_2
 10
-112.973102
 20
72.031318
 30
-26.858901
 70
   192
  0
VERTEX
  8
hotdog_2
 10
-96.365109
 20
68.188246
 30
-30.442378
 70
   192
  0
VERTEX
  8
hotdog_2
 10
-34.412098
 20
57.672600
 30
-29.324184
 70
   192
  0
VERTEX
  8
hotdog_2
 10
32.595044
 20
58.890068
 30
-29.539488
 70
   192
  0
VERTEX
  8
hotdog_2
 10
95.273106
 20
71.426965
 30
-31.030623
 70
   192
  0
VERTEX
  8
hotdog_2
 10
111.906418
 20
75.199849
 30
-27.477671
 70
   192
  0
VERTEX
  8
hotdog_2
 10
124.091987
 20
78.855383
 30
-16.979619
 70
   192
  0
VERTEX
  8
hotdog_2
 10
-122.339218
 20
86.366186
 30
-13.172914
 70
   192
  0
VERTEX
  8
hotdog_2
 10
-108.153427
 20
90.439473
 30
-21.375941
 70
   192
  0
VERTEX
  8
hotdog_2
 10
-90.799828
 20
89.444152
 30
-24.111202
 70
   192
  0
VERTEX
  8
hotdog_2
 10
-30.673410
 20
79.238282
 30
-23.025946
 70
   192
  0
VERTEX
  8
hotdog_2
 10
27.147416
 20
80.169227
 30
-23.198199
 70
   192
  0
VERTEX
  8
hotdog_2
 10
89.825479
 20
92.706124
 30
-24.689333
 70
   192
  0
VERTEX
  8
hotdog_2
 10
107.188635
 20
93.628141
 30
-21.985953
 70
   192
  0
VERTEX
  8
hotdog_2
 10
121.368173
 20
89.494962
 30
-13.808974
 70
   192
  0
VERTEX
  8
hotdog_2
 10
-121.176621
 20
91.745206
 30
-3.229413
 70
   192
  0
VERTEX
  8
hotdog_2
 10
-106.139750
 20
99.756207
 30
-4.153292
 70
   192
  0
VERTEX
  8
hotdog_2
 10
-88.474634
 20
100.202190
 30
-4.224199
 70
   192
  0
VERTEX
  8
hotdog_2
 10
-29.104816
 20
90.124633
 30
-3.152587
 70
   192
  0
VERTEX
  8
hotdog_2
 10
24.910914
 20
90.936898
 30
-3.307007
 70
   192
  0
VERTEX
  8
hotdog_2
 10
87.588977
 20
103.473794
 30
-4.798141
 70
   192
  0
VERTEX
  8
hotdog_2
 10
105.251767
 20
102.953218
 30
-4.759676
 70
   192
  0
VERTEX
  8
hotdog_2
 10
120.249922
 20
94.878798
 30
-3.863378
 70
   192
  0
VERTEX
  8
hotdog_2
 10
-122.315101
 20
88.724335
 30
7.667234
 70
   192
  0
VERTEX
  8
hotdog_2
 10
-108.111656
 20
94.523906
 30
14.720254
 70
   192
  0
VERTEX
  8
hotdog_2
 10
-90.751594
 20
94.160448
 30
17.569094
 70
   192
  0
VERTEX
  8
hotdog_2
 10
-30.625176
 20
83.954579
 30
18.654350
 70
   192
  0
VERTEX
  8
hotdog_2
 10
27.195650
 20
84.885524
 30
18.482097
 70
   192
  0
VERTEX
  8
hotdog_2
 10
89.873713
 20
97.422421
 30
16.990962
 70
   192
  0
VERTEX
  8
hotdog_2
 10
107.230406
 20
97.712574
 30
14.110241
 70
   192
  0
VERTEX
  8
hotdog_2
 10
121.392290
 20
91.853111
 30
7.031173
 70
   192
  0
VERTEX
  8
hotdog_2
 10
0.0
 20
0.0
 30
0.0
 70
   128
 71
   1
 72
   3
 73
   11
  0
VERTEX
  8
hotdog_2
 10
0.0
 20
0.0
 30
0.0
 70
   128
 71
   3
 72
   4
 73
   12
  0
VERTEX
  8
hotdog_2
 10
0.0
 20
0.0
 30
0.0
 70
   128
 71
   4
 72
   5
 73
   13
  0
VERTEX
  8
hotdog_2
 10
0.0
 20
0.0
 30
0.0
 70
   128
 71
   5
 72
   6
 73
   14
  0
VERTEX
  8
hotdog_2
 10
0.0
 20
0.0
 30
0.0
 70
   128
 71
   6
 72
   7
 73
   15
  0
VERTEX
  8
hotdog_2
 10
0.0
 20
0.0
 30
0.0
 70
   128
 71
   7
 72
   8
 73
   16
  0
VERTEX
  8
hotdog_2
 10
0.0
 20
0.0
 30
0.0
 70
   128
 71
   8
 72
   9
 73
   17
  0
VERTEX
  8
hotdog_2
 10
0.0
 20
0.0
 30
0.0
 70
   128
 71
   9
 72
   10
 73
   18
  0
VERTEX
  8
hotdog_2
 10
0.0
 20
0.0
 30
0.0
 70
   128
 71
   10
 72
   2
 73
   18
  0
VERTEX
  8
hotdog_2
 10
0.0
 20
0.0
 30
0.0
 70
   128
 71
   1
 72
   11
 73
   19
  0
VERTEX
  8
hotdog_2
 10
0.0
 20
0.0
 30
0.0
 70
   128
 71
   11
 72
   12
 73
   20
  0
VERTEX
  8
hotdog_2
 10
0.0
 20
0.0
 30
0.0
 70
   128
 71
   12
 72
   13
 73
   21
  0
VERTEX
  8
hotdog_2
 10
0.0
 20
0.0
 30
0.0
 70
   128
 71
   13
 72
   14
 73
   22
  0
VERTEX
  8
hotdog_2
 10
0.0
 20
0.0
 30
0.0
 70
   128
 71
   14
 72
   15
 73
   23
  0
VERTEX
  8
hotdog_2
 10
0.0
 20
0.0
 30
0.0
 70
   128
 71
   15
 72
   16
 73
   24
  0
VERTEX
  8
hotdog_2
 10
0.0
 20
0.0
 30
0.0
 70
   128
 71
   16
 72
   17
 73
   25
  0
VERTEX
  8
hotdog_2
 10
0.0
 20
0.0
 30
0.0
 70
   128
 71
   17
 72
   18
 73
   26
  0
VERTEX
  8
hotdog_2
 10
0.0
 20
0.0
 30
0.0
 70
   128
 71
   18
 72
   2
 73
   26
  0
VERTEX
  8
hotdog_2
 10
0.0
 20
0.0
 30
0.0
 70
   128
 71
   1
 72
   19
 73
   27
  0
VERTEX
  8
hotdog_2
 10
0.0
 20
0.0
 30
0.0
 70
   128
 71
   19
 72
   20
 73
   28
  0
VERTEX
  8
hotdog_2
 10
0.0
 20
0.0
 30
0.0
 70
   128
 71
   20
 72
   21
 73
   29
  0
VERTEX
  8
hotdog_2
 10
0.0
 20
0.0
 30
0.0
 70
   128
 71
   21
 72
   22
 73
   30
  0
VERTEX
  8
hotdog_2
 10
0.0
 20
0.0
 30
0.0
 70
   128
 71
   22
 72
   23
 73
   31
  0
VERTEX
  8
hotdog_2
 10
0.0
 20
0.0
 30
0.0
 70
   128
 71
   23
 72
   24
 73
   32
  0
VERTEX
  8
hotdog_2
 10
0.0
 20
0.0
 30
0.0
 70
   128
 71
   24
 72
   25
 73
   33
  0
VERTEX
  8
hotdog_2
 10
0.0
 20
0.0
 30
0.0
 70
   128
 71
   25
 72
   26
 73
   34
  0
VERTEX
  8
hotdog_2
 10
0.0
 20
0.0
 30
0.0
 70
   128
 71
   26
 72
   2
 73
   34
  0
VERTEX
  8
hotdog_2
 10
0.0
 20
0.0
 30
0.0
 70
   128
 71
   1
 72
   27
 73
   35
  0
VERTEX
  8
hotdog_2
 10
0.0
 20
0.0
 30
0.0
 70
   128
 71
   27
 72
   28
 73
   36
  0
VERTEX
  8
hotdog_2
 10
0.0
 20
0.0
 30
0.0
 70
   128
 71
   28
 72
   29
 73
   37
  0
VERTEX
  8
hotdog_2
 10
0.0
 20
0.0
 30
0.0
 70
   128
 71
   29
 72
   30
 73
   38
  0
VERTEX
  8
hotdog_2
 10
0.0
 20
0.0
 30
0.0
 70
   128
 71
   30
 72
   31
 73
   39
  0
VERTEX
  8
hotdog_2
 10
0.0
 20
0.0
 30
0.0
 70
   128
 71
   31
 72
   32
 73
   40
  0
VERTEX
  8
hotdog_2
 10
0.0
 20
0.0
 30
0.0
 70
   128
 71
   32
 72
   33
 73
   41
  0
VERTEX
  8
hotdog_2
 10
0.0
 20
0.0
 30
0.0
 70
   128
 71
   33
 72
   34
 73
   42
  0
VERTEX
  8
hotdog_2
 10
0.0
 20
0.0
 30
0.0
 70
   128
 71
   34
 72
   2
 73
   42
  0
VERTEX
  8
hotdog_2
 10
0.0
 20
0.0
 30
0.0
 70
   128
 71
   1
 72
   35
 73
   43
  0
VERTEX
  8
hotdog_2
 10
0.0
 20
0.0
 30
0.0
 70
   128
 71
   35
 72
   36
 73
   44
  0
VERTEX
  8
hotdog_2
 10
0.0
 20
0.0
 30
0.0
 70
   128
 71
   36
 72
   37
 73
   45
  0
VERTEX
  8
hotdog_2
 10
0.0
 20
0.0
 30
0.0
 70
   128
 71
   37
 72
   38
 73
   46
  0
VERTEX
  8
hotdog_2
 10
0.0
 20
0.0
 30
0.0
 70
   128
 71
   38
 72
   39
 73
   47
  0
VERTEX
  8
hotdog_2
 10
0.0
 20
0.0
 30
0.0
 70
   128
 71
   39
 72
   40
 73
   48
  0
VERTEX
  8
hotdog_2
 10
0.0
 20
0.0
 30
0.0
 70
   128
 71
   40
 72
   41
 73
   49
  0
VERTEX
  8
hotdog_2
 10
0.0
 20
0.0
 30
0.0
 70
   128
 71
   41
 72
   42
 73
   50
  0
VERTEX
  8
hotdog_2
 10
0.0
 20
0.0
 30
0.0
 70
   128
 71
   42
 72
   2
 73
   50
  0
VERTEX
  8
hotdog_2
 10
0.0
 20
0.0
 30
0.0
 70
   128
 71
   1
 72
   43
 73
   51
  0
VERTEX
  8
hotdog_2
 10
0.0
 20
0.0
 30
0.0
 70
   128
 71
   43
 72
   44
 73
   52
  0
VERTEX
  8
hotdog_2
 10
0.0
 20
0.0
 30
0.0
 70
   128
 71
   44
 72
   45
 73
   53
  0
VERTEX
  8
hotdog_2
 10
0.0
 20
0.0
 30
0.0
 70
   128
 71
   45
 72
   46
 73
   54
  0
VERTEX
  8
hotdog_2
 10
0.0
 20
0.0
 30
0.0
 70
   128
 71
   46
 72
   47
 73
   55
  0
VERTEX
  8
hotdog_2
 10
0.0
 20
0.0
 30
0.0
 70
   128
 71
   47
 72
   48
 73
   56
  0
VERTEX
  8
hotdog_2
 10
0.0
 20
0.0
 30
0.0
 70
   128
 71
   48
 72
   49
 73
   57
  0
VERTEX
  8
hotdog_2
 10
0.0
 20
0.0
 30
0.0
 70
   128
 71
   49
 72
   50
 73
   58
  0
VERTEX
  8
hotdog_2
 10
0.0
 20
0.0
 30
0.0
 70
   128
 71
   50
 72
   2
 73
   58
  0
VERTEX
  8
hotdog_2
 10
0.0
 20
0.0
 30
0.0
 70
   128
 71
   1
 72
   51
 73
   59
  0
VERTEX
  8
hotdog_2
 10
0.0
 20
0.0
 30
0.0
 70
   128
 71
   51
 72
   52
 73
   60
  0
VERTEX
  8
hotdog_2
 10
0.0
 20
0.0
 30
0.0
 70
   128
 71
   52
 72
   53
 73
   61
  0
VERTEX
  8
hotdog_2
 10
0.0
 20
0.0
 30
0.0
 70
   128
 71
   53
 72
   54
 73
   62
  0
VERTEX
  8
hotdog_2
 10
0.0
 20
0.0
 30
0.0
 70
   128
 71
   54
 72
   55
 73
   63
  0
VERTEX
  8
hotdog_2
 10
0.0
 20
0.0
 30
0.0
 70
   128
 71
   55
 72
   56
 73
   64
  0
VERTEX
  8
hotdog_2
 10
0.0
 20
0.0
 30
0.0
 70
   128
 71
   56
 72
   57
 73
   65
  0
VERTEX
  8
hotdog_2
 10
0.0
 20
0.0
 30
0.0
 70
   128
 71
   57
 72
   58
 73
   66
  0
VERTEX
  8
hotdog_2
 10
0.0
 20
0.0
 30
0.0
 70
   128
 71
   58
 72
   2
 73
   66
  0
VERTEX
  8
hotdog_2
 10
0.0
 20
0.0
 30
0.0
 70
   128
 71
   1
 72
   59
 73
   3
  0
VERTEX
  8
hotdog_2
 10
0.0
 20
0.0
 30
0.0
 70
   128
 71
   59
 72
   60
 73
   4
  0
VERTEX
  8
hotdog_2
 10
0.0
 20
0.0
 30
0.0
 70
   128
 71
   60
 72
   61
 73
   5
  0
VERTEX
  8
hotdog_2
 10
0.0
 20
0.0
 30
0.0
 70
   128
 71
   61
 72
   62
 73
   6
  0
VERTEX
  8
hotdog_2
 10
0.0
 20
0.0
 30
0.0
 70
   128
 71
   62
 72
   63
 73
   7
  0
VERTEX
  8
hotdog_2
 10
0.0
 20
0.0
 30
0.0
 70
   128
 71
   63
 72
   64
 73
   8
  0
VERTEX
  8
hotdog_2
 10
0.0
 20
0.0
 30
0.0
 70
   128
 71
   64
 72
   65
 73
   9
  0
VERTEX
  8
hotdog_2
 10
0.0
 20
0.0
 30
0.0
 70
   128
 71
   65
 72
   66
 73
   10
  0
VERTEX
  8
hotdog_2
 10
0.0
 20
0.0
 30
0.0
 70
   128
 71
   66
 72
   2
 73
   10
  0
VERTEX
  8
hotdog_2
 10
0.0
 20
0.0
 30
0.0
 70
   128
 71
   3
 72
   12
 73
   11
  0
VERTEX
  8
hotdog_2
 10
0.0
 20
0.0
 30
0.0
 70
   128
 71
   4
 72
   13
 73
   12
  0
VERTEX
  8
hotdog_2
 10
0.0
 20
0.0
 30
0.0
 70
   128
 71
   5
 72
   14
 73
   13
  0
VERTEX
  8
hotdog_2
 10
0.0
 20
0.0
 30
0.0
 70
   128
 71
   6
 72
   15
 73
   14
  0
VERTEX
  8
hotdog_2
 10
0.0
 20
0.0
 30
0.0
 70
   128
 71
   7
 72
   16
 73
   15
  0
VERTEX
  8
hotdog_2
 10
0.0
 20
0.0
 30
0.0
 70
   128
 71
   8
 72
   17
 73
   16
  0
VERTEX
  8
hotdog_2
 10
0.0
 20
0.0
 30
0.0
 70
   128
 71
   9
 72
   18
 73
   17
  0
VERTEX
  8
hotdog_2
 10
0.0
 20
0.0
 30
0.0
 70
   128
 71
   11
 72
   20
 73
   19
  0
VERTEX
  8
hotdog_2
 10
0.0
 20
0.0
 30
0.0
 70
   128
 71
   12
 72
   21
 73
   20
  0
VERTEX
  8
hotdog_2
 10
0.0
 20
0.0
 30
0.0
 70
   128
 71
   13
 72
   22
 73
   21
  0
VERTEX
  8
hotdog_2
 10
0.0
 20
0.0
 30
0.0
 70
   128
 71
   14
 72
   23
 73
   22
  0
VERTEX
  8
hotdog_2
 10
0.0
 20
0.0
 30
0.0
 70
   128
 71
   15
 72
   24
 73
   23
  0
VERTEX
  8
hotdog_2
 10
0.0
 20
0.0
 30
0.0
 70
   128
 71
   16
 72
   25
 73
   24
  0
VERTEX
  8
hotdog_2
 10
0.0
 20
0.0
 30
0.0
 70
   128
 71
   17
 72
   26
 73
   25
  0
VERTEX
  8
hotdog_2
 10
0.0
 20
0.0
 30
0.0
 70
   128
 71
   19
 72
   28
 73
   27
  0
VERTEX
  8
hotdog_2
 10
0.0
 20
0.0
 30
0.0
 70
   128
 71
   20
 72
   29
 73
   28
  0
VERTEX
  8
hotdog_2
 10
0.0
 20
0.0
 30
0.0
 70
   128
 71
   21
 72
   30
 73
   29
  0
VERTEX
  8
hotdog_2
 10
0.0
 20
0.0
 30
0.0
 70
   128
 71
   22
 72
   31
 73
   30
  0
VERTEX
  8
hotdog_2
 10
0.0
 20
0.0
 30
0.0
 70
   128
 71
   23
 72
   32
 73
   31
  0
VERTEX
  8
hotdog_2
 10
0.0
 20
0.0
 30
0.0
 70
   128
 71
   24
 72
   33
 73
   32
  0
VERTEX
  8
hotdog_2
 10
0.0
 20
0.0
 30
0.0
 70
   128
 71
   25
 72
   34
 73
   33
  0
VERTEX
  8
hotdog_2
 10
0.0
 20
0.0
 30
0.0
 70
   128
 71
   27
 72
   36
 73
   35
  0
VERTEX
  8
hotdog_2
 10
0.0
 20
0.0
 30
0.0
 70
   128
 71
   28
 72
   37
 73
   36
  0
VERTEX
  8
hotdog_2
 10
0.0
 20
0.0
 30
0.0
 70
   128
 71
   29
 72
   38
 73
   37
  0
VERTEX
  8
hotdog_2
 10
0.0
 20
0.0
 30
0.0
 70
   128
 71
   30
 72
   39
 73
   38
  0
VERTEX
  8
hotdog_2
 10
0.0
 20
0.0
 30
0.0
 70
   128
 71
   31
 72
   40
 73
   39
  0
VERTEX
  8
hotdog_2
 10
0.0
 20
0.0
 30
0.0
 70
   128
 71
   32
 72
   41
 73
   40
  0
VERTEX
  8
hotdog_2
 10
0.0
 20
0.0
 30
0.0
 70
   128
 71
   33
 72
   42
 73
   41
  0
VERTEX
  8
hotdog_2
 10
0.0
 20
0.0
 30
0.0
 70
   128
 71
   35
 72
   44
 73
   43
  0
VERTEX
  8
hotdog_2
 10
0.0
 20
0.0
 30
0.0
 70
   128
 71
   36
 72
   45
 73
   44
  0
VERTEX
  8
hotdog_2
 10
0.0
 20
0.0
 30
0.0
 70
   128
 71
   37
 72
   46
 73
   45
  0
VERTEX
  8
hotdog_2
 10
0.0
 20
0.0
 30
0.0
 70
   128
 71
   38
 72
   47
 73
   46
  0
VERTEX
  8
hotdog_2
 10
0.0
 20
0.0
 30
0.0
 70
   128
 71
   39
 72
   48
 73
   47
  0
VERTEX
  8
hotdog_2
 10
0.0
 20
0.0
 30
0.0
 70
   128
 71
   40
 72
   49
 73
   48
  0
VERTEX
  8
hotdog_2
 10
0.0
 20
0.0
 30
0.0
 70
   128
 71
   41
 72
   50
 73
   49
  0
VERTEX
  8
hotdog_2
 10
0.0
 20
0.0
 30
0.0
 70
   128
 71
   43
 72
   52
 73
   51
  0
VERTEX
  8
hotdog_2
 10
0.0
 20
0.0
 30
0.0
 70
   128
 71
   44
 72
   53
 73
   52
  0
VERTEX
  8
hotdog_2
 10
0.0
 20
0.0
 30
0.0
 70
   128
 71
   45
 72
   54
 73
   53
  0
VERTEX
  8
hotdog_2
 10
0.0
 20
0.0
 30
0.0
 70
   128
 71
   46
 72
   55
 73
   54
  0
VERTEX
  8
hotdog_2
 10
0.0
 20
0.0
 30
0.0
 70
   128
 71
   47
 72
   56
 73
   55
  0
VERTEX
  8
hotdog_2
 10
0.0
 20
0.0
 30
0.0
 70
   128
 71
   48
 72
   57
 73
   56
  0
VERTEX
  8
hotdog_2
 10
0.0
 20
0.0
 30
0.0
 70
   128
 71
   49
 72
   58
 73
   57
  0
VERTEX
  8
hotdog_2
 10
0.0
 20
0.0
 30
0.0
 70
   128
 71
   51
 72
   60
 73
   59
  0
VERTEX
  8
hotdog_2
 10
0.0
 20
0.0
 30
0.0
 70
   128
 71
   52
 72
   61
 73
   60
  0
VERTEX
  8
hotdog_2
 10
0.0
 20
0.0
 30
0.0
 70
   128
 71
   53
 72
   62
 73
   61
  0
VERTEX
  8
hotdog_2
 10
0.0
 20
0.0
 30
0.0
 70
   128
 71
   54
 72
   63
 73
   62
  0
VERTEX
  8
hotdog_2
 10
0.0
 20
0.0
 30
0.0
 70
   128
 71
   55
 72
   64
 73
   63
  0
VERTEX
  8
hotdog_2
 10
0.0
 20
0.0
 30
0.0
 70
   128
 71
   56
 72
   65
 73
   64
  0
VERTEX
  8
hotdog_2
 10
0.0
 20
0.0
 30
0.0
 70
   128
 71
   57
 72
   66
 73
   65
  0
VERTEX
  8
hotdog_2
 10
0.0
 20
0.0
 30
0.0
 70
   128
 71
   59
 72
   4
 73
   3
  0
VERTEX
  8
hotdog_2
 10
0.0
 20
0.0
 30
0.0
 70
   128
 71
   60
 72
   5
 73
   4
  0
VERTEX
  8
hotdog_2
 10
0.0
 20
0.0
 30
0.0
 70
   128
 71
   61
 72
   6
 73
   5
  0
VERTEX
  8
hotdog_2
 10
0.0
 20
0.0
 30
0.0
 70
   128
 71
   62
 72
   7
 73
   6
  0
VERTEX
  8
hotdog_2
 10
0.0
 20
0.0
 30
0.0
 70
   128
 71
   63
 72
   8
 73
   7
  0
VERTEX
  8
hotdog_2
 10
0.0
 20
0.0
 30
0.0
 70
   128
 71
   64
 72
   9
 73
   8
  0
VERTEX
  8
hotdog_2
 10
0.0
 20
0.0
 30
0.0
 70
   128
 71
   65
 72
   10
 73
   9
  0
SEQEND
  0
POLYLINE
  8
bun
 66
   1
 10
0.0
 20
0.0
 30
0.0
 70
   64
 71
   54
 72
   64
  0
VERTEX
  8
bun
 10
102.592548
 20
43.021872
 30
11.599836
 70
   192
  0
VERTEX
  8
bun
 10
-103.789025
 20
43.207228
 30
11.817685
 70
   192
  0
VERTEX
  8
bun
 10
99.061194
 20
26.536916
 30
5.318110
 70
   192
  0
VERTEX
  8
bun
 10
89.047634
 20
12.567950
 30
0.000130
 70
   192
  0
VERTEX
  8
bun
 10
74.076342
 20
3.241623
 30
-3.544491
 70
   192
  0
VERTEX
  8
bun
 10
56.426562
 20
-0.022218
 30
-4.776115
 70
   192
  0
VERTEX
  8
bun
 10
-57.735106
 20
0.080314
 30
-4.655609
 70
   192
  0
VERTEX
  8
bun
 10
-75.376356
 20
3.375850
 30
-3.386733
 70
   192
  0
VERTEX
  8
bun
 10
-90.323355
 20
12.729048
 30
0.189468
 70
   192
  0
VERTEX
  8
bun
 10
-100.300557
 20
26.715968
 30
5.528549
 70
   192
  0
VERTEX
  8
bun
 10
99.082099
 20
29.337613
 30
22.739948
 70
   192
  0
VERTEX
  8
bun
 10
89.086262
 20
17.742963
 30
32.191490
 70
   192
  0
VERTEX
  8
bun
 10
74.126812
 20
10.003103
 30
38.515548
 70
   192
  0
VERTEX
  8
bun
 10
56.481190
 20
7.296355
 30
40.749344
 70
   192
  0
VERTEX
  8
bun
 10
-57.680478
 20
7.398887
 30
40.869849
 70
   192
  0
VERTEX
  8
bun
 10
-75.325886
 20
10.137330
 30
38.673306
 70
   192
  0
VERTEX
  8
bun
 10
-90.284727
 20
17.904061
 30
32.380828
 70
   192
  0
VERTEX
  8
bun
 10
-100.279652
 20
29.516665
 30
22.950388
 70
   192
  0
VERTEX
  8
bun
 10
99.103543
 20
45.825721
 30
29.025379
 70
   192
  0
VERTEX
  8
bun
 10
89.125884
 20
48.209014
 30
43.805452
 70
   192
  0
VERTEX
  8
bun
 10
74.178580
 20
49.808916
 30
53.689921
 70
   192
  0
VERTEX
  8
bun
 10
56.537224
 20
50.381858
 30
57.173966
 70
   192
  0
VERTEX
  8
bun
 10
-57.624444
 20
50.484389
 30
57.294471
 70
   192
  0
VERTEX
  8
bun
 10
-75.274118
 20
49.943144
 30
53.847678
 70
   192
  0
VERTEX
  8
bun
 10
-90.245105
 20
48.370112
 30
43.994790
 70
   192
  0
VERTEX
  8
bun
 10
-100.258209
 20
46.004773
 30
29.235819
 70
   192
  0
VERTEX
  8
bun
 10
99.104080
 20
59.513132
 30
17.888971
 70
   192
  0
VERTEX
  8
bun
 10
89.126878
 20
73.500052
 30
23.228053
 70
   192
  0
VERTEX
  8
bun
 10
74.179879
 20
82.853250
 30
26.804254
 70
   192
  0
VERTEX
  8
bun
 10
56.538629
 20
86.148786
 30
28.073130
 70
   192
  0
VERTEX
  8
bun
 10
-57.623039
 20
86.251318
 30
28.193635
 70
   192
  0
VERTEX
  8
bun
 10
-75.272819
 20
82.987477
 30
26.962011
 70
   192
  0
VERTEX
  8
bun
 10
-90.244111
 20
73.661150
 30
23.417391
 70
   192
  0
VERTEX
  8
bun
 10
-100.257671
 20
59.692184
 30
18.099411
 70
   192
  0
VERTEX
  8
bun
 10
102.592548
 20
43.021872
 30
11.599836
 70
   192
  0
VERTEX
  8
bun
 10
99.061194
 20
26.536916
 30
5.318110
 70
   192
  0
VERTEX
  8
bun
 10
89.047634
 20
12.567950
 30
0.000130
 70
   192
  0
VERTEX
  8
bun
 10
74.076342
 20
3.241623
 30
-3.544491
 70
   192
  0
VERTEX
  8
bun
 10
56.426562
 20
-0.022218
 30
-4.776115
 70
   192
  0
VERTEX
  8
bun
 10
-57.735106
 20
0.080314
 30
-4.655609
 70
   192
  0
VERTEX
  8
bun
 10
-75.376356
 20
3.375850
 30
-3.386733
 70
   192
  0
VERTEX
  8
bun
 10
-90.323355
 20
12.729048
 30
0.189468
 70
   192
  0
VERTEX
  8
bun
 10
-100.300557
 20
26.715968
 30
5.528549
 70
   192
  0
VERTEX
  8
bun
 10
-103.789025
 20
43.207228
 30
11.817685
 70
   192
  0
VERTEX
  8
bun
 10
102.592548
 20
43.021872
 30
11.599836
 70
   192
  0
VERTEX
  8
bun
 10
99.104080
 20
59.513132
 30
17.888971
 70
   192
  0
VERTEX
  8
bun
 10
89.126878
 20
73.500052
 30
23.228053
 70
   192
  0
VERTEX
  8
bun
 10
74.179879
 20
82.853250
 30
26.804254
 70
   192
  0
VERTEX
  8
bun
 10
56.538629
 20
86.148786
 30
28.073130
 70
   192
  0
VERTEX
  8
bun
 10
-57.623039
 20
86.251318
 30
28.193635
 70
   192
  0
VERTEX
  8
bun
 10
-75.272819
 20
82.987477
 30
26.962011
 70
   192
  0
VERTEX
  8
bun
 10
-90.244111
 20
73.661150
 30
23.417391
 70
   192
  0
VERTEX
  8
bun
 10
-100.257671
 20
59.692184
 30
18.099411
 70
   192
  0
VERTEX
  8
bun
 10
-103.789025
 20
43.207228
 30
11.817685
 70
   192
  0
VERTEX
  8
bun
 10
0.0
 20
0.0
 30
0.0
 70
   128
 71
   1
 72
   3
 73
   11
  0
VERTEX
  8
bun
 10
0.0
 20
0.0
 30
0.0
 70
   128
 71
   3
 72
   4
 73
   12
  0
VERTEX
  8
bun
 10
0.0
 20
0.0
 30
0.0
 70
   128
 71
   4
 72
   5
 73
   13
  0
VERTEX
  8
bun
 10
0.0
 20
0.0
 30
0.0
 70
   128
 71
   5
 72
   6
 73
   14
  0
VERTEX
  8
bun
 10
0.0
 20
0.0
 30
0.0
 70
   128
 71
   6
 72
   7
 73
   15
  0
VERTEX
  8
bun
 10
0.0
 20
0.0
 30
0.0
 70
   128
 71
   7
 72
   8
 73
   16
  0
VERTEX
  8
bun
 10
0.0
 20
0.0
 30
0.0
 70
   128
 71
   8
 72
   9
 73
   17
  0
VERTEX
  8
bun
 10
0.0
 20
0.0
 30
0.0
 70
   128
 71
   9
 72
   10
 73
   18
  0
VERTEX
  8
bun
 10
0.0
 20
0.0
 30
0.0
 70
   128
 71
   10
 72
   2
 73
   18
  0
VERTEX
  8
bun
 10
0.0
 20
0.0
 30
0.0
 70
   128
 71
   1
 72
   11
 73
   19
  0
VERTEX
  8
bun
 10
0.0
 20
0.0
 30
0.0
 70
   128
 71
   11
 72
   12
 73
   20
  0
VERTEX
  8
bun
 10
0.0
 20
0.0
 30
0.0
 70
   128
 71
   12
 72
   13
 73
   21
  0
VERTEX
  8
bun
 10
0.0
 20
0.0
 30
0.0
 70
   128
 71
   13
 72
   14
 73
   22
  0
VERTEX
  8
bun
 10
0.0
 20
0.0
 30
0.0
 70
   128
 71
   14
 72
   15
 73
   23
  0
VERTEX
  8
bun
 10
0.0
 20
0.0
 30
0.0
 70
   128
 71
   15
 72
   16
 73
   24
  0
VERTEX
  8
bun
 10
0.0
 20
0.0
 30
0.0
 70
   128
 71
   16
 72
   17
 73
   25
  0
VERTEX
  8
bun
 10
0.0
 20
0.0
 30
0.0
 70
   128
 71
   17
 72
   18
 73
   26
  0
VERTEX
  8
bun
 10
0.0
 20
0.0
 30
0.0
 70
   128
 71
   18
 72
   2
 73
   26
  0
VERTEX
  8
bun
 10
0.0
 20
0.0
 30
0.0
 70
   128
 71
   1
 72
   19
 73
   27
  0
VERTEX
  8
bun
 10
0.0
 20
0.0
 30
0.0
 70
   128
 71
   19
 72
   20
 73
   28
  0
VERTEX
  8
bun
 10
0.0
 20
0.0
 30
0.0
 70
   128
 71
   20
 72
   21
 73
   29
  0
VERTEX
  8
bun
 10
0.0
 20
0.0
 30
0.0
 70
   128
 71
   21
 72
   22
 73
   30
  0
VERTEX
  8
bun
 10
0.0
 20
0.0
 30
0.0
 70
   128
 71
   22
 72
   23
 73
   31
  0
VERTEX
  8
bun
 10
0.0
 20
0.0
 30
0.0
 70
   128
 71
   23
 72
   24
 73
   32
  0
VERTEX
  8
bun
 10
0.0
 20
0.0
 30
0.0
 70
   128
 71
   24
 72
   25
 73
   33
  0
VERTEX
  8
bun
 10
0.0
 20
0.0
 30
0.0
 70
   128
 71
   25
 72
   26
 73
   34
  0
VERTEX
  8
bun
 10
0.0
 20
0.0
 30
0.0
 70
   128
 71
   26
 72
   2
 73
   34
  0
VERTEX
  8
bun
 10
0.0
 20
0.0
 30
0.0
 70
   128
 71
   35
 72
   37
 73
   36
  0
VERTEX
  8
bun
 10
0.0
 20
0.0
 30
0.0
 70
   128
 71
   35
 72
   38
 73
   37
  0
VERTEX
  8
bun
 10
0.0
 20
0.0
 30
0.0
 70
   128
 71
   35
 72
   39
 73
   38
  0
VERTEX
  8
bun
 10
0.0
 20
0.0
 30
0.0
 70
   128
 71
   35
 72
   40
 73
   39
  0
VERTEX
  8
bun
 10
0.0
 20
0.0
 30
0.0
 70
   128
 71
   35
 72
   44
 73
   40
  0
VERTEX
  8
bun
 10
0.0
 20
0.0
 30
0.0
 70
   128
 71
   40
 72
   42
 73
   41
  0
VERTEX
  8
bun
 10
0.0
 20
0.0
 30
0.0
 70
   128
 71
   40
 72
   44
 73
   42
  0
VERTEX
  8
bun
 10
0.0
 20
0.0
 30
0.0
 70
   128
 71
   42
 72
   44
 73
   43
  0
VERTEX
  8
bun
 10
0.0
 20
0.0
 30
0.0
 70
   128
 71
   45
 72
   46
 73
   47
  0
VERTEX
  8
bun
 10
0.0
 20
0.0
 30
0.0
 70
   128
 71
   45
 72
   47
 73
   48
  0
VERTEX
  8
bun
 10
0.0
 20
0.0
 30
0.0
 70
   128
 71
   45
 72
   48
 73
   49
  0
VERTEX
  8
bun
 10
0.0
 20
0.0
 30
0.0
 70
   128
 71
   45
 72
   49
 73
   50
  0
VERTEX
  8
bun
 10
0.0
 20
0.0
 30
0.0
 70
   128
 71
   45
 72
   50
 73
   54
  0
VERTEX
  8
bun
 10
0.0
 20
0.0
 30
0.0
 70
   128
 71
   50
 72
   51
 73
   52
  0
VERTEX
  8
bun
 10
0.0
 20
0.0
 30
0.0
 70
   128
 71
   50
 72
   52
 73
   54
  0
VERTEX
  8
bun
 10
0.0
 20
0.0
 30
0.0
 70
   128
 71
   52
 72
   53
 73
   54
  0
VERTEX
  8
bun
 10
0.0
 20
0.0
 30
0.0
 70
   128
 71
   3
 72
   12
 73
   11
  0
VERTEX
  8
bun
 10
0.0
 20
0.0
 30
0.0
 70
   128
 71
   4
 72
   13
 73
   12
  0
VERTEX
  8
bun
 10
0.0
 20
0.0
 30
0.0
 70
   128
 71
   5
 72
   14
 73
   13
  0
VERTEX
  8
bun
 10
0.0
 20
0.0
 30
0.0
 70
   128
 71
   6
 72
   15
 73
   14
  0
VERTEX
  8
bun
 10
0.0
 20
0.0
 30
0.0
 70
   128
 71
   7
 72
   16
 73
   15
  0
VERTEX
  8
bun
 10
0.0
 20
0.0
 30
0.0
 70
   128
 71
   8
 72
   17
 73
   16
  0
VERTEX
  8
bun
 10
0.0
 20
0.0
 30
0.0
 70
   128
 71
   9
 72
   18
 73
   17
  0
VERTEX
  8
bun
 10
0.0
 20
0.0
 30
0.0
 70
   128
 71
   11
 72
   20
 73
   19
  0
VERTEX
  8
bun
 10
0.0
 20
0.0
 30
0.0
 70
   128
 71
   12
 72
   21
 73
   20
  0
VERTEX
  8
bun
 10
0.0
 20
0.0
 30
0.0
 70
   128
 71
   13
 72
   22
 73
   21
  0
VERTEX
  8
bun
 10
0.0
 20
0.0
 30
0.0
 70
   128
 71
   14
 72
   23
 73
   22
  0
VERTEX
  8
bun
 10
0.0
 20
0.0
 30
0.0
 70
   128
 71
   15
 72
   24
 73
   23
  0
VERTEX
  8
bun
 10
0.0
 20
0.0
 30
0.0
 70
   128
 71
   16
 72
   25
 73
   24
  0
VERTEX
  8
bun
 10
0.0
 20
0.0
 30
0.0
 70
   128
 71
   17
 72
   26
 73
   25
  0
VERTEX
  8
bun
 10
0.0
 20
0.0
 30
0.0
 70
   128
 71
   19
 72
   28
 73
   27
  0
VERTEX
  8
bun
 10
0.0
 20
0.0
 30
0.0
 70
   128
 71
   20
 72
   29
 73
   28
  0
VERTEX
  8
bun
 10
0.0
 20
0.0
 30
0.0
 70
   128
 71
   21
 72
   30
 73
   29
  0
VERTEX
  8
bun
 10
0.0
 20
0.0
 30
0.0
 70
   128
 71
   22
 72
   31
 73
   30
  0
VERTEX
  8
bun
 10
0.0
 20
0.0
 30
0.0
 70
   128
 71
   23
 72
   32
 73
   31
  0
VERTEX
  8
bun
 10
0.0
 20
0.0
 30
0.0
 70
   128
 71
   24
 72
   33
 73
   32
  0
VERTEX
  8
bun
 10
0.0
 20
0.0
 30
0.0
 70
   128
 71
   25
 72
   34
 73
   33
  0
SEQEND
  0
POLYLINE
  8
bun_2
 66
   1
 10
0.0
 20
0.0
 30
0.0
 70
   64
 71
   54
 72
   64
  0
VERTEX
  8
bun_2
 10
-103.822577
 20
43.520667
 30
-20.233007
 70
   192
  0
VERTEX
  8
bun_2
 10
102.558997
 20
43.335293
 30
-20.450863
 70
   192
  0
VERTEX
  8
bun_2
 10
-100.321269
 20
26.915027
 30
-14.259912
 70
   192
  0
VERTEX
  8
bun_2
 10
-90.333181
 20
12.831140
 30
-9.203576
 70
   192
  0
VERTEX
  8
bun_2
 10
-75.378909
 20
3.413150
 30
-5.833782
 70
   192
  0
VERTEX
  8
bun_2
 10
-57.735105
 20
0.094860
 30
-4.663549
 70
   192
  0
VERTEX
  8
bun_2
 10
56.426563
 20
-0.007681
 30
-4.784058
 70
   192
  0
VERTEX
  8
bun_2
 10
74.073789
 20
3.278910
 30
-5.991544
 70
   192
  0
VERTEX
  8
bun_2
 10
89.037808
 20
12.670027
 30
-9.392920
 70
   192
  0
VERTEX
  8
bun_2
 10
99.040483
 20
26.735958
 30
-14.470358
 70
   192
  0
VERTEX
  8
bun_2
 10
-100.336794
 20
30.040222
 30
-31.626481
 70
   192
  0
VERTEX
  8
bun_2
 10
-90.361868
 20
18.605748
 30
-41.292811
 70
   192
  0
VERTEX
  8
bun_2
 10
-75.416390
 20
10.958039
 30
-47.760388
 70
   192
  0
VERTEX
  8
bun_2
 10
-57.775674
 20
8.261390
 30
-50.044580
 70
   192
  0
VERTEX
  8
bun_2
 10
56.385994
 20
8.158849
 30
-50.165089
 70
   192
  0
VERTEX
  8
bun_2
 10
74.036308
 20
10.823799
 30
-47.918150
 70
   192
  0
VERTEX
  8
bun_2
 10
89.009121
 20
18.444636
 30
-41.482155
 70
   192
  0
VERTEX
  8
bun_2
 10
99.024958
 20
29.861154
 30
-31.836927
 70
   192
  0
VERTEX
  8
bun_2
 10
-100.328190
 20
46.642709
 30
-37.603281
 70
   192
  0
VERTEX
  8
bun_2
 10
-90.345971
 20
49.283144
 30
-52.336499
 70
   192
  0
VERTEX
  8
bun_2
 10
-75.395619
 20
51.039989
 30
-62.189660
 70
   192
  0
VERTEX
  8
bun_2
 10
-57.753192
 20
51.645780
 30
-65.662712
 70
   192
  0
VERTEX
  8
bun_2
 10
56.408475
 20
51.543239
 30
-65.783221
 70
   192
  0
VERTEX
  8
bun_2
 10
74.057079
 20
50.905749
 30
-62.347422
 70
   192
  0
VERTEX
  8
bun_2
 10
89.025018
 20
49.122032
 30
-52.525842
 70
   192
  0
VERTEX
  8
bun_2
 10
99.033561
 20
46.463641
 30
-37.813727
 70
   192
  0
VERTEX
  8
bun_2
 10
-100.304062
 20
60.120001
 30
-26.213513
 70
   192
  0
VERTEX
  8
bun_2
 10
-90.301387
 20
74.185932
 30
-31.290951
 70
   192
  0
VERTEX
  8
bun_2
 10
-75.337368
 20
83.577050
 30
-34.692327
 70
   192
  0
VERTEX
  8
bun_2
 10
-57.690142
 20
86.863640
 30
-35.899813
 70
   192
  0
VERTEX
  8
bun_2
 10
56.471526
 20
86.761099
 30
-36.020322
 70
   192
  0
VERTEX
  8
bun_2
 10
74.115330
 20
83.442810
 30
-34.850089
 70
   192
  0
VERTEX
  8
bun_2
 10
89.069602
 20
74.024820
 30
-31.480294
 70
   192
  0
VERTEX
  8
bun_2
 10
99.057690
 20
59.940933
 30
-26.423959
 70
   192
  0
VERTEX
  8
bun_2
 10
-103.822577
 20
43.520667
 30
-20.233007
 70
   192
  0
VERTEX
  8
bun_2
 10
-100.321269
 20
26.915027
 30
-14.259912
 70
   192
  0
VERTEX
  8
bun_2
 10
-90.333181
 20
12.831140
 30
-9.203576
 70
   192
  0
VERTEX
  8
bun_2
 10
-75.378909
 20
3.413150
 30
-5.833782
 70
   192
  0
VERTEX
  8
bun_2
 10
-57.735105
 20
0.094860
 30
-4.663549
 70
   192
  0
VERTEX
  8
bun_2
 10
56.426563
 20
-0.007681
 30
-4.784058
 70
   192
  0
VERTEX
  8
bun_2
 10
74.073789
 20
3.278910
 30
-5.991544
 70
   192
  0
VERTEX
  8
bun_2
 10
89.037808
 20
12.670027
 30
-9.392920
 70
   192
  0
VERTEX
  8
bun_2
 10
99.040483
 20
26.735958
 30
-14.470358
 70
   192
  0
VERTEX
  8
bun_2
 10
102.558997
 20
43.335293
 30
-20.450863
 70
   192
  0
VERTEX
  8
bun_2
 10
-103.822577
 20
43.520667
 30
-20.233007
 70
   192
  0
VERTEX
  8
bun_2
 10
-100.304062
 20
60.120001
 30
-26.213513
 70
   192
  0
VERTEX
  8
bun_2
 10
-90.301387
 20
74.185932
 30
-31.290951
 70
   192
  0
VERTEX
  8
bun_2
 10
-75.337368
 20
83.577050
 30
-34.692327
 70
   192
  0
VERTEX
  8
bun_2
 10
-57.690142
 20
86.863640
 30
-35.899813
 70
   192
  0
VERTEX
  8
bun_2
 10
56.471526
 20
86.761099
 30
-36.020322
 70
   192
  0
VERTEX
  8
bun_2
 10
74.115330
 20
83.442810
 30
-34.850089
 70
   192
  0
VERTEX
  8
bun_2
 10
89.069602
 20
74.024820
 30
-31.480294
 70
   192
  0
VERTEX
  8
bun_2
 10
99.057690
 20
59.940933
 30
-26.423959
 70
   192
  0
VERTEX
  8
bun_2
 10
102.558997
 20
43.335293
 30
-20.450863
 70
   192
  0
VERTEX
  8
bun_2
 10
0.0
 20
0.0
 30
0.0
 70
   128
 71
   1
 72
   3
 73
   11
  0
VERTEX
  8
bun_2
 10
0.0
 20
0.0
 30
0.0
 70
   128
 71
   3
 72
   4
 73
   12
  0
VERTEX
  8
bun_2
 10
0.0
 20
0.0
 30
0.0
 70
   128
 71
   4
 72
   5
 73
   13
  0
VERTEX
  8
bun_2
 10
0.0
 20
0.0
 30
0.0
 70
   128
 71
   5
 72
   6
 73
   14
  0
VERTEX
  8
bun_2
 10
0.0
 20
0.0
 30
0.0
 70
   128
 71
   6
 72
   7
 73
   15
  0
VERTEX
  8
bun_2
 10
0.0
 20
0.0
 30
0.0
 70
   128
 71
   7
 72
   8
 73
   16
  0
VERTEX
  8
bun_2
 10
0.0
 20
0.0
 30
0.0
 70
   128
 71
   8
 72
   9
 73
   17
  0
VERTEX
  8
bun_2
 10
0.0
 20
0.0
 30
0.0
 70
   128
 71
   9
 72
   10
 73
   18
  0
VERTEX
  8
bun_2
 10
0.0
 20
0.0
 30
0.0
 70
   128
 71
   10
 72
   2
 73
   18
  0
VERTEX
  8
bun_2
 10
0.0
 20
0.0
 30
0.0
 70
   128
 71
   1
 72
   11
 73
   19
  0
VERTEX
  8
bun_2
 10
0.0
 20
0.0
 30
0.0
 70
   128
 71
   11
 72
   12
 73
   20
  0
VERTEX
  8
bun_2
 10
0.0
 20
0.0
 30
0.0
 70
   128
 71
   12
 72
   13
 73
   21
  0
VERTEX
  8
bun_2
 10
0.0
 20
0.0
 30
0.0
 70
   128
 71
   13
 72
   14
 73
   22
  0
VERTEX
  8
bun_2
 10
0.0
 20
0.0
 30
0.0
 70
   128
 71
   14
 72
   15
 73
   23
  0
VERTEX
  8
bun_2
 10
0.0
 20
0.0
 30
0.0
 70
   128
 71
   15
 72
   16
 73
   24
  0
VERTEX
  8
bun_2
 10
0.0
 20
0.0
 30
0.0
 70
   128
 71
   16
 72
   17
 73
   25
  0
VERTEX
  8
bun_2
 10
0.0
 20
0.0
 30
0.0
 70
   128
 71
   17
 72
   18
 73
   26
  0
VERTEX
  8
bun_2
 10
0.0
 20
0.0
 30
0.0
 70
   128
 71
   18
 72
   2
 73
   26
  0
VERTEX
  8
bun_2
 10
0.0
 20
0.0
 30
0.0
 70
   128
 71
   1
 72
   19
 73
   27
  0
VERTEX
  8
bun_2
 10
0.0
 20
0.0
 30
0.0
 70
   128
 71
   19
 72
   20
 73
   28
  0
VERTEX
  8
bun_2
 10
0.0
 20
0.0
 30
0.0
 70
   128
 71
   20
 72
   21
 73
   29
  0
VERTEX
  8
bun_2
 10
0.0
 20
0.0
 30
0.0
 70
   128
 71
   21
 72
   22
 73
   30
  0
VERTEX
  8
bun_2
 10
0.0
 20
0.0
 30
0.0
 70
   128
 71
   22
 72
   23
 73
   31
  0
VERTEX
  8
bun_2
 10
0.0
 20
0.0
 30
0.0
 70
   128
 71
   23
 72
   24
 73
   32
  0
VERTEX
  8
bun_2
 10
0.0
 20
0.0
 30
0.0
 70
   128
 71
   24
 72
   25
 73
   33
  0
VERTEX
  8
bun_2
 10
0.0
 20
0.0
 30
0.0
 70
   128
 71
   25
 72
   26
 73
   34
  0
VERTEX
  8
bun_2
 10
0.0
 20
0.0
 30
0.0
 70
   128
 71
   26
 72
   2
 73
   34
  0
VERTEX
  8
bun_2
 10
0.0
 20
0.0
 30
0.0
 70
   128
 71
   35
 72
   37
 73
   36
  0
VERTEX
  8
bun_2
 10
0.0
 20
0.0
 30
0.0
 70
   128
 71
   35
 72
   38
 73
   37
  0
VERTEX
  8
bun_2
 10
0.0
 20
0.0
 30
0.0
 70
   128
 71
   35
 72
   39
 73
   38
  0
VERTEX
  8
bun_2
 10
0.0
 20
0.0
 30
0.0
 70
   128
 71
   35
 72
   40
 73
   39
  0
VERTEX
  8
bun_2
 10
0.0
 20
0.0
 30
0.0
 70
   128
 71
   35
 72
   44
 73
   40
  0
VERTEX
  8
bun_2
 10
0.0
 20
0.0
 30
0.0
 70
   128
 71
   40
 72
   42
 73
   41
  0
VERTEX
  8
bun_2
 10
0.0
 20
0.0
 30
0.0
 70
   128
 71
   40
 72
   44
 73
   42
  0
VERTEX
  8
bun_2
 10
0.0
 20
0.0
 30
0.0
 70
   128
 71
   42
 72
   44
 73
   43
  0
VERTEX
  8
bun_2
 10
0.0
 20
0.0
 30
0.0
 70
   128
 71
   45
 72
   46
 73
   47
  0
VERTEX
  8
bun_2
 10
0.0
 20
0.0
 30
0.0
 70
   128
 71
   45
 72
   47
 73
   48
  0
VERTEX
  8
bun_2
 10
0.0
 20
0.0
 30
0.0
 70
   128
 71
   45
 72
   48
 73
   49
  0
VERTEX
  8
bun_2
 10
0.0
 20
0.0
 30
0.0
 70
   128
 71
   45
 72
   49
 73
   50
  0
VERTEX
  8
bun_2
 10
0.0
 20
0.0
 30
0.0
 70
   128
 71
   45
 72
   50
 73
   54
  0
VERTEX
  8
bun_2
 10
0.0
 20
0.0
 30
0.0
 70
   128
 71
   50
 72
   51
 73
   52
  0
VERTEX
  8
bun_2
 10
0.0
 20
0.0
 30
0.0
 70
   128
 71
   50
 72
   52
 73
   54
  0
VERTEX
  8
bun_2
 10
0.0
 20
0.0
 30
0.0
 70
   128
 71
   52
 72
   53
 73
   54
  0
VERTEX
  8
bun_2
 10
0.0
 20
0.0
 30
0.0
 70
   128
 71
   3
 72
   12
 73
   11
  0
VERTEX
  8
bun_2
 10
0.0
 20
0.0
 30
0.0
 70
   128
 71
   4
 72
   13
 73
   12
  0
VERTEX
  8
bun_2
 10
0.0
 20
0.0
 30
0.0
 70
   128
 71
   5
 72
   14
 73
   13
  0
VERTEX
  8
bun_2
 10
0.0
 20
0.0
 30
0.0
 70
   128
 71
   6
 72
   15
 73
   14
  0
VERTEX
  8
bun_2
 10
0.0
 20
0.0
 30
0.0
 70
   128
 71
   7
 72
   16
 73
   15
  0
VERTEX
  8
bun_2
 10
0.0
 20
0.0
 30
0.0
 70
   128
 71
   8
 72
   17
 73
   16
  0
VERTEX
  8
bun_2
 10
0.0
 20
0.0
 30
0.0
 70
   128
 71
   9
 72
   18
 73
   17
  0
VERTEX
  8
bun_2
 10
0.0
 20
0.0
 30
0.0
 70
   128
 71
   11
 72
   20
 73
   19
  0
VERTEX
  8
bun_2
 10
0.0
 20
0.0
 30
0.0
 70
   128
 71
   12
 72
   21
 73
   20
  0
VERTEX
  8
bun_2
 10
0.0
 20
0.0
 30
0.0
 70
   128
 71
   13
 72
   22
 73
   21
  0
VERTEX
  8
bun_2
 10
0.0
 20
0.0
 30
0.0
 70
   128
 71
   14
 72
   23
 73
   22
  0
VERTEX
  8
bun_2
 10
0.0
 20
0.0
 30
0.0
 70
   128
 71
   15
 72
   24
 73
   23
  0
VERTEX
  8
bun_2
 10
0.0
 20
0.0
 30
0.0
 70
   128
 71
   16
 72
   25
 73
   24
  0
VERTEX
  8
bun_2
 10
0.0
 20
0.0
 30
0.0
 70
   128
 71
   17
 72
   26
 73
   25
  0
VERTEX
  8
bun_2
 10
0.0
 20
0.0
 30
0.0
 70
   128
 71
   19
 72
   28
 73
   27
  0
VERTEX
  8
bun_2
 10
0.0
 20
0.0
 30
0.0
 70
   128
 71
   20
 72
   29
 73
   28
  0
VERTEX
  8
bun_2
 10
0.0
 20
0.0
 30
0.0
 70
   128
 71
   21
 72
   30
 73
   29
  0
VERTEX
  8
bun_2
 10
0.0
 20
0.0
 30
0.0
 70
   128
 71
   22
 72
   31
 73
   30
  0
VERTEX
  8
bun_2
 10
0.0
 20
0.0
 30
0.0
 70
   128
 71
   23
 72
   32
 73
   31
  0
VERTEX
  8
bun_2
 10
0.0
 20
0.0
 30
0.0
 70
   128
 71
   24
 72
   33
 73
   32
  0
VERTEX
  8
bun_2
 10
0.0
 20
0.0
 30
0.0
 70
   128
 71
   25
 72
   34
 73
   33
  0
SEQEND
  0
ENDSEC
  0
EOF
