999
FBX AutoCAD (*.DXF) exporter
  0
SECTION
  2
HEADER
  9
$ACADVER
  1
AC1008
  9
$UCSORG
 10
0.0
 20
0.0
 30
0.0
  9
$UCSXDIR
 10
1.0
 20
0.0
 30
0.0
  9
$TILEMODE
 70
   1
  9
$UCSYDIR
 10
0.0
 20
1.0
 30
0.0
  0
ENDSEC
  0
SECTION
  2
TABLES
  0
TABLE
  2
LTYPE
 70
   1
  0
LTYPE
  2
CONTINUOUS
 70
   64
  3
Solid line
 72
   65
 73
   0
 40
0.0
  0
ENDTAB
  0
TABLE
  2
LAYER
 70
   1
  0
LAYER
  2
asianOnigiri
 70
   0
 62
   250
  6
CONTINUOUS
  0
ENDTAB
  0
ENDSEC
  0
SECTION
  2
BLOCKS
  0
ENDSEC
  0
SECTION
  2
ENTITIES
  0
POLYLINE
  8
asianOnigiri
 66
   1
 10
0.0
 20
0.0
 30
0.0
 70
   64
 71
   48
 72
   92
  0
VERTEX
  8
asianOnigiri
 10
-41.019924
 20
0.000000
 30
-37.315423
 70
   192
  0
VERTEX
  8
asianOnigiri
 10
-41.019924
 20
0.000000
 30
37.315423
 70
   192
  0
VERTEX
  8
asianOnigiri
 10
41.019924
 20
0.000000
 30
37.315423
 70
   192
  0
VERTEX
  8
asianOnigiri
 10
41.019924
 20
0.000000
 30
-37.315423
 70
   192
  0
VERTEX
  8
asianOnigiri
 10
-65.626038
 20
23.763874
 30
-37.315423
 70
   192
  0
VERTEX
  8
asianOnigiri
 10
-48.336240
 20
98.562063
 30
-37.315423
 70
   192
  0
VERTEX
  8
asianOnigiri
 10
-48.336240
 20
98.562063
 30
37.315423
 70
   192
  0
VERTEX
  8
asianOnigiri
 10
-65.626038
 20
23.763874
 30
37.315423
 70
   192
  0
VERTEX
  8
asianOnigiri
 10
-12.743962
 20
122.325937
 30
37.315423
 70
   192
  0
VERTEX
  8
asianOnigiri
 10
-12.743962
 20
122.325937
 30
-37.315423
 70
   192
  0
VERTEX
  8
asianOnigiri
 10
12.743962
 20
122.325937
 30
-37.315423
 70
   192
  0
VERTEX
  8
asianOnigiri
 10
12.743962
 20
122.325937
 30
37.315423
 70
   192
  0
VERTEX
  8
asianOnigiri
 10
65.626038
 20
23.763874
 30
37.315423
 70
   192
  0
VERTEX
  8
asianOnigiri
 10
48.336240
 20
98.562063
 30
37.315423
 70
   192
  0
VERTEX
  8
asianOnigiri
 10
48.336240
 20
98.562063
 30
-37.315423
 70
   192
  0
VERTEX
  8
asianOnigiri
 10
65.626038
 20
23.763874
 30
-37.315423
 70
   192
  0
VERTEX
  8
asianOnigiri
 10
-60.263420
 20
7.248019
 30
-37.315423
 70
   192
  0
VERTEX
  8
asianOnigiri
 10
-60.263420
 20
7.248019
 30
37.315423
 70
   192
  0
VERTEX
  8
asianOnigiri
 10
60.263420
 20
7.248019
 30
37.315423
 70
   192
  0
VERTEX
  8
asianOnigiri
 10
60.263420
 20
7.248019
 30
-37.315423
 70
   192
  0
VERTEX
  8
asianOnigiri
 10
-35.888065
 20
115.608909
 30
-37.315423
 70
   192
  0
VERTEX
  8
asianOnigiri
 10
-35.888065
 20
115.608909
 30
37.315423
 70
   192
  0
VERTEX
  8
asianOnigiri
 10
35.888065
 20
115.608909
 30
-37.315423
 70
   192
  0
VERTEX
  8
asianOnigiri
 10
35.888065
 20
115.608909
 30
37.315423
 70
   192
  0
VERTEX
  8
asianOnigiri
 10
-38.456347
 20
9.236421
 30
44.453401
 70
   192
  0
VERTEX
  8
asianOnigiri
 10
38.456347
 20
9.236421
 30
44.453401
 70
   192
  0
VERTEX
  8
asianOnigiri
 10
-37.394786
 20
95.285670
 30
44.453401
 70
   192
  0
VERTEX
  8
asianOnigiri
 10
-53.849026
 20
24.102226
 30
44.453401
 70
   192
  0
VERTEX
  8
asianOnigiri
 10
-10.729123
 20
113.089516
 30
44.453401
 70
   192
  0
VERTEX
  8
asianOnigiri
 10
10.729123
 20
113.089516
 30
44.453401
 70
   192
  0
VERTEX
  8
asianOnigiri
 10
53.849026
 20
24.102226
 30
44.453401
 70
   192
  0
VERTEX
  8
asianOnigiri
 10
37.394786
 20
95.285670
 30
44.453401
 70
   192
  0
VERTEX
  8
asianOnigiri
 10
-50.494369
 20
13.770514
 30
44.453401
 70
   192
  0
VERTEX
  8
asianOnigiri
 10
50.494369
 20
13.770514
 30
44.453401
 70
   192
  0
VERTEX
  8
asianOnigiri
 10
-28.068638
 20
108.057132
 30
44.453401
 70
   192
  0
VERTEX
  8
asianOnigiri
 10
28.068638
 20
108.057132
 30
44.453401
 70
   192
  0
VERTEX
  8
asianOnigiri
 10
-38.456347
 20
9.236421
 30
-44.453401
 70
   192
  0
VERTEX
  8
asianOnigiri
 10
38.456347
 20
9.236421
 30
-44.453401
 70
   192
  0
VERTEX
  8
asianOnigiri
 10
-53.849026
 20
24.102226
 30
-44.453401
 70
   192
  0
VERTEX
  8
asianOnigiri
 10
-37.394786
 20
95.285670
 30
-44.453401
 70
   192
  0
VERTEX
  8
asianOnigiri
 10
-10.729123
 20
113.089516
 30
-44.453401
 70
   192
  0
VERTEX
  8
asianOnigiri
 10
10.729123
 20
113.089516
 30
-44.453401
 70
   192
  0
VERTEX
  8
asianOnigiri
 10
37.394786
 20
95.285670
 30
-44.453401
 70
   192
  0
VERTEX
  8
asianOnigiri
 10
53.849026
 20
24.102226
 30
-44.453401
 70
   192
  0
VERTEX
  8
asianOnigiri
 10
-50.494369
 20
13.770514
 30
-44.453401
 70
   192
  0
VERTEX
  8
asianOnigiri
 10
50.494369
 20
13.770514
 30
-44.453401
 70
   192
  0
VERTEX
  8
asianOnigiri
 10
-28.068638
 20
108.057132
 30
-44.453401
 70
   192
  0
VERTEX
  8
asianOnigiri
 10
28.068638
 20
108.057132
 30
-44.453401
 70
   192
  0
VERTEX
  8
asianOnigiri
 10
0.0
 20
0.0
 30
0.0
 70
   128
 71
   25
 72
   33
 73
   28
  0
VERTEX
  8
asianOnigiri
 10
0.0
 20
0.0
 30
0.0
 70
   128
 71
   13
 72
   14
 73
   15
  0
VERTEX
  8
asianOnigiri
 10
0.0
 20
0.0
 30
0.0
 70
   128
 71
   44
 72
   43
 73
   40
  0
VERTEX
  8
asianOnigiri
 10
0.0
 20
0.0
 30
0.0
 70
   128
 71
   5
 72
   6
 73
   7
  0
VERTEX
  8
asianOnigiri
 10
0.0
 20
0.0
 30
0.0
 70
   128
 71
   9
 72
   10
 73
   11
  0
VERTEX
  8
asianOnigiri
 10
0.0
 20
0.0
 30
0.0
 70
   128
 71
   1
 72
   2
 73
   3
  0
VERTEX
  8
asianOnigiri
 10
0.0
 20
0.0
 30
0.0
 70
   128
 71
   31
 72
   34
 73
   26
  0
VERTEX
  8
asianOnigiri
 10
0.0
 20
0.0
 30
0.0
 70
   128
 71
   27
 72
   35
 73
   29
  0
VERTEX
  8
asianOnigiri
 10
0.0
 20
0.0
 30
0.0
 70
   128
 71
   27
 72
   29
 73
   30
  0
VERTEX
  8
asianOnigiri
 10
0.0
 20
0.0
 30
0.0
 70
   128
 71
   26
 72
   25
 73
   28
  0
VERTEX
  8
asianOnigiri
 10
0.0
 20
0.0
 30
0.0
 70
   128
 71
   28
 72
   27
 73
   32
  0
VERTEX
  8
asianOnigiri
 10
0.0
 20
0.0
 30
0.0
 70
   128
 71
   30
 72
   36
 73
   32
  0
VERTEX
  8
asianOnigiri
 10
0.0
 20
0.0
 30
0.0
 70
   128
 71
   37
 72
   38
 73
   44
  0
VERTEX
  8
asianOnigiri
 10
0.0
 20
0.0
 30
0.0
 70
   128
 71
   43
 72
   48
 73
   42
  0
VERTEX
  8
asianOnigiri
 10
0.0
 20
0.0
 30
0.0
 70
   128
 71
   40
 72
   43
 73
   42
  0
VERTEX
  8
asianOnigiri
 10
0.0
 20
0.0
 30
0.0
 70
   128
 71
   41
 72
   47
 73
   40
  0
VERTEX
  8
asianOnigiri
 10
0.0
 20
0.0
 30
0.0
 70
   128
 71
   39
 72
   45
 73
   37
  0
VERTEX
  8
asianOnigiri
 10
0.0
 20
0.0
 30
0.0
 70
   128
 71
   38
 72
   46
 73
   44
  0
VERTEX
  8
asianOnigiri
 10
0.0
 20
0.0
 30
0.0
 70
   128
 71
   11
 72
   23
 73
   24
  0
VERTEX
  8
asianOnigiri
 10
0.0
 20
0.0
 30
0.0
 70
   128
 71
   16
 72
   20
 73
   19
  0
VERTEX
  8
asianOnigiri
 10
0.0
 20
0.0
 30
0.0
 70
   128
 71
   6
 72
   21
 73
   22
  0
VERTEX
  8
asianOnigiri
 10
0.0
 20
0.0
 30
0.0
 70
   128
 71
   1
 72
   17
 73
   18
  0
VERTEX
  8
asianOnigiri
 10
0.0
 20
0.0
 30
0.0
 70
   128
 71
   23
 72
   15
 73
   14
  0
VERTEX
  8
asianOnigiri
 10
0.0
 20
0.0
 30
0.0
 70
   128
 71
   20
 72
   4
 73
   3
  0
VERTEX
  8
asianOnigiri
 10
0.0
 20
0.0
 30
0.0
 70
   128
 71
   21
 72
   10
 73
   9
  0
VERTEX
  8
asianOnigiri
 10
0.0
 20
0.0
 30
0.0
 70
   128
 71
   17
 72
   5
 73
   8
  0
VERTEX
  8
asianOnigiri
 10
0.0
 20
0.0
 30
0.0
 70
   128
 71
   2
 72
   25
 73
   26
  0
VERTEX
  8
asianOnigiri
 10
0.0
 20
0.0
 30
0.0
 70
   128
 71
   3
 72
   26
 73
   34
  0
VERTEX
  8
asianOnigiri
 10
0.0
 20
0.0
 30
0.0
 70
   128
 71
   19
 72
   34
 73
   31
  0
VERTEX
  8
asianOnigiri
 10
0.0
 20
0.0
 30
0.0
 70
   128
 71
   13
 72
   31
 73
   32
  0
VERTEX
  8
asianOnigiri
 10
0.0
 20
0.0
 30
0.0
 70
   128
 71
   14
 72
   32
 73
   36
  0
VERTEX
  8
asianOnigiri
 10
0.0
 20
0.0
 30
0.0
 70
   128
 71
   24
 72
   36
 73
   30
  0
VERTEX
  8
asianOnigiri
 10
0.0
 20
0.0
 30
0.0
 70
   128
 71
   12
 72
   30
 73
   29
  0
VERTEX
  8
asianOnigiri
 10
0.0
 20
0.0
 30
0.0
 70
   128
 71
   9
 72
   29
 73
   35
  0
VERTEX
  8
asianOnigiri
 10
0.0
 20
0.0
 30
0.0
 70
   128
 71
   22
 72
   35
 73
   27
  0
VERTEX
  8
asianOnigiri
 10
0.0
 20
0.0
 30
0.0
 70
   128
 71
   7
 72
   27
 73
   28
  0
VERTEX
  8
asianOnigiri
 10
0.0
 20
0.0
 30
0.0
 70
   128
 71
   8
 72
   28
 73
   33
  0
VERTEX
  8
asianOnigiri
 10
0.0
 20
0.0
 30
0.0
 70
   128
 71
   18
 72
   33
 73
   25
  0
VERTEX
  8
asianOnigiri
 10
0.0
 20
0.0
 30
0.0
 70
   128
 71
   4
 72
   38
 73
   37
  0
VERTEX
  8
asianOnigiri
 10
0.0
 20
0.0
 30
0.0
 70
   128
 71
   1
 72
   37
 73
   45
  0
VERTEX
  8
asianOnigiri
 10
0.0
 20
0.0
 30
0.0
 70
   128
 71
   17
 72
   45
 73
   39
  0
VERTEX
  8
asianOnigiri
 10
0.0
 20
0.0
 30
0.0
 70
   128
 71
   5
 72
   39
 73
   40
  0
VERTEX
  8
asianOnigiri
 10
0.0
 20
0.0
 30
0.0
 70
   128
 71
   6
 72
   40
 73
   47
  0
VERTEX
  8
asianOnigiri
 10
0.0
 20
0.0
 30
0.0
 70
   128
 71
   21
 72
   47
 73
   41
  0
VERTEX
  8
asianOnigiri
 10
0.0
 20
0.0
 30
0.0
 70
   128
 71
   10
 72
   41
 73
   42
  0
VERTEX
  8
asianOnigiri
 10
0.0
 20
0.0
 30
0.0
 70
   128
 71
   11
 72
   42
 73
   48
  0
VERTEX
  8
asianOnigiri
 10
0.0
 20
0.0
 30
0.0
 70
   128
 71
   23
 72
   48
 73
   43
  0
VERTEX
  8
asianOnigiri
 10
0.0
 20
0.0
 30
0.0
 70
   128
 71
   15
 72
   43
 73
   44
  0
VERTEX
  8
asianOnigiri
 10
0.0
 20
0.0
 30
0.0
 70
   128
 71
   16
 72
   44
 73
   46
  0
VERTEX
  8
asianOnigiri
 10
0.0
 20
0.0
 30
0.0
 70
   128
 71
   20
 72
   46
 73
   38
  0
VERTEX
  8
asianOnigiri
 10
0.0
 20
0.0
 30
0.0
 70
   128
 71
   13
 72
   15
 73
   16
  0
VERTEX
  8
asianOnigiri
 10
0.0
 20
0.0
 30
0.0
 70
   128
 71
   44
 72
   40
 73
   39
  0
VERTEX
  8
asianOnigiri
 10
0.0
 20
0.0
 30
0.0
 70
   128
 71
   5
 72
   7
 73
   8
  0
VERTEX
  8
asianOnigiri
 10
0.0
 20
0.0
 30
0.0
 70
   128
 71
   9
 72
   11
 73
   12
  0
VERTEX
  8
asianOnigiri
 10
0.0
 20
0.0
 30
0.0
 70
   128
 71
   1
 72
   3
 73
   4
  0
VERTEX
  8
asianOnigiri
 10
0.0
 20
0.0
 30
0.0
 70
   128
 71
   27
 72
   30
 73
   32
  0
VERTEX
  8
asianOnigiri
 10
0.0
 20
0.0
 30
0.0
 70
   128
 71
   26
 72
   28
 73
   31
  0
VERTEX
  8
asianOnigiri
 10
0.0
 20
0.0
 30
0.0
 70
   128
 71
   28
 72
   32
 73
   31
  0
VERTEX
  8
asianOnigiri
 10
0.0
 20
0.0
 30
0.0
 70
   128
 71
   37
 72
   44
 73
   39
  0
VERTEX
  8
asianOnigiri
 10
0.0
 20
0.0
 30
0.0
 70
   128
 71
   40
 72
   42
 73
   41
  0
VERTEX
  8
asianOnigiri
 10
0.0
 20
0.0
 30
0.0
 70
   128
 71
   11
 72
   24
 73
   12
  0
VERTEX
  8
asianOnigiri
 10
0.0
 20
0.0
 30
0.0
 70
   128
 71
   16
 72
   19
 73
   13
  0
VERTEX
  8
asianOnigiri
 10
0.0
 20
0.0
 30
0.0
 70
   128
 71
   6
 72
   22
 73
   7
  0
VERTEX
  8
asianOnigiri
 10
0.0
 20
0.0
 30
0.0
 70
   128
 71
   1
 72
   18
 73
   2
  0
VERTEX
  8
asianOnigiri
 10
0.0
 20
0.0
 30
0.0
 70
   128
 71
   23
 72
   14
 73
   24
  0
VERTEX
  8
asianOnigiri
 10
0.0
 20
0.0
 30
0.0
 70
   128
 71
   20
 72
   3
 73
   19
  0
VERTEX
  8
asianOnigiri
 10
0.0
 20
0.0
 30
0.0
 70
   128
 71
   21
 72
   9
 73
   22
  0
VERTEX
  8
asianOnigiri
 10
0.0
 20
0.0
 30
0.0
 70
   128
 71
   17
 72
   8
 73
   18
  0
VERTEX
  8
asianOnigiri
 10
0.0
 20
0.0
 30
0.0
 70
   128
 71
   2
 72
   26
 73
   3
  0
VERTEX
  8
asianOnigiri
 10
0.0
 20
0.0
 30
0.0
 70
   128
 71
   3
 72
   34
 73
   19
  0
VERTEX
  8
asianOnigiri
 10
0.0
 20
0.0
 30
0.0
 70
   128
 71
   19
 72
   31
 73
   13
  0
VERTEX
  8
asianOnigiri
 10
0.0
 20
0.0
 30
0.0
 70
   128
 71
   13
 72
   32
 73
   14
  0
VERTEX
  8
asianOnigiri
 10
0.0
 20
0.0
 30
0.0
 70
   128
 71
   14
 72
   36
 73
   24
  0
VERTEX
  8
asianOnigiri
 10
0.0
 20
0.0
 30
0.0
 70
   128
 71
   24
 72
   30
 73
   12
  0
VERTEX
  8
asianOnigiri
 10
0.0
 20
0.0
 30
0.0
 70
   128
 71
   12
 72
   29
 73
   9
  0
VERTEX
  8
asianOnigiri
 10
0.0
 20
0.0
 30
0.0
 70
   128
 71
   9
 72
   35
 73
   22
  0
VERTEX
  8
asianOnigiri
 10
0.0
 20
0.0
 30
0.0
 70
   128
 71
   22
 72
   27
 73
   7
  0
VERTEX
  8
asianOnigiri
 10
0.0
 20
0.0
 30
0.0
 70
   128
 71
   7
 72
   28
 73
   8
  0
VERTEX
  8
asianOnigiri
 10
0.0
 20
0.0
 30
0.0
 70
   128
 71
   8
 72
   33
 73
   18
  0
VERTEX
  8
asianOnigiri
 10
0.0
 20
0.0
 30
0.0
 70
   128
 71
   18
 72
   25
 73
   2
  0
VERTEX
  8
asianOnigiri
 10
0.0
 20
0.0
 30
0.0
 70
   128
 71
   4
 72
   37
 73
   1
  0
VERTEX
  8
asianOnigiri
 10
0.0
 20
0.0
 30
0.0
 70
   128
 71
   1
 72
   45
 73
   17
  0
VERTEX
  8
asianOnigiri
 10
0.0
 20
0.0
 30
0.0
 70
   128
 71
   17
 72
   39
 73
   5
  0
VERTEX
  8
asianOnigiri
 10
0.0
 20
0.0
 30
0.0
 70
   128
 71
   5
 72
   40
 73
   6
  0
VERTEX
  8
asianOnigiri
 10
0.0
 20
0.0
 30
0.0
 70
   128
 71
   6
 72
   47
 73
   21
  0
VERTEX
  8
asianOnigiri
 10
0.0
 20
0.0
 30
0.0
 70
   128
 71
   21
 72
   41
 73
   10
  0
VERTEX
  8
asianOnigiri
 10
0.0
 20
0.0
 30
0.0
 70
   128
 71
   10
 72
   42
 73
   11
  0
VERTEX
  8
asianOnigiri
 10
0.0
 20
0.0
 30
0.0
 70
   128
 71
   11
 72
   48
 73
   23
  0
VERTEX
  8
asianOnigiri
 10
0.0
 20
0.0
 30
0.0
 70
   128
 71
   23
 72
   43
 73
   15
  0
VERTEX
  8
asianOnigiri
 10
0.0
 20
0.0
 30
0.0
 70
   128
 71
   15
 72
   44
 73
   16
  0
VERTEX
  8
asianOnigiri
 10
0.0
 20
0.0
 30
0.0
 70
   128
 71
   16
 72
   46
 73
   20
  0
VERTEX
  8
asianOnigiri
 10
0.0
 20
0.0
 30
0.0
 70
   128
 71
   20
 72
   38
 73
   4
  0
SEQEND
  0
ENDSEC
  0
EOF
