999
FBX AutoCAD (*.DXF) exporter
  0
SECTION
  2
HEADER
  9
$ACADVER
  1
AC1008
  9
$UCSORG
 10
0.0
 20
0.0
 30
0.0
  9
$UCSXDIR
 10
1.0
 20
0.0
 30
0.0
  9
$TILEMODE
 70
   1
  9
$UCSYDIR
 10
0.0
 20
1.0
 30
0.0
  0
ENDSEC
  0
SECTION
  2
TABLES
  0
TABLE
  2
LTYPE
 70
   1
  0
LTYPE
  2
CONTINUOUS
 70
   64
  3
Solid line
 72
   65
 73
   0
 40
0.0
  0
ENDTAB
  0
TABLE
  2
LAYER
 70
   1
  0
LAYER
  2
plate01
 70
   0
 62
   250
  6
CONTINUOUS
  0
ENDTAB
  0
ENDSEC
  0
SECTION
  2
BLOCKS
  0
ENDSEC
  0
SECTION
  2
ENTITIES
  0
POLYLINE
  8
plate01
 66
   1
 10
0.0
 20
0.0
 30
0.0
 70
   64
 71
   99
 72
   176
  0
VERTEX
  8
plate01
 10
44.844835
 20
0.000000
 30
0.000000
 70
   192
  0
VERTEX
  8
plate01
 10
100.000000
 20
16.286348
 30
0.000000
 70
   192
  0
VERTEX
  8
plate01
 10
110.776175
 20
29.927315
 30
0.000000
 70
   192
  0
VERTEX
  8
plate01
 10
114.565332
 20
44.326113
 30
0.000000
 70
   192
  0
VERTEX
  8
plate01
 10
109.134177
 20
49.414308
 30
0.000000
 70
   192
  0
VERTEX
  8
plate01
 10
103.612910
 20
47.880623
 30
0.000000
 70
   192
  0
VERTEX
  8
plate01
 10
97.171432
 20
31.010085
 30
0.000000
 70
   192
  0
VERTEX
  8
plate01
 10
85.822161
 20
19.660814
 30
0.000000
 70
   192
  0
VERTEX
  8
plate01
 10
52.694560
 20
11.072177
 30
0.000000
 70
   192
  0
VERTEX
  8
plate01
 10
36.280234
 20
0.000000
 30
-26.359133
 70
   192
  0
VERTEX
  8
plate01
 10
80.901699
 20
16.286348
 30
-58.778525
 70
   192
  0
VERTEX
  8
plate01
 10
89.619808
 20
29.927315
 30
-65.112602
 70
   192
  0
VERTEX
  8
plate01
 10
92.685301
 20
44.326113
 30
-67.339813
 70
   192
  0
VERTEX
  8
plate01
 10
88.291404
 20
49.414308
 30
-64.147460
 70
   192
  0
VERTEX
  8
plate01
 10
83.824605
 20
47.880623
 30
-60.902140
 70
   192
  0
VERTEX
  8
plate01
 10
78.613340
 20
31.010085
 30
-57.115935
 70
   192
  0
VERTEX
  8
plate01
 10
69.431587
 20
19.660814
 30
-50.445001
 70
   192
  0
VERTEX
  8
plate01
 10
42.630794
 20
11.072177
 30
-30.973085
 70
   192
  0
VERTEX
  8
plate01
 10
13.857816
 20
0.000000
 30
-42.649973
 70
   192
  0
VERTEX
  8
plate01
 10
30.901699
 20
16.286348
 30
-95.105652
 70
   192
  0
VERTEX
  8
plate01
 10
34.231721
 20
29.927315
 30
-105.354403
 70
   192
  0
VERTEX
  8
plate01
 10
35.402635
 20
44.326113
 30
-108.958106
 70
   192
  0
VERTEX
  8
plate01
 10
33.724315
 20
49.414308
 30
-103.792770
 70
   192
  0
VERTEX
  8
plate01
 10
32.018150
 20
47.880623
 30
-98.541733
 70
   192
  0
VERTEX
  8
plate01
 10
30.027624
 20
31.010085
 30
-92.415523
 70
   192
  0
VERTEX
  8
plate01
 10
26.520506
 20
19.660814
 30
-81.621725
 70
   192
  0
VERTEX
  8
plate01
 10
16.283514
 20
11.072177
 30
-50.115504
 70
   192
  0
VERTEX
  8
plate01
 10
-13.857816
 20
0.000000
 30
-42.649973
 70
   192
  0
VERTEX
  8
plate01
 10
-30.901699
 20
16.286348
 30
-95.105652
 70
   192
  0
VERTEX
  8
plate01
 10
-34.231721
 20
29.927315
 30
-105.354403
 70
   192
  0
VERTEX
  8
plate01
 10
-35.402635
 20
44.326113
 30
-108.958106
 70
   192
  0
VERTEX
  8
plate01
 10
-33.724315
 20
49.414308
 30
-103.792770
 70
   192
  0
VERTEX
  8
plate01
 10
-32.018150
 20
47.880623
 30
-98.541733
 70
   192
  0
VERTEX
  8
plate01
 10
-30.027624
 20
31.010085
 30
-92.415523
 70
   192
  0
VERTEX
  8
plate01
 10
-26.520506
 20
19.660814
 30
-81.621725
 70
   192
  0
VERTEX
  8
plate01
 10
-16.283514
 20
11.072177
 30
-50.115504
 70
   192
  0
VERTEX
  8
plate01
 10
-36.280234
 20
0.000000
 30
-26.359133
 70
   192
  0
VERTEX
  8
plate01
 10
-80.901699
 20
16.286348
 30
-58.778525
 70
   192
  0
VERTEX
  8
plate01
 10
-89.619808
 20
29.927315
 30
-65.112602
 70
   192
  0
VERTEX
  8
plate01
 10
-92.685301
 20
44.326113
 30
-67.339813
 70
   192
  0
VERTEX
  8
plate01
 10
-88.291404
 20
49.414308
 30
-64.147460
 70
   192
  0
VERTEX
  8
plate01
 10
-83.824605
 20
47.880623
 30
-60.902140
 70
   192
  0
VERTEX
  8
plate01
 10
-78.613340
 20
31.010085
 30
-57.115935
 70
   192
  0
VERTEX
  8
plate01
 10
-69.431587
 20
19.660814
 30
-50.445001
 70
   192
  0
VERTEX
  8
plate01
 10
-42.630794
 20
11.072177
 30
-30.973085
 70
   192
  0
VERTEX
  8
plate01
 10
-44.844835
 20
0.000000
 30
-0.000000
 70
   192
  0
VERTEX
  8
plate01
 10
-100.000000
 20
16.286348
 30
-0.000000
 70
   192
  0
VERTEX
  8
plate01
 10
-110.776175
 20
29.927315
 30
-0.000000
 70
   192
  0
VERTEX
  8
plate01
 10
-114.565332
 20
44.326113
 30
-0.000000
 70
   192
  0
VERTEX
  8
plate01
 10
-109.134177
 20
49.414308
 30
-0.000000
 70
   192
  0
VERTEX
  8
plate01
 10
-103.612910
 20
47.880623
 30
-0.000000
 70
   192
  0
VERTEX
  8
plate01
 10
-97.171432
 20
31.010085
 30
-0.000000
 70
   192
  0
VERTEX
  8
plate01
 10
-85.822161
 20
19.660814
 30
-0.000000
 70
   192
  0
VERTEX
  8
plate01
 10
-52.694560
 20
11.072177
 30
-0.000000
 70
   192
  0
VERTEX
  8
plate01
 10
-36.280234
 20
0.000000
 30
26.359133
 70
   192
  0
VERTEX
  8
plate01
 10
-80.901699
 20
16.286348
 30
58.778525
 70
   192
  0
VERTEX
  8
plate01
 10
-89.619808
 20
29.927315
 30
65.112602
 70
   192
  0
VERTEX
  8
plate01
 10
-92.685301
 20
44.326113
 30
67.339813
 70
   192
  0
VERTEX
  8
plate01
 10
-88.291404
 20
49.414308
 30
64.147460
 70
   192
  0
VERTEX
  8
plate01
 10
-83.824605
 20
47.880623
 30
60.902140
 70
   192
  0
VERTEX
  8
plate01
 10
-78.613340
 20
31.010085
 30
57.115935
 70
   192
  0
VERTEX
  8
plate01
 10
-69.431587
 20
19.660814
 30
50.445001
 70
   192
  0
VERTEX
  8
plate01
 10
-42.630794
 20
11.072177
 30
30.973085
 70
   192
  0
VERTEX
  8
plate01
 10
-13.857816
 20
0.000000
 30
42.649973
 70
   192
  0
VERTEX
  8
plate01
 10
-30.901699
 20
16.286348
 30
95.105652
 70
   192
  0
VERTEX
  8
plate01
 10
-34.231721
 20
29.927315
 30
105.354403
 70
   192
  0
VERTEX
  8
plate01
 10
-35.402635
 20
44.326113
 30
108.958106
 70
   192
  0
VERTEX
  8
plate01
 10
-33.724315
 20
49.414308
 30
103.792770
 70
   192
  0
VERTEX
  8
plate01
 10
-32.018150
 20
47.880623
 30
98.541733
 70
   192
  0
VERTEX
  8
plate01
 10
-30.027624
 20
31.010085
 30
92.415523
 70
   192
  0
VERTEX
  8
plate01
 10
-26.520506
 20
19.660814
 30
81.621725
 70
   192
  0
VERTEX
  8
plate01
 10
-16.283514
 20
11.072177
 30
50.115504
 70
   192
  0
VERTEX
  8
plate01
 10
13.857816
 20
0.000000
 30
42.649973
 70
   192
  0
VERTEX
  8
plate01
 10
30.901699
 20
16.286348
 30
95.105652
 70
   192
  0
VERTEX
  8
plate01
 10
34.231721
 20
29.927315
 30
105.354403
 70
   192
  0
VERTEX
  8
plate01
 10
35.402635
 20
44.326113
 30
108.958106
 70
   192
  0
VERTEX
  8
plate01
 10
33.724315
 20
49.414308
 30
103.792770
 70
   192
  0
VERTEX
  8
plate01
 10
32.018150
 20
47.880623
 30
98.541733
 70
   192
  0
VERTEX
  8
plate01
 10
30.027624
 20
31.010085
 30
92.415523
 70
   192
  0
VERTEX
  8
plate01
 10
26.520506
 20
19.660814
 30
81.621725
 70
   192
  0
VERTEX
  8
plate01
 10
16.283514
 20
11.072177
 30
50.115504
 70
   192
  0
VERTEX
  8
plate01
 10
36.280234
 20
0.000000
 30
26.359133
 70
   192
  0
VERTEX
  8
plate01
 10
80.901699
 20
16.286348
 30
58.778525
 70
   192
  0
VERTEX
  8
plate01
 10
89.619808
 20
29.927315
 30
65.112602
 70
   192
  0
VERTEX
  8
plate01
 10
92.685301
 20
44.326113
 30
67.339813
 70
   192
  0
VERTEX
  8
plate01
 10
88.291404
 20
49.414308
 30
64.147460
 70
   192
  0
VERTEX
  8
plate01
 10
83.824605
 20
47.880623
 30
60.902140
 70
   192
  0
VERTEX
  8
plate01
 10
78.613340
 20
31.010085
 30
57.115935
 70
   192
  0
VERTEX
  8
plate01
 10
69.431587
 20
19.660814
 30
50.445001
 70
   192
  0
VERTEX
  8
plate01
 10
42.630794
 20
11.072177
 30
30.973085
 70
   192
  0
VERTEX
  8
plate01
 10
0.000000
 20
0.000000
 30
0.000000
 70
   192
  0
VERTEX
  8
plate01
 10
0.000000
 20
0.000000
 30
0.000000
 70
   192
  0
VERTEX
  8
plate01
 10
0.000000
 20
0.000000
 30
0.000000
 70
   192
  0
VERTEX
  8
plate01
 10
0.000000
 20
0.000000
 30
0.000000
 70
   192
  0
VERTEX
  8
plate01
 10
0.000000
 20
0.000000
 30
0.000000
 70
   192
  0
VERTEX
  8
plate01
 10
0.000000
 20
0.000000
 30
0.000000
 70
   192
  0
VERTEX
  8
plate01
 10
0.000000
 20
0.000000
 30
0.000000
 70
   192
  0
VERTEX
  8
plate01
 10
0.000000
 20
0.000000
 30
0.000000
 70
   192
  0
VERTEX
  8
plate01
 10
0.000000
 20
0.000000
 30
0.000000
 70
   192
  0
VERTEX
  8
plate01
 10
0.0
 20
0.0
 30
0.0
 70
   128
 71
   1
 72
   2
 73
   11
  0
VERTEX
  8
plate01
 10
0.0
 20
0.0
 30
0.0
 70
   128
 71
   2
 72
   3
 73
   12
  0
VERTEX
  8
plate01
 10
0.0
 20
0.0
 30
0.0
 70
   128
 71
   3
 72
   4
 73
   13
  0
VERTEX
  8
plate01
 10
0.0
 20
0.0
 30
0.0
 70
   128
 71
   4
 72
   5
 73
   14
  0
VERTEX
  8
plate01
 10
0.0
 20
0.0
 30
0.0
 70
   128
 71
   5
 72
   6
 73
   15
  0
VERTEX
  8
plate01
 10
0.0
 20
0.0
 30
0.0
 70
   128
 71
   6
 72
   7
 73
   16
  0
VERTEX
  8
plate01
 10
0.0
 20
0.0
 30
0.0
 70
   128
 71
   7
 72
   8
 73
   17
  0
VERTEX
  8
plate01
 10
0.0
 20
0.0
 30
0.0
 70
   128
 71
   8
 72
   9
 73
   18
  0
VERTEX
  8
plate01
 10
0.0
 20
0.0
 30
0.0
 70
   128
 71
   10
 72
   11
 73
   20
  0
VERTEX
  8
plate01
 10
0.0
 20
0.0
 30
0.0
 70
   128
 71
   11
 72
   12
 73
   21
  0
VERTEX
  8
plate01
 10
0.0
 20
0.0
 30
0.0
 70
   128
 71
   12
 72
   13
 73
   22
  0
VERTEX
  8
plate01
 10
0.0
 20
0.0
 30
0.0
 70
   128
 71
   13
 72
   14
 73
   23
  0
VERTEX
  8
plate01
 10
0.0
 20
0.0
 30
0.0
 70
   128
 71
   14
 72
   15
 73
   24
  0
VERTEX
  8
plate01
 10
0.0
 20
0.0
 30
0.0
 70
   128
 71
   15
 72
   16
 73
   25
  0
VERTEX
  8
plate01
 10
0.0
 20
0.0
 30
0.0
 70
   128
 71
   16
 72
   17
 73
   26
  0
VERTEX
  8
plate01
 10
0.0
 20
0.0
 30
0.0
 70
   128
 71
   17
 72
   18
 73
   27
  0
VERTEX
  8
plate01
 10
0.0
 20
0.0
 30
0.0
 70
   128
 71
   19
 72
   20
 73
   29
  0
VERTEX
  8
plate01
 10
0.0
 20
0.0
 30
0.0
 70
   128
 71
   20
 72
   21
 73
   30
  0
VERTEX
  8
plate01
 10
0.0
 20
0.0
 30
0.0
 70
   128
 71
   21
 72
   22
 73
   31
  0
VERTEX
  8
plate01
 10
0.0
 20
0.0
 30
0.0
 70
   128
 71
   22
 72
   23
 73
   32
  0
VERTEX
  8
plate01
 10
0.0
 20
0.0
 30
0.0
 70
   128
 71
   23
 72
   24
 73
   33
  0
VERTEX
  8
plate01
 10
0.0
 20
0.0
 30
0.0
 70
   128
 71
   24
 72
   25
 73
   34
  0
VERTEX
  8
plate01
 10
0.0
 20
0.0
 30
0.0
 70
   128
 71
   25
 72
   26
 73
   35
  0
VERTEX
  8
plate01
 10
0.0
 20
0.0
 30
0.0
 70
   128
 71
   26
 72
   27
 73
   36
  0
VERTEX
  8
plate01
 10
0.0
 20
0.0
 30
0.0
 70
   128
 71
   28
 72
   29
 73
   38
  0
VERTEX
  8
plate01
 10
0.0
 20
0.0
 30
0.0
 70
   128
 71
   29
 72
   30
 73
   39
  0
VERTEX
  8
plate01
 10
0.0
 20
0.0
 30
0.0
 70
   128
 71
   30
 72
   31
 73
   40
  0
VERTEX
  8
plate01
 10
0.0
 20
0.0
 30
0.0
 70
   128
 71
   31
 72
   32
 73
   41
  0
VERTEX
  8
plate01
 10
0.0
 20
0.0
 30
0.0
 70
   128
 71
   32
 72
   33
 73
   42
  0
VERTEX
  8
plate01
 10
0.0
 20
0.0
 30
0.0
 70
   128
 71
   33
 72
   34
 73
   43
  0
VERTEX
  8
plate01
 10
0.0
 20
0.0
 30
0.0
 70
   128
 71
   34
 72
   35
 73
   44
  0
VERTEX
  8
plate01
 10
0.0
 20
0.0
 30
0.0
 70
   128
 71
   35
 72
   36
 73
   45
  0
VERTEX
  8
plate01
 10
0.0
 20
0.0
 30
0.0
 70
   128
 71
   37
 72
   38
 73
   47
  0
VERTEX
  8
plate01
 10
0.0
 20
0.0
 30
0.0
 70
   128
 71
   38
 72
   39
 73
   48
  0
VERTEX
  8
plate01
 10
0.0
 20
0.0
 30
0.0
 70
   128
 71
   39
 72
   40
 73
   49
  0
VERTEX
  8
plate01
 10
0.0
 20
0.0
 30
0.0
 70
   128
 71
   40
 72
   41
 73
   50
  0
VERTEX
  8
plate01
 10
0.0
 20
0.0
 30
0.0
 70
   128
 71
   41
 72
   42
 73
   51
  0
VERTEX
  8
plate01
 10
0.0
 20
0.0
 30
0.0
 70
   128
 71
   42
 72
   43
 73
   52
  0
VERTEX
  8
plate01
 10
0.0
 20
0.0
 30
0.0
 70
   128
 71
   43
 72
   44
 73
   53
  0
VERTEX
  8
plate01
 10
0.0
 20
0.0
 30
0.0
 70
   128
 71
   44
 72
   45
 73
   54
  0
VERTEX
  8
plate01
 10
0.0
 20
0.0
 30
0.0
 70
   128
 71
   46
 72
   47
 73
   56
  0
VERTEX
  8
plate01
 10
0.0
 20
0.0
 30
0.0
 70
   128
 71
   47
 72
   48
 73
   57
  0
VERTEX
  8
plate01
 10
0.0
 20
0.0
 30
0.0
 70
   128
 71
   48
 72
   49
 73
   58
  0
VERTEX
  8
plate01
 10
0.0
 20
0.0
 30
0.0
 70
   128
 71
   49
 72
   50
 73
   59
  0
VERTEX
  8
plate01
 10
0.0
 20
0.0
 30
0.0
 70
   128
 71
   50
 72
   51
 73
   60
  0
VERTEX
  8
plate01
 10
0.0
 20
0.0
 30
0.0
 70
   128
 71
   51
 72
   52
 73
   61
  0
VERTEX
  8
plate01
 10
0.0
 20
0.0
 30
0.0
 70
   128
 71
   52
 72
   53
 73
   62
  0
VERTEX
  8
plate01
 10
0.0
 20
0.0
 30
0.0
 70
   128
 71
   53
 72
   54
 73
   63
  0
VERTEX
  8
plate01
 10
0.0
 20
0.0
 30
0.0
 70
   128
 71
   55
 72
   56
 73
   65
  0
VERTEX
  8
plate01
 10
0.0
 20
0.0
 30
0.0
 70
   128
 71
   56
 72
   57
 73
   66
  0
VERTEX
  8
plate01
 10
0.0
 20
0.0
 30
0.0
 70
   128
 71
   57
 72
   58
 73
   67
  0
VERTEX
  8
plate01
 10
0.0
 20
0.0
 30
0.0
 70
   128
 71
   58
 72
   59
 73
   68
  0
VERTEX
  8
plate01
 10
0.0
 20
0.0
 30
0.0
 70
   128
 71
   59
 72
   60
 73
   69
  0
VERTEX
  8
plate01
 10
0.0
 20
0.0
 30
0.0
 70
   128
 71
   60
 72
   61
 73
   70
  0
VERTEX
  8
plate01
 10
0.0
 20
0.0
 30
0.0
 70
   128
 71
   61
 72
   62
 73
   71
  0
VERTEX
  8
plate01
 10
0.0
 20
0.0
 30
0.0
 70
   128
 71
   62
 72
   63
 73
   72
  0
VERTEX
  8
plate01
 10
0.0
 20
0.0
 30
0.0
 70
   128
 71
   64
 72
   65
 73
   74
  0
VERTEX
  8
plate01
 10
0.0
 20
0.0
 30
0.0
 70
   128
 71
   65
 72
   66
 73
   75
  0
VERTEX
  8
plate01
 10
0.0
 20
0.0
 30
0.0
 70
   128
 71
   66
 72
   67
 73
   76
  0
VERTEX
  8
plate01
 10
0.0
 20
0.0
 30
0.0
 70
   128
 71
   67
 72
   68
 73
   77
  0
VERTEX
  8
plate01
 10
0.0
 20
0.0
 30
0.0
 70
   128
 71
   68
 72
   69
 73
   78
  0
VERTEX
  8
plate01
 10
0.0
 20
0.0
 30
0.0
 70
   128
 71
   69
 72
   70
 73
   79
  0
VERTEX
  8
plate01
 10
0.0
 20
0.0
 30
0.0
 70
   128
 71
   70
 72
   71
 73
   80
  0
VERTEX
  8
plate01
 10
0.0
 20
0.0
 30
0.0
 70
   128
 71
   71
 72
   72
 73
   81
  0
VERTEX
  8
plate01
 10
0.0
 20
0.0
 30
0.0
 70
   128
 71
   73
 72
   74
 73
   83
  0
VERTEX
  8
plate01
 10
0.0
 20
0.0
 30
0.0
 70
   128
 71
   74
 72
   75
 73
   84
  0
VERTEX
  8
plate01
 10
0.0
 20
0.0
 30
0.0
 70
   128
 71
   75
 72
   76
 73
   85
  0
VERTEX
  8
plate01
 10
0.0
 20
0.0
 30
0.0
 70
   128
 71
   76
 72
   77
 73
   86
  0
VERTEX
  8
plate01
 10
0.0
 20
0.0
 30
0.0
 70
   128
 71
   77
 72
   78
 73
   87
  0
VERTEX
  8
plate01
 10
0.0
 20
0.0
 30
0.0
 70
   128
 71
   78
 72
   79
 73
   88
  0
VERTEX
  8
plate01
 10
0.0
 20
0.0
 30
0.0
 70
   128
 71
   79
 72
   80
 73
   89
  0
VERTEX
  8
plate01
 10
0.0
 20
0.0
 30
0.0
 70
   128
 71
   80
 72
   81
 73
   90
  0
VERTEX
  8
plate01
 10
0.0
 20
0.0
 30
0.0
 70
   128
 71
   82
 72
   83
 73
   2
  0
VERTEX
  8
plate01
 10
0.0
 20
0.0
 30
0.0
 70
   128
 71
   83
 72
   84
 73
   3
  0
VERTEX
  8
plate01
 10
0.0
 20
0.0
 30
0.0
 70
   128
 71
   84
 72
   85
 73
   4
  0
VERTEX
  8
plate01
 10
0.0
 20
0.0
 30
0.0
 70
   128
 71
   85
 72
   86
 73
   5
  0
VERTEX
  8
plate01
 10
0.0
 20
0.0
 30
0.0
 70
   128
 71
   86
 72
   87
 73
   6
  0
VERTEX
  8
plate01
 10
0.0
 20
0.0
 30
0.0
 70
   128
 71
   87
 72
   88
 73
   7
  0
VERTEX
  8
plate01
 10
0.0
 20
0.0
 30
0.0
 70
   128
 71
   88
 72
   89
 73
   8
  0
VERTEX
  8
plate01
 10
0.0
 20
0.0
 30
0.0
 70
   128
 71
   89
 72
   90
 73
   9
  0
VERTEX
  8
plate01
 10
0.0
 20
0.0
 30
0.0
 70
   128
 71
   18
 72
   36
 73
   27
  0
VERTEX
  8
plate01
 10
0.0
 20
0.0
 30
0.0
 70
   128
 71
   18
 72
   9
 73
   90
  0
VERTEX
  8
plate01
 10
0.0
 20
0.0
 30
0.0
 70
   128
 71
   36
 72
   18
 73
   81
  0
VERTEX
  8
plate01
 10
0.0
 20
0.0
 30
0.0
 70
   128
 71
   81
 72
   72
 73
   63
  0
VERTEX
  8
plate01
 10
0.0
 20
0.0
 30
0.0
 70
   128
 71
   63
 72
   54
 73
   45
  0
VERTEX
  8
plate01
 10
0.0
 20
0.0
 30
0.0
 70
   128
 71
   37
 72
   1
 73
   10
  0
VERTEX
  8
plate01
 10
0.0
 20
0.0
 30
0.0
 70
   128
 71
   82
 72
   1
 73
   37
  0
VERTEX
  8
plate01
 10
0.0
 20
0.0
 30
0.0
 70
   128
 71
   19
 72
   28
 73
   37
  0
VERTEX
  8
plate01
 10
0.0
 20
0.0
 30
0.0
 70
   128
 71
   64
 72
   37
 73
   46
  0
VERTEX
  8
plate01
 10
0.0
 20
0.0
 30
0.0
 70
   128
 71
   64
 72
   73
 73
   82
  0
VERTEX
  8
plate01
 10
0.0
 20
0.0
 30
0.0
 70
   128
 71
   1
 72
   11
 73
   10
  0
VERTEX
  8
plate01
 10
0.0
 20
0.0
 30
0.0
 70
   128
 71
   2
 72
   12
 73
   11
  0
VERTEX
  8
plate01
 10
0.0
 20
0.0
 30
0.0
 70
   128
 71
   3
 72
   13
 73
   12
  0
VERTEX
  8
plate01
 10
0.0
 20
0.0
 30
0.0
 70
   128
 71
   4
 72
   14
 73
   13
  0
VERTEX
  8
plate01
 10
0.0
 20
0.0
 30
0.0
 70
   128
 71
   5
 72
   15
 73
   14
  0
VERTEX
  8
plate01
 10
0.0
 20
0.0
 30
0.0
 70
   128
 71
   6
 72
   16
 73
   15
  0
VERTEX
  8
plate01
 10
0.0
 20
0.0
 30
0.0
 70
   128
 71
   7
 72
   17
 73
   16
  0
VERTEX
  8
plate01
 10
0.0
 20
0.0
 30
0.0
 70
   128
 71
   8
 72
   18
 73
   17
  0
VERTEX
  8
plate01
 10
0.0
 20
0.0
 30
0.0
 70
   128
 71
   10
 72
   20
 73
   19
  0
VERTEX
  8
plate01
 10
0.0
 20
0.0
 30
0.0
 70
   128
 71
   11
 72
   21
 73
   20
  0
VERTEX
  8
plate01
 10
0.0
 20
0.0
 30
0.0
 70
   128
 71
   12
 72
   22
 73
   21
  0
VERTEX
  8
plate01
 10
0.0
 20
0.0
 30
0.0
 70
   128
 71
   13
 72
   23
 73
   22
  0
VERTEX
  8
plate01
 10
0.0
 20
0.0
 30
0.0
 70
   128
 71
   14
 72
   24
 73
   23
  0
VERTEX
  8
plate01
 10
0.0
 20
0.0
 30
0.0
 70
   128
 71
   15
 72
   25
 73
   24
  0
VERTEX
  8
plate01
 10
0.0
 20
0.0
 30
0.0
 70
   128
 71
   16
 72
   26
 73
   25
  0
VERTEX
  8
plate01
 10
0.0
 20
0.0
 30
0.0
 70
   128
 71
   17
 72
   27
 73
   26
  0
VERTEX
  8
plate01
 10
0.0
 20
0.0
 30
0.0
 70
   128
 71
   19
 72
   29
 73
   28
  0
VERTEX
  8
plate01
 10
0.0
 20
0.0
 30
0.0
 70
   128
 71
   20
 72
   30
 73
   29
  0
VERTEX
  8
plate01
 10
0.0
 20
0.0
 30
0.0
 70
   128
 71
   21
 72
   31
 73
   30
  0
VERTEX
  8
plate01
 10
0.0
 20
0.0
 30
0.0
 70
   128
 71
   22
 72
   32
 73
   31
  0
VERTEX
  8
plate01
 10
0.0
 20
0.0
 30
0.0
 70
   128
 71
   23
 72
   33
 73
   32
  0
VERTEX
  8
plate01
 10
0.0
 20
0.0
 30
0.0
 70
   128
 71
   24
 72
   34
 73
   33
  0
VERTEX
  8
plate01
 10
0.0
 20
0.0
 30
0.0
 70
   128
 71
   25
 72
   35
 73
   34
  0
VERTEX
  8
plate01
 10
0.0
 20
0.0
 30
0.0
 70
   128
 71
   26
 72
   36
 73
   35
  0
VERTEX
  8
plate01
 10
0.0
 20
0.0
 30
0.0
 70
   128
 71
   28
 72
   38
 73
   37
  0
VERTEX
  8
plate01
 10
0.0
 20
0.0
 30
0.0
 70
   128
 71
   29
 72
   39
 73
   38
  0
VERTEX
  8
plate01
 10
0.0
 20
0.0
 30
0.0
 70
   128
 71
   30
 72
   40
 73
   39
  0
VERTEX
  8
plate01
 10
0.0
 20
0.0
 30
0.0
 70
   128
 71
   31
 72
   41
 73
   40
  0
VERTEX
  8
plate01
 10
0.0
 20
0.0
 30
0.0
 70
   128
 71
   32
 72
   42
 73
   41
  0
VERTEX
  8
plate01
 10
0.0
 20
0.0
 30
0.0
 70
   128
 71
   33
 72
   43
 73
   42
  0
VERTEX
  8
plate01
 10
0.0
 20
0.0
 30
0.0
 70
   128
 71
   34
 72
   44
 73
   43
  0
VERTEX
  8
plate01
 10
0.0
 20
0.0
 30
0.0
 70
   128
 71
   35
 72
   45
 73
   44
  0
VERTEX
  8
plate01
 10
0.0
 20
0.0
 30
0.0
 70
   128
 71
   37
 72
   47
 73
   46
  0
VERTEX
  8
plate01
 10
0.0
 20
0.0
 30
0.0
 70
   128
 71
   38
 72
   48
 73
   47
  0
VERTEX
  8
plate01
 10
0.0
 20
0.0
 30
0.0
 70
   128
 71
   39
 72
   49
 73
   48
  0
VERTEX
  8
plate01
 10
0.0
 20
0.0
 30
0.0
 70
   128
 71
   40
 72
   50
 73
   49
  0
VERTEX
  8
plate01
 10
0.0
 20
0.0
 30
0.0
 70
   128
 71
   41
 72
   51
 73
   50
  0
VERTEX
  8
plate01
 10
0.0
 20
0.0
 30
0.0
 70
   128
 71
   42
 72
   52
 73
   51
  0
VERTEX
  8
plate01
 10
0.0
 20
0.0
 30
0.0
 70
   128
 71
   43
 72
   53
 73
   52
  0
VERTEX
  8
plate01
 10
0.0
 20
0.0
 30
0.0
 70
   128
 71
   44
 72
   54
 73
   53
  0
VERTEX
  8
plate01
 10
0.0
 20
0.0
 30
0.0
 70
   128
 71
   46
 72
   56
 73
   55
  0
VERTEX
  8
plate01
 10
0.0
 20
0.0
 30
0.0
 70
   128
 71
   47
 72
   57
 73
   56
  0
VERTEX
  8
plate01
 10
0.0
 20
0.0
 30
0.0
 70
   128
 71
   48
 72
   58
 73
   57
  0
VERTEX
  8
plate01
 10
0.0
 20
0.0
 30
0.0
 70
   128
 71
   49
 72
   59
 73
   58
  0
VERTEX
  8
plate01
 10
0.0
 20
0.0
 30
0.0
 70
   128
 71
   50
 72
   60
 73
   59
  0
VERTEX
  8
plate01
 10
0.0
 20
0.0
 30
0.0
 70
   128
 71
   51
 72
   61
 73
   60
  0
VERTEX
  8
plate01
 10
0.0
 20
0.0
 30
0.0
 70
   128
 71
   52
 72
   62
 73
   61
  0
VERTEX
  8
plate01
 10
0.0
 20
0.0
 30
0.0
 70
   128
 71
   53
 72
   63
 73
   62
  0
VERTEX
  8
plate01
 10
0.0
 20
0.0
 30
0.0
 70
   128
 71
   55
 72
   65
 73
   64
  0
VERTEX
  8
plate01
 10
0.0
 20
0.0
 30
0.0
 70
   128
 71
   56
 72
   66
 73
   65
  0
VERTEX
  8
plate01
 10
0.0
 20
0.0
 30
0.0
 70
   128
 71
   57
 72
   67
 73
   66
  0
VERTEX
  8
plate01
 10
0.0
 20
0.0
 30
0.0
 70
   128
 71
   58
 72
   68
 73
   67
  0
VERTEX
  8
plate01
 10
0.0
 20
0.0
 30
0.0
 70
   128
 71
   59
 72
   69
 73
   68
  0
VERTEX
  8
plate01
 10
0.0
 20
0.0
 30
0.0
 70
   128
 71
   60
 72
   70
 73
   69
  0
VERTEX
  8
plate01
 10
0.0
 20
0.0
 30
0.0
 70
   128
 71
   61
 72
   71
 73
   70
  0
VERTEX
  8
plate01
 10
0.0
 20
0.0
 30
0.0
 70
   128
 71
   62
 72
   72
 73
   71
  0
VERTEX
  8
plate01
 10
0.0
 20
0.0
 30
0.0
 70
   128
 71
   64
 72
   74
 73
   73
  0
VERTEX
  8
plate01
 10
0.0
 20
0.0
 30
0.0
 70
   128
 71
   65
 72
   75
 73
   74
  0
VERTEX
  8
plate01
 10
0.0
 20
0.0
 30
0.0
 70
   128
 71
   66
 72
   76
 73
   75
  0
VERTEX
  8
plate01
 10
0.0
 20
0.0
 30
0.0
 70
   128
 71
   67
 72
   77
 73
   76
  0
VERTEX
  8
plate01
 10
0.0
 20
0.0
 30
0.0
 70
   128
 71
   68
 72
   78
 73
   77
  0
VERTEX
  8
plate01
 10
0.0
 20
0.0
 30
0.0
 70
   128
 71
   69
 72
   79
 73
   78
  0
VERTEX
  8
plate01
 10
0.0
 20
0.0
 30
0.0
 70
   128
 71
   70
 72
   80
 73
   79
  0
VERTEX
  8
plate01
 10
0.0
 20
0.0
 30
0.0
 70
   128
 71
   71
 72
   81
 73
   80
  0
VERTEX
  8
plate01
 10
0.0
 20
0.0
 30
0.0
 70
   128
 71
   73
 72
   83
 73
   82
  0
VERTEX
  8
plate01
 10
0.0
 20
0.0
 30
0.0
 70
   128
 71
   74
 72
   84
 73
   83
  0
VERTEX
  8
plate01
 10
0.0
 20
0.0
 30
0.0
 70
   128
 71
   75
 72
   85
 73
   84
  0
VERTEX
  8
plate01
 10
0.0
 20
0.0
 30
0.0
 70
   128
 71
   76
 72
   86
 73
   85
  0
VERTEX
  8
plate01
 10
0.0
 20
0.0
 30
0.0
 70
   128
 71
   77
 72
   87
 73
   86
  0
VERTEX
  8
plate01
 10
0.0
 20
0.0
 30
0.0
 70
   128
 71
   78
 72
   88
 73
   87
  0
VERTEX
  8
plate01
 10
0.0
 20
0.0
 30
0.0
 70
   128
 71
   79
 72
   89
 73
   88
  0
VERTEX
  8
plate01
 10
0.0
 20
0.0
 30
0.0
 70
   128
 71
   80
 72
   90
 73
   89
  0
VERTEX
  8
plate01
 10
0.0
 20
0.0
 30
0.0
 70
   128
 71
   82
 72
   2
 73
   1
  0
VERTEX
  8
plate01
 10
0.0
 20
0.0
 30
0.0
 70
   128
 71
   83
 72
   3
 73
   2
  0
VERTEX
  8
plate01
 10
0.0
 20
0.0
 30
0.0
 70
   128
 71
   84
 72
   4
 73
   3
  0
VERTEX
  8
plate01
 10
0.0
 20
0.0
 30
0.0
 70
   128
 71
   85
 72
   5
 73
   4
  0
VERTEX
  8
plate01
 10
0.0
 20
0.0
 30
0.0
 70
   128
 71
   86
 72
   6
 73
   5
  0
VERTEX
  8
plate01
 10
0.0
 20
0.0
 30
0.0
 70
   128
 71
   87
 72
   7
 73
   6
  0
VERTEX
  8
plate01
 10
0.0
 20
0.0
 30
0.0
 70
   128
 71
   88
 72
   8
 73
   7
  0
VERTEX
  8
plate01
 10
0.0
 20
0.0
 30
0.0
 70
   128
 71
   89
 72
   9
 73
   8
  0
VERTEX
  8
plate01
 10
0.0
 20
0.0
 30
0.0
 70
   128
 71
   18
 72
   90
 73
   81
  0
VERTEX
  8
plate01
 10
0.0
 20
0.0
 30
0.0
 70
   128
 71
   36
 72
   81
 73
   45
  0
VERTEX
  8
plate01
 10
0.0
 20
0.0
 30
0.0
 70
   128
 71
   81
 72
   63
 73
   45
  0
VERTEX
  8
plate01
 10
0.0
 20
0.0
 30
0.0
 70
   128
 71
   37
 72
   10
 73
   19
  0
VERTEX
  8
plate01
 10
0.0
 20
0.0
 30
0.0
 70
   128
 71
   82
 72
   37
 73
   64
  0
VERTEX
  8
plate01
 10
0.0
 20
0.0
 30
0.0
 70
   128
 71
   64
 72
   46
 73
   55
  0
SEQEND
  0
ENDSEC
  0
EOF
