999
FBX AutoCAD (*.DXF) exporter
  0
SECTION
  2
HEADER
  9
$ACADVER
  1
AC1008
  9
$UCSORG
 10
0.0
 20
0.0
 30
0.0
  9
$UCSXDIR
 10
1.0
 20
0.0
 30
0.0
  9
$TILEMODE
 70
   1
  9
$UCSYDIR
 10
0.0
 20
1.0
 30
0.0
  0
ENDSEC
  0
SECTION
  2
TABLES
  0
TABLE
  2
LTYPE
 70
   1
  0
LTYPE
  2
CONTINUOUS
 70
   64
  3
Solid line
 72
   65
 73
   0
 40
0.0
  0
ENDTAB
  0
TABLE
  2
LAYER
 70
   1
  0
LAYER
  2
plate04
 70
   0
 62
   250
  6
CONTINUOUS
  0
ENDTAB
  0
ENDSEC
  0
SECTION
  2
BLOCKS
  0
ENDSEC
  0
SECTION
  2
ENTITIES
  0
POLYLINE
  8
plate04
 66
   1
 10
0.0
 20
0.0
 30
0.0
 70
   64
 71
   36
 72
   68
  0
VERTEX
  8
plate04
 10
-98.555204
 20
0.000000
 30
-71.926734
 70
   192
  0
VERTEX
  8
plate04
 10
-98.555204
 20
17.176977
 30
-71.926734
 70
   192
  0
VERTEX
  8
plate04
 10
-98.555204
 20
17.176977
 30
72.461495
 70
   192
  0
VERTEX
  8
plate04
 10
-98.555204
 20
0.000000
 30
72.461495
 70
   192
  0
VERTEX
  8
plate04
 10
-71.464657
 20
0.000000
 30
99.552042
 70
   192
  0
VERTEX
  8
plate04
 10
-71.464657
 20
17.176977
 30
99.552042
 70
   192
  0
VERTEX
  8
plate04
 10
78.416547
 20
17.176977
 30
99.552042
 70
   192
  0
VERTEX
  8
plate04
 10
78.416547
 20
0.000000
 30
99.552042
 70
   192
  0
VERTEX
  8
plate04
 10
105.507094
 20
0.000000
 30
72.461495
 70
   192
  0
VERTEX
  8
plate04
 10
105.507094
 20
17.176977
 30
72.461495
 70
   192
  0
VERTEX
  8
plate04
 10
105.507094
 20
17.176977
 30
-71.926734
 70
   192
  0
VERTEX
  8
plate04
 10
105.507094
 20
0.000000
 30
-71.926734
 70
   192
  0
VERTEX
  8
plate04
 10
78.416547
 20
0.000000
 30
-99.017281
 70
   192
  0
VERTEX
  8
plate04
 10
78.416547
 20
17.176977
 30
-99.017281
 70
   192
  0
VERTEX
  8
plate04
 10
-71.464657
 20
17.176977
 30
-99.017281
 70
   192
  0
VERTEX
  8
plate04
 10
-71.464657
 20
0.000000
 30
-99.017281
 70
   192
  0
VERTEX
  8
plate04
 10
-90.620567
 20
0.000000
 30
-91.082644
 70
   192
  0
VERTEX
  8
plate04
 10
-90.620567
 20
17.176977
 30
-91.082644
 70
   192
  0
VERTEX
  8
plate04
 10
-90.620567
 20
17.176977
 30
91.617404
 70
   192
  0
VERTEX
  8
plate04
 10
-90.620567
 20
0.000000
 30
91.617404
 70
   192
  0
VERTEX
  8
plate04
 10
97.572457
 20
17.176977
 30
91.617404
 70
   192
  0
VERTEX
  8
plate04
 10
97.572457
 20
0.000000
 30
91.617404
 70
   192
  0
VERTEX
  8
plate04
 10
97.572457
 20
17.176977
 30
-91.082644
 70
   192
  0
VERTEX
  8
plate04
 10
97.572457
 20
0.000000
 30
-91.082644
 70
   192
  0
VERTEX
  8
plate04
 10
-85.555204
 20
9.176480
 30
-69.340873
 70
   192
  0
VERTEX
  8
plate04
 10
-85.555204
 20
9.176480
 30
69.875634
 70
   192
  0
VERTEX
  8
plate04
 10
-68.878796
 20
9.176480
 30
86.552042
 70
   192
  0
VERTEX
  8
plate04
 10
75.830686
 20
9.176480
 30
86.552042
 70
   192
  0
VERTEX
  8
plate04
 10
92.507094
 20
9.176480
 30
69.875634
 70
   192
  0
VERTEX
  8
plate04
 10
92.507094
 20
9.176480
 30
-69.340873
 70
   192
  0
VERTEX
  8
plate04
 10
75.830686
 20
9.176480
 30
-86.017281
 70
   192
  0
VERTEX
  8
plate04
 10
-68.878796
 20
9.176480
 30
-86.017281
 70
   192
  0
VERTEX
  8
plate04
 10
-80.670798
 20
9.176480
 30
-81.132874
 70
   192
  0
VERTEX
  8
plate04
 10
-80.670798
 20
9.176480
 30
81.667635
 70
   192
  0
VERTEX
  8
plate04
 10
87.622687
 20
9.176480
 30
81.667635
 70
   192
  0
VERTEX
  8
plate04
 10
87.622687
 20
9.176480
 30
-81.132874
 70
   192
  0
VERTEX
  8
plate04
 10
0.0
 20
0.0
 30
0.0
 70
   128
 71
   5
 72
   6
 73
   7
  0
VERTEX
  8
plate04
 10
0.0
 20
0.0
 30
0.0
 70
   128
 71
   9
 72
   10
 73
   11
  0
VERTEX
  8
plate04
 10
0.0
 20
0.0
 30
0.0
 70
   128
 71
   13
 72
   14
 73
   15
  0
VERTEX
  8
plate04
 10
0.0
 20
0.0
 30
0.0
 70
   128
 71
   1
 72
   2
 73
   3
  0
VERTEX
  8
plate04
 10
0.0
 20
0.0
 30
0.0
 70
   128
 71
   27
 72
   34
 73
   26
  0
VERTEX
  8
plate04
 10
0.0
 20
0.0
 30
0.0
 70
   128
 71
   16
 72
   17
 73
   1
  0
VERTEX
  8
plate04
 10
0.0
 20
0.0
 30
0.0
 70
   128
 71
   27
 72
   26
 73
   25
  0
VERTEX
  8
plate04
 10
0.0
 20
0.0
 30
0.0
 70
   128
 71
   25
 72
   33
 73
   32
  0
VERTEX
  8
plate04
 10
0.0
 20
0.0
 30
0.0
 70
   128
 71
   27
 72
   32
 73
   31
  0
VERTEX
  8
plate04
 10
0.0
 20
0.0
 30
0.0
 70
   128
 71
   31
 72
   36
 73
   30
  0
VERTEX
  8
plate04
 10
0.0
 20
0.0
 30
0.0
 70
   128
 71
   28
 72
   31
 73
   30
  0
VERTEX
  8
plate04
 10
0.0
 20
0.0
 30
0.0
 70
   128
 71
   29
 72
   35
 73
   28
  0
VERTEX
  8
plate04
 10
0.0
 20
0.0
 30
0.0
 70
   128
 71
   5
 72
   16
 73
   1
  0
VERTEX
  8
plate04
 10
0.0
 20
0.0
 30
0.0
 70
   128
 71
   16
 72
   5
 73
   8
  0
VERTEX
  8
plate04
 10
0.0
 20
0.0
 30
0.0
 70
   128
 71
   4
 72
   20
 73
   5
  0
VERTEX
  8
plate04
 10
0.0
 20
0.0
 30
0.0
 70
   128
 71
   8
 72
   22
 73
   9
  0
VERTEX
  8
plate04
 10
0.0
 20
0.0
 30
0.0
 70
   128
 71
   13
 72
   8
 73
   9
  0
VERTEX
  8
plate04
 10
0.0
 20
0.0
 30
0.0
 70
   128
 71
   12
 72
   24
 73
   13
  0
VERTEX
  8
plate04
 10
0.0
 20
0.0
 30
0.0
 70
   128
 71
   5
 72
   20
 73
   19
  0
VERTEX
  8
plate04
 10
0.0
 20
0.0
 30
0.0
 70
   128
 71
   9
 72
   22
 73
   21
  0
VERTEX
  8
plate04
 10
0.0
 20
0.0
 30
0.0
 70
   128
 71
   13
 72
   24
 73
   23
  0
VERTEX
  8
plate04
 10
0.0
 20
0.0
 30
0.0
 70
   128
 71
   1
 72
   17
 73
   18
  0
VERTEX
  8
plate04
 10
0.0
 20
0.0
 30
0.0
 70
   128
 71
   20
 72
   4
 73
   3
  0
VERTEX
  8
plate04
 10
0.0
 20
0.0
 30
0.0
 70
   128
 71
   22
 72
   8
 73
   7
  0
VERTEX
  8
plate04
 10
0.0
 20
0.0
 30
0.0
 70
   128
 71
   24
 72
   12
 73
   11
  0
VERTEX
  8
plate04
 10
0.0
 20
0.0
 30
0.0
 70
   128
 71
   17
 72
   16
 73
   15
  0
VERTEX
  8
plate04
 10
0.0
 20
0.0
 30
0.0
 70
   128
 71
   6
 72
   27
 73
   28
  0
VERTEX
  8
plate04
 10
0.0
 20
0.0
 30
0.0
 70
   128
 71
   7
 72
   28
 73
   35
  0
VERTEX
  8
plate04
 10
0.0
 20
0.0
 30
0.0
 70
   128
 71
   21
 72
   35
 73
   29
  0
VERTEX
  8
plate04
 10
0.0
 20
0.0
 30
0.0
 70
   128
 71
   10
 72
   29
 73
   30
  0
VERTEX
  8
plate04
 10
0.0
 20
0.0
 30
0.0
 70
   128
 71
   11
 72
   30
 73
   36
  0
VERTEX
  8
plate04
 10
0.0
 20
0.0
 30
0.0
 70
   128
 71
   23
 72
   36
 73
   31
  0
VERTEX
  8
plate04
 10
0.0
 20
0.0
 30
0.0
 70
   128
 71
   14
 72
   31
 73
   32
  0
VERTEX
  8
plate04
 10
0.0
 20
0.0
 30
0.0
 70
   128
 71
   15
 72
   32
 73
   33
  0
VERTEX
  8
plate04
 10
0.0
 20
0.0
 30
0.0
 70
   128
 71
   18
 72
   33
 73
   25
  0
VERTEX
  8
plate04
 10
0.0
 20
0.0
 30
0.0
 70
   128
 71
   2
 72
   25
 73
   26
  0
VERTEX
  8
plate04
 10
0.0
 20
0.0
 30
0.0
 70
   128
 71
   3
 72
   26
 73
   34
  0
VERTEX
  8
plate04
 10
0.0
 20
0.0
 30
0.0
 70
   128
 71
   19
 72
   34
 73
   27
  0
VERTEX
  8
plate04
 10
0.0
 20
0.0
 30
0.0
 70
   128
 71
   5
 72
   7
 73
   8
  0
VERTEX
  8
plate04
 10
0.0
 20
0.0
 30
0.0
 70
   128
 71
   9
 72
   11
 73
   12
  0
VERTEX
  8
plate04
 10
0.0
 20
0.0
 30
0.0
 70
   128
 71
   13
 72
   15
 73
   16
  0
VERTEX
  8
plate04
 10
0.0
 20
0.0
 30
0.0
 70
   128
 71
   1
 72
   3
 73
   4
  0
VERTEX
  8
plate04
 10
0.0
 20
0.0
 30
0.0
 70
   128
 71
   27
 72
   25
 73
   32
  0
VERTEX
  8
plate04
 10
0.0
 20
0.0
 30
0.0
 70
   128
 71
   27
 72
   31
 73
   28
  0
VERTEX
  8
plate04
 10
0.0
 20
0.0
 30
0.0
 70
   128
 71
   28
 72
   30
 73
   29
  0
VERTEX
  8
plate04
 10
0.0
 20
0.0
 30
0.0
 70
   128
 71
   5
 72
   1
 73
   4
  0
VERTEX
  8
plate04
 10
0.0
 20
0.0
 30
0.0
 70
   128
 71
   16
 72
   8
 73
   13
  0
VERTEX
  8
plate04
 10
0.0
 20
0.0
 30
0.0
 70
   128
 71
   13
 72
   9
 73
   12
  0
VERTEX
  8
plate04
 10
0.0
 20
0.0
 30
0.0
 70
   128
 71
   5
 72
   19
 73
   6
  0
VERTEX
  8
plate04
 10
0.0
 20
0.0
 30
0.0
 70
   128
 71
   9
 72
   21
 73
   10
  0
VERTEX
  8
plate04
 10
0.0
 20
0.0
 30
0.0
 70
   128
 71
   13
 72
   23
 73
   14
  0
VERTEX
  8
plate04
 10
0.0
 20
0.0
 30
0.0
 70
   128
 71
   1
 72
   18
 73
   2
  0
VERTEX
  8
plate04
 10
0.0
 20
0.0
 30
0.0
 70
   128
 71
   20
 72
   3
 73
   19
  0
VERTEX
  8
plate04
 10
0.0
 20
0.0
 30
0.0
 70
   128
 71
   22
 72
   7
 73
   21
  0
VERTEX
  8
plate04
 10
0.0
 20
0.0
 30
0.0
 70
   128
 71
   24
 72
   11
 73
   23
  0
VERTEX
  8
plate04
 10
0.0
 20
0.0
 30
0.0
 70
   128
 71
   17
 72
   15
 73
   18
  0
VERTEX
  8
plate04
 10
0.0
 20
0.0
 30
0.0
 70
   128
 71
   6
 72
   28
 73
   7
  0
VERTEX
  8
plate04
 10
0.0
 20
0.0
 30
0.0
 70
   128
 71
   7
 72
   35
 73
   21
  0
VERTEX
  8
plate04
 10
0.0
 20
0.0
 30
0.0
 70
   128
 71
   21
 72
   29
 73
   10
  0
VERTEX
  8
plate04
 10
0.0
 20
0.0
 30
0.0
 70
   128
 71
   10
 72
   30
 73
   11
  0
VERTEX
  8
plate04
 10
0.0
 20
0.0
 30
0.0
 70
   128
 71
   11
 72
   36
 73
   23
  0
VERTEX
  8
plate04
 10
0.0
 20
0.0
 30
0.0
 70
   128
 71
   23
 72
   31
 73
   14
  0
VERTEX
  8
plate04
 10
0.0
 20
0.0
 30
0.0
 70
   128
 71
   14
 72
   32
 73
   15
  0
VERTEX
  8
plate04
 10
0.0
 20
0.0
 30
0.0
 70
   128
 71
   15
 72
   33
 73
   18
  0
VERTEX
  8
plate04
 10
0.0
 20
0.0
 30
0.0
 70
   128
 71
   18
 72
   25
 73
   2
  0
VERTEX
  8
plate04
 10
0.0
 20
0.0
 30
0.0
 70
   128
 71
   2
 72
   26
 73
   3
  0
VERTEX
  8
plate04
 10
0.0
 20
0.0
 30
0.0
 70
   128
 71
   3
 72
   34
 73
   19
  0
VERTEX
  8
plate04
 10
0.0
 20
0.0
 30
0.0
 70
   128
 71
   19
 72
   27
 73
   6
  0
SEQEND
  0
ENDSEC
  0
EOF
