999
FBX AutoCAD (*.DXF) exporter
  0
SECTION
  2
HEADER
  9
$ACADVER
  1
AC1008
  9
$UCSORG
 10
0.0
 20
0.0
 30
0.0
  9
$UCSXDIR
 10
1.0
 20
0.0
 30
0.0
  9
$TILEMODE
 70
   1
  9
$UCSYDIR
 10
0.0
 20
1.0
 30
0.0
  0
ENDSEC
  0
SECTION
  2
TABLES
  0
TABLE
  2
LTYPE
 70
   1
  0
LTYPE
  2
CONTINUOUS
 70
   64
  3
Solid line
 72
   65
 73
   0
 40
0.0
  0
ENDTAB
  0
TABLE
  2
LAYER
 70
   1
  0
LAYER
  2
sausage
 70
   0
 62
   250
  6
CONTINUOUS
  0
ENDTAB
  0
ENDSEC
  0
SECTION
  2
BLOCKS
  0
ENDSEC
  0
SECTION
  2
ENTITIES
  0
POLYLINE
  8
sausage
 66
   1
 10
0.0
 20
0.0
 30
0.0
 70
   64
 71
   66
 72
   128
  0
VERTEX
  8
sausage
 10
-0.000000
 20
33.767571
 30
98.496884
 70
   192
  0
VERTEX
  8
sausage
 10
-0.000000
 20
36.194013
 30
-88.380896
 70
   192
  0
VERTEX
  8
sausage
 10
10.737108
 20
33.107418
 30
95.273613
 70
   192
  0
VERTEX
  8
sausage
 10
18.597217
 20
31.303847
 30
86.467471
 70
   192
  0
VERTEX
  8
sausage
 10
21.474216
 20
28.840124
 30
74.438057
 70
   192
  0
VERTEX
  8
sausage
 10
21.474216
 20
21.218759
 30
29.578137
 70
   192
  0
VERTEX
  8
sausage
 10
21.474216
 20
22.149683
 30
-18.934361
 70
   192
  0
VERTEX
  8
sausage
 10
21.474216
 20
31.325337
 30
-64.306221
 70
   192
  0
VERTEX
  8
sausage
 10
18.597217
 20
33.759675
 30
-76.343559
 70
   192
  0
VERTEX
  8
sausage
 10
10.737108
 20
35.541734
 30
-85.155501
 70
   192
  0
VERTEX
  8
sausage
 10
7.592282
 20
25.717710
 30
97.278912
 70
   192
  0
VERTEX
  8
sausage
 10
13.150218
 20
18.504498
 30
89.940751
 70
   192
  0
VERTEX
  8
sausage
 10
15.184564
 20
14.060709
 30
78.448656
 70
   192
  0
VERTEX
  8
sausage
 10
15.184564
 20
6.214831
 30
32.266107
 70
   192
  0
VERTEX
  8
sausage
 10
15.184564
 20
7.360533
 30
-22.897123
 70
   192
  0
VERTEX
  8
sausage
 10
15.184564
 20
16.536186
 30
-68.268984
 70
   192
  0
VERTEX
  8
sausage
 10
13.150218
 20
20.951895
 30
-79.775412
 70
   192
  0
VERTEX
  8
sausage
 10
7.592282
 20
28.147159
 30
-87.136883
 70
   192
  0
VERTEX
  8
sausage
 10
-0.000000
 20
22.656793
 30
98.109534
 70
   192
  0
VERTEX
  8
sausage
 10
-0.000000
 20
13.202834
 30
91.379430
 70
   192
  0
VERTEX
  8
sausage
 10
-0.000000
 20
7.938874
 30
80.109900
 70
   192
  0
VERTEX
  8
sausage
 10
-0.000000
 20
0.000000
 30
33.379500
 70
   192
  0
VERTEX
  8
sausage
 10
0.000000
 20
1.234666
 30
-24.538553
 70
   192
  0
VERTEX
  8
sausage
 10
0.000000
 20
10.410320
 30
-69.910414
 70
   192
  0
VERTEX
  8
sausage
 10
0.000000
 20
15.646739
 30
-81.196932
 70
   192
  0
VERTEX
  8
sausage
 10
0.000000
 20
25.084225
 30
-87.957598
 70
   192
  0
VERTEX
  8
sausage
 10
-7.592282
 20
25.717710
 30
97.278912
 70
   192
  0
VERTEX
  8
sausage
 10
-13.150218
 20
18.504498
 30
89.940751
 70
   192
  0
VERTEX
  8
sausage
 10
-15.184564
 20
14.060709
 30
78.448656
 70
   192
  0
VERTEX
  8
sausage
 10
-15.184564
 20
6.214831
 30
32.266107
 70
   192
  0
VERTEX
  8
sausage
 10
-15.184564
 20
7.360533
 30
-22.897123
 70
   192
  0
VERTEX
  8
sausage
 10
-15.184564
 20
16.536186
 30
-68.268984
 70
   192
  0
VERTEX
  8
sausage
 10
-13.150218
 20
20.951895
 30
-79.775412
 70
   192
  0
VERTEX
  8
sausage
 10
-7.592282
 20
28.147159
 30
-87.136883
 70
   192
  0
VERTEX
  8
sausage
 10
-10.737108
 20
33.107418
 30
95.273613
 70
   192
  0
VERTEX
  8
sausage
 10
-18.597217
 20
31.303847
 30
86.467471
 70
   192
  0
VERTEX
  8
sausage
 10
-21.474216
 20
28.840124
 30
74.438057
 70
   192
  0
VERTEX
  8
sausage
 10
-21.474216
 20
21.218759
 30
29.578137
 70
   192
  0
VERTEX
  8
sausage
 10
-21.474216
 20
22.149683
 30
-18.934361
 70
   192
  0
VERTEX
  8
sausage
 10
-21.474216
 20
31.325337
 30
-64.306221
 70
   192
  0
VERTEX
  8
sausage
 10
-18.597217
 20
33.759675
 30
-76.343559
 70
   192
  0
VERTEX
  8
sausage
 10
-10.737108
 20
35.541734
 30
-85.155501
 70
   192
  0
VERTEX
  8
sausage
 10
-7.592282
 20
40.497126
 30
93.268313
 70
   192
  0
VERTEX
  8
sausage
 10
-13.150218
 20
44.103196
 30
82.994190
 70
   192
  0
VERTEX
  8
sausage
 10
-15.184564
 20
43.619539
 30
70.427459
 70
   192
  0
VERTEX
  8
sausage
 10
-15.184564
 20
36.222687
 30
26.890167
 70
   192
  0
VERTEX
  8
sausage
 10
-15.184564
 20
36.938834
 30
-14.971598
 70
   192
  0
VERTEX
  8
sausage
 10
-15.184564
 20
46.114488
 30
-60.343458
 70
   192
  0
VERTEX
  8
sausage
 10
-13.150218
 20
46.567455
 30
-72.911705
 70
   192
  0
VERTEX
  8
sausage
 10
-7.592282
 20
42.936309
 30
-83.174120
 70
   192
  0
VERTEX
  8
sausage
 10
-0.000000
 20
43.558043
 30
92.437691
 70
   192
  0
VERTEX
  8
sausage
 10
-0.000000
 20
49.404860
 30
81.555511
 70
   192
  0
VERTEX
  8
sausage
 10
-0.000000
 20
49.741373
 30
68.766214
 70
   192
  0
VERTEX
  8
sausage
 10
-0.000000
 20
42.437518
 30
25.776773
 70
   192
  0
VERTEX
  8
sausage
 10
-0.000000
 20
43.064701
 30
-13.330168
 70
   192
  0
VERTEX
  8
sausage
 10
-0.000000
 20
52.240354
 30
-58.702028
 70
   192
  0
VERTEX
  8
sausage
 10
-0.000000
 20
51.872611
 30
-71.490185
 70
   192
  0
VERTEX
  8
sausage
 10
-0.000000
 20
45.999243
 30
-82.353405
 70
   192
  0
VERTEX
  8
sausage
 10
7.592282
 20
40.497126
 30
93.268313
 70
   192
  0
VERTEX
  8
sausage
 10
13.150218
 20
44.103196
 30
82.994190
 70
   192
  0
VERTEX
  8
sausage
 10
15.184564
 20
43.619539
 30
70.427459
 70
   192
  0
VERTEX
  8
sausage
 10
15.184564
 20
36.222687
 30
26.890167
 70
   192
  0
VERTEX
  8
sausage
 10
15.184564
 20
36.938834
 30
-14.971598
 70
   192
  0
VERTEX
  8
sausage
 10
15.184564
 20
46.114488
 30
-60.343458
 70
   192
  0
VERTEX
  8
sausage
 10
13.150218
 20
46.567455
 30
-72.911705
 70
   192
  0
VERTEX
  8
sausage
 10
7.592282
 20
42.936309
 30
-83.174120
 70
   192
  0
VERTEX
  8
sausage
 10
0.0
 20
0.0
 30
0.0
 70
   128
 71
   1
 72
   3
 73
   11
  0
VERTEX
  8
sausage
 10
0.0
 20
0.0
 30
0.0
 70
   128
 71
   3
 72
   4
 73
   12
  0
VERTEX
  8
sausage
 10
0.0
 20
0.0
 30
0.0
 70
   128
 71
   4
 72
   5
 73
   13
  0
VERTEX
  8
sausage
 10
0.0
 20
0.0
 30
0.0
 70
   128
 71
   5
 72
   6
 73
   14
  0
VERTEX
  8
sausage
 10
0.0
 20
0.0
 30
0.0
 70
   128
 71
   6
 72
   7
 73
   15
  0
VERTEX
  8
sausage
 10
0.0
 20
0.0
 30
0.0
 70
   128
 71
   7
 72
   8
 73
   16
  0
VERTEX
  8
sausage
 10
0.0
 20
0.0
 30
0.0
 70
   128
 71
   8
 72
   9
 73
   17
  0
VERTEX
  8
sausage
 10
0.0
 20
0.0
 30
0.0
 70
   128
 71
   9
 72
   10
 73
   18
  0
VERTEX
  8
sausage
 10
0.0
 20
0.0
 30
0.0
 70
   128
 71
   10
 72
   2
 73
   18
  0
VERTEX
  8
sausage
 10
0.0
 20
0.0
 30
0.0
 70
   128
 71
   1
 72
   11
 73
   19
  0
VERTEX
  8
sausage
 10
0.0
 20
0.0
 30
0.0
 70
   128
 71
   11
 72
   12
 73
   20
  0
VERTEX
  8
sausage
 10
0.0
 20
0.0
 30
0.0
 70
   128
 71
   12
 72
   13
 73
   21
  0
VERTEX
  8
sausage
 10
0.0
 20
0.0
 30
0.0
 70
   128
 71
   13
 72
   14
 73
   22
  0
VERTEX
  8
sausage
 10
0.0
 20
0.0
 30
0.0
 70
   128
 71
   14
 72
   15
 73
   23
  0
VERTEX
  8
sausage
 10
0.0
 20
0.0
 30
0.0
 70
   128
 71
   15
 72
   16
 73
   24
  0
VERTEX
  8
sausage
 10
0.0
 20
0.0
 30
0.0
 70
   128
 71
   16
 72
   17
 73
   25
  0
VERTEX
  8
sausage
 10
0.0
 20
0.0
 30
0.0
 70
   128
 71
   17
 72
   18
 73
   26
  0
VERTEX
  8
sausage
 10
0.0
 20
0.0
 30
0.0
 70
   128
 71
   18
 72
   2
 73
   26
  0
VERTEX
  8
sausage
 10
0.0
 20
0.0
 30
0.0
 70
   128
 71
   1
 72
   19
 73
   27
  0
VERTEX
  8
sausage
 10
0.0
 20
0.0
 30
0.0
 70
   128
 71
   19
 72
   20
 73
   28
  0
VERTEX
  8
sausage
 10
0.0
 20
0.0
 30
0.0
 70
   128
 71
   20
 72
   21
 73
   29
  0
VERTEX
  8
sausage
 10
0.0
 20
0.0
 30
0.0
 70
   128
 71
   21
 72
   22
 73
   30
  0
VERTEX
  8
sausage
 10
0.0
 20
0.0
 30
0.0
 70
   128
 71
   22
 72
   23
 73
   31
  0
VERTEX
  8
sausage
 10
0.0
 20
0.0
 30
0.0
 70
   128
 71
   23
 72
   24
 73
   32
  0
VERTEX
  8
sausage
 10
0.0
 20
0.0
 30
0.0
 70
   128
 71
   24
 72
   25
 73
   33
  0
VERTEX
  8
sausage
 10
0.0
 20
0.0
 30
0.0
 70
   128
 71
   25
 72
   26
 73
   34
  0
VERTEX
  8
sausage
 10
0.0
 20
0.0
 30
0.0
 70
   128
 71
   26
 72
   2
 73
   34
  0
VERTEX
  8
sausage
 10
0.0
 20
0.0
 30
0.0
 70
   128
 71
   1
 72
   27
 73
   35
  0
VERTEX
  8
sausage
 10
0.0
 20
0.0
 30
0.0
 70
   128
 71
   27
 72
   28
 73
   36
  0
VERTEX
  8
sausage
 10
0.0
 20
0.0
 30
0.0
 70
   128
 71
   28
 72
   29
 73
   37
  0
VERTEX
  8
sausage
 10
0.0
 20
0.0
 30
0.0
 70
   128
 71
   29
 72
   30
 73
   38
  0
VERTEX
  8
sausage
 10
0.0
 20
0.0
 30
0.0
 70
   128
 71
   30
 72
   31
 73
   39
  0
VERTEX
  8
sausage
 10
0.0
 20
0.0
 30
0.0
 70
   128
 71
   31
 72
   32
 73
   40
  0
VERTEX
  8
sausage
 10
0.0
 20
0.0
 30
0.0
 70
   128
 71
   32
 72
   33
 73
   41
  0
VERTEX
  8
sausage
 10
0.0
 20
0.0
 30
0.0
 70
   128
 71
   33
 72
   34
 73
   42
  0
VERTEX
  8
sausage
 10
0.0
 20
0.0
 30
0.0
 70
   128
 71
   34
 72
   2
 73
   42
  0
VERTEX
  8
sausage
 10
0.0
 20
0.0
 30
0.0
 70
   128
 71
   1
 72
   35
 73
   43
  0
VERTEX
  8
sausage
 10
0.0
 20
0.0
 30
0.0
 70
   128
 71
   35
 72
   36
 73
   44
  0
VERTEX
  8
sausage
 10
0.0
 20
0.0
 30
0.0
 70
   128
 71
   36
 72
   37
 73
   45
  0
VERTEX
  8
sausage
 10
0.0
 20
0.0
 30
0.0
 70
   128
 71
   37
 72
   38
 73
   46
  0
VERTEX
  8
sausage
 10
0.0
 20
0.0
 30
0.0
 70
   128
 71
   38
 72
   39
 73
   47
  0
VERTEX
  8
sausage
 10
0.0
 20
0.0
 30
0.0
 70
   128
 71
   39
 72
   40
 73
   48
  0
VERTEX
  8
sausage
 10
0.0
 20
0.0
 30
0.0
 70
   128
 71
   40
 72
   41
 73
   49
  0
VERTEX
  8
sausage
 10
0.0
 20
0.0
 30
0.0
 70
   128
 71
   41
 72
   42
 73
   50
  0
VERTEX
  8
sausage
 10
0.0
 20
0.0
 30
0.0
 70
   128
 71
   42
 72
   2
 73
   50
  0
VERTEX
  8
sausage
 10
0.0
 20
0.0
 30
0.0
 70
   128
 71
   1
 72
   43
 73
   51
  0
VERTEX
  8
sausage
 10
0.0
 20
0.0
 30
0.0
 70
   128
 71
   43
 72
   44
 73
   52
  0
VERTEX
  8
sausage
 10
0.0
 20
0.0
 30
0.0
 70
   128
 71
   44
 72
   45
 73
   53
  0
VERTEX
  8
sausage
 10
0.0
 20
0.0
 30
0.0
 70
   128
 71
   45
 72
   46
 73
   54
  0
VERTEX
  8
sausage
 10
0.0
 20
0.0
 30
0.0
 70
   128
 71
   46
 72
   47
 73
   55
  0
VERTEX
  8
sausage
 10
0.0
 20
0.0
 30
0.0
 70
   128
 71
   47
 72
   48
 73
   56
  0
VERTEX
  8
sausage
 10
0.0
 20
0.0
 30
0.0
 70
   128
 71
   48
 72
   49
 73
   57
  0
VERTEX
  8
sausage
 10
0.0
 20
0.0
 30
0.0
 70
   128
 71
   49
 72
   50
 73
   58
  0
VERTEX
  8
sausage
 10
0.0
 20
0.0
 30
0.0
 70
   128
 71
   50
 72
   2
 73
   58
  0
VERTEX
  8
sausage
 10
0.0
 20
0.0
 30
0.0
 70
   128
 71
   1
 72
   51
 73
   59
  0
VERTEX
  8
sausage
 10
0.0
 20
0.0
 30
0.0
 70
   128
 71
   51
 72
   52
 73
   60
  0
VERTEX
  8
sausage
 10
0.0
 20
0.0
 30
0.0
 70
   128
 71
   52
 72
   53
 73
   61
  0
VERTEX
  8
sausage
 10
0.0
 20
0.0
 30
0.0
 70
   128
 71
   53
 72
   54
 73
   62
  0
VERTEX
  8
sausage
 10
0.0
 20
0.0
 30
0.0
 70
   128
 71
   54
 72
   55
 73
   63
  0
VERTEX
  8
sausage
 10
0.0
 20
0.0
 30
0.0
 70
   128
 71
   55
 72
   56
 73
   64
  0
VERTEX
  8
sausage
 10
0.0
 20
0.0
 30
0.0
 70
   128
 71
   56
 72
   57
 73
   65
  0
VERTEX
  8
sausage
 10
0.0
 20
0.0
 30
0.0
 70
   128
 71
   57
 72
   58
 73
   66
  0
VERTEX
  8
sausage
 10
0.0
 20
0.0
 30
0.0
 70
   128
 71
   58
 72
   2
 73
   66
  0
VERTEX
  8
sausage
 10
0.0
 20
0.0
 30
0.0
 70
   128
 71
   1
 72
   59
 73
   3
  0
VERTEX
  8
sausage
 10
0.0
 20
0.0
 30
0.0
 70
   128
 71
   59
 72
   60
 73
   4
  0
VERTEX
  8
sausage
 10
0.0
 20
0.0
 30
0.0
 70
   128
 71
   60
 72
   61
 73
   5
  0
VERTEX
  8
sausage
 10
0.0
 20
0.0
 30
0.0
 70
   128
 71
   61
 72
   62
 73
   6
  0
VERTEX
  8
sausage
 10
0.0
 20
0.0
 30
0.0
 70
   128
 71
   62
 72
   63
 73
   7
  0
VERTEX
  8
sausage
 10
0.0
 20
0.0
 30
0.0
 70
   128
 71
   63
 72
   64
 73
   8
  0
VERTEX
  8
sausage
 10
0.0
 20
0.0
 30
0.0
 70
   128
 71
   64
 72
   65
 73
   9
  0
VERTEX
  8
sausage
 10
0.0
 20
0.0
 30
0.0
 70
   128
 71
   65
 72
   66
 73
   10
  0
VERTEX
  8
sausage
 10
0.0
 20
0.0
 30
0.0
 70
   128
 71
   66
 72
   2
 73
   10
  0
VERTEX
  8
sausage
 10
0.0
 20
0.0
 30
0.0
 70
   128
 71
   3
 72
   12
 73
   11
  0
VERTEX
  8
sausage
 10
0.0
 20
0.0
 30
0.0
 70
   128
 71
   4
 72
   13
 73
   12
  0
VERTEX
  8
sausage
 10
0.0
 20
0.0
 30
0.0
 70
   128
 71
   5
 72
   14
 73
   13
  0
VERTEX
  8
sausage
 10
0.0
 20
0.0
 30
0.0
 70
   128
 71
   6
 72
   15
 73
   14
  0
VERTEX
  8
sausage
 10
0.0
 20
0.0
 30
0.0
 70
   128
 71
   7
 72
   16
 73
   15
  0
VERTEX
  8
sausage
 10
0.0
 20
0.0
 30
0.0
 70
   128
 71
   8
 72
   17
 73
   16
  0
VERTEX
  8
sausage
 10
0.0
 20
0.0
 30
0.0
 70
   128
 71
   9
 72
   18
 73
   17
  0
VERTEX
  8
sausage
 10
0.0
 20
0.0
 30
0.0
 70
   128
 71
   11
 72
   20
 73
   19
  0
VERTEX
  8
sausage
 10
0.0
 20
0.0
 30
0.0
 70
   128
 71
   12
 72
   21
 73
   20
  0
VERTEX
  8
sausage
 10
0.0
 20
0.0
 30
0.0
 70
   128
 71
   13
 72
   22
 73
   21
  0
VERTEX
  8
sausage
 10
0.0
 20
0.0
 30
0.0
 70
   128
 71
   14
 72
   23
 73
   22
  0
VERTEX
  8
sausage
 10
0.0
 20
0.0
 30
0.0
 70
   128
 71
   15
 72
   24
 73
   23
  0
VERTEX
  8
sausage
 10
0.0
 20
0.0
 30
0.0
 70
   128
 71
   16
 72
   25
 73
   24
  0
VERTEX
  8
sausage
 10
0.0
 20
0.0
 30
0.0
 70
   128
 71
   17
 72
   26
 73
   25
  0
VERTEX
  8
sausage
 10
0.0
 20
0.0
 30
0.0
 70
   128
 71
   19
 72
   28
 73
   27
  0
VERTEX
  8
sausage
 10
0.0
 20
0.0
 30
0.0
 70
   128
 71
   20
 72
   29
 73
   28
  0
VERTEX
  8
sausage
 10
0.0
 20
0.0
 30
0.0
 70
   128
 71
   21
 72
   30
 73
   29
  0
VERTEX
  8
sausage
 10
0.0
 20
0.0
 30
0.0
 70
   128
 71
   22
 72
   31
 73
   30
  0
VERTEX
  8
sausage
 10
0.0
 20
0.0
 30
0.0
 70
   128
 71
   23
 72
   32
 73
   31
  0
VERTEX
  8
sausage
 10
0.0
 20
0.0
 30
0.0
 70
   128
 71
   24
 72
   33
 73
   32
  0
VERTEX
  8
sausage
 10
0.0
 20
0.0
 30
0.0
 70
   128
 71
   25
 72
   34
 73
   33
  0
VERTEX
  8
sausage
 10
0.0
 20
0.0
 30
0.0
 70
   128
 71
   27
 72
   36
 73
   35
  0
VERTEX
  8
sausage
 10
0.0
 20
0.0
 30
0.0
 70
   128
 71
   28
 72
   37
 73
   36
  0
VERTEX
  8
sausage
 10
0.0
 20
0.0
 30
0.0
 70
   128
 71
   29
 72
   38
 73
   37
  0
VERTEX
  8
sausage
 10
0.0
 20
0.0
 30
0.0
 70
   128
 71
   30
 72
   39
 73
   38
  0
VERTEX
  8
sausage
 10
0.0
 20
0.0
 30
0.0
 70
   128
 71
   31
 72
   40
 73
   39
  0
VERTEX
  8
sausage
 10
0.0
 20
0.0
 30
0.0
 70
   128
 71
   32
 72
   41
 73
   40
  0
VERTEX
  8
sausage
 10
0.0
 20
0.0
 30
0.0
 70
   128
 71
   33
 72
   42
 73
   41
  0
VERTEX
  8
sausage
 10
0.0
 20
0.0
 30
0.0
 70
   128
 71
   35
 72
   44
 73
   43
  0
VERTEX
  8
sausage
 10
0.0
 20
0.0
 30
0.0
 70
   128
 71
   36
 72
   45
 73
   44
  0
VERTEX
  8
sausage
 10
0.0
 20
0.0
 30
0.0
 70
   128
 71
   37
 72
   46
 73
   45
  0
VERTEX
  8
sausage
 10
0.0
 20
0.0
 30
0.0
 70
   128
 71
   38
 72
   47
 73
   46
  0
VERTEX
  8
sausage
 10
0.0
 20
0.0
 30
0.0
 70
   128
 71
   39
 72
   48
 73
   47
  0
VERTEX
  8
sausage
 10
0.0
 20
0.0
 30
0.0
 70
   128
 71
   40
 72
   49
 73
   48
  0
VERTEX
  8
sausage
 10
0.0
 20
0.0
 30
0.0
 70
   128
 71
   41
 72
   50
 73
   49
  0
VERTEX
  8
sausage
 10
0.0
 20
0.0
 30
0.0
 70
   128
 71
   43
 72
   52
 73
   51
  0
VERTEX
  8
sausage
 10
0.0
 20
0.0
 30
0.0
 70
   128
 71
   44
 72
   53
 73
   52
  0
VERTEX
  8
sausage
 10
0.0
 20
0.0
 30
0.0
 70
   128
 71
   45
 72
   54
 73
   53
  0
VERTEX
  8
sausage
 10
0.0
 20
0.0
 30
0.0
 70
   128
 71
   46
 72
   55
 73
   54
  0
VERTEX
  8
sausage
 10
0.0
 20
0.0
 30
0.0
 70
   128
 71
   47
 72
   56
 73
   55
  0
VERTEX
  8
sausage
 10
0.0
 20
0.0
 30
0.0
 70
   128
 71
   48
 72
   57
 73
   56
  0
VERTEX
  8
sausage
 10
0.0
 20
0.0
 30
0.0
 70
   128
 71
   49
 72
   58
 73
   57
  0
VERTEX
  8
sausage
 10
0.0
 20
0.0
 30
0.0
 70
   128
 71
   51
 72
   60
 73
   59
  0
VERTEX
  8
sausage
 10
0.0
 20
0.0
 30
0.0
 70
   128
 71
   52
 72
   61
 73
   60
  0
VERTEX
  8
sausage
 10
0.0
 20
0.0
 30
0.0
 70
   128
 71
   53
 72
   62
 73
   61
  0
VERTEX
  8
sausage
 10
0.0
 20
0.0
 30
0.0
 70
   128
 71
   54
 72
   63
 73
   62
  0
VERTEX
  8
sausage
 10
0.0
 20
0.0
 30
0.0
 70
   128
 71
   55
 72
   64
 73
   63
  0
VERTEX
  8
sausage
 10
0.0
 20
0.0
 30
0.0
 70
   128
 71
   56
 72
   65
 73
   64
  0
VERTEX
  8
sausage
 10
0.0
 20
0.0
 30
0.0
 70
   128
 71
   57
 72
   66
 73
   65
  0
VERTEX
  8
sausage
 10
0.0
 20
0.0
 30
0.0
 70
   128
 71
   59
 72
   4
 73
   3
  0
VERTEX
  8
sausage
 10
0.0
 20
0.0
 30
0.0
 70
   128
 71
   60
 72
   5
 73
   4
  0
VERTEX
  8
sausage
 10
0.0
 20
0.0
 30
0.0
 70
   128
 71
   61
 72
   6
 73
   5
  0
VERTEX
  8
sausage
 10
0.0
 20
0.0
 30
0.0
 70
   128
 71
   62
 72
   7
 73
   6
  0
VERTEX
  8
sausage
 10
0.0
 20
0.0
 30
0.0
 70
   128
 71
   63
 72
   8
 73
   7
  0
VERTEX
  8
sausage
 10
0.0
 20
0.0
 30
0.0
 70
   128
 71
   64
 72
   9
 73
   8
  0
VERTEX
  8
sausage
 10
0.0
 20
0.0
 30
0.0
 70
   128
 71
   65
 72
   10
 73
   9
  0
SEQEND
  0
ENDSEC
  0
EOF
