999
FBX AutoCAD (*.DXF) exporter
  0
SECTION
  2
HEADER
  9
$ACADVER
  1
AC1008
  9
$UCSORG
 10
0.0
 20
0.0
 30
0.0
  9
$UCSXDIR
 10
1.0
 20
0.0
 30
0.0
  9
$TILEMODE
 70
   1
  9
$UCSYDIR
 10
0.0
 20
1.0
 30
0.0
  0
ENDSEC
  0
SECTION
  2
TABLES
  0
TABLE
  2
LTYPE
 70
   1
  0
LTYPE
  2
CONTINUOUS
 70
   64
  3
Solid line
 72
   65
 73
   0
 40
0.0
  0
ENDTAB
  0
TABLE
  2
LAYER
 70
   1
  0
LAYER
  2
corndog
 70
   0
 62
   250
  6
CONTINUOUS
  0
ENDTAB
  0
ENDSEC
  0
SECTION
  2
BLOCKS
  0
ENDSEC
  0
SECTION
  2
ENTITIES
  0
POLYLINE
  8
corndog
 66
   1
 10
0.0
 20
0.0
 30
0.0
 70
   64
 71
   73
 72
   142
  0
VERTEX
  8
corndog
 10
-2.200465
 20
0.000000
 30
1.863333
 70
   192
  0
VERTEX
  8
corndog
 10
-0.000000
 20
189.169752
 30
-0.575890
 70
   192
  0
VERTEX
  8
corndog
 10
10.781599
 20
48.112156
 30
-0.225210
 70
   192
  0
VERTEX
  8
corndog
 10
18.674277
 20
57.118800
 30
0.368413
 70
   192
  0
VERTEX
  8
corndog
 10
21.563198
 20
69.422103
 30
1.179316
 70
   192
  0
VERTEX
  8
corndog
 10
-0.000000
 20
163.885891
 30
21.974050
 70
   192
  0
VERTEX
  8
corndog
 10
15.247483
 20
164.071457
 30
15.608509
 70
   192
  0
VERTEX
  8
corndog
 10
21.563198
 20
164.519455
 30
0.240734
 70
   192
  0
VERTEX
  8
corndog
 10
18.674277
 20
176.844603
 30
-0.167578
 70
   192
  0
VERTEX
  8
corndog
 10
10.781599
 20
185.867238
 30
-0.466483
 70
   192
  0
VERTEX
  8
corndog
 10
7.623742
 20
48.134040
 30
-7.913864
 70
   192
  0
VERTEX
  8
corndog
 10
13.204708
 20
57.156704
 30
-12.948727
 70
   192
  0
VERTEX
  8
corndog
 10
15.247483
 20
69.465871
 30
-14.197993
 70
   192
  0
VERTEX
  8
corndog
 10
-0.000000
 20
48.081208
 30
10.648190
 70
   192
  0
VERTEX
  8
corndog
 10
-0.000000
 20
57.065195
 30
19.201693
 70
   192
  0
VERTEX
  8
corndog
 10
15.247483
 20
164.967452
 30
-15.127041
 70
   192
  0
VERTEX
  8
corndog
 10
13.204708
 20
177.232581
 30
-13.476462
 70
   192
  0
VERTEX
  8
corndog
 10
7.623742
 20
186.091237
 30
-8.150370
 70
   192
  0
VERTEX
  8
corndog
 10
-0.000000
 20
48.143105
 30
-11.098609
 70
   192
  0
VERTEX
  8
corndog
 10
-0.000000
 20
57.172404
 30
-18.464867
 70
   192
  0
VERTEX
  8
corndog
 10
-0.000000
 20
69.484001
 30
-20.567482
 70
   192
  0
VERTEX
  8
corndog
 10
-0.000000
 20
69.360206
 30
22.926115
 70
   192
  0
VERTEX
  8
corndog
 10
-0.000000
 20
176.295921
 30
18.654026
 70
   192
  0
VERTEX
  8
corndog
 10
0.000000
 20
165.153019
 30
-21.492582
 70
   192
  0
VERTEX
  8
corndog
 10
0.000000
 20
177.393286
 30
-18.989182
 70
   192
  0
VERTEX
  8
corndog
 10
0.000000
 20
186.184020
 30
-11.333141
 70
   192
  0
VERTEX
  8
corndog
 10
-7.623742
 20
48.134040
 30
-7.913864
 70
   192
  0
VERTEX
  8
corndog
 10
-13.204708
 20
57.156704
 30
-12.948727
 70
   192
  0
VERTEX
  8
corndog
 10
-15.247483
 20
69.465871
 30
-14.197993
 70
   192
  0
VERTEX
  8
corndog
 10
-0.000000
 20
185.550456
 30
10.400175
 70
   192
  0
VERTEX
  8
corndog
 10
7.623742
 20
48.090272
 30
7.463445
 70
   192
  0
VERTEX
  8
corndog
 10
-15.247483
 20
164.967452
 30
-15.127041
 70
   192
  0
VERTEX
  8
corndog
 10
-13.204708
 20
177.232581
 30
-13.476462
 70
   192
  0
VERTEX
  8
corndog
 10
-7.623742
 20
186.091237
 30
-8.150370
 70
   192
  0
VERTEX
  8
corndog
 10
-10.781599
 20
48.112156
 30
-0.225210
 70
   192
  0
VERTEX
  8
corndog
 10
-18.674277
 20
57.118800
 30
0.368413
 70
   192
  0
VERTEX
  8
corndog
 10
-21.563198
 20
69.422103
 30
1.179316
 70
   192
  0
VERTEX
  8
corndog
 10
13.204708
 20
57.080895
 30
13.685553
 70
   192
  0
VERTEX
  8
corndog
 10
15.247483
 20
69.378335
 30
16.556625
 70
   192
  0
VERTEX
  8
corndog
 10
-21.563198
 20
164.519455
 30
0.240734
 70
   192
  0
VERTEX
  8
corndog
 10
-18.674277
 20
176.844603
 30
-0.167578
 70
   192
  0
VERTEX
  8
corndog
 10
-10.781599
 20
185.867238
 30
-0.466483
 70
   192
  0
VERTEX
  8
corndog
 10
-7.623742
 20
48.090272
 30
7.463445
 70
   192
  0
VERTEX
  8
corndog
 10
-13.204708
 20
57.080895
 30
13.685553
 70
   192
  0
VERTEX
  8
corndog
 10
-15.247483
 20
69.378335
 30
16.556625
 70
   192
  0
VERTEX
  8
corndog
 10
13.204708
 20
176.456626
 30
13.141306
 70
   192
  0
VERTEX
  8
corndog
 10
7.623742
 20
185.643240
 30
7.217405
 70
   192
  0
VERTEX
  8
corndog
 10
-15.247483
 20
164.071457
 30
15.608509
 70
   192
  0
VERTEX
  8
corndog
 10
-13.204708
 20
176.456626
 30
13.141306
 70
   192
  0
VERTEX
  8
corndog
 10
-7.623742
 20
185.643240
 30
7.217405
 70
   192
  0
VERTEX
  8
corndog
 10
4.298243
 20
45.478796
 30
-0.355868
 70
   192
  0
VERTEX
  8
corndog
 10
3.039317
 20
45.478796
 30
-3.421064
 70
   192
  0
VERTEX
  8
corndog
 10
-0.000000
 20
45.478796
 30
3.978972
 70
   192
  0
VERTEX
  8
corndog
 10
-0.000000
 20
45.478796
 30
-4.690709
 70
   192
  0
VERTEX
  8
corndog
 10
-3.039317
 20
45.478796
 30
-3.421064
 70
   192
  0
VERTEX
  8
corndog
 10
3.039317
 20
45.478796
 30
2.709327
 70
   192
  0
VERTEX
  8
corndog
 10
-4.298243
 20
45.478796
 30
-0.355868
 70
   192
  0
VERTEX
  8
corndog
 10
-3.039317
 20
45.478796
 30
2.709327
 70
   192
  0
VERTEX
  8
corndog
 10
4.298243
 20
3.312964
 30
-0.355868
 70
   192
  0
VERTEX
  8
corndog
 10
3.039317
 20
3.312964
 30
-3.421064
 70
   192
  0
VERTEX
  8
corndog
 10
-0.000000
 20
3.312964
 30
3.978972
 70
   192
  0
VERTEX
  8
corndog
 10
-0.000000
 20
3.312964
 30
-4.690709
 70
   192
  0
VERTEX
  8
corndog
 10
-3.039317
 20
3.312964
 30
-3.421064
 70
   192
  0
VERTEX
  8
corndog
 10
3.039317
 20
3.312964
 30
2.709327
 70
   192
  0
VERTEX
  8
corndog
 10
-4.298243
 20
3.312964
 30
-0.355868
 70
   192
  0
VERTEX
  8
corndog
 10
-3.039317
 20
3.312964
 30
2.709327
 70
   192
  0
VERTEX
  8
corndog
 10
3.111928
 20
0.000000
 30
-0.355868
 70
   192
  0
VERTEX
  8
corndog
 10
2.200465
 20
0.000000
 30
-2.575070
 70
   192
  0
VERTEX
  8
corndog
 10
-0.000000
 20
0.000000
 30
2.782556
 70
   192
  0
VERTEX
  8
corndog
 10
-0.000000
 20
0.000000
 30
-3.494293
 70
   192
  0
VERTEX
  8
corndog
 10
-2.200465
 20
0.000000
 30
-2.575070
 70
   192
  0
VERTEX
  8
corndog
 10
2.200465
 20
0.000000
 30
1.863333
 70
   192
  0
VERTEX
  8
corndog
 10
-3.111928
 20
0.000000
 30
-0.355868
 70
   192
  0
VERTEX
  8
corndog
 10
0.0
 20
0.0
 30
0.0
 70
   128
 71
   1
 72
   69
 73
   72
  0
VERTEX
  8
corndog
 10
0.0
 20
0.0
 30
0.0
 70
   128
 71
   3
 72
   4
 73
   12
  0
VERTEX
  8
corndog
 10
0.0
 20
0.0
 30
0.0
 70
   128
 71
   4
 72
   5
 73
   13
  0
VERTEX
  8
corndog
 10
0.0
 20
0.0
 30
0.0
 70
   128
 71
   5
 72
   8
 73
   16
  0
VERTEX
  8
corndog
 10
0.0
 20
0.0
 30
0.0
 70
   128
 71
   22
 72
   6
 73
   7
  0
VERTEX
  8
corndog
 10
0.0
 20
0.0
 30
0.0
 70
   128
 71
   6
 72
   23
 73
   46
  0
VERTEX
  8
corndog
 10
0.0
 20
0.0
 30
0.0
 70
   128
 71
   8
 72
   9
 73
   17
  0
VERTEX
  8
corndog
 10
0.0
 20
0.0
 30
0.0
 70
   128
 71
   9
 72
   10
 73
   18
  0
VERTEX
  8
corndog
 10
0.0
 20
0.0
 30
0.0
 70
   128
 71
   10
 72
   2
 73
   18
  0
VERTEX
  8
corndog
 10
0.0
 20
0.0
 30
0.0
 70
   128
 71
   71
 72
   67
 73
   68
  0
VERTEX
  8
corndog
 10
0.0
 20
0.0
 30
0.0
 70
   128
 71
   11
 72
   12
 73
   20
  0
VERTEX
  8
corndog
 10
0.0
 20
0.0
 30
0.0
 70
   128
 71
   12
 72
   13
 73
   21
  0
VERTEX
  8
corndog
 10
0.0
 20
0.0
 30
0.0
 70
   128
 71
   13
 72
   16
 73
   24
  0
VERTEX
  8
corndog
 10
0.0
 20
0.0
 30
0.0
 70
   128
 71
   39
 72
   7
 73
   8
  0
VERTEX
  8
corndog
 10
0.0
 20
0.0
 30
0.0
 70
   128
 71
   7
 72
   46
 73
   9
  0
VERTEX
  8
corndog
 10
0.0
 20
0.0
 30
0.0
 70
   128
 71
   16
 72
   17
 73
   25
  0
VERTEX
  8
corndog
 10
0.0
 20
0.0
 30
0.0
 70
   128
 71
   17
 72
   18
 73
   26
  0
VERTEX
  8
corndog
 10
0.0
 20
0.0
 30
0.0
 70
   128
 71
   18
 72
   2
 73
   26
  0
VERTEX
  8
corndog
 10
0.0
 20
0.0
 30
0.0
 70
   128
 71
   67
 72
   71
 73
   73
  0
VERTEX
  8
corndog
 10
0.0
 20
0.0
 30
0.0
 70
   128
 71
   19
 72
   20
 73
   28
  0
VERTEX
  8
corndog
 10
0.0
 20
0.0
 30
0.0
 70
   128
 71
   20
 72
   21
 73
   29
  0
VERTEX
  8
corndog
 10
0.0
 20
0.0
 30
0.0
 70
   128
 71
   21
 72
   24
 73
   32
  0
VERTEX
  8
corndog
 10
0.0
 20
0.0
 30
0.0
 70
   128
 71
   15
 72
   22
 73
   39
  0
VERTEX
  8
corndog
 10
0.0
 20
0.0
 30
0.0
 70
   128
 71
   23
 72
   30
 73
   47
  0
VERTEX
  8
corndog
 10
0.0
 20
0.0
 30
0.0
 70
   128
 71
   24
 72
   25
 73
   33
  0
VERTEX
  8
corndog
 10
0.0
 20
0.0
 30
0.0
 70
   128
 71
   25
 72
   26
 73
   34
  0
VERTEX
  8
corndog
 10
0.0
 20
0.0
 30
0.0
 70
   128
 71
   26
 72
   2
 73
   34
  0
VERTEX
  8
corndog
 10
0.0
 20
0.0
 30
0.0
 70
   128
 71
   65
 72
   73
 73
   71
  0
VERTEX
  8
corndog
 10
0.0
 20
0.0
 30
0.0
 70
   128
 71
   27
 72
   28
 73
   36
  0
VERTEX
  8
corndog
 10
0.0
 20
0.0
 30
0.0
 70
   128
 71
   28
 72
   29
 73
   37
  0
VERTEX
  8
corndog
 10
0.0
 20
0.0
 30
0.0
 70
   128
 71
   29
 72
   32
 73
   40
  0
VERTEX
  8
corndog
 10
0.0
 20
0.0
 30
0.0
 70
   128
 71
   30
 72
   2
 73
   47
  0
VERTEX
  8
corndog
 10
0.0
 20
0.0
 30
0.0
 70
   128
 71
   59
 72
   67
 73
   72
  0
VERTEX
  8
corndog
 10
0.0
 20
0.0
 30
0.0
 70
   128
 71
   32
 72
   33
 73
   41
  0
VERTEX
  8
corndog
 10
0.0
 20
0.0
 30
0.0
 70
   128
 71
   33
 72
   34
 73
   42
  0
VERTEX
  8
corndog
 10
0.0
 20
0.0
 30
0.0
 70
   128
 71
   34
 72
   2
 73
   42
  0
VERTEX
  8
corndog
 10
0.0
 20
0.0
 30
0.0
 70
   128
 71
   66
 72
   1
 73
   73
  0
VERTEX
  8
corndog
 10
0.0
 20
0.0
 30
0.0
 70
   128
 71
   35
 72
   36
 73
   44
  0
VERTEX
  8
corndog
 10
0.0
 20
0.0
 30
0.0
 70
   128
 71
   36
 72
   37
 73
   45
  0
VERTEX
  8
corndog
 10
0.0
 20
0.0
 30
0.0
 70
   128
 71
   37
 72
   40
 73
   48
  0
VERTEX
  8
corndog
 10
0.0
 20
0.0
 30
0.0
 70
   128
 71
   31
 72
   38
 73
   4
  0
VERTEX
  8
corndog
 10
0.0
 20
0.0
 30
0.0
 70
   128
 71
   38
 72
   39
 73
   5
  0
VERTEX
  8
corndog
 10
0.0
 20
0.0
 30
0.0
 70
   128
 71
   40
 72
   41
 73
   49
  0
VERTEX
  8
corndog
 10
0.0
 20
0.0
 30
0.0
 70
   128
 71
   41
 72
   42
 73
   50
  0
VERTEX
  8
corndog
 10
0.0
 20
0.0
 30
0.0
 70
   128
 71
   42
 72
   2
 73
   50
  0
VERTEX
  8
corndog
 10
0.0
 20
0.0
 30
0.0
 70
   128
 71
   61
 72
   69
 73
   1
  0
VERTEX
  8
corndog
 10
0.0
 20
0.0
 30
0.0
 70
   128
 71
   43
 72
   44
 73
   15
  0
VERTEX
  8
corndog
 10
0.0
 20
0.0
 30
0.0
 70
   128
 71
   44
 72
   45
 73
   22
  0
VERTEX
  8
corndog
 10
0.0
 20
0.0
 30
0.0
 70
   128
 71
   45
 72
   48
 73
   6
  0
VERTEX
  8
corndog
 10
0.0
 20
0.0
 30
0.0
 70
   128
 71
   46
 72
   47
 73
   10
  0
VERTEX
  8
corndog
 10
0.0
 20
0.0
 30
0.0
 70
   128
 71
   47
 72
   2
 73
   10
  0
VERTEX
  8
corndog
 10
0.0
 20
0.0
 30
0.0
 70
   128
 71
   48
 72
   49
 73
   23
  0
VERTEX
  8
corndog
 10
0.0
 20
0.0
 30
0.0
 70
   128
 71
   49
 72
   50
 73
   30
  0
VERTEX
  8
corndog
 10
0.0
 20
0.0
 30
0.0
 70
   128
 71
   50
 72
   2
 73
   30
  0
VERTEX
  8
corndog
 10
0.0
 20
0.0
 30
0.0
 70
   128
 71
   64
 72
   72
 73
   69
  0
VERTEX
  8
corndog
 10
0.0
 20
0.0
 30
0.0
 70
   128
 71
   14
 72
   15
 73
   38
  0
VERTEX
  8
corndog
 10
0.0
 20
0.0
 30
0.0
 70
   128
 71
   51
 72
   3
 73
   11
  0
VERTEX
  8
corndog
 10
0.0
 20
0.0
 30
0.0
 70
   128
 71
   52
 72
   11
 73
   19
  0
VERTEX
  8
corndog
 10
0.0
 20
0.0
 30
0.0
 70
   128
 71
   54
 72
   19
 73
   27
  0
VERTEX
  8
corndog
 10
0.0
 20
0.0
 30
0.0
 70
   128
 71
   55
 72
   27
 73
   35
  0
VERTEX
  8
corndog
 10
0.0
 20
0.0
 30
0.0
 70
   128
 71
   56
 72
   31
 73
   3
  0
VERTEX
  8
corndog
 10
0.0
 20
0.0
 30
0.0
 70
   128
 71
   57
 72
   35
 73
   43
  0
VERTEX
  8
corndog
 10
0.0
 20
0.0
 30
0.0
 70
   128
 71
   58
 72
   43
 73
   14
  0
VERTEX
  8
corndog
 10
0.0
 20
0.0
 30
0.0
 70
   128
 71
   53
 72
   14
 73
   31
  0
VERTEX
  8
corndog
 10
0.0
 20
0.0
 30
0.0
 70
   128
 71
   52
 72
   60
 73
   59
  0
VERTEX
  8
corndog
 10
0.0
 20
0.0
 30
0.0
 70
   128
 71
   54
 72
   62
 73
   60
  0
VERTEX
  8
corndog
 10
0.0
 20
0.0
 30
0.0
 70
   128
 71
   55
 72
   63
 73
   62
  0
VERTEX
  8
corndog
 10
0.0
 20
0.0
 30
0.0
 70
   128
 71
   57
 72
   65
 73
   63
  0
VERTEX
  8
corndog
 10
0.0
 20
0.0
 30
0.0
 70
   128
 71
   51
 72
   59
 73
   64
  0
VERTEX
  8
corndog
 10
0.0
 20
0.0
 30
0.0
 70
   128
 71
   58
 72
   66
 73
   65
  0
VERTEX
  8
corndog
 10
0.0
 20
0.0
 30
0.0
 70
   128
 71
   53
 72
   61
 73
   66
  0
VERTEX
  8
corndog
 10
0.0
 20
0.0
 30
0.0
 70
   128
 71
   56
 72
   64
 73
   61
  0
VERTEX
  8
corndog
 10
0.0
 20
0.0
 30
0.0
 70
   128
 71
   60
 72
   68
 73
   67
  0
VERTEX
  8
corndog
 10
0.0
 20
0.0
 30
0.0
 70
   128
 71
   62
 72
   70
 73
   68
  0
VERTEX
  8
corndog
 10
0.0
 20
0.0
 30
0.0
 70
   128
 71
   63
 72
   71
 73
   70
  0
VERTEX
  8
corndog
 10
0.0
 20
0.0
 30
0.0
 70
   128
 71
   1
 72
   72
 73
   67
  0
VERTEX
  8
corndog
 10
0.0
 20
0.0
 30
0.0
 70
   128
 71
   3
 72
   12
 73
   11
  0
VERTEX
  8
corndog
 10
0.0
 20
0.0
 30
0.0
 70
   128
 71
   4
 72
   13
 73
   12
  0
VERTEX
  8
corndog
 10
0.0
 20
0.0
 30
0.0
 70
   128
 71
   5
 72
   16
 73
   13
  0
VERTEX
  8
corndog
 10
0.0
 20
0.0
 30
0.0
 70
   128
 71
   22
 72
   7
 73
   39
  0
VERTEX
  8
corndog
 10
0.0
 20
0.0
 30
0.0
 70
   128
 71
   6
 72
   46
 73
   7
  0
VERTEX
  8
corndog
 10
0.0
 20
0.0
 30
0.0
 70
   128
 71
   8
 72
   17
 73
   16
  0
VERTEX
  8
corndog
 10
0.0
 20
0.0
 30
0.0
 70
   128
 71
   9
 72
   18
 73
   17
  0
VERTEX
  8
corndog
 10
0.0
 20
0.0
 30
0.0
 70
   128
 71
   71
 72
   68
 73
   70
  0
VERTEX
  8
corndog
 10
0.0
 20
0.0
 30
0.0
 70
   128
 71
   11
 72
   20
 73
   19
  0
VERTEX
  8
corndog
 10
0.0
 20
0.0
 30
0.0
 70
   128
 71
   12
 72
   21
 73
   20
  0
VERTEX
  8
corndog
 10
0.0
 20
0.0
 30
0.0
 70
   128
 71
   13
 72
   24
 73
   21
  0
VERTEX
  8
corndog
 10
0.0
 20
0.0
 30
0.0
 70
   128
 71
   39
 72
   8
 73
   5
  0
VERTEX
  8
corndog
 10
0.0
 20
0.0
 30
0.0
 70
   128
 71
   7
 72
   9
 73
   8
  0
VERTEX
  8
corndog
 10
0.0
 20
0.0
 30
0.0
 70
   128
 71
   16
 72
   25
 73
   24
  0
VERTEX
  8
corndog
 10
0.0
 20
0.0
 30
0.0
 70
   128
 71
   17
 72
   26
 73
   25
  0
VERTEX
  8
corndog
 10
0.0
 20
0.0
 30
0.0
 70
   128
 71
   67
 72
   73
 73
   1
  0
VERTEX
  8
corndog
 10
0.0
 20
0.0
 30
0.0
 70
   128
 71
   19
 72
   28
 73
   27
  0
VERTEX
  8
corndog
 10
0.0
 20
0.0
 30
0.0
 70
   128
 71
   20
 72
   29
 73
   28
  0
VERTEX
  8
corndog
 10
0.0
 20
0.0
 30
0.0
 70
   128
 71
   21
 72
   32
 73
   29
  0
VERTEX
  8
corndog
 10
0.0
 20
0.0
 30
0.0
 70
   128
 71
   15
 72
   39
 73
   38
  0
VERTEX
  8
corndog
 10
0.0
 20
0.0
 30
0.0
 70
   128
 71
   23
 72
   47
 73
   46
  0
VERTEX
  8
corndog
 10
0.0
 20
0.0
 30
0.0
 70
   128
 71
   24
 72
   33
 73
   32
  0
VERTEX
  8
corndog
 10
0.0
 20
0.0
 30
0.0
 70
   128
 71
   25
 72
   34
 73
   33
  0
VERTEX
  8
corndog
 10
0.0
 20
0.0
 30
0.0
 70
   128
 71
   65
 72
   71
 73
   63
  0
VERTEX
  8
corndog
 10
0.0
 20
0.0
 30
0.0
 70
   128
 71
   27
 72
   36
 73
   35
  0
VERTEX
  8
corndog
 10
0.0
 20
0.0
 30
0.0
 70
   128
 71
   28
 72
   37
 73
   36
  0
VERTEX
  8
corndog
 10
0.0
 20
0.0
 30
0.0
 70
   128
 71
   29
 72
   40
 73
   37
  0
VERTEX
  8
corndog
 10
0.0
 20
0.0
 30
0.0
 70
   128
 71
   59
 72
   72
 73
   64
  0
VERTEX
  8
corndog
 10
0.0
 20
0.0
 30
0.0
 70
   128
 71
   32
 72
   41
 73
   40
  0
VERTEX
  8
corndog
 10
0.0
 20
0.0
 30
0.0
 70
   128
 71
   33
 72
   42
 73
   41
  0
VERTEX
  8
corndog
 10
0.0
 20
0.0
 30
0.0
 70
   128
 71
   66
 72
   73
 73
   65
  0
VERTEX
  8
corndog
 10
0.0
 20
0.0
 30
0.0
 70
   128
 71
   35
 72
   44
 73
   43
  0
VERTEX
  8
corndog
 10
0.0
 20
0.0
 30
0.0
 70
   128
 71
   36
 72
   45
 73
   44
  0
VERTEX
  8
corndog
 10
0.0
 20
0.0
 30
0.0
 70
   128
 71
   37
 72
   48
 73
   45
  0
VERTEX
  8
corndog
 10
0.0
 20
0.0
 30
0.0
 70
   128
 71
   31
 72
   4
 73
   3
  0
VERTEX
  8
corndog
 10
0.0
 20
0.0
 30
0.0
 70
   128
 71
   38
 72
   5
 73
   4
  0
VERTEX
  8
corndog
 10
0.0
 20
0.0
 30
0.0
 70
   128
 71
   40
 72
   49
 73
   48
  0
VERTEX
  8
corndog
 10
0.0
 20
0.0
 30
0.0
 70
   128
 71
   41
 72
   50
 73
   49
  0
VERTEX
  8
corndog
 10
0.0
 20
0.0
 30
0.0
 70
   128
 71
   61
 72
   1
 73
   66
  0
VERTEX
  8
corndog
 10
0.0
 20
0.0
 30
0.0
 70
   128
 71
   43
 72
   15
 73
   14
  0
VERTEX
  8
corndog
 10
0.0
 20
0.0
 30
0.0
 70
   128
 71
   44
 72
   22
 73
   15
  0
VERTEX
  8
corndog
 10
0.0
 20
0.0
 30
0.0
 70
   128
 71
   45
 72
   6
 73
   22
  0
VERTEX
  8
corndog
 10
0.0
 20
0.0
 30
0.0
 70
   128
 71
   46
 72
   10
 73
   9
  0
VERTEX
  8
corndog
 10
0.0
 20
0.0
 30
0.0
 70
   128
 71
   48
 72
   23
 73
   6
  0
VERTEX
  8
corndog
 10
0.0
 20
0.0
 30
0.0
 70
   128
 71
   49
 72
   30
 73
   23
  0
VERTEX
  8
corndog
 10
0.0
 20
0.0
 30
0.0
 70
   128
 71
   64
 72
   69
 73
   61
  0
VERTEX
  8
corndog
 10
0.0
 20
0.0
 30
0.0
 70
   128
 71
   14
 72
   38
 73
   31
  0
VERTEX
  8
corndog
 10
0.0
 20
0.0
 30
0.0
 70
   128
 71
   51
 72
   11
 73
   52
  0
VERTEX
  8
corndog
 10
0.0
 20
0.0
 30
0.0
 70
   128
 71
   52
 72
   19
 73
   54
  0
VERTEX
  8
corndog
 10
0.0
 20
0.0
 30
0.0
 70
   128
 71
   54
 72
   27
 73
   55
  0
VERTEX
  8
corndog
 10
0.0
 20
0.0
 30
0.0
 70
   128
 71
   55
 72
   35
 73
   57
  0
VERTEX
  8
corndog
 10
0.0
 20
0.0
 30
0.0
 70
   128
 71
   56
 72
   3
 73
   51
  0
VERTEX
  8
corndog
 10
0.0
 20
0.0
 30
0.0
 70
   128
 71
   57
 72
   43
 73
   58
  0
VERTEX
  8
corndog
 10
0.0
 20
0.0
 30
0.0
 70
   128
 71
   58
 72
   14
 73
   53
  0
VERTEX
  8
corndog
 10
0.0
 20
0.0
 30
0.0
 70
   128
 71
   53
 72
   31
 73
   56
  0
VERTEX
  8
corndog
 10
0.0
 20
0.0
 30
0.0
 70
   128
 71
   52
 72
   59
 73
   51
  0
VERTEX
  8
corndog
 10
0.0
 20
0.0
 30
0.0
 70
   128
 71
   54
 72
   60
 73
   52
  0
VERTEX
  8
corndog
 10
0.0
 20
0.0
 30
0.0
 70
   128
 71
   55
 72
   62
 73
   54
  0
VERTEX
  8
corndog
 10
0.0
 20
0.0
 30
0.0
 70
   128
 71
   57
 72
   63
 73
   55
  0
VERTEX
  8
corndog
 10
0.0
 20
0.0
 30
0.0
 70
   128
 71
   51
 72
   64
 73
   56
  0
VERTEX
  8
corndog
 10
0.0
 20
0.0
 30
0.0
 70
   128
 71
   58
 72
   65
 73
   57
  0
VERTEX
  8
corndog
 10
0.0
 20
0.0
 30
0.0
 70
   128
 71
   53
 72
   66
 73
   58
  0
VERTEX
  8
corndog
 10
0.0
 20
0.0
 30
0.0
 70
   128
 71
   56
 72
   61
 73
   53
  0
VERTEX
  8
corndog
 10
0.0
 20
0.0
 30
0.0
 70
   128
 71
   60
 72
   67
 73
   59
  0
VERTEX
  8
corndog
 10
0.0
 20
0.0
 30
0.0
 70
   128
 71
   62
 72
   68
 73
   60
  0
VERTEX
  8
corndog
 10
0.0
 20
0.0
 30
0.0
 70
   128
 71
   63
 72
   70
 73
   62
  0
SEQEND
  0
ENDSEC
  0
EOF
