999
FBX AutoCAD (*.DXF) exporter
  0
SECTION
  2
HEADER
  9
$ACADVER
  1
AC1008
  9
$UCSORG
 10
0.0
 20
0.0
 30
0.0
  9
$UCSXDIR
 10
1.0
 20
0.0
 30
0.0
  9
$TILEMODE
 70
   1
  9
$UCSYDIR
 10
0.0
 20
1.0
 30
0.0
  0
ENDSEC
  0
SECTION
  2
TABLES
  0
TABLE
  2
LTYPE
 70
   1
  0
LTYPE
  2
CONTINUOUS
 70
   64
  3
Solid line
 72
   65
 73
   0
 40
0.0
  0
ENDTAB
  0
TABLE
  2
LAYER
 70
   1
  0
LAYER
  2
asianKorokke
 70
   0
 62
   250
  6
CONTINUOUS
  0
ENDTAB
  0
ENDSEC
  0
SECTION
  2
BLOCKS
  0
ENDSEC
  0
SECTION
  2
ENTITIES
  0
POLYLINE
  8
asianKorokke
 66
   1
 10
0.0
 20
0.0
 30
0.0
 70
   64
 71
   40
 72
   76
  0
VERTEX
  8
asianKorokke
 10
18.163563
 20
79.705322
 30
55.901699
 70
   192
  0
VERTEX
  8
asianKorokke
 10
47.552826
 20
79.705322
 30
34.549150
 70
   192
  0
VERTEX
  8
asianKorokke
 10
58.778525
 20
0.000000
 30
0.000000
 70
   192
  0
VERTEX
  8
asianKorokke
 10
47.552826
 20
0.000000
 30
-34.549150
 70
   192
  0
VERTEX
  8
asianKorokke
 10
18.163563
 20
0.000000
 30
-55.901699
 70
   192
  0
VERTEX
  8
asianKorokke
 10
-18.163563
 20
0.000000
 30
-55.901699
 70
   192
  0
VERTEX
  8
asianKorokke
 10
-47.552826
 20
0.000000
 30
-34.549150
 70
   192
  0
VERTEX
  8
asianKorokke
 10
-58.778525
 20
0.000000
 30
-0.000000
 70
   192
  0
VERTEX
  8
asianKorokke
 10
-47.552826
 20
0.000000
 30
34.549150
 70
   192
  0
VERTEX
  8
asianKorokke
 10
-18.163563
 20
0.000000
 30
55.901699
 70
   192
  0
VERTEX
  8
asianKorokke
 10
18.163563
 20
0.000000
 30
55.901699
 70
   192
  0
VERTEX
  8
asianKorokke
 10
47.552826
 20
0.000000
 30
34.549150
 70
   192
  0
VERTEX
  8
asianKorokke
 10
95.105652
 20
24.630299
 30
0.000000
 70
   192
  0
VERTEX
  8
asianKorokke
 10
76.942088
 20
24.630299
 30
-55.901699
 70
   192
  0
VERTEX
  8
asianKorokke
 10
29.389263
 20
24.630299
 30
-90.450850
 70
   192
  0
VERTEX
  8
asianKorokke
 10
-29.389263
 20
24.630299
 30
-90.450850
 70
   192
  0
VERTEX
  8
asianKorokke
 10
-76.942088
 20
24.630299
 30
-55.901699
 70
   192
  0
VERTEX
  8
asianKorokke
 10
-95.105652
 20
24.630299
 30
-0.000000
 70
   192
  0
VERTEX
  8
asianKorokke
 10
-76.942088
 20
24.630299
 30
55.901699
 70
   192
  0
VERTEX
  8
asianKorokke
 10
-29.389263
 20
24.630299
 30
90.450850
 70
   192
  0
VERTEX
  8
asianKorokke
 10
29.389263
 20
24.630299
 30
90.450850
 70
   192
  0
VERTEX
  8
asianKorokke
 10
76.942088
 20
24.630299
 30
55.901699
 70
   192
  0
VERTEX
  8
asianKorokke
 10
95.105652
 20
55.075023
 30
0.000000
 70
   192
  0
VERTEX
  8
asianKorokke
 10
76.942088
 20
55.075023
 30
-55.901699
 70
   192
  0
VERTEX
  8
asianKorokke
 10
29.389263
 20
55.075023
 30
-90.450850
 70
   192
  0
VERTEX
  8
asianKorokke
 10
-29.389263
 20
55.075023
 30
-90.450850
 70
   192
  0
VERTEX
  8
asianKorokke
 10
-76.942088
 20
55.075023
 30
-55.901699
 70
   192
  0
VERTEX
  8
asianKorokke
 10
-95.105652
 20
55.075023
 30
-0.000000
 70
   192
  0
VERTEX
  8
asianKorokke
 10
-76.942088
 20
55.075023
 30
55.901699
 70
   192
  0
VERTEX
  8
asianKorokke
 10
-29.389263
 20
55.075023
 30
90.450850
 70
   192
  0
VERTEX
  8
asianKorokke
 10
29.389263
 20
55.075023
 30
90.450850
 70
   192
  0
VERTEX
  8
asianKorokke
 10
76.942088
 20
55.075023
 30
55.901699
 70
   192
  0
VERTEX
  8
asianKorokke
 10
58.778525
 20
79.705322
 30
0.000000
 70
   192
  0
VERTEX
  8
asianKorokke
 10
47.552826
 20
79.705322
 30
-34.549150
 70
   192
  0
VERTEX
  8
asianKorokke
 10
18.163563
 20
79.705322
 30
-55.901699
 70
   192
  0
VERTEX
  8
asianKorokke
 10
-18.163563
 20
79.705322
 30
-55.901699
 70
   192
  0
VERTEX
  8
asianKorokke
 10
-47.552826
 20
79.705322
 30
-34.549150
 70
   192
  0
VERTEX
  8
asianKorokke
 10
-58.778525
 20
79.705322
 30
-0.000000
 70
   192
  0
VERTEX
  8
asianKorokke
 10
-47.552826
 20
79.705322
 30
34.549150
 70
   192
  0
VERTEX
  8
asianKorokke
 10
-18.163563
 20
79.705322
 30
55.901699
 70
   192
  0
VERTEX
  8
asianKorokke
 10
0.0
 20
0.0
 30
0.0
 70
   128
 71
   3
 72
   13
 73
   14
  0
VERTEX
  8
asianKorokke
 10
0.0
 20
0.0
 30
0.0
 70
   128
 71
   4
 72
   14
 73
   15
  0
VERTEX
  8
asianKorokke
 10
0.0
 20
0.0
 30
0.0
 70
   128
 71
   5
 72
   15
 73
   16
  0
VERTEX
  8
asianKorokke
 10
0.0
 20
0.0
 30
0.0
 70
   128
 71
   6
 72
   16
 73
   17
  0
VERTEX
  8
asianKorokke
 10
0.0
 20
0.0
 30
0.0
 70
   128
 71
   7
 72
   17
 73
   18
  0
VERTEX
  8
asianKorokke
 10
0.0
 20
0.0
 30
0.0
 70
   128
 71
   8
 72
   18
 73
   19
  0
VERTEX
  8
asianKorokke
 10
0.0
 20
0.0
 30
0.0
 70
   128
 71
   9
 72
   19
 73
   20
  0
VERTEX
  8
asianKorokke
 10
0.0
 20
0.0
 30
0.0
 70
   128
 71
   10
 72
   20
 73
   21
  0
VERTEX
  8
asianKorokke
 10
0.0
 20
0.0
 30
0.0
 70
   128
 71
   11
 72
   21
 73
   22
  0
VERTEX
  8
asianKorokke
 10
0.0
 20
0.0
 30
0.0
 70
   128
 71
   12
 72
   22
 73
   13
  0
VERTEX
  8
asianKorokke
 10
0.0
 20
0.0
 30
0.0
 70
   128
 71
   13
 72
   23
 73
   24
  0
VERTEX
  8
asianKorokke
 10
0.0
 20
0.0
 30
0.0
 70
   128
 71
   14
 72
   24
 73
   25
  0
VERTEX
  8
asianKorokke
 10
0.0
 20
0.0
 30
0.0
 70
   128
 71
   15
 72
   25
 73
   26
  0
VERTEX
  8
asianKorokke
 10
0.0
 20
0.0
 30
0.0
 70
   128
 71
   16
 72
   26
 73
   27
  0
VERTEX
  8
asianKorokke
 10
0.0
 20
0.0
 30
0.0
 70
   128
 71
   17
 72
   27
 73
   28
  0
VERTEX
  8
asianKorokke
 10
0.0
 20
0.0
 30
0.0
 70
   128
 71
   18
 72
   28
 73
   29
  0
VERTEX
  8
asianKorokke
 10
0.0
 20
0.0
 30
0.0
 70
   128
 71
   19
 72
   29
 73
   30
  0
VERTEX
  8
asianKorokke
 10
0.0
 20
0.0
 30
0.0
 70
   128
 71
   20
 72
   30
 73
   31
  0
VERTEX
  8
asianKorokke
 10
0.0
 20
0.0
 30
0.0
 70
   128
 71
   21
 72
   31
 73
   32
  0
VERTEX
  8
asianKorokke
 10
0.0
 20
0.0
 30
0.0
 70
   128
 71
   22
 72
   32
 73
   23
  0
VERTEX
  8
asianKorokke
 10
0.0
 20
0.0
 30
0.0
 70
   128
 71
   23
 72
   33
 73
   34
  0
VERTEX
  8
asianKorokke
 10
0.0
 20
0.0
 30
0.0
 70
   128
 71
   24
 72
   34
 73
   35
  0
VERTEX
  8
asianKorokke
 10
0.0
 20
0.0
 30
0.0
 70
   128
 71
   25
 72
   35
 73
   36
  0
VERTEX
  8
asianKorokke
 10
0.0
 20
0.0
 30
0.0
 70
   128
 71
   26
 72
   36
 73
   37
  0
VERTEX
  8
asianKorokke
 10
0.0
 20
0.0
 30
0.0
 70
   128
 71
   27
 72
   37
 73
   38
  0
VERTEX
  8
asianKorokke
 10
0.0
 20
0.0
 30
0.0
 70
   128
 71
   28
 72
   38
 73
   39
  0
VERTEX
  8
asianKorokke
 10
0.0
 20
0.0
 30
0.0
 70
   128
 71
   29
 72
   39
 73
   40
  0
VERTEX
  8
asianKorokke
 10
0.0
 20
0.0
 30
0.0
 70
   128
 71
   30
 72
   40
 73
   1
  0
VERTEX
  8
asianKorokke
 10
0.0
 20
0.0
 30
0.0
 70
   128
 71
   31
 72
   1
 73
   2
  0
VERTEX
  8
asianKorokke
 10
0.0
 20
0.0
 30
0.0
 70
   128
 71
   32
 72
   2
 73
   33
  0
VERTEX
  8
asianKorokke
 10
0.0
 20
0.0
 30
0.0
 70
   128
 71
   12
 72
   3
 73
   10
  0
VERTEX
  8
asianKorokke
 10
0.0
 20
0.0
 30
0.0
 70
   128
 71
   34
 72
   36
 73
   35
  0
VERTEX
  8
asianKorokke
 10
0.0
 20
0.0
 30
0.0
 70
   128
 71
   3
 72
   4
 73
   5
  0
VERTEX
  8
asianKorokke
 10
0.0
 20
0.0
 30
0.0
 70
   128
 71
   3
 72
   5
 73
   8
  0
VERTEX
  8
asianKorokke
 10
0.0
 20
0.0
 30
0.0
 70
   128
 71
   5
 72
   6
 73
   7
  0
VERTEX
  8
asianKorokke
 10
0.0
 20
0.0
 30
0.0
 70
   128
 71
   8
 72
   9
 73
   10
  0
VERTEX
  8
asianKorokke
 10
0.0
 20
0.0
 30
0.0
 70
   128
 71
   1
 72
   34
 73
   33
  0
VERTEX
  8
asianKorokke
 10
0.0
 20
0.0
 30
0.0
 70
   128
 71
   36
 72
   34
 73
   1
  0
VERTEX
  8
asianKorokke
 10
0.0
 20
0.0
 30
0.0
 70
   128
 71
   38
 72
   1
 73
   40
  0
VERTEX
  8
asianKorokke
 10
0.0
 20
0.0
 30
0.0
 70
   128
 71
   38
 72
   37
 73
   36
  0
VERTEX
  8
asianKorokke
 10
0.0
 20
0.0
 30
0.0
 70
   128
 71
   3
 72
   14
 73
   4
  0
VERTEX
  8
asianKorokke
 10
0.0
 20
0.0
 30
0.0
 70
   128
 71
   4
 72
   15
 73
   5
  0
VERTEX
  8
asianKorokke
 10
0.0
 20
0.0
 30
0.0
 70
   128
 71
   5
 72
   16
 73
   6
  0
VERTEX
  8
asianKorokke
 10
0.0
 20
0.0
 30
0.0
 70
   128
 71
   6
 72
   17
 73
   7
  0
VERTEX
  8
asianKorokke
 10
0.0
 20
0.0
 30
0.0
 70
   128
 71
   7
 72
   18
 73
   8
  0
VERTEX
  8
asianKorokke
 10
0.0
 20
0.0
 30
0.0
 70
   128
 71
   8
 72
   19
 73
   9
  0
VERTEX
  8
asianKorokke
 10
0.0
 20
0.0
 30
0.0
 70
   128
 71
   9
 72
   20
 73
   10
  0
VERTEX
  8
asianKorokke
 10
0.0
 20
0.0
 30
0.0
 70
   128
 71
   10
 72
   21
 73
   11
  0
VERTEX
  8
asianKorokke
 10
0.0
 20
0.0
 30
0.0
 70
   128
 71
   11
 72
   22
 73
   12
  0
VERTEX
  8
asianKorokke
 10
0.0
 20
0.0
 30
0.0
 70
   128
 71
   12
 72
   13
 73
   3
  0
VERTEX
  8
asianKorokke
 10
0.0
 20
0.0
 30
0.0
 70
   128
 71
   13
 72
   24
 73
   14
  0
VERTEX
  8
asianKorokke
 10
0.0
 20
0.0
 30
0.0
 70
   128
 71
   14
 72
   25
 73
   15
  0
VERTEX
  8
asianKorokke
 10
0.0
 20
0.0
 30
0.0
 70
   128
 71
   15
 72
   26
 73
   16
  0
VERTEX
  8
asianKorokke
 10
0.0
 20
0.0
 30
0.0
 70
   128
 71
   16
 72
   27
 73
   17
  0
VERTEX
  8
asianKorokke
 10
0.0
 20
0.0
 30
0.0
 70
   128
 71
   17
 72
   28
 73
   18
  0
VERTEX
  8
asianKorokke
 10
0.0
 20
0.0
 30
0.0
 70
   128
 71
   18
 72
   29
 73
   19
  0
VERTEX
  8
asianKorokke
 10
0.0
 20
0.0
 30
0.0
 70
   128
 71
   19
 72
   30
 73
   20
  0
VERTEX
  8
asianKorokke
 10
0.0
 20
0.0
 30
0.0
 70
   128
 71
   20
 72
   31
 73
   21
  0
VERTEX
  8
asianKorokke
 10
0.0
 20
0.0
 30
0.0
 70
   128
 71
   21
 72
   32
 73
   22
  0
VERTEX
  8
asianKorokke
 10
0.0
 20
0.0
 30
0.0
 70
   128
 71
   22
 72
   23
 73
   13
  0
VERTEX
  8
asianKorokke
 10
0.0
 20
0.0
 30
0.0
 70
   128
 71
   23
 72
   34
 73
   24
  0
VERTEX
  8
asianKorokke
 10
0.0
 20
0.0
 30
0.0
 70
   128
 71
   24
 72
   35
 73
   25
  0
VERTEX
  8
asianKorokke
 10
0.0
 20
0.0
 30
0.0
 70
   128
 71
   25
 72
   36
 73
   26
  0
VERTEX
  8
asianKorokke
 10
0.0
 20
0.0
 30
0.0
 70
   128
 71
   26
 72
   37
 73
   27
  0
VERTEX
  8
asianKorokke
 10
0.0
 20
0.0
 30
0.0
 70
   128
 71
   27
 72
   38
 73
   28
  0
VERTEX
  8
asianKorokke
 10
0.0
 20
0.0
 30
0.0
 70
   128
 71
   28
 72
   39
 73
   29
  0
VERTEX
  8
asianKorokke
 10
0.0
 20
0.0
 30
0.0
 70
   128
 71
   29
 72
   40
 73
   30
  0
VERTEX
  8
asianKorokke
 10
0.0
 20
0.0
 30
0.0
 70
   128
 71
   30
 72
   1
 73
   31
  0
VERTEX
  8
asianKorokke
 10
0.0
 20
0.0
 30
0.0
 70
   128
 71
   31
 72
   2
 73
   32
  0
VERTEX
  8
asianKorokke
 10
0.0
 20
0.0
 30
0.0
 70
   128
 71
   32
 72
   33
 73
   23
  0
VERTEX
  8
asianKorokke
 10
0.0
 20
0.0
 30
0.0
 70
   128
 71
   12
 72
   10
 73
   11
  0
VERTEX
  8
asianKorokke
 10
0.0
 20
0.0
 30
0.0
 70
   128
 71
   3
 72
   8
 73
   10
  0
VERTEX
  8
asianKorokke
 10
0.0
 20
0.0
 30
0.0
 70
   128
 71
   5
 72
   7
 73
   8
  0
VERTEX
  8
asianKorokke
 10
0.0
 20
0.0
 30
0.0
 70
   128
 71
   1
 72
   33
 73
   2
  0
VERTEX
  8
asianKorokke
 10
0.0
 20
0.0
 30
0.0
 70
   128
 71
   36
 72
   1
 73
   38
  0
VERTEX
  8
asianKorokke
 10
0.0
 20
0.0
 30
0.0
 70
   128
 71
   38
 72
   40
 73
   39
  0
SEQEND
  0
ENDSEC
  0
EOF
