999
FBX AutoCAD (*.DXF) exporter
  0
SECTION
  2
HEADER
  9
$ACADVER
  1
AC1008
  9
$UCSORG
 10
0.0
 20
0.0
 30
0.0
  9
$UCSXDIR
 10
1.0
 20
0.0
 30
0.0
  9
$TILEMODE
 70
   1
  9
$UCSYDIR
 10
0.0
 20
1.0
 30
0.0
  0
ENDSEC
  0
SECTION
  2
TABLES
  0
TABLE
  2
LTYPE
 70
   1
  0
LTYPE
  2
CONTINUOUS
 70
   64
  3
Solid line
 72
   65
 73
   0
 40
0.0
  0
ENDTAB
  0
TABLE
  2
LAYER
 70
   1
  0
LAYER
  2
eggPlant
 70
   0
 62
   250
  6
CONTINUOUS
  0
ENDTAB
  0
ENDSEC
  0
SECTION
  2
BLOCKS
  0
ENDSEC
  0
SECTION
  2
ENTITIES
  0
POLYLINE
  8
eggPlant
 66
   1
 10
0.0
 20
0.0
 30
0.0
 70
   64
 71
   115
 72
   222
  0
VERTEX
  8
eggPlant
 10
6.998482
 20
190.954478
 30
-8.340466
 70
   192
  0
VERTEX
  8
eggPlant
 10
0.000000
 20
190.954478
 30
-10.887705
 70
   192
  0
VERTEX
  8
eggPlant
 10
0.000000
 20
182.830719
 30
-21.804287
 70
   192
  0
VERTEX
  8
eggPlant
 10
0.000000
 20
154.171841
 30
-29.262699
 70
   192
  0
VERTEX
  8
eggPlant
 10
0.000000
 20
124.224549
 30
-37.692210
 70
   192
  0
VERTEX
  8
eggPlant
 10
0.000000
 20
90.758910
 30
-49.303493
 70
   192
  0
VERTEX
  8
eggPlant
 10
0.000000
 20
54.066190
 30
-55.110618
 70
   192
  0
VERTEX
  8
eggPlant
 10
0.000000
 20
21.943099
 30
-49.007177
 70
   192
  0
VERTEX
  8
eggPlant
 10
0.000000
 20
4.217127
 30
-27.038609
 70
   192
  0
VERTEX
  8
eggPlant
 10
0.000000
 20
0.000000
 30
0.000000
 70
   192
  0
VERTEX
  8
eggPlant
 10
28.818133
 20
154.171841
 30
-5.081414
 70
   192
  0
VERTEX
  8
eggPlant
 10
-6.998482
 20
190.954478
 30
-8.340466
 70
   192
  0
VERTEX
  8
eggPlant
 10
-14.015525
 20
182.830719
 30
-16.703053
 70
   192
  0
VERTEX
  8
eggPlant
 10
-18.809700
 20
154.171841
 30
-22.416528
 70
   192
  0
VERTEX
  8
eggPlant
 10
-24.228085
 20
124.224549
 30
-28.873908
 70
   192
  0
VERTEX
  8
eggPlant
 10
-31.691674
 20
90.758910
 30
-37.768667
 70
   192
  0
VERTEX
  8
eggPlant
 10
-35.424422
 20
54.066190
 30
-42.217182
 70
   192
  0
VERTEX
  8
eggPlant
 10
-31.501206
 20
21.943099
 30
-37.541675
 70
   192
  0
VERTEX
  8
eggPlant
 10
-17.380083
 20
4.217127
 30
-20.712776
 70
   192
  0
VERTEX
  8
eggPlant
 10
14.015525
 20
182.830719
 30
-16.703053
 70
   192
  0
VERTEX
  8
eggPlant
 10
37.119580
 20
124.224549
 30
-6.545184
 70
   192
  0
VERTEX
  8
eggPlant
 10
-10.722296
 20
190.954478
 30
-1.890630
 70
   192
  0
VERTEX
  8
eggPlant
 10
-21.473031
 20
182.830719
 30
-3.786275
 70
   192
  0
VERTEX
  8
eggPlant
 10
-28.818133
 20
154.171841
 30
-5.081414
 70
   192
  0
VERTEX
  8
eggPlant
 10
-37.119580
 20
124.224549
 30
-6.545184
 70
   192
  0
VERTEX
  8
eggPlant
 10
-48.554462
 20
90.758910
 30
-8.561462
 70
   192
  0
VERTEX
  8
eggPlant
 10
-54.273364
 20
54.066190
 30
-9.569858
 70
   192
  0
VERTEX
  8
eggPlant
 10
-48.262648
 20
21.943099
 30
-8.510007
 70
   192
  0
VERTEX
  8
eggPlant
 10
-26.627832
 20
4.217127
 30
-4.695205
 70
   192
  0
VERTEX
  8
eggPlant
 10
18.809700
 20
154.171841
 30
-22.416528
 70
   192
  0
VERTEX
  8
eggPlant
 10
48.554462
 20
90.758910
 30
-8.561462
 70
   192
  0
VERTEX
  8
eggPlant
 10
-9.429029
 20
190.954478
 30
5.443852
 70
   192
  0
VERTEX
  8
eggPlant
 10
-18.883066
 20
182.830719
 30
10.902143
 70
   192
  0
VERTEX
  8
eggPlant
 10
-25.342240
 20
154.171841
 30
14.631349
 70
   192
  0
VERTEX
  8
eggPlant
 10
-32.642411
 20
124.224549
 30
18.846105
 70
   192
  0
VERTEX
  8
eggPlant
 10
-42.698077
 20
90.758910
 30
24.651746
 70
   192
  0
VERTEX
  8
eggPlant
 10
-47.727195
 20
54.066190
 30
27.555309
 70
   192
  0
VERTEX
  8
eggPlant
 10
-42.441460
 20
21.943099
 30
24.503588
 70
   192
  0
VERTEX
  8
eggPlant
 10
-23.416122
 20
4.217127
 30
13.519304
 70
   192
  0
VERTEX
  8
eggPlant
 10
24.228085
 20
124.224549
 30
-28.873908
 70
   192
  0
VERTEX
  8
eggPlant
 10
54.273364
 20
54.066190
 30
-9.569858
 70
   192
  0
VERTEX
  8
eggPlant
 10
-3.723814
 20
190.954478
 30
10.231096
 70
   192
  0
VERTEX
  8
eggPlant
 10
-7.457505
 20
182.830719
 30
20.489327
 70
   192
  0
VERTEX
  8
eggPlant
 10
-10.008432
 20
154.171841
 30
27.497942
 70
   192
  0
VERTEX
  8
eggPlant
 10
-12.891495
 20
124.224549
 30
35.419091
 70
   192
  0
VERTEX
  8
eggPlant
 10
-16.862788
 20
90.758910
 30
46.330129
 70
   192
  0
VERTEX
  8
eggPlant
 10
-18.848941
 20
54.066190
 30
51.787041
 70
   192
  0
VERTEX
  8
eggPlant
 10
-16.761442
 20
21.943099
 30
46.051682
 70
   192
  0
VERTEX
  8
eggPlant
 10
-9.247749
 20
4.217127
 30
25.407981
 70
   192
  0
VERTEX
  8
eggPlant
 10
31.691674
 20
90.758910
 30
-37.768667
 70
   192
  0
VERTEX
  8
eggPlant
 10
48.262648
 20
21.943099
 30
-8.510007
 70
   192
  0
VERTEX
  8
eggPlant
 10
3.723814
 20
190.954478
 30
10.231096
 70
   192
  0
VERTEX
  8
eggPlant
 10
7.457505
 20
182.830719
 30
20.489327
 70
   192
  0
VERTEX
  8
eggPlant
 10
10.008432
 20
154.171841
 30
27.497942
 70
   192
  0
VERTEX
  8
eggPlant
 10
12.891495
 20
124.224549
 30
35.419091
 70
   192
  0
VERTEX
  8
eggPlant
 10
16.862788
 20
90.758910
 30
46.330129
 70
   192
  0
VERTEX
  8
eggPlant
 10
18.848941
 20
54.066190
 30
51.787041
 70
   192
  0
VERTEX
  8
eggPlant
 10
16.761442
 20
21.943099
 30
46.051682
 70
   192
  0
VERTEX
  8
eggPlant
 10
9.247749
 20
4.217127
 30
25.407981
 70
   192
  0
VERTEX
  8
eggPlant
 10
35.424422
 20
54.066190
 30
-42.217182
 70
   192
  0
VERTEX
  8
eggPlant
 10
26.627832
 20
4.217127
 30
-4.695205
 70
   192
  0
VERTEX
  8
eggPlant
 10
9.429029
 20
190.954478
 30
5.443852
 70
   192
  0
VERTEX
  8
eggPlant
 10
18.883066
 20
182.830719
 30
10.902143
 70
   192
  0
VERTEX
  8
eggPlant
 10
25.342240
 20
154.171841
 30
14.631349
 70
   192
  0
VERTEX
  8
eggPlant
 10
32.642411
 20
124.224549
 30
18.846105
 70
   192
  0
VERTEX
  8
eggPlant
 10
42.698077
 20
90.758910
 30
24.651746
 70
   192
  0
VERTEX
  8
eggPlant
 10
47.727195
 20
54.066190
 30
27.555309
 70
   192
  0
VERTEX
  8
eggPlant
 10
42.441460
 20
21.943099
 30
24.503588
 70
   192
  0
VERTEX
  8
eggPlant
 10
23.416122
 20
4.217127
 30
13.519304
 70
   192
  0
VERTEX
  8
eggPlant
 10
31.501206
 20
21.943099
 30
-37.541675
 70
   192
  0
VERTEX
  8
eggPlant
 10
17.380083
 20
4.217127
 30
-20.712776
 70
   192
  0
VERTEX
  8
eggPlant
 10
10.722296
 20
190.954478
 30
-1.890630
 70
   192
  0
VERTEX
  8
eggPlant
 10
21.473031
 20
182.830719
 30
-3.786275
 70
   192
  0
VERTEX
  8
eggPlant
 10
0.490532
 20
197.724404
 30
-8.066802
 70
   192
  0
VERTEX
  8
eggPlant
 10
0.537929
 20
195.113839
 30
-13.940665
 70
   192
  0
VERTEX
  8
eggPlant
 10
10.442192
 20
182.395776
 30
-21.748865
 70
   192
  0
VERTEX
  8
eggPlant
 10
-4.524478
 20
197.724404
 30
-6.241487
 70
   192
  0
VERTEX
  8
eggPlant
 10
-8.257808
 20
195.140550
 30
-10.713502
 70
   192
  0
VERTEX
  8
eggPlant
 10
-10.904244
 20
191.346990
 30
-13.844596
 70
   192
  0
VERTEX
  8
eggPlant
 10
9.224104
 20
195.125900
 30
-10.751937
 70
   192
  0
VERTEX
  8
eggPlant
 10
4.955386
 20
193.120900
 30
12.002254
 70
   192
  0
VERTEX
  8
eggPlant
 10
-12.998881
 20
195.103520
 30
-2.586293
 70
   192
  0
VERTEX
  8
eggPlant
 10
-25.255631
 20
178.547015
 30
-4.804574
 70
   192
  0
VERTEX
  8
eggPlant
 10
-6.266173
 20
197.724404
 30
3.636155
 70
   192
  0
VERTEX
  8
eggPlant
 10
-11.386868
 20
195.104198
 30
6.592590
 70
   192
  0
VERTEX
  8
eggPlant
 10
-12.288474
 20
191.226295
 30
7.113132
 70
   192
  0
VERTEX
  8
eggPlant
 10
-2.177899
 20
197.724404
 30
7.066624
 70
   192
  0
VERTEX
  8
eggPlant
 10
-4.200219
 20
195.104198
 30
12.622904
 70
   192
  0
VERTEX
  8
eggPlant
 10
-8.451016
 20
178.547015
 30
24.301873
 70
   192
  0
VERTEX
  8
eggPlant
 10
3.158964
 20
197.724404
 30
7.066624
 70
   192
  0
VERTEX
  8
eggPlant
 10
5.181284
 20
195.104198
 30
12.622904
 70
   192
  0
VERTEX
  8
eggPlant
 10
6.620717
 20
187.699415
 30
16.577712
 70
   192
  0
VERTEX
  8
eggPlant
 10
7.247238
 20
197.724404
 30
3.636155
 70
   192
  0
VERTEX
  8
eggPlant
 10
12.301307
 20
195.101948
 30
6.628317
 70
   192
  0
VERTEX
  8
eggPlant
 10
20.524189
 20
181.899009
 30
11.301607
 70
   192
  0
VERTEX
  8
eggPlant
 10
8.173974
 20
197.724404
 30
-1.619628
 70
   192
  0
VERTEX
  8
eggPlant
 10
13.873215
 20
195.159682
 30
-2.625501
 70
   192
  0
VERTEX
  8
eggPlant
 10
17.070358
 20
192.455996
 30
-3.066779
 70
   192
  0
VERTEX
  8
eggPlant
 10
5.505543
 20
197.724404
 30
-6.241487
 70
   192
  0
VERTEX
  8
eggPlant
 10
11.795938
 20
193.120900
 30
6.262349
 70
   192
  0
VERTEX
  8
eggPlant
 10
0.490532
 20
193.120900
 30
-13.319189
 70
   192
  0
VERTEX
  8
eggPlant
 10
10.689279
 20
184.240193
 30
-22.473142
 70
   192
  0
VERTEX
  8
eggPlant
 10
13.346565
 20
193.120900
 30
-2.531696
 70
   192
  0
VERTEX
  8
eggPlant
 10
-7.900647
 20
193.120900
 30
-10.265049
 70
   192
  0
VERTEX
  8
eggPlant
 10
-11.369859
 20
193.333349
 30
-14.447952
 70
   192
  0
VERTEX
  8
eggPlant
 10
8.881712
 20
193.120900
 30
-10.265049
 70
   192
  0
VERTEX
  8
eggPlant
 10
6.923861
 20
189.481491
 30
17.410594
 70
   192
  0
VERTEX
  8
eggPlant
 10
-12.365501
 20
193.120900
 30
-2.531696
 70
   192
  0
VERTEX
  8
eggPlant
 10
-26.093358
 20
180.345651
 30
-4.839664
 70
   192
  0
VERTEX
  8
eggPlant
 10
21.163384
 20
183.712798
 30
11.817569
 70
   192
  0
VERTEX
  8
eggPlant
 10
-10.814873
 20
193.120900
 30
6.262349
 70
   192
  0
VERTEX
  8
eggPlant
 10
-13.056062
 20
193.008371
 30
7.556300
 70
   192
  0
VERTEX
  8
eggPlant
 10
17.740601
 20
194.491911
 30
-3.186954
 70
   192
  0
VERTEX
  8
eggPlant
 10
-3.974321
 20
193.120900
 30
12.002254
 70
   192
  0
VERTEX
  8
eggPlant
 10
-8.754161
 20
180.329091
 30
25.134755
 70
   192
  0
VERTEX
  8
eggPlant
 10
0.0
 20
0.0
 30
0.0
 70
   128
 71
   22
 72
   12
 73
   2
  0
VERTEX
  8
eggPlant
 10
0.0
 20
0.0
 30
0.0
 70
   128
 71
   12
 72
   13
 73
   3
  0
VERTEX
  8
eggPlant
 10
0.0
 20
0.0
 30
0.0
 70
   128
 71
   13
 72
   14
 73
   4
  0
VERTEX
  8
eggPlant
 10
0.0
 20
0.0
 30
0.0
 70
   128
 71
   14
 72
   15
 73
   5
  0
VERTEX
  8
eggPlant
 10
0.0
 20
0.0
 30
0.0
 70
   128
 71
   15
 72
   16
 73
   6
  0
VERTEX
  8
eggPlant
 10
0.0
 20
0.0
 30
0.0
 70
   128
 71
   16
 72
   17
 73
   7
  0
VERTEX
  8
eggPlant
 10
0.0
 20
0.0
 30
0.0
 70
   128
 71
   17
 72
   18
 73
   8
  0
VERTEX
  8
eggPlant
 10
0.0
 20
0.0
 30
0.0
 70
   128
 71
   18
 72
   19
 73
   9
  0
VERTEX
  8
eggPlant
 10
0.0
 20
0.0
 30
0.0
 70
   128
 71
   19
 72
   10
 73
   9
  0
VERTEX
  8
eggPlant
 10
0.0
 20
0.0
 30
0.0
 70
   128
 71
   32
 72
   22
 73
   1
  0
VERTEX
  8
eggPlant
 10
0.0
 20
0.0
 30
0.0
 70
   128
 71
   22
 72
   23
 73
   13
  0
VERTEX
  8
eggPlant
 10
0.0
 20
0.0
 30
0.0
 70
   128
 71
   23
 72
   24
 73
   14
  0
VERTEX
  8
eggPlant
 10
0.0
 20
0.0
 30
0.0
 70
   128
 71
   24
 72
   25
 73
   15
  0
VERTEX
  8
eggPlant
 10
0.0
 20
0.0
 30
0.0
 70
   128
 71
   25
 72
   26
 73
   16
  0
VERTEX
  8
eggPlant
 10
0.0
 20
0.0
 30
0.0
 70
   128
 71
   26
 72
   27
 73
   17
  0
VERTEX
  8
eggPlant
 10
0.0
 20
0.0
 30
0.0
 70
   128
 71
   27
 72
   28
 73
   18
  0
VERTEX
  8
eggPlant
 10
0.0
 20
0.0
 30
0.0
 70
   128
 71
   28
 72
   29
 73
   19
  0
VERTEX
  8
eggPlant
 10
0.0
 20
0.0
 30
0.0
 70
   128
 71
   29
 72
   10
 73
   19
  0
VERTEX
  8
eggPlant
 10
0.0
 20
0.0
 30
0.0
 70
   128
 71
   1
 72
   72
 73
   62
  0
VERTEX
  8
eggPlant
 10
0.0
 20
0.0
 30
0.0
 70
   128
 71
   32
 72
   33
 73
   23
  0
VERTEX
  8
eggPlant
 10
0.0
 20
0.0
 30
0.0
 70
   128
 71
   33
 72
   34
 73
   24
  0
VERTEX
  8
eggPlant
 10
0.0
 20
0.0
 30
0.0
 70
   128
 71
   34
 72
   35
 73
   25
  0
VERTEX
  8
eggPlant
 10
0.0
 20
0.0
 30
0.0
 70
   128
 71
   35
 72
   36
 73
   26
  0
VERTEX
  8
eggPlant
 10
0.0
 20
0.0
 30
0.0
 70
   128
 71
   36
 72
   37
 73
   27
  0
VERTEX
  8
eggPlant
 10
0.0
 20
0.0
 30
0.0
 70
   128
 71
   37
 72
   38
 73
   28
  0
VERTEX
  8
eggPlant
 10
0.0
 20
0.0
 30
0.0
 70
   128
 71
   38
 72
   39
 73
   29
  0
VERTEX
  8
eggPlant
 10
0.0
 20
0.0
 30
0.0
 70
   128
 71
   39
 72
   10
 73
   29
  0
VERTEX
  8
eggPlant
 10
0.0
 20
0.0
 30
0.0
 70
   128
 71
   62
 72
   52
 73
   42
  0
VERTEX
  8
eggPlant
 10
0.0
 20
0.0
 30
0.0
 70
   128
 71
   42
 72
   43
 73
   33
  0
VERTEX
  8
eggPlant
 10
0.0
 20
0.0
 30
0.0
 70
   128
 71
   43
 72
   44
 73
   34
  0
VERTEX
  8
eggPlant
 10
0.0
 20
0.0
 30
0.0
 70
   128
 71
   44
 72
   45
 73
   35
  0
VERTEX
  8
eggPlant
 10
0.0
 20
0.0
 30
0.0
 70
   128
 71
   45
 72
   46
 73
   36
  0
VERTEX
  8
eggPlant
 10
0.0
 20
0.0
 30
0.0
 70
   128
 71
   46
 72
   47
 73
   37
  0
VERTEX
  8
eggPlant
 10
0.0
 20
0.0
 30
0.0
 70
   128
 71
   47
 72
   48
 73
   38
  0
VERTEX
  8
eggPlant
 10
0.0
 20
0.0
 30
0.0
 70
   128
 71
   48
 72
   49
 73
   39
  0
VERTEX
  8
eggPlant
 10
0.0
 20
0.0
 30
0.0
 70
   128
 71
   49
 72
   10
 73
   39
  0
VERTEX
  8
eggPlant
 10
0.0
 20
0.0
 30
0.0
 70
   128
 71
   5
 72
   6
 73
   50
  0
VERTEX
  8
eggPlant
 10
0.0
 20
0.0
 30
0.0
 70
   128
 71
   52
 72
   53
 73
   43
  0
VERTEX
  8
eggPlant
 10
0.0
 20
0.0
 30
0.0
 70
   128
 71
   53
 72
   54
 73
   44
  0
VERTEX
  8
eggPlant
 10
0.0
 20
0.0
 30
0.0
 70
   128
 71
   54
 72
   55
 73
   45
  0
VERTEX
  8
eggPlant
 10
0.0
 20
0.0
 30
0.0
 70
   128
 71
   55
 72
   56
 73
   46
  0
VERTEX
  8
eggPlant
 10
0.0
 20
0.0
 30
0.0
 70
   128
 71
   56
 72
   57
 73
   47
  0
VERTEX
  8
eggPlant
 10
0.0
 20
0.0
 30
0.0
 70
   128
 71
   57
 72
   58
 73
   48
  0
VERTEX
  8
eggPlant
 10
0.0
 20
0.0
 30
0.0
 70
   128
 71
   58
 72
   59
 73
   49
  0
VERTEX
  8
eggPlant
 10
0.0
 20
0.0
 30
0.0
 70
   128
 71
   59
 72
   10
 73
   49
  0
VERTEX
  8
eggPlant
 10
0.0
 20
0.0
 30
0.0
 70
   128
 71
   6
 72
   7
 73
   60
  0
VERTEX
  8
eggPlant
 10
0.0
 20
0.0
 30
0.0
 70
   128
 71
   62
 72
   63
 73
   53
  0
VERTEX
  8
eggPlant
 10
0.0
 20
0.0
 30
0.0
 70
   128
 71
   63
 72
   64
 73
   54
  0
VERTEX
  8
eggPlant
 10
0.0
 20
0.0
 30
0.0
 70
   128
 71
   64
 72
   65
 73
   55
  0
VERTEX
  8
eggPlant
 10
0.0
 20
0.0
 30
0.0
 70
   128
 71
   65
 72
   66
 73
   56
  0
VERTEX
  8
eggPlant
 10
0.0
 20
0.0
 30
0.0
 70
   128
 71
   66
 72
   67
 73
   57
  0
VERTEX
  8
eggPlant
 10
0.0
 20
0.0
 30
0.0
 70
   128
 71
   67
 72
   68
 73
   58
  0
VERTEX
  8
eggPlant
 10
0.0
 20
0.0
 30
0.0
 70
   128
 71
   68
 72
   69
 73
   59
  0
VERTEX
  8
eggPlant
 10
0.0
 20
0.0
 30
0.0
 70
   128
 71
   69
 72
   10
 73
   59
  0
VERTEX
  8
eggPlant
 10
0.0
 20
0.0
 30
0.0
 70
   128
 71
   7
 72
   8
 73
   70
  0
VERTEX
  8
eggPlant
 10
0.0
 20
0.0
 30
0.0
 70
   128
 71
   72
 72
   73
 73
   63
  0
VERTEX
  8
eggPlant
 10
0.0
 20
0.0
 30
0.0
 70
   128
 71
   73
 72
   11
 73
   64
  0
VERTEX
  8
eggPlant
 10
0.0
 20
0.0
 30
0.0
 70
   128
 71
   11
 72
   21
 73
   65
  0
VERTEX
  8
eggPlant
 10
0.0
 20
0.0
 30
0.0
 70
   128
 71
   21
 72
   31
 73
   66
  0
VERTEX
  8
eggPlant
 10
0.0
 20
0.0
 30
0.0
 70
   128
 71
   31
 72
   41
 73
   67
  0
VERTEX
  8
eggPlant
 10
0.0
 20
0.0
 30
0.0
 70
   128
 71
   41
 72
   51
 73
   68
  0
VERTEX
  8
eggPlant
 10
0.0
 20
0.0
 30
0.0
 70
   128
 71
   51
 72
   61
 73
   69
  0
VERTEX
  8
eggPlant
 10
0.0
 20
0.0
 30
0.0
 70
   128
 71
   61
 72
   10
 73
   69
  0
VERTEX
  8
eggPlant
 10
0.0
 20
0.0
 30
0.0
 70
   128
 71
   8
 72
   9
 73
   71
  0
VERTEX
  8
eggPlant
 10
0.0
 20
0.0
 30
0.0
 70
   128
 71
   1
 72
   20
 73
   73
  0
VERTEX
  8
eggPlant
 10
0.0
 20
0.0
 30
0.0
 70
   128
 71
   20
 72
   30
 73
   11
  0
VERTEX
  8
eggPlant
 10
0.0
 20
0.0
 30
0.0
 70
   128
 71
   30
 72
   40
 73
   21
  0
VERTEX
  8
eggPlant
 10
0.0
 20
0.0
 30
0.0
 70
   128
 71
   40
 72
   50
 73
   31
  0
VERTEX
  8
eggPlant
 10
0.0
 20
0.0
 30
0.0
 70
   128
 71
   50
 72
   60
 73
   41
  0
VERTEX
  8
eggPlant
 10
0.0
 20
0.0
 30
0.0
 70
   128
 71
   60
 72
   70
 73
   51
  0
VERTEX
  8
eggPlant
 10
0.0
 20
0.0
 30
0.0
 70
   128
 71
   70
 72
   71
 73
   61
  0
VERTEX
  8
eggPlant
 10
0.0
 20
0.0
 30
0.0
 70
   128
 71
   71
 72
   10
 73
   61
  0
VERTEX
  8
eggPlant
 10
0.0
 20
0.0
 30
0.0
 70
   128
 71
   9
 72
   10
 73
   71
  0
VERTEX
  8
eggPlant
 10
0.0
 20
0.0
 30
0.0
 70
   128
 71
   2
 72
   3
 73
   20
  0
VERTEX
  8
eggPlant
 10
0.0
 20
0.0
 30
0.0
 70
   128
 71
   3
 72
   4
 73
   30
  0
VERTEX
  8
eggPlant
 10
0.0
 20
0.0
 30
0.0
 70
   128
 71
   4
 72
   5
 73
   40
  0
VERTEX
  8
eggPlant
 10
0.0
 20
0.0
 30
0.0
 70
   128
 71
   77
 72
   78
 73
   75
  0
VERTEX
  8
eggPlant
 10
0.0
 20
0.0
 30
0.0
 70
   128
 71
   78
 72
   105
 73
   102
  0
VERTEX
  8
eggPlant
 10
0.0
 20
0.0
 30
0.0
 70
   128
 71
   84
 72
   87
 73
   88
  0
VERTEX
  8
eggPlant
 10
0.0
 20
0.0
 30
0.0
 70
   128
 71
   88
 72
   115
 73
   112
  0
VERTEX
  8
eggPlant
 10
0.0
 20
0.0
 30
0.0
 70
   128
 71
   90
 72
   91
 73
   88
  0
VERTEX
  8
eggPlant
 10
0.0
 20
0.0
 30
0.0
 70
   128
 71
   91
 72
   107
 73
   115
  0
VERTEX
  8
eggPlant
 10
0.0
 20
0.0
 30
0.0
 70
   128
 71
   93
 72
   94
 73
   91
  0
VERTEX
  8
eggPlant
 10
0.0
 20
0.0
 30
0.0
 70
   128
 71
   94
 72
   110
 73
   107
  0
VERTEX
  8
eggPlant
 10
0.0
 20
0.0
 30
0.0
 70
   128
 71
   96
 72
   97
 73
   94
  0
VERTEX
  8
eggPlant
 10
0.0
 20
0.0
 30
0.0
 70
   128
 71
   82
 72
   78
 73
   77
  0
VERTEX
  8
eggPlant
 10
0.0
 20
0.0
 30
0.0
 70
   128
 71
   82
 72
   109
 73
   105
  0
VERTEX
  8
eggPlant
 10
0.0
 20
0.0
 30
0.0
 70
   128
 71
   97
 72
   113
 73
   110
  0
VERTEX
  8
eggPlant
 10
0.0
 20
0.0
 30
0.0
 70
   128
 71
   99
 72
   80
 73
   97
  0
VERTEX
  8
eggPlant
 10
0.0
 20
0.0
 30
0.0
 70
   128
 71
   80
 72
   102
 73
   113
  0
VERTEX
  8
eggPlant
 10
0.0
 20
0.0
 30
0.0
 70
   128
 71
   74
 72
   75
 73
   80
  0
VERTEX
  8
eggPlant
 10
0.0
 20
0.0
 30
0.0
 70
   128
 71
   75
 72
   102
 73
   80
  0
VERTEX
  8
eggPlant
 10
0.0
 20
0.0
 30
0.0
 70
   128
 71
   96
 72
   93
 73
   84
  0
VERTEX
  8
eggPlant
 10
0.0
 20
0.0
 30
0.0
 70
   128
 71
   84
 72
   93
 73
   90
  0
VERTEX
  8
eggPlant
 10
0.0
 20
0.0
 30
0.0
 70
   128
 71
   85
 72
   82
 73
   84
  0
VERTEX
  8
eggPlant
 10
0.0
 20
0.0
 30
0.0
 70
   128
 71
   85
 72
   112
 73
   109
  0
VERTEX
  8
eggPlant
 10
0.0
 20
0.0
 30
0.0
 70
   128
 71
   84
 72
   82
 73
   77
  0
VERTEX
  8
eggPlant
 10
0.0
 20
0.0
 30
0.0
 70
   128
 71
   77
 72
   74
 73
   99
  0
VERTEX
  8
eggPlant
 10
0.0
 20
0.0
 30
0.0
 70
   128
 71
   104
 72
   108
 73
   111
  0
VERTEX
  8
eggPlant
 10
0.0
 20
0.0
 30
0.0
 70
   128
 71
   104
 72
   111
 73
   81
  0
VERTEX
  8
eggPlant
 10
0.0
 20
0.0
 30
0.0
 70
   128
 71
   111
 72
   114
 73
   81
  0
VERTEX
  8
eggPlant
 10
0.0
 20
0.0
 30
0.0
 70
   128
 71
   101
 72
   104
 73
   100
  0
VERTEX
  8
eggPlant
 10
0.0
 20
0.0
 30
0.0
 70
   128
 71
   100
 72
   103
 73
   106
  0
VERTEX
  8
eggPlant
 10
0.0
 20
0.0
 30
0.0
 70
   128
 71
   101
 72
   76
 73
   79
  0
VERTEX
  8
eggPlant
 10
0.0
 20
0.0
 30
0.0
 70
   128
 71
   76
 72
   102
 73
   105
  0
VERTEX
  8
eggPlant
 10
0.0
 20
0.0
 30
0.0
 70
   128
 71
   111
 72
   86
 73
   89
  0
VERTEX
  8
eggPlant
 10
0.0
 20
0.0
 30
0.0
 70
   128
 71
   86
 72
   112
 73
   115
  0
VERTEX
  8
eggPlant
 10
0.0
 20
0.0
 30
0.0
 70
   128
 71
   114
 72
   89
 73
   92
  0
VERTEX
  8
eggPlant
 10
0.0
 20
0.0
 30
0.0
 70
   128
 71
   89
 72
   115
 73
   107
  0
VERTEX
  8
eggPlant
 10
0.0
 20
0.0
 30
0.0
 70
   128
 71
   81
 72
   92
 73
   95
  0
VERTEX
  8
eggPlant
 10
0.0
 20
0.0
 30
0.0
 70
   128
 71
   92
 72
   107
 73
   110
  0
VERTEX
  8
eggPlant
 10
0.0
 20
0.0
 30
0.0
 70
   128
 71
   79
 72
   105
 73
   109
  0
VERTEX
  8
eggPlant
 10
0.0
 20
0.0
 30
0.0
 70
   128
 71
   104
 72
   79
 73
   83
  0
VERTEX
  8
eggPlant
 10
0.0
 20
0.0
 30
0.0
 70
   128
 71
   100
 72
   95
 73
   98
  0
VERTEX
  8
eggPlant
 10
0.0
 20
0.0
 30
0.0
 70
   128
 71
   95
 72
   110
 73
   113
  0
VERTEX
  8
eggPlant
 10
0.0
 20
0.0
 30
0.0
 70
   128
 71
   103
 72
   98
 73
   76
  0
VERTEX
  8
eggPlant
 10
0.0
 20
0.0
 30
0.0
 70
   128
 71
   98
 72
   113
 73
   102
  0
VERTEX
  8
eggPlant
 10
0.0
 20
0.0
 30
0.0
 70
   128
 71
   106
 72
   76
 73
   101
  0
VERTEX
  8
eggPlant
 10
0.0
 20
0.0
 30
0.0
 70
   128
 71
   83
 72
   109
 73
   112
  0
VERTEX
  8
eggPlant
 10
0.0
 20
0.0
 30
0.0
 70
   128
 71
   108
 72
   83
 73
   86
  0
VERTEX
  8
eggPlant
 10
0.0
 20
0.0
 30
0.0
 70
   128
 71
   22
 72
   2
 73
   1
  0
VERTEX
  8
eggPlant
 10
0.0
 20
0.0
 30
0.0
 70
   128
 71
   12
 72
   3
 73
   2
  0
VERTEX
  8
eggPlant
 10
0.0
 20
0.0
 30
0.0
 70
   128
 71
   13
 72
   4
 73
   3
  0
VERTEX
  8
eggPlant
 10
0.0
 20
0.0
 30
0.0
 70
   128
 71
   14
 72
   5
 73
   4
  0
VERTEX
  8
eggPlant
 10
0.0
 20
0.0
 30
0.0
 70
   128
 71
   15
 72
   6
 73
   5
  0
VERTEX
  8
eggPlant
 10
0.0
 20
0.0
 30
0.0
 70
   128
 71
   16
 72
   7
 73
   6
  0
VERTEX
  8
eggPlant
 10
0.0
 20
0.0
 30
0.0
 70
   128
 71
   17
 72
   8
 73
   7
  0
VERTEX
  8
eggPlant
 10
0.0
 20
0.0
 30
0.0
 70
   128
 71
   18
 72
   9
 73
   8
  0
VERTEX
  8
eggPlant
 10
0.0
 20
0.0
 30
0.0
 70
   128
 71
   32
 72
   1
 73
   62
  0
VERTEX
  8
eggPlant
 10
0.0
 20
0.0
 30
0.0
 70
   128
 71
   22
 72
   13
 73
   12
  0
VERTEX
  8
eggPlant
 10
0.0
 20
0.0
 30
0.0
 70
   128
 71
   23
 72
   14
 73
   13
  0
VERTEX
  8
eggPlant
 10
0.0
 20
0.0
 30
0.0
 70
   128
 71
   24
 72
   15
 73
   14
  0
VERTEX
  8
eggPlant
 10
0.0
 20
0.0
 30
0.0
 70
   128
 71
   25
 72
   16
 73
   15
  0
VERTEX
  8
eggPlant
 10
0.0
 20
0.0
 30
0.0
 70
   128
 71
   26
 72
   17
 73
   16
  0
VERTEX
  8
eggPlant
 10
0.0
 20
0.0
 30
0.0
 70
   128
 71
   27
 72
   18
 73
   17
  0
VERTEX
  8
eggPlant
 10
0.0
 20
0.0
 30
0.0
 70
   128
 71
   28
 72
   19
 73
   18
  0
VERTEX
  8
eggPlant
 10
0.0
 20
0.0
 30
0.0
 70
   128
 71
   32
 72
   23
 73
   22
  0
VERTEX
  8
eggPlant
 10
0.0
 20
0.0
 30
0.0
 70
   128
 71
   33
 72
   24
 73
   23
  0
VERTEX
  8
eggPlant
 10
0.0
 20
0.0
 30
0.0
 70
   128
 71
   34
 72
   25
 73
   24
  0
VERTEX
  8
eggPlant
 10
0.0
 20
0.0
 30
0.0
 70
   128
 71
   35
 72
   26
 73
   25
  0
VERTEX
  8
eggPlant
 10
0.0
 20
0.0
 30
0.0
 70
   128
 71
   36
 72
   27
 73
   26
  0
VERTEX
  8
eggPlant
 10
0.0
 20
0.0
 30
0.0
 70
   128
 71
   37
 72
   28
 73
   27
  0
VERTEX
  8
eggPlant
 10
0.0
 20
0.0
 30
0.0
 70
   128
 71
   38
 72
   29
 73
   28
  0
VERTEX
  8
eggPlant
 10
0.0
 20
0.0
 30
0.0
 70
   128
 71
   62
 72
   42
 73
   32
  0
VERTEX
  8
eggPlant
 10
0.0
 20
0.0
 30
0.0
 70
   128
 71
   42
 72
   33
 73
   32
  0
VERTEX
  8
eggPlant
 10
0.0
 20
0.0
 30
0.0
 70
   128
 71
   43
 72
   34
 73
   33
  0
VERTEX
  8
eggPlant
 10
0.0
 20
0.0
 30
0.0
 70
   128
 71
   44
 72
   35
 73
   34
  0
VERTEX
  8
eggPlant
 10
0.0
 20
0.0
 30
0.0
 70
   128
 71
   45
 72
   36
 73
   35
  0
VERTEX
  8
eggPlant
 10
0.0
 20
0.0
 30
0.0
 70
   128
 71
   46
 72
   37
 73
   36
  0
VERTEX
  8
eggPlant
 10
0.0
 20
0.0
 30
0.0
 70
   128
 71
   47
 72
   38
 73
   37
  0
VERTEX
  8
eggPlant
 10
0.0
 20
0.0
 30
0.0
 70
   128
 71
   48
 72
   39
 73
   38
  0
VERTEX
  8
eggPlant
 10
0.0
 20
0.0
 30
0.0
 70
   128
 71
   5
 72
   50
 73
   40
  0
VERTEX
  8
eggPlant
 10
0.0
 20
0.0
 30
0.0
 70
   128
 71
   52
 72
   43
 73
   42
  0
VERTEX
  8
eggPlant
 10
0.0
 20
0.0
 30
0.0
 70
   128
 71
   53
 72
   44
 73
   43
  0
VERTEX
  8
eggPlant
 10
0.0
 20
0.0
 30
0.0
 70
   128
 71
   54
 72
   45
 73
   44
  0
VERTEX
  8
eggPlant
 10
0.0
 20
0.0
 30
0.0
 70
   128
 71
   55
 72
   46
 73
   45
  0
VERTEX
  8
eggPlant
 10
0.0
 20
0.0
 30
0.0
 70
   128
 71
   56
 72
   47
 73
   46
  0
VERTEX
  8
eggPlant
 10
0.0
 20
0.0
 30
0.0
 70
   128
 71
   57
 72
   48
 73
   47
  0
VERTEX
  8
eggPlant
 10
0.0
 20
0.0
 30
0.0
 70
   128
 71
   58
 72
   49
 73
   48
  0
VERTEX
  8
eggPlant
 10
0.0
 20
0.0
 30
0.0
 70
   128
 71
   6
 72
   60
 73
   50
  0
VERTEX
  8
eggPlant
 10
0.0
 20
0.0
 30
0.0
 70
   128
 71
   62
 72
   53
 73
   52
  0
VERTEX
  8
eggPlant
 10
0.0
 20
0.0
 30
0.0
 70
   128
 71
   63
 72
   54
 73
   53
  0
VERTEX
  8
eggPlant
 10
0.0
 20
0.0
 30
0.0
 70
   128
 71
   64
 72
   55
 73
   54
  0
VERTEX
  8
eggPlant
 10
0.0
 20
0.0
 30
0.0
 70
   128
 71
   65
 72
   56
 73
   55
  0
VERTEX
  8
eggPlant
 10
0.0
 20
0.0
 30
0.0
 70
   128
 71
   66
 72
   57
 73
   56
  0
VERTEX
  8
eggPlant
 10
0.0
 20
0.0
 30
0.0
 70
   128
 71
   67
 72
   58
 73
   57
  0
VERTEX
  8
eggPlant
 10
0.0
 20
0.0
 30
0.0
 70
   128
 71
   68
 72
   59
 73
   58
  0
VERTEX
  8
eggPlant
 10
0.0
 20
0.0
 30
0.0
 70
   128
 71
   7
 72
   70
 73
   60
  0
VERTEX
  8
eggPlant
 10
0.0
 20
0.0
 30
0.0
 70
   128
 71
   72
 72
   63
 73
   62
  0
VERTEX
  8
eggPlant
 10
0.0
 20
0.0
 30
0.0
 70
   128
 71
   73
 72
   64
 73
   63
  0
VERTEX
  8
eggPlant
 10
0.0
 20
0.0
 30
0.0
 70
   128
 71
   11
 72
   65
 73
   64
  0
VERTEX
  8
eggPlant
 10
0.0
 20
0.0
 30
0.0
 70
   128
 71
   21
 72
   66
 73
   65
  0
VERTEX
  8
eggPlant
 10
0.0
 20
0.0
 30
0.0
 70
   128
 71
   31
 72
   67
 73
   66
  0
VERTEX
  8
eggPlant
 10
0.0
 20
0.0
 30
0.0
 70
   128
 71
   41
 72
   68
 73
   67
  0
VERTEX
  8
eggPlant
 10
0.0
 20
0.0
 30
0.0
 70
   128
 71
   51
 72
   69
 73
   68
  0
VERTEX
  8
eggPlant
 10
0.0
 20
0.0
 30
0.0
 70
   128
 71
   8
 72
   71
 73
   70
  0
VERTEX
  8
eggPlant
 10
0.0
 20
0.0
 30
0.0
 70
   128
 71
   1
 72
   73
 73
   72
  0
VERTEX
  8
eggPlant
 10
0.0
 20
0.0
 30
0.0
 70
   128
 71
   20
 72
   11
 73
   73
  0
VERTEX
  8
eggPlant
 10
0.0
 20
0.0
 30
0.0
 70
   128
 71
   30
 72
   21
 73
   11
  0
VERTEX
  8
eggPlant
 10
0.0
 20
0.0
 30
0.0
 70
   128
 71
   40
 72
   31
 73
   21
  0
VERTEX
  8
eggPlant
 10
0.0
 20
0.0
 30
0.0
 70
   128
 71
   50
 72
   41
 73
   31
  0
VERTEX
  8
eggPlant
 10
0.0
 20
0.0
 30
0.0
 70
   128
 71
   60
 72
   51
 73
   41
  0
VERTEX
  8
eggPlant
 10
0.0
 20
0.0
 30
0.0
 70
   128
 71
   70
 72
   61
 73
   51
  0
VERTEX
  8
eggPlant
 10
0.0
 20
0.0
 30
0.0
 70
   128
 71
   2
 72
   20
 73
   1
  0
VERTEX
  8
eggPlant
 10
0.0
 20
0.0
 30
0.0
 70
   128
 71
   3
 72
   30
 73
   20
  0
VERTEX
  8
eggPlant
 10
0.0
 20
0.0
 30
0.0
 70
   128
 71
   4
 72
   40
 73
   30
  0
VERTEX
  8
eggPlant
 10
0.0
 20
0.0
 30
0.0
 70
   128
 71
   77
 72
   75
 73
   74
  0
VERTEX
  8
eggPlant
 10
0.0
 20
0.0
 30
0.0
 70
   128
 71
   78
 72
   102
 73
   75
  0
VERTEX
  8
eggPlant
 10
0.0
 20
0.0
 30
0.0
 70
   128
 71
   84
 72
   88
 73
   85
  0
VERTEX
  8
eggPlant
 10
0.0
 20
0.0
 30
0.0
 70
   128
 71
   88
 72
   112
 73
   85
  0
VERTEX
  8
eggPlant
 10
0.0
 20
0.0
 30
0.0
 70
   128
 71
   90
 72
   88
 73
   87
  0
VERTEX
  8
eggPlant
 10
0.0
 20
0.0
 30
0.0
 70
   128
 71
   91
 72
   115
 73
   88
  0
VERTEX
  8
eggPlant
 10
0.0
 20
0.0
 30
0.0
 70
   128
 71
   93
 72
   91
 73
   90
  0
VERTEX
  8
eggPlant
 10
0.0
 20
0.0
 30
0.0
 70
   128
 71
   94
 72
   107
 73
   91
  0
VERTEX
  8
eggPlant
 10
0.0
 20
0.0
 30
0.0
 70
   128
 71
   96
 72
   94
 73
   93
  0
VERTEX
  8
eggPlant
 10
0.0
 20
0.0
 30
0.0
 70
   128
 71
   82
 72
   105
 73
   78
  0
VERTEX
  8
eggPlant
 10
0.0
 20
0.0
 30
0.0
 70
   128
 71
   97
 72
   110
 73
   94
  0
VERTEX
  8
eggPlant
 10
0.0
 20
0.0
 30
0.0
 70
   128
 71
   99
 72
   97
 73
   96
  0
VERTEX
  8
eggPlant
 10
0.0
 20
0.0
 30
0.0
 70
   128
 71
   80
 72
   113
 73
   97
  0
VERTEX
  8
eggPlant
 10
0.0
 20
0.0
 30
0.0
 70
   128
 71
   74
 72
   80
 73
   99
  0
VERTEX
  8
eggPlant
 10
0.0
 20
0.0
 30
0.0
 70
   128
 71
   96
 72
   84
 73
   99
  0
VERTEX
  8
eggPlant
 10
0.0
 20
0.0
 30
0.0
 70
   128
 71
   84
 72
   90
 73
   87
  0
VERTEX
  8
eggPlant
 10
0.0
 20
0.0
 30
0.0
 70
   128
 71
   85
 72
   109
 73
   82
  0
VERTEX
  8
eggPlant
 10
0.0
 20
0.0
 30
0.0
 70
   128
 71
   84
 72
   77
 73
   99
  0
VERTEX
  8
eggPlant
 10
0.0
 20
0.0
 30
0.0
 70
   128
 71
   104
 72
   81
 73
   100
  0
VERTEX
  8
eggPlant
 10
0.0
 20
0.0
 30
0.0
 70
   128
 71
   101
 72
   100
 73
   106
  0
VERTEX
  8
eggPlant
 10
0.0
 20
0.0
 30
0.0
 70
   128
 71
   101
 72
   79
 73
   104
  0
VERTEX
  8
eggPlant
 10
0.0
 20
0.0
 30
0.0
 70
   128
 71
   76
 72
   105
 73
   79
  0
VERTEX
  8
eggPlant
 10
0.0
 20
0.0
 30
0.0
 70
   128
 71
   111
 72
   89
 73
   114
  0
VERTEX
  8
eggPlant
 10
0.0
 20
0.0
 30
0.0
 70
   128
 71
   86
 72
   115
 73
   89
  0
VERTEX
  8
eggPlant
 10
0.0
 20
0.0
 30
0.0
 70
   128
 71
   114
 72
   92
 73
   81
  0
VERTEX
  8
eggPlant
 10
0.0
 20
0.0
 30
0.0
 70
   128
 71
   89
 72
   107
 73
   92
  0
VERTEX
  8
eggPlant
 10
0.0
 20
0.0
 30
0.0
 70
   128
 71
   81
 72
   95
 73
   100
  0
VERTEX
  8
eggPlant
 10
0.0
 20
0.0
 30
0.0
 70
   128
 71
   92
 72
   110
 73
   95
  0
VERTEX
  8
eggPlant
 10
0.0
 20
0.0
 30
0.0
 70
   128
 71
   79
 72
   109
 73
   83
  0
VERTEX
  8
eggPlant
 10
0.0
 20
0.0
 30
0.0
 70
   128
 71
   104
 72
   83
 73
   108
  0
VERTEX
  8
eggPlant
 10
0.0
 20
0.0
 30
0.0
 70
   128
 71
   100
 72
   98
 73
   103
  0
VERTEX
  8
eggPlant
 10
0.0
 20
0.0
 30
0.0
 70
   128
 71
   95
 72
   113
 73
   98
  0
VERTEX
  8
eggPlant
 10
0.0
 20
0.0
 30
0.0
 70
   128
 71
   103
 72
   76
 73
   106
  0
VERTEX
  8
eggPlant
 10
0.0
 20
0.0
 30
0.0
 70
   128
 71
   98
 72
   102
 73
   76
  0
VERTEX
  8
eggPlant
 10
0.0
 20
0.0
 30
0.0
 70
   128
 71
   83
 72
   112
 73
   86
  0
VERTEX
  8
eggPlant
 10
0.0
 20
0.0
 30
0.0
 70
   128
 71
   108
 72
   86
 73
   111
  0
SEQEND
  0
ENDSEC
  0
EOF
