999
FBX AutoCAD (*.DXF) exporter
  0
SECTION
  2
HEADER
  9
$ACADVER
  1
AC1008
  9
$UCSORG
 10
0.0
 20
0.0
 30
0.0
  9
$UCSXDIR
 10
1.0
 20
0.0
 30
0.0
  9
$TILEMODE
 70
   1
  9
$UCSYDIR
 10
0.0
 20
1.0
 30
0.0
  0
ENDSEC
  0
SECTION
  2
TABLES
  0
TABLE
  2
LTYPE
 70
   1
  0
LTYPE
  2
CONTINUOUS
 70
   64
  3
Solid line
 72
   65
 73
   0
 40
0.0
  0
ENDTAB
  0
TABLE
  2
LAYER
 70
   14
  0
LAYER
  2
lettuce
 70
   0
 62
   250
  6
CONTINUOUS
  0
LAYER
  2
lettuce_1
 70
   0
 62
   250
  6
CONTINUOUS
  0
LAYER
  2
tomato_2
 70
   0
 62
   250
  6
CONTINUOUS
  0
LAYER
  2
tomato_1
 70
   0
 62
   250
  6
CONTINUOUS
  0
LAYER
  2
tomato
 70
   0
 62
   250
  6
CONTINUOUS
  0
LAYER
  2
meat_1
 70
   0
 62
   250
  6
CONTINUOUS
  0
LAYER
  2
toast_1
 70
   0
 62
   250
  6
CONTINUOUS
  0
LAYER
  2
tomato_2_2
 70
   0
 62
   250
  6
CONTINUOUS
  0
LAYER
  2
tomato_1_2
 70
   0
 62
   250
  6
CONTINUOUS
  0
LAYER
  2
tomato_2_3
 70
   0
 62
   250
  6
CONTINUOUS
  0
LAYER
  2
meat_1_2
 70
   0
 62
   250
  6
CONTINUOUS
  0
LAYER
  2
toast_1_2
 70
   0
 62
   250
  6
CONTINUOUS
  0
LAYER
  2
toast
 70
   0
 62
   250
  6
CONTINUOUS
  0
ENDTAB
  0
ENDSEC
  0
SECTION
  2
BLOCKS
  0
ENDSEC
  0
SECTION
  2
ENTITIES
  0
POLYLINE
  8
lettuce
 66
   1
 10
0.0
 20
0.0
 30
0.0
 70
   64
 71
   82
 72
   160
  0
VERTEX
  8
lettuce
 10
53.004049
 20
103.752208
 30
78.326920
 70
   192
  0
VERTEX
  8
lettuce
 10
45.047270
 20
103.633733
 30
84.359139
 70
   192
  0
VERTEX
  8
lettuce
 10
28.802611
 20
103.775547
 30
86.871811
 70
   192
  0
VERTEX
  8
lettuce
 10
17.955560
 20
103.961963
 30
84.376575
 70
   192
  0
VERTEX
  8
lettuce
 10
10.732538
 20
103.993762
 30
73.448349
 70
   192
  0
VERTEX
  8
lettuce
 10
-3.205870
 20
104.043811
 30
71.544753
 70
   192
  0
VERTEX
  8
lettuce
 10
-20.122100
 20
103.930610
 30
78.694496
 70
   192
  0
VERTEX
  8
lettuce
 10
-34.124156
 20
103.617775
 30
81.758158
 70
   192
  0
VERTEX
  8
lettuce
 10
-49.882555
 20
103.695409
 30
77.288787
 70
   192
  0
VERTEX
  8
lettuce
 10
-60.075081
 20
104.047288
 30
63.236019
 70
   192
  0
VERTEX
  8
lettuce
 10
-61.523891
 20
104.430383
 30
52.292074
 70
   192
  0
VERTEX
  8
lettuce
 10
-73.874298
 20
104.398266
 30
44.554488
 70
   192
  0
VERTEX
  8
lettuce
 10
-87.448172
 20
103.887308
 30
45.293005
 70
   192
  0
VERTEX
  8
lettuce
 10
-98.110825
 20
103.640137
 30
44.266325
 70
   192
  0
VERTEX
  8
lettuce
 10
-110.876066
 20
103.538671
 30
37.640745
 70
   192
  0
VERTEX
  8
lettuce
 10
-118.260062
 20
103.693658
 30
25.995672
 70
   192
  0
VERTEX
  8
lettuce
 10
-125.119286
 20
104.341907
 30
-4.088462
 70
   192
  0
VERTEX
  8
lettuce
 10
-115.504217
 20
103.905780
 30
-21.287256
 70
   192
  0
VERTEX
  8
lettuce
 10
-100.275191
 20
103.865687
 30
-36.420289
 70
   192
  0
VERTEX
  8
lettuce
 10
-89.219028
 20
103.519764
 30
-50.375755
 70
   192
  0
VERTEX
  8
lettuce
 10
-70.216925
 20
103.525013
 30
-64.233483
 70
   192
  0
VERTEX
  8
lettuce
 10
-47.786423
 20
103.685297
 30
-68.464025
 70
   192
  0
VERTEX
  8
lettuce
 10
-27.880654
 20
103.909331
 30
-64.738483
 70
   192
  0
VERTEX
  8
lettuce
 10
-5.612816
 20
104.223212
 30
-58.189954
 70
   192
  0
VERTEX
  8
lettuce
 10
9.092896
 20
103.888181
 30
-65.127825
 70
   192
  0
VERTEX
  8
lettuce
 10
33.619003
 20
103.458530
 30
-76.335608
 70
   192
  0
VERTEX
  8
lettuce
 10
61.057491
 20
103.476652
 30
-77.909739
 70
   192
  0
VERTEX
  8
lettuce
 10
77.390061
 20
103.719116
 30
-66.639851
 70
   192
  0
VERTEX
  8
lettuce
 10
79.326550
 20
104.123591
 30
-55.690321
 70
   192
  0
VERTEX
  8
lettuce
 10
94.416318
 20
104.173338
 30
-45.100515
 70
   192
  0
VERTEX
  8
lettuce
 10
110.668445
 20
103.376869
 30
-44.942543
 70
   192
  0
VERTEX
  8
lettuce
 10
120.054997
 20
103.243111
 30
-34.611618
 70
   192
  0
VERTEX
  8
lettuce
 10
110.628158
 20
104.202451
 30
-16.533046
 70
   192
  0
VERTEX
  8
lettuce
 10
101.835709
 20
104.346725
 30
-2.821478
 70
   192
  0
VERTEX
  8
lettuce
 10
118.487051
 20
103.745799
 30
13.290724
 70
   192
  0
VERTEX
  8
lettuce
 10
124.088593
 20
103.532325
 30
28.570165
 70
   192
  0
VERTEX
  8
lettuce
 10
110.295911
 20
103.720611
 30
39.814087
 70
   192
  0
VERTEX
  8
lettuce
 10
93.848822
 20
103.768892
 30
46.501573
 70
   192
  0
VERTEX
  8
lettuce
 10
84.962748
 20
103.747120
 30
54.580283
 70
   192
  0
VERTEX
  8
lettuce
 10
87.715102
 20
103.578759
 30
68.511927
 70
   192
  0
VERTEX
  8
lettuce
 10
70.868207
 20
103.641428
 30
75.662336
 70
   192
  0
VERTEX
  8
lettuce
 10
53.103835
 20
110.848902
 30
78.363274
 70
   192
  0
VERTEX
  8
lettuce
 10
45.120415
 20
110.855473
 30
84.426340
 70
   192
  0
VERTEX
  8
lettuce
 10
28.926494
 20
110.948234
 30
86.929093
 70
   192
  0
VERTEX
  8
lettuce
 10
18.098574
 20
111.094105
 30
84.373834
 70
   192
  0
VERTEX
  8
lettuce
 10
10.826168
 20
111.105966
 30
73.468606
 70
   192
  0
VERTEX
  8
lettuce
 10
-3.180531
 20
111.181659
 30
71.564811
 70
   192
  0
VERTEX
  8
lettuce
 10
-20.080846
 20
111.160218
 30
78.759164
 70
   192
  0
VERTEX
  8
lettuce
 10
-34.167579
 20
110.867286
 30
81.933194
 70
   192
  0
VERTEX
  8
lettuce
 10
-49.877397
 20
110.898838
 30
77.550259
 70
   192
  0
VERTEX
  8
lettuce
 10
-60.074920
 20
111.312140
 30
63.414731
 70
   192
  0
VERTEX
  8
lettuce
 10
-61.527289
 20
111.510799
 30
52.325476
 70
   192
  0
VERTEX
  8
lettuce
 10
-73.910496
 20
111.493801
 30
44.503856
 70
   192
  0
VERTEX
  8
lettuce
 10
-87.826491
 20
111.135397
 30
45.432191
 70
   192
  0
VERTEX
  8
lettuce
 10
-98.570920
 20
110.880236
 30
44.455232
 70
   192
  0
VERTEX
  8
lettuce
 10
-111.269388
 20
110.739599
 30
37.851924
 70
   192
  0
VERTEX
  8
lettuce
 10
-118.559733
 20
110.852556
 30
26.150776
 70
   192
  0
VERTEX
  8
lettuce
 10
-125.195653
 20
111.379812
 30
-4.015553
 70
   192
  0
VERTEX
  8
lettuce
 10
-115.430408
 20
111.086064
 30
-21.429976
 70
   192
  0
VERTEX
  8
lettuce
 10
-100.313480
 20
110.959335
 30
-36.472963
 70
   192
  0
VERTEX
  8
lettuce
 10
-89.344735
 20
110.721197
 30
-50.478825
 70
   192
  0
VERTEX
  8
lettuce
 10
-70.399814
 20
110.639700
 30
-64.365345
 70
   192
  0
VERTEX
  8
lettuce
 10
-47.966853
 20
110.833473
 30
-68.541720
 70
   192
  0
VERTEX
  8
lettuce
 10
-28.031672
 20
111.074275
 30
-64.811559
 70
   192
  0
VERTEX
  8
lettuce
 10
-5.699259
 20
111.325126
 30
-58.231475
 70
   192
  0
VERTEX
  8
lettuce
 10
9.182757
 20
111.107967
 30
-65.281807
 70
   192
  0
VERTEX
  8
lettuce
 10
33.635193
 20
110.619455
 30
-76.577875
 70
   192
  0
VERTEX
  8
lettuce
 10
61.058035
 20
110.671721
 30
-78.141920
 70
   192
  0
VERTEX
  8
lettuce
 10
77.347562
 20
110.957473
 30
-66.868449
 70
   192
  0
VERTEX
  8
lettuce
 10
79.345415
 20
111.188971
 30
-55.875668
 70
   192
  0
VERTEX
  8
lettuce
 10
94.649728
 20
111.155405
 30
-45.233710
 70
   192
  0
VERTEX
  8
lettuce
 10
111.330962
 20
110.757965
 30
-45.140924
 70
   192
  0
VERTEX
  8
lettuce
 10
120.605673
 20
110.501764
 30
-34.820159
 70
   192
  0
VERTEX
  8
lettuce
 10
110.853396
 20
111.294954
 30
-16.808292
 70
   192
  0
VERTEX
  8
lettuce
 10
101.848870
 20
111.442313
 30
-2.890443
 70
   192
  0
VERTEX
  8
lettuce
 10
118.776614
 20
110.927279
 30
13.438753
 70
   192
  0
VERTEX
  8
lettuce
 10
124.299021
 20
110.697388
 30
28.666496
 70
   192
  0
VERTEX
  8
lettuce
 10
110.358705
 20
110.828109
 30
39.774700
 70
   192
  0
VERTEX
  8
lettuce
 10
93.869427
 20
110.878267
 30
46.503656
 70
   192
  0
VERTEX
  8
lettuce
 10
84.993986
 20
110.886238
 30
54.523331
 70
   192
  0
VERTEX
  8
lettuce
 10
87.772197
 20
110.885540
 30
68.516366
 70
   192
  0
VERTEX
  8
lettuce
 10
70.880794
 20
110.800442
 30
75.711682
 70
   192
  0
VERTEX
  8
lettuce
 10
0.0
 20
0.0
 30
0.0
 70
   128
 71
   1
 72
   2
 73
   43
  0
VERTEX
  8
lettuce
 10
0.0
 20
0.0
 30
0.0
 70
   128
 71
   2
 72
   3
 73
   44
  0
VERTEX
  8
lettuce
 10
0.0
 20
0.0
 30
0.0
 70
   128
 71
   3
 72
   4
 73
   45
  0
VERTEX
  8
lettuce
 10
0.0
 20
0.0
 30
0.0
 70
   128
 71
   4
 72
   5
 73
   46
  0
VERTEX
  8
lettuce
 10
0.0
 20
0.0
 30
0.0
 70
   128
 71
   5
 72
   6
 73
   47
  0
VERTEX
  8
lettuce
 10
0.0
 20
0.0
 30
0.0
 70
   128
 71
   6
 72
   7
 73
   48
  0
VERTEX
  8
lettuce
 10
0.0
 20
0.0
 30
0.0
 70
   128
 71
   7
 72
   8
 73
   49
  0
VERTEX
  8
lettuce
 10
0.0
 20
0.0
 30
0.0
 70
   128
 71
   8
 72
   9
 73
   50
  0
VERTEX
  8
lettuce
 10
0.0
 20
0.0
 30
0.0
 70
   128
 71
   9
 72
   10
 73
   51
  0
VERTEX
  8
lettuce
 10
0.0
 20
0.0
 30
0.0
 70
   128
 71
   10
 72
   11
 73
   52
  0
VERTEX
  8
lettuce
 10
0.0
 20
0.0
 30
0.0
 70
   128
 71
   11
 72
   12
 73
   53
  0
VERTEX
  8
lettuce
 10
0.0
 20
0.0
 30
0.0
 70
   128
 71
   12
 72
   13
 73
   54
  0
VERTEX
  8
lettuce
 10
0.0
 20
0.0
 30
0.0
 70
   128
 71
   13
 72
   14
 73
   55
  0
VERTEX
  8
lettuce
 10
0.0
 20
0.0
 30
0.0
 70
   128
 71
   14
 72
   15
 73
   56
  0
VERTEX
  8
lettuce
 10
0.0
 20
0.0
 30
0.0
 70
   128
 71
   15
 72
   16
 73
   57
  0
VERTEX
  8
lettuce
 10
0.0
 20
0.0
 30
0.0
 70
   128
 71
   16
 72
   17
 73
   58
  0
VERTEX
  8
lettuce
 10
0.0
 20
0.0
 30
0.0
 70
   128
 71
   17
 72
   18
 73
   59
  0
VERTEX
  8
lettuce
 10
0.0
 20
0.0
 30
0.0
 70
   128
 71
   18
 72
   19
 73
   60
  0
VERTEX
  8
lettuce
 10
0.0
 20
0.0
 30
0.0
 70
   128
 71
   19
 72
   20
 73
   61
  0
VERTEX
  8
lettuce
 10
0.0
 20
0.0
 30
0.0
 70
   128
 71
   20
 72
   21
 73
   62
  0
VERTEX
  8
lettuce
 10
0.0
 20
0.0
 30
0.0
 70
   128
 71
   21
 72
   22
 73
   63
  0
VERTEX
  8
lettuce
 10
0.0
 20
0.0
 30
0.0
 70
   128
 71
   22
 72
   23
 73
   64
  0
VERTEX
  8
lettuce
 10
0.0
 20
0.0
 30
0.0
 70
   128
 71
   23
 72
   24
 73
   65
  0
VERTEX
  8
lettuce
 10
0.0
 20
0.0
 30
0.0
 70
   128
 71
   24
 72
   25
 73
   66
  0
VERTEX
  8
lettuce
 10
0.0
 20
0.0
 30
0.0
 70
   128
 71
   25
 72
   26
 73
   67
  0
VERTEX
  8
lettuce
 10
0.0
 20
0.0
 30
0.0
 70
   128
 71
   26
 72
   27
 73
   68
  0
VERTEX
  8
lettuce
 10
0.0
 20
0.0
 30
0.0
 70
   128
 71
   27
 72
   28
 73
   69
  0
VERTEX
  8
lettuce
 10
0.0
 20
0.0
 30
0.0
 70
   128
 71
   28
 72
   29
 73
   70
  0
VERTEX
  8
lettuce
 10
0.0
 20
0.0
 30
0.0
 70
   128
 71
   29
 72
   30
 73
   71
  0
VERTEX
  8
lettuce
 10
0.0
 20
0.0
 30
0.0
 70
   128
 71
   30
 72
   31
 73
   72
  0
VERTEX
  8
lettuce
 10
0.0
 20
0.0
 30
0.0
 70
   128
 71
   31
 72
   32
 73
   73
  0
VERTEX
  8
lettuce
 10
0.0
 20
0.0
 30
0.0
 70
   128
 71
   32
 72
   33
 73
   74
  0
VERTEX
  8
lettuce
 10
0.0
 20
0.0
 30
0.0
 70
   128
 71
   33
 72
   34
 73
   75
  0
VERTEX
  8
lettuce
 10
0.0
 20
0.0
 30
0.0
 70
   128
 71
   34
 72
   35
 73
   76
  0
VERTEX
  8
lettuce
 10
0.0
 20
0.0
 30
0.0
 70
   128
 71
   35
 72
   36
 73
   77
  0
VERTEX
  8
lettuce
 10
0.0
 20
0.0
 30
0.0
 70
   128
 71
   36
 72
   37
 73
   78
  0
VERTEX
  8
lettuce
 10
0.0
 20
0.0
 30
0.0
 70
   128
 71
   37
 72
   38
 73
   79
  0
VERTEX
  8
lettuce
 10
0.0
 20
0.0
 30
0.0
 70
   128
 71
   38
 72
   39
 73
   80
  0
VERTEX
  8
lettuce
 10
0.0
 20
0.0
 30
0.0
 70
   128
 71
   39
 72
   40
 73
   81
  0
VERTEX
  8
lettuce
 10
0.0
 20
0.0
 30
0.0
 70
   128
 71
   40
 72
   41
 73
   82
  0
VERTEX
  8
lettuce
 10
0.0
 20
0.0
 30
0.0
 70
   128
 71
   41
 72
   1
 73
   42
  0
VERTEX
  8
lettuce
 10
0.0
 20
0.0
 30
0.0
 70
   128
 71
   3
 72
   1
 73
   5
  0
VERTEX
  8
lettuce
 10
0.0
 20
0.0
 30
0.0
 70
   128
 71
   1
 72
   41
 73
   39
  0
VERTEX
  8
lettuce
 10
0.0
 20
0.0
 30
0.0
 70
   128
 71
   1
 72
   3
 73
   2
  0
VERTEX
  8
lettuce
 10
0.0
 20
0.0
 30
0.0
 70
   128
 71
   42
 72
   43
 73
   44
  0
VERTEX
  8
lettuce
 10
0.0
 20
0.0
 30
0.0
 70
   128
 71
   46
 72
   42
 73
   44
  0
VERTEX
  8
lettuce
 10
0.0
 20
0.0
 30
0.0
 70
   128
 71
   41
 72
   40
 73
   39
  0
VERTEX
  8
lettuce
 10
0.0
 20
0.0
 30
0.0
 70
   128
 71
   5
 72
   39
 73
   34
  0
VERTEX
  8
lettuce
 10
0.0
 20
0.0
 30
0.0
 70
   128
 71
   34
 72
   39
 73
   38
  0
VERTEX
  8
lettuce
 10
0.0
 20
0.0
 30
0.0
 70
   128
 71
   35
 72
   38
 73
   37
  0
VERTEX
  8
lettuce
 10
0.0
 20
0.0
 30
0.0
 70
   128
 71
   6
 72
   34
 73
   24
  0
VERTEX
  8
lettuce
 10
0.0
 20
0.0
 30
0.0
 70
   128
 71
   75
 72
   80
 73
   46
  0
VERTEX
  8
lettuce
 10
0.0
 20
0.0
 30
0.0
 70
   128
 71
   65
 72
   75
 73
   47
  0
VERTEX
  8
lettuce
 10
0.0
 20
0.0
 30
0.0
 70
   128
 71
   47
 72
   48
 73
   51
  0
VERTEX
  8
lettuce
 10
0.0
 20
0.0
 30
0.0
 70
   128
 71
   34
 72
   33
 73
   30
  0
VERTEX
  8
lettuce
 10
0.0
 20
0.0
 30
0.0
 70
   128
 71
   24
 72
   34
 73
   29
  0
VERTEX
  8
lettuce
 10
0.0
 20
0.0
 30
0.0
 70
   128
 71
   30
 72
   33
 73
   32
  0
VERTEX
  8
lettuce
 10
0.0
 20
0.0
 30
0.0
 70
   128
 71
   29
 72
   28
 73
   27
  0
VERTEX
  8
lettuce
 10
0.0
 20
0.0
 30
0.0
 70
   128
 71
   29
 72
   27
 73
   26
  0
VERTEX
  8
lettuce
 10
0.0
 20
0.0
 30
0.0
 70
   128
 71
   19
 72
   24
 73
   23
  0
VERTEX
  8
lettuce
 10
0.0
 20
0.0
 30
0.0
 70
   128
 71
   24
 72
   19
 73
   12
  0
VERTEX
  8
lettuce
 10
0.0
 20
0.0
 30
0.0
 70
   128
 71
   48
 72
   49
 73
   50
  0
VERTEX
  8
lettuce
 10
0.0
 20
0.0
 30
0.0
 70
   128
 71
   65
 72
   52
 73
   53
  0
VERTEX
  8
lettuce
 10
0.0
 20
0.0
 30
0.0
 70
   128
 71
   53
 72
   54
 73
   57
  0
VERTEX
  8
lettuce
 10
0.0
 20
0.0
 30
0.0
 70
   128
 71
   23
 72
   22
 73
   21
  0
VERTEX
  8
lettuce
 10
0.0
 20
0.0
 30
0.0
 70
   128
 71
   12
 72
   19
 73
   18
  0
VERTEX
  8
lettuce
 10
0.0
 20
0.0
 30
0.0
 70
   128
 71
   12
 72
   17
 73
   16
  0
VERTEX
  8
lettuce
 10
0.0
 20
0.0
 30
0.0
 70
   128
 71
   13
 72
   16
 73
   15
  0
VERTEX
  8
lettuce
 10
0.0
 20
0.0
 30
0.0
 70
   128
 71
   6
 72
   11
 73
   10
  0
VERTEX
  8
lettuce
 10
0.0
 20
0.0
 30
0.0
 70
   128
 71
   7
 72
   10
 73
   9
  0
VERTEX
  8
lettuce
 10
0.0
 20
0.0
 30
0.0
 70
   128
 71
   53
 72
   58
 73
   59
  0
VERTEX
  8
lettuce
 10
0.0
 20
0.0
 30
0.0
 70
   128
 71
   54
 72
   55
 73
   56
  0
VERTEX
  8
lettuce
 10
0.0
 20
0.0
 30
0.0
 70
   128
 71
   60
 72
   61
 73
   64
  0
VERTEX
  8
lettuce
 10
0.0
 20
0.0
 30
0.0
 70
   128
 71
   64
 72
   61
 73
   62
  0
VERTEX
  8
lettuce
 10
0.0
 20
0.0
 30
0.0
 70
   128
 71
   65
 72
   66
 73
   70
  0
VERTEX
  8
lettuce
 10
0.0
 20
0.0
 30
0.0
 70
   128
 71
   70
 72
   66
 73
   67
  0
VERTEX
  8
lettuce
 10
0.0
 20
0.0
 30
0.0
 70
   128
 71
   68
 72
   69
 73
   70
  0
VERTEX
  8
lettuce
 10
0.0
 20
0.0
 30
0.0
 70
   128
 71
   75
 72
   70
 73
   71
  0
VERTEX
  8
lettuce
 10
0.0
 20
0.0
 30
0.0
 70
   128
 71
   71
 72
   72
 73
   73
  0
VERTEX
  8
lettuce
 10
0.0
 20
0.0
 30
0.0
 70
   128
 71
   75
 72
   76
 73
   79
  0
VERTEX
  8
lettuce
 10
0.0
 20
0.0
 30
0.0
 70
   128
 71
   76
 72
   77
 73
   78
  0
VERTEX
  8
lettuce
 10
0.0
 20
0.0
 30
0.0
 70
   128
 71
   80
 72
   82
 73
   42
  0
VERTEX
  8
lettuce
 10
0.0
 20
0.0
 30
0.0
 70
   128
 71
   80
 72
   81
 73
   82
  0
VERTEX
  8
lettuce
 10
0.0
 20
0.0
 30
0.0
 70
   128
 71
   1
 72
   43
 73
   42
  0
VERTEX
  8
lettuce
 10
0.0
 20
0.0
 30
0.0
 70
   128
 71
   2
 72
   44
 73
   43
  0
VERTEX
  8
lettuce
 10
0.0
 20
0.0
 30
0.0
 70
   128
 71
   3
 72
   45
 73
   44
  0
VERTEX
  8
lettuce
 10
0.0
 20
0.0
 30
0.0
 70
   128
 71
   4
 72
   46
 73
   45
  0
VERTEX
  8
lettuce
 10
0.0
 20
0.0
 30
0.0
 70
   128
 71
   5
 72
   47
 73
   46
  0
VERTEX
  8
lettuce
 10
0.0
 20
0.0
 30
0.0
 70
   128
 71
   6
 72
   48
 73
   47
  0
VERTEX
  8
lettuce
 10
0.0
 20
0.0
 30
0.0
 70
   128
 71
   7
 72
   49
 73
   48
  0
VERTEX
  8
lettuce
 10
0.0
 20
0.0
 30
0.0
 70
   128
 71
   8
 72
   50
 73
   49
  0
VERTEX
  8
lettuce
 10
0.0
 20
0.0
 30
0.0
 70
   128
 71
   9
 72
   51
 73
   50
  0
VERTEX
  8
lettuce
 10
0.0
 20
0.0
 30
0.0
 70
   128
 71
   10
 72
   52
 73
   51
  0
VERTEX
  8
lettuce
 10
0.0
 20
0.0
 30
0.0
 70
   128
 71
   11
 72
   53
 73
   52
  0
VERTEX
  8
lettuce
 10
0.0
 20
0.0
 30
0.0
 70
   128
 71
   12
 72
   54
 73
   53
  0
VERTEX
  8
lettuce
 10
0.0
 20
0.0
 30
0.0
 70
   128
 71
   13
 72
   55
 73
   54
  0
VERTEX
  8
lettuce
 10
0.0
 20
0.0
 30
0.0
 70
   128
 71
   14
 72
   56
 73
   55
  0
VERTEX
  8
lettuce
 10
0.0
 20
0.0
 30
0.0
 70
   128
 71
   15
 72
   57
 73
   56
  0
VERTEX
  8
lettuce
 10
0.0
 20
0.0
 30
0.0
 70
   128
 71
   16
 72
   58
 73
   57
  0
VERTEX
  8
lettuce
 10
0.0
 20
0.0
 30
0.0
 70
   128
 71
   17
 72
   59
 73
   58
  0
VERTEX
  8
lettuce
 10
0.0
 20
0.0
 30
0.0
 70
   128
 71
   18
 72
   60
 73
   59
  0
VERTEX
  8
lettuce
 10
0.0
 20
0.0
 30
0.0
 70
   128
 71
   19
 72
   61
 73
   60
  0
VERTEX
  8
lettuce
 10
0.0
 20
0.0
 30
0.0
 70
   128
 71
   20
 72
   62
 73
   61
  0
VERTEX
  8
lettuce
 10
0.0
 20
0.0
 30
0.0
 70
   128
 71
   21
 72
   63
 73
   62
  0
VERTEX
  8
lettuce
 10
0.0
 20
0.0
 30
0.0
 70
   128
 71
   22
 72
   64
 73
   63
  0
VERTEX
  8
lettuce
 10
0.0
 20
0.0
 30
0.0
 70
   128
 71
   23
 72
   65
 73
   64
  0
VERTEX
  8
lettuce
 10
0.0
 20
0.0
 30
0.0
 70
   128
 71
   24
 72
   66
 73
   65
  0
VERTEX
  8
lettuce
 10
0.0
 20
0.0
 30
0.0
 70
   128
 71
   25
 72
   67
 73
   66
  0
VERTEX
  8
lettuce
 10
0.0
 20
0.0
 30
0.0
 70
   128
 71
   26
 72
   68
 73
   67
  0
VERTEX
  8
lettuce
 10
0.0
 20
0.0
 30
0.0
 70
   128
 71
   27
 72
   69
 73
   68
  0
VERTEX
  8
lettuce
 10
0.0
 20
0.0
 30
0.0
 70
   128
 71
   28
 72
   70
 73
   69
  0
VERTEX
  8
lettuce
 10
0.0
 20
0.0
 30
0.0
 70
   128
 71
   29
 72
   71
 73
   70
  0
VERTEX
  8
lettuce
 10
0.0
 20
0.0
 30
0.0
 70
   128
 71
   30
 72
   72
 73
   71
  0
VERTEX
  8
lettuce
 10
0.0
 20
0.0
 30
0.0
 70
   128
 71
   31
 72
   73
 73
   72
  0
VERTEX
  8
lettuce
 10
0.0
 20
0.0
 30
0.0
 70
   128
 71
   32
 72
   74
 73
   73
  0
VERTEX
  8
lettuce
 10
0.0
 20
0.0
 30
0.0
 70
   128
 71
   33
 72
   75
 73
   74
  0
VERTEX
  8
lettuce
 10
0.0
 20
0.0
 30
0.0
 70
   128
 71
   34
 72
   76
 73
   75
  0
VERTEX
  8
lettuce
 10
0.0
 20
0.0
 30
0.0
 70
   128
 71
   35
 72
   77
 73
   76
  0
VERTEX
  8
lettuce
 10
0.0
 20
0.0
 30
0.0
 70
   128
 71
   36
 72
   78
 73
   77
  0
VERTEX
  8
lettuce
 10
0.0
 20
0.0
 30
0.0
 70
   128
 71
   37
 72
   79
 73
   78
  0
VERTEX
  8
lettuce
 10
0.0
 20
0.0
 30
0.0
 70
   128
 71
   38
 72
   80
 73
   79
  0
VERTEX
  8
lettuce
 10
0.0
 20
0.0
 30
0.0
 70
   128
 71
   39
 72
   81
 73
   80
  0
VERTEX
  8
lettuce
 10
0.0
 20
0.0
 30
0.0
 70
   128
 71
   40
 72
   82
 73
   81
  0
VERTEX
  8
lettuce
 10
0.0
 20
0.0
 30
0.0
 70
   128
 71
   41
 72
   42
 73
   82
  0
VERTEX
  8
lettuce
 10
0.0
 20
0.0
 30
0.0
 70
   128
 71
   3
 72
   5
 73
   4
  0
VERTEX
  8
lettuce
 10
0.0
 20
0.0
 30
0.0
 70
   128
 71
   1
 72
   39
 73
   5
  0
VERTEX
  8
lettuce
 10
0.0
 20
0.0
 30
0.0
 70
   128
 71
   46
 72
   44
 73
   45
  0
VERTEX
  8
lettuce
 10
0.0
 20
0.0
 30
0.0
 70
   128
 71
   5
 72
   34
 73
   6
  0
VERTEX
  8
lettuce
 10
0.0
 20
0.0
 30
0.0
 70
   128
 71
   34
 72
   38
 73
   35
  0
VERTEX
  8
lettuce
 10
0.0
 20
0.0
 30
0.0
 70
   128
 71
   35
 72
   37
 73
   36
  0
VERTEX
  8
lettuce
 10
0.0
 20
0.0
 30
0.0
 70
   128
 71
   6
 72
   24
 73
   11
  0
VERTEX
  8
lettuce
 10
0.0
 20
0.0
 30
0.0
 70
   128
 71
   75
 72
   46
 73
   47
  0
VERTEX
  8
lettuce
 10
0.0
 20
0.0
 30
0.0
 70
   128
 71
   65
 72
   47
 73
   52
  0
VERTEX
  8
lettuce
 10
0.0
 20
0.0
 30
0.0
 70
   128
 71
   47
 72
   51
 73
   52
  0
VERTEX
  8
lettuce
 10
0.0
 20
0.0
 30
0.0
 70
   128
 71
   34
 72
   30
 73
   29
  0
VERTEX
  8
lettuce
 10
0.0
 20
0.0
 30
0.0
 70
   128
 71
   24
 72
   29
 73
   25
  0
VERTEX
  8
lettuce
 10
0.0
 20
0.0
 30
0.0
 70
   128
 71
   30
 72
   32
 73
   31
  0
VERTEX
  8
lettuce
 10
0.0
 20
0.0
 30
0.0
 70
   128
 71
   29
 72
   26
 73
   25
  0
VERTEX
  8
lettuce
 10
0.0
 20
0.0
 30
0.0
 70
   128
 71
   19
 72
   23
 73
   20
  0
VERTEX
  8
lettuce
 10
0.0
 20
0.0
 30
0.0
 70
   128
 71
   24
 72
   12
 73
   11
  0
VERTEX
  8
lettuce
 10
0.0
 20
0.0
 30
0.0
 70
   128
 71
   48
 72
   50
 73
   51
  0
VERTEX
  8
lettuce
 10
0.0
 20
0.0
 30
0.0
 70
   128
 71
   65
 72
   53
 73
   60
  0
VERTEX
  8
lettuce
 10
0.0
 20
0.0
 30
0.0
 70
   128
 71
   53
 72
   57
 73
   58
  0
VERTEX
  8
lettuce
 10
0.0
 20
0.0
 30
0.0
 70
   128
 71
   23
 72
   21
 73
   20
  0
VERTEX
  8
lettuce
 10
0.0
 20
0.0
 30
0.0
 70
   128
 71
   12
 72
   18
 73
   17
  0
VERTEX
  8
lettuce
 10
0.0
 20
0.0
 30
0.0
 70
   128
 71
   12
 72
   16
 73
   13
  0
VERTEX
  8
lettuce
 10
0.0
 20
0.0
 30
0.0
 70
   128
 71
   13
 72
   15
 73
   14
  0
VERTEX
  8
lettuce
 10
0.0
 20
0.0
 30
0.0
 70
   128
 71
   6
 72
   10
 73
   7
  0
VERTEX
  8
lettuce
 10
0.0
 20
0.0
 30
0.0
 70
   128
 71
   7
 72
   9
 73
   8
  0
VERTEX
  8
lettuce
 10
0.0
 20
0.0
 30
0.0
 70
   128
 71
   53
 72
   59
 73
   60
  0
VERTEX
  8
lettuce
 10
0.0
 20
0.0
 30
0.0
 70
   128
 71
   54
 72
   56
 73
   57
  0
VERTEX
  8
lettuce
 10
0.0
 20
0.0
 30
0.0
 70
   128
 71
   60
 72
   64
 73
   65
  0
VERTEX
  8
lettuce
 10
0.0
 20
0.0
 30
0.0
 70
   128
 71
   64
 72
   62
 73
   63
  0
VERTEX
  8
lettuce
 10
0.0
 20
0.0
 30
0.0
 70
   128
 71
   65
 72
   70
 73
   75
  0
VERTEX
  8
lettuce
 10
0.0
 20
0.0
 30
0.0
 70
   128
 71
   70
 72
   67
 73
   68
  0
VERTEX
  8
lettuce
 10
0.0
 20
0.0
 30
0.0
 70
   128
 71
   75
 72
   71
 73
   74
  0
VERTEX
  8
lettuce
 10
0.0
 20
0.0
 30
0.0
 70
   128
 71
   71
 72
   73
 73
   74
  0
VERTEX
  8
lettuce
 10
0.0
 20
0.0
 30
0.0
 70
   128
 71
   75
 72
   79
 73
   80
  0
VERTEX
  8
lettuce
 10
0.0
 20
0.0
 30
0.0
 70
   128
 71
   76
 72
   78
 73
   79
  0
VERTEX
  8
lettuce
 10
0.0
 20
0.0
 30
0.0
 70
   128
 71
   80
 72
   42
 73
   46
  0
SEQEND
  0
POLYLINE
  8
lettuce_1
 66
   1
 10
0.0
 20
0.0
 30
0.0
 70
   64
 71
   82
 72
   160
  0
VERTEX
  8
lettuce_1
 10
74.717281
 20
68.392091
 30
-39.082624
 70
   192
  0
VERTEX
  8
lettuce_1
 10
80.059945
 20
68.273615
 30
-30.647344
 70
   192
  0
VERTEX
  8
lettuce_1
 10
81.199444
 20
68.415429
 30
-14.249050
 70
   192
  0
VERTEX
  8
lettuce_1
 10
77.802041
 20
68.601845
 30
-3.649882
 70
   192
  0
VERTEX
  8
lettuce_1
 10
66.305803
 20
68.633645
 30
2.629823
 70
   192
  0
VERTEX
  8
lettuce_1
 10
63.238325
 20
68.683693
 30
16.359115
 70
   192
  0
VERTEX
  8
lettuce_1
 10
68.942110
 20
68.570493
 30
33.816047
 70
   192
  0
VERTEX
  8
lettuce_1
 10
70.818996
 20
68.257657
 30
48.025934
 70
   192
  0
VERTEX
  8
lettuce_1
 10
65.041958
 20
68.335292
 30
63.353303
 70
   192
  0
VERTEX
  8
lettuce_1
 10
50.182825
 20
68.687171
 30
72.329609
 70
   192
  0
VERTEX
  8
lettuce_1
 10
39.155866
 20
69.070265
 30
72.854180
 70
   192
  0
VERTEX
  8
lettuce_1
 10
30.408376
 20
69.038148
 30
84.511118
 70
   192
  0
VERTEX
  8
lettuce_1
 10
30.004293
 20
68.527190
 30
98.099061
 70
   192
  0
VERTEX
  8
lettuce_1
 10
28.085745
 20
68.280020
 30
108.637818
 70
   192
  0
VERTEX
  8
lettuce_1
 10
20.411492
 20
68.178553
 30
120.801516
 70
   192
  0
VERTEX
  8
lettuce_1
 10
8.187420
 20
68.333540
 30
127.181422
 70
   192
  0
VERTEX
  8
lettuce_1
 10
-22.366496
 20
68.981789
 30
131.489819
 70
   192
  0
VERTEX
  8
lettuce_1
 10
-38.697013
 20
68.545662
 30
120.464290
 70
   192
  0
VERTEX
  8
lettuce_1
 10
-52.497583
 20
68.505569
 30
104.018130
 70
   192
  0
VERTEX
  8
lettuce_1
 10
-65.475201
 20
68.159647
 30
91.828988
 70
   192
  0
VERTEX
  8
lettuce_1
 10
-77.688093
 20
68.164895
 30
71.730186
 70
   192
  0
VERTEX
  8
lettuce_1
 10
-80.019879
 20
68.325179
 30
49.023630
 70
   192
  0
VERTEX
  8
lettuce_1
 10
-74.635727
 20
68.549213
 30
29.501074
 70
   192
  0
VERTEX
  8
lettuce_1
 10
-66.240185
 20
68.863094
 30
7.861880
 70
   192
  0
VERTEX
  8
lettuce_1
 10
-71.918496
 20
68.528064
 30
-7.374550
 70
   192
  0
VERTEX
  8
lettuce_1
 10
-81.026876
 20
68.098412
 30
-32.755286
 70
   192
  0
VERTEX
  8
lettuce_1
 10
-80.291043
 20
68.116534
 30
-60.229038
 70
   192
  0
VERTEX
  8
lettuce_1
 10
-67.689292
 20
68.358999
 30
-75.557413
 70
   192
  0
VERTEX
  8
lettuce_1
 10
-56.615811
 20
68.763473
 30
-76.567473
 70
   192
  0
VERTEX
  8
lettuce_1
 10
-44.796114
 20
68.813220
 30
-90.714552
 70
   192
  0
VERTEX
  8
lettuce_1
 10
-43.273777
 20
68.016751
 30
-106.895995
 70
   192
  0
VERTEX
  8
lettuce_1
 10
-32.191027
 20
67.882993
 30
-115.381749
 70
   192
  0
VERTEX
  8
lettuce_1
 10
-14.968032
 20
68.842334
 30
-104.469898
 70
   192
  0
VERTEX
  8
lettuce_1
 10
-2.043333
 20
68.986607
 30
-94.556956
 70
   192
  0
VERTEX
  8
lettuce_1
 10
15.410396
 20
68.385682
 30
-109.796298
 70
   192
  0
VERTEX
  8
lettuce_1
 10
31.106298
 20
68.172207
 30
-114.094817
 70
   192
  0
VERTEX
  8
lettuce_1
 10
41.152128
 20
68.360494
 30
-99.406551
 70
   192
  0
VERTEX
  8
lettuce_1
 10
46.434690
 20
68.408774
 30
-82.455925
 70
   192
  0
VERTEX
  8
lettuce_1
 10
53.738568
 20
68.387003
 30
-72.922760
 70
   192
  0
VERTEX
  8
lettuce_1
 10
67.852147
 20
68.218641
 30
-74.495350
 70
   192
  0
VERTEX
  8
lettuce_1
 10
73.562419
 20
68.281310
 30
-57.107452
 70
   192
  0
VERTEX
  8
lettuce_1
 10
74.761887
 20
75.488784
 30
-39.179004
 70
   192
  0
VERTEX
  8
lettuce_1
 10
80.133051
 20
75.495355
 30
-30.714587
 70
   192
  0
VERTEX
  8
lettuce_1
 10
81.266927
 20
75.588117
 30
-14.367685
 70
   192
  0
VERTEX
  8
lettuce_1
 10
77.811320
 20
75.733988
 30
-3.792621
 70
   192
  0
VERTEX
  8
lettuce_1
 10
66.333852
 20
75.745848
 30
2.538225
 70
   192
  0
VERTEX
  8
lettuce_1
 10
63.260440
 20
75.821541
 30
16.335550
 70
   192
  0
VERTEX
  8
lettuce_1
 10
69.010015
 20
75.800100
 30
33.780370
 70
   192
  0
VERTEX
  8
lettuce_1
 10
70.989768
 20
75.507169
 30
48.083904
 70
   192
  0
VERTEX
  8
lettuce_1
 10
65.302939
 20
75.538720
 30
63.370123
 70
   192
  0
VERTEX
  8
lettuce_1
 10
50.360918
 20
75.952023
 30
72.344456
 70
   192
  0
VERTEX
  8
lettuce_1
 10
39.188865
 20
76.150682
 30
72.860371
 70
   192
  0
VERTEX
  8
lettuce_1
 10
30.354883
 20
76.133684
 30
84.542936
 70
   192
  0
VERTEX
  8
lettuce_1
 10
30.111213
 20
75.775279
 30
98.487733
 70
   192
  0
VERTEX
  8
lettuce_1
 10
28.235343
 20
75.520119
 30
109.112154
 70
   192
  0
VERTEX
  8
lettuce_1
 10
20.588892
 20
75.379482
 30
121.211184
 70
   192
  0
VERTEX
  8
lettuce_1
 10
8.316809
 20
75.492439
 30
127.493060
 70
   192
  0
VERTEX
  8
lettuce_1
 10
-22.300258
 20
76.019695
 30
131.572039
 70
   192
  0
VERTEX
  8
lettuce_1
 10
-38.833030
 20
75.725946
 30
120.378756
 70
   192
  0
VERTEX
  8
lettuce_1
 10
-52.553287
 20
75.599217
 30
104.051860
 70
   192
  0
VERTEX
  8
lettuce_1
 10
-65.588465
 20
75.361080
 30
91.945594
 70
   192
  0
VERTEX
  8
lettuce_1
 10
-77.834849
 20
75.279583
 30
71.901355
 70
   192
  0
VERTEX
  8
lettuce_1
 10
-80.112453
 20
75.473355
 30
49.196898
 70
   192
  0
VERTEX
  8
lettuce_1
 10
-74.721228
 20
75.714157
 30
29.645421
 70
   192
  0
VERTEX
  8
lettuce_1
 10
-66.288819
 20
75.965008
 30
7.944530
 70
   192
  0
VERTEX
  8
lettuce_1
 10
-72.064388
 20
75.747850
 30
-7.477026
 70
   192
  0
VERTEX
  8
lettuce_1
 10
-81.266927
 20
75.259338
 30
-32.791766
 70
   192
  0
VERTEX
  8
lettuce_1
 10
-80.522358
 20
75.311603
 30
-60.249080
 70
   192
  0
VERTEX
  8
lettuce_1
 10
-67.920651
 20
75.597355
 30
-75.534263
 70
   192
  0
VERTEX
  8
lettuce_1
 10
-56.798919
 20
75.828853
 30
-76.601837
 70
   192
  0
VERTEX
  8
lettuce_1
 10
-44.909236
 20
75.795287
 30
-90.958323
 70
   192
  0
VERTEX
  8
lettuce_1
 10
-43.415816
 20
75.397847
 30
-107.572831
 70
   192
  0
VERTEX
  8
lettuce_1
 10
-32.352584
 20
75.141646
 30
-115.947993
 70
   192
  0
VERTEX
  8
lettuce_1
 10
-15.223389
 20
75.934837
 30
-104.717457
 70
   192
  0
VERTEX
  8
lettuce_1
 10
-2.110950
 20
76.082195
 30
-94.575862
 70
   192
  0
VERTEX
  8
lettuce_1
 10
15.582221
 20
75.567162
 30
-110.072406
 70
   192
  0
VERTEX
  8
lettuce_1
 10
31.219961
 20
75.337270
 30
-114.296412
 70
   192
  0
VERTEX
  8
lettuce_1
 10
41.118153
 20
75.467992
 30
-99.472431
 70
   192
  0
VERTEX
  8
lettuce_1
 10
46.438496
 20
75.518149
 30
-82.476282
 70
   192
  0
VERTEX
  8
lettuce_1
 10
53.684441
 20
75.526120
 30
-72.958670
 70
   192
  0
VERTEX
  8
lettuce_1
 10
67.861365
 20
75.525422
 30
-74.551871
 70
   192
  0
VERTEX
  8
lettuce_1
 10
73.612648
 20
75.440324
 30
-57.115850
 70
   192
  0
VERTEX
  8
lettuce_1
 10
0.0
 20
0.0
 30
0.0
 70
   128
 71
   1
 72
   2
 73
   43
  0
VERTEX
  8
lettuce_1
 10
0.0
 20
0.0
 30
0.0
 70
   128
 71
   2
 72
   3
 73
   44
  0
VERTEX
  8
lettuce_1
 10
0.0
 20
0.0
 30
0.0
 70
   128
 71
   3
 72
   4
 73
   45
  0
VERTEX
  8
lettuce_1
 10
0.0
 20
0.0
 30
0.0
 70
   128
 71
   4
 72
   5
 73
   46
  0
VERTEX
  8
lettuce_1
 10
0.0
 20
0.0
 30
0.0
 70
   128
 71
   5
 72
   6
 73
   47
  0
VERTEX
  8
lettuce_1
 10
0.0
 20
0.0
 30
0.0
 70
   128
 71
   6
 72
   7
 73
   48
  0
VERTEX
  8
lettuce_1
 10
0.0
 20
0.0
 30
0.0
 70
   128
 71
   7
 72
   8
 73
   49
  0
VERTEX
  8
lettuce_1
 10
0.0
 20
0.0
 30
0.0
 70
   128
 71
   8
 72
   9
 73
   50
  0
VERTEX
  8
lettuce_1
 10
0.0
 20
0.0
 30
0.0
 70
   128
 71
   9
 72
   10
 73
   51
  0
VERTEX
  8
lettuce_1
 10
0.0
 20
0.0
 30
0.0
 70
   128
 71
   10
 72
   11
 73
   52
  0
VERTEX
  8
lettuce_1
 10
0.0
 20
0.0
 30
0.0
 70
   128
 71
   11
 72
   12
 73
   53
  0
VERTEX
  8
lettuce_1
 10
0.0
 20
0.0
 30
0.0
 70
   128
 71
   12
 72
   13
 73
   54
  0
VERTEX
  8
lettuce_1
 10
0.0
 20
0.0
 30
0.0
 70
   128
 71
   13
 72
   14
 73
   55
  0
VERTEX
  8
lettuce_1
 10
0.0
 20
0.0
 30
0.0
 70
   128
 71
   14
 72
   15
 73
   56
  0
VERTEX
  8
lettuce_1
 10
0.0
 20
0.0
 30
0.0
 70
   128
 71
   15
 72
   16
 73
   57
  0
VERTEX
  8
lettuce_1
 10
0.0
 20
0.0
 30
0.0
 70
   128
 71
   16
 72
   17
 73
   58
  0
VERTEX
  8
lettuce_1
 10
0.0
 20
0.0
 30
0.0
 70
   128
 71
   17
 72
   18
 73
   59
  0
VERTEX
  8
lettuce_1
 10
0.0
 20
0.0
 30
0.0
 70
   128
 71
   18
 72
   19
 73
   60
  0
VERTEX
  8
lettuce_1
 10
0.0
 20
0.0
 30
0.0
 70
   128
 71
   19
 72
   20
 73
   61
  0
VERTEX
  8
lettuce_1
 10
0.0
 20
0.0
 30
0.0
 70
   128
 71
   20
 72
   21
 73
   62
  0
VERTEX
  8
lettuce_1
 10
0.0
 20
0.0
 30
0.0
 70
   128
 71
   21
 72
   22
 73
   63
  0
VERTEX
  8
lettuce_1
 10
0.0
 20
0.0
 30
0.0
 70
   128
 71
   22
 72
   23
 73
   64
  0
VERTEX
  8
lettuce_1
 10
0.0
 20
0.0
 30
0.0
 70
   128
 71
   23
 72
   24
 73
   65
  0
VERTEX
  8
lettuce_1
 10
0.0
 20
0.0
 30
0.0
 70
   128
 71
   24
 72
   25
 73
   66
  0
VERTEX
  8
lettuce_1
 10
0.0
 20
0.0
 30
0.0
 70
   128
 71
   25
 72
   26
 73
   67
  0
VERTEX
  8
lettuce_1
 10
0.0
 20
0.0
 30
0.0
 70
   128
 71
   26
 72
   27
 73
   68
  0
VERTEX
  8
lettuce_1
 10
0.0
 20
0.0
 30
0.0
 70
   128
 71
   27
 72
   28
 73
   69
  0
VERTEX
  8
lettuce_1
 10
0.0
 20
0.0
 30
0.0
 70
   128
 71
   28
 72
   29
 73
   70
  0
VERTEX
  8
lettuce_1
 10
0.0
 20
0.0
 30
0.0
 70
   128
 71
   29
 72
   30
 73
   71
  0
VERTEX
  8
lettuce_1
 10
0.0
 20
0.0
 30
0.0
 70
   128
 71
   30
 72
   31
 73
   72
  0
VERTEX
  8
lettuce_1
 10
0.0
 20
0.0
 30
0.0
 70
   128
 71
   31
 72
   32
 73
   73
  0
VERTEX
  8
lettuce_1
 10
0.0
 20
0.0
 30
0.0
 70
   128
 71
   32
 72
   33
 73
   74
  0
VERTEX
  8
lettuce_1
 10
0.0
 20
0.0
 30
0.0
 70
   128
 71
   33
 72
   34
 73
   75
  0
VERTEX
  8
lettuce_1
 10
0.0
 20
0.0
 30
0.0
 70
   128
 71
   34
 72
   35
 73
   76
  0
VERTEX
  8
lettuce_1
 10
0.0
 20
0.0
 30
0.0
 70
   128
 71
   35
 72
   36
 73
   77
  0
VERTEX
  8
lettuce_1
 10
0.0
 20
0.0
 30
0.0
 70
   128
 71
   36
 72
   37
 73
   78
  0
VERTEX
  8
lettuce_1
 10
0.0
 20
0.0
 30
0.0
 70
   128
 71
   37
 72
   38
 73
   79
  0
VERTEX
  8
lettuce_1
 10
0.0
 20
0.0
 30
0.0
 70
   128
 71
   38
 72
   39
 73
   80
  0
VERTEX
  8
lettuce_1
 10
0.0
 20
0.0
 30
0.0
 70
   128
 71
   39
 72
   40
 73
   81
  0
VERTEX
  8
lettuce_1
 10
0.0
 20
0.0
 30
0.0
 70
   128
 71
   40
 72
   41
 73
   82
  0
VERTEX
  8
lettuce_1
 10
0.0
 20
0.0
 30
0.0
 70
   128
 71
   41
 72
   1
 73
   42
  0
VERTEX
  8
lettuce_1
 10
0.0
 20
0.0
 30
0.0
 70
   128
 71
   3
 72
   1
 73
   5
  0
VERTEX
  8
lettuce_1
 10
0.0
 20
0.0
 30
0.0
 70
   128
 71
   1
 72
   41
 73
   39
  0
VERTEX
  8
lettuce_1
 10
0.0
 20
0.0
 30
0.0
 70
   128
 71
   1
 72
   3
 73
   2
  0
VERTEX
  8
lettuce_1
 10
0.0
 20
0.0
 30
0.0
 70
   128
 71
   42
 72
   43
 73
   44
  0
VERTEX
  8
lettuce_1
 10
0.0
 20
0.0
 30
0.0
 70
   128
 71
   46
 72
   42
 73
   44
  0
VERTEX
  8
lettuce_1
 10
0.0
 20
0.0
 30
0.0
 70
   128
 71
   41
 72
   40
 73
   39
  0
VERTEX
  8
lettuce_1
 10
0.0
 20
0.0
 30
0.0
 70
   128
 71
   5
 72
   39
 73
   34
  0
VERTEX
  8
lettuce_1
 10
0.0
 20
0.0
 30
0.0
 70
   128
 71
   34
 72
   39
 73
   38
  0
VERTEX
  8
lettuce_1
 10
0.0
 20
0.0
 30
0.0
 70
   128
 71
   35
 72
   38
 73
   37
  0
VERTEX
  8
lettuce_1
 10
0.0
 20
0.0
 30
0.0
 70
   128
 71
   6
 72
   34
 73
   24
  0
VERTEX
  8
lettuce_1
 10
0.0
 20
0.0
 30
0.0
 70
   128
 71
   75
 72
   80
 73
   46
  0
VERTEX
  8
lettuce_1
 10
0.0
 20
0.0
 30
0.0
 70
   128
 71
   65
 72
   75
 73
   47
  0
VERTEX
  8
lettuce_1
 10
0.0
 20
0.0
 30
0.0
 70
   128
 71
   47
 72
   48
 73
   51
  0
VERTEX
  8
lettuce_1
 10
0.0
 20
0.0
 30
0.0
 70
   128
 71
   34
 72
   33
 73
   30
  0
VERTEX
  8
lettuce_1
 10
0.0
 20
0.0
 30
0.0
 70
   128
 71
   24
 72
   34
 73
   29
  0
VERTEX
  8
lettuce_1
 10
0.0
 20
0.0
 30
0.0
 70
   128
 71
   30
 72
   33
 73
   32
  0
VERTEX
  8
lettuce_1
 10
0.0
 20
0.0
 30
0.0
 70
   128
 71
   29
 72
   28
 73
   27
  0
VERTEX
  8
lettuce_1
 10
0.0
 20
0.0
 30
0.0
 70
   128
 71
   29
 72
   27
 73
   26
  0
VERTEX
  8
lettuce_1
 10
0.0
 20
0.0
 30
0.0
 70
   128
 71
   19
 72
   24
 73
   23
  0
VERTEX
  8
lettuce_1
 10
0.0
 20
0.0
 30
0.0
 70
   128
 71
   24
 72
   19
 73
   12
  0
VERTEX
  8
lettuce_1
 10
0.0
 20
0.0
 30
0.0
 70
   128
 71
   48
 72
   49
 73
   50
  0
VERTEX
  8
lettuce_1
 10
0.0
 20
0.0
 30
0.0
 70
   128
 71
   65
 72
   52
 73
   53
  0
VERTEX
  8
lettuce_1
 10
0.0
 20
0.0
 30
0.0
 70
   128
 71
   53
 72
   54
 73
   57
  0
VERTEX
  8
lettuce_1
 10
0.0
 20
0.0
 30
0.0
 70
   128
 71
   23
 72
   22
 73
   21
  0
VERTEX
  8
lettuce_1
 10
0.0
 20
0.0
 30
0.0
 70
   128
 71
   12
 72
   19
 73
   18
  0
VERTEX
  8
lettuce_1
 10
0.0
 20
0.0
 30
0.0
 70
   128
 71
   12
 72
   17
 73
   16
  0
VERTEX
  8
lettuce_1
 10
0.0
 20
0.0
 30
0.0
 70
   128
 71
   13
 72
   16
 73
   15
  0
VERTEX
  8
lettuce_1
 10
0.0
 20
0.0
 30
0.0
 70
   128
 71
   6
 72
   11
 73
   10
  0
VERTEX
  8
lettuce_1
 10
0.0
 20
0.0
 30
0.0
 70
   128
 71
   7
 72
   10
 73
   9
  0
VERTEX
  8
lettuce_1
 10
0.0
 20
0.0
 30
0.0
 70
   128
 71
   53
 72
   58
 73
   59
  0
VERTEX
  8
lettuce_1
 10
0.0
 20
0.0
 30
0.0
 70
   128
 71
   54
 72
   55
 73
   56
  0
VERTEX
  8
lettuce_1
 10
0.0
 20
0.0
 30
0.0
 70
   128
 71
   60
 72
   61
 73
   64
  0
VERTEX
  8
lettuce_1
 10
0.0
 20
0.0
 30
0.0
 70
   128
 71
   64
 72
   61
 73
   62
  0
VERTEX
  8
lettuce_1
 10
0.0
 20
0.0
 30
0.0
 70
   128
 71
   65
 72
   66
 73
   70
  0
VERTEX
  8
lettuce_1
 10
0.0
 20
0.0
 30
0.0
 70
   128
 71
   70
 72
   66
 73
   67
  0
VERTEX
  8
lettuce_1
 10
0.0
 20
0.0
 30
0.0
 70
   128
 71
   68
 72
   69
 73
   70
  0
VERTEX
  8
lettuce_1
 10
0.0
 20
0.0
 30
0.0
 70
   128
 71
   75
 72
   70
 73
   71
  0
VERTEX
  8
lettuce_1
 10
0.0
 20
0.0
 30
0.0
 70
   128
 71
   71
 72
   72
 73
   73
  0
VERTEX
  8
lettuce_1
 10
0.0
 20
0.0
 30
0.0
 70
   128
 71
   75
 72
   76
 73
   79
  0
VERTEX
  8
lettuce_1
 10
0.0
 20
0.0
 30
0.0
 70
   128
 71
   76
 72
   77
 73
   78
  0
VERTEX
  8
lettuce_1
 10
0.0
 20
0.0
 30
0.0
 70
   128
 71
   80
 72
   82
 73
   42
  0
VERTEX
  8
lettuce_1
 10
0.0
 20
0.0
 30
0.0
 70
   128
 71
   80
 72
   81
 73
   82
  0
VERTEX
  8
lettuce_1
 10
0.0
 20
0.0
 30
0.0
 70
   128
 71
   1
 72
   43
 73
   42
  0
VERTEX
  8
lettuce_1
 10
0.0
 20
0.0
 30
0.0
 70
   128
 71
   2
 72
   44
 73
   43
  0
VERTEX
  8
lettuce_1
 10
0.0
 20
0.0
 30
0.0
 70
   128
 71
   3
 72
   45
 73
   44
  0
VERTEX
  8
lettuce_1
 10
0.0
 20
0.0
 30
0.0
 70
   128
 71
   4
 72
   46
 73
   45
  0
VERTEX
  8
lettuce_1
 10
0.0
 20
0.0
 30
0.0
 70
   128
 71
   5
 72
   47
 73
   46
  0
VERTEX
  8
lettuce_1
 10
0.0
 20
0.0
 30
0.0
 70
   128
 71
   6
 72
   48
 73
   47
  0
VERTEX
  8
lettuce_1
 10
0.0
 20
0.0
 30
0.0
 70
   128
 71
   7
 72
   49
 73
   48
  0
VERTEX
  8
lettuce_1
 10
0.0
 20
0.0
 30
0.0
 70
   128
 71
   8
 72
   50
 73
   49
  0
VERTEX
  8
lettuce_1
 10
0.0
 20
0.0
 30
0.0
 70
   128
 71
   9
 72
   51
 73
   50
  0
VERTEX
  8
lettuce_1
 10
0.0
 20
0.0
 30
0.0
 70
   128
 71
   10
 72
   52
 73
   51
  0
VERTEX
  8
lettuce_1
 10
0.0
 20
0.0
 30
0.0
 70
   128
 71
   11
 72
   53
 73
   52
  0
VERTEX
  8
lettuce_1
 10
0.0
 20
0.0
 30
0.0
 70
   128
 71
   12
 72
   54
 73
   53
  0
VERTEX
  8
lettuce_1
 10
0.0
 20
0.0
 30
0.0
 70
   128
 71
   13
 72
   55
 73
   54
  0
VERTEX
  8
lettuce_1
 10
0.0
 20
0.0
 30
0.0
 70
   128
 71
   14
 72
   56
 73
   55
  0
VERTEX
  8
lettuce_1
 10
0.0
 20
0.0
 30
0.0
 70
   128
 71
   15
 72
   57
 73
   56
  0
VERTEX
  8
lettuce_1
 10
0.0
 20
0.0
 30
0.0
 70
   128
 71
   16
 72
   58
 73
   57
  0
VERTEX
  8
lettuce_1
 10
0.0
 20
0.0
 30
0.0
 70
   128
 71
   17
 72
   59
 73
   58
  0
VERTEX
  8
lettuce_1
 10
0.0
 20
0.0
 30
0.0
 70
   128
 71
   18
 72
   60
 73
   59
  0
VERTEX
  8
lettuce_1
 10
0.0
 20
0.0
 30
0.0
 70
   128
 71
   19
 72
   61
 73
   60
  0
VERTEX
  8
lettuce_1
 10
0.0
 20
0.0
 30
0.0
 70
   128
 71
   20
 72
   62
 73
   61
  0
VERTEX
  8
lettuce_1
 10
0.0
 20
0.0
 30
0.0
 70
   128
 71
   21
 72
   63
 73
   62
  0
VERTEX
  8
lettuce_1
 10
0.0
 20
0.0
 30
0.0
 70
   128
 71
   22
 72
   64
 73
   63
  0
VERTEX
  8
lettuce_1
 10
0.0
 20
0.0
 30
0.0
 70
   128
 71
   23
 72
   65
 73
   64
  0
VERTEX
  8
lettuce_1
 10
0.0
 20
0.0
 30
0.0
 70
   128
 71
   24
 72
   66
 73
   65
  0
VERTEX
  8
lettuce_1
 10
0.0
 20
0.0
 30
0.0
 70
   128
 71
   25
 72
   67
 73
   66
  0
VERTEX
  8
lettuce_1
 10
0.0
 20
0.0
 30
0.0
 70
   128
 71
   26
 72
   68
 73
   67
  0
VERTEX
  8
lettuce_1
 10
0.0
 20
0.0
 30
0.0
 70
   128
 71
   27
 72
   69
 73
   68
  0
VERTEX
  8
lettuce_1
 10
0.0
 20
0.0
 30
0.0
 70
   128
 71
   28
 72
   70
 73
   69
  0
VERTEX
  8
lettuce_1
 10
0.0
 20
0.0
 30
0.0
 70
   128
 71
   29
 72
   71
 73
   70
  0
VERTEX
  8
lettuce_1
 10
0.0
 20
0.0
 30
0.0
 70
   128
 71
   30
 72
   72
 73
   71
  0
VERTEX
  8
lettuce_1
 10
0.0
 20
0.0
 30
0.0
 70
   128
 71
   31
 72
   73
 73
   72
  0
VERTEX
  8
lettuce_1
 10
0.0
 20
0.0
 30
0.0
 70
   128
 71
   32
 72
   74
 73
   73
  0
VERTEX
  8
lettuce_1
 10
0.0
 20
0.0
 30
0.0
 70
   128
 71
   33
 72
   75
 73
   74
  0
VERTEX
  8
lettuce_1
 10
0.0
 20
0.0
 30
0.0
 70
   128
 71
   34
 72
   76
 73
   75
  0
VERTEX
  8
lettuce_1
 10
0.0
 20
0.0
 30
0.0
 70
   128
 71
   35
 72
   77
 73
   76
  0
VERTEX
  8
lettuce_1
 10
0.0
 20
0.0
 30
0.0
 70
   128
 71
   36
 72
   78
 73
   77
  0
VERTEX
  8
lettuce_1
 10
0.0
 20
0.0
 30
0.0
 70
   128
 71
   37
 72
   79
 73
   78
  0
VERTEX
  8
lettuce_1
 10
0.0
 20
0.0
 30
0.0
 70
   128
 71
   38
 72
   80
 73
   79
  0
VERTEX
  8
lettuce_1
 10
0.0
 20
0.0
 30
0.0
 70
   128
 71
   39
 72
   81
 73
   80
  0
VERTEX
  8
lettuce_1
 10
0.0
 20
0.0
 30
0.0
 70
   128
 71
   40
 72
   82
 73
   81
  0
VERTEX
  8
lettuce_1
 10
0.0
 20
0.0
 30
0.0
 70
   128
 71
   41
 72
   42
 73
   82
  0
VERTEX
  8
lettuce_1
 10
0.0
 20
0.0
 30
0.0
 70
   128
 71
   3
 72
   5
 73
   4
  0
VERTEX
  8
lettuce_1
 10
0.0
 20
0.0
 30
0.0
 70
   128
 71
   1
 72
   39
 73
   5
  0
VERTEX
  8
lettuce_1
 10
0.0
 20
0.0
 30
0.0
 70
   128
 71
   46
 72
   44
 73
   45
  0
VERTEX
  8
lettuce_1
 10
0.0
 20
0.0
 30
0.0
 70
   128
 71
   5
 72
   34
 73
   6
  0
VERTEX
  8
lettuce_1
 10
0.0
 20
0.0
 30
0.0
 70
   128
 71
   34
 72
   38
 73
   35
  0
VERTEX
  8
lettuce_1
 10
0.0
 20
0.0
 30
0.0
 70
   128
 71
   35
 72
   37
 73
   36
  0
VERTEX
  8
lettuce_1
 10
0.0
 20
0.0
 30
0.0
 70
   128
 71
   6
 72
   24
 73
   11
  0
VERTEX
  8
lettuce_1
 10
0.0
 20
0.0
 30
0.0
 70
   128
 71
   75
 72
   46
 73
   47
  0
VERTEX
  8
lettuce_1
 10
0.0
 20
0.0
 30
0.0
 70
   128
 71
   65
 72
   47
 73
   52
  0
VERTEX
  8
lettuce_1
 10
0.0
 20
0.0
 30
0.0
 70
   128
 71
   47
 72
   51
 73
   52
  0
VERTEX
  8
lettuce_1
 10
0.0
 20
0.0
 30
0.0
 70
   128
 71
   34
 72
   30
 73
   29
  0
VERTEX
  8
lettuce_1
 10
0.0
 20
0.0
 30
0.0
 70
   128
 71
   24
 72
   29
 73
   25
  0
VERTEX
  8
lettuce_1
 10
0.0
 20
0.0
 30
0.0
 70
   128
 71
   30
 72
   32
 73
   31
  0
VERTEX
  8
lettuce_1
 10
0.0
 20
0.0
 30
0.0
 70
   128
 71
   29
 72
   26
 73
   25
  0
VERTEX
  8
lettuce_1
 10
0.0
 20
0.0
 30
0.0
 70
   128
 71
   19
 72
   23
 73
   20
  0
VERTEX
  8
lettuce_1
 10
0.0
 20
0.0
 30
0.0
 70
   128
 71
   24
 72
   12
 73
   11
  0
VERTEX
  8
lettuce_1
 10
0.0
 20
0.0
 30
0.0
 70
   128
 71
   48
 72
   50
 73
   51
  0
VERTEX
  8
lettuce_1
 10
0.0
 20
0.0
 30
0.0
 70
   128
 71
   65
 72
   53
 73
   60
  0
VERTEX
  8
lettuce_1
 10
0.0
 20
0.0
 30
0.0
 70
   128
 71
   53
 72
   57
 73
   58
  0
VERTEX
  8
lettuce_1
 10
0.0
 20
0.0
 30
0.0
 70
   128
 71
   23
 72
   21
 73
   20
  0
VERTEX
  8
lettuce_1
 10
0.0
 20
0.0
 30
0.0
 70
   128
 71
   12
 72
   18
 73
   17
  0
VERTEX
  8
lettuce_1
 10
0.0
 20
0.0
 30
0.0
 70
   128
 71
   12
 72
   16
 73
   13
  0
VERTEX
  8
lettuce_1
 10
0.0
 20
0.0
 30
0.0
 70
   128
 71
   13
 72
   15
 73
   14
  0
VERTEX
  8
lettuce_1
 10
0.0
 20
0.0
 30
0.0
 70
   128
 71
   6
 72
   10
 73
   7
  0
VERTEX
  8
lettuce_1
 10
0.0
 20
0.0
 30
0.0
 70
   128
 71
   7
 72
   9
 73
   8
  0
VERTEX
  8
lettuce_1
 10
0.0
 20
0.0
 30
0.0
 70
   128
 71
   53
 72
   59
 73
   60
  0
VERTEX
  8
lettuce_1
 10
0.0
 20
0.0
 30
0.0
 70
   128
 71
   54
 72
   56
 73
   57
  0
VERTEX
  8
lettuce_1
 10
0.0
 20
0.0
 30
0.0
 70
   128
 71
   60
 72
   64
 73
   65
  0
VERTEX
  8
lettuce_1
 10
0.0
 20
0.0
 30
0.0
 70
   128
 71
   64
 72
   62
 73
   63
  0
VERTEX
  8
lettuce_1
 10
0.0
 20
0.0
 30
0.0
 70
   128
 71
   65
 72
   70
 73
   75
  0
VERTEX
  8
lettuce_1
 10
0.0
 20
0.0
 30
0.0
 70
   128
 71
   70
 72
   67
 73
   68
  0
VERTEX
  8
lettuce_1
 10
0.0
 20
0.0
 30
0.0
 70
   128
 71
   75
 72
   71
 73
   74
  0
VERTEX
  8
lettuce_1
 10
0.0
 20
0.0
 30
0.0
 70
   128
 71
   71
 72
   73
 73
   74
  0
VERTEX
  8
lettuce_1
 10
0.0
 20
0.0
 30
0.0
 70
   128
 71
   75
 72
   79
 73
   80
  0
VERTEX
  8
lettuce_1
 10
0.0
 20
0.0
 30
0.0
 70
   128
 71
   76
 72
   78
 73
   79
  0
VERTEX
  8
lettuce_1
 10
0.0
 20
0.0
 30
0.0
 70
   128
 71
   80
 72
   42
 73
   46
  0
SEQEND
  0
POLYLINE
  8
tomato_2
 66
   1
 10
0.0
 20
0.0
 30
0.0
 70
   64
 71
   20
 72
   36
  0
VERTEX
  8
tomato_2
 10
73.879775
 20
125.202477
 30
-89.049302
 70
   192
  0
VERTEX
  8
tomato_2
 10
73.888198
 20
141.272588
 30
-89.043103
 70
   192
  0
VERTEX
  8
tomato_2
 10
42.146924
 20
125.633374
 30
-99.031850
 70
   192
  0
VERTEX
  8
tomato_2
 10
42.160019
 20
141.702236
 30
-99.018084
 70
   192
  0
VERTEX
  8
tomato_2
 10
10.628307
 20
125.232407
 30
-88.458321
 70
   192
  0
VERTEX
  8
tomato_2
 10
10.615079
 20
141.552970
 30
-88.434427
 70
   192
  0
VERTEX
  8
tomato_2
 10
-8.673703
 20
125.213932
 30
-61.350134
 70
   192
  0
VERTEX
  8
tomato_2
 10
-8.673462
 20
141.400537
 30
-61.350005
 70
   192
  0
VERTEX
  8
tomato_2
 10
-8.358931
 20
125.186369
 30
-28.102380
 70
   192
  0
VERTEX
  8
tomato_2
 10
-8.376005
 20
141.235223
 30
-28.076925
 70
   192
  0
VERTEX
  8
tomato_2
 10
11.444660
 20
125.153039
 30
-1.376319
 70
   192
  0
VERTEX
  8
tomato_2
 10
11.438036
 20
141.070901
 30
-1.364043
 70
   192
  0
VERTEX
  8
tomato_2
 10
43.195797
 20
125.720927
 30
8.620597
 70
   192
  0
VERTEX
  8
tomato_2
 10
43.166542
 20
141.975989
 30
8.611268
 70
   192
  0
VERTEX
  8
tomato_2
 10
74.705977
 20
125.174000
 30
-1.952786
 70
   192
  0
VERTEX
  8
tomato_2
 10
74.720706
 20
141.504926
 30
-1.974118
 70
   192
  0
VERTEX
  8
tomato_2
 10
93.999994
 20
125.199181
 30
-29.053670
 70
   192
  0
VERTEX
  8
tomato_2
 10
94.008671
 20
141.363634
 30
-29.064940
 70
   192
  0
VERTEX
  8
tomato_2
 10
93.686474
 20
125.041893
 30
-62.317445
 70
   192
  0
VERTEX
  8
tomato_2
 10
93.692204
 20
141.292618
 30
-62.322762
 70
   192
  0
VERTEX
  8
tomato_2
 10
0.0
 20
0.0
 30
0.0
 70
   128
 71
   1
 72
   3
 73
   5
  0
VERTEX
  8
tomato_2
 10
0.0
 20
0.0
 30
0.0
 70
   128
 71
   3
 72
   4
 73
   6
  0
VERTEX
  8
tomato_2
 10
0.0
 20
0.0
 30
0.0
 70
   128
 71
   6
 72
   4
 73
   2
  0
VERTEX
  8
tomato_2
 10
0.0
 20
0.0
 30
0.0
 70
   128
 71
   1
 72
   17
 73
   19
  0
VERTEX
  8
tomato_2
 10
0.0
 20
0.0
 30
0.0
 70
   128
 71
   5
 72
   6
 73
   8
  0
VERTEX
  8
tomato_2
 10
0.0
 20
0.0
 30
0.0
 70
   128
 71
   17
 72
   5
 73
   7
  0
VERTEX
  8
tomato_2
 10
0.0
 20
0.0
 30
0.0
 70
   128
 71
   7
 72
   9
 73
   11
  0
VERTEX
  8
tomato_2
 10
0.0
 20
0.0
 30
0.0
 70
   128
 71
   7
 72
   8
 73
   10
  0
VERTEX
  8
tomato_2
 10
0.0
 20
0.0
 30
0.0
 70
   128
 71
   7
 72
   11
 73
   13
  0
VERTEX
  8
tomato_2
 10
0.0
 20
0.0
 30
0.0
 70
   128
 71
   2
 72
   20
 73
   18
  0
VERTEX
  8
tomato_2
 10
0.0
 20
0.0
 30
0.0
 70
   128
 71
   9
 72
   10
 73
   12
  0
VERTEX
  8
tomato_2
 10
0.0
 20
0.0
 30
0.0
 70
   128
 71
   8
 72
   2
 73
   18
  0
VERTEX
  8
tomato_2
 10
0.0
 20
0.0
 30
0.0
 70
   128
 71
   12
 72
   18
 73
   16
  0
VERTEX
  8
tomato_2
 10
0.0
 20
0.0
 30
0.0
 70
   128
 71
   11
 72
   12
 73
   14
  0
VERTEX
  8
tomato_2
 10
0.0
 20
0.0
 30
0.0
 70
   128
 71
   12
 72
   10
 73
   8
  0
VERTEX
  8
tomato_2
 10
0.0
 20
0.0
 30
0.0
 70
   128
 71
   17
 72
   18
 73
   20
  0
VERTEX
  8
tomato_2
 10
0.0
 20
0.0
 30
0.0
 70
   128
 71
   13
 72
   14
 73
   16
  0
VERTEX
  8
tomato_2
 10
0.0
 20
0.0
 30
0.0
 70
   128
 71
   19
 72
   20
 73
   2
  0
VERTEX
  8
tomato_2
 10
0.0
 20
0.0
 30
0.0
 70
   128
 71
   1
 72
   2
 73
   4
  0
VERTEX
  8
tomato_2
 10
0.0
 20
0.0
 30
0.0
 70
   128
 71
   15
 72
   16
 73
   18
  0
VERTEX
  8
tomato_2
 10
0.0
 20
0.0
 30
0.0
 70
   128
 71
   1
 72
   5
 73
   17
  0
VERTEX
  8
tomato_2
 10
0.0
 20
0.0
 30
0.0
 70
   128
 71
   3
 72
   6
 73
   5
  0
VERTEX
  8
tomato_2
 10
0.0
 20
0.0
 30
0.0
 70
   128
 71
   6
 72
   2
 73
   8
  0
VERTEX
  8
tomato_2
 10
0.0
 20
0.0
 30
0.0
 70
   128
 71
   5
 72
   8
 73
   7
  0
VERTEX
  8
tomato_2
 10
0.0
 20
0.0
 30
0.0
 70
   128
 71
   17
 72
   7
 73
   15
  0
VERTEX
  8
tomato_2
 10
0.0
 20
0.0
 30
0.0
 70
   128
 71
   7
 72
   10
 73
   9
  0
VERTEX
  8
tomato_2
 10
0.0
 20
0.0
 30
0.0
 70
   128
 71
   7
 72
   13
 73
   15
  0
VERTEX
  8
tomato_2
 10
0.0
 20
0.0
 30
0.0
 70
   128
 71
   9
 72
   12
 73
   11
  0
VERTEX
  8
tomato_2
 10
0.0
 20
0.0
 30
0.0
 70
   128
 71
   8
 72
   18
 73
   12
  0
VERTEX
  8
tomato_2
 10
0.0
 20
0.0
 30
0.0
 70
   128
 71
   12
 72
   16
 73
   14
  0
VERTEX
  8
tomato_2
 10
0.0
 20
0.0
 30
0.0
 70
   128
 71
   11
 72
   14
 73
   13
  0
VERTEX
  8
tomato_2
 10
0.0
 20
0.0
 30
0.0
 70
   128
 71
   17
 72
   20
 73
   19
  0
VERTEX
  8
tomato_2
 10
0.0
 20
0.0
 30
0.0
 70
   128
 71
   13
 72
   16
 73
   15
  0
VERTEX
  8
tomato_2
 10
0.0
 20
0.0
 30
0.0
 70
   128
 71
   19
 72
   2
 73
   1
  0
VERTEX
  8
tomato_2
 10
0.0
 20
0.0
 30
0.0
 70
   128
 71
   1
 72
   4
 73
   3
  0
VERTEX
  8
tomato_2
 10
0.0
 20
0.0
 30
0.0
 70
   128
 71
   15
 72
   18
 73
   17
  0
SEQEND
  0
POLYLINE
  8
tomato_1
 66
   1
 10
0.0
 20
0.0
 30
0.0
 70
   64
 71
   20
 72
   36
  0
VERTEX
  8
tomato_1
 10
49.398423
 20
125.570880
 30
7.537515
 70
   192
  0
VERTEX
  8
tomato_1
 10
49.406846
 20
141.640991
 30
7.543714
 70
   192
  0
VERTEX
  8
tomato_1
 10
17.665572
 20
126.001776
 30
-2.445033
 70
   192
  0
VERTEX
  8
tomato_1
 10
17.678667
 20
142.070639
 30
-2.431267
 70
   192
  0
VERTEX
  8
tomato_1
 10
-13.853045
 20
125.600809
 30
8.128496
 70
   192
  0
VERTEX
  8
tomato_1
 10
-13.866273
 20
141.921373
 30
8.152390
 70
   192
  0
VERTEX
  8
tomato_1
 10
-33.155055
 20
125.582334
 30
35.236683
 70
   192
  0
VERTEX
  8
tomato_1
 10
-33.154814
 20
141.768939
 30
35.236812
 70
   192
  0
VERTEX
  8
tomato_1
 10
-32.840283
 20
125.554772
 30
68.484438
 70
   192
  0
VERTEX
  8
tomato_1
 10
-32.857357
 20
141.603625
 30
68.509892
 70
   192
  0
VERTEX
  8
tomato_1
 10
-13.036692
 20
125.521441
 30
95.210498
 70
   192
  0
VERTEX
  8
tomato_1
 10
-13.043315
 20
141.439304
 30
95.222775
 70
   192
  0
VERTEX
  8
tomato_1
 10
18.714445
 20
126.089330
 30
105.207414
 70
   192
  0
VERTEX
  8
tomato_1
 10
18.685190
 20
142.344392
 30
105.198085
 70
   192
  0
VERTEX
  8
tomato_1
 10
50.224625
 20
125.542403
 30
94.634031
 70
   192
  0
VERTEX
  8
tomato_1
 10
50.239354
 20
141.873329
 30
94.612699
 70
   192
  0
VERTEX
  8
tomato_1
 10
69.518643
 20
125.567584
 30
67.533147
 70
   192
  0
VERTEX
  8
tomato_1
 10
69.527319
 20
141.732036
 30
67.521877
 70
   192
  0
VERTEX
  8
tomato_1
 10
69.205122
 20
125.410295
 30
34.269372
 70
   192
  0
VERTEX
  8
tomato_1
 10
69.210852
 20
141.661021
 30
34.264055
 70
   192
  0
VERTEX
  8
tomato_1
 10
0.0
 20
0.0
 30
0.0
 70
   128
 71
   1
 72
   3
 73
   5
  0
VERTEX
  8
tomato_1
 10
0.0
 20
0.0
 30
0.0
 70
   128
 71
   3
 72
   4
 73
   6
  0
VERTEX
  8
tomato_1
 10
0.0
 20
0.0
 30
0.0
 70
   128
 71
   6
 72
   4
 73
   2
  0
VERTEX
  8
tomato_1
 10
0.0
 20
0.0
 30
0.0
 70
   128
 71
   1
 72
   17
 73
   19
  0
VERTEX
  8
tomato_1
 10
0.0
 20
0.0
 30
0.0
 70
   128
 71
   5
 72
   6
 73
   8
  0
VERTEX
  8
tomato_1
 10
0.0
 20
0.0
 30
0.0
 70
   128
 71
   17
 72
   5
 73
   7
  0
VERTEX
  8
tomato_1
 10
0.0
 20
0.0
 30
0.0
 70
   128
 71
   7
 72
   9
 73
   11
  0
VERTEX
  8
tomato_1
 10
0.0
 20
0.0
 30
0.0
 70
   128
 71
   7
 72
   8
 73
   10
  0
VERTEX
  8
tomato_1
 10
0.0
 20
0.0
 30
0.0
 70
   128
 71
   7
 72
   11
 73
   13
  0
VERTEX
  8
tomato_1
 10
0.0
 20
0.0
 30
0.0
 70
   128
 71
   2
 72
   20
 73
   18
  0
VERTEX
  8
tomato_1
 10
0.0
 20
0.0
 30
0.0
 70
   128
 71
   9
 72
   10
 73
   12
  0
VERTEX
  8
tomato_1
 10
0.0
 20
0.0
 30
0.0
 70
   128
 71
   8
 72
   2
 73
   18
  0
VERTEX
  8
tomato_1
 10
0.0
 20
0.0
 30
0.0
 70
   128
 71
   12
 72
   18
 73
   16
  0
VERTEX
  8
tomato_1
 10
0.0
 20
0.0
 30
0.0
 70
   128
 71
   11
 72
   12
 73
   14
  0
VERTEX
  8
tomato_1
 10
0.0
 20
0.0
 30
0.0
 70
   128
 71
   12
 72
   10
 73
   8
  0
VERTEX
  8
tomato_1
 10
0.0
 20
0.0
 30
0.0
 70
   128
 71
   17
 72
   18
 73
   20
  0
VERTEX
  8
tomato_1
 10
0.0
 20
0.0
 30
0.0
 70
   128
 71
   13
 72
   14
 73
   16
  0
VERTEX
  8
tomato_1
 10
0.0
 20
0.0
 30
0.0
 70
   128
 71
   19
 72
   20
 73
   2
  0
VERTEX
  8
tomato_1
 10
0.0
 20
0.0
 30
0.0
 70
   128
 71
   1
 72
   2
 73
   4
  0
VERTEX
  8
tomato_1
 10
0.0
 20
0.0
 30
0.0
 70
   128
 71
   15
 72
   16
 73
   18
  0
VERTEX
  8
tomato_1
 10
0.0
 20
0.0
 30
0.0
 70
   128
 71
   1
 72
   5
 73
   17
  0
VERTEX
  8
tomato_1
 10
0.0
 20
0.0
 30
0.0
 70
   128
 71
   3
 72
   6
 73
   5
  0
VERTEX
  8
tomato_1
 10
0.0
 20
0.0
 30
0.0
 70
   128
 71
   6
 72
   2
 73
   8
  0
VERTEX
  8
tomato_1
 10
0.0
 20
0.0
 30
0.0
 70
   128
 71
   5
 72
   8
 73
   7
  0
VERTEX
  8
tomato_1
 10
0.0
 20
0.0
 30
0.0
 70
   128
 71
   17
 72
   7
 73
   15
  0
VERTEX
  8
tomato_1
 10
0.0
 20
0.0
 30
0.0
 70
   128
 71
   7
 72
   10
 73
   9
  0
VERTEX
  8
tomato_1
 10
0.0
 20
0.0
 30
0.0
 70
   128
 71
   7
 72
   13
 73
   15
  0
VERTEX
  8
tomato_1
 10
0.0
 20
0.0
 30
0.0
 70
   128
 71
   9
 72
   12
 73
   11
  0
VERTEX
  8
tomato_1
 10
0.0
 20
0.0
 30
0.0
 70
   128
 71
   8
 72
   18
 73
   12
  0
VERTEX
  8
tomato_1
 10
0.0
 20
0.0
 30
0.0
 70
   128
 71
   12
 72
   16
 73
   14
  0
VERTEX
  8
tomato_1
 10
0.0
 20
0.0
 30
0.0
 70
   128
 71
   11
 72
   14
 73
   13
  0
VERTEX
  8
tomato_1
 10
0.0
 20
0.0
 30
0.0
 70
   128
 71
   17
 72
   20
 73
   19
  0
VERTEX
  8
tomato_1
 10
0.0
 20
0.0
 30
0.0
 70
   128
 71
   13
 72
   16
 73
   15
  0
VERTEX
  8
tomato_1
 10
0.0
 20
0.0
 30
0.0
 70
   128
 71
   19
 72
   2
 73
   1
  0
VERTEX
  8
tomato_1
 10
0.0
 20
0.0
 30
0.0
 70
   128
 71
   1
 72
   4
 73
   3
  0
VERTEX
  8
tomato_1
 10
0.0
 20
0.0
 30
0.0
 70
   128
 71
   15
 72
   18
 73
   17
  0
SEQEND
  0
POLYLINE
  8
tomato
 66
   1
 10
0.0
 20
0.0
 30
0.0
 70
   64
 71
   20
 72
   36
  0
VERTEX
  8
tomato
 10
-27.463790
 20
124.315099
 30
-65.284348
 70
   192
  0
VERTEX
  8
tomato
 10
-27.455366
 20
140.385210
 30
-65.278149
 70
   192
  0
VERTEX
  8
tomato
 10
-59.196640
 20
124.745996
 30
-75.266896
 70
   192
  0
VERTEX
  8
tomato
 10
-59.183545
 20
140.814858
 30
-75.253130
 70
   192
  0
VERTEX
  8
tomato
 10
-90.715258
 20
124.345029
 30
-64.693367
 70
   192
  0
VERTEX
  8
tomato
 10
-90.728485
 20
140.665592
 30
-64.669473
 70
   192
  0
VERTEX
  8
tomato
 10
-110.017268
 20
124.326554
 30
-37.585180
 70
   192
  0
VERTEX
  8
tomato
 10
-110.017027
 20
140.513159
 30
-37.585051
 70
   192
  0
VERTEX
  8
tomato
 10
-109.702495
 20
124.298991
 30
-4.337426
 70
   192
  0
VERTEX
  8
tomato
 10
-109.719569
 20
140.347845
 30
-4.311971
 70
   192
  0
VERTEX
  8
tomato
 10
-89.898904
 20
124.265661
 30
22.388635
 70
   192
  0
VERTEX
  8
tomato
 10
-89.905528
 20
140.183523
 30
22.400911
 70
   192
  0
VERTEX
  8
tomato
 10
-58.147768
 20
124.833549
 30
32.385551
 70
   192
  0
VERTEX
  8
tomato
 10
-58.177022
 20
141.088611
 30
32.376221
 70
   192
  0
VERTEX
  8
tomato
 10
-26.637587
 20
124.286622
 30
21.812167
 70
   192
  0
VERTEX
  8
tomato
 10
-26.622858
 20
140.617548
 30
21.790836
 70
   192
  0
VERTEX
  8
tomato
 10
-7.343570
 20
124.311803
 30
-5.288716
 70
   192
  0
VERTEX
  8
tomato
 10
-7.334894
 20
140.476255
 30
-5.299986
 70
   192
  0
VERTEX
  8
tomato
 10
-7.657090
 20
124.154514
 30
-38.552491
 70
   192
  0
VERTEX
  8
tomato
 10
-7.651360
 20
140.405240
 30
-38.557808
 70
   192
  0
VERTEX
  8
tomato
 10
0.0
 20
0.0
 30
0.0
 70
   128
 71
   1
 72
   3
 73
   5
  0
VERTEX
  8
tomato
 10
0.0
 20
0.0
 30
0.0
 70
   128
 71
   3
 72
   4
 73
   6
  0
VERTEX
  8
tomato
 10
0.0
 20
0.0
 30
0.0
 70
   128
 71
   6
 72
   4
 73
   2
  0
VERTEX
  8
tomato
 10
0.0
 20
0.0
 30
0.0
 70
   128
 71
   1
 72
   17
 73
   19
  0
VERTEX
  8
tomato
 10
0.0
 20
0.0
 30
0.0
 70
   128
 71
   5
 72
   6
 73
   8
  0
VERTEX
  8
tomato
 10
0.0
 20
0.0
 30
0.0
 70
   128
 71
   17
 72
   5
 73
   7
  0
VERTEX
  8
tomato
 10
0.0
 20
0.0
 30
0.0
 70
   128
 71
   7
 72
   9
 73
   11
  0
VERTEX
  8
tomato
 10
0.0
 20
0.0
 30
0.0
 70
   128
 71
   7
 72
   8
 73
   10
  0
VERTEX
  8
tomato
 10
0.0
 20
0.0
 30
0.0
 70
   128
 71
   7
 72
   11
 73
   13
  0
VERTEX
  8
tomato
 10
0.0
 20
0.0
 30
0.0
 70
   128
 71
   2
 72
   20
 73
   18
  0
VERTEX
  8
tomato
 10
0.0
 20
0.0
 30
0.0
 70
   128
 71
   9
 72
   10
 73
   12
  0
VERTEX
  8
tomato
 10
0.0
 20
0.0
 30
0.0
 70
   128
 71
   8
 72
   2
 73
   18
  0
VERTEX
  8
tomato
 10
0.0
 20
0.0
 30
0.0
 70
   128
 71
   12
 72
   18
 73
   16
  0
VERTEX
  8
tomato
 10
0.0
 20
0.0
 30
0.0
 70
   128
 71
   11
 72
   12
 73
   14
  0
VERTEX
  8
tomato
 10
0.0
 20
0.0
 30
0.0
 70
   128
 71
   12
 72
   10
 73
   8
  0
VERTEX
  8
tomato
 10
0.0
 20
0.0
 30
0.0
 70
   128
 71
   17
 72
   18
 73
   20
  0
VERTEX
  8
tomato
 10
0.0
 20
0.0
 30
0.0
 70
   128
 71
   13
 72
   14
 73
   16
  0
VERTEX
  8
tomato
 10
0.0
 20
0.0
 30
0.0
 70
   128
 71
   19
 72
   20
 73
   2
  0
VERTEX
  8
tomato
 10
0.0
 20
0.0
 30
0.0
 70
   128
 71
   1
 72
   2
 73
   4
  0
VERTEX
  8
tomato
 10
0.0
 20
0.0
 30
0.0
 70
   128
 71
   15
 72
   16
 73
   18
  0
VERTEX
  8
tomato
 10
0.0
 20
0.0
 30
0.0
 70
   128
 71
   1
 72
   5
 73
   17
  0
VERTEX
  8
tomato
 10
0.0
 20
0.0
 30
0.0
 70
   128
 71
   3
 72
   6
 73
   5
  0
VERTEX
  8
tomato
 10
0.0
 20
0.0
 30
0.0
 70
   128
 71
   6
 72
   2
 73
   8
  0
VERTEX
  8
tomato
 10
0.0
 20
0.0
 30
0.0
 70
   128
 71
   5
 72
   8
 73
   7
  0
VERTEX
  8
tomato
 10
0.0
 20
0.0
 30
0.0
 70
   128
 71
   17
 72
   7
 73
   15
  0
VERTEX
  8
tomato
 10
0.0
 20
0.0
 30
0.0
 70
   128
 71
   7
 72
   10
 73
   9
  0
VERTEX
  8
tomato
 10
0.0
 20
0.0
 30
0.0
 70
   128
 71
   7
 72
   13
 73
   15
  0
VERTEX
  8
tomato
 10
0.0
 20
0.0
 30
0.0
 70
   128
 71
   9
 72
   12
 73
   11
  0
VERTEX
  8
tomato
 10
0.0
 20
0.0
 30
0.0
 70
   128
 71
   8
 72
   18
 73
   12
  0
VERTEX
  8
tomato
 10
0.0
 20
0.0
 30
0.0
 70
   128
 71
   12
 72
   16
 73
   14
  0
VERTEX
  8
tomato
 10
0.0
 20
0.0
 30
0.0
 70
   128
 71
   11
 72
   14
 73
   13
  0
VERTEX
  8
tomato
 10
0.0
 20
0.0
 30
0.0
 70
   128
 71
   17
 72
   20
 73
   19
  0
VERTEX
  8
tomato
 10
0.0
 20
0.0
 30
0.0
 70
   128
 71
   13
 72
   16
 73
   15
  0
VERTEX
  8
tomato
 10
0.0
 20
0.0
 30
0.0
 70
   128
 71
   19
 72
   2
 73
   1
  0
VERTEX
  8
tomato
 10
0.0
 20
0.0
 30
0.0
 70
   128
 71
   1
 72
   4
 73
   3
  0
VERTEX
  8
tomato
 10
0.0
 20
0.0
 30
0.0
 70
   128
 71
   15
 72
   18
 73
   17
  0
SEQEND
  0
POLYLINE
  8
meat_1
 66
   1
 10
0.0
 20
0.0
 30
0.0
 70
   64
 71
   8
 72
   12
  0
VERTEX
  8
meat_1
 10
-111.607631
 20
112.182882
 30
-41.690716
 70
   192
  0
VERTEX
  8
meat_1
 10
-111.607631
 20
126.487392
 30
-41.690716
 70
   192
  0
VERTEX
  8
meat_1
 10
111.607631
 20
112.182882
 30
61.880260
 70
   192
  0
VERTEX
  8
meat_1
 10
111.607631
 20
126.487392
 30
61.880260
 70
   192
  0
VERTEX
  8
meat_1
 10
51.785488
 20
112.182882
 30
-101.512858
 70
   192
  0
VERTEX
  8
meat_1
 10
51.785488
 20
126.487392
 30
-101.512858
 70
   192
  0
VERTEX
  8
meat_1
 10
-55.004854
 20
112.182882
 30
118.033851
 70
   192
  0
VERTEX
  8
meat_1
 10
-55.004854
 20
126.487392
 30
118.033851
 70
   192
  0
VERTEX
  8
meat_1
 10
0.0
 20
0.0
 30
0.0
 70
   128
 71
   8
 72
   4
 73
   3
  0
VERTEX
  8
meat_1
 10
0.0
 20
0.0
 30
0.0
 70
   128
 71
   8
 72
   2
 73
   6
  0
VERTEX
  8
meat_1
 10
0.0
 20
0.0
 30
0.0
 70
   128
 71
   5
 72
   6
 73
   2
  0
VERTEX
  8
meat_1
 10
0.0
 20
0.0
 30
0.0
 70
   128
 71
   7
 72
   3
 73
   5
  0
VERTEX
  8
meat_1
 10
0.0
 20
0.0
 30
0.0
 70
   128
 71
   6
 72
   4
 73
   8
  0
VERTEX
  8
meat_1
 10
0.0
 20
0.0
 30
0.0
 70
   128
 71
   7
 72
   1
 73
   2
  0
VERTEX
  8
meat_1
 10
0.0
 20
0.0
 30
0.0
 70
   128
 71
   5
 72
   3
 73
   4
  0
VERTEX
  8
meat_1
 10
0.0
 20
0.0
 30
0.0
 70
   128
 71
   5
 72
   1
 73
   7
  0
VERTEX
  8
meat_1
 10
0.0
 20
0.0
 30
0.0
 70
   128
 71
   8
 72
   3
 73
   7
  0
VERTEX
  8
meat_1
 10
0.0
 20
0.0
 30
0.0
 70
   128
 71
   5
 72
   2
 73
   1
  0
VERTEX
  8
meat_1
 10
0.0
 20
0.0
 30
0.0
 70
   128
 71
   7
 72
   2
 73
   8
  0
VERTEX
  8
meat_1
 10
0.0
 20
0.0
 30
0.0
 70
   128
 71
   5
 72
   4
 73
   6
  0
SEQEND
  0
POLYLINE
  8
toast_1
 66
   1
 10
0.0
 20
0.0
 30
0.0
 70
   64
 71
   133
 72
   148
  0
VERTEX
  8
toast_1
 10
-88.568748
 20
178.068076
 30
98.032716
 70
   192
  0
VERTEX
  8
toast_1
 10
-83.962335
 20
178.068076
 30
40.900065
 70
   192
  0
VERTEX
  8
toast_1
 10
-79.774688
 20
178.068076
 30
-4.966994
 70
   192
  0
VERTEX
  8
toast_1
 10
-82.706041
 20
178.068076
 30
-37.154403
 70
   192
  0
VERTEX
  8
toast_1
 10
-95.687749
 20
178.068076
 30
-45.603598
 70
   192
  0
VERTEX
  8
toast_1
 10
-98.619102
 20
178.068076
 30
-67.330099
 70
   192
  0
VERTEX
  8
toast_1
 10
-89.841464
 20
178.068076
 30
-89.458943
 70
   192
  0
VERTEX
  8
toast_1
 10
-54.115082
 20
178.068076
 30
-98.310481
 70
   192
  0
VERTEX
  8
toast_1
 10
-17.173461
 20
178.068076
 30
-85.837860
 70
   192
  0
VERTEX
  8
toast_1
 10
12.033329
 20
178.068076
 30
-61.294960
 70
   192
  0
VERTEX
  8
toast_1
 10
30.360445
 20
178.068076
 30
-75.779294
 70
   192
  0
VERTEX
  8
toast_1
 10
52.554978
 20
178.068076
 30
-89.861286
 70
   192
  0
VERTEX
  8
toast_1
 10
75.168275
 20
178.068076
 30
-91.470656
 70
   192
  0
VERTEX
  8
toast_1
 10
96.106514
 20
178.068076
 30
-78.193350
 70
   192
  0
VERTEX
  8
toast_1
 10
98.619102
 20
178.068076
 30
-47.212968
 70
   192
  0
VERTEX
  8
toast_1
 10
78.937158
 20
178.068076
 30
-24.279439
 70
   192
  0
VERTEX
  8
toast_1
 10
76.843334
 20
178.068076
 30
-0.138882
 70
   192
  0
VERTEX
  8
toast_1
 10
81.449747
 20
178.068076
 30
65.040622
 70
   192
  0
VERTEX
  8
toast_1
 10
88.987513
 20
178.068076
 30
98.032716
 70
   192
  0
VERTEX
  8
toast_1
 10
-88.568748
 20
141.174463
 30
98.032716
 70
   192
  0
VERTEX
  8
toast_1
 10
-83.962335
 20
141.174463
 30
40.900065
 70
   192
  0
VERTEX
  8
toast_1
 10
-79.774688
 20
141.174463
 30
-4.966994
 70
   192
  0
VERTEX
  8
toast_1
 10
-82.706041
 20
141.174463
 30
-37.154403
 70
   192
  0
VERTEX
  8
toast_1
 10
-95.687749
 20
141.174463
 30
-45.603598
 70
   192
  0
VERTEX
  8
toast_1
 10
-98.619102
 20
141.174463
 30
-67.330099
 70
   192
  0
VERTEX
  8
toast_1
 10
-89.841464
 20
141.174463
 30
-89.458943
 70
   192
  0
VERTEX
  8
toast_1
 10
-54.115082
 20
141.174463
 30
-98.310481
 70
   192
  0
VERTEX
  8
toast_1
 10
-17.173461
 20
141.174463
 30
-85.837860
 70
   192
  0
VERTEX
  8
toast_1
 10
12.033329
 20
141.174463
 30
-61.294960
 70
   192
  0
VERTEX
  8
toast_1
 10
30.360445
 20
141.174463
 30
-75.779294
 70
   192
  0
VERTEX
  8
toast_1
 10
52.554978
 20
141.174463
 30
-89.861286
 70
   192
  0
VERTEX
  8
toast_1
 10
75.168275
 20
141.174463
 30
-91.470656
 70
   192
  0
VERTEX
  8
toast_1
 10
96.106514
 20
141.174463
 30
-78.193350
 70
   192
  0
VERTEX
  8
toast_1
 10
98.619102
 20
141.174463
 30
-47.212968
 70
   192
  0
VERTEX
  8
toast_1
 10
78.937158
 20
141.174463
 30
-24.279439
 70
   192
  0
VERTEX
  8
toast_1
 10
76.843334
 20
141.174463
 30
-0.138882
 70
   192
  0
VERTEX
  8
toast_1
 10
81.449747
 20
141.174463
 30
65.040622
 70
   192
  0
VERTEX
  8
toast_1
 10
88.987513
 20
141.174463
 30
98.032716
 70
   192
  0
VERTEX
  8
toast_1
 10
-88.568748
 20
178.068076
 30
98.032716
 70
   192
  0
VERTEX
  8
toast_1
 10
-83.962335
 20
178.068076
 30
40.900065
 70
   192
  0
VERTEX
  8
toast_1
 10
-79.774688
 20
178.068076
 30
-4.966994
 70
   192
  0
VERTEX
  8
toast_1
 10
-82.706041
 20
178.068076
 30
-37.154403
 70
   192
  0
VERTEX
  8
toast_1
 10
-95.687749
 20
178.068076
 30
-45.603598
 70
   192
  0
VERTEX
  8
toast_1
 10
-98.619102
 20
178.068076
 30
-67.330099
 70
   192
  0
VERTEX
  8
toast_1
 10
-89.841464
 20
178.068076
 30
-89.458943
 70
   192
  0
VERTEX
  8
toast_1
 10
-54.115082
 20
178.068076
 30
-98.310481
 70
   192
  0
VERTEX
  8
toast_1
 10
-17.173461
 20
178.068076
 30
-85.837860
 70
   192
  0
VERTEX
  8
toast_1
 10
12.033329
 20
178.068076
 30
-61.294960
 70
   192
  0
VERTEX
  8
toast_1
 10
30.360445
 20
178.068076
 30
-75.779294
 70
   192
  0
VERTEX
  8
toast_1
 10
52.554978
 20
178.068076
 30
-89.861286
 70
   192
  0
VERTEX
  8
toast_1
 10
75.168275
 20
178.068076
 30
-91.470656
 70
   192
  0
VERTEX
  8
toast_1
 10
96.106514
 20
178.068076
 30
-78.193350
 70
   192
  0
VERTEX
  8
toast_1
 10
98.619102
 20
178.068076
 30
-47.212968
 70
   192
  0
VERTEX
  8
toast_1
 10
78.937158
 20
178.068076
 30
-24.279439
 70
   192
  0
VERTEX
  8
toast_1
 10
76.843334
 20
178.068076
 30
-0.138882
 70
   192
  0
VERTEX
  8
toast_1
 10
81.449747
 20
178.068076
 30
65.040622
 70
   192
  0
VERTEX
  8
toast_1
 10
88.987513
 20
178.068076
 30
98.032716
 70
   192
  0
VERTEX
  8
toast_1
 10
-88.568748
 20
141.174463
 30
98.032716
 70
   192
  0
VERTEX
  8
toast_1
 10
-83.962335
 20
141.174463
 30
40.900065
 70
   192
  0
VERTEX
  8
toast_1
 10
-79.774688
 20
141.174463
 30
-4.966994
 70
   192
  0
VERTEX
  8
toast_1
 10
-82.706041
 20
141.174463
 30
-37.154403
 70
   192
  0
VERTEX
  8
toast_1
 10
-95.687749
 20
141.174463
 30
-45.603598
 70
   192
  0
VERTEX
  8
toast_1
 10
-98.619102
 20
141.174463
 30
-67.330099
 70
   192
  0
VERTEX
  8
toast_1
 10
-89.841464
 20
141.174463
 30
-89.458943
 70
   192
  0
VERTEX
  8
toast_1
 10
-54.115082
 20
141.174463
 30
-98.310481
 70
   192
  0
VERTEX
  8
toast_1
 10
-17.173461
 20
141.174463
 30
-85.837860
 70
   192
  0
VERTEX
  8
toast_1
 10
12.033329
 20
141.174463
 30
-61.294960
 70
   192
  0
VERTEX
  8
toast_1
 10
30.360445
 20
141.174463
 30
-75.779294
 70
   192
  0
VERTEX
  8
toast_1
 10
52.554978
 20
141.174463
 30
-89.861286
 70
   192
  0
VERTEX
  8
toast_1
 10
75.168275
 20
141.174463
 30
-91.470656
 70
   192
  0
VERTEX
  8
toast_1
 10
96.106514
 20
141.174463
 30
-78.193350
 70
   192
  0
VERTEX
  8
toast_1
 10
98.619102
 20
141.174463
 30
-47.212968
 70
   192
  0
VERTEX
  8
toast_1
 10
78.937158
 20
141.174463
 30
-24.279439
 70
   192
  0
VERTEX
  8
toast_1
 10
76.843334
 20
141.174463
 30
-0.138882
 70
   192
  0
VERTEX
  8
toast_1
 10
81.449747
 20
141.174463
 30
65.040622
 70
   192
  0
VERTEX
  8
toast_1
 10
88.987513
 20
141.174463
 30
98.032716
 70
   192
  0
VERTEX
  8
toast_1
 10
0.000000
 20
178.068076
 30
98.310481
 70
   192
  0
VERTEX
  8
toast_1
 10
0.000000
 20
178.068076
 30
98.310481
 70
   192
  0
VERTEX
  8
toast_1
 10
0.000000
 20
178.068076
 30
98.310481
 70
   192
  0
VERTEX
  8
toast_1
 10
0.000000
 20
178.068076
 30
98.310481
 70
   192
  0
VERTEX
  8
toast_1
 10
0.000000
 20
178.068076
 30
98.310481
 70
   192
  0
VERTEX
  8
toast_1
 10
0.000000
 20
178.068076
 30
98.310481
 70
   192
  0
VERTEX
  8
toast_1
 10
0.000000
 20
178.068076
 30
98.310481
 70
   192
  0
VERTEX
  8
toast_1
 10
0.000000
 20
178.068076
 30
98.310481
 70
   192
  0
VERTEX
  8
toast_1
 10
0.000000
 20
178.068076
 30
98.310481
 70
   192
  0
VERTEX
  8
toast_1
 10
0.000000
 20
178.068076
 30
98.310481
 70
   192
  0
VERTEX
  8
toast_1
 10
0.000000
 20
178.068076
 30
98.310481
 70
   192
  0
VERTEX
  8
toast_1
 10
0.000000
 20
178.068076
 30
98.310481
 70
   192
  0
VERTEX
  8
toast_1
 10
0.000000
 20
178.068076
 30
98.310481
 70
   192
  0
VERTEX
  8
toast_1
 10
0.000000
 20
178.068076
 30
98.310481
 70
   192
  0
VERTEX
  8
toast_1
 10
0.000000
 20
178.068076
 30
98.310481
 70
   192
  0
VERTEX
  8
toast_1
 10
0.000000
 20
178.068076
 30
98.310481
 70
   192
  0
VERTEX
  8
toast_1
 10
0.000000
 20
178.068076
 30
98.310481
 70
   192
  0
VERTEX
  8
toast_1
 10
0.000000
 20
178.068076
 30
98.310481
 70
   192
  0
VERTEX
  8
toast_1
 10
0.000000
 20
178.068076
 30
98.310481
 70
   192
  0
VERTEX
  8
toast_1
 10
-79.431325
 20
178.068076
 30
91.918794
 70
   192
  0
VERTEX
  8
toast_1
 10
-75.946519
 20
178.068076
 30
48.697261
 70
   192
  0
VERTEX
  8
toast_1
 10
-71.203547
 20
178.068076
 30
-3.252239
 70
   192
  0
VERTEX
  8
toast_1
 10
-75.366825
 20
178.068076
 30
-48.966661
 70
   192
  0
VERTEX
  8
toast_1
 10
-90.033435
 20
178.068076
 30
-58.512482
 70
   192
  0
VERTEX
  8
toast_1
 10
-91.519737
 20
178.068076
 30
-69.528599
 70
   192
  0
VERTEX
  8
toast_1
 10
-87.030485
 20
178.068076
 30
-80.846217
 70
   192
  0
VERTEX
  8
toast_1
 10
-61.878643
 20
178.068076
 30
-87.077816
 70
   192
  0
VERTEX
  8
toast_1
 10
-29.493006
 20
178.068076
 30
-76.143434
 70
   192
  0
VERTEX
  8
toast_1
 10
11.245953
 20
178.068076
 30
-41.909881
 70
   192
  0
VERTEX
  8
toast_1
 10
42.180308
 20
178.068076
 30
-66.358000
 70
   192
  0
VERTEX
  8
toast_1
 10
61.944264
 20
178.068076
 30
-78.897838
 70
   192
  0
VERTEX
  8
toast_1
 10
76.340223
 20
178.068076
 30
-79.922387
 70
   192
  0
VERTEX
  8
toast_1
 10
86.753067
 20
178.068076
 30
-73.319419
 70
   192
  0
VERTEX
  8
toast_1
 10
88.180661
 20
178.068076
 30
-55.717096
 70
   192
  0
VERTEX
  8
toast_1
 10
67.667439
 20
178.068076
 30
-31.814956
 70
   192
  0
VERTEX
  8
toast_1
 10
64.742531
 20
178.068076
 30
1.907511
 70
   192
  0
VERTEX
  8
toast_1
 10
70.003043
 20
178.068076
 30
76.342350
 70
   192
  0
VERTEX
  8
toast_1
 10
73.561823
 20
178.068076
 30
91.918794
 70
   192
  0
VERTEX
  8
toast_1
 10
-79.431325
 20
141.174463
 30
91.918794
 70
   192
  0
VERTEX
  8
toast_1
 10
73.561823
 20
141.174463
 30
91.918794
 70
   192
  0
VERTEX
  8
toast_1
 10
70.003043
 20
141.174463
 30
76.342350
 70
   192
  0
VERTEX
  8
toast_1
 10
64.742531
 20
141.174463
 30
1.907511
 70
   192
  0
VERTEX
  8
toast_1
 10
67.667439
 20
141.174463
 30
-31.814956
 70
   192
  0
VERTEX
  8
toast_1
 10
88.180661
 20
141.174463
 30
-55.717096
 70
   192
  0
VERTEX
  8
toast_1
 10
86.753067
 20
141.174463
 30
-73.319419
 70
   192
  0
VERTEX
  8
toast_1
 10
76.340223
 20
141.174463
 30
-79.922387
 70
   192
  0
VERTEX
  8
toast_1
 10
61.944264
 20
141.174463
 30
-78.897838
 70
   192
  0
VERTEX
  8
toast_1
 10
42.180308
 20
141.174463
 30
-66.358000
 70
   192
  0
VERTEX
  8
toast_1
 10
11.245953
 20
141.174463
 30
-41.909881
 70
   192
  0
VERTEX
  8
toast_1
 10
-29.493006
 20
141.174463
 30
-76.143434
 70
   192
  0
VERTEX
  8
toast_1
 10
-61.878643
 20
141.174463
 30
-87.077816
 70
   192
  0
VERTEX
  8
toast_1
 10
-87.030485
 20
141.174463
 30
-80.846217
 70
   192
  0
VERTEX
  8
toast_1
 10
-91.519737
 20
141.174463
 30
-69.528599
 70
   192
  0
VERTEX
  8
toast_1
 10
-90.033435
 20
141.174463
 30
-58.512482
 70
   192
  0
VERTEX
  8
toast_1
 10
-75.366825
 20
141.174463
 30
-48.966661
 70
   192
  0
VERTEX
  8
toast_1
 10
-71.203547
 20
141.174463
 30
-3.252239
 70
   192
  0
VERTEX
  8
toast_1
 10
-75.946519
 20
141.174463
 30
48.697261
 70
   192
  0
VERTEX
  8
toast_1
 10
0.0
 20
0.0
 30
0.0
 70
   128
 71
   1
 72
   20
 73
   21
  0
VERTEX
  8
toast_1
 10
0.0
 20
0.0
 30
0.0
 70
   128
 71
   2
 72
   21
 73
   22
  0
VERTEX
  8
toast_1
 10
0.0
 20
0.0
 30
0.0
 70
   128
 71
   3
 72
   22
 73
   23
  0
VERTEX
  8
toast_1
 10
0.0
 20
0.0
 30
0.0
 70
   128
 71
   4
 72
   23
 73
   24
  0
VERTEX
  8
toast_1
 10
0.0
 20
0.0
 30
0.0
 70
   128
 71
   5
 72
   24
 73
   25
  0
VERTEX
  8
toast_1
 10
0.0
 20
0.0
 30
0.0
 70
   128
 71
   6
 72
   25
 73
   26
  0
VERTEX
  8
toast_1
 10
0.0
 20
0.0
 30
0.0
 70
   128
 71
   7
 72
   26
 73
   27
  0
VERTEX
  8
toast_1
 10
0.0
 20
0.0
 30
0.0
 70
   128
 71
   8
 72
   27
 73
   28
  0
VERTEX
  8
toast_1
 10
0.0
 20
0.0
 30
0.0
 70
   128
 71
   9
 72
   28
 73
   29
  0
VERTEX
  8
toast_1
 10
0.0
 20
0.0
 30
0.0
 70
   128
 71
   10
 72
   29
 73
   30
  0
VERTEX
  8
toast_1
 10
0.0
 20
0.0
 30
0.0
 70
   128
 71
   11
 72
   30
 73
   31
  0
VERTEX
  8
toast_1
 10
0.0
 20
0.0
 30
0.0
 70
   128
 71
   12
 72
   31
 73
   32
  0
VERTEX
  8
toast_1
 10
0.0
 20
0.0
 30
0.0
 70
   128
 71
   13
 72
   32
 73
   33
  0
VERTEX
  8
toast_1
 10
0.0
 20
0.0
 30
0.0
 70
   128
 71
   14
 72
   33
 73
   34
  0
VERTEX
  8
toast_1
 10
0.0
 20
0.0
 30
0.0
 70
   128
 71
   15
 72
   34
 73
   35
  0
VERTEX
  8
toast_1
 10
0.0
 20
0.0
 30
0.0
 70
   128
 71
   16
 72
   35
 73
   36
  0
VERTEX
  8
toast_1
 10
0.0
 20
0.0
 30
0.0
 70
   128
 71
   17
 72
   36
 73
   37
  0
VERTEX
  8
toast_1
 10
0.0
 20
0.0
 30
0.0
 70
   128
 71
   18
 72
   37
 73
   38
  0
VERTEX
  8
toast_1
 10
0.0
 20
0.0
 30
0.0
 70
   128
 71
   19
 72
   38
 73
   20
  0
VERTEX
  8
toast_1
 10
0.0
 20
0.0
 30
0.0
 70
   128
 71
   97
 72
   98
 73
   105
  0
VERTEX
  8
toast_1
 10
0.0
 20
0.0
 30
0.0
 70
   128
 71
   39
 72
   96
 73
   114
  0
VERTEX
  8
toast_1
 10
0.0
 20
0.0
 30
0.0
 70
   128
 71
   97
 72
   105
 73
   112
  0
VERTEX
  8
toast_1
 10
0.0
 20
0.0
 30
0.0
 70
   128
 71
   40
 72
   97
 73
   96
  0
VERTEX
  8
toast_1
 10
0.0
 20
0.0
 30
0.0
 70
   128
 71
   41
 72
   98
 73
   97
  0
VERTEX
  8
toast_1
 10
0.0
 20
0.0
 30
0.0
 70
   128
 71
   105
 72
   98
 73
   99
  0
VERTEX
  8
toast_1
 10
0.0
 20
0.0
 30
0.0
 70
   128
 71
   105
 72
   106
 73
   111
  0
VERTEX
  8
toast_1
 10
0.0
 20
0.0
 30
0.0
 70
   128
 71
   111
 72
   106
 73
   107
  0
VERTEX
  8
toast_1
 10
0.0
 20
0.0
 30
0.0
 70
   128
 71
   103
 72
   104
 73
   99
  0
VERTEX
  8
toast_1
 10
0.0
 20
0.0
 30
0.0
 70
   128
 71
   42
 72
   99
 73
   98
  0
VERTEX
  8
toast_1
 10
0.0
 20
0.0
 30
0.0
 70
   128
 71
   96
 72
   97
 73
   113
  0
VERTEX
  8
toast_1
 10
0.0
 20
0.0
 30
0.0
 70
   128
 71
   110
 72
   107
 73
   108
  0
VERTEX
  8
toast_1
 10
0.0
 20
0.0
 30
0.0
 70
   128
 71
   43
 72
   100
 73
   99
  0
VERTEX
  8
toast_1
 10
0.0
 20
0.0
 30
0.0
 70
   128
 71
   99
 72
   100
 73
   101
  0
VERTEX
  8
toast_1
 10
0.0
 20
0.0
 30
0.0
 70
   128
 71
   44
 72
   101
 73
   100
  0
VERTEX
  8
toast_1
 10
0.0
 20
0.0
 30
0.0
 70
   128
 71
   45
 72
   102
 73
   101
  0
VERTEX
  8
toast_1
 10
0.0
 20
0.0
 30
0.0
 70
   128
 71
   46
 72
   103
 73
   102
  0
VERTEX
  8
toast_1
 10
0.0
 20
0.0
 30
0.0
 70
   128
 71
   133
 72
   117
 73
   118
  0
VERTEX
  8
toast_1
 10
0.0
 20
0.0
 30
0.0
 70
   128
 71
   125
 72
   118
 73
   119
  0
VERTEX
  8
toast_1
 10
0.0
 20
0.0
 30
0.0
 70
   128
 71
   47
 72
   104
 73
   103
  0
VERTEX
  8
toast_1
 10
0.0
 20
0.0
 30
0.0
 70
   128
 71
   119
 72
   120
 73
   123
  0
VERTEX
  8
toast_1
 10
0.0
 20
0.0
 30
0.0
 70
   128
 71
   48
 72
   105
 73
   104
  0
VERTEX
  8
toast_1
 10
0.0
 20
0.0
 30
0.0
 70
   128
 71
   49
 72
   106
 73
   105
  0
VERTEX
  8
toast_1
 10
0.0
 20
0.0
 30
0.0
 70
   128
 71
   120
 72
   121
 73
   122
  0
VERTEX
  8
toast_1
 10
0.0
 20
0.0
 30
0.0
 70
   128
 71
   131
 72
   126
 73
   127
  0
VERTEX
  8
toast_1
 10
0.0
 20
0.0
 30
0.0
 70
   128
 71
   131
 72
   128
 73
   129
  0
VERTEX
  8
toast_1
 10
0.0
 20
0.0
 30
0.0
 70
   128
 71
   125
 72
   126
 73
   131
  0
VERTEX
  8
toast_1
 10
0.0
 20
0.0
 30
0.0
 70
   128
 71
   125
 72
   132
 73
   133
  0
VERTEX
  8
toast_1
 10
0.0
 20
0.0
 30
0.0
 70
   128
 71
   115
 72
   116
 73
   117
  0
VERTEX
  8
toast_1
 10
0.0
 20
0.0
 30
0.0
 70
   128
 71
   50
 72
   107
 73
   106
  0
VERTEX
  8
toast_1
 10
0.0
 20
0.0
 30
0.0
 70
   128
 71
   51
 72
   108
 73
   107
  0
VERTEX
  8
toast_1
 10
0.0
 20
0.0
 30
0.0
 70
   128
 71
   52
 72
   109
 73
   108
  0
VERTEX
  8
toast_1
 10
0.0
 20
0.0
 30
0.0
 70
   128
 71
   53
 72
   110
 73
   109
  0
VERTEX
  8
toast_1
 10
0.0
 20
0.0
 30
0.0
 70
   128
 71
   54
 72
   111
 73
   110
  0
VERTEX
  8
toast_1
 10
0.0
 20
0.0
 30
0.0
 70
   128
 71
   55
 72
   112
 73
   111
  0
VERTEX
  8
toast_1
 10
0.0
 20
0.0
 30
0.0
 70
   128
 71
   56
 72
   113
 73
   112
  0
VERTEX
  8
toast_1
 10
0.0
 20
0.0
 30
0.0
 70
   128
 71
   57
 72
   114
 73
   113
  0
VERTEX
  8
toast_1
 10
0.0
 20
0.0
 30
0.0
 70
   128
 71
   58
 72
   115
 73
   133
  0
VERTEX
  8
toast_1
 10
0.0
 20
0.0
 30
0.0
 70
   128
 71
   76
 72
   116
 73
   115
  0
VERTEX
  8
toast_1
 10
0.0
 20
0.0
 30
0.0
 70
   128
 71
   75
 72
   117
 73
   116
  0
VERTEX
  8
toast_1
 10
0.0
 20
0.0
 30
0.0
 70
   128
 71
   74
 72
   118
 73
   117
  0
VERTEX
  8
toast_1
 10
0.0
 20
0.0
 30
0.0
 70
   128
 71
   73
 72
   119
 73
   118
  0
VERTEX
  8
toast_1
 10
0.0
 20
0.0
 30
0.0
 70
   128
 71
   72
 72
   120
 73
   119
  0
VERTEX
  8
toast_1
 10
0.0
 20
0.0
 30
0.0
 70
   128
 71
   71
 72
   121
 73
   120
  0
VERTEX
  8
toast_1
 10
0.0
 20
0.0
 30
0.0
 70
   128
 71
   70
 72
   122
 73
   121
  0
VERTEX
  8
toast_1
 10
0.0
 20
0.0
 30
0.0
 70
   128
 71
   69
 72
   123
 73
   122
  0
VERTEX
  8
toast_1
 10
0.0
 20
0.0
 30
0.0
 70
   128
 71
   68
 72
   124
 73
   123
  0
VERTEX
  8
toast_1
 10
0.0
 20
0.0
 30
0.0
 70
   128
 71
   67
 72
   125
 73
   124
  0
VERTEX
  8
toast_1
 10
0.0
 20
0.0
 30
0.0
 70
   128
 71
   66
 72
   126
 73
   125
  0
VERTEX
  8
toast_1
 10
0.0
 20
0.0
 30
0.0
 70
   128
 71
   65
 72
   127
 73
   126
  0
VERTEX
  8
toast_1
 10
0.0
 20
0.0
 30
0.0
 70
   128
 71
   64
 72
   128
 73
   127
  0
VERTEX
  8
toast_1
 10
0.0
 20
0.0
 30
0.0
 70
   128
 71
   63
 72
   129
 73
   128
  0
VERTEX
  8
toast_1
 10
0.0
 20
0.0
 30
0.0
 70
   128
 71
   62
 72
   130
 73
   129
  0
VERTEX
  8
toast_1
 10
0.0
 20
0.0
 30
0.0
 70
   128
 71
   61
 72
   131
 73
   130
  0
VERTEX
  8
toast_1
 10
0.0
 20
0.0
 30
0.0
 70
   128
 71
   60
 72
   132
 73
   131
  0
VERTEX
  8
toast_1
 10
0.0
 20
0.0
 30
0.0
 70
   128
 71
   59
 72
   133
 73
   132
  0
VERTEX
  8
toast_1
 10
0.0
 20
0.0
 30
0.0
 70
   128
 71
   1
 72
   21
 73
   2
  0
VERTEX
  8
toast_1
 10
0.0
 20
0.0
 30
0.0
 70
   128
 71
   2
 72
   22
 73
   3
  0
VERTEX
  8
toast_1
 10
0.0
 20
0.0
 30
0.0
 70
   128
 71
   3
 72
   23
 73
   4
  0
VERTEX
  8
toast_1
 10
0.0
 20
0.0
 30
0.0
 70
   128
 71
   4
 72
   24
 73
   5
  0
VERTEX
  8
toast_1
 10
0.0
 20
0.0
 30
0.0
 70
   128
 71
   5
 72
   25
 73
   6
  0
VERTEX
  8
toast_1
 10
0.0
 20
0.0
 30
0.0
 70
   128
 71
   6
 72
   26
 73
   7
  0
VERTEX
  8
toast_1
 10
0.0
 20
0.0
 30
0.0
 70
   128
 71
   7
 72
   27
 73
   8
  0
VERTEX
  8
toast_1
 10
0.0
 20
0.0
 30
0.0
 70
   128
 71
   8
 72
   28
 73
   9
  0
VERTEX
  8
toast_1
 10
0.0
 20
0.0
 30
0.0
 70
   128
 71
   9
 72
   29
 73
   10
  0
VERTEX
  8
toast_1
 10
0.0
 20
0.0
 30
0.0
 70
   128
 71
   10
 72
   30
 73
   11
  0
VERTEX
  8
toast_1
 10
0.0
 20
0.0
 30
0.0
 70
   128
 71
   11
 72
   31
 73
   12
  0
VERTEX
  8
toast_1
 10
0.0
 20
0.0
 30
0.0
 70
   128
 71
   12
 72
   32
 73
   13
  0
VERTEX
  8
toast_1
 10
0.0
 20
0.0
 30
0.0
 70
   128
 71
   13
 72
   33
 73
   14
  0
VERTEX
  8
toast_1
 10
0.0
 20
0.0
 30
0.0
 70
   128
 71
   14
 72
   34
 73
   15
  0
VERTEX
  8
toast_1
 10
0.0
 20
0.0
 30
0.0
 70
   128
 71
   15
 72
   35
 73
   16
  0
VERTEX
  8
toast_1
 10
0.0
 20
0.0
 30
0.0
 70
   128
 71
   16
 72
   36
 73
   17
  0
VERTEX
  8
toast_1
 10
0.0
 20
0.0
 30
0.0
 70
   128
 71
   17
 72
   37
 73
   18
  0
VERTEX
  8
toast_1
 10
0.0
 20
0.0
 30
0.0
 70
   128
 71
   18
 72
   38
 73
   19
  0
VERTEX
  8
toast_1
 10
0.0
 20
0.0
 30
0.0
 70
   128
 71
   19
 72
   20
 73
   1
  0
VERTEX
  8
toast_1
 10
0.0
 20
0.0
 30
0.0
 70
   128
 71
   39
 72
   114
 73
   57
  0
VERTEX
  8
toast_1
 10
0.0
 20
0.0
 30
0.0
 70
   128
 71
   97
 72
   112
 73
   113
  0
VERTEX
  8
toast_1
 10
0.0
 20
0.0
 30
0.0
 70
   128
 71
   40
 72
   96
 73
   39
  0
VERTEX
  8
toast_1
 10
0.0
 20
0.0
 30
0.0
 70
   128
 71
   41
 72
   97
 73
   40
  0
VERTEX
  8
toast_1
 10
0.0
 20
0.0
 30
0.0
 70
   128
 71
   105
 72
   99
 73
   104
  0
VERTEX
  8
toast_1
 10
0.0
 20
0.0
 30
0.0
 70
   128
 71
   105
 72
   111
 73
   112
  0
VERTEX
  8
toast_1
 10
0.0
 20
0.0
 30
0.0
 70
   128
 71
   111
 72
   107
 73
   110
  0
VERTEX
  8
toast_1
 10
0.0
 20
0.0
 30
0.0
 70
   128
 71
   103
 72
   99
 73
   102
  0
VERTEX
  8
toast_1
 10
0.0
 20
0.0
 30
0.0
 70
   128
 71
   42
 72
   98
 73
   41
  0
VERTEX
  8
toast_1
 10
0.0
 20
0.0
 30
0.0
 70
   128
 71
   96
 72
   113
 73
   114
  0
VERTEX
  8
toast_1
 10
0.0
 20
0.0
 30
0.0
 70
   128
 71
   110
 72
   108
 73
   109
  0
VERTEX
  8
toast_1
 10
0.0
 20
0.0
 30
0.0
 70
   128
 71
   43
 72
   99
 73
   42
  0
VERTEX
  8
toast_1
 10
0.0
 20
0.0
 30
0.0
 70
   128
 71
   99
 72
   101
 73
   102
  0
VERTEX
  8
toast_1
 10
0.0
 20
0.0
 30
0.0
 70
   128
 71
   44
 72
   100
 73
   43
  0
VERTEX
  8
toast_1
 10
0.0
 20
0.0
 30
0.0
 70
   128
 71
   45
 72
   101
 73
   44
  0
VERTEX
  8
toast_1
 10
0.0
 20
0.0
 30
0.0
 70
   128
 71
   46
 72
   102
 73
   45
  0
VERTEX
  8
toast_1
 10
0.0
 20
0.0
 30
0.0
 70
   128
 71
   133
 72
   118
 73
   125
  0
VERTEX
  8
toast_1
 10
0.0
 20
0.0
 30
0.0
 70
   128
 71
   125
 72
   119
 73
   124
  0
VERTEX
  8
toast_1
 10
0.0
 20
0.0
 30
0.0
 70
   128
 71
   47
 72
   103
 73
   46
  0
VERTEX
  8
toast_1
 10
0.0
 20
0.0
 30
0.0
 70
   128
 71
   119
 72
   123
 73
   124
  0
VERTEX
  8
toast_1
 10
0.0
 20
0.0
 30
0.0
 70
   128
 71
   48
 72
   104
 73
   47
  0
VERTEX
  8
toast_1
 10
0.0
 20
0.0
 30
0.0
 70
   128
 71
   49
 72
   105
 73
   48
  0
VERTEX
  8
toast_1
 10
0.0
 20
0.0
 30
0.0
 70
   128
 71
   120
 72
   122
 73
   123
  0
VERTEX
  8
toast_1
 10
0.0
 20
0.0
 30
0.0
 70
   128
 71
   131
 72
   127
 73
   128
  0
VERTEX
  8
toast_1
 10
0.0
 20
0.0
 30
0.0
 70
   128
 71
   131
 72
   129
 73
   130
  0
VERTEX
  8
toast_1
 10
0.0
 20
0.0
 30
0.0
 70
   128
 71
   125
 72
   131
 73
   132
  0
VERTEX
  8
toast_1
 10
0.0
 20
0.0
 30
0.0
 70
   128
 71
   115
 72
   117
 73
   133
  0
VERTEX
  8
toast_1
 10
0.0
 20
0.0
 30
0.0
 70
   128
 71
   50
 72
   106
 73
   49
  0
VERTEX
  8
toast_1
 10
0.0
 20
0.0
 30
0.0
 70
   128
 71
   51
 72
   107
 73
   50
  0
VERTEX
  8
toast_1
 10
0.0
 20
0.0
 30
0.0
 70
   128
 71
   52
 72
   108
 73
   51
  0
VERTEX
  8
toast_1
 10
0.0
 20
0.0
 30
0.0
 70
   128
 71
   53
 72
   109
 73
   52
  0
VERTEX
  8
toast_1
 10
0.0
 20
0.0
 30
0.0
 70
   128
 71
   54
 72
   110
 73
   53
  0
VERTEX
  8
toast_1
 10
0.0
 20
0.0
 30
0.0
 70
   128
 71
   55
 72
   111
 73
   54
  0
VERTEX
  8
toast_1
 10
0.0
 20
0.0
 30
0.0
 70
   128
 71
   56
 72
   112
 73
   55
  0
VERTEX
  8
toast_1
 10
0.0
 20
0.0
 30
0.0
 70
   128
 71
   57
 72
   113
 73
   56
  0
VERTEX
  8
toast_1
 10
0.0
 20
0.0
 30
0.0
 70
   128
 71
   58
 72
   133
 73
   59
  0
VERTEX
  8
toast_1
 10
0.0
 20
0.0
 30
0.0
 70
   128
 71
   76
 72
   115
 73
   58
  0
VERTEX
  8
toast_1
 10
0.0
 20
0.0
 30
0.0
 70
   128
 71
   75
 72
   116
 73
   76
  0
VERTEX
  8
toast_1
 10
0.0
 20
0.0
 30
0.0
 70
   128
 71
   74
 72
   117
 73
   75
  0
VERTEX
  8
toast_1
 10
0.0
 20
0.0
 30
0.0
 70
   128
 71
   73
 72
   118
 73
   74
  0
VERTEX
  8
toast_1
 10
0.0
 20
0.0
 30
0.0
 70
   128
 71
   72
 72
   119
 73
   73
  0
VERTEX
  8
toast_1
 10
0.0
 20
0.0
 30
0.0
 70
   128
 71
   71
 72
   120
 73
   72
  0
VERTEX
  8
toast_1
 10
0.0
 20
0.0
 30
0.0
 70
   128
 71
   70
 72
   121
 73
   71
  0
VERTEX
  8
toast_1
 10
0.0
 20
0.0
 30
0.0
 70
   128
 71
   69
 72
   122
 73
   70
  0
VERTEX
  8
toast_1
 10
0.0
 20
0.0
 30
0.0
 70
   128
 71
   68
 72
   123
 73
   69
  0
VERTEX
  8
toast_1
 10
0.0
 20
0.0
 30
0.0
 70
   128
 71
   67
 72
   124
 73
   68
  0
VERTEX
  8
toast_1
 10
0.0
 20
0.0
 30
0.0
 70
   128
 71
   66
 72
   125
 73
   67
  0
VERTEX
  8
toast_1
 10
0.0
 20
0.0
 30
0.0
 70
   128
 71
   65
 72
   126
 73
   66
  0
VERTEX
  8
toast_1
 10
0.0
 20
0.0
 30
0.0
 70
   128
 71
   64
 72
   127
 73
   65
  0
VERTEX
  8
toast_1
 10
0.0
 20
0.0
 30
0.0
 70
   128
 71
   63
 72
   128
 73
   64
  0
VERTEX
  8
toast_1
 10
0.0
 20
0.0
 30
0.0
 70
   128
 71
   62
 72
   129
 73
   63
  0
VERTEX
  8
toast_1
 10
0.0
 20
0.0
 30
0.0
 70
   128
 71
   61
 72
   130
 73
   62
  0
VERTEX
  8
toast_1
 10
0.0
 20
0.0
 30
0.0
 70
   128
 71
   60
 72
   131
 73
   61
  0
VERTEX
  8
toast_1
 10
0.0
 20
0.0
 30
0.0
 70
   128
 71
   59
 72
   132
 73
   60
  0
SEQEND
  0
POLYLINE
  8
tomato_2_2
 66
   1
 10
0.0
 20
0.0
 30
0.0
 70
   64
 71
   20
 72
   36
  0
VERTEX
  8
tomato_2_2
 10
84.057058
 20
53.107585
 30
85.863947
 70
   192
  0
VERTEX
  8
tomato_2_2
 10
84.050779
 20
69.177697
 30
85.872311
 70
   192
  0
VERTEX
  8
tomato_2_2
 10
94.339255
 20
53.538482
 30
54.226919
 70
   192
  0
VERTEX
  8
tomato_2_2
 10
94.325365
 20
69.607345
 30
54.239884
 70
   192
  0
VERTEX
  8
tomato_2_2
 10
84.064268
 20
53.137515
 30
22.609718
 70
   192
  0
VERTEX
  8
tomato_2_2
 10
84.040500
 20
69.458079
 30
22.596265
 70
   192
  0
VERTEX
  8
tomato_2_2
 10
57.139830
 20
53.119040
 30
3.052212
 70
   192
  0
VERTEX
  8
tomato_2_2
 10
57.139699
 20
69.305645
 30
3.052451
 70
   192
  0
VERTEX
  8
tomato_2_2
 10
23.890586
 20
53.091478
 30
3.052548
 70
   192
  0
VERTEX
  8
tomato_2_2
 10
23.865294
 20
69.140331
 30
3.035234
 70
   192
  0
VERTEX
  8
tomato_2_2
 10
-3.021561
 20
53.058147
 30
22.602507
 70
   192
  0
VERTEX
  8
tomato_2_2
 10
-3.033774
 20
68.976010
 30
22.595768
 70
   192
  0
VERTEX
  8
tomato_2_2
 10
-13.318298
 20
53.626036
 30
54.257684
 70
   192
  0
VERTEX
  8
tomato_2_2
 10
-13.308692
 20
69.881098
 30
54.228519
 70
   192
  0
VERTEX
  8
tomato_2_2
 10
-3.043376
 20
53.079109
 30
85.866447
 70
   192
  0
VERTEX
  8
tomato_2_2
 10
-3.022185
 20
69.410035
 30
85.881377
 70
   192
  0
VERTEX
  8
tomato_2_2
 10
23.873834
 20
53.104290
 30
105.415892
 70
   192
  0
VERTEX
  8
tomato_2_2
 10
23.885021
 20
69.268742
 30
105.424675
 70
   192
  0
VERTEX
  8
tomato_2_2
 10
57.139086
 20
52.947001
 30
105.416959
 70
   192
  0
VERTEX
  8
tomato_2_2
 10
57.144348
 20
69.197727
 30
105.422739
 70
   192
  0
VERTEX
  8
tomato_2_2
 10
0.0
 20
0.0
 30
0.0
 70
   128
 71
   1
 72
   3
 73
   5
  0
VERTEX
  8
tomato_2_2
 10
0.0
 20
0.0
 30
0.0
 70
   128
 71
   3
 72
   4
 73
   6
  0
VERTEX
  8
tomato_2_2
 10
0.0
 20
0.0
 30
0.0
 70
   128
 71
   6
 72
   4
 73
   2
  0
VERTEX
  8
tomato_2_2
 10
0.0
 20
0.0
 30
0.0
 70
   128
 71
   1
 72
   17
 73
   19
  0
VERTEX
  8
tomato_2_2
 10
0.0
 20
0.0
 30
0.0
 70
   128
 71
   5
 72
   6
 73
   8
  0
VERTEX
  8
tomato_2_2
 10
0.0
 20
0.0
 30
0.0
 70
   128
 71
   17
 72
   5
 73
   7
  0
VERTEX
  8
tomato_2_2
 10
0.0
 20
0.0
 30
0.0
 70
   128
 71
   7
 72
   9
 73
   11
  0
VERTEX
  8
tomato_2_2
 10
0.0
 20
0.0
 30
0.0
 70
   128
 71
   7
 72
   8
 73
   10
  0
VERTEX
  8
tomato_2_2
 10
0.0
 20
0.0
 30
0.0
 70
   128
 71
   7
 72
   11
 73
   13
  0
VERTEX
  8
tomato_2_2
 10
0.0
 20
0.0
 30
0.0
 70
   128
 71
   2
 72
   20
 73
   18
  0
VERTEX
  8
tomato_2_2
 10
0.0
 20
0.0
 30
0.0
 70
   128
 71
   9
 72
   10
 73
   12
  0
VERTEX
  8
tomato_2_2
 10
0.0
 20
0.0
 30
0.0
 70
   128
 71
   8
 72
   2
 73
   18
  0
VERTEX
  8
tomato_2_2
 10
0.0
 20
0.0
 30
0.0
 70
   128
 71
   12
 72
   18
 73
   16
  0
VERTEX
  8
tomato_2_2
 10
0.0
 20
0.0
 30
0.0
 70
   128
 71
   11
 72
   12
 73
   14
  0
VERTEX
  8
tomato_2_2
 10
0.0
 20
0.0
 30
0.0
 70
   128
 71
   12
 72
   10
 73
   8
  0
VERTEX
  8
tomato_2_2
 10
0.0
 20
0.0
 30
0.0
 70
   128
 71
   17
 72
   18
 73
   20
  0
VERTEX
  8
tomato_2_2
 10
0.0
 20
0.0
 30
0.0
 70
   128
 71
   13
 72
   14
 73
   16
  0
VERTEX
  8
tomato_2_2
 10
0.0
 20
0.0
 30
0.0
 70
   128
 71
   19
 72
   20
 73
   2
  0
VERTEX
  8
tomato_2_2
 10
0.0
 20
0.0
 30
0.0
 70
   128
 71
   1
 72
   2
 73
   4
  0
VERTEX
  8
tomato_2_2
 10
0.0
 20
0.0
 30
0.0
 70
   128
 71
   15
 72
   16
 73
   18
  0
VERTEX
  8
tomato_2_2
 10
0.0
 20
0.0
 30
0.0
 70
   128
 71
   1
 72
   5
 73
   17
  0
VERTEX
  8
tomato_2_2
 10
0.0
 20
0.0
 30
0.0
 70
   128
 71
   3
 72
   6
 73
   5
  0
VERTEX
  8
tomato_2_2
 10
0.0
 20
0.0
 30
0.0
 70
   128
 71
   6
 72
   2
 73
   8
  0
VERTEX
  8
tomato_2_2
 10
0.0
 20
0.0
 30
0.0
 70
   128
 71
   5
 72
   8
 73
   7
  0
VERTEX
  8
tomato_2_2
 10
0.0
 20
0.0
 30
0.0
 70
   128
 71
   17
 72
   7
 73
   15
  0
VERTEX
  8
tomato_2_2
 10
0.0
 20
0.0
 30
0.0
 70
   128
 71
   7
 72
   10
 73
   9
  0
VERTEX
  8
tomato_2_2
 10
0.0
 20
0.0
 30
0.0
 70
   128
 71
   7
 72
   13
 73
   15
  0
VERTEX
  8
tomato_2_2
 10
0.0
 20
0.0
 30
0.0
 70
   128
 71
   9
 72
   12
 73
   11
  0
VERTEX
  8
tomato_2_2
 10
0.0
 20
0.0
 30
0.0
 70
   128
 71
   8
 72
   18
 73
   12
  0
VERTEX
  8
tomato_2_2
 10
0.0
 20
0.0
 30
0.0
 70
   128
 71
   12
 72
   16
 73
   14
  0
VERTEX
  8
tomato_2_2
 10
0.0
 20
0.0
 30
0.0
 70
   128
 71
   11
 72
   14
 73
   13
  0
VERTEX
  8
tomato_2_2
 10
0.0
 20
0.0
 30
0.0
 70
   128
 71
   17
 72
   20
 73
   19
  0
VERTEX
  8
tomato_2_2
 10
0.0
 20
0.0
 30
0.0
 70
   128
 71
   13
 72
   16
 73
   15
  0
VERTEX
  8
tomato_2_2
 10
0.0
 20
0.0
 30
0.0
 70
   128
 71
   19
 72
   2
 73
   1
  0
VERTEX
  8
tomato_2_2
 10
0.0
 20
0.0
 30
0.0
 70
   128
 71
   1
 72
   4
 73
   3
  0
VERTEX
  8
tomato_2_2
 10
0.0
 20
0.0
 30
0.0
 70
   128
 71
   15
 72
   18
 73
   17
  0
SEQEND
  0
POLYLINE
  8
tomato_1_2
 66
   1
 10
0.0
 20
0.0
 30
0.0
 70
   64
 71
   20
 72
   36
  0
VERTEX
  8
tomato_1_2
 10
-12.293921
 20
56.927806
 30
60.470275
 70
   192
  0
VERTEX
  8
tomato_1_2
 10
-12.300200
 20
72.997918
 30
60.478640
 70
   192
  0
VERTEX
  8
tomato_1_2
 10
-2.011725
 20
57.358703
 30
28.833248
 70
   192
  0
VERTEX
  8
tomato_1_2
 10
-2.025615
 20
73.427565
 30
28.846212
 70
   192
  0
VERTEX
  8
tomato_1_2
 10
-12.286712
 20
56.957736
 30
-2.783953
 70
   192
  0
VERTEX
  8
tomato_1_2
 10
-12.310479
 20
73.278300
 30
-2.797406
 70
   192
  0
VERTEX
  8
tomato_1_2
 10
-39.211149
 20
56.939261
 30
-22.341460
 70
   192
  0
VERTEX
  8
tomato_1_2
 10
-39.211280
 20
73.125866
 30
-22.341221
 70
   192
  0
VERTEX
  8
tomato_1_2
 10
-72.460393
 20
56.911698
 30
-22.341123
 70
   192
  0
VERTEX
  8
tomato_1_2
 10
-72.485686
 20
72.960552
 30
-22.358438
 70
   192
  0
VERTEX
  8
tomato_1_2
 10
-99.372540
 20
56.878368
 30
-2.791164
 70
   192
  0
VERTEX
  8
tomato_1_2
 10
-99.384753
 20
72.796230
 30
-2.797904
 70
   192
  0
VERTEX
  8
tomato_1_2
 10
-109.669277
 20
57.446256
 30
28.864012
 70
   192
  0
VERTEX
  8
tomato_1_2
 10
-109.659671
 20
73.701318
 30
28.834847
 70
   192
  0
VERTEX
  8
tomato_1_2
 10
-99.394356
 20
56.899329
 30
60.472775
 70
   192
  0
VERTEX
  8
tomato_1_2
 10
-99.373165
 20
73.230256
 30
60.487706
 70
   192
  0
VERTEX
  8
tomato_1_2
 10
-72.477146
 20
56.924510
 30
80.022221
 70
   192
  0
VERTEX
  8
tomato_1_2
 10
-72.465959
 20
73.088963
 30
80.031003
 70
   192
  0
VERTEX
  8
tomato_1_2
 10
-39.211894
 20
56.767222
 30
80.023288
 70
   192
  0
VERTEX
  8
tomato_1_2
 10
-39.206631
 20
73.017947
 30
80.029068
 70
   192
  0
VERTEX
  8
tomato_1_2
 10
0.0
 20
0.0
 30
0.0
 70
   128
 71
   1
 72
   3
 73
   5
  0
VERTEX
  8
tomato_1_2
 10
0.0
 20
0.0
 30
0.0
 70
   128
 71
   3
 72
   4
 73
   6
  0
VERTEX
  8
tomato_1_2
 10
0.0
 20
0.0
 30
0.0
 70
   128
 71
   6
 72
   4
 73
   2
  0
VERTEX
  8
tomato_1_2
 10
0.0
 20
0.0
 30
0.0
 70
   128
 71
   1
 72
   17
 73
   19
  0
VERTEX
  8
tomato_1_2
 10
0.0
 20
0.0
 30
0.0
 70
   128
 71
   5
 72
   6
 73
   8
  0
VERTEX
  8
tomato_1_2
 10
0.0
 20
0.0
 30
0.0
 70
   128
 71
   17
 72
   5
 73
   7
  0
VERTEX
  8
tomato_1_2
 10
0.0
 20
0.0
 30
0.0
 70
   128
 71
   7
 72
   9
 73
   11
  0
VERTEX
  8
tomato_1_2
 10
0.0
 20
0.0
 30
0.0
 70
   128
 71
   7
 72
   8
 73
   10
  0
VERTEX
  8
tomato_1_2
 10
0.0
 20
0.0
 30
0.0
 70
   128
 71
   7
 72
   11
 73
   13
  0
VERTEX
  8
tomato_1_2
 10
0.0
 20
0.0
 30
0.0
 70
   128
 71
   2
 72
   20
 73
   18
  0
VERTEX
  8
tomato_1_2
 10
0.0
 20
0.0
 30
0.0
 70
   128
 71
   9
 72
   10
 73
   12
  0
VERTEX
  8
tomato_1_2
 10
0.0
 20
0.0
 30
0.0
 70
   128
 71
   8
 72
   2
 73
   18
  0
VERTEX
  8
tomato_1_2
 10
0.0
 20
0.0
 30
0.0
 70
   128
 71
   12
 72
   18
 73
   16
  0
VERTEX
  8
tomato_1_2
 10
0.0
 20
0.0
 30
0.0
 70
   128
 71
   11
 72
   12
 73
   14
  0
VERTEX
  8
tomato_1_2
 10
0.0
 20
0.0
 30
0.0
 70
   128
 71
   12
 72
   10
 73
   8
  0
VERTEX
  8
tomato_1_2
 10
0.0
 20
0.0
 30
0.0
 70
   128
 71
   17
 72
   18
 73
   20
  0
VERTEX
  8
tomato_1_2
 10
0.0
 20
0.0
 30
0.0
 70
   128
 71
   13
 72
   14
 73
   16
  0
VERTEX
  8
tomato_1_2
 10
0.0
 20
0.0
 30
0.0
 70
   128
 71
   19
 72
   20
 73
   2
  0
VERTEX
  8
tomato_1_2
 10
0.0
 20
0.0
 30
0.0
 70
   128
 71
   1
 72
   2
 73
   4
  0
VERTEX
  8
tomato_1_2
 10
0.0
 20
0.0
 30
0.0
 70
   128
 71
   15
 72
   16
 73
   18
  0
VERTEX
  8
tomato_1_2
 10
0.0
 20
0.0
 30
0.0
 70
   128
 71
   1
 72
   5
 73
   17
  0
VERTEX
  8
tomato_1_2
 10
0.0
 20
0.0
 30
0.0
 70
   128
 71
   3
 72
   6
 73
   5
  0
VERTEX
  8
tomato_1_2
 10
0.0
 20
0.0
 30
0.0
 70
   128
 71
   6
 72
   2
 73
   8
  0
VERTEX
  8
tomato_1_2
 10
0.0
 20
0.0
 30
0.0
 70
   128
 71
   5
 72
   8
 73
   7
  0
VERTEX
  8
tomato_1_2
 10
0.0
 20
0.0
 30
0.0
 70
   128
 71
   17
 72
   7
 73
   15
  0
VERTEX
  8
tomato_1_2
 10
0.0
 20
0.0
 30
0.0
 70
   128
 71
   7
 72
   10
 73
   9
  0
VERTEX
  8
tomato_1_2
 10
0.0
 20
0.0
 30
0.0
 70
   128
 71
   7
 72
   13
 73
   15
  0
VERTEX
  8
tomato_1_2
 10
0.0
 20
0.0
 30
0.0
 70
   128
 71
   9
 72
   12
 73
   11
  0
VERTEX
  8
tomato_1_2
 10
0.0
 20
0.0
 30
0.0
 70
   128
 71
   8
 72
   18
 73
   12
  0
VERTEX
  8
tomato_1_2
 10
0.0
 20
0.0
 30
0.0
 70
   128
 71
   12
 72
   16
 73
   14
  0
VERTEX
  8
tomato_1_2
 10
0.0
 20
0.0
 30
0.0
 70
   128
 71
   11
 72
   14
 73
   13
  0
VERTEX
  8
tomato_1_2
 10
0.0
 20
0.0
 30
0.0
 70
   128
 71
   17
 72
   20
 73
   19
  0
VERTEX
  8
tomato_1_2
 10
0.0
 20
0.0
 30
0.0
 70
   128
 71
   13
 72
   16
 73
   15
  0
VERTEX
  8
tomato_1_2
 10
0.0
 20
0.0
 30
0.0
 70
   128
 71
   19
 72
   2
 73
   1
  0
VERTEX
  8
tomato_1_2
 10
0.0
 20
0.0
 30
0.0
 70
   128
 71
   1
 72
   4
 73
   3
  0
VERTEX
  8
tomato_1_2
 10
0.0
 20
0.0
 30
0.0
 70
   128
 71
   15
 72
   18
 73
   17
  0
SEQEND
  0
POLYLINE
  8
tomato_2_3
 66
   1
 10
0.0
 20
0.0
 30
0.0
 70
   64
 71
   20
 72
   36
  0
VERTEX
  8
tomato_2_3
 10
61.251566
 20
52.220207
 30
-15.699829
 70
   192
  0
VERTEX
  8
tomato_2_3
 10
61.245287
 20
68.290319
 30
-15.691465
 70
   192
  0
VERTEX
  8
tomato_2_3
 10
71.533762
 20
52.651104
 30
-47.336857
 70
   192
  0
VERTEX
  8
tomato_2_3
 10
71.519873
 20
68.719967
 30
-47.323892
 70
   192
  0
VERTEX
  8
tomato_2_3
 10
61.258775
 20
52.250137
 30
-78.954058
 70
   192
  0
VERTEX
  8
tomato_2_3
 10
61.235008
 20
68.570701
 30
-78.967511
 70
   192
  0
VERTEX
  8
tomato_2_3
 10
34.334338
 20
52.231662
 30
-98.511565
 70
   192
  0
VERTEX
  8
tomato_2_3
 10
34.334207
 20
68.418267
 30
-98.511325
 70
   192
  0
VERTEX
  8
tomato_2_3
 10
1.085094
 20
52.204100
 30
-98.511228
 70
   192
  0
VERTEX
  8
tomato_2_3
 10
1.059802
 20
68.252953
 30
-98.528542
 70
   192
  0
VERTEX
  8
tomato_2_3
 10
-25.827053
 20
52.170769
 30
-78.961269
 70
   192
  0
VERTEX
  8
tomato_2_3
 10
-25.839266
 20
68.088632
 30
-78.968008
 70
   192
  0
VERTEX
  8
tomato_2_3
 10
-36.123790
 20
52.738658
 30
-47.306092
 70
   192
  0
VERTEX
  8
tomato_2_3
 10
-36.114184
 20
68.993720
 30
-47.335257
 70
   192
  0
VERTEX
  8
tomato_2_3
 10
-25.848869
 20
52.191730
 30
-15.697329
 70
   192
  0
VERTEX
  8
tomato_2_3
 10
-25.827678
 20
68.522657
 30
-15.682399
 70
   192
  0
VERTEX
  8
tomato_2_3
 10
1.068341
 20
52.216912
 30
3.852116
 70
   192
  0
VERTEX
  8
tomato_2_3
 10
1.079528
 20
68.381364
 30
3.860899
 70
   192
  0
VERTEX
  8
tomato_2_3
 10
34.333593
 20
52.059623
 30
3.853183
 70
   192
  0
VERTEX
  8
tomato_2_3
 10
34.338856
 20
68.310349
 30
3.858963
 70
   192
  0
VERTEX
  8
tomato_2_3
 10
0.0
 20
0.0
 30
0.0
 70
   128
 71
   1
 72
   3
 73
   5
  0
VERTEX
  8
tomato_2_3
 10
0.0
 20
0.0
 30
0.0
 70
   128
 71
   3
 72
   4
 73
   6
  0
VERTEX
  8
tomato_2_3
 10
0.0
 20
0.0
 30
0.0
 70
   128
 71
   6
 72
   4
 73
   2
  0
VERTEX
  8
tomato_2_3
 10
0.0
 20
0.0
 30
0.0
 70
   128
 71
   1
 72
   17
 73
   19
  0
VERTEX
  8
tomato_2_3
 10
0.0
 20
0.0
 30
0.0
 70
   128
 71
   5
 72
   6
 73
   8
  0
VERTEX
  8
tomato_2_3
 10
0.0
 20
0.0
 30
0.0
 70
   128
 71
   17
 72
   5
 73
   7
  0
VERTEX
  8
tomato_2_3
 10
0.0
 20
0.0
 30
0.0
 70
   128
 71
   7
 72
   9
 73
   11
  0
VERTEX
  8
tomato_2_3
 10
0.0
 20
0.0
 30
0.0
 70
   128
 71
   7
 72
   8
 73
   10
  0
VERTEX
  8
tomato_2_3
 10
0.0
 20
0.0
 30
0.0
 70
   128
 71
   7
 72
   11
 73
   13
  0
VERTEX
  8
tomato_2_3
 10
0.0
 20
0.0
 30
0.0
 70
   128
 71
   2
 72
   20
 73
   18
  0
VERTEX
  8
tomato_2_3
 10
0.0
 20
0.0
 30
0.0
 70
   128
 71
   9
 72
   10
 73
   12
  0
VERTEX
  8
tomato_2_3
 10
0.0
 20
0.0
 30
0.0
 70
   128
 71
   8
 72
   2
 73
   18
  0
VERTEX
  8
tomato_2_3
 10
0.0
 20
0.0
 30
0.0
 70
   128
 71
   12
 72
   18
 73
   16
  0
VERTEX
  8
tomato_2_3
 10
0.0
 20
0.0
 30
0.0
 70
   128
 71
   11
 72
   12
 73
   14
  0
VERTEX
  8
tomato_2_3
 10
0.0
 20
0.0
 30
0.0
 70
   128
 71
   12
 72
   10
 73
   8
  0
VERTEX
  8
tomato_2_3
 10
0.0
 20
0.0
 30
0.0
 70
   128
 71
   17
 72
   18
 73
   20
  0
VERTEX
  8
tomato_2_3
 10
0.0
 20
0.0
 30
0.0
 70
   128
 71
   13
 72
   14
 73
   16
  0
VERTEX
  8
tomato_2_3
 10
0.0
 20
0.0
 30
0.0
 70
   128
 71
   19
 72
   20
 73
   2
  0
VERTEX
  8
tomato_2_3
 10
0.0
 20
0.0
 30
0.0
 70
   128
 71
   1
 72
   2
 73
   4
  0
VERTEX
  8
tomato_2_3
 10
0.0
 20
0.0
 30
0.0
 70
   128
 71
   15
 72
   16
 73
   18
  0
VERTEX
  8
tomato_2_3
 10
0.0
 20
0.0
 30
0.0
 70
   128
 71
   1
 72
   5
 73
   17
  0
VERTEX
  8
tomato_2_3
 10
0.0
 20
0.0
 30
0.0
 70
   128
 71
   3
 72
   6
 73
   5
  0
VERTEX
  8
tomato_2_3
 10
0.0
 20
0.0
 30
0.0
 70
   128
 71
   6
 72
   2
 73
   8
  0
VERTEX
  8
tomato_2_3
 10
0.0
 20
0.0
 30
0.0
 70
   128
 71
   5
 72
   8
 73
   7
  0
VERTEX
  8
tomato_2_3
 10
0.0
 20
0.0
 30
0.0
 70
   128
 71
   17
 72
   7
 73
   15
  0
VERTEX
  8
tomato_2_3
 10
0.0
 20
0.0
 30
0.0
 70
   128
 71
   7
 72
   10
 73
   9
  0
VERTEX
  8
tomato_2_3
 10
0.0
 20
0.0
 30
0.0
 70
   128
 71
   7
 72
   13
 73
   15
  0
VERTEX
  8
tomato_2_3
 10
0.0
 20
0.0
 30
0.0
 70
   128
 71
   9
 72
   12
 73
   11
  0
VERTEX
  8
tomato_2_3
 10
0.0
 20
0.0
 30
0.0
 70
   128
 71
   8
 72
   18
 73
   12
  0
VERTEX
  8
tomato_2_3
 10
0.0
 20
0.0
 30
0.0
 70
   128
 71
   12
 72
   16
 73
   14
  0
VERTEX
  8
tomato_2_3
 10
0.0
 20
0.0
 30
0.0
 70
   128
 71
   11
 72
   14
 73
   13
  0
VERTEX
  8
tomato_2_3
 10
0.0
 20
0.0
 30
0.0
 70
   128
 71
   17
 72
   20
 73
   19
  0
VERTEX
  8
tomato_2_3
 10
0.0
 20
0.0
 30
0.0
 70
   128
 71
   13
 72
   16
 73
   15
  0
VERTEX
  8
tomato_2_3
 10
0.0
 20
0.0
 30
0.0
 70
   128
 71
   19
 72
   2
 73
   1
  0
VERTEX
  8
tomato_2_3
 10
0.0
 20
0.0
 30
0.0
 70
   128
 71
   1
 72
   4
 73
   3
  0
VERTEX
  8
tomato_2_3
 10
0.0
 20
0.0
 30
0.0
 70
   128
 71
   15
 72
   18
 73
   17
  0
SEQEND
  0
POLYLINE
  8
meat_1_2
 66
   1
 10
0.0
 20
0.0
 30
0.0
 70
   64
 71
   8
 72
   12
  0
VERTEX
  8
meat_1_2
 10
-87.000000
 20
38.937385
 30
-76.905228
 70
   192
  0
VERTEX
  8
meat_1_2
 10
-87.000000
 20
53.241895
 30
-76.905228
 70
   192
  0
VERTEX
  8
meat_1_2
 10
87.000000
 20
38.937385
 30
97.094772
 70
   192
  0
VERTEX
  8
meat_1_2
 10
87.000000
 20
53.241895
 30
97.094772
 70
   192
  0
VERTEX
  8
meat_1_2
 10
87.000000
 20
38.937385
 30
-76.905228
 70
   192
  0
VERTEX
  8
meat_1_2
 10
87.000000
 20
53.241895
 30
-76.905228
 70
   192
  0
VERTEX
  8
meat_1_2
 10
-88.761848
 20
38.937385
 30
92.543016
 70
   192
  0
VERTEX
  8
meat_1_2
 10
-88.761848
 20
53.241895
 30
92.543016
 70
   192
  0
VERTEX
  8
meat_1_2
 10
0.0
 20
0.0
 30
0.0
 70
   128
 71
   8
 72
   4
 73
   3
  0
VERTEX
  8
meat_1_2
 10
0.0
 20
0.0
 30
0.0
 70
   128
 71
   8
 72
   2
 73
   6
  0
VERTEX
  8
meat_1_2
 10
0.0
 20
0.0
 30
0.0
 70
   128
 71
   5
 72
   6
 73
   2
  0
VERTEX
  8
meat_1_2
 10
0.0
 20
0.0
 30
0.0
 70
   128
 71
   7
 72
   3
 73
   5
  0
VERTEX
  8
meat_1_2
 10
0.0
 20
0.0
 30
0.0
 70
   128
 71
   6
 72
   4
 73
   8
  0
VERTEX
  8
meat_1_2
 10
0.0
 20
0.0
 30
0.0
 70
   128
 71
   7
 72
   1
 73
   2
  0
VERTEX
  8
meat_1_2
 10
0.0
 20
0.0
 30
0.0
 70
   128
 71
   5
 72
   3
 73
   4
  0
VERTEX
  8
meat_1_2
 10
0.0
 20
0.0
 30
0.0
 70
   128
 71
   5
 72
   1
 73
   7
  0
VERTEX
  8
meat_1_2
 10
0.0
 20
0.0
 30
0.0
 70
   128
 71
   8
 72
   3
 73
   7
  0
VERTEX
  8
meat_1_2
 10
0.0
 20
0.0
 30
0.0
 70
   128
 71
   5
 72
   2
 73
   1
  0
VERTEX
  8
meat_1_2
 10
0.0
 20
0.0
 30
0.0
 70
   128
 71
   7
 72
   2
 73
   8
  0
VERTEX
  8
meat_1_2
 10
0.0
 20
0.0
 30
0.0
 70
   128
 71
   5
 72
   4
 73
   6
  0
SEQEND
  0
POLYLINE
  8
toast_1_2
 66
   1
 10
0.0
 20
0.0
 30
0.0
 70
   64
 71
   133
 72
   148
  0
VERTEX
  8
toast_1_2
 10
-88.568748
 20
104.852806
 30
98.032716
 70
   192
  0
VERTEX
  8
toast_1_2
 10
-83.962335
 20
104.852806
 30
40.900065
 70
   192
  0
VERTEX
  8
toast_1_2
 10
-79.774688
 20
104.852806
 30
-4.966994
 70
   192
  0
VERTEX
  8
toast_1_2
 10
-82.706041
 20
104.852806
 30
-37.154403
 70
   192
  0
VERTEX
  8
toast_1_2
 10
-95.687749
 20
104.852806
 30
-45.603598
 70
   192
  0
VERTEX
  8
toast_1_2
 10
-98.619102
 20
104.852806
 30
-67.330099
 70
   192
  0
VERTEX
  8
toast_1_2
 10
-89.841464
 20
104.852806
 30
-89.458943
 70
   192
  0
VERTEX
  8
toast_1_2
 10
-54.115082
 20
104.852806
 30
-98.310481
 70
   192
  0
VERTEX
  8
toast_1_2
 10
-17.173461
 20
104.852806
 30
-85.837860
 70
   192
  0
VERTEX
  8
toast_1_2
 10
12.033329
 20
104.852806
 30
-61.294960
 70
   192
  0
VERTEX
  8
toast_1_2
 10
30.360445
 20
104.852806
 30
-75.779294
 70
   192
  0
VERTEX
  8
toast_1_2
 10
52.554978
 20
104.852806
 30
-89.861286
 70
   192
  0
VERTEX
  8
toast_1_2
 10
75.168275
 20
104.852806
 30
-91.470656
 70
   192
  0
VERTEX
  8
toast_1_2
 10
96.106514
 20
104.852806
 30
-78.193350
 70
   192
  0
VERTEX
  8
toast_1_2
 10
98.619102
 20
104.852806
 30
-47.212968
 70
   192
  0
VERTEX
  8
toast_1_2
 10
78.937158
 20
104.852806
 30
-24.279439
 70
   192
  0
VERTEX
  8
toast_1_2
 10
76.843334
 20
104.852806
 30
-0.138882
 70
   192
  0
VERTEX
  8
toast_1_2
 10
81.449747
 20
104.852806
 30
65.040622
 70
   192
  0
VERTEX
  8
toast_1_2
 10
88.987513
 20
104.852806
 30
98.032716
 70
   192
  0
VERTEX
  8
toast_1_2
 10
-88.568748
 20
74.832601
 30
98.032716
 70
   192
  0
VERTEX
  8
toast_1_2
 10
-83.962335
 20
74.832601
 30
40.900065
 70
   192
  0
VERTEX
  8
toast_1_2
 10
-79.774688
 20
74.832601
 30
-4.966994
 70
   192
  0
VERTEX
  8
toast_1_2
 10
-82.706041
 20
74.832601
 30
-37.154403
 70
   192
  0
VERTEX
  8
toast_1_2
 10
-95.687749
 20
74.832601
 30
-45.603598
 70
   192
  0
VERTEX
  8
toast_1_2
 10
-98.619102
 20
74.832601
 30
-67.330099
 70
   192
  0
VERTEX
  8
toast_1_2
 10
-89.841464
 20
74.832601
 30
-89.458943
 70
   192
  0
VERTEX
  8
toast_1_2
 10
-54.115082
 20
74.832601
 30
-98.310481
 70
   192
  0
VERTEX
  8
toast_1_2
 10
-17.173461
 20
74.832601
 30
-85.837860
 70
   192
  0
VERTEX
  8
toast_1_2
 10
12.033329
 20
74.832601
 30
-61.294960
 70
   192
  0
VERTEX
  8
toast_1_2
 10
30.360445
 20
74.832601
 30
-75.779294
 70
   192
  0
VERTEX
  8
toast_1_2
 10
52.554978
 20
74.832601
 30
-89.861286
 70
   192
  0
VERTEX
  8
toast_1_2
 10
75.168275
 20
74.832601
 30
-91.470656
 70
   192
  0
VERTEX
  8
toast_1_2
 10
96.106514
 20
74.832601
 30
-78.193350
 70
   192
  0
VERTEX
  8
toast_1_2
 10
98.619102
 20
74.832601
 30
-47.212968
 70
   192
  0
VERTEX
  8
toast_1_2
 10
78.937158
 20
74.832601
 30
-24.279439
 70
   192
  0
VERTEX
  8
toast_1_2
 10
76.843334
 20
74.832601
 30
-0.138882
 70
   192
  0
VERTEX
  8
toast_1_2
 10
81.449747
 20
74.832601
 30
65.040622
 70
   192
  0
VERTEX
  8
toast_1_2
 10
88.987513
 20
74.832601
 30
98.032716
 70
   192
  0
VERTEX
  8
toast_1_2
 10
-88.568748
 20
104.852806
 30
98.032716
 70
   192
  0
VERTEX
  8
toast_1_2
 10
-83.962335
 20
104.852806
 30
40.900065
 70
   192
  0
VERTEX
  8
toast_1_2
 10
-79.774688
 20
104.852806
 30
-4.966994
 70
   192
  0
VERTEX
  8
toast_1_2
 10
-82.706041
 20
104.852806
 30
-37.154403
 70
   192
  0
VERTEX
  8
toast_1_2
 10
-95.687749
 20
104.852806
 30
-45.603598
 70
   192
  0
VERTEX
  8
toast_1_2
 10
-98.619102
 20
104.852806
 30
-67.330099
 70
   192
  0
VERTEX
  8
toast_1_2
 10
-89.841464
 20
104.852806
 30
-89.458943
 70
   192
  0
VERTEX
  8
toast_1_2
 10
-54.115082
 20
104.852806
 30
-98.310481
 70
   192
  0
VERTEX
  8
toast_1_2
 10
-17.173461
 20
104.852806
 30
-85.837860
 70
   192
  0
VERTEX
  8
toast_1_2
 10
12.033329
 20
104.852806
 30
-61.294960
 70
   192
  0
VERTEX
  8
toast_1_2
 10
30.360445
 20
104.852806
 30
-75.779294
 70
   192
  0
VERTEX
  8
toast_1_2
 10
52.554978
 20
104.852806
 30
-89.861286
 70
   192
  0
VERTEX
  8
toast_1_2
 10
75.168275
 20
104.852806
 30
-91.470656
 70
   192
  0
VERTEX
  8
toast_1_2
 10
96.106514
 20
104.852806
 30
-78.193350
 70
   192
  0
VERTEX
  8
toast_1_2
 10
98.619102
 20
104.852806
 30
-47.212968
 70
   192
  0
VERTEX
  8
toast_1_2
 10
78.937158
 20
104.852806
 30
-24.279439
 70
   192
  0
VERTEX
  8
toast_1_2
 10
76.843334
 20
104.852806
 30
-0.138882
 70
   192
  0
VERTEX
  8
toast_1_2
 10
81.449747
 20
104.852806
 30
65.040622
 70
   192
  0
VERTEX
  8
toast_1_2
 10
88.987513
 20
104.852806
 30
98.032716
 70
   192
  0
VERTEX
  8
toast_1_2
 10
-88.568748
 20
74.832601
 30
98.032716
 70
   192
  0
VERTEX
  8
toast_1_2
 10
-83.962335
 20
74.832601
 30
40.900065
 70
   192
  0
VERTEX
  8
toast_1_2
 10
-79.774688
 20
74.832601
 30
-4.966994
 70
   192
  0
VERTEX
  8
toast_1_2
 10
-82.706041
 20
74.832601
 30
-37.154403
 70
   192
  0
VERTEX
  8
toast_1_2
 10
-95.687749
 20
74.832601
 30
-45.603598
 70
   192
  0
VERTEX
  8
toast_1_2
 10
-98.619102
 20
74.832601
 30
-67.330099
 70
   192
  0
VERTEX
  8
toast_1_2
 10
-89.841464
 20
74.832601
 30
-89.458943
 70
   192
  0
VERTEX
  8
toast_1_2
 10
-54.115082
 20
74.832601
 30
-98.310481
 70
   192
  0
VERTEX
  8
toast_1_2
 10
-17.173461
 20
74.832601
 30
-85.837860
 70
   192
  0
VERTEX
  8
toast_1_2
 10
12.033329
 20
74.832601
 30
-61.294960
 70
   192
  0
VERTEX
  8
toast_1_2
 10
30.360445
 20
74.832601
 30
-75.779294
 70
   192
  0
VERTEX
  8
toast_1_2
 10
52.554978
 20
74.832601
 30
-89.861286
 70
   192
  0
VERTEX
  8
toast_1_2
 10
75.168275
 20
74.832601
 30
-91.470656
 70
   192
  0
VERTEX
  8
toast_1_2
 10
96.106514
 20
74.832601
 30
-78.193350
 70
   192
  0
VERTEX
  8
toast_1_2
 10
98.619102
 20
74.832601
 30
-47.212968
 70
   192
  0
VERTEX
  8
toast_1_2
 10
78.937158
 20
74.832601
 30
-24.279439
 70
   192
  0
VERTEX
  8
toast_1_2
 10
76.843334
 20
74.832601
 30
-0.138882
 70
   192
  0
VERTEX
  8
toast_1_2
 10
81.449747
 20
74.832601
 30
65.040622
 70
   192
  0
VERTEX
  8
toast_1_2
 10
88.987513
 20
74.832601
 30
98.032716
 70
   192
  0
VERTEX
  8
toast_1_2
 10
0.000000
 20
104.852806
 30
98.310481
 70
   192
  0
VERTEX
  8
toast_1_2
 10
0.000000
 20
104.852806
 30
98.310481
 70
   192
  0
VERTEX
  8
toast_1_2
 10
0.000000
 20
104.852806
 30
98.310481
 70
   192
  0
VERTEX
  8
toast_1_2
 10
0.000000
 20
104.852806
 30
98.310481
 70
   192
  0
VERTEX
  8
toast_1_2
 10
0.000000
 20
104.852806
 30
98.310481
 70
   192
  0
VERTEX
  8
toast_1_2
 10
0.000000
 20
104.852806
 30
98.310481
 70
   192
  0
VERTEX
  8
toast_1_2
 10
0.000000
 20
104.852806
 30
98.310481
 70
   192
  0
VERTEX
  8
toast_1_2
 10
0.000000
 20
104.852806
 30
98.310481
 70
   192
  0
VERTEX
  8
toast_1_2
 10
0.000000
 20
104.852806
 30
98.310481
 70
   192
  0
VERTEX
  8
toast_1_2
 10
0.000000
 20
104.852806
 30
98.310481
 70
   192
  0
VERTEX
  8
toast_1_2
 10
0.000000
 20
104.852806
 30
98.310481
 70
   192
  0
VERTEX
  8
toast_1_2
 10
0.000000
 20
104.852806
 30
98.310481
 70
   192
  0
VERTEX
  8
toast_1_2
 10
0.000000
 20
104.852806
 30
98.310481
 70
   192
  0
VERTEX
  8
toast_1_2
 10
0.000000
 20
104.852806
 30
98.310481
 70
   192
  0
VERTEX
  8
toast_1_2
 10
0.000000
 20
104.852806
 30
98.310481
 70
   192
  0
VERTEX
  8
toast_1_2
 10
0.000000
 20
104.852806
 30
98.310481
 70
   192
  0
VERTEX
  8
toast_1_2
 10
0.000000
 20
104.852806
 30
98.310481
 70
   192
  0
VERTEX
  8
toast_1_2
 10
0.000000
 20
104.852806
 30
98.310481
 70
   192
  0
VERTEX
  8
toast_1_2
 10
0.000000
 20
104.852806
 30
98.310481
 70
   192
  0
VERTEX
  8
toast_1_2
 10
-79.431325
 20
104.852806
 30
91.918794
 70
   192
  0
VERTEX
  8
toast_1_2
 10
-75.946519
 20
104.852806
 30
48.697261
 70
   192
  0
VERTEX
  8
toast_1_2
 10
-71.203547
 20
104.852806
 30
-3.252239
 70
   192
  0
VERTEX
  8
toast_1_2
 10
-75.366825
 20
104.852806
 30
-48.966661
 70
   192
  0
VERTEX
  8
toast_1_2
 10
-90.033435
 20
104.852806
 30
-58.512482
 70
   192
  0
VERTEX
  8
toast_1_2
 10
-91.519737
 20
104.852806
 30
-69.528599
 70
   192
  0
VERTEX
  8
toast_1_2
 10
-87.030485
 20
104.852806
 30
-80.846217
 70
   192
  0
VERTEX
  8
toast_1_2
 10
-61.878643
 20
104.852806
 30
-87.077816
 70
   192
  0
VERTEX
  8
toast_1_2
 10
-29.493006
 20
104.852806
 30
-76.143434
 70
   192
  0
VERTEX
  8
toast_1_2
 10
11.245953
 20
104.852806
 30
-41.909881
 70
   192
  0
VERTEX
  8
toast_1_2
 10
42.180308
 20
104.852806
 30
-66.358000
 70
   192
  0
VERTEX
  8
toast_1_2
 10
61.944264
 20
104.852806
 30
-78.897838
 70
   192
  0
VERTEX
  8
toast_1_2
 10
76.340223
 20
104.852806
 30
-79.922387
 70
   192
  0
VERTEX
  8
toast_1_2
 10
86.753067
 20
104.852806
 30
-73.319419
 70
   192
  0
VERTEX
  8
toast_1_2
 10
88.180661
 20
104.852806
 30
-55.717096
 70
   192
  0
VERTEX
  8
toast_1_2
 10
67.667439
 20
104.852806
 30
-31.814956
 70
   192
  0
VERTEX
  8
toast_1_2
 10
64.742531
 20
104.852806
 30
1.907511
 70
   192
  0
VERTEX
  8
toast_1_2
 10
70.003043
 20
104.852806
 30
76.342350
 70
   192
  0
VERTEX
  8
toast_1_2
 10
73.561823
 20
104.852806
 30
91.918794
 70
   192
  0
VERTEX
  8
toast_1_2
 10
-79.431325
 20
74.832601
 30
91.918794
 70
   192
  0
VERTEX
  8
toast_1_2
 10
73.561823
 20
74.832601
 30
91.918794
 70
   192
  0
VERTEX
  8
toast_1_2
 10
70.003043
 20
74.832601
 30
76.342350
 70
   192
  0
VERTEX
  8
toast_1_2
 10
64.742531
 20
74.832601
 30
1.907511
 70
   192
  0
VERTEX
  8
toast_1_2
 10
67.667439
 20
74.832601
 30
-31.814956
 70
   192
  0
VERTEX
  8
toast_1_2
 10
88.180661
 20
74.832601
 30
-55.717096
 70
   192
  0
VERTEX
  8
toast_1_2
 10
86.753067
 20
74.832601
 30
-73.319419
 70
   192
  0
VERTEX
  8
toast_1_2
 10
76.340223
 20
74.832601
 30
-79.922387
 70
   192
  0
VERTEX
  8
toast_1_2
 10
61.944264
 20
74.832601
 30
-78.897838
 70
   192
  0
VERTEX
  8
toast_1_2
 10
42.180308
 20
74.832601
 30
-66.358000
 70
   192
  0
VERTEX
  8
toast_1_2
 10
11.245953
 20
74.832601
 30
-41.909881
 70
   192
  0
VERTEX
  8
toast_1_2
 10
-29.493006
 20
74.832601
 30
-76.143434
 70
   192
  0
VERTEX
  8
toast_1_2
 10
-61.878643
 20
74.832601
 30
-87.077816
 70
   192
  0
VERTEX
  8
toast_1_2
 10
-87.030485
 20
74.832601
 30
-80.846217
 70
   192
  0
VERTEX
  8
toast_1_2
 10
-91.519737
 20
74.832601
 30
-69.528599
 70
   192
  0
VERTEX
  8
toast_1_2
 10
-90.033435
 20
74.832601
 30
-58.512482
 70
   192
  0
VERTEX
  8
toast_1_2
 10
-75.366825
 20
74.832601
 30
-48.966661
 70
   192
  0
VERTEX
  8
toast_1_2
 10
-71.203547
 20
74.832601
 30
-3.252239
 70
   192
  0
VERTEX
  8
toast_1_2
 10
-75.946519
 20
74.832601
 30
48.697261
 70
   192
  0
VERTEX
  8
toast_1_2
 10
0.0
 20
0.0
 30
0.0
 70
   128
 71
   1
 72
   20
 73
   21
  0
VERTEX
  8
toast_1_2
 10
0.0
 20
0.0
 30
0.0
 70
   128
 71
   2
 72
   21
 73
   22
  0
VERTEX
  8
toast_1_2
 10
0.0
 20
0.0
 30
0.0
 70
   128
 71
   3
 72
   22
 73
   23
  0
VERTEX
  8
toast_1_2
 10
0.0
 20
0.0
 30
0.0
 70
   128
 71
   4
 72
   23
 73
   24
  0
VERTEX
  8
toast_1_2
 10
0.0
 20
0.0
 30
0.0
 70
   128
 71
   5
 72
   24
 73
   25
  0
VERTEX
  8
toast_1_2
 10
0.0
 20
0.0
 30
0.0
 70
   128
 71
   6
 72
   25
 73
   26
  0
VERTEX
  8
toast_1_2
 10
0.0
 20
0.0
 30
0.0
 70
   128
 71
   7
 72
   26
 73
   27
  0
VERTEX
  8
toast_1_2
 10
0.0
 20
0.0
 30
0.0
 70
   128
 71
   8
 72
   27
 73
   28
  0
VERTEX
  8
toast_1_2
 10
0.0
 20
0.0
 30
0.0
 70
   128
 71
   9
 72
   28
 73
   29
  0
VERTEX
  8
toast_1_2
 10
0.0
 20
0.0
 30
0.0
 70
   128
 71
   10
 72
   29
 73
   30
  0
VERTEX
  8
toast_1_2
 10
0.0
 20
0.0
 30
0.0
 70
   128
 71
   11
 72
   30
 73
   31
  0
VERTEX
  8
toast_1_2
 10
0.0
 20
0.0
 30
0.0
 70
   128
 71
   12
 72
   31
 73
   32
  0
VERTEX
  8
toast_1_2
 10
0.0
 20
0.0
 30
0.0
 70
   128
 71
   13
 72
   32
 73
   33
  0
VERTEX
  8
toast_1_2
 10
0.0
 20
0.0
 30
0.0
 70
   128
 71
   14
 72
   33
 73
   34
  0
VERTEX
  8
toast_1_2
 10
0.0
 20
0.0
 30
0.0
 70
   128
 71
   15
 72
   34
 73
   35
  0
VERTEX
  8
toast_1_2
 10
0.0
 20
0.0
 30
0.0
 70
   128
 71
   16
 72
   35
 73
   36
  0
VERTEX
  8
toast_1_2
 10
0.0
 20
0.0
 30
0.0
 70
   128
 71
   17
 72
   36
 73
   37
  0
VERTEX
  8
toast_1_2
 10
0.0
 20
0.0
 30
0.0
 70
   128
 71
   18
 72
   37
 73
   38
  0
VERTEX
  8
toast_1_2
 10
0.0
 20
0.0
 30
0.0
 70
   128
 71
   19
 72
   38
 73
   20
  0
VERTEX
  8
toast_1_2
 10
0.0
 20
0.0
 30
0.0
 70
   128
 71
   97
 72
   98
 73
   105
  0
VERTEX
  8
toast_1_2
 10
0.0
 20
0.0
 30
0.0
 70
   128
 71
   39
 72
   96
 73
   114
  0
VERTEX
  8
toast_1_2
 10
0.0
 20
0.0
 30
0.0
 70
   128
 71
   97
 72
   105
 73
   112
  0
VERTEX
  8
toast_1_2
 10
0.0
 20
0.0
 30
0.0
 70
   128
 71
   40
 72
   97
 73
   96
  0
VERTEX
  8
toast_1_2
 10
0.0
 20
0.0
 30
0.0
 70
   128
 71
   41
 72
   98
 73
   97
  0
VERTEX
  8
toast_1_2
 10
0.0
 20
0.0
 30
0.0
 70
   128
 71
   105
 72
   98
 73
   99
  0
VERTEX
  8
toast_1_2
 10
0.0
 20
0.0
 30
0.0
 70
   128
 71
   105
 72
   106
 73
   111
  0
VERTEX
  8
toast_1_2
 10
0.0
 20
0.0
 30
0.0
 70
   128
 71
   111
 72
   106
 73
   107
  0
VERTEX
  8
toast_1_2
 10
0.0
 20
0.0
 30
0.0
 70
   128
 71
   103
 72
   104
 73
   99
  0
VERTEX
  8
toast_1_2
 10
0.0
 20
0.0
 30
0.0
 70
   128
 71
   42
 72
   99
 73
   98
  0
VERTEX
  8
toast_1_2
 10
0.0
 20
0.0
 30
0.0
 70
   128
 71
   96
 72
   97
 73
   113
  0
VERTEX
  8
toast_1_2
 10
0.0
 20
0.0
 30
0.0
 70
   128
 71
   110
 72
   107
 73
   108
  0
VERTEX
  8
toast_1_2
 10
0.0
 20
0.0
 30
0.0
 70
   128
 71
   43
 72
   100
 73
   99
  0
VERTEX
  8
toast_1_2
 10
0.0
 20
0.0
 30
0.0
 70
   128
 71
   99
 72
   100
 73
   101
  0
VERTEX
  8
toast_1_2
 10
0.0
 20
0.0
 30
0.0
 70
   128
 71
   44
 72
   101
 73
   100
  0
VERTEX
  8
toast_1_2
 10
0.0
 20
0.0
 30
0.0
 70
   128
 71
   45
 72
   102
 73
   101
  0
VERTEX
  8
toast_1_2
 10
0.0
 20
0.0
 30
0.0
 70
   128
 71
   46
 72
   103
 73
   102
  0
VERTEX
  8
toast_1_2
 10
0.0
 20
0.0
 30
0.0
 70
   128
 71
   133
 72
   117
 73
   118
  0
VERTEX
  8
toast_1_2
 10
0.0
 20
0.0
 30
0.0
 70
   128
 71
   125
 72
   118
 73
   119
  0
VERTEX
  8
toast_1_2
 10
0.0
 20
0.0
 30
0.0
 70
   128
 71
   47
 72
   104
 73
   103
  0
VERTEX
  8
toast_1_2
 10
0.0
 20
0.0
 30
0.0
 70
   128
 71
   119
 72
   120
 73
   123
  0
VERTEX
  8
toast_1_2
 10
0.0
 20
0.0
 30
0.0
 70
   128
 71
   48
 72
   105
 73
   104
  0
VERTEX
  8
toast_1_2
 10
0.0
 20
0.0
 30
0.0
 70
   128
 71
   49
 72
   106
 73
   105
  0
VERTEX
  8
toast_1_2
 10
0.0
 20
0.0
 30
0.0
 70
   128
 71
   120
 72
   121
 73
   122
  0
VERTEX
  8
toast_1_2
 10
0.0
 20
0.0
 30
0.0
 70
   128
 71
   131
 72
   126
 73
   127
  0
VERTEX
  8
toast_1_2
 10
0.0
 20
0.0
 30
0.0
 70
   128
 71
   131
 72
   128
 73
   129
  0
VERTEX
  8
toast_1_2
 10
0.0
 20
0.0
 30
0.0
 70
   128
 71
   125
 72
   126
 73
   131
  0
VERTEX
  8
toast_1_2
 10
0.0
 20
0.0
 30
0.0
 70
   128
 71
   125
 72
   132
 73
   133
  0
VERTEX
  8
toast_1_2
 10
0.0
 20
0.0
 30
0.0
 70
   128
 71
   115
 72
   116
 73
   117
  0
VERTEX
  8
toast_1_2
 10
0.0
 20
0.0
 30
0.0
 70
   128
 71
   50
 72
   107
 73
   106
  0
VERTEX
  8
toast_1_2
 10
0.0
 20
0.0
 30
0.0
 70
   128
 71
   51
 72
   108
 73
   107
  0
VERTEX
  8
toast_1_2
 10
0.0
 20
0.0
 30
0.0
 70
   128
 71
   52
 72
   109
 73
   108
  0
VERTEX
  8
toast_1_2
 10
0.0
 20
0.0
 30
0.0
 70
   128
 71
   53
 72
   110
 73
   109
  0
VERTEX
  8
toast_1_2
 10
0.0
 20
0.0
 30
0.0
 70
   128
 71
   54
 72
   111
 73
   110
  0
VERTEX
  8
toast_1_2
 10
0.0
 20
0.0
 30
0.0
 70
   128
 71
   55
 72
   112
 73
   111
  0
VERTEX
  8
toast_1_2
 10
0.0
 20
0.0
 30
0.0
 70
   128
 71
   56
 72
   113
 73
   112
  0
VERTEX
  8
toast_1_2
 10
0.0
 20
0.0
 30
0.0
 70
   128
 71
   57
 72
   114
 73
   113
  0
VERTEX
  8
toast_1_2
 10
0.0
 20
0.0
 30
0.0
 70
   128
 71
   58
 72
   115
 73
   133
  0
VERTEX
  8
toast_1_2
 10
0.0
 20
0.0
 30
0.0
 70
   128
 71
   76
 72
   116
 73
   115
  0
VERTEX
  8
toast_1_2
 10
0.0
 20
0.0
 30
0.0
 70
   128
 71
   75
 72
   117
 73
   116
  0
VERTEX
  8
toast_1_2
 10
0.0
 20
0.0
 30
0.0
 70
   128
 71
   74
 72
   118
 73
   117
  0
VERTEX
  8
toast_1_2
 10
0.0
 20
0.0
 30
0.0
 70
   128
 71
   73
 72
   119
 73
   118
  0
VERTEX
  8
toast_1_2
 10
0.0
 20
0.0
 30
0.0
 70
   128
 71
   72
 72
   120
 73
   119
  0
VERTEX
  8
toast_1_2
 10
0.0
 20
0.0
 30
0.0
 70
   128
 71
   71
 72
   121
 73
   120
  0
VERTEX
  8
toast_1_2
 10
0.0
 20
0.0
 30
0.0
 70
   128
 71
   70
 72
   122
 73
   121
  0
VERTEX
  8
toast_1_2
 10
0.0
 20
0.0
 30
0.0
 70
   128
 71
   69
 72
   123
 73
   122
  0
VERTEX
  8
toast_1_2
 10
0.0
 20
0.0
 30
0.0
 70
   128
 71
   68
 72
   124
 73
   123
  0
VERTEX
  8
toast_1_2
 10
0.0
 20
0.0
 30
0.0
 70
   128
 71
   67
 72
   125
 73
   124
  0
VERTEX
  8
toast_1_2
 10
0.0
 20
0.0
 30
0.0
 70
   128
 71
   66
 72
   126
 73
   125
  0
VERTEX
  8
toast_1_2
 10
0.0
 20
0.0
 30
0.0
 70
   128
 71
   65
 72
   127
 73
   126
  0
VERTEX
  8
toast_1_2
 10
0.0
 20
0.0
 30
0.0
 70
   128
 71
   64
 72
   128
 73
   127
  0
VERTEX
  8
toast_1_2
 10
0.0
 20
0.0
 30
0.0
 70
   128
 71
   63
 72
   129
 73
   128
  0
VERTEX
  8
toast_1_2
 10
0.0
 20
0.0
 30
0.0
 70
   128
 71
   62
 72
   130
 73
   129
  0
VERTEX
  8
toast_1_2
 10
0.0
 20
0.0
 30
0.0
 70
   128
 71
   61
 72
   131
 73
   130
  0
VERTEX
  8
toast_1_2
 10
0.0
 20
0.0
 30
0.0
 70
   128
 71
   60
 72
   132
 73
   131
  0
VERTEX
  8
toast_1_2
 10
0.0
 20
0.0
 30
0.0
 70
   128
 71
   59
 72
   133
 73
   132
  0
VERTEX
  8
toast_1_2
 10
0.0
 20
0.0
 30
0.0
 70
   128
 71
   1
 72
   21
 73
   2
  0
VERTEX
  8
toast_1_2
 10
0.0
 20
0.0
 30
0.0
 70
   128
 71
   2
 72
   22
 73
   3
  0
VERTEX
  8
toast_1_2
 10
0.0
 20
0.0
 30
0.0
 70
   128
 71
   3
 72
   23
 73
   4
  0
VERTEX
  8
toast_1_2
 10
0.0
 20
0.0
 30
0.0
 70
   128
 71
   4
 72
   24
 73
   5
  0
VERTEX
  8
toast_1_2
 10
0.0
 20
0.0
 30
0.0
 70
   128
 71
   5
 72
   25
 73
   6
  0
VERTEX
  8
toast_1_2
 10
0.0
 20
0.0
 30
0.0
 70
   128
 71
   6
 72
   26
 73
   7
  0
VERTEX
  8
toast_1_2
 10
0.0
 20
0.0
 30
0.0
 70
   128
 71
   7
 72
   27
 73
   8
  0
VERTEX
  8
toast_1_2
 10
0.0
 20
0.0
 30
0.0
 70
   128
 71
   8
 72
   28
 73
   9
  0
VERTEX
  8
toast_1_2
 10
0.0
 20
0.0
 30
0.0
 70
   128
 71
   9
 72
   29
 73
   10
  0
VERTEX
  8
toast_1_2
 10
0.0
 20
0.0
 30
0.0
 70
   128
 71
   10
 72
   30
 73
   11
  0
VERTEX
  8
toast_1_2
 10
0.0
 20
0.0
 30
0.0
 70
   128
 71
   11
 72
   31
 73
   12
  0
VERTEX
  8
toast_1_2
 10
0.0
 20
0.0
 30
0.0
 70
   128
 71
   12
 72
   32
 73
   13
  0
VERTEX
  8
toast_1_2
 10
0.0
 20
0.0
 30
0.0
 70
   128
 71
   13
 72
   33
 73
   14
  0
VERTEX
  8
toast_1_2
 10
0.0
 20
0.0
 30
0.0
 70
   128
 71
   14
 72
   34
 73
   15
  0
VERTEX
  8
toast_1_2
 10
0.0
 20
0.0
 30
0.0
 70
   128
 71
   15
 72
   35
 73
   16
  0
VERTEX
  8
toast_1_2
 10
0.0
 20
0.0
 30
0.0
 70
   128
 71
   16
 72
   36
 73
   17
  0
VERTEX
  8
toast_1_2
 10
0.0
 20
0.0
 30
0.0
 70
   128
 71
   17
 72
   37
 73
   18
  0
VERTEX
  8
toast_1_2
 10
0.0
 20
0.0
 30
0.0
 70
   128
 71
   18
 72
   38
 73
   19
  0
VERTEX
  8
toast_1_2
 10
0.0
 20
0.0
 30
0.0
 70
   128
 71
   19
 72
   20
 73
   1
  0
VERTEX
  8
toast_1_2
 10
0.0
 20
0.0
 30
0.0
 70
   128
 71
   39
 72
   114
 73
   57
  0
VERTEX
  8
toast_1_2
 10
0.0
 20
0.0
 30
0.0
 70
   128
 71
   97
 72
   112
 73
   113
  0
VERTEX
  8
toast_1_2
 10
0.0
 20
0.0
 30
0.0
 70
   128
 71
   40
 72
   96
 73
   39
  0
VERTEX
  8
toast_1_2
 10
0.0
 20
0.0
 30
0.0
 70
   128
 71
   41
 72
   97
 73
   40
  0
VERTEX
  8
toast_1_2
 10
0.0
 20
0.0
 30
0.0
 70
   128
 71
   105
 72
   99
 73
   104
  0
VERTEX
  8
toast_1_2
 10
0.0
 20
0.0
 30
0.0
 70
   128
 71
   105
 72
   111
 73
   112
  0
VERTEX
  8
toast_1_2
 10
0.0
 20
0.0
 30
0.0
 70
   128
 71
   111
 72
   107
 73
   110
  0
VERTEX
  8
toast_1_2
 10
0.0
 20
0.0
 30
0.0
 70
   128
 71
   103
 72
   99
 73
   102
  0
VERTEX
  8
toast_1_2
 10
0.0
 20
0.0
 30
0.0
 70
   128
 71
   42
 72
   98
 73
   41
  0
VERTEX
  8
toast_1_2
 10
0.0
 20
0.0
 30
0.0
 70
   128
 71
   96
 72
   113
 73
   114
  0
VERTEX
  8
toast_1_2
 10
0.0
 20
0.0
 30
0.0
 70
   128
 71
   110
 72
   108
 73
   109
  0
VERTEX
  8
toast_1_2
 10
0.0
 20
0.0
 30
0.0
 70
   128
 71
   43
 72
   99
 73
   42
  0
VERTEX
  8
toast_1_2
 10
0.0
 20
0.0
 30
0.0
 70
   128
 71
   99
 72
   101
 73
   102
  0
VERTEX
  8
toast_1_2
 10
0.0
 20
0.0
 30
0.0
 70
   128
 71
   44
 72
   100
 73
   43
  0
VERTEX
  8
toast_1_2
 10
0.0
 20
0.0
 30
0.0
 70
   128
 71
   45
 72
   101
 73
   44
  0
VERTEX
  8
toast_1_2
 10
0.0
 20
0.0
 30
0.0
 70
   128
 71
   46
 72
   102
 73
   45
  0
VERTEX
  8
toast_1_2
 10
0.0
 20
0.0
 30
0.0
 70
   128
 71
   133
 72
   118
 73
   125
  0
VERTEX
  8
toast_1_2
 10
0.0
 20
0.0
 30
0.0
 70
   128
 71
   125
 72
   119
 73
   124
  0
VERTEX
  8
toast_1_2
 10
0.0
 20
0.0
 30
0.0
 70
   128
 71
   47
 72
   103
 73
   46
  0
VERTEX
  8
toast_1_2
 10
0.0
 20
0.0
 30
0.0
 70
   128
 71
   119
 72
   123
 73
   124
  0
VERTEX
  8
toast_1_2
 10
0.0
 20
0.0
 30
0.0
 70
   128
 71
   48
 72
   104
 73
   47
  0
VERTEX
  8
toast_1_2
 10
0.0
 20
0.0
 30
0.0
 70
   128
 71
   49
 72
   105
 73
   48
  0
VERTEX
  8
toast_1_2
 10
0.0
 20
0.0
 30
0.0
 70
   128
 71
   120
 72
   122
 73
   123
  0
VERTEX
  8
toast_1_2
 10
0.0
 20
0.0
 30
0.0
 70
   128
 71
   131
 72
   127
 73
   128
  0
VERTEX
  8
toast_1_2
 10
0.0
 20
0.0
 30
0.0
 70
   128
 71
   131
 72
   129
 73
   130
  0
VERTEX
  8
toast_1_2
 10
0.0
 20
0.0
 30
0.0
 70
   128
 71
   125
 72
   131
 73
   132
  0
VERTEX
  8
toast_1_2
 10
0.0
 20
0.0
 30
0.0
 70
   128
 71
   115
 72
   117
 73
   133
  0
VERTEX
  8
toast_1_2
 10
0.0
 20
0.0
 30
0.0
 70
   128
 71
   50
 72
   106
 73
   49
  0
VERTEX
  8
toast_1_2
 10
0.0
 20
0.0
 30
0.0
 70
   128
 71
   51
 72
   107
 73
   50
  0
VERTEX
  8
toast_1_2
 10
0.0
 20
0.0
 30
0.0
 70
   128
 71
   52
 72
   108
 73
   51
  0
VERTEX
  8
toast_1_2
 10
0.0
 20
0.0
 30
0.0
 70
   128
 71
   53
 72
   109
 73
   52
  0
VERTEX
  8
toast_1_2
 10
0.0
 20
0.0
 30
0.0
 70
   128
 71
   54
 72
   110
 73
   53
  0
VERTEX
  8
toast_1_2
 10
0.0
 20
0.0
 30
0.0
 70
   128
 71
   55
 72
   111
 73
   54
  0
VERTEX
  8
toast_1_2
 10
0.0
 20
0.0
 30
0.0
 70
   128
 71
   56
 72
   112
 73
   55
  0
VERTEX
  8
toast_1_2
 10
0.0
 20
0.0
 30
0.0
 70
   128
 71
   57
 72
   113
 73
   56
  0
VERTEX
  8
toast_1_2
 10
0.0
 20
0.0
 30
0.0
 70
   128
 71
   58
 72
   133
 73
   59
  0
VERTEX
  8
toast_1_2
 10
0.0
 20
0.0
 30
0.0
 70
   128
 71
   76
 72
   115
 73
   58
  0
VERTEX
  8
toast_1_2
 10
0.0
 20
0.0
 30
0.0
 70
   128
 71
   75
 72
   116
 73
   76
  0
VERTEX
  8
toast_1_2
 10
0.0
 20
0.0
 30
0.0
 70
   128
 71
   74
 72
   117
 73
   75
  0
VERTEX
  8
toast_1_2
 10
0.0
 20
0.0
 30
0.0
 70
   128
 71
   73
 72
   118
 73
   74
  0
VERTEX
  8
toast_1_2
 10
0.0
 20
0.0
 30
0.0
 70
   128
 71
   72
 72
   119
 73
   73
  0
VERTEX
  8
toast_1_2
 10
0.0
 20
0.0
 30
0.0
 70
   128
 71
   71
 72
   120
 73
   72
  0
VERTEX
  8
toast_1_2
 10
0.0
 20
0.0
 30
0.0
 70
   128
 71
   70
 72
   121
 73
   71
  0
VERTEX
  8
toast_1_2
 10
0.0
 20
0.0
 30
0.0
 70
   128
 71
   69
 72
   122
 73
   70
  0
VERTEX
  8
toast_1_2
 10
0.0
 20
0.0
 30
0.0
 70
   128
 71
   68
 72
   123
 73
   69
  0
VERTEX
  8
toast_1_2
 10
0.0
 20
0.0
 30
0.0
 70
   128
 71
   67
 72
   124
 73
   68
  0
VERTEX
  8
toast_1_2
 10
0.0
 20
0.0
 30
0.0
 70
   128
 71
   66
 72
   125
 73
   67
  0
VERTEX
  8
toast_1_2
 10
0.0
 20
0.0
 30
0.0
 70
   128
 71
   65
 72
   126
 73
   66
  0
VERTEX
  8
toast_1_2
 10
0.0
 20
0.0
 30
0.0
 70
   128
 71
   64
 72
   127
 73
   65
  0
VERTEX
  8
toast_1_2
 10
0.0
 20
0.0
 30
0.0
 70
   128
 71
   63
 72
   128
 73
   64
  0
VERTEX
  8
toast_1_2
 10
0.0
 20
0.0
 30
0.0
 70
   128
 71
   62
 72
   129
 73
   63
  0
VERTEX
  8
toast_1_2
 10
0.0
 20
0.0
 30
0.0
 70
   128
 71
   61
 72
   130
 73
   62
  0
VERTEX
  8
toast_1_2
 10
0.0
 20
0.0
 30
0.0
 70
   128
 71
   60
 72
   131
 73
   61
  0
VERTEX
  8
toast_1_2
 10
0.0
 20
0.0
 30
0.0
 70
   128
 71
   59
 72
   132
 73
   60
  0
SEQEND
  0
POLYLINE
  8
toast
 66
   1
 10
0.0
 20
0.0
 30
0.0
 70
   64
 71
   133
 72
   148
  0
VERTEX
  8
toast
 10
-88.568748
 20
36.893614
 30
98.032716
 70
   192
  0
VERTEX
  8
toast
 10
-83.962335
 20
36.893614
 30
40.900065
 70
   192
  0
VERTEX
  8
toast
 10
-79.774688
 20
36.893614
 30
-4.966994
 70
   192
  0
VERTEX
  8
toast
 10
-82.706041
 20
36.893614
 30
-37.154403
 70
   192
  0
VERTEX
  8
toast
 10
-95.687749
 20
36.893614
 30
-45.603598
 70
   192
  0
VERTEX
  8
toast
 10
-98.619102
 20
36.893614
 30
-67.330099
 70
   192
  0
VERTEX
  8
toast
 10
-89.841464
 20
36.893614
 30
-89.458943
 70
   192
  0
VERTEX
  8
toast
 10
-54.115082
 20
36.893614
 30
-98.310481
 70
   192
  0
VERTEX
  8
toast
 10
-17.173461
 20
36.893614
 30
-85.837860
 70
   192
  0
VERTEX
  8
toast
 10
12.033329
 20
36.893614
 30
-61.294960
 70
   192
  0
VERTEX
  8
toast
 10
30.360445
 20
36.893614
 30
-75.779294
 70
   192
  0
VERTEX
  8
toast
 10
52.554978
 20
36.893614
 30
-89.861286
 70
   192
  0
VERTEX
  8
toast
 10
75.168275
 20
36.893614
 30
-91.470656
 70
   192
  0
VERTEX
  8
toast
 10
96.106514
 20
36.893614
 30
-78.193350
 70
   192
  0
VERTEX
  8
toast
 10
98.619102
 20
36.893614
 30
-47.212968
 70
   192
  0
VERTEX
  8
toast
 10
78.937158
 20
36.893614
 30
-24.279439
 70
   192
  0
VERTEX
  8
toast
 10
76.843334
 20
36.893614
 30
-0.138882
 70
   192
  0
VERTEX
  8
toast
 10
81.449747
 20
36.893614
 30
65.040622
 70
   192
  0
VERTEX
  8
toast
 10
88.987513
 20
36.893614
 30
98.032716
 70
   192
  0
VERTEX
  8
toast
 10
-88.568748
 20
0.000000
 30
98.032716
 70
   192
  0
VERTEX
  8
toast
 10
-83.962335
 20
0.000000
 30
40.900065
 70
   192
  0
VERTEX
  8
toast
 10
-79.774688
 20
0.000000
 30
-4.966994
 70
   192
  0
VERTEX
  8
toast
 10
-82.706041
 20
0.000000
 30
-37.154403
 70
   192
  0
VERTEX
  8
toast
 10
-95.687749
 20
0.000000
 30
-45.603598
 70
   192
  0
VERTEX
  8
toast
 10
-98.619102
 20
0.000000
 30
-67.330099
 70
   192
  0
VERTEX
  8
toast
 10
-89.841464
 20
0.000000
 30
-89.458943
 70
   192
  0
VERTEX
  8
toast
 10
-54.115082
 20
0.000000
 30
-98.310481
 70
   192
  0
VERTEX
  8
toast
 10
-17.173461
 20
0.000000
 30
-85.837860
 70
   192
  0
VERTEX
  8
toast
 10
12.033329
 20
0.000000
 30
-61.294960
 70
   192
  0
VERTEX
  8
toast
 10
30.360445
 20
0.000000
 30
-75.779294
 70
   192
  0
VERTEX
  8
toast
 10
52.554978
 20
0.000000
 30
-89.861286
 70
   192
  0
VERTEX
  8
toast
 10
75.168275
 20
0.000000
 30
-91.470656
 70
   192
  0
VERTEX
  8
toast
 10
96.106514
 20
0.000000
 30
-78.193350
 70
   192
  0
VERTEX
  8
toast
 10
98.619102
 20
0.000000
 30
-47.212968
 70
   192
  0
VERTEX
  8
toast
 10
78.937158
 20
0.000000
 30
-24.279439
 70
   192
  0
VERTEX
  8
toast
 10
76.843334
 20
0.000000
 30
-0.138882
 70
   192
  0
VERTEX
  8
toast
 10
81.449747
 20
0.000000
 30
65.040622
 70
   192
  0
VERTEX
  8
toast
 10
88.987513
 20
0.000000
 30
98.032716
 70
   192
  0
VERTEX
  8
toast
 10
-88.568748
 20
36.893614
 30
98.032716
 70
   192
  0
VERTEX
  8
toast
 10
-83.962335
 20
36.893614
 30
40.900065
 70
   192
  0
VERTEX
  8
toast
 10
-79.774688
 20
36.893614
 30
-4.966994
 70
   192
  0
VERTEX
  8
toast
 10
-82.706041
 20
36.893614
 30
-37.154403
 70
   192
  0
VERTEX
  8
toast
 10
-95.687749
 20
36.893614
 30
-45.603598
 70
   192
  0
VERTEX
  8
toast
 10
-98.619102
 20
36.893614
 30
-67.330099
 70
   192
  0
VERTEX
  8
toast
 10
-89.841464
 20
36.893614
 30
-89.458943
 70
   192
  0
VERTEX
  8
toast
 10
-54.115082
 20
36.893614
 30
-98.310481
 70
   192
  0
VERTEX
  8
toast
 10
-17.173461
 20
36.893614
 30
-85.837860
 70
   192
  0
VERTEX
  8
toast
 10
12.033329
 20
36.893614
 30
-61.294960
 70
   192
  0
VERTEX
  8
toast
 10
30.360445
 20
36.893614
 30
-75.779294
 70
   192
  0
VERTEX
  8
toast
 10
52.554978
 20
36.893614
 30
-89.861286
 70
   192
  0
VERTEX
  8
toast
 10
75.168275
 20
36.893614
 30
-91.470656
 70
   192
  0
VERTEX
  8
toast
 10
96.106514
 20
36.893614
 30
-78.193350
 70
   192
  0
VERTEX
  8
toast
 10
98.619102
 20
36.893614
 30
-47.212968
 70
   192
  0
VERTEX
  8
toast
 10
78.937158
 20
36.893614
 30
-24.279439
 70
   192
  0
VERTEX
  8
toast
 10
76.843334
 20
36.893614
 30
-0.138882
 70
   192
  0
VERTEX
  8
toast
 10
81.449747
 20
36.893614
 30
65.040622
 70
   192
  0
VERTEX
  8
toast
 10
88.987513
 20
36.893614
 30
98.032716
 70
   192
  0
VERTEX
  8
toast
 10
-88.568748
 20
0.000000
 30
98.032716
 70
   192
  0
VERTEX
  8
toast
 10
-83.962335
 20
0.000000
 30
40.900065
 70
   192
  0
VERTEX
  8
toast
 10
-79.774688
 20
0.000000
 30
-4.966994
 70
   192
  0
VERTEX
  8
toast
 10
-82.706041
 20
0.000000
 30
-37.154403
 70
   192
  0
VERTEX
  8
toast
 10
-95.687749
 20
0.000000
 30
-45.603598
 70
   192
  0
VERTEX
  8
toast
 10
-98.619102
 20
0.000000
 30
-67.330099
 70
   192
  0
VERTEX
  8
toast
 10
-89.841464
 20
0.000000
 30
-89.458943
 70
   192
  0
VERTEX
  8
toast
 10
-54.115082
 20
0.000000
 30
-98.310481
 70
   192
  0
VERTEX
  8
toast
 10
-17.173461
 20
0.000000
 30
-85.837860
 70
   192
  0
VERTEX
  8
toast
 10
12.033329
 20
0.000000
 30
-61.294960
 70
   192
  0
VERTEX
  8
toast
 10
30.360445
 20
0.000000
 30
-75.779294
 70
   192
  0
VERTEX
  8
toast
 10
52.554978
 20
0.000000
 30
-89.861286
 70
   192
  0
VERTEX
  8
toast
 10
75.168275
 20
0.000000
 30
-91.470656
 70
   192
  0
VERTEX
  8
toast
 10
96.106514
 20
0.000000
 30
-78.193350
 70
   192
  0
VERTEX
  8
toast
 10
98.619102
 20
0.000000
 30
-47.212968
 70
   192
  0
VERTEX
  8
toast
 10
78.937158
 20
0.000000
 30
-24.279439
 70
   192
  0
VERTEX
  8
toast
 10
76.843334
 20
0.000000
 30
-0.138882
 70
   192
  0
VERTEX
  8
toast
 10
81.449747
 20
0.000000
 30
65.040622
 70
   192
  0
VERTEX
  8
toast
 10
88.987513
 20
0.000000
 30
98.032716
 70
   192
  0
VERTEX
  8
toast
 10
0.000000
 20
36.893614
 30
98.310481
 70
   192
  0
VERTEX
  8
toast
 10
0.000000
 20
36.893614
 30
98.310481
 70
   192
  0
VERTEX
  8
toast
 10
0.000000
 20
36.893614
 30
98.310481
 70
   192
  0
VERTEX
  8
toast
 10
0.000000
 20
36.893614
 30
98.310481
 70
   192
  0
VERTEX
  8
toast
 10
0.000000
 20
36.893614
 30
98.310481
 70
   192
  0
VERTEX
  8
toast
 10
0.000000
 20
36.893614
 30
98.310481
 70
   192
  0
VERTEX
  8
toast
 10
0.000000
 20
36.893614
 30
98.310481
 70
   192
  0
VERTEX
  8
toast
 10
0.000000
 20
36.893614
 30
98.310481
 70
   192
  0
VERTEX
  8
toast
 10
0.000000
 20
36.893614
 30
98.310481
 70
   192
  0
VERTEX
  8
toast
 10
0.000000
 20
36.893614
 30
98.310481
 70
   192
  0
VERTEX
  8
toast
 10
0.000000
 20
36.893614
 30
98.310481
 70
   192
  0
VERTEX
  8
toast
 10
0.000000
 20
36.893614
 30
98.310481
 70
   192
  0
VERTEX
  8
toast
 10
0.000000
 20
36.893614
 30
98.310481
 70
   192
  0
VERTEX
  8
toast
 10
0.000000
 20
36.893614
 30
98.310481
 70
   192
  0
VERTEX
  8
toast
 10
0.000000
 20
36.893614
 30
98.310481
 70
   192
  0
VERTEX
  8
toast
 10
0.000000
 20
36.893614
 30
98.310481
 70
   192
  0
VERTEX
  8
toast
 10
0.000000
 20
36.893614
 30
98.310481
 70
   192
  0
VERTEX
  8
toast
 10
0.000000
 20
36.893614
 30
98.310481
 70
   192
  0
VERTEX
  8
toast
 10
0.000000
 20
36.893614
 30
98.310481
 70
   192
  0
VERTEX
  8
toast
 10
-79.431325
 20
36.893614
 30
91.918794
 70
   192
  0
VERTEX
  8
toast
 10
-75.946519
 20
36.893614
 30
48.697261
 70
   192
  0
VERTEX
  8
toast
 10
-71.203547
 20
36.893614
 30
-3.252239
 70
   192
  0
VERTEX
  8
toast
 10
-75.366825
 20
36.893614
 30
-48.966661
 70
   192
  0
VERTEX
  8
toast
 10
-90.033435
 20
36.893614
 30
-58.512482
 70
   192
  0
VERTEX
  8
toast
 10
-91.519737
 20
36.893614
 30
-69.528599
 70
   192
  0
VERTEX
  8
toast
 10
-87.030485
 20
36.893614
 30
-80.846217
 70
   192
  0
VERTEX
  8
toast
 10
-61.878643
 20
36.893614
 30
-87.077816
 70
   192
  0
VERTEX
  8
toast
 10
-29.493006
 20
36.893614
 30
-76.143434
 70
   192
  0
VERTEX
  8
toast
 10
11.245953
 20
36.893614
 30
-41.909881
 70
   192
  0
VERTEX
  8
toast
 10
42.180308
 20
36.893614
 30
-66.358000
 70
   192
  0
VERTEX
  8
toast
 10
61.944264
 20
36.893614
 30
-78.897838
 70
   192
  0
VERTEX
  8
toast
 10
76.340223
 20
36.893614
 30
-79.922387
 70
   192
  0
VERTEX
  8
toast
 10
86.753067
 20
36.893614
 30
-73.319419
 70
   192
  0
VERTEX
  8
toast
 10
88.180661
 20
36.893614
 30
-55.717096
 70
   192
  0
VERTEX
  8
toast
 10
67.667439
 20
36.893614
 30
-31.814956
 70
   192
  0
VERTEX
  8
toast
 10
64.742531
 20
36.893614
 30
1.907511
 70
   192
  0
VERTEX
  8
toast
 10
70.003043
 20
36.893614
 30
76.342350
 70
   192
  0
VERTEX
  8
toast
 10
73.561823
 20
36.893614
 30
91.918794
 70
   192
  0
VERTEX
  8
toast
 10
-79.431325
 20
0.000000
 30
91.918794
 70
   192
  0
VERTEX
  8
toast
 10
73.561823
 20
0.000000
 30
91.918794
 70
   192
  0
VERTEX
  8
toast
 10
70.003043
 20
0.000000
 30
76.342350
 70
   192
  0
VERTEX
  8
toast
 10
64.742531
 20
0.000000
 30
1.907511
 70
   192
  0
VERTEX
  8
toast
 10
67.667439
 20
0.000000
 30
-31.814956
 70
   192
  0
VERTEX
  8
toast
 10
88.180661
 20
0.000000
 30
-55.717096
 70
   192
  0
VERTEX
  8
toast
 10
86.753067
 20
0.000000
 30
-73.319419
 70
   192
  0
VERTEX
  8
toast
 10
76.340223
 20
0.000000
 30
-79.922387
 70
   192
  0
VERTEX
  8
toast
 10
61.944264
 20
0.000000
 30
-78.897838
 70
   192
  0
VERTEX
  8
toast
 10
42.180308
 20
0.000000
 30
-66.358000
 70
   192
  0
VERTEX
  8
toast
 10
11.245953
 20
0.000000
 30
-41.909881
 70
   192
  0
VERTEX
  8
toast
 10
-29.493006
 20
0.000000
 30
-76.143434
 70
   192
  0
VERTEX
  8
toast
 10
-61.878643
 20
0.000000
 30
-87.077816
 70
   192
  0
VERTEX
  8
toast
 10
-87.030485
 20
0.000000
 30
-80.846217
 70
   192
  0
VERTEX
  8
toast
 10
-91.519737
 20
0.000000
 30
-69.528599
 70
   192
  0
VERTEX
  8
toast
 10
-90.033435
 20
0.000000
 30
-58.512482
 70
   192
  0
VERTEX
  8
toast
 10
-75.366825
 20
0.000000
 30
-48.966661
 70
   192
  0
VERTEX
  8
toast
 10
-71.203547
 20
0.000000
 30
-3.252239
 70
   192
  0
VERTEX
  8
toast
 10
-75.946519
 20
0.000000
 30
48.697261
 70
   192
  0
VERTEX
  8
toast
 10
0.0
 20
0.0
 30
0.0
 70
   128
 71
   1
 72
   20
 73
   21
  0
VERTEX
  8
toast
 10
0.0
 20
0.0
 30
0.0
 70
   128
 71
   2
 72
   21
 73
   22
  0
VERTEX
  8
toast
 10
0.0
 20
0.0
 30
0.0
 70
   128
 71
   3
 72
   22
 73
   23
  0
VERTEX
  8
toast
 10
0.0
 20
0.0
 30
0.0
 70
   128
 71
   4
 72
   23
 73
   24
  0
VERTEX
  8
toast
 10
0.0
 20
0.0
 30
0.0
 70
   128
 71
   5
 72
   24
 73
   25
  0
VERTEX
  8
toast
 10
0.0
 20
0.0
 30
0.0
 70
   128
 71
   6
 72
   25
 73
   26
  0
VERTEX
  8
toast
 10
0.0
 20
0.0
 30
0.0
 70
   128
 71
   7
 72
   26
 73
   27
  0
VERTEX
  8
toast
 10
0.0
 20
0.0
 30
0.0
 70
   128
 71
   8
 72
   27
 73
   28
  0
VERTEX
  8
toast
 10
0.0
 20
0.0
 30
0.0
 70
   128
 71
   9
 72
   28
 73
   29
  0
VERTEX
  8
toast
 10
0.0
 20
0.0
 30
0.0
 70
   128
 71
   10
 72
   29
 73
   30
  0
VERTEX
  8
toast
 10
0.0
 20
0.0
 30
0.0
 70
   128
 71
   11
 72
   30
 73
   31
  0
VERTEX
  8
toast
 10
0.0
 20
0.0
 30
0.0
 70
   128
 71
   12
 72
   31
 73
   32
  0
VERTEX
  8
toast
 10
0.0
 20
0.0
 30
0.0
 70
   128
 71
   13
 72
   32
 73
   33
  0
VERTEX
  8
toast
 10
0.0
 20
0.0
 30
0.0
 70
   128
 71
   14
 72
   33
 73
   34
  0
VERTEX
  8
toast
 10
0.0
 20
0.0
 30
0.0
 70
   128
 71
   15
 72
   34
 73
   35
  0
VERTEX
  8
toast
 10
0.0
 20
0.0
 30
0.0
 70
   128
 71
   16
 72
   35
 73
   36
  0
VERTEX
  8
toast
 10
0.0
 20
0.0
 30
0.0
 70
   128
 71
   17
 72
   36
 73
   37
  0
VERTEX
  8
toast
 10
0.0
 20
0.0
 30
0.0
 70
   128
 71
   18
 72
   37
 73
   38
  0
VERTEX
  8
toast
 10
0.0
 20
0.0
 30
0.0
 70
   128
 71
   19
 72
   38
 73
   20
  0
VERTEX
  8
toast
 10
0.0
 20
0.0
 30
0.0
 70
   128
 71
   97
 72
   98
 73
   105
  0
VERTEX
  8
toast
 10
0.0
 20
0.0
 30
0.0
 70
   128
 71
   39
 72
   96
 73
   114
  0
VERTEX
  8
toast
 10
0.0
 20
0.0
 30
0.0
 70
   128
 71
   97
 72
   105
 73
   112
  0
VERTEX
  8
toast
 10
0.0
 20
0.0
 30
0.0
 70
   128
 71
   40
 72
   97
 73
   96
  0
VERTEX
  8
toast
 10
0.0
 20
0.0
 30
0.0
 70
   128
 71
   41
 72
   98
 73
   97
  0
VERTEX
  8
toast
 10
0.0
 20
0.0
 30
0.0
 70
   128
 71
   105
 72
   98
 73
   99
  0
VERTEX
  8
toast
 10
0.0
 20
0.0
 30
0.0
 70
   128
 71
   105
 72
   106
 73
   111
  0
VERTEX
  8
toast
 10
0.0
 20
0.0
 30
0.0
 70
   128
 71
   111
 72
   106
 73
   107
  0
VERTEX
  8
toast
 10
0.0
 20
0.0
 30
0.0
 70
   128
 71
   103
 72
   104
 73
   99
  0
VERTEX
  8
toast
 10
0.0
 20
0.0
 30
0.0
 70
   128
 71
   42
 72
   99
 73
   98
  0
VERTEX
  8
toast
 10
0.0
 20
0.0
 30
0.0
 70
   128
 71
   96
 72
   97
 73
   113
  0
VERTEX
  8
toast
 10
0.0
 20
0.0
 30
0.0
 70
   128
 71
   110
 72
   107
 73
   108
  0
VERTEX
  8
toast
 10
0.0
 20
0.0
 30
0.0
 70
   128
 71
   43
 72
   100
 73
   99
  0
VERTEX
  8
toast
 10
0.0
 20
0.0
 30
0.0
 70
   128
 71
   99
 72
   100
 73
   101
  0
VERTEX
  8
toast
 10
0.0
 20
0.0
 30
0.0
 70
   128
 71
   44
 72
   101
 73
   100
  0
VERTEX
  8
toast
 10
0.0
 20
0.0
 30
0.0
 70
   128
 71
   45
 72
   102
 73
   101
  0
VERTEX
  8
toast
 10
0.0
 20
0.0
 30
0.0
 70
   128
 71
   46
 72
   103
 73
   102
  0
VERTEX
  8
toast
 10
0.0
 20
0.0
 30
0.0
 70
   128
 71
   133
 72
   117
 73
   118
  0
VERTEX
  8
toast
 10
0.0
 20
0.0
 30
0.0
 70
   128
 71
   125
 72
   118
 73
   119
  0
VERTEX
  8
toast
 10
0.0
 20
0.0
 30
0.0
 70
   128
 71
   47
 72
   104
 73
   103
  0
VERTEX
  8
toast
 10
0.0
 20
0.0
 30
0.0
 70
   128
 71
   119
 72
   120
 73
   123
  0
VERTEX
  8
toast
 10
0.0
 20
0.0
 30
0.0
 70
   128
 71
   48
 72
   105
 73
   104
  0
VERTEX
  8
toast
 10
0.0
 20
0.0
 30
0.0
 70
   128
 71
   49
 72
   106
 73
   105
  0
VERTEX
  8
toast
 10
0.0
 20
0.0
 30
0.0
 70
   128
 71
   120
 72
   121
 73
   122
  0
VERTEX
  8
toast
 10
0.0
 20
0.0
 30
0.0
 70
   128
 71
   131
 72
   126
 73
   127
  0
VERTEX
  8
toast
 10
0.0
 20
0.0
 30
0.0
 70
   128
 71
   131
 72
   128
 73
   129
  0
VERTEX
  8
toast
 10
0.0
 20
0.0
 30
0.0
 70
   128
 71
   125
 72
   126
 73
   131
  0
VERTEX
  8
toast
 10
0.0
 20
0.0
 30
0.0
 70
   128
 71
   125
 72
   132
 73
   133
  0
VERTEX
  8
toast
 10
0.0
 20
0.0
 30
0.0
 70
   128
 71
   115
 72
   116
 73
   117
  0
VERTEX
  8
toast
 10
0.0
 20
0.0
 30
0.0
 70
   128
 71
   50
 72
   107
 73
   106
  0
VERTEX
  8
toast
 10
0.0
 20
0.0
 30
0.0
 70
   128
 71
   51
 72
   108
 73
   107
  0
VERTEX
  8
toast
 10
0.0
 20
0.0
 30
0.0
 70
   128
 71
   52
 72
   109
 73
   108
  0
VERTEX
  8
toast
 10
0.0
 20
0.0
 30
0.0
 70
   128
 71
   53
 72
   110
 73
   109
  0
VERTEX
  8
toast
 10
0.0
 20
0.0
 30
0.0
 70
   128
 71
   54
 72
   111
 73
   110
  0
VERTEX
  8
toast
 10
0.0
 20
0.0
 30
0.0
 70
   128
 71
   55
 72
   112
 73
   111
  0
VERTEX
  8
toast
 10
0.0
 20
0.0
 30
0.0
 70
   128
 71
   56
 72
   113
 73
   112
  0
VERTEX
  8
toast
 10
0.0
 20
0.0
 30
0.0
 70
   128
 71
   57
 72
   114
 73
   113
  0
VERTEX
  8
toast
 10
0.0
 20
0.0
 30
0.0
 70
   128
 71
   58
 72
   115
 73
   133
  0
VERTEX
  8
toast
 10
0.0
 20
0.0
 30
0.0
 70
   128
 71
   76
 72
   116
 73
   115
  0
VERTEX
  8
toast
 10
0.0
 20
0.0
 30
0.0
 70
   128
 71
   75
 72
   117
 73
   116
  0
VERTEX
  8
toast
 10
0.0
 20
0.0
 30
0.0
 70
   128
 71
   74
 72
   118
 73
   117
  0
VERTEX
  8
toast
 10
0.0
 20
0.0
 30
0.0
 70
   128
 71
   73
 72
   119
 73
   118
  0
VERTEX
  8
toast
 10
0.0
 20
0.0
 30
0.0
 70
   128
 71
   72
 72
   120
 73
   119
  0
VERTEX
  8
toast
 10
0.0
 20
0.0
 30
0.0
 70
   128
 71
   71
 72
   121
 73
   120
  0
VERTEX
  8
toast
 10
0.0
 20
0.0
 30
0.0
 70
   128
 71
   70
 72
   122
 73
   121
  0
VERTEX
  8
toast
 10
0.0
 20
0.0
 30
0.0
 70
   128
 71
   69
 72
   123
 73
   122
  0
VERTEX
  8
toast
 10
0.0
 20
0.0
 30
0.0
 70
   128
 71
   68
 72
   124
 73
   123
  0
VERTEX
  8
toast
 10
0.0
 20
0.0
 30
0.0
 70
   128
 71
   67
 72
   125
 73
   124
  0
VERTEX
  8
toast
 10
0.0
 20
0.0
 30
0.0
 70
   128
 71
   66
 72
   126
 73
   125
  0
VERTEX
  8
toast
 10
0.0
 20
0.0
 30
0.0
 70
   128
 71
   65
 72
   127
 73
   126
  0
VERTEX
  8
toast
 10
0.0
 20
0.0
 30
0.0
 70
   128
 71
   64
 72
   128
 73
   127
  0
VERTEX
  8
toast
 10
0.0
 20
0.0
 30
0.0
 70
   128
 71
   63
 72
   129
 73
   128
  0
VERTEX
  8
toast
 10
0.0
 20
0.0
 30
0.0
 70
   128
 71
   62
 72
   130
 73
   129
  0
VERTEX
  8
toast
 10
0.0
 20
0.0
 30
0.0
 70
   128
 71
   61
 72
   131
 73
   130
  0
VERTEX
  8
toast
 10
0.0
 20
0.0
 30
0.0
 70
   128
 71
   60
 72
   132
 73
   131
  0
VERTEX
  8
toast
 10
0.0
 20
0.0
 30
0.0
 70
   128
 71
   59
 72
   133
 73
   132
  0
VERTEX
  8
toast
 10
0.0
 20
0.0
 30
0.0
 70
   128
 71
   1
 72
   21
 73
   2
  0
VERTEX
  8
toast
 10
0.0
 20
0.0
 30
0.0
 70
   128
 71
   2
 72
   22
 73
   3
  0
VERTEX
  8
toast
 10
0.0
 20
0.0
 30
0.0
 70
   128
 71
   3
 72
   23
 73
   4
  0
VERTEX
  8
toast
 10
0.0
 20
0.0
 30
0.0
 70
   128
 71
   4
 72
   24
 73
   5
  0
VERTEX
  8
toast
 10
0.0
 20
0.0
 30
0.0
 70
   128
 71
   5
 72
   25
 73
   6
  0
VERTEX
  8
toast
 10
0.0
 20
0.0
 30
0.0
 70
   128
 71
   6
 72
   26
 73
   7
  0
VERTEX
  8
toast
 10
0.0
 20
0.0
 30
0.0
 70
   128
 71
   7
 72
   27
 73
   8
  0
VERTEX
  8
toast
 10
0.0
 20
0.0
 30
0.0
 70
   128
 71
   8
 72
   28
 73
   9
  0
VERTEX
  8
toast
 10
0.0
 20
0.0
 30
0.0
 70
   128
 71
   9
 72
   29
 73
   10
  0
VERTEX
  8
toast
 10
0.0
 20
0.0
 30
0.0
 70
   128
 71
   10
 72
   30
 73
   11
  0
VERTEX
  8
toast
 10
0.0
 20
0.0
 30
0.0
 70
   128
 71
   11
 72
   31
 73
   12
  0
VERTEX
  8
toast
 10
0.0
 20
0.0
 30
0.0
 70
   128
 71
   12
 72
   32
 73
   13
  0
VERTEX
  8
toast
 10
0.0
 20
0.0
 30
0.0
 70
   128
 71
   13
 72
   33
 73
   14
  0
VERTEX
  8
toast
 10
0.0
 20
0.0
 30
0.0
 70
   128
 71
   14
 72
   34
 73
   15
  0
VERTEX
  8
toast
 10
0.0
 20
0.0
 30
0.0
 70
   128
 71
   15
 72
   35
 73
   16
  0
VERTEX
  8
toast
 10
0.0
 20
0.0
 30
0.0
 70
   128
 71
   16
 72
   36
 73
   17
  0
VERTEX
  8
toast
 10
0.0
 20
0.0
 30
0.0
 70
   128
 71
   17
 72
   37
 73
   18
  0
VERTEX
  8
toast
 10
0.0
 20
0.0
 30
0.0
 70
   128
 71
   18
 72
   38
 73
   19
  0
VERTEX
  8
toast
 10
0.0
 20
0.0
 30
0.0
 70
   128
 71
   19
 72
   20
 73
   1
  0
VERTEX
  8
toast
 10
0.0
 20
0.0
 30
0.0
 70
   128
 71
   39
 72
   114
 73
   57
  0
VERTEX
  8
toast
 10
0.0
 20
0.0
 30
0.0
 70
   128
 71
   97
 72
   112
 73
   113
  0
VERTEX
  8
toast
 10
0.0
 20
0.0
 30
0.0
 70
   128
 71
   40
 72
   96
 73
   39
  0
VERTEX
  8
toast
 10
0.0
 20
0.0
 30
0.0
 70
   128
 71
   41
 72
   97
 73
   40
  0
VERTEX
  8
toast
 10
0.0
 20
0.0
 30
0.0
 70
   128
 71
   105
 72
   99
 73
   104
  0
VERTEX
  8
toast
 10
0.0
 20
0.0
 30
0.0
 70
   128
 71
   105
 72
   111
 73
   112
  0
VERTEX
  8
toast
 10
0.0
 20
0.0
 30
0.0
 70
   128
 71
   111
 72
   107
 73
   110
  0
VERTEX
  8
toast
 10
0.0
 20
0.0
 30
0.0
 70
   128
 71
   103
 72
   99
 73
   102
  0
VERTEX
  8
toast
 10
0.0
 20
0.0
 30
0.0
 70
   128
 71
   42
 72
   98
 73
   41
  0
VERTEX
  8
toast
 10
0.0
 20
0.0
 30
0.0
 70
   128
 71
   96
 72
   113
 73
   114
  0
VERTEX
  8
toast
 10
0.0
 20
0.0
 30
0.0
 70
   128
 71
   110
 72
   108
 73
   109
  0
VERTEX
  8
toast
 10
0.0
 20
0.0
 30
0.0
 70
   128
 71
   43
 72
   99
 73
   42
  0
VERTEX
  8
toast
 10
0.0
 20
0.0
 30
0.0
 70
   128
 71
   99
 72
   101
 73
   102
  0
VERTEX
  8
toast
 10
0.0
 20
0.0
 30
0.0
 70
   128
 71
   44
 72
   100
 73
   43
  0
VERTEX
  8
toast
 10
0.0
 20
0.0
 30
0.0
 70
   128
 71
   45
 72
   101
 73
   44
  0
VERTEX
  8
toast
 10
0.0
 20
0.0
 30
0.0
 70
   128
 71
   46
 72
   102
 73
   45
  0
VERTEX
  8
toast
 10
0.0
 20
0.0
 30
0.0
 70
   128
 71
   133
 72
   118
 73
   125
  0
VERTEX
  8
toast
 10
0.0
 20
0.0
 30
0.0
 70
   128
 71
   125
 72
   119
 73
   124
  0
VERTEX
  8
toast
 10
0.0
 20
0.0
 30
0.0
 70
   128
 71
   47
 72
   103
 73
   46
  0
VERTEX
  8
toast
 10
0.0
 20
0.0
 30
0.0
 70
   128
 71
   119
 72
   123
 73
   124
  0
VERTEX
  8
toast
 10
0.0
 20
0.0
 30
0.0
 70
   128
 71
   48
 72
   104
 73
   47
  0
VERTEX
  8
toast
 10
0.0
 20
0.0
 30
0.0
 70
   128
 71
   49
 72
   105
 73
   48
  0
VERTEX
  8
toast
 10
0.0
 20
0.0
 30
0.0
 70
   128
 71
   120
 72
   122
 73
   123
  0
VERTEX
  8
toast
 10
0.0
 20
0.0
 30
0.0
 70
   128
 71
   131
 72
   127
 73
   128
  0
VERTEX
  8
toast
 10
0.0
 20
0.0
 30
0.0
 70
   128
 71
   131
 72
   129
 73
   130
  0
VERTEX
  8
toast
 10
0.0
 20
0.0
 30
0.0
 70
   128
 71
   125
 72
   131
 73
   132
  0
VERTEX
  8
toast
 10
0.0
 20
0.0
 30
0.0
 70
   128
 71
   115
 72
   117
 73
   133
  0
VERTEX
  8
toast
 10
0.0
 20
0.0
 30
0.0
 70
   128
 71
   50
 72
   106
 73
   49
  0
VERTEX
  8
toast
 10
0.0
 20
0.0
 30
0.0
 70
   128
 71
   51
 72
   107
 73
   50
  0
VERTEX
  8
toast
 10
0.0
 20
0.0
 30
0.0
 70
   128
 71
   52
 72
   108
 73
   51
  0
VERTEX
  8
toast
 10
0.0
 20
0.0
 30
0.0
 70
   128
 71
   53
 72
   109
 73
   52
  0
VERTEX
  8
toast
 10
0.0
 20
0.0
 30
0.0
 70
   128
 71
   54
 72
   110
 73
   53
  0
VERTEX
  8
toast
 10
0.0
 20
0.0
 30
0.0
 70
   128
 71
   55
 72
   111
 73
   54
  0
VERTEX
  8
toast
 10
0.0
 20
0.0
 30
0.0
 70
   128
 71
   56
 72
   112
 73
   55
  0
VERTEX
  8
toast
 10
0.0
 20
0.0
 30
0.0
 70
   128
 71
   57
 72
   113
 73
   56
  0
VERTEX
  8
toast
 10
0.0
 20
0.0
 30
0.0
 70
   128
 71
   58
 72
   133
 73
   59
  0
VERTEX
  8
toast
 10
0.0
 20
0.0
 30
0.0
 70
   128
 71
   76
 72
   115
 73
   58
  0
VERTEX
  8
toast
 10
0.0
 20
0.0
 30
0.0
 70
   128
 71
   75
 72
   116
 73
   76
  0
VERTEX
  8
toast
 10
0.0
 20
0.0
 30
0.0
 70
   128
 71
   74
 72
   117
 73
   75
  0
VERTEX
  8
toast
 10
0.0
 20
0.0
 30
0.0
 70
   128
 71
   73
 72
   118
 73
   74
  0
VERTEX
  8
toast
 10
0.0
 20
0.0
 30
0.0
 70
   128
 71
   72
 72
   119
 73
   73
  0
VERTEX
  8
toast
 10
0.0
 20
0.0
 30
0.0
 70
   128
 71
   71
 72
   120
 73
   72
  0
VERTEX
  8
toast
 10
0.0
 20
0.0
 30
0.0
 70
   128
 71
   70
 72
   121
 73
   71
  0
VERTEX
  8
toast
 10
0.0
 20
0.0
 30
0.0
 70
   128
 71
   69
 72
   122
 73
   70
  0
VERTEX
  8
toast
 10
0.0
 20
0.0
 30
0.0
 70
   128
 71
   68
 72
   123
 73
   69
  0
VERTEX
  8
toast
 10
0.0
 20
0.0
 30
0.0
 70
   128
 71
   67
 72
   124
 73
   68
  0
VERTEX
  8
toast
 10
0.0
 20
0.0
 30
0.0
 70
   128
 71
   66
 72
   125
 73
   67
  0
VERTEX
  8
toast
 10
0.0
 20
0.0
 30
0.0
 70
   128
 71
   65
 72
   126
 73
   66
  0
VERTEX
  8
toast
 10
0.0
 20
0.0
 30
0.0
 70
   128
 71
   64
 72
   127
 73
   65
  0
VERTEX
  8
toast
 10
0.0
 20
0.0
 30
0.0
 70
   128
 71
   63
 72
   128
 73
   64
  0
VERTEX
  8
toast
 10
0.0
 20
0.0
 30
0.0
 70
   128
 71
   62
 72
   129
 73
   63
  0
VERTEX
  8
toast
 10
0.0
 20
0.0
 30
0.0
 70
   128
 71
   61
 72
   130
 73
   62
  0
VERTEX
  8
toast
 10
0.0
 20
0.0
 30
0.0
 70
   128
 71
   60
 72
   131
 73
   61
  0
VERTEX
  8
toast
 10
0.0
 20
0.0
 30
0.0
 70
   128
 71
   59
 72
   132
 73
   60
  0
SEQEND
  0
ENDSEC
  0
EOF
