999
FBX AutoCAD (*.DXF) exporter
  0
SECTION
  2
HEADER
  9
$ACADVER
  1
AC1008
  9
$UCSORG
 10
0.0
 20
0.0
 30
0.0
  9
$UCSXDIR
 10
1.0
 20
0.0
 30
0.0
  9
$TILEMODE
 70
   1
  9
$UCSYDIR
 10
0.0
 20
1.0
 30
0.0
  0
ENDSEC
  0
SECTION
  2
TABLES
  0
TABLE
  2
LTYPE
 70
   1
  0
LTYPE
  2
CONTINUOUS
 70
   64
  3
Solid line
 72
   65
 73
   0
 40
0.0
  0
ENDTAB
  0
TABLE
  2
LAYER
 70
   2
  0
LAYER
  2
toast
 70
   0
 62
   250
  6
CONTINUOUS
  0
LAYER
  2
butter
 70
   0
 62
   250
  6
CONTINUOUS
  0
ENDTAB
  0
ENDSEC
  0
SECTION
  2
BLOCKS
  0
ENDSEC
  0
SECTION
  2
ENTITIES
  0
POLYLINE
  8
toast
 66
   1
 10
0.0
 20
0.0
 30
0.0
 70
   64
 71
   133
 72
   148
  0
VERTEX
  8
toast
 10
-88.568748
 20
25.517975
 30
98.032716
 70
   192
  0
VERTEX
  8
toast
 10
-83.962335
 20
25.517975
 30
40.900065
 70
   192
  0
VERTEX
  8
toast
 10
-79.774688
 20
25.517975
 30
-4.966994
 70
   192
  0
VERTEX
  8
toast
 10
-82.706041
 20
25.517975
 30
-37.154403
 70
   192
  0
VERTEX
  8
toast
 10
-95.687749
 20
25.517975
 30
-45.603598
 70
   192
  0
VERTEX
  8
toast
 10
-98.619102
 20
25.517975
 30
-67.330099
 70
   192
  0
VERTEX
  8
toast
 10
-89.841464
 20
25.517975
 30
-89.458943
 70
   192
  0
VERTEX
  8
toast
 10
-54.115082
 20
25.517975
 30
-98.310481
 70
   192
  0
VERTEX
  8
toast
 10
-17.173461
 20
25.517975
 30
-85.837860
 70
   192
  0
VERTEX
  8
toast
 10
12.033329
 20
25.517975
 30
-61.294960
 70
   192
  0
VERTEX
  8
toast
 10
30.360445
 20
25.517975
 30
-75.779294
 70
   192
  0
VERTEX
  8
toast
 10
52.554978
 20
25.517975
 30
-89.861286
 70
   192
  0
VERTEX
  8
toast
 10
75.168275
 20
25.517975
 30
-91.470656
 70
   192
  0
VERTEX
  8
toast
 10
96.106514
 20
25.517975
 30
-78.193350
 70
   192
  0
VERTEX
  8
toast
 10
98.619102
 20
25.517975
 30
-47.212968
 70
   192
  0
VERTEX
  8
toast
 10
78.937158
 20
25.517975
 30
-24.279439
 70
   192
  0
VERTEX
  8
toast
 10
76.843334
 20
25.517975
 30
-0.138882
 70
   192
  0
VERTEX
  8
toast
 10
81.449747
 20
25.517975
 30
65.040622
 70
   192
  0
VERTEX
  8
toast
 10
88.987513
 20
25.517975
 30
98.032716
 70
   192
  0
VERTEX
  8
toast
 10
-88.568748
 20
0.000000
 30
98.032716
 70
   192
  0
VERTEX
  8
toast
 10
-83.962335
 20
0.000000
 30
40.900065
 70
   192
  0
VERTEX
  8
toast
 10
-79.774688
 20
0.000000
 30
-4.966994
 70
   192
  0
VERTEX
  8
toast
 10
-82.706041
 20
0.000000
 30
-37.154403
 70
   192
  0
VERTEX
  8
toast
 10
-95.687749
 20
0.000000
 30
-45.603598
 70
   192
  0
VERTEX
  8
toast
 10
-98.619102
 20
0.000000
 30
-67.330099
 70
   192
  0
VERTEX
  8
toast
 10
-89.841464
 20
0.000000
 30
-89.458943
 70
   192
  0
VERTEX
  8
toast
 10
-54.115082
 20
0.000000
 30
-98.310481
 70
   192
  0
VERTEX
  8
toast
 10
-17.173461
 20
0.000000
 30
-85.837860
 70
   192
  0
VERTEX
  8
toast
 10
12.033329
 20
0.000000
 30
-61.294960
 70
   192
  0
VERTEX
  8
toast
 10
30.360445
 20
0.000000
 30
-75.779294
 70
   192
  0
VERTEX
  8
toast
 10
52.554978
 20
0.000000
 30
-89.861286
 70
   192
  0
VERTEX
  8
toast
 10
75.168275
 20
0.000000
 30
-91.470656
 70
   192
  0
VERTEX
  8
toast
 10
96.106514
 20
0.000000
 30
-78.193350
 70
   192
  0
VERTEX
  8
toast
 10
98.619102
 20
0.000000
 30
-47.212968
 70
   192
  0
VERTEX
  8
toast
 10
78.937158
 20
0.000000
 30
-24.279439
 70
   192
  0
VERTEX
  8
toast
 10
76.843334
 20
0.000000
 30
-0.138882
 70
   192
  0
VERTEX
  8
toast
 10
81.449747
 20
0.000000
 30
65.040622
 70
   192
  0
VERTEX
  8
toast
 10
88.987513
 20
0.000000
 30
98.032716
 70
   192
  0
VERTEX
  8
toast
 10
-88.568748
 20
25.517975
 30
98.032716
 70
   192
  0
VERTEX
  8
toast
 10
-83.962335
 20
25.517975
 30
40.900065
 70
   192
  0
VERTEX
  8
toast
 10
-79.774688
 20
25.517975
 30
-4.966994
 70
   192
  0
VERTEX
  8
toast
 10
-82.706041
 20
25.517975
 30
-37.154403
 70
   192
  0
VERTEX
  8
toast
 10
-95.687749
 20
25.517975
 30
-45.603598
 70
   192
  0
VERTEX
  8
toast
 10
-98.619102
 20
25.517975
 30
-67.330099
 70
   192
  0
VERTEX
  8
toast
 10
-89.841464
 20
25.517975
 30
-89.458943
 70
   192
  0
VERTEX
  8
toast
 10
-54.115082
 20
25.517975
 30
-98.310481
 70
   192
  0
VERTEX
  8
toast
 10
-17.173461
 20
25.517975
 30
-85.837860
 70
   192
  0
VERTEX
  8
toast
 10
12.033329
 20
25.517975
 30
-61.294960
 70
   192
  0
VERTEX
  8
toast
 10
30.360445
 20
25.517975
 30
-75.779294
 70
   192
  0
VERTEX
  8
toast
 10
52.554978
 20
25.517975
 30
-89.861286
 70
   192
  0
VERTEX
  8
toast
 10
75.168275
 20
25.517975
 30
-91.470656
 70
   192
  0
VERTEX
  8
toast
 10
96.106514
 20
25.517975
 30
-78.193350
 70
   192
  0
VERTEX
  8
toast
 10
98.619102
 20
25.517975
 30
-47.212968
 70
   192
  0
VERTEX
  8
toast
 10
78.937158
 20
25.517975
 30
-24.279439
 70
   192
  0
VERTEX
  8
toast
 10
76.843334
 20
25.517975
 30
-0.138882
 70
   192
  0
VERTEX
  8
toast
 10
81.449747
 20
25.517975
 30
65.040622
 70
   192
  0
VERTEX
  8
toast
 10
88.987513
 20
25.517975
 30
98.032716
 70
   192
  0
VERTEX
  8
toast
 10
-88.568748
 20
0.000000
 30
98.032716
 70
   192
  0
VERTEX
  8
toast
 10
-83.962335
 20
0.000000
 30
40.900065
 70
   192
  0
VERTEX
  8
toast
 10
-79.774688
 20
0.000000
 30
-4.966994
 70
   192
  0
VERTEX
  8
toast
 10
-82.706041
 20
0.000000
 30
-37.154403
 70
   192
  0
VERTEX
  8
toast
 10
-95.687749
 20
0.000000
 30
-45.603598
 70
   192
  0
VERTEX
  8
toast
 10
-98.619102
 20
0.000000
 30
-67.330099
 70
   192
  0
VERTEX
  8
toast
 10
-89.841464
 20
0.000000
 30
-89.458943
 70
   192
  0
VERTEX
  8
toast
 10
-54.115082
 20
0.000000
 30
-98.310481
 70
   192
  0
VERTEX
  8
toast
 10
-17.173461
 20
0.000000
 30
-85.837860
 70
   192
  0
VERTEX
  8
toast
 10
12.033329
 20
0.000000
 30
-61.294960
 70
   192
  0
VERTEX
  8
toast
 10
30.360445
 20
0.000000
 30
-75.779294
 70
   192
  0
VERTEX
  8
toast
 10
52.554978
 20
0.000000
 30
-89.861286
 70
   192
  0
VERTEX
  8
toast
 10
75.168275
 20
0.000000
 30
-91.470656
 70
   192
  0
VERTEX
  8
toast
 10
96.106514
 20
0.000000
 30
-78.193350
 70
   192
  0
VERTEX
  8
toast
 10
98.619102
 20
0.000000
 30
-47.212968
 70
   192
  0
VERTEX
  8
toast
 10
78.937158
 20
0.000000
 30
-24.279439
 70
   192
  0
VERTEX
  8
toast
 10
76.843334
 20
0.000000
 30
-0.138882
 70
   192
  0
VERTEX
  8
toast
 10
81.449747
 20
0.000000
 30
65.040622
 70
   192
  0
VERTEX
  8
toast
 10
88.987513
 20
0.000000
 30
98.032716
 70
   192
  0
VERTEX
  8
toast
 10
0.000000
 20
25.517975
 30
98.310481
 70
   192
  0
VERTEX
  8
toast
 10
0.000000
 20
25.517975
 30
98.310481
 70
   192
  0
VERTEX
  8
toast
 10
0.000000
 20
25.517975
 30
98.310481
 70
   192
  0
VERTEX
  8
toast
 10
0.000000
 20
25.517975
 30
98.310481
 70
   192
  0
VERTEX
  8
toast
 10
0.000000
 20
25.517975
 30
98.310481
 70
   192
  0
VERTEX
  8
toast
 10
0.000000
 20
25.517975
 30
98.310481
 70
   192
  0
VERTEX
  8
toast
 10
0.000000
 20
25.517975
 30
98.310481
 70
   192
  0
VERTEX
  8
toast
 10
0.000000
 20
25.517975
 30
98.310481
 70
   192
  0
VERTEX
  8
toast
 10
0.000000
 20
25.517975
 30
98.310481
 70
   192
  0
VERTEX
  8
toast
 10
0.000000
 20
25.517975
 30
98.310481
 70
   192
  0
VERTEX
  8
toast
 10
0.000000
 20
25.517975
 30
98.310481
 70
   192
  0
VERTEX
  8
toast
 10
0.000000
 20
25.517975
 30
98.310481
 70
   192
  0
VERTEX
  8
toast
 10
0.000000
 20
25.517975
 30
98.310481
 70
   192
  0
VERTEX
  8
toast
 10
0.000000
 20
25.517975
 30
98.310481
 70
   192
  0
VERTEX
  8
toast
 10
0.000000
 20
25.517975
 30
98.310481
 70
   192
  0
VERTEX
  8
toast
 10
0.000000
 20
25.517975
 30
98.310481
 70
   192
  0
VERTEX
  8
toast
 10
0.000000
 20
25.517975
 30
98.310481
 70
   192
  0
VERTEX
  8
toast
 10
0.000000
 20
25.517975
 30
98.310481
 70
   192
  0
VERTEX
  8
toast
 10
0.000000
 20
25.517975
 30
98.310481
 70
   192
  0
VERTEX
  8
toast
 10
-79.431325
 20
25.517975
 30
91.918794
 70
   192
  0
VERTEX
  8
toast
 10
-75.946519
 20
25.517975
 30
48.697261
 70
   192
  0
VERTEX
  8
toast
 10
-71.203547
 20
25.517975
 30
-3.252239
 70
   192
  0
VERTEX
  8
toast
 10
-75.366825
 20
25.517975
 30
-48.966661
 70
   192
  0
VERTEX
  8
toast
 10
-90.033435
 20
25.517975
 30
-58.512482
 70
   192
  0
VERTEX
  8
toast
 10
-91.519737
 20
25.517975
 30
-69.528599
 70
   192
  0
VERTEX
  8
toast
 10
-87.030485
 20
25.517975
 30
-80.846217
 70
   192
  0
VERTEX
  8
toast
 10
-61.878643
 20
25.517975
 30
-87.077816
 70
   192
  0
VERTEX
  8
toast
 10
-29.493006
 20
25.517975
 30
-76.143434
 70
   192
  0
VERTEX
  8
toast
 10
11.245953
 20
25.517975
 30
-41.909881
 70
   192
  0
VERTEX
  8
toast
 10
42.180308
 20
25.517975
 30
-66.358000
 70
   192
  0
VERTEX
  8
toast
 10
61.944264
 20
25.517975
 30
-78.897838
 70
   192
  0
VERTEX
  8
toast
 10
76.340223
 20
25.517975
 30
-79.922387
 70
   192
  0
VERTEX
  8
toast
 10
86.753067
 20
25.517975
 30
-73.319419
 70
   192
  0
VERTEX
  8
toast
 10
88.180661
 20
25.517975
 30
-55.717096
 70
   192
  0
VERTEX
  8
toast
 10
67.667439
 20
25.517975
 30
-31.814956
 70
   192
  0
VERTEX
  8
toast
 10
64.742531
 20
25.517975
 30
1.907511
 70
   192
  0
VERTEX
  8
toast
 10
70.003043
 20
25.517975
 30
76.342350
 70
   192
  0
VERTEX
  8
toast
 10
73.561823
 20
25.517975
 30
91.918794
 70
   192
  0
VERTEX
  8
toast
 10
-79.431325
 20
0.000000
 30
91.918794
 70
   192
  0
VERTEX
  8
toast
 10
73.561823
 20
0.000000
 30
91.918794
 70
   192
  0
VERTEX
  8
toast
 10
70.003043
 20
0.000000
 30
76.342350
 70
   192
  0
VERTEX
  8
toast
 10
64.742531
 20
0.000000
 30
1.907511
 70
   192
  0
VERTEX
  8
toast
 10
67.667439
 20
0.000000
 30
-31.814956
 70
   192
  0
VERTEX
  8
toast
 10
88.180661
 20
0.000000
 30
-55.717096
 70
   192
  0
VERTEX
  8
toast
 10
86.753067
 20
0.000000
 30
-73.319419
 70
   192
  0
VERTEX
  8
toast
 10
76.340223
 20
0.000000
 30
-79.922387
 70
   192
  0
VERTEX
  8
toast
 10
61.944264
 20
0.000000
 30
-78.897838
 70
   192
  0
VERTEX
  8
toast
 10
42.180308
 20
0.000000
 30
-66.358000
 70
   192
  0
VERTEX
  8
toast
 10
11.245953
 20
0.000000
 30
-41.909881
 70
   192
  0
VERTEX
  8
toast
 10
-29.493006
 20
0.000000
 30
-76.143434
 70
   192
  0
VERTEX
  8
toast
 10
-61.878643
 20
0.000000
 30
-87.077816
 70
   192
  0
VERTEX
  8
toast
 10
-87.030485
 20
0.000000
 30
-80.846217
 70
   192
  0
VERTEX
  8
toast
 10
-91.519737
 20
0.000000
 30
-69.528599
 70
   192
  0
VERTEX
  8
toast
 10
-90.033435
 20
0.000000
 30
-58.512482
 70
   192
  0
VERTEX
  8
toast
 10
-75.366825
 20
0.000000
 30
-48.966661
 70
   192
  0
VERTEX
  8
toast
 10
-71.203547
 20
0.000000
 30
-3.252239
 70
   192
  0
VERTEX
  8
toast
 10
-75.946519
 20
0.000000
 30
48.697261
 70
   192
  0
VERTEX
  8
toast
 10
0.0
 20
0.0
 30
0.0
 70
   128
 71
   1
 72
   20
 73
   21
  0
VERTEX
  8
toast
 10
0.0
 20
0.0
 30
0.0
 70
   128
 71
   2
 72
   21
 73
   22
  0
VERTEX
  8
toast
 10
0.0
 20
0.0
 30
0.0
 70
   128
 71
   3
 72
   22
 73
   23
  0
VERTEX
  8
toast
 10
0.0
 20
0.0
 30
0.0
 70
   128
 71
   4
 72
   23
 73
   24
  0
VERTEX
  8
toast
 10
0.0
 20
0.0
 30
0.0
 70
   128
 71
   5
 72
   24
 73
   25
  0
VERTEX
  8
toast
 10
0.0
 20
0.0
 30
0.0
 70
   128
 71
   6
 72
   25
 73
   26
  0
VERTEX
  8
toast
 10
0.0
 20
0.0
 30
0.0
 70
   128
 71
   7
 72
   26
 73
   27
  0
VERTEX
  8
toast
 10
0.0
 20
0.0
 30
0.0
 70
   128
 71
   8
 72
   27
 73
   28
  0
VERTEX
  8
toast
 10
0.0
 20
0.0
 30
0.0
 70
   128
 71
   9
 72
   28
 73
   29
  0
VERTEX
  8
toast
 10
0.0
 20
0.0
 30
0.0
 70
   128
 71
   10
 72
   29
 73
   30
  0
VERTEX
  8
toast
 10
0.0
 20
0.0
 30
0.0
 70
   128
 71
   11
 72
   30
 73
   31
  0
VERTEX
  8
toast
 10
0.0
 20
0.0
 30
0.0
 70
   128
 71
   12
 72
   31
 73
   32
  0
VERTEX
  8
toast
 10
0.0
 20
0.0
 30
0.0
 70
   128
 71
   13
 72
   32
 73
   33
  0
VERTEX
  8
toast
 10
0.0
 20
0.0
 30
0.0
 70
   128
 71
   14
 72
   33
 73
   34
  0
VERTEX
  8
toast
 10
0.0
 20
0.0
 30
0.0
 70
   128
 71
   15
 72
   34
 73
   35
  0
VERTEX
  8
toast
 10
0.0
 20
0.0
 30
0.0
 70
   128
 71
   16
 72
   35
 73
   36
  0
VERTEX
  8
toast
 10
0.0
 20
0.0
 30
0.0
 70
   128
 71
   17
 72
   36
 73
   37
  0
VERTEX
  8
toast
 10
0.0
 20
0.0
 30
0.0
 70
   128
 71
   18
 72
   37
 73
   38
  0
VERTEX
  8
toast
 10
0.0
 20
0.0
 30
0.0
 70
   128
 71
   19
 72
   38
 73
   20
  0
VERTEX
  8
toast
 10
0.0
 20
0.0
 30
0.0
 70
   128
 71
   97
 72
   98
 73
   105
  0
VERTEX
  8
toast
 10
0.0
 20
0.0
 30
0.0
 70
   128
 71
   39
 72
   96
 73
   114
  0
VERTEX
  8
toast
 10
0.0
 20
0.0
 30
0.0
 70
   128
 71
   97
 72
   105
 73
   112
  0
VERTEX
  8
toast
 10
0.0
 20
0.0
 30
0.0
 70
   128
 71
   40
 72
   97
 73
   96
  0
VERTEX
  8
toast
 10
0.0
 20
0.0
 30
0.0
 70
   128
 71
   41
 72
   98
 73
   97
  0
VERTEX
  8
toast
 10
0.0
 20
0.0
 30
0.0
 70
   128
 71
   105
 72
   98
 73
   99
  0
VERTEX
  8
toast
 10
0.0
 20
0.0
 30
0.0
 70
   128
 71
   105
 72
   106
 73
   111
  0
VERTEX
  8
toast
 10
0.0
 20
0.0
 30
0.0
 70
   128
 71
   111
 72
   106
 73
   107
  0
VERTEX
  8
toast
 10
0.0
 20
0.0
 30
0.0
 70
   128
 71
   103
 72
   104
 73
   99
  0
VERTEX
  8
toast
 10
0.0
 20
0.0
 30
0.0
 70
   128
 71
   42
 72
   99
 73
   98
  0
VERTEX
  8
toast
 10
0.0
 20
0.0
 30
0.0
 70
   128
 71
   96
 72
   97
 73
   113
  0
VERTEX
  8
toast
 10
0.0
 20
0.0
 30
0.0
 70
   128
 71
   110
 72
   107
 73
   108
  0
VERTEX
  8
toast
 10
0.0
 20
0.0
 30
0.0
 70
   128
 71
   43
 72
   100
 73
   99
  0
VERTEX
  8
toast
 10
0.0
 20
0.0
 30
0.0
 70
   128
 71
   99
 72
   100
 73
   101
  0
VERTEX
  8
toast
 10
0.0
 20
0.0
 30
0.0
 70
   128
 71
   44
 72
   101
 73
   100
  0
VERTEX
  8
toast
 10
0.0
 20
0.0
 30
0.0
 70
   128
 71
   45
 72
   102
 73
   101
  0
VERTEX
  8
toast
 10
0.0
 20
0.0
 30
0.0
 70
   128
 71
   46
 72
   103
 73
   102
  0
VERTEX
  8
toast
 10
0.0
 20
0.0
 30
0.0
 70
   128
 71
   133
 72
   117
 73
   118
  0
VERTEX
  8
toast
 10
0.0
 20
0.0
 30
0.0
 70
   128
 71
   125
 72
   118
 73
   119
  0
VERTEX
  8
toast
 10
0.0
 20
0.0
 30
0.0
 70
   128
 71
   47
 72
   104
 73
   103
  0
VERTEX
  8
toast
 10
0.0
 20
0.0
 30
0.0
 70
   128
 71
   119
 72
   120
 73
   123
  0
VERTEX
  8
toast
 10
0.0
 20
0.0
 30
0.0
 70
   128
 71
   48
 72
   105
 73
   104
  0
VERTEX
  8
toast
 10
0.0
 20
0.0
 30
0.0
 70
   128
 71
   49
 72
   106
 73
   105
  0
VERTEX
  8
toast
 10
0.0
 20
0.0
 30
0.0
 70
   128
 71
   120
 72
   121
 73
   122
  0
VERTEX
  8
toast
 10
0.0
 20
0.0
 30
0.0
 70
   128
 71
   131
 72
   126
 73
   127
  0
VERTEX
  8
toast
 10
0.0
 20
0.0
 30
0.0
 70
   128
 71
   131
 72
   128
 73
   129
  0
VERTEX
  8
toast
 10
0.0
 20
0.0
 30
0.0
 70
   128
 71
   125
 72
   126
 73
   131
  0
VERTEX
  8
toast
 10
0.0
 20
0.0
 30
0.0
 70
   128
 71
   125
 72
   132
 73
   133
  0
VERTEX
  8
toast
 10
0.0
 20
0.0
 30
0.0
 70
   128
 71
   115
 72
   116
 73
   117
  0
VERTEX
  8
toast
 10
0.0
 20
0.0
 30
0.0
 70
   128
 71
   50
 72
   107
 73
   106
  0
VERTEX
  8
toast
 10
0.0
 20
0.0
 30
0.0
 70
   128
 71
   51
 72
   108
 73
   107
  0
VERTEX
  8
toast
 10
0.0
 20
0.0
 30
0.0
 70
   128
 71
   52
 72
   109
 73
   108
  0
VERTEX
  8
toast
 10
0.0
 20
0.0
 30
0.0
 70
   128
 71
   53
 72
   110
 73
   109
  0
VERTEX
  8
toast
 10
0.0
 20
0.0
 30
0.0
 70
   128
 71
   54
 72
   111
 73
   110
  0
VERTEX
  8
toast
 10
0.0
 20
0.0
 30
0.0
 70
   128
 71
   55
 72
   112
 73
   111
  0
VERTEX
  8
toast
 10
0.0
 20
0.0
 30
0.0
 70
   128
 71
   56
 72
   113
 73
   112
  0
VERTEX
  8
toast
 10
0.0
 20
0.0
 30
0.0
 70
   128
 71
   57
 72
   114
 73
   113
  0
VERTEX
  8
toast
 10
0.0
 20
0.0
 30
0.0
 70
   128
 71
   58
 72
   115
 73
   133
  0
VERTEX
  8
toast
 10
0.0
 20
0.0
 30
0.0
 70
   128
 71
   76
 72
   116
 73
   115
  0
VERTEX
  8
toast
 10
0.0
 20
0.0
 30
0.0
 70
   128
 71
   75
 72
   117
 73
   116
  0
VERTEX
  8
toast
 10
0.0
 20
0.0
 30
0.0
 70
   128
 71
   74
 72
   118
 73
   117
  0
VERTEX
  8
toast
 10
0.0
 20
0.0
 30
0.0
 70
   128
 71
   73
 72
   119
 73
   118
  0
VERTEX
  8
toast
 10
0.0
 20
0.0
 30
0.0
 70
   128
 71
   72
 72
   120
 73
   119
  0
VERTEX
  8
toast
 10
0.0
 20
0.0
 30
0.0
 70
   128
 71
   71
 72
   121
 73
   120
  0
VERTEX
  8
toast
 10
0.0
 20
0.0
 30
0.0
 70
   128
 71
   70
 72
   122
 73
   121
  0
VERTEX
  8
toast
 10
0.0
 20
0.0
 30
0.0
 70
   128
 71
   69
 72
   123
 73
   122
  0
VERTEX
  8
toast
 10
0.0
 20
0.0
 30
0.0
 70
   128
 71
   68
 72
   124
 73
   123
  0
VERTEX
  8
toast
 10
0.0
 20
0.0
 30
0.0
 70
   128
 71
   67
 72
   125
 73
   124
  0
VERTEX
  8
toast
 10
0.0
 20
0.0
 30
0.0
 70
   128
 71
   66
 72
   126
 73
   125
  0
VERTEX
  8
toast
 10
0.0
 20
0.0
 30
0.0
 70
   128
 71
   65
 72
   127
 73
   126
  0
VERTEX
  8
toast
 10
0.0
 20
0.0
 30
0.0
 70
   128
 71
   64
 72
   128
 73
   127
  0
VERTEX
  8
toast
 10
0.0
 20
0.0
 30
0.0
 70
   128
 71
   63
 72
   129
 73
   128
  0
VERTEX
  8
toast
 10
0.0
 20
0.0
 30
0.0
 70
   128
 71
   62
 72
   130
 73
   129
  0
VERTEX
  8
toast
 10
0.0
 20
0.0
 30
0.0
 70
   128
 71
   61
 72
   131
 73
   130
  0
VERTEX
  8
toast
 10
0.0
 20
0.0
 30
0.0
 70
   128
 71
   60
 72
   132
 73
   131
  0
VERTEX
  8
toast
 10
0.0
 20
0.0
 30
0.0
 70
   128
 71
   59
 72
   133
 73
   132
  0
VERTEX
  8
toast
 10
0.0
 20
0.0
 30
0.0
 70
   128
 71
   1
 72
   21
 73
   2
  0
VERTEX
  8
toast
 10
0.0
 20
0.0
 30
0.0
 70
   128
 71
   2
 72
   22
 73
   3
  0
VERTEX
  8
toast
 10
0.0
 20
0.0
 30
0.0
 70
   128
 71
   3
 72
   23
 73
   4
  0
VERTEX
  8
toast
 10
0.0
 20
0.0
 30
0.0
 70
   128
 71
   4
 72
   24
 73
   5
  0
VERTEX
  8
toast
 10
0.0
 20
0.0
 30
0.0
 70
   128
 71
   5
 72
   25
 73
   6
  0
VERTEX
  8
toast
 10
0.0
 20
0.0
 30
0.0
 70
   128
 71
   6
 72
   26
 73
   7
  0
VERTEX
  8
toast
 10
0.0
 20
0.0
 30
0.0
 70
   128
 71
   7
 72
   27
 73
   8
  0
VERTEX
  8
toast
 10
0.0
 20
0.0
 30
0.0
 70
   128
 71
   8
 72
   28
 73
   9
  0
VERTEX
  8
toast
 10
0.0
 20
0.0
 30
0.0
 70
   128
 71
   9
 72
   29
 73
   10
  0
VERTEX
  8
toast
 10
0.0
 20
0.0
 30
0.0
 70
   128
 71
   10
 72
   30
 73
   11
  0
VERTEX
  8
toast
 10
0.0
 20
0.0
 30
0.0
 70
   128
 71
   11
 72
   31
 73
   12
  0
VERTEX
  8
toast
 10
0.0
 20
0.0
 30
0.0
 70
   128
 71
   12
 72
   32
 73
   13
  0
VERTEX
  8
toast
 10
0.0
 20
0.0
 30
0.0
 70
   128
 71
   13
 72
   33
 73
   14
  0
VERTEX
  8
toast
 10
0.0
 20
0.0
 30
0.0
 70
   128
 71
   14
 72
   34
 73
   15
  0
VERTEX
  8
toast
 10
0.0
 20
0.0
 30
0.0
 70
   128
 71
   15
 72
   35
 73
   16
  0
VERTEX
  8
toast
 10
0.0
 20
0.0
 30
0.0
 70
   128
 71
   16
 72
   36
 73
   17
  0
VERTEX
  8
toast
 10
0.0
 20
0.0
 30
0.0
 70
   128
 71
   17
 72
   37
 73
   18
  0
VERTEX
  8
toast
 10
0.0
 20
0.0
 30
0.0
 70
   128
 71
   18
 72
   38
 73
   19
  0
VERTEX
  8
toast
 10
0.0
 20
0.0
 30
0.0
 70
   128
 71
   19
 72
   20
 73
   1
  0
VERTEX
  8
toast
 10
0.0
 20
0.0
 30
0.0
 70
   128
 71
   39
 72
   114
 73
   57
  0
VERTEX
  8
toast
 10
0.0
 20
0.0
 30
0.0
 70
   128
 71
   97
 72
   112
 73
   113
  0
VERTEX
  8
toast
 10
0.0
 20
0.0
 30
0.0
 70
   128
 71
   40
 72
   96
 73
   39
  0
VERTEX
  8
toast
 10
0.0
 20
0.0
 30
0.0
 70
   128
 71
   41
 72
   97
 73
   40
  0
VERTEX
  8
toast
 10
0.0
 20
0.0
 30
0.0
 70
   128
 71
   105
 72
   99
 73
   104
  0
VERTEX
  8
toast
 10
0.0
 20
0.0
 30
0.0
 70
   128
 71
   105
 72
   111
 73
   112
  0
VERTEX
  8
toast
 10
0.0
 20
0.0
 30
0.0
 70
   128
 71
   111
 72
   107
 73
   110
  0
VERTEX
  8
toast
 10
0.0
 20
0.0
 30
0.0
 70
   128
 71
   103
 72
   99
 73
   102
  0
VERTEX
  8
toast
 10
0.0
 20
0.0
 30
0.0
 70
   128
 71
   42
 72
   98
 73
   41
  0
VERTEX
  8
toast
 10
0.0
 20
0.0
 30
0.0
 70
   128
 71
   96
 72
   113
 73
   114
  0
VERTEX
  8
toast
 10
0.0
 20
0.0
 30
0.0
 70
   128
 71
   110
 72
   108
 73
   109
  0
VERTEX
  8
toast
 10
0.0
 20
0.0
 30
0.0
 70
   128
 71
   43
 72
   99
 73
   42
  0
VERTEX
  8
toast
 10
0.0
 20
0.0
 30
0.0
 70
   128
 71
   99
 72
   101
 73
   102
  0
VERTEX
  8
toast
 10
0.0
 20
0.0
 30
0.0
 70
   128
 71
   44
 72
   100
 73
   43
  0
VERTEX
  8
toast
 10
0.0
 20
0.0
 30
0.0
 70
   128
 71
   45
 72
   101
 73
   44
  0
VERTEX
  8
toast
 10
0.0
 20
0.0
 30
0.0
 70
   128
 71
   46
 72
   102
 73
   45
  0
VERTEX
  8
toast
 10
0.0
 20
0.0
 30
0.0
 70
   128
 71
   133
 72
   118
 73
   125
  0
VERTEX
  8
toast
 10
0.0
 20
0.0
 30
0.0
 70
   128
 71
   125
 72
   119
 73
   124
  0
VERTEX
  8
toast
 10
0.0
 20
0.0
 30
0.0
 70
   128
 71
   47
 72
   103
 73
   46
  0
VERTEX
  8
toast
 10
0.0
 20
0.0
 30
0.0
 70
   128
 71
   119
 72
   123
 73
   124
  0
VERTEX
  8
toast
 10
0.0
 20
0.0
 30
0.0
 70
   128
 71
   48
 72
   104
 73
   47
  0
VERTEX
  8
toast
 10
0.0
 20
0.0
 30
0.0
 70
   128
 71
   49
 72
   105
 73
   48
  0
VERTEX
  8
toast
 10
0.0
 20
0.0
 30
0.0
 70
   128
 71
   120
 72
   122
 73
   123
  0
VERTEX
  8
toast
 10
0.0
 20
0.0
 30
0.0
 70
   128
 71
   131
 72
   127
 73
   128
  0
VERTEX
  8
toast
 10
0.0
 20
0.0
 30
0.0
 70
   128
 71
   131
 72
   129
 73
   130
  0
VERTEX
  8
toast
 10
0.0
 20
0.0
 30
0.0
 70
   128
 71
   125
 72
   131
 73
   132
  0
VERTEX
  8
toast
 10
0.0
 20
0.0
 30
0.0
 70
   128
 71
   115
 72
   117
 73
   133
  0
VERTEX
  8
toast
 10
0.0
 20
0.0
 30
0.0
 70
   128
 71
   50
 72
   106
 73
   49
  0
VERTEX
  8
toast
 10
0.0
 20
0.0
 30
0.0
 70
   128
 71
   51
 72
   107
 73
   50
  0
VERTEX
  8
toast
 10
0.0
 20
0.0
 30
0.0
 70
   128
 71
   52
 72
   108
 73
   51
  0
VERTEX
  8
toast
 10
0.0
 20
0.0
 30
0.0
 70
   128
 71
   53
 72
   109
 73
   52
  0
VERTEX
  8
toast
 10
0.0
 20
0.0
 30
0.0
 70
   128
 71
   54
 72
   110
 73
   53
  0
VERTEX
  8
toast
 10
0.0
 20
0.0
 30
0.0
 70
   128
 71
   55
 72
   111
 73
   54
  0
VERTEX
  8
toast
 10
0.0
 20
0.0
 30
0.0
 70
   128
 71
   56
 72
   112
 73
   55
  0
VERTEX
  8
toast
 10
0.0
 20
0.0
 30
0.0
 70
   128
 71
   57
 72
   113
 73
   56
  0
VERTEX
  8
toast
 10
0.0
 20
0.0
 30
0.0
 70
   128
 71
   58
 72
   133
 73
   59
  0
VERTEX
  8
toast
 10
0.0
 20
0.0
 30
0.0
 70
   128
 71
   76
 72
   115
 73
   58
  0
VERTEX
  8
toast
 10
0.0
 20
0.0
 30
0.0
 70
   128
 71
   75
 72
   116
 73
   76
  0
VERTEX
  8
toast
 10
0.0
 20
0.0
 30
0.0
 70
   128
 71
   74
 72
   117
 73
   75
  0
VERTEX
  8
toast
 10
0.0
 20
0.0
 30
0.0
 70
   128
 71
   73
 72
   118
 73
   74
  0
VERTEX
  8
toast
 10
0.0
 20
0.0
 30
0.0
 70
   128
 71
   72
 72
   119
 73
   73
  0
VERTEX
  8
toast
 10
0.0
 20
0.0
 30
0.0
 70
   128
 71
   71
 72
   120
 73
   72
  0
VERTEX
  8
toast
 10
0.0
 20
0.0
 30
0.0
 70
   128
 71
   70
 72
   121
 73
   71
  0
VERTEX
  8
toast
 10
0.0
 20
0.0
 30
0.0
 70
   128
 71
   69
 72
   122
 73
   70
  0
VERTEX
  8
toast
 10
0.0
 20
0.0
 30
0.0
 70
   128
 71
   68
 72
   123
 73
   69
  0
VERTEX
  8
toast
 10
0.0
 20
0.0
 30
0.0
 70
   128
 71
   67
 72
   124
 73
   68
  0
VERTEX
  8
toast
 10
0.0
 20
0.0
 30
0.0
 70
   128
 71
   66
 72
   125
 73
   67
  0
VERTEX
  8
toast
 10
0.0
 20
0.0
 30
0.0
 70
   128
 71
   65
 72
   126
 73
   66
  0
VERTEX
  8
toast
 10
0.0
 20
0.0
 30
0.0
 70
   128
 71
   64
 72
   127
 73
   65
  0
VERTEX
  8
toast
 10
0.0
 20
0.0
 30
0.0
 70
   128
 71
   63
 72
   128
 73
   64
  0
VERTEX
  8
toast
 10
0.0
 20
0.0
 30
0.0
 70
   128
 71
   62
 72
   129
 73
   63
  0
VERTEX
  8
toast
 10
0.0
 20
0.0
 30
0.0
 70
   128
 71
   61
 72
   130
 73
   62
  0
VERTEX
  8
toast
 10
0.0
 20
0.0
 30
0.0
 70
   128
 71
   60
 72
   131
 73
   61
  0
VERTEX
  8
toast
 10
0.0
 20
0.0
 30
0.0
 70
   128
 71
   59
 72
   132
 73
   60
  0
SEQEND
  0
POLYLINE
  8
butter
 66
   1
 10
0.0
 20
0.0
 30
0.0
 70
   64
 71
   18
 72
   32
  0
VERTEX
  8
butter
 10
-30.505293
 20
28.614286
 30
0.000000
 70
   192
  0
VERTEX
  8
butter
 10
0.000000
 20
28.614286
 30
30.505293
 70
   192
  0
VERTEX
  8
butter
 10
30.505293
 20
28.614286
 30
0.000000
 70
   192
  0
VERTEX
  8
butter
 10
0.000000
 20
28.614286
 30
-30.505293
 70
   192
  0
VERTEX
  8
butter
 10
0.000000
 20
43.983546
 30
0.000000
 70
   192
  0
VERTEX
  8
butter
 10
0.000000
 20
13.245025
 30
0.000000
 70
   192
  0
VERTEX
  8
butter
 10
0.000000
 20
39.481994
 30
21.570500
 70
   192
  0
VERTEX
  8
butter
 10
-21.570500
 20
28.614286
 30
21.570500
 70
   192
  0
VERTEX
  8
butter
 10
-21.570500
 20
39.481994
 30
0.000000
 70
   192
  0
VERTEX
  8
butter
 10
21.570500
 20
39.481994
 30
0.000000
 70
   192
  0
VERTEX
  8
butter
 10
21.570500
 20
28.614286
 30
21.570500
 70
   192
  0
VERTEX
  8
butter
 10
0.000000
 20
39.481994
 30
-21.570500
 70
   192
  0
VERTEX
  8
butter
 10
21.570500
 20
28.614286
 30
-21.570500
 70
   192
  0
VERTEX
  8
butter
 10
-21.570500
 20
28.614286
 30
-21.570500
 70
   192
  0
VERTEX
  8
butter
 10
-21.570500
 20
17.746578
 30
0.000000
 70
   192
  0
VERTEX
  8
butter
 10
0.000000
 20
17.746578
 30
21.570500
 70
   192
  0
VERTEX
  8
butter
 10
21.570500
 20
17.746578
 30
0.000000
 70
   192
  0
VERTEX
  8
butter
 10
0.000000
 20
17.746578
 30
-21.570500
 70
   192
  0
VERTEX
  8
butter
 10
0.0
 20
0.0
 30
0.0
 70
   128
 71
   5
 72
   7
 73
   9
  0
VERTEX
  8
butter
 10
0.0
 20
0.0
 30
0.0
 70
   128
 71
   7
 72
   2
 73
   8
  0
VERTEX
  8
butter
 10
0.0
 20
0.0
 30
0.0
 70
   128
 71
   8
 72
   9
 73
   7
  0
VERTEX
  8
butter
 10
0.0
 20
0.0
 30
0.0
 70
   128
 71
   9
 72
   8
 73
   1
  0
VERTEX
  8
butter
 10
0.0
 20
0.0
 30
0.0
 70
   128
 71
   5
 72
   10
 73
   7
  0
VERTEX
  8
butter
 10
0.0
 20
0.0
 30
0.0
 70
   128
 71
   10
 72
   3
 73
   11
  0
VERTEX
  8
butter
 10
0.0
 20
0.0
 30
0.0
 70
   128
 71
   11
 72
   7
 73
   10
  0
VERTEX
  8
butter
 10
0.0
 20
0.0
 30
0.0
 70
   128
 71
   7
 72
   11
 73
   2
  0
VERTEX
  8
butter
 10
0.0
 20
0.0
 30
0.0
 70
   128
 71
   5
 72
   12
 73
   10
  0
VERTEX
  8
butter
 10
0.0
 20
0.0
 30
0.0
 70
   128
 71
   12
 72
   4
 73
   13
  0
VERTEX
  8
butter
 10
0.0
 20
0.0
 30
0.0
 70
   128
 71
   13
 72
   10
 73
   12
  0
VERTEX
  8
butter
 10
0.0
 20
0.0
 30
0.0
 70
   128
 71
   10
 72
   13
 73
   3
  0
VERTEX
  8
butter
 10
0.0
 20
0.0
 30
0.0
 70
   128
 71
   5
 72
   9
 73
   12
  0
VERTEX
  8
butter
 10
0.0
 20
0.0
 30
0.0
 70
   128
 71
   9
 72
   1
 73
   14
  0
VERTEX
  8
butter
 10
0.0
 20
0.0
 30
0.0
 70
   128
 71
   14
 72
   12
 73
   9
  0
VERTEX
  8
butter
 10
0.0
 20
0.0
 30
0.0
 70
   128
 71
   12
 72
   14
 73
   4
  0
VERTEX
  8
butter
 10
0.0
 20
0.0
 30
0.0
 70
   128
 71
   6
 72
   15
 73
   16
  0
VERTEX
  8
butter
 10
0.0
 20
0.0
 30
0.0
 70
   128
 71
   15
 72
   1
 73
   8
  0
VERTEX
  8
butter
 10
0.0
 20
0.0
 30
0.0
 70
   128
 71
   8
 72
   16
 73
   15
  0
VERTEX
  8
butter
 10
0.0
 20
0.0
 30
0.0
 70
   128
 71
   16
 72
   8
 73
   2
  0
VERTEX
  8
butter
 10
0.0
 20
0.0
 30
0.0
 70
   128
 71
   6
 72
   16
 73
   17
  0
VERTEX
  8
butter
 10
0.0
 20
0.0
 30
0.0
 70
   128
 71
   16
 72
   2
 73
   11
  0
VERTEX
  8
butter
 10
0.0
 20
0.0
 30
0.0
 70
   128
 71
   11
 72
   17
 73
   16
  0
VERTEX
  8
butter
 10
0.0
 20
0.0
 30
0.0
 70
   128
 71
   17
 72
   11
 73
   3
  0
VERTEX
  8
butter
 10
0.0
 20
0.0
 30
0.0
 70
   128
 71
   6
 72
   17
 73
   18
  0
VERTEX
  8
butter
 10
0.0
 20
0.0
 30
0.0
 70
   128
 71
   17
 72
   3
 73
   13
  0
VERTEX
  8
butter
 10
0.0
 20
0.0
 30
0.0
 70
   128
 71
   13
 72
   18
 73
   17
  0
VERTEX
  8
butter
 10
0.0
 20
0.0
 30
0.0
 70
   128
 71
   18
 72
   13
 73
   4
  0
VERTEX
  8
butter
 10
0.0
 20
0.0
 30
0.0
 70
   128
 71
   6
 72
   18
 73
   15
  0
VERTEX
  8
butter
 10
0.0
 20
0.0
 30
0.0
 70
   128
 71
   18
 72
   4
 73
   14
  0
VERTEX
  8
butter
 10
0.0
 20
0.0
 30
0.0
 70
   128
 71
   14
 72
   15
 73
   18
  0
VERTEX
  8
butter
 10
0.0
 20
0.0
 30
0.0
 70
   128
 71
   15
 72
   14
 73
   1
  0
SEQEND
  0
ENDSEC
  0
EOF
