999
FBX AutoCAD (*.DXF) exporter
  0
SECTION
  2
HEADER
  9
$ACADVER
  1
AC1008
  9
$UCSORG
 10
0.0
 20
0.0
 30
0.0
  9
$UCSXDIR
 10
1.0
 20
0.0
 30
0.0
  9
$TILEMODE
 70
   1
  9
$UCSYDIR
 10
0.0
 20
1.0
 30
0.0
  0
ENDSEC
  0
SECTION
  2
TABLES
  0
TABLE
  2
LTYPE
 70
   1
  0
LTYPE
  2
CONTINUOUS
 70
   64
  3
Solid line
 72
   65
 73
   0
 40
0.0
  0
ENDTAB
  0
TABLE
  2
LAYER
 70
   2
  0
LAYER
  2
coffeePot
 70
   0
 62
   250
  6
CONTINUOUS
  0
LAYER
  2
coffeePotLid
 70
   0
 62
   250
  6
CONTINUOUS
  0
ENDTAB
  0
ENDSEC
  0
SECTION
  2
BLOCKS
  0
ENDSEC
  0
SECTION
  2
ENTITIES
  0
POLYLINE
  8
coffeePot
 66
   1
 10
0.0
 20
0.0
 30
0.0
 70
   64
 71
   126
 72
   248
  0
VERTEX
  8
coffeePot
 10
-12.765035
 20
219.169528
 30
72.879756
 70
   192
  0
VERTEX
  8
coffeePot
 10
38.610908
 20
198.348528
 30
0.000000
 70
   192
  0
VERTEX
  8
coffeePot
 10
40.858011
 20
231.414395
 30
0.000000
 70
   192
  0
VERTEX
  8
coffeePot
 10
50.408203
 20
249.200383
 30
0.000000
 70
   192
  0
VERTEX
  8
coffeePot
 10
58.273066
 20
252.319804
 30
0.000000
 70
   192
  0
VERTEX
  8
coffeePot
 10
59.958394
 20
242.337656
 30
0.000000
 70
   192
  0
VERTEX
  8
coffeePot
 10
52.093530
 20
224.868896
 30
0.000000
 70
   192
  0
VERTEX
  8
coffeePot
 10
48.722875
 20
200.537410
 30
0.000000
 70
   192
  0
VERTEX
  8
coffeePot
 10
50.408203
 20
183.692535
 30
0.000000
 70
   192
  0
VERTEX
  8
coffeePot
 10
83.552983
 20
24.602046
 30
0.000000
 70
   192
  0
VERTEX
  8
coffeePot
 10
84.676535
 20
13.996014
 30
0.000000
 70
   192
  0
VERTEX
  8
coffeePot
 10
77.935224
 20
1.518329
 30
0.000000
 70
   192
  0
VERTEX
  8
coffeePot
 10
14.692246
 20
236.638287
 30
80.359685
 70
   192
  0
VERTEX
  8
coffeePot
 10
31.236881
 20
198.348528
 30
-22.694922
 70
   192
  0
VERTEX
  8
coffeePot
 10
33.054826
 20
231.414395
 30
-24.015737
 70
   192
  0
VERTEX
  8
coffeePot
 10
40.781092
 20
249.200383
 30
-29.629198
 70
   192
  0
VERTEX
  8
coffeePot
 10
47.143900
 20
252.319804
 30
-34.252049
 70
   192
  0
VERTEX
  8
coffeePot
 10
48.507359
 20
242.337656
 30
-35.242659
 70
   192
  0
VERTEX
  8
coffeePot
 10
42.144551
 20
224.868896
 30
-30.619809
 70
   192
  0
VERTEX
  8
coffeePot
 10
39.417634
 20
200.537410
 30
-28.638587
 70
   192
  0
VERTEX
  8
coffeePot
 10
40.781092
 20
183.692535
 30
-29.629198
 70
   192
  0
VERTEX
  8
coffeePot
 10
67.595783
 20
24.602046
 30
-49.111211
 70
   192
  0
VERTEX
  8
coffeePot
 10
68.504756
 20
13.996014
 30
-49.771619
 70
   192
  0
VERTEX
  8
coffeePot
 10
63.050920
 20
1.518329
 30
-45.809175
 70
   192
  0
VERTEX
  8
coffeePot
 10
12.765035
 20
219.169528
 30
72.879756
 70
   192
  0
VERTEX
  8
coffeePot
 10
11.931427
 20
198.348528
 30
-36.721155
 70
   192
  0
VERTEX
  8
coffeePot
 10
12.625820
 20
231.414395
 30
-42.373823
 70
   192
  0
VERTEX
  8
coffeePot
 10
15.576991
 20
249.200383
 30
-55.851025
 70
   192
  0
VERTEX
  8
coffeePot
 10
18.007368
 20
252.319804
 30
-71.124312
 70
   192
  0
VERTEX
  8
coffeePot
 10
18.528163
 20
242.337656
 30
-71.033211
 70
   192
  0
VERTEX
  8
coffeePot
 10
16.097786
 20
224.868896
 30
-49.543891
 70
   192
  0
VERTEX
  8
coffeePot
 10
15.056196
 20
200.537410
 30
-46.338207
 70
   192
  0
VERTEX
  8
coffeePot
 10
15.576991
 20
183.692535
 30
-47.941049
 70
   192
  0
VERTEX
  8
coffeePot
 10
25.819292
 20
24.602046
 30
-79.463609
 70
   192
  0
VERTEX
  8
coffeePot
 10
26.166488
 20
13.996014
 30
-80.532170
 70
   192
  0
VERTEX
  8
coffeePot
 10
24.083309
 20
1.518329
 30
-74.120802
 70
   192
  0
VERTEX
  8
coffeePot
 10
-17.967008
 20
213.521614
 30
102.420917
 70
   192
  0
VERTEX
  8
coffeePot
 10
-11.931427
 20
198.348528
 30
-36.721155
 70
   192
  0
VERTEX
  8
coffeePot
 10
-12.625820
 20
231.414395
 30
-42.373823
 70
   192
  0
VERTEX
  8
coffeePot
 10
-15.576991
 20
249.200383
 30
-55.851025
 70
   192
  0
VERTEX
  8
coffeePot
 10
-18.007368
 20
252.319804
 30
-71.124312
 70
   192
  0
VERTEX
  8
coffeePot
 10
-18.528163
 20
242.337656
 30
-71.033211
 70
   192
  0
VERTEX
  8
coffeePot
 10
-16.097786
 20
224.868896
 30
-49.543891
 70
   192
  0
VERTEX
  8
coffeePot
 10
-15.056196
 20
200.537410
 30
-46.338207
 70
   192
  0
VERTEX
  8
coffeePot
 10
-15.576991
 20
183.692535
 30
-47.941049
 70
   192
  0
VERTEX
  8
coffeePot
 10
-25.819292
 20
24.602046
 30
-79.463609
 70
   192
  0
VERTEX
  8
coffeePot
 10
-26.166488
 20
13.996014
 30
-80.532170
 70
   192
  0
VERTEX
  8
coffeePot
 10
-24.083309
 20
1.518329
 30
-74.120802
 70
   192
  0
VERTEX
  8
coffeePot
 10
-15.610240
 20
203.228390
 30
91.353220
 70
   192
  0
VERTEX
  8
coffeePot
 10
-31.236881
 20
198.348528
 30
-22.694922
 70
   192
  0
VERTEX
  8
coffeePot
 10
-33.054826
 20
231.414395
 30
-24.015737
 70
   192
  0
VERTEX
  8
coffeePot
 10
-40.781092
 20
249.200383
 30
-29.629198
 70
   192
  0
VERTEX
  8
coffeePot
 10
-47.143900
 20
252.319804
 30
-34.252049
 70
   192
  0
VERTEX
  8
coffeePot
 10
-48.507359
 20
242.337656
 30
-35.242659
 70
   192
  0
VERTEX
  8
coffeePot
 10
-42.144551
 20
224.868896
 30
-30.619809
 70
   192
  0
VERTEX
  8
coffeePot
 10
-39.417634
 20
200.537410
 30
-28.638587
 70
   192
  0
VERTEX
  8
coffeePot
 10
-40.781092
 20
183.692535
 30
-29.629198
 70
   192
  0
VERTEX
  8
coffeePot
 10
-67.595783
 20
24.602046
 30
-49.111211
 70
   192
  0
VERTEX
  8
coffeePot
 10
-68.504756
 20
13.996014
 30
-49.771619
 70
   192
  0
VERTEX
  8
coffeePot
 10
-63.050920
 20
1.518329
 30
-45.809175
 70
   192
  0
VERTEX
  8
coffeePot
 10
17.967008
 20
213.521614
 30
102.420917
 70
   192
  0
VERTEX
  8
coffeePot
 10
-38.610908
 20
198.348528
 30
-0.000000
 70
   192
  0
VERTEX
  8
coffeePot
 10
-40.858011
 20
231.414395
 30
-0.000000
 70
   192
  0
VERTEX
  8
coffeePot
 10
-50.408203
 20
249.200383
 30
-0.000000
 70
   192
  0
VERTEX
  8
coffeePot
 10
-58.273066
 20
252.319804
 30
-0.000000
 70
   192
  0
VERTEX
  8
coffeePot
 10
-59.958394
 20
242.337656
 30
-0.000000
 70
   192
  0
VERTEX
  8
coffeePot
 10
-52.093530
 20
224.868896
 30
-0.000000
 70
   192
  0
VERTEX
  8
coffeePot
 10
-48.722875
 20
200.537410
 30
-0.000000
 70
   192
  0
VERTEX
  8
coffeePot
 10
-50.408203
 20
183.692535
 30
-0.000000
 70
   192
  0
VERTEX
  8
coffeePot
 10
-83.552983
 20
24.602046
 30
-0.000000
 70
   192
  0
VERTEX
  8
coffeePot
 10
-84.676535
 20
13.996014
 30
-0.000000
 70
   192
  0
VERTEX
  8
coffeePot
 10
-77.935224
 20
1.518329
 30
-0.000000
 70
   192
  0
VERTEX
  8
coffeePot
 10
15.610240
 20
203.228390
 30
91.353220
 70
   192
  0
VERTEX
  8
coffeePot
 10
-31.236881
 20
198.348528
 30
22.694922
 70
   192
  0
VERTEX
  8
coffeePot
 10
-33.054826
 20
231.414395
 30
24.015737
 70
   192
  0
VERTEX
  8
coffeePot
 10
-40.781092
 20
249.200383
 30
29.629198
 70
   192
  0
VERTEX
  8
coffeePot
 10
-47.143900
 20
252.319804
 30
34.252049
 70
   192
  0
VERTEX
  8
coffeePot
 10
-48.507359
 20
242.337656
 30
35.242659
 70
   192
  0
VERTEX
  8
coffeePot
 10
-42.144551
 20
224.868896
 30
30.619809
 70
   192
  0
VERTEX
  8
coffeePot
 10
-39.417634
 20
200.537410
 30
28.638587
 70
   192
  0
VERTEX
  8
coffeePot
 10
-40.781092
 20
183.692535
 30
29.629198
 70
   192
  0
VERTEX
  8
coffeePot
 10
-67.595783
 20
24.602046
 30
49.111211
 70
   192
  0
VERTEX
  8
coffeePot
 10
-68.504756
 20
13.996014
 30
49.771619
 70
   192
  0
VERTEX
  8
coffeePot
 10
-63.050920
 20
1.518329
 30
45.809175
 70
   192
  0
VERTEX
  8
coffeePot
 10
-11.931427
 20
198.348528
 30
36.721155
 70
   192
  0
VERTEX
  8
coffeePot
 10
-12.625820
 20
231.414395
 30
38.858278
 70
   192
  0
VERTEX
  8
coffeePot
 10
-15.576991
 20
249.200383
 30
47.941049
 70
   192
  0
VERTEX
  8
coffeePot
 10
-18.007368
 20
252.319804
 30
55.420979
 70
   192
  0
VERTEX
  8
coffeePot
 10
-18.528163
 20
242.337656
 30
57.023821
 70
   192
  0
VERTEX
  8
coffeePot
 10
-16.097786
 20
224.868896
 30
49.543891
 70
   192
  0
VERTEX
  8
coffeePot
 10
-15.056196
 20
200.537410
 30
46.338207
 70
   192
  0
VERTEX
  8
coffeePot
 10
-15.576991
 20
183.692535
 30
47.941049
 70
   192
  0
VERTEX
  8
coffeePot
 10
-25.819292
 20
24.602046
 30
79.463609
 70
   192
  0
VERTEX
  8
coffeePot
 10
-26.166488
 20
13.996014
 30
80.532170
 70
   192
  0
VERTEX
  8
coffeePot
 10
-24.083309
 20
1.518329
 30
74.120802
 70
   192
  0
VERTEX
  8
coffeePot
 10
11.931427
 20
198.348528
 30
36.721155
 70
   192
  0
VERTEX
  8
coffeePot
 10
12.625820
 20
231.414395
 30
38.858278
 70
   192
  0
VERTEX
  8
coffeePot
 10
15.576991
 20
249.200383
 30
47.941049
 70
   192
  0
VERTEX
  8
coffeePot
 10
18.007368
 20
252.319804
 30
55.420979
 70
   192
  0
VERTEX
  8
coffeePot
 10
18.528163
 20
242.337656
 30
57.023821
 70
   192
  0
VERTEX
  8
coffeePot
 10
16.097786
 20
224.868896
 30
49.543891
 70
   192
  0
VERTEX
  8
coffeePot
 10
15.056196
 20
200.537410
 30
46.338207
 70
   192
  0
VERTEX
  8
coffeePot
 10
15.576991
 20
183.692535
 30
47.941049
 70
   192
  0
VERTEX
  8
coffeePot
 10
25.819292
 20
24.602046
 30
79.463609
 70
   192
  0
VERTEX
  8
coffeePot
 10
26.166488
 20
13.996014
 30
80.532170
 70
   192
  0
VERTEX
  8
coffeePot
 10
24.083309
 20
1.518329
 30
74.120802
 70
   192
  0
VERTEX
  8
coffeePot
 10
31.236881
 20
198.348528
 30
22.694922
 70
   192
  0
VERTEX
  8
coffeePot
 10
33.054826
 20
231.414395
 30
24.015737
 70
   192
  0
VERTEX
  8
coffeePot
 10
40.781092
 20
249.200383
 30
29.629198
 70
   192
  0
VERTEX
  8
coffeePot
 10
47.143900
 20
252.319804
 30
34.252049
 70
   192
  0
VERTEX
  8
coffeePot
 10
48.507359
 20
242.337656
 30
35.242659
 70
   192
  0
VERTEX
  8
coffeePot
 10
42.144551
 20
224.868896
 30
30.619809
 70
   192
  0
VERTEX
  8
coffeePot
 10
39.417634
 20
200.537410
 30
28.638587
 70
   192
  0
VERTEX
  8
coffeePot
 10
40.781092
 20
183.692535
 30
29.629198
 70
   192
  0
VERTEX
  8
coffeePot
 10
67.595783
 20
24.602046
 30
49.111211
 70
   192
  0
VERTEX
  8
coffeePot
 10
68.504756
 20
13.996014
 30
49.771619
 70
   192
  0
VERTEX
  8
coffeePot
 10
63.050920
 20
1.518329
 30
45.809175
 70
   192
  0
VERTEX
  8
coffeePot
 10
-18.000077
 20
171.842511
 30
119.603800
 70
   192
  0
VERTEX
  8
coffeePot
 10
-15.638970
 20
170.502117
 30
102.935192
 70
   192
  0
VERTEX
  8
coffeePot
 10
18.000077
 20
171.842511
 30
119.603800
 70
   192
  0
VERTEX
  8
coffeePot
 10
15.638970
 20
170.502117
 30
102.935192
 70
   192
  0
VERTEX
  8
coffeePot
 10
-12.741356
 20
127.326451
 30
108.074323
 70
   192
  0
VERTEX
  8
coffeePot
 10
-11.070047
 20
132.281241
 30
93.867328
 70
   192
  0
VERTEX
  8
coffeePot
 10
12.741356
 20
127.326451
 30
108.074323
 70
   192
  0
VERTEX
  8
coffeePot
 10
11.070047
 20
132.281241
 30
93.867328
 70
   192
  0
VERTEX
  8
coffeePot
 10
-14.692246
 20
236.638287
 30
80.359685
 70
   192
  0
VERTEX
  8
coffeePot
 10
0.0
 20
0.0
 30
0.0
 70
   128
 71
   107
 72
   96
 73
   85
  0
VERTEX
  8
coffeePot
 10
0.0
 20
0.0
 30
0.0
 70
   128
 71
   14
 72
   15
 73
   3
  0
VERTEX
  8
coffeePot
 10
0.0
 20
0.0
 30
0.0
 70
   128
 71
   15
 72
   16
 73
   4
  0
VERTEX
  8
coffeePot
 10
0.0
 20
0.0
 30
0.0
 70
   128
 71
   16
 72
   17
 73
   5
  0
VERTEX
  8
coffeePot
 10
0.0
 20
0.0
 30
0.0
 70
   128
 71
   17
 72
   18
 73
   6
  0
VERTEX
  8
coffeePot
 10
0.0
 20
0.0
 30
0.0
 70
   128
 71
   18
 72
   19
 73
   7
  0
VERTEX
  8
coffeePot
 10
0.0
 20
0.0
 30
0.0
 70
   128
 71
   19
 72
   20
 73
   8
  0
VERTEX
  8
coffeePot
 10
0.0
 20
0.0
 30
0.0
 70
   128
 71
   20
 72
   21
 73
   9
  0
VERTEX
  8
coffeePot
 10
0.0
 20
0.0
 30
0.0
 70
   128
 71
   21
 72
   22
 73
   10
  0
VERTEX
  8
coffeePot
 10
0.0
 20
0.0
 30
0.0
 70
   128
 71
   22
 72
   23
 73
   11
  0
VERTEX
  8
coffeePot
 10
0.0
 20
0.0
 30
0.0
 70
   128
 71
   23
 72
   24
 73
   12
  0
VERTEX
  8
coffeePot
 10
0.0
 20
0.0
 30
0.0
 70
   128
 71
   85
 72
   74
 73
   62
  0
VERTEX
  8
coffeePot
 10
0.0
 20
0.0
 30
0.0
 70
   128
 71
   26
 72
   27
 73
   15
  0
VERTEX
  8
coffeePot
 10
0.0
 20
0.0
 30
0.0
 70
   128
 71
   27
 72
   28
 73
   16
  0
VERTEX
  8
coffeePot
 10
0.0
 20
0.0
 30
0.0
 70
   128
 71
   28
 72
   29
 73
   17
  0
VERTEX
  8
coffeePot
 10
0.0
 20
0.0
 30
0.0
 70
   128
 71
   29
 72
   30
 73
   18
  0
VERTEX
  8
coffeePot
 10
0.0
 20
0.0
 30
0.0
 70
   128
 71
   30
 72
   31
 73
   19
  0
VERTEX
  8
coffeePot
 10
0.0
 20
0.0
 30
0.0
 70
   128
 71
   31
 72
   32
 73
   20
  0
VERTEX
  8
coffeePot
 10
0.0
 20
0.0
 30
0.0
 70
   128
 71
   32
 72
   33
 73
   21
  0
VERTEX
  8
coffeePot
 10
0.0
 20
0.0
 30
0.0
 70
   128
 71
   33
 72
   34
 73
   22
  0
VERTEX
  8
coffeePot
 10
0.0
 20
0.0
 30
0.0
 70
   128
 71
   34
 72
   35
 73
   23
  0
VERTEX
  8
coffeePot
 10
0.0
 20
0.0
 30
0.0
 70
   128
 71
   35
 72
   36
 73
   24
  0
VERTEX
  8
coffeePot
 10
0.0
 20
0.0
 30
0.0
 70
   128
 71
   85
 72
   50
 73
   26
  0
VERTEX
  8
coffeePot
 10
0.0
 20
0.0
 30
0.0
 70
   128
 71
   38
 72
   39
 73
   27
  0
VERTEX
  8
coffeePot
 10
0.0
 20
0.0
 30
0.0
 70
   128
 71
   39
 72
   40
 73
   28
  0
VERTEX
  8
coffeePot
 10
0.0
 20
0.0
 30
0.0
 70
   128
 71
   40
 72
   41
 73
   29
  0
VERTEX
  8
coffeePot
 10
0.0
 20
0.0
 30
0.0
 70
   128
 71
   41
 72
   42
 73
   30
  0
VERTEX
  8
coffeePot
 10
0.0
 20
0.0
 30
0.0
 70
   128
 71
   42
 72
   43
 73
   31
  0
VERTEX
  8
coffeePot
 10
0.0
 20
0.0
 30
0.0
 70
   128
 71
   43
 72
   44
 73
   32
  0
VERTEX
  8
coffeePot
 10
0.0
 20
0.0
 30
0.0
 70
   128
 71
   44
 72
   45
 73
   33
  0
VERTEX
  8
coffeePot
 10
0.0
 20
0.0
 30
0.0
 70
   128
 71
   45
 72
   46
 73
   34
  0
VERTEX
  8
coffeePot
 10
0.0
 20
0.0
 30
0.0
 70
   128
 71
   46
 72
   47
 73
   35
  0
VERTEX
  8
coffeePot
 10
0.0
 20
0.0
 30
0.0
 70
   128
 71
   47
 72
   48
 73
   36
  0
VERTEX
  8
coffeePot
 10
0.0
 20
0.0
 30
0.0
 70
   128
 71
   50
 72
   38
 73
   26
  0
VERTEX
  8
coffeePot
 10
0.0
 20
0.0
 30
0.0
 70
   128
 71
   50
 72
   51
 73
   39
  0
VERTEX
  8
coffeePot
 10
0.0
 20
0.0
 30
0.0
 70
   128
 71
   51
 72
   52
 73
   40
  0
VERTEX
  8
coffeePot
 10
0.0
 20
0.0
 30
0.0
 70
   128
 71
   52
 72
   53
 73
   41
  0
VERTEX
  8
coffeePot
 10
0.0
 20
0.0
 30
0.0
 70
   128
 71
   53
 72
   54
 73
   42
  0
VERTEX
  8
coffeePot
 10
0.0
 20
0.0
 30
0.0
 70
   128
 71
   54
 72
   55
 73
   43
  0
VERTEX
  8
coffeePot
 10
0.0
 20
0.0
 30
0.0
 70
   128
 71
   55
 72
   56
 73
   44
  0
VERTEX
  8
coffeePot
 10
0.0
 20
0.0
 30
0.0
 70
   128
 71
   56
 72
   57
 73
   45
  0
VERTEX
  8
coffeePot
 10
0.0
 20
0.0
 30
0.0
 70
   128
 71
   57
 72
   58
 73
   46
  0
VERTEX
  8
coffeePot
 10
0.0
 20
0.0
 30
0.0
 70
   128
 71
   58
 72
   59
 73
   47
  0
VERTEX
  8
coffeePot
 10
0.0
 20
0.0
 30
0.0
 70
   128
 71
   59
 72
   60
 73
   48
  0
VERTEX
  8
coffeePot
 10
0.0
 20
0.0
 30
0.0
 70
   128
 71
   26
 72
   14
 73
   2
  0
VERTEX
  8
coffeePot
 10
0.0
 20
0.0
 30
0.0
 70
   128
 71
   62
 72
   63
 73
   51
  0
VERTEX
  8
coffeePot
 10
0.0
 20
0.0
 30
0.0
 70
   128
 71
   63
 72
   64
 73
   52
  0
VERTEX
  8
coffeePot
 10
0.0
 20
0.0
 30
0.0
 70
   128
 71
   64
 72
   65
 73
   53
  0
VERTEX
  8
coffeePot
 10
0.0
 20
0.0
 30
0.0
 70
   128
 71
   65
 72
   66
 73
   54
  0
VERTEX
  8
coffeePot
 10
0.0
 20
0.0
 30
0.0
 70
   128
 71
   66
 72
   67
 73
   55
  0
VERTEX
  8
coffeePot
 10
0.0
 20
0.0
 30
0.0
 70
   128
 71
   67
 72
   68
 73
   56
  0
VERTEX
  8
coffeePot
 10
0.0
 20
0.0
 30
0.0
 70
   128
 71
   68
 72
   69
 73
   57
  0
VERTEX
  8
coffeePot
 10
0.0
 20
0.0
 30
0.0
 70
   128
 71
   69
 72
   70
 73
   58
  0
VERTEX
  8
coffeePot
 10
0.0
 20
0.0
 30
0.0
 70
   128
 71
   70
 72
   71
 73
   59
  0
VERTEX
  8
coffeePot
 10
0.0
 20
0.0
 30
0.0
 70
   128
 71
   71
 72
   72
 73
   60
  0
VERTEX
  8
coffeePot
 10
0.0
 20
0.0
 30
0.0
 70
   128
 71
   95
 72
   106
 73
   117
  0
VERTEX
  8
coffeePot
 10
0.0
 20
0.0
 30
0.0
 70
   128
 71
   74
 72
   75
 73
   63
  0
VERTEX
  8
coffeePot
 10
0.0
 20
0.0
 30
0.0
 70
   128
 71
   75
 72
   76
 73
   64
  0
VERTEX
  8
coffeePot
 10
0.0
 20
0.0
 30
0.0
 70
   128
 71
   76
 72
   77
 73
   65
  0
VERTEX
  8
coffeePot
 10
0.0
 20
0.0
 30
0.0
 70
   128
 71
   77
 72
   78
 73
   66
  0
VERTEX
  8
coffeePot
 10
0.0
 20
0.0
 30
0.0
 70
   128
 71
   78
 72
   79
 73
   67
  0
VERTEX
  8
coffeePot
 10
0.0
 20
0.0
 30
0.0
 70
   128
 71
   79
 72
   80
 73
   68
  0
VERTEX
  8
coffeePot
 10
0.0
 20
0.0
 30
0.0
 70
   128
 71
   80
 72
   81
 73
   69
  0
VERTEX
  8
coffeePot
 10
0.0
 20
0.0
 30
0.0
 70
   128
 71
   81
 72
   82
 73
   70
  0
VERTEX
  8
coffeePot
 10
0.0
 20
0.0
 30
0.0
 70
   128
 71
   82
 72
   83
 73
   71
  0
VERTEX
  8
coffeePot
 10
0.0
 20
0.0
 30
0.0
 70
   128
 71
   83
 72
   84
 73
   72
  0
VERTEX
  8
coffeePot
 10
0.0
 20
0.0
 30
0.0
 70
   128
 71
   60
 72
   72
 73
   84
  0
VERTEX
  8
coffeePot
 10
0.0
 20
0.0
 30
0.0
 70
   128
 71
   85
 72
   86
 73
   75
  0
VERTEX
  8
coffeePot
 10
0.0
 20
0.0
 30
0.0
 70
   128
 71
   86
 72
   87
 73
   76
  0
VERTEX
  8
coffeePot
 10
0.0
 20
0.0
 30
0.0
 70
   128
 71
   87
 72
   88
 73
   77
  0
VERTEX
  8
coffeePot
 10
0.0
 20
0.0
 30
0.0
 70
   128
 71
   88
 72
   89
 73
   78
  0
VERTEX
  8
coffeePot
 10
0.0
 20
0.0
 30
0.0
 70
   128
 71
   89
 72
   90
 73
   79
  0
VERTEX
  8
coffeePot
 10
0.0
 20
0.0
 30
0.0
 70
   128
 71
   90
 72
   91
 73
   80
  0
VERTEX
  8
coffeePot
 10
0.0
 20
0.0
 30
0.0
 70
   128
 71
   91
 72
   92
 73
   81
  0
VERTEX
  8
coffeePot
 10
0.0
 20
0.0
 30
0.0
 70
   128
 71
   92
 72
   93
 73
   82
  0
VERTEX
  8
coffeePot
 10
0.0
 20
0.0
 30
0.0
 70
   128
 71
   93
 72
   94
 73
   83
  0
VERTEX
  8
coffeePot
 10
0.0
 20
0.0
 30
0.0
 70
   128
 71
   94
 72
   95
 73
   84
  0
VERTEX
  8
coffeePot
 10
0.0
 20
0.0
 30
0.0
 70
   128
 71
   12
 72
   24
 73
   36
  0
VERTEX
  8
coffeePot
 10
0.0
 20
0.0
 30
0.0
 70
   128
 71
   96
 72
   97
 73
   86
  0
VERTEX
  8
coffeePot
 10
0.0
 20
0.0
 30
0.0
 70
   128
 71
   97
 72
   98
 73
   87
  0
VERTEX
  8
coffeePot
 10
0.0
 20
0.0
 30
0.0
 70
   128
 71
   98
 72
   99
 73
   88
  0
VERTEX
  8
coffeePot
 10
0.0
 20
0.0
 30
0.0
 70
   128
 71
   99
 72
   100
 73
   89
  0
VERTEX
  8
coffeePot
 10
0.0
 20
0.0
 30
0.0
 70
   128
 71
   124
 72
   125
 73
   123
  0
VERTEX
  8
coffeePot
 10
0.0
 20
0.0
 30
0.0
 70
   128
 71
   101
 72
   102
 73
   91
  0
VERTEX
  8
coffeePot
 10
0.0
 20
0.0
 30
0.0
 70
   128
 71
   102
 72
   103
 73
   92
  0
VERTEX
  8
coffeePot
 10
0.0
 20
0.0
 30
0.0
 70
   128
 71
   103
 72
   104
 73
   93
  0
VERTEX
  8
coffeePot
 10
0.0
 20
0.0
 30
0.0
 70
   128
 71
   104
 72
   105
 73
   94
  0
VERTEX
  8
coffeePot
 10
0.0
 20
0.0
 30
0.0
 70
   128
 71
   105
 72
   106
 73
   95
  0
VERTEX
  8
coffeePot
 10
0.0
 20
0.0
 30
0.0
 70
   128
 71
   95
 72
   12
 73
   36
  0
VERTEX
  8
coffeePot
 10
0.0
 20
0.0
 30
0.0
 70
   128
 71
   107
 72
   108
 73
   97
  0
VERTEX
  8
coffeePot
 10
0.0
 20
0.0
 30
0.0
 70
   128
 71
   108
 72
   109
 73
   98
  0
VERTEX
  8
coffeePot
 10
0.0
 20
0.0
 30
0.0
 70
   128
 71
   109
 72
   110
 73
   99
  0
VERTEX
  8
coffeePot
 10
0.0
 20
0.0
 30
0.0
 70
   128
 71
   110
 72
   111
 73
   100
  0
VERTEX
  8
coffeePot
 10
0.0
 20
0.0
 30
0.0
 70
   128
 71
   111
 72
   112
 73
   101
  0
VERTEX
  8
coffeePot
 10
0.0
 20
0.0
 30
0.0
 70
   128
 71
   112
 72
   113
 73
   102
  0
VERTEX
  8
coffeePot
 10
0.0
 20
0.0
 30
0.0
 70
   128
 71
   113
 72
   114
 73
   103
  0
VERTEX
  8
coffeePot
 10
0.0
 20
0.0
 30
0.0
 70
   128
 71
   114
 72
   115
 73
   104
  0
VERTEX
  8
coffeePot
 10
0.0
 20
0.0
 30
0.0
 70
   128
 71
   115
 72
   116
 73
   105
  0
VERTEX
  8
coffeePot
 10
0.0
 20
0.0
 30
0.0
 70
   128
 71
   116
 72
   117
 73
   106
  0
VERTEX
  8
coffeePot
 10
0.0
 20
0.0
 30
0.0
 70
   128
 71
   36
 72
   48
 73
   60
  0
VERTEX
  8
coffeePot
 10
0.0
 20
0.0
 30
0.0
 70
   128
 71
   2
 72
   3
 73
   108
  0
VERTEX
  8
coffeePot
 10
0.0
 20
0.0
 30
0.0
 70
   128
 71
   3
 72
   4
 73
   109
  0
VERTEX
  8
coffeePot
 10
0.0
 20
0.0
 30
0.0
 70
   128
 71
   4
 72
   5
 73
   110
  0
VERTEX
  8
coffeePot
 10
0.0
 20
0.0
 30
0.0
 70
   128
 71
   5
 72
   6
 73
   111
  0
VERTEX
  8
coffeePot
 10
0.0
 20
0.0
 30
0.0
 70
   128
 71
   6
 72
   7
 73
   112
  0
VERTEX
  8
coffeePot
 10
0.0
 20
0.0
 30
0.0
 70
   128
 71
   7
 72
   8
 73
   113
  0
VERTEX
  8
coffeePot
 10
0.0
 20
0.0
 30
0.0
 70
   128
 71
   8
 72
   9
 73
   114
  0
VERTEX
  8
coffeePot
 10
0.0
 20
0.0
 30
0.0
 70
   128
 71
   9
 72
   10
 73
   115
  0
VERTEX
  8
coffeePot
 10
0.0
 20
0.0
 30
0.0
 70
   128
 71
   10
 72
   11
 73
   116
  0
VERTEX
  8
coffeePot
 10
0.0
 20
0.0
 30
0.0
 70
   128
 71
   11
 72
   12
 73
   117
  0
VERTEX
  8
coffeePot
 10
0.0
 20
0.0
 30
0.0
 70
   128
 71
   120
 72
   124
 73
   122
  0
VERTEX
  8
coffeePot
 10
0.0
 20
0.0
 30
0.0
 70
   128
 71
   89
 72
   126
 73
   1
  0
VERTEX
  8
coffeePot
 10
0.0
 20
0.0
 30
0.0
 70
   128
 71
   90
 72
   1
 73
   25
  0
VERTEX
  8
coffeePot
 10
0.0
 20
0.0
 30
0.0
 70
   128
 71
   121
 72
   125
 73
   124
  0
VERTEX
  8
coffeePot
 10
0.0
 20
0.0
 30
0.0
 70
   128
 71
   126
 72
   89
 73
   100
  0
VERTEX
  8
coffeePot
 10
0.0
 20
0.0
 30
0.0
 70
   128
 71
   126
 72
   37
 73
   49
  0
VERTEX
  8
coffeePot
 10
0.0
 20
0.0
 30
0.0
 70
   128
 71
   1
 72
   49
 73
   73
  0
VERTEX
  8
coffeePot
 10
0.0
 20
0.0
 30
0.0
 70
   128
 71
   13
 72
   100
 73
   101
  0
VERTEX
  8
coffeePot
 10
0.0
 20
0.0
 30
0.0
 70
   128
 71
   37
 72
   126
 73
   13
  0
VERTEX
  8
coffeePot
 10
0.0
 20
0.0
 30
0.0
 70
   128
 71
   61
 72
   13
 73
   25
  0
VERTEX
  8
coffeePot
 10
0.0
 20
0.0
 30
0.0
 70
   128
 71
   37
 72
   118
 73
   119
  0
VERTEX
  8
coffeePot
 10
0.0
 20
0.0
 30
0.0
 70
   128
 71
   49
 72
   119
 73
   121
  0
VERTEX
  8
coffeePot
 10
0.0
 20
0.0
 30
0.0
 70
   128
 71
   118
 72
   37
 73
   61
  0
VERTEX
  8
coffeePot
 10
0.0
 20
0.0
 30
0.0
 70
   128
 71
   120
 72
   61
 73
   73
  0
VERTEX
  8
coffeePot
 10
0.0
 20
0.0
 30
0.0
 70
   128
 71
   118
 72
   122
 73
   123
  0
VERTEX
  8
coffeePot
 10
0.0
 20
0.0
 30
0.0
 70
   128
 71
   119
 72
   123
 73
   125
  0
VERTEX
  8
coffeePot
 10
0.0
 20
0.0
 30
0.0
 70
   128
 71
   107
 72
   85
 73
   2
  0
VERTEX
  8
coffeePot
 10
0.0
 20
0.0
 30
0.0
 70
   128
 71
   14
 72
   3
 73
   2
  0
VERTEX
  8
coffeePot
 10
0.0
 20
0.0
 30
0.0
 70
   128
 71
   15
 72
   4
 73
   3
  0
VERTEX
  8
coffeePot
 10
0.0
 20
0.0
 30
0.0
 70
   128
 71
   16
 72
   5
 73
   4
  0
VERTEX
  8
coffeePot
 10
0.0
 20
0.0
 30
0.0
 70
   128
 71
   17
 72
   6
 73
   5
  0
VERTEX
  8
coffeePot
 10
0.0
 20
0.0
 30
0.0
 70
   128
 71
   18
 72
   7
 73
   6
  0
VERTEX
  8
coffeePot
 10
0.0
 20
0.0
 30
0.0
 70
   128
 71
   19
 72
   8
 73
   7
  0
VERTEX
  8
coffeePot
 10
0.0
 20
0.0
 30
0.0
 70
   128
 71
   20
 72
   9
 73
   8
  0
VERTEX
  8
coffeePot
 10
0.0
 20
0.0
 30
0.0
 70
   128
 71
   21
 72
   10
 73
   9
  0
VERTEX
  8
coffeePot
 10
0.0
 20
0.0
 30
0.0
 70
   128
 71
   22
 72
   11
 73
   10
  0
VERTEX
  8
coffeePot
 10
0.0
 20
0.0
 30
0.0
 70
   128
 71
   23
 72
   12
 73
   11
  0
VERTEX
  8
coffeePot
 10
0.0
 20
0.0
 30
0.0
 70
   128
 71
   85
 72
   62
 73
   50
  0
VERTEX
  8
coffeePot
 10
0.0
 20
0.0
 30
0.0
 70
   128
 71
   26
 72
   15
 73
   14
  0
VERTEX
  8
coffeePot
 10
0.0
 20
0.0
 30
0.0
 70
   128
 71
   27
 72
   16
 73
   15
  0
VERTEX
  8
coffeePot
 10
0.0
 20
0.0
 30
0.0
 70
   128
 71
   28
 72
   17
 73
   16
  0
VERTEX
  8
coffeePot
 10
0.0
 20
0.0
 30
0.0
 70
   128
 71
   29
 72
   18
 73
   17
  0
VERTEX
  8
coffeePot
 10
0.0
 20
0.0
 30
0.0
 70
   128
 71
   30
 72
   19
 73
   18
  0
VERTEX
  8
coffeePot
 10
0.0
 20
0.0
 30
0.0
 70
   128
 71
   31
 72
   20
 73
   19
  0
VERTEX
  8
coffeePot
 10
0.0
 20
0.0
 30
0.0
 70
   128
 71
   32
 72
   21
 73
   20
  0
VERTEX
  8
coffeePot
 10
0.0
 20
0.0
 30
0.0
 70
   128
 71
   33
 72
   22
 73
   21
  0
VERTEX
  8
coffeePot
 10
0.0
 20
0.0
 30
0.0
 70
   128
 71
   34
 72
   23
 73
   22
  0
VERTEX
  8
coffeePot
 10
0.0
 20
0.0
 30
0.0
 70
   128
 71
   35
 72
   24
 73
   23
  0
VERTEX
  8
coffeePot
 10
0.0
 20
0.0
 30
0.0
 70
   128
 71
   85
 72
   26
 73
   2
  0
VERTEX
  8
coffeePot
 10
0.0
 20
0.0
 30
0.0
 70
   128
 71
   38
 72
   27
 73
   26
  0
VERTEX
  8
coffeePot
 10
0.0
 20
0.0
 30
0.0
 70
   128
 71
   39
 72
   28
 73
   27
  0
VERTEX
  8
coffeePot
 10
0.0
 20
0.0
 30
0.0
 70
   128
 71
   40
 72
   29
 73
   28
  0
VERTEX
  8
coffeePot
 10
0.0
 20
0.0
 30
0.0
 70
   128
 71
   41
 72
   30
 73
   29
  0
VERTEX
  8
coffeePot
 10
0.0
 20
0.0
 30
0.0
 70
   128
 71
   42
 72
   31
 73
   30
  0
VERTEX
  8
coffeePot
 10
0.0
 20
0.0
 30
0.0
 70
   128
 71
   43
 72
   32
 73
   31
  0
VERTEX
  8
coffeePot
 10
0.0
 20
0.0
 30
0.0
 70
   128
 71
   44
 72
   33
 73
   32
  0
VERTEX
  8
coffeePot
 10
0.0
 20
0.0
 30
0.0
 70
   128
 71
   45
 72
   34
 73
   33
  0
VERTEX
  8
coffeePot
 10
0.0
 20
0.0
 30
0.0
 70
   128
 71
   46
 72
   35
 73
   34
  0
VERTEX
  8
coffeePot
 10
0.0
 20
0.0
 30
0.0
 70
   128
 71
   47
 72
   36
 73
   35
  0
VERTEX
  8
coffeePot
 10
0.0
 20
0.0
 30
0.0
 70
   128
 71
   50
 72
   39
 73
   38
  0
VERTEX
  8
coffeePot
 10
0.0
 20
0.0
 30
0.0
 70
   128
 71
   51
 72
   40
 73
   39
  0
VERTEX
  8
coffeePot
 10
0.0
 20
0.0
 30
0.0
 70
   128
 71
   52
 72
   41
 73
   40
  0
VERTEX
  8
coffeePot
 10
0.0
 20
0.0
 30
0.0
 70
   128
 71
   53
 72
   42
 73
   41
  0
VERTEX
  8
coffeePot
 10
0.0
 20
0.0
 30
0.0
 70
   128
 71
   54
 72
   43
 73
   42
  0
VERTEX
  8
coffeePot
 10
0.0
 20
0.0
 30
0.0
 70
   128
 71
   55
 72
   44
 73
   43
  0
VERTEX
  8
coffeePot
 10
0.0
 20
0.0
 30
0.0
 70
   128
 71
   56
 72
   45
 73
   44
  0
VERTEX
  8
coffeePot
 10
0.0
 20
0.0
 30
0.0
 70
   128
 71
   57
 72
   46
 73
   45
  0
VERTEX
  8
coffeePot
 10
0.0
 20
0.0
 30
0.0
 70
   128
 71
   58
 72
   47
 73
   46
  0
VERTEX
  8
coffeePot
 10
0.0
 20
0.0
 30
0.0
 70
   128
 71
   59
 72
   48
 73
   47
  0
VERTEX
  8
coffeePot
 10
0.0
 20
0.0
 30
0.0
 70
   128
 71
   62
 72
   51
 73
   50
  0
VERTEX
  8
coffeePot
 10
0.0
 20
0.0
 30
0.0
 70
   128
 71
   63
 72
   52
 73
   51
  0
VERTEX
  8
coffeePot
 10
0.0
 20
0.0
 30
0.0
 70
   128
 71
   64
 72
   53
 73
   52
  0
VERTEX
  8
coffeePot
 10
0.0
 20
0.0
 30
0.0
 70
   128
 71
   65
 72
   54
 73
   53
  0
VERTEX
  8
coffeePot
 10
0.0
 20
0.0
 30
0.0
 70
   128
 71
   66
 72
   55
 73
   54
  0
VERTEX
  8
coffeePot
 10
0.0
 20
0.0
 30
0.0
 70
   128
 71
   67
 72
   56
 73
   55
  0
VERTEX
  8
coffeePot
 10
0.0
 20
0.0
 30
0.0
 70
   128
 71
   68
 72
   57
 73
   56
  0
VERTEX
  8
coffeePot
 10
0.0
 20
0.0
 30
0.0
 70
   128
 71
   69
 72
   58
 73
   57
  0
VERTEX
  8
coffeePot
 10
0.0
 20
0.0
 30
0.0
 70
   128
 71
   70
 72
   59
 73
   58
  0
VERTEX
  8
coffeePot
 10
0.0
 20
0.0
 30
0.0
 70
   128
 71
   71
 72
   60
 73
   59
  0
VERTEX
  8
coffeePot
 10
0.0
 20
0.0
 30
0.0
 70
   128
 71
   95
 72
   117
 73
   12
  0
VERTEX
  8
coffeePot
 10
0.0
 20
0.0
 30
0.0
 70
   128
 71
   74
 72
   63
 73
   62
  0
VERTEX
  8
coffeePot
 10
0.0
 20
0.0
 30
0.0
 70
   128
 71
   75
 72
   64
 73
   63
  0
VERTEX
  8
coffeePot
 10
0.0
 20
0.0
 30
0.0
 70
   128
 71
   76
 72
   65
 73
   64
  0
VERTEX
  8
coffeePot
 10
0.0
 20
0.0
 30
0.0
 70
   128
 71
   77
 72
   66
 73
   65
  0
VERTEX
  8
coffeePot
 10
0.0
 20
0.0
 30
0.0
 70
   128
 71
   78
 72
   67
 73
   66
  0
VERTEX
  8
coffeePot
 10
0.0
 20
0.0
 30
0.0
 70
   128
 71
   79
 72
   68
 73
   67
  0
VERTEX
  8
coffeePot
 10
0.0
 20
0.0
 30
0.0
 70
   128
 71
   80
 72
   69
 73
   68
  0
VERTEX
  8
coffeePot
 10
0.0
 20
0.0
 30
0.0
 70
   128
 71
   81
 72
   70
 73
   69
  0
VERTEX
  8
coffeePot
 10
0.0
 20
0.0
 30
0.0
 70
   128
 71
   82
 72
   71
 73
   70
  0
VERTEX
  8
coffeePot
 10
0.0
 20
0.0
 30
0.0
 70
   128
 71
   83
 72
   72
 73
   71
  0
VERTEX
  8
coffeePot
 10
0.0
 20
0.0
 30
0.0
 70
   128
 71
   60
 72
   84
 73
   95
  0
VERTEX
  8
coffeePot
 10
0.0
 20
0.0
 30
0.0
 70
   128
 71
   85
 72
   75
 73
   74
  0
VERTEX
  8
coffeePot
 10
0.0
 20
0.0
 30
0.0
 70
   128
 71
   86
 72
   76
 73
   75
  0
VERTEX
  8
coffeePot
 10
0.0
 20
0.0
 30
0.0
 70
   128
 71
   87
 72
   77
 73
   76
  0
VERTEX
  8
coffeePot
 10
0.0
 20
0.0
 30
0.0
 70
   128
 71
   88
 72
   78
 73
   77
  0
VERTEX
  8
coffeePot
 10
0.0
 20
0.0
 30
0.0
 70
   128
 71
   89
 72
   79
 73
   78
  0
VERTEX
  8
coffeePot
 10
0.0
 20
0.0
 30
0.0
 70
   128
 71
   90
 72
   80
 73
   79
  0
VERTEX
  8
coffeePot
 10
0.0
 20
0.0
 30
0.0
 70
   128
 71
   91
 72
   81
 73
   80
  0
VERTEX
  8
coffeePot
 10
0.0
 20
0.0
 30
0.0
 70
   128
 71
   92
 72
   82
 73
   81
  0
VERTEX
  8
coffeePot
 10
0.0
 20
0.0
 30
0.0
 70
   128
 71
   93
 72
   83
 73
   82
  0
VERTEX
  8
coffeePot
 10
0.0
 20
0.0
 30
0.0
 70
   128
 71
   94
 72
   84
 73
   83
  0
VERTEX
  8
coffeePot
 10
0.0
 20
0.0
 30
0.0
 70
   128
 71
   96
 72
   86
 73
   85
  0
VERTEX
  8
coffeePot
 10
0.0
 20
0.0
 30
0.0
 70
   128
 71
   97
 72
   87
 73
   86
  0
VERTEX
  8
coffeePot
 10
0.0
 20
0.0
 30
0.0
 70
   128
 71
   98
 72
   88
 73
   87
  0
VERTEX
  8
coffeePot
 10
0.0
 20
0.0
 30
0.0
 70
   128
 71
   99
 72
   89
 73
   88
  0
VERTEX
  8
coffeePot
 10
0.0
 20
0.0
 30
0.0
 70
   128
 71
   124
 72
   123
 73
   122
  0
VERTEX
  8
coffeePot
 10
0.0
 20
0.0
 30
0.0
 70
   128
 71
   101
 72
   91
 73
   90
  0
VERTEX
  8
coffeePot
 10
0.0
 20
0.0
 30
0.0
 70
   128
 71
   102
 72
   92
 73
   91
  0
VERTEX
  8
coffeePot
 10
0.0
 20
0.0
 30
0.0
 70
   128
 71
   103
 72
   93
 73
   92
  0
VERTEX
  8
coffeePot
 10
0.0
 20
0.0
 30
0.0
 70
   128
 71
   104
 72
   94
 73
   93
  0
VERTEX
  8
coffeePot
 10
0.0
 20
0.0
 30
0.0
 70
   128
 71
   105
 72
   95
 73
   94
  0
VERTEX
  8
coffeePot
 10
0.0
 20
0.0
 30
0.0
 70
   128
 71
   95
 72
   36
 73
   60
  0
VERTEX
  8
coffeePot
 10
0.0
 20
0.0
 30
0.0
 70
   128
 71
   107
 72
   97
 73
   96
  0
VERTEX
  8
coffeePot
 10
0.0
 20
0.0
 30
0.0
 70
   128
 71
   108
 72
   98
 73
   97
  0
VERTEX
  8
coffeePot
 10
0.0
 20
0.0
 30
0.0
 70
   128
 71
   109
 72
   99
 73
   98
  0
VERTEX
  8
coffeePot
 10
0.0
 20
0.0
 30
0.0
 70
   128
 71
   110
 72
   100
 73
   99
  0
VERTEX
  8
coffeePot
 10
0.0
 20
0.0
 30
0.0
 70
   128
 71
   111
 72
   101
 73
   100
  0
VERTEX
  8
coffeePot
 10
0.0
 20
0.0
 30
0.0
 70
   128
 71
   112
 72
   102
 73
   101
  0
VERTEX
  8
coffeePot
 10
0.0
 20
0.0
 30
0.0
 70
   128
 71
   113
 72
   103
 73
   102
  0
VERTEX
  8
coffeePot
 10
0.0
 20
0.0
 30
0.0
 70
   128
 71
   114
 72
   104
 73
   103
  0
VERTEX
  8
coffeePot
 10
0.0
 20
0.0
 30
0.0
 70
   128
 71
   115
 72
   105
 73
   104
  0
VERTEX
  8
coffeePot
 10
0.0
 20
0.0
 30
0.0
 70
   128
 71
   116
 72
   106
 73
   105
  0
VERTEX
  8
coffeePot
 10
0.0
 20
0.0
 30
0.0
 70
   128
 71
   2
 72
   108
 73
   107
  0
VERTEX
  8
coffeePot
 10
0.0
 20
0.0
 30
0.0
 70
   128
 71
   3
 72
   109
 73
   108
  0
VERTEX
  8
coffeePot
 10
0.0
 20
0.0
 30
0.0
 70
   128
 71
   4
 72
   110
 73
   109
  0
VERTEX
  8
coffeePot
 10
0.0
 20
0.0
 30
0.0
 70
   128
 71
   5
 72
   111
 73
   110
  0
VERTEX
  8
coffeePot
 10
0.0
 20
0.0
 30
0.0
 70
   128
 71
   6
 72
   112
 73
   111
  0
VERTEX
  8
coffeePot
 10
0.0
 20
0.0
 30
0.0
 70
   128
 71
   7
 72
   113
 73
   112
  0
VERTEX
  8
coffeePot
 10
0.0
 20
0.0
 30
0.0
 70
   128
 71
   8
 72
   114
 73
   113
  0
VERTEX
  8
coffeePot
 10
0.0
 20
0.0
 30
0.0
 70
   128
 71
   9
 72
   115
 73
   114
  0
VERTEX
  8
coffeePot
 10
0.0
 20
0.0
 30
0.0
 70
   128
 71
   10
 72
   116
 73
   115
  0
VERTEX
  8
coffeePot
 10
0.0
 20
0.0
 30
0.0
 70
   128
 71
   11
 72
   117
 73
   116
  0
VERTEX
  8
coffeePot
 10
0.0
 20
0.0
 30
0.0
 70
   128
 71
   120
 72
   122
 73
   118
  0
VERTEX
  8
coffeePot
 10
0.0
 20
0.0
 30
0.0
 70
   128
 71
   89
 72
   1
 73
   90
  0
VERTEX
  8
coffeePot
 10
0.0
 20
0.0
 30
0.0
 70
   128
 71
   90
 72
   25
 73
   101
  0
VERTEX
  8
coffeePot
 10
0.0
 20
0.0
 30
0.0
 70
   128
 71
   121
 72
   124
 73
   120
  0
VERTEX
  8
coffeePot
 10
0.0
 20
0.0
 30
0.0
 70
   128
 71
   126
 72
   100
 73
   13
  0
VERTEX
  8
coffeePot
 10
0.0
 20
0.0
 30
0.0
 70
   128
 71
   126
 72
   49
 73
   1
  0
VERTEX
  8
coffeePot
 10
0.0
 20
0.0
 30
0.0
 70
   128
 71
   1
 72
   73
 73
   25
  0
VERTEX
  8
coffeePot
 10
0.0
 20
0.0
 30
0.0
 70
   128
 71
   13
 72
   101
 73
   25
  0
VERTEX
  8
coffeePot
 10
0.0
 20
0.0
 30
0.0
 70
   128
 71
   37
 72
   13
 73
   61
  0
VERTEX
  8
coffeePot
 10
0.0
 20
0.0
 30
0.0
 70
   128
 71
   61
 72
   25
 73
   73
  0
VERTEX
  8
coffeePot
 10
0.0
 20
0.0
 30
0.0
 70
   128
 71
   37
 72
   119
 73
   49
  0
VERTEX
  8
coffeePot
 10
0.0
 20
0.0
 30
0.0
 70
   128
 71
   49
 72
   121
 73
   73
  0
VERTEX
  8
coffeePot
 10
0.0
 20
0.0
 30
0.0
 70
   128
 71
   118
 72
   61
 73
   120
  0
VERTEX
  8
coffeePot
 10
0.0
 20
0.0
 30
0.0
 70
   128
 71
   120
 72
   73
 73
   121
  0
VERTEX
  8
coffeePot
 10
0.0
 20
0.0
 30
0.0
 70
   128
 71
   118
 72
   123
 73
   119
  0
VERTEX
  8
coffeePot
 10
0.0
 20
0.0
 30
0.0
 70
   128
 71
   119
 72
   125
 73
   121
  0
SEQEND
  0
POLYLINE
  8
coffeePotLid
 66
   1
 10
0.0
 20
0.0
 30
0.0
 70
   64
 71
   40
 72
   76
  0
VERTEX
  8
coffeePotLid
 10
50.819544
 20
231.772685
 30
0.000000
 70
   192
  0
VERTEX
  8
coffeePotLid
 10
41.113875
 20
231.772685
 30
-29.870979
 70
   192
  0
VERTEX
  8
coffeePotLid
 10
15.704103
 20
231.772685
 30
-48.332259
 70
   192
  0
VERTEX
  8
coffeePotLid
 10
-15.704103
 20
231.772685
 30
-48.332259
 70
   192
  0
VERTEX
  8
coffeePotLid
 10
-41.113875
 20
231.772685
 30
-29.870979
 70
   192
  0
VERTEX
  8
coffeePotLid
 10
-50.819544
 20
231.772685
 30
-0.000000
 70
   192
  0
VERTEX
  8
coffeePotLid
 10
-41.113875
 20
231.772685
 30
29.870979
 70
   192
  0
VERTEX
  8
coffeePotLid
 10
-15.704103
 20
231.772685
 30
48.332259
 70
   192
  0
VERTEX
  8
coffeePotLid
 10
15.704103
 20
231.772685
 30
48.332259
 70
   192
  0
VERTEX
  8
coffeePotLid
 10
41.113875
 20
231.772685
 30
29.870979
 70
   192
  0
VERTEX
  8
coffeePotLid
 10
26.834531
 20
280.398860
 30
0.000000
 70
   192
  0
VERTEX
  8
coffeePotLid
 10
21.709591
 20
280.398860
 30
-15.772941
 70
   192
  0
VERTEX
  8
coffeePotLid
 10
8.292326
 20
280.398860
 30
-25.521155
 70
   192
  0
VERTEX
  8
coffeePotLid
 10
-8.292326
 20
280.398860
 30
-25.521155
 70
   192
  0
VERTEX
  8
coffeePotLid
 10
-21.709591
 20
280.398860
 30
-15.772941
 70
   192
  0
VERTEX
  8
coffeePotLid
 10
-26.834531
 20
280.398860
 30
0.000000
 70
   192
  0
VERTEX
  8
coffeePotLid
 10
-21.709591
 20
280.398860
 30
15.772941
 70
   192
  0
VERTEX
  8
coffeePotLid
 10
-8.292326
 20
280.398860
 30
25.521155
 70
   192
  0
VERTEX
  8
coffeePotLid
 10
8.292326
 20
280.398860
 30
25.521155
 70
   192
  0
VERTEX
  8
coffeePotLid
 10
21.709591
 20
280.398860
 30
15.772941
 70
   192
  0
VERTEX
  8
coffeePotLid
 10
19.684588
 20
285.950969
 30
0.000000
 70
   192
  0
VERTEX
  8
coffeePotLid
 10
15.925166
 20
285.950969
 30
-11.570310
 70
   192
  0
VERTEX
  8
coffeePotLid
 10
6.082872
 20
285.950969
 30
-18.721155
 70
   192
  0
VERTEX
  8
coffeePotLid
 10
-6.082872
 20
285.950969
 30
-18.721155
 70
   192
  0
VERTEX
  8
coffeePotLid
 10
-15.925166
 20
285.950969
 30
-11.570310
 70
   192
  0
VERTEX
  8
coffeePotLid
 10
-19.684588
 20
285.950969
 30
0.000000
 70
   192
  0
VERTEX
  8
coffeePotLid
 10
-15.925166
 20
285.950969
 30
11.570310
 70
   192
  0
VERTEX
  8
coffeePotLid
 10
-6.082872
 20
285.950969
 30
18.721155
 70
   192
  0
VERTEX
  8
coffeePotLid
 10
6.082872
 20
285.950969
 30
18.721155
 70
   192
  0
VERTEX
  8
coffeePotLid
 10
15.925166
 20
285.950969
 30
11.570310
 70
   192
  0
VERTEX
  8
coffeePotLid
 10
14.111838
 20
288.722988
 30
0.000000
 70
   192
  0
VERTEX
  8
coffeePotLid
 10
11.416717
 20
288.722988
 30
-8.294730
 70
   192
  0
VERTEX
  8
coffeePotLid
 10
4.360798
 20
288.722988
 30
-13.421155
 70
   192
  0
VERTEX
  8
coffeePotLid
 10
-4.360798
 20
288.722988
 30
-13.421155
 70
   192
  0
VERTEX
  8
coffeePotLid
 10
-11.416717
 20
288.722988
 30
-8.294730
 70
   192
  0
VERTEX
  8
coffeePotLid
 10
-14.111838
 20
288.722988
 30
0.000000
 70
   192
  0
VERTEX
  8
coffeePotLid
 10
-11.416717
 20
288.722988
 30
8.294730
 70
   192
  0
VERTEX
  8
coffeePotLid
 10
-4.360798
 20
288.722988
 30
13.421155
 70
   192
  0
VERTEX
  8
coffeePotLid
 10
4.360798
 20
288.722988
 30
13.421155
 70
   192
  0
VERTEX
  8
coffeePotLid
 10
11.416717
 20
288.722988
 30
8.294730
 70
   192
  0
VERTEX
  8
coffeePotLid
 10
0.0
 20
0.0
 30
0.0
 70
   128
 71
   40
 72
   39
 73
   38
  0
VERTEX
  8
coffeePotLid
 10
0.0
 20
0.0
 30
0.0
 70
   128
 71
   38
 72
   37
 73
   36
  0
VERTEX
  8
coffeePotLid
 10
0.0
 20
0.0
 30
0.0
 70
   128
 71
   38
 72
   35
 73
   33
  0
VERTEX
  8
coffeePotLid
 10
0.0
 20
0.0
 30
0.0
 70
   128
 71
   35
 72
   34
 73
   33
  0
VERTEX
  8
coffeePotLid
 10
0.0
 20
0.0
 30
0.0
 70
   128
 71
   33
 72
   32
 73
   31
  0
VERTEX
  8
coffeePotLid
 10
0.0
 20
0.0
 30
0.0
 70
   128
 71
   9
 72
   19
 73
   20
  0
VERTEX
  8
coffeePotLid
 10
0.0
 20
0.0
 30
0.0
 70
   128
 71
   10
 72
   20
 73
   11
  0
VERTEX
  8
coffeePotLid
 10
0.0
 20
0.0
 30
0.0
 70
   128
 71
   1
 72
   11
 73
   12
  0
VERTEX
  8
coffeePotLid
 10
0.0
 20
0.0
 30
0.0
 70
   128
 71
   2
 72
   12
 73
   13
  0
VERTEX
  8
coffeePotLid
 10
0.0
 20
0.0
 30
0.0
 70
   128
 71
   3
 72
   13
 73
   14
  0
VERTEX
  8
coffeePotLid
 10
0.0
 20
0.0
 30
0.0
 70
   128
 71
   4
 72
   14
 73
   15
  0
VERTEX
  8
coffeePotLid
 10
0.0
 20
0.0
 30
0.0
 70
   128
 71
   5
 72
   15
 73
   16
  0
VERTEX
  8
coffeePotLid
 10
0.0
 20
0.0
 30
0.0
 70
   128
 71
   6
 72
   16
 73
   17
  0
VERTEX
  8
coffeePotLid
 10
0.0
 20
0.0
 30
0.0
 70
   128
 71
   7
 72
   17
 73
   18
  0
VERTEX
  8
coffeePotLid
 10
0.0
 20
0.0
 30
0.0
 70
   128
 71
   8
 72
   18
 73
   19
  0
VERTEX
  8
coffeePotLid
 10
0.0
 20
0.0
 30
0.0
 70
   128
 71
   19
 72
   29
 73
   30
  0
VERTEX
  8
coffeePotLid
 10
0.0
 20
0.0
 30
0.0
 70
   128
 71
   20
 72
   30
 73
   21
  0
VERTEX
  8
coffeePotLid
 10
0.0
 20
0.0
 30
0.0
 70
   128
 71
   11
 72
   21
 73
   22
  0
VERTEX
  8
coffeePotLid
 10
0.0
 20
0.0
 30
0.0
 70
   128
 71
   12
 72
   22
 73
   23
  0
VERTEX
  8
coffeePotLid
 10
0.0
 20
0.0
 30
0.0
 70
   128
 71
   13
 72
   23
 73
   24
  0
VERTEX
  8
coffeePotLid
 10
0.0
 20
0.0
 30
0.0
 70
   128
 71
   14
 72
   24
 73
   25
  0
VERTEX
  8
coffeePotLid
 10
0.0
 20
0.0
 30
0.0
 70
   128
 71
   15
 72
   25
 73
   26
  0
VERTEX
  8
coffeePotLid
 10
0.0
 20
0.0
 30
0.0
 70
   128
 71
   16
 72
   26
 73
   27
  0
VERTEX
  8
coffeePotLid
 10
0.0
 20
0.0
 30
0.0
 70
   128
 71
   17
 72
   27
 73
   28
  0
VERTEX
  8
coffeePotLid
 10
0.0
 20
0.0
 30
0.0
 70
   128
 71
   18
 72
   28
 73
   29
  0
VERTEX
  8
coffeePotLid
 10
0.0
 20
0.0
 30
0.0
 70
   128
 71
   29
 72
   39
 73
   40
  0
VERTEX
  8
coffeePotLid
 10
0.0
 20
0.0
 30
0.0
 70
   128
 71
   30
 72
   40
 73
   31
  0
VERTEX
  8
coffeePotLid
 10
0.0
 20
0.0
 30
0.0
 70
   128
 71
   21
 72
   31
 73
   32
  0
VERTEX
  8
coffeePotLid
 10
0.0
 20
0.0
 30
0.0
 70
   128
 71
   22
 72
   32
 73
   33
  0
VERTEX
  8
coffeePotLid
 10
0.0
 20
0.0
 30
0.0
 70
   128
 71
   23
 72
   33
 73
   34
  0
VERTEX
  8
coffeePotLid
 10
0.0
 20
0.0
 30
0.0
 70
   128
 71
   24
 72
   34
 73
   35
  0
VERTEX
  8
coffeePotLid
 10
0.0
 20
0.0
 30
0.0
 70
   128
 71
   25
 72
   35
 73
   36
  0
VERTEX
  8
coffeePotLid
 10
0.0
 20
0.0
 30
0.0
 70
   128
 71
   26
 72
   36
 73
   37
  0
VERTEX
  8
coffeePotLid
 10
0.0
 20
0.0
 30
0.0
 70
   128
 71
   27
 72
   37
 73
   38
  0
VERTEX
  8
coffeePotLid
 10
0.0
 20
0.0
 30
0.0
 70
   128
 71
   28
 72
   38
 73
   39
  0
VERTEX
  8
coffeePotLid
 10
0.0
 20
0.0
 30
0.0
 70
   128
 71
   7
 72
   8
 73
   6
  0
VERTEX
  8
coffeePotLid
 10
0.0
 20
0.0
 30
0.0
 70
   128
 71
   4
 72
   8
 73
   9
  0
VERTEX
  8
coffeePotLid
 10
0.0
 20
0.0
 30
0.0
 70
   128
 71
   8
 72
   4
 73
   5
  0
VERTEX
  8
coffeePotLid
 10
0.0
 20
0.0
 30
0.0
 70
   128
 71
   9
 72
   10
 73
   1
  0
VERTEX
  8
coffeePotLid
 10
0.0
 20
0.0
 30
0.0
 70
   128
 71
   1
 72
   2
 73
   3
  0
VERTEX
  8
coffeePotLid
 10
0.0
 20
0.0
 30
0.0
 70
   128
 71
   40
 72
   38
 73
   31
  0
VERTEX
  8
coffeePotLid
 10
0.0
 20
0.0
 30
0.0
 70
   128
 71
   38
 72
   36
 73
   35
  0
VERTEX
  8
coffeePotLid
 10
0.0
 20
0.0
 30
0.0
 70
   128
 71
   38
 72
   33
 73
   31
  0
VERTEX
  8
coffeePotLid
 10
0.0
 20
0.0
 30
0.0
 70
   128
 71
   9
 72
   20
 73
   10
  0
VERTEX
  8
coffeePotLid
 10
0.0
 20
0.0
 30
0.0
 70
   128
 71
   10
 72
   11
 73
   1
  0
VERTEX
  8
coffeePotLid
 10
0.0
 20
0.0
 30
0.0
 70
   128
 71
   1
 72
   12
 73
   2
  0
VERTEX
  8
coffeePotLid
 10
0.0
 20
0.0
 30
0.0
 70
   128
 71
   2
 72
   13
 73
   3
  0
VERTEX
  8
coffeePotLid
 10
0.0
 20
0.0
 30
0.0
 70
   128
 71
   3
 72
   14
 73
   4
  0
VERTEX
  8
coffeePotLid
 10
0.0
 20
0.0
 30
0.0
 70
   128
 71
   4
 72
   15
 73
   5
  0
VERTEX
  8
coffeePotLid
 10
0.0
 20
0.0
 30
0.0
 70
   128
 71
   5
 72
   16
 73
   6
  0
VERTEX
  8
coffeePotLid
 10
0.0
 20
0.0
 30
0.0
 70
   128
 71
   6
 72
   17
 73
   7
  0
VERTEX
  8
coffeePotLid
 10
0.0
 20
0.0
 30
0.0
 70
   128
 71
   7
 72
   18
 73
   8
  0
VERTEX
  8
coffeePotLid
 10
0.0
 20
0.0
 30
0.0
 70
   128
 71
   8
 72
   19
 73
   9
  0
VERTEX
  8
coffeePotLid
 10
0.0
 20
0.0
 30
0.0
 70
   128
 71
   19
 72
   30
 73
   20
  0
VERTEX
  8
coffeePotLid
 10
0.0
 20
0.0
 30
0.0
 70
   128
 71
   20
 72
   21
 73
   11
  0
VERTEX
  8
coffeePotLid
 10
0.0
 20
0.0
 30
0.0
 70
   128
 71
   11
 72
   22
 73
   12
  0
VERTEX
  8
coffeePotLid
 10
0.0
 20
0.0
 30
0.0
 70
   128
 71
   12
 72
   23
 73
   13
  0
VERTEX
  8
coffeePotLid
 10
0.0
 20
0.0
 30
0.0
 70
   128
 71
   13
 72
   24
 73
   14
  0
VERTEX
  8
coffeePotLid
 10
0.0
 20
0.0
 30
0.0
 70
   128
 71
   14
 72
   25
 73
   15
  0
VERTEX
  8
coffeePotLid
 10
0.0
 20
0.0
 30
0.0
 70
   128
 71
   15
 72
   26
 73
   16
  0
VERTEX
  8
coffeePotLid
 10
0.0
 20
0.0
 30
0.0
 70
   128
 71
   16
 72
   27
 73
   17
  0
VERTEX
  8
coffeePotLid
 10
0.0
 20
0.0
 30
0.0
 70
   128
 71
   17
 72
   28
 73
   18
  0
VERTEX
  8
coffeePotLid
 10
0.0
 20
0.0
 30
0.0
 70
   128
 71
   18
 72
   29
 73
   19
  0
VERTEX
  8
coffeePotLid
 10
0.0
 20
0.0
 30
0.0
 70
   128
 71
   29
 72
   40
 73
   30
  0
VERTEX
  8
coffeePotLid
 10
0.0
 20
0.0
 30
0.0
 70
   128
 71
   30
 72
   31
 73
   21
  0
VERTEX
  8
coffeePotLid
 10
0.0
 20
0.0
 30
0.0
 70
   128
 71
   21
 72
   32
 73
   22
  0
VERTEX
  8
coffeePotLid
 10
0.0
 20
0.0
 30
0.0
 70
   128
 71
   22
 72
   33
 73
   23
  0
VERTEX
  8
coffeePotLid
 10
0.0
 20
0.0
 30
0.0
 70
   128
 71
   23
 72
   34
 73
   24
  0
VERTEX
  8
coffeePotLid
 10
0.0
 20
0.0
 30
0.0
 70
   128
 71
   24
 72
   35
 73
   25
  0
VERTEX
  8
coffeePotLid
 10
0.0
 20
0.0
 30
0.0
 70
   128
 71
   25
 72
   36
 73
   26
  0
VERTEX
  8
coffeePotLid
 10
0.0
 20
0.0
 30
0.0
 70
   128
 71
   26
 72
   37
 73
   27
  0
VERTEX
  8
coffeePotLid
 10
0.0
 20
0.0
 30
0.0
 70
   128
 71
   27
 72
   38
 73
   28
  0
VERTEX
  8
coffeePotLid
 10
0.0
 20
0.0
 30
0.0
 70
   128
 71
   28
 72
   39
 73
   29
  0
VERTEX
  8
coffeePotLid
 10
0.0
 20
0.0
 30
0.0
 70
   128
 71
   4
 72
   9
 73
   3
  0
VERTEX
  8
coffeePotLid
 10
0.0
 20
0.0
 30
0.0
 70
   128
 71
   8
 72
   5
 73
   6
  0
VERTEX
  8
coffeePotLid
 10
0.0
 20
0.0
 30
0.0
 70
   128
 71
   9
 72
   1
 73
   3
  0
SEQEND
  0
ENDSEC
  0
EOF
