999
FBX AutoCAD (*.DXF) exporter
  0
SECTION
  2
HEADER
  9
$ACADVER
  1
AC1008
  9
$UCSORG
 10
0.0
 20
0.0
 30
0.0
  9
$UCSXDIR
 10
1.0
 20
0.0
 30
0.0
  9
$TILEMODE
 70
   1
  9
$UCSYDIR
 10
0.0
 20
1.0
 30
0.0
  0
ENDSEC
  0
SECTION
  2
TABLES
  0
TABLE
  2
LTYPE
 70
   1
  0
LTYPE
  2
CONTINUOUS
 70
   64
  3
Solid line
 72
   65
 73
   0
 40
0.0
  0
ENDTAB
  0
TABLE
  2
LAYER
 70
   3
  0
LAYER
  2
carrotLeaf
 70
   0
 62
   250
  6
CONTINUOUS
  0
LAYER
  2
carrot_2
 70
   0
 62
   250
  6
CONTINUOUS
  0
ENDTAB
  0
ENDSEC
  0
SECTION
  2
BLOCKS
  0
ENDSEC
  0
SECTION
  2
ENTITIES
  0
POLYLINE
  8
carrotLeaf
 66
   1
 10
0.0
 20
0.0
 30
0.0
 70
   64
 71
   126
 72
   108
  0
VERTEX
  8
carrotLeaf
 10
1.625323
 20
139.410523
 30
-10.200353
 70
   192
  0
VERTEX
  8
carrotLeaf
 10
-0.988925
 20
166.017851
 30
-30.116125
 70
   192
  0
VERTEX
  8
carrotLeaf
 10
4.669952
 20
185.201426
 30
-38.213687
 70
   192
  0
VERTEX
  8
carrotLeaf
 10
17.273417
 20
194.965480
 30
-34.264672
 70
   192
  0
VERTEX
  8
carrotLeaf
 10
29.175879
 20
193.910437
 30
-23.681660
 70
   192
  0
VERTEX
  8
carrotLeaf
 10
32.872748
 20
174.888717
 30
-7.926541
 70
   192
  0
VERTEX
  8
carrotLeaf
 10
30.285420
 20
170.337795
 30
-7.038830
 70
   192
  0
VERTEX
  8
carrotLeaf
 10
34.883159
 20
177.394856
 30
-7.929329
 70
   192
  0
VERTEX
  8
carrotLeaf
 10
46.804777
 20
188.597951
 30
-5.506039
 70
   192
  0
VERTEX
  8
carrotLeaf
 10
58.500255
 20
193.365821
 30
1.021552
 70
   192
  0
VERTEX
  8
carrotLeaf
 10
69.400498
 20
183.878245
 30
16.396814
 70
   192
  0
VERTEX
  8
carrotLeaf
 10
61.777152
 20
163.733846
 30
23.504642
 70
   192
  0
VERTEX
  8
carrotLeaf
 10
47.379469
 20
150.169832
 30
20.600781
 70
   192
  0
VERTEX
  8
carrotLeaf
 10
25.946770
 20
130.265223
 30
16.086566
 70
   192
  0
VERTEX
  8
carrotLeaf
 10
15.830856
 20
127.995878
 30
-27.314929
 70
   192
  0
VERTEX
  8
carrotLeaf
 10
13.216608
 20
154.603206
 30
-47.230701
 70
   192
  0
VERTEX
  8
carrotLeaf
 10
18.875485
 20
173.786781
 30
-55.328263
 70
   192
  0
VERTEX
  8
carrotLeaf
 10
31.478950
 20
183.550835
 30
-51.379247
 70
   192
  0
VERTEX
  8
carrotLeaf
 10
43.381412
 20
182.495792
 30
-40.796236
 70
   192
  0
VERTEX
  8
carrotLeaf
 10
47.078281
 20
163.474072
 30
-25.041116
 70
   192
  0
VERTEX
  8
carrotLeaf
 10
44.490953
 20
158.923150
 30
-24.153406
 70
   192
  0
VERTEX
  8
carrotLeaf
 10
49.088692
 20
165.980211
 30
-25.043905
 70
   192
  0
VERTEX
  8
carrotLeaf
 10
61.010310
 20
177.183306
 30
-22.620615
 70
   192
  0
VERTEX
  8
carrotLeaf
 10
72.705788
 20
181.951176
 30
-16.093024
 70
   192
  0
VERTEX
  8
carrotLeaf
 10
83.606031
 20
172.463600
 30
-0.717762
 70
   192
  0
VERTEX
  8
carrotLeaf
 10
75.982685
 20
152.319201
 30
6.390067
 70
   192
  0
VERTEX
  8
carrotLeaf
 10
61.585002
 20
138.755187
 30
3.486205
 70
   192
  0
VERTEX
  8
carrotLeaf
 10
40.152303
 20
118.850578
 30
-1.028010
 70
   192
  0
VERTEX
  8
carrotLeaf
 10
1.625323
 20
139.410523
 30
-10.200353
 70
   192
  0
VERTEX
  8
carrotLeaf
 10
-0.988925
 20
166.017851
 30
-30.116125
 70
   192
  0
VERTEX
  8
carrotLeaf
 10
4.669952
 20
185.201426
 30
-38.213687
 70
   192
  0
VERTEX
  8
carrotLeaf
 10
17.273417
 20
194.965480
 30
-34.264672
 70
   192
  0
VERTEX
  8
carrotLeaf
 10
29.175879
 20
193.910437
 30
-23.681660
 70
   192
  0
VERTEX
  8
carrotLeaf
 10
32.872748
 20
174.888717
 30
-7.926541
 70
   192
  0
VERTEX
  8
carrotLeaf
 10
30.285420
 20
170.337795
 30
-7.038830
 70
   192
  0
VERTEX
  8
carrotLeaf
 10
34.883159
 20
177.394856
 30
-7.929329
 70
   192
  0
VERTEX
  8
carrotLeaf
 10
46.804777
 20
188.597951
 30
-5.506039
 70
   192
  0
VERTEX
  8
carrotLeaf
 10
58.500255
 20
193.365821
 30
1.021552
 70
   192
  0
VERTEX
  8
carrotLeaf
 10
69.400498
 20
183.878245
 30
16.396814
 70
   192
  0
VERTEX
  8
carrotLeaf
 10
61.777152
 20
163.733846
 30
23.504642
 70
   192
  0
VERTEX
  8
carrotLeaf
 10
47.379469
 20
150.169832
 30
20.600781
 70
   192
  0
VERTEX
  8
carrotLeaf
 10
25.946770
 20
130.265223
 30
16.086566
 70
   192
  0
VERTEX
  8
carrotLeaf
 10
2.706824
 20
145.420349
 30
-6.007245
 70
   192
  0
VERTEX
  8
carrotLeaf
 10
0.349152
 20
169.416298
 30
-23.968382
 70
   192
  0
VERTEX
  8
carrotLeaf
 10
5.113814
 20
185.568486
 30
-30.786367
 70
   192
  0
VERTEX
  8
carrotLeaf
 10
14.282251
 20
192.671384
 30
-27.913641
 70
   192
  0
VERTEX
  8
carrotLeaf
 10
22.669691
 20
191.927915
 30
-20.455993
 70
   192
  0
VERTEX
  8
carrotLeaf
 10
25.808361
 20
175.778333
 30
-7.079779
 70
   192
  0
VERTEX
  8
carrotLeaf
 10
22.724399
 20
163.997493
 30
-1.782260
 70
   192
  0
VERTEX
  8
carrotLeaf
 10
34.264313
 20
177.017735
 30
-0.887748
 70
   192
  0
VERTEX
  8
carrotLeaf
 10
45.067776
 20
187.170067
 30
1.308256
 70
   192
  0
VERTEX
  8
carrotLeaf
 10
53.730397
 20
190.701539
 30
6.143120
 70
   192
  0
VERTEX
  8
carrotLeaf
 10
61.774142
 20
183.700260
 30
17.489169
 70
   192
  0
VERTEX
  8
carrotLeaf
 10
55.742117
 20
167.760863
 30
23.113288
 70
   192
  0
VERTEX
  8
carrotLeaf
 10
42.566048
 20
155.347729
 30
20.455813
 70
   192
  0
VERTEX
  8
carrotLeaf
 10
23.469884
 20
137.613066
 30
16.433726
 70
   192
  0
VERTEX
  8
carrotLeaf
 10
2.706824
 20
145.420349
 30
-6.007245
 70
   192
  0
VERTEX
  8
carrotLeaf
 10
0.349152
 20
169.416298
 30
-23.968382
 70
   192
  0
VERTEX
  8
carrotLeaf
 10
5.113814
 20
185.568486
 30
-30.786367
 70
   192
  0
VERTEX
  8
carrotLeaf
 10
14.282251
 20
192.671384
 30
-27.913641
 70
   192
  0
VERTEX
  8
carrotLeaf
 10
22.669691
 20
191.927915
 30
-20.455993
 70
   192
  0
VERTEX
  8
carrotLeaf
 10
25.808361
 20
175.778333
 30
-7.079779
 70
   192
  0
VERTEX
  8
carrotLeaf
 10
22.724399
 20
163.997493
 30
-1.782260
 70
   192
  0
VERTEX
  8
carrotLeaf
 10
34.264313
 20
177.017735
 30
-0.887748
 70
   192
  0
VERTEX
  8
carrotLeaf
 10
45.067776
 20
187.170067
 30
1.308256
 70
   192
  0
VERTEX
  8
carrotLeaf
 10
53.730397
 20
190.701539
 30
6.143120
 70
   192
  0
VERTEX
  8
carrotLeaf
 10
61.774142
 20
183.700260
 30
17.489169
 70
   192
  0
VERTEX
  8
carrotLeaf
 10
55.742117
 20
167.760863
 30
23.113288
 70
   192
  0
VERTEX
  8
carrotLeaf
 10
42.566048
 20
155.347729
 30
20.455813
 70
   192
  0
VERTEX
  8
carrotLeaf
 10
23.469884
 20
137.613066
 30
16.433726
 70
   192
  0
VERTEX
  8
carrotLeaf
 10
15.830856
 20
127.995878
 30
-27.314929
 70
   192
  0
VERTEX
  8
carrotLeaf
 10
13.216608
 20
154.603206
 30
-47.230701
 70
   192
  0
VERTEX
  8
carrotLeaf
 10
18.875485
 20
173.786781
 30
-55.328263
 70
   192
  0
VERTEX
  8
carrotLeaf
 10
31.478950
 20
183.550835
 30
-51.379247
 70
   192
  0
VERTEX
  8
carrotLeaf
 10
43.381412
 20
182.495792
 30
-40.796236
 70
   192
  0
VERTEX
  8
carrotLeaf
 10
47.078281
 20
163.474072
 30
-25.041116
 70
   192
  0
VERTEX
  8
carrotLeaf
 10
44.490953
 20
158.923150
 30
-24.153406
 70
   192
  0
VERTEX
  8
carrotLeaf
 10
49.088692
 20
165.980211
 30
-25.043905
 70
   192
  0
VERTEX
  8
carrotLeaf
 10
61.010310
 20
177.183306
 30
-22.620615
 70
   192
  0
VERTEX
  8
carrotLeaf
 10
72.705788
 20
181.951176
 30
-16.093024
 70
   192
  0
VERTEX
  8
carrotLeaf
 10
83.606031
 20
172.463600
 30
-0.717762
 70
   192
  0
VERTEX
  8
carrotLeaf
 10
75.982685
 20
152.319201
 30
6.390067
 70
   192
  0
VERTEX
  8
carrotLeaf
 10
61.585002
 20
138.755187
 30
3.486205
 70
   192
  0
VERTEX
  8
carrotLeaf
 10
40.152303
 20
118.850578
 30
-1.028010
 70
   192
  0
VERTEX
  8
carrotLeaf
 10
22.594571
 20
129.439846
 30
-29.967651
 70
   192
  0
VERTEX
  8
carrotLeaf
 10
20.236898
 20
153.435795
 30
-47.928788
 70
   192
  0
VERTEX
  8
carrotLeaf
 10
25.001560
 20
169.587983
 30
-54.746773
 70
   192
  0
VERTEX
  8
carrotLeaf
 10
34.169998
 20
176.690881
 30
-51.874047
 70
   192
  0
VERTEX
  8
carrotLeaf
 10
42.557437
 20
175.947412
 30
-44.416399
 70
   192
  0
VERTEX
  8
carrotLeaf
 10
45.696107
 20
159.797829
 30
-31.040185
 70
   192
  0
VERTEX
  8
carrotLeaf
 10
42.612146
 20
148.016990
 30
-25.742666
 70
   192
  0
VERTEX
  8
carrotLeaf
 10
54.152060
 20
161.037232
 30
-24.848154
 70
   192
  0
VERTEX
  8
carrotLeaf
 10
64.955522
 20
171.189564
 30
-22.652150
 70
   192
  0
VERTEX
  8
carrotLeaf
 10
73.618143
 20
174.721036
 30
-17.817286
 70
   192
  0
VERTEX
  8
carrotLeaf
 10
81.661889
 20
167.719757
 30
-6.471237
 70
   192
  0
VERTEX
  8
carrotLeaf
 10
75.629863
 20
151.780360
 30
-0.847118
 70
   192
  0
VERTEX
  8
carrotLeaf
 10
62.453795
 20
139.367226
 30
-3.504593
 70
   192
  0
VERTEX
  8
carrotLeaf
 10
43.357631
 20
121.632563
 30
-7.526680
 70
   192
  0
VERTEX
  8
carrotLeaf
 10
22.594571
 20
129.439846
 30
-29.967651
 70
   192
  0
VERTEX
  8
carrotLeaf
 10
20.236898
 20
153.435795
 30
-47.928788
 70
   192
  0
VERTEX
  8
carrotLeaf
 10
25.001560
 20
169.587983
 30
-54.746773
 70
   192
  0
VERTEX
  8
carrotLeaf
 10
34.169998
 20
176.690881
 30
-51.874047
 70
   192
  0
VERTEX
  8
carrotLeaf
 10
42.557437
 20
175.947412
 30
-44.416399
 70
   192
  0
VERTEX
  8
carrotLeaf
 10
45.696107
 20
159.797829
 30
-31.040185
 70
   192
  0
VERTEX
  8
carrotLeaf
 10
42.612146
 20
148.016990
 30
-25.742666
 70
   192
  0
VERTEX
  8
carrotLeaf
 10
54.152060
 20
161.037232
 30
-24.848154
 70
   192
  0
VERTEX
  8
carrotLeaf
 10
64.955522
 20
171.189564
 30
-22.652150
 70
   192
  0
VERTEX
  8
carrotLeaf
 10
73.618143
 20
174.721036
 30
-17.817286
 70
   192
  0
VERTEX
  8
carrotLeaf
 10
81.661889
 20
167.719757
 30
-6.471237
 70
   192
  0
VERTEX
  8
carrotLeaf
 10
75.629863
 20
151.780360
 30
-0.847118
 70
   192
  0
VERTEX
  8
carrotLeaf
 10
62.453795
 20
139.367226
 30
-3.504593
 70
   192
  0
VERTEX
  8
carrotLeaf
 10
43.357631
 20
121.632563
 30
-7.526680
 70
   192
  0
VERTEX
  8
carrotLeaf
 10
-37.276787
 20
0.000000
 30
33.186884
 70
   192
  0
VERTEX
  8
carrotLeaf
 10
-37.276787
 20
0.000000
 30
33.186884
 70
   192
  0
VERTEX
  8
carrotLeaf
 10
-37.276787
 20
0.000000
 30
33.186884
 70
   192
  0
VERTEX
  8
carrotLeaf
 10
-37.276787
 20
0.000000
 30
33.186884
 70
   192
  0
VERTEX
  8
carrotLeaf
 10
-37.276787
 20
0.000000
 30
33.186884
 70
   192
  0
VERTEX
  8
carrotLeaf
 10
-37.276787
 20
0.000000
 30
33.186884
 70
   192
  0
VERTEX
  8
carrotLeaf
 10
-37.276787
 20
0.000000
 30
33.186884
 70
   192
  0
VERTEX
  8
carrotLeaf
 10
-37.276787
 20
0.000000
 30
33.186884
 70
   192
  0
VERTEX
  8
carrotLeaf
 10
-37.276787
 20
0.000000
 30
33.186884
 70
   192
  0
VERTEX
  8
carrotLeaf
 10
-37.276787
 20
0.000000
 30
33.186884
 70
   192
  0
VERTEX
  8
carrotLeaf
 10
-37.276787
 20
0.000000
 30
33.186884
 70
   192
  0
VERTEX
  8
carrotLeaf
 10
-37.276787
 20
0.000000
 30
33.186884
 70
   192
  0
VERTEX
  8
carrotLeaf
 10
-37.276787
 20
0.000000
 30
33.186884
 70
   192
  0
VERTEX
  8
carrotLeaf
 10
-37.276787
 20
0.000000
 30
33.186884
 70
   192
  0
VERTEX
  8
carrotLeaf
 10
0.0
 20
0.0
 30
0.0
 70
   128
 71
   1
 72
   15
 73
   16
  0
VERTEX
  8
carrotLeaf
 10
0.0
 20
0.0
 30
0.0
 70
   128
 71
   2
 72
   16
 73
   17
  0
VERTEX
  8
carrotLeaf
 10
0.0
 20
0.0
 30
0.0
 70
   128
 71
   3
 72
   17
 73
   18
  0
VERTEX
  8
carrotLeaf
 10
0.0
 20
0.0
 30
0.0
 70
   128
 71
   4
 72
   18
 73
   19
  0
VERTEX
  8
carrotLeaf
 10
0.0
 20
0.0
 30
0.0
 70
   128
 71
   5
 72
   19
 73
   20
  0
VERTEX
  8
carrotLeaf
 10
0.0
 20
0.0
 30
0.0
 70
   128
 71
   6
 72
   20
 73
   21
  0
VERTEX
  8
carrotLeaf
 10
0.0
 20
0.0
 30
0.0
 70
   128
 71
   7
 72
   21
 73
   22
  0
VERTEX
  8
carrotLeaf
 10
0.0
 20
0.0
 30
0.0
 70
   128
 71
   8
 72
   22
 73
   23
  0
VERTEX
  8
carrotLeaf
 10
0.0
 20
0.0
 30
0.0
 70
   128
 71
   9
 72
   23
 73
   24
  0
VERTEX
  8
carrotLeaf
 10
0.0
 20
0.0
 30
0.0
 70
   128
 71
   10
 72
   24
 73
   25
  0
VERTEX
  8
carrotLeaf
 10
0.0
 20
0.0
 30
0.0
 70
   128
 71
   11
 72
   25
 73
   26
  0
VERTEX
  8
carrotLeaf
 10
0.0
 20
0.0
 30
0.0
 70
   128
 71
   12
 72
   26
 73
   27
  0
VERTEX
  8
carrotLeaf
 10
0.0
 20
0.0
 30
0.0
 70
   128
 71
   13
 72
   27
 73
   28
  0
VERTEX
  8
carrotLeaf
 10
0.0
 20
0.0
 30
0.0
 70
   128
 71
   14
 72
   28
 73
   15
  0
VERTEX
  8
carrotLeaf
 10
0.0
 20
0.0
 30
0.0
 70
   128
 71
   29
 72
   30
 73
   44
  0
VERTEX
  8
carrotLeaf
 10
0.0
 20
0.0
 30
0.0
 70
   128
 71
   30
 72
   31
 73
   45
  0
VERTEX
  8
carrotLeaf
 10
0.0
 20
0.0
 30
0.0
 70
   128
 71
   31
 72
   32
 73
   46
  0
VERTEX
  8
carrotLeaf
 10
0.0
 20
0.0
 30
0.0
 70
   128
 71
   32
 72
   33
 73
   47
  0
VERTEX
  8
carrotLeaf
 10
0.0
 20
0.0
 30
0.0
 70
   128
 71
   33
 72
   34
 73
   48
  0
VERTEX
  8
carrotLeaf
 10
0.0
 20
0.0
 30
0.0
 70
   128
 71
   34
 72
   35
 73
   49
  0
VERTEX
  8
carrotLeaf
 10
0.0
 20
0.0
 30
0.0
 70
   128
 71
   35
 72
   36
 73
   50
  0
VERTEX
  8
carrotLeaf
 10
0.0
 20
0.0
 30
0.0
 70
   128
 71
   36
 72
   37
 73
   51
  0
VERTEX
  8
carrotLeaf
 10
0.0
 20
0.0
 30
0.0
 70
   128
 71
   37
 72
   38
 73
   52
  0
VERTEX
  8
carrotLeaf
 10
0.0
 20
0.0
 30
0.0
 70
   128
 71
   38
 72
   39
 73
   53
  0
VERTEX
  8
carrotLeaf
 10
0.0
 20
0.0
 30
0.0
 70
   128
 71
   39
 72
   40
 73
   54
  0
VERTEX
  8
carrotLeaf
 10
0.0
 20
0.0
 30
0.0
 70
   128
 71
   40
 72
   41
 73
   55
  0
VERTEX
  8
carrotLeaf
 10
0.0
 20
0.0
 30
0.0
 70
   128
 71
   41
 72
   42
 73
   56
  0
VERTEX
  8
carrotLeaf
 10
0.0
 20
0.0
 30
0.0
 70
   128
 71
   42
 72
   29
 73
   43
  0
VERTEX
  8
carrotLeaf
 10
0.0
 20
0.0
 30
0.0
 70
   128
 71
   57
 72
   58
 73
   63
  0
VERTEX
  8
carrotLeaf
 10
0.0
 20
0.0
 30
0.0
 70
   128
 71
   57
 72
   63
 73
   70
  0
VERTEX
  8
carrotLeaf
 10
0.0
 20
0.0
 30
0.0
 70
   128
 71
   58
 72
   59
 73
   61
  0
VERTEX
  8
carrotLeaf
 10
0.0
 20
0.0
 30
0.0
 70
   128
 71
   58
 72
   61
 73
   62
  0
VERTEX
  8
carrotLeaf
 10
0.0
 20
0.0
 30
0.0
 70
   128
 71
   58
 72
   62
 73
   63
  0
VERTEX
  8
carrotLeaf
 10
0.0
 20
0.0
 30
0.0
 70
   128
 71
   59
 72
   60
 73
   61
  0
VERTEX
  8
carrotLeaf
 10
0.0
 20
0.0
 30
0.0
 70
   128
 71
   63
 72
   64
 73
   69
  0
VERTEX
  8
carrotLeaf
 10
0.0
 20
0.0
 30
0.0
 70
   128
 71
   63
 72
   69
 73
   70
  0
VERTEX
  8
carrotLeaf
 10
0.0
 20
0.0
 30
0.0
 70
   128
 71
   64
 72
   65
 73
   68
  0
VERTEX
  8
carrotLeaf
 10
0.0
 20
0.0
 30
0.0
 70
   128
 71
   64
 72
   68
 73
   69
  0
VERTEX
  8
carrotLeaf
 10
0.0
 20
0.0
 30
0.0
 70
   128
 71
   65
 72
   66
 73
   67
  0
VERTEX
  8
carrotLeaf
 10
0.0
 20
0.0
 30
0.0
 70
   128
 71
   65
 72
   67
 73
   68
  0
VERTEX
  8
carrotLeaf
 10
0.0
 20
0.0
 30
0.0
 70
   128
 71
   71
 72
   85
 73
   86
  0
VERTEX
  8
carrotLeaf
 10
0.0
 20
0.0
 30
0.0
 70
   128
 71
   72
 72
   86
 73
   87
  0
VERTEX
  8
carrotLeaf
 10
0.0
 20
0.0
 30
0.0
 70
   128
 71
   73
 72
   87
 73
   88
  0
VERTEX
  8
carrotLeaf
 10
0.0
 20
0.0
 30
0.0
 70
   128
 71
   74
 72
   88
 73
   89
  0
VERTEX
  8
carrotLeaf
 10
0.0
 20
0.0
 30
0.0
 70
   128
 71
   75
 72
   89
 73
   90
  0
VERTEX
  8
carrotLeaf
 10
0.0
 20
0.0
 30
0.0
 70
   128
 71
   76
 72
   90
 73
   91
  0
VERTEX
  8
carrotLeaf
 10
0.0
 20
0.0
 30
0.0
 70
   128
 71
   77
 72
   91
 73
   92
  0
VERTEX
  8
carrotLeaf
 10
0.0
 20
0.0
 30
0.0
 70
   128
 71
   78
 72
   92
 73
   93
  0
VERTEX
  8
carrotLeaf
 10
0.0
 20
0.0
 30
0.0
 70
   128
 71
   79
 72
   93
 73
   94
  0
VERTEX
  8
carrotLeaf
 10
0.0
 20
0.0
 30
0.0
 70
   128
 71
   80
 72
   94
 73
   95
  0
VERTEX
  8
carrotLeaf
 10
0.0
 20
0.0
 30
0.0
 70
   128
 71
   81
 72
   95
 73
   96
  0
VERTEX
  8
carrotLeaf
 10
0.0
 20
0.0
 30
0.0
 70
   128
 71
   82
 72
   96
 73
   97
  0
VERTEX
  8
carrotLeaf
 10
0.0
 20
0.0
 30
0.0
 70
   128
 71
   83
 72
   97
 73
   98
  0
VERTEX
  8
carrotLeaf
 10
0.0
 20
0.0
 30
0.0
 70
   128
 71
   84
 72
   98
 73
   85
  0
VERTEX
  8
carrotLeaf
 10
0.0
 20
0.0
 30
0.0
 70
   128
 71
   112
 72
   111
 73
   105
  0
VERTEX
  8
carrotLeaf
 10
0.0
 20
0.0
 30
0.0
 70
   128
 71
   112
 72
   105
 73
   99
  0
VERTEX
  8
carrotLeaf
 10
0.0
 20
0.0
 30
0.0
 70
   128
 71
   111
 72
   110
 73
   106
  0
VERTEX
  8
carrotLeaf
 10
0.0
 20
0.0
 30
0.0
 70
   128
 71
   111
 72
   106
 73
   105
  0
VERTEX
  8
carrotLeaf
 10
0.0
 20
0.0
 30
0.0
 70
   128
 71
   110
 72
   109
 73
   107
  0
VERTEX
  8
carrotLeaf
 10
0.0
 20
0.0
 30
0.0
 70
   128
 71
   110
 72
   107
 73
   106
  0
VERTEX
  8
carrotLeaf
 10
0.0
 20
0.0
 30
0.0
 70
   128
 71
   109
 72
   108
 73
   107
  0
VERTEX
  8
carrotLeaf
 10
0.0
 20
0.0
 30
0.0
 70
   128
 71
   105
 72
   104
 73
   100
  0
VERTEX
  8
carrotLeaf
 10
0.0
 20
0.0
 30
0.0
 70
   128
 71
   105
 72
   100
 73
   99
  0
VERTEX
  8
carrotLeaf
 10
0.0
 20
0.0
 30
0.0
 70
   128
 71
   104
 72
   103
 73
   100
  0
VERTEX
  8
carrotLeaf
 10
0.0
 20
0.0
 30
0.0
 70
   128
 71
   103
 72
   102
 73
   101
  0
VERTEX
  8
carrotLeaf
 10
0.0
 20
0.0
 30
0.0
 70
   128
 71
   103
 72
   101
 73
   100
  0
VERTEX
  8
carrotLeaf
 10
0.0
 20
0.0
 30
0.0
 70
   128
 71
   1
 72
   16
 73
   2
  0
VERTEX
  8
carrotLeaf
 10
0.0
 20
0.0
 30
0.0
 70
   128
 71
   2
 72
   17
 73
   3
  0
VERTEX
  8
carrotLeaf
 10
0.0
 20
0.0
 30
0.0
 70
   128
 71
   3
 72
   18
 73
   4
  0
VERTEX
  8
carrotLeaf
 10
0.0
 20
0.0
 30
0.0
 70
   128
 71
   4
 72
   19
 73
   5
  0
VERTEX
  8
carrotLeaf
 10
0.0
 20
0.0
 30
0.0
 70
   128
 71
   5
 72
   20
 73
   6
  0
VERTEX
  8
carrotLeaf
 10
0.0
 20
0.0
 30
0.0
 70
   128
 71
   6
 72
   21
 73
   7
  0
VERTEX
  8
carrotLeaf
 10
0.0
 20
0.0
 30
0.0
 70
   128
 71
   7
 72
   22
 73
   8
  0
VERTEX
  8
carrotLeaf
 10
0.0
 20
0.0
 30
0.0
 70
   128
 71
   8
 72
   23
 73
   9
  0
VERTEX
  8
carrotLeaf
 10
0.0
 20
0.0
 30
0.0
 70
   128
 71
   9
 72
   24
 73
   10
  0
VERTEX
  8
carrotLeaf
 10
0.0
 20
0.0
 30
0.0
 70
   128
 71
   10
 72
   25
 73
   11
  0
VERTEX
  8
carrotLeaf
 10
0.0
 20
0.0
 30
0.0
 70
   128
 71
   11
 72
   26
 73
   12
  0
VERTEX
  8
carrotLeaf
 10
0.0
 20
0.0
 30
0.0
 70
   128
 71
   12
 72
   27
 73
   13
  0
VERTEX
  8
carrotLeaf
 10
0.0
 20
0.0
 30
0.0
 70
   128
 71
   13
 72
   28
 73
   14
  0
VERTEX
  8
carrotLeaf
 10
0.0
 20
0.0
 30
0.0
 70
   128
 71
   14
 72
   15
 73
   1
  0
VERTEX
  8
carrotLeaf
 10
0.0
 20
0.0
 30
0.0
 70
   128
 71
   29
 72
   44
 73
   43
  0
VERTEX
  8
carrotLeaf
 10
0.0
 20
0.0
 30
0.0
 70
   128
 71
   30
 72
   45
 73
   44
  0
VERTEX
  8
carrotLeaf
 10
0.0
 20
0.0
 30
0.0
 70
   128
 71
   31
 72
   46
 73
   45
  0
VERTEX
  8
carrotLeaf
 10
0.0
 20
0.0
 30
0.0
 70
   128
 71
   32
 72
   47
 73
   46
  0
VERTEX
  8
carrotLeaf
 10
0.0
 20
0.0
 30
0.0
 70
   128
 71
   33
 72
   48
 73
   47
  0
VERTEX
  8
carrotLeaf
 10
0.0
 20
0.0
 30
0.0
 70
   128
 71
   34
 72
   49
 73
   48
  0
VERTEX
  8
carrotLeaf
 10
0.0
 20
0.0
 30
0.0
 70
   128
 71
   35
 72
   50
 73
   49
  0
VERTEX
  8
carrotLeaf
 10
0.0
 20
0.0
 30
0.0
 70
   128
 71
   36
 72
   51
 73
   50
  0
VERTEX
  8
carrotLeaf
 10
0.0
 20
0.0
 30
0.0
 70
   128
 71
   37
 72
   52
 73
   51
  0
VERTEX
  8
carrotLeaf
 10
0.0
 20
0.0
 30
0.0
 70
   128
 71
   38
 72
   53
 73
   52
  0
VERTEX
  8
carrotLeaf
 10
0.0
 20
0.0
 30
0.0
 70
   128
 71
   39
 72
   54
 73
   53
  0
VERTEX
  8
carrotLeaf
 10
0.0
 20
0.0
 30
0.0
 70
   128
 71
   40
 72
   55
 73
   54
  0
VERTEX
  8
carrotLeaf
 10
0.0
 20
0.0
 30
0.0
 70
   128
 71
   41
 72
   56
 73
   55
  0
VERTEX
  8
carrotLeaf
 10
0.0
 20
0.0
 30
0.0
 70
   128
 71
   42
 72
   43
 73
   56
  0
VERTEX
  8
carrotLeaf
 10
0.0
 20
0.0
 30
0.0
 70
   128
 71
   71
 72
   86
 73
   72
  0
VERTEX
  8
carrotLeaf
 10
0.0
 20
0.0
 30
0.0
 70
   128
 71
   72
 72
   87
 73
   73
  0
VERTEX
  8
carrotLeaf
 10
0.0
 20
0.0
 30
0.0
 70
   128
 71
   73
 72
   88
 73
   74
  0
VERTEX
  8
carrotLeaf
 10
0.0
 20
0.0
 30
0.0
 70
   128
 71
   74
 72
   89
 73
   75
  0
VERTEX
  8
carrotLeaf
 10
0.0
 20
0.0
 30
0.0
 70
   128
 71
   75
 72
   90
 73
   76
  0
VERTEX
  8
carrotLeaf
 10
0.0
 20
0.0
 30
0.0
 70
   128
 71
   76
 72
   91
 73
   77
  0
VERTEX
  8
carrotLeaf
 10
0.0
 20
0.0
 30
0.0
 70
   128
 71
   77
 72
   92
 73
   78
  0
VERTEX
  8
carrotLeaf
 10
0.0
 20
0.0
 30
0.0
 70
   128
 71
   78
 72
   93
 73
   79
  0
VERTEX
  8
carrotLeaf
 10
0.0
 20
0.0
 30
0.0
 70
   128
 71
   79
 72
   94
 73
   80
  0
VERTEX
  8
carrotLeaf
 10
0.0
 20
0.0
 30
0.0
 70
   128
 71
   80
 72
   95
 73
   81
  0
VERTEX
  8
carrotLeaf
 10
0.0
 20
0.0
 30
0.0
 70
   128
 71
   81
 72
   96
 73
   82
  0
VERTEX
  8
carrotLeaf
 10
0.0
 20
0.0
 30
0.0
 70
   128
 71
   82
 72
   97
 73
   83
  0
VERTEX
  8
carrotLeaf
 10
0.0
 20
0.0
 30
0.0
 70
   128
 71
   83
 72
   98
 73
   84
  0
VERTEX
  8
carrotLeaf
 10
0.0
 20
0.0
 30
0.0
 70
   128
 71
   84
 72
   85
 73
   71
  0
SEQEND
  0
POLYLINE
  8
carrot_2
 66
   1
 10
0.0
 20
0.0
 30
0.0
 70
   64
 71
   88
 72
   140
  0
VERTEX
  8
carrot_2
 10
23.362065
 20
137.529951
 30
-8.207560
 70
   192
  0
VERTEX
  8
carrot_2
 10
-0.624241
 20
136.903736
 30
-27.699147
 70
   192
  0
VERTEX
  8
carrot_2
 10
-20.505919
 20
125.948876
 30
-36.895051
 70
   192
  0
VERTEX
  8
carrot_2
 10
-36.720273
 20
103.076815
 30
-35.098752
 70
   192
  0
VERTEX
  8
carrot_2
 10
-48.299088
 20
66.795407
 30
-20.511410
 70
   192
  0
VERTEX
  8
carrot_2
 10
-50.844233
 20
26.338071
 30
4.359261
 70
   192
  0
VERTEX
  8
carrot_2
 10
-43.049443
 20
4.753182
 30
25.225276
 70
   192
  0
VERTEX
  8
carrot_2
 10
-37.034609
 20
1.748911
 30
32.221453
 70
   192
  0
VERTEX
  8
carrot_2
 10
23.157224
 20
137.786214
 30
-7.651177
 70
   192
  0
VERTEX
  8
carrot_2
 10
-6.811291
 20
144.643940
 30
-10.894121
 70
   192
  0
VERTEX
  8
carrot_2
 10
-30.474826
 20
138.420307
 30
-9.817894
 70
   192
  0
VERTEX
  8
carrot_2
 10
-48.201923
 20
117.440737
 30
-3.912742
 70
   192
  0
VERTEX
  8
carrot_2
 10
-58.611800
 20
79.696950
 30
7.499578
 70
   192
  0
VERTEX
  8
carrot_2
 10
-57.237566
 20
34.336342
 30
21.724586
 70
   192
  0
VERTEX
  8
carrot_2
 10
-45.042072
 20
7.246025
 30
30.637575
 70
   192
  0
VERTEX
  8
carrot_2
 10
-37.170690
 20
1.919152
 30
32.591069
 70
   192
  0
VERTEX
  8
carrot_2
 10
23.319049
 20
137.896167
 30
-7.035616
 70
   192
  0
VERTEX
  8
carrot_2
 10
-1.923510
 20
147.964965
 30
7.698342
 70
   192
  0
VERTEX
  8
carrot_2
 10
-22.599371
 20
143.771320
 30
20.139277
 70
   192
  0
VERTEX
  8
carrot_2
 10
-39.131398
 20
123.603745
 30
30.590312
 70
   192
  0
VERTEX
  8
carrot_2
 10
-50.464738
 20
85.232507
 30
38.489903
 70
   192
  0
VERTEX
  8
carrot_2
 10
-52.186821
 20
37.768093
 30
40.936941
 70
   192
  0
VERTEX
  8
carrot_2
 10
-43.467892
 20
8.315608
 30
36.625543
 70
   192
  0
VERTEX
  8
carrot_2
 10
-37.063186
 20
1.992196
 30
33.000000
 70
   192
  0
VERTEX
  8
carrot_2
 10
23.785729
 20
137.817811
 30
-6.596000
 70
   192
  0
VERTEX
  8
carrot_2
 10
12.172138
 20
145.598292
 30
20.976552
 70
   192
  0
VERTEX
  8
carrot_2
 10
0.112291
 20
139.958009
 30
41.533839
 70
   192
  0
VERTEX
  8
carrot_2
 10
-12.973331
 20
119.211779
 30
55.231415
 70
   192
  0
VERTEX
  8
carrot_2
 10
-26.969803
 20
81.287683
 30
60.622315
 70
   192
  0
VERTEX
  8
carrot_2
 10
-37.621209
 20
35.322512
 30
54.657861
 70
   192
  0
VERTEX
  8
carrot_2
 10
-38.928187
 20
7.553387
 30
40.901981
 70
   192
  0
VERTEX
  8
carrot_2
 10
-36.753161
 20
1.940142
 30
33.292046
 70
   192
  0
VERTEX
  8
carrot_2
 10
24.379008
 20
137.581075
 30
-6.500247
 70
   192
  0
VERTEX
  8
carrot_2
 10
30.091593
 20
138.447909
 30
23.868684
 70
   192
  0
VERTEX
  8
carrot_2
 10
28.985075
 20
128.436929
 30
46.193797
 70
   192
  0
VERTEX
  8
carrot_2
 10
20.280785
 20
105.942421
 30
60.598503
 70
   192
  0
VERTEX
  8
carrot_2
 10
2.898739
 20
69.369268
 30
65.442985
 70
   192
  0
VERTEX
  8
carrot_2
 10
-19.104299
 20
27.933728
 30
57.646420
 70
   192
  0
VERTEX
  8
carrot_2
 10
-33.156970
 20
5.250504
 30
41.833433
 70
   192
  0
VERTEX
  8
carrot_2
 10
-36.359033
 20
1.782874
 30
33.355656
 70
   192
  0
VERTEX
  8
carrot_2
 10
24.872274
 20
137.276385
 30
-6.784932
 70
   192
  0
VERTEX
  8
carrot_2
 10
44.990233
 20
129.245020
 30
15.270042
 70
   192
  0
VERTEX
  8
carrot_2
 10
52.990561
 20
113.608742
 30
32.339205
 70
   192
  0
VERTEX
  8
carrot_2
 10
47.929010
 20
88.864115
 30
44.641532
 70
   192
  0
VERTEX
  8
carrot_2
 10
27.732120
 20
54.029690
 30
51.110580
 70
   192
  0
VERTEX
  8
carrot_2
 10
-3.708922
 20
18.424004
 30
48.761091
 70
   192
  0
VERTEX
  8
carrot_2
 10
-28.358650
 20
2.286582
 30
39.064118
 70
   192
  0
VERTEX
  8
carrot_2
 10
-36.031347
 20
1.580462
 30
33.166535
 70
   192
  0
VERTEX
  8
carrot_2
 10
25.077115
 20
137.020122
 30
-7.341314
 70
   192
  0
VERTEX
  8
carrot_2
 10
51.177284
 20
121.504815
 30
-1.534984
 70
   192
  0
VERTEX
  8
carrot_2
 10
62.959468
 20
101.137311
 30
5.262047
 70
   192
  0
VERTEX
  8
carrot_2
 10
59.410659
 20
74.500193
 30
13.455522
 70
   192
  0
VERTEX
  8
carrot_2
 10
38.044833
 20
41.128147
 30
23.099592
 70
   192
  0
VERTEX
  8
carrot_2
 10
2.684412
 20
10.425733
 30
31.395766
 70
   192
  0
VERTEX
  8
carrot_2
 10
-26.366022
 20
-0.206261
 30
33.651818
 70
   192
  0
VERTEX
  8
carrot_2
 10
-35.895266
 20
1.410221
 30
32.796918
 70
   192
  0
VERTEX
  8
carrot_2
 10
24.915290
 20
136.910169
 30
-7.956875
 70
   192
  0
VERTEX
  8
carrot_2
 10
46.289502
 20
118.183791
 30
-20.127447
 70
   192
  0
VERTEX
  8
carrot_2
 10
55.084013
 20
95.786298
 30
-24.695123
 70
   192
  0
VERTEX
  8
carrot_2
 10
50.340135
 20
68.337185
 30
-21.047532
 70
   192
  0
VERTEX
  8
carrot_2
 10
29.897771
 20
35.592590
 30
-7.890734
 70
   192
  0
VERTEX
  8
carrot_2
 10
-2.366334
 20
6.993982
 30
12.183410
 70
   192
  0
VERTEX
  8
carrot_2
 10
-27.940202
 20
-1.275845
 30
27.663850
 70
   192
  0
VERTEX
  8
carrot_2
 10
-36.002770
 20
1.337177
 30
32.387988
 70
   192
  0
VERTEX
  8
carrot_2
 10
24.448610
 20
136.988525
 30
-8.396491
 70
   192
  0
VERTEX
  8
carrot_2
 10
32.193855
 20
120.550464
 30
-33.405657
 70
   192
  0
VERTEX
  8
carrot_2
 10
32.372352
 20
99.599609
 30
-46.089685
 70
   192
  0
VERTEX
  8
carrot_2
 10
24.182068
 20
72.729151
 30
-45.688635
 70
   192
  0
VERTEX
  8
carrot_2
 10
6.402835
 20
39.537414
 30
-30.023146
 70
   192
  0
VERTEX
  8
carrot_2
 10
-16.931946
 20
9.439563
 30
-1.537510
 70
   192
  0
VERTEX
  8
carrot_2
 10
-32.479907
 20
-0.513624
 30
23.387413
 70
   192
  0
VERTEX
  8
carrot_2
 10
-36.312795
 20
1.389230
 30
32.095942
 70
   192
  0
VERTEX
  8
carrot_2
 10
23.855331
 20
137.225260
 30
-8.492244
 70
   192
  0
VERTEX
  8
carrot_2
 10
14.274399
 20
127.700847
 30
-36.297789
 70
   192
  0
VERTEX
  8
carrot_2
 10
3.499567
 20
111.120689
 30
-50.749643
 70
   192
  0
VERTEX
  8
carrot_2
 10
-9.072049
 20
85.998509
 30
-51.055723
 70
   192
  0
VERTEX
  8
carrot_2
 10
-23.465707
 20
51.455829
 30
-34.843815
 70
   192
  0
VERTEX
  8
carrot_2
 10
-35.448856
 20
16.828347
 30
-4.526069
 70
   192
  0
VERTEX
  8
carrot_2
 10
-38.251123
 20
1.789260
 30
22.455960
 70
   192
  0
VERTEX
  8
carrot_2
 10
-36.706923
 20
1.546499
 30
32.032331
 70
   192
  0
VERTEX
  8
carrot_2
 10
-37.276787
 20
0.000000
 30
33.186884
 70
   192
  0
VERTEX
  8
carrot_2
 10
-37.276787
 20
0.000000
 30
33.186884
 70
   192
  0
VERTEX
  8
carrot_2
 10
-37.276787
 20
0.000000
 30
33.186884
 70
   192
  0
VERTEX
  8
carrot_2
 10
-37.276787
 20
0.000000
 30
33.186884
 70
   192
  0
VERTEX
  8
carrot_2
 10
-37.276787
 20
0.000000
 30
33.186884
 70
   192
  0
VERTEX
  8
carrot_2
 10
-37.276787
 20
0.000000
 30
33.186884
 70
   192
  0
VERTEX
  8
carrot_2
 10
-37.276787
 20
0.000000
 30
33.186884
 70
   192
  0
VERTEX
  8
carrot_2
 10
-37.276787
 20
0.000000
 30
33.186884
 70
   192
  0
VERTEX
  8
carrot_2
 10
0.0
 20
0.0
 30
0.0
 70
   128
 71
   1
 72
   2
 73
   10
  0
VERTEX
  8
carrot_2
 10
0.0
 20
0.0
 30
0.0
 70
   128
 71
   2
 72
   3
 73
   11
  0
VERTEX
  8
carrot_2
 10
0.0
 20
0.0
 30
0.0
 70
   128
 71
   3
 72
   4
 73
   12
  0
VERTEX
  8
carrot_2
 10
0.0
 20
0.0
 30
0.0
 70
   128
 71
   4
 72
   5
 73
   13
  0
VERTEX
  8
carrot_2
 10
0.0
 20
0.0
 30
0.0
 70
   128
 71
   5
 72
   6
 73
   14
  0
VERTEX
  8
carrot_2
 10
0.0
 20
0.0
 30
0.0
 70
   128
 71
   6
 72
   7
 73
   15
  0
VERTEX
  8
carrot_2
 10
0.0
 20
0.0
 30
0.0
 70
   128
 71
   7
 72
   8
 73
   16
  0
VERTEX
  8
carrot_2
 10
0.0
 20
0.0
 30
0.0
 70
   128
 71
   9
 72
   10
 73
   18
  0
VERTEX
  8
carrot_2
 10
0.0
 20
0.0
 30
0.0
 70
   128
 71
   10
 72
   11
 73
   19
  0
VERTEX
  8
carrot_2
 10
0.0
 20
0.0
 30
0.0
 70
   128
 71
   11
 72
   12
 73
   20
  0
VERTEX
  8
carrot_2
 10
0.0
 20
0.0
 30
0.0
 70
   128
 71
   12
 72
   13
 73
   21
  0
VERTEX
  8
carrot_2
 10
0.0
 20
0.0
 30
0.0
 70
   128
 71
   13
 72
   14
 73
   22
  0
VERTEX
  8
carrot_2
 10
0.0
 20
0.0
 30
0.0
 70
   128
 71
   14
 72
   15
 73
   23
  0
VERTEX
  8
carrot_2
 10
0.0
 20
0.0
 30
0.0
 70
   128
 71
   15
 72
   16
 73
   24
  0
VERTEX
  8
carrot_2
 10
0.0
 20
0.0
 30
0.0
 70
   128
 71
   17
 72
   18
 73
   26
  0
VERTEX
  8
carrot_2
 10
0.0
 20
0.0
 30
0.0
 70
   128
 71
   18
 72
   19
 73
   27
  0
VERTEX
  8
carrot_2
 10
0.0
 20
0.0
 30
0.0
 70
   128
 71
   19
 72
   20
 73
   28
  0
VERTEX
  8
carrot_2
 10
0.0
 20
0.0
 30
0.0
 70
   128
 71
   20
 72
   21
 73
   29
  0
VERTEX
  8
carrot_2
 10
0.0
 20
0.0
 30
0.0
 70
   128
 71
   21
 72
   22
 73
   30
  0
VERTEX
  8
carrot_2
 10
0.0
 20
0.0
 30
0.0
 70
   128
 71
   22
 72
   23
 73
   31
  0
VERTEX
  8
carrot_2
 10
0.0
 20
0.0
 30
0.0
 70
   128
 71
   23
 72
   24
 73
   32
  0
VERTEX
  8
carrot_2
 10
0.0
 20
0.0
 30
0.0
 70
   128
 71
   25
 72
   26
 73
   34
  0
VERTEX
  8
carrot_2
 10
0.0
 20
0.0
 30
0.0
 70
   128
 71
   26
 72
   27
 73
   35
  0
VERTEX
  8
carrot_2
 10
0.0
 20
0.0
 30
0.0
 70
   128
 71
   27
 72
   28
 73
   36
  0
VERTEX
  8
carrot_2
 10
0.0
 20
0.0
 30
0.0
 70
   128
 71
   28
 72
   29
 73
   37
  0
VERTEX
  8
carrot_2
 10
0.0
 20
0.0
 30
0.0
 70
   128
 71
   29
 72
   30
 73
   38
  0
VERTEX
  8
carrot_2
 10
0.0
 20
0.0
 30
0.0
 70
   128
 71
   30
 72
   31
 73
   39
  0
VERTEX
  8
carrot_2
 10
0.0
 20
0.0
 30
0.0
 70
   128
 71
   31
 72
   32
 73
   40
  0
VERTEX
  8
carrot_2
 10
0.0
 20
0.0
 30
0.0
 70
   128
 71
   33
 72
   34
 73
   42
  0
VERTEX
  8
carrot_2
 10
0.0
 20
0.0
 30
0.0
 70
   128
 71
   34
 72
   35
 73
   43
  0
VERTEX
  8
carrot_2
 10
0.0
 20
0.0
 30
0.0
 70
   128
 71
   35
 72
   36
 73
   44
  0
VERTEX
  8
carrot_2
 10
0.0
 20
0.0
 30
0.0
 70
   128
 71
   36
 72
   37
 73
   45
  0
VERTEX
  8
carrot_2
 10
0.0
 20
0.0
 30
0.0
 70
   128
 71
   37
 72
   38
 73
   46
  0
VERTEX
  8
carrot_2
 10
0.0
 20
0.0
 30
0.0
 70
   128
 71
   38
 72
   39
 73
   47
  0
VERTEX
  8
carrot_2
 10
0.0
 20
0.0
 30
0.0
 70
   128
 71
   39
 72
   40
 73
   48
  0
VERTEX
  8
carrot_2
 10
0.0
 20
0.0
 30
0.0
 70
   128
 71
   41
 72
   42
 73
   50
  0
VERTEX
  8
carrot_2
 10
0.0
 20
0.0
 30
0.0
 70
   128
 71
   42
 72
   43
 73
   51
  0
VERTEX
  8
carrot_2
 10
0.0
 20
0.0
 30
0.0
 70
   128
 71
   43
 72
   44
 73
   52
  0
VERTEX
  8
carrot_2
 10
0.0
 20
0.0
 30
0.0
 70
   128
 71
   44
 72
   45
 73
   53
  0
VERTEX
  8
carrot_2
 10
0.0
 20
0.0
 30
0.0
 70
   128
 71
   45
 72
   46
 73
   54
  0
VERTEX
  8
carrot_2
 10
0.0
 20
0.0
 30
0.0
 70
   128
 71
   46
 72
   47
 73
   55
  0
VERTEX
  8
carrot_2
 10
0.0
 20
0.0
 30
0.0
 70
   128
 71
   47
 72
   48
 73
   56
  0
VERTEX
  8
carrot_2
 10
0.0
 20
0.0
 30
0.0
 70
   128
 71
   49
 72
   50
 73
   58
  0
VERTEX
  8
carrot_2
 10
0.0
 20
0.0
 30
0.0
 70
   128
 71
   50
 72
   51
 73
   59
  0
VERTEX
  8
carrot_2
 10
0.0
 20
0.0
 30
0.0
 70
   128
 71
   51
 72
   52
 73
   60
  0
VERTEX
  8
carrot_2
 10
0.0
 20
0.0
 30
0.0
 70
   128
 71
   52
 72
   53
 73
   61
  0
VERTEX
  8
carrot_2
 10
0.0
 20
0.0
 30
0.0
 70
   128
 71
   53
 72
   54
 73
   62
  0
VERTEX
  8
carrot_2
 10
0.0
 20
0.0
 30
0.0
 70
   128
 71
   54
 72
   55
 73
   63
  0
VERTEX
  8
carrot_2
 10
0.0
 20
0.0
 30
0.0
 70
   128
 71
   55
 72
   56
 73
   64
  0
VERTEX
  8
carrot_2
 10
0.0
 20
0.0
 30
0.0
 70
   128
 71
   57
 72
   58
 73
   66
  0
VERTEX
  8
carrot_2
 10
0.0
 20
0.0
 30
0.0
 70
   128
 71
   58
 72
   59
 73
   67
  0
VERTEX
  8
carrot_2
 10
0.0
 20
0.0
 30
0.0
 70
   128
 71
   59
 72
   60
 73
   68
  0
VERTEX
  8
carrot_2
 10
0.0
 20
0.0
 30
0.0
 70
   128
 71
   60
 72
   61
 73
   69
  0
VERTEX
  8
carrot_2
 10
0.0
 20
0.0
 30
0.0
 70
   128
 71
   61
 72
   62
 73
   70
  0
VERTEX
  8
carrot_2
 10
0.0
 20
0.0
 30
0.0
 70
   128
 71
   62
 72
   63
 73
   71
  0
VERTEX
  8
carrot_2
 10
0.0
 20
0.0
 30
0.0
 70
   128
 71
   63
 72
   64
 73
   72
  0
VERTEX
  8
carrot_2
 10
0.0
 20
0.0
 30
0.0
 70
   128
 71
   65
 72
   66
 73
   74
  0
VERTEX
  8
carrot_2
 10
0.0
 20
0.0
 30
0.0
 70
   128
 71
   66
 72
   67
 73
   75
  0
VERTEX
  8
carrot_2
 10
0.0
 20
0.0
 30
0.0
 70
   128
 71
   67
 72
   68
 73
   76
  0
VERTEX
  8
carrot_2
 10
0.0
 20
0.0
 30
0.0
 70
   128
 71
   68
 72
   69
 73
   77
  0
VERTEX
  8
carrot_2
 10
0.0
 20
0.0
 30
0.0
 70
   128
 71
   69
 72
   70
 73
   78
  0
VERTEX
  8
carrot_2
 10
0.0
 20
0.0
 30
0.0
 70
   128
 71
   70
 72
   71
 73
   79
  0
VERTEX
  8
carrot_2
 10
0.0
 20
0.0
 30
0.0
 70
   128
 71
   71
 72
   72
 73
   80
  0
VERTEX
  8
carrot_2
 10
0.0
 20
0.0
 30
0.0
 70
   128
 71
   73
 72
   74
 73
   2
  0
VERTEX
  8
carrot_2
 10
0.0
 20
0.0
 30
0.0
 70
   128
 71
   74
 72
   75
 73
   3
  0
VERTEX
  8
carrot_2
 10
0.0
 20
0.0
 30
0.0
 70
   128
 71
   75
 72
   76
 73
   4
  0
VERTEX
  8
carrot_2
 10
0.0
 20
0.0
 30
0.0
 70
   128
 71
   76
 72
   77
 73
   5
  0
VERTEX
  8
carrot_2
 10
0.0
 20
0.0
 30
0.0
 70
   128
 71
   77
 72
   78
 73
   6
  0
VERTEX
  8
carrot_2
 10
0.0
 20
0.0
 30
0.0
 70
   128
 71
   78
 72
   79
 73
   7
  0
VERTEX
  8
carrot_2
 10
0.0
 20
0.0
 30
0.0
 70
   128
 71
   79
 72
   80
 73
   8
  0
VERTEX
  8
carrot_2
 10
0.0
 20
0.0
 30
0.0
 70
   128
 71
   1
 72
   10
 73
   9
  0
VERTEX
  8
carrot_2
 10
0.0
 20
0.0
 30
0.0
 70
   128
 71
   2
 72
   11
 73
   10
  0
VERTEX
  8
carrot_2
 10
0.0
 20
0.0
 30
0.0
 70
   128
 71
   3
 72
   12
 73
   11
  0
VERTEX
  8
carrot_2
 10
0.0
 20
0.0
 30
0.0
 70
   128
 71
   4
 72
   13
 73
   12
  0
VERTEX
  8
carrot_2
 10
0.0
 20
0.0
 30
0.0
 70
   128
 71
   5
 72
   14
 73
   13
  0
VERTEX
  8
carrot_2
 10
0.0
 20
0.0
 30
0.0
 70
   128
 71
   6
 72
   15
 73
   14
  0
VERTEX
  8
carrot_2
 10
0.0
 20
0.0
 30
0.0
 70
   128
 71
   7
 72
   16
 73
   15
  0
VERTEX
  8
carrot_2
 10
0.0
 20
0.0
 30
0.0
 70
   128
 71
   9
 72
   18
 73
   17
  0
VERTEX
  8
carrot_2
 10
0.0
 20
0.0
 30
0.0
 70
   128
 71
   10
 72
   19
 73
   18
  0
VERTEX
  8
carrot_2
 10
0.0
 20
0.0
 30
0.0
 70
   128
 71
   11
 72
   20
 73
   19
  0
VERTEX
  8
carrot_2
 10
0.0
 20
0.0
 30
0.0
 70
   128
 71
   12
 72
   21
 73
   20
  0
VERTEX
  8
carrot_2
 10
0.0
 20
0.0
 30
0.0
 70
   128
 71
   13
 72
   22
 73
   21
  0
VERTEX
  8
carrot_2
 10
0.0
 20
0.0
 30
0.0
 70
   128
 71
   14
 72
   23
 73
   22
  0
VERTEX
  8
carrot_2
 10
0.0
 20
0.0
 30
0.0
 70
   128
 71
   15
 72
   24
 73
   23
  0
VERTEX
  8
carrot_2
 10
0.0
 20
0.0
 30
0.0
 70
   128
 71
   17
 72
   26
 73
   25
  0
VERTEX
  8
carrot_2
 10
0.0
 20
0.0
 30
0.0
 70
   128
 71
   18
 72
   27
 73
   26
  0
VERTEX
  8
carrot_2
 10
0.0
 20
0.0
 30
0.0
 70
   128
 71
   19
 72
   28
 73
   27
  0
VERTEX
  8
carrot_2
 10
0.0
 20
0.0
 30
0.0
 70
   128
 71
   20
 72
   29
 73
   28
  0
VERTEX
  8
carrot_2
 10
0.0
 20
0.0
 30
0.0
 70
   128
 71
   21
 72
   30
 73
   29
  0
VERTEX
  8
carrot_2
 10
0.0
 20
0.0
 30
0.0
 70
   128
 71
   22
 72
   31
 73
   30
  0
VERTEX
  8
carrot_2
 10
0.0
 20
0.0
 30
0.0
 70
   128
 71
   23
 72
   32
 73
   31
  0
VERTEX
  8
carrot_2
 10
0.0
 20
0.0
 30
0.0
 70
   128
 71
   25
 72
   34
 73
   33
  0
VERTEX
  8
carrot_2
 10
0.0
 20
0.0
 30
0.0
 70
   128
 71
   26
 72
   35
 73
   34
  0
VERTEX
  8
carrot_2
 10
0.0
 20
0.0
 30
0.0
 70
   128
 71
   27
 72
   36
 73
   35
  0
VERTEX
  8
carrot_2
 10
0.0
 20
0.0
 30
0.0
 70
   128
 71
   28
 72
   37
 73
   36
  0
VERTEX
  8
carrot_2
 10
0.0
 20
0.0
 30
0.0
 70
   128
 71
   29
 72
   38
 73
   37
  0
VERTEX
  8
carrot_2
 10
0.0
 20
0.0
 30
0.0
 70
   128
 71
   30
 72
   39
 73
   38
  0
VERTEX
  8
carrot_2
 10
0.0
 20
0.0
 30
0.0
 70
   128
 71
   31
 72
   40
 73
   39
  0
VERTEX
  8
carrot_2
 10
0.0
 20
0.0
 30
0.0
 70
   128
 71
   33
 72
   42
 73
   41
  0
VERTEX
  8
carrot_2
 10
0.0
 20
0.0
 30
0.0
 70
   128
 71
   34
 72
   43
 73
   42
  0
VERTEX
  8
carrot_2
 10
0.0
 20
0.0
 30
0.0
 70
   128
 71
   35
 72
   44
 73
   43
  0
VERTEX
  8
carrot_2
 10
0.0
 20
0.0
 30
0.0
 70
   128
 71
   36
 72
   45
 73
   44
  0
VERTEX
  8
carrot_2
 10
0.0
 20
0.0
 30
0.0
 70
   128
 71
   37
 72
   46
 73
   45
  0
VERTEX
  8
carrot_2
 10
0.0
 20
0.0
 30
0.0
 70
   128
 71
   38
 72
   47
 73
   46
  0
VERTEX
  8
carrot_2
 10
0.0
 20
0.0
 30
0.0
 70
   128
 71
   39
 72
   48
 73
   47
  0
VERTEX
  8
carrot_2
 10
0.0
 20
0.0
 30
0.0
 70
   128
 71
   41
 72
   50
 73
   49
  0
VERTEX
  8
carrot_2
 10
0.0
 20
0.0
 30
0.0
 70
   128
 71
   42
 72
   51
 73
   50
  0
VERTEX
  8
carrot_2
 10
0.0
 20
0.0
 30
0.0
 70
   128
 71
   43
 72
   52
 73
   51
  0
VERTEX
  8
carrot_2
 10
0.0
 20
0.0
 30
0.0
 70
   128
 71
   44
 72
   53
 73
   52
  0
VERTEX
  8
carrot_2
 10
0.0
 20
0.0
 30
0.0
 70
   128
 71
   45
 72
   54
 73
   53
  0
VERTEX
  8
carrot_2
 10
0.0
 20
0.0
 30
0.0
 70
   128
 71
   46
 72
   55
 73
   54
  0
VERTEX
  8
carrot_2
 10
0.0
 20
0.0
 30
0.0
 70
   128
 71
   47
 72
   56
 73
   55
  0
VERTEX
  8
carrot_2
 10
0.0
 20
0.0
 30
0.0
 70
   128
 71
   49
 72
   58
 73
   57
  0
VERTEX
  8
carrot_2
 10
0.0
 20
0.0
 30
0.0
 70
   128
 71
   50
 72
   59
 73
   58
  0
VERTEX
  8
carrot_2
 10
0.0
 20
0.0
 30
0.0
 70
   128
 71
   51
 72
   60
 73
   59
  0
VERTEX
  8
carrot_2
 10
0.0
 20
0.0
 30
0.0
 70
   128
 71
   52
 72
   61
 73
   60
  0
VERTEX
  8
carrot_2
 10
0.0
 20
0.0
 30
0.0
 70
   128
 71
   53
 72
   62
 73
   61
  0
VERTEX
  8
carrot_2
 10
0.0
 20
0.0
 30
0.0
 70
   128
 71
   54
 72
   63
 73
   62
  0
VERTEX
  8
carrot_2
 10
0.0
 20
0.0
 30
0.0
 70
   128
 71
   55
 72
   64
 73
   63
  0
VERTEX
  8
carrot_2
 10
0.0
 20
0.0
 30
0.0
 70
   128
 71
   57
 72
   66
 73
   65
  0
VERTEX
  8
carrot_2
 10
0.0
 20
0.0
 30
0.0
 70
   128
 71
   58
 72
   67
 73
   66
  0
VERTEX
  8
carrot_2
 10
0.0
 20
0.0
 30
0.0
 70
   128
 71
   59
 72
   68
 73
   67
  0
VERTEX
  8
carrot_2
 10
0.0
 20
0.0
 30
0.0
 70
   128
 71
   60
 72
   69
 73
   68
  0
VERTEX
  8
carrot_2
 10
0.0
 20
0.0
 30
0.0
 70
   128
 71
   61
 72
   70
 73
   69
  0
VERTEX
  8
carrot_2
 10
0.0
 20
0.0
 30
0.0
 70
   128
 71
   62
 72
   71
 73
   70
  0
VERTEX
  8
carrot_2
 10
0.0
 20
0.0
 30
0.0
 70
   128
 71
   63
 72
   72
 73
   71
  0
VERTEX
  8
carrot_2
 10
0.0
 20
0.0
 30
0.0
 70
   128
 71
   65
 72
   74
 73
   73
  0
VERTEX
  8
carrot_2
 10
0.0
 20
0.0
 30
0.0
 70
   128
 71
   66
 72
   75
 73
   74
  0
VERTEX
  8
carrot_2
 10
0.0
 20
0.0
 30
0.0
 70
   128
 71
   67
 72
   76
 73
   75
  0
VERTEX
  8
carrot_2
 10
0.0
 20
0.0
 30
0.0
 70
   128
 71
   68
 72
   77
 73
   76
  0
VERTEX
  8
carrot_2
 10
0.0
 20
0.0
 30
0.0
 70
   128
 71
   69
 72
   78
 73
   77
  0
VERTEX
  8
carrot_2
 10
0.0
 20
0.0
 30
0.0
 70
   128
 71
   70
 72
   79
 73
   78
  0
VERTEX
  8
carrot_2
 10
0.0
 20
0.0
 30
0.0
 70
   128
 71
   71
 72
   80
 73
   79
  0
VERTEX
  8
carrot_2
 10
0.0
 20
0.0
 30
0.0
 70
   128
 71
   73
 72
   2
 73
   1
  0
VERTEX
  8
carrot_2
 10
0.0
 20
0.0
 30
0.0
 70
   128
 71
   74
 72
   3
 73
   2
  0
VERTEX
  8
carrot_2
 10
0.0
 20
0.0
 30
0.0
 70
   128
 71
   75
 72
   4
 73
   3
  0
VERTEX
  8
carrot_2
 10
0.0
 20
0.0
 30
0.0
 70
   128
 71
   76
 72
   5
 73
   4
  0
VERTEX
  8
carrot_2
 10
0.0
 20
0.0
 30
0.0
 70
   128
 71
   77
 72
   6
 73
   5
  0
VERTEX
  8
carrot_2
 10
0.0
 20
0.0
 30
0.0
 70
   128
 71
   78
 72
   7
 73
   6
  0
VERTEX
  8
carrot_2
 10
0.0
 20
0.0
 30
0.0
 70
   128
 71
   79
 72
   8
 73
   7
  0
SEQEND
  0
ENDSEC
  0
EOF
