999
FBX AutoCAD (*.DXF) exporter
  0
SECTION
  2
HEADER
  9
$ACADVER
  1
AC1008
  9
$UCSORG
 10
0.0
 20
0.0
 30
0.0
  9
$UCSXDIR
 10
1.0
 20
0.0
 30
0.0
  9
$TILEMODE
 70
   1
  9
$UCSYDIR
 10
0.0
 20
1.0
 30
0.0
  0
ENDSEC
  0
SECTION
  2
TABLES
  0
TABLE
  2
LTYPE
 70
   1
  0
LTYPE
  2
CONTINUOUS
 70
   64
  3
Solid line
 72
   65
 73
   0
 40
0.0
  0
ENDTAB
  0
TABLE
  2
LAYER
 70
   1
  0
LAYER
  2
coffeeCup01
 70
   0
 62
   250
  6
CONTINUOUS
  0
ENDTAB
  0
ENDSEC
  0
SECTION
  2
BLOCKS
  0
ENDSEC
  0
SECTION
  2
ENTITIES
  0
POLYLINE
  8
coffeeCup01
 66
   1
 10
0.0
 20
0.0
 30
0.0
 70
   64
 71
   90
 72
   156
  0
VERTEX
  8
coffeeCup01
 10
29.230553
 20
18.524536
 30
21.237240
 70
   192
  0
VERTEX
  8
coffeeCup01
 10
11.165078
 20
18.524536
 30
34.362576
 70
   192
  0
VERTEX
  8
coffeeCup01
 10
38.050000
 20
0.000000
 30
0.000000
 70
   192
  0
VERTEX
  8
coffeeCup01
 10
50.000000
 20
150.724536
 30
0.000000
 70
   192
  0
VERTEX
  8
coffeeCup01
 10
30.783097
 20
0.000000
 30
-22.365229
 70
   192
  0
VERTEX
  8
coffeeCup01
 10
40.450850
 20
150.724536
 30
-29.389263
 70
   192
  0
VERTEX
  8
coffeeCup01
 10
11.758097
 20
0.000000
 30
-36.187700
 70
   192
  0
VERTEX
  8
coffeeCup01
 10
15.450850
 20
150.724536
 30
-47.552826
 70
   192
  0
VERTEX
  8
coffeeCup01
 10
-11.758097
 20
0.000000
 30
-36.187700
 70
   192
  0
VERTEX
  8
coffeeCup01
 10
-15.450850
 20
150.724536
 30
-47.552826
 70
   192
  0
VERTEX
  8
coffeeCup01
 10
-30.783097
 20
0.000000
 30
-22.365229
 70
   192
  0
VERTEX
  8
coffeeCup01
 10
-40.450850
 20
150.724536
 30
-29.389263
 70
   192
  0
VERTEX
  8
coffeeCup01
 10
-38.050000
 20
0.000000
 30
-0.000000
 70
   192
  0
VERTEX
  8
coffeeCup01
 10
-50.000000
 20
150.724536
 30
-0.000000
 70
   192
  0
VERTEX
  8
coffeeCup01
 10
-30.783097
 20
0.000000
 30
22.365229
 70
   192
  0
VERTEX
  8
coffeeCup01
 10
-40.450850
 20
150.724536
 30
29.389263
 70
   192
  0
VERTEX
  8
coffeeCup01
 10
-11.758097
 20
0.000000
 30
36.187700
 70
   192
  0
VERTEX
  8
coffeeCup01
 10
-15.450850
 20
150.724536
 30
47.552826
 70
   192
  0
VERTEX
  8
coffeeCup01
 10
11.758097
 20
0.000000
 30
36.187700
 70
   192
  0
VERTEX
  8
coffeeCup01
 10
15.450850
 20
150.724536
 30
47.552826
 70
   192
  0
VERTEX
  8
coffeeCup01
 10
30.783097
 20
0.000000
 30
22.365229
 70
   192
  0
VERTEX
  8
coffeeCup01
 10
40.450850
 20
150.724536
 30
29.389263
 70
   192
  0
VERTEX
  8
coffeeCup01
 10
55.140308
 20
150.724536
 30
-0.000000
 70
   192
  0
VERTEX
  8
coffeeCup01
 10
44.609446
 20
150.724536
 30
-32.410660
 70
   192
  0
VERTEX
  8
coffeeCup01
 10
17.039292
 20
150.724536
 30
-52.441549
 70
   192
  0
VERTEX
  8
coffeeCup01
 10
-17.039292
 20
150.724536
 30
-52.441549
 70
   192
  0
VERTEX
  8
coffeeCup01
 10
-44.609446
 20
150.724536
 30
-32.410660
 70
   192
  0
VERTEX
  8
coffeeCup01
 10
-55.140308
 20
150.724536
 30
-0.000000
 70
   192
  0
VERTEX
  8
coffeeCup01
 10
-44.609446
 20
150.724536
 30
32.410660
 70
   192
  0
VERTEX
  8
coffeeCup01
 10
-17.039292
 20
150.724536
 30
52.441549
 70
   192
  0
VERTEX
  8
coffeeCup01
 10
17.039292
 20
150.724536
 30
52.441549
 70
   192
  0
VERTEX
  8
coffeeCup01
 10
44.609446
 20
150.724536
 30
32.410660
 70
   192
  0
VERTEX
  8
coffeeCup01
 10
36.130950
 20
18.524536
 30
-0.000000
 70
   192
  0
VERTEX
  8
coffeeCup01
 10
29.230553
 20
18.524536
 30
-21.237240
 70
   192
  0
VERTEX
  8
coffeeCup01
 10
11.165078
 20
18.524536
 30
-34.362576
 70
   192
  0
VERTEX
  8
coffeeCup01
 10
-11.165078
 20
18.524536
 30
-34.362576
 70
   192
  0
VERTEX
  8
coffeeCup01
 10
-29.230553
 20
18.524536
 30
-21.237240
 70
   192
  0
VERTEX
  8
coffeeCup01
 10
-36.130950
 20
18.524536
 30
-0.000000
 70
   192
  0
VERTEX
  8
coffeeCup01
 10
-29.230553
 20
18.524536
 30
21.237240
 70
   192
  0
VERTEX
  8
coffeeCup01
 10
-11.165078
 20
18.524536
 30
34.362576
 70
   192
  0
VERTEX
  8
coffeeCup01
 10
51.997310
 20
172.612581
 30
-0.000000
 70
   192
  0
VERTEX
  8
coffeeCup01
 10
42.066708
 20
172.612581
 30
-30.563252
 70
   192
  0
VERTEX
  8
coffeeCup01
 10
16.068053
 20
172.612581
 30
-49.452381
 70
   192
  0
VERTEX
  8
coffeeCup01
 10
-16.068053
 20
172.612581
 30
-49.452381
 70
   192
  0
VERTEX
  8
coffeeCup01
 10
-42.066708
 20
172.612581
 30
-30.563252
 70
   192
  0
VERTEX
  8
coffeeCup01
 10
-51.997310
 20
172.612581
 30
-0.000000
 70
   192
  0
VERTEX
  8
coffeeCup01
 10
-42.066708
 20
172.612581
 30
30.563252
 70
   192
  0
VERTEX
  8
coffeeCup01
 10
-16.068053
 20
172.612581
 30
49.452381
 70
   192
  0
VERTEX
  8
coffeeCup01
 10
16.068053
 20
172.612581
 30
49.452381
 70
   192
  0
VERTEX
  8
coffeeCup01
 10
42.066708
 20
172.612581
 30
30.563252
 70
   192
  0
VERTEX
  8
coffeeCup01
 10
41.062103
 20
172.612581
 30
-0.000000
 70
   192
  0
VERTEX
  8
coffeeCup01
 10
33.219939
 20
172.612581
 30
-24.135699
 70
   192
  0
VERTEX
  8
coffeeCup01
 10
12.688888
 20
172.612581
 30
-39.052381
 70
   192
  0
VERTEX
  8
coffeeCup01
 10
-12.688888
 20
172.612581
 30
-39.052381
 70
   192
  0
VERTEX
  8
coffeeCup01
 10
-33.219939
 20
172.612581
 30
-24.135699
 70
   192
  0
VERTEX
  8
coffeeCup01
 10
-41.062103
 20
172.612581
 30
-0.000000
 70
   192
  0
VERTEX
  8
coffeeCup01
 10
-33.219939
 20
172.612581
 30
24.135699
 70
   192
  0
VERTEX
  8
coffeeCup01
 10
-12.688888
 20
172.612581
 30
39.052381
 70
   192
  0
VERTEX
  8
coffeeCup01
 10
12.688888
 20
172.612581
 30
39.052381
 70
   192
  0
VERTEX
  8
coffeeCup01
 10
33.219939
 20
172.612581
 30
24.135699
 70
   192
  0
VERTEX
  8
coffeeCup01
 10
38.393067
 20
167.812581
 30
-0.000000
 70
   192
  0
VERTEX
  8
coffeeCup01
 10
31.060643
 20
167.812581
 30
-22.566878
 70
   192
  0
VERTEX
  8
coffeeCup01
 10
11.864110
 20
167.812581
 30
-36.513976
 70
   192
  0
VERTEX
  8
coffeeCup01
 10
-11.864110
 20
167.812581
 30
-36.513976
 70
   192
  0
VERTEX
  8
coffeeCup01
 10
-31.060643
 20
167.812581
 30
-22.566878
 70
   192
  0
VERTEX
  8
coffeeCup01
 10
-38.393067
 20
167.812581
 30
-0.000000
 70
   192
  0
VERTEX
  8
coffeeCup01
 10
-31.060643
 20
167.812581
 30
22.566878
 70
   192
  0
VERTEX
  8
coffeeCup01
 10
-11.864110
 20
167.812581
 30
36.513976
 70
   192
  0
VERTEX
  8
coffeeCup01
 10
11.864110
 20
167.812581
 30
36.513976
 70
   192
  0
VERTEX
  8
coffeeCup01
 10
31.060643
 20
167.812581
 30
22.566878
 70
   192
  0
VERTEX
  8
coffeeCup01
 10
33.346048
 20
167.812581
 30
-0.000000
 70
   192
  0
VERTEX
  8
coffeeCup01
 10
26.977519
 20
167.812581
 30
-19.600315
 70
   192
  0
VERTEX
  8
coffeeCup01
 10
10.304495
 20
167.812581
 30
-31.713976
 70
   192
  0
VERTEX
  8
coffeeCup01
 10
-10.304495
 20
167.812581
 30
-31.713976
 70
   192
  0
VERTEX
  8
coffeeCup01
 10
-26.977519
 20
167.812581
 30
-19.600315
 70
   192
  0
VERTEX
  8
coffeeCup01
 10
-33.346048
 20
167.812581
 30
-0.000000
 70
   192
  0
VERTEX
  8
coffeeCup01
 10
-26.977519
 20
167.812581
 30
19.600315
 70
   192
  0
VERTEX
  8
coffeeCup01
 10
-10.304495
 20
167.812581
 30
31.713976
 70
   192
  0
VERTEX
  8
coffeeCup01
 10
10.304495
 20
167.812581
 30
31.713976
 70
   192
  0
VERTEX
  8
coffeeCup01
 10
26.977519
 20
167.812581
 30
19.600315
 70
   192
  0
VERTEX
  8
coffeeCup01
 10
30.078135
 20
181.312581
 30
-0.000000
 70
   192
  0
VERTEX
  8
coffeeCup01
 10
24.333723
 20
181.312581
 30
-17.679484
 70
   192
  0
VERTEX
  8
coffeeCup01
 10
9.294655
 20
181.312581
 30
-28.606006
 70
   192
  0
VERTEX
  8
coffeeCup01
 10
-9.294655
 20
181.312581
 30
-28.606006
 70
   192
  0
VERTEX
  8
coffeeCup01
 10
-24.333723
 20
181.312581
 30
-17.679484
 70
   192
  0
VERTEX
  8
coffeeCup01
 10
-30.078135
 20
181.312581
 30
-0.000000
 70
   192
  0
VERTEX
  8
coffeeCup01
 10
-24.333723
 20
181.312581
 30
17.679484
 70
   192
  0
VERTEX
  8
coffeeCup01
 10
-9.294655
 20
181.312581
 30
28.606006
 70
   192
  0
VERTEX
  8
coffeeCup01
 10
9.294655
 20
181.312581
 30
28.606006
 70
   192
  0
VERTEX
  8
coffeeCup01
 10
24.333723
 20
181.312581
 30
17.679484
 70
   192
  0
VERTEX
  8
coffeeCup01
 10
0.0
 20
0.0
 30
0.0
 70
   128
 71
   21
 72
   3
 73
   5
  0
VERTEX
  8
coffeeCup01
 10
0.0
 20
0.0
 30
0.0
 70
   128
 71
   3
 72
   4
 73
   6
  0
VERTEX
  8
coffeeCup01
 10
0.0
 20
0.0
 30
0.0
 70
   128
 71
   19
 72
   20
 73
   22
  0
VERTEX
  8
coffeeCup01
 10
0.0
 20
0.0
 30
0.0
 70
   128
 71
   17
 72
   21
 73
   7
  0
VERTEX
  8
coffeeCup01
 10
0.0
 20
0.0
 30
0.0
 70
   128
 71
   5
 72
   6
 73
   8
  0
VERTEX
  8
coffeeCup01
 10
0.0
 20
0.0
 30
0.0
 70
   128
 71
   21
 72
   22
 73
   4
  0
VERTEX
  8
coffeeCup01
 10
0.0
 20
0.0
 30
0.0
 70
   128
 71
   21
 72
   17
 73
   19
  0
VERTEX
  8
coffeeCup01
 10
0.0
 20
0.0
 30
0.0
 70
   128
 71
   7
 72
   8
 73
   10
  0
VERTEX
  8
coffeeCup01
 10
0.0
 20
0.0
 30
0.0
 70
   128
 71
   4
 72
   23
 73
   24
  0
VERTEX
  8
coffeeCup01
 10
0.0
 20
0.0
 30
0.0
 70
   128
 71
   7
 72
   9
 73
   11
  0
VERTEX
  8
coffeeCup01
 10
0.0
 20
0.0
 30
0.0
 70
   128
 71
   9
 72
   10
 73
   12
  0
VERTEX
  8
coffeeCup01
 10
0.0
 20
0.0
 30
0.0
 70
   128
 71
   6
 72
   24
 73
   25
  0
VERTEX
  8
coffeeCup01
 10
0.0
 20
0.0
 30
0.0
 70
   128
 71
   13
 72
   15
 73
   17
  0
VERTEX
  8
coffeeCup01
 10
0.0
 20
0.0
 30
0.0
 70
   128
 71
   11
 72
   12
 73
   14
  0
VERTEX
  8
coffeeCup01
 10
0.0
 20
0.0
 30
0.0
 70
   128
 71
   8
 72
   25
 73
   26
  0
VERTEX
  8
coffeeCup01
 10
0.0
 20
0.0
 30
0.0
 70
   128
 71
   10
 72
   26
 73
   27
  0
VERTEX
  8
coffeeCup01
 10
0.0
 20
0.0
 30
0.0
 70
   128
 71
   13
 72
   14
 73
   16
  0
VERTEX
  8
coffeeCup01
 10
0.0
 20
0.0
 30
0.0
 70
   128
 71
   12
 72
   27
 73
   28
  0
VERTEX
  8
coffeeCup01
 10
0.0
 20
0.0
 30
0.0
 70
   128
 71
   14
 72
   28
 73
   29
  0
VERTEX
  8
coffeeCup01
 10
0.0
 20
0.0
 30
0.0
 70
   128
 71
   15
 72
   16
 73
   18
  0
VERTEX
  8
coffeeCup01
 10
0.0
 20
0.0
 30
0.0
 70
   128
 71
   16
 72
   29
 73
   30
  0
VERTEX
  8
coffeeCup01
 10
0.0
 20
0.0
 30
0.0
 70
   128
 71
   18
 72
   30
 73
   31
  0
VERTEX
  8
coffeeCup01
 10
0.0
 20
0.0
 30
0.0
 70
   128
 71
   17
 72
   18
 73
   20
  0
VERTEX
  8
coffeeCup01
 10
0.0
 20
0.0
 30
0.0
 70
   128
 71
   20
 72
   31
 73
   32
  0
VERTEX
  8
coffeeCup01
 10
0.0
 20
0.0
 30
0.0
 70
   128
 71
   22
 72
   32
 73
   23
  0
VERTEX
  8
coffeeCup01
 10
0.0
 20
0.0
 30
0.0
 70
   128
 71
   89
 72
   87
 73
   86
  0
VERTEX
  8
coffeeCup01
 10
0.0
 20
0.0
 30
0.0
 70
   128
 71
   87
 72
   89
 73
   88
  0
VERTEX
  8
coffeeCup01
 10
0.0
 20
0.0
 30
0.0
 70
   128
 71
   85
 72
   84
 73
   83
  0
VERTEX
  8
coffeeCup01
 10
0.0
 20
0.0
 30
0.0
 70
   128
 71
   86
 72
   82
 73
   81
  0
VERTEX
  8
coffeeCup01
 10
0.0
 20
0.0
 30
0.0
 70
   128
 71
   82
 72
   86
 73
   85
  0
VERTEX
  8
coffeeCup01
 10
0.0
 20
0.0
 30
0.0
 70
   128
 71
   29
 72
   47
 73
   48
  0
VERTEX
  8
coffeeCup01
 10
0.0
 20
0.0
 30
0.0
 70
   128
 71
   30
 72
   48
 73
   49
  0
VERTEX
  8
coffeeCup01
 10
0.0
 20
0.0
 30
0.0
 70
   128
 71
   31
 72
   49
 73
   50
  0
VERTEX
  8
coffeeCup01
 10
0.0
 20
0.0
 30
0.0
 70
   128
 71
   32
 72
   50
 73
   41
  0
VERTEX
  8
coffeeCup01
 10
0.0
 20
0.0
 30
0.0
 70
   128
 71
   23
 72
   41
 73
   42
  0
VERTEX
  8
coffeeCup01
 10
0.0
 20
0.0
 30
0.0
 70
   128
 71
   24
 72
   42
 73
   43
  0
VERTEX
  8
coffeeCup01
 10
0.0
 20
0.0
 30
0.0
 70
   128
 71
   25
 72
   43
 73
   44
  0
VERTEX
  8
coffeeCup01
 10
0.0
 20
0.0
 30
0.0
 70
   128
 71
   26
 72
   44
 73
   45
  0
VERTEX
  8
coffeeCup01
 10
0.0
 20
0.0
 30
0.0
 70
   128
 71
   27
 72
   45
 73
   46
  0
VERTEX
  8
coffeeCup01
 10
0.0
 20
0.0
 30
0.0
 70
   128
 71
   28
 72
   46
 73
   47
  0
VERTEX
  8
coffeeCup01
 10
0.0
 20
0.0
 30
0.0
 70
   128
 71
   47
 72
   57
 73
   58
  0
VERTEX
  8
coffeeCup01
 10
0.0
 20
0.0
 30
0.0
 70
   128
 71
   48
 72
   58
 73
   59
  0
VERTEX
  8
coffeeCup01
 10
0.0
 20
0.0
 30
0.0
 70
   128
 71
   49
 72
   59
 73
   60
  0
VERTEX
  8
coffeeCup01
 10
0.0
 20
0.0
 30
0.0
 70
   128
 71
   50
 72
   60
 73
   51
  0
VERTEX
  8
coffeeCup01
 10
0.0
 20
0.0
 30
0.0
 70
   128
 71
   41
 72
   51
 73
   52
  0
VERTEX
  8
coffeeCup01
 10
0.0
 20
0.0
 30
0.0
 70
   128
 71
   42
 72
   52
 73
   53
  0
VERTEX
  8
coffeeCup01
 10
0.0
 20
0.0
 30
0.0
 70
   128
 71
   43
 72
   53
 73
   54
  0
VERTEX
  8
coffeeCup01
 10
0.0
 20
0.0
 30
0.0
 70
   128
 71
   44
 72
   54
 73
   55
  0
VERTEX
  8
coffeeCup01
 10
0.0
 20
0.0
 30
0.0
 70
   128
 71
   45
 72
   55
 73
   56
  0
VERTEX
  8
coffeeCup01
 10
0.0
 20
0.0
 30
0.0
 70
   128
 71
   46
 72
   56
 73
   57
  0
VERTEX
  8
coffeeCup01
 10
0.0
 20
0.0
 30
0.0
 70
   128
 71
   57
 72
   67
 73
   68
  0
VERTEX
  8
coffeeCup01
 10
0.0
 20
0.0
 30
0.0
 70
   128
 71
   58
 72
   68
 73
   69
  0
VERTEX
  8
coffeeCup01
 10
0.0
 20
0.0
 30
0.0
 70
   128
 71
   59
 72
   69
 73
   70
  0
VERTEX
  8
coffeeCup01
 10
0.0
 20
0.0
 30
0.0
 70
   128
 71
   60
 72
   70
 73
   61
  0
VERTEX
  8
coffeeCup01
 10
0.0
 20
0.0
 30
0.0
 70
   128
 71
   51
 72
   61
 73
   62
  0
VERTEX
  8
coffeeCup01
 10
0.0
 20
0.0
 30
0.0
 70
   128
 71
   52
 72
   62
 73
   63
  0
VERTEX
  8
coffeeCup01
 10
0.0
 20
0.0
 30
0.0
 70
   128
 71
   53
 72
   63
 73
   64
  0
VERTEX
  8
coffeeCup01
 10
0.0
 20
0.0
 30
0.0
 70
   128
 71
   54
 72
   64
 73
   65
  0
VERTEX
  8
coffeeCup01
 10
0.0
 20
0.0
 30
0.0
 70
   128
 71
   55
 72
   65
 73
   66
  0
VERTEX
  8
coffeeCup01
 10
0.0
 20
0.0
 30
0.0
 70
   128
 71
   56
 72
   66
 73
   67
  0
VERTEX
  8
coffeeCup01
 10
0.0
 20
0.0
 30
0.0
 70
   128
 71
   67
 72
   77
 73
   78
  0
VERTEX
  8
coffeeCup01
 10
0.0
 20
0.0
 30
0.0
 70
   128
 71
   68
 72
   78
 73
   79
  0
VERTEX
  8
coffeeCup01
 10
0.0
 20
0.0
 30
0.0
 70
   128
 71
   69
 72
   79
 73
   80
  0
VERTEX
  8
coffeeCup01
 10
0.0
 20
0.0
 30
0.0
 70
   128
 71
   70
 72
   80
 73
   71
  0
VERTEX
  8
coffeeCup01
 10
0.0
 20
0.0
 30
0.0
 70
   128
 71
   61
 72
   71
 73
   72
  0
VERTEX
  8
coffeeCup01
 10
0.0
 20
0.0
 30
0.0
 70
   128
 71
   62
 72
   72
 73
   73
  0
VERTEX
  8
coffeeCup01
 10
0.0
 20
0.0
 30
0.0
 70
   128
 71
   63
 72
   73
 73
   74
  0
VERTEX
  8
coffeeCup01
 10
0.0
 20
0.0
 30
0.0
 70
   128
 71
   64
 72
   74
 73
   75
  0
VERTEX
  8
coffeeCup01
 10
0.0
 20
0.0
 30
0.0
 70
   128
 71
   65
 72
   75
 73
   76
  0
VERTEX
  8
coffeeCup01
 10
0.0
 20
0.0
 30
0.0
 70
   128
 71
   66
 72
   76
 73
   77
  0
VERTEX
  8
coffeeCup01
 10
0.0
 20
0.0
 30
0.0
 70
   128
 71
   77
 72
   87
 73
   88
  0
VERTEX
  8
coffeeCup01
 10
0.0
 20
0.0
 30
0.0
 70
   128
 71
   78
 72
   88
 73
   89
  0
VERTEX
  8
coffeeCup01
 10
0.0
 20
0.0
 30
0.0
 70
   128
 71
   79
 72
   89
 73
   90
  0
VERTEX
  8
coffeeCup01
 10
0.0
 20
0.0
 30
0.0
 70
   128
 71
   80
 72
   90
 73
   81
  0
VERTEX
  8
coffeeCup01
 10
0.0
 20
0.0
 30
0.0
 70
   128
 71
   71
 72
   81
 73
   82
  0
VERTEX
  8
coffeeCup01
 10
0.0
 20
0.0
 30
0.0
 70
   128
 71
   72
 72
   82
 73
   83
  0
VERTEX
  8
coffeeCup01
 10
0.0
 20
0.0
 30
0.0
 70
   128
 71
   73
 72
   83
 73
   84
  0
VERTEX
  8
coffeeCup01
 10
0.0
 20
0.0
 30
0.0
 70
   128
 71
   74
 72
   84
 73
   85
  0
VERTEX
  8
coffeeCup01
 10
0.0
 20
0.0
 30
0.0
 70
   128
 71
   75
 72
   85
 73
   86
  0
VERTEX
  8
coffeeCup01
 10
0.0
 20
0.0
 30
0.0
 70
   128
 71
   76
 72
   86
 73
   87
  0
VERTEX
  8
coffeeCup01
 10
0.0
 20
0.0
 30
0.0
 70
   128
 71
   21
 72
   5
 73
   7
  0
VERTEX
  8
coffeeCup01
 10
0.0
 20
0.0
 30
0.0
 70
   128
 71
   3
 72
   6
 73
   5
  0
VERTEX
  8
coffeeCup01
 10
0.0
 20
0.0
 30
0.0
 70
   128
 71
   19
 72
   22
 73
   21
  0
VERTEX
  8
coffeeCup01
 10
0.0
 20
0.0
 30
0.0
 70
   128
 71
   17
 72
   7
 73
   13
  0
VERTEX
  8
coffeeCup01
 10
0.0
 20
0.0
 30
0.0
 70
   128
 71
   5
 72
   8
 73
   7
  0
VERTEX
  8
coffeeCup01
 10
0.0
 20
0.0
 30
0.0
 70
   128
 71
   21
 72
   4
 73
   3
  0
VERTEX
  8
coffeeCup01
 10
0.0
 20
0.0
 30
0.0
 70
   128
 71
   7
 72
   10
 73
   9
  0
VERTEX
  8
coffeeCup01
 10
0.0
 20
0.0
 30
0.0
 70
   128
 71
   4
 72
   24
 73
   6
  0
VERTEX
  8
coffeeCup01
 10
0.0
 20
0.0
 30
0.0
 70
   128
 71
   7
 72
   11
 73
   13
  0
VERTEX
  8
coffeeCup01
 10
0.0
 20
0.0
 30
0.0
 70
   128
 71
   9
 72
   12
 73
   11
  0
VERTEX
  8
coffeeCup01
 10
0.0
 20
0.0
 30
0.0
 70
   128
 71
   6
 72
   25
 73
   8
  0
VERTEX
  8
coffeeCup01
 10
0.0
 20
0.0
 30
0.0
 70
   128
 71
   11
 72
   14
 73
   13
  0
VERTEX
  8
coffeeCup01
 10
0.0
 20
0.0
 30
0.0
 70
   128
 71
   8
 72
   26
 73
   10
  0
VERTEX
  8
coffeeCup01
 10
0.0
 20
0.0
 30
0.0
 70
   128
 71
   10
 72
   27
 73
   12
  0
VERTEX
  8
coffeeCup01
 10
0.0
 20
0.0
 30
0.0
 70
   128
 71
   13
 72
   16
 73
   15
  0
VERTEX
  8
coffeeCup01
 10
0.0
 20
0.0
 30
0.0
 70
   128
 71
   12
 72
   28
 73
   14
  0
VERTEX
  8
coffeeCup01
 10
0.0
 20
0.0
 30
0.0
 70
   128
 71
   14
 72
   29
 73
   16
  0
VERTEX
  8
coffeeCup01
 10
0.0
 20
0.0
 30
0.0
 70
   128
 71
   15
 72
   18
 73
   17
  0
VERTEX
  8
coffeeCup01
 10
0.0
 20
0.0
 30
0.0
 70
   128
 71
   16
 72
   30
 73
   18
  0
VERTEX
  8
coffeeCup01
 10
0.0
 20
0.0
 30
0.0
 70
   128
 71
   18
 72
   31
 73
   20
  0
VERTEX
  8
coffeeCup01
 10
0.0
 20
0.0
 30
0.0
 70
   128
 71
   17
 72
   20
 73
   19
  0
VERTEX
  8
coffeeCup01
 10
0.0
 20
0.0
 30
0.0
 70
   128
 71
   20
 72
   32
 73
   22
  0
VERTEX
  8
coffeeCup01
 10
0.0
 20
0.0
 30
0.0
 70
   128
 71
   22
 72
   23
 73
   4
  0
VERTEX
  8
coffeeCup01
 10
0.0
 20
0.0
 30
0.0
 70
   128
 71
   89
 72
   86
 73
   90
  0
VERTEX
  8
coffeeCup01
 10
0.0
 20
0.0
 30
0.0
 70
   128
 71
   86
 72
   81
 73
   90
  0
VERTEX
  8
coffeeCup01
 10
0.0
 20
0.0
 30
0.0
 70
   128
 71
   82
 72
   85
 73
   83
  0
VERTEX
  8
coffeeCup01
 10
0.0
 20
0.0
 30
0.0
 70
   128
 71
   29
 72
   48
 73
   30
  0
VERTEX
  8
coffeeCup01
 10
0.0
 20
0.0
 30
0.0
 70
   128
 71
   30
 72
   49
 73
   31
  0
VERTEX
  8
coffeeCup01
 10
0.0
 20
0.0
 30
0.0
 70
   128
 71
   31
 72
   50
 73
   32
  0
VERTEX
  8
coffeeCup01
 10
0.0
 20
0.0
 30
0.0
 70
   128
 71
   32
 72
   41
 73
   23
  0
VERTEX
  8
coffeeCup01
 10
0.0
 20
0.0
 30
0.0
 70
   128
 71
   23
 72
   42
 73
   24
  0
VERTEX
  8
coffeeCup01
 10
0.0
 20
0.0
 30
0.0
 70
   128
 71
   24
 72
   43
 73
   25
  0
VERTEX
  8
coffeeCup01
 10
0.0
 20
0.0
 30
0.0
 70
   128
 71
   25
 72
   44
 73
   26
  0
VERTEX
  8
coffeeCup01
 10
0.0
 20
0.0
 30
0.0
 70
   128
 71
   26
 72
   45
 73
   27
  0
VERTEX
  8
coffeeCup01
 10
0.0
 20
0.0
 30
0.0
 70
   128
 71
   27
 72
   46
 73
   28
  0
VERTEX
  8
coffeeCup01
 10
0.0
 20
0.0
 30
0.0
 70
   128
 71
   28
 72
   47
 73
   29
  0
VERTEX
  8
coffeeCup01
 10
0.0
 20
0.0
 30
0.0
 70
   128
 71
   47
 72
   58
 73
   48
  0
VERTEX
  8
coffeeCup01
 10
0.0
 20
0.0
 30
0.0
 70
   128
 71
   48
 72
   59
 73
   49
  0
VERTEX
  8
coffeeCup01
 10
0.0
 20
0.0
 30
0.0
 70
   128
 71
   49
 72
   60
 73
   50
  0
VERTEX
  8
coffeeCup01
 10
0.0
 20
0.0
 30
0.0
 70
   128
 71
   50
 72
   51
 73
   41
  0
VERTEX
  8
coffeeCup01
 10
0.0
 20
0.0
 30
0.0
 70
   128
 71
   41
 72
   52
 73
   42
  0
VERTEX
  8
coffeeCup01
 10
0.0
 20
0.0
 30
0.0
 70
   128
 71
   42
 72
   53
 73
   43
  0
VERTEX
  8
coffeeCup01
 10
0.0
 20
0.0
 30
0.0
 70
   128
 71
   43
 72
   54
 73
   44
  0
VERTEX
  8
coffeeCup01
 10
0.0
 20
0.0
 30
0.0
 70
   128
 71
   44
 72
   55
 73
   45
  0
VERTEX
  8
coffeeCup01
 10
0.0
 20
0.0
 30
0.0
 70
   128
 71
   45
 72
   56
 73
   46
  0
VERTEX
  8
coffeeCup01
 10
0.0
 20
0.0
 30
0.0
 70
   128
 71
   46
 72
   57
 73
   47
  0
VERTEX
  8
coffeeCup01
 10
0.0
 20
0.0
 30
0.0
 70
   128
 71
   57
 72
   68
 73
   58
  0
VERTEX
  8
coffeeCup01
 10
0.0
 20
0.0
 30
0.0
 70
   128
 71
   58
 72
   69
 73
   59
  0
VERTEX
  8
coffeeCup01
 10
0.0
 20
0.0
 30
0.0
 70
   128
 71
   59
 72
   70
 73
   60
  0
VERTEX
  8
coffeeCup01
 10
0.0
 20
0.0
 30
0.0
 70
   128
 71
   60
 72
   61
 73
   51
  0
VERTEX
  8
coffeeCup01
 10
0.0
 20
0.0
 30
0.0
 70
   128
 71
   51
 72
   62
 73
   52
  0
VERTEX
  8
coffeeCup01
 10
0.0
 20
0.0
 30
0.0
 70
   128
 71
   52
 72
   63
 73
   53
  0
VERTEX
  8
coffeeCup01
 10
0.0
 20
0.0
 30
0.0
 70
   128
 71
   53
 72
   64
 73
   54
  0
VERTEX
  8
coffeeCup01
 10
0.0
 20
0.0
 30
0.0
 70
   128
 71
   54
 72
   65
 73
   55
  0
VERTEX
  8
coffeeCup01
 10
0.0
 20
0.0
 30
0.0
 70
   128
 71
   55
 72
   66
 73
   56
  0
VERTEX
  8
coffeeCup01
 10
0.0
 20
0.0
 30
0.0
 70
   128
 71
   56
 72
   67
 73
   57
  0
VERTEX
  8
coffeeCup01
 10
0.0
 20
0.0
 30
0.0
 70
   128
 71
   67
 72
   78
 73
   68
  0
VERTEX
  8
coffeeCup01
 10
0.0
 20
0.0
 30
0.0
 70
   128
 71
   68
 72
   79
 73
   69
  0
VERTEX
  8
coffeeCup01
 10
0.0
 20
0.0
 30
0.0
 70
   128
 71
   69
 72
   80
 73
   70
  0
VERTEX
  8
coffeeCup01
 10
0.0
 20
0.0
 30
0.0
 70
   128
 71
   70
 72
   71
 73
   61
  0
VERTEX
  8
coffeeCup01
 10
0.0
 20
0.0
 30
0.0
 70
   128
 71
   61
 72
   72
 73
   62
  0
VERTEX
  8
coffeeCup01
 10
0.0
 20
0.0
 30
0.0
 70
   128
 71
   62
 72
   73
 73
   63
  0
VERTEX
  8
coffeeCup01
 10
0.0
 20
0.0
 30
0.0
 70
   128
 71
   63
 72
   74
 73
   64
  0
VERTEX
  8
coffeeCup01
 10
0.0
 20
0.0
 30
0.0
 70
   128
 71
   64
 72
   75
 73
   65
  0
VERTEX
  8
coffeeCup01
 10
0.0
 20
0.0
 30
0.0
 70
   128
 71
   65
 72
   76
 73
   66
  0
VERTEX
  8
coffeeCup01
 10
0.0
 20
0.0
 30
0.0
 70
   128
 71
   66
 72
   77
 73
   67
  0
VERTEX
  8
coffeeCup01
 10
0.0
 20
0.0
 30
0.0
 70
   128
 71
   77
 72
   88
 73
   78
  0
VERTEX
  8
coffeeCup01
 10
0.0
 20
0.0
 30
0.0
 70
   128
 71
   78
 72
   89
 73
   79
  0
VERTEX
  8
coffeeCup01
 10
0.0
 20
0.0
 30
0.0
 70
   128
 71
   79
 72
   90
 73
   80
  0
VERTEX
  8
coffeeCup01
 10
0.0
 20
0.0
 30
0.0
 70
   128
 71
   80
 72
   81
 73
   71
  0
VERTEX
  8
coffeeCup01
 10
0.0
 20
0.0
 30
0.0
 70
   128
 71
   71
 72
   82
 73
   72
  0
VERTEX
  8
coffeeCup01
 10
0.0
 20
0.0
 30
0.0
 70
   128
 71
   72
 72
   83
 73
   73
  0
VERTEX
  8
coffeeCup01
 10
0.0
 20
0.0
 30
0.0
 70
   128
 71
   73
 72
   84
 73
   74
  0
VERTEX
  8
coffeeCup01
 10
0.0
 20
0.0
 30
0.0
 70
   128
 71
   74
 72
   85
 73
   75
  0
VERTEX
  8
coffeeCup01
 10
0.0
 20
0.0
 30
0.0
 70
   128
 71
   75
 72
   86
 73
   76
  0
VERTEX
  8
coffeeCup01
 10
0.0
 20
0.0
 30
0.0
 70
   128
 71
   76
 72
   87
 73
   77
  0
SEQEND
  0
ENDSEC
  0
EOF
