999
FBX AutoCAD (*.DXF) exporter
  0
SECTION
  2
HEADER
  9
$ACADVER
  1
AC1008
  9
$UCSORG
 10
0.0
 20
0.0
 30
0.0
  9
$UCSXDIR
 10
1.0
 20
0.0
 30
0.0
  9
$TILEMODE
 70
   1
  9
$UCSYDIR
 10
0.0
 20
1.0
 30
0.0
  0
ENDSEC
  0
SECTION
  2
TABLES
  0
TABLE
  2
LTYPE
 70
   1
  0
LTYPE
  2
CONTINUOUS
 70
   64
  3
Solid line
 72
   65
 73
   0
 40
0.0
  0
ENDTAB
  0
TABLE
  2
LAYER
 70
   7
  0
LAYER
  2
pancake_2
 70
   0
 62
   250
  6
CONTINUOUS
  0
LAYER
  2
pancake_3
 70
   0
 62
   250
  6
CONTINUOUS
  0
LAYER
  2
pancake_4
 70
   0
 62
   250
  6
CONTINUOUS
  0
LAYER
  2
pancake_5
 70
   0
 62
   250
  6
CONTINUOUS
  0
LAYER
  2
pancake_6
 70
   0
 62
   250
  6
CONTINUOUS
  0
LAYER
  2
pancake_7
 70
   0
 62
   250
  6
CONTINUOUS
  0
ENDTAB
  0
ENDSEC
  0
SECTION
  2
BLOCKS
  0
ENDSEC
  0
SECTION
  2
ENTITIES
  0
POLYLINE
  8
pancake_2
 66
   1
 10
0.0
 20
0.0
 30
0.0
 70
   64
 71
   18
 72
   32
  0
VERTEX
  8
pancake_2
 10
-19.492200
 20
169.489609
 30
0.000000
 70
   192
  0
VERTEX
  8
pancake_2
 10
0.000000
 20
169.489609
 30
19.492200
 70
   192
  0
VERTEX
  8
pancake_2
 10
19.492200
 20
169.489609
 30
0.000000
 70
   192
  0
VERTEX
  8
pancake_2
 10
0.000000
 20
169.489609
 30
-19.492200
 70
   192
  0
VERTEX
  8
pancake_2
 10
0.000000
 20
188.981809
 30
0.000000
 70
   192
  0
VERTEX
  8
pancake_2
 10
0.000000
 20
149.997409
 30
0.000000
 70
   192
  0
VERTEX
  8
pancake_2
 10
0.000000
 20
183.272676
 30
13.783067
 70
   192
  0
VERTEX
  8
pancake_2
 10
-13.783067
 20
169.489609
 30
13.783067
 70
   192
  0
VERTEX
  8
pancake_2
 10
-13.783067
 20
183.272676
 30
0.000000
 70
   192
  0
VERTEX
  8
pancake_2
 10
13.783067
 20
183.272676
 30
0.000000
 70
   192
  0
VERTEX
  8
pancake_2
 10
13.783067
 20
169.489609
 30
13.783067
 70
   192
  0
VERTEX
  8
pancake_2
 10
0.000000
 20
183.272676
 30
-13.783067
 70
   192
  0
VERTEX
  8
pancake_2
 10
13.783067
 20
169.489609
 30
-13.783067
 70
   192
  0
VERTEX
  8
pancake_2
 10
-13.783067
 20
169.489609
 30
-13.783067
 70
   192
  0
VERTEX
  8
pancake_2
 10
-13.783067
 20
155.706542
 30
0.000000
 70
   192
  0
VERTEX
  8
pancake_2
 10
0.000000
 20
155.706542
 30
13.783067
 70
   192
  0
VERTEX
  8
pancake_2
 10
13.783067
 20
155.706542
 30
0.000000
 70
   192
  0
VERTEX
  8
pancake_2
 10
0.000000
 20
155.706542
 30
-13.783067
 70
   192
  0
VERTEX
  8
pancake_2
 10
0.0
 20
0.0
 30
0.0
 70
   128
 71
   5
 72
   7
 73
   9
  0
VERTEX
  8
pancake_2
 10
0.0
 20
0.0
 30
0.0
 70
   128
 71
   7
 72
   2
 73
   8
  0
VERTEX
  8
pancake_2
 10
0.0
 20
0.0
 30
0.0
 70
   128
 71
   8
 72
   9
 73
   7
  0
VERTEX
  8
pancake_2
 10
0.0
 20
0.0
 30
0.0
 70
   128
 71
   9
 72
   8
 73
   1
  0
VERTEX
  8
pancake_2
 10
0.0
 20
0.0
 30
0.0
 70
   128
 71
   5
 72
   10
 73
   7
  0
VERTEX
  8
pancake_2
 10
0.0
 20
0.0
 30
0.0
 70
   128
 71
   10
 72
   3
 73
   11
  0
VERTEX
  8
pancake_2
 10
0.0
 20
0.0
 30
0.0
 70
   128
 71
   11
 72
   7
 73
   10
  0
VERTEX
  8
pancake_2
 10
0.0
 20
0.0
 30
0.0
 70
   128
 71
   7
 72
   11
 73
   2
  0
VERTEX
  8
pancake_2
 10
0.0
 20
0.0
 30
0.0
 70
   128
 71
   5
 72
   12
 73
   10
  0
VERTEX
  8
pancake_2
 10
0.0
 20
0.0
 30
0.0
 70
   128
 71
   12
 72
   4
 73
   13
  0
VERTEX
  8
pancake_2
 10
0.0
 20
0.0
 30
0.0
 70
   128
 71
   13
 72
   10
 73
   12
  0
VERTEX
  8
pancake_2
 10
0.0
 20
0.0
 30
0.0
 70
   128
 71
   10
 72
   13
 73
   3
  0
VERTEX
  8
pancake_2
 10
0.0
 20
0.0
 30
0.0
 70
   128
 71
   5
 72
   9
 73
   12
  0
VERTEX
  8
pancake_2
 10
0.0
 20
0.0
 30
0.0
 70
   128
 71
   9
 72
   1
 73
   14
  0
VERTEX
  8
pancake_2
 10
0.0
 20
0.0
 30
0.0
 70
   128
 71
   14
 72
   12
 73
   9
  0
VERTEX
  8
pancake_2
 10
0.0
 20
0.0
 30
0.0
 70
   128
 71
   12
 72
   14
 73
   4
  0
VERTEX
  8
pancake_2
 10
0.0
 20
0.0
 30
0.0
 70
   128
 71
   6
 72
   15
 73
   16
  0
VERTEX
  8
pancake_2
 10
0.0
 20
0.0
 30
0.0
 70
   128
 71
   15
 72
   1
 73
   8
  0
VERTEX
  8
pancake_2
 10
0.0
 20
0.0
 30
0.0
 70
   128
 71
   8
 72
   16
 73
   15
  0
VERTEX
  8
pancake_2
 10
0.0
 20
0.0
 30
0.0
 70
   128
 71
   16
 72
   8
 73
   2
  0
VERTEX
  8
pancake_2
 10
0.0
 20
0.0
 30
0.0
 70
   128
 71
   6
 72
   16
 73
   17
  0
VERTEX
  8
pancake_2
 10
0.0
 20
0.0
 30
0.0
 70
   128
 71
   16
 72
   2
 73
   11
  0
VERTEX
  8
pancake_2
 10
0.0
 20
0.0
 30
0.0
 70
   128
 71
   11
 72
   17
 73
   16
  0
VERTEX
  8
pancake_2
 10
0.0
 20
0.0
 30
0.0
 70
   128
 71
   17
 72
   11
 73
   3
  0
VERTEX
  8
pancake_2
 10
0.0
 20
0.0
 30
0.0
 70
   128
 71
   6
 72
   17
 73
   18
  0
VERTEX
  8
pancake_2
 10
0.0
 20
0.0
 30
0.0
 70
   128
 71
   17
 72
   3
 73
   13
  0
VERTEX
  8
pancake_2
 10
0.0
 20
0.0
 30
0.0
 70
   128
 71
   13
 72
   18
 73
   17
  0
VERTEX
  8
pancake_2
 10
0.0
 20
0.0
 30
0.0
 70
   128
 71
   18
 72
   13
 73
   4
  0
VERTEX
  8
pancake_2
 10
0.0
 20
0.0
 30
0.0
 70
   128
 71
   6
 72
   18
 73
   15
  0
VERTEX
  8
pancake_2
 10
0.0
 20
0.0
 30
0.0
 70
   128
 71
   18
 72
   4
 73
   14
  0
VERTEX
  8
pancake_2
 10
0.0
 20
0.0
 30
0.0
 70
   128
 71
   14
 72
   15
 73
   18
  0
VERTEX
  8
pancake_2
 10
0.0
 20
0.0
 30
0.0
 70
   128
 71
   15
 72
   14
 73
   1
  0
SEQEND
  0
POLYLINE
  8
pancake_3
 66
   1
 10
0.0
 20
0.0
 30
0.0
 70
   64
 71
   78
 72
   152
  0
VERTEX
  8
pancake_3
 10
83.617601
 20
32.219529
 30
43.885903
 70
   192
  0
VERTEX
  8
pancake_3
 10
73.446875
 20
36.977363
 30
38.547893
 70
   192
  0
VERTEX
  8
pancake_3
 10
82.948077
 20
0.000000
 30
0.000000
 70
   192
  0
VERTEX
  8
pancake_3
 10
94.434505
 20
4.757834
 30
0.000000
 70
   192
  0
VERTEX
  8
pancake_3
 10
99.192339
 20
16.244262
 30
0.000000
 70
   192
  0
VERTEX
  8
pancake_3
 10
99.192339
 20
20.733101
 30
0.000000
 70
   192
  0
VERTEX
  8
pancake_3
 10
94.434505
 20
32.219529
 30
0.000000
 70
   192
  0
VERTEX
  8
pancake_3
 10
82.948077
 20
36.977363
 30
0.000000
 70
   192
  0
VERTEX
  8
pancake_3
 10
73.446875
 20
0.000000
 30
-38.547893
 70
   192
  0
VERTEX
  8
pancake_3
 10
83.617601
 20
4.757834
 30
-43.885903
 70
   192
  0
VERTEX
  8
pancake_3
 10
87.830454
 20
16.244262
 30
-46.096978
 70
   192
  0
VERTEX
  8
pancake_3
 10
87.830454
 20
20.733101
 30
-46.096978
 70
   192
  0
VERTEX
  8
pancake_3
 10
83.617601
 20
32.219529
 30
-43.885903
 70
   192
  0
VERTEX
  8
pancake_3
 10
73.446875
 20
36.977363
 30
-38.547893
 70
   192
  0
VERTEX
  8
pancake_3
 10
47.119878
 20
0.000000
 30
-68.264929
 70
   192
  0
VERTEX
  8
pancake_3
 10
53.644913
 20
4.757834
 30
-77.718074
 70
   192
  0
VERTEX
  8
pancake_3
 10
56.347671
 20
16.244262
 30
-81.633695
 70
   192
  0
VERTEX
  8
pancake_3
 10
56.347671
 20
20.733101
 30
-81.633695
 70
   192
  0
VERTEX
  8
pancake_3
 10
53.644913
 20
32.219529
 30
-77.718074
 70
   192
  0
VERTEX
  8
pancake_3
 10
47.119878
 20
36.977363
 30
-68.264929
 70
   192
  0
VERTEX
  8
pancake_3
 10
9.998286
 20
0.000000
 30
-82.343292
 70
   192
  0
VERTEX
  8
pancake_3
 10
11.382822
 20
4.757834
 30
-93.745971
 70
   192
  0
VERTEX
  8
pancake_3
 10
11.956315
 20
16.244262
 30
-98.469115
 70
   192
  0
VERTEX
  8
pancake_3
 10
11.956315
 20
20.733101
 30
-98.469115
 70
   192
  0
VERTEX
  8
pancake_3
 10
11.382822
 20
32.219529
 30
-93.745971
 70
   192
  0
VERTEX
  8
pancake_3
 10
9.998286
 20
36.977363
 30
-82.343292
 70
   192
  0
VERTEX
  8
pancake_3
 10
-29.413793
 20
0.000000
 30
-77.557799
 70
   192
  0
VERTEX
  8
pancake_3
 10
-33.486937
 20
4.757834
 30
-88.297796
 70
   192
  0
VERTEX
  8
pancake_3
 10
-35.174088
 20
16.244262
 30
-92.746448
 70
   192
  0
VERTEX
  8
pancake_3
 10
-35.174088
 20
20.733101
 30
-92.746448
 70
   192
  0
VERTEX
  8
pancake_3
 10
-33.486937
 20
32.219529
 30
-88.297796
 70
   192
  0
VERTEX
  8
pancake_3
 10
-29.413793
 20
36.977363
 30
-77.557799
 70
   192
  0
VERTEX
  8
pancake_3
 10
-62.087527
 20
0.000000
 30
-55.004749
 70
   192
  0
VERTEX
  8
pancake_3
 10
-70.685242
 20
4.757834
 30
-62.621660
 70
   192
  0
VERTEX
  8
pancake_3
 10
-74.246532
 20
16.244262
 30
-65.776688
 70
   192
  0
VERTEX
  8
pancake_3
 10
-74.246532
 20
20.733101
 30
-65.776688
 70
   192
  0
VERTEX
  8
pancake_3
 10
-70.685242
 20
32.219529
 30
-62.621660
 70
   192
  0
VERTEX
  8
pancake_3
 10
-62.087527
 20
36.977363
 30
-55.004749
 70
   192
  0
VERTEX
  8
pancake_3
 10
-80.537757
 20
0.000000
 30
-19.850774
 70
   192
  0
VERTEX
  8
pancake_3
 10
-91.690410
 20
4.757834
 30
-22.599656
 70
   192
  0
VERTEX
  8
pancake_3
 10
-96.309990
 20
16.244262
 30
-23.738281
 70
   192
  0
VERTEX
  8
pancake_3
 10
-96.309990
 20
20.733101
 30
-23.738281
 70
   192
  0
VERTEX
  8
pancake_3
 10
-91.690410
 20
32.219529
 30
-22.599656
 70
   192
  0
VERTEX
  8
pancake_3
 10
-80.537757
 20
36.977363
 30
-19.850774
 70
   192
  0
VERTEX
  8
pancake_3
 10
-80.537757
 20
0.000000
 30
19.850774
 70
   192
  0
VERTEX
  8
pancake_3
 10
-91.690410
 20
4.757834
 30
22.599656
 70
   192
  0
VERTEX
  8
pancake_3
 10
-96.309990
 20
16.244262
 30
23.738281
 70
   192
  0
VERTEX
  8
pancake_3
 10
-96.309990
 20
20.733101
 30
23.738281
 70
   192
  0
VERTEX
  8
pancake_3
 10
-91.690410
 20
32.219529
 30
22.599656
 70
   192
  0
VERTEX
  8
pancake_3
 10
-80.537757
 20
36.977363
 30
19.850774
 70
   192
  0
VERTEX
  8
pancake_3
 10
-62.087527
 20
0.000000
 30
55.004749
 70
   192
  0
VERTEX
  8
pancake_3
 10
-70.685242
 20
4.757834
 30
62.621660
 70
   192
  0
VERTEX
  8
pancake_3
 10
-74.246532
 20
16.244262
 30
65.776688
 70
   192
  0
VERTEX
  8
pancake_3
 10
-74.246532
 20
20.733101
 30
65.776688
 70
   192
  0
VERTEX
  8
pancake_3
 10
-70.685242
 20
32.219529
 30
62.621660
 70
   192
  0
VERTEX
  8
pancake_3
 10
-62.087527
 20
36.977363
 30
55.004749
 70
   192
  0
VERTEX
  8
pancake_3
 10
-29.413793
 20
0.000000
 30
77.557799
 70
   192
  0
VERTEX
  8
pancake_3
 10
-33.486937
 20
4.757834
 30
88.297796
 70
   192
  0
VERTEX
  8
pancake_3
 10
-35.174088
 20
16.244262
 30
92.746448
 70
   192
  0
VERTEX
  8
pancake_3
 10
-35.174088
 20
20.733101
 30
92.746448
 70
   192
  0
VERTEX
  8
pancake_3
 10
-33.486937
 20
32.219529
 30
88.297796
 70
   192
  0
VERTEX
  8
pancake_3
 10
-29.413793
 20
36.977363
 30
77.557799
 70
   192
  0
VERTEX
  8
pancake_3
 10
9.998286
 20
0.000000
 30
82.343292
 70
   192
  0
VERTEX
  8
pancake_3
 10
11.382822
 20
4.757834
 30
93.745971
 70
   192
  0
VERTEX
  8
pancake_3
 10
11.956315
 20
16.244262
 30
98.469115
 70
   192
  0
VERTEX
  8
pancake_3
 10
11.956315
 20
20.733101
 30
98.469115
 70
   192
  0
VERTEX
  8
pancake_3
 10
11.382822
 20
32.219529
 30
93.745971
 70
   192
  0
VERTEX
  8
pancake_3
 10
9.998286
 20
36.977363
 30
82.343292
 70
   192
  0
VERTEX
  8
pancake_3
 10
47.119878
 20
0.000000
 30
68.264929
 70
   192
  0
VERTEX
  8
pancake_3
 10
53.644913
 20
4.757834
 30
77.718074
 70
   192
  0
VERTEX
  8
pancake_3
 10
56.347671
 20
16.244262
 30
81.633695
 70
   192
  0
VERTEX
  8
pancake_3
 10
56.347671
 20
20.733101
 30
81.633695
 70
   192
  0
VERTEX
  8
pancake_3
 10
53.644913
 20
32.219529
 30
77.718074
 70
   192
  0
VERTEX
  8
pancake_3
 10
47.119878
 20
36.977363
 30
68.264929
 70
   192
  0
VERTEX
  8
pancake_3
 10
73.446875
 20
0.000000
 30
38.547893
 70
   192
  0
VERTEX
  8
pancake_3
 10
83.617601
 20
4.757834
 30
43.885903
 70
   192
  0
VERTEX
  8
pancake_3
 10
87.830454
 20
16.244262
 30
46.096978
 70
   192
  0
VERTEX
  8
pancake_3
 10
87.830454
 20
20.733101
 30
46.096978
 70
   192
  0
VERTEX
  8
pancake_3
 10
0.0
 20
0.0
 30
0.0
 70
   128
 71
   75
 72
   3
 73
   69
  0
VERTEX
  8
pancake_3
 10
0.0
 20
0.0
 30
0.0
 70
   128
 71
   3
 72
   4
 73
   10
  0
VERTEX
  8
pancake_3
 10
0.0
 20
0.0
 30
0.0
 70
   128
 71
   4
 72
   5
 73
   11
  0
VERTEX
  8
pancake_3
 10
0.0
 20
0.0
 30
0.0
 70
   128
 71
   5
 72
   6
 73
   12
  0
VERTEX
  8
pancake_3
 10
0.0
 20
0.0
 30
0.0
 70
   128
 71
   6
 72
   7
 73
   13
  0
VERTEX
  8
pancake_3
 10
0.0
 20
0.0
 30
0.0
 70
   128
 71
   7
 72
   8
 73
   14
  0
VERTEX
  8
pancake_3
 10
0.0
 20
0.0
 30
0.0
 70
   128
 71
   44
 72
   14
 73
   8
  0
VERTEX
  8
pancake_3
 10
0.0
 20
0.0
 30
0.0
 70
   128
 71
   3
 72
   9
 73
   15
  0
VERTEX
  8
pancake_3
 10
0.0
 20
0.0
 30
0.0
 70
   128
 71
   9
 72
   10
 73
   16
  0
VERTEX
  8
pancake_3
 10
0.0
 20
0.0
 30
0.0
 70
   128
 71
   10
 72
   11
 73
   17
  0
VERTEX
  8
pancake_3
 10
0.0
 20
0.0
 30
0.0
 70
   128
 71
   11
 72
   12
 73
   18
  0
VERTEX
  8
pancake_3
 10
0.0
 20
0.0
 30
0.0
 70
   128
 71
   12
 72
   13
 73
   19
  0
VERTEX
  8
pancake_3
 10
0.0
 20
0.0
 30
0.0
 70
   128
 71
   13
 72
   14
 73
   20
  0
VERTEX
  8
pancake_3
 10
0.0
 20
0.0
 30
0.0
 70
   128
 71
   8
 72
   2
 73
   74
  0
VERTEX
  8
pancake_3
 10
0.0
 20
0.0
 30
0.0
 70
   128
 71
   27
 72
   3
 73
   15
  0
VERTEX
  8
pancake_3
 10
0.0
 20
0.0
 30
0.0
 70
   128
 71
   15
 72
   16
 73
   22
  0
VERTEX
  8
pancake_3
 10
0.0
 20
0.0
 30
0.0
 70
   128
 71
   16
 72
   17
 73
   23
  0
VERTEX
  8
pancake_3
 10
0.0
 20
0.0
 30
0.0
 70
   128
 71
   17
 72
   18
 73
   24
  0
VERTEX
  8
pancake_3
 10
0.0
 20
0.0
 30
0.0
 70
   128
 71
   18
 72
   19
 73
   25
  0
VERTEX
  8
pancake_3
 10
0.0
 20
0.0
 30
0.0
 70
   128
 71
   19
 72
   20
 73
   26
  0
VERTEX
  8
pancake_3
 10
0.0
 20
0.0
 30
0.0
 70
   128
 71
   74
 72
   68
 73
   62
  0
VERTEX
  8
pancake_3
 10
0.0
 20
0.0
 30
0.0
 70
   128
 71
   3
 72
   27
 73
   39
  0
VERTEX
  8
pancake_3
 10
0.0
 20
0.0
 30
0.0
 70
   128
 71
   21
 72
   22
 73
   28
  0
VERTEX
  8
pancake_3
 10
0.0
 20
0.0
 30
0.0
 70
   128
 71
   22
 72
   23
 73
   29
  0
VERTEX
  8
pancake_3
 10
0.0
 20
0.0
 30
0.0
 70
   128
 71
   23
 72
   24
 73
   30
  0
VERTEX
  8
pancake_3
 10
0.0
 20
0.0
 30
0.0
 70
   128
 71
   24
 72
   25
 73
   31
  0
VERTEX
  8
pancake_3
 10
0.0
 20
0.0
 30
0.0
 70
   128
 71
   25
 72
   26
 73
   32
  0
VERTEX
  8
pancake_3
 10
0.0
 20
0.0
 30
0.0
 70
   128
 71
   44
 72
   74
 73
   62
  0
VERTEX
  8
pancake_3
 10
0.0
 20
0.0
 30
0.0
 70
   128
 71
   69
 72
   3
 73
   45
  0
VERTEX
  8
pancake_3
 10
0.0
 20
0.0
 30
0.0
 70
   128
 71
   27
 72
   28
 73
   34
  0
VERTEX
  8
pancake_3
 10
0.0
 20
0.0
 30
0.0
 70
   128
 71
   28
 72
   29
 73
   35
  0
VERTEX
  8
pancake_3
 10
0.0
 20
0.0
 30
0.0
 70
   128
 71
   29
 72
   30
 73
   36
  0
VERTEX
  8
pancake_3
 10
0.0
 20
0.0
 30
0.0
 70
   128
 71
   30
 72
   31
 73
   37
  0
VERTEX
  8
pancake_3
 10
0.0
 20
0.0
 30
0.0
 70
   128
 71
   31
 72
   32
 73
   38
  0
VERTEX
  8
pancake_3
 10
0.0
 20
0.0
 30
0.0
 70
   128
 71
   56
 72
   50
 73
   44
  0
VERTEX
  8
pancake_3
 10
0.0
 20
0.0
 30
0.0
 70
   128
 71
   27
 72
   33
 73
   39
  0
VERTEX
  8
pancake_3
 10
0.0
 20
0.0
 30
0.0
 70
   128
 71
   33
 72
   34
 73
   40
  0
VERTEX
  8
pancake_3
 10
0.0
 20
0.0
 30
0.0
 70
   128
 71
   34
 72
   35
 73
   41
  0
VERTEX
  8
pancake_3
 10
0.0
 20
0.0
 30
0.0
 70
   128
 71
   35
 72
   36
 73
   42
  0
VERTEX
  8
pancake_3
 10
0.0
 20
0.0
 30
0.0
 70
   128
 71
   36
 72
   37
 73
   43
  0
VERTEX
  8
pancake_3
 10
0.0
 20
0.0
 30
0.0
 70
   128
 71
   37
 72
   38
 73
   44
  0
VERTEX
  8
pancake_3
 10
0.0
 20
0.0
 30
0.0
 70
   128
 71
   44
 72
   38
 73
   32
  0
VERTEX
  8
pancake_3
 10
0.0
 20
0.0
 30
0.0
 70
   128
 71
   45
 72
   51
 73
   57
  0
VERTEX
  8
pancake_3
 10
0.0
 20
0.0
 30
0.0
 70
   128
 71
   39
 72
   40
 73
   46
  0
VERTEX
  8
pancake_3
 10
0.0
 20
0.0
 30
0.0
 70
   128
 71
   40
 72
   41
 73
   47
  0
VERTEX
  8
pancake_3
 10
0.0
 20
0.0
 30
0.0
 70
   128
 71
   41
 72
   42
 73
   48
  0
VERTEX
  8
pancake_3
 10
0.0
 20
0.0
 30
0.0
 70
   128
 71
   42
 72
   43
 73
   49
  0
VERTEX
  8
pancake_3
 10
0.0
 20
0.0
 30
0.0
 70
   128
 71
   43
 72
   44
 73
   50
  0
VERTEX
  8
pancake_3
 10
0.0
 20
0.0
 30
0.0
 70
   128
 71
   14
 72
   44
 73
   32
  0
VERTEX
  8
pancake_3
 10
0.0
 20
0.0
 30
0.0
 70
   128
 71
   57
 72
   63
 73
   69
  0
VERTEX
  8
pancake_3
 10
0.0
 20
0.0
 30
0.0
 70
   128
 71
   45
 72
   46
 73
   52
  0
VERTEX
  8
pancake_3
 10
0.0
 20
0.0
 30
0.0
 70
   128
 71
   46
 72
   47
 73
   53
  0
VERTEX
  8
pancake_3
 10
0.0
 20
0.0
 30
0.0
 70
   128
 71
   47
 72
   48
 73
   54
  0
VERTEX
  8
pancake_3
 10
0.0
 20
0.0
 30
0.0
 70
   128
 71
   48
 72
   49
 73
   55
  0
VERTEX
  8
pancake_3
 10
0.0
 20
0.0
 30
0.0
 70
   128
 71
   49
 72
   50
 73
   56
  0
VERTEX
  8
pancake_3
 10
0.0
 20
0.0
 30
0.0
 70
   128
 71
   32
 72
   26
 73
   20
  0
VERTEX
  8
pancake_3
 10
0.0
 20
0.0
 30
0.0
 70
   128
 71
   75
 72
   76
 73
   4
  0
VERTEX
  8
pancake_3
 10
0.0
 20
0.0
 30
0.0
 70
   128
 71
   51
 72
   52
 73
   58
  0
VERTEX
  8
pancake_3
 10
0.0
 20
0.0
 30
0.0
 70
   128
 71
   52
 72
   53
 73
   59
  0
VERTEX
  8
pancake_3
 10
0.0
 20
0.0
 30
0.0
 70
   128
 71
   53
 72
   54
 73
   60
  0
VERTEX
  8
pancake_3
 10
0.0
 20
0.0
 30
0.0
 70
   128
 71
   54
 72
   55
 73
   61
  0
VERTEX
  8
pancake_3
 10
0.0
 20
0.0
 30
0.0
 70
   128
 71
   55
 72
   56
 73
   62
  0
VERTEX
  8
pancake_3
 10
0.0
 20
0.0
 30
0.0
 70
   128
 71
   1
 72
   2
 73
   8
  0
VERTEX
  8
pancake_3
 10
0.0
 20
0.0
 30
0.0
 70
   128
 71
   72
 72
   73
 73
   1
  0
VERTEX
  8
pancake_3
 10
0.0
 20
0.0
 30
0.0
 70
   128
 71
   57
 72
   58
 73
   64
  0
VERTEX
  8
pancake_3
 10
0.0
 20
0.0
 30
0.0
 70
   128
 71
   58
 72
   59
 73
   65
  0
VERTEX
  8
pancake_3
 10
0.0
 20
0.0
 30
0.0
 70
   128
 71
   59
 72
   60
 73
   66
  0
VERTEX
  8
pancake_3
 10
0.0
 20
0.0
 30
0.0
 70
   128
 71
   60
 72
   61
 73
   67
  0
VERTEX
  8
pancake_3
 10
0.0
 20
0.0
 30
0.0
 70
   128
 71
   61
 72
   62
 73
   68
  0
VERTEX
  8
pancake_3
 10
0.0
 20
0.0
 30
0.0
 70
   128
 71
   76
 72
   77
 73
   5
  0
VERTEX
  8
pancake_3
 10
0.0
 20
0.0
 30
0.0
 70
   128
 71
   73
 72
   74
 73
   2
  0
VERTEX
  8
pancake_3
 10
0.0
 20
0.0
 30
0.0
 70
   128
 71
   63
 72
   64
 73
   70
  0
VERTEX
  8
pancake_3
 10
0.0
 20
0.0
 30
0.0
 70
   128
 71
   64
 72
   65
 73
   71
  0
VERTEX
  8
pancake_3
 10
0.0
 20
0.0
 30
0.0
 70
   128
 71
   65
 72
   66
 73
   72
  0
VERTEX
  8
pancake_3
 10
0.0
 20
0.0
 30
0.0
 70
   128
 71
   66
 72
   67
 73
   73
  0
VERTEX
  8
pancake_3
 10
0.0
 20
0.0
 30
0.0
 70
   128
 71
   67
 72
   68
 73
   74
  0
VERTEX
  8
pancake_3
 10
0.0
 20
0.0
 30
0.0
 70
   128
 71
   77
 72
   78
 73
   6
  0
VERTEX
  8
pancake_3
 10
0.0
 20
0.0
 30
0.0
 70
   128
 71
   78
 72
   1
 73
   7
  0
VERTEX
  8
pancake_3
 10
0.0
 20
0.0
 30
0.0
 70
   128
 71
   69
 72
   70
 73
   76
  0
VERTEX
  8
pancake_3
 10
0.0
 20
0.0
 30
0.0
 70
   128
 71
   70
 72
   71
 73
   77
  0
VERTEX
  8
pancake_3
 10
0.0
 20
0.0
 30
0.0
 70
   128
 71
   71
 72
   72
 73
   78
  0
VERTEX
  8
pancake_3
 10
0.0
 20
0.0
 30
0.0
 70
   128
 71
   3
 72
   10
 73
   9
  0
VERTEX
  8
pancake_3
 10
0.0
 20
0.0
 30
0.0
 70
   128
 71
   4
 72
   11
 73
   10
  0
VERTEX
  8
pancake_3
 10
0.0
 20
0.0
 30
0.0
 70
   128
 71
   5
 72
   12
 73
   11
  0
VERTEX
  8
pancake_3
 10
0.0
 20
0.0
 30
0.0
 70
   128
 71
   6
 72
   13
 73
   12
  0
VERTEX
  8
pancake_3
 10
0.0
 20
0.0
 30
0.0
 70
   128
 71
   7
 72
   14
 73
   13
  0
VERTEX
  8
pancake_3
 10
0.0
 20
0.0
 30
0.0
 70
   128
 71
   44
 72
   8
 73
   74
  0
VERTEX
  8
pancake_3
 10
0.0
 20
0.0
 30
0.0
 70
   128
 71
   9
 72
   16
 73
   15
  0
VERTEX
  8
pancake_3
 10
0.0
 20
0.0
 30
0.0
 70
   128
 71
   10
 72
   17
 73
   16
  0
VERTEX
  8
pancake_3
 10
0.0
 20
0.0
 30
0.0
 70
   128
 71
   11
 72
   18
 73
   17
  0
VERTEX
  8
pancake_3
 10
0.0
 20
0.0
 30
0.0
 70
   128
 71
   12
 72
   19
 73
   18
  0
VERTEX
  8
pancake_3
 10
0.0
 20
0.0
 30
0.0
 70
   128
 71
   13
 72
   20
 73
   19
  0
VERTEX
  8
pancake_3
 10
0.0
 20
0.0
 30
0.0
 70
   128
 71
   27
 72
   15
 73
   21
  0
VERTEX
  8
pancake_3
 10
0.0
 20
0.0
 30
0.0
 70
   128
 71
   15
 72
   22
 73
   21
  0
VERTEX
  8
pancake_3
 10
0.0
 20
0.0
 30
0.0
 70
   128
 71
   16
 72
   23
 73
   22
  0
VERTEX
  8
pancake_3
 10
0.0
 20
0.0
 30
0.0
 70
   128
 71
   17
 72
   24
 73
   23
  0
VERTEX
  8
pancake_3
 10
0.0
 20
0.0
 30
0.0
 70
   128
 71
   18
 72
   25
 73
   24
  0
VERTEX
  8
pancake_3
 10
0.0
 20
0.0
 30
0.0
 70
   128
 71
   19
 72
   26
 73
   25
  0
VERTEX
  8
pancake_3
 10
0.0
 20
0.0
 30
0.0
 70
   128
 71
   3
 72
   39
 73
   45
  0
VERTEX
  8
pancake_3
 10
0.0
 20
0.0
 30
0.0
 70
   128
 71
   21
 72
   28
 73
   27
  0
VERTEX
  8
pancake_3
 10
0.0
 20
0.0
 30
0.0
 70
   128
 71
   22
 72
   29
 73
   28
  0
VERTEX
  8
pancake_3
 10
0.0
 20
0.0
 30
0.0
 70
   128
 71
   23
 72
   30
 73
   29
  0
VERTEX
  8
pancake_3
 10
0.0
 20
0.0
 30
0.0
 70
   128
 71
   24
 72
   31
 73
   30
  0
VERTEX
  8
pancake_3
 10
0.0
 20
0.0
 30
0.0
 70
   128
 71
   25
 72
   32
 73
   31
  0
VERTEX
  8
pancake_3
 10
0.0
 20
0.0
 30
0.0
 70
   128
 71
   44
 72
   62
 73
   56
  0
VERTEX
  8
pancake_3
 10
0.0
 20
0.0
 30
0.0
 70
   128
 71
   69
 72
   45
 73
   57
  0
VERTEX
  8
pancake_3
 10
0.0
 20
0.0
 30
0.0
 70
   128
 71
   27
 72
   34
 73
   33
  0
VERTEX
  8
pancake_3
 10
0.0
 20
0.0
 30
0.0
 70
   128
 71
   28
 72
   35
 73
   34
  0
VERTEX
  8
pancake_3
 10
0.0
 20
0.0
 30
0.0
 70
   128
 71
   29
 72
   36
 73
   35
  0
VERTEX
  8
pancake_3
 10
0.0
 20
0.0
 30
0.0
 70
   128
 71
   30
 72
   37
 73
   36
  0
VERTEX
  8
pancake_3
 10
0.0
 20
0.0
 30
0.0
 70
   128
 71
   31
 72
   38
 73
   37
  0
VERTEX
  8
pancake_3
 10
0.0
 20
0.0
 30
0.0
 70
   128
 71
   33
 72
   40
 73
   39
  0
VERTEX
  8
pancake_3
 10
0.0
 20
0.0
 30
0.0
 70
   128
 71
   34
 72
   41
 73
   40
  0
VERTEX
  8
pancake_3
 10
0.0
 20
0.0
 30
0.0
 70
   128
 71
   35
 72
   42
 73
   41
  0
VERTEX
  8
pancake_3
 10
0.0
 20
0.0
 30
0.0
 70
   128
 71
   36
 72
   43
 73
   42
  0
VERTEX
  8
pancake_3
 10
0.0
 20
0.0
 30
0.0
 70
   128
 71
   37
 72
   44
 73
   43
  0
VERTEX
  8
pancake_3
 10
0.0
 20
0.0
 30
0.0
 70
   128
 71
   39
 72
   46
 73
   45
  0
VERTEX
  8
pancake_3
 10
0.0
 20
0.0
 30
0.0
 70
   128
 71
   40
 72
   47
 73
   46
  0
VERTEX
  8
pancake_3
 10
0.0
 20
0.0
 30
0.0
 70
   128
 71
   41
 72
   48
 73
   47
  0
VERTEX
  8
pancake_3
 10
0.0
 20
0.0
 30
0.0
 70
   128
 71
   42
 72
   49
 73
   48
  0
VERTEX
  8
pancake_3
 10
0.0
 20
0.0
 30
0.0
 70
   128
 71
   43
 72
   50
 73
   49
  0
VERTEX
  8
pancake_3
 10
0.0
 20
0.0
 30
0.0
 70
   128
 71
   14
 72
   32
 73
   20
  0
VERTEX
  8
pancake_3
 10
0.0
 20
0.0
 30
0.0
 70
   128
 71
   45
 72
   52
 73
   51
  0
VERTEX
  8
pancake_3
 10
0.0
 20
0.0
 30
0.0
 70
   128
 71
   46
 72
   53
 73
   52
  0
VERTEX
  8
pancake_3
 10
0.0
 20
0.0
 30
0.0
 70
   128
 71
   47
 72
   54
 73
   53
  0
VERTEX
  8
pancake_3
 10
0.0
 20
0.0
 30
0.0
 70
   128
 71
   48
 72
   55
 73
   54
  0
VERTEX
  8
pancake_3
 10
0.0
 20
0.0
 30
0.0
 70
   128
 71
   49
 72
   56
 73
   55
  0
VERTEX
  8
pancake_3
 10
0.0
 20
0.0
 30
0.0
 70
   128
 71
   75
 72
   4
 73
   3
  0
VERTEX
  8
pancake_3
 10
0.0
 20
0.0
 30
0.0
 70
   128
 71
   51
 72
   58
 73
   57
  0
VERTEX
  8
pancake_3
 10
0.0
 20
0.0
 30
0.0
 70
   128
 71
   52
 72
   59
 73
   58
  0
VERTEX
  8
pancake_3
 10
0.0
 20
0.0
 30
0.0
 70
   128
 71
   53
 72
   60
 73
   59
  0
VERTEX
  8
pancake_3
 10
0.0
 20
0.0
 30
0.0
 70
   128
 71
   54
 72
   61
 73
   60
  0
VERTEX
  8
pancake_3
 10
0.0
 20
0.0
 30
0.0
 70
   128
 71
   55
 72
   62
 73
   61
  0
VERTEX
  8
pancake_3
 10
0.0
 20
0.0
 30
0.0
 70
   128
 71
   1
 72
   8
 73
   7
  0
VERTEX
  8
pancake_3
 10
0.0
 20
0.0
 30
0.0
 70
   128
 71
   72
 72
   1
 73
   78
  0
VERTEX
  8
pancake_3
 10
0.0
 20
0.0
 30
0.0
 70
   128
 71
   57
 72
   64
 73
   63
  0
VERTEX
  8
pancake_3
 10
0.0
 20
0.0
 30
0.0
 70
   128
 71
   58
 72
   65
 73
   64
  0
VERTEX
  8
pancake_3
 10
0.0
 20
0.0
 30
0.0
 70
   128
 71
   59
 72
   66
 73
   65
  0
VERTEX
  8
pancake_3
 10
0.0
 20
0.0
 30
0.0
 70
   128
 71
   60
 72
   67
 73
   66
  0
VERTEX
  8
pancake_3
 10
0.0
 20
0.0
 30
0.0
 70
   128
 71
   61
 72
   68
 73
   67
  0
VERTEX
  8
pancake_3
 10
0.0
 20
0.0
 30
0.0
 70
   128
 71
   76
 72
   5
 73
   4
  0
VERTEX
  8
pancake_3
 10
0.0
 20
0.0
 30
0.0
 70
   128
 71
   73
 72
   2
 73
   1
  0
VERTEX
  8
pancake_3
 10
0.0
 20
0.0
 30
0.0
 70
   128
 71
   63
 72
   70
 73
   69
  0
VERTEX
  8
pancake_3
 10
0.0
 20
0.0
 30
0.0
 70
   128
 71
   64
 72
   71
 73
   70
  0
VERTEX
  8
pancake_3
 10
0.0
 20
0.0
 30
0.0
 70
   128
 71
   65
 72
   72
 73
   71
  0
VERTEX
  8
pancake_3
 10
0.0
 20
0.0
 30
0.0
 70
   128
 71
   66
 72
   73
 73
   72
  0
VERTEX
  8
pancake_3
 10
0.0
 20
0.0
 30
0.0
 70
   128
 71
   67
 72
   74
 73
   73
  0
VERTEX
  8
pancake_3
 10
0.0
 20
0.0
 30
0.0
 70
   128
 71
   77
 72
   6
 73
   5
  0
VERTEX
  8
pancake_3
 10
0.0
 20
0.0
 30
0.0
 70
   128
 71
   78
 72
   7
 73
   6
  0
VERTEX
  8
pancake_3
 10
0.0
 20
0.0
 30
0.0
 70
   128
 71
   69
 72
   76
 73
   75
  0
VERTEX
  8
pancake_3
 10
0.0
 20
0.0
 30
0.0
 70
   128
 71
   70
 72
   77
 73
   76
  0
VERTEX
  8
pancake_3
 10
0.0
 20
0.0
 30
0.0
 70
   128
 71
   71
 72
   78
 73
   77
  0
SEQEND
  0
POLYLINE
  8
pancake_4
 66
   1
 10
0.0
 20
0.0
 30
0.0
 70
   64
 71
   78
 72
   152
  0
VERTEX
  8
pancake_4
 10
84.364951
 20
54.467798
 30
49.759087
 70
   192
  0
VERTEX
  8
pancake_4
 10
74.194225
 20
59.225632
 30
44.421078
 70
   192
  0
VERTEX
  8
pancake_4
 10
83.695427
 20
22.248269
 30
5.873184
 70
   192
  0
VERTEX
  8
pancake_4
 10
95.181855
 20
27.006104
 30
5.873184
 70
   192
  0
VERTEX
  8
pancake_4
 10
99.939689
 20
38.492531
 30
5.873184
 70
   192
  0
VERTEX
  8
pancake_4
 10
99.939689
 20
42.981370
 30
5.873184
 70
   192
  0
VERTEX
  8
pancake_4
 10
95.181855
 20
54.467798
 30
5.873184
 70
   192
  0
VERTEX
  8
pancake_4
 10
83.695427
 20
59.225632
 30
5.873184
 70
   192
  0
VERTEX
  8
pancake_4
 10
74.194225
 20
22.248269
 30
-32.674709
 70
   192
  0
VERTEX
  8
pancake_4
 10
84.364951
 20
27.006104
 30
-38.012718
 70
   192
  0
VERTEX
  8
pancake_4
 10
88.577804
 20
38.492531
 30
-40.223794
 70
   192
  0
VERTEX
  8
pancake_4
 10
88.577804
 20
42.981370
 30
-40.223794
 70
   192
  0
VERTEX
  8
pancake_4
 10
84.364951
 20
54.467798
 30
-38.012718
 70
   192
  0
VERTEX
  8
pancake_4
 10
74.194225
 20
59.225632
 30
-32.674709
 70
   192
  0
VERTEX
  8
pancake_4
 10
47.867228
 20
22.248269
 30
-62.391745
 70
   192
  0
VERTEX
  8
pancake_4
 10
54.392263
 20
27.006104
 30
-71.844889
 70
   192
  0
VERTEX
  8
pancake_4
 10
57.095021
 20
38.492531
 30
-75.760510
 70
   192
  0
VERTEX
  8
pancake_4
 10
57.095021
 20
42.981370
 30
-75.760510
 70
   192
  0
VERTEX
  8
pancake_4
 10
54.392263
 20
54.467798
 30
-71.844889
 70
   192
  0
VERTEX
  8
pancake_4
 10
47.867228
 20
59.225632
 30
-62.391745
 70
   192
  0
VERTEX
  8
pancake_4
 10
10.745636
 20
22.248269
 30
-76.470108
 70
   192
  0
VERTEX
  8
pancake_4
 10
12.130172
 20
27.006104
 30
-87.872787
 70
   192
  0
VERTEX
  8
pancake_4
 10
12.703665
 20
38.492531
 30
-92.595931
 70
   192
  0
VERTEX
  8
pancake_4
 10
12.703665
 20
42.981370
 30
-92.595931
 70
   192
  0
VERTEX
  8
pancake_4
 10
12.130172
 20
54.467798
 30
-87.872787
 70
   192
  0
VERTEX
  8
pancake_4
 10
10.745636
 20
59.225632
 30
-76.470108
 70
   192
  0
VERTEX
  8
pancake_4
 10
-28.666443
 20
22.248269
 30
-71.684615
 70
   192
  0
VERTEX
  8
pancake_4
 10
-32.739587
 20
27.006104
 30
-82.424612
 70
   192
  0
VERTEX
  8
pancake_4
 10
-34.426738
 20
38.492531
 30
-86.873264
 70
   192
  0
VERTEX
  8
pancake_4
 10
-34.426738
 20
42.981370
 30
-86.873264
 70
   192
  0
VERTEX
  8
pancake_4
 10
-32.739587
 20
54.467798
 30
-82.424612
 70
   192
  0
VERTEX
  8
pancake_4
 10
-28.666443
 20
59.225632
 30
-71.684615
 70
   192
  0
VERTEX
  8
pancake_4
 10
-61.340177
 20
22.248269
 30
-49.131565
 70
   192
  0
VERTEX
  8
pancake_4
 10
-69.937892
 20
27.006104
 30
-56.748476
 70
   192
  0
VERTEX
  8
pancake_4
 10
-73.499182
 20
38.492531
 30
-59.903503
 70
   192
  0
VERTEX
  8
pancake_4
 10
-73.499182
 20
42.981370
 30
-59.903503
 70
   192
  0
VERTEX
  8
pancake_4
 10
-69.937892
 20
54.467798
 30
-56.748476
 70
   192
  0
VERTEX
  8
pancake_4
 10
-61.340177
 20
59.225632
 30
-49.131565
 70
   192
  0
VERTEX
  8
pancake_4
 10
-79.790407
 20
22.248269
 30
-13.977590
 70
   192
  0
VERTEX
  8
pancake_4
 10
-90.943060
 20
27.006104
 30
-16.726472
 70
   192
  0
VERTEX
  8
pancake_4
 10
-95.562640
 20
38.492531
 30
-17.865096
 70
   192
  0
VERTEX
  8
pancake_4
 10
-95.562640
 20
42.981370
 30
-17.865096
 70
   192
  0
VERTEX
  8
pancake_4
 10
-90.943060
 20
54.467798
 30
-16.726472
 70
   192
  0
VERTEX
  8
pancake_4
 10
-79.790407
 20
59.225632
 30
-13.977590
 70
   192
  0
VERTEX
  8
pancake_4
 10
-79.790407
 20
22.248269
 30
25.723959
 70
   192
  0
VERTEX
  8
pancake_4
 10
-90.943060
 20
27.006104
 30
28.472841
 70
   192
  0
VERTEX
  8
pancake_4
 10
-95.562640
 20
38.492531
 30
29.611465
 70
   192
  0
VERTEX
  8
pancake_4
 10
-95.562640
 20
42.981370
 30
29.611465
 70
   192
  0
VERTEX
  8
pancake_4
 10
-90.943060
 20
54.467798
 30
28.472841
 70
   192
  0
VERTEX
  8
pancake_4
 10
-79.790407
 20
59.225632
 30
25.723959
 70
   192
  0
VERTEX
  8
pancake_4
 10
-61.340177
 20
22.248269
 30
60.877934
 70
   192
  0
VERTEX
  8
pancake_4
 10
-69.937892
 20
27.006104
 30
68.494844
 70
   192
  0
VERTEX
  8
pancake_4
 10
-73.499182
 20
38.492531
 30
71.649872
 70
   192
  0
VERTEX
  8
pancake_4
 10
-73.499182
 20
42.981370
 30
71.649872
 70
   192
  0
VERTEX
  8
pancake_4
 10
-69.937892
 20
54.467798
 30
68.494844
 70
   192
  0
VERTEX
  8
pancake_4
 10
-61.340177
 20
59.225632
 30
60.877934
 70
   192
  0
VERTEX
  8
pancake_4
 10
-28.666443
 20
22.248269
 30
83.430984
 70
   192
  0
VERTEX
  8
pancake_4
 10
-32.739587
 20
27.006104
 30
94.170980
 70
   192
  0
VERTEX
  8
pancake_4
 10
-34.426738
 20
38.492531
 30
98.619633
 70
   192
  0
VERTEX
  8
pancake_4
 10
-34.426738
 20
42.981370
 30
98.619633
 70
   192
  0
VERTEX
  8
pancake_4
 10
-32.739587
 20
54.467798
 30
94.170980
 70
   192
  0
VERTEX
  8
pancake_4
 10
-28.666443
 20
59.225632
 30
83.430984
 70
   192
  0
VERTEX
  8
pancake_4
 10
10.745636
 20
22.248269
 30
88.216477
 70
   192
  0
VERTEX
  8
pancake_4
 10
12.130172
 20
27.006104
 30
99.619155
 70
   192
  0
VERTEX
  8
pancake_4
 10
12.703665
 20
38.492531
 30
104.342300
 70
   192
  0
VERTEX
  8
pancake_4
 10
12.703665
 20
42.981370
 30
104.342300
 70
   192
  0
VERTEX
  8
pancake_4
 10
12.130172
 20
54.467798
 30
99.619155
 70
   192
  0
VERTEX
  8
pancake_4
 10
10.745636
 20
59.225632
 30
88.216477
 70
   192
  0
VERTEX
  8
pancake_4
 10
47.867228
 20
22.248269
 30
74.138113
 70
   192
  0
VERTEX
  8
pancake_4
 10
54.392263
 20
27.006104
 30
83.591258
 70
   192
  0
VERTEX
  8
pancake_4
 10
57.095021
 20
38.492531
 30
87.506879
 70
   192
  0
VERTEX
  8
pancake_4
 10
57.095021
 20
42.981370
 30
87.506879
 70
   192
  0
VERTEX
  8
pancake_4
 10
54.392263
 20
54.467798
 30
83.591258
 70
   192
  0
VERTEX
  8
pancake_4
 10
47.867228
 20
59.225632
 30
74.138113
 70
   192
  0
VERTEX
  8
pancake_4
 10
74.194225
 20
22.248269
 30
44.421078
 70
   192
  0
VERTEX
  8
pancake_4
 10
84.364951
 20
27.006104
 30
49.759087
 70
   192
  0
VERTEX
  8
pancake_4
 10
88.577804
 20
38.492531
 30
51.970163
 70
   192
  0
VERTEX
  8
pancake_4
 10
88.577804
 20
42.981370
 30
51.970163
 70
   192
  0
VERTEX
  8
pancake_4
 10
0.0
 20
0.0
 30
0.0
 70
   128
 71
   75
 72
   3
 73
   69
  0
VERTEX
  8
pancake_4
 10
0.0
 20
0.0
 30
0.0
 70
   128
 71
   3
 72
   4
 73
   10
  0
VERTEX
  8
pancake_4
 10
0.0
 20
0.0
 30
0.0
 70
   128
 71
   4
 72
   5
 73
   11
  0
VERTEX
  8
pancake_4
 10
0.0
 20
0.0
 30
0.0
 70
   128
 71
   5
 72
   6
 73
   12
  0
VERTEX
  8
pancake_4
 10
0.0
 20
0.0
 30
0.0
 70
   128
 71
   6
 72
   7
 73
   13
  0
VERTEX
  8
pancake_4
 10
0.0
 20
0.0
 30
0.0
 70
   128
 71
   7
 72
   8
 73
   14
  0
VERTEX
  8
pancake_4
 10
0.0
 20
0.0
 30
0.0
 70
   128
 71
   44
 72
   14
 73
   8
  0
VERTEX
  8
pancake_4
 10
0.0
 20
0.0
 30
0.0
 70
   128
 71
   3
 72
   9
 73
   15
  0
VERTEX
  8
pancake_4
 10
0.0
 20
0.0
 30
0.0
 70
   128
 71
   9
 72
   10
 73
   16
  0
VERTEX
  8
pancake_4
 10
0.0
 20
0.0
 30
0.0
 70
   128
 71
   10
 72
   11
 73
   17
  0
VERTEX
  8
pancake_4
 10
0.0
 20
0.0
 30
0.0
 70
   128
 71
   11
 72
   12
 73
   18
  0
VERTEX
  8
pancake_4
 10
0.0
 20
0.0
 30
0.0
 70
   128
 71
   12
 72
   13
 73
   19
  0
VERTEX
  8
pancake_4
 10
0.0
 20
0.0
 30
0.0
 70
   128
 71
   13
 72
   14
 73
   20
  0
VERTEX
  8
pancake_4
 10
0.0
 20
0.0
 30
0.0
 70
   128
 71
   8
 72
   2
 73
   74
  0
VERTEX
  8
pancake_4
 10
0.0
 20
0.0
 30
0.0
 70
   128
 71
   27
 72
   3
 73
   15
  0
VERTEX
  8
pancake_4
 10
0.0
 20
0.0
 30
0.0
 70
   128
 71
   15
 72
   16
 73
   22
  0
VERTEX
  8
pancake_4
 10
0.0
 20
0.0
 30
0.0
 70
   128
 71
   16
 72
   17
 73
   23
  0
VERTEX
  8
pancake_4
 10
0.0
 20
0.0
 30
0.0
 70
   128
 71
   17
 72
   18
 73
   24
  0
VERTEX
  8
pancake_4
 10
0.0
 20
0.0
 30
0.0
 70
   128
 71
   18
 72
   19
 73
   25
  0
VERTEX
  8
pancake_4
 10
0.0
 20
0.0
 30
0.0
 70
   128
 71
   19
 72
   20
 73
   26
  0
VERTEX
  8
pancake_4
 10
0.0
 20
0.0
 30
0.0
 70
   128
 71
   74
 72
   68
 73
   62
  0
VERTEX
  8
pancake_4
 10
0.0
 20
0.0
 30
0.0
 70
   128
 71
   3
 72
   27
 73
   39
  0
VERTEX
  8
pancake_4
 10
0.0
 20
0.0
 30
0.0
 70
   128
 71
   21
 72
   22
 73
   28
  0
VERTEX
  8
pancake_4
 10
0.0
 20
0.0
 30
0.0
 70
   128
 71
   22
 72
   23
 73
   29
  0
VERTEX
  8
pancake_4
 10
0.0
 20
0.0
 30
0.0
 70
   128
 71
   23
 72
   24
 73
   30
  0
VERTEX
  8
pancake_4
 10
0.0
 20
0.0
 30
0.0
 70
   128
 71
   24
 72
   25
 73
   31
  0
VERTEX
  8
pancake_4
 10
0.0
 20
0.0
 30
0.0
 70
   128
 71
   25
 72
   26
 73
   32
  0
VERTEX
  8
pancake_4
 10
0.0
 20
0.0
 30
0.0
 70
   128
 71
   44
 72
   74
 73
   62
  0
VERTEX
  8
pancake_4
 10
0.0
 20
0.0
 30
0.0
 70
   128
 71
   69
 72
   3
 73
   45
  0
VERTEX
  8
pancake_4
 10
0.0
 20
0.0
 30
0.0
 70
   128
 71
   27
 72
   28
 73
   34
  0
VERTEX
  8
pancake_4
 10
0.0
 20
0.0
 30
0.0
 70
   128
 71
   28
 72
   29
 73
   35
  0
VERTEX
  8
pancake_4
 10
0.0
 20
0.0
 30
0.0
 70
   128
 71
   29
 72
   30
 73
   36
  0
VERTEX
  8
pancake_4
 10
0.0
 20
0.0
 30
0.0
 70
   128
 71
   30
 72
   31
 73
   37
  0
VERTEX
  8
pancake_4
 10
0.0
 20
0.0
 30
0.0
 70
   128
 71
   31
 72
   32
 73
   38
  0
VERTEX
  8
pancake_4
 10
0.0
 20
0.0
 30
0.0
 70
   128
 71
   56
 72
   50
 73
   44
  0
VERTEX
  8
pancake_4
 10
0.0
 20
0.0
 30
0.0
 70
   128
 71
   27
 72
   33
 73
   39
  0
VERTEX
  8
pancake_4
 10
0.0
 20
0.0
 30
0.0
 70
   128
 71
   33
 72
   34
 73
   40
  0
VERTEX
  8
pancake_4
 10
0.0
 20
0.0
 30
0.0
 70
   128
 71
   34
 72
   35
 73
   41
  0
VERTEX
  8
pancake_4
 10
0.0
 20
0.0
 30
0.0
 70
   128
 71
   35
 72
   36
 73
   42
  0
VERTEX
  8
pancake_4
 10
0.0
 20
0.0
 30
0.0
 70
   128
 71
   36
 72
   37
 73
   43
  0
VERTEX
  8
pancake_4
 10
0.0
 20
0.0
 30
0.0
 70
   128
 71
   37
 72
   38
 73
   44
  0
VERTEX
  8
pancake_4
 10
0.0
 20
0.0
 30
0.0
 70
   128
 71
   44
 72
   38
 73
   32
  0
VERTEX
  8
pancake_4
 10
0.0
 20
0.0
 30
0.0
 70
   128
 71
   45
 72
   51
 73
   57
  0
VERTEX
  8
pancake_4
 10
0.0
 20
0.0
 30
0.0
 70
   128
 71
   39
 72
   40
 73
   46
  0
VERTEX
  8
pancake_4
 10
0.0
 20
0.0
 30
0.0
 70
   128
 71
   40
 72
   41
 73
   47
  0
VERTEX
  8
pancake_4
 10
0.0
 20
0.0
 30
0.0
 70
   128
 71
   41
 72
   42
 73
   48
  0
VERTEX
  8
pancake_4
 10
0.0
 20
0.0
 30
0.0
 70
   128
 71
   42
 72
   43
 73
   49
  0
VERTEX
  8
pancake_4
 10
0.0
 20
0.0
 30
0.0
 70
   128
 71
   43
 72
   44
 73
   50
  0
VERTEX
  8
pancake_4
 10
0.0
 20
0.0
 30
0.0
 70
   128
 71
   14
 72
   44
 73
   32
  0
VERTEX
  8
pancake_4
 10
0.0
 20
0.0
 30
0.0
 70
   128
 71
   57
 72
   63
 73
   69
  0
VERTEX
  8
pancake_4
 10
0.0
 20
0.0
 30
0.0
 70
   128
 71
   45
 72
   46
 73
   52
  0
VERTEX
  8
pancake_4
 10
0.0
 20
0.0
 30
0.0
 70
   128
 71
   46
 72
   47
 73
   53
  0
VERTEX
  8
pancake_4
 10
0.0
 20
0.0
 30
0.0
 70
   128
 71
   47
 72
   48
 73
   54
  0
VERTEX
  8
pancake_4
 10
0.0
 20
0.0
 30
0.0
 70
   128
 71
   48
 72
   49
 73
   55
  0
VERTEX
  8
pancake_4
 10
0.0
 20
0.0
 30
0.0
 70
   128
 71
   49
 72
   50
 73
   56
  0
VERTEX
  8
pancake_4
 10
0.0
 20
0.0
 30
0.0
 70
   128
 71
   32
 72
   26
 73
   20
  0
VERTEX
  8
pancake_4
 10
0.0
 20
0.0
 30
0.0
 70
   128
 71
   75
 72
   76
 73
   4
  0
VERTEX
  8
pancake_4
 10
0.0
 20
0.0
 30
0.0
 70
   128
 71
   51
 72
   52
 73
   58
  0
VERTEX
  8
pancake_4
 10
0.0
 20
0.0
 30
0.0
 70
   128
 71
   52
 72
   53
 73
   59
  0
VERTEX
  8
pancake_4
 10
0.0
 20
0.0
 30
0.0
 70
   128
 71
   53
 72
   54
 73
   60
  0
VERTEX
  8
pancake_4
 10
0.0
 20
0.0
 30
0.0
 70
   128
 71
   54
 72
   55
 73
   61
  0
VERTEX
  8
pancake_4
 10
0.0
 20
0.0
 30
0.0
 70
   128
 71
   55
 72
   56
 73
   62
  0
VERTEX
  8
pancake_4
 10
0.0
 20
0.0
 30
0.0
 70
   128
 71
   1
 72
   2
 73
   8
  0
VERTEX
  8
pancake_4
 10
0.0
 20
0.0
 30
0.0
 70
   128
 71
   72
 72
   73
 73
   1
  0
VERTEX
  8
pancake_4
 10
0.0
 20
0.0
 30
0.0
 70
   128
 71
   57
 72
   58
 73
   64
  0
VERTEX
  8
pancake_4
 10
0.0
 20
0.0
 30
0.0
 70
   128
 71
   58
 72
   59
 73
   65
  0
VERTEX
  8
pancake_4
 10
0.0
 20
0.0
 30
0.0
 70
   128
 71
   59
 72
   60
 73
   66
  0
VERTEX
  8
pancake_4
 10
0.0
 20
0.0
 30
0.0
 70
   128
 71
   60
 72
   61
 73
   67
  0
VERTEX
  8
pancake_4
 10
0.0
 20
0.0
 30
0.0
 70
   128
 71
   61
 72
   62
 73
   68
  0
VERTEX
  8
pancake_4
 10
0.0
 20
0.0
 30
0.0
 70
   128
 71
   76
 72
   77
 73
   5
  0
VERTEX
  8
pancake_4
 10
0.0
 20
0.0
 30
0.0
 70
   128
 71
   73
 72
   74
 73
   2
  0
VERTEX
  8
pancake_4
 10
0.0
 20
0.0
 30
0.0
 70
   128
 71
   63
 72
   64
 73
   70
  0
VERTEX
  8
pancake_4
 10
0.0
 20
0.0
 30
0.0
 70
   128
 71
   64
 72
   65
 73
   71
  0
VERTEX
  8
pancake_4
 10
0.0
 20
0.0
 30
0.0
 70
   128
 71
   65
 72
   66
 73
   72
  0
VERTEX
  8
pancake_4
 10
0.0
 20
0.0
 30
0.0
 70
   128
 71
   66
 72
   67
 73
   73
  0
VERTEX
  8
pancake_4
 10
0.0
 20
0.0
 30
0.0
 70
   128
 71
   67
 72
   68
 73
   74
  0
VERTEX
  8
pancake_4
 10
0.0
 20
0.0
 30
0.0
 70
   128
 71
   77
 72
   78
 73
   6
  0
VERTEX
  8
pancake_4
 10
0.0
 20
0.0
 30
0.0
 70
   128
 71
   78
 72
   1
 73
   7
  0
VERTEX
  8
pancake_4
 10
0.0
 20
0.0
 30
0.0
 70
   128
 71
   69
 72
   70
 73
   76
  0
VERTEX
  8
pancake_4
 10
0.0
 20
0.0
 30
0.0
 70
   128
 71
   70
 72
   71
 73
   77
  0
VERTEX
  8
pancake_4
 10
0.0
 20
0.0
 30
0.0
 70
   128
 71
   71
 72
   72
 73
   78
  0
VERTEX
  8
pancake_4
 10
0.0
 20
0.0
 30
0.0
 70
   128
 71
   3
 72
   10
 73
   9
  0
VERTEX
  8
pancake_4
 10
0.0
 20
0.0
 30
0.0
 70
   128
 71
   4
 72
   11
 73
   10
  0
VERTEX
  8
pancake_4
 10
0.0
 20
0.0
 30
0.0
 70
   128
 71
   5
 72
   12
 73
   11
  0
VERTEX
  8
pancake_4
 10
0.0
 20
0.0
 30
0.0
 70
   128
 71
   6
 72
   13
 73
   12
  0
VERTEX
  8
pancake_4
 10
0.0
 20
0.0
 30
0.0
 70
   128
 71
   7
 72
   14
 73
   13
  0
VERTEX
  8
pancake_4
 10
0.0
 20
0.0
 30
0.0
 70
   128
 71
   44
 72
   8
 73
   74
  0
VERTEX
  8
pancake_4
 10
0.0
 20
0.0
 30
0.0
 70
   128
 71
   9
 72
   16
 73
   15
  0
VERTEX
  8
pancake_4
 10
0.0
 20
0.0
 30
0.0
 70
   128
 71
   10
 72
   17
 73
   16
  0
VERTEX
  8
pancake_4
 10
0.0
 20
0.0
 30
0.0
 70
   128
 71
   11
 72
   18
 73
   17
  0
VERTEX
  8
pancake_4
 10
0.0
 20
0.0
 30
0.0
 70
   128
 71
   12
 72
   19
 73
   18
  0
VERTEX
  8
pancake_4
 10
0.0
 20
0.0
 30
0.0
 70
   128
 71
   13
 72
   20
 73
   19
  0
VERTEX
  8
pancake_4
 10
0.0
 20
0.0
 30
0.0
 70
   128
 71
   27
 72
   15
 73
   21
  0
VERTEX
  8
pancake_4
 10
0.0
 20
0.0
 30
0.0
 70
   128
 71
   15
 72
   22
 73
   21
  0
VERTEX
  8
pancake_4
 10
0.0
 20
0.0
 30
0.0
 70
   128
 71
   16
 72
   23
 73
   22
  0
VERTEX
  8
pancake_4
 10
0.0
 20
0.0
 30
0.0
 70
   128
 71
   17
 72
   24
 73
   23
  0
VERTEX
  8
pancake_4
 10
0.0
 20
0.0
 30
0.0
 70
   128
 71
   18
 72
   25
 73
   24
  0
VERTEX
  8
pancake_4
 10
0.0
 20
0.0
 30
0.0
 70
   128
 71
   19
 72
   26
 73
   25
  0
VERTEX
  8
pancake_4
 10
0.0
 20
0.0
 30
0.0
 70
   128
 71
   3
 72
   39
 73
   45
  0
VERTEX
  8
pancake_4
 10
0.0
 20
0.0
 30
0.0
 70
   128
 71
   21
 72
   28
 73
   27
  0
VERTEX
  8
pancake_4
 10
0.0
 20
0.0
 30
0.0
 70
   128
 71
   22
 72
   29
 73
   28
  0
VERTEX
  8
pancake_4
 10
0.0
 20
0.0
 30
0.0
 70
   128
 71
   23
 72
   30
 73
   29
  0
VERTEX
  8
pancake_4
 10
0.0
 20
0.0
 30
0.0
 70
   128
 71
   24
 72
   31
 73
   30
  0
VERTEX
  8
pancake_4
 10
0.0
 20
0.0
 30
0.0
 70
   128
 71
   25
 72
   32
 73
   31
  0
VERTEX
  8
pancake_4
 10
0.0
 20
0.0
 30
0.0
 70
   128
 71
   44
 72
   62
 73
   56
  0
VERTEX
  8
pancake_4
 10
0.0
 20
0.0
 30
0.0
 70
   128
 71
   69
 72
   45
 73
   57
  0
VERTEX
  8
pancake_4
 10
0.0
 20
0.0
 30
0.0
 70
   128
 71
   27
 72
   34
 73
   33
  0
VERTEX
  8
pancake_4
 10
0.0
 20
0.0
 30
0.0
 70
   128
 71
   28
 72
   35
 73
   34
  0
VERTEX
  8
pancake_4
 10
0.0
 20
0.0
 30
0.0
 70
   128
 71
   29
 72
   36
 73
   35
  0
VERTEX
  8
pancake_4
 10
0.0
 20
0.0
 30
0.0
 70
   128
 71
   30
 72
   37
 73
   36
  0
VERTEX
  8
pancake_4
 10
0.0
 20
0.0
 30
0.0
 70
   128
 71
   31
 72
   38
 73
   37
  0
VERTEX
  8
pancake_4
 10
0.0
 20
0.0
 30
0.0
 70
   128
 71
   33
 72
   40
 73
   39
  0
VERTEX
  8
pancake_4
 10
0.0
 20
0.0
 30
0.0
 70
   128
 71
   34
 72
   41
 73
   40
  0
VERTEX
  8
pancake_4
 10
0.0
 20
0.0
 30
0.0
 70
   128
 71
   35
 72
   42
 73
   41
  0
VERTEX
  8
pancake_4
 10
0.0
 20
0.0
 30
0.0
 70
   128
 71
   36
 72
   43
 73
   42
  0
VERTEX
  8
pancake_4
 10
0.0
 20
0.0
 30
0.0
 70
   128
 71
   37
 72
   44
 73
   43
  0
VERTEX
  8
pancake_4
 10
0.0
 20
0.0
 30
0.0
 70
   128
 71
   39
 72
   46
 73
   45
  0
VERTEX
  8
pancake_4
 10
0.0
 20
0.0
 30
0.0
 70
   128
 71
   40
 72
   47
 73
   46
  0
VERTEX
  8
pancake_4
 10
0.0
 20
0.0
 30
0.0
 70
   128
 71
   41
 72
   48
 73
   47
  0
VERTEX
  8
pancake_4
 10
0.0
 20
0.0
 30
0.0
 70
   128
 71
   42
 72
   49
 73
   48
  0
VERTEX
  8
pancake_4
 10
0.0
 20
0.0
 30
0.0
 70
   128
 71
   43
 72
   50
 73
   49
  0
VERTEX
  8
pancake_4
 10
0.0
 20
0.0
 30
0.0
 70
   128
 71
   14
 72
   32
 73
   20
  0
VERTEX
  8
pancake_4
 10
0.0
 20
0.0
 30
0.0
 70
   128
 71
   45
 72
   52
 73
   51
  0
VERTEX
  8
pancake_4
 10
0.0
 20
0.0
 30
0.0
 70
   128
 71
   46
 72
   53
 73
   52
  0
VERTEX
  8
pancake_4
 10
0.0
 20
0.0
 30
0.0
 70
   128
 71
   47
 72
   54
 73
   53
  0
VERTEX
  8
pancake_4
 10
0.0
 20
0.0
 30
0.0
 70
   128
 71
   48
 72
   55
 73
   54
  0
VERTEX
  8
pancake_4
 10
0.0
 20
0.0
 30
0.0
 70
   128
 71
   49
 72
   56
 73
   55
  0
VERTEX
  8
pancake_4
 10
0.0
 20
0.0
 30
0.0
 70
   128
 71
   75
 72
   4
 73
   3
  0
VERTEX
  8
pancake_4
 10
0.0
 20
0.0
 30
0.0
 70
   128
 71
   51
 72
   58
 73
   57
  0
VERTEX
  8
pancake_4
 10
0.0
 20
0.0
 30
0.0
 70
   128
 71
   52
 72
   59
 73
   58
  0
VERTEX
  8
pancake_4
 10
0.0
 20
0.0
 30
0.0
 70
   128
 71
   53
 72
   60
 73
   59
  0
VERTEX
  8
pancake_4
 10
0.0
 20
0.0
 30
0.0
 70
   128
 71
   54
 72
   61
 73
   60
  0
VERTEX
  8
pancake_4
 10
0.0
 20
0.0
 30
0.0
 70
   128
 71
   55
 72
   62
 73
   61
  0
VERTEX
  8
pancake_4
 10
0.0
 20
0.0
 30
0.0
 70
   128
 71
   1
 72
   8
 73
   7
  0
VERTEX
  8
pancake_4
 10
0.0
 20
0.0
 30
0.0
 70
   128
 71
   72
 72
   1
 73
   78
  0
VERTEX
  8
pancake_4
 10
0.0
 20
0.0
 30
0.0
 70
   128
 71
   57
 72
   64
 73
   63
  0
VERTEX
  8
pancake_4
 10
0.0
 20
0.0
 30
0.0
 70
   128
 71
   58
 72
   65
 73
   64
  0
VERTEX
  8
pancake_4
 10
0.0
 20
0.0
 30
0.0
 70
   128
 71
   59
 72
   66
 73
   65
  0
VERTEX
  8
pancake_4
 10
0.0
 20
0.0
 30
0.0
 70
   128
 71
   60
 72
   67
 73
   66
  0
VERTEX
  8
pancake_4
 10
0.0
 20
0.0
 30
0.0
 70
   128
 71
   61
 72
   68
 73
   67
  0
VERTEX
  8
pancake_4
 10
0.0
 20
0.0
 30
0.0
 70
   128
 71
   76
 72
   5
 73
   4
  0
VERTEX
  8
pancake_4
 10
0.0
 20
0.0
 30
0.0
 70
   128
 71
   73
 72
   2
 73
   1
  0
VERTEX
  8
pancake_4
 10
0.0
 20
0.0
 30
0.0
 70
   128
 71
   63
 72
   70
 73
   69
  0
VERTEX
  8
pancake_4
 10
0.0
 20
0.0
 30
0.0
 70
   128
 71
   64
 72
   71
 73
   70
  0
VERTEX
  8
pancake_4
 10
0.0
 20
0.0
 30
0.0
 70
   128
 71
   65
 72
   72
 73
   71
  0
VERTEX
  8
pancake_4
 10
0.0
 20
0.0
 30
0.0
 70
   128
 71
   66
 72
   73
 73
   72
  0
VERTEX
  8
pancake_4
 10
0.0
 20
0.0
 30
0.0
 70
   128
 71
   67
 72
   74
 73
   73
  0
VERTEX
  8
pancake_4
 10
0.0
 20
0.0
 30
0.0
 70
   128
 71
   77
 72
   6
 73
   5
  0
VERTEX
  8
pancake_4
 10
0.0
 20
0.0
 30
0.0
 70
   128
 71
   78
 72
   7
 73
   6
  0
VERTEX
  8
pancake_4
 10
0.0
 20
0.0
 30
0.0
 70
   128
 71
   69
 72
   76
 73
   75
  0
VERTEX
  8
pancake_4
 10
0.0
 20
0.0
 30
0.0
 70
   128
 71
   70
 72
   77
 73
   76
  0
VERTEX
  8
pancake_4
 10
0.0
 20
0.0
 30
0.0
 70
   128
 71
   71
 72
   78
 73
   77
  0
SEQEND
  0
POLYLINE
  8
pancake_5
 66
   1
 10
0.0
 20
0.0
 30
0.0
 70
   64
 71
   78
 72
   152
  0
VERTEX
  8
pancake_5
 10
85.401099
 20
87.736308
 30
38.297491
 70
   192
  0
VERTEX
  8
pancake_5
 10
75.230372
 20
92.494142
 30
32.959481
 70
   192
  0
VERTEX
  8
pancake_5
 10
84.731574
 20
55.516779
 30
-5.588412
 70
   192
  0
VERTEX
  8
pancake_5
 10
96.218002
 20
60.274613
 30
-5.588412
 70
   192
  0
VERTEX
  8
pancake_5
 10
100.975836
 20
71.761041
 30
-5.588412
 70
   192
  0
VERTEX
  8
pancake_5
 10
100.975836
 20
76.249880
 30
-5.588412
 70
   192
  0
VERTEX
  8
pancake_5
 10
96.218002
 20
87.736308
 30
-5.588412
 70
   192
  0
VERTEX
  8
pancake_5
 10
84.731574
 20
92.494142
 30
-5.588412
 70
   192
  0
VERTEX
  8
pancake_5
 10
75.230372
 20
55.516779
 30
-44.136305
 70
   192
  0
VERTEX
  8
pancake_5
 10
85.401099
 20
60.274613
 30
-49.474315
 70
   192
  0
VERTEX
  8
pancake_5
 10
89.613952
 20
71.761041
 30
-51.685390
 70
   192
  0
VERTEX
  8
pancake_5
 10
89.613952
 20
76.249880
 30
-51.685390
 70
   192
  0
VERTEX
  8
pancake_5
 10
85.401099
 20
87.736308
 30
-49.474315
 70
   192
  0
VERTEX
  8
pancake_5
 10
75.230372
 20
92.494142
 30
-44.136305
 70
   192
  0
VERTEX
  8
pancake_5
 10
48.903376
 20
55.516779
 30
-73.853341
 70
   192
  0
VERTEX
  8
pancake_5
 10
55.428410
 20
60.274613
 30
-83.306486
 70
   192
  0
VERTEX
  8
pancake_5
 10
58.131168
 20
71.761041
 30
-87.222107
 70
   192
  0
VERTEX
  8
pancake_5
 10
58.131168
 20
76.249880
 30
-87.222107
 70
   192
  0
VERTEX
  8
pancake_5
 10
55.428410
 20
87.736308
 30
-83.306486
 70
   192
  0
VERTEX
  8
pancake_5
 10
48.903376
 20
92.494142
 30
-73.853341
 70
   192
  0
VERTEX
  8
pancake_5
 10
11.781783
 20
55.516779
 30
-87.931704
 70
   192
  0
VERTEX
  8
pancake_5
 10
13.166319
 20
60.274613
 30
-99.334383
 70
   192
  0
VERTEX
  8
pancake_5
 10
13.739813
 20
71.761041
 30
-104.057527
 70
   192
  0
VERTEX
  8
pancake_5
 10
13.739813
 20
76.249880
 30
-104.057527
 70
   192
  0
VERTEX
  8
pancake_5
 10
13.166319
 20
87.736308
 30
-99.334383
 70
   192
  0
VERTEX
  8
pancake_5
 10
11.781783
 20
92.494142
 30
-87.931704
 70
   192
  0
VERTEX
  8
pancake_5
 10
-27.630296
 20
55.516779
 30
-83.146211
 70
   192
  0
VERTEX
  8
pancake_5
 10
-31.703440
 20
60.274613
 30
-93.886208
 70
   192
  0
VERTEX
  8
pancake_5
 10
-33.390591
 20
71.761041
 30
-98.334860
 70
   192
  0
VERTEX
  8
pancake_5
 10
-33.390591
 20
76.249880
 30
-98.334860
 70
   192
  0
VERTEX
  8
pancake_5
 10
-31.703440
 20
87.736308
 30
-93.886208
 70
   192
  0
VERTEX
  8
pancake_5
 10
-27.630296
 20
92.494142
 30
-83.146211
 70
   192
  0
VERTEX
  8
pancake_5
 10
-60.304030
 20
55.516779
 30
-60.593161
 70
   192
  0
VERTEX
  8
pancake_5
 10
-68.901745
 20
60.274613
 30
-68.210072
 70
   192
  0
VERTEX
  8
pancake_5
 10
-72.463035
 20
71.761041
 30
-71.365100
 70
   192
  0
VERTEX
  8
pancake_5
 10
-72.463035
 20
76.249880
 30
-71.365100
 70
   192
  0
VERTEX
  8
pancake_5
 10
-68.901745
 20
87.736308
 30
-68.210072
 70
   192
  0
VERTEX
  8
pancake_5
 10
-60.304030
 20
92.494142
 30
-60.593161
 70
   192
  0
VERTEX
  8
pancake_5
 10
-78.754259
 20
55.516779
 30
-25.439186
 70
   192
  0
VERTEX
  8
pancake_5
 10
-89.906912
 20
60.274613
 30
-28.188068
 70
   192
  0
VERTEX
  8
pancake_5
 10
-94.526493
 20
71.761041
 30
-29.326693
 70
   192
  0
VERTEX
  8
pancake_5
 10
-94.526493
 20
76.249880
 30
-29.326693
 70
   192
  0
VERTEX
  8
pancake_5
 10
-89.906912
 20
87.736308
 30
-28.188068
 70
   192
  0
VERTEX
  8
pancake_5
 10
-78.754259
 20
92.494142
 30
-25.439186
 70
   192
  0
VERTEX
  8
pancake_5
 10
-78.754259
 20
55.516779
 30
14.262362
 70
   192
  0
VERTEX
  8
pancake_5
 10
-89.906912
 20
60.274613
 30
17.011244
 70
   192
  0
VERTEX
  8
pancake_5
 10
-94.526493
 20
71.761041
 30
18.149869
 70
   192
  0
VERTEX
  8
pancake_5
 10
-94.526493
 20
76.249880
 30
18.149869
 70
   192
  0
VERTEX
  8
pancake_5
 10
-89.906912
 20
87.736308
 30
17.011244
 70
   192
  0
VERTEX
  8
pancake_5
 10
-78.754259
 20
92.494142
 30
14.262362
 70
   192
  0
VERTEX
  8
pancake_5
 10
-60.304030
 20
55.516779
 30
49.416337
 70
   192
  0
VERTEX
  8
pancake_5
 10
-68.901745
 20
60.274613
 30
57.033248
 70
   192
  0
VERTEX
  8
pancake_5
 10
-72.463035
 20
71.761041
 30
60.188276
 70
   192
  0
VERTEX
  8
pancake_5
 10
-72.463035
 20
76.249880
 30
60.188276
 70
   192
  0
VERTEX
  8
pancake_5
 10
-68.901745
 20
87.736308
 30
57.033248
 70
   192
  0
VERTEX
  8
pancake_5
 10
-60.304030
 20
92.494142
 30
49.416337
 70
   192
  0
VERTEX
  8
pancake_5
 10
-27.630296
 20
55.516779
 30
71.969387
 70
   192
  0
VERTEX
  8
pancake_5
 10
-31.703440
 20
60.274613
 30
82.709384
 70
   192
  0
VERTEX
  8
pancake_5
 10
-33.390591
 20
71.761041
 30
87.158036
 70
   192
  0
VERTEX
  8
pancake_5
 10
-33.390591
 20
76.249880
 30
87.158036
 70
   192
  0
VERTEX
  8
pancake_5
 10
-31.703440
 20
87.736308
 30
82.709384
 70
   192
  0
VERTEX
  8
pancake_5
 10
-27.630296
 20
92.494142
 30
71.969387
 70
   192
  0
VERTEX
  8
pancake_5
 10
11.781783
 20
55.516779
 30
76.754880
 70
   192
  0
VERTEX
  8
pancake_5
 10
13.166319
 20
60.274613
 30
88.157559
 70
   192
  0
VERTEX
  8
pancake_5
 10
13.739813
 20
71.761041
 30
92.880703
 70
   192
  0
VERTEX
  8
pancake_5
 10
13.739813
 20
76.249880
 30
92.880703
 70
   192
  0
VERTEX
  8
pancake_5
 10
13.166319
 20
87.736308
 30
88.157559
 70
   192
  0
VERTEX
  8
pancake_5
 10
11.781783
 20
92.494142
 30
76.754880
 70
   192
  0
VERTEX
  8
pancake_5
 10
48.903376
 20
55.516779
 30
62.676517
 70
   192
  0
VERTEX
  8
pancake_5
 10
55.428410
 20
60.274613
 30
72.129662
 70
   192
  0
VERTEX
  8
pancake_5
 10
58.131168
 20
71.761041
 30
76.045283
 70
   192
  0
VERTEX
  8
pancake_5
 10
58.131168
 20
76.249880
 30
76.045283
 70
   192
  0
VERTEX
  8
pancake_5
 10
55.428410
 20
87.736308
 30
72.129662
 70
   192
  0
VERTEX
  8
pancake_5
 10
48.903376
 20
92.494142
 30
62.676517
 70
   192
  0
VERTEX
  8
pancake_5
 10
75.230372
 20
55.516779
 30
32.959481
 70
   192
  0
VERTEX
  8
pancake_5
 10
85.401099
 20
60.274613
 30
38.297491
 70
   192
  0
VERTEX
  8
pancake_5
 10
89.613952
 20
71.761041
 30
40.508566
 70
   192
  0
VERTEX
  8
pancake_5
 10
89.613952
 20
76.249880
 30
40.508566
 70
   192
  0
VERTEX
  8
pancake_5
 10
0.0
 20
0.0
 30
0.0
 70
   128
 71
   75
 72
   3
 73
   69
  0
VERTEX
  8
pancake_5
 10
0.0
 20
0.0
 30
0.0
 70
   128
 71
   3
 72
   4
 73
   10
  0
VERTEX
  8
pancake_5
 10
0.0
 20
0.0
 30
0.0
 70
   128
 71
   4
 72
   5
 73
   11
  0
VERTEX
  8
pancake_5
 10
0.0
 20
0.0
 30
0.0
 70
   128
 71
   5
 72
   6
 73
   12
  0
VERTEX
  8
pancake_5
 10
0.0
 20
0.0
 30
0.0
 70
   128
 71
   6
 72
   7
 73
   13
  0
VERTEX
  8
pancake_5
 10
0.0
 20
0.0
 30
0.0
 70
   128
 71
   7
 72
   8
 73
   14
  0
VERTEX
  8
pancake_5
 10
0.0
 20
0.0
 30
0.0
 70
   128
 71
   44
 72
   14
 73
   8
  0
VERTEX
  8
pancake_5
 10
0.0
 20
0.0
 30
0.0
 70
   128
 71
   3
 72
   9
 73
   15
  0
VERTEX
  8
pancake_5
 10
0.0
 20
0.0
 30
0.0
 70
   128
 71
   9
 72
   10
 73
   16
  0
VERTEX
  8
pancake_5
 10
0.0
 20
0.0
 30
0.0
 70
   128
 71
   10
 72
   11
 73
   17
  0
VERTEX
  8
pancake_5
 10
0.0
 20
0.0
 30
0.0
 70
   128
 71
   11
 72
   12
 73
   18
  0
VERTEX
  8
pancake_5
 10
0.0
 20
0.0
 30
0.0
 70
   128
 71
   12
 72
   13
 73
   19
  0
VERTEX
  8
pancake_5
 10
0.0
 20
0.0
 30
0.0
 70
   128
 71
   13
 72
   14
 73
   20
  0
VERTEX
  8
pancake_5
 10
0.0
 20
0.0
 30
0.0
 70
   128
 71
   8
 72
   2
 73
   74
  0
VERTEX
  8
pancake_5
 10
0.0
 20
0.0
 30
0.0
 70
   128
 71
   27
 72
   3
 73
   15
  0
VERTEX
  8
pancake_5
 10
0.0
 20
0.0
 30
0.0
 70
   128
 71
   15
 72
   16
 73
   22
  0
VERTEX
  8
pancake_5
 10
0.0
 20
0.0
 30
0.0
 70
   128
 71
   16
 72
   17
 73
   23
  0
VERTEX
  8
pancake_5
 10
0.0
 20
0.0
 30
0.0
 70
   128
 71
   17
 72
   18
 73
   24
  0
VERTEX
  8
pancake_5
 10
0.0
 20
0.0
 30
0.0
 70
   128
 71
   18
 72
   19
 73
   25
  0
VERTEX
  8
pancake_5
 10
0.0
 20
0.0
 30
0.0
 70
   128
 71
   19
 72
   20
 73
   26
  0
VERTEX
  8
pancake_5
 10
0.0
 20
0.0
 30
0.0
 70
   128
 71
   74
 72
   68
 73
   62
  0
VERTEX
  8
pancake_5
 10
0.0
 20
0.0
 30
0.0
 70
   128
 71
   3
 72
   27
 73
   39
  0
VERTEX
  8
pancake_5
 10
0.0
 20
0.0
 30
0.0
 70
   128
 71
   21
 72
   22
 73
   28
  0
VERTEX
  8
pancake_5
 10
0.0
 20
0.0
 30
0.0
 70
   128
 71
   22
 72
   23
 73
   29
  0
VERTEX
  8
pancake_5
 10
0.0
 20
0.0
 30
0.0
 70
   128
 71
   23
 72
   24
 73
   30
  0
VERTEX
  8
pancake_5
 10
0.0
 20
0.0
 30
0.0
 70
   128
 71
   24
 72
   25
 73
   31
  0
VERTEX
  8
pancake_5
 10
0.0
 20
0.0
 30
0.0
 70
   128
 71
   25
 72
   26
 73
   32
  0
VERTEX
  8
pancake_5
 10
0.0
 20
0.0
 30
0.0
 70
   128
 71
   44
 72
   74
 73
   62
  0
VERTEX
  8
pancake_5
 10
0.0
 20
0.0
 30
0.0
 70
   128
 71
   69
 72
   3
 73
   45
  0
VERTEX
  8
pancake_5
 10
0.0
 20
0.0
 30
0.0
 70
   128
 71
   27
 72
   28
 73
   34
  0
VERTEX
  8
pancake_5
 10
0.0
 20
0.0
 30
0.0
 70
   128
 71
   28
 72
   29
 73
   35
  0
VERTEX
  8
pancake_5
 10
0.0
 20
0.0
 30
0.0
 70
   128
 71
   29
 72
   30
 73
   36
  0
VERTEX
  8
pancake_5
 10
0.0
 20
0.0
 30
0.0
 70
   128
 71
   30
 72
   31
 73
   37
  0
VERTEX
  8
pancake_5
 10
0.0
 20
0.0
 30
0.0
 70
   128
 71
   31
 72
   32
 73
   38
  0
VERTEX
  8
pancake_5
 10
0.0
 20
0.0
 30
0.0
 70
   128
 71
   56
 72
   50
 73
   44
  0
VERTEX
  8
pancake_5
 10
0.0
 20
0.0
 30
0.0
 70
   128
 71
   27
 72
   33
 73
   39
  0
VERTEX
  8
pancake_5
 10
0.0
 20
0.0
 30
0.0
 70
   128
 71
   33
 72
   34
 73
   40
  0
VERTEX
  8
pancake_5
 10
0.0
 20
0.0
 30
0.0
 70
   128
 71
   34
 72
   35
 73
   41
  0
VERTEX
  8
pancake_5
 10
0.0
 20
0.0
 30
0.0
 70
   128
 71
   35
 72
   36
 73
   42
  0
VERTEX
  8
pancake_5
 10
0.0
 20
0.0
 30
0.0
 70
   128
 71
   36
 72
   37
 73
   43
  0
VERTEX
  8
pancake_5
 10
0.0
 20
0.0
 30
0.0
 70
   128
 71
   37
 72
   38
 73
   44
  0
VERTEX
  8
pancake_5
 10
0.0
 20
0.0
 30
0.0
 70
   128
 71
   44
 72
   38
 73
   32
  0
VERTEX
  8
pancake_5
 10
0.0
 20
0.0
 30
0.0
 70
   128
 71
   45
 72
   51
 73
   57
  0
VERTEX
  8
pancake_5
 10
0.0
 20
0.0
 30
0.0
 70
   128
 71
   39
 72
   40
 73
   46
  0
VERTEX
  8
pancake_5
 10
0.0
 20
0.0
 30
0.0
 70
   128
 71
   40
 72
   41
 73
   47
  0
VERTEX
  8
pancake_5
 10
0.0
 20
0.0
 30
0.0
 70
   128
 71
   41
 72
   42
 73
   48
  0
VERTEX
  8
pancake_5
 10
0.0
 20
0.0
 30
0.0
 70
   128
 71
   42
 72
   43
 73
   49
  0
VERTEX
  8
pancake_5
 10
0.0
 20
0.0
 30
0.0
 70
   128
 71
   43
 72
   44
 73
   50
  0
VERTEX
  8
pancake_5
 10
0.0
 20
0.0
 30
0.0
 70
   128
 71
   14
 72
   44
 73
   32
  0
VERTEX
  8
pancake_5
 10
0.0
 20
0.0
 30
0.0
 70
   128
 71
   57
 72
   63
 73
   69
  0
VERTEX
  8
pancake_5
 10
0.0
 20
0.0
 30
0.0
 70
   128
 71
   45
 72
   46
 73
   52
  0
VERTEX
  8
pancake_5
 10
0.0
 20
0.0
 30
0.0
 70
   128
 71
   46
 72
   47
 73
   53
  0
VERTEX
  8
pancake_5
 10
0.0
 20
0.0
 30
0.0
 70
   128
 71
   47
 72
   48
 73
   54
  0
VERTEX
  8
pancake_5
 10
0.0
 20
0.0
 30
0.0
 70
   128
 71
   48
 72
   49
 73
   55
  0
VERTEX
  8
pancake_5
 10
0.0
 20
0.0
 30
0.0
 70
   128
 71
   49
 72
   50
 73
   56
  0
VERTEX
  8
pancake_5
 10
0.0
 20
0.0
 30
0.0
 70
   128
 71
   32
 72
   26
 73
   20
  0
VERTEX
  8
pancake_5
 10
0.0
 20
0.0
 30
0.0
 70
   128
 71
   75
 72
   76
 73
   4
  0
VERTEX
  8
pancake_5
 10
0.0
 20
0.0
 30
0.0
 70
   128
 71
   51
 72
   52
 73
   58
  0
VERTEX
  8
pancake_5
 10
0.0
 20
0.0
 30
0.0
 70
   128
 71
   52
 72
   53
 73
   59
  0
VERTEX
  8
pancake_5
 10
0.0
 20
0.0
 30
0.0
 70
   128
 71
   53
 72
   54
 73
   60
  0
VERTEX
  8
pancake_5
 10
0.0
 20
0.0
 30
0.0
 70
   128
 71
   54
 72
   55
 73
   61
  0
VERTEX
  8
pancake_5
 10
0.0
 20
0.0
 30
0.0
 70
   128
 71
   55
 72
   56
 73
   62
  0
VERTEX
  8
pancake_5
 10
0.0
 20
0.0
 30
0.0
 70
   128
 71
   1
 72
   2
 73
   8
  0
VERTEX
  8
pancake_5
 10
0.0
 20
0.0
 30
0.0
 70
   128
 71
   72
 72
   73
 73
   1
  0
VERTEX
  8
pancake_5
 10
0.0
 20
0.0
 30
0.0
 70
   128
 71
   57
 72
   58
 73
   64
  0
VERTEX
  8
pancake_5
 10
0.0
 20
0.0
 30
0.0
 70
   128
 71
   58
 72
   59
 73
   65
  0
VERTEX
  8
pancake_5
 10
0.0
 20
0.0
 30
0.0
 70
   128
 71
   59
 72
   60
 73
   66
  0
VERTEX
  8
pancake_5
 10
0.0
 20
0.0
 30
0.0
 70
   128
 71
   60
 72
   61
 73
   67
  0
VERTEX
  8
pancake_5
 10
0.0
 20
0.0
 30
0.0
 70
   128
 71
   61
 72
   62
 73
   68
  0
VERTEX
  8
pancake_5
 10
0.0
 20
0.0
 30
0.0
 70
   128
 71
   76
 72
   77
 73
   5
  0
VERTEX
  8
pancake_5
 10
0.0
 20
0.0
 30
0.0
 70
   128
 71
   73
 72
   74
 73
   2
  0
VERTEX
  8
pancake_5
 10
0.0
 20
0.0
 30
0.0
 70
   128
 71
   63
 72
   64
 73
   70
  0
VERTEX
  8
pancake_5
 10
0.0
 20
0.0
 30
0.0
 70
   128
 71
   64
 72
   65
 73
   71
  0
VERTEX
  8
pancake_5
 10
0.0
 20
0.0
 30
0.0
 70
   128
 71
   65
 72
   66
 73
   72
  0
VERTEX
  8
pancake_5
 10
0.0
 20
0.0
 30
0.0
 70
   128
 71
   66
 72
   67
 73
   73
  0
VERTEX
  8
pancake_5
 10
0.0
 20
0.0
 30
0.0
 70
   128
 71
   67
 72
   68
 73
   74
  0
VERTEX
  8
pancake_5
 10
0.0
 20
0.0
 30
0.0
 70
   128
 71
   77
 72
   78
 73
   6
  0
VERTEX
  8
pancake_5
 10
0.0
 20
0.0
 30
0.0
 70
   128
 71
   78
 72
   1
 73
   7
  0
VERTEX
  8
pancake_5
 10
0.0
 20
0.0
 30
0.0
 70
   128
 71
   69
 72
   70
 73
   76
  0
VERTEX
  8
pancake_5
 10
0.0
 20
0.0
 30
0.0
 70
   128
 71
   70
 72
   71
 73
   77
  0
VERTEX
  8
pancake_5
 10
0.0
 20
0.0
 30
0.0
 70
   128
 71
   71
 72
   72
 73
   78
  0
VERTEX
  8
pancake_5
 10
0.0
 20
0.0
 30
0.0
 70
   128
 71
   3
 72
   10
 73
   9
  0
VERTEX
  8
pancake_5
 10
0.0
 20
0.0
 30
0.0
 70
   128
 71
   4
 72
   11
 73
   10
  0
VERTEX
  8
pancake_5
 10
0.0
 20
0.0
 30
0.0
 70
   128
 71
   5
 72
   12
 73
   11
  0
VERTEX
  8
pancake_5
 10
0.0
 20
0.0
 30
0.0
 70
   128
 71
   6
 72
   13
 73
   12
  0
VERTEX
  8
pancake_5
 10
0.0
 20
0.0
 30
0.0
 70
   128
 71
   7
 72
   14
 73
   13
  0
VERTEX
  8
pancake_5
 10
0.0
 20
0.0
 30
0.0
 70
   128
 71
   44
 72
   8
 73
   74
  0
VERTEX
  8
pancake_5
 10
0.0
 20
0.0
 30
0.0
 70
   128
 71
   9
 72
   16
 73
   15
  0
VERTEX
  8
pancake_5
 10
0.0
 20
0.0
 30
0.0
 70
   128
 71
   10
 72
   17
 73
   16
  0
VERTEX
  8
pancake_5
 10
0.0
 20
0.0
 30
0.0
 70
   128
 71
   11
 72
   18
 73
   17
  0
VERTEX
  8
pancake_5
 10
0.0
 20
0.0
 30
0.0
 70
   128
 71
   12
 72
   19
 73
   18
  0
VERTEX
  8
pancake_5
 10
0.0
 20
0.0
 30
0.0
 70
   128
 71
   13
 72
   20
 73
   19
  0
VERTEX
  8
pancake_5
 10
0.0
 20
0.0
 30
0.0
 70
   128
 71
   27
 72
   15
 73
   21
  0
VERTEX
  8
pancake_5
 10
0.0
 20
0.0
 30
0.0
 70
   128
 71
   15
 72
   22
 73
   21
  0
VERTEX
  8
pancake_5
 10
0.0
 20
0.0
 30
0.0
 70
   128
 71
   16
 72
   23
 73
   22
  0
VERTEX
  8
pancake_5
 10
0.0
 20
0.0
 30
0.0
 70
   128
 71
   17
 72
   24
 73
   23
  0
VERTEX
  8
pancake_5
 10
0.0
 20
0.0
 30
0.0
 70
   128
 71
   18
 72
   25
 73
   24
  0
VERTEX
  8
pancake_5
 10
0.0
 20
0.0
 30
0.0
 70
   128
 71
   19
 72
   26
 73
   25
  0
VERTEX
  8
pancake_5
 10
0.0
 20
0.0
 30
0.0
 70
   128
 71
   3
 72
   39
 73
   45
  0
VERTEX
  8
pancake_5
 10
0.0
 20
0.0
 30
0.0
 70
   128
 71
   21
 72
   28
 73
   27
  0
VERTEX
  8
pancake_5
 10
0.0
 20
0.0
 30
0.0
 70
   128
 71
   22
 72
   29
 73
   28
  0
VERTEX
  8
pancake_5
 10
0.0
 20
0.0
 30
0.0
 70
   128
 71
   23
 72
   30
 73
   29
  0
VERTEX
  8
pancake_5
 10
0.0
 20
0.0
 30
0.0
 70
   128
 71
   24
 72
   31
 73
   30
  0
VERTEX
  8
pancake_5
 10
0.0
 20
0.0
 30
0.0
 70
   128
 71
   25
 72
   32
 73
   31
  0
VERTEX
  8
pancake_5
 10
0.0
 20
0.0
 30
0.0
 70
   128
 71
   44
 72
   62
 73
   56
  0
VERTEX
  8
pancake_5
 10
0.0
 20
0.0
 30
0.0
 70
   128
 71
   69
 72
   45
 73
   57
  0
VERTEX
  8
pancake_5
 10
0.0
 20
0.0
 30
0.0
 70
   128
 71
   27
 72
   34
 73
   33
  0
VERTEX
  8
pancake_5
 10
0.0
 20
0.0
 30
0.0
 70
   128
 71
   28
 72
   35
 73
   34
  0
VERTEX
  8
pancake_5
 10
0.0
 20
0.0
 30
0.0
 70
   128
 71
   29
 72
   36
 73
   35
  0
VERTEX
  8
pancake_5
 10
0.0
 20
0.0
 30
0.0
 70
   128
 71
   30
 72
   37
 73
   36
  0
VERTEX
  8
pancake_5
 10
0.0
 20
0.0
 30
0.0
 70
   128
 71
   31
 72
   38
 73
   37
  0
VERTEX
  8
pancake_5
 10
0.0
 20
0.0
 30
0.0
 70
   128
 71
   33
 72
   40
 73
   39
  0
VERTEX
  8
pancake_5
 10
0.0
 20
0.0
 30
0.0
 70
   128
 71
   34
 72
   41
 73
   40
  0
VERTEX
  8
pancake_5
 10
0.0
 20
0.0
 30
0.0
 70
   128
 71
   35
 72
   42
 73
   41
  0
VERTEX
  8
pancake_5
 10
0.0
 20
0.0
 30
0.0
 70
   128
 71
   36
 72
   43
 73
   42
  0
VERTEX
  8
pancake_5
 10
0.0
 20
0.0
 30
0.0
 70
   128
 71
   37
 72
   44
 73
   43
  0
VERTEX
  8
pancake_5
 10
0.0
 20
0.0
 30
0.0
 70
   128
 71
   39
 72
   46
 73
   45
  0
VERTEX
  8
pancake_5
 10
0.0
 20
0.0
 30
0.0
 70
   128
 71
   40
 72
   47
 73
   46
  0
VERTEX
  8
pancake_5
 10
0.0
 20
0.0
 30
0.0
 70
   128
 71
   41
 72
   48
 73
   47
  0
VERTEX
  8
pancake_5
 10
0.0
 20
0.0
 30
0.0
 70
   128
 71
   42
 72
   49
 73
   48
  0
VERTEX
  8
pancake_5
 10
0.0
 20
0.0
 30
0.0
 70
   128
 71
   43
 72
   50
 73
   49
  0
VERTEX
  8
pancake_5
 10
0.0
 20
0.0
 30
0.0
 70
   128
 71
   14
 72
   32
 73
   20
  0
VERTEX
  8
pancake_5
 10
0.0
 20
0.0
 30
0.0
 70
   128
 71
   45
 72
   52
 73
   51
  0
VERTEX
  8
pancake_5
 10
0.0
 20
0.0
 30
0.0
 70
   128
 71
   46
 72
   53
 73
   52
  0
VERTEX
  8
pancake_5
 10
0.0
 20
0.0
 30
0.0
 70
   128
 71
   47
 72
   54
 73
   53
  0
VERTEX
  8
pancake_5
 10
0.0
 20
0.0
 30
0.0
 70
   128
 71
   48
 72
   55
 73
   54
  0
VERTEX
  8
pancake_5
 10
0.0
 20
0.0
 30
0.0
 70
   128
 71
   49
 72
   56
 73
   55
  0
VERTEX
  8
pancake_5
 10
0.0
 20
0.0
 30
0.0
 70
   128
 71
   75
 72
   4
 73
   3
  0
VERTEX
  8
pancake_5
 10
0.0
 20
0.0
 30
0.0
 70
   128
 71
   51
 72
   58
 73
   57
  0
VERTEX
  8
pancake_5
 10
0.0
 20
0.0
 30
0.0
 70
   128
 71
   52
 72
   59
 73
   58
  0
VERTEX
  8
pancake_5
 10
0.0
 20
0.0
 30
0.0
 70
   128
 71
   53
 72
   60
 73
   59
  0
VERTEX
  8
pancake_5
 10
0.0
 20
0.0
 30
0.0
 70
   128
 71
   54
 72
   61
 73
   60
  0
VERTEX
  8
pancake_5
 10
0.0
 20
0.0
 30
0.0
 70
   128
 71
   55
 72
   62
 73
   61
  0
VERTEX
  8
pancake_5
 10
0.0
 20
0.0
 30
0.0
 70
   128
 71
   1
 72
   8
 73
   7
  0
VERTEX
  8
pancake_5
 10
0.0
 20
0.0
 30
0.0
 70
   128
 71
   72
 72
   1
 73
   78
  0
VERTEX
  8
pancake_5
 10
0.0
 20
0.0
 30
0.0
 70
   128
 71
   57
 72
   64
 73
   63
  0
VERTEX
  8
pancake_5
 10
0.0
 20
0.0
 30
0.0
 70
   128
 71
   58
 72
   65
 73
   64
  0
VERTEX
  8
pancake_5
 10
0.0
 20
0.0
 30
0.0
 70
   128
 71
   59
 72
   66
 73
   65
  0
VERTEX
  8
pancake_5
 10
0.0
 20
0.0
 30
0.0
 70
   128
 71
   60
 72
   67
 73
   66
  0
VERTEX
  8
pancake_5
 10
0.0
 20
0.0
 30
0.0
 70
   128
 71
   61
 72
   68
 73
   67
  0
VERTEX
  8
pancake_5
 10
0.0
 20
0.0
 30
0.0
 70
   128
 71
   76
 72
   5
 73
   4
  0
VERTEX
  8
pancake_5
 10
0.0
 20
0.0
 30
0.0
 70
   128
 71
   73
 72
   2
 73
   1
  0
VERTEX
  8
pancake_5
 10
0.0
 20
0.0
 30
0.0
 70
   128
 71
   63
 72
   70
 73
   69
  0
VERTEX
  8
pancake_5
 10
0.0
 20
0.0
 30
0.0
 70
   128
 71
   64
 72
   71
 73
   70
  0
VERTEX
  8
pancake_5
 10
0.0
 20
0.0
 30
0.0
 70
   128
 71
   65
 72
   72
 73
   71
  0
VERTEX
  8
pancake_5
 10
0.0
 20
0.0
 30
0.0
 70
   128
 71
   66
 72
   73
 73
   72
  0
VERTEX
  8
pancake_5
 10
0.0
 20
0.0
 30
0.0
 70
   128
 71
   67
 72
   74
 73
   73
  0
VERTEX
  8
pancake_5
 10
0.0
 20
0.0
 30
0.0
 70
   128
 71
   77
 72
   6
 73
   5
  0
VERTEX
  8
pancake_5
 10
0.0
 20
0.0
 30
0.0
 70
   128
 71
   78
 72
   7
 73
   6
  0
VERTEX
  8
pancake_5
 10
0.0
 20
0.0
 30
0.0
 70
   128
 71
   69
 72
   76
 73
   75
  0
VERTEX
  8
pancake_5
 10
0.0
 20
0.0
 30
0.0
 70
   128
 71
   70
 72
   77
 73
   76
  0
VERTEX
  8
pancake_5
 10
0.0
 20
0.0
 30
0.0
 70
   128
 71
   71
 72
   78
 73
   77
  0
SEQEND
  0
POLYLINE
  8
pancake_6
 66
   1
 10
0.0
 20
0.0
 30
0.0
 70
   64
 71
   78
 72
   152
  0
VERTEX
  8
pancake_6
 10
86.522514
 20
124.399563
 30
48.123480
 70
   192
  0
VERTEX
  8
pancake_6
 10
76.351788
 20
129.157398
 30
42.785471
 70
   192
  0
VERTEX
  8
pancake_6
 10
85.852990
 20
92.180035
 30
4.237577
 70
   192
  0
VERTEX
  8
pancake_6
 10
97.339418
 20
96.937869
 30
4.237577
 70
   192
  0
VERTEX
  8
pancake_6
 10
102.097252
 20
108.424297
 30
4.237577
 70
   192
  0
VERTEX
  8
pancake_6
 10
102.097252
 20
112.913136
 30
4.237577
 70
   192
  0
VERTEX
  8
pancake_6
 10
97.339418
 20
124.399563
 30
4.237577
 70
   192
  0
VERTEX
  8
pancake_6
 10
85.852990
 20
129.157398
 30
4.237577
 70
   192
  0
VERTEX
  8
pancake_6
 10
76.351788
 20
92.180035
 30
-34.310316
 70
   192
  0
VERTEX
  8
pancake_6
 10
86.522514
 20
96.937869
 30
-39.648325
 70
   192
  0
VERTEX
  8
pancake_6
 10
90.735367
 20
108.424297
 30
-41.859401
 70
   192
  0
VERTEX
  8
pancake_6
 10
90.735367
 20
112.913136
 30
-41.859401
 70
   192
  0
VERTEX
  8
pancake_6
 10
86.522514
 20
124.399563
 30
-39.648325
 70
   192
  0
VERTEX
  8
pancake_6
 10
76.351788
 20
129.157398
 30
-34.310316
 70
   192
  0
VERTEX
  8
pancake_6
 10
50.024791
 20
92.180035
 30
-64.027352
 70
   192
  0
VERTEX
  8
pancake_6
 10
56.549826
 20
96.937869
 30
-73.480497
 70
   192
  0
VERTEX
  8
pancake_6
 10
59.252584
 20
108.424297
 30
-77.396117
 70
   192
  0
VERTEX
  8
pancake_6
 10
59.252584
 20
112.913136
 30
-77.396117
 70
   192
  0
VERTEX
  8
pancake_6
 10
56.549826
 20
124.399563
 30
-73.480497
 70
   192
  0
VERTEX
  8
pancake_6
 10
50.024791
 20
129.157398
 30
-64.027352
 70
   192
  0
VERTEX
  8
pancake_6
 10
12.903199
 20
92.180035
 30
-78.105715
 70
   192
  0
VERTEX
  8
pancake_6
 10
14.287735
 20
96.937869
 30
-89.508394
 70
   192
  0
VERTEX
  8
pancake_6
 10
14.861228
 20
108.424297
 30
-94.231538
 70
   192
  0
VERTEX
  8
pancake_6
 10
14.861228
 20
112.913136
 30
-94.231538
 70
   192
  0
VERTEX
  8
pancake_6
 10
14.287735
 20
124.399563
 30
-89.508394
 70
   192
  0
VERTEX
  8
pancake_6
 10
12.903199
 20
129.157398
 30
-78.105715
 70
   192
  0
VERTEX
  8
pancake_6
 10
-26.508881
 20
92.180035
 30
-73.320222
 70
   192
  0
VERTEX
  8
pancake_6
 10
-30.582024
 20
96.937869
 30
-84.060219
 70
   192
  0
VERTEX
  8
pancake_6
 10
-32.269175
 20
108.424297
 30
-88.508871
 70
   192
  0
VERTEX
  8
pancake_6
 10
-32.269175
 20
112.913136
 30
-88.508871
 70
   192
  0
VERTEX
  8
pancake_6
 10
-30.582024
 20
124.399563
 30
-84.060219
 70
   192
  0
VERTEX
  8
pancake_6
 10
-26.508881
 20
129.157398
 30
-73.320222
 70
   192
  0
VERTEX
  8
pancake_6
 10
-59.182614
 20
92.180035
 30
-50.767172
 70
   192
  0
VERTEX
  8
pancake_6
 10
-67.780329
 20
96.937869
 30
-58.384083
 70
   192
  0
VERTEX
  8
pancake_6
 10
-71.341619
 20
108.424297
 30
-61.539110
 70
   192
  0
VERTEX
  8
pancake_6
 10
-71.341619
 20
112.913136
 30
-61.539110
 70
   192
  0
VERTEX
  8
pancake_6
 10
-67.780329
 20
124.399563
 30
-58.384083
 70
   192
  0
VERTEX
  8
pancake_6
 10
-59.182614
 20
129.157398
 30
-50.767172
 70
   192
  0
VERTEX
  8
pancake_6
 10
-77.632844
 20
92.180035
 30
-15.613197
 70
   192
  0
VERTEX
  8
pancake_6
 10
-88.785497
 20
96.937869
 30
-18.362079
 70
   192
  0
VERTEX
  8
pancake_6
 10
-93.405077
 20
108.424297
 30
-19.500703
 70
   192
  0
VERTEX
  8
pancake_6
 10
-93.405077
 20
112.913136
 30
-19.500703
 70
   192
  0
VERTEX
  8
pancake_6
 10
-88.785497
 20
124.399563
 30
-18.362079
 70
   192
  0
VERTEX
  8
pancake_6
 10
-77.632844
 20
129.157398
 30
-15.613197
 70
   192
  0
VERTEX
  8
pancake_6
 10
-77.632844
 20
92.180035
 30
24.088351
 70
   192
  0
VERTEX
  8
pancake_6
 10
-88.785497
 20
96.937869
 30
26.837233
 70
   192
  0
VERTEX
  8
pancake_6
 10
-93.405077
 20
108.424297
 30
27.975858
 70
   192
  0
VERTEX
  8
pancake_6
 10
-93.405077
 20
112.913136
 30
27.975858
 70
   192
  0
VERTEX
  8
pancake_6
 10
-88.785497
 20
124.399563
 30
26.837233
 70
   192
  0
VERTEX
  8
pancake_6
 10
-77.632844
 20
129.157398
 30
24.088351
 70
   192
  0
VERTEX
  8
pancake_6
 10
-59.182614
 20
92.180035
 30
59.242327
 70
   192
  0
VERTEX
  8
pancake_6
 10
-67.780329
 20
96.937869
 30
66.859237
 70
   192
  0
VERTEX
  8
pancake_6
 10
-71.341619
 20
108.424297
 30
70.014265
 70
   192
  0
VERTEX
  8
pancake_6
 10
-71.341619
 20
112.913136
 30
70.014265
 70
   192
  0
VERTEX
  8
pancake_6
 10
-67.780329
 20
124.399563
 30
66.859237
 70
   192
  0
VERTEX
  8
pancake_6
 10
-59.182614
 20
129.157398
 30
59.242327
 70
   192
  0
VERTEX
  8
pancake_6
 10
-26.508881
 20
92.180035
 30
81.795377
 70
   192
  0
VERTEX
  8
pancake_6
 10
-30.582024
 20
96.937869
 30
92.535373
 70
   192
  0
VERTEX
  8
pancake_6
 10
-32.269175
 20
108.424297
 30
96.984025
 70
   192
  0
VERTEX
  8
pancake_6
 10
-32.269175
 20
112.913136
 30
96.984025
 70
   192
  0
VERTEX
  8
pancake_6
 10
-30.582024
 20
124.399563
 30
92.535373
 70
   192
  0
VERTEX
  8
pancake_6
 10
-26.508881
 20
129.157398
 30
81.795377
 70
   192
  0
VERTEX
  8
pancake_6
 10
12.903199
 20
92.180035
 30
86.580869
 70
   192
  0
VERTEX
  8
pancake_6
 10
14.287735
 20
96.937869
 30
97.983548
 70
   192
  0
VERTEX
  8
pancake_6
 10
14.861228
 20
108.424297
 30
102.706692
 70
   192
  0
VERTEX
  8
pancake_6
 10
14.861228
 20
112.913136
 30
102.706692
 70
   192
  0
VERTEX
  8
pancake_6
 10
14.287735
 20
124.399563
 30
97.983548
 70
   192
  0
VERTEX
  8
pancake_6
 10
12.903199
 20
129.157398
 30
86.580869
 70
   192
  0
VERTEX
  8
pancake_6
 10
50.024791
 20
92.180035
 30
72.502506
 70
   192
  0
VERTEX
  8
pancake_6
 10
56.549826
 20
96.937869
 30
81.955651
 70
   192
  0
VERTEX
  8
pancake_6
 10
59.252584
 20
108.424297
 30
85.871272
 70
   192
  0
VERTEX
  8
pancake_6
 10
59.252584
 20
112.913136
 30
85.871272
 70
   192
  0
VERTEX
  8
pancake_6
 10
56.549826
 20
124.399563
 30
81.955651
 70
   192
  0
VERTEX
  8
pancake_6
 10
50.024791
 20
129.157398
 30
72.502506
 70
   192
  0
VERTEX
  8
pancake_6
 10
76.351788
 20
92.180035
 30
42.785471
 70
   192
  0
VERTEX
  8
pancake_6
 10
86.522514
 20
96.937869
 30
48.123480
 70
   192
  0
VERTEX
  8
pancake_6
 10
90.735367
 20
108.424297
 30
50.334556
 70
   192
  0
VERTEX
  8
pancake_6
 10
90.735367
 20
112.913136
 30
50.334556
 70
   192
  0
VERTEX
  8
pancake_6
 10
0.0
 20
0.0
 30
0.0
 70
   128
 71
   75
 72
   3
 73
   69
  0
VERTEX
  8
pancake_6
 10
0.0
 20
0.0
 30
0.0
 70
   128
 71
   3
 72
   4
 73
   10
  0
VERTEX
  8
pancake_6
 10
0.0
 20
0.0
 30
0.0
 70
   128
 71
   4
 72
   5
 73
   11
  0
VERTEX
  8
pancake_6
 10
0.0
 20
0.0
 30
0.0
 70
   128
 71
   5
 72
   6
 73
   12
  0
VERTEX
  8
pancake_6
 10
0.0
 20
0.0
 30
0.0
 70
   128
 71
   6
 72
   7
 73
   13
  0
VERTEX
  8
pancake_6
 10
0.0
 20
0.0
 30
0.0
 70
   128
 71
   7
 72
   8
 73
   14
  0
VERTEX
  8
pancake_6
 10
0.0
 20
0.0
 30
0.0
 70
   128
 71
   44
 72
   14
 73
   8
  0
VERTEX
  8
pancake_6
 10
0.0
 20
0.0
 30
0.0
 70
   128
 71
   3
 72
   9
 73
   15
  0
VERTEX
  8
pancake_6
 10
0.0
 20
0.0
 30
0.0
 70
   128
 71
   9
 72
   10
 73
   16
  0
VERTEX
  8
pancake_6
 10
0.0
 20
0.0
 30
0.0
 70
   128
 71
   10
 72
   11
 73
   17
  0
VERTEX
  8
pancake_6
 10
0.0
 20
0.0
 30
0.0
 70
   128
 71
   11
 72
   12
 73
   18
  0
VERTEX
  8
pancake_6
 10
0.0
 20
0.0
 30
0.0
 70
   128
 71
   12
 72
   13
 73
   19
  0
VERTEX
  8
pancake_6
 10
0.0
 20
0.0
 30
0.0
 70
   128
 71
   13
 72
   14
 73
   20
  0
VERTEX
  8
pancake_6
 10
0.0
 20
0.0
 30
0.0
 70
   128
 71
   8
 72
   2
 73
   74
  0
VERTEX
  8
pancake_6
 10
0.0
 20
0.0
 30
0.0
 70
   128
 71
   27
 72
   3
 73
   15
  0
VERTEX
  8
pancake_6
 10
0.0
 20
0.0
 30
0.0
 70
   128
 71
   15
 72
   16
 73
   22
  0
VERTEX
  8
pancake_6
 10
0.0
 20
0.0
 30
0.0
 70
   128
 71
   16
 72
   17
 73
   23
  0
VERTEX
  8
pancake_6
 10
0.0
 20
0.0
 30
0.0
 70
   128
 71
   17
 72
   18
 73
   24
  0
VERTEX
  8
pancake_6
 10
0.0
 20
0.0
 30
0.0
 70
   128
 71
   18
 72
   19
 73
   25
  0
VERTEX
  8
pancake_6
 10
0.0
 20
0.0
 30
0.0
 70
   128
 71
   19
 72
   20
 73
   26
  0
VERTEX
  8
pancake_6
 10
0.0
 20
0.0
 30
0.0
 70
   128
 71
   74
 72
   68
 73
   62
  0
VERTEX
  8
pancake_6
 10
0.0
 20
0.0
 30
0.0
 70
   128
 71
   3
 72
   27
 73
   39
  0
VERTEX
  8
pancake_6
 10
0.0
 20
0.0
 30
0.0
 70
   128
 71
   21
 72
   22
 73
   28
  0
VERTEX
  8
pancake_6
 10
0.0
 20
0.0
 30
0.0
 70
   128
 71
   22
 72
   23
 73
   29
  0
VERTEX
  8
pancake_6
 10
0.0
 20
0.0
 30
0.0
 70
   128
 71
   23
 72
   24
 73
   30
  0
VERTEX
  8
pancake_6
 10
0.0
 20
0.0
 30
0.0
 70
   128
 71
   24
 72
   25
 73
   31
  0
VERTEX
  8
pancake_6
 10
0.0
 20
0.0
 30
0.0
 70
   128
 71
   25
 72
   26
 73
   32
  0
VERTEX
  8
pancake_6
 10
0.0
 20
0.0
 30
0.0
 70
   128
 71
   44
 72
   74
 73
   62
  0
VERTEX
  8
pancake_6
 10
0.0
 20
0.0
 30
0.0
 70
   128
 71
   69
 72
   3
 73
   45
  0
VERTEX
  8
pancake_6
 10
0.0
 20
0.0
 30
0.0
 70
   128
 71
   27
 72
   28
 73
   34
  0
VERTEX
  8
pancake_6
 10
0.0
 20
0.0
 30
0.0
 70
   128
 71
   28
 72
   29
 73
   35
  0
VERTEX
  8
pancake_6
 10
0.0
 20
0.0
 30
0.0
 70
   128
 71
   29
 72
   30
 73
   36
  0
VERTEX
  8
pancake_6
 10
0.0
 20
0.0
 30
0.0
 70
   128
 71
   30
 72
   31
 73
   37
  0
VERTEX
  8
pancake_6
 10
0.0
 20
0.0
 30
0.0
 70
   128
 71
   31
 72
   32
 73
   38
  0
VERTEX
  8
pancake_6
 10
0.0
 20
0.0
 30
0.0
 70
   128
 71
   56
 72
   50
 73
   44
  0
VERTEX
  8
pancake_6
 10
0.0
 20
0.0
 30
0.0
 70
   128
 71
   27
 72
   33
 73
   39
  0
VERTEX
  8
pancake_6
 10
0.0
 20
0.0
 30
0.0
 70
   128
 71
   33
 72
   34
 73
   40
  0
VERTEX
  8
pancake_6
 10
0.0
 20
0.0
 30
0.0
 70
   128
 71
   34
 72
   35
 73
   41
  0
VERTEX
  8
pancake_6
 10
0.0
 20
0.0
 30
0.0
 70
   128
 71
   35
 72
   36
 73
   42
  0
VERTEX
  8
pancake_6
 10
0.0
 20
0.0
 30
0.0
 70
   128
 71
   36
 72
   37
 73
   43
  0
VERTEX
  8
pancake_6
 10
0.0
 20
0.0
 30
0.0
 70
   128
 71
   37
 72
   38
 73
   44
  0
VERTEX
  8
pancake_6
 10
0.0
 20
0.0
 30
0.0
 70
   128
 71
   44
 72
   38
 73
   32
  0
VERTEX
  8
pancake_6
 10
0.0
 20
0.0
 30
0.0
 70
   128
 71
   45
 72
   51
 73
   57
  0
VERTEX
  8
pancake_6
 10
0.0
 20
0.0
 30
0.0
 70
   128
 71
   39
 72
   40
 73
   46
  0
VERTEX
  8
pancake_6
 10
0.0
 20
0.0
 30
0.0
 70
   128
 71
   40
 72
   41
 73
   47
  0
VERTEX
  8
pancake_6
 10
0.0
 20
0.0
 30
0.0
 70
   128
 71
   41
 72
   42
 73
   48
  0
VERTEX
  8
pancake_6
 10
0.0
 20
0.0
 30
0.0
 70
   128
 71
   42
 72
   43
 73
   49
  0
VERTEX
  8
pancake_6
 10
0.0
 20
0.0
 30
0.0
 70
   128
 71
   43
 72
   44
 73
   50
  0
VERTEX
  8
pancake_6
 10
0.0
 20
0.0
 30
0.0
 70
   128
 71
   14
 72
   44
 73
   32
  0
VERTEX
  8
pancake_6
 10
0.0
 20
0.0
 30
0.0
 70
   128
 71
   57
 72
   63
 73
   69
  0
VERTEX
  8
pancake_6
 10
0.0
 20
0.0
 30
0.0
 70
   128
 71
   45
 72
   46
 73
   52
  0
VERTEX
  8
pancake_6
 10
0.0
 20
0.0
 30
0.0
 70
   128
 71
   46
 72
   47
 73
   53
  0
VERTEX
  8
pancake_6
 10
0.0
 20
0.0
 30
0.0
 70
   128
 71
   47
 72
   48
 73
   54
  0
VERTEX
  8
pancake_6
 10
0.0
 20
0.0
 30
0.0
 70
   128
 71
   48
 72
   49
 73
   55
  0
VERTEX
  8
pancake_6
 10
0.0
 20
0.0
 30
0.0
 70
   128
 71
   49
 72
   50
 73
   56
  0
VERTEX
  8
pancake_6
 10
0.0
 20
0.0
 30
0.0
 70
   128
 71
   32
 72
   26
 73
   20
  0
VERTEX
  8
pancake_6
 10
0.0
 20
0.0
 30
0.0
 70
   128
 71
   75
 72
   76
 73
   4
  0
VERTEX
  8
pancake_6
 10
0.0
 20
0.0
 30
0.0
 70
   128
 71
   51
 72
   52
 73
   58
  0
VERTEX
  8
pancake_6
 10
0.0
 20
0.0
 30
0.0
 70
   128
 71
   52
 72
   53
 73
   59
  0
VERTEX
  8
pancake_6
 10
0.0
 20
0.0
 30
0.0
 70
   128
 71
   53
 72
   54
 73
   60
  0
VERTEX
  8
pancake_6
 10
0.0
 20
0.0
 30
0.0
 70
   128
 71
   54
 72
   55
 73
   61
  0
VERTEX
  8
pancake_6
 10
0.0
 20
0.0
 30
0.0
 70
   128
 71
   55
 72
   56
 73
   62
  0
VERTEX
  8
pancake_6
 10
0.0
 20
0.0
 30
0.0
 70
   128
 71
   1
 72
   2
 73
   8
  0
VERTEX
  8
pancake_6
 10
0.0
 20
0.0
 30
0.0
 70
   128
 71
   72
 72
   73
 73
   1
  0
VERTEX
  8
pancake_6
 10
0.0
 20
0.0
 30
0.0
 70
   128
 71
   57
 72
   58
 73
   64
  0
VERTEX
  8
pancake_6
 10
0.0
 20
0.0
 30
0.0
 70
   128
 71
   58
 72
   59
 73
   65
  0
VERTEX
  8
pancake_6
 10
0.0
 20
0.0
 30
0.0
 70
   128
 71
   59
 72
   60
 73
   66
  0
VERTEX
  8
pancake_6
 10
0.0
 20
0.0
 30
0.0
 70
   128
 71
   60
 72
   61
 73
   67
  0
VERTEX
  8
pancake_6
 10
0.0
 20
0.0
 30
0.0
 70
   128
 71
   61
 72
   62
 73
   68
  0
VERTEX
  8
pancake_6
 10
0.0
 20
0.0
 30
0.0
 70
   128
 71
   76
 72
   77
 73
   5
  0
VERTEX
  8
pancake_6
 10
0.0
 20
0.0
 30
0.0
 70
   128
 71
   73
 72
   74
 73
   2
  0
VERTEX
  8
pancake_6
 10
0.0
 20
0.0
 30
0.0
 70
   128
 71
   63
 72
   64
 73
   70
  0
VERTEX
  8
pancake_6
 10
0.0
 20
0.0
 30
0.0
 70
   128
 71
   64
 72
   65
 73
   71
  0
VERTEX
  8
pancake_6
 10
0.0
 20
0.0
 30
0.0
 70
   128
 71
   65
 72
   66
 73
   72
  0
VERTEX
  8
pancake_6
 10
0.0
 20
0.0
 30
0.0
 70
   128
 71
   66
 72
   67
 73
   73
  0
VERTEX
  8
pancake_6
 10
0.0
 20
0.0
 30
0.0
 70
   128
 71
   67
 72
   68
 73
   74
  0
VERTEX
  8
pancake_6
 10
0.0
 20
0.0
 30
0.0
 70
   128
 71
   77
 72
   78
 73
   6
  0
VERTEX
  8
pancake_6
 10
0.0
 20
0.0
 30
0.0
 70
   128
 71
   78
 72
   1
 73
   7
  0
VERTEX
  8
pancake_6
 10
0.0
 20
0.0
 30
0.0
 70
   128
 71
   69
 72
   70
 73
   76
  0
VERTEX
  8
pancake_6
 10
0.0
 20
0.0
 30
0.0
 70
   128
 71
   70
 72
   71
 73
   77
  0
VERTEX
  8
pancake_6
 10
0.0
 20
0.0
 30
0.0
 70
   128
 71
   71
 72
   72
 73
   78
  0
VERTEX
  8
pancake_6
 10
0.0
 20
0.0
 30
0.0
 70
   128
 71
   3
 72
   10
 73
   9
  0
VERTEX
  8
pancake_6
 10
0.0
 20
0.0
 30
0.0
 70
   128
 71
   4
 72
   11
 73
   10
  0
VERTEX
  8
pancake_6
 10
0.0
 20
0.0
 30
0.0
 70
   128
 71
   5
 72
   12
 73
   11
  0
VERTEX
  8
pancake_6
 10
0.0
 20
0.0
 30
0.0
 70
   128
 71
   6
 72
   13
 73
   12
  0
VERTEX
  8
pancake_6
 10
0.0
 20
0.0
 30
0.0
 70
   128
 71
   7
 72
   14
 73
   13
  0
VERTEX
  8
pancake_6
 10
0.0
 20
0.0
 30
0.0
 70
   128
 71
   44
 72
   8
 73
   74
  0
VERTEX
  8
pancake_6
 10
0.0
 20
0.0
 30
0.0
 70
   128
 71
   9
 72
   16
 73
   15
  0
VERTEX
  8
pancake_6
 10
0.0
 20
0.0
 30
0.0
 70
   128
 71
   10
 72
   17
 73
   16
  0
VERTEX
  8
pancake_6
 10
0.0
 20
0.0
 30
0.0
 70
   128
 71
   11
 72
   18
 73
   17
  0
VERTEX
  8
pancake_6
 10
0.0
 20
0.0
 30
0.0
 70
   128
 71
   12
 72
   19
 73
   18
  0
VERTEX
  8
pancake_6
 10
0.0
 20
0.0
 30
0.0
 70
   128
 71
   13
 72
   20
 73
   19
  0
VERTEX
  8
pancake_6
 10
0.0
 20
0.0
 30
0.0
 70
   128
 71
   27
 72
   15
 73
   21
  0
VERTEX
  8
pancake_6
 10
0.0
 20
0.0
 30
0.0
 70
   128
 71
   15
 72
   22
 73
   21
  0
VERTEX
  8
pancake_6
 10
0.0
 20
0.0
 30
0.0
 70
   128
 71
   16
 72
   23
 73
   22
  0
VERTEX
  8
pancake_6
 10
0.0
 20
0.0
 30
0.0
 70
   128
 71
   17
 72
   24
 73
   23
  0
VERTEX
  8
pancake_6
 10
0.0
 20
0.0
 30
0.0
 70
   128
 71
   18
 72
   25
 73
   24
  0
VERTEX
  8
pancake_6
 10
0.0
 20
0.0
 30
0.0
 70
   128
 71
   19
 72
   26
 73
   25
  0
VERTEX
  8
pancake_6
 10
0.0
 20
0.0
 30
0.0
 70
   128
 71
   3
 72
   39
 73
   45
  0
VERTEX
  8
pancake_6
 10
0.0
 20
0.0
 30
0.0
 70
   128
 71
   21
 72
   28
 73
   27
  0
VERTEX
  8
pancake_6
 10
0.0
 20
0.0
 30
0.0
 70
   128
 71
   22
 72
   29
 73
   28
  0
VERTEX
  8
pancake_6
 10
0.0
 20
0.0
 30
0.0
 70
   128
 71
   23
 72
   30
 73
   29
  0
VERTEX
  8
pancake_6
 10
0.0
 20
0.0
 30
0.0
 70
   128
 71
   24
 72
   31
 73
   30
  0
VERTEX
  8
pancake_6
 10
0.0
 20
0.0
 30
0.0
 70
   128
 71
   25
 72
   32
 73
   31
  0
VERTEX
  8
pancake_6
 10
0.0
 20
0.0
 30
0.0
 70
   128
 71
   44
 72
   62
 73
   56
  0
VERTEX
  8
pancake_6
 10
0.0
 20
0.0
 30
0.0
 70
   128
 71
   69
 72
   45
 73
   57
  0
VERTEX
  8
pancake_6
 10
0.0
 20
0.0
 30
0.0
 70
   128
 71
   27
 72
   34
 73
   33
  0
VERTEX
  8
pancake_6
 10
0.0
 20
0.0
 30
0.0
 70
   128
 71
   28
 72
   35
 73
   34
  0
VERTEX
  8
pancake_6
 10
0.0
 20
0.0
 30
0.0
 70
   128
 71
   29
 72
   36
 73
   35
  0
VERTEX
  8
pancake_6
 10
0.0
 20
0.0
 30
0.0
 70
   128
 71
   30
 72
   37
 73
   36
  0
VERTEX
  8
pancake_6
 10
0.0
 20
0.0
 30
0.0
 70
   128
 71
   31
 72
   38
 73
   37
  0
VERTEX
  8
pancake_6
 10
0.0
 20
0.0
 30
0.0
 70
   128
 71
   33
 72
   40
 73
   39
  0
VERTEX
  8
pancake_6
 10
0.0
 20
0.0
 30
0.0
 70
   128
 71
   34
 72
   41
 73
   40
  0
VERTEX
  8
pancake_6
 10
0.0
 20
0.0
 30
0.0
 70
   128
 71
   35
 72
   42
 73
   41
  0
VERTEX
  8
pancake_6
 10
0.0
 20
0.0
 30
0.0
 70
   128
 71
   36
 72
   43
 73
   42
  0
VERTEX
  8
pancake_6
 10
0.0
 20
0.0
 30
0.0
 70
   128
 71
   37
 72
   44
 73
   43
  0
VERTEX
  8
pancake_6
 10
0.0
 20
0.0
 30
0.0
 70
   128
 71
   39
 72
   46
 73
   45
  0
VERTEX
  8
pancake_6
 10
0.0
 20
0.0
 30
0.0
 70
   128
 71
   40
 72
   47
 73
   46
  0
VERTEX
  8
pancake_6
 10
0.0
 20
0.0
 30
0.0
 70
   128
 71
   41
 72
   48
 73
   47
  0
VERTEX
  8
pancake_6
 10
0.0
 20
0.0
 30
0.0
 70
   128
 71
   42
 72
   49
 73
   48
  0
VERTEX
  8
pancake_6
 10
0.0
 20
0.0
 30
0.0
 70
   128
 71
   43
 72
   50
 73
   49
  0
VERTEX
  8
pancake_6
 10
0.0
 20
0.0
 30
0.0
 70
   128
 71
   14
 72
   32
 73
   20
  0
VERTEX
  8
pancake_6
 10
0.0
 20
0.0
 30
0.0
 70
   128
 71
   45
 72
   52
 73
   51
  0
VERTEX
  8
pancake_6
 10
0.0
 20
0.0
 30
0.0
 70
   128
 71
   46
 72
   53
 73
   52
  0
VERTEX
  8
pancake_6
 10
0.0
 20
0.0
 30
0.0
 70
   128
 71
   47
 72
   54
 73
   53
  0
VERTEX
  8
pancake_6
 10
0.0
 20
0.0
 30
0.0
 70
   128
 71
   48
 72
   55
 73
   54
  0
VERTEX
  8
pancake_6
 10
0.0
 20
0.0
 30
0.0
 70
   128
 71
   49
 72
   56
 73
   55
  0
VERTEX
  8
pancake_6
 10
0.0
 20
0.0
 30
0.0
 70
   128
 71
   75
 72
   4
 73
   3
  0
VERTEX
  8
pancake_6
 10
0.0
 20
0.0
 30
0.0
 70
   128
 71
   51
 72
   58
 73
   57
  0
VERTEX
  8
pancake_6
 10
0.0
 20
0.0
 30
0.0
 70
   128
 71
   52
 72
   59
 73
   58
  0
VERTEX
  8
pancake_6
 10
0.0
 20
0.0
 30
0.0
 70
   128
 71
   53
 72
   60
 73
   59
  0
VERTEX
  8
pancake_6
 10
0.0
 20
0.0
 30
0.0
 70
   128
 71
   54
 72
   61
 73
   60
  0
VERTEX
  8
pancake_6
 10
0.0
 20
0.0
 30
0.0
 70
   128
 71
   55
 72
   62
 73
   61
  0
VERTEX
  8
pancake_6
 10
0.0
 20
0.0
 30
0.0
 70
   128
 71
   1
 72
   8
 73
   7
  0
VERTEX
  8
pancake_6
 10
0.0
 20
0.0
 30
0.0
 70
   128
 71
   72
 72
   1
 73
   78
  0
VERTEX
  8
pancake_6
 10
0.0
 20
0.0
 30
0.0
 70
   128
 71
   57
 72
   64
 73
   63
  0
VERTEX
  8
pancake_6
 10
0.0
 20
0.0
 30
0.0
 70
   128
 71
   58
 72
   65
 73
   64
  0
VERTEX
  8
pancake_6
 10
0.0
 20
0.0
 30
0.0
 70
   128
 71
   59
 72
   66
 73
   65
  0
VERTEX
  8
pancake_6
 10
0.0
 20
0.0
 30
0.0
 70
   128
 71
   60
 72
   67
 73
   66
  0
VERTEX
  8
pancake_6
 10
0.0
 20
0.0
 30
0.0
 70
   128
 71
   61
 72
   68
 73
   67
  0
VERTEX
  8
pancake_6
 10
0.0
 20
0.0
 30
0.0
 70
   128
 71
   76
 72
   5
 73
   4
  0
VERTEX
  8
pancake_6
 10
0.0
 20
0.0
 30
0.0
 70
   128
 71
   73
 72
   2
 73
   1
  0
VERTEX
  8
pancake_6
 10
0.0
 20
0.0
 30
0.0
 70
   128
 71
   63
 72
   70
 73
   69
  0
VERTEX
  8
pancake_6
 10
0.0
 20
0.0
 30
0.0
 70
   128
 71
   64
 72
   71
 73
   70
  0
VERTEX
  8
pancake_6
 10
0.0
 20
0.0
 30
0.0
 70
   128
 71
   65
 72
   72
 73
   71
  0
VERTEX
  8
pancake_6
 10
0.0
 20
0.0
 30
0.0
 70
   128
 71
   66
 72
   73
 73
   72
  0
VERTEX
  8
pancake_6
 10
0.0
 20
0.0
 30
0.0
 70
   128
 71
   67
 72
   74
 73
   73
  0
VERTEX
  8
pancake_6
 10
0.0
 20
0.0
 30
0.0
 70
   128
 71
   77
 72
   6
 73
   5
  0
VERTEX
  8
pancake_6
 10
0.0
 20
0.0
 30
0.0
 70
   128
 71
   78
 72
   7
 73
   6
  0
VERTEX
  8
pancake_6
 10
0.0
 20
0.0
 30
0.0
 70
   128
 71
   69
 72
   76
 73
   75
  0
VERTEX
  8
pancake_6
 10
0.0
 20
0.0
 30
0.0
 70
   128
 71
   70
 72
   77
 73
   76
  0
VERTEX
  8
pancake_6
 10
0.0
 20
0.0
 30
0.0
 70
   128
 71
   71
 72
   78
 73
   77
  0
SEQEND
  0
POLYLINE
  8
pancake_7
 66
   1
 10
0.0
 20
0.0
 30
0.0
 70
   64
 71
   78
 72
   152
  0
VERTEX
  8
pancake_7
 10
76.005878
 20
160.383870
 30
39.516926
 70
   192
  0
VERTEX
  8
pancake_7
 10
65.835151
 20
165.141704
 30
34.178917
 70
   192
  0
VERTEX
  8
pancake_7
 10
75.336354
 20
128.164341
 30
-4.368977
 70
   192
  0
VERTEX
  8
pancake_7
 10
86.822782
 20
132.922175
 30
-4.368977
 70
   192
  0
VERTEX
  8
pancake_7
 10
91.580616
 20
144.408603
 30
-4.368977
 70
   192
  0
VERTEX
  8
pancake_7
 10
91.580616
 20
148.897442
 30
-4.368977
 70
   192
  0
VERTEX
  8
pancake_7
 10
86.822782
 20
160.383870
 30
-4.368977
 70
   192
  0
VERTEX
  8
pancake_7
 10
75.336354
 20
165.141704
 30
-4.368977
 70
   192
  0
VERTEX
  8
pancake_7
 10
65.835151
 20
128.164341
 30
-42.916870
 70
   192
  0
VERTEX
  8
pancake_7
 10
76.005878
 20
132.922175
 30
-48.254879
 70
   192
  0
VERTEX
  8
pancake_7
 10
80.218731
 20
144.408603
 30
-50.465955
 70
   192
  0
VERTEX
  8
pancake_7
 10
80.218731
 20
148.897442
 30
-50.465955
 70
   192
  0
VERTEX
  8
pancake_7
 10
76.005878
 20
160.383870
 30
-48.254879
 70
   192
  0
VERTEX
  8
pancake_7
 10
65.835151
 20
165.141704
 30
-42.916870
 70
   192
  0
VERTEX
  8
pancake_7
 10
39.508155
 20
128.164341
 30
-72.633906
 70
   192
  0
VERTEX
  8
pancake_7
 10
46.033190
 20
132.922175
 30
-82.087050
 70
   192
  0
VERTEX
  8
pancake_7
 10
48.735948
 20
144.408603
 30
-86.002671
 70
   192
  0
VERTEX
  8
pancake_7
 10
48.735948
 20
148.897442
 30
-86.002671
 70
   192
  0
VERTEX
  8
pancake_7
 10
46.033190
 20
160.383870
 30
-82.087050
 70
   192
  0
VERTEX
  8
pancake_7
 10
39.508155
 20
165.141704
 30
-72.633906
 70
   192
  0
VERTEX
  8
pancake_7
 10
2.386563
 20
128.164341
 30
-86.712269
 70
   192
  0
VERTEX
  8
pancake_7
 10
3.771099
 20
132.922175
 30
-98.114948
 70
   192
  0
VERTEX
  8
pancake_7
 10
4.344592
 20
144.408603
 30
-102.838092
 70
   192
  0
VERTEX
  8
pancake_7
 10
4.344592
 20
148.897442
 30
-102.838092
 70
   192
  0
VERTEX
  8
pancake_7
 10
3.771099
 20
160.383870
 30
-98.114948
 70
   192
  0
VERTEX
  8
pancake_7
 10
2.386563
 20
165.141704
 30
-86.712269
 70
   192
  0
VERTEX
  8
pancake_7
 10
-37.025517
 20
128.164341
 30
-81.926776
 70
   192
  0
VERTEX
  8
pancake_7
 10
-41.098660
 20
132.922175
 30
-92.666773
 70
   192
  0
VERTEX
  8
pancake_7
 10
-42.785811
 20
144.408603
 30
-97.115425
 70
   192
  0
VERTEX
  8
pancake_7
 10
-42.785811
 20
148.897442
 30
-97.115425
 70
   192
  0
VERTEX
  8
pancake_7
 10
-41.098660
 20
160.383870
 30
-92.666773
 70
   192
  0
VERTEX
  8
pancake_7
 10
-37.025517
 20
165.141704
 30
-81.926776
 70
   192
  0
VERTEX
  8
pancake_7
 10
-69.699250
 20
128.164341
 30
-59.373726
 70
   192
  0
VERTEX
  8
pancake_7
 10
-78.296965
 20
132.922175
 30
-66.990637
 70
   192
  0
VERTEX
  8
pancake_7
 10
-81.858255
 20
144.408603
 30
-70.145664
 70
   192
  0
VERTEX
  8
pancake_7
 10
-81.858255
 20
148.897442
 30
-70.145664
 70
   192
  0
VERTEX
  8
pancake_7
 10
-78.296965
 20
160.383870
 30
-66.990637
 70
   192
  0
VERTEX
  8
pancake_7
 10
-69.699250
 20
165.141704
 30
-59.373726
 70
   192
  0
VERTEX
  8
pancake_7
 10
-88.149480
 20
128.164341
 30
-24.219751
 70
   192
  0
VERTEX
  8
pancake_7
 10
-99.302133
 20
132.922175
 30
-26.968633
 70
   192
  0
VERTEX
  8
pancake_7
 10
-103.921713
 20
144.408603
 30
-28.107257
 70
   192
  0
VERTEX
  8
pancake_7
 10
-103.921713
 20
148.897442
 30
-28.107257
 70
   192
  0
VERTEX
  8
pancake_7
 10
-99.302133
 20
160.383870
 30
-26.968633
 70
   192
  0
VERTEX
  8
pancake_7
 10
-88.149480
 20
165.141704
 30
-24.219751
 70
   192
  0
VERTEX
  8
pancake_7
 10
-88.149480
 20
128.164341
 30
15.481798
 70
   192
  0
VERTEX
  8
pancake_7
 10
-99.302133
 20
132.922175
 30
18.230680
 70
   192
  0
VERTEX
  8
pancake_7
 10
-103.921713
 20
144.408603
 30
19.369304
 70
   192
  0
VERTEX
  8
pancake_7
 10
-103.921713
 20
148.897442
 30
19.369304
 70
   192
  0
VERTEX
  8
pancake_7
 10
-99.302133
 20
160.383870
 30
18.230680
 70
   192
  0
VERTEX
  8
pancake_7
 10
-88.149480
 20
165.141704
 30
15.481798
 70
   192
  0
VERTEX
  8
pancake_7
 10
-69.699250
 20
128.164341
 30
50.635773
 70
   192
  0
VERTEX
  8
pancake_7
 10
-78.296965
 20
132.922175
 30
58.252683
 70
   192
  0
VERTEX
  8
pancake_7
 10
-81.858255
 20
144.408603
 30
61.407711
 70
   192
  0
VERTEX
  8
pancake_7
 10
-81.858255
 20
148.897442
 30
61.407711
 70
   192
  0
VERTEX
  8
pancake_7
 10
-78.296965
 20
160.383870
 30
58.252683
 70
   192
  0
VERTEX
  8
pancake_7
 10
-69.699250
 20
165.141704
 30
50.635773
 70
   192
  0
VERTEX
  8
pancake_7
 10
-37.025517
 20
128.164341
 30
73.188823
 70
   192
  0
VERTEX
  8
pancake_7
 10
-41.098660
 20
132.922175
 30
83.928819
 70
   192
  0
VERTEX
  8
pancake_7
 10
-42.785811
 20
144.408603
 30
88.377472
 70
   192
  0
VERTEX
  8
pancake_7
 10
-42.785811
 20
148.897442
 30
88.377472
 70
   192
  0
VERTEX
  8
pancake_7
 10
-41.098660
 20
160.383870
 30
83.928819
 70
   192
  0
VERTEX
  8
pancake_7
 10
-37.025517
 20
165.141704
 30
73.188823
 70
   192
  0
VERTEX
  8
pancake_7
 10
2.386563
 20
128.164341
 30
77.974316
 70
   192
  0
VERTEX
  8
pancake_7
 10
3.771099
 20
132.922175
 30
89.376994
 70
   192
  0
VERTEX
  8
pancake_7
 10
4.344592
 20
144.408603
 30
94.100139
 70
   192
  0
VERTEX
  8
pancake_7
 10
4.344592
 20
148.897442
 30
94.100139
 70
   192
  0
VERTEX
  8
pancake_7
 10
3.771099
 20
160.383870
 30
89.376994
 70
   192
  0
VERTEX
  8
pancake_7
 10
2.386563
 20
165.141704
 30
77.974316
 70
   192
  0
VERTEX
  8
pancake_7
 10
39.508155
 20
128.164341
 30
63.895952
 70
   192
  0
VERTEX
  8
pancake_7
 10
46.033190
 20
132.922175
 30
73.349097
 70
   192
  0
VERTEX
  8
pancake_7
 10
48.735948
 20
144.408603
 30
77.264718
 70
   192
  0
VERTEX
  8
pancake_7
 10
48.735948
 20
148.897442
 30
77.264718
 70
   192
  0
VERTEX
  8
pancake_7
 10
46.033190
 20
160.383870
 30
73.349097
 70
   192
  0
VERTEX
  8
pancake_7
 10
39.508155
 20
165.141704
 30
63.895952
 70
   192
  0
VERTEX
  8
pancake_7
 10
65.835151
 20
128.164341
 30
34.178917
 70
   192
  0
VERTEX
  8
pancake_7
 10
76.005878
 20
132.922175
 30
39.516926
 70
   192
  0
VERTEX
  8
pancake_7
 10
80.218731
 20
144.408603
 30
41.728002
 70
   192
  0
VERTEX
  8
pancake_7
 10
80.218731
 20
148.897442
 30
41.728002
 70
   192
  0
VERTEX
  8
pancake_7
 10
0.0
 20
0.0
 30
0.0
 70
   128
 71
   75
 72
   3
 73
   69
  0
VERTEX
  8
pancake_7
 10
0.0
 20
0.0
 30
0.0
 70
   128
 71
   3
 72
   4
 73
   10
  0
VERTEX
  8
pancake_7
 10
0.0
 20
0.0
 30
0.0
 70
   128
 71
   4
 72
   5
 73
   11
  0
VERTEX
  8
pancake_7
 10
0.0
 20
0.0
 30
0.0
 70
   128
 71
   5
 72
   6
 73
   12
  0
VERTEX
  8
pancake_7
 10
0.0
 20
0.0
 30
0.0
 70
   128
 71
   6
 72
   7
 73
   13
  0
VERTEX
  8
pancake_7
 10
0.0
 20
0.0
 30
0.0
 70
   128
 71
   7
 72
   8
 73
   14
  0
VERTEX
  8
pancake_7
 10
0.0
 20
0.0
 30
0.0
 70
   128
 71
   44
 72
   14
 73
   8
  0
VERTEX
  8
pancake_7
 10
0.0
 20
0.0
 30
0.0
 70
   128
 71
   3
 72
   9
 73
   15
  0
VERTEX
  8
pancake_7
 10
0.0
 20
0.0
 30
0.0
 70
   128
 71
   9
 72
   10
 73
   16
  0
VERTEX
  8
pancake_7
 10
0.0
 20
0.0
 30
0.0
 70
   128
 71
   10
 72
   11
 73
   17
  0
VERTEX
  8
pancake_7
 10
0.0
 20
0.0
 30
0.0
 70
   128
 71
   11
 72
   12
 73
   18
  0
VERTEX
  8
pancake_7
 10
0.0
 20
0.0
 30
0.0
 70
   128
 71
   12
 72
   13
 73
   19
  0
VERTEX
  8
pancake_7
 10
0.0
 20
0.0
 30
0.0
 70
   128
 71
   13
 72
   14
 73
   20
  0
VERTEX
  8
pancake_7
 10
0.0
 20
0.0
 30
0.0
 70
   128
 71
   8
 72
   2
 73
   74
  0
VERTEX
  8
pancake_7
 10
0.0
 20
0.0
 30
0.0
 70
   128
 71
   27
 72
   3
 73
   15
  0
VERTEX
  8
pancake_7
 10
0.0
 20
0.0
 30
0.0
 70
   128
 71
   15
 72
   16
 73
   22
  0
VERTEX
  8
pancake_7
 10
0.0
 20
0.0
 30
0.0
 70
   128
 71
   16
 72
   17
 73
   23
  0
VERTEX
  8
pancake_7
 10
0.0
 20
0.0
 30
0.0
 70
   128
 71
   17
 72
   18
 73
   24
  0
VERTEX
  8
pancake_7
 10
0.0
 20
0.0
 30
0.0
 70
   128
 71
   18
 72
   19
 73
   25
  0
VERTEX
  8
pancake_7
 10
0.0
 20
0.0
 30
0.0
 70
   128
 71
   19
 72
   20
 73
   26
  0
VERTEX
  8
pancake_7
 10
0.0
 20
0.0
 30
0.0
 70
   128
 71
   74
 72
   68
 73
   62
  0
VERTEX
  8
pancake_7
 10
0.0
 20
0.0
 30
0.0
 70
   128
 71
   3
 72
   27
 73
   39
  0
VERTEX
  8
pancake_7
 10
0.0
 20
0.0
 30
0.0
 70
   128
 71
   21
 72
   22
 73
   28
  0
VERTEX
  8
pancake_7
 10
0.0
 20
0.0
 30
0.0
 70
   128
 71
   22
 72
   23
 73
   29
  0
VERTEX
  8
pancake_7
 10
0.0
 20
0.0
 30
0.0
 70
   128
 71
   23
 72
   24
 73
   30
  0
VERTEX
  8
pancake_7
 10
0.0
 20
0.0
 30
0.0
 70
   128
 71
   24
 72
   25
 73
   31
  0
VERTEX
  8
pancake_7
 10
0.0
 20
0.0
 30
0.0
 70
   128
 71
   25
 72
   26
 73
   32
  0
VERTEX
  8
pancake_7
 10
0.0
 20
0.0
 30
0.0
 70
   128
 71
   44
 72
   74
 73
   62
  0
VERTEX
  8
pancake_7
 10
0.0
 20
0.0
 30
0.0
 70
   128
 71
   69
 72
   3
 73
   45
  0
VERTEX
  8
pancake_7
 10
0.0
 20
0.0
 30
0.0
 70
   128
 71
   27
 72
   28
 73
   34
  0
VERTEX
  8
pancake_7
 10
0.0
 20
0.0
 30
0.0
 70
   128
 71
   28
 72
   29
 73
   35
  0
VERTEX
  8
pancake_7
 10
0.0
 20
0.0
 30
0.0
 70
   128
 71
   29
 72
   30
 73
   36
  0
VERTEX
  8
pancake_7
 10
0.0
 20
0.0
 30
0.0
 70
   128
 71
   30
 72
   31
 73
   37
  0
VERTEX
  8
pancake_7
 10
0.0
 20
0.0
 30
0.0
 70
   128
 71
   31
 72
   32
 73
   38
  0
VERTEX
  8
pancake_7
 10
0.0
 20
0.0
 30
0.0
 70
   128
 71
   56
 72
   50
 73
   44
  0
VERTEX
  8
pancake_7
 10
0.0
 20
0.0
 30
0.0
 70
   128
 71
   27
 72
   33
 73
   39
  0
VERTEX
  8
pancake_7
 10
0.0
 20
0.0
 30
0.0
 70
   128
 71
   33
 72
   34
 73
   40
  0
VERTEX
  8
pancake_7
 10
0.0
 20
0.0
 30
0.0
 70
   128
 71
   34
 72
   35
 73
   41
  0
VERTEX
  8
pancake_7
 10
0.0
 20
0.0
 30
0.0
 70
   128
 71
   35
 72
   36
 73
   42
  0
VERTEX
  8
pancake_7
 10
0.0
 20
0.0
 30
0.0
 70
   128
 71
   36
 72
   37
 73
   43
  0
VERTEX
  8
pancake_7
 10
0.0
 20
0.0
 30
0.0
 70
   128
 71
   37
 72
   38
 73
   44
  0
VERTEX
  8
pancake_7
 10
0.0
 20
0.0
 30
0.0
 70
   128
 71
   44
 72
   38
 73
   32
  0
VERTEX
  8
pancake_7
 10
0.0
 20
0.0
 30
0.0
 70
   128
 71
   45
 72
   51
 73
   57
  0
VERTEX
  8
pancake_7
 10
0.0
 20
0.0
 30
0.0
 70
   128
 71
   39
 72
   40
 73
   46
  0
VERTEX
  8
pancake_7
 10
0.0
 20
0.0
 30
0.0
 70
   128
 71
   40
 72
   41
 73
   47
  0
VERTEX
  8
pancake_7
 10
0.0
 20
0.0
 30
0.0
 70
   128
 71
   41
 72
   42
 73
   48
  0
VERTEX
  8
pancake_7
 10
0.0
 20
0.0
 30
0.0
 70
   128
 71
   42
 72
   43
 73
   49
  0
VERTEX
  8
pancake_7
 10
0.0
 20
0.0
 30
0.0
 70
   128
 71
   43
 72
   44
 73
   50
  0
VERTEX
  8
pancake_7
 10
0.0
 20
0.0
 30
0.0
 70
   128
 71
   14
 72
   44
 73
   32
  0
VERTEX
  8
pancake_7
 10
0.0
 20
0.0
 30
0.0
 70
   128
 71
   57
 72
   63
 73
   69
  0
VERTEX
  8
pancake_7
 10
0.0
 20
0.0
 30
0.0
 70
   128
 71
   45
 72
   46
 73
   52
  0
VERTEX
  8
pancake_7
 10
0.0
 20
0.0
 30
0.0
 70
   128
 71
   46
 72
   47
 73
   53
  0
VERTEX
  8
pancake_7
 10
0.0
 20
0.0
 30
0.0
 70
   128
 71
   47
 72
   48
 73
   54
  0
VERTEX
  8
pancake_7
 10
0.0
 20
0.0
 30
0.0
 70
   128
 71
   48
 72
   49
 73
   55
  0
VERTEX
  8
pancake_7
 10
0.0
 20
0.0
 30
0.0
 70
   128
 71
   49
 72
   50
 73
   56
  0
VERTEX
  8
pancake_7
 10
0.0
 20
0.0
 30
0.0
 70
   128
 71
   32
 72
   26
 73
   20
  0
VERTEX
  8
pancake_7
 10
0.0
 20
0.0
 30
0.0
 70
   128
 71
   75
 72
   76
 73
   4
  0
VERTEX
  8
pancake_7
 10
0.0
 20
0.0
 30
0.0
 70
   128
 71
   51
 72
   52
 73
   58
  0
VERTEX
  8
pancake_7
 10
0.0
 20
0.0
 30
0.0
 70
   128
 71
   52
 72
   53
 73
   59
  0
VERTEX
  8
pancake_7
 10
0.0
 20
0.0
 30
0.0
 70
   128
 71
   53
 72
   54
 73
   60
  0
VERTEX
  8
pancake_7
 10
0.0
 20
0.0
 30
0.0
 70
   128
 71
   54
 72
   55
 73
   61
  0
VERTEX
  8
pancake_7
 10
0.0
 20
0.0
 30
0.0
 70
   128
 71
   55
 72
   56
 73
   62
  0
VERTEX
  8
pancake_7
 10
0.0
 20
0.0
 30
0.0
 70
   128
 71
   1
 72
   2
 73
   8
  0
VERTEX
  8
pancake_7
 10
0.0
 20
0.0
 30
0.0
 70
   128
 71
   72
 72
   73
 73
   1
  0
VERTEX
  8
pancake_7
 10
0.0
 20
0.0
 30
0.0
 70
   128
 71
   57
 72
   58
 73
   64
  0
VERTEX
  8
pancake_7
 10
0.0
 20
0.0
 30
0.0
 70
   128
 71
   58
 72
   59
 73
   65
  0
VERTEX
  8
pancake_7
 10
0.0
 20
0.0
 30
0.0
 70
   128
 71
   59
 72
   60
 73
   66
  0
VERTEX
  8
pancake_7
 10
0.0
 20
0.0
 30
0.0
 70
   128
 71
   60
 72
   61
 73
   67
  0
VERTEX
  8
pancake_7
 10
0.0
 20
0.0
 30
0.0
 70
   128
 71
   61
 72
   62
 73
   68
  0
VERTEX
  8
pancake_7
 10
0.0
 20
0.0
 30
0.0
 70
   128
 71
   76
 72
   77
 73
   5
  0
VERTEX
  8
pancake_7
 10
0.0
 20
0.0
 30
0.0
 70
   128
 71
   73
 72
   74
 73
   2
  0
VERTEX
  8
pancake_7
 10
0.0
 20
0.0
 30
0.0
 70
   128
 71
   63
 72
   64
 73
   70
  0
VERTEX
  8
pancake_7
 10
0.0
 20
0.0
 30
0.0
 70
   128
 71
   64
 72
   65
 73
   71
  0
VERTEX
  8
pancake_7
 10
0.0
 20
0.0
 30
0.0
 70
   128
 71
   65
 72
   66
 73
   72
  0
VERTEX
  8
pancake_7
 10
0.0
 20
0.0
 30
0.0
 70
   128
 71
   66
 72
   67
 73
   73
  0
VERTEX
  8
pancake_7
 10
0.0
 20
0.0
 30
0.0
 70
   128
 71
   67
 72
   68
 73
   74
  0
VERTEX
  8
pancake_7
 10
0.0
 20
0.0
 30
0.0
 70
   128
 71
   77
 72
   78
 73
   6
  0
VERTEX
  8
pancake_7
 10
0.0
 20
0.0
 30
0.0
 70
   128
 71
   78
 72
   1
 73
   7
  0
VERTEX
  8
pancake_7
 10
0.0
 20
0.0
 30
0.0
 70
   128
 71
   69
 72
   70
 73
   76
  0
VERTEX
  8
pancake_7
 10
0.0
 20
0.0
 30
0.0
 70
   128
 71
   70
 72
   71
 73
   77
  0
VERTEX
  8
pancake_7
 10
0.0
 20
0.0
 30
0.0
 70
   128
 71
   71
 72
   72
 73
   78
  0
VERTEX
  8
pancake_7
 10
0.0
 20
0.0
 30
0.0
 70
   128
 71
   3
 72
   10
 73
   9
  0
VERTEX
  8
pancake_7
 10
0.0
 20
0.0
 30
0.0
 70
   128
 71
   4
 72
   11
 73
   10
  0
VERTEX
  8
pancake_7
 10
0.0
 20
0.0
 30
0.0
 70
   128
 71
   5
 72
   12
 73
   11
  0
VERTEX
  8
pancake_7
 10
0.0
 20
0.0
 30
0.0
 70
   128
 71
   6
 72
   13
 73
   12
  0
VERTEX
  8
pancake_7
 10
0.0
 20
0.0
 30
0.0
 70
   128
 71
   7
 72
   14
 73
   13
  0
VERTEX
  8
pancake_7
 10
0.0
 20
0.0
 30
0.0
 70
   128
 71
   44
 72
   8
 73
   74
  0
VERTEX
  8
pancake_7
 10
0.0
 20
0.0
 30
0.0
 70
   128
 71
   9
 72
   16
 73
   15
  0
VERTEX
  8
pancake_7
 10
0.0
 20
0.0
 30
0.0
 70
   128
 71
   10
 72
   17
 73
   16
  0
VERTEX
  8
pancake_7
 10
0.0
 20
0.0
 30
0.0
 70
   128
 71
   11
 72
   18
 73
   17
  0
VERTEX
  8
pancake_7
 10
0.0
 20
0.0
 30
0.0
 70
   128
 71
   12
 72
   19
 73
   18
  0
VERTEX
  8
pancake_7
 10
0.0
 20
0.0
 30
0.0
 70
   128
 71
   13
 72
   20
 73
   19
  0
VERTEX
  8
pancake_7
 10
0.0
 20
0.0
 30
0.0
 70
   128
 71
   27
 72
   15
 73
   21
  0
VERTEX
  8
pancake_7
 10
0.0
 20
0.0
 30
0.0
 70
   128
 71
   15
 72
   22
 73
   21
  0
VERTEX
  8
pancake_7
 10
0.0
 20
0.0
 30
0.0
 70
   128
 71
   16
 72
   23
 73
   22
  0
VERTEX
  8
pancake_7
 10
0.0
 20
0.0
 30
0.0
 70
   128
 71
   17
 72
   24
 73
   23
  0
VERTEX
  8
pancake_7
 10
0.0
 20
0.0
 30
0.0
 70
   128
 71
   18
 72
   25
 73
   24
  0
VERTEX
  8
pancake_7
 10
0.0
 20
0.0
 30
0.0
 70
   128
 71
   19
 72
   26
 73
   25
  0
VERTEX
  8
pancake_7
 10
0.0
 20
0.0
 30
0.0
 70
   128
 71
   3
 72
   39
 73
   45
  0
VERTEX
  8
pancake_7
 10
0.0
 20
0.0
 30
0.0
 70
   128
 71
   21
 72
   28
 73
   27
  0
VERTEX
  8
pancake_7
 10
0.0
 20
0.0
 30
0.0
 70
   128
 71
   22
 72
   29
 73
   28
  0
VERTEX
  8
pancake_7
 10
0.0
 20
0.0
 30
0.0
 70
   128
 71
   23
 72
   30
 73
   29
  0
VERTEX
  8
pancake_7
 10
0.0
 20
0.0
 30
0.0
 70
   128
 71
   24
 72
   31
 73
   30
  0
VERTEX
  8
pancake_7
 10
0.0
 20
0.0
 30
0.0
 70
   128
 71
   25
 72
   32
 73
   31
  0
VERTEX
  8
pancake_7
 10
0.0
 20
0.0
 30
0.0
 70
   128
 71
   44
 72
   62
 73
   56
  0
VERTEX
  8
pancake_7
 10
0.0
 20
0.0
 30
0.0
 70
   128
 71
   69
 72
   45
 73
   57
  0
VERTEX
  8
pancake_7
 10
0.0
 20
0.0
 30
0.0
 70
   128
 71
   27
 72
   34
 73
   33
  0
VERTEX
  8
pancake_7
 10
0.0
 20
0.0
 30
0.0
 70
   128
 71
   28
 72
   35
 73
   34
  0
VERTEX
  8
pancake_7
 10
0.0
 20
0.0
 30
0.0
 70
   128
 71
   29
 72
   36
 73
   35
  0
VERTEX
  8
pancake_7
 10
0.0
 20
0.0
 30
0.0
 70
   128
 71
   30
 72
   37
 73
   36
  0
VERTEX
  8
pancake_7
 10
0.0
 20
0.0
 30
0.0
 70
   128
 71
   31
 72
   38
 73
   37
  0
VERTEX
  8
pancake_7
 10
0.0
 20
0.0
 30
0.0
 70
   128
 71
   33
 72
   40
 73
   39
  0
VERTEX
  8
pancake_7
 10
0.0
 20
0.0
 30
0.0
 70
   128
 71
   34
 72
   41
 73
   40
  0
VERTEX
  8
pancake_7
 10
0.0
 20
0.0
 30
0.0
 70
   128
 71
   35
 72
   42
 73
   41
  0
VERTEX
  8
pancake_7
 10
0.0
 20
0.0
 30
0.0
 70
   128
 71
   36
 72
   43
 73
   42
  0
VERTEX
  8
pancake_7
 10
0.0
 20
0.0
 30
0.0
 70
   128
 71
   37
 72
   44
 73
   43
  0
VERTEX
  8
pancake_7
 10
0.0
 20
0.0
 30
0.0
 70
   128
 71
   39
 72
   46
 73
   45
  0
VERTEX
  8
pancake_7
 10
0.0
 20
0.0
 30
0.0
 70
   128
 71
   40
 72
   47
 73
   46
  0
VERTEX
  8
pancake_7
 10
0.0
 20
0.0
 30
0.0
 70
   128
 71
   41
 72
   48
 73
   47
  0
VERTEX
  8
pancake_7
 10
0.0
 20
0.0
 30
0.0
 70
   128
 71
   42
 72
   49
 73
   48
  0
VERTEX
  8
pancake_7
 10
0.0
 20
0.0
 30
0.0
 70
   128
 71
   43
 72
   50
 73
   49
  0
VERTEX
  8
pancake_7
 10
0.0
 20
0.0
 30
0.0
 70
   128
 71
   14
 72
   32
 73
   20
  0
VERTEX
  8
pancake_7
 10
0.0
 20
0.0
 30
0.0
 70
   128
 71
   45
 72
   52
 73
   51
  0
VERTEX
  8
pancake_7
 10
0.0
 20
0.0
 30
0.0
 70
   128
 71
   46
 72
   53
 73
   52
  0
VERTEX
  8
pancake_7
 10
0.0
 20
0.0
 30
0.0
 70
   128
 71
   47
 72
   54
 73
   53
  0
VERTEX
  8
pancake_7
 10
0.0
 20
0.0
 30
0.0
 70
   128
 71
   48
 72
   55
 73
   54
  0
VERTEX
  8
pancake_7
 10
0.0
 20
0.0
 30
0.0
 70
   128
 71
   49
 72
   56
 73
   55
  0
VERTEX
  8
pancake_7
 10
0.0
 20
0.0
 30
0.0
 70
   128
 71
   75
 72
   4
 73
   3
  0
VERTEX
  8
pancake_7
 10
0.0
 20
0.0
 30
0.0
 70
   128
 71
   51
 72
   58
 73
   57
  0
VERTEX
  8
pancake_7
 10
0.0
 20
0.0
 30
0.0
 70
   128
 71
   52
 72
   59
 73
   58
  0
VERTEX
  8
pancake_7
 10
0.0
 20
0.0
 30
0.0
 70
   128
 71
   53
 72
   60
 73
   59
  0
VERTEX
  8
pancake_7
 10
0.0
 20
0.0
 30
0.0
 70
   128
 71
   54
 72
   61
 73
   60
  0
VERTEX
  8
pancake_7
 10
0.0
 20
0.0
 30
0.0
 70
   128
 71
   55
 72
   62
 73
   61
  0
VERTEX
  8
pancake_7
 10
0.0
 20
0.0
 30
0.0
 70
   128
 71
   1
 72
   8
 73
   7
  0
VERTEX
  8
pancake_7
 10
0.0
 20
0.0
 30
0.0
 70
   128
 71
   72
 72
   1
 73
   78
  0
VERTEX
  8
pancake_7
 10
0.0
 20
0.0
 30
0.0
 70
   128
 71
   57
 72
   64
 73
   63
  0
VERTEX
  8
pancake_7
 10
0.0
 20
0.0
 30
0.0
 70
   128
 71
   58
 72
   65
 73
   64
  0
VERTEX
  8
pancake_7
 10
0.0
 20
0.0
 30
0.0
 70
   128
 71
   59
 72
   66
 73
   65
  0
VERTEX
  8
pancake_7
 10
0.0
 20
0.0
 30
0.0
 70
   128
 71
   60
 72
   67
 73
   66
  0
VERTEX
  8
pancake_7
 10
0.0
 20
0.0
 30
0.0
 70
   128
 71
   61
 72
   68
 73
   67
  0
VERTEX
  8
pancake_7
 10
0.0
 20
0.0
 30
0.0
 70
   128
 71
   76
 72
   5
 73
   4
  0
VERTEX
  8
pancake_7
 10
0.0
 20
0.0
 30
0.0
 70
   128
 71
   73
 72
   2
 73
   1
  0
VERTEX
  8
pancake_7
 10
0.0
 20
0.0
 30
0.0
 70
   128
 71
   63
 72
   70
 73
   69
  0
VERTEX
  8
pancake_7
 10
0.0
 20
0.0
 30
0.0
 70
   128
 71
   64
 72
   71
 73
   70
  0
VERTEX
  8
pancake_7
 10
0.0
 20
0.0
 30
0.0
 70
   128
 71
   65
 72
   72
 73
   71
  0
VERTEX
  8
pancake_7
 10
0.0
 20
0.0
 30
0.0
 70
   128
 71
   66
 72
   73
 73
   72
  0
VERTEX
  8
pancake_7
 10
0.0
 20
0.0
 30
0.0
 70
   128
 71
   67
 72
   74
 73
   73
  0
VERTEX
  8
pancake_7
 10
0.0
 20
0.0
 30
0.0
 70
   128
 71
   77
 72
   6
 73
   5
  0
VERTEX
  8
pancake_7
 10
0.0
 20
0.0
 30
0.0
 70
   128
 71
   78
 72
   7
 73
   6
  0
VERTEX
  8
pancake_7
 10
0.0
 20
0.0
 30
0.0
 70
   128
 71
   69
 72
   76
 73
   75
  0
VERTEX
  8
pancake_7
 10
0.0
 20
0.0
 30
0.0
 70
   128
 71
   70
 72
   77
 73
   76
  0
VERTEX
  8
pancake_7
 10
0.0
 20
0.0
 30
0.0
 70
   128
 71
   71
 72
   78
 73
   77
  0
SEQEND
  0
ENDSEC
  0
EOF
