999
FBX AutoCAD (*.DXF) exporter
  0
SECTION
  2
HEADER
  9
$ACADVER
  1
AC1008
  9
$UCSORG
 10
0.0
 20
0.0
 30
0.0
  9
$UCSXDIR
 10
1.0
 20
0.0
 30
0.0
  9
$TILEMODE
 70
   1
  9
$UCSYDIR
 10
0.0
 20
1.0
 30
0.0
  0
ENDSEC
  0
SECTION
  2
TABLES
  0
TABLE
  2
LTYPE
 70
   1
  0
LTYPE
  2
CONTINUOUS
 70
   64
  3
Solid line
 72
   65
 73
   0
 40
0.0
  0
ENDTAB
  0
TABLE
  2
LAYER
 70
   1
  0
LAYER
  2
bacon02
 70
   0
 62
   250
  6
CONTINUOUS
  0
ENDTAB
  0
ENDSEC
  0
SECTION
  2
BLOCKS
  0
ENDSEC
  0
SECTION
  2
ENTITIES
  0
POLYLINE
  8
bacon02
 66
   1
 10
0.0
 20
0.0
 30
0.0
 70
   64
 71
   72
 72
   140
  0
VERTEX
  8
bacon02
 10
-42.762934
 20
20.000000
 30
5.305359
 70
   192
  0
VERTEX
  8
bacon02
 10
-45.878305
 20
0.000000
 30
38.563388
 70
   192
  0
VERTEX
  8
bacon02
 10
-13.170510
 20
0.000000
 30
13.280592
 70
   192
  0
VERTEX
  8
bacon02
 10
1.551318
 20
20.000000
 30
20.343204
 70
   192
  0
VERTEX
  8
bacon02
 10
71.341216
 20
20.000000
 30
50.810352
 70
   192
  0
VERTEX
  8
bacon02
 10
25.842347
 20
20.000000
 30
25.609829
 70
   192
  0
VERTEX
  8
bacon02
 10
48.373543
 20
20.000000
 30
40.539889
 70
   192
  0
VERTEX
  8
bacon02
 10
94.149123
 20
20.000000
 30
49.100981
 70
   192
  0
VERTEX
  8
bacon02
 10
99.532692
 20
20.000000
 30
-3.809314
 70
   192
  0
VERTEX
  8
bacon02
 10
-9.611260
 20
20.000000
 30
-24.716046
 70
   192
  0
VERTEX
  8
bacon02
 10
-70.126565
 20
20.000000
 30
5.469361
 70
   192
  0
VERTEX
  8
bacon02
 10
-71.246766
 20
0.000000
 30
17.428025
 70
   192
  0
VERTEX
  8
bacon02
 10
-72.967434
 20
0.000000
 30
35.796955
 70
   192
  0
VERTEX
  8
bacon02
 10
-41.313715
 20
20.000000
 30
-10.165717
 70
   192
  0
VERTEX
  8
bacon02
 10
-42.762934
 20
0.000000
 30
5.305359
 70
   192
  0
VERTEX
  8
bacon02
 10
-68.662181
 20
20.000000
 30
-10.163623
 70
   192
  0
VERTEX
  8
bacon02
 10
-97.163453
 20
20.000000
 30
-25.225600
 70
   192
  0
VERTEX
  8
bacon02
 10
-101.461745
 20
20.000000
 30
25.222455
 70
   192
  0
VERTEX
  8
bacon02
 10
-44.052271
 20
20.000000
 30
19.069632
 70
   192
  0
VERTEX
  8
bacon02
 10
-45.878305
 20
20.000000
 30
38.563388
 70
   192
  0
VERTEX
  8
bacon02
 10
-13.170510
 20
20.000000
 30
13.280592
 70
   192
  0
VERTEX
  8
bacon02
 10
1.551318
 20
0.000000
 30
20.343204
 70
   192
  0
VERTEX
  8
bacon02
 10
25.842347
 20
0.000000
 30
25.609829
 70
   192
  0
VERTEX
  8
bacon02
 10
99.532692
 20
0.000000
 30
-3.809314
 70
   192
  0
VERTEX
  8
bacon02
 10
48.373543
 20
0.000000
 30
40.539889
 70
   192
  0
VERTEX
  8
bacon02
 10
71.341216
 20
0.000000
 30
50.810352
 70
   192
  0
VERTEX
  8
bacon02
 10
94.149123
 20
0.000000
 30
49.100981
 70
   192
  0
VERTEX
  8
bacon02
 10
-72.967434
 20
20.000000
 30
35.796955
 70
   192
  0
VERTEX
  8
bacon02
 10
76.605746
 20
0.000000
 30
-0.829143
 70
   192
  0
VERTEX
  8
bacon02
 10
-71.246766
 20
20.000000
 30
17.428025
 70
   192
  0
VERTEX
  8
bacon02
 10
-68.662181
 20
0.000000
 30
-10.163623
 70
   192
  0
VERTEX
  8
bacon02
 10
-9.611260
 20
0.000000
 30
-24.716046
 70
   192
  0
VERTEX
  8
bacon02
 10
-41.313715
 20
0.000000
 30
-10.165717
 70
   192
  0
VERTEX
  8
bacon02
 10
-97.163453
 20
0.000000
 30
-25.225600
 70
   192
  0
VERTEX
  8
bacon02
 10
-101.461745
 20
0.000000
 30
25.222455
 70
   192
  0
VERTEX
  8
bacon02
 10
-44.052271
 20
0.000000
 30
19.069632
 70
   192
  0
VERTEX
  8
bacon02
 10
97.564054
 20
20.000000
 30
15.279886
 70
   192
  0
VERTEX
  8
bacon02
 10
-98.744144
 20
20.000000
 30
-6.424064
 70
   192
  0
VERTEX
  8
bacon02
 10
97.564054
 20
0.000000
 30
15.279886
 70
   192
  0
VERTEX
  8
bacon02
 10
-98.744144
 20
0.000000
 30
-6.424064
 70
   192
  0
VERTEX
  8
bacon02
 10
95.908723
 20
20.000000
 30
32.305115
 70
   192
  0
VERTEX
  8
bacon02
 10
-100.292729
 20
20.000000
 30
10.753982
 70
   192
  0
VERTEX
  8
bacon02
 10
95.908723
 20
0.000000
 30
32.305115
 70
   192
  0
VERTEX
  8
bacon02
 10
-100.292729
 20
0.000000
 30
10.753982
 70
   192
  0
VERTEX
  8
bacon02
 10
76.200819
 20
20.000000
 30
-1.068164
 70
   192
  0
VERTEX
  8
bacon02
 10
-70.126565
 20
0.000000
 30
5.469361
 70
   192
  0
VERTEX
  8
bacon02
 10
74.465897
 20
20.000000
 30
17.452933
 70
   192
  0
VERTEX
  8
bacon02
 10
74.465897
 20
0.000000
 30
17.452933
 70
   192
  0
VERTEX
  8
bacon02
 10
72.874367
 20
20.000000
 30
34.443258
 70
   192
  0
VERTEX
  8
bacon02
 10
72.874367
 20
0.000000
 30
34.443258
 70
   192
  0
VERTEX
  8
bacon02
 10
53.486643
 20
20.000000
 30
-14.044822
 70
   192
  0
VERTEX
  8
bacon02
 10
53.486643
 20
0.000000
 30
-14.044822
 70
   192
  0
VERTEX
  8
bacon02
 10
51.612211
 20
20.000000
 30
5.965607
 70
   192
  0
VERTEX
  8
bacon02
 10
51.612211
 20
0.000000
 30
5.965607
 70
   192
  0
VERTEX
  8
bacon02
 10
50.236217
 20
20.000000
 30
20.654976
 70
   192
  0
VERTEX
  8
bacon02
 10
50.236217
 20
0.000000
 30
20.654976
 70
   192
  0
VERTEX
  8
bacon02
 10
30.453582
 20
20.000000
 30
-23.617240
 70
   192
  0
VERTEX
  8
bacon02
 10
30.453582
 20
0.000000
 30
-23.617240
 70
   192
  0
VERTEX
  8
bacon02
 10
28.617566
 20
20.000000
 30
-4.016921
 70
   192
  0
VERTEX
  8
bacon02
 10
28.617566
 20
0.000000
 30
-4.016921
 70
   192
  0
VERTEX
  8
bacon02
 10
27.245672
 20
20.000000
 30
10.628687
 70
   192
  0
VERTEX
  8
bacon02
 10
27.245672
 20
0.000000
 30
10.628687
 70
   192
  0
VERTEX
  8
bacon02
 10
5.789583
 20
20.000000
 30
-24.902237
 70
   192
  0
VERTEX
  8
bacon02
 10
5.789583
 20
0.000000
 30
-24.902237
 70
   192
  0
VERTEX
  8
bacon02
 10
4.096053
 20
20.000000
 30
-6.823026
 70
   192
  0
VERTEX
  8
bacon02
 10
4.096053
 20
0.000000
 30
-6.823026
 70
   192
  0
VERTEX
  8
bacon02
 10
2.704911
 20
20.000000
 30
8.028058
 70
   192
  0
VERTEX
  8
bacon02
 10
2.704911
 20
0.000000
 30
8.028058
 70
   192
  0
VERTEX
  8
bacon02
 10
-14.373552
 20
20.000000
 30
26.123631
 70
   192
  0
VERTEX
  8
bacon02
 10
-14.373552
 20
0.000000
 30
26.123631
 70
   192
  0
VERTEX
  8
bacon02
 10
-11.782003
 20
20.000000
 30
-1.542361
 70
   192
  0
VERTEX
  8
bacon02
 10
-11.782003
 20
0.000000
 30
-1.542361
 70
   192
  0
VERTEX
  8
bacon02
 10
0.0
 20
0.0
 30
0.0
 70
   128
 71
   18
 72
   28
 73
   13
  0
VERTEX
  8
bacon02
 10
0.0
 20
0.0
 30
0.0
 70
   128
 71
   28
 72
   20
 73
   2
  0
VERTEX
  8
bacon02
 10
0.0
 20
0.0
 30
0.0
 70
   128
 71
   20
 72
   69
 73
   70
  0
VERTEX
  8
bacon02
 10
0.0
 20
0.0
 30
0.0
 70
   128
 71
   68
 72
   3
 73
   70
  0
VERTEX
  8
bacon02
 10
0.0
 20
0.0
 30
0.0
 70
   128
 71
   4
 72
   6
 73
   23
  0
VERTEX
  8
bacon02
 10
0.0
 20
0.0
 30
0.0
 70
   128
 71
   6
 72
   7
 73
   25
  0
VERTEX
  8
bacon02
 10
0.0
 20
0.0
 30
0.0
 70
   128
 71
   7
 72
   5
 73
   26
  0
VERTEX
  8
bacon02
 10
0.0
 20
0.0
 30
0.0
 70
   128
 71
   5
 72
   8
 73
   27
  0
VERTEX
  8
bacon02
 10
0.0
 20
0.0
 30
0.0
 70
   128
 71
   8
 72
   41
 73
   43
  0
VERTEX
  8
bacon02
 10
0.0
 20
0.0
 30
0.0
 70
   128
 71
   9
 72
   45
 73
   29
  0
VERTEX
  8
bacon02
 10
0.0
 20
0.0
 30
0.0
 70
   128
 71
   2
 72
   70
 73
   3
  0
VERTEX
  8
bacon02
 10
0.0
 20
0.0
 30
0.0
 70
   128
 71
   51
 72
   57
 73
   58
  0
VERTEX
  8
bacon02
 10
0.0
 20
0.0
 30
0.0
 70
   128
 71
   63
 72
   10
 73
   32
  0
VERTEX
  8
bacon02
 10
0.0
 20
0.0
 30
0.0
 70
   128
 71
   10
 72
   14
 73
   33
  0
VERTEX
  8
bacon02
 10
0.0
 20
0.0
 30
0.0
 70
   128
 71
   14
 72
   16
 73
   31
  0
VERTEX
  8
bacon02
 10
0.0
 20
0.0
 30
0.0
 70
   128
 71
   16
 72
   17
 73
   34
  0
VERTEX
  8
bacon02
 10
0.0
 20
0.0
 30
0.0
 70
   128
 71
   17
 72
   38
 73
   40
  0
VERTEX
  8
bacon02
 10
0.0
 20
0.0
 30
0.0
 70
   128
 71
   16
 72
   14
 73
   1
  0
VERTEX
  8
bacon02
 10
0.0
 20
0.0
 30
0.0
 70
   128
 71
   37
 72
   9
 73
   24
  0
VERTEX
  8
bacon02
 10
0.0
 20
0.0
 30
0.0
 70
   128
 71
   45
 72
   51
 73
   52
  0
VERTEX
  8
bacon02
 10
0.0
 20
0.0
 30
0.0
 70
   128
 71
   47
 72
   37
 73
   41
  0
VERTEX
  8
bacon02
 10
0.0
 20
0.0
 30
0.0
 70
   128
 71
   48
 72
   54
 73
   56
  0
VERTEX
  8
bacon02
 10
0.0
 20
0.0
 30
0.0
 70
   128
 71
   13
 72
   2
 73
   36
  0
VERTEX
  8
bacon02
 10
0.0
 20
0.0
 30
0.0
 70
   128
 71
   45
 72
   9
 73
   37
  0
VERTEX
  8
bacon02
 10
0.0
 20
0.0
 30
0.0
 70
   128
 71
   46
 72
   40
 73
   44
  0
VERTEX
  8
bacon02
 10
0.0
 20
0.0
 30
0.0
 70
   128
 71
   54
 72
   60
 73
   62
  0
VERTEX
  8
bacon02
 10
0.0
 20
0.0
 30
0.0
 70
   128
 71
   38
 72
   42
 73
   44
  0
VERTEX
  8
bacon02
 10
0.0
 20
0.0
 30
0.0
 70
   128
 71
   31
 72
   34
 73
   40
  0
VERTEX
  8
bacon02
 10
0.0
 20
0.0
 30
0.0
 70
   128
 71
   39
 72
   24
 73
   29
  0
VERTEX
  8
bacon02
 10
0.0
 20
0.0
 30
0.0
 70
   128
 71
   41
 72
   37
 73
   39
  0
VERTEX
  8
bacon02
 10
0.0
 20
0.0
 30
0.0
 70
   128
 71
   12
 72
   44
 73
   35
  0
VERTEX
  8
bacon02
 10
0.0
 20
0.0
 30
0.0
 70
   128
 71
   49
 72
   55
 73
   53
  0
VERTEX
  8
bacon02
 10
0.0
 20
0.0
 30
0.0
 70
   128
 71
   47
 72
   53
 73
   51
  0
VERTEX
  8
bacon02
 10
0.0
 20
0.0
 30
0.0
 70
   128
 71
   42
 72
   18
 73
   35
  0
VERTEX
  8
bacon02
 10
0.0
 20
0.0
 30
0.0
 70
   128
 71
   30
 72
   19
 73
   20
  0
VERTEX
  8
bacon02
 10
0.0
 20
0.0
 30
0.0
 70
   128
 71
   55
 72
   61
 73
   59
  0
VERTEX
  8
bacon02
 10
0.0
 20
0.0
 30
0.0
 70
   128
 71
   28
 72
   18
 73
   42
  0
VERTEX
  8
bacon02
 10
0.0
 20
0.0
 30
0.0
 70
   128
 71
   29
 72
   52
 73
   54
  0
VERTEX
  8
bacon02
 10
0.0
 20
0.0
 30
0.0
 70
   128
 71
   41
 72
   8
 73
   5
  0
VERTEX
  8
bacon02
 10
0.0
 20
0.0
 30
0.0
 70
   128
 71
   60
 72
   66
 73
   68
  0
VERTEX
  8
bacon02
 10
0.0
 20
0.0
 30
0.0
 70
   128
 71
   5
 72
   7
 73
   55
  0
VERTEX
  8
bacon02
 10
0.0
 20
0.0
 30
0.0
 70
   128
 71
   53
 72
   59
 73
   57
  0
VERTEX
  8
bacon02
 10
0.0
 20
0.0
 30
0.0
 70
   128
 71
   67
 72
   21
 73
   71
  0
VERTEX
  8
bacon02
 10
0.0
 20
0.0
 30
0.0
 70
   128
 71
   64
 72
   58
 73
   57
  0
VERTEX
  8
bacon02
 10
0.0
 20
0.0
 30
0.0
 70
   128
 71
   69
 72
   20
 73
   19
  0
VERTEX
  8
bacon02
 10
0.0
 20
0.0
 30
0.0
 70
   128
 71
   50
 72
   43
 73
   39
  0
VERTEX
  8
bacon02
 10
0.0
 20
0.0
 30
0.0
 70
   128
 71
   52
 72
   58
 73
   60
  0
VERTEX
  8
bacon02
 10
0.0
 20
0.0
 30
0.0
 70
   128
 71
   26
 72
   27
 73
   43
  0
VERTEX
  8
bacon02
 10
0.0
 20
0.0
 30
0.0
 70
   128
 71
   66
 72
   72
 73
   3
  0
VERTEX
  8
bacon02
 10
0.0
 20
0.0
 30
0.0
 70
   128
 71
   59
 72
   65
 73
   63
  0
VERTEX
  8
bacon02
 10
0.0
 20
0.0
 30
0.0
 70
   128
 71
   50
 72
   56
 73
   25
  0
VERTEX
  8
bacon02
 10
0.0
 20
0.0
 30
0.0
 70
   128
 71
   65
 72
   59
 73
   61
  0
VERTEX
  8
bacon02
 10
0.0
 20
0.0
 30
0.0
 70
   128
 71
   69
 72
   4
 73
   22
  0
VERTEX
  8
bacon02
 10
0.0
 20
0.0
 30
0.0
 70
   128
 71
   11
 72
   38
 73
   17
  0
VERTEX
  8
bacon02
 10
0.0
 20
0.0
 30
0.0
 70
   128
 71
   58
 72
   64
 73
   66
  0
VERTEX
  8
bacon02
 10
0.0
 20
0.0
 30
0.0
 70
   128
 71
   65
 72
   71
 73
   10
  0
VERTEX
  8
bacon02
 10
0.0
 20
0.0
 30
0.0
 70
   128
 71
   7
 72
   6
 73
   61
  0
VERTEX
  8
bacon02
 10
0.0
 20
0.0
 30
0.0
 70
   128
 71
   30
 72
   42
 73
   38
  0
VERTEX
  8
bacon02
 10
0.0
 20
0.0
 30
0.0
 70
   128
 71
   72
 72
   15
 73
   36
  0
VERTEX
  8
bacon02
 10
0.0
 20
0.0
 30
0.0
 70
   128
 71
   56
 72
   62
 73
   23
  0
VERTEX
  8
bacon02
 10
0.0
 20
0.0
 30
0.0
 70
   128
 71
   6
 72
   4
 73
   67
  0
VERTEX
  8
bacon02
 10
0.0
 20
0.0
 30
0.0
 70
   128
 71
   33
 72
   31
 73
   46
  0
VERTEX
  8
bacon02
 10
0.0
 20
0.0
 30
0.0
 70
   128
 71
   64
 72
   32
 73
   72
  0
VERTEX
  8
bacon02
 10
0.0
 20
0.0
 30
0.0
 70
   128
 71
   1
 72
   71
 73
   21
  0
VERTEX
  8
bacon02
 10
0.0
 20
0.0
 30
0.0
 70
   128
 71
   71
 72
   1
 73
   14
  0
VERTEX
  8
bacon02
 10
0.0
 20
0.0
 30
0.0
 70
   128
 71
   62
 72
   68
 73
   22
  0
VERTEX
  8
bacon02
 10
0.0
 20
0.0
 30
0.0
 70
   128
 71
   32
 72
   33
 73
   15
  0
VERTEX
  8
bacon02
 10
0.0
 20
0.0
 30
0.0
 70
   128
 71
   4
 72
   69
 73
   21
  0
VERTEX
  8
bacon02
 10
0.0
 20
0.0
 30
0.0
 70
   128
 71
   15
 72
   46
 73
   12
  0
VERTEX
  8
bacon02
 10
0.0
 20
0.0
 30
0.0
 70
   128
 71
   11
 72
   1
 73
   19
  0
VERTEX
  8
bacon02
 10
0.0
 20
0.0
 30
0.0
 70
   128
 71
   18
 72
   13
 73
   35
  0
VERTEX
  8
bacon02
 10
0.0
 20
0.0
 30
0.0
 70
   128
 71
   28
 72
   2
 73
   13
  0
VERTEX
  8
bacon02
 10
0.0
 20
0.0
 30
0.0
 70
   128
 71
   20
 72
   70
 73
   2
  0
VERTEX
  8
bacon02
 10
0.0
 20
0.0
 30
0.0
 70
   128
 71
   68
 72
   70
 73
   22
  0
VERTEX
  8
bacon02
 10
0.0
 20
0.0
 30
0.0
 70
   128
 71
   4
 72
   23
 73
   22
  0
VERTEX
  8
bacon02
 10
0.0
 20
0.0
 30
0.0
 70
   128
 71
   6
 72
   25
 73
   23
  0
VERTEX
  8
bacon02
 10
0.0
 20
0.0
 30
0.0
 70
   128
 71
   7
 72
   26
 73
   25
  0
VERTEX
  8
bacon02
 10
0.0
 20
0.0
 30
0.0
 70
   128
 71
   5
 72
   27
 73
   26
  0
VERTEX
  8
bacon02
 10
0.0
 20
0.0
 30
0.0
 70
   128
 71
   8
 72
   43
 73
   27
  0
VERTEX
  8
bacon02
 10
0.0
 20
0.0
 30
0.0
 70
   128
 71
   9
 72
   29
 73
   24
  0
VERTEX
  8
bacon02
 10
0.0
 20
0.0
 30
0.0
 70
   128
 71
   2
 72
   3
 73
   36
  0
VERTEX
  8
bacon02
 10
0.0
 20
0.0
 30
0.0
 70
   128
 71
   51
 72
   58
 73
   52
  0
VERTEX
  8
bacon02
 10
0.0
 20
0.0
 30
0.0
 70
   128
 71
   63
 72
   32
 73
   64
  0
VERTEX
  8
bacon02
 10
0.0
 20
0.0
 30
0.0
 70
   128
 71
   10
 72
   33
 73
   32
  0
VERTEX
  8
bacon02
 10
0.0
 20
0.0
 30
0.0
 70
   128
 71
   14
 72
   31
 73
   33
  0
VERTEX
  8
bacon02
 10
0.0
 20
0.0
 30
0.0
 70
   128
 71
   16
 72
   34
 73
   31
  0
VERTEX
  8
bacon02
 10
0.0
 20
0.0
 30
0.0
 70
   128
 71
   17
 72
   40
 73
   34
  0
VERTEX
  8
bacon02
 10
0.0
 20
0.0
 30
0.0
 70
   128
 71
   16
 72
   1
 73
   11
  0
VERTEX
  8
bacon02
 10
0.0
 20
0.0
 30
0.0
 70
   128
 71
   37
 72
   24
 73
   39
  0
VERTEX
  8
bacon02
 10
0.0
 20
0.0
 30
0.0
 70
   128
 71
   45
 72
   52
 73
   29
  0
VERTEX
  8
bacon02
 10
0.0
 20
0.0
 30
0.0
 70
   128
 71
   47
 72
   41
 73
   49
  0
VERTEX
  8
bacon02
 10
0.0
 20
0.0
 30
0.0
 70
   128
 71
   48
 72
   56
 73
   50
  0
VERTEX
  8
bacon02
 10
0.0
 20
0.0
 30
0.0
 70
   128
 71
   13
 72
   36
 73
   12
  0
VERTEX
  8
bacon02
 10
0.0
 20
0.0
 30
0.0
 70
   128
 71
   45
 72
   37
 73
   47
  0
VERTEX
  8
bacon02
 10
0.0
 20
0.0
 30
0.0
 70
   128
 71
   46
 72
   44
 73
   12
  0
VERTEX
  8
bacon02
 10
0.0
 20
0.0
 30
0.0
 70
   128
 71
   54
 72
   62
 73
   56
  0
VERTEX
  8
bacon02
 10
0.0
 20
0.0
 30
0.0
 70
   128
 71
   38
 72
   44
 73
   40
  0
VERTEX
  8
bacon02
 10
0.0
 20
0.0
 30
0.0
 70
   128
 71
   31
 72
   40
 73
   46
  0
VERTEX
  8
bacon02
 10
0.0
 20
0.0
 30
0.0
 70
   128
 71
   39
 72
   29
 73
   48
  0
VERTEX
  8
bacon02
 10
0.0
 20
0.0
 30
0.0
 70
   128
 71
   41
 72
   39
 73
   43
  0
VERTEX
  8
bacon02
 10
0.0
 20
0.0
 30
0.0
 70
   128
 71
   12
 72
   35
 73
   13
  0
VERTEX
  8
bacon02
 10
0.0
 20
0.0
 30
0.0
 70
   128
 71
   49
 72
   53
 73
   47
  0
VERTEX
  8
bacon02
 10
0.0
 20
0.0
 30
0.0
 70
   128
 71
   47
 72
   51
 73
   45
  0
VERTEX
  8
bacon02
 10
0.0
 20
0.0
 30
0.0
 70
   128
 71
   42
 72
   35
 73
   44
  0
VERTEX
  8
bacon02
 10
0.0
 20
0.0
 30
0.0
 70
   128
 71
   30
 72
   20
 73
   28
  0
VERTEX
  8
bacon02
 10
0.0
 20
0.0
 30
0.0
 70
   128
 71
   55
 72
   59
 73
   53
  0
VERTEX
  8
bacon02
 10
0.0
 20
0.0
 30
0.0
 70
   128
 71
   28
 72
   42
 73
   30
  0
VERTEX
  8
bacon02
 10
0.0
 20
0.0
 30
0.0
 70
   128
 71
   29
 72
   54
 73
   48
  0
VERTEX
  8
bacon02
 10
0.0
 20
0.0
 30
0.0
 70
   128
 71
   41
 72
   5
 73
   49
  0
VERTEX
  8
bacon02
 10
0.0
 20
0.0
 30
0.0
 70
   128
 71
   60
 72
   68
 73
   62
  0
VERTEX
  8
bacon02
 10
0.0
 20
0.0
 30
0.0
 70
   128
 71
   5
 72
   55
 73
   49
  0
VERTEX
  8
bacon02
 10
0.0
 20
0.0
 30
0.0
 70
   128
 71
   53
 72
   57
 73
   51
  0
VERTEX
  8
bacon02
 10
0.0
 20
0.0
 30
0.0
 70
   128
 71
   67
 72
   71
 73
   65
  0
VERTEX
  8
bacon02
 10
0.0
 20
0.0
 30
0.0
 70
   128
 71
   64
 72
   57
 73
   63
  0
VERTEX
  8
bacon02
 10
0.0
 20
0.0
 30
0.0
 70
   128
 71
   69
 72
   19
 73
   21
  0
VERTEX
  8
bacon02
 10
0.0
 20
0.0
 30
0.0
 70
   128
 71
   50
 72
   39
 73
   48
  0
VERTEX
  8
bacon02
 10
0.0
 20
0.0
 30
0.0
 70
   128
 71
   52
 72
   60
 73
   54
  0
VERTEX
  8
bacon02
 10
0.0
 20
0.0
 30
0.0
 70
   128
 71
   26
 72
   43
 73
   50
  0
VERTEX
  8
bacon02
 10
0.0
 20
0.0
 30
0.0
 70
   128
 71
   66
 72
   3
 73
   68
  0
VERTEX
  8
bacon02
 10
0.0
 20
0.0
 30
0.0
 70
   128
 71
   59
 72
   63
 73
   57
  0
VERTEX
  8
bacon02
 10
0.0
 20
0.0
 30
0.0
 70
   128
 71
   50
 72
   25
 73
   26
  0
VERTEX
  8
bacon02
 10
0.0
 20
0.0
 30
0.0
 70
   128
 71
   65
 72
   61
 73
   67
  0
VERTEX
  8
bacon02
 10
0.0
 20
0.0
 30
0.0
 70
   128
 71
   69
 72
   22
 73
   70
  0
VERTEX
  8
bacon02
 10
0.0
 20
0.0
 30
0.0
 70
   128
 71
   11
 72
   17
 73
   16
  0
VERTEX
  8
bacon02
 10
0.0
 20
0.0
 30
0.0
 70
   128
 71
   58
 72
   66
 73
   60
  0
VERTEX
  8
bacon02
 10
0.0
 20
0.0
 30
0.0
 70
   128
 71
   65
 72
   10
 73
   63
  0
VERTEX
  8
bacon02
 10
0.0
 20
0.0
 30
0.0
 70
   128
 71
   7
 72
   61
 73
   55
  0
VERTEX
  8
bacon02
 10
0.0
 20
0.0
 30
0.0
 70
   128
 71
   30
 72
   38
 73
   11
  0
VERTEX
  8
bacon02
 10
0.0
 20
0.0
 30
0.0
 70
   128
 71
   72
 72
   36
 73
   3
  0
VERTEX
  8
bacon02
 10
0.0
 20
0.0
 30
0.0
 70
   128
 71
   56
 72
   23
 73
   25
  0
VERTEX
  8
bacon02
 10
0.0
 20
0.0
 30
0.0
 70
   128
 71
   6
 72
   67
 73
   61
  0
VERTEX
  8
bacon02
 10
0.0
 20
0.0
 30
0.0
 70
   128
 71
   33
 72
   46
 73
   15
  0
VERTEX
  8
bacon02
 10
0.0
 20
0.0
 30
0.0
 70
   128
 71
   64
 72
   72
 73
   66
  0
VERTEX
  8
bacon02
 10
0.0
 20
0.0
 30
0.0
 70
   128
 71
   1
 72
   21
 73
   19
  0
VERTEX
  8
bacon02
 10
0.0
 20
0.0
 30
0.0
 70
   128
 71
   71
 72
   14
 73
   10
  0
VERTEX
  8
bacon02
 10
0.0
 20
0.0
 30
0.0
 70
   128
 71
   62
 72
   22
 73
   23
  0
VERTEX
  8
bacon02
 10
0.0
 20
0.0
 30
0.0
 70
   128
 71
   32
 72
   15
 73
   72
  0
VERTEX
  8
bacon02
 10
0.0
 20
0.0
 30
0.0
 70
   128
 71
   4
 72
   21
 73
   67
  0
VERTEX
  8
bacon02
 10
0.0
 20
0.0
 30
0.0
 70
   128
 71
   15
 72
   12
 73
   36
  0
VERTEX
  8
bacon02
 10
0.0
 20
0.0
 30
0.0
 70
   128
 71
   11
 72
   19
 73
   30
  0
SEQEND
  0
ENDSEC
  0
EOF
