999
FBX AutoCAD (*.DXF) exporter
  0
SECTION
  2
HEADER
  9
$ACADVER
  1
AC1008
  9
$UCSORG
 10
0.0
 20
0.0
 30
0.0
  9
$UCSXDIR
 10
1.0
 20
0.0
 30
0.0
  9
$TILEMODE
 70
   1
  9
$UCSYDIR
 10
0.0
 20
1.0
 30
0.0
  0
ENDSEC
  0
SECTION
  2
TABLES
  0
TABLE
  2
LTYPE
 70
   1
  0
LTYPE
  2
CONTINUOUS
 70
   64
  3
Solid line
 72
   65
 73
   0
 40
0.0
  0
ENDTAB
  0
TABLE
  2
LAYER
 70
   3
  0
LAYER
  2
fries_2
 70
   0
 62
   250
  6
CONTINUOUS
  0
LAYER
  2
bag
 70
   0
 62
   250
  6
CONTINUOUS
  0
ENDTAB
  0
ENDSEC
  0
SECTION
  2
BLOCKS
  0
ENDSEC
  0
SECTION
  2
ENTITIES
  0
POLYLINE
  8
fries_2
 66
   1
 10
0.0
 20
0.0
 30
0.0
 70
   64
 71
   160
 72
   280
  0
VERTEX
  8
fries_2
 10
-20.670177
 20
38.893712
 30
-11.293626
 70
   192
  0
VERTEX
  8
fries_2
 10
-44.196242
 20
175.238038
 30
-45.430039
 70
   192
  0
VERTEX
  8
fries_2
 10
-34.277248
 20
38.485080
 30
-10.755237
 70
   192
  0
VERTEX
  8
fries_2
 10
-60.080277
 20
173.715489
 30
-44.747266
 70
   192
  0
VERTEX
  8
fries_2
 10
-33.994559
 20
39.545331
 30
1.525845
 70
   192
  0
VERTEX
  8
fries_2
 10
-59.816536
 20
176.207447
 30
-32.254364
 70
   192
  0
VERTEX
  8
fries_2
 10
-18.985964
 20
40.124336
 30
1.087424
 70
   192
  0
VERTEX
  8
fries_2
 10
-44.043668
 20
177.689114
 30
-32.934307
 70
   192
  0
VERTEX
  8
fries_2
 10
-29.534737
 20
135.080528
 30
-30.431306
 70
   192
  0
VERTEX
  8
fries_2
 10
-45.205860
 20
133.602844
 30
-29.495141
 70
   192
  0
VERTEX
  8
fries_2
 10
-44.913685
 20
136.060814
 30
-17.098653
 70
   192
  0
VERTEX
  8
fries_2
 10
-29.052979
 20
137.531270
 30
-17.979660
 70
   192
  0
VERTEX
  8
fries_2
 10
-23.974059
 20
74.865118
 30
-18.456504
 70
   192
  0
VERTEX
  8
fries_2
 10
-38.281065
 20
74.042477
 30
-17.625566
 70
   192
  0
VERTEX
  8
fries_2
 10
-38.449241
 20
76.059671
 30
-5.188547
 70
   192
  0
VERTEX
  8
fries_2
 10
-22.794422
 20
77.178095
 30
-6.130814
 70
   192
  0
VERTEX
  8
fries_2
 10
22.775270
 20
38.479138
 30
-10.080221
 70
   192
  0
VERTEX
  8
fries_2
 10
42.703557
 20
175.213758
 30
-12.432865
 70
   192
  0
VERTEX
  8
fries_2
 10
22.666046
 20
38.536701
 30
8.073413
 70
   192
  0
VERTEX
  8
fries_2
 10
43.851958
 20
175.433219
 30
7.344305
 70
   192
  0
VERTEX
  8
fries_2
 10
30.854505
 20
38.388009
 30
8.370972
 70
   192
  0
VERTEX
  8
fries_2
 10
54.802891
 20
174.687174
 30
6.752112
 70
   192
  0
VERTEX
  8
fries_2
 10
30.834993
 20
38.479515
 30
-10.254555
 70
   192
  0
VERTEX
  8
fries_2
 10
53.648388
 20
174.462792
 30
-13.066809
 70
   192
  0
VERTEX
  8
fries_2
 10
27.597638
 20
132.485629
 30
-11.816056
 70
   192
  0
VERTEX
  8
fries_2
 10
28.426444
 20
132.716075
 30
8.018393
 70
   192
  0
VERTEX
  8
fries_2
 10
39.347981
 20
131.959304
 30
7.551426
 70
   192
  0
VERTEX
  8
fries_2
 10
38.527240
 20
131.751008
 30
-12.202877
 70
   192
  0
VERTEX
  8
fries_2
 10
23.797330
 20
74.202765
 30
-10.860471
 70
   192
  0
VERTEX
  8
fries_2
 10
24.509016
 20
74.308504
 30
8.201566
 70
   192
  0
VERTEX
  8
fries_2
 10
34.951298
 20
73.638570
 30
8.514198
 70
   192
  0
VERTEX
  8
fries_2
 10
34.427541
 20
73.639963
 30
-11.034650
 70
   192
  0
VERTEX
  8
fries_2
 10
-13.221948
 20
38.425991
 30
8.003857
 70
   192
  0
VERTEX
  8
fries_2
 10
-18.318968
 20
166.881614
 30
0.987737
 70
   192
  0
VERTEX
  8
fries_2
 10
4.236897
 20
38.704256
 30
7.204331
 70
   192
  0
VERTEX
  8
fries_2
 10
-0.561009
 20
167.096749
 30
0.080486
 70
   192
  0
VERTEX
  8
fries_2
 10
4.042639
 20
38.488417
 30
-8.009353
 70
   192
  0
VERTEX
  8
fries_2
 10
-1.371098
 20
166.088139
 30
-16.023034
 70
   192
  0
VERTEX
  8
fries_2
 10
-14.192651
 20
38.369569
 30
-7.293316
 70
   192
  0
VERTEX
  8
fries_2
 10
-19.145407
 20
165.881778
 30
-15.140452
 70
   192
  0
VERTEX
  8
fries_2
 10
-17.713852
 20
125.227042
 30
3.566118
 70
   192
  0
VERTEX
  8
fries_2
 10
0.070162
 20
125.425799
 30
2.658398
 70
   192
  0
VERTEX
  8
fries_2
 10
-0.922128
 20
124.464763
 30
-13.502283
 70
   192
  0
VERTEX
  8
fries_2
 10
-18.747189
 20
124.227823
 30
-12.581744
 70
   192
  0
VERTEX
  8
fries_2
 10
-14.720106
 20
71.218585
 30
6.614256
 70
   192
  0
VERTEX
  8
fries_2
 10
4.694037
 20
71.315940
 30
5.658437
 70
   192
  0
VERTEX
  8
fries_2
 10
4.189643
 20
70.644446
 30
-10.094482
 70
   192
  0
VERTEX
  8
fries_2
 10
-15.676481
 20
70.394033
 30
-9.313734
 70
   192
  0
VERTEX
  8
fries_2
 10
20.385313
 20
38.407032
 30
-7.362833
 70
   192
  0
VERTEX
  8
fries_2
 10
32.438810
 20
167.295133
 30
-7.459913
 70
   192
  0
VERTEX
  8
fries_2
 10
6.493077
 20
38.471189
 30
-6.869592
 70
   192
  0
VERTEX
  8
fries_2
 10
17.825656
 20
167.717486
 30
-7.996124
 70
   192
  0
VERTEX
  8
fries_2
 10
6.706325
 20
38.873176
 30
5.787971
 70
   192
  0
VERTEX
  8
fries_2
 10
17.404418
 20
167.480121
 30
3.683314
 70
   192
  0
VERTEX
  8
fries_2
 10
20.184801
 20
38.473893
 30
5.417912
 70
   192
  0
VERTEX
  8
fries_2
 10
31.972483
 20
167.017077
 30
4.153290
 70
   192
  0
VERTEX
  8
fries_2
 10
31.070456
 20
125.352512
 30
-8.522751
 70
   192
  0
VERTEX
  8
fries_2
 10
16.494168
 20
125.830734
 30
-8.840468
 70
   192
  0
VERTEX
  8
fries_2
 10
16.198105
 20
125.514699
 30
2.776843
 70
   192
  0
VERTEX
  8
fries_2
 10
30.812529
 20
125.122549
 30
3.107007
 70
   192
  0
VERTEX
  8
fries_2
 10
21.235209
 20
70.810149
 30
-9.238387
 70
   192
  0
VERTEX
  8
fries_2
 10
6.839923
 20
70.943499
 30
-9.093829
 70
   192
  0
VERTEX
  8
fries_2
 10
7.105224
 20
71.574600
 30
3.667953
 70
   192
  0
VERTEX
  8
fries_2
 10
21.351034
 20
71.447431
 30
3.482612
 70
   192
  0
VERTEX
  8
fries_2
 10
-8.429921
 20
38.494271
 30
-21.712614
 70
   192
  0
VERTEX
  8
fries_2
 10
-12.680527
 20
191.206889
 30
-37.739667
 70
   192
  0
VERTEX
  8
fries_2
 10
-19.899995
 20
38.534380
 30
-21.654409
 70
   192
  0
VERTEX
  8
fries_2
 10
-27.405562
 20
190.647529
 30
-37.422441
 70
   192
  0
VERTEX
  8
fries_2
 10
-17.911701
 20
38.687519
 30
-9.691182
 70
   192
  0
VERTEX
  8
fries_2
 10
-27.188337
 20
192.789131
 30
-24.889480
 70
   192
  0
VERTEX
  8
fries_2
 10
-7.729843
 20
38.355263
 30
-9.958564
 70
   192
  0
VERTEX
  8
fries_2
 10
-12.639184
 20
193.341772
 30
-25.273757
 70
   192
  0
VERTEX
  8
fries_2
 10
-10.728150
 20
141.744360
 30
-29.299597
 70
   192
  0
VERTEX
  8
fries_2
 10
-25.323375
 20
141.164861
 30
-28.875544
 70
   192
  0
VERTEX
  8
fries_2
 10
-24.838866
 20
143.302405
 30
-16.301067
 70
   192
  0
VERTEX
  8
fries_2
 10
-10.293381
 20
143.916116
 30
-16.844539
 70
   192
  0
VERTEX
  8
fries_2
 10
-8.794801
 20
77.229169
 30
-24.628749
 70
   192
  0
VERTEX
  8
fries_2
 10
-22.131127
 20
76.882667
 30
-24.489776
 70
   192
  0
VERTEX
  8
fries_2
 10
-20.729055
 20
77.700325
 30
-11.989078
 70
   192
  0
VERTEX
  8
fries_2
 10
-8.418163
 20
78.047314
 30
-12.503333
 70
   192
  0
VERTEX
  8
fries_2
 10
11.184469
 20
38.394852
 30
-21.714595
 70
   192
  0
VERTEX
  8
fries_2
 10
12.893780
 20
191.189811
 30
-31.742971
 70
   192
  0
VERTEX
  8
fries_2
 10
-5.632996
 20
38.479722
 30
-21.746188
 70
   192
  0
VERTEX
  8
fries_2
 10
-6.068188
 20
196.963449
 30
-32.841425
 70
   192
  0
VERTEX
  8
fries_2
 10
-5.211343
 20
38.072132
 30
-10.235128
 70
   192
  0
VERTEX
  8
fries_2
 10
-6.514133
 20
197.834689
 30
-21.153007
 70
   192
  0
VERTEX
  8
fries_2
 10
11.501593
 20
38.501134
 30
-10.610302
 70
   192
  0
VERTEX
  8
fries_2
 10
12.527816
 20
192.015076
 30
-20.044347
 70
   192
  0
VERTEX
  8
fries_2
 10
15.672238
 20
140.519223
 30
-28.731821
 70
   192
  0
VERTEX
  8
fries_2
 10
-3.237088
 20
146.291947
 30
-29.478978
 70
   192
  0
VERTEX
  8
fries_2
 10
-3.447241
 20
147.104049
 30
-17.791449
 70
   192
  0
VERTEX
  8
fries_2
 10
15.421963
 20
141.318386
 30
-17.019943
 70
   192
  0
VERTEX
  8
fries_2
 10
13.117631
 20
80.578516
 30
-24.892704
 70
   192
  0
VERTEX
  8
fries_2
 10
-6.011921
 20
80.857629
 30
-24.922675
 70
   192
  0
VERTEX
  8
fries_2
 10
-5.917509
 20
80.985447
 30
-13.259210
 70
   192
  0
VERTEX
  8
fries_2
 10
13.097358
 20
81.140288
 30
-13.321916
 70
   192
  0
VERTEX
  8
fries_2
 10
30.788351
 20
38.481176
 30
10.929553
 70
   192
  0
VERTEX
  8
fries_2
 10
49.516373
 20
160.708623
 30
21.784603
 70
   192
  0
VERTEX
  8
fries_2
 10
11.027398
 20
39.263763
 30
9.915521
 70
   192
  0
VERTEX
  8
fries_2
 10
29.666603
 20
162.097866
 30
21.771555
 70
   192
  0
VERTEX
  8
fries_2
 10
11.246281
 20
38.563325
 30
19.318555
 70
   192
  0
VERTEX
  8
fries_2
 10
29.600003
 20
161.504292
 30
33.543619
 70
   192
  0
VERTEX
  8
fries_2
 10
30.778459
 20
38.443419
 30
19.314173
 70
   192
  0
VERTEX
  8
fries_2
 10
49.368957
 20
160.151463
 30
33.535174
 70
   192
  0
VERTEX
  8
fries_2
 10
41.713473
 20
121.032132
 30
13.414490
 70
   192
  0
VERTEX
  8
fries_2
 10
21.987560
 20
122.346850
 30
13.116959
 70
   192
  0
VERTEX
  8
fries_2
 10
21.809864
 20
121.796005
 30
24.902278
 70
   192
  0
VERTEX
  8
fries_2
 10
41.517394
 20
120.448127
 30
25.168831
 70
   192
  0
VERTEX
  8
fries_2
 10
33.246840
 20
69.860127
 30
11.054291
 70
   192
  0
VERTEX
  8
fries_2
 10
13.386713
 20
70.741998
 30
10.752637
 70
   192
  0
VERTEX
  8
fries_2
 10
13.334708
 20
70.057916
 30
21.994651
 70
   192
  0
VERTEX
  8
fries_2
 10
33.123864
 20
69.449928
 30
21.721726
 70
   192
  0
VERTEX
  8
fries_2
 10
30.727246
 20
38.501717
 30
-21.716346
 70
   192
  0
VERTEX
  8
fries_2
 10
36.179116
 20
190.937058
 30
-30.597897
 70
   192
  0
VERTEX
  8
fries_2
 10
13.805219
 20
38.738352
 30
-21.733561
 70
   192
  0
VERTEX
  8
fries_2
 10
16.287612
 20
192.207268
 30
-30.216831
 70
   192
  0
VERTEX
  8
fries_2
 10
13.815956
 20
38.527537
 30
-12.351304
 70
   192
  0
VERTEX
  8
fries_2
 10
16.549440
 20
192.759271
 30
-18.431143
 70
   192
  0
VERTEX
  8
fries_2
 10
30.994031
 20
38.838954
 30
-12.727597
 70
   192
  0
VERTEX
  8
fries_2
 10
36.278782
 20
191.554817
 30
-18.836352
 70
   192
  0
VERTEX
  8
fries_2
 10
39.336842
 20
141.283627
 30
-27.977043
 70
   192
  0
VERTEX
  8
fries_2
 10
19.596373
 20
142.441878
 30
-27.844163
 70
   192
  0
VERTEX
  8
fries_2
 10
19.702019
 20
143.006824
 30
-16.158900
 70
   192
  0
VERTEX
  8
fries_2
 10
39.529855
 20
141.800118
 30
-16.217833
 70
   192
  0
VERTEX
  8
fries_2
 10
35.151663
 20
77.112802
 30
-24.597385
 70
   192
  0
VERTEX
  8
fries_2
 10
15.584669
 20
77.925382
 30
-24.412696
 70
   192
  0
VERTEX
  8
fries_2
 10
15.617300
 20
78.184363
 30
-13.253948
 70
   192
  0
VERTEX
  8
fries_2
 10
35.263040
 20
77.662907
 30
-13.569124
 70
   192
  0
VERTEX
  8
fries_2
 10
-15.860593
 20
38.490236
 30
3.491169
 70
   192
  0
VERTEX
  8
fries_2
 10
-34.791762
 20
150.304720
 30
7.819853
 70
   192
  0
VERTEX
  8
fries_2
 10
-34.252619
 20
38.514677
 30
3.971603
 70
   192
  0
VERTEX
  8
fries_2
 10
-54.498790
 20
149.143784
 30
9.286533
 70
   192
  0
VERTEX
  8
fries_2
 10
-34.113264
 20
38.510968
 30
19.354157
 70
   192
  0
VERTEX
  8
fries_2
 10
-53.526261
 20
149.360587
 30
21.526025
 70
   192
  0
VERTEX
  8
fries_2
 10
-14.996581
 20
38.491431
 30
19.175466
 70
   192
  0
VERTEX
  8
fries_2
 10
-33.820501
 20
150.571978
 30
20.105834
 70
   192
  0
VERTEX
  8
fries_2
 10
-22.684937
 20
114.369528
 30
3.910327
 70
   192
  0
VERTEX
  8
fries_2
 10
-42.502442
 20
113.200145
 30
5.112558
 70
   192
  0
VERTEX
  8
fries_2
 10
-41.465362
 20
113.441116
 30
21.287311
 70
   192
  0
VERTEX
  8
fries_2
 10
-21.678065
 20
114.657901
 30
20.041242
 70
   192
  0
VERTEX
  8
fries_2
 10
-17.274195
 20
67.012139
 30
2.591604
 70
   192
  0
VERTEX
  8
fries_2
 10
-36.709066
 20
66.049230
 30
3.395078
 70
   192
  0
VERTEX
  8
fries_2
 10
-36.326316
 20
66.326841
 30
19.440287
 70
   192
  0
VERTEX
  8
fries_2
 10
-16.337252
 20
67.418599
 30
18.841963
 70
   192
  0
VERTEX
  8
fries_2
 10
8.661847
 20
38.429912
 30
9.651851
 70
   192
  0
VERTEX
  8
fries_2
 10
2.280604
 20
153.197587
 30
6.332035
 70
   192
  0
VERTEX
  8
fries_2
 10
-11.111681
 20
38.447664
 30
10.350355
 70
   192
  0
VERTEX
  8
fries_2
 10
-17.355351
 20
153.314706
 30
8.606942
 70
   192
  0
VERTEX
  8
fries_2
 10
-11.008379
 20
38.479554
 30
19.343544
 70
   192
  0
VERTEX
  8
fries_2
 10
-16.079630
 20
153.515653
 30
15.951982
 70
   192
  0
VERTEX
  8
fries_2
 10
8.846394
 20
38.449522
 30
19.310553
 70
   192
  0
VERTEX
  8
fries_2
 10
3.600595
 20
153.447000
 30
13.702128
 70
   192
  0
VERTEX
  8
fries_2
 10
5.393620
 20
115.927760
 30
7.147304
 70
   192
  0
VERTEX
  8
fries_2
 10
-14.389724
 20
116.022611
 30
8.829608
 70
   192
  0
VERTEX
  8
fries_2
 10
-13.323502
 20
116.202630
 30
20.650587
 70
   192
  0
VERTEX
  8
fries_2
 10
6.383312
 20
116.119664
 30
18.952965
 70
   192
  0
VERTEX
  8
fries_2
 10
8.340162
 20
67.681921
 30
8.210753
 70
   192
  0
VERTEX
  8
fries_2
 10
-11.438159
 20
67.891726
 30
9.691911
 70
   192
  0
VERTEX
  8
fries_2
 10
-10.869004
 20
67.878105
 30
20.797894
 70
   192
  0
VERTEX
  8
fries_2
 10
8.960840
 20
67.786488
 30
19.816199
 70
   192
  0
VERTEX
  8
fries_2
 10
0.0
 20
0.0
 30
0.0
 70
   128
 71
   1
 72
   13
 73
   14
  0
VERTEX
  8
fries_2
 10
0.0
 20
0.0
 30
0.0
 70
   128
 71
   3
 72
   14
 73
   15
  0
VERTEX
  8
fries_2
 10
0.0
 20
0.0
 30
0.0
 70
   128
 71
   5
 72
   15
 73
   16
  0
VERTEX
  8
fries_2
 10
0.0
 20
0.0
 30
0.0
 70
   128
 71
   12
 72
   8
 73
   2
  0
VERTEX
  8
fries_2
 10
0.0
 20
0.0
 30
0.0
 70
   128
 71
   2
 72
   8
 73
   6
  0
VERTEX
  8
fries_2
 10
0.0
 20
0.0
 30
0.0
 70
   128
 71
   7
 72
   1
 73
   3
  0
VERTEX
  8
fries_2
 10
0.0
 20
0.0
 30
0.0
 70
   128
 71
   9
 72
   2
 73
   4
  0
VERTEX
  8
fries_2
 10
0.0
 20
0.0
 30
0.0
 70
   128
 71
   10
 72
   4
 73
   6
  0
VERTEX
  8
fries_2
 10
0.0
 20
0.0
 30
0.0
 70
   128
 71
   11
 72
   6
 73
   8
  0
VERTEX
  8
fries_2
 10
0.0
 20
0.0
 30
0.0
 70
   128
 71
   9
 72
   13
 73
   16
  0
VERTEX
  8
fries_2
 10
0.0
 20
0.0
 30
0.0
 70
   128
 71
   13
 72
   9
 73
   10
  0
VERTEX
  8
fries_2
 10
0.0
 20
0.0
 30
0.0
 70
   128
 71
   14
 72
   10
 73
   11
  0
VERTEX
  8
fries_2
 10
0.0
 20
0.0
 30
0.0
 70
   128
 71
   15
 72
   11
 73
   12
  0
VERTEX
  8
fries_2
 10
0.0
 20
0.0
 30
0.0
 70
   128
 71
   13
 72
   1
 73
   7
  0
VERTEX
  8
fries_2
 10
0.0
 20
0.0
 30
0.0
 70
   128
 71
   17
 72
   29
 73
   30
  0
VERTEX
  8
fries_2
 10
0.0
 20
0.0
 30
0.0
 70
   128
 71
   19
 72
   30
 73
   31
  0
VERTEX
  8
fries_2
 10
0.0
 20
0.0
 30
0.0
 70
   128
 71
   21
 72
   31
 73
   32
  0
VERTEX
  8
fries_2
 10
0.0
 20
0.0
 30
0.0
 70
   128
 71
   28
 72
   24
 73
   18
  0
VERTEX
  8
fries_2
 10
0.0
 20
0.0
 30
0.0
 70
   128
 71
   18
 72
   24
 73
   22
  0
VERTEX
  8
fries_2
 10
0.0
 20
0.0
 30
0.0
 70
   128
 71
   23
 72
   17
 73
   19
  0
VERTEX
  8
fries_2
 10
0.0
 20
0.0
 30
0.0
 70
   128
 71
   25
 72
   18
 73
   20
  0
VERTEX
  8
fries_2
 10
0.0
 20
0.0
 30
0.0
 70
   128
 71
   26
 72
   20
 73
   22
  0
VERTEX
  8
fries_2
 10
0.0
 20
0.0
 30
0.0
 70
   128
 71
   27
 72
   22
 73
   24
  0
VERTEX
  8
fries_2
 10
0.0
 20
0.0
 30
0.0
 70
   128
 71
   25
 72
   29
 73
   32
  0
VERTEX
  8
fries_2
 10
0.0
 20
0.0
 30
0.0
 70
   128
 71
   29
 72
   25
 73
   26
  0
VERTEX
  8
fries_2
 10
0.0
 20
0.0
 30
0.0
 70
   128
 71
   30
 72
   26
 73
   27
  0
VERTEX
  8
fries_2
 10
0.0
 20
0.0
 30
0.0
 70
   128
 71
   31
 72
   27
 73
   28
  0
VERTEX
  8
fries_2
 10
0.0
 20
0.0
 30
0.0
 70
   128
 71
   29
 72
   17
 73
   23
  0
VERTEX
  8
fries_2
 10
0.0
 20
0.0
 30
0.0
 70
   128
 71
   33
 72
   45
 73
   46
  0
VERTEX
  8
fries_2
 10
0.0
 20
0.0
 30
0.0
 70
   128
 71
   35
 72
   46
 73
   47
  0
VERTEX
  8
fries_2
 10
0.0
 20
0.0
 30
0.0
 70
   128
 71
   37
 72
   47
 73
   48
  0
VERTEX
  8
fries_2
 10
0.0
 20
0.0
 30
0.0
 70
   128
 71
   44
 72
   40
 73
   34
  0
VERTEX
  8
fries_2
 10
0.0
 20
0.0
 30
0.0
 70
   128
 71
   34
 72
   40
 73
   38
  0
VERTEX
  8
fries_2
 10
0.0
 20
0.0
 30
0.0
 70
   128
 71
   39
 72
   33
 73
   35
  0
VERTEX
  8
fries_2
 10
0.0
 20
0.0
 30
0.0
 70
   128
 71
   41
 72
   34
 73
   36
  0
VERTEX
  8
fries_2
 10
0.0
 20
0.0
 30
0.0
 70
   128
 71
   42
 72
   36
 73
   38
  0
VERTEX
  8
fries_2
 10
0.0
 20
0.0
 30
0.0
 70
   128
 71
   43
 72
   38
 73
   40
  0
VERTEX
  8
fries_2
 10
0.0
 20
0.0
 30
0.0
 70
   128
 71
   41
 72
   45
 73
   48
  0
VERTEX
  8
fries_2
 10
0.0
 20
0.0
 30
0.0
 70
   128
 71
   45
 72
   41
 73
   42
  0
VERTEX
  8
fries_2
 10
0.0
 20
0.0
 30
0.0
 70
   128
 71
   46
 72
   42
 73
   43
  0
VERTEX
  8
fries_2
 10
0.0
 20
0.0
 30
0.0
 70
   128
 71
   47
 72
   43
 73
   44
  0
VERTEX
  8
fries_2
 10
0.0
 20
0.0
 30
0.0
 70
   128
 71
   45
 72
   33
 73
   39
  0
VERTEX
  8
fries_2
 10
0.0
 20
0.0
 30
0.0
 70
   128
 71
   49
 72
   61
 73
   62
  0
VERTEX
  8
fries_2
 10
0.0
 20
0.0
 30
0.0
 70
   128
 71
   51
 72
   62
 73
   63
  0
VERTEX
  8
fries_2
 10
0.0
 20
0.0
 30
0.0
 70
   128
 71
   53
 72
   63
 73
   64
  0
VERTEX
  8
fries_2
 10
0.0
 20
0.0
 30
0.0
 70
   128
 71
   60
 72
   56
 73
   50
  0
VERTEX
  8
fries_2
 10
0.0
 20
0.0
 30
0.0
 70
   128
 71
   50
 72
   56
 73
   54
  0
VERTEX
  8
fries_2
 10
0.0
 20
0.0
 30
0.0
 70
   128
 71
   55
 72
   49
 73
   51
  0
VERTEX
  8
fries_2
 10
0.0
 20
0.0
 30
0.0
 70
   128
 71
   57
 72
   50
 73
   52
  0
VERTEX
  8
fries_2
 10
0.0
 20
0.0
 30
0.0
 70
   128
 71
   58
 72
   52
 73
   54
  0
VERTEX
  8
fries_2
 10
0.0
 20
0.0
 30
0.0
 70
   128
 71
   59
 72
   54
 73
   56
  0
VERTEX
  8
fries_2
 10
0.0
 20
0.0
 30
0.0
 70
   128
 71
   57
 72
   61
 73
   64
  0
VERTEX
  8
fries_2
 10
0.0
 20
0.0
 30
0.0
 70
   128
 71
   61
 72
   57
 73
   58
  0
VERTEX
  8
fries_2
 10
0.0
 20
0.0
 30
0.0
 70
   128
 71
   62
 72
   58
 73
   59
  0
VERTEX
  8
fries_2
 10
0.0
 20
0.0
 30
0.0
 70
   128
 71
   63
 72
   59
 73
   60
  0
VERTEX
  8
fries_2
 10
0.0
 20
0.0
 30
0.0
 70
   128
 71
   61
 72
   49
 73
   55
  0
VERTEX
  8
fries_2
 10
0.0
 20
0.0
 30
0.0
 70
   128
 71
   65
 72
   77
 73
   78
  0
VERTEX
  8
fries_2
 10
0.0
 20
0.0
 30
0.0
 70
   128
 71
   67
 72
   78
 73
   79
  0
VERTEX
  8
fries_2
 10
0.0
 20
0.0
 30
0.0
 70
   128
 71
   69
 72
   79
 73
   80
  0
VERTEX
  8
fries_2
 10
0.0
 20
0.0
 30
0.0
 70
   128
 71
   76
 72
   72
 73
   66
  0
VERTEX
  8
fries_2
 10
0.0
 20
0.0
 30
0.0
 70
   128
 71
   66
 72
   72
 73
   70
  0
VERTEX
  8
fries_2
 10
0.0
 20
0.0
 30
0.0
 70
   128
 71
   71
 72
   65
 73
   67
  0
VERTEX
  8
fries_2
 10
0.0
 20
0.0
 30
0.0
 70
   128
 71
   73
 72
   66
 73
   68
  0
VERTEX
  8
fries_2
 10
0.0
 20
0.0
 30
0.0
 70
   128
 71
   74
 72
   68
 73
   70
  0
VERTEX
  8
fries_2
 10
0.0
 20
0.0
 30
0.0
 70
   128
 71
   75
 72
   70
 73
   72
  0
VERTEX
  8
fries_2
 10
0.0
 20
0.0
 30
0.0
 70
   128
 71
   73
 72
   77
 73
   80
  0
VERTEX
  8
fries_2
 10
0.0
 20
0.0
 30
0.0
 70
   128
 71
   77
 72
   73
 73
   74
  0
VERTEX
  8
fries_2
 10
0.0
 20
0.0
 30
0.0
 70
   128
 71
   78
 72
   74
 73
   75
  0
VERTEX
  8
fries_2
 10
0.0
 20
0.0
 30
0.0
 70
   128
 71
   79
 72
   75
 73
   76
  0
VERTEX
  8
fries_2
 10
0.0
 20
0.0
 30
0.0
 70
   128
 71
   77
 72
   65
 73
   71
  0
VERTEX
  8
fries_2
 10
0.0
 20
0.0
 30
0.0
 70
   128
 71
   81
 72
   93
 73
   94
  0
VERTEX
  8
fries_2
 10
0.0
 20
0.0
 30
0.0
 70
   128
 71
   83
 72
   94
 73
   95
  0
VERTEX
  8
fries_2
 10
0.0
 20
0.0
 30
0.0
 70
   128
 71
   85
 72
   95
 73
   96
  0
VERTEX
  8
fries_2
 10
0.0
 20
0.0
 30
0.0
 70
   128
 71
   92
 72
   88
 73
   82
  0
VERTEX
  8
fries_2
 10
0.0
 20
0.0
 30
0.0
 70
   128
 71
   82
 72
   88
 73
   86
  0
VERTEX
  8
fries_2
 10
0.0
 20
0.0
 30
0.0
 70
   128
 71
   87
 72
   81
 73
   83
  0
VERTEX
  8
fries_2
 10
0.0
 20
0.0
 30
0.0
 70
   128
 71
   89
 72
   82
 73
   84
  0
VERTEX
  8
fries_2
 10
0.0
 20
0.0
 30
0.0
 70
   128
 71
   90
 72
   84
 73
   86
  0
VERTEX
  8
fries_2
 10
0.0
 20
0.0
 30
0.0
 70
   128
 71
   91
 72
   86
 73
   88
  0
VERTEX
  8
fries_2
 10
0.0
 20
0.0
 30
0.0
 70
   128
 71
   89
 72
   93
 73
   96
  0
VERTEX
  8
fries_2
 10
0.0
 20
0.0
 30
0.0
 70
   128
 71
   93
 72
   89
 73
   90
  0
VERTEX
  8
fries_2
 10
0.0
 20
0.0
 30
0.0
 70
   128
 71
   94
 72
   90
 73
   91
  0
VERTEX
  8
fries_2
 10
0.0
 20
0.0
 30
0.0
 70
   128
 71
   95
 72
   91
 73
   92
  0
VERTEX
  8
fries_2
 10
0.0
 20
0.0
 30
0.0
 70
   128
 71
   93
 72
   81
 73
   87
  0
VERTEX
  8
fries_2
 10
0.0
 20
0.0
 30
0.0
 70
   128
 71
   97
 72
   109
 73
   110
  0
VERTEX
  8
fries_2
 10
0.0
 20
0.0
 30
0.0
 70
   128
 71
   99
 72
   110
 73
   111
  0
VERTEX
  8
fries_2
 10
0.0
 20
0.0
 30
0.0
 70
   128
 71
   101
 72
   111
 73
   112
  0
VERTEX
  8
fries_2
 10
0.0
 20
0.0
 30
0.0
 70
   128
 71
   108
 72
   104
 73
   98
  0
VERTEX
  8
fries_2
 10
0.0
 20
0.0
 30
0.0
 70
   128
 71
   98
 72
   104
 73
   102
  0
VERTEX
  8
fries_2
 10
0.0
 20
0.0
 30
0.0
 70
   128
 71
   103
 72
   97
 73
   99
  0
VERTEX
  8
fries_2
 10
0.0
 20
0.0
 30
0.0
 70
   128
 71
   105
 72
   98
 73
   100
  0
VERTEX
  8
fries_2
 10
0.0
 20
0.0
 30
0.0
 70
   128
 71
   106
 72
   100
 73
   102
  0
VERTEX
  8
fries_2
 10
0.0
 20
0.0
 30
0.0
 70
   128
 71
   107
 72
   102
 73
   104
  0
VERTEX
  8
fries_2
 10
0.0
 20
0.0
 30
0.0
 70
   128
 71
   105
 72
   109
 73
   112
  0
VERTEX
  8
fries_2
 10
0.0
 20
0.0
 30
0.0
 70
   128
 71
   109
 72
   105
 73
   106
  0
VERTEX
  8
fries_2
 10
0.0
 20
0.0
 30
0.0
 70
   128
 71
   110
 72
   106
 73
   107
  0
VERTEX
  8
fries_2
 10
0.0
 20
0.0
 30
0.0
 70
   128
 71
   111
 72
   107
 73
   108
  0
VERTEX
  8
fries_2
 10
0.0
 20
0.0
 30
0.0
 70
   128
 71
   109
 72
   97
 73
   103
  0
VERTEX
  8
fries_2
 10
0.0
 20
0.0
 30
0.0
 70
   128
 71
   113
 72
   125
 73
   126
  0
VERTEX
  8
fries_2
 10
0.0
 20
0.0
 30
0.0
 70
   128
 71
   115
 72
   126
 73
   127
  0
VERTEX
  8
fries_2
 10
0.0
 20
0.0
 30
0.0
 70
   128
 71
   117
 72
   127
 73
   128
  0
VERTEX
  8
fries_2
 10
0.0
 20
0.0
 30
0.0
 70
   128
 71
   124
 72
   120
 73
   114
  0
VERTEX
  8
fries_2
 10
0.0
 20
0.0
 30
0.0
 70
   128
 71
   114
 72
   120
 73
   118
  0
VERTEX
  8
fries_2
 10
0.0
 20
0.0
 30
0.0
 70
   128
 71
   119
 72
   113
 73
   115
  0
VERTEX
  8
fries_2
 10
0.0
 20
0.0
 30
0.0
 70
   128
 71
   121
 72
   114
 73
   116
  0
VERTEX
  8
fries_2
 10
0.0
 20
0.0
 30
0.0
 70
   128
 71
   122
 72
   116
 73
   118
  0
VERTEX
  8
fries_2
 10
0.0
 20
0.0
 30
0.0
 70
   128
 71
   123
 72
   118
 73
   120
  0
VERTEX
  8
fries_2
 10
0.0
 20
0.0
 30
0.0
 70
   128
 71
   121
 72
   125
 73
   128
  0
VERTEX
  8
fries_2
 10
0.0
 20
0.0
 30
0.0
 70
   128
 71
   125
 72
   121
 73
   122
  0
VERTEX
  8
fries_2
 10
0.0
 20
0.0
 30
0.0
 70
   128
 71
   126
 72
   122
 73
   123
  0
VERTEX
  8
fries_2
 10
0.0
 20
0.0
 30
0.0
 70
   128
 71
   127
 72
   123
 73
   124
  0
VERTEX
  8
fries_2
 10
0.0
 20
0.0
 30
0.0
 70
   128
 71
   125
 72
   113
 73
   119
  0
VERTEX
  8
fries_2
 10
0.0
 20
0.0
 30
0.0
 70
   128
 71
   129
 72
   141
 73
   142
  0
VERTEX
  8
fries_2
 10
0.0
 20
0.0
 30
0.0
 70
   128
 71
   131
 72
   142
 73
   143
  0
VERTEX
  8
fries_2
 10
0.0
 20
0.0
 30
0.0
 70
   128
 71
   133
 72
   143
 73
   144
  0
VERTEX
  8
fries_2
 10
0.0
 20
0.0
 30
0.0
 70
   128
 71
   140
 72
   136
 73
   130
  0
VERTEX
  8
fries_2
 10
0.0
 20
0.0
 30
0.0
 70
   128
 71
   130
 72
   136
 73
   134
  0
VERTEX
  8
fries_2
 10
0.0
 20
0.0
 30
0.0
 70
   128
 71
   135
 72
   129
 73
   131
  0
VERTEX
  8
fries_2
 10
0.0
 20
0.0
 30
0.0
 70
   128
 71
   137
 72
   130
 73
   132
  0
VERTEX
  8
fries_2
 10
0.0
 20
0.0
 30
0.0
 70
   128
 71
   138
 72
   132
 73
   134
  0
VERTEX
  8
fries_2
 10
0.0
 20
0.0
 30
0.0
 70
   128
 71
   139
 72
   134
 73
   136
  0
VERTEX
  8
fries_2
 10
0.0
 20
0.0
 30
0.0
 70
   128
 71
   137
 72
   141
 73
   144
  0
VERTEX
  8
fries_2
 10
0.0
 20
0.0
 30
0.0
 70
   128
 71
   141
 72
   137
 73
   138
  0
VERTEX
  8
fries_2
 10
0.0
 20
0.0
 30
0.0
 70
   128
 71
   142
 72
   138
 73
   139
  0
VERTEX
  8
fries_2
 10
0.0
 20
0.0
 30
0.0
 70
   128
 71
   143
 72
   139
 73
   140
  0
VERTEX
  8
fries_2
 10
0.0
 20
0.0
 30
0.0
 70
   128
 71
   141
 72
   129
 73
   135
  0
VERTEX
  8
fries_2
 10
0.0
 20
0.0
 30
0.0
 70
   128
 71
   145
 72
   157
 73
   158
  0
VERTEX
  8
fries_2
 10
0.0
 20
0.0
 30
0.0
 70
   128
 71
   147
 72
   158
 73
   159
  0
VERTEX
  8
fries_2
 10
0.0
 20
0.0
 30
0.0
 70
   128
 71
   149
 72
   159
 73
   160
  0
VERTEX
  8
fries_2
 10
0.0
 20
0.0
 30
0.0
 70
   128
 71
   156
 72
   152
 73
   146
  0
VERTEX
  8
fries_2
 10
0.0
 20
0.0
 30
0.0
 70
   128
 71
   146
 72
   152
 73
   150
  0
VERTEX
  8
fries_2
 10
0.0
 20
0.0
 30
0.0
 70
   128
 71
   151
 72
   145
 73
   147
  0
VERTEX
  8
fries_2
 10
0.0
 20
0.0
 30
0.0
 70
   128
 71
   153
 72
   146
 73
   148
  0
VERTEX
  8
fries_2
 10
0.0
 20
0.0
 30
0.0
 70
   128
 71
   154
 72
   148
 73
   150
  0
VERTEX
  8
fries_2
 10
0.0
 20
0.0
 30
0.0
 70
   128
 71
   155
 72
   150
 73
   152
  0
VERTEX
  8
fries_2
 10
0.0
 20
0.0
 30
0.0
 70
   128
 71
   153
 72
   157
 73
   160
  0
VERTEX
  8
fries_2
 10
0.0
 20
0.0
 30
0.0
 70
   128
 71
   157
 72
   153
 73
   154
  0
VERTEX
  8
fries_2
 10
0.0
 20
0.0
 30
0.0
 70
   128
 71
   158
 72
   154
 73
   155
  0
VERTEX
  8
fries_2
 10
0.0
 20
0.0
 30
0.0
 70
   128
 71
   159
 72
   155
 73
   156
  0
VERTEX
  8
fries_2
 10
0.0
 20
0.0
 30
0.0
 70
   128
 71
   157
 72
   145
 73
   151
  0
VERTEX
  8
fries_2
 10
0.0
 20
0.0
 30
0.0
 70
   128
 71
   1
 72
   14
 73
   3
  0
VERTEX
  8
fries_2
 10
0.0
 20
0.0
 30
0.0
 70
   128
 71
   3
 72
   15
 73
   5
  0
VERTEX
  8
fries_2
 10
0.0
 20
0.0
 30
0.0
 70
   128
 71
   5
 72
   16
 73
   7
  0
VERTEX
  8
fries_2
 10
0.0
 20
0.0
 30
0.0
 70
   128
 71
   12
 72
   2
 73
   9
  0
VERTEX
  8
fries_2
 10
0.0
 20
0.0
 30
0.0
 70
   128
 71
   2
 72
   6
 73
   4
  0
VERTEX
  8
fries_2
 10
0.0
 20
0.0
 30
0.0
 70
   128
 71
   7
 72
   3
 73
   5
  0
VERTEX
  8
fries_2
 10
0.0
 20
0.0
 30
0.0
 70
   128
 71
   9
 72
   4
 73
   10
  0
VERTEX
  8
fries_2
 10
0.0
 20
0.0
 30
0.0
 70
   128
 71
   10
 72
   6
 73
   11
  0
VERTEX
  8
fries_2
 10
0.0
 20
0.0
 30
0.0
 70
   128
 71
   11
 72
   8
 73
   12
  0
VERTEX
  8
fries_2
 10
0.0
 20
0.0
 30
0.0
 70
   128
 71
   9
 72
   16
 73
   12
  0
VERTEX
  8
fries_2
 10
0.0
 20
0.0
 30
0.0
 70
   128
 71
   13
 72
   10
 73
   14
  0
VERTEX
  8
fries_2
 10
0.0
 20
0.0
 30
0.0
 70
   128
 71
   14
 72
   11
 73
   15
  0
VERTEX
  8
fries_2
 10
0.0
 20
0.0
 30
0.0
 70
   128
 71
   15
 72
   12
 73
   16
  0
VERTEX
  8
fries_2
 10
0.0
 20
0.0
 30
0.0
 70
   128
 71
   13
 72
   7
 73
   16
  0
VERTEX
  8
fries_2
 10
0.0
 20
0.0
 30
0.0
 70
   128
 71
   17
 72
   30
 73
   19
  0
VERTEX
  8
fries_2
 10
0.0
 20
0.0
 30
0.0
 70
   128
 71
   19
 72
   31
 73
   21
  0
VERTEX
  8
fries_2
 10
0.0
 20
0.0
 30
0.0
 70
   128
 71
   21
 72
   32
 73
   23
  0
VERTEX
  8
fries_2
 10
0.0
 20
0.0
 30
0.0
 70
   128
 71
   28
 72
   18
 73
   25
  0
VERTEX
  8
fries_2
 10
0.0
 20
0.0
 30
0.0
 70
   128
 71
   18
 72
   22
 73
   20
  0
VERTEX
  8
fries_2
 10
0.0
 20
0.0
 30
0.0
 70
   128
 71
   23
 72
   19
 73
   21
  0
VERTEX
  8
fries_2
 10
0.0
 20
0.0
 30
0.0
 70
   128
 71
   25
 72
   20
 73
   26
  0
VERTEX
  8
fries_2
 10
0.0
 20
0.0
 30
0.0
 70
   128
 71
   26
 72
   22
 73
   27
  0
VERTEX
  8
fries_2
 10
0.0
 20
0.0
 30
0.0
 70
   128
 71
   27
 72
   24
 73
   28
  0
VERTEX
  8
fries_2
 10
0.0
 20
0.0
 30
0.0
 70
   128
 71
   25
 72
   32
 73
   28
  0
VERTEX
  8
fries_2
 10
0.0
 20
0.0
 30
0.0
 70
   128
 71
   29
 72
   26
 73
   30
  0
VERTEX
  8
fries_2
 10
0.0
 20
0.0
 30
0.0
 70
   128
 71
   30
 72
   27
 73
   31
  0
VERTEX
  8
fries_2
 10
0.0
 20
0.0
 30
0.0
 70
   128
 71
   31
 72
   28
 73
   32
  0
VERTEX
  8
fries_2
 10
0.0
 20
0.0
 30
0.0
 70
   128
 71
   29
 72
   23
 73
   32
  0
VERTEX
  8
fries_2
 10
0.0
 20
0.0
 30
0.0
 70
   128
 71
   33
 72
   46
 73
   35
  0
VERTEX
  8
fries_2
 10
0.0
 20
0.0
 30
0.0
 70
   128
 71
   35
 72
   47
 73
   37
  0
VERTEX
  8
fries_2
 10
0.0
 20
0.0
 30
0.0
 70
   128
 71
   37
 72
   48
 73
   39
  0
VERTEX
  8
fries_2
 10
0.0
 20
0.0
 30
0.0
 70
   128
 71
   44
 72
   34
 73
   41
  0
VERTEX
  8
fries_2
 10
0.0
 20
0.0
 30
0.0
 70
   128
 71
   34
 72
   38
 73
   36
  0
VERTEX
  8
fries_2
 10
0.0
 20
0.0
 30
0.0
 70
   128
 71
   39
 72
   35
 73
   37
  0
VERTEX
  8
fries_2
 10
0.0
 20
0.0
 30
0.0
 70
   128
 71
   41
 72
   36
 73
   42
  0
VERTEX
  8
fries_2
 10
0.0
 20
0.0
 30
0.0
 70
   128
 71
   42
 72
   38
 73
   43
  0
VERTEX
  8
fries_2
 10
0.0
 20
0.0
 30
0.0
 70
   128
 71
   43
 72
   40
 73
   44
  0
VERTEX
  8
fries_2
 10
0.0
 20
0.0
 30
0.0
 70
   128
 71
   41
 72
   48
 73
   44
  0
VERTEX
  8
fries_2
 10
0.0
 20
0.0
 30
0.0
 70
   128
 71
   45
 72
   42
 73
   46
  0
VERTEX
  8
fries_2
 10
0.0
 20
0.0
 30
0.0
 70
   128
 71
   46
 72
   43
 73
   47
  0
VERTEX
  8
fries_2
 10
0.0
 20
0.0
 30
0.0
 70
   128
 71
   47
 72
   44
 73
   48
  0
VERTEX
  8
fries_2
 10
0.0
 20
0.0
 30
0.0
 70
   128
 71
   45
 72
   39
 73
   48
  0
VERTEX
  8
fries_2
 10
0.0
 20
0.0
 30
0.0
 70
   128
 71
   49
 72
   62
 73
   51
  0
VERTEX
  8
fries_2
 10
0.0
 20
0.0
 30
0.0
 70
   128
 71
   51
 72
   63
 73
   53
  0
VERTEX
  8
fries_2
 10
0.0
 20
0.0
 30
0.0
 70
   128
 71
   53
 72
   64
 73
   55
  0
VERTEX
  8
fries_2
 10
0.0
 20
0.0
 30
0.0
 70
   128
 71
   60
 72
   50
 73
   57
  0
VERTEX
  8
fries_2
 10
0.0
 20
0.0
 30
0.0
 70
   128
 71
   50
 72
   54
 73
   52
  0
VERTEX
  8
fries_2
 10
0.0
 20
0.0
 30
0.0
 70
   128
 71
   55
 72
   51
 73
   53
  0
VERTEX
  8
fries_2
 10
0.0
 20
0.0
 30
0.0
 70
   128
 71
   57
 72
   52
 73
   58
  0
VERTEX
  8
fries_2
 10
0.0
 20
0.0
 30
0.0
 70
   128
 71
   58
 72
   54
 73
   59
  0
VERTEX
  8
fries_2
 10
0.0
 20
0.0
 30
0.0
 70
   128
 71
   59
 72
   56
 73
   60
  0
VERTEX
  8
fries_2
 10
0.0
 20
0.0
 30
0.0
 70
   128
 71
   57
 72
   64
 73
   60
  0
VERTEX
  8
fries_2
 10
0.0
 20
0.0
 30
0.0
 70
   128
 71
   61
 72
   58
 73
   62
  0
VERTEX
  8
fries_2
 10
0.0
 20
0.0
 30
0.0
 70
   128
 71
   62
 72
   59
 73
   63
  0
VERTEX
  8
fries_2
 10
0.0
 20
0.0
 30
0.0
 70
   128
 71
   63
 72
   60
 73
   64
  0
VERTEX
  8
fries_2
 10
0.0
 20
0.0
 30
0.0
 70
   128
 71
   61
 72
   55
 73
   64
  0
VERTEX
  8
fries_2
 10
0.0
 20
0.0
 30
0.0
 70
   128
 71
   65
 72
   78
 73
   67
  0
VERTEX
  8
fries_2
 10
0.0
 20
0.0
 30
0.0
 70
   128
 71
   67
 72
   79
 73
   69
  0
VERTEX
  8
fries_2
 10
0.0
 20
0.0
 30
0.0
 70
   128
 71
   69
 72
   80
 73
   71
  0
VERTEX
  8
fries_2
 10
0.0
 20
0.0
 30
0.0
 70
   128
 71
   76
 72
   66
 73
   73
  0
VERTEX
  8
fries_2
 10
0.0
 20
0.0
 30
0.0
 70
   128
 71
   66
 72
   70
 73
   68
  0
VERTEX
  8
fries_2
 10
0.0
 20
0.0
 30
0.0
 70
   128
 71
   71
 72
   67
 73
   69
  0
VERTEX
  8
fries_2
 10
0.0
 20
0.0
 30
0.0
 70
   128
 71
   73
 72
   68
 73
   74
  0
VERTEX
  8
fries_2
 10
0.0
 20
0.0
 30
0.0
 70
   128
 71
   74
 72
   70
 73
   75
  0
VERTEX
  8
fries_2
 10
0.0
 20
0.0
 30
0.0
 70
   128
 71
   75
 72
   72
 73
   76
  0
VERTEX
  8
fries_2
 10
0.0
 20
0.0
 30
0.0
 70
   128
 71
   73
 72
   80
 73
   76
  0
VERTEX
  8
fries_2
 10
0.0
 20
0.0
 30
0.0
 70
   128
 71
   77
 72
   74
 73
   78
  0
VERTEX
  8
fries_2
 10
0.0
 20
0.0
 30
0.0
 70
   128
 71
   78
 72
   75
 73
   79
  0
VERTEX
  8
fries_2
 10
0.0
 20
0.0
 30
0.0
 70
   128
 71
   79
 72
   76
 73
   80
  0
VERTEX
  8
fries_2
 10
0.0
 20
0.0
 30
0.0
 70
   128
 71
   77
 72
   71
 73
   80
  0
VERTEX
  8
fries_2
 10
0.0
 20
0.0
 30
0.0
 70
   128
 71
   81
 72
   94
 73
   83
  0
VERTEX
  8
fries_2
 10
0.0
 20
0.0
 30
0.0
 70
   128
 71
   83
 72
   95
 73
   85
  0
VERTEX
  8
fries_2
 10
0.0
 20
0.0
 30
0.0
 70
   128
 71
   85
 72
   96
 73
   87
  0
VERTEX
  8
fries_2
 10
0.0
 20
0.0
 30
0.0
 70
   128
 71
   92
 72
   82
 73
   89
  0
VERTEX
  8
fries_2
 10
0.0
 20
0.0
 30
0.0
 70
   128
 71
   82
 72
   86
 73
   84
  0
VERTEX
  8
fries_2
 10
0.0
 20
0.0
 30
0.0
 70
   128
 71
   87
 72
   83
 73
   85
  0
VERTEX
  8
fries_2
 10
0.0
 20
0.0
 30
0.0
 70
   128
 71
   89
 72
   84
 73
   90
  0
VERTEX
  8
fries_2
 10
0.0
 20
0.0
 30
0.0
 70
   128
 71
   90
 72
   86
 73
   91
  0
VERTEX
  8
fries_2
 10
0.0
 20
0.0
 30
0.0
 70
   128
 71
   91
 72
   88
 73
   92
  0
VERTEX
  8
fries_2
 10
0.0
 20
0.0
 30
0.0
 70
   128
 71
   89
 72
   96
 73
   92
  0
VERTEX
  8
fries_2
 10
0.0
 20
0.0
 30
0.0
 70
   128
 71
   93
 72
   90
 73
   94
  0
VERTEX
  8
fries_2
 10
0.0
 20
0.0
 30
0.0
 70
   128
 71
   94
 72
   91
 73
   95
  0
VERTEX
  8
fries_2
 10
0.0
 20
0.0
 30
0.0
 70
   128
 71
   95
 72
   92
 73
   96
  0
VERTEX
  8
fries_2
 10
0.0
 20
0.0
 30
0.0
 70
   128
 71
   93
 72
   87
 73
   96
  0
VERTEX
  8
fries_2
 10
0.0
 20
0.0
 30
0.0
 70
   128
 71
   97
 72
   110
 73
   99
  0
VERTEX
  8
fries_2
 10
0.0
 20
0.0
 30
0.0
 70
   128
 71
   99
 72
   111
 73
   101
  0
VERTEX
  8
fries_2
 10
0.0
 20
0.0
 30
0.0
 70
   128
 71
   101
 72
   112
 73
   103
  0
VERTEX
  8
fries_2
 10
0.0
 20
0.0
 30
0.0
 70
   128
 71
   108
 72
   98
 73
   105
  0
VERTEX
  8
fries_2
 10
0.0
 20
0.0
 30
0.0
 70
   128
 71
   98
 72
   102
 73
   100
  0
VERTEX
  8
fries_2
 10
0.0
 20
0.0
 30
0.0
 70
   128
 71
   103
 72
   99
 73
   101
  0
VERTEX
  8
fries_2
 10
0.0
 20
0.0
 30
0.0
 70
   128
 71
   105
 72
   100
 73
   106
  0
VERTEX
  8
fries_2
 10
0.0
 20
0.0
 30
0.0
 70
   128
 71
   106
 72
   102
 73
   107
  0
VERTEX
  8
fries_2
 10
0.0
 20
0.0
 30
0.0
 70
   128
 71
   107
 72
   104
 73
   108
  0
VERTEX
  8
fries_2
 10
0.0
 20
0.0
 30
0.0
 70
   128
 71
   105
 72
   112
 73
   108
  0
VERTEX
  8
fries_2
 10
0.0
 20
0.0
 30
0.0
 70
   128
 71
   109
 72
   106
 73
   110
  0
VERTEX
  8
fries_2
 10
0.0
 20
0.0
 30
0.0
 70
   128
 71
   110
 72
   107
 73
   111
  0
VERTEX
  8
fries_2
 10
0.0
 20
0.0
 30
0.0
 70
   128
 71
   111
 72
   108
 73
   112
  0
VERTEX
  8
fries_2
 10
0.0
 20
0.0
 30
0.0
 70
   128
 71
   109
 72
   103
 73
   112
  0
VERTEX
  8
fries_2
 10
0.0
 20
0.0
 30
0.0
 70
   128
 71
   113
 72
   126
 73
   115
  0
VERTEX
  8
fries_2
 10
0.0
 20
0.0
 30
0.0
 70
   128
 71
   115
 72
   127
 73
   117
  0
VERTEX
  8
fries_2
 10
0.0
 20
0.0
 30
0.0
 70
   128
 71
   117
 72
   128
 73
   119
  0
VERTEX
  8
fries_2
 10
0.0
 20
0.0
 30
0.0
 70
   128
 71
   124
 72
   114
 73
   121
  0
VERTEX
  8
fries_2
 10
0.0
 20
0.0
 30
0.0
 70
   128
 71
   114
 72
   118
 73
   116
  0
VERTEX
  8
fries_2
 10
0.0
 20
0.0
 30
0.0
 70
   128
 71
   119
 72
   115
 73
   117
  0
VERTEX
  8
fries_2
 10
0.0
 20
0.0
 30
0.0
 70
   128
 71
   121
 72
   116
 73
   122
  0
VERTEX
  8
fries_2
 10
0.0
 20
0.0
 30
0.0
 70
   128
 71
   122
 72
   118
 73
   123
  0
VERTEX
  8
fries_2
 10
0.0
 20
0.0
 30
0.0
 70
   128
 71
   123
 72
   120
 73
   124
  0
VERTEX
  8
fries_2
 10
0.0
 20
0.0
 30
0.0
 70
   128
 71
   121
 72
   128
 73
   124
  0
VERTEX
  8
fries_2
 10
0.0
 20
0.0
 30
0.0
 70
   128
 71
   125
 72
   122
 73
   126
  0
VERTEX
  8
fries_2
 10
0.0
 20
0.0
 30
0.0
 70
   128
 71
   126
 72
   123
 73
   127
  0
VERTEX
  8
fries_2
 10
0.0
 20
0.0
 30
0.0
 70
   128
 71
   127
 72
   124
 73
   128
  0
VERTEX
  8
fries_2
 10
0.0
 20
0.0
 30
0.0
 70
   128
 71
   125
 72
   119
 73
   128
  0
VERTEX
  8
fries_2
 10
0.0
 20
0.0
 30
0.0
 70
   128
 71
   129
 72
   142
 73
   131
  0
VERTEX
  8
fries_2
 10
0.0
 20
0.0
 30
0.0
 70
   128
 71
   131
 72
   143
 73
   133
  0
VERTEX
  8
fries_2
 10
0.0
 20
0.0
 30
0.0
 70
   128
 71
   133
 72
   144
 73
   135
  0
VERTEX
  8
fries_2
 10
0.0
 20
0.0
 30
0.0
 70
   128
 71
   140
 72
   130
 73
   137
  0
VERTEX
  8
fries_2
 10
0.0
 20
0.0
 30
0.0
 70
   128
 71
   130
 72
   134
 73
   132
  0
VERTEX
  8
fries_2
 10
0.0
 20
0.0
 30
0.0
 70
   128
 71
   135
 72
   131
 73
   133
  0
VERTEX
  8
fries_2
 10
0.0
 20
0.0
 30
0.0
 70
   128
 71
   137
 72
   132
 73
   138
  0
VERTEX
  8
fries_2
 10
0.0
 20
0.0
 30
0.0
 70
   128
 71
   138
 72
   134
 73
   139
  0
VERTEX
  8
fries_2
 10
0.0
 20
0.0
 30
0.0
 70
   128
 71
   139
 72
   136
 73
   140
  0
VERTEX
  8
fries_2
 10
0.0
 20
0.0
 30
0.0
 70
   128
 71
   137
 72
   144
 73
   140
  0
VERTEX
  8
fries_2
 10
0.0
 20
0.0
 30
0.0
 70
   128
 71
   141
 72
   138
 73
   142
  0
VERTEX
  8
fries_2
 10
0.0
 20
0.0
 30
0.0
 70
   128
 71
   142
 72
   139
 73
   143
  0
VERTEX
  8
fries_2
 10
0.0
 20
0.0
 30
0.0
 70
   128
 71
   143
 72
   140
 73
   144
  0
VERTEX
  8
fries_2
 10
0.0
 20
0.0
 30
0.0
 70
   128
 71
   141
 72
   135
 73
   144
  0
VERTEX
  8
fries_2
 10
0.0
 20
0.0
 30
0.0
 70
   128
 71
   145
 72
   158
 73
   147
  0
VERTEX
  8
fries_2
 10
0.0
 20
0.0
 30
0.0
 70
   128
 71
   147
 72
   159
 73
   149
  0
VERTEX
  8
fries_2
 10
0.0
 20
0.0
 30
0.0
 70
   128
 71
   149
 72
   160
 73
   151
  0
VERTEX
  8
fries_2
 10
0.0
 20
0.0
 30
0.0
 70
   128
 71
   156
 72
   146
 73
   153
  0
VERTEX
  8
fries_2
 10
0.0
 20
0.0
 30
0.0
 70
   128
 71
   146
 72
   150
 73
   148
  0
VERTEX
  8
fries_2
 10
0.0
 20
0.0
 30
0.0
 70
   128
 71
   151
 72
   147
 73
   149
  0
VERTEX
  8
fries_2
 10
0.0
 20
0.0
 30
0.0
 70
   128
 71
   153
 72
   148
 73
   154
  0
VERTEX
  8
fries_2
 10
0.0
 20
0.0
 30
0.0
 70
   128
 71
   154
 72
   150
 73
   155
  0
VERTEX
  8
fries_2
 10
0.0
 20
0.0
 30
0.0
 70
   128
 71
   155
 72
   152
 73
   156
  0
VERTEX
  8
fries_2
 10
0.0
 20
0.0
 30
0.0
 70
   128
 71
   153
 72
   160
 73
   156
  0
VERTEX
  8
fries_2
 10
0.0
 20
0.0
 30
0.0
 70
   128
 71
   157
 72
   154
 73
   158
  0
VERTEX
  8
fries_2
 10
0.0
 20
0.0
 30
0.0
 70
   128
 71
   158
 72
   155
 73
   159
  0
VERTEX
  8
fries_2
 10
0.0
 20
0.0
 30
0.0
 70
   128
 71
   159
 72
   156
 73
   160
  0
VERTEX
  8
fries_2
 10
0.0
 20
0.0
 30
0.0
 70
   128
 71
   157
 72
   151
 73
   160
  0
SEQEND
  0
POLYLINE
  8
bag
 66
   1
 10
0.0
 20
0.0
 30
0.0
 70
   64
 71
   32
 72
   60
  0
VERTEX
  8
bag
 10
-41.769624
 20
0.000000
 30
23.717421
 70
   192
  0
VERTEX
  8
bag
 10
-52.395158
 20
109.932142
 30
35.635148
 70
   192
  0
VERTEX
  8
bag
 10
38.509146
 20
0.000000
 30
23.717421
 70
   192
  0
VERTEX
  8
bag
 10
49.134679
 20
109.932142
 30
35.635148
 70
   192
  0
VERTEX
  8
bag
 10
38.509146
 20
0.000000
 30
-26.147443
 70
   192
  0
VERTEX
  8
bag
 10
49.134679
 20
113.835413
 30
-36.050115
 70
   192
  0
VERTEX
  8
bag
 10
-41.769624
 20
0.000000
 30
-26.147443
 70
   192
  0
VERTEX
  8
bag
 10
-52.395158
 20
113.835413
 30
-36.050115
 70
   192
  0
VERTEX
  8
bag
 10
-44.945256
 20
110.100996
 30
27.723574
 70
   192
  0
VERTEX
  8
bag
 10
41.622038
 20
110.357015
 30
27.723574
 70
   192
  0
VERTEX
  8
bag
 10
42.030679
 20
113.561658
 30
-29.727424
 70
   192
  0
VERTEX
  8
bag
 10
-45.291158
 20
113.561658
 30
-29.727424
 70
   192
  0
VERTEX
  8
bag
 10
-36.152553
 20
36.046613
 30
21.532765
 70
   192
  0
VERTEX
  8
bag
 10
32.892074
 20
36.046613
 30
21.532765
 70
   192
  0
VERTEX
  8
bag
 10
32.892074
 20
36.046613
 30
-23.962787
 70
   192
  0
VERTEX
  8
bag
 10
-36.152553
 20
36.046613
 30
-23.962787
 70
   192
  0
VERTEX
  8
bag
 10
24.363662
 20
102.545887
 30
27.072828
 70
   192
  0
VERTEX
  8
bag
 10
9.529611
 20
98.439214
 30
34.382644
 70
   192
  0
VERTEX
  8
bag
 10
-29.873338
 20
119.292241
 30
-30.153596
 70
   192
  0
VERTEX
  8
bag
 10
9.529611
 20
127.715923
 30
-37.257596
 70
   192
  0
VERTEX
  8
bag
 10
9.529611
 20
98.439214
 30
26.748671
 70
   192
  0
VERTEX
  8
bag
 10
9.529611
 20
124.593021
 30
-30.558964
 70
   192
  0
VERTEX
  8
bag
 10
-29.873338
 20
122.415144
 30
-36.796475
 70
   192
  0
VERTEX
  8
bag
 10
24.363662
 20
122.415144
 30
-36.796475
 70
   192
  0
VERTEX
  8
bag
 10
-29.873338
 20
102.545887
 30
34.834405
 70
   192
  0
VERTEX
  8
bag
 10
-15.039287
 20
98.439214
 30
34.382644
 70
   192
  0
VERTEX
  8
bag
 10
-29.873338
 20
102.545887
 30
27.072828
 70
   192
  0
VERTEX
  8
bag
 10
-15.039287
 20
127.715923
 30
-37.257596
 70
   192
  0
VERTEX
  8
bag
 10
-15.039287
 20
98.439214
 30
26.748671
 70
   192
  0
VERTEX
  8
bag
 10
-15.039287
 20
124.593021
 30
-30.558964
 70
   192
  0
VERTEX
  8
bag
 10
24.363662
 20
102.545887
 30
34.834405
 70
   192
  0
VERTEX
  8
bag
 10
24.363662
 20
119.292241
 30
-30.153596
 70
   192
  0
VERTEX
  8
bag
 10
0.0
 20
0.0
 30
0.0
 70
   128
 71
   31
 72
   4
 73
   3
  0
VERTEX
  8
bag
 10
0.0
 20
0.0
 30
0.0
 70
   128
 71
   3
 72
   4
 73
   6
  0
VERTEX
  8
bag
 10
0.0
 20
0.0
 30
0.0
 70
   128
 71
   20
 72
   28
 73
   7
  0
VERTEX
  8
bag
 10
0.0
 20
0.0
 30
0.0
 70
   128
 71
   7
 72
   8
 73
   2
  0
VERTEX
  8
bag
 10
0.0
 20
0.0
 30
0.0
 70
   128
 71
   19
 72
   30
 73
   16
  0
VERTEX
  8
bag
 10
0.0
 20
0.0
 30
0.0
 70
   128
 71
   23
 72
   8
 73
   7
  0
VERTEX
  8
bag
 10
0.0
 20
0.0
 30
0.0
 70
   128
 71
   17
 72
   10
 73
   4
  0
VERTEX
  8
bag
 10
0.0
 20
0.0
 30
0.0
 70
   128
 71
   4
 72
   10
 73
   11
  0
VERTEX
  8
bag
 10
0.0
 20
0.0
 30
0.0
 70
   128
 71
   19
 72
   12
 73
   8
  0
VERTEX
  8
bag
 10
0.0
 20
0.0
 30
0.0
 70
   128
 71
   8
 72
   12
 73
   9
  0
VERTEX
  8
bag
 10
0.0
 20
0.0
 30
0.0
 70
   128
 71
   14
 72
   10
 73
   17
  0
VERTEX
  8
bag
 10
0.0
 20
0.0
 30
0.0
 70
   128
 71
   10
 72
   14
 73
   15
  0
VERTEX
  8
bag
 10
0.0
 20
0.0
 30
0.0
 70
   128
 71
   16
 72
   12
 73
   19
  0
VERTEX
  8
bag
 10
0.0
 20
0.0
 30
0.0
 70
   128
 71
   12
 72
   16
 73
   13
  0
VERTEX
  8
bag
 10
0.0
 20
0.0
 30
0.0
 70
   128
 71
   13
 72
   16
 73
   15
  0
VERTEX
  8
bag
 10
0.0
 20
0.0
 30
0.0
 70
   128
 71
   25
 72
   26
 73
   1
  0
VERTEX
  8
bag
 10
0.0
 20
0.0
 30
0.0
 70
   128
 71
   1
 72
   2
 73
   25
  0
VERTEX
  8
bag
 10
0.0
 20
0.0
 30
0.0
 70
   128
 71
   5
 72
   6
 73
   24
  0
VERTEX
  8
bag
 10
0.0
 20
0.0
 30
0.0
 70
   128
 71
   26
 72
   25
 73
   27
  0
VERTEX
  8
bag
 10
0.0
 20
0.0
 30
0.0
 70
   128
 71
   20
 72
   24
 73
   32
  0
VERTEX
  8
bag
 10
0.0
 20
0.0
 30
0.0
 70
   128
 71
   29
 72
   27
 73
   13
  0
VERTEX
  8
bag
 10
0.0
 20
0.0
 30
0.0
 70
   128
 71
   22
 72
   32
 73
   15
  0
VERTEX
  8
bag
 10
0.0
 20
0.0
 30
0.0
 70
   128
 71
   27
 72
   9
 73
   13
  0
VERTEX
  8
bag
 10
0.0
 20
0.0
 30
0.0
 70
   128
 71
   5
 72
   7
 73
   1
  0
VERTEX
  8
bag
 10
0.0
 20
0.0
 30
0.0
 70
   128
 71
   28
 72
   23
 73
   7
  0
VERTEX
  8
bag
 10
0.0
 20
0.0
 30
0.0
 70
   128
 71
   28
 72
   20
 73
   22
  0
VERTEX
  8
bag
 10
0.0
 20
0.0
 30
0.0
 70
   128
 71
   30
 72
   22
 73
   15
  0
VERTEX
  8
bag
 10
0.0
 20
0.0
 30
0.0
 70
   128
 71
   26
 72
   18
 73
   3
  0
VERTEX
  8
bag
 10
0.0
 20
0.0
 30
0.0
 70
   128
 71
   29
 72
   21
 73
   18
  0
VERTEX
  8
bag
 10
0.0
 20
0.0
 30
0.0
 70
   128
 71
   13
 72
   14
 73
   21
  0
VERTEX
  8
bag
 10
0.0
 20
0.0
 30
0.0
 70
   128
 71
   23
 72
   28
 73
   30
  0
VERTEX
  8
bag
 10
0.0
 20
0.0
 30
0.0
 70
   128
 71
   25
 72
   2
 73
   9
  0
VERTEX
  8
bag
 10
0.0
 20
0.0
 30
0.0
 70
   128
 71
   3
 72
   18
 73
   31
  0
VERTEX
  8
bag
 10
0.0
 20
0.0
 30
0.0
 70
   128
 71
   31
 72
   18
 73
   21
  0
VERTEX
  8
bag
 10
0.0
 20
0.0
 30
0.0
 70
   128
 71
   17
 72
   21
 73
   14
  0
VERTEX
  8
bag
 10
0.0
 20
0.0
 30
0.0
 70
   128
 71
   24
 72
   20
 73
   5
  0
VERTEX
  8
bag
 10
0.0
 20
0.0
 30
0.0
 70
   128
 71
   24
 72
   6
 73
   11
  0
VERTEX
  8
bag
 10
0.0
 20
0.0
 30
0.0
 70
   128
 71
   32
 72
   11
 73
   15
  0
VERTEX
  8
bag
 10
0.0
 20
0.0
 30
0.0
 70
   128
 71
   3
 72
   6
 73
   5
  0
VERTEX
  8
bag
 10
0.0
 20
0.0
 30
0.0
 70
   128
 71
   20
 72
   7
 73
   5
  0
VERTEX
  8
bag
 10
0.0
 20
0.0
 30
0.0
 70
   128
 71
   7
 72
   2
 73
   1
  0
VERTEX
  8
bag
 10
0.0
 20
0.0
 30
0.0
 70
   128
 71
   17
 72
   4
 73
   31
  0
VERTEX
  8
bag
 10
0.0
 20
0.0
 30
0.0
 70
   128
 71
   4
 72
   11
 73
   6
  0
VERTEX
  8
bag
 10
0.0
 20
0.0
 30
0.0
 70
   128
 71
   19
 72
   8
 73
   23
  0
VERTEX
  8
bag
 10
0.0
 20
0.0
 30
0.0
 70
   128
 71
   8
 72
   9
 73
   2
  0
VERTEX
  8
bag
 10
0.0
 20
0.0
 30
0.0
 70
   128
 71
   10
 72
   15
 73
   11
  0
VERTEX
  8
bag
 10
0.0
 20
0.0
 30
0.0
 70
   128
 71
   12
 72
   13
 73
   9
  0
VERTEX
  8
bag
 10
0.0
 20
0.0
 30
0.0
 70
   128
 71
   13
 72
   15
 73
   14
  0
VERTEX
  8
bag
 10
0.0
 20
0.0
 30
0.0
 70
   128
 71
   26
 72
   27
 73
   29
  0
VERTEX
  8
bag
 10
0.0
 20
0.0
 30
0.0
 70
   128
 71
   20
 72
   32
 73
   22
  0
VERTEX
  8
bag
 10
0.0
 20
0.0
 30
0.0
 70
   128
 71
   5
 72
   1
 73
   3
  0
VERTEX
  8
bag
 10
0.0
 20
0.0
 30
0.0
 70
   128
 71
   28
 72
   22
 73
   30
  0
VERTEX
  8
bag
 10
0.0
 20
0.0
 30
0.0
 70
   128
 71
   30
 72
   15
 73
   16
  0
VERTEX
  8
bag
 10
0.0
 20
0.0
 30
0.0
 70
   128
 71
   26
 72
   3
 73
   1
  0
VERTEX
  8
bag
 10
0.0
 20
0.0
 30
0.0
 70
   128
 71
   29
 72
   18
 73
   26
  0
VERTEX
  8
bag
 10
0.0
 20
0.0
 30
0.0
 70
   128
 71
   13
 72
   21
 73
   29
  0
VERTEX
  8
bag
 10
0.0
 20
0.0
 30
0.0
 70
   128
 71
   23
 72
   30
 73
   19
  0
VERTEX
  8
bag
 10
0.0
 20
0.0
 30
0.0
 70
   128
 71
   25
 72
   9
 73
   27
  0
VERTEX
  8
bag
 10
0.0
 20
0.0
 30
0.0
 70
   128
 71
   31
 72
   21
 73
   17
  0
VERTEX
  8
bag
 10
0.0
 20
0.0
 30
0.0
 70
   128
 71
   24
 72
   11
 73
   32
  0
SEQEND
  0
ENDSEC
  0
EOF
