999
FBX AutoCAD (*.DXF) exporter
  0
SECTION
  2
HEADER
  9
$ACADVER
  1
AC1008
  9
$UCSORG
 10
0.0
 20
0.0
 30
0.0
  9
$UCSXDIR
 10
1.0
 20
0.0
 30
0.0
  9
$TILEMODE
 70
   1
  9
$UCSYDIR
 10
0.0
 20
1.0
 30
0.0
  0
ENDSEC
  0
SECTION
  2
TABLES
  0
TABLE
  2
LTYPE
 70
   1
  0
LTYPE
  2
CONTINUOUS
 70
   64
  3
Solid line
 72
   65
 73
   0
 40
0.0
  0
ENDTAB
  0
TABLE
  2
LAYER
 70
   2
  0
LAYER
  2
breadJam
 70
   0
 62
   250
  6
CONTINUOUS
  0
LAYER
  2
jam
 70
   0
 62
   250
  6
CONTINUOUS
  0
ENDTAB
  0
ENDSEC
  0
SECTION
  2
BLOCKS
  0
ENDSEC
  0
SECTION
  2
ENTITIES
  0
POLYLINE
  8
breadJam
 66
   1
 10
0.0
 20
0.0
 30
0.0
 70
   64
 71
   133
 72
   148
  0
VERTEX
  8
breadJam
 10
-88.568748
 20
0.000000
 30
-88.176832
 70
   192
  0
VERTEX
  8
breadJam
 10
-83.962335
 20
0.000000
 30
-31.044180
 70
   192
  0
VERTEX
  8
breadJam
 10
-79.774688
 20
0.000000
 30
14.822878
 70
   192
  0
VERTEX
  8
breadJam
 10
-82.706041
 20
0.000000
 30
47.010288
 70
   192
  0
VERTEX
  8
breadJam
 10
-95.687749
 20
0.000000
 30
55.459483
 70
   192
  0
VERTEX
  8
breadJam
 10
-98.619102
 20
0.000000
 30
77.185984
 70
   192
  0
VERTEX
  8
breadJam
 10
-89.841464
 20
0.000000
 30
99.314828
 70
   192
  0
VERTEX
  8
breadJam
 10
-54.115082
 20
0.000000
 30
108.166366
 70
   192
  0
VERTEX
  8
breadJam
 10
-17.173461
 20
0.000000
 30
95.693744
 70
   192
  0
VERTEX
  8
breadJam
 10
12.033329
 20
0.000000
 30
71.150845
 70
   192
  0
VERTEX
  8
breadJam
 10
30.360445
 20
0.000000
 30
85.635179
 70
   192
  0
VERTEX
  8
breadJam
 10
52.554978
 20
0.000000
 30
99.717171
 70
   192
  0
VERTEX
  8
breadJam
 10
75.168275
 20
0.000000
 30
101.326541
 70
   192
  0
VERTEX
  8
breadJam
 10
96.106514
 20
0.000000
 30
88.049235
 70
   192
  0
VERTEX
  8
breadJam
 10
98.619102
 20
0.000000
 30
57.068853
 70
   192
  0
VERTEX
  8
breadJam
 10
78.937158
 20
0.000000
 30
34.135324
 70
   192
  0
VERTEX
  8
breadJam
 10
76.843334
 20
0.000000
 30
9.994767
 70
   192
  0
VERTEX
  8
breadJam
 10
81.449747
 20
0.000000
 30
-55.184737
 70
   192
  0
VERTEX
  8
breadJam
 10
88.987513
 20
0.000000
 30
-88.176832
 70
   192
  0
VERTEX
  8
breadJam
 10
-88.568748
 20
19.711769
 30
-88.176832
 70
   192
  0
VERTEX
  8
breadJam
 10
-83.962335
 20
19.711769
 30
-31.044180
 70
   192
  0
VERTEX
  8
breadJam
 10
-79.774688
 20
19.711769
 30
14.822878
 70
   192
  0
VERTEX
  8
breadJam
 10
-82.706041
 20
19.711769
 30
47.010288
 70
   192
  0
VERTEX
  8
breadJam
 10
-95.687749
 20
19.711769
 30
55.459483
 70
   192
  0
VERTEX
  8
breadJam
 10
-98.619102
 20
19.711769
 30
77.185984
 70
   192
  0
VERTEX
  8
breadJam
 10
-89.841464
 20
19.711769
 30
99.314828
 70
   192
  0
VERTEX
  8
breadJam
 10
-54.115082
 20
19.711769
 30
108.166366
 70
   192
  0
VERTEX
  8
breadJam
 10
-17.173461
 20
19.711769
 30
95.693744
 70
   192
  0
VERTEX
  8
breadJam
 10
12.033329
 20
19.711769
 30
71.150845
 70
   192
  0
VERTEX
  8
breadJam
 10
30.360445
 20
19.711769
 30
85.635179
 70
   192
  0
VERTEX
  8
breadJam
 10
52.554978
 20
19.711769
 30
99.717171
 70
   192
  0
VERTEX
  8
breadJam
 10
75.168275
 20
19.711769
 30
101.326541
 70
   192
  0
VERTEX
  8
breadJam
 10
96.106514
 20
19.711769
 30
88.049235
 70
   192
  0
VERTEX
  8
breadJam
 10
98.619102
 20
19.711769
 30
57.068853
 70
   192
  0
VERTEX
  8
breadJam
 10
78.937158
 20
19.711769
 30
34.135324
 70
   192
  0
VERTEX
  8
breadJam
 10
76.843334
 20
19.711769
 30
9.994767
 70
   192
  0
VERTEX
  8
breadJam
 10
81.449747
 20
19.711769
 30
-55.184737
 70
   192
  0
VERTEX
  8
breadJam
 10
88.987513
 20
19.711769
 30
-88.176832
 70
   192
  0
VERTEX
  8
breadJam
 10
-88.568748
 20
0.000000
 30
-88.176832
 70
   192
  0
VERTEX
  8
breadJam
 10
-83.962335
 20
0.000000
 30
-31.044180
 70
   192
  0
VERTEX
  8
breadJam
 10
-79.774688
 20
0.000000
 30
14.822878
 70
   192
  0
VERTEX
  8
breadJam
 10
-82.706041
 20
0.000000
 30
47.010288
 70
   192
  0
VERTEX
  8
breadJam
 10
-95.687749
 20
0.000000
 30
55.459483
 70
   192
  0
VERTEX
  8
breadJam
 10
-98.619102
 20
0.000000
 30
77.185984
 70
   192
  0
VERTEX
  8
breadJam
 10
-89.841464
 20
0.000000
 30
99.314828
 70
   192
  0
VERTEX
  8
breadJam
 10
-54.115082
 20
0.000000
 30
108.166366
 70
   192
  0
VERTEX
  8
breadJam
 10
-17.173461
 20
0.000000
 30
95.693744
 70
   192
  0
VERTEX
  8
breadJam
 10
12.033329
 20
0.000000
 30
71.150845
 70
   192
  0
VERTEX
  8
breadJam
 10
30.360445
 20
0.000000
 30
85.635179
 70
   192
  0
VERTEX
  8
breadJam
 10
52.554978
 20
0.000000
 30
99.717171
 70
   192
  0
VERTEX
  8
breadJam
 10
75.168275
 20
0.000000
 30
101.326541
 70
   192
  0
VERTEX
  8
breadJam
 10
96.106514
 20
0.000000
 30
88.049235
 70
   192
  0
VERTEX
  8
breadJam
 10
98.619102
 20
0.000000
 30
57.068853
 70
   192
  0
VERTEX
  8
breadJam
 10
78.937158
 20
0.000000
 30
34.135324
 70
   192
  0
VERTEX
  8
breadJam
 10
76.843334
 20
0.000000
 30
9.994767
 70
   192
  0
VERTEX
  8
breadJam
 10
81.449747
 20
0.000000
 30
-55.184737
 70
   192
  0
VERTEX
  8
breadJam
 10
88.987513
 20
0.000000
 30
-88.176832
 70
   192
  0
VERTEX
  8
breadJam
 10
-88.568748
 20
19.711769
 30
-88.176832
 70
   192
  0
VERTEX
  8
breadJam
 10
-83.962335
 20
19.711769
 30
-31.044180
 70
   192
  0
VERTEX
  8
breadJam
 10
-79.774688
 20
19.711769
 30
14.822878
 70
   192
  0
VERTEX
  8
breadJam
 10
-82.706041
 20
19.711769
 30
47.010288
 70
   192
  0
VERTEX
  8
breadJam
 10
-95.687749
 20
19.711769
 30
55.459483
 70
   192
  0
VERTEX
  8
breadJam
 10
-98.619102
 20
19.711769
 30
77.185984
 70
   192
  0
VERTEX
  8
breadJam
 10
-89.841464
 20
19.711769
 30
99.314828
 70
   192
  0
VERTEX
  8
breadJam
 10
-54.115082
 20
19.711769
 30
108.166366
 70
   192
  0
VERTEX
  8
breadJam
 10
-17.173461
 20
19.711769
 30
95.693744
 70
   192
  0
VERTEX
  8
breadJam
 10
12.033329
 20
19.711769
 30
71.150845
 70
   192
  0
VERTEX
  8
breadJam
 10
30.360445
 20
19.711769
 30
85.635179
 70
   192
  0
VERTEX
  8
breadJam
 10
52.554978
 20
19.711769
 30
99.717171
 70
   192
  0
VERTEX
  8
breadJam
 10
75.168275
 20
19.711769
 30
101.326541
 70
   192
  0
VERTEX
  8
breadJam
 10
96.106514
 20
19.711769
 30
88.049235
 70
   192
  0
VERTEX
  8
breadJam
 10
98.619102
 20
19.711769
 30
57.068853
 70
   192
  0
VERTEX
  8
breadJam
 10
78.937158
 20
19.711769
 30
34.135324
 70
   192
  0
VERTEX
  8
breadJam
 10
76.843334
 20
19.711769
 30
9.994767
 70
   192
  0
VERTEX
  8
breadJam
 10
81.449747
 20
19.711769
 30
-55.184737
 70
   192
  0
VERTEX
  8
breadJam
 10
88.987513
 20
19.711769
 30
-88.176832
 70
   192
  0
VERTEX
  8
breadJam
 10
0.000000
 20
9.972904
 30
-88.454596
 70
   192
  0
VERTEX
  8
breadJam
 10
0.000000
 20
9.972904
 30
-88.454596
 70
   192
  0
VERTEX
  8
breadJam
 10
0.000000
 20
9.972904
 30
-88.454596
 70
   192
  0
VERTEX
  8
breadJam
 10
0.000000
 20
9.972904
 30
-88.454596
 70
   192
  0
VERTEX
  8
breadJam
 10
0.000000
 20
9.972904
 30
-88.454596
 70
   192
  0
VERTEX
  8
breadJam
 10
0.000000
 20
9.972904
 30
-88.454596
 70
   192
  0
VERTEX
  8
breadJam
 10
0.000000
 20
9.972904
 30
-88.454596
 70
   192
  0
VERTEX
  8
breadJam
 10
0.000000
 20
9.972904
 30
-88.454596
 70
   192
  0
VERTEX
  8
breadJam
 10
0.000000
 20
9.972904
 30
-88.454596
 70
   192
  0
VERTEX
  8
breadJam
 10
0.000000
 20
9.972904
 30
-88.454596
 70
   192
  0
VERTEX
  8
breadJam
 10
0.000000
 20
9.972904
 30
-88.454596
 70
   192
  0
VERTEX
  8
breadJam
 10
0.000000
 20
9.972904
 30
-88.454596
 70
   192
  0
VERTEX
  8
breadJam
 10
0.000000
 20
9.972904
 30
-88.454596
 70
   192
  0
VERTEX
  8
breadJam
 10
0.000000
 20
9.972904
 30
-88.454596
 70
   192
  0
VERTEX
  8
breadJam
 10
0.000000
 20
9.972904
 30
-88.454596
 70
   192
  0
VERTEX
  8
breadJam
 10
0.000000
 20
9.972904
 30
-88.454596
 70
   192
  0
VERTEX
  8
breadJam
 10
0.000000
 20
9.972904
 30
-88.454596
 70
   192
  0
VERTEX
  8
breadJam
 10
0.000000
 20
9.972904
 30
-88.454596
 70
   192
  0
VERTEX
  8
breadJam
 10
0.000000
 20
9.972904
 30
-88.454596
 70
   192
  0
VERTEX
  8
breadJam
 10
-70.793252
 20
0.000000
 30
-71.776832
 70
   192
  0
VERTEX
  8
breadJam
 10
-67.622364
 20
0.000000
 30
-32.448776
 70
   192
  0
VERTEX
  8
breadJam
 10
-63.306648
 20
0.000000
 30
14.821014
 70
   192
  0
VERTEX
  8
breadJam
 10
-67.094889
 20
0.000000
 30
56.417395
 70
   192
  0
VERTEX
  8
breadJam
 10
-80.440304
 20
0.000000
 30
65.103311
 70
   192
  0
VERTEX
  8
breadJam
 10
-81.792717
 20
0.000000
 30
75.127075
 70
   192
  0
VERTEX
  8
breadJam
 10
-77.707865
 20
0.000000
 30
85.425181
 70
   192
  0
VERTEX
  8
breadJam
 10
-54.821749
 20
0.000000
 30
91.095425
 70
   192
  0
VERTEX
  8
breadJam
 10
-25.353471
 20
0.000000
 30
81.146033
 70
   192
  0
VERTEX
  8
breadJam
 10
11.715646
 20
0.000000
 30
49.996303
 70
   192
  0
VERTEX
  8
breadJam
 10
39.863375
 20
0.000000
 30
72.242089
 70
   192
  0
VERTEX
  8
breadJam
 10
57.846956
 20
0.000000
 30
83.652316
 70
   192
  0
VERTEX
  8
breadJam
 10
70.946100
 20
0.000000
 30
84.584571
 70
   192
  0
VERTEX
  8
breadJam
 10
80.420936
 20
0.000000
 30
78.576411
 70
   192
  0
VERTEX
  8
breadJam
 10
81.719929
 20
0.000000
 30
62.559738
 70
   192
  0
VERTEX
  8
breadJam
 10
63.054577
 20
0.000000
 30
40.810748
 70
   192
  0
VERTEX
  8
breadJam
 10
60.393150
 20
0.000000
 30
10.126065
 70
   192
  0
VERTEX
  8
breadJam
 10
65.179785
 20
0.000000
 30
-57.603543
 70
   192
  0
VERTEX
  8
breadJam
 10
68.417983
 20
0.000000
 30
-71.776832
 70
   192
  0
VERTEX
  8
breadJam
 10
-70.793252
 20
19.711769
 30
-71.776832
 70
   192
  0
VERTEX
  8
breadJam
 10
68.417983
 20
19.711769
 30
-71.776832
 70
   192
  0
VERTEX
  8
breadJam
 10
65.179785
 20
19.711769
 30
-57.603543
 70
   192
  0
VERTEX
  8
breadJam
 10
60.393150
 20
19.711769
 30
10.126065
 70
   192
  0
VERTEX
  8
breadJam
 10
63.054577
 20
19.711769
 30
40.810748
 70
   192
  0
VERTEX
  8
breadJam
 10
81.719929
 20
19.711769
 30
62.559738
 70
   192
  0
VERTEX
  8
breadJam
 10
80.420936
 20
19.711769
 30
78.576411
 70
   192
  0
VERTEX
  8
breadJam
 10
70.946100
 20
19.711769
 30
84.584571
 70
   192
  0
VERTEX
  8
breadJam
 10
57.846956
 20
19.711769
 30
83.652316
 70
   192
  0
VERTEX
  8
breadJam
 10
39.863375
 20
19.711769
 30
72.242089
 70
   192
  0
VERTEX
  8
breadJam
 10
11.715646
 20
19.711769
 30
49.996303
 70
   192
  0
VERTEX
  8
breadJam
 10
-25.353471
 20
19.711769
 30
81.146033
 70
   192
  0
VERTEX
  8
breadJam
 10
-54.821749
 20
19.711769
 30
91.095425
 70
   192
  0
VERTEX
  8
breadJam
 10
-77.707865
 20
19.711769
 30
85.425181
 70
   192
  0
VERTEX
  8
breadJam
 10
-81.792717
 20
19.711769
 30
75.127075
 70
   192
  0
VERTEX
  8
breadJam
 10
-80.440304
 20
19.711769
 30
65.103311
 70
   192
  0
VERTEX
  8
breadJam
 10
-67.094889
 20
19.711769
 30
56.417395
 70
   192
  0
VERTEX
  8
breadJam
 10
-63.306648
 20
19.711769
 30
14.821014
 70
   192
  0
VERTEX
  8
breadJam
 10
-67.622364
 20
19.711769
 30
-32.448776
 70
   192
  0
VERTEX
  8
breadJam
 10
0.0
 20
0.0
 30
0.0
 70
   128
 71
   1
 72
   20
 73
   21
  0
VERTEX
  8
breadJam
 10
0.0
 20
0.0
 30
0.0
 70
   128
 71
   2
 72
   21
 73
   22
  0
VERTEX
  8
breadJam
 10
0.0
 20
0.0
 30
0.0
 70
   128
 71
   3
 72
   22
 73
   23
  0
VERTEX
  8
breadJam
 10
0.0
 20
0.0
 30
0.0
 70
   128
 71
   4
 72
   23
 73
   24
  0
VERTEX
  8
breadJam
 10
0.0
 20
0.0
 30
0.0
 70
   128
 71
   5
 72
   24
 73
   25
  0
VERTEX
  8
breadJam
 10
0.0
 20
0.0
 30
0.0
 70
   128
 71
   6
 72
   25
 73
   26
  0
VERTEX
  8
breadJam
 10
0.0
 20
0.0
 30
0.0
 70
   128
 71
   7
 72
   26
 73
   27
  0
VERTEX
  8
breadJam
 10
0.0
 20
0.0
 30
0.0
 70
   128
 71
   8
 72
   27
 73
   28
  0
VERTEX
  8
breadJam
 10
0.0
 20
0.0
 30
0.0
 70
   128
 71
   9
 72
   28
 73
   29
  0
VERTEX
  8
breadJam
 10
0.0
 20
0.0
 30
0.0
 70
   128
 71
   10
 72
   29
 73
   30
  0
VERTEX
  8
breadJam
 10
0.0
 20
0.0
 30
0.0
 70
   128
 71
   11
 72
   30
 73
   31
  0
VERTEX
  8
breadJam
 10
0.0
 20
0.0
 30
0.0
 70
   128
 71
   12
 72
   31
 73
   32
  0
VERTEX
  8
breadJam
 10
0.0
 20
0.0
 30
0.0
 70
   128
 71
   13
 72
   32
 73
   33
  0
VERTEX
  8
breadJam
 10
0.0
 20
0.0
 30
0.0
 70
   128
 71
   14
 72
   33
 73
   34
  0
VERTEX
  8
breadJam
 10
0.0
 20
0.0
 30
0.0
 70
   128
 71
   15
 72
   34
 73
   35
  0
VERTEX
  8
breadJam
 10
0.0
 20
0.0
 30
0.0
 70
   128
 71
   16
 72
   35
 73
   36
  0
VERTEX
  8
breadJam
 10
0.0
 20
0.0
 30
0.0
 70
   128
 71
   17
 72
   36
 73
   37
  0
VERTEX
  8
breadJam
 10
0.0
 20
0.0
 30
0.0
 70
   128
 71
   18
 72
   37
 73
   38
  0
VERTEX
  8
breadJam
 10
0.0
 20
0.0
 30
0.0
 70
   128
 71
   19
 72
   38
 73
   20
  0
VERTEX
  8
breadJam
 10
0.0
 20
0.0
 30
0.0
 70
   128
 71
   97
 72
   98
 73
   105
  0
VERTEX
  8
breadJam
 10
0.0
 20
0.0
 30
0.0
 70
   128
 71
   39
 72
   96
 73
   114
  0
VERTEX
  8
breadJam
 10
0.0
 20
0.0
 30
0.0
 70
   128
 71
   97
 72
   105
 73
   112
  0
VERTEX
  8
breadJam
 10
0.0
 20
0.0
 30
0.0
 70
   128
 71
   40
 72
   97
 73
   96
  0
VERTEX
  8
breadJam
 10
0.0
 20
0.0
 30
0.0
 70
   128
 71
   41
 72
   98
 73
   97
  0
VERTEX
  8
breadJam
 10
0.0
 20
0.0
 30
0.0
 70
   128
 71
   105
 72
   98
 73
   99
  0
VERTEX
  8
breadJam
 10
0.0
 20
0.0
 30
0.0
 70
   128
 71
   105
 72
   106
 73
   111
  0
VERTEX
  8
breadJam
 10
0.0
 20
0.0
 30
0.0
 70
   128
 71
   111
 72
   106
 73
   107
  0
VERTEX
  8
breadJam
 10
0.0
 20
0.0
 30
0.0
 70
   128
 71
   103
 72
   104
 73
   99
  0
VERTEX
  8
breadJam
 10
0.0
 20
0.0
 30
0.0
 70
   128
 71
   42
 72
   99
 73
   98
  0
VERTEX
  8
breadJam
 10
0.0
 20
0.0
 30
0.0
 70
   128
 71
   96
 72
   97
 73
   113
  0
VERTEX
  8
breadJam
 10
0.0
 20
0.0
 30
0.0
 70
   128
 71
   110
 72
   107
 73
   108
  0
VERTEX
  8
breadJam
 10
0.0
 20
0.0
 30
0.0
 70
   128
 71
   43
 72
   100
 73
   99
  0
VERTEX
  8
breadJam
 10
0.0
 20
0.0
 30
0.0
 70
   128
 71
   99
 72
   100
 73
   101
  0
VERTEX
  8
breadJam
 10
0.0
 20
0.0
 30
0.0
 70
   128
 71
   44
 72
   101
 73
   100
  0
VERTEX
  8
breadJam
 10
0.0
 20
0.0
 30
0.0
 70
   128
 71
   45
 72
   102
 73
   101
  0
VERTEX
  8
breadJam
 10
0.0
 20
0.0
 30
0.0
 70
   128
 71
   46
 72
   103
 73
   102
  0
VERTEX
  8
breadJam
 10
0.0
 20
0.0
 30
0.0
 70
   128
 71
   133
 72
   117
 73
   118
  0
VERTEX
  8
breadJam
 10
0.0
 20
0.0
 30
0.0
 70
   128
 71
   125
 72
   118
 73
   119
  0
VERTEX
  8
breadJam
 10
0.0
 20
0.0
 30
0.0
 70
   128
 71
   47
 72
   104
 73
   103
  0
VERTEX
  8
breadJam
 10
0.0
 20
0.0
 30
0.0
 70
   128
 71
   119
 72
   120
 73
   123
  0
VERTEX
  8
breadJam
 10
0.0
 20
0.0
 30
0.0
 70
   128
 71
   48
 72
   105
 73
   104
  0
VERTEX
  8
breadJam
 10
0.0
 20
0.0
 30
0.0
 70
   128
 71
   49
 72
   106
 73
   105
  0
VERTEX
  8
breadJam
 10
0.0
 20
0.0
 30
0.0
 70
   128
 71
   120
 72
   121
 73
   122
  0
VERTEX
  8
breadJam
 10
0.0
 20
0.0
 30
0.0
 70
   128
 71
   131
 72
   126
 73
   127
  0
VERTEX
  8
breadJam
 10
0.0
 20
0.0
 30
0.0
 70
   128
 71
   131
 72
   128
 73
   129
  0
VERTEX
  8
breadJam
 10
0.0
 20
0.0
 30
0.0
 70
   128
 71
   125
 72
   126
 73
   131
  0
VERTEX
  8
breadJam
 10
0.0
 20
0.0
 30
0.0
 70
   128
 71
   125
 72
   132
 73
   133
  0
VERTEX
  8
breadJam
 10
0.0
 20
0.0
 30
0.0
 70
   128
 71
   115
 72
   116
 73
   117
  0
VERTEX
  8
breadJam
 10
0.0
 20
0.0
 30
0.0
 70
   128
 71
   50
 72
   107
 73
   106
  0
VERTEX
  8
breadJam
 10
0.0
 20
0.0
 30
0.0
 70
   128
 71
   51
 72
   108
 73
   107
  0
VERTEX
  8
breadJam
 10
0.0
 20
0.0
 30
0.0
 70
   128
 71
   52
 72
   109
 73
   108
  0
VERTEX
  8
breadJam
 10
0.0
 20
0.0
 30
0.0
 70
   128
 71
   53
 72
   110
 73
   109
  0
VERTEX
  8
breadJam
 10
0.0
 20
0.0
 30
0.0
 70
   128
 71
   54
 72
   111
 73
   110
  0
VERTEX
  8
breadJam
 10
0.0
 20
0.0
 30
0.0
 70
   128
 71
   55
 72
   112
 73
   111
  0
VERTEX
  8
breadJam
 10
0.0
 20
0.0
 30
0.0
 70
   128
 71
   56
 72
   113
 73
   112
  0
VERTEX
  8
breadJam
 10
0.0
 20
0.0
 30
0.0
 70
   128
 71
   57
 72
   114
 73
   113
  0
VERTEX
  8
breadJam
 10
0.0
 20
0.0
 30
0.0
 70
   128
 71
   58
 72
   115
 73
   133
  0
VERTEX
  8
breadJam
 10
0.0
 20
0.0
 30
0.0
 70
   128
 71
   76
 72
   116
 73
   115
  0
VERTEX
  8
breadJam
 10
0.0
 20
0.0
 30
0.0
 70
   128
 71
   75
 72
   117
 73
   116
  0
VERTEX
  8
breadJam
 10
0.0
 20
0.0
 30
0.0
 70
   128
 71
   74
 72
   118
 73
   117
  0
VERTEX
  8
breadJam
 10
0.0
 20
0.0
 30
0.0
 70
   128
 71
   73
 72
   119
 73
   118
  0
VERTEX
  8
breadJam
 10
0.0
 20
0.0
 30
0.0
 70
   128
 71
   72
 72
   120
 73
   119
  0
VERTEX
  8
breadJam
 10
0.0
 20
0.0
 30
0.0
 70
   128
 71
   71
 72
   121
 73
   120
  0
VERTEX
  8
breadJam
 10
0.0
 20
0.0
 30
0.0
 70
   128
 71
   70
 72
   122
 73
   121
  0
VERTEX
  8
breadJam
 10
0.0
 20
0.0
 30
0.0
 70
   128
 71
   69
 72
   123
 73
   122
  0
VERTEX
  8
breadJam
 10
0.0
 20
0.0
 30
0.0
 70
   128
 71
   68
 72
   124
 73
   123
  0
VERTEX
  8
breadJam
 10
0.0
 20
0.0
 30
0.0
 70
   128
 71
   67
 72
   125
 73
   124
  0
VERTEX
  8
breadJam
 10
0.0
 20
0.0
 30
0.0
 70
   128
 71
   66
 72
   126
 73
   125
  0
VERTEX
  8
breadJam
 10
0.0
 20
0.0
 30
0.0
 70
   128
 71
   65
 72
   127
 73
   126
  0
VERTEX
  8
breadJam
 10
0.0
 20
0.0
 30
0.0
 70
   128
 71
   64
 72
   128
 73
   127
  0
VERTEX
  8
breadJam
 10
0.0
 20
0.0
 30
0.0
 70
   128
 71
   63
 72
   129
 73
   128
  0
VERTEX
  8
breadJam
 10
0.0
 20
0.0
 30
0.0
 70
   128
 71
   62
 72
   130
 73
   129
  0
VERTEX
  8
breadJam
 10
0.0
 20
0.0
 30
0.0
 70
   128
 71
   61
 72
   131
 73
   130
  0
VERTEX
  8
breadJam
 10
0.0
 20
0.0
 30
0.0
 70
   128
 71
   60
 72
   132
 73
   131
  0
VERTEX
  8
breadJam
 10
0.0
 20
0.0
 30
0.0
 70
   128
 71
   59
 72
   133
 73
   132
  0
VERTEX
  8
breadJam
 10
0.0
 20
0.0
 30
0.0
 70
   128
 71
   1
 72
   21
 73
   2
  0
VERTEX
  8
breadJam
 10
0.0
 20
0.0
 30
0.0
 70
   128
 71
   2
 72
   22
 73
   3
  0
VERTEX
  8
breadJam
 10
0.0
 20
0.0
 30
0.0
 70
   128
 71
   3
 72
   23
 73
   4
  0
VERTEX
  8
breadJam
 10
0.0
 20
0.0
 30
0.0
 70
   128
 71
   4
 72
   24
 73
   5
  0
VERTEX
  8
breadJam
 10
0.0
 20
0.0
 30
0.0
 70
   128
 71
   5
 72
   25
 73
   6
  0
VERTEX
  8
breadJam
 10
0.0
 20
0.0
 30
0.0
 70
   128
 71
   6
 72
   26
 73
   7
  0
VERTEX
  8
breadJam
 10
0.0
 20
0.0
 30
0.0
 70
   128
 71
   7
 72
   27
 73
   8
  0
VERTEX
  8
breadJam
 10
0.0
 20
0.0
 30
0.0
 70
   128
 71
   8
 72
   28
 73
   9
  0
VERTEX
  8
breadJam
 10
0.0
 20
0.0
 30
0.0
 70
   128
 71
   9
 72
   29
 73
   10
  0
VERTEX
  8
breadJam
 10
0.0
 20
0.0
 30
0.0
 70
   128
 71
   10
 72
   30
 73
   11
  0
VERTEX
  8
breadJam
 10
0.0
 20
0.0
 30
0.0
 70
   128
 71
   11
 72
   31
 73
   12
  0
VERTEX
  8
breadJam
 10
0.0
 20
0.0
 30
0.0
 70
   128
 71
   12
 72
   32
 73
   13
  0
VERTEX
  8
breadJam
 10
0.0
 20
0.0
 30
0.0
 70
   128
 71
   13
 72
   33
 73
   14
  0
VERTEX
  8
breadJam
 10
0.0
 20
0.0
 30
0.0
 70
   128
 71
   14
 72
   34
 73
   15
  0
VERTEX
  8
breadJam
 10
0.0
 20
0.0
 30
0.0
 70
   128
 71
   15
 72
   35
 73
   16
  0
VERTEX
  8
breadJam
 10
0.0
 20
0.0
 30
0.0
 70
   128
 71
   16
 72
   36
 73
   17
  0
VERTEX
  8
breadJam
 10
0.0
 20
0.0
 30
0.0
 70
   128
 71
   17
 72
   37
 73
   18
  0
VERTEX
  8
breadJam
 10
0.0
 20
0.0
 30
0.0
 70
   128
 71
   18
 72
   38
 73
   19
  0
VERTEX
  8
breadJam
 10
0.0
 20
0.0
 30
0.0
 70
   128
 71
   19
 72
   20
 73
   1
  0
VERTEX
  8
breadJam
 10
0.0
 20
0.0
 30
0.0
 70
   128
 71
   39
 72
   114
 73
   57
  0
VERTEX
  8
breadJam
 10
0.0
 20
0.0
 30
0.0
 70
   128
 71
   97
 72
   112
 73
   113
  0
VERTEX
  8
breadJam
 10
0.0
 20
0.0
 30
0.0
 70
   128
 71
   40
 72
   96
 73
   39
  0
VERTEX
  8
breadJam
 10
0.0
 20
0.0
 30
0.0
 70
   128
 71
   41
 72
   97
 73
   40
  0
VERTEX
  8
breadJam
 10
0.0
 20
0.0
 30
0.0
 70
   128
 71
   105
 72
   99
 73
   104
  0
VERTEX
  8
breadJam
 10
0.0
 20
0.0
 30
0.0
 70
   128
 71
   105
 72
   111
 73
   112
  0
VERTEX
  8
breadJam
 10
0.0
 20
0.0
 30
0.0
 70
   128
 71
   111
 72
   107
 73
   110
  0
VERTEX
  8
breadJam
 10
0.0
 20
0.0
 30
0.0
 70
   128
 71
   103
 72
   99
 73
   102
  0
VERTEX
  8
breadJam
 10
0.0
 20
0.0
 30
0.0
 70
   128
 71
   42
 72
   98
 73
   41
  0
VERTEX
  8
breadJam
 10
0.0
 20
0.0
 30
0.0
 70
   128
 71
   96
 72
   113
 73
   114
  0
VERTEX
  8
breadJam
 10
0.0
 20
0.0
 30
0.0
 70
   128
 71
   110
 72
   108
 73
   109
  0
VERTEX
  8
breadJam
 10
0.0
 20
0.0
 30
0.0
 70
   128
 71
   43
 72
   99
 73
   42
  0
VERTEX
  8
breadJam
 10
0.0
 20
0.0
 30
0.0
 70
   128
 71
   99
 72
   101
 73
   102
  0
VERTEX
  8
breadJam
 10
0.0
 20
0.0
 30
0.0
 70
   128
 71
   44
 72
   100
 73
   43
  0
VERTEX
  8
breadJam
 10
0.0
 20
0.0
 30
0.0
 70
   128
 71
   45
 72
   101
 73
   44
  0
VERTEX
  8
breadJam
 10
0.0
 20
0.0
 30
0.0
 70
   128
 71
   46
 72
   102
 73
   45
  0
VERTEX
  8
breadJam
 10
0.0
 20
0.0
 30
0.0
 70
   128
 71
   133
 72
   118
 73
   125
  0
VERTEX
  8
breadJam
 10
0.0
 20
0.0
 30
0.0
 70
   128
 71
   125
 72
   119
 73
   124
  0
VERTEX
  8
breadJam
 10
0.0
 20
0.0
 30
0.0
 70
   128
 71
   47
 72
   103
 73
   46
  0
VERTEX
  8
breadJam
 10
0.0
 20
0.0
 30
0.0
 70
   128
 71
   119
 72
   123
 73
   124
  0
VERTEX
  8
breadJam
 10
0.0
 20
0.0
 30
0.0
 70
   128
 71
   48
 72
   104
 73
   47
  0
VERTEX
  8
breadJam
 10
0.0
 20
0.0
 30
0.0
 70
   128
 71
   49
 72
   105
 73
   48
  0
VERTEX
  8
breadJam
 10
0.0
 20
0.0
 30
0.0
 70
   128
 71
   120
 72
   122
 73
   123
  0
VERTEX
  8
breadJam
 10
0.0
 20
0.0
 30
0.0
 70
   128
 71
   131
 72
   127
 73
   128
  0
VERTEX
  8
breadJam
 10
0.0
 20
0.0
 30
0.0
 70
   128
 71
   131
 72
   129
 73
   130
  0
VERTEX
  8
breadJam
 10
0.0
 20
0.0
 30
0.0
 70
   128
 71
   125
 72
   131
 73
   132
  0
VERTEX
  8
breadJam
 10
0.0
 20
0.0
 30
0.0
 70
   128
 71
   115
 72
   117
 73
   133
  0
VERTEX
  8
breadJam
 10
0.0
 20
0.0
 30
0.0
 70
   128
 71
   50
 72
   106
 73
   49
  0
VERTEX
  8
breadJam
 10
0.0
 20
0.0
 30
0.0
 70
   128
 71
   51
 72
   107
 73
   50
  0
VERTEX
  8
breadJam
 10
0.0
 20
0.0
 30
0.0
 70
   128
 71
   52
 72
   108
 73
   51
  0
VERTEX
  8
breadJam
 10
0.0
 20
0.0
 30
0.0
 70
   128
 71
   53
 72
   109
 73
   52
  0
VERTEX
  8
breadJam
 10
0.0
 20
0.0
 30
0.0
 70
   128
 71
   54
 72
   110
 73
   53
  0
VERTEX
  8
breadJam
 10
0.0
 20
0.0
 30
0.0
 70
   128
 71
   55
 72
   111
 73
   54
  0
VERTEX
  8
breadJam
 10
0.0
 20
0.0
 30
0.0
 70
   128
 71
   56
 72
   112
 73
   55
  0
VERTEX
  8
breadJam
 10
0.0
 20
0.0
 30
0.0
 70
   128
 71
   57
 72
   113
 73
   56
  0
VERTEX
  8
breadJam
 10
0.0
 20
0.0
 30
0.0
 70
   128
 71
   58
 72
   133
 73
   59
  0
VERTEX
  8
breadJam
 10
0.0
 20
0.0
 30
0.0
 70
   128
 71
   76
 72
   115
 73
   58
  0
VERTEX
  8
breadJam
 10
0.0
 20
0.0
 30
0.0
 70
   128
 71
   75
 72
   116
 73
   76
  0
VERTEX
  8
breadJam
 10
0.0
 20
0.0
 30
0.0
 70
   128
 71
   74
 72
   117
 73
   75
  0
VERTEX
  8
breadJam
 10
0.0
 20
0.0
 30
0.0
 70
   128
 71
   73
 72
   118
 73
   74
  0
VERTEX
  8
breadJam
 10
0.0
 20
0.0
 30
0.0
 70
   128
 71
   72
 72
   119
 73
   73
  0
VERTEX
  8
breadJam
 10
0.0
 20
0.0
 30
0.0
 70
   128
 71
   71
 72
   120
 73
   72
  0
VERTEX
  8
breadJam
 10
0.0
 20
0.0
 30
0.0
 70
   128
 71
   70
 72
   121
 73
   71
  0
VERTEX
  8
breadJam
 10
0.0
 20
0.0
 30
0.0
 70
   128
 71
   69
 72
   122
 73
   70
  0
VERTEX
  8
breadJam
 10
0.0
 20
0.0
 30
0.0
 70
   128
 71
   68
 72
   123
 73
   69
  0
VERTEX
  8
breadJam
 10
0.0
 20
0.0
 30
0.0
 70
   128
 71
   67
 72
   124
 73
   68
  0
VERTEX
  8
breadJam
 10
0.0
 20
0.0
 30
0.0
 70
   128
 71
   66
 72
   125
 73
   67
  0
VERTEX
  8
breadJam
 10
0.0
 20
0.0
 30
0.0
 70
   128
 71
   65
 72
   126
 73
   66
  0
VERTEX
  8
breadJam
 10
0.0
 20
0.0
 30
0.0
 70
   128
 71
   64
 72
   127
 73
   65
  0
VERTEX
  8
breadJam
 10
0.0
 20
0.0
 30
0.0
 70
   128
 71
   63
 72
   128
 73
   64
  0
VERTEX
  8
breadJam
 10
0.0
 20
0.0
 30
0.0
 70
   128
 71
   62
 72
   129
 73
   63
  0
VERTEX
  8
breadJam
 10
0.0
 20
0.0
 30
0.0
 70
   128
 71
   61
 72
   130
 73
   62
  0
VERTEX
  8
breadJam
 10
0.0
 20
0.0
 30
0.0
 70
   128
 71
   60
 72
   131
 73
   61
  0
VERTEX
  8
breadJam
 10
0.0
 20
0.0
 30
0.0
 70
   128
 71
   59
 72
   132
 73
   60
  0
SEQEND
  0
POLYLINE
  8
jam
 66
   1
 10
0.0
 20
0.0
 30
0.0
 70
   64
 71
   16
 72
   28
  0
VERTEX
  8
jam
 10
-56.884554
 20
16.295702
 30
54.311220
 70
   192
  0
VERTEX
  8
jam
 10
-56.884554
 20
23.781926
 30
54.311220
 70
   192
  0
VERTEX
  8
jam
 10
56.884554
 20
16.295702
 30
54.311220
 70
   192
  0
VERTEX
  8
jam
 10
56.884554
 20
23.781926
 30
54.311220
 70
   192
  0
VERTEX
  8
jam
 10
40.407808
 20
16.295702
 30
-56.116788
 70
   192
  0
VERTEX
  8
jam
 10
40.407808
 20
23.781926
 30
-56.116788
 70
   192
  0
VERTEX
  8
jam
 10
-55.912212
 20
16.295702
 30
-38.069592
 70
   192
  0
VERTEX
  8
jam
 10
-55.912212
 20
23.781926
 30
-38.069592
 70
   192
  0
VERTEX
  8
jam
 10
-56.884554
 20
16.295702
 30
0.000000
 70
   192
  0
VERTEX
  8
jam
 10
-56.884554
 20
23.781926
 30
0.000000
 70
   192
  0
VERTEX
  8
jam
 10
56.884554
 20
16.295702
 30
0.000000
 70
   192
  0
VERTEX
  8
jam
 10
56.884554
 20
23.781926
 30
0.000000
 70
   192
  0
VERTEX
  8
jam
 10
-48.939044
 20
16.295702
 30
35.826214
 70
   192
  0
VERTEX
  8
jam
 10
-48.939044
 20
23.781926
 30
35.826214
 70
   192
  0
VERTEX
  8
jam
 10
56.884554
 20
16.295702
 30
35.826214
 70
   192
  0
VERTEX
  8
jam
 10
56.884554
 20
23.781926
 30
35.826214
 70
   192
  0
VERTEX
  8
jam
 10
0.0
 20
0.0
 30
0.0
 70
   128
 71
   1
 72
   2
 73
   4
  0
VERTEX
  8
jam
 10
0.0
 20
0.0
 30
0.0
 70
   128
 71
   12
 72
   6
 73
   5
  0
VERTEX
  8
jam
 10
0.0
 20
0.0
 30
0.0
 70
   128
 71
   5
 72
   6
 73
   8
  0
VERTEX
  8
jam
 10
0.0
 20
0.0
 30
0.0
 70
   128
 71
   14
 72
   2
 73
   1
  0
VERTEX
  8
jam
 10
0.0
 20
0.0
 30
0.0
 70
   128
 71
   2
 72
   14
 73
   16
  0
VERTEX
  8
jam
 10
0.0
 20
0.0
 30
0.0
 70
   128
 71
   7
 72
   9
 73
   11
  0
VERTEX
  8
jam
 10
0.0
 20
0.0
 30
0.0
 70
   128
 71
   11
 72
   15
 73
   16
  0
VERTEX
  8
jam
 10
0.0
 20
0.0
 30
0.0
 70
   128
 71
   9
 72
   7
 73
   8
  0
VERTEX
  8
jam
 10
0.0
 20
0.0
 30
0.0
 70
   128
 71
   10
 72
   8
 73
   6
  0
VERTEX
  8
jam
 10
0.0
 20
0.0
 30
0.0
 70
   128
 71
   9
 72
   13
 73
   15
  0
VERTEX
  8
jam
 10
0.0
 20
0.0
 30
0.0
 70
   128
 71
   13
 72
   9
 73
   10
  0
VERTEX
  8
jam
 10
0.0
 20
0.0
 30
0.0
 70
   128
 71
   14
 72
   10
 73
   12
  0
VERTEX
  8
jam
 10
0.0
 20
0.0
 30
0.0
 70
   128
 71
   15
 72
   3
 73
   4
  0
VERTEX
  8
jam
 10
0.0
 20
0.0
 30
0.0
 70
   128
 71
   13
 72
   1
 73
   3
  0
VERTEX
  8
jam
 10
0.0
 20
0.0
 30
0.0
 70
   128
 71
   1
 72
   4
 73
   3
  0
VERTEX
  8
jam
 10
0.0
 20
0.0
 30
0.0
 70
   128
 71
   12
 72
   5
 73
   11
  0
VERTEX
  8
jam
 10
0.0
 20
0.0
 30
0.0
 70
   128
 71
   5
 72
   8
 73
   7
  0
VERTEX
  8
jam
 10
0.0
 20
0.0
 30
0.0
 70
   128
 71
   14
 72
   1
 73
   13
  0
VERTEX
  8
jam
 10
0.0
 20
0.0
 30
0.0
 70
   128
 71
   2
 72
   16
 73
   4
  0
VERTEX
  8
jam
 10
0.0
 20
0.0
 30
0.0
 70
   128
 71
   7
 72
   11
 73
   5
  0
VERTEX
  8
jam
 10
0.0
 20
0.0
 30
0.0
 70
   128
 71
   11
 72
   16
 73
   12
  0
VERTEX
  8
jam
 10
0.0
 20
0.0
 30
0.0
 70
   128
 71
   9
 72
   8
 73
   10
  0
VERTEX
  8
jam
 10
0.0
 20
0.0
 30
0.0
 70
   128
 71
   10
 72
   6
 73
   12
  0
VERTEX
  8
jam
 10
0.0
 20
0.0
 30
0.0
 70
   128
 71
   9
 72
   15
 73
   11
  0
VERTEX
  8
jam
 10
0.0
 20
0.0
 30
0.0
 70
   128
 71
   13
 72
   10
 73
   14
  0
VERTEX
  8
jam
 10
0.0
 20
0.0
 30
0.0
 70
   128
 71
   14
 72
   12
 73
   16
  0
VERTEX
  8
jam
 10
0.0
 20
0.0
 30
0.0
 70
   128
 71
   15
 72
   4
 73
   16
  0
VERTEX
  8
jam
 10
0.0
 20
0.0
 30
0.0
 70
   128
 71
   13
 72
   3
 73
   15
  0
SEQEND
  0
ENDSEC
  0
EOF
