999
FBX AutoCAD (*.DXF) exporter
  0
SECTION
  2
HEADER
  9
$ACADVER
  1
AC1008
  9
$UCSORG
 10
0.0
 20
0.0
 30
0.0
  9
$UCSXDIR
 10
1.0
 20
0.0
 30
0.0
  9
$TILEMODE
 70
   1
  9
$UCSYDIR
 10
0.0
 20
1.0
 30
0.0
  0
ENDSEC
  0
SECTION
  2
TABLES
  0
TABLE
  2
LTYPE
 70
   1
  0
LTYPE
  2
CONTINUOUS
 70
   64
  3
Solid line
 72
   65
 73
   0
 40
0.0
  0
ENDTAB
  0
TABLE
  2
LAYER
 70
   1
  0
LAYER
  2
fish
 70
   0
 62
   250
  6
CONTINUOUS
  0
ENDTAB
  0
ENDSEC
  0
SECTION
  2
BLOCKS
  0
ENDSEC
  0
SECTION
  2
ENTITIES
  0
POLYLINE
  8
fish
 66
   1
 10
0.0
 20
0.0
 30
0.0
 70
   64
 71
   148
 72
   292
  0
VERTEX
  8
fish
 10
-131.242040
 20
20.116006
 30
-32.047109
 70
   192
  0
VERTEX
  8
fish
 10
-94.163869
 20
20.116006
 30
-17.141477
 70
   192
  0
VERTEX
  8
fish
 10
-66.263463
 20
20.116006
 30
-10.433943
 70
   192
  0
VERTEX
  8
fish
 10
-23.678634
 20
20.116006
 30
-21.240526
 70
   192
  0
VERTEX
  8
fish
 10
-5.323104
 20
20.116006
 30
-24.594293
 70
   192
  0
VERTEX
  8
fish
 10
-7.309682
 20
20.131999
 30
-37.627202
 70
   192
  0
VERTEX
  8
fish
 10
-5.690214
 20
20.150305
 30
-49.933868
 70
   192
  0
VERTEX
  8
fish
 10
7.742396
 20
20.131999
 30
-38.600094
 70
   192
  0
VERTEX
  8
fish
 10
24.779966
 20
20.116006
 30
-32.792391
 70
   192
  0
VERTEX
  8
fish
 10
67.731906
 20
20.116006
 30
-27.202779
 70
   192
  0
VERTEX
  8
fish
 10
115.823395
 20
20.116006
 30
-14.905632
 70
   192
  0
VERTEX
  8
fish
 10
135.280256
 20
20.116006
 30
-1.490563
 70
   192
  0
VERTEX
  8
fish
 10
134.546035
 20
20.116006
 30
3.726408
 70
   192
  0
VERTEX
  8
fish
 10
127.203823
 20
20.116006
 30
6.707534
 70
   192
  0
VERTEX
  8
fish
 10
135.280256
 20
20.116006
 30
7.825457
 70
   192
  0
VERTEX
  8
fish
 10
132.343372
 20
20.116006
 30
12.297147
 70
   192
  0
VERTEX
  8
fish
 10
107.012740
 20
20.116006
 30
26.830138
 70
   192
  0
VERTEX
  8
fish
 10
81.314998
 20
20.116006
 30
36.518799
 70
   192
  0
VERTEX
  8
fish
 10
57.397772
 20
20.116006
 30
39.189178
 70
   192
  0
VERTEX
  8
fish
 10
28.451072
 20
20.116006
 30
40.617848
 70
   192
  0
VERTEX
  8
fish
 10
7.667902
 20
20.147606
 30
49.933868
 70
   192
  0
VERTEX
  8
fish
 10
0.183555
 20
20.116006
 30
35.773517
 70
   192
  0
VERTEX
  8
fish
 10
-34.324841
 20
20.116006
 30
24.966934
 70
   192
  0
VERTEX
  8
fish
 10
-68.833238
 20
20.116006
 30
17.141477
 70
   192
  0
VERTEX
  8
fish
 10
-81.314998
 20
20.116006
 30
18.259399
 70
   192
  0
VERTEX
  8
fish
 10
-135.280256
 20
20.116006
 30
31.674468
 70
   192
  0
VERTEX
  8
fish
 10
-134.913146
 20
20.116006
 30
24.594293
 70
   192
  0
VERTEX
  8
fish
 10
-120.962943
 20
20.116006
 30
4.844330
 70
   192
  0
VERTEX
  8
fish
 10
-120.962943
 20
20.116006
 30
-2.235845
 70
   192
  0
VERTEX
  8
fish
 10
-131.976261
 20
20.116006
 30
-27.575419
 70
   192
  0
VERTEX
  8
fish
 10
-115.938198
 20
28.168454
 30
-28.310167
 70
   192
  0
VERTEX
  8
fish
 10
-20.917521
 20
40.380299
 30
-18.763715
 70
   192
  0
VERTEX
  8
fish
 10
-4.702388
 20
36.047871
 30
-21.783497
 70
   192
  0
VERTEX
  8
fish
 10
-6.457316
 20
32.016719
 30
-33.239002
 70
   192
  0
VERTEX
  8
fish
 10
-5.026691
 20
27.898535
 30
-44.056163
 70
   192
  0
VERTEX
  8
fish
 10
6.839573
 20
31.971128
 30
-34.094143
 70
   192
  0
VERTEX
  8
fish
 10
21.890429
 20
31.923441
 30
-28.987298
 70
   192
  0
VERTEX
  8
fish
 10
59.833839
 20
35.237493
 30
-24.030723
 70
   192
  0
VERTEX
  8
fish
 10
102.317486
 20
33.105095
 30
-13.167520
 70
   192
  0
VERTEX
  8
fish
 10
71.833037
 20
35.953358
 30
32.329561
 70
   192
  0
VERTEX
  8
fish
 10
50.704746
 20
35.657750
 30
34.663395
 70
   192
  0
VERTEX
  8
fish
 10
0.162151
 20
38.091089
 30
32.029925
 70
   192
  0
VERTEX
  8
fish
 10
-30.322298
 20
37.726233
 30
22.318124
 70
   192
  0
VERTEX
  8
fish
 10
-119.505527
 20
28.168454
 30
27.980979
 70
   192
  0
VERTEX
  8
fish
 10
-119.181224
 20
28.168454
 30
21.726407
 70
   192
  0
VERTEX
  8
fish
 10
-106.857724
 20
28.168454
 30
-1.975128
 70
   192
  0
VERTEX
  8
fish
 10
-116.586803
 20
28.168454
 30
-24.359911
 70
   192
  0
VERTEX
  8
fish
 10
-83.183630
 20
31.072876
 30
-15.142648
 70
   192
  0
VERTEX
  8
fish
 10
-58.536629
 20
31.072876
 30
-9.217264
 70
   192
  0
VERTEX
  8
fish
 10
119.505527
 20
31.840404
 30
-1.316752
 70
   192
  0
VERTEX
  8
fish
 10
118.856922
 20
31.840404
 30
3.291880
 70
   192
  0
VERTEX
  8
fish
 10
112.370869
 20
31.840404
 30
5.925384
 70
   192
  0
VERTEX
  8
fish
 10
119.505527
 20
31.840404
 30
6.912948
 70
   192
  0
VERTEX
  8
fish
 10
116.911106
 20
31.840404
 30
10.863204
 70
   192
  0
VERTEX
  8
fish
 10
94.534223
 20
34.265218
 30
23.389513
 70
   192
  0
VERTEX
  8
fish
 10
25.133455
 20
37.537271
 30
36.260724
 70
   192
  0
VERTEX
  8
fish
 10
6.319451
 20
29.562352
 30
44.405659
 70
   192
  0
VERTEX
  8
fish
 10
-60.806747
 20
31.072876
 30
15.142648
 70
   192
  0
VERTEX
  8
fish
 10
-71.833037
 20
31.072876
 30
16.130211
 70
   192
  0
VERTEX
  8
fish
 10
-106.857724
 20
28.168454
 30
4.279444
 70
   192
  0
VERTEX
  8
fish
 10
-115.938198
 20
12.211845
 30
-28.310167
 70
   192
  0
VERTEX
  8
fish
 10
-20.917521
 20
-0.000000
 30
-18.763715
 70
   192
  0
VERTEX
  8
fish
 10
-4.702388
 20
4.332428
 30
-21.783497
 70
   192
  0
VERTEX
  8
fish
 10
-6.457316
 20
8.363580
 30
-33.239002
 70
   192
  0
VERTEX
  8
fish
 10
-5.026691
 20
12.481764
 30
-44.056163
 70
   192
  0
VERTEX
  8
fish
 10
6.839573
 20
8.409171
 30
-34.094143
 70
   192
  0
VERTEX
  8
fish
 10
21.890429
 20
8.456858
 30
-28.987298
 70
   192
  0
VERTEX
  8
fish
 10
59.833839
 20
5.142806
 30
-24.030723
 70
   192
  0
VERTEX
  8
fish
 10
102.317486
 20
7.275204
 30
-13.167520
 70
   192
  0
VERTEX
  8
fish
 10
71.833037
 20
4.426941
 30
32.329561
 70
   192
  0
VERTEX
  8
fish
 10
50.704746
 20
4.722549
 30
34.663395
 70
   192
  0
VERTEX
  8
fish
 10
0.162151
 20
2.289209
 30
32.029925
 70
   192
  0
VERTEX
  8
fish
 10
-30.322298
 20
2.654066
 30
22.318124
 70
   192
  0
VERTEX
  8
fish
 10
-119.505527
 20
12.211845
 30
27.980979
 70
   192
  0
VERTEX
  8
fish
 10
-119.181224
 20
12.211845
 30
21.726407
 70
   192
  0
VERTEX
  8
fish
 10
-106.857724
 20
12.211845
 30
-1.975128
 70
   192
  0
VERTEX
  8
fish
 10
-116.586803
 20
12.211845
 30
-24.359911
 70
   192
  0
VERTEX
  8
fish
 10
-83.183630
 20
9.307423
 30
-15.142648
 70
   192
  0
VERTEX
  8
fish
 10
-58.536629
 20
9.307423
 30
-9.217264
 70
   192
  0
VERTEX
  8
fish
 10
119.505527
 20
8.539894
 30
-1.316752
 70
   192
  0
VERTEX
  8
fish
 10
118.856922
 20
8.539894
 30
3.291880
 70
   192
  0
VERTEX
  8
fish
 10
112.370869
 20
8.539894
 30
5.925384
 70
   192
  0
VERTEX
  8
fish
 10
119.505527
 20
8.539894
 30
6.912948
 70
   192
  0
VERTEX
  8
fish
 10
116.911106
 20
8.539894
 30
10.863204
 70
   192
  0
VERTEX
  8
fish
 10
94.534223
 20
6.115081
 30
23.389513
 70
   192
  0
VERTEX
  8
fish
 10
25.133455
 20
2.843028
 30
36.260724
 70
   192
  0
VERTEX
  8
fish
 10
6.319451
 20
10.817947
 30
44.405659
 70
   192
  0
VERTEX
  8
fish
 10
-60.806747
 20
9.307423
 30
15.142648
 70
   192
  0
VERTEX
  8
fish
 10
-71.833037
 20
9.307423
 30
16.130211
 70
   192
  0
VERTEX
  8
fish
 10
-106.857724
 20
12.211845
 30
4.279444
 70
   192
  0
VERTEX
  8
fish
 10
-126.106049
 20
16.181709
 30
-30.786086
 70
   192
  0
VERTEX
  8
fish
 10
-92.016223
 20
16.181709
 30
-16.745209
 70
   192
  0
VERTEX
  8
fish
 10
-64.759723
 20
16.181709
 30
-10.192476
 70
   192
  0
VERTEX
  8
fish
 10
-23.641232
 20
16.181709
 30
-21.183402
 70
   192
  0
VERTEX
  8
fish
 10
-5.334321
 20
16.181709
 30
-24.539063
 70
   192
  0
VERTEX
  8
fish
 10
-7.306566
 20
17.046304
 30
-37.478915
 70
   192
  0
VERTEX
  8
fish
 10
-5.686137
 20
18.035992
 30
-49.660955
 70
   192
  0
VERTEX
  8
fish
 10
7.685757
 20
17.046304
 30
-38.443327
 70
   192
  0
VERTEX
  8
fish
 10
24.668406
 20
16.181709
 30
-32.681826
 70
   192
  0
VERTEX
  8
fish
 10
67.485481
 20
16.181709
 30
-27.113401
 70
   192
  0
VERTEX
  8
fish
 10
114.953417
 20
16.181709
 30
-14.796294
 70
   192
  0
VERTEX
  8
fish
 10
132.528858
 20
16.181709
 30
-1.459864
 70
   192
  0
VERTEX
  8
fish
 10
131.809431
 20
16.181709
 30
3.651986
 70
   192
  0
VERTEX
  8
fish
 10
-116.423380
 20
24.045315
 30
-2.150800
 70
   192
  0
VERTEX
  8
fish
 10
132.528858
 20
16.181709
 30
7.668441
 70
   192
  0
VERTEX
  8
fish
 10
129.651150
 20
16.181709
 30
12.050027
 70
   192
  0
VERTEX
  8
fish
 10
105.594969
 20
16.181709
 30
26.390738
 70
   192
  0
VERTEX
  8
fish
 10
80.529609
 20
16.181709
 30
36.196204
 70
   192
  0
VERTEX
  8
fish
 10
56.802376
 20
16.181709
 30
38.812429
 70
   192
  0
VERTEX
  8
fish
 10
28.238956
 20
16.181709
 30
40.441771
 70
   192
  0
VERTEX
  8
fish
 10
7.546629
 20
17.890083
 30
49.595082
 70
   192
  0
VERTEX
  8
fish
 10
0.156971
 20
16.181709
 30
35.668229
 70
   192
  0
VERTEX
  8
fish
 10
-34.135534
 20
16.181709
 30
24.872696
 70
   192
  0
VERTEX
  8
fish
 10
-67.270190
 20
16.181709
 30
16.746538
 70
   192
  0
VERTEX
  8
fish
 10
-79.463887
 20
16.181709
 30
17.838660
 70
   192
  0
VERTEX
  8
fish
 10
-129.985449
 20
16.181709
 30
30.429429
 70
   192
  0
VERTEX
  8
fish
 10
-129.632777
 20
16.181709
 30
23.627705
 70
   192
  0
VERTEX
  8
fish
 10
-116.231212
 20
16.181709
 30
4.654476
 70
   192
  0
VERTEX
  8
fish
 10
-116.231212
 20
16.181709
 30
-2.147248
 70
   192
  0
VERTEX
  8
fish
 10
-126.811395
 20
16.181709
 30
-26.490260
 70
   192
  0
VERTEX
  8
fish
 10
-126.314547
 20
24.045315
 30
-30.836997
 70
   192
  0
VERTEX
  8
fish
 10
-92.098463
 20
24.045315
 30
-16.760180
 70
   192
  0
VERTEX
  8
fish
 10
-64.817596
 20
24.045315
 30
-10.201588
 70
   192
  0
VERTEX
  8
fish
 10
-23.647672
 20
24.045315
 30
-21.189179
 70
   192
  0
VERTEX
  8
fish
 10
-5.335773
 20
24.045315
 30
-24.545635
 70
   192
  0
VERTEX
  8
fish
 10
-7.308754
 20
23.213779
 30
-37.490182
 70
   192
  0
VERTEX
  8
fish
 10
-5.688007
 20
22.261935
 30
-49.677520
 70
   192
  0
VERTEX
  8
fish
 10
7.688092
 20
23.213779
 30
-38.454980
 70
   192
  0
VERTEX
  8
fish
 10
24.675580
 20
24.045315
 30
-32.691273
 70
   192
  0
VERTEX
  8
fish
 10
67.504779
 20
24.045315
 30
-27.121151
 70
   192
  0
VERTEX
  8
fish
 10
114.997310
 20
24.045315
 30
-14.801943
 70
   192
  0
VERTEX
  8
fish
 10
132.632563
 20
24.045315
 30
-1.461007
 70
   192
  0
VERTEX
  8
fish
 10
131.912574
 20
24.045315
 30
3.654843
 70
   192
  0
VERTEX
  8
fish
 10
-127.021059
 20
24.045315
 30
-26.534068
 70
   192
  0
VERTEX
  8
fish
 10
132.632563
 20
24.045315
 30
7.674439
 70
   192
  0
VERTEX
  8
fish
 10
129.752604
 20
24.045315
 30
12.059454
 70
   192
  0
VERTEX
  8
fish
 10
105.652219
 20
24.045315
 30
26.406523
 70
   192
  0
VERTEX
  8
fish
 10
80.564734
 20
24.045315
 30
36.211722
 70
   192
  0
VERTEX
  8
fish
 10
56.828070
 20
24.045315
 30
38.829803
 70
   192
  0
VERTEX
  8
fish
 10
28.249223
 20
24.045315
 30
40.455255
 70
   192
  0
VERTEX
  8
fish
 10
7.551301
 20
22.402266
 30
49.614236
 70
   192
  0
VERTEX
  8
fish
 10
0.157033
 20
24.045315
 30
35.679154
 70
   192
  0
VERTEX
  8
fish
 10
-34.147672
 20
24.045315
 30
24.880729
 70
   192
  0
VERTEX
  8
fish
 10
-67.330308
 20
24.045315
 30
16.761508
 70
   192
  0
VERTEX
  8
fish
 10
-79.534906
 20
24.045315
 30
17.854607
 70
   192
  0
VERTEX
  8
fish
 10
-130.200363
 20
24.045315
 30
30.479749
 70
   192
  0
VERTEX
  8
fish
 10
-129.847107
 20
24.045315
 30
23.666777
 70
   192
  0
VERTEX
  8
fish
 10
-116.423380
 20
24.045315
 30
4.662172
 70
   192
  0
VERTEX
  8
fish
 10
0.0
 20
0.0
 30
0.0
 70
   128
 71
   122
 72
   48
 73
   31
  0
VERTEX
  8
fish
 10
0.0
 20
0.0
 30
0.0
 70
   128
 71
   2
 72
   3
 73
   123
  0
VERTEX
  8
fish
 10
0.0
 20
0.0
 30
0.0
 70
   128
 71
   124
 72
   32
 73
   49
  0
VERTEX
  8
fish
 10
0.0
 20
0.0
 30
0.0
 70
   128
 71
   4
 72
   5
 73
   125
  0
VERTEX
  8
fish
 10
0.0
 20
0.0
 30
0.0
 70
   128
 71
   126
 72
   34
 73
   33
  0
VERTEX
  8
fish
 10
0.0
 20
0.0
 30
0.0
 70
   128
 71
   127
 72
   35
 73
   34
  0
VERTEX
  8
fish
 10
0.0
 20
0.0
 30
0.0
 70
   128
 71
   7
 72
   8
 73
   128
  0
VERTEX
  8
fish
 10
0.0
 20
0.0
 30
0.0
 70
   128
 71
   129
 72
   37
 73
   36
  0
VERTEX
  8
fish
 10
0.0
 20
0.0
 30
0.0
 70
   128
 71
   9
 72
   10
 73
   130
  0
VERTEX
  8
fish
 10
0.0
 20
0.0
 30
0.0
 70
   128
 71
   131
 72
   39
 73
   38
  0
VERTEX
  8
fish
 10
0.0
 20
0.0
 30
0.0
 70
   128
 71
   132
 72
   50
 73
   39
  0
VERTEX
  8
fish
 10
0.0
 20
0.0
 30
0.0
 70
   128
 71
   133
 72
   51
 73
   50
  0
VERTEX
  8
fish
 10
0.0
 20
0.0
 30
0.0
 70
   128
 71
   13
 72
   14
 73
   133
  0
VERTEX
  8
fish
 10
0.0
 20
0.0
 30
0.0
 70
   128
 71
   14
 72
   135
 73
   53
  0
VERTEX
  8
fish
 10
0.0
 20
0.0
 30
0.0
 70
   128
 71
   15
 72
   16
 73
   136
  0
VERTEX
  8
fish
 10
0.0
 20
0.0
 30
0.0
 70
   128
 71
   137
 72
   55
 73
   54
  0
VERTEX
  8
fish
 10
0.0
 20
0.0
 30
0.0
 70
   128
 71
   17
 72
   18
 73
   138
  0
VERTEX
  8
fish
 10
0.0
 20
0.0
 30
0.0
 70
   128
 71
   139
 72
   41
 73
   40
  0
VERTEX
  8
fish
 10
0.0
 20
0.0
 30
0.0
 70
   128
 71
   140
 72
   56
 73
   41
  0
VERTEX
  8
fish
 10
0.0
 20
0.0
 30
0.0
 70
   128
 71
   20
 72
   21
 73
   141
  0
VERTEX
  8
fish
 10
0.0
 20
0.0
 30
0.0
 70
   128
 71
   142
 72
   42
 73
   57
  0
VERTEX
  8
fish
 10
0.0
 20
0.0
 30
0.0
 70
   128
 71
   22
 72
   23
 73
   143
  0
VERTEX
  8
fish
 10
0.0
 20
0.0
 30
0.0
 70
   128
 71
   144
 72
   58
 73
   43
  0
VERTEX
  8
fish
 10
0.0
 20
0.0
 30
0.0
 70
   128
 71
   145
 72
   59
 73
   58
  0
VERTEX
  8
fish
 10
0.0
 20
0.0
 30
0.0
 70
   128
 71
   146
 72
   44
 73
   59
  0
VERTEX
  8
fish
 10
0.0
 20
0.0
 30
0.0
 70
   128
 71
   26
 72
   27
 73
   147
  0
VERTEX
  8
fish
 10
0.0
 20
0.0
 30
0.0
 70
   128
 71
   148
 72
   60
 73
   45
  0
VERTEX
  8
fish
 10
0.0
 20
0.0
 30
0.0
 70
   128
 71
   28
 72
   29
 73
   104
  0
VERTEX
  8
fish
 10
0.0
 20
0.0
 30
0.0
 70
   128
 71
   134
 72
   47
 73
   46
  0
VERTEX
  8
fish
 10
0.0
 20
0.0
 30
0.0
 70
   128
 71
   30
 72
   1
 73
   121
  0
VERTEX
  8
fish
 10
0.0
 20
0.0
 30
0.0
 70
   128
 71
   47
 72
   31
 73
   48
  0
VERTEX
  8
fish
 10
0.0
 20
0.0
 30
0.0
 70
   128
 71
   59
 72
   48
 73
   49
  0
VERTEX
  8
fish
 10
0.0
 20
0.0
 30
0.0
 70
   128
 71
   52
 72
   53
 73
   54
  0
VERTEX
  8
fish
 10
0.0
 20
0.0
 30
0.0
 70
   128
 71
   56
 72
   57
 73
   42
  0
VERTEX
  8
fish
 10
0.0
 20
0.0
 30
0.0
 70
   128
 71
   44
 72
   45
 73
   60
  0
VERTEX
  8
fish
 10
0.0
 20
0.0
 30
0.0
 70
   128
 71
   34
 72
   35
 73
   36
  0
VERTEX
  8
fish
 10
0.0
 20
0.0
 30
0.0
 70
   128
 71
   33
 72
   34
 73
   36
  0
VERTEX
  8
fish
 10
0.0
 20
0.0
 30
0.0
 70
   128
 71
   49
 72
   32
 73
   43
  0
VERTEX
  8
fish
 10
0.0
 20
0.0
 30
0.0
 70
   128
 71
   38
 72
   39
 73
   55
  0
VERTEX
  8
fish
 10
0.0
 20
0.0
 30
0.0
 70
   128
 71
   52
 72
   39
 73
   50
  0
VERTEX
  8
fish
 10
0.0
 20
0.0
 30
0.0
 70
   128
 71
   60
 72
   48
 73
   59
  0
VERTEX
  8
fish
 10
0.0
 20
0.0
 30
0.0
 70
   128
 71
   39
 72
   52
 73
   55
  0
VERTEX
  8
fish
 10
0.0
 20
0.0
 30
0.0
 70
   128
 71
   32
 72
   33
 73
   42
  0
VERTEX
  8
fish
 10
0.0
 20
0.0
 30
0.0
 70
   128
 71
   48
 72
   60
 73
   46
  0
VERTEX
  8
fish
 10
0.0
 20
0.0
 30
0.0
 70
   128
 71
   38
 72
   40
 73
   41
  0
VERTEX
  8
fish
 10
0.0
 20
0.0
 30
0.0
 70
   128
 71
   42
 72
   33
 73
   37
  0
VERTEX
  8
fish
 10
0.0
 20
0.0
 30
0.0
 70
   128
 71
   37
 72
   38
 73
   41
  0
VERTEX
  8
fish
 10
0.0
 20
0.0
 30
0.0
 70
   128
 71
   1
 72
   91
 73
   92
  0
VERTEX
  8
fish
 10
0.0
 20
0.0
 30
0.0
 70
   128
 71
   92
 72
   78
 73
   79
  0
VERTEX
  8
fish
 10
0.0
 20
0.0
 30
0.0
 70
   128
 71
   3
 72
   93
 73
   94
  0
VERTEX
  8
fish
 10
0.0
 20
0.0
 30
0.0
 70
   128
 71
   94
 72
   62
 73
   63
  0
VERTEX
  8
fish
 10
0.0
 20
0.0
 30
0.0
 70
   128
 71
   5
 72
   95
 73
   96
  0
VERTEX
  8
fish
 10
0.0
 20
0.0
 30
0.0
 70
   128
 71
   6
 72
   96
 73
   97
  0
VERTEX
  8
fish
 10
0.0
 20
0.0
 30
0.0
 70
   128
 71
   97
 72
   65
 73
   66
  0
VERTEX
  8
fish
 10
0.0
 20
0.0
 30
0.0
 70
   128
 71
   8
 72
   98
 73
   99
  0
VERTEX
  8
fish
 10
0.0
 20
0.0
 30
0.0
 70
   128
 71
   99
 72
   67
 73
   68
  0
VERTEX
  8
fish
 10
0.0
 20
0.0
 30
0.0
 70
   128
 71
   10
 72
   100
 73
   101
  0
VERTEX
  8
fish
 10
0.0
 20
0.0
 30
0.0
 70
   128
 71
   11
 72
   101
 73
   102
  0
VERTEX
  8
fish
 10
0.0
 20
0.0
 30
0.0
 70
   128
 71
   12
 72
   102
 73
   103
  0
VERTEX
  8
fish
 10
0.0
 20
0.0
 30
0.0
 70
   128
 71
   14
 72
   103
 73
   81
  0
VERTEX
  8
fish
 10
0.0
 20
0.0
 30
0.0
 70
   128
 71
   14
 72
   82
 73
   83
  0
VERTEX
  8
fish
 10
0.0
 20
0.0
 30
0.0
 70
   128
 71
   105
 72
   83
 73
   84
  0
VERTEX
  8
fish
 10
0.0
 20
0.0
 30
0.0
 70
   128
 71
   16
 72
   106
 73
   107
  0
VERTEX
  8
fish
 10
0.0
 20
0.0
 30
0.0
 70
   128
 71
   107
 72
   85
 73
   70
  0
VERTEX
  8
fish
 10
0.0
 20
0.0
 30
0.0
 70
   128
 71
   18
 72
   108
 73
   109
  0
VERTEX
  8
fish
 10
0.0
 20
0.0
 30
0.0
 70
   128
 71
   19
 72
   109
 73
   110
  0
VERTEX
  8
fish
 10
0.0
 20
0.0
 30
0.0
 70
   128
 71
   110
 72
   86
 73
   87
  0
VERTEX
  8
fish
 10
0.0
 20
0.0
 30
0.0
 70
   128
 71
   21
 72
   111
 73
   112
  0
VERTEX
  8
fish
 10
0.0
 20
0.0
 30
0.0
 70
   128
 71
   112
 72
   72
 73
   73
  0
VERTEX
  8
fish
 10
0.0
 20
0.0
 30
0.0
 70
   128
 71
   23
 72
   113
 73
   114
  0
VERTEX
  8
fish
 10
0.0
 20
0.0
 30
0.0
 70
   128
 71
   24
 72
   114
 73
   115
  0
VERTEX
  8
fish
 10
0.0
 20
0.0
 30
0.0
 70
   128
 71
   25
 72
   115
 73
   116
  0
VERTEX
  8
fish
 10
0.0
 20
0.0
 30
0.0
 70
   128
 71
   116
 72
   74
 73
   75
  0
VERTEX
  8
fish
 10
0.0
 20
0.0
 30
0.0
 70
   128
 71
   27
 72
   117
 73
   118
  0
VERTEX
  8
fish
 10
0.0
 20
0.0
 30
0.0
 70
   128
 71
   118
 72
   90
 73
   76
  0
VERTEX
  8
fish
 10
0.0
 20
0.0
 30
0.0
 70
   128
 71
   29
 72
   119
 73
   120
  0
VERTEX
  8
fish
 10
0.0
 20
0.0
 30
0.0
 70
   128
 71
   120
 72
   77
 73
   61
  0
VERTEX
  8
fish
 10
0.0
 20
0.0
 30
0.0
 70
   128
 71
   78
 72
   61
 73
   77
  0
VERTEX
  8
fish
 10
0.0
 20
0.0
 30
0.0
 70
   128
 71
   85
 72
   82
 73
   69
  0
VERTEX
  8
fish
 10
0.0
 20
0.0
 30
0.0
 70
   128
 71
   71
 72
   70
 73
   68
  0
VERTEX
  8
fish
 10
0.0
 20
0.0
 30
0.0
 70
   128
 71
   89
 72
   88
 73
   79
  0
VERTEX
  8
fish
 10
0.0
 20
0.0
 30
0.0
 70
   128
 71
   62
 72
   73
 73
   72
  0
VERTEX
  8
fish
 10
0.0
 20
0.0
 30
0.0
 70
   128
 71
   90
 72
   74
 73
   89
  0
VERTEX
  8
fish
 10
0.0
 20
0.0
 30
0.0
 70
   128
 71
   79
 72
   88
 73
   73
  0
VERTEX
  8
fish
 10
0.0
 20
0.0
 30
0.0
 70
   128
 71
   72
 72
   87
 73
   86
  0
VERTEX
  8
fish
 10
0.0
 20
0.0
 30
0.0
 70
   128
 71
   76
 72
   90
 73
   78
  0
VERTEX
  8
fish
 10
0.0
 20
0.0
 30
0.0
 70
   128
 71
   82
 72
   85
 73
   84
  0
VERTEX
  8
fish
 10
0.0
 20
0.0
 30
0.0
 70
   128
 71
   82
 72
   81
 73
   80
  0
VERTEX
  8
fish
 10
0.0
 20
0.0
 30
0.0
 70
   128
 71
   67
 72
   86
 73
   71
  0
VERTEX
  8
fish
 10
0.0
 20
0.0
 30
0.0
 70
   128
 71
   67
 72
   63
 73
   72
  0
VERTEX
  8
fish
 10
0.0
 20
0.0
 30
0.0
 70
   128
 71
   63
 72
   67
 73
   66
  0
VERTEX
  8
fish
 10
0.0
 20
0.0
 30
0.0
 70
   128
 71
   68
 72
   70
 73
   85
  0
VERTEX
  8
fish
 10
0.0
 20
0.0
 30
0.0
 70
   128
 71
   66
 72
   65
 73
   64
  0
VERTEX
  8
fish
 10
0.0
 20
0.0
 30
0.0
 70
   128
 71
   90
 72
   75
 73
   74
  0
VERTEX
  8
fish
 10
0.0
 20
0.0
 30
0.0
 70
   128
 71
   91
 72
   61
 73
   78
  0
VERTEX
  8
fish
 10
0.0
 20
0.0
 30
0.0
 70
   128
 71
   93
 72
   3
 73
   2
  0
VERTEX
  8
fish
 10
0.0
 20
0.0
 30
0.0
 70
   128
 71
   93
 72
   79
 73
   62
  0
VERTEX
  8
fish
 10
0.0
 20
0.0
 30
0.0
 70
   128
 71
   95
 72
   5
 73
   4
  0
VERTEX
  8
fish
 10
0.0
 20
0.0
 30
0.0
 70
   128
 71
   95
 72
   63
 73
   64
  0
VERTEX
  8
fish
 10
0.0
 20
0.0
 30
0.0
 70
   128
 71
   96
 72
   64
 73
   65
  0
VERTEX
  8
fish
 10
0.0
 20
0.0
 30
0.0
 70
   128
 71
   98
 72
   8
 73
   7
  0
VERTEX
  8
fish
 10
0.0
 20
0.0
 30
0.0
 70
   128
 71
   98
 72
   66
 73
   67
  0
VERTEX
  8
fish
 10
0.0
 20
0.0
 30
0.0
 70
   128
 71
   100
 72
   10
 73
   9
  0
VERTEX
  8
fish
 10
0.0
 20
0.0
 30
0.0
 70
   128
 71
   100
 72
   68
 73
   69
  0
VERTEX
  8
fish
 10
0.0
 20
0.0
 30
0.0
 70
   128
 71
   101
 72
   69
 73
   80
  0
VERTEX
  8
fish
 10
0.0
 20
0.0
 30
0.0
 70
   128
 71
   102
 72
   80
 73
   81
  0
VERTEX
  8
fish
 10
0.0
 20
0.0
 30
0.0
 70
   128
 71
   14
 72
   52
 73
   51
  0
VERTEX
  8
fish
 10
0.0
 20
0.0
 30
0.0
 70
   128
 71
   135
 72
   14
 73
   15
  0
VERTEX
  8
fish
 10
0.0
 20
0.0
 30
0.0
 70
   128
 71
   106
 72
   16
 73
   15
  0
VERTEX
  8
fish
 10
0.0
 20
0.0
 30
0.0
 70
   128
 71
   106
 72
   84
 73
   85
  0
VERTEX
  8
fish
 10
0.0
 20
0.0
 30
0.0
 70
   128
 71
   108
 72
   18
 73
   17
  0
VERTEX
  8
fish
 10
0.0
 20
0.0
 30
0.0
 70
   128
 71
   108
 72
   70
 73
   71
  0
VERTEX
  8
fish
 10
0.0
 20
0.0
 30
0.0
 70
   128
 71
   109
 72
   71
 73
   86
  0
VERTEX
  8
fish
 10
0.0
 20
0.0
 30
0.0
 70
   128
 71
   111
 72
   21
 73
   20
  0
VERTEX
  8
fish
 10
0.0
 20
0.0
 30
0.0
 70
   128
 71
   111
 72
   87
 73
   72
  0
VERTEX
  8
fish
 10
0.0
 20
0.0
 30
0.0
 70
   128
 71
   113
 72
   23
 73
   22
  0
VERTEX
  8
fish
 10
0.0
 20
0.0
 30
0.0
 70
   128
 71
   113
 72
   73
 73
   88
  0
VERTEX
  8
fish
 10
0.0
 20
0.0
 30
0.0
 70
   128
 71
   114
 72
   88
 73
   89
  0
VERTEX
  8
fish
 10
0.0
 20
0.0
 30
0.0
 70
   128
 71
   115
 72
   89
 73
   74
  0
VERTEX
  8
fish
 10
0.0
 20
0.0
 30
0.0
 70
   128
 71
   117
 72
   27
 73
   26
  0
VERTEX
  8
fish
 10
0.0
 20
0.0
 30
0.0
 70
   128
 71
   117
 72
   75
 73
   90
  0
VERTEX
  8
fish
 10
0.0
 20
0.0
 30
0.0
 70
   128
 71
   119
 72
   29
 73
   28
  0
VERTEX
  8
fish
 10
0.0
 20
0.0
 30
0.0
 70
   128
 71
   119
 72
   76
 73
   77
  0
VERTEX
  8
fish
 10
0.0
 20
0.0
 30
0.0
 70
   128
 71
   91
 72
   1
 73
   30
  0
VERTEX
  8
fish
 10
0.0
 20
0.0
 30
0.0
 70
   128
 71
   121
 72
   1
 73
   2
  0
VERTEX
  8
fish
 10
0.0
 20
0.0
 30
0.0
 70
   128
 71
   123
 72
   49
 73
   48
  0
VERTEX
  8
fish
 10
0.0
 20
0.0
 30
0.0
 70
   128
 71
   123
 72
   3
 73
   4
  0
VERTEX
  8
fish
 10
0.0
 20
0.0
 30
0.0
 70
   128
 71
   125
 72
   33
 73
   32
  0
VERTEX
  8
fish
 10
0.0
 20
0.0
 30
0.0
 70
   128
 71
   125
 72
   5
 73
   6
  0
VERTEX
  8
fish
 10
0.0
 20
0.0
 30
0.0
 70
   128
 71
   126
 72
   6
 73
   7
  0
VERTEX
  8
fish
 10
0.0
 20
0.0
 30
0.0
 70
   128
 71
   128
 72
   36
 73
   35
  0
VERTEX
  8
fish
 10
0.0
 20
0.0
 30
0.0
 70
   128
 71
   128
 72
   8
 73
   9
  0
VERTEX
  8
fish
 10
0.0
 20
0.0
 30
0.0
 70
   128
 71
   130
 72
   38
 73
   37
  0
VERTEX
  8
fish
 10
0.0
 20
0.0
 30
0.0
 70
   128
 71
   130
 72
   10
 73
   11
  0
VERTEX
  8
fish
 10
0.0
 20
0.0
 30
0.0
 70
   128
 71
   131
 72
   11
 73
   12
  0
VERTEX
  8
fish
 10
0.0
 20
0.0
 30
0.0
 70
   128
 71
   132
 72
   12
 73
   13
  0
VERTEX
  8
fish
 10
0.0
 20
0.0
 30
0.0
 70
   128
 71
   103
 72
   14
 73
   13
  0
VERTEX
  8
fish
 10
0.0
 20
0.0
 30
0.0
 70
   128
 71
   14
 72
   105
 73
   15
  0
VERTEX
  8
fish
 10
0.0
 20
0.0
 30
0.0
 70
   128
 71
   136
 72
   54
 73
   53
  0
VERTEX
  8
fish
 10
0.0
 20
0.0
 30
0.0
 70
   128
 71
   136
 72
   16
 73
   17
  0
VERTEX
  8
fish
 10
0.0
 20
0.0
 30
0.0
 70
   128
 71
   138
 72
   40
 73
   55
  0
VERTEX
  8
fish
 10
0.0
 20
0.0
 30
0.0
 70
   128
 71
   138
 72
   18
 73
   19
  0
VERTEX
  8
fish
 10
0.0
 20
0.0
 30
0.0
 70
   128
 71
   139
 72
   19
 73
   20
  0
VERTEX
  8
fish
 10
0.0
 20
0.0
 30
0.0
 70
   128
 71
   141
 72
   57
 73
   56
  0
VERTEX
  8
fish
 10
0.0
 20
0.0
 30
0.0
 70
   128
 71
   141
 72
   21
 73
   22
  0
VERTEX
  8
fish
 10
0.0
 20
0.0
 30
0.0
 70
   128
 71
   143
 72
   43
 73
   42
  0
VERTEX
  8
fish
 10
0.0
 20
0.0
 30
0.0
 70
   128
 71
   143
 72
   23
 73
   24
  0
VERTEX
  8
fish
 10
0.0
 20
0.0
 30
0.0
 70
   128
 71
   144
 72
   24
 73
   25
  0
VERTEX
  8
fish
 10
0.0
 20
0.0
 30
0.0
 70
   128
 71
   145
 72
   25
 73
   26
  0
VERTEX
  8
fish
 10
0.0
 20
0.0
 30
0.0
 70
   128
 71
   147
 72
   45
 73
   44
  0
VERTEX
  8
fish
 10
0.0
 20
0.0
 30
0.0
 70
   128
 71
   147
 72
   27
 73
   28
  0
VERTEX
  8
fish
 10
0.0
 20
0.0
 30
0.0
 70
   128
 71
   104
 72
   46
 73
   60
  0
VERTEX
  8
fish
 10
0.0
 20
0.0
 30
0.0
 70
   128
 71
   104
 72
   29
 73
   30
  0
VERTEX
  8
fish
 10
0.0
 20
0.0
 30
0.0
 70
   128
 71
   121
 72
   31
 73
   47
  0
VERTEX
  8
fish
 10
0.0
 20
0.0
 30
0.0
 70
   128
 71
   122
 72
   31
 73
   121
  0
VERTEX
  8
fish
 10
0.0
 20
0.0
 30
0.0
 70
   128
 71
   2
 72
   123
 73
   122
  0
VERTEX
  8
fish
 10
0.0
 20
0.0
 30
0.0
 70
   128
 71
   124
 72
   49
 73
   123
  0
VERTEX
  8
fish
 10
0.0
 20
0.0
 30
0.0
 70
   128
 71
   4
 72
   125
 73
   124
  0
VERTEX
  8
fish
 10
0.0
 20
0.0
 30
0.0
 70
   128
 71
   126
 72
   33
 73
   125
  0
VERTEX
  8
fish
 10
0.0
 20
0.0
 30
0.0
 70
   128
 71
   127
 72
   34
 73
   126
  0
VERTEX
  8
fish
 10
0.0
 20
0.0
 30
0.0
 70
   128
 71
   7
 72
   128
 73
   127
  0
VERTEX
  8
fish
 10
0.0
 20
0.0
 30
0.0
 70
   128
 71
   129
 72
   36
 73
   128
  0
VERTEX
  8
fish
 10
0.0
 20
0.0
 30
0.0
 70
   128
 71
   9
 72
   130
 73
   129
  0
VERTEX
  8
fish
 10
0.0
 20
0.0
 30
0.0
 70
   128
 71
   131
 72
   38
 73
   130
  0
VERTEX
  8
fish
 10
0.0
 20
0.0
 30
0.0
 70
   128
 71
   132
 72
   39
 73
   131
  0
VERTEX
  8
fish
 10
0.0
 20
0.0
 30
0.0
 70
   128
 71
   133
 72
   50
 73
   132
  0
VERTEX
  8
fish
 10
0.0
 20
0.0
 30
0.0
 70
   128
 71
   14
 72
   53
 73
   52
  0
VERTEX
  8
fish
 10
0.0
 20
0.0
 30
0.0
 70
   128
 71
   15
 72
   136
 73
   135
  0
VERTEX
  8
fish
 10
0.0
 20
0.0
 30
0.0
 70
   128
 71
   137
 72
   54
 73
   136
  0
VERTEX
  8
fish
 10
0.0
 20
0.0
 30
0.0
 70
   128
 71
   17
 72
   138
 73
   137
  0
VERTEX
  8
fish
 10
0.0
 20
0.0
 30
0.0
 70
   128
 71
   139
 72
   40
 73
   138
  0
VERTEX
  8
fish
 10
0.0
 20
0.0
 30
0.0
 70
   128
 71
   140
 72
   41
 73
   139
  0
VERTEX
  8
fish
 10
0.0
 20
0.0
 30
0.0
 70
   128
 71
   20
 72
   141
 73
   140
  0
VERTEX
  8
fish
 10
0.0
 20
0.0
 30
0.0
 70
   128
 71
   142
 72
   57
 73
   141
  0
VERTEX
  8
fish
 10
0.0
 20
0.0
 30
0.0
 70
   128
 71
   22
 72
   143
 73
   142
  0
VERTEX
  8
fish
 10
0.0
 20
0.0
 30
0.0
 70
   128
 71
   144
 72
   43
 73
   143
  0
VERTEX
  8
fish
 10
0.0
 20
0.0
 30
0.0
 70
   128
 71
   145
 72
   58
 73
   144
  0
VERTEX
  8
fish
 10
0.0
 20
0.0
 30
0.0
 70
   128
 71
   146
 72
   59
 73
   145
  0
VERTEX
  8
fish
 10
0.0
 20
0.0
 30
0.0
 70
   128
 71
   26
 72
   147
 73
   146
  0
VERTEX
  8
fish
 10
0.0
 20
0.0
 30
0.0
 70
   128
 71
   148
 72
   45
 73
   147
  0
VERTEX
  8
fish
 10
0.0
 20
0.0
 30
0.0
 70
   128
 71
   28
 72
   104
 73
   148
  0
VERTEX
  8
fish
 10
0.0
 20
0.0
 30
0.0
 70
   128
 71
   134
 72
   46
 73
   104
  0
VERTEX
  8
fish
 10
0.0
 20
0.0
 30
0.0
 70
   128
 71
   30
 72
   121
 73
   134
  0
VERTEX
  8
fish
 10
0.0
 20
0.0
 30
0.0
 70
   128
 71
   47
 72
   48
 73
   46
  0
VERTEX
  8
fish
 10
0.0
 20
0.0
 30
0.0
 70
   128
 71
   59
 72
   49
 73
   58
  0
VERTEX
  8
fish
 10
0.0
 20
0.0
 30
0.0
 70
   128
 71
   52
 72
   54
 73
   55
  0
VERTEX
  8
fish
 10
0.0
 20
0.0
 30
0.0
 70
   128
 71
   33
 72
   36
 73
   37
  0
VERTEX
  8
fish
 10
0.0
 20
0.0
 30
0.0
 70
   128
 71
   49
 72
   43
 73
   58
  0
VERTEX
  8
fish
 10
0.0
 20
0.0
 30
0.0
 70
   128
 71
   38
 72
   55
 73
   40
  0
VERTEX
  8
fish
 10
0.0
 20
0.0
 30
0.0
 70
   128
 71
   52
 72
   50
 73
   51
  0
VERTEX
  8
fish
 10
0.0
 20
0.0
 30
0.0
 70
   128
 71
   60
 72
   59
 73
   44
  0
VERTEX
  8
fish
 10
0.0
 20
0.0
 30
0.0
 70
   128
 71
   32
 72
   42
 73
   43
  0
VERTEX
  8
fish
 10
0.0
 20
0.0
 30
0.0
 70
   128
 71
   42
 72
   37
 73
   56
  0
VERTEX
  8
fish
 10
0.0
 20
0.0
 30
0.0
 70
   128
 71
   37
 72
   41
 73
   56
  0
VERTEX
  8
fish
 10
0.0
 20
0.0
 30
0.0
 70
   128
 71
   1
 72
   92
 73
   2
  0
VERTEX
  8
fish
 10
0.0
 20
0.0
 30
0.0
 70
   128
 71
   92
 72
   79
 73
   93
  0
VERTEX
  8
fish
 10
0.0
 20
0.0
 30
0.0
 70
   128
 71
   3
 72
   94
 73
   4
  0
VERTEX
  8
fish
 10
0.0
 20
0.0
 30
0.0
 70
   128
 71
   94
 72
   63
 73
   95
  0
VERTEX
  8
fish
 10
0.0
 20
0.0
 30
0.0
 70
   128
 71
   5
 72
   96
 73
   6
  0
VERTEX
  8
fish
 10
0.0
 20
0.0
 30
0.0
 70
   128
 71
   6
 72
   97
 73
   7
  0
VERTEX
  8
fish
 10
0.0
 20
0.0
 30
0.0
 70
   128
 71
   97
 72
   66
 73
   98
  0
VERTEX
  8
fish
 10
0.0
 20
0.0
 30
0.0
 70
   128
 71
   8
 72
   99
 73
   9
  0
VERTEX
  8
fish
 10
0.0
 20
0.0
 30
0.0
 70
   128
 71
   99
 72
   68
 73
   100
  0
VERTEX
  8
fish
 10
0.0
 20
0.0
 30
0.0
 70
   128
 71
   10
 72
   101
 73
   11
  0
VERTEX
  8
fish
 10
0.0
 20
0.0
 30
0.0
 70
   128
 71
   11
 72
   102
 73
   12
  0
VERTEX
  8
fish
 10
0.0
 20
0.0
 30
0.0
 70
   128
 71
   12
 72
   103
 73
   13
  0
VERTEX
  8
fish
 10
0.0
 20
0.0
 30
0.0
 70
   128
 71
   14
 72
   81
 73
   82
  0
VERTEX
  8
fish
 10
0.0
 20
0.0
 30
0.0
 70
   128
 71
   14
 72
   83
 73
   105
  0
VERTEX
  8
fish
 10
0.0
 20
0.0
 30
0.0
 70
   128
 71
   105
 72
   84
 73
   106
  0
VERTEX
  8
fish
 10
0.0
 20
0.0
 30
0.0
 70
   128
 71
   16
 72
   107
 73
   17
  0
VERTEX
  8
fish
 10
0.0
 20
0.0
 30
0.0
 70
   128
 71
   107
 72
   70
 73
   108
  0
VERTEX
  8
fish
 10
0.0
 20
0.0
 30
0.0
 70
   128
 71
   18
 72
   109
 73
   19
  0
VERTEX
  8
fish
 10
0.0
 20
0.0
 30
0.0
 70
   128
 71
   19
 72
   110
 73
   20
  0
VERTEX
  8
fish
 10
0.0
 20
0.0
 30
0.0
 70
   128
 71
   110
 72
   87
 73
   111
  0
VERTEX
  8
fish
 10
0.0
 20
0.0
 30
0.0
 70
   128
 71
   21
 72
   112
 73
   22
  0
VERTEX
  8
fish
 10
0.0
 20
0.0
 30
0.0
 70
   128
 71
   112
 72
   73
 73
   113
  0
VERTEX
  8
fish
 10
0.0
 20
0.0
 30
0.0
 70
   128
 71
   23
 72
   114
 73
   24
  0
VERTEX
  8
fish
 10
0.0
 20
0.0
 30
0.0
 70
   128
 71
   24
 72
   115
 73
   25
  0
VERTEX
  8
fish
 10
0.0
 20
0.0
 30
0.0
 70
   128
 71
   25
 72
   116
 73
   26
  0
VERTEX
  8
fish
 10
0.0
 20
0.0
 30
0.0
 70
   128
 71
   116
 72
   75
 73
   117
  0
VERTEX
  8
fish
 10
0.0
 20
0.0
 30
0.0
 70
   128
 71
   27
 72
   118
 73
   28
  0
VERTEX
  8
fish
 10
0.0
 20
0.0
 30
0.0
 70
   128
 71
   118
 72
   76
 73
   119
  0
VERTEX
  8
fish
 10
0.0
 20
0.0
 30
0.0
 70
   128
 71
   29
 72
   120
 73
   30
  0
VERTEX
  8
fish
 10
0.0
 20
0.0
 30
0.0
 70
   128
 71
   120
 72
   61
 73
   91
  0
VERTEX
  8
fish
 10
0.0
 20
0.0
 30
0.0
 70
   128
 71
   78
 72
   77
 73
   76
  0
VERTEX
  8
fish
 10
0.0
 20
0.0
 30
0.0
 70
   128
 71
   89
 72
   79
 73
   78
  0
VERTEX
  8
fish
 10
0.0
 20
0.0
 30
0.0
 70
   128
 71
   62
 72
   72
 73
   63
  0
VERTEX
  8
fish
 10
0.0
 20
0.0
 30
0.0
 70
   128
 71
   90
 72
   89
 73
   78
  0
VERTEX
  8
fish
 10
0.0
 20
0.0
 30
0.0
 70
   128
 71
   79
 72
   73
 73
   62
  0
VERTEX
  8
fish
 10
0.0
 20
0.0
 30
0.0
 70
   128
 71
   82
 72
   84
 73
   83
  0
VERTEX
  8
fish
 10
0.0
 20
0.0
 30
0.0
 70
   128
 71
   82
 72
   80
 73
   69
  0
VERTEX
  8
fish
 10
0.0
 20
0.0
 30
0.0
 70
   128
 71
   67
 72
   71
 73
   68
  0
VERTEX
  8
fish
 10
0.0
 20
0.0
 30
0.0
 70
   128
 71
   67
 72
   72
 73
   86
  0
VERTEX
  8
fish
 10
0.0
 20
0.0
 30
0.0
 70
   128
 71
   63
 72
   66
 73
   64
  0
VERTEX
  8
fish
 10
0.0
 20
0.0
 30
0.0
 70
   128
 71
   68
 72
   85
 73
   69
  0
VERTEX
  8
fish
 10
0.0
 20
0.0
 30
0.0
 70
   128
 71
   91
 72
   78
 73
   92
  0
VERTEX
  8
fish
 10
0.0
 20
0.0
 30
0.0
 70
   128
 71
   93
 72
   2
 73
   92
  0
VERTEX
  8
fish
 10
0.0
 20
0.0
 30
0.0
 70
   128
 71
   93
 72
   62
 73
   94
  0
VERTEX
  8
fish
 10
0.0
 20
0.0
 30
0.0
 70
   128
 71
   95
 72
   4
 73
   94
  0
VERTEX
  8
fish
 10
0.0
 20
0.0
 30
0.0
 70
   128
 71
   95
 72
   64
 73
   96
  0
VERTEX
  8
fish
 10
0.0
 20
0.0
 30
0.0
 70
   128
 71
   96
 72
   65
 73
   97
  0
VERTEX
  8
fish
 10
0.0
 20
0.0
 30
0.0
 70
   128
 71
   98
 72
   7
 73
   97
  0
VERTEX
  8
fish
 10
0.0
 20
0.0
 30
0.0
 70
   128
 71
   98
 72
   67
 73
   99
  0
VERTEX
  8
fish
 10
0.0
 20
0.0
 30
0.0
 70
   128
 71
   100
 72
   9
 73
   99
  0
VERTEX
  8
fish
 10
0.0
 20
0.0
 30
0.0
 70
   128
 71
   100
 72
   69
 73
   101
  0
VERTEX
  8
fish
 10
0.0
 20
0.0
 30
0.0
 70
   128
 71
   101
 72
   80
 73
   102
  0
VERTEX
  8
fish
 10
0.0
 20
0.0
 30
0.0
 70
   128
 71
   102
 72
   81
 73
   103
  0
VERTEX
  8
fish
 10
0.0
 20
0.0
 30
0.0
 70
   128
 71
   14
 72
   51
 73
   133
  0
VERTEX
  8
fish
 10
0.0
 20
0.0
 30
0.0
 70
   128
 71
   106
 72
   15
 73
   105
  0
VERTEX
  8
fish
 10
0.0
 20
0.0
 30
0.0
 70
   128
 71
   106
 72
   85
 73
   107
  0
VERTEX
  8
fish
 10
0.0
 20
0.0
 30
0.0
 70
   128
 71
   108
 72
   17
 73
   107
  0
VERTEX
  8
fish
 10
0.0
 20
0.0
 30
0.0
 70
   128
 71
   108
 72
   71
 73
   109
  0
VERTEX
  8
fish
 10
0.0
 20
0.0
 30
0.0
 70
   128
 71
   109
 72
   86
 73
   110
  0
VERTEX
  8
fish
 10
0.0
 20
0.0
 30
0.0
 70
   128
 71
   111
 72
   20
 73
   110
  0
VERTEX
  8
fish
 10
0.0
 20
0.0
 30
0.0
 70
   128
 71
   111
 72
   72
 73
   112
  0
VERTEX
  8
fish
 10
0.0
 20
0.0
 30
0.0
 70
   128
 71
   113
 72
   22
 73
   112
  0
VERTEX
  8
fish
 10
0.0
 20
0.0
 30
0.0
 70
   128
 71
   113
 72
   88
 73
   114
  0
VERTEX
  8
fish
 10
0.0
 20
0.0
 30
0.0
 70
   128
 71
   114
 72
   89
 73
   115
  0
VERTEX
  8
fish
 10
0.0
 20
0.0
 30
0.0
 70
   128
 71
   115
 72
   74
 73
   116
  0
VERTEX
  8
fish
 10
0.0
 20
0.0
 30
0.0
 70
   128
 71
   117
 72
   26
 73
   116
  0
VERTEX
  8
fish
 10
0.0
 20
0.0
 30
0.0
 70
   128
 71
   117
 72
   90
 73
   118
  0
VERTEX
  8
fish
 10
0.0
 20
0.0
 30
0.0
 70
   128
 71
   119
 72
   28
 73
   118
  0
VERTEX
  8
fish
 10
0.0
 20
0.0
 30
0.0
 70
   128
 71
   119
 72
   77
 73
   120
  0
VERTEX
  8
fish
 10
0.0
 20
0.0
 30
0.0
 70
   128
 71
   91
 72
   30
 73
   120
  0
VERTEX
  8
fish
 10
0.0
 20
0.0
 30
0.0
 70
   128
 71
   121
 72
   2
 73
   122
  0
VERTEX
  8
fish
 10
0.0
 20
0.0
 30
0.0
 70
   128
 71
   123
 72
   48
 73
   122
  0
VERTEX
  8
fish
 10
0.0
 20
0.0
 30
0.0
 70
   128
 71
   123
 72
   4
 73
   124
  0
VERTEX
  8
fish
 10
0.0
 20
0.0
 30
0.0
 70
   128
 71
   125
 72
   32
 73
   124
  0
VERTEX
  8
fish
 10
0.0
 20
0.0
 30
0.0
 70
   128
 71
   125
 72
   6
 73
   126
  0
VERTEX
  8
fish
 10
0.0
 20
0.0
 30
0.0
 70
   128
 71
   126
 72
   7
 73
   127
  0
VERTEX
  8
fish
 10
0.0
 20
0.0
 30
0.0
 70
   128
 71
   128
 72
   35
 73
   127
  0
VERTEX
  8
fish
 10
0.0
 20
0.0
 30
0.0
 70
   128
 71
   128
 72
   9
 73
   129
  0
VERTEX
  8
fish
 10
0.0
 20
0.0
 30
0.0
 70
   128
 71
   130
 72
   37
 73
   129
  0
VERTEX
  8
fish
 10
0.0
 20
0.0
 30
0.0
 70
   128
 71
   130
 72
   11
 73
   131
  0
VERTEX
  8
fish
 10
0.0
 20
0.0
 30
0.0
 70
   128
 71
   131
 72
   12
 73
   132
  0
VERTEX
  8
fish
 10
0.0
 20
0.0
 30
0.0
 70
   128
 71
   132
 72
   13
 73
   133
  0
VERTEX
  8
fish
 10
0.0
 20
0.0
 30
0.0
 70
   128
 71
   136
 72
   53
 73
   135
  0
VERTEX
  8
fish
 10
0.0
 20
0.0
 30
0.0
 70
   128
 71
   136
 72
   17
 73
   137
  0
VERTEX
  8
fish
 10
0.0
 20
0.0
 30
0.0
 70
   128
 71
   138
 72
   55
 73
   137
  0
VERTEX
  8
fish
 10
0.0
 20
0.0
 30
0.0
 70
   128
 71
   138
 72
   19
 73
   139
  0
VERTEX
  8
fish
 10
0.0
 20
0.0
 30
0.0
 70
   128
 71
   139
 72
   20
 73
   140
  0
VERTEX
  8
fish
 10
0.0
 20
0.0
 30
0.0
 70
   128
 71
   141
 72
   56
 73
   140
  0
VERTEX
  8
fish
 10
0.0
 20
0.0
 30
0.0
 70
   128
 71
   141
 72
   22
 73
   142
  0
VERTEX
  8
fish
 10
0.0
 20
0.0
 30
0.0
 70
   128
 71
   143
 72
   42
 73
   142
  0
VERTEX
  8
fish
 10
0.0
 20
0.0
 30
0.0
 70
   128
 71
   143
 72
   24
 73
   144
  0
VERTEX
  8
fish
 10
0.0
 20
0.0
 30
0.0
 70
   128
 71
   144
 72
   25
 73
   145
  0
VERTEX
  8
fish
 10
0.0
 20
0.0
 30
0.0
 70
   128
 71
   145
 72
   26
 73
   146
  0
VERTEX
  8
fish
 10
0.0
 20
0.0
 30
0.0
 70
   128
 71
   147
 72
   44
 73
   146
  0
VERTEX
  8
fish
 10
0.0
 20
0.0
 30
0.0
 70
   128
 71
   147
 72
   28
 73
   148
  0
VERTEX
  8
fish
 10
0.0
 20
0.0
 30
0.0
 70
   128
 71
   104
 72
   60
 73
   148
  0
VERTEX
  8
fish
 10
0.0
 20
0.0
 30
0.0
 70
   128
 71
   104
 72
   30
 73
   134
  0
VERTEX
  8
fish
 10
0.0
 20
0.0
 30
0.0
 70
   128
 71
   121
 72
   47
 73
   134
  0
SEQEND
  0
ENDSEC
  0
EOF
