999
FBX AutoCAD (*.DXF) exporter
  0
SECTION
  2
HEADER
  9
$ACADVER
  1
AC1008
  9
$UCSORG
 10
0.0
 20
0.0
 30
0.0
  9
$UCSXDIR
 10
1.0
 20
0.0
 30
0.0
  9
$TILEMODE
 70
   1
  9
$UCSYDIR
 10
0.0
 20
1.0
 30
0.0
  0
ENDSEC
  0
SECTION
  2
TABLES
  0
TABLE
  2
LTYPE
 70
   1
  0
LTYPE
  2
CONTINUOUS
 70
   64
  3
Solid line
 72
   65
 73
   0
 40
0.0
  0
ENDTAB
  0
TABLE
  2
LAYER
 70
   4
  0
LAYER
  2
raddishLeaf
 70
   0
 62
   250
  6
CONTINUOUS
  0
LAYER
  2
raddishLeaf_2
 70
   0
 62
   250
  6
CONTINUOUS
  0
LAYER
  2
raddish_2
 70
   0
 62
   250
  6
CONTINUOUS
  0
ENDTAB
  0
ENDSEC
  0
SECTION
  2
BLOCKS
  0
ENDSEC
  0
SECTION
  2
ENTITIES
  0
POLYLINE
  8
raddishLeaf
 66
   1
 10
0.0
 20
0.0
 30
0.0
 70
   64
 71
   126
 72
   108
  0
VERTEX
  8
raddishLeaf
 10
9.619391
 20
114.571492
 30
21.981708
 70
   192
  0
VERTEX
  8
raddishLeaf
 10
20.532221
 20
170.337016
 30
21.110332
 70
   192
  0
VERTEX
  8
raddishLeaf
 10
34.741909
 20
208.433628
 30
12.971502
 70
   192
  0
VERTEX
  8
raddishLeaf
 10
50.148219
 20
225.104836
 30
-0.851492
 70
   192
  0
VERTEX
  8
raddishLeaf
 10
59.634220
 20
219.593939
 30
-12.563906
 70
   192
  0
VERTEX
  8
raddishLeaf
 10
53.369238
 20
179.215670
 30
-13.760854
 70
   192
  0
VERTEX
  8
raddishLeaf
 10
48.951764
 20
170.526147
 30
-10.590675
 70
   192
  0
VERTEX
  8
raddishLeaf
 10
56.294176
 20
183.837116
 30
-16.089661
 70
   192
  0
VERTEX
  8
raddishLeaf
 10
71.836361
 20
203.675513
 30
-29.421700
 70
   192
  0
VERTEX
  8
raddishLeaf
 10
84.017545
 20
210.266576
 30
-41.688341
 70
   192
  0
VERTEX
  8
raddishLeaf
 10
88.505974
 20
187.594162
 30
-51.301897
 70
   192
  0
VERTEX
  8
raddishLeaf
 10
72.171409
 20
148.059575
 30
-41.081773
 70
   192
  0
VERTEX
  8
raddishLeaf
 10
53.384385
 20
124.030327
 30
-24.976279
 70
   192
  0
VERTEX
  8
raddishLeaf
 10
25.559074
 20
88.853655
 30
-1.038780
 70
   192
  0
VERTEX
  8
raddishLeaf
 10
-8.837145
 20
117.925046
 30
5.455669
 70
   192
  0
VERTEX
  8
raddishLeaf
 10
2.075685
 20
173.690569
 30
4.584293
 70
   192
  0
VERTEX
  8
raddishLeaf
 10
16.285373
 20
211.787181
 30
-3.554537
 70
   192
  0
VERTEX
  8
raddishLeaf
 10
31.691682
 20
228.458389
 30
-17.377531
 70
   192
  0
VERTEX
  8
raddishLeaf
 10
41.177683
 20
222.947493
 30
-29.089944
 70
   192
  0
VERTEX
  8
raddishLeaf
 10
34.912701
 20
182.569223
 30
-30.286892
 70
   192
  0
VERTEX
  8
raddishLeaf
 10
30.495227
 20
173.879700
 30
-27.116713
 70
   192
  0
VERTEX
  8
raddishLeaf
 10
37.837639
 20
187.190669
 30
-32.615699
 70
   192
  0
VERTEX
  8
raddishLeaf
 10
53.379825
 20
207.029066
 30
-45.947739
 70
   192
  0
VERTEX
  8
raddishLeaf
 10
65.561009
 20
213.620129
 30
-58.214380
 70
   192
  0
VERTEX
  8
raddishLeaf
 10
70.049438
 20
190.947716
 30
-67.827935
 70
   192
  0
VERTEX
  8
raddishLeaf
 10
53.714872
 20
151.413128
 30
-57.607812
 70
   192
  0
VERTEX
  8
raddishLeaf
 10
34.927849
 20
127.383880
 30
-41.502317
 70
   192
  0
VERTEX
  8
raddishLeaf
 10
7.102538
 20
92.207208
 30
-17.564818
 70
   192
  0
VERTEX
  8
raddishLeaf
 10
9.619391
 20
114.571492
 30
21.981708
 70
   192
  0
VERTEX
  8
raddishLeaf
 10
20.532221
 20
170.337016
 30
21.110332
 70
   192
  0
VERTEX
  8
raddishLeaf
 10
34.741909
 20
208.433628
 30
12.971502
 70
   192
  0
VERTEX
  8
raddishLeaf
 10
50.148219
 20
225.104836
 30
-0.851492
 70
   192
  0
VERTEX
  8
raddishLeaf
 10
59.634220
 20
219.593939
 30
-12.563906
 70
   192
  0
VERTEX
  8
raddishLeaf
 10
53.369238
 20
179.215670
 30
-13.760854
 70
   192
  0
VERTEX
  8
raddishLeaf
 10
48.951764
 20
170.526147
 30
-10.590675
 70
   192
  0
VERTEX
  8
raddishLeaf
 10
56.294176
 20
183.837116
 30
-16.089661
 70
   192
  0
VERTEX
  8
raddishLeaf
 10
71.836361
 20
203.675513
 30
-29.421700
 70
   192
  0
VERTEX
  8
raddishLeaf
 10
84.017545
 20
210.266576
 30
-41.688341
 70
   192
  0
VERTEX
  8
raddishLeaf
 10
88.505974
 20
187.594162
 30
-51.301897
 70
   192
  0
VERTEX
  8
raddishLeaf
 10
72.171409
 20
148.059575
 30
-41.081773
 70
   192
  0
VERTEX
  8
raddishLeaf
 10
53.384385
 20
124.030327
 30
-24.976279
 70
   192
  0
VERTEX
  8
raddishLeaf
 10
25.559074
 20
88.853655
 30
-1.038780
 70
   192
  0
VERTEX
  8
raddishLeaf
 10
18.444651
 20
120.512471
 30
20.894917
 70
   192
  0
VERTEX
  8
raddishLeaf
 10
28.286440
 20
170.804881
 30
20.109063
 70
   192
  0
VERTEX
  8
raddishLeaf
 10
40.250715
 20
202.881470
 30
13.256330
 70
   192
  0
VERTEX
  8
raddishLeaf
 10
51.458092
 20
215.009002
 30
3.200741
 70
   192
  0
VERTEX
  8
raddishLeaf
 10
58.142697
 20
211.125578
 30
-5.052775
 70
   192
  0
VERTEX
  8
raddishLeaf
 10
52.823681
 20
176.844125
 30
-6.068993
 70
   192
  0
VERTEX
  8
raddishLeaf
 10
44.426236
 20
153.339177
 30
-1.460347
 70
   192
  0
VERTEX
  8
raddishLeaf
 10
60.542923
 20
177.042896
 30
-14.649626
 70
   192
  0
VERTEX
  8
raddishLeaf
 10
74.627372
 20
195.020606
 30
-26.731224
 70
   192
  0
VERTEX
  8
raddishLeaf
 10
83.649747
 20
199.902483
 30
-35.816895
 70
   192
  0
VERTEX
  8
raddishLeaf
 10
86.961946
 20
183.171561
 30
-42.911140
 70
   192
  0
VERTEX
  8
raddishLeaf
 10
74.037107
 20
151.889542
 30
-34.824395
 70
   192
  0
VERTEX
  8
raddishLeaf
 10
56.844126
 20
129.899128
 30
-20.085420
 70
   192
  0
VERTEX
  8
raddishLeaf
 10
32.052254
 20
98.557322
 30
1.242478
 70
   192
  0
VERTEX
  8
raddishLeaf
 10
18.444651
 20
120.512471
 30
20.894917
 70
   192
  0
VERTEX
  8
raddishLeaf
 10
28.286440
 20
170.804881
 30
20.109063
 70
   192
  0
VERTEX
  8
raddishLeaf
 10
40.250715
 20
202.881470
 30
13.256330
 70
   192
  0
VERTEX
  8
raddishLeaf
 10
51.458092
 20
215.009002
 30
3.200741
 70
   192
  0
VERTEX
  8
raddishLeaf
 10
58.142697
 20
211.125578
 30
-5.052775
 70
   192
  0
VERTEX
  8
raddishLeaf
 10
52.823681
 20
176.844125
 30
-6.068993
 70
   192
  0
VERTEX
  8
raddishLeaf
 10
44.426236
 20
153.339177
 30
-1.460347
 70
   192
  0
VERTEX
  8
raddishLeaf
 10
60.542923
 20
177.042896
 30
-14.649626
 70
   192
  0
VERTEX
  8
raddishLeaf
 10
74.627372
 20
195.020606
 30
-26.731224
 70
   192
  0
VERTEX
  8
raddishLeaf
 10
83.649747
 20
199.902483
 30
-35.816895
 70
   192
  0
VERTEX
  8
raddishLeaf
 10
86.961946
 20
183.171561
 30
-42.911140
 70
   192
  0
VERTEX
  8
raddishLeaf
 10
74.037107
 20
151.889542
 30
-34.824395
 70
   192
  0
VERTEX
  8
raddishLeaf
 10
56.844126
 20
129.899128
 30
-20.085420
 70
   192
  0
VERTEX
  8
raddishLeaf
 10
32.052254
 20
98.557322
 30
1.242478
 70
   192
  0
VERTEX
  8
raddishLeaf
 10
-8.837145
 20
117.925046
 30
5.455669
 70
   192
  0
VERTEX
  8
raddishLeaf
 10
2.075685
 20
173.690569
 30
4.584293
 70
   192
  0
VERTEX
  8
raddishLeaf
 10
16.285373
 20
211.787181
 30
-3.554537
 70
   192
  0
VERTEX
  8
raddishLeaf
 10
31.691682
 20
228.458389
 30
-17.377531
 70
   192
  0
VERTEX
  8
raddishLeaf
 10
41.177683
 20
222.947493
 30
-29.089944
 70
   192
  0
VERTEX
  8
raddishLeaf
 10
34.912701
 20
182.569223
 30
-30.286892
 70
   192
  0
VERTEX
  8
raddishLeaf
 10
30.495227
 20
173.879700
 30
-27.116713
 70
   192
  0
VERTEX
  8
raddishLeaf
 10
37.837639
 20
187.190669
 30
-32.615699
 70
   192
  0
VERTEX
  8
raddishLeaf
 10
53.379825
 20
207.029066
 30
-45.947739
 70
   192
  0
VERTEX
  8
raddishLeaf
 10
65.561009
 20
213.620129
 30
-58.214380
 70
   192
  0
VERTEX
  8
raddishLeaf
 10
70.049438
 20
190.947716
 30
-67.827935
 70
   192
  0
VERTEX
  8
raddishLeaf
 10
53.714872
 20
151.413128
 30
-57.607812
 70
   192
  0
VERTEX
  8
raddishLeaf
 10
34.927849
 20
127.383880
 30
-41.502317
 70
   192
  0
VERTEX
  8
raddishLeaf
 10
7.102538
 20
92.207208
 30
-17.564818
 70
   192
  0
VERTEX
  8
raddishLeaf
 10
-7.394500
 20
125.207445
 30
-2.241537
 70
   192
  0
VERTEX
  8
raddishLeaf
 10
2.447289
 20
175.499856
 30
-3.027391
 70
   192
  0
VERTEX
  8
raddishLeaf
 10
14.411564
 20
207.576444
 30
-9.880124
 70
   192
  0
VERTEX
  8
raddishLeaf
 10
25.618941
 20
219.703977
 30
-19.935713
 70
   192
  0
VERTEX
  8
raddishLeaf
 10
32.303547
 20
215.820552
 30
-28.189229
 70
   192
  0
VERTEX
  8
raddishLeaf
 10
26.984530
 20
181.539099
 30
-29.205447
 70
   192
  0
VERTEX
  8
raddishLeaf
 10
18.587085
 20
158.034151
 30
-24.596801
 70
   192
  0
VERTEX
  8
raddishLeaf
 10
34.703772
 20
181.737871
 30
-37.786080
 70
   192
  0
VERTEX
  8
raddishLeaf
 10
48.788222
 20
199.715580
 30
-49.867678
 70
   192
  0
VERTEX
  8
raddishLeaf
 10
57.810596
 20
204.597457
 30
-58.953349
 70
   192
  0
VERTEX
  8
raddishLeaf
 10
61.122795
 20
187.866535
 30
-66.047594
 70
   192
  0
VERTEX
  8
raddishLeaf
 10
48.197956
 20
156.584516
 30
-57.960849
 70
   192
  0
VERTEX
  8
raddishLeaf
 10
31.004975
 20
134.594103
 30
-43.221874
 70
   192
  0
VERTEX
  8
raddishLeaf
 10
6.213103
 20
103.252296
 30
-21.893976
 70
   192
  0
VERTEX
  8
raddishLeaf
 10
-7.394500
 20
125.207445
 30
-2.241537
 70
   192
  0
VERTEX
  8
raddishLeaf
 10
2.447289
 20
175.499856
 30
-3.027391
 70
   192
  0
VERTEX
  8
raddishLeaf
 10
14.411564
 20
207.576444
 30
-9.880124
 70
   192
  0
VERTEX
  8
raddishLeaf
 10
25.618941
 20
219.703977
 30
-19.935713
 70
   192
  0
VERTEX
  8
raddishLeaf
 10
32.303547
 20
215.820552
 30
-28.189229
 70
   192
  0
VERTEX
  8
raddishLeaf
 10
26.984530
 20
181.539099
 30
-29.205447
 70
   192
  0
VERTEX
  8
raddishLeaf
 10
18.587085
 20
158.034151
 30
-24.596801
 70
   192
  0
VERTEX
  8
raddishLeaf
 10
34.703772
 20
181.737871
 30
-37.786080
 70
   192
  0
VERTEX
  8
raddishLeaf
 10
48.788222
 20
199.715580
 30
-49.867678
 70
   192
  0
VERTEX
  8
raddishLeaf
 10
57.810596
 20
204.597457
 30
-58.953349
 70
   192
  0
VERTEX
  8
raddishLeaf
 10
61.122795
 20
187.866535
 30
-66.047594
 70
   192
  0
VERTEX
  8
raddishLeaf
 10
48.197956
 20
156.584516
 30
-57.960849
 70
   192
  0
VERTEX
  8
raddishLeaf
 10
31.004975
 20
134.594103
 30
-43.221874
 70
   192
  0
VERTEX
  8
raddishLeaf
 10
6.213103
 20
103.252296
 30
-21.893976
 70
   192
  0
VERTEX
  8
raddishLeaf
 10
-103.515698
 20
-148.246452
 30
77.080556
 70
   192
  0
VERTEX
  8
raddishLeaf
 10
-103.515698
 20
-148.246452
 30
77.080556
 70
   192
  0
VERTEX
  8
raddishLeaf
 10
-103.515698
 20
-148.246452
 30
77.080556
 70
   192
  0
VERTEX
  8
raddishLeaf
 10
-103.515698
 20
-148.246452
 30
77.080556
 70
   192
  0
VERTEX
  8
raddishLeaf
 10
-103.515698
 20
-148.246452
 30
77.080556
 70
   192
  0
VERTEX
  8
raddishLeaf
 10
-103.515698
 20
-148.246452
 30
77.080556
 70
   192
  0
VERTEX
  8
raddishLeaf
 10
-103.515698
 20
-148.246452
 30
77.080556
 70
   192
  0
VERTEX
  8
raddishLeaf
 10
-103.515698
 20
-148.246452
 30
77.080556
 70
   192
  0
VERTEX
  8
raddishLeaf
 10
-103.515698
 20
-148.246452
 30
77.080556
 70
   192
  0
VERTEX
  8
raddishLeaf
 10
-103.515698
 20
-148.246452
 30
77.080556
 70
   192
  0
VERTEX
  8
raddishLeaf
 10
-103.515698
 20
-148.246452
 30
77.080556
 70
   192
  0
VERTEX
  8
raddishLeaf
 10
-103.515698
 20
-148.246452
 30
77.080556
 70
   192
  0
VERTEX
  8
raddishLeaf
 10
-103.515698
 20
-148.246452
 30
77.080556
 70
   192
  0
VERTEX
  8
raddishLeaf
 10
-103.515698
 20
-148.246452
 30
77.080556
 70
   192
  0
VERTEX
  8
raddishLeaf
 10
0.0
 20
0.0
 30
0.0
 70
   128
 71
   1
 72
   15
 73
   16
  0
VERTEX
  8
raddishLeaf
 10
0.0
 20
0.0
 30
0.0
 70
   128
 71
   2
 72
   16
 73
   17
  0
VERTEX
  8
raddishLeaf
 10
0.0
 20
0.0
 30
0.0
 70
   128
 71
   3
 72
   17
 73
   18
  0
VERTEX
  8
raddishLeaf
 10
0.0
 20
0.0
 30
0.0
 70
   128
 71
   4
 72
   18
 73
   19
  0
VERTEX
  8
raddishLeaf
 10
0.0
 20
0.0
 30
0.0
 70
   128
 71
   5
 72
   19
 73
   20
  0
VERTEX
  8
raddishLeaf
 10
0.0
 20
0.0
 30
0.0
 70
   128
 71
   6
 72
   20
 73
   21
  0
VERTEX
  8
raddishLeaf
 10
0.0
 20
0.0
 30
0.0
 70
   128
 71
   7
 72
   21
 73
   22
  0
VERTEX
  8
raddishLeaf
 10
0.0
 20
0.0
 30
0.0
 70
   128
 71
   8
 72
   22
 73
   23
  0
VERTEX
  8
raddishLeaf
 10
0.0
 20
0.0
 30
0.0
 70
   128
 71
   9
 72
   23
 73
   24
  0
VERTEX
  8
raddishLeaf
 10
0.0
 20
0.0
 30
0.0
 70
   128
 71
   10
 72
   24
 73
   25
  0
VERTEX
  8
raddishLeaf
 10
0.0
 20
0.0
 30
0.0
 70
   128
 71
   11
 72
   25
 73
   26
  0
VERTEX
  8
raddishLeaf
 10
0.0
 20
0.0
 30
0.0
 70
   128
 71
   12
 72
   26
 73
   27
  0
VERTEX
  8
raddishLeaf
 10
0.0
 20
0.0
 30
0.0
 70
   128
 71
   13
 72
   27
 73
   28
  0
VERTEX
  8
raddishLeaf
 10
0.0
 20
0.0
 30
0.0
 70
   128
 71
   14
 72
   28
 73
   15
  0
VERTEX
  8
raddishLeaf
 10
0.0
 20
0.0
 30
0.0
 70
   128
 71
   29
 72
   30
 73
   44
  0
VERTEX
  8
raddishLeaf
 10
0.0
 20
0.0
 30
0.0
 70
   128
 71
   30
 72
   31
 73
   45
  0
VERTEX
  8
raddishLeaf
 10
0.0
 20
0.0
 30
0.0
 70
   128
 71
   31
 72
   32
 73
   46
  0
VERTEX
  8
raddishLeaf
 10
0.0
 20
0.0
 30
0.0
 70
   128
 71
   32
 72
   33
 73
   47
  0
VERTEX
  8
raddishLeaf
 10
0.0
 20
0.0
 30
0.0
 70
   128
 71
   33
 72
   34
 73
   48
  0
VERTEX
  8
raddishLeaf
 10
0.0
 20
0.0
 30
0.0
 70
   128
 71
   34
 72
   35
 73
   49
  0
VERTEX
  8
raddishLeaf
 10
0.0
 20
0.0
 30
0.0
 70
   128
 71
   35
 72
   36
 73
   50
  0
VERTEX
  8
raddishLeaf
 10
0.0
 20
0.0
 30
0.0
 70
   128
 71
   36
 72
   37
 73
   51
  0
VERTEX
  8
raddishLeaf
 10
0.0
 20
0.0
 30
0.0
 70
   128
 71
   37
 72
   38
 73
   52
  0
VERTEX
  8
raddishLeaf
 10
0.0
 20
0.0
 30
0.0
 70
   128
 71
   38
 72
   39
 73
   53
  0
VERTEX
  8
raddishLeaf
 10
0.0
 20
0.0
 30
0.0
 70
   128
 71
   39
 72
   40
 73
   54
  0
VERTEX
  8
raddishLeaf
 10
0.0
 20
0.0
 30
0.0
 70
   128
 71
   40
 72
   41
 73
   55
  0
VERTEX
  8
raddishLeaf
 10
0.0
 20
0.0
 30
0.0
 70
   128
 71
   41
 72
   42
 73
   56
  0
VERTEX
  8
raddishLeaf
 10
0.0
 20
0.0
 30
0.0
 70
   128
 71
   42
 72
   29
 73
   43
  0
VERTEX
  8
raddishLeaf
 10
0.0
 20
0.0
 30
0.0
 70
   128
 71
   57
 72
   58
 73
   63
  0
VERTEX
  8
raddishLeaf
 10
0.0
 20
0.0
 30
0.0
 70
   128
 71
   57
 72
   63
 73
   70
  0
VERTEX
  8
raddishLeaf
 10
0.0
 20
0.0
 30
0.0
 70
   128
 71
   58
 72
   59
 73
   61
  0
VERTEX
  8
raddishLeaf
 10
0.0
 20
0.0
 30
0.0
 70
   128
 71
   58
 72
   61
 73
   62
  0
VERTEX
  8
raddishLeaf
 10
0.0
 20
0.0
 30
0.0
 70
   128
 71
   58
 72
   62
 73
   63
  0
VERTEX
  8
raddishLeaf
 10
0.0
 20
0.0
 30
0.0
 70
   128
 71
   59
 72
   60
 73
   61
  0
VERTEX
  8
raddishLeaf
 10
0.0
 20
0.0
 30
0.0
 70
   128
 71
   63
 72
   64
 73
   69
  0
VERTEX
  8
raddishLeaf
 10
0.0
 20
0.0
 30
0.0
 70
   128
 71
   63
 72
   69
 73
   70
  0
VERTEX
  8
raddishLeaf
 10
0.0
 20
0.0
 30
0.0
 70
   128
 71
   64
 72
   65
 73
   68
  0
VERTEX
  8
raddishLeaf
 10
0.0
 20
0.0
 30
0.0
 70
   128
 71
   64
 72
   68
 73
   69
  0
VERTEX
  8
raddishLeaf
 10
0.0
 20
0.0
 30
0.0
 70
   128
 71
   65
 72
   66
 73
   67
  0
VERTEX
  8
raddishLeaf
 10
0.0
 20
0.0
 30
0.0
 70
   128
 71
   65
 72
   67
 73
   68
  0
VERTEX
  8
raddishLeaf
 10
0.0
 20
0.0
 30
0.0
 70
   128
 71
   71
 72
   85
 73
   86
  0
VERTEX
  8
raddishLeaf
 10
0.0
 20
0.0
 30
0.0
 70
   128
 71
   72
 72
   86
 73
   87
  0
VERTEX
  8
raddishLeaf
 10
0.0
 20
0.0
 30
0.0
 70
   128
 71
   73
 72
   87
 73
   88
  0
VERTEX
  8
raddishLeaf
 10
0.0
 20
0.0
 30
0.0
 70
   128
 71
   74
 72
   88
 73
   89
  0
VERTEX
  8
raddishLeaf
 10
0.0
 20
0.0
 30
0.0
 70
   128
 71
   75
 72
   89
 73
   90
  0
VERTEX
  8
raddishLeaf
 10
0.0
 20
0.0
 30
0.0
 70
   128
 71
   76
 72
   90
 73
   91
  0
VERTEX
  8
raddishLeaf
 10
0.0
 20
0.0
 30
0.0
 70
   128
 71
   77
 72
   91
 73
   92
  0
VERTEX
  8
raddishLeaf
 10
0.0
 20
0.0
 30
0.0
 70
   128
 71
   78
 72
   92
 73
   93
  0
VERTEX
  8
raddishLeaf
 10
0.0
 20
0.0
 30
0.0
 70
   128
 71
   79
 72
   93
 73
   94
  0
VERTEX
  8
raddishLeaf
 10
0.0
 20
0.0
 30
0.0
 70
   128
 71
   80
 72
   94
 73
   95
  0
VERTEX
  8
raddishLeaf
 10
0.0
 20
0.0
 30
0.0
 70
   128
 71
   81
 72
   95
 73
   96
  0
VERTEX
  8
raddishLeaf
 10
0.0
 20
0.0
 30
0.0
 70
   128
 71
   82
 72
   96
 73
   97
  0
VERTEX
  8
raddishLeaf
 10
0.0
 20
0.0
 30
0.0
 70
   128
 71
   83
 72
   97
 73
   98
  0
VERTEX
  8
raddishLeaf
 10
0.0
 20
0.0
 30
0.0
 70
   128
 71
   84
 72
   98
 73
   85
  0
VERTEX
  8
raddishLeaf
 10
0.0
 20
0.0
 30
0.0
 70
   128
 71
   112
 72
   111
 73
   105
  0
VERTEX
  8
raddishLeaf
 10
0.0
 20
0.0
 30
0.0
 70
   128
 71
   112
 72
   105
 73
   99
  0
VERTEX
  8
raddishLeaf
 10
0.0
 20
0.0
 30
0.0
 70
   128
 71
   111
 72
   110
 73
   106
  0
VERTEX
  8
raddishLeaf
 10
0.0
 20
0.0
 30
0.0
 70
   128
 71
   111
 72
   106
 73
   105
  0
VERTEX
  8
raddishLeaf
 10
0.0
 20
0.0
 30
0.0
 70
   128
 71
   110
 72
   109
 73
   107
  0
VERTEX
  8
raddishLeaf
 10
0.0
 20
0.0
 30
0.0
 70
   128
 71
   110
 72
   107
 73
   106
  0
VERTEX
  8
raddishLeaf
 10
0.0
 20
0.0
 30
0.0
 70
   128
 71
   109
 72
   108
 73
   107
  0
VERTEX
  8
raddishLeaf
 10
0.0
 20
0.0
 30
0.0
 70
   128
 71
   105
 72
   104
 73
   100
  0
VERTEX
  8
raddishLeaf
 10
0.0
 20
0.0
 30
0.0
 70
   128
 71
   105
 72
   100
 73
   99
  0
VERTEX
  8
raddishLeaf
 10
0.0
 20
0.0
 30
0.0
 70
   128
 71
   104
 72
   103
 73
   100
  0
VERTEX
  8
raddishLeaf
 10
0.0
 20
0.0
 30
0.0
 70
   128
 71
   103
 72
   102
 73
   101
  0
VERTEX
  8
raddishLeaf
 10
0.0
 20
0.0
 30
0.0
 70
   128
 71
   103
 72
   101
 73
   100
  0
VERTEX
  8
raddishLeaf
 10
0.0
 20
0.0
 30
0.0
 70
   128
 71
   1
 72
   16
 73
   2
  0
VERTEX
  8
raddishLeaf
 10
0.0
 20
0.0
 30
0.0
 70
   128
 71
   2
 72
   17
 73
   3
  0
VERTEX
  8
raddishLeaf
 10
0.0
 20
0.0
 30
0.0
 70
   128
 71
   3
 72
   18
 73
   4
  0
VERTEX
  8
raddishLeaf
 10
0.0
 20
0.0
 30
0.0
 70
   128
 71
   4
 72
   19
 73
   5
  0
VERTEX
  8
raddishLeaf
 10
0.0
 20
0.0
 30
0.0
 70
   128
 71
   5
 72
   20
 73
   6
  0
VERTEX
  8
raddishLeaf
 10
0.0
 20
0.0
 30
0.0
 70
   128
 71
   6
 72
   21
 73
   7
  0
VERTEX
  8
raddishLeaf
 10
0.0
 20
0.0
 30
0.0
 70
   128
 71
   7
 72
   22
 73
   8
  0
VERTEX
  8
raddishLeaf
 10
0.0
 20
0.0
 30
0.0
 70
   128
 71
   8
 72
   23
 73
   9
  0
VERTEX
  8
raddishLeaf
 10
0.0
 20
0.0
 30
0.0
 70
   128
 71
   9
 72
   24
 73
   10
  0
VERTEX
  8
raddishLeaf
 10
0.0
 20
0.0
 30
0.0
 70
   128
 71
   10
 72
   25
 73
   11
  0
VERTEX
  8
raddishLeaf
 10
0.0
 20
0.0
 30
0.0
 70
   128
 71
   11
 72
   26
 73
   12
  0
VERTEX
  8
raddishLeaf
 10
0.0
 20
0.0
 30
0.0
 70
   128
 71
   12
 72
   27
 73
   13
  0
VERTEX
  8
raddishLeaf
 10
0.0
 20
0.0
 30
0.0
 70
   128
 71
   13
 72
   28
 73
   14
  0
VERTEX
  8
raddishLeaf
 10
0.0
 20
0.0
 30
0.0
 70
   128
 71
   14
 72
   15
 73
   1
  0
VERTEX
  8
raddishLeaf
 10
0.0
 20
0.0
 30
0.0
 70
   128
 71
   29
 72
   44
 73
   43
  0
VERTEX
  8
raddishLeaf
 10
0.0
 20
0.0
 30
0.0
 70
   128
 71
   30
 72
   45
 73
   44
  0
VERTEX
  8
raddishLeaf
 10
0.0
 20
0.0
 30
0.0
 70
   128
 71
   31
 72
   46
 73
   45
  0
VERTEX
  8
raddishLeaf
 10
0.0
 20
0.0
 30
0.0
 70
   128
 71
   32
 72
   47
 73
   46
  0
VERTEX
  8
raddishLeaf
 10
0.0
 20
0.0
 30
0.0
 70
   128
 71
   33
 72
   48
 73
   47
  0
VERTEX
  8
raddishLeaf
 10
0.0
 20
0.0
 30
0.0
 70
   128
 71
   34
 72
   49
 73
   48
  0
VERTEX
  8
raddishLeaf
 10
0.0
 20
0.0
 30
0.0
 70
   128
 71
   35
 72
   50
 73
   49
  0
VERTEX
  8
raddishLeaf
 10
0.0
 20
0.0
 30
0.0
 70
   128
 71
   36
 72
   51
 73
   50
  0
VERTEX
  8
raddishLeaf
 10
0.0
 20
0.0
 30
0.0
 70
   128
 71
   37
 72
   52
 73
   51
  0
VERTEX
  8
raddishLeaf
 10
0.0
 20
0.0
 30
0.0
 70
   128
 71
   38
 72
   53
 73
   52
  0
VERTEX
  8
raddishLeaf
 10
0.0
 20
0.0
 30
0.0
 70
   128
 71
   39
 72
   54
 73
   53
  0
VERTEX
  8
raddishLeaf
 10
0.0
 20
0.0
 30
0.0
 70
   128
 71
   40
 72
   55
 73
   54
  0
VERTEX
  8
raddishLeaf
 10
0.0
 20
0.0
 30
0.0
 70
   128
 71
   41
 72
   56
 73
   55
  0
VERTEX
  8
raddishLeaf
 10
0.0
 20
0.0
 30
0.0
 70
   128
 71
   42
 72
   43
 73
   56
  0
VERTEX
  8
raddishLeaf
 10
0.0
 20
0.0
 30
0.0
 70
   128
 71
   71
 72
   86
 73
   72
  0
VERTEX
  8
raddishLeaf
 10
0.0
 20
0.0
 30
0.0
 70
   128
 71
   72
 72
   87
 73
   73
  0
VERTEX
  8
raddishLeaf
 10
0.0
 20
0.0
 30
0.0
 70
   128
 71
   73
 72
   88
 73
   74
  0
VERTEX
  8
raddishLeaf
 10
0.0
 20
0.0
 30
0.0
 70
   128
 71
   74
 72
   89
 73
   75
  0
VERTEX
  8
raddishLeaf
 10
0.0
 20
0.0
 30
0.0
 70
   128
 71
   75
 72
   90
 73
   76
  0
VERTEX
  8
raddishLeaf
 10
0.0
 20
0.0
 30
0.0
 70
   128
 71
   76
 72
   91
 73
   77
  0
VERTEX
  8
raddishLeaf
 10
0.0
 20
0.0
 30
0.0
 70
   128
 71
   77
 72
   92
 73
   78
  0
VERTEX
  8
raddishLeaf
 10
0.0
 20
0.0
 30
0.0
 70
   128
 71
   78
 72
   93
 73
   79
  0
VERTEX
  8
raddishLeaf
 10
0.0
 20
0.0
 30
0.0
 70
   128
 71
   79
 72
   94
 73
   80
  0
VERTEX
  8
raddishLeaf
 10
0.0
 20
0.0
 30
0.0
 70
   128
 71
   80
 72
   95
 73
   81
  0
VERTEX
  8
raddishLeaf
 10
0.0
 20
0.0
 30
0.0
 70
   128
 71
   81
 72
   96
 73
   82
  0
VERTEX
  8
raddishLeaf
 10
0.0
 20
0.0
 30
0.0
 70
   128
 71
   82
 72
   97
 73
   83
  0
VERTEX
  8
raddishLeaf
 10
0.0
 20
0.0
 30
0.0
 70
   128
 71
   83
 72
   98
 73
   84
  0
VERTEX
  8
raddishLeaf
 10
0.0
 20
0.0
 30
0.0
 70
   128
 71
   84
 72
   85
 73
   71
  0
SEQEND
  0
POLYLINE
  8
raddishLeaf_2
 66
   1
 10
0.0
 20
0.0
 30
0.0
 70
   64
 71
   126
 72
   108
  0
VERTEX
  8
raddishLeaf_2
 10
1.729059
 20
139.642690
 30
-10.269095
 70
   192
  0
VERTEX
  8
raddishLeaf_2
 10
0.413766
 20
169.157154
 30
-31.045628
 70
   192
  0
VERTEX
  8
raddishLeaf_2
 10
7.072047
 20
190.577450
 30
-39.805452
 70
   192
  0
VERTEX
  8
raddishLeaf_2
 10
20.265224
 20
201.661315
 30
-36.247214
 70
   192
  0
VERTEX
  8
raddishLeaf_2
 10
32.214514
 20
200.711078
 30
-25.695233
 70
   192
  0
VERTEX
  8
raddishLeaf_2
 10
34.997989
 20
179.645126
 30
-9.334846
 70
   192
  0
VERTEX
  8
raddishLeaf_2
 10
32.163197
 20
174.540366
 30
-8.283152
 70
   192
  0
VERTEX
  8
raddishLeaf_2
 10
37.149556
 20
182.467180
 30
-9.431172
 70
   192
  0
VERTEX
  8
raddishLeaf_2
 10
49.726635
 20
195.137235
 30
-7.442228
 70
   192
  0
VERTEX
  8
raddishLeaf_2
 10
61.756255
 20
200.652937
 30
-1.136060
 70
   192
  0
VERTEX
  8
raddishLeaf_2
 10
72.276398
 20
190.314672
 30
14.491079
 70
   192
  0
VERTEX
  8
raddishLeaf_2
 10
63.589582
 20
167.790168
 30
22.303623
 70
   192
  0
VERTEX
  8
raddishLeaf_2
 10
48.398609
 20
152.450725
 30
19.925441
 70
   192
  0
VERTEX
  8
raddishLeaf_2
 10
25.799252
 20
129.935068
 30
16.184320
 70
   192
  0
VERTEX
  8
raddishLeaf_2
 10
15.934592
 20
128.228045
 30
-27.383671
 70
   192
  0
VERTEX
  8
raddishLeaf_2
 10
14.619300
 20
157.742509
 30
-48.160204
 70
   192
  0
VERTEX
  8
raddishLeaf_2
 10
21.277580
 20
179.162805
 30
-56.920027
 70
   192
  0
VERTEX
  8
raddishLeaf_2
 10
34.470757
 20
190.246670
 30
-53.361789
 70
   192
  0
VERTEX
  8
raddishLeaf_2
 10
46.420048
 20
189.296433
 30
-42.809809
 70
   192
  0
VERTEX
  8
raddishLeaf_2
 10
49.203522
 20
168.230481
 30
-26.449422
 70
   192
  0
VERTEX
  8
raddishLeaf_2
 10
46.368730
 20
163.125721
 30
-25.397728
 70
   192
  0
VERTEX
  8
raddishLeaf_2
 10
51.355089
 20
171.052535
 30
-26.545748
 70
   192
  0
VERTEX
  8
raddishLeaf_2
 10
63.932168
 20
183.722590
 30
-24.556804
 70
   192
  0
VERTEX
  8
raddishLeaf_2
 10
75.961789
 20
189.238292
 30
-18.250635
 70
   192
  0
VERTEX
  8
raddishLeaf_2
 10
86.481931
 20
178.900027
 30
-2.623497
 70
   192
  0
VERTEX
  8
raddishLeaf_2
 10
77.795115
 20
156.375523
 30
5.189047
 70
   192
  0
VERTEX
  8
raddishLeaf_2
 10
62.604142
 20
141.036080
 30
2.810865
 70
   192
  0
VERTEX
  8
raddishLeaf_2
 10
40.004785
 20
118.520423
 30
-0.930255
 70
   192
  0
VERTEX
  8
raddishLeaf_2
 10
1.729059
 20
139.642690
 30
-10.269095
 70
   192
  0
VERTEX
  8
raddishLeaf_2
 10
0.413766
 20
169.157154
 30
-31.045628
 70
   192
  0
VERTEX
  8
raddishLeaf_2
 10
7.072047
 20
190.577450
 30
-39.805452
 70
   192
  0
VERTEX
  8
raddishLeaf_2
 10
20.265224
 20
201.661315
 30
-36.247214
 70
   192
  0
VERTEX
  8
raddishLeaf_2
 10
32.214514
 20
200.711078
 30
-25.695233
 70
   192
  0
VERTEX
  8
raddishLeaf_2
 10
34.997989
 20
179.645126
 30
-9.334846
 70
   192
  0
VERTEX
  8
raddishLeaf_2
 10
32.163197
 20
174.540366
 30
-8.283152
 70
   192
  0
VERTEX
  8
raddishLeaf_2
 10
37.149556
 20
182.467180
 30
-9.431172
 70
   192
  0
VERTEX
  8
raddishLeaf_2
 10
49.726635
 20
195.137235
 30
-7.442228
 70
   192
  0
VERTEX
  8
raddishLeaf_2
 10
61.756255
 20
200.652937
 30
-1.136060
 70
   192
  0
VERTEX
  8
raddishLeaf_2
 10
72.276398
 20
190.314672
 30
14.491079
 70
   192
  0
VERTEX
  8
raddishLeaf_2
 10
63.589582
 20
167.790168
 30
22.303623
 70
   192
  0
VERTEX
  8
raddishLeaf_2
 10
48.398609
 20
152.450725
 30
19.925441
 70
   192
  0
VERTEX
  8
raddishLeaf_2
 10
25.799252
 20
129.935068
 30
16.184320
 70
   192
  0
VERTEX
  8
raddishLeaf_2
 10
3.028249
 20
146.139717
 30
-6.220240
 70
   192
  0
VERTEX
  8
raddishLeaf_2
 10
1.842046
 20
172.757480
 30
-24.957658
 70
   192
  0
VERTEX
  8
raddishLeaf_2
 10
7.448186
 20
190.792944
 30
-32.333255
 70
   192
  0
VERTEX
  8
raddishLeaf_2
 10
17.045612
 20
198.855943
 30
-29.744801
 70
   192
  0
VERTEX
  8
raddishLeaf_2
 10
25.466051
 20
198.186328
 30
-22.309021
 70
   192
  0
VERTEX
  8
raddishLeaf_2
 10
27.829241
 20
180.301178
 30
-8.418929
 70
   192
  0
VERTEX
  8
raddishLeaf_2
 10
24.134796
 20
167.154040
 30
-2.716869
 70
   192
  0
VERTEX
  8
raddishLeaf_2
 10
36.417190
 20
181.835996
 30
-2.314367
 70
   192
  0
VERTEX
  8
raddishLeaf_2
 10
47.814637
 20
193.317699
 30
-0.511971
 70
   192
  0
VERTEX
  8
raddishLeaf_2
 10
56.724752
 20
197.403076
 30
4.158890
 70
   192
  0
VERTEX
  8
raddishLeaf_2
 10
64.488004
 20
189.774038
 30
15.690809
 70
   192
  0
VERTEX
  8
raddishLeaf_2
 10
57.614501
 20
171.951366
 30
21.872539
 70
   192
  0
VERTEX
  8
raddishLeaf_2
 10
43.712452
 20
157.913445
 30
19.696141
 70
   192
  0
VERTEX
  8
raddishLeaf_2
 10
23.576815
 20
137.852384
 30
16.362867
 70
   192
  0
VERTEX
  8
raddishLeaf_2
 10
3.028249
 20
146.139717
 30
-6.220240
 70
   192
  0
VERTEX
  8
raddishLeaf_2
 10
1.842046
 20
172.757480
 30
-24.957658
 70
   192
  0
VERTEX
  8
raddishLeaf_2
 10
7.448186
 20
190.792944
 30
-32.333255
 70
   192
  0
VERTEX
  8
raddishLeaf_2
 10
17.045612
 20
198.855943
 30
-29.744801
 70
   192
  0
VERTEX
  8
raddishLeaf_2
 10
25.466051
 20
198.186328
 30
-22.309021
 70
   192
  0
VERTEX
  8
raddishLeaf_2
 10
27.829241
 20
180.301178
 30
-8.418929
 70
   192
  0
VERTEX
  8
raddishLeaf_2
 10
24.134796
 20
167.154040
 30
-2.716869
 70
   192
  0
VERTEX
  8
raddishLeaf_2
 10
36.417190
 20
181.835996
 30
-2.314367
 70
   192
  0
VERTEX
  8
raddishLeaf_2
 10
47.814637
 20
193.317699
 30
-0.511971
 70
   192
  0
VERTEX
  8
raddishLeaf_2
 10
56.724752
 20
197.403076
 30
4.158890
 70
   192
  0
VERTEX
  8
raddishLeaf_2
 10
64.488004
 20
189.774038
 30
15.690809
 70
   192
  0
VERTEX
  8
raddishLeaf_2
 10
57.614501
 20
171.951366
 30
21.872539
 70
   192
  0
VERTEX
  8
raddishLeaf_2
 10
43.712452
 20
157.913445
 30
19.696141
 70
   192
  0
VERTEX
  8
raddishLeaf_2
 10
23.576815
 20
137.852384
 30
16.362867
 70
   192
  0
VERTEX
  8
raddishLeaf_2
 10
15.934592
 20
128.228045
 30
-27.383671
 70
   192
  0
VERTEX
  8
raddishLeaf_2
 10
14.619300
 20
157.742509
 30
-48.160204
 70
   192
  0
VERTEX
  8
raddishLeaf_2
 10
21.277580
 20
179.162805
 30
-56.920027
 70
   192
  0
VERTEX
  8
raddishLeaf_2
 10
34.470757
 20
190.246670
 30
-53.361789
 70
   192
  0
VERTEX
  8
raddishLeaf_2
 10
46.420048
 20
189.296433
 30
-42.809809
 70
   192
  0
VERTEX
  8
raddishLeaf_2
 10
49.203522
 20
168.230481
 30
-26.449422
 70
   192
  0
VERTEX
  8
raddishLeaf_2
 10
46.368730
 20
163.125721
 30
-25.397728
 70
   192
  0
VERTEX
  8
raddishLeaf_2
 10
51.355089
 20
171.052535
 30
-26.545748
 70
   192
  0
VERTEX
  8
raddishLeaf_2
 10
63.932168
 20
183.722590
 30
-24.556804
 70
   192
  0
VERTEX
  8
raddishLeaf_2
 10
75.961789
 20
189.238292
 30
-18.250635
 70
   192
  0
VERTEX
  8
raddishLeaf_2
 10
86.481931
 20
178.900027
 30
-2.623497
 70
   192
  0
VERTEX
  8
raddishLeaf_2
 10
77.795115
 20
156.375523
 30
5.189047
 70
   192
  0
VERTEX
  8
raddishLeaf_2
 10
62.604142
 20
141.036080
 30
2.810865
 70
   192
  0
VERTEX
  8
raddishLeaf_2
 10
40.004785
 20
118.520423
 30
-0.930255
 70
   192
  0
VERTEX
  8
raddishLeaf_2
 10
22.915996
 20
130.159214
 30
-30.180646
 70
   192
  0
VERTEX
  8
raddishLeaf_2
 10
21.729793
 20
156.776977
 30
-48.918064
 70
   192
  0
VERTEX
  8
raddishLeaf_2
 10
27.335932
 20
174.812441
 30
-56.293661
 70
   192
  0
VERTEX
  8
raddishLeaf_2
 10
36.933358
 20
182.875440
 30
-53.705208
 70
   192
  0
VERTEX
  8
raddishLeaf_2
 10
45.353797
 20
182.205825
 30
-46.269427
 70
   192
  0
VERTEX
  8
raddishLeaf_2
 10
47.716988
 20
164.320675
 30
-32.379335
 70
   192
  0
VERTEX
  8
raddishLeaf_2
 10
44.022542
 20
151.173537
 30
-26.677275
 70
   192
  0
VERTEX
  8
raddishLeaf_2
 10
56.304937
 20
165.855493
 30
-26.274773
 70
   192
  0
VERTEX
  8
raddishLeaf_2
 10
67.702384
 20
177.337196
 30
-24.472377
 70
   192
  0
VERTEX
  8
raddishLeaf_2
 10
76.612498
 20
181.422573
 30
-19.801516
 70
   192
  0
VERTEX
  8
raddishLeaf_2
 10
84.375751
 20
173.793535
 30
-8.269597
 70
   192
  0
VERTEX
  8
raddishLeaf_2
 10
77.502247
 20
155.970863
 30
-2.087867
 70
   192
  0
VERTEX
  8
raddishLeaf_2
 10
63.600198
 20
141.932942
 30
-4.264265
 70
   192
  0
VERTEX
  8
raddishLeaf_2
 10
43.464562
 20
121.871881
 30
-7.597539
 70
   192
  0
VERTEX
  8
raddishLeaf_2
 10
22.915996
 20
130.159214
 30
-30.180646
 70
   192
  0
VERTEX
  8
raddishLeaf_2
 10
21.729793
 20
156.776977
 30
-48.918064
 70
   192
  0
VERTEX
  8
raddishLeaf_2
 10
27.335932
 20
174.812441
 30
-56.293661
 70
   192
  0
VERTEX
  8
raddishLeaf_2
 10
36.933358
 20
182.875440
 30
-53.705208
 70
   192
  0
VERTEX
  8
raddishLeaf_2
 10
45.353797
 20
182.205825
 30
-46.269427
 70
   192
  0
VERTEX
  8
raddishLeaf_2
 10
47.716988
 20
164.320675
 30
-32.379335
 70
   192
  0
VERTEX
  8
raddishLeaf_2
 10
44.022542
 20
151.173537
 30
-26.677275
 70
   192
  0
VERTEX
  8
raddishLeaf_2
 10
56.304937
 20
165.855493
 30
-26.274773
 70
   192
  0
VERTEX
  8
raddishLeaf_2
 10
67.702384
 20
177.337196
 30
-24.472377
 70
   192
  0
VERTEX
  8
raddishLeaf_2
 10
76.612498
 20
181.422573
 30
-19.801516
 70
   192
  0
VERTEX
  8
raddishLeaf_2
 10
84.375751
 20
173.793535
 30
-8.269597
 70
   192
  0
VERTEX
  8
raddishLeaf_2
 10
77.502247
 20
155.970863
 30
-2.087867
 70
   192
  0
VERTEX
  8
raddishLeaf_2
 10
63.600198
 20
141.932942
 30
-4.264265
 70
   192
  0
VERTEX
  8
raddishLeaf_2
 10
43.464562
 20
121.871881
 30
-7.597539
 70
   192
  0
VERTEX
  8
raddishLeaf_2
 10
-44.205004
 20
-15.505745
 30
37.777915
 70
   192
  0
VERTEX
  8
raddishLeaf_2
 10
-44.205004
 20
-15.505745
 30
37.777915
 70
   192
  0
VERTEX
  8
raddishLeaf_2
 10
-44.205004
 20
-15.505745
 30
37.777915
 70
   192
  0
VERTEX
  8
raddishLeaf_2
 10
-44.205004
 20
-15.505745
 30
37.777915
 70
   192
  0
VERTEX
  8
raddishLeaf_2
 10
-44.205004
 20
-15.505745
 30
37.777915
 70
   192
  0
VERTEX
  8
raddishLeaf_2
 10
-44.205004
 20
-15.505745
 30
37.777915
 70
   192
  0
VERTEX
  8
raddishLeaf_2
 10
-44.205004
 20
-15.505745
 30
37.777915
 70
   192
  0
VERTEX
  8
raddishLeaf_2
 10
-44.205004
 20
-15.505745
 30
37.777915
 70
   192
  0
VERTEX
  8
raddishLeaf_2
 10
-44.205004
 20
-15.505745
 30
37.777915
 70
   192
  0
VERTEX
  8
raddishLeaf_2
 10
-44.205004
 20
-15.505745
 30
37.777915
 70
   192
  0
VERTEX
  8
raddishLeaf_2
 10
-44.205004
 20
-15.505745
 30
37.777915
 70
   192
  0
VERTEX
  8
raddishLeaf_2
 10
-44.205004
 20
-15.505745
 30
37.777915
 70
   192
  0
VERTEX
  8
raddishLeaf_2
 10
-44.205004
 20
-15.505745
 30
37.777915
 70
   192
  0
VERTEX
  8
raddishLeaf_2
 10
-44.205004
 20
-15.505745
 30
37.777915
 70
   192
  0
VERTEX
  8
raddishLeaf_2
 10
0.0
 20
0.0
 30
0.0
 70
   128
 71
   1
 72
   15
 73
   16
  0
VERTEX
  8
raddishLeaf_2
 10
0.0
 20
0.0
 30
0.0
 70
   128
 71
   2
 72
   16
 73
   17
  0
VERTEX
  8
raddishLeaf_2
 10
0.0
 20
0.0
 30
0.0
 70
   128
 71
   3
 72
   17
 73
   18
  0
VERTEX
  8
raddishLeaf_2
 10
0.0
 20
0.0
 30
0.0
 70
   128
 71
   4
 72
   18
 73
   19
  0
VERTEX
  8
raddishLeaf_2
 10
0.0
 20
0.0
 30
0.0
 70
   128
 71
   5
 72
   19
 73
   20
  0
VERTEX
  8
raddishLeaf_2
 10
0.0
 20
0.0
 30
0.0
 70
   128
 71
   6
 72
   20
 73
   21
  0
VERTEX
  8
raddishLeaf_2
 10
0.0
 20
0.0
 30
0.0
 70
   128
 71
   7
 72
   21
 73
   22
  0
VERTEX
  8
raddishLeaf_2
 10
0.0
 20
0.0
 30
0.0
 70
   128
 71
   8
 72
   22
 73
   23
  0
VERTEX
  8
raddishLeaf_2
 10
0.0
 20
0.0
 30
0.0
 70
   128
 71
   9
 72
   23
 73
   24
  0
VERTEX
  8
raddishLeaf_2
 10
0.0
 20
0.0
 30
0.0
 70
   128
 71
   10
 72
   24
 73
   25
  0
VERTEX
  8
raddishLeaf_2
 10
0.0
 20
0.0
 30
0.0
 70
   128
 71
   11
 72
   25
 73
   26
  0
VERTEX
  8
raddishLeaf_2
 10
0.0
 20
0.0
 30
0.0
 70
   128
 71
   12
 72
   26
 73
   27
  0
VERTEX
  8
raddishLeaf_2
 10
0.0
 20
0.0
 30
0.0
 70
   128
 71
   13
 72
   27
 73
   28
  0
VERTEX
  8
raddishLeaf_2
 10
0.0
 20
0.0
 30
0.0
 70
   128
 71
   14
 72
   28
 73
   15
  0
VERTEX
  8
raddishLeaf_2
 10
0.0
 20
0.0
 30
0.0
 70
   128
 71
   29
 72
   30
 73
   44
  0
VERTEX
  8
raddishLeaf_2
 10
0.0
 20
0.0
 30
0.0
 70
   128
 71
   30
 72
   31
 73
   45
  0
VERTEX
  8
raddishLeaf_2
 10
0.0
 20
0.0
 30
0.0
 70
   128
 71
   31
 72
   32
 73
   46
  0
VERTEX
  8
raddishLeaf_2
 10
0.0
 20
0.0
 30
0.0
 70
   128
 71
   32
 72
   33
 73
   47
  0
VERTEX
  8
raddishLeaf_2
 10
0.0
 20
0.0
 30
0.0
 70
   128
 71
   33
 72
   34
 73
   48
  0
VERTEX
  8
raddishLeaf_2
 10
0.0
 20
0.0
 30
0.0
 70
   128
 71
   34
 72
   35
 73
   49
  0
VERTEX
  8
raddishLeaf_2
 10
0.0
 20
0.0
 30
0.0
 70
   128
 71
   35
 72
   36
 73
   50
  0
VERTEX
  8
raddishLeaf_2
 10
0.0
 20
0.0
 30
0.0
 70
   128
 71
   36
 72
   37
 73
   51
  0
VERTEX
  8
raddishLeaf_2
 10
0.0
 20
0.0
 30
0.0
 70
   128
 71
   37
 72
   38
 73
   52
  0
VERTEX
  8
raddishLeaf_2
 10
0.0
 20
0.0
 30
0.0
 70
   128
 71
   38
 72
   39
 73
   53
  0
VERTEX
  8
raddishLeaf_2
 10
0.0
 20
0.0
 30
0.0
 70
   128
 71
   39
 72
   40
 73
   54
  0
VERTEX
  8
raddishLeaf_2
 10
0.0
 20
0.0
 30
0.0
 70
   128
 71
   40
 72
   41
 73
   55
  0
VERTEX
  8
raddishLeaf_2
 10
0.0
 20
0.0
 30
0.0
 70
   128
 71
   41
 72
   42
 73
   56
  0
VERTEX
  8
raddishLeaf_2
 10
0.0
 20
0.0
 30
0.0
 70
   128
 71
   42
 72
   29
 73
   43
  0
VERTEX
  8
raddishLeaf_2
 10
0.0
 20
0.0
 30
0.0
 70
   128
 71
   57
 72
   58
 73
   63
  0
VERTEX
  8
raddishLeaf_2
 10
0.0
 20
0.0
 30
0.0
 70
   128
 71
   57
 72
   63
 73
   70
  0
VERTEX
  8
raddishLeaf_2
 10
0.0
 20
0.0
 30
0.0
 70
   128
 71
   58
 72
   59
 73
   61
  0
VERTEX
  8
raddishLeaf_2
 10
0.0
 20
0.0
 30
0.0
 70
   128
 71
   58
 72
   61
 73
   62
  0
VERTEX
  8
raddishLeaf_2
 10
0.0
 20
0.0
 30
0.0
 70
   128
 71
   58
 72
   62
 73
   63
  0
VERTEX
  8
raddishLeaf_2
 10
0.0
 20
0.0
 30
0.0
 70
   128
 71
   59
 72
   60
 73
   61
  0
VERTEX
  8
raddishLeaf_2
 10
0.0
 20
0.0
 30
0.0
 70
   128
 71
   63
 72
   64
 73
   69
  0
VERTEX
  8
raddishLeaf_2
 10
0.0
 20
0.0
 30
0.0
 70
   128
 71
   63
 72
   69
 73
   70
  0
VERTEX
  8
raddishLeaf_2
 10
0.0
 20
0.0
 30
0.0
 70
   128
 71
   64
 72
   65
 73
   68
  0
VERTEX
  8
raddishLeaf_2
 10
0.0
 20
0.0
 30
0.0
 70
   128
 71
   64
 72
   68
 73
   69
  0
VERTEX
  8
raddishLeaf_2
 10
0.0
 20
0.0
 30
0.0
 70
   128
 71
   65
 72
   66
 73
   67
  0
VERTEX
  8
raddishLeaf_2
 10
0.0
 20
0.0
 30
0.0
 70
   128
 71
   65
 72
   67
 73
   68
  0
VERTEX
  8
raddishLeaf_2
 10
0.0
 20
0.0
 30
0.0
 70
   128
 71
   71
 72
   85
 73
   86
  0
VERTEX
  8
raddishLeaf_2
 10
0.0
 20
0.0
 30
0.0
 70
   128
 71
   72
 72
   86
 73
   87
  0
VERTEX
  8
raddishLeaf_2
 10
0.0
 20
0.0
 30
0.0
 70
   128
 71
   73
 72
   87
 73
   88
  0
VERTEX
  8
raddishLeaf_2
 10
0.0
 20
0.0
 30
0.0
 70
   128
 71
   74
 72
   88
 73
   89
  0
VERTEX
  8
raddishLeaf_2
 10
0.0
 20
0.0
 30
0.0
 70
   128
 71
   75
 72
   89
 73
   90
  0
VERTEX
  8
raddishLeaf_2
 10
0.0
 20
0.0
 30
0.0
 70
   128
 71
   76
 72
   90
 73
   91
  0
VERTEX
  8
raddishLeaf_2
 10
0.0
 20
0.0
 30
0.0
 70
   128
 71
   77
 72
   91
 73
   92
  0
VERTEX
  8
raddishLeaf_2
 10
0.0
 20
0.0
 30
0.0
 70
   128
 71
   78
 72
   92
 73
   93
  0
VERTEX
  8
raddishLeaf_2
 10
0.0
 20
0.0
 30
0.0
 70
   128
 71
   79
 72
   93
 73
   94
  0
VERTEX
  8
raddishLeaf_2
 10
0.0
 20
0.0
 30
0.0
 70
   128
 71
   80
 72
   94
 73
   95
  0
VERTEX
  8
raddishLeaf_2
 10
0.0
 20
0.0
 30
0.0
 70
   128
 71
   81
 72
   95
 73
   96
  0
VERTEX
  8
raddishLeaf_2
 10
0.0
 20
0.0
 30
0.0
 70
   128
 71
   82
 72
   96
 73
   97
  0
VERTEX
  8
raddishLeaf_2
 10
0.0
 20
0.0
 30
0.0
 70
   128
 71
   83
 72
   97
 73
   98
  0
VERTEX
  8
raddishLeaf_2
 10
0.0
 20
0.0
 30
0.0
 70
   128
 71
   84
 72
   98
 73
   85
  0
VERTEX
  8
raddishLeaf_2
 10
0.0
 20
0.0
 30
0.0
 70
   128
 71
   112
 72
   111
 73
   105
  0
VERTEX
  8
raddishLeaf_2
 10
0.0
 20
0.0
 30
0.0
 70
   128
 71
   112
 72
   105
 73
   99
  0
VERTEX
  8
raddishLeaf_2
 10
0.0
 20
0.0
 30
0.0
 70
   128
 71
   111
 72
   110
 73
   106
  0
VERTEX
  8
raddishLeaf_2
 10
0.0
 20
0.0
 30
0.0
 70
   128
 71
   111
 72
   106
 73
   105
  0
VERTEX
  8
raddishLeaf_2
 10
0.0
 20
0.0
 30
0.0
 70
   128
 71
   110
 72
   109
 73
   107
  0
VERTEX
  8
raddishLeaf_2
 10
0.0
 20
0.0
 30
0.0
 70
   128
 71
   110
 72
   107
 73
   106
  0
VERTEX
  8
raddishLeaf_2
 10
0.0
 20
0.0
 30
0.0
 70
   128
 71
   109
 72
   108
 73
   107
  0
VERTEX
  8
raddishLeaf_2
 10
0.0
 20
0.0
 30
0.0
 70
   128
 71
   105
 72
   104
 73
   100
  0
VERTEX
  8
raddishLeaf_2
 10
0.0
 20
0.0
 30
0.0
 70
   128
 71
   105
 72
   100
 73
   99
  0
VERTEX
  8
raddishLeaf_2
 10
0.0
 20
0.0
 30
0.0
 70
   128
 71
   104
 72
   103
 73
   100
  0
VERTEX
  8
raddishLeaf_2
 10
0.0
 20
0.0
 30
0.0
 70
   128
 71
   103
 72
   102
 73
   101
  0
VERTEX
  8
raddishLeaf_2
 10
0.0
 20
0.0
 30
0.0
 70
   128
 71
   103
 72
   101
 73
   100
  0
VERTEX
  8
raddishLeaf_2
 10
0.0
 20
0.0
 30
0.0
 70
   128
 71
   1
 72
   16
 73
   2
  0
VERTEX
  8
raddishLeaf_2
 10
0.0
 20
0.0
 30
0.0
 70
   128
 71
   2
 72
   17
 73
   3
  0
VERTEX
  8
raddishLeaf_2
 10
0.0
 20
0.0
 30
0.0
 70
   128
 71
   3
 72
   18
 73
   4
  0
VERTEX
  8
raddishLeaf_2
 10
0.0
 20
0.0
 30
0.0
 70
   128
 71
   4
 72
   19
 73
   5
  0
VERTEX
  8
raddishLeaf_2
 10
0.0
 20
0.0
 30
0.0
 70
   128
 71
   5
 72
   20
 73
   6
  0
VERTEX
  8
raddishLeaf_2
 10
0.0
 20
0.0
 30
0.0
 70
   128
 71
   6
 72
   21
 73
   7
  0
VERTEX
  8
raddishLeaf_2
 10
0.0
 20
0.0
 30
0.0
 70
   128
 71
   7
 72
   22
 73
   8
  0
VERTEX
  8
raddishLeaf_2
 10
0.0
 20
0.0
 30
0.0
 70
   128
 71
   8
 72
   23
 73
   9
  0
VERTEX
  8
raddishLeaf_2
 10
0.0
 20
0.0
 30
0.0
 70
   128
 71
   9
 72
   24
 73
   10
  0
VERTEX
  8
raddishLeaf_2
 10
0.0
 20
0.0
 30
0.0
 70
   128
 71
   10
 72
   25
 73
   11
  0
VERTEX
  8
raddishLeaf_2
 10
0.0
 20
0.0
 30
0.0
 70
   128
 71
   11
 72
   26
 73
   12
  0
VERTEX
  8
raddishLeaf_2
 10
0.0
 20
0.0
 30
0.0
 70
   128
 71
   12
 72
   27
 73
   13
  0
VERTEX
  8
raddishLeaf_2
 10
0.0
 20
0.0
 30
0.0
 70
   128
 71
   13
 72
   28
 73
   14
  0
VERTEX
  8
raddishLeaf_2
 10
0.0
 20
0.0
 30
0.0
 70
   128
 71
   14
 72
   15
 73
   1
  0
VERTEX
  8
raddishLeaf_2
 10
0.0
 20
0.0
 30
0.0
 70
   128
 71
   29
 72
   44
 73
   43
  0
VERTEX
  8
raddishLeaf_2
 10
0.0
 20
0.0
 30
0.0
 70
   128
 71
   30
 72
   45
 73
   44
  0
VERTEX
  8
raddishLeaf_2
 10
0.0
 20
0.0
 30
0.0
 70
   128
 71
   31
 72
   46
 73
   45
  0
VERTEX
  8
raddishLeaf_2
 10
0.0
 20
0.0
 30
0.0
 70
   128
 71
   32
 72
   47
 73
   46
  0
VERTEX
  8
raddishLeaf_2
 10
0.0
 20
0.0
 30
0.0
 70
   128
 71
   33
 72
   48
 73
   47
  0
VERTEX
  8
raddishLeaf_2
 10
0.0
 20
0.0
 30
0.0
 70
   128
 71
   34
 72
   49
 73
   48
  0
VERTEX
  8
raddishLeaf_2
 10
0.0
 20
0.0
 30
0.0
 70
   128
 71
   35
 72
   50
 73
   49
  0
VERTEX
  8
raddishLeaf_2
 10
0.0
 20
0.0
 30
0.0
 70
   128
 71
   36
 72
   51
 73
   50
  0
VERTEX
  8
raddishLeaf_2
 10
0.0
 20
0.0
 30
0.0
 70
   128
 71
   37
 72
   52
 73
   51
  0
VERTEX
  8
raddishLeaf_2
 10
0.0
 20
0.0
 30
0.0
 70
   128
 71
   38
 72
   53
 73
   52
  0
VERTEX
  8
raddishLeaf_2
 10
0.0
 20
0.0
 30
0.0
 70
   128
 71
   39
 72
   54
 73
   53
  0
VERTEX
  8
raddishLeaf_2
 10
0.0
 20
0.0
 30
0.0
 70
   128
 71
   40
 72
   55
 73
   54
  0
VERTEX
  8
raddishLeaf_2
 10
0.0
 20
0.0
 30
0.0
 70
   128
 71
   41
 72
   56
 73
   55
  0
VERTEX
  8
raddishLeaf_2
 10
0.0
 20
0.0
 30
0.0
 70
   128
 71
   42
 72
   43
 73
   56
  0
VERTEX
  8
raddishLeaf_2
 10
0.0
 20
0.0
 30
0.0
 70
   128
 71
   71
 72
   86
 73
   72
  0
VERTEX
  8
raddishLeaf_2
 10
0.0
 20
0.0
 30
0.0
 70
   128
 71
   72
 72
   87
 73
   73
  0
VERTEX
  8
raddishLeaf_2
 10
0.0
 20
0.0
 30
0.0
 70
   128
 71
   73
 72
   88
 73
   74
  0
VERTEX
  8
raddishLeaf_2
 10
0.0
 20
0.0
 30
0.0
 70
   128
 71
   74
 72
   89
 73
   75
  0
VERTEX
  8
raddishLeaf_2
 10
0.0
 20
0.0
 30
0.0
 70
   128
 71
   75
 72
   90
 73
   76
  0
VERTEX
  8
raddishLeaf_2
 10
0.0
 20
0.0
 30
0.0
 70
   128
 71
   76
 72
   91
 73
   77
  0
VERTEX
  8
raddishLeaf_2
 10
0.0
 20
0.0
 30
0.0
 70
   128
 71
   77
 72
   92
 73
   78
  0
VERTEX
  8
raddishLeaf_2
 10
0.0
 20
0.0
 30
0.0
 70
   128
 71
   78
 72
   93
 73
   79
  0
VERTEX
  8
raddishLeaf_2
 10
0.0
 20
0.0
 30
0.0
 70
   128
 71
   79
 72
   94
 73
   80
  0
VERTEX
  8
raddishLeaf_2
 10
0.0
 20
0.0
 30
0.0
 70
   128
 71
   80
 72
   95
 73
   81
  0
VERTEX
  8
raddishLeaf_2
 10
0.0
 20
0.0
 30
0.0
 70
   128
 71
   81
 72
   96
 73
   82
  0
VERTEX
  8
raddishLeaf_2
 10
0.0
 20
0.0
 30
0.0
 70
   128
 71
   82
 72
   97
 73
   83
  0
VERTEX
  8
raddishLeaf_2
 10
0.0
 20
0.0
 30
0.0
 70
   128
 71
   83
 72
   98
 73
   84
  0
VERTEX
  8
raddishLeaf_2
 10
0.0
 20
0.0
 30
0.0
 70
   128
 71
   84
 72
   85
 73
   71
  0
SEQEND
  0
POLYLINE
  8
raddish_2
 66
   1
 10
0.0
 20
0.0
 30
0.0
 70
   64
 71
   88
 72
   140
  0
VERTEX
  8
raddish_2
 10
23.362065
 20
137.529951
 30
-8.207560
 70
   192
  0
VERTEX
  8
raddish_2
 10
-0.624241
 20
136.903736
 30
-27.699147
 70
   192
  0
VERTEX
  8
raddish_2
 10
-20.505919
 20
125.948876
 30
-36.895051
 70
   192
  0
VERTEX
  8
raddish_2
 10
-36.720273
 20
103.076815
 30
-35.098752
 70
   192
  0
VERTEX
  8
raddish_2
 10
-48.299088
 20
66.795407
 30
-20.511410
 70
   192
  0
VERTEX
  8
raddish_2
 10
-50.844233
 20
26.338071
 30
4.359261
 70
   192
  0
VERTEX
  8
raddish_2
 10
-43.049443
 20
4.753182
 30
25.225276
 70
   192
  0
VERTEX
  8
raddish_2
 10
-37.034609
 20
1.748911
 30
32.221453
 70
   192
  0
VERTEX
  8
raddish_2
 10
23.157224
 20
137.786214
 30
-7.651177
 70
   192
  0
VERTEX
  8
raddish_2
 10
-6.811291
 20
144.643940
 30
-10.894121
 70
   192
  0
VERTEX
  8
raddish_2
 10
-30.474826
 20
138.420307
 30
-9.817894
 70
   192
  0
VERTEX
  8
raddish_2
 10
-48.201923
 20
117.440737
 30
-3.912742
 70
   192
  0
VERTEX
  8
raddish_2
 10
-58.611800
 20
79.696950
 30
7.499578
 70
   192
  0
VERTEX
  8
raddish_2
 10
-57.237566
 20
34.336342
 30
21.724586
 70
   192
  0
VERTEX
  8
raddish_2
 10
-45.042072
 20
7.246025
 30
30.637575
 70
   192
  0
VERTEX
  8
raddish_2
 10
-37.170690
 20
1.919152
 30
32.591069
 70
   192
  0
VERTEX
  8
raddish_2
 10
23.319049
 20
137.896167
 30
-7.035616
 70
   192
  0
VERTEX
  8
raddish_2
 10
-1.923510
 20
147.964965
 30
7.698342
 70
   192
  0
VERTEX
  8
raddish_2
 10
-22.599371
 20
143.771320
 30
20.139277
 70
   192
  0
VERTEX
  8
raddish_2
 10
-39.131398
 20
123.603745
 30
30.590312
 70
   192
  0
VERTEX
  8
raddish_2
 10
-50.464738
 20
85.232507
 30
38.489903
 70
   192
  0
VERTEX
  8
raddish_2
 10
-52.186821
 20
37.768093
 30
40.936941
 70
   192
  0
VERTEX
  8
raddish_2
 10
-43.467892
 20
8.315608
 30
36.625543
 70
   192
  0
VERTEX
  8
raddish_2
 10
-37.063186
 20
1.992196
 30
33.000000
 70
   192
  0
VERTEX
  8
raddish_2
 10
23.785729
 20
137.817811
 30
-6.596000
 70
   192
  0
VERTEX
  8
raddish_2
 10
12.172138
 20
145.598292
 30
20.976552
 70
   192
  0
VERTEX
  8
raddish_2
 10
0.112291
 20
139.958009
 30
41.533839
 70
   192
  0
VERTEX
  8
raddish_2
 10
-12.973331
 20
119.211779
 30
55.231415
 70
   192
  0
VERTEX
  8
raddish_2
 10
-26.969803
 20
81.287683
 30
60.622315
 70
   192
  0
VERTEX
  8
raddish_2
 10
-37.621209
 20
35.322512
 30
54.657861
 70
   192
  0
VERTEX
  8
raddish_2
 10
-38.928187
 20
7.553387
 30
40.901981
 70
   192
  0
VERTEX
  8
raddish_2
 10
-36.753161
 20
1.940142
 30
33.292046
 70
   192
  0
VERTEX
  8
raddish_2
 10
24.379008
 20
137.581075
 30
-6.500247
 70
   192
  0
VERTEX
  8
raddish_2
 10
30.091593
 20
138.447909
 30
23.868684
 70
   192
  0
VERTEX
  8
raddish_2
 10
28.985075
 20
128.436929
 30
46.193797
 70
   192
  0
VERTEX
  8
raddish_2
 10
20.280785
 20
105.942421
 30
60.598503
 70
   192
  0
VERTEX
  8
raddish_2
 10
2.898739
 20
69.369268
 30
65.442985
 70
   192
  0
VERTEX
  8
raddish_2
 10
-19.104299
 20
27.933728
 30
57.646420
 70
   192
  0
VERTEX
  8
raddish_2
 10
-33.156970
 20
5.250504
 30
41.833433
 70
   192
  0
VERTEX
  8
raddish_2
 10
-36.359033
 20
1.782874
 30
33.355656
 70
   192
  0
VERTEX
  8
raddish_2
 10
24.872274
 20
137.276385
 30
-6.784932
 70
   192
  0
VERTEX
  8
raddish_2
 10
44.990233
 20
129.245020
 30
15.270042
 70
   192
  0
VERTEX
  8
raddish_2
 10
52.990561
 20
113.608742
 30
32.339205
 70
   192
  0
VERTEX
  8
raddish_2
 10
47.929010
 20
88.864115
 30
44.641532
 70
   192
  0
VERTEX
  8
raddish_2
 10
27.732120
 20
54.029690
 30
51.110580
 70
   192
  0
VERTEX
  8
raddish_2
 10
-3.708922
 20
18.424004
 30
48.761091
 70
   192
  0
VERTEX
  8
raddish_2
 10
-28.358650
 20
2.286582
 30
39.064118
 70
   192
  0
VERTEX
  8
raddish_2
 10
-36.031347
 20
1.580462
 30
33.166535
 70
   192
  0
VERTEX
  8
raddish_2
 10
25.077115
 20
137.020122
 30
-7.341314
 70
   192
  0
VERTEX
  8
raddish_2
 10
51.177284
 20
121.504815
 30
-1.534984
 70
   192
  0
VERTEX
  8
raddish_2
 10
62.959468
 20
101.137311
 30
5.262047
 70
   192
  0
VERTEX
  8
raddish_2
 10
59.410659
 20
74.500193
 30
13.455522
 70
   192
  0
VERTEX
  8
raddish_2
 10
38.044833
 20
41.128147
 30
23.099592
 70
   192
  0
VERTEX
  8
raddish_2
 10
2.684412
 20
10.425733
 30
31.395766
 70
   192
  0
VERTEX
  8
raddish_2
 10
-26.366022
 20
-0.206261
 30
33.651818
 70
   192
  0
VERTEX
  8
raddish_2
 10
-35.895266
 20
1.410221
 30
32.796918
 70
   192
  0
VERTEX
  8
raddish_2
 10
24.915290
 20
136.910169
 30
-7.956875
 70
   192
  0
VERTEX
  8
raddish_2
 10
46.289502
 20
118.183791
 30
-20.127447
 70
   192
  0
VERTEX
  8
raddish_2
 10
55.084013
 20
95.786298
 30
-24.695123
 70
   192
  0
VERTEX
  8
raddish_2
 10
50.340135
 20
68.337185
 30
-21.047532
 70
   192
  0
VERTEX
  8
raddish_2
 10
29.897771
 20
35.592590
 30
-7.890734
 70
   192
  0
VERTEX
  8
raddish_2
 10
-2.366334
 20
6.993982
 30
12.183410
 70
   192
  0
VERTEX
  8
raddish_2
 10
-27.940202
 20
-1.275845
 30
27.663850
 70
   192
  0
VERTEX
  8
raddish_2
 10
-36.002770
 20
1.337177
 30
32.387988
 70
   192
  0
VERTEX
  8
raddish_2
 10
24.448610
 20
136.988525
 30
-8.396491
 70
   192
  0
VERTEX
  8
raddish_2
 10
32.193855
 20
120.550464
 30
-33.405657
 70
   192
  0
VERTEX
  8
raddish_2
 10
32.372352
 20
99.599609
 30
-46.089685
 70
   192
  0
VERTEX
  8
raddish_2
 10
24.182068
 20
72.729151
 30
-45.688635
 70
   192
  0
VERTEX
  8
raddish_2
 10
6.402835
 20
39.537414
 30
-30.023146
 70
   192
  0
VERTEX
  8
raddish_2
 10
-16.931946
 20
9.439563
 30
-1.537510
 70
   192
  0
VERTEX
  8
raddish_2
 10
-32.479907
 20
-0.513624
 30
23.387413
 70
   192
  0
VERTEX
  8
raddish_2
 10
-36.312795
 20
1.389230
 30
32.095942
 70
   192
  0
VERTEX
  8
raddish_2
 10
23.855331
 20
137.225260
 30
-8.492244
 70
   192
  0
VERTEX
  8
raddish_2
 10
14.274399
 20
127.700847
 30
-36.297789
 70
   192
  0
VERTEX
  8
raddish_2
 10
3.499567
 20
111.120689
 30
-50.749643
 70
   192
  0
VERTEX
  8
raddish_2
 10
-9.072049
 20
85.998509
 30
-51.055723
 70
   192
  0
VERTEX
  8
raddish_2
 10
-23.465707
 20
51.455829
 30
-34.843815
 70
   192
  0
VERTEX
  8
raddish_2
 10
-35.448856
 20
16.828347
 30
-4.526069
 70
   192
  0
VERTEX
  8
raddish_2
 10
-38.251123
 20
1.789260
 30
22.455960
 70
   192
  0
VERTEX
  8
raddish_2
 10
-36.706923
 20
1.546499
 30
32.032331
 70
   192
  0
VERTEX
  8
raddish_2
 10
-37.276787
 20
0.000000
 30
33.186884
 70
   192
  0
VERTEX
  8
raddish_2
 10
-37.276787
 20
0.000000
 30
33.186884
 70
   192
  0
VERTEX
  8
raddish_2
 10
-37.276787
 20
0.000000
 30
33.186884
 70
   192
  0
VERTEX
  8
raddish_2
 10
-37.276787
 20
0.000000
 30
33.186884
 70
   192
  0
VERTEX
  8
raddish_2
 10
-37.276787
 20
0.000000
 30
33.186884
 70
   192
  0
VERTEX
  8
raddish_2
 10
-37.276787
 20
0.000000
 30
33.186884
 70
   192
  0
VERTEX
  8
raddish_2
 10
-37.276787
 20
0.000000
 30
33.186884
 70
   192
  0
VERTEX
  8
raddish_2
 10
-37.276787
 20
0.000000
 30
33.186884
 70
   192
  0
VERTEX
  8
raddish_2
 10
0.0
 20
0.0
 30
0.0
 70
   128
 71
   1
 72
   2
 73
   10
  0
VERTEX
  8
raddish_2
 10
0.0
 20
0.0
 30
0.0
 70
   128
 71
   2
 72
   3
 73
   11
  0
VERTEX
  8
raddish_2
 10
0.0
 20
0.0
 30
0.0
 70
   128
 71
   3
 72
   4
 73
   12
  0
VERTEX
  8
raddish_2
 10
0.0
 20
0.0
 30
0.0
 70
   128
 71
   4
 72
   5
 73
   13
  0
VERTEX
  8
raddish_2
 10
0.0
 20
0.0
 30
0.0
 70
   128
 71
   5
 72
   6
 73
   14
  0
VERTEX
  8
raddish_2
 10
0.0
 20
0.0
 30
0.0
 70
   128
 71
   6
 72
   7
 73
   15
  0
VERTEX
  8
raddish_2
 10
0.0
 20
0.0
 30
0.0
 70
   128
 71
   7
 72
   8
 73
   16
  0
VERTEX
  8
raddish_2
 10
0.0
 20
0.0
 30
0.0
 70
   128
 71
   9
 72
   10
 73
   18
  0
VERTEX
  8
raddish_2
 10
0.0
 20
0.0
 30
0.0
 70
   128
 71
   10
 72
   11
 73
   19
  0
VERTEX
  8
raddish_2
 10
0.0
 20
0.0
 30
0.0
 70
   128
 71
   11
 72
   12
 73
   20
  0
VERTEX
  8
raddish_2
 10
0.0
 20
0.0
 30
0.0
 70
   128
 71
   12
 72
   13
 73
   21
  0
VERTEX
  8
raddish_2
 10
0.0
 20
0.0
 30
0.0
 70
   128
 71
   13
 72
   14
 73
   22
  0
VERTEX
  8
raddish_2
 10
0.0
 20
0.0
 30
0.0
 70
   128
 71
   14
 72
   15
 73
   23
  0
VERTEX
  8
raddish_2
 10
0.0
 20
0.0
 30
0.0
 70
   128
 71
   15
 72
   16
 73
   24
  0
VERTEX
  8
raddish_2
 10
0.0
 20
0.0
 30
0.0
 70
   128
 71
   17
 72
   18
 73
   26
  0
VERTEX
  8
raddish_2
 10
0.0
 20
0.0
 30
0.0
 70
   128
 71
   18
 72
   19
 73
   27
  0
VERTEX
  8
raddish_2
 10
0.0
 20
0.0
 30
0.0
 70
   128
 71
   19
 72
   20
 73
   28
  0
VERTEX
  8
raddish_2
 10
0.0
 20
0.0
 30
0.0
 70
   128
 71
   20
 72
   21
 73
   29
  0
VERTEX
  8
raddish_2
 10
0.0
 20
0.0
 30
0.0
 70
   128
 71
   21
 72
   22
 73
   30
  0
VERTEX
  8
raddish_2
 10
0.0
 20
0.0
 30
0.0
 70
   128
 71
   22
 72
   23
 73
   31
  0
VERTEX
  8
raddish_2
 10
0.0
 20
0.0
 30
0.0
 70
   128
 71
   23
 72
   24
 73
   32
  0
VERTEX
  8
raddish_2
 10
0.0
 20
0.0
 30
0.0
 70
   128
 71
   25
 72
   26
 73
   34
  0
VERTEX
  8
raddish_2
 10
0.0
 20
0.0
 30
0.0
 70
   128
 71
   26
 72
   27
 73
   35
  0
VERTEX
  8
raddish_2
 10
0.0
 20
0.0
 30
0.0
 70
   128
 71
   27
 72
   28
 73
   36
  0
VERTEX
  8
raddish_2
 10
0.0
 20
0.0
 30
0.0
 70
   128
 71
   28
 72
   29
 73
   37
  0
VERTEX
  8
raddish_2
 10
0.0
 20
0.0
 30
0.0
 70
   128
 71
   29
 72
   30
 73
   38
  0
VERTEX
  8
raddish_2
 10
0.0
 20
0.0
 30
0.0
 70
   128
 71
   30
 72
   31
 73
   39
  0
VERTEX
  8
raddish_2
 10
0.0
 20
0.0
 30
0.0
 70
   128
 71
   31
 72
   32
 73
   40
  0
VERTEX
  8
raddish_2
 10
0.0
 20
0.0
 30
0.0
 70
   128
 71
   33
 72
   34
 73
   42
  0
VERTEX
  8
raddish_2
 10
0.0
 20
0.0
 30
0.0
 70
   128
 71
   34
 72
   35
 73
   43
  0
VERTEX
  8
raddish_2
 10
0.0
 20
0.0
 30
0.0
 70
   128
 71
   35
 72
   36
 73
   44
  0
VERTEX
  8
raddish_2
 10
0.0
 20
0.0
 30
0.0
 70
   128
 71
   36
 72
   37
 73
   45
  0
VERTEX
  8
raddish_2
 10
0.0
 20
0.0
 30
0.0
 70
   128
 71
   37
 72
   38
 73
   46
  0
VERTEX
  8
raddish_2
 10
0.0
 20
0.0
 30
0.0
 70
   128
 71
   38
 72
   39
 73
   47
  0
VERTEX
  8
raddish_2
 10
0.0
 20
0.0
 30
0.0
 70
   128
 71
   39
 72
   40
 73
   48
  0
VERTEX
  8
raddish_2
 10
0.0
 20
0.0
 30
0.0
 70
   128
 71
   41
 72
   42
 73
   50
  0
VERTEX
  8
raddish_2
 10
0.0
 20
0.0
 30
0.0
 70
   128
 71
   42
 72
   43
 73
   51
  0
VERTEX
  8
raddish_2
 10
0.0
 20
0.0
 30
0.0
 70
   128
 71
   43
 72
   44
 73
   52
  0
VERTEX
  8
raddish_2
 10
0.0
 20
0.0
 30
0.0
 70
   128
 71
   44
 72
   45
 73
   53
  0
VERTEX
  8
raddish_2
 10
0.0
 20
0.0
 30
0.0
 70
   128
 71
   45
 72
   46
 73
   54
  0
VERTEX
  8
raddish_2
 10
0.0
 20
0.0
 30
0.0
 70
   128
 71
   46
 72
   47
 73
   55
  0
VERTEX
  8
raddish_2
 10
0.0
 20
0.0
 30
0.0
 70
   128
 71
   47
 72
   48
 73
   56
  0
VERTEX
  8
raddish_2
 10
0.0
 20
0.0
 30
0.0
 70
   128
 71
   49
 72
   50
 73
   58
  0
VERTEX
  8
raddish_2
 10
0.0
 20
0.0
 30
0.0
 70
   128
 71
   50
 72
   51
 73
   59
  0
VERTEX
  8
raddish_2
 10
0.0
 20
0.0
 30
0.0
 70
   128
 71
   51
 72
   52
 73
   60
  0
VERTEX
  8
raddish_2
 10
0.0
 20
0.0
 30
0.0
 70
   128
 71
   52
 72
   53
 73
   61
  0
VERTEX
  8
raddish_2
 10
0.0
 20
0.0
 30
0.0
 70
   128
 71
   53
 72
   54
 73
   62
  0
VERTEX
  8
raddish_2
 10
0.0
 20
0.0
 30
0.0
 70
   128
 71
   54
 72
   55
 73
   63
  0
VERTEX
  8
raddish_2
 10
0.0
 20
0.0
 30
0.0
 70
   128
 71
   55
 72
   56
 73
   64
  0
VERTEX
  8
raddish_2
 10
0.0
 20
0.0
 30
0.0
 70
   128
 71
   57
 72
   58
 73
   66
  0
VERTEX
  8
raddish_2
 10
0.0
 20
0.0
 30
0.0
 70
   128
 71
   58
 72
   59
 73
   67
  0
VERTEX
  8
raddish_2
 10
0.0
 20
0.0
 30
0.0
 70
   128
 71
   59
 72
   60
 73
   68
  0
VERTEX
  8
raddish_2
 10
0.0
 20
0.0
 30
0.0
 70
   128
 71
   60
 72
   61
 73
   69
  0
VERTEX
  8
raddish_2
 10
0.0
 20
0.0
 30
0.0
 70
   128
 71
   61
 72
   62
 73
   70
  0
VERTEX
  8
raddish_2
 10
0.0
 20
0.0
 30
0.0
 70
   128
 71
   62
 72
   63
 73
   71
  0
VERTEX
  8
raddish_2
 10
0.0
 20
0.0
 30
0.0
 70
   128
 71
   63
 72
   64
 73
   72
  0
VERTEX
  8
raddish_2
 10
0.0
 20
0.0
 30
0.0
 70
   128
 71
   65
 72
   66
 73
   74
  0
VERTEX
  8
raddish_2
 10
0.0
 20
0.0
 30
0.0
 70
   128
 71
   66
 72
   67
 73
   75
  0
VERTEX
  8
raddish_2
 10
0.0
 20
0.0
 30
0.0
 70
   128
 71
   67
 72
   68
 73
   76
  0
VERTEX
  8
raddish_2
 10
0.0
 20
0.0
 30
0.0
 70
   128
 71
   68
 72
   69
 73
   77
  0
VERTEX
  8
raddish_2
 10
0.0
 20
0.0
 30
0.0
 70
   128
 71
   69
 72
   70
 73
   78
  0
VERTEX
  8
raddish_2
 10
0.0
 20
0.0
 30
0.0
 70
   128
 71
   70
 72
   71
 73
   79
  0
VERTEX
  8
raddish_2
 10
0.0
 20
0.0
 30
0.0
 70
   128
 71
   71
 72
   72
 73
   80
  0
VERTEX
  8
raddish_2
 10
0.0
 20
0.0
 30
0.0
 70
   128
 71
   73
 72
   74
 73
   2
  0
VERTEX
  8
raddish_2
 10
0.0
 20
0.0
 30
0.0
 70
   128
 71
   74
 72
   75
 73
   3
  0
VERTEX
  8
raddish_2
 10
0.0
 20
0.0
 30
0.0
 70
   128
 71
   75
 72
   76
 73
   4
  0
VERTEX
  8
raddish_2
 10
0.0
 20
0.0
 30
0.0
 70
   128
 71
   76
 72
   77
 73
   5
  0
VERTEX
  8
raddish_2
 10
0.0
 20
0.0
 30
0.0
 70
   128
 71
   77
 72
   78
 73
   6
  0
VERTEX
  8
raddish_2
 10
0.0
 20
0.0
 30
0.0
 70
   128
 71
   78
 72
   79
 73
   7
  0
VERTEX
  8
raddish_2
 10
0.0
 20
0.0
 30
0.0
 70
   128
 71
   79
 72
   80
 73
   8
  0
VERTEX
  8
raddish_2
 10
0.0
 20
0.0
 30
0.0
 70
   128
 71
   1
 72
   10
 73
   9
  0
VERTEX
  8
raddish_2
 10
0.0
 20
0.0
 30
0.0
 70
   128
 71
   2
 72
   11
 73
   10
  0
VERTEX
  8
raddish_2
 10
0.0
 20
0.0
 30
0.0
 70
   128
 71
   3
 72
   12
 73
   11
  0
VERTEX
  8
raddish_2
 10
0.0
 20
0.0
 30
0.0
 70
   128
 71
   4
 72
   13
 73
   12
  0
VERTEX
  8
raddish_2
 10
0.0
 20
0.0
 30
0.0
 70
   128
 71
   5
 72
   14
 73
   13
  0
VERTEX
  8
raddish_2
 10
0.0
 20
0.0
 30
0.0
 70
   128
 71
   6
 72
   15
 73
   14
  0
VERTEX
  8
raddish_2
 10
0.0
 20
0.0
 30
0.0
 70
   128
 71
   7
 72
   16
 73
   15
  0
VERTEX
  8
raddish_2
 10
0.0
 20
0.0
 30
0.0
 70
   128
 71
   9
 72
   18
 73
   17
  0
VERTEX
  8
raddish_2
 10
0.0
 20
0.0
 30
0.0
 70
   128
 71
   10
 72
   19
 73
   18
  0
VERTEX
  8
raddish_2
 10
0.0
 20
0.0
 30
0.0
 70
   128
 71
   11
 72
   20
 73
   19
  0
VERTEX
  8
raddish_2
 10
0.0
 20
0.0
 30
0.0
 70
   128
 71
   12
 72
   21
 73
   20
  0
VERTEX
  8
raddish_2
 10
0.0
 20
0.0
 30
0.0
 70
   128
 71
   13
 72
   22
 73
   21
  0
VERTEX
  8
raddish_2
 10
0.0
 20
0.0
 30
0.0
 70
   128
 71
   14
 72
   23
 73
   22
  0
VERTEX
  8
raddish_2
 10
0.0
 20
0.0
 30
0.0
 70
   128
 71
   15
 72
   24
 73
   23
  0
VERTEX
  8
raddish_2
 10
0.0
 20
0.0
 30
0.0
 70
   128
 71
   17
 72
   26
 73
   25
  0
VERTEX
  8
raddish_2
 10
0.0
 20
0.0
 30
0.0
 70
   128
 71
   18
 72
   27
 73
   26
  0
VERTEX
  8
raddish_2
 10
0.0
 20
0.0
 30
0.0
 70
   128
 71
   19
 72
   28
 73
   27
  0
VERTEX
  8
raddish_2
 10
0.0
 20
0.0
 30
0.0
 70
   128
 71
   20
 72
   29
 73
   28
  0
VERTEX
  8
raddish_2
 10
0.0
 20
0.0
 30
0.0
 70
   128
 71
   21
 72
   30
 73
   29
  0
VERTEX
  8
raddish_2
 10
0.0
 20
0.0
 30
0.0
 70
   128
 71
   22
 72
   31
 73
   30
  0
VERTEX
  8
raddish_2
 10
0.0
 20
0.0
 30
0.0
 70
   128
 71
   23
 72
   32
 73
   31
  0
VERTEX
  8
raddish_2
 10
0.0
 20
0.0
 30
0.0
 70
   128
 71
   25
 72
   34
 73
   33
  0
VERTEX
  8
raddish_2
 10
0.0
 20
0.0
 30
0.0
 70
   128
 71
   26
 72
   35
 73
   34
  0
VERTEX
  8
raddish_2
 10
0.0
 20
0.0
 30
0.0
 70
   128
 71
   27
 72
   36
 73
   35
  0
VERTEX
  8
raddish_2
 10
0.0
 20
0.0
 30
0.0
 70
   128
 71
   28
 72
   37
 73
   36
  0
VERTEX
  8
raddish_2
 10
0.0
 20
0.0
 30
0.0
 70
   128
 71
   29
 72
   38
 73
   37
  0
VERTEX
  8
raddish_2
 10
0.0
 20
0.0
 30
0.0
 70
   128
 71
   30
 72
   39
 73
   38
  0
VERTEX
  8
raddish_2
 10
0.0
 20
0.0
 30
0.0
 70
   128
 71
   31
 72
   40
 73
   39
  0
VERTEX
  8
raddish_2
 10
0.0
 20
0.0
 30
0.0
 70
   128
 71
   33
 72
   42
 73
   41
  0
VERTEX
  8
raddish_2
 10
0.0
 20
0.0
 30
0.0
 70
   128
 71
   34
 72
   43
 73
   42
  0
VERTEX
  8
raddish_2
 10
0.0
 20
0.0
 30
0.0
 70
   128
 71
   35
 72
   44
 73
   43
  0
VERTEX
  8
raddish_2
 10
0.0
 20
0.0
 30
0.0
 70
   128
 71
   36
 72
   45
 73
   44
  0
VERTEX
  8
raddish_2
 10
0.0
 20
0.0
 30
0.0
 70
   128
 71
   37
 72
   46
 73
   45
  0
VERTEX
  8
raddish_2
 10
0.0
 20
0.0
 30
0.0
 70
   128
 71
   38
 72
   47
 73
   46
  0
VERTEX
  8
raddish_2
 10
0.0
 20
0.0
 30
0.0
 70
   128
 71
   39
 72
   48
 73
   47
  0
VERTEX
  8
raddish_2
 10
0.0
 20
0.0
 30
0.0
 70
   128
 71
   41
 72
   50
 73
   49
  0
VERTEX
  8
raddish_2
 10
0.0
 20
0.0
 30
0.0
 70
   128
 71
   42
 72
   51
 73
   50
  0
VERTEX
  8
raddish_2
 10
0.0
 20
0.0
 30
0.0
 70
   128
 71
   43
 72
   52
 73
   51
  0
VERTEX
  8
raddish_2
 10
0.0
 20
0.0
 30
0.0
 70
   128
 71
   44
 72
   53
 73
   52
  0
VERTEX
  8
raddish_2
 10
0.0
 20
0.0
 30
0.0
 70
   128
 71
   45
 72
   54
 73
   53
  0
VERTEX
  8
raddish_2
 10
0.0
 20
0.0
 30
0.0
 70
   128
 71
   46
 72
   55
 73
   54
  0
VERTEX
  8
raddish_2
 10
0.0
 20
0.0
 30
0.0
 70
   128
 71
   47
 72
   56
 73
   55
  0
VERTEX
  8
raddish_2
 10
0.0
 20
0.0
 30
0.0
 70
   128
 71
   49
 72
   58
 73
   57
  0
VERTEX
  8
raddish_2
 10
0.0
 20
0.0
 30
0.0
 70
   128
 71
   50
 72
   59
 73
   58
  0
VERTEX
  8
raddish_2
 10
0.0
 20
0.0
 30
0.0
 70
   128
 71
   51
 72
   60
 73
   59
  0
VERTEX
  8
raddish_2
 10
0.0
 20
0.0
 30
0.0
 70
   128
 71
   52
 72
   61
 73
   60
  0
VERTEX
  8
raddish_2
 10
0.0
 20
0.0
 30
0.0
 70
   128
 71
   53
 72
   62
 73
   61
  0
VERTEX
  8
raddish_2
 10
0.0
 20
0.0
 30
0.0
 70
   128
 71
   54
 72
   63
 73
   62
  0
VERTEX
  8
raddish_2
 10
0.0
 20
0.0
 30
0.0
 70
   128
 71
   55
 72
   64
 73
   63
  0
VERTEX
  8
raddish_2
 10
0.0
 20
0.0
 30
0.0
 70
   128
 71
   57
 72
   66
 73
   65
  0
VERTEX
  8
raddish_2
 10
0.0
 20
0.0
 30
0.0
 70
   128
 71
   58
 72
   67
 73
   66
  0
VERTEX
  8
raddish_2
 10
0.0
 20
0.0
 30
0.0
 70
   128
 71
   59
 72
   68
 73
   67
  0
VERTEX
  8
raddish_2
 10
0.0
 20
0.0
 30
0.0
 70
   128
 71
   60
 72
   69
 73
   68
  0
VERTEX
  8
raddish_2
 10
0.0
 20
0.0
 30
0.0
 70
   128
 71
   61
 72
   70
 73
   69
  0
VERTEX
  8
raddish_2
 10
0.0
 20
0.0
 30
0.0
 70
   128
 71
   62
 72
   71
 73
   70
  0
VERTEX
  8
raddish_2
 10
0.0
 20
0.0
 30
0.0
 70
   128
 71
   63
 72
   72
 73
   71
  0
VERTEX
  8
raddish_2
 10
0.0
 20
0.0
 30
0.0
 70
   128
 71
   65
 72
   74
 73
   73
  0
VERTEX
  8
raddish_2
 10
0.0
 20
0.0
 30
0.0
 70
   128
 71
   66
 72
   75
 73
   74
  0
VERTEX
  8
raddish_2
 10
0.0
 20
0.0
 30
0.0
 70
   128
 71
   67
 72
   76
 73
   75
  0
VERTEX
  8
raddish_2
 10
0.0
 20
0.0
 30
0.0
 70
   128
 71
   68
 72
   77
 73
   76
  0
VERTEX
  8
raddish_2
 10
0.0
 20
0.0
 30
0.0
 70
   128
 71
   69
 72
   78
 73
   77
  0
VERTEX
  8
raddish_2
 10
0.0
 20
0.0
 30
0.0
 70
   128
 71
   70
 72
   79
 73
   78
  0
VERTEX
  8
raddish_2
 10
0.0
 20
0.0
 30
0.0
 70
   128
 71
   71
 72
   80
 73
   79
  0
VERTEX
  8
raddish_2
 10
0.0
 20
0.0
 30
0.0
 70
   128
 71
   73
 72
   2
 73
   1
  0
VERTEX
  8
raddish_2
 10
0.0
 20
0.0
 30
0.0
 70
   128
 71
   74
 72
   3
 73
   2
  0
VERTEX
  8
raddish_2
 10
0.0
 20
0.0
 30
0.0
 70
   128
 71
   75
 72
   4
 73
   3
  0
VERTEX
  8
raddish_2
 10
0.0
 20
0.0
 30
0.0
 70
   128
 71
   76
 72
   5
 73
   4
  0
VERTEX
  8
raddish_2
 10
0.0
 20
0.0
 30
0.0
 70
   128
 71
   77
 72
   6
 73
   5
  0
VERTEX
  8
raddish_2
 10
0.0
 20
0.0
 30
0.0
 70
   128
 71
   78
 72
   7
 73
   6
  0
VERTEX
  8
raddish_2
 10
0.0
 20
0.0
 30
0.0
 70
   128
 71
   79
 72
   8
 73
   7
  0
SEQEND
  0
ENDSEC
  0
EOF
