999
FBX AutoCAD (*.DXF) exporter
  0
SECTION
  2
HEADER
  9
$ACADVER
  1
AC1008
  9
$UCSORG
 10
0.0
 20
0.0
 30
0.0
  9
$UCSXDIR
 10
1.0
 20
0.0
 30
0.0
  9
$TILEMODE
 70
   1
  9
$UCSYDIR
 10
0.0
 20
1.0
 30
0.0
  0
ENDSEC
  0
SECTION
  2
TABLES
  0
TABLE
  2
LTYPE
 70
   1
  0
LTYPE
  2
CONTINUOUS
 70
   64
  3
Solid line
 72
   65
 73
   0
 40
0.0
  0
ENDTAB
  0
TABLE
  2
LAYER
 70
   3
  0
LAYER
  2
egg
 70
   0
 62
   250
  6
CONTINUOUS
  0
LAYER
  2
egg_2
 70
   0
 62
   250
  6
CONTINUOUS
  0
ENDTAB
  0
ENDSEC
  0
SECTION
  2
BLOCKS
  0
ENDSEC
  0
SECTION
  2
ENTITIES
  0
POLYLINE
  8
egg
 66
   1
 10
0.0
 20
0.0
 30
0.0
 70
   64
 71
   35
 72
   66
  0
VERTEX
  8
egg
 10
0.000000
 20
39.033284
 30
44.002709
 70
   192
  0
VERTEX
  8
egg
 10
0.000000
 20
16.174506
 30
53.371026
 70
   192
  0
VERTEX
  8
egg
 10
29.455996
 20
28.850970
 30
33.130114
 70
   192
  0
VERTEX
  8
egg
 10
29.455996
 20
28.850970
 30
-2.054345
 70
   192
  0
VERTEX
  8
egg
 10
0.000000
 20
39.033284
 30
-12.926941
 70
   192
  0
VERTEX
  8
egg
 10
0.000000
 20
16.174506
 30
-22.295257
 70
   192
  0
VERTEX
  8
egg
 10
-29.455996
 20
28.850970
 30
-2.054345
 70
   192
  0
VERTEX
  8
egg
 10
-29.455996
 20
28.850970
 30
33.130114
 70
   192
  0
VERTEX
  8
egg
 10
18.204807
 20
45.326300
 30
15.537884
 70
   192
  0
VERTEX
  8
egg
 10
-18.204807
 20
45.326300
 30
15.537884
 70
   192
  0
VERTEX
  8
egg
 10
-17.313800
 20
16.174506
 30
-20.443571
 70
   192
  0
VERTEX
  8
egg
 10
-28.014317
 20
16.174506
 30
1.794191
 70
   192
  0
VERTEX
  8
egg
 10
0.000000
 20
48.218883
 30
15.537884
 70
   192
  0
VERTEX
  8
egg
 10
10.700517
 20
44.519940
 30
32.269089
 70
   192
  0
VERTEX
  8
egg
 10
-10.700517
 20
44.519940
 30
32.269089
 70
   192
  0
VERTEX
  8
egg
 10
28.014317
 20
38.534926
 30
25.878337
 70
   192
  0
VERTEX
  8
egg
 10
17.313800
 20
34.835984
 30
42.609542
 70
   192
  0
VERTEX
  8
egg
 10
28.014317
 20
38.534926
 30
5.197431
 70
   192
  0
VERTEX
  8
egg
 10
34.627600
 20
28.850970
 30
15.537884
 70
   192
  0
VERTEX
  8
egg
 10
10.700517
 20
44.519940
 30
-1.193320
 70
   192
  0
VERTEX
  8
egg
 10
17.313800
 20
34.835984
 30
-11.533773
 70
   192
  0
VERTEX
  8
egg
 10
-10.700517
 20
44.519940
 30
-1.193320
 70
   192
  0
VERTEX
  8
egg
 10
-28.014317
 20
38.534926
 30
5.197431
 70
   192
  0
VERTEX
  8
egg
 10
-17.313800
 20
34.835984
 30
-11.533773
 70
   192
  0
VERTEX
  8
egg
 10
-28.014317
 20
38.534926
 30
25.878337
 70
   192
  0
VERTEX
  8
egg
 10
-34.627600
 20
28.850970
 30
15.537884
 70
   192
  0
VERTEX
  8
egg
 10
-17.313800
 20
34.835984
 30
42.609542
 70
   192
  0
VERTEX
  8
egg
 10
-28.014317
 20
16.174506
 30
29.281578
 70
   192
  0
VERTEX
  8
egg
 10
-17.313800
 20
16.174506
 30
51.519340
 70
   192
  0
VERTEX
  8
egg
 10
0.000000
 20
28.850970
 30
49.000293
 70
   192
  0
VERTEX
  8
egg
 10
28.014317
 20
16.174506
 30
29.281578
 70
   192
  0
VERTEX
  8
egg
 10
17.313800
 20
16.174506
 30
51.519340
 70
   192
  0
VERTEX
  8
egg
 10
28.014317
 20
16.174506
 30
1.794191
 70
   192
  0
VERTEX
  8
egg
 10
17.313800
 20
16.174506
 30
-20.443571
 70
   192
  0
VERTEX
  8
egg
 10
0.000000
 20
28.850970
 30
-17.924524
 70
   192
  0
VERTEX
  8
egg
 10
0.0
 20
0.0
 30
0.0
 70
   128
 71
   10
 72
   13
 73
   15
  0
VERTEX
  8
egg
 10
0.0
 20
0.0
 30
0.0
 70
   128
 71
   13
 72
   9
 73
   14
  0
VERTEX
  8
egg
 10
0.0
 20
0.0
 30
0.0
 70
   128
 71
   14
 72
   15
 73
   13
  0
VERTEX
  8
egg
 10
0.0
 20
0.0
 30
0.0
 70
   128
 71
   15
 72
   14
 73
   1
  0
VERTEX
  8
egg
 10
0.0
 20
0.0
 30
0.0
 70
   128
 71
   9
 72
   16
 73
   14
  0
VERTEX
  8
egg
 10
0.0
 20
0.0
 30
0.0
 70
   128
 71
   16
 72
   3
 73
   17
  0
VERTEX
  8
egg
 10
0.0
 20
0.0
 30
0.0
 70
   128
 71
   17
 72
   14
 73
   16
  0
VERTEX
  8
egg
 10
0.0
 20
0.0
 30
0.0
 70
   128
 71
   14
 72
   17
 73
   1
  0
VERTEX
  8
egg
 10
0.0
 20
0.0
 30
0.0
 70
   128
 71
   9
 72
   18
 73
   16
  0
VERTEX
  8
egg
 10
0.0
 20
0.0
 30
0.0
 70
   128
 71
   18
 72
   4
 73
   19
  0
VERTEX
  8
egg
 10
0.0
 20
0.0
 30
0.0
 70
   128
 71
   19
 72
   16
 73
   18
  0
VERTEX
  8
egg
 10
0.0
 20
0.0
 30
0.0
 70
   128
 71
   16
 72
   19
 73
   3
  0
VERTEX
  8
egg
 10
0.0
 20
0.0
 30
0.0
 70
   128
 71
   9
 72
   20
 73
   18
  0
VERTEX
  8
egg
 10
0.0
 20
0.0
 30
0.0
 70
   128
 71
   20
 72
   5
 73
   21
  0
VERTEX
  8
egg
 10
0.0
 20
0.0
 30
0.0
 70
   128
 71
   21
 72
   18
 73
   20
  0
VERTEX
  8
egg
 10
0.0
 20
0.0
 30
0.0
 70
   128
 71
   18
 72
   21
 73
   4
  0
VERTEX
  8
egg
 10
0.0
 20
0.0
 30
0.0
 70
   128
 71
   9
 72
   13
 73
   20
  0
VERTEX
  8
egg
 10
0.0
 20
0.0
 30
0.0
 70
   128
 71
   13
 72
   10
 73
   22
  0
VERTEX
  8
egg
 10
0.0
 20
0.0
 30
0.0
 70
   128
 71
   22
 72
   20
 73
   13
  0
VERTEX
  8
egg
 10
0.0
 20
0.0
 30
0.0
 70
   128
 71
   20
 72
   22
 73
   5
  0
VERTEX
  8
egg
 10
0.0
 20
0.0
 30
0.0
 70
   128
 71
   5
 72
   22
 73
   24
  0
VERTEX
  8
egg
 10
0.0
 20
0.0
 30
0.0
 70
   128
 71
   22
 72
   10
 73
   23
  0
VERTEX
  8
egg
 10
0.0
 20
0.0
 30
0.0
 70
   128
 71
   23
 72
   24
 73
   22
  0
VERTEX
  8
egg
 10
0.0
 20
0.0
 30
0.0
 70
   128
 71
   24
 72
   23
 73
   7
  0
VERTEX
  8
egg
 10
0.0
 20
0.0
 30
0.0
 70
   128
 71
   7
 72
   23
 73
   26
  0
VERTEX
  8
egg
 10
0.0
 20
0.0
 30
0.0
 70
   128
 71
   23
 72
   10
 73
   25
  0
VERTEX
  8
egg
 10
0.0
 20
0.0
 30
0.0
 70
   128
 71
   25
 72
   26
 73
   23
  0
VERTEX
  8
egg
 10
0.0
 20
0.0
 30
0.0
 70
   128
 71
   26
 72
   25
 73
   8
  0
VERTEX
  8
egg
 10
0.0
 20
0.0
 30
0.0
 70
   128
 71
   10
 72
   15
 73
   25
  0
VERTEX
  8
egg
 10
0.0
 20
0.0
 30
0.0
 70
   128
 71
   15
 72
   1
 73
   27
  0
VERTEX
  8
egg
 10
0.0
 20
0.0
 30
0.0
 70
   128
 71
   27
 72
   25
 73
   15
  0
VERTEX
  8
egg
 10
0.0
 20
0.0
 30
0.0
 70
   128
 71
   25
 72
   27
 73
   8
  0
VERTEX
  8
egg
 10
0.0
 20
0.0
 30
0.0
 70
   128
 71
   6
 72
   11
 73
   12
  0
VERTEX
  8
egg
 10
0.0
 20
0.0
 30
0.0
 70
   128
 71
   12
 72
   28
 73
   31
  0
VERTEX
  8
egg
 10
0.0
 20
0.0
 30
0.0
 70
   128
 71
   28
 72
   8
 73
   29
  0
VERTEX
  8
egg
 10
0.0
 20
0.0
 30
0.0
 70
   128
 71
   28
 72
   29
 73
   2
  0
VERTEX
  8
egg
 10
0.0
 20
0.0
 30
0.0
 70
   128
 71
   31
 72
   2
 73
   32
  0
VERTEX
  8
egg
 10
0.0
 20
0.0
 30
0.0
 70
   128
 71
   2
 72
   29
 73
   30
  0
VERTEX
  8
egg
 10
0.0
 20
0.0
 30
0.0
 70
   128
 71
   29
 72
   8
 73
   27
  0
VERTEX
  8
egg
 10
0.0
 20
0.0
 30
0.0
 70
   128
 71
   27
 72
   30
 73
   29
  0
VERTEX
  8
egg
 10
0.0
 20
0.0
 30
0.0
 70
   128
 71
   3
 72
   19
 73
   31
  0
VERTEX
  8
egg
 10
0.0
 20
0.0
 30
0.0
 70
   128
 71
   19
 72
   4
 73
   33
  0
VERTEX
  8
egg
 10
0.0
 20
0.0
 30
0.0
 70
   128
 71
   33
 72
   31
 73
   19
  0
VERTEX
  8
egg
 10
0.0
 20
0.0
 30
0.0
 70
   128
 71
   3
 72
   32
 73
   17
  0
VERTEX
  8
egg
 10
0.0
 20
0.0
 30
0.0
 70
   128
 71
   4
 72
   34
 73
   33
  0
VERTEX
  8
egg
 10
0.0
 20
0.0
 30
0.0
 70
   128
 71
   34
 72
   6
 73
   33
  0
VERTEX
  8
egg
 10
0.0
 20
0.0
 30
0.0
 70
   128
 71
   32
 72
   2
 73
   30
  0
VERTEX
  8
egg
 10
0.0
 20
0.0
 30
0.0
 70
   128
 71
   30
 72
   17
 73
   32
  0
VERTEX
  8
egg
 10
0.0
 20
0.0
 30
0.0
 70
   128
 71
   35
 72
   6
 73
   34
  0
VERTEX
  8
egg
 10
0.0
 20
0.0
 30
0.0
 70
   128
 71
   34
 72
   21
 73
   35
  0
VERTEX
  8
egg
 10
0.0
 20
0.0
 30
0.0
 70
   128
 71
   21
 72
   34
 73
   4
  0
VERTEX
  8
egg
 10
0.0
 20
0.0
 30
0.0
 70
   128
 71
   24
 72
   7
 73
   11
  0
VERTEX
  8
egg
 10
0.0
 20
0.0
 30
0.0
 70
   128
 71
   11
 72
   35
 73
   24
  0
VERTEX
  8
egg
 10
0.0
 20
0.0
 30
0.0
 70
   128
 71
   11
 72
   7
 73
   12
  0
VERTEX
  8
egg
 10
0.0
 20
0.0
 30
0.0
 70
   128
 71
   35
 72
   11
 73
   6
  0
VERTEX
  8
egg
 10
0.0
 20
0.0
 30
0.0
 70
   128
 71
   30
 72
   27
 73
   1
  0
VERTEX
  8
egg
 10
0.0
 20
0.0
 30
0.0
 70
   128
 71
   7
 72
   26
 73
   12
  0
VERTEX
  8
egg
 10
0.0
 20
0.0
 30
0.0
 70
   128
 71
   26
 72
   8
 73
   28
  0
VERTEX
  8
egg
 10
0.0
 20
0.0
 30
0.0
 70
   128
 71
   28
 72
   12
 73
   26
  0
VERTEX
  8
egg
 10
0.0
 20
0.0
 30
0.0
 70
   128
 71
   17
 72
   30
 73
   1
  0
VERTEX
  8
egg
 10
0.0
 20
0.0
 30
0.0
 70
   128
 71
   5
 72
   35
 73
   21
  0
VERTEX
  8
egg
 10
0.0
 20
0.0
 30
0.0
 70
   128
 71
   5
 72
   24
 73
   35
  0
VERTEX
  8
egg
 10
0.0
 20
0.0
 30
0.0
 70
   128
 71
   31
 72
   32
 73
   3
  0
VERTEX
  8
egg
 10
0.0
 20
0.0
 30
0.0
 70
   128
 71
   6
 72
   12
 73
   33
  0
VERTEX
  8
egg
 10
0.0
 20
0.0
 30
0.0
 70
   128
 71
   12
 72
   31
 73
   33
  0
VERTEX
  8
egg
 10
0.0
 20
0.0
 30
0.0
 70
   128
 71
   28
 72
   2
 73
   31
  0
SEQEND
  0
POLYLINE
  8
egg_2
 66
   1
 10
0.0
 20
0.0
 30
0.0
 70
   64
 71
   114
 72
   110
  0
VERTEX
  8
egg_2
 10
-72.476316
 20
0.000000
 30
-42.920002
 70
   192
  0
VERTEX
  8
egg_2
 10
-47.740102
 20
0.000000
 30
-69.466183
 70
   192
  0
VERTEX
  8
egg_2
 10
-4.904220
 20
0.000000
 30
-71.276149
 70
   192
  0
VERTEX
  8
egg_2
 10
10.178837
 20
0.000000
 30
-62.226315
 70
   192
  0
VERTEX
  8
egg_2
 10
19.228671
 20
0.000000
 30
-47.143258
 70
   192
  0
VERTEX
  8
egg_2
 10
66.891132
 20
0.000000
 30
-23.010367
 70
   192
  0
VERTEX
  8
egg_2
 10
80.767544
 20
0.000000
 30
-18.787111
 70
   192
  0
VERTEX
  8
egg_2
 10
96.453923
 20
0.000000
 30
28.875349
 70
   192
  0
VERTEX
  8
egg_2
 10
86.800767
 20
0.000000
 30
63.264719
 70
   192
  0
VERTEX
  8
egg_2
 10
69.304421
 20
0.000000
 30
77.141132
 70
   192
  0
VERTEX
  8
egg_2
 10
40.948273
 20
0.000000
 30
77.141132
 70
   192
  0
VERTEX
  8
egg_2
 10
6.558903
 20
0.000000
 30
73.521198
 70
   192
  0
VERTEX
  8
egg_2
 10
-24.210533
 20
0.000000
 30
77.141132
 70
   192
  0
VERTEX
  8
egg_2
 10
-53.170003
 20
0.000000
 30
81.967710
 70
   192
  0
VERTEX
  8
egg_2
 10
-77.302894
 20
0.000000
 30
65.678009
 70
   192
  0
VERTEX
  8
egg_2
 10
-85.749406
 20
0.000000
 30
37.321861
 70
   192
  0
VERTEX
  8
egg_2
 10
-77.302894
 20
0.000000
 30
13.792292
 70
   192
  0
VERTEX
  8
egg_2
 10
-72.476316
 20
0.000000
 30
-3.704054
 70
   192
  0
VERTEX
  8
egg_2
 10
-76.096249
 20
0.000000
 30
-29.646912
 70
   192
  0
VERTEX
  8
egg_2
 10
-66.250030
 20
12.719165
 30
-39.058740
 70
   192
  0
VERTEX
  8
egg_2
 10
-43.492713
 20
12.719165
 30
-63.481225
 70
   192
  0
VERTEX
  8
egg_2
 10
-4.083702
 20
12.719165
 30
-65.146395
 70
   192
  0
VERTEX
  8
egg_2
 10
9.792711
 20
12.719165
 30
-56.820547
 70
   192
  0
VERTEX
  8
egg_2
 10
18.118558
 20
12.719165
 30
-42.944135
 70
   192
  0
VERTEX
  8
egg_2
 10
61.968022
 20
12.719165
 30
-20.741875
 70
   192
  0
VERTEX
  8
egg_2
 10
74.734321
 20
12.719165
 30
-16.856480
 70
   192
  0
VERTEX
  8
egg_2
 10
89.165790
 20
12.719165
 30
26.992984
 70
   192
  0
VERTEX
  8
egg_2
 10
80.284886
 20
12.719165
 30
58.631204
 70
   192
  0
VERTEX
  8
egg_2
 10
64.188248
 20
12.719165
 30
71.397504
 70
   192
  0
VERTEX
  8
egg_2
 10
38.100592
 20
12.719165
 30
71.397504
 70
   192
  0
VERTEX
  8
egg_2
 10
6.462372
 20
12.719165
 30
68.067165
 70
   192
  0
VERTEX
  8
egg_2
 10
-21.845510
 20
12.719165
 30
71.397504
 70
   192
  0
VERTEX
  8
egg_2
 10
-48.488222
 20
12.719165
 30
75.837956
 70
   192
  0
VERTEX
  8
egg_2
 10
-70.690482
 20
12.719165
 30
60.851430
 70
   192
  0
VERTEX
  8
egg_2
 10
-78.461273
 20
12.719165
 30
34.763775
 70
   192
  0
VERTEX
  8
egg_2
 10
-70.690482
 20
12.719165
 30
13.116571
 70
   192
  0
VERTEX
  8
egg_2
 10
-66.250030
 20
12.719165
 30
-2.980067
 70
   192
  0
VERTEX
  8
egg_2
 10
-69.580369
 20
12.719165
 30
-26.847497
 70
   192
  0
VERTEX
  8
egg_2
 10
-72.476316
 20
0.000000
 30
-42.920002
 70
   192
  0
VERTEX
  8
egg_2
 10
-47.740102
 20
0.000000
 30
-69.466183
 70
   192
  0
VERTEX
  8
egg_2
 10
-4.904220
 20
0.000000
 30
-71.276149
 70
   192
  0
VERTEX
  8
egg_2
 10
10.178837
 20
0.000000
 30
-62.226315
 70
   192
  0
VERTEX
  8
egg_2
 10
19.228671
 20
0.000000
 30
-47.143258
 70
   192
  0
VERTEX
  8
egg_2
 10
66.891132
 20
0.000000
 30
-23.010367
 70
   192
  0
VERTEX
  8
egg_2
 10
80.767544
 20
0.000000
 30
-18.787111
 70
   192
  0
VERTEX
  8
egg_2
 10
96.453923
 20
0.000000
 30
28.875349
 70
   192
  0
VERTEX
  8
egg_2
 10
86.800767
 20
0.000000
 30
63.264719
 70
   192
  0
VERTEX
  8
egg_2
 10
69.304421
 20
0.000000
 30
77.141132
 70
   192
  0
VERTEX
  8
egg_2
 10
40.948273
 20
0.000000
 30
77.141132
 70
   192
  0
VERTEX
  8
egg_2
 10
6.558903
 20
0.000000
 30
73.521198
 70
   192
  0
VERTEX
  8
egg_2
 10
-24.210533
 20
0.000000
 30
77.141132
 70
   192
  0
VERTEX
  8
egg_2
 10
-53.170003
 20
0.000000
 30
81.967710
 70
   192
  0
VERTEX
  8
egg_2
 10
-77.302894
 20
0.000000
 30
65.678009
 70
   192
  0
VERTEX
  8
egg_2
 10
-85.749406
 20
0.000000
 30
37.321861
 70
   192
  0
VERTEX
  8
egg_2
 10
-77.302894
 20
0.000000
 30
13.792292
 70
   192
  0
VERTEX
  8
egg_2
 10
-72.476316
 20
0.000000
 30
-3.704054
 70
   192
  0
VERTEX
  8
egg_2
 10
-76.096249
 20
0.000000
 30
-29.646912
 70
   192
  0
VERTEX
  8
egg_2
 10
-66.250030
 20
12.719165
 30
-39.058740
 70
   192
  0
VERTEX
  8
egg_2
 10
-43.492713
 20
12.719165
 30
-63.481225
 70
   192
  0
VERTEX
  8
egg_2
 10
-4.083702
 20
12.719165
 30
-65.146395
 70
   192
  0
VERTEX
  8
egg_2
 10
9.792711
 20
12.719165
 30
-56.820547
 70
   192
  0
VERTEX
  8
egg_2
 10
18.118558
 20
12.719165
 30
-42.944135
 70
   192
  0
VERTEX
  8
egg_2
 10
61.968022
 20
12.719165
 30
-20.741875
 70
   192
  0
VERTEX
  8
egg_2
 10
74.734321
 20
12.719165
 30
-16.856480
 70
   192
  0
VERTEX
  8
egg_2
 10
89.165790
 20
12.719165
 30
26.992984
 70
   192
  0
VERTEX
  8
egg_2
 10
80.284886
 20
12.719165
 30
58.631204
 70
   192
  0
VERTEX
  8
egg_2
 10
64.188248
 20
12.719165
 30
71.397504
 70
   192
  0
VERTEX
  8
egg_2
 10
38.100592
 20
12.719165
 30
71.397504
 70
   192
  0
VERTEX
  8
egg_2
 10
6.462372
 20
12.719165
 30
68.067165
 70
   192
  0
VERTEX
  8
egg_2
 10
-21.845510
 20
12.719165
 30
71.397504
 70
   192
  0
VERTEX
  8
egg_2
 10
-48.488222
 20
12.719165
 30
75.837956
 70
   192
  0
VERTEX
  8
egg_2
 10
-70.690482
 20
12.719165
 30
60.851430
 70
   192
  0
VERTEX
  8
egg_2
 10
-78.461273
 20
12.719165
 30
34.763775
 70
   192
  0
VERTEX
  8
egg_2
 10
-70.690482
 20
12.719165
 30
13.116571
 70
   192
  0
VERTEX
  8
egg_2
 10
-66.250030
 20
12.719165
 30
-2.980067
 70
   192
  0
VERTEX
  8
egg_2
 10
-69.580369
 20
12.719165
 30
-26.847497
 70
   192
  0
VERTEX
  8
egg_2
 10
0.000000
 20
0.000000
 30
0.000000
 70
   192
  0
VERTEX
  8
egg_2
 10
0.000000
 20
0.000000
 30
0.000000
 70
   192
  0
VERTEX
  8
egg_2
 10
0.000000
 20
0.000000
 30
0.000000
 70
   192
  0
VERTEX
  8
egg_2
 10
0.000000
 20
0.000000
 30
0.000000
 70
   192
  0
VERTEX
  8
egg_2
 10
0.000000
 20
0.000000
 30
0.000000
 70
   192
  0
VERTEX
  8
egg_2
 10
0.000000
 20
0.000000
 30
0.000000
 70
   192
  0
VERTEX
  8
egg_2
 10
0.000000
 20
0.000000
 30
0.000000
 70
   192
  0
VERTEX
  8
egg_2
 10
0.000000
 20
0.000000
 30
0.000000
 70
   192
  0
VERTEX
  8
egg_2
 10
0.000000
 20
0.000000
 30
0.000000
 70
   192
  0
VERTEX
  8
egg_2
 10
0.000000
 20
0.000000
 30
0.000000
 70
   192
  0
VERTEX
  8
egg_2
 10
0.000000
 20
0.000000
 30
0.000000
 70
   192
  0
VERTEX
  8
egg_2
 10
0.000000
 20
0.000000
 30
0.000000
 70
   192
  0
VERTEX
  8
egg_2
 10
0.000000
 20
0.000000
 30
0.000000
 70
   192
  0
VERTEX
  8
egg_2
 10
0.000000
 20
0.000000
 30
0.000000
 70
   192
  0
VERTEX
  8
egg_2
 10
0.000000
 20
0.000000
 30
0.000000
 70
   192
  0
VERTEX
  8
egg_2
 10
0.000000
 20
0.000000
 30
0.000000
 70
   192
  0
VERTEX
  8
egg_2
 10
0.000000
 20
0.000000
 30
0.000000
 70
   192
  0
VERTEX
  8
egg_2
 10
0.000000
 20
0.000000
 30
0.000000
 70
   192
  0
VERTEX
  8
egg_2
 10
0.000000
 20
0.000000
 30
0.000000
 70
   192
  0
VERTEX
  8
egg_2
 10
-53.526179
 20
19.081542
 30
-31.335094
 70
   192
  0
VERTEX
  8
egg_2
 10
-35.258980
 20
19.081542
 30
-50.938916
 70
   192
  0
VERTEX
  8
egg_2
 10
-3.442995
 20
19.081542
 30
-52.283254
 70
   192
  0
VERTEX
  8
egg_2
 10
7.147975
 20
19.081542
 30
-45.928671
 70
   192
  0
VERTEX
  8
egg_2
 10
14.337836
 20
19.081542
 30
-33.945570
 70
   192
  0
VERTEX
  8
egg_2
 10
52.840816
 20
19.081542
 30
-14.450391
 70
   192
  0
VERTEX
  8
egg_2
 10
62.640752
 20
19.081542
 30
-11.467802
 70
   192
  0
VERTEX
  8
egg_2
 10
74.297921
 20
19.081542
 30
23.952060
 70
   192
  0
VERTEX
  8
egg_2
 10
67.155878
 20
19.081542
 30
49.395590
 70
   192
  0
VERTEX
  8
egg_2
 10
54.814833
 20
19.081542
 30
59.183316
 70
   192
  0
VERTEX
  8
egg_2
 10
33.564012
 20
19.081542
 30
59.183316
 70
   192
  0
VERTEX
  8
egg_2
 10
6.288237
 20
19.081542
 30
56.312181
 70
   192
  0
VERTEX
  8
egg_2
 10
-18.342907
 20
19.081542
 30
59.209963
 70
   192
  0
VERTEX
  8
egg_2
 10
-40.155645
 20
19.081542
 30
62.845419
 70
   192
  0
VERTEX
  8
egg_2
 10
-57.452089
 20
19.081542
 30
51.170320
 70
   192
  0
VERTEX
  8
egg_2
 10
-63.571133
 20
19.081542
 30
30.627817
 70
   192
  0
VERTEX
  8
egg_2
 10
-57.182309
 20
19.081542
 30
12.830381
 70
   192
  0
VERTEX
  8
egg_2
 10
-53.197392
 20
19.081542
 30
-1.614945
 70
   192
  0
VERTEX
  8
egg_2
 10
-56.052072
 20
19.081542
 30
-22.073485
 70
   192
  0
VERTEX
  8
egg_2
 10
0.0
 20
0.0
 30
0.0
 70
   128
 71
   1
 72
   2
 73
   21
  0
VERTEX
  8
egg_2
 10
0.0
 20
0.0
 30
0.0
 70
   128
 71
   2
 72
   3
 73
   22
  0
VERTEX
  8
egg_2
 10
0.0
 20
0.0
 30
0.0
 70
   128
 71
   3
 72
   4
 73
   23
  0
VERTEX
  8
egg_2
 10
0.0
 20
0.0
 30
0.0
 70
   128
 71
   4
 72
   5
 73
   24
  0
VERTEX
  8
egg_2
 10
0.0
 20
0.0
 30
0.0
 70
   128
 71
   5
 72
   6
 73
   25
  0
VERTEX
  8
egg_2
 10
0.0
 20
0.0
 30
0.0
 70
   128
 71
   6
 72
   7
 73
   26
  0
VERTEX
  8
egg_2
 10
0.0
 20
0.0
 30
0.0
 70
   128
 71
   7
 72
   8
 73
   27
  0
VERTEX
  8
egg_2
 10
0.0
 20
0.0
 30
0.0
 70
   128
 71
   8
 72
   9
 73
   28
  0
VERTEX
  8
egg_2
 10
0.0
 20
0.0
 30
0.0
 70
   128
 71
   9
 72
   10
 73
   29
  0
VERTEX
  8
egg_2
 10
0.0
 20
0.0
 30
0.0
 70
   128
 71
   10
 72
   11
 73
   30
  0
VERTEX
  8
egg_2
 10
0.0
 20
0.0
 30
0.0
 70
   128
 71
   11
 72
   12
 73
   31
  0
VERTEX
  8
egg_2
 10
0.0
 20
0.0
 30
0.0
 70
   128
 71
   12
 72
   13
 73
   32
  0
VERTEX
  8
egg_2
 10
0.0
 20
0.0
 30
0.0
 70
   128
 71
   13
 72
   14
 73
   33
  0
VERTEX
  8
egg_2
 10
0.0
 20
0.0
 30
0.0
 70
   128
 71
   14
 72
   15
 73
   34
  0
VERTEX
  8
egg_2
 10
0.0
 20
0.0
 30
0.0
 70
   128
 71
   15
 72
   16
 73
   35
  0
VERTEX
  8
egg_2
 10
0.0
 20
0.0
 30
0.0
 70
   128
 71
   16
 72
   17
 73
   36
  0
VERTEX
  8
egg_2
 10
0.0
 20
0.0
 30
0.0
 70
   128
 71
   17
 72
   18
 73
   37
  0
VERTEX
  8
egg_2
 10
0.0
 20
0.0
 30
0.0
 70
   128
 71
   18
 72
   19
 73
   38
  0
VERTEX
  8
egg_2
 10
0.0
 20
0.0
 30
0.0
 70
   128
 71
   19
 72
   1
 73
   20
  0
VERTEX
  8
egg_2
 10
0.0
 20
0.0
 30
0.0
 70
   128
 71
   57
 72
   56
 73
   39
  0
VERTEX
  8
egg_2
 10
0.0
 20
0.0
 30
0.0
 70
   128
 71
   56
 72
   43
 73
   39
  0
VERTEX
  8
egg_2
 10
0.0
 20
0.0
 30
0.0
 70
   128
 71
   56
 72
   55
 73
   51
  0
VERTEX
  8
egg_2
 10
0.0
 20
0.0
 30
0.0
 70
   128
 71
   56
 72
   51
 73
   50
  0
VERTEX
  8
egg_2
 10
0.0
 20
0.0
 30
0.0
 70
   128
 71
   56
 72
   50
 73
   43
  0
VERTEX
  8
egg_2
 10
0.0
 20
0.0
 30
0.0
 70
   128
 71
   55
 72
   54
 73
   51
  0
VERTEX
  8
egg_2
 10
0.0
 20
0.0
 30
0.0
 70
   128
 71
   54
 72
   53
 73
   51
  0
VERTEX
  8
egg_2
 10
0.0
 20
0.0
 30
0.0
 70
   128
 71
   53
 72
   52
 73
   51
  0
VERTEX
  8
egg_2
 10
0.0
 20
0.0
 30
0.0
 70
   128
 71
   50
 72
   44
 73
   43
  0
VERTEX
  8
egg_2
 10
0.0
 20
0.0
 30
0.0
 70
   128
 71
   50
 72
   49
 73
   44
  0
VERTEX
  8
egg_2
 10
0.0
 20
0.0
 30
0.0
 70
   128
 71
   49
 72
   48
 73
   47
  0
VERTEX
  8
egg_2
 10
0.0
 20
0.0
 30
0.0
 70
   128
 71
   49
 72
   47
 73
   46
  0
VERTEX
  8
egg_2
 10
0.0
 20
0.0
 30
0.0
 70
   128
 71
   49
 72
   46
 73
   44
  0
VERTEX
  8
egg_2
 10
0.0
 20
0.0
 30
0.0
 70
   128
 71
   46
 72
   45
 73
   44
  0
VERTEX
  8
egg_2
 10
0.0
 20
0.0
 30
0.0
 70
   128
 71
   43
 72
   42
 73
   41
  0
VERTEX
  8
egg_2
 10
0.0
 20
0.0
 30
0.0
 70
   128
 71
   43
 72
   41
 73
   40
  0
VERTEX
  8
egg_2
 10
0.0
 20
0.0
 30
0.0
 70
   128
 71
   43
 72
   40
 73
   39
  0
VERTEX
  8
egg_2
 10
0.0
 20
0.0
 30
0.0
 70
   128
 71
   114
 72
   96
 73
   100
  0
VERTEX
  8
egg_2
 10
0.0
 20
0.0
 30
0.0
 70
   128
 71
   58
 72
   96
 73
   114
  0
VERTEX
  8
egg_2
 10
0.0
 20
0.0
 30
0.0
 70
   128
 71
   59
 72
   97
 73
   96
  0
VERTEX
  8
egg_2
 10
0.0
 20
0.0
 30
0.0
 70
   128
 71
   100
 72
   96
 73
   97
  0
VERTEX
  8
egg_2
 10
0.0
 20
0.0
 30
0.0
 70
   128
 71
   100
 72
   101
 73
   107
  0
VERTEX
  8
egg_2
 10
0.0
 20
0.0
 30
0.0
 70
   128
 71
   101
 72
   102
 73
   103
  0
VERTEX
  8
egg_2
 10
0.0
 20
0.0
 30
0.0
 70
   128
 71
   60
 72
   98
 73
   97
  0
VERTEX
  8
egg_2
 10
0.0
 20
0.0
 30
0.0
 70
   128
 71
   101
 72
   103
 73
   106
  0
VERTEX
  8
egg_2
 10
0.0
 20
0.0
 30
0.0
 70
   128
 71
   61
 72
   99
 73
   98
  0
VERTEX
  8
egg_2
 10
0.0
 20
0.0
 30
0.0
 70
   128
 71
   108
 72
   110
 73
   111
  0
VERTEX
  8
egg_2
 10
0.0
 20
0.0
 30
0.0
 70
   128
 71
   98
 72
   99
 73
   100
  0
VERTEX
  8
egg_2
 10
0.0
 20
0.0
 30
0.0
 70
   128
 71
   113
 72
   107
 73
   108
  0
VERTEX
  8
egg_2
 10
0.0
 20
0.0
 30
0.0
 70
   128
 71
   108
 72
   109
 73
   110
  0
VERTEX
  8
egg_2
 10
0.0
 20
0.0
 30
0.0
 70
   128
 71
   62
 72
   100
 73
   99
  0
VERTEX
  8
egg_2
 10
0.0
 20
0.0
 30
0.0
 70
   128
 71
   63
 72
   101
 73
   100
  0
VERTEX
  8
egg_2
 10
0.0
 20
0.0
 30
0.0
 70
   128
 71
   64
 72
   102
 73
   101
  0
VERTEX
  8
egg_2
 10
0.0
 20
0.0
 30
0.0
 70
   128
 71
   106
 72
   103
 73
   104
  0
VERTEX
  8
egg_2
 10
0.0
 20
0.0
 30
0.0
 70
   128
 71
   65
 72
   103
 73
   102
  0
VERTEX
  8
egg_2
 10
0.0
 20
0.0
 30
0.0
 70
   128
 71
   66
 72
   104
 73
   103
  0
VERTEX
  8
egg_2
 10
0.0
 20
0.0
 30
0.0
 70
   128
 71
   67
 72
   105
 73
   104
  0
VERTEX
  8
egg_2
 10
0.0
 20
0.0
 30
0.0
 70
   128
 71
   68
 72
   106
 73
   105
  0
VERTEX
  8
egg_2
 10
0.0
 20
0.0
 30
0.0
 70
   128
 71
   69
 72
   107
 73
   106
  0
VERTEX
  8
egg_2
 10
0.0
 20
0.0
 30
0.0
 70
   128
 71
   70
 72
   108
 73
   107
  0
VERTEX
  8
egg_2
 10
0.0
 20
0.0
 30
0.0
 70
   128
 71
   71
 72
   109
 73
   108
  0
VERTEX
  8
egg_2
 10
0.0
 20
0.0
 30
0.0
 70
   128
 71
   72
 72
   110
 73
   109
  0
VERTEX
  8
egg_2
 10
0.0
 20
0.0
 30
0.0
 70
   128
 71
   73
 72
   111
 73
   110
  0
VERTEX
  8
egg_2
 10
0.0
 20
0.0
 30
0.0
 70
   128
 71
   74
 72
   112
 73
   111
  0
VERTEX
  8
egg_2
 10
0.0
 20
0.0
 30
0.0
 70
   128
 71
   75
 72
   113
 73
   112
  0
VERTEX
  8
egg_2
 10
0.0
 20
0.0
 30
0.0
 70
   128
 71
   76
 72
   114
 73
   113
  0
VERTEX
  8
egg_2
 10
0.0
 20
0.0
 30
0.0
 70
   128
 71
   1
 72
   21
 73
   20
  0
VERTEX
  8
egg_2
 10
0.0
 20
0.0
 30
0.0
 70
   128
 71
   2
 72
   22
 73
   21
  0
VERTEX
  8
egg_2
 10
0.0
 20
0.0
 30
0.0
 70
   128
 71
   3
 72
   23
 73
   22
  0
VERTEX
  8
egg_2
 10
0.0
 20
0.0
 30
0.0
 70
   128
 71
   4
 72
   24
 73
   23
  0
VERTEX
  8
egg_2
 10
0.0
 20
0.0
 30
0.0
 70
   128
 71
   5
 72
   25
 73
   24
  0
VERTEX
  8
egg_2
 10
0.0
 20
0.0
 30
0.0
 70
   128
 71
   6
 72
   26
 73
   25
  0
VERTEX
  8
egg_2
 10
0.0
 20
0.0
 30
0.0
 70
   128
 71
   7
 72
   27
 73
   26
  0
VERTEX
  8
egg_2
 10
0.0
 20
0.0
 30
0.0
 70
   128
 71
   8
 72
   28
 73
   27
  0
VERTEX
  8
egg_2
 10
0.0
 20
0.0
 30
0.0
 70
   128
 71
   9
 72
   29
 73
   28
  0
VERTEX
  8
egg_2
 10
0.0
 20
0.0
 30
0.0
 70
   128
 71
   10
 72
   30
 73
   29
  0
VERTEX
  8
egg_2
 10
0.0
 20
0.0
 30
0.0
 70
   128
 71
   11
 72
   31
 73
   30
  0
VERTEX
  8
egg_2
 10
0.0
 20
0.0
 30
0.0
 70
   128
 71
   12
 72
   32
 73
   31
  0
VERTEX
  8
egg_2
 10
0.0
 20
0.0
 30
0.0
 70
   128
 71
   13
 72
   33
 73
   32
  0
VERTEX
  8
egg_2
 10
0.0
 20
0.0
 30
0.0
 70
   128
 71
   14
 72
   34
 73
   33
  0
VERTEX
  8
egg_2
 10
0.0
 20
0.0
 30
0.0
 70
   128
 71
   15
 72
   35
 73
   34
  0
VERTEX
  8
egg_2
 10
0.0
 20
0.0
 30
0.0
 70
   128
 71
   16
 72
   36
 73
   35
  0
VERTEX
  8
egg_2
 10
0.0
 20
0.0
 30
0.0
 70
   128
 71
   17
 72
   37
 73
   36
  0
VERTEX
  8
egg_2
 10
0.0
 20
0.0
 30
0.0
 70
   128
 71
   18
 72
   38
 73
   37
  0
VERTEX
  8
egg_2
 10
0.0
 20
0.0
 30
0.0
 70
   128
 71
   19
 72
   20
 73
   38
  0
VERTEX
  8
egg_2
 10
0.0
 20
0.0
 30
0.0
 70
   128
 71
   114
 72
   100
 73
   113
  0
VERTEX
  8
egg_2
 10
0.0
 20
0.0
 30
0.0
 70
   128
 71
   58
 72
   114
 73
   76
  0
VERTEX
  8
egg_2
 10
0.0
 20
0.0
 30
0.0
 70
   128
 71
   59
 72
   96
 73
   58
  0
VERTEX
  8
egg_2
 10
0.0
 20
0.0
 30
0.0
 70
   128
 71
   100
 72
   97
 73
   98
  0
VERTEX
  8
egg_2
 10
0.0
 20
0.0
 30
0.0
 70
   128
 71
   100
 72
   107
 73
   113
  0
VERTEX
  8
egg_2
 10
0.0
 20
0.0
 30
0.0
 70
   128
 71
   60
 72
   97
 73
   59
  0
VERTEX
  8
egg_2
 10
0.0
 20
0.0
 30
0.0
 70
   128
 71
   101
 72
   106
 73
   107
  0
VERTEX
  8
egg_2
 10
0.0
 20
0.0
 30
0.0
 70
   128
 71
   61
 72
   98
 73
   60
  0
VERTEX
  8
egg_2
 10
0.0
 20
0.0
 30
0.0
 70
   128
 71
   108
 72
   111
 73
   112
  0
VERTEX
  8
egg_2
 10
0.0
 20
0.0
 30
0.0
 70
   128
 71
   113
 72
   108
 73
   112
  0
VERTEX
  8
egg_2
 10
0.0
 20
0.0
 30
0.0
 70
   128
 71
   62
 72
   99
 73
   61
  0
VERTEX
  8
egg_2
 10
0.0
 20
0.0
 30
0.0
 70
   128
 71
   63
 72
   100
 73
   62
  0
VERTEX
  8
egg_2
 10
0.0
 20
0.0
 30
0.0
 70
   128
 71
   64
 72
   101
 73
   63
  0
VERTEX
  8
egg_2
 10
0.0
 20
0.0
 30
0.0
 70
   128
 71
   106
 72
   104
 73
   105
  0
VERTEX
  8
egg_2
 10
0.0
 20
0.0
 30
0.0
 70
   128
 71
   65
 72
   102
 73
   64
  0
VERTEX
  8
egg_2
 10
0.0
 20
0.0
 30
0.0
 70
   128
 71
   66
 72
   103
 73
   65
  0
VERTEX
  8
egg_2
 10
0.0
 20
0.0
 30
0.0
 70
   128
 71
   67
 72
   104
 73
   66
  0
VERTEX
  8
egg_2
 10
0.0
 20
0.0
 30
0.0
 70
   128
 71
   68
 72
   105
 73
   67
  0
VERTEX
  8
egg_2
 10
0.0
 20
0.0
 30
0.0
 70
   128
 71
   69
 72
   106
 73
   68
  0
VERTEX
  8
egg_2
 10
0.0
 20
0.0
 30
0.0
 70
   128
 71
   70
 72
   107
 73
   69
  0
VERTEX
  8
egg_2
 10
0.0
 20
0.0
 30
0.0
 70
   128
 71
   71
 72
   108
 73
   70
  0
VERTEX
  8
egg_2
 10
0.0
 20
0.0
 30
0.0
 70
   128
 71
   72
 72
   109
 73
   71
  0
VERTEX
  8
egg_2
 10
0.0
 20
0.0
 30
0.0
 70
   128
 71
   73
 72
   110
 73
   72
  0
VERTEX
  8
egg_2
 10
0.0
 20
0.0
 30
0.0
 70
   128
 71
   74
 72
   111
 73
   73
  0
VERTEX
  8
egg_2
 10
0.0
 20
0.0
 30
0.0
 70
   128
 71
   75
 72
   112
 73
   74
  0
VERTEX
  8
egg_2
 10
0.0
 20
0.0
 30
0.0
 70
   128
 71
   76
 72
   113
 73
   75
  0
SEQEND
  0
ENDSEC
  0
EOF
