999
FBX AutoCAD (*.DXF) exporter
  0
SECTION
  2
HEADER
  9
$ACADVER
  1
AC1008
  9
$UCSORG
 10
0.0
 20
0.0
 30
0.0
  9
$UCSXDIR
 10
1.0
 20
0.0
 30
0.0
  9
$TILEMODE
 70
   1
  9
$UCSYDIR
 10
0.0
 20
1.0
 30
0.0
  0
ENDSEC
  0
SECTION
  2
TABLES
  0
TABLE
  2
LTYPE
 70
   1
  0
LTYPE
  2
CONTINUOUS
 70
   64
  3
Solid line
 72
   65
 73
   0
 40
0.0
  0
ENDTAB
  0
TABLE
  2
LAYER
 70
   1
  0
LAYER
  2
fork
 70
   0
 62
   250
  6
CONTINUOUS
  0
ENDTAB
  0
ENDSEC
  0
SECTION
  2
BLOCKS
  0
ENDSEC
  0
SECTION
  2
ENTITIES
  0
POLYLINE
  8
fork
 66
   1
 10
0.0
 20
0.0
 30
0.0
 70
   64
 71
   88
 72
   172
  0
VERTEX
  8
fork
 10
13.303630
 20
12.795351
 30
-95.735578
 70
   192
  0
VERTEX
  8
fork
 10
17.745668
 20
0.000000
 30
-36.723652
 70
   192
  0
VERTEX
  8
fork
 10
15.312187
 20
0.000000
 30
-32.769245
 70
   192
  0
VERTEX
  8
fork
 10
4.665705
 20
0.000000
 30
-27.902282
 70
   192
  0
VERTEX
  8
fork
 10
8.620113
 20
4.160976
 30
72.313878
 70
   192
  0
VERTEX
  8
fork
 10
3.144779
 20
1.014584
 30
89.370125
 70
   192
  0
VERTEX
  8
fork
 10
-4.155665
 20
1.014584
 30
89.370125
 70
   192
  0
VERTEX
  8
fork
 10
-17.843998
 20
0.000000
 30
-38.244578
 70
   192
  0
VERTEX
  8
fork
 10
17.745668
 20
8.427791
 30
-36.723652
 70
   192
  0
VERTEX
  8
fork
 10
4.665705
 20
8.427791
 30
-27.902282
 70
   192
  0
VERTEX
  8
fork
 10
8.620113
 20
9.671183
 30
73.474200
 70
   192
  0
VERTEX
  8
fork
 10
9.228483
 20
7.268105
 30
84.780703
 70
   192
  0
VERTEX
  8
fork
 10
3.144779
 20
6.077190
 30
90.436192
 70
   192
  0
VERTEX
  8
fork
 10
-8.718443
 20
9.796543
 30
72.878885
 70
   192
  0
VERTEX
  8
fork
 10
-4.764035
 20
8.427791
 30
-27.598097
 70
   192
  0
VERTEX
  8
fork
 10
-11.151924
 20
8.427791
 30
-28.814838
 70
   192
  0
VERTEX
  8
fork
 10
-17.843998
 20
8.427791
 30
-38.244578
 70
   192
  0
VERTEX
  8
fork
 10
-13.403311
 20
17.540000
 30
-95.735578
 70
   192
  0
VERTEX
  8
fork
 10
10.141039
 20
0.000000
 30
-29.727393
 70
   192
  0
VERTEX
  8
fork
 10
9.228483
 20
2.205499
 30
83.714636
 70
   192
  0
VERTEX
  8
fork
 10
-8.414258
 20
2.017460
 30
84.607608
 70
   192
  0
VERTEX
  8
fork
 10
-8.718443
 20
4.286336
 30
71.718563
 70
   192
  0
VERTEX
  8
fork
 10
-4.764035
 20
0.000000
 30
-27.598097
 70
   192
  0
VERTEX
  8
fork
 10
-11.151924
 20
0.000000
 30
-28.814838
 70
   192
  0
VERTEX
  8
fork
 10
-16.323072
 20
0.000000
 30
-32.769245
 70
   192
  0
VERTEX
  8
fork
 10
-13.403311
 20
12.795351
 30
-95.735578
 70
   192
  0
VERTEX
  8
fork
 10
13.303630
 20
17.540000
 30
-95.735578
 70
   192
  0
VERTEX
  8
fork
 10
15.312187
 20
8.427791
 30
-32.769245
 70
   192
  0
VERTEX
  8
fork
 10
10.141039
 20
8.427791
 30
-29.727393
 70
   192
  0
VERTEX
  8
fork
 10
-4.155665
 20
6.077190
 30
90.436192
 70
   192
  0
VERTEX
  8
fork
 10
-8.414258
 20
7.080066
 30
85.673675
 70
   192
  0
VERTEX
  8
fork
 10
-16.323072
 20
8.427791
 30
-32.769245
 70
   192
  0
VERTEX
  8
fork
 10
-14.866417
 20
6.953995
 30
-77.983795
 70
   192
  0
VERTEX
  8
fork
 10
14.743880
 20
12.811283
 30
-77.983795
 70
   192
  0
VERTEX
  8
fork
 10
14.743880
 20
6.953995
 30
-77.983795
 70
   192
  0
VERTEX
  8
fork
 10
-14.866417
 20
12.811283
 30
-77.983795
 70
   192
  0
VERTEX
  8
fork
 10
16.263078
 20
1.390799
 30
-57.678129
 70
   192
  0
VERTEX
  8
fork
 10
16.263078
 20
8.082566
 30
-57.678129
 70
   192
  0
VERTEX
  8
fork
 10
-16.413305
 20
8.082566
 30
-57.678129
 70
   192
  0
VERTEX
  8
fork
 10
-16.413305
 20
1.390799
 30
-57.678129
 70
   192
  0
VERTEX
  8
fork
 10
5.057144
 20
3.819437
 30
-17.995880
 70
   192
  0
VERTEX
  8
fork
 10
5.057144
 20
11.105490
 30
-17.995880
 70
   192
  0
VERTEX
  8
fork
 10
-5.146946
 20
11.085839
 30
-17.995880
 70
   192
  0
VERTEX
  8
fork
 10
-5.146946
 20
3.819437
 30
-17.995880
 70
   192
  0
VERTEX
  8
fork
 10
-9.162890
 20
8.153338
 30
-51.574068
 70
   192
  0
VERTEX
  8
fork
 10
9.449286
 20
1.105685
 30
-51.574068
 70
   192
  0
VERTEX
  8
fork
 10
-6.072428
 20
8.674321
 30
5.212360
 70
   192
  0
VERTEX
  8
fork
 10
5.974187
 20
14.151793
 30
5.212360
 70
   192
  0
VERTEX
  8
fork
 10
5.974164
 20
8.685913
 30
5.211776
 70
   192
  0
VERTEX
  8
fork
 10
-6.072433
 20
14.140192
 30
5.212502
 70
   192
  0
VERTEX
  8
fork
 10
7.228502
 20
10.335518
 30
36.680196
 70
   192
  0
VERTEX
  8
fork
 10
-7.338286
 20
10.323109
 30
36.680196
 70
   192
  0
VERTEX
  8
fork
 10
7.228502
 20
15.459543
 30
36.680196
 70
   192
  0
VERTEX
  8
fork
 10
-7.338287
 20
15.460419
 30
36.680211
 70
   192
  0
VERTEX
  8
fork
 10
-8.180234
 20
7.087398
 30
58.515798
 70
   192
  0
VERTEX
  8
fork
 10
-8.180234
 20
12.257969
 30
59.604600
 70
   192
  0
VERTEX
  8
fork
 10
8.062773
 20
7.100106
 30
58.518470
 70
   192
  0
VERTEX
  8
fork
 10
8.062773
 20
12.249018
 30
59.602715
 70
   192
  0
VERTEX
  8
fork
 10
-2.947653
 20
1.105685
 30
-51.574068
 70
   192
  0
VERTEX
  8
fork
 10
-2.947653
 20
8.153338
 30
-51.574068
 70
   192
  0
VERTEX
  8
fork
 10
-2.722554
 20
12.795351
 30
-95.735578
 70
   192
  0
VERTEX
  8
fork
 10
8.771545
 20
12.795351
 30
-95.735578
 70
   192
  0
VERTEX
  8
fork
 10
-2.722554
 20
17.540000
 30
-95.735578
 70
   192
  0
VERTEX
  8
fork
 10
-8.485149
 20
12.795351
 30
-95.735578
 70
   192
  0
VERTEX
  8
fork
 10
3.008950
 20
17.540000
 30
-95.735578
 70
   192
  0
VERTEX
  8
fork
 10
9.043979
 20
6.953995
 30
-77.983795
 70
   192
  0
VERTEX
  8
fork
 10
3.008950
 20
12.795351
 30
-95.735578
 70
   192
  0
VERTEX
  8
fork
 10
3.099434
 20
6.953995
 30
-77.983795
 70
   192
  0
VERTEX
  8
fork
 10
-2.813038
 20
6.953995
 30
-77.983795
 70
   192
  0
VERTEX
  8
fork
 10
8.771545
 20
17.540000
 30
-95.735578
 70
   192
  0
VERTEX
  8
fork
 10
9.355608
 20
1.390799
 30
-57.678129
 70
   192
  0
VERTEX
  8
fork
 10
3.202936
 20
1.390799
 30
-57.678129
 70
   192
  0
VERTEX
  8
fork
 10
-2.916540
 20
1.390799
 30
-57.678129
 70
   192
  0
VERTEX
  8
fork
 10
-9.069212
 20
1.390799
 30
-57.678129
 70
   192
  0
VERTEX
  8
fork
 10
-8.485149
 20
17.540000
 30
-95.735578
 70
   192
  0
VERTEX
  8
fork
 10
9.043979
 20
12.811283
 30
-77.983795
 70
   192
  0
VERTEX
  8
fork
 10
3.202936
 20
8.082566
 30
-57.678129
 70
   192
  0
VERTEX
  8
fork
 10
3.099434
 20
12.811283
 30
-77.983795
 70
   192
  0
VERTEX
  8
fork
 10
-2.916540
 20
8.082566
 30
-57.678129
 70
   192
  0
VERTEX
  8
fork
 10
-2.813038
 20
12.811283
 30
-77.983795
 70
   192
  0
VERTEX
  8
fork
 10
-9.069212
 20
8.082566
 30
-57.678129
 70
   192
  0
VERTEX
  8
fork
 10
-8.757583
 20
12.811283
 30
-77.983795
 70
   192
  0
VERTEX
  8
fork
 10
3.234050
 20
1.105685
 30
-51.574068
 70
   192
  0
VERTEX
  8
fork
 10
-8.757583
 20
6.953995
 30
-77.983795
 70
   192
  0
VERTEX
  8
fork
 10
-9.162890
 20
1.105685
 30
-51.574068
 70
   192
  0
VERTEX
  8
fork
 10
9.355608
 20
8.082566
 30
-57.678129
 70
   192
  0
VERTEX
  8
fork
 10
3.234050
 20
8.153338
 30
-51.574068
 70
   192
  0
VERTEX
  8
fork
 10
9.449286
 20
8.153338
 30
-51.574068
 70
   192
  0
VERTEX
  8
fork
 10
0.0
 20
0.0
 30
0.0
 70
   128
 71
   1
 72
   35
 73
   34
  0
VERTEX
  8
fork
 10
0.0
 20
0.0
 30
0.0
 70
   128
 71
   2
 72
   3
 73
   28
  0
VERTEX
  8
fork
 10
0.0
 20
0.0
 30
0.0
 70
   128
 71
   3
 72
   19
 73
   29
  0
VERTEX
  8
fork
 10
0.0
 20
0.0
 30
0.0
 70
   128
 71
   19
 72
   4
 73
   10
  0
VERTEX
  8
fork
 10
0.0
 20
0.0
 30
0.0
 70
   128
 71
   4
 72
   41
 73
   42
  0
VERTEX
  8
fork
 10
0.0
 20
0.0
 30
0.0
 70
   128
 71
   5
 72
   20
 73
   12
  0
VERTEX
  8
fork
 10
0.0
 20
0.0
 30
0.0
 70
   128
 71
   20
 72
   6
 73
   13
  0
VERTEX
  8
fork
 10
0.0
 20
0.0
 30
0.0
 70
   128
 71
   6
 72
   7
 73
   30
  0
VERTEX
  8
fork
 10
0.0
 20
0.0
 30
0.0
 70
   128
 71
   7
 72
   21
 73
   31
  0
VERTEX
  8
fork
 10
0.0
 20
0.0
 30
0.0
 70
   128
 71
   21
 72
   22
 73
   14
  0
VERTEX
  8
fork
 10
0.0
 20
0.0
 30
0.0
 70
   128
 71
   22
 72
   55
 73
   56
  0
VERTEX
  8
fork
 10
0.0
 20
0.0
 30
0.0
 70
   128
 71
   23
 72
   24
 73
   16
  0
VERTEX
  8
fork
 10
0.0
 20
0.0
 30
0.0
 70
   128
 71
   24
 72
   25
 73
   32
  0
VERTEX
  8
fork
 10
0.0
 20
0.0
 30
0.0
 70
   128
 71
   25
 72
   8
 73
   17
  0
VERTEX
  8
fork
 10
0.0
 20
0.0
 30
0.0
 70
   128
 71
   8
 72
   40
 73
   39
  0
VERTEX
  8
fork
 10
0.0
 20
0.0
 30
0.0
 70
   128
 71
   61
 72
   67
 73
   65
  0
VERTEX
  8
fork
 10
0.0
 20
0.0
 30
0.0
 70
   128
 71
   75
 72
   18
 73
   26
  0
VERTEX
  8
fork
 10
0.0
 20
0.0
 30
0.0
 70
   128
 71
   62
 72
   1
 73
   27
  0
VERTEX
  8
fork
 10
0.0
 20
0.0
 30
0.0
 70
   128
 71
   33
 72
   84
 73
   64
  0
VERTEX
  8
fork
 10
0.0
 20
0.0
 30
0.0
 70
   128
 71
   69
 72
   68
 73
   67
  0
VERTEX
  8
fork
 10
0.0
 20
0.0
 30
0.0
 70
   128
 71
   62
 72
   66
 73
   35
  0
VERTEX
  8
fork
 10
0.0
 20
0.0
 30
0.0
 70
   128
 71
   35
 72
   37
 73
   38
  0
VERTEX
  8
fork
 10
0.0
 20
0.0
 30
0.0
 70
   128
 71
   33
 72
   26
 73
   18
  0
VERTEX
  8
fork
 10
0.0
 20
0.0
 30
0.0
 70
   128
 71
   40
 72
   33
 73
   36
  0
VERTEX
  8
fork
 10
0.0
 20
0.0
 30
0.0
 70
   128
 71
   37
 72
   2
 73
   9
  0
VERTEX
  8
fork
 10
0.0
 20
0.0
 30
0.0
 70
   128
 71
   73
 72
   72
 73
   68
  0
VERTEX
  8
fork
 10
0.0
 20
0.0
 30
0.0
 70
   128
 71
   40
 72
   74
 73
   84
  0
VERTEX
  8
fork
 10
0.0
 20
0.0
 30
0.0
 70
   128
 71
   35
 72
   66
 73
   71
  0
VERTEX
  8
fork
 10
0.0
 20
0.0
 30
0.0
 70
   128
 71
   44
 72
   47
 73
   49
  0
VERTEX
  8
fork
 10
0.0
 20
0.0
 30
0.0
 70
   128
 71
   47
 72
   44
 73
   43
  0
VERTEX
  8
fork
 10
0.0
 20
0.0
 30
0.0
 70
   128
 71
   49
 72
   51
 73
   53
  0
VERTEX
  8
fork
 10
0.0
 20
0.0
 30
0.0
 70
   128
 71
   41
 72
   49
 73
   48
  0
VERTEX
  8
fork
 10
0.0
 20
0.0
 30
0.0
 70
   128
 71
   44
 72
   23
 73
   15
  0
VERTEX
  8
fork
 10
0.0
 20
0.0
 30
0.0
 70
   128
 71
   79
 72
   80
 73
   78
  0
VERTEX
  8
fork
 10
0.0
 20
0.0
 30
0.0
 70
   128
 71
   38
 72
   86
 73
   76
  0
VERTEX
  8
fork
 10
0.0
 20
0.0
 30
0.0
 70
   128
 71
   36
 72
   82
 73
   81
  0
VERTEX
  8
fork
 10
0.0
 20
0.0
 30
0.0
 70
   128
 71
   37
 72
   71
 73
   46
  0
VERTEX
  8
fork
 10
0.0
 20
0.0
 30
0.0
 70
   128
 71
   59
 72
   85
 73
   8
  0
VERTEX
  8
fork
 10
0.0
 20
0.0
 30
0.0
 70
   128
 71
   78
 72
   80
 73
   63
  0
VERTEX
  8
fork
 10
0.0
 20
0.0
 30
0.0
 70
   128
 71
   34
 72
   76
 73
   70
  0
VERTEX
  8
fork
 10
0.0
 20
0.0
 30
0.0
 70
   128
 71
   18
 72
   75
 73
   82
  0
VERTEX
  8
fork
 10
0.0
 20
0.0
 30
0.0
 70
   128
 71
   83
 72
   72
 73
   73
  0
VERTEX
  8
fork
 10
0.0
 20
0.0
 30
0.0
 70
   128
 71
   85
 72
   74
 73
   40
  0
VERTEX
  8
fork
 10
0.0
 20
0.0
 30
0.0
 70
   128
 71
   8
 72
   25
 73
   24
  0
VERTEX
  8
fork
 10
0.0
 20
0.0
 30
0.0
 70
   128
 71
   59
 72
   23
 73
   4
  0
VERTEX
  8
fork
 10
0.0
 20
0.0
 30
0.0
 70
   128
 71
   23
 72
   44
 73
   41
  0
VERTEX
  8
fork
 10
0.0
 20
0.0
 30
0.0
 70
   128
 71
   83
 72
   4
 73
   19
  0
VERTEX
  8
fork
 10
0.0
 20
0.0
 30
0.0
 70
   128
 71
   19
 72
   3
 73
   2
  0
VERTEX
  8
fork
 10
0.0
 20
0.0
 30
0.0
 70
   128
 71
   46
 72
   19
 73
   2
  0
VERTEX
  8
fork
 10
0.0
 20
0.0
 30
0.0
 70
   128
 71
   17
 72
   45
 73
   60
  0
VERTEX
  8
fork
 10
0.0
 20
0.0
 30
0.0
 70
   128
 71
   52
 72
   47
 73
   50
  0
VERTEX
  8
fork
 10
0.0
 20
0.0
 30
0.0
 70
   128
 71
   87
 72
   60
 73
   79
  0
VERTEX
  8
fork
 10
0.0
 20
0.0
 30
0.0
 70
   128
 71
   42
 72
   48
 73
   50
  0
VERTEX
  8
fork
 10
0.0
 20
0.0
 30
0.0
 70
   128
 71
   51
 72
   57
 73
   58
  0
VERTEX
  8
fork
 10
0.0
 20
0.0
 30
0.0
 70
   128
 71
   17
 72
   15
 73
   16
  0
VERTEX
  8
fork
 10
0.0
 20
0.0
 30
0.0
 70
   128
 71
   60
 72
   87
 73
   10
  0
VERTEX
  8
fork
 10
0.0
 20
0.0
 30
0.0
 70
   128
 71
   87
 72
   88
 73
   29
  0
VERTEX
  8
fork
 10
0.0
 20
0.0
 30
0.0
 70
   128
 71
   88
 72
   86
 73
   38
  0
VERTEX
  8
fork
 10
0.0
 20
0.0
 30
0.0
 70
   128
 71
   88
 72
   38
 73
   9
  0
VERTEX
  8
fork
 10
0.0
 20
0.0
 30
0.0
 70
   128
 71
   9
 72
   28
 73
   29
  0
VERTEX
  8
fork
 10
0.0
 20
0.0
 30
0.0
 70
   128
 71
   15
 72
   10
 73
   42
  0
VERTEX
  8
fork
 10
0.0
 20
0.0
 30
0.0
 70
   128
 71
   52
 72
   55
 73
   57
  0
VERTEX
  8
fork
 10
0.0
 20
0.0
 30
0.0
 70
   128
 71
   39
 72
   81
 73
   45
  0
VERTEX
  8
fork
 10
0.0
 20
0.0
 30
0.0
 70
   128
 71
   22
 72
   5
 73
   57
  0
VERTEX
  8
fork
 10
0.0
 20
0.0
 30
0.0
 70
   128
 71
   5
 72
   22
 73
   21
  0
VERTEX
  8
fork
 10
0.0
 20
0.0
 30
0.0
 70
   128
 71
   21
 72
   7
 73
   6
  0
VERTEX
  8
fork
 10
0.0
 20
0.0
 30
0.0
 70
   128
 71
   31
 72
   12
 73
   13
  0
VERTEX
  8
fork
 10
0.0
 20
0.0
 30
0.0
 70
   128
 71
   58
 72
   11
 73
   14
  0
VERTEX
  8
fork
 10
0.0
 20
0.0
 30
0.0
 70
   128
 71
   11
 72
   12
 73
   31
  0
VERTEX
  8
fork
 10
0.0
 20
0.0
 30
0.0
 70
   128
 71
   53
 72
   58
 73
   56
  0
VERTEX
  8
fork
 10
0.0
 20
0.0
 30
0.0
 70
   128
 71
   47
 72
   52
 73
   51
  0
VERTEX
  8
fork
 10
0.0
 20
0.0
 30
0.0
 70
   128
 71
   55
 72
   52
 73
   54
  0
VERTEX
  8
fork
 10
0.0
 20
0.0
 30
0.0
 70
   128
 71
   48
 72
   53
 73
   54
  0
VERTEX
  8
fork
 10
0.0
 20
0.0
 30
0.0
 70
   128
 71
   57
 72
   5
 73
   11
  0
VERTEX
  8
fork
 10
0.0
 20
0.0
 30
0.0
 70
   128
 71
   87
 72
   83
 73
   46
  0
VERTEX
  8
fork
 10
0.0
 20
0.0
 30
0.0
 70
   128
 71
   66
 72
   76
 73
   86
  0
VERTEX
  8
fork
 10
0.0
 20
0.0
 30
0.0
 70
   128
 71
   62
 72
   70
 73
   76
  0
VERTEX
  8
fork
 10
0.0
 20
0.0
 30
0.0
 70
   128
 71
   71
 72
   86
 73
   88
  0
VERTEX
  8
fork
 10
0.0
 20
0.0
 30
0.0
 70
   128
 71
   77
 72
   78
 73
   68
  0
VERTEX
  8
fork
 10
0.0
 20
0.0
 30
0.0
 70
   128
 71
   87
 72
   77
 73
   72
  0
VERTEX
  8
fork
 10
0.0
 20
0.0
 30
0.0
 70
   128
 71
   78
 72
   65
 73
   67
  0
VERTEX
  8
fork
 10
0.0
 20
0.0
 30
0.0
 70
   128
 71
   69
 72
   80
 73
   79
  0
VERTEX
  8
fork
 10
0.0
 20
0.0
 30
0.0
 70
   128
 71
   73
 72
   79
 73
   60
  0
VERTEX
  8
fork
 10
0.0
 20
0.0
 30
0.0
 70
   128
 71
   45
 72
   85
 73
   59
  0
VERTEX
  8
fork
 10
0.0
 20
0.0
 30
0.0
 70
   128
 71
   45
 72
   81
 73
   74
  0
VERTEX
  8
fork
 10
0.0
 20
0.0
 30
0.0
 70
   128
 71
   61
 72
   63
 73
   80
  0
VERTEX
  8
fork
 10
0.0
 20
0.0
 30
0.0
 70
   128
 71
   81
 72
   82
 73
   84
  0
VERTEX
  8
fork
 10
0.0
 20
0.0
 30
0.0
 70
   128
 71
   82
 72
   75
 73
   64
  0
VERTEX
  8
fork
 10
0.0
 20
0.0
 30
0.0
 70
   128
 71
   1
 72
   34
 73
   27
  0
VERTEX
  8
fork
 10
0.0
 20
0.0
 30
0.0
 70
   128
 71
   2
 72
   28
 73
   9
  0
VERTEX
  8
fork
 10
0.0
 20
0.0
 30
0.0
 70
   128
 71
   3
 72
   29
 73
   28
  0
VERTEX
  8
fork
 10
0.0
 20
0.0
 30
0.0
 70
   128
 71
   19
 72
   10
 73
   29
  0
VERTEX
  8
fork
 10
0.0
 20
0.0
 30
0.0
 70
   128
 71
   4
 72
   42
 73
   10
  0
VERTEX
  8
fork
 10
0.0
 20
0.0
 30
0.0
 70
   128
 71
   5
 72
   12
 73
   11
  0
VERTEX
  8
fork
 10
0.0
 20
0.0
 30
0.0
 70
   128
 71
   20
 72
   13
 73
   12
  0
VERTEX
  8
fork
 10
0.0
 20
0.0
 30
0.0
 70
   128
 71
   6
 72
   30
 73
   13
  0
VERTEX
  8
fork
 10
0.0
 20
0.0
 30
0.0
 70
   128
 71
   7
 72
   31
 73
   30
  0
VERTEX
  8
fork
 10
0.0
 20
0.0
 30
0.0
 70
   128
 71
   21
 72
   14
 73
   31
  0
VERTEX
  8
fork
 10
0.0
 20
0.0
 30
0.0
 70
   128
 71
   22
 72
   56
 73
   14
  0
VERTEX
  8
fork
 10
0.0
 20
0.0
 30
0.0
 70
   128
 71
   23
 72
   16
 73
   15
  0
VERTEX
  8
fork
 10
0.0
 20
0.0
 30
0.0
 70
   128
 71
   24
 72
   32
 73
   16
  0
VERTEX
  8
fork
 10
0.0
 20
0.0
 30
0.0
 70
   128
 71
   25
 72
   17
 73
   32
  0
VERTEX
  8
fork
 10
0.0
 20
0.0
 30
0.0
 70
   128
 71
   8
 72
   39
 73
   17
  0
VERTEX
  8
fork
 10
0.0
 20
0.0
 30
0.0
 70
   128
 71
   61
 72
   65
 73
   63
  0
VERTEX
  8
fork
 10
0.0
 20
0.0
 30
0.0
 70
   128
 71
   75
 72
   26
 73
   64
  0
VERTEX
  8
fork
 10
0.0
 20
0.0
 30
0.0
 70
   128
 71
   62
 72
   27
 73
   70
  0
VERTEX
  8
fork
 10
0.0
 20
0.0
 30
0.0
 70
   128
 71
   33
 72
   64
 73
   26
  0
VERTEX
  8
fork
 10
0.0
 20
0.0
 30
0.0
 70
   128
 71
   69
 72
   67
 73
   61
  0
VERTEX
  8
fork
 10
0.0
 20
0.0
 30
0.0
 70
   128
 71
   62
 72
   35
 73
   1
  0
VERTEX
  8
fork
 10
0.0
 20
0.0
 30
0.0
 70
   128
 71
   35
 72
   38
 73
   34
  0
VERTEX
  8
fork
 10
0.0
 20
0.0
 30
0.0
 70
   128
 71
   33
 72
   18
 73
   36
  0
VERTEX
  8
fork
 10
0.0
 20
0.0
 30
0.0
 70
   128
 71
   40
 72
   36
 73
   39
  0
VERTEX
  8
fork
 10
0.0
 20
0.0
 30
0.0
 70
   128
 71
   37
 72
   9
 73
   38
  0
VERTEX
  8
fork
 10
0.0
 20
0.0
 30
0.0
 70
   128
 71
   73
 72
   68
 73
   69
  0
VERTEX
  8
fork
 10
0.0
 20
0.0
 30
0.0
 70
   128
 71
   40
 72
   84
 73
   33
  0
VERTEX
  8
fork
 10
0.0
 20
0.0
 30
0.0
 70
   128
 71
   35
 72
   71
 73
   37
  0
VERTEX
  8
fork
 10
0.0
 20
0.0
 30
0.0
 70
   128
 71
   44
 72
   49
 73
   41
  0
VERTEX
  8
fork
 10
0.0
 20
0.0
 30
0.0
 70
   128
 71
   47
 72
   43
 73
   50
  0
VERTEX
  8
fork
 10
0.0
 20
0.0
 30
0.0
 70
   128
 71
   49
 72
   53
 73
   48
  0
VERTEX
  8
fork
 10
0.0
 20
0.0
 30
0.0
 70
   128
 71
   41
 72
   48
 73
   42
  0
VERTEX
  8
fork
 10
0.0
 20
0.0
 30
0.0
 70
   128
 71
   44
 72
   15
 73
   43
  0
VERTEX
  8
fork
 10
0.0
 20
0.0
 30
0.0
 70
   128
 71
   79
 72
   78
 73
   77
  0
VERTEX
  8
fork
 10
0.0
 20
0.0
 30
0.0
 70
   128
 71
   38
 72
   76
 73
   34
  0
VERTEX
  8
fork
 10
0.0
 20
0.0
 30
0.0
 70
   128
 71
   36
 72
   81
 73
   39
  0
VERTEX
  8
fork
 10
0.0
 20
0.0
 30
0.0
 70
   128
 71
   59
 72
   8
 73
   23
  0
VERTEX
  8
fork
 10
0.0
 20
0.0
 30
0.0
 70
   128
 71
   78
 72
   63
 73
   65
  0
VERTEX
  8
fork
 10
0.0
 20
0.0
 30
0.0
 70
   128
 71
   34
 72
   70
 73
   27
  0
VERTEX
  8
fork
 10
0.0
 20
0.0
 30
0.0
 70
   128
 71
   18
 72
   82
 73
   36
  0
VERTEX
  8
fork
 10
0.0
 20
0.0
 30
0.0
 70
   128
 71
   83
 72
   73
 73
   59
  0
VERTEX
  8
fork
 10
0.0
 20
0.0
 30
0.0
 70
   128
 71
   85
 72
   40
 73
   8
  0
VERTEX
  8
fork
 10
0.0
 20
0.0
 30
0.0
 70
   128
 71
   8
 72
   24
 73
   23
  0
VERTEX
  8
fork
 10
0.0
 20
0.0
 30
0.0
 70
   128
 71
   59
 72
   4
 73
   83
  0
VERTEX
  8
fork
 10
0.0
 20
0.0
 30
0.0
 70
   128
 71
   23
 72
   41
 73
   4
  0
VERTEX
  8
fork
 10
0.0
 20
0.0
 30
0.0
 70
   128
 71
   83
 72
   19
 73
   46
  0
VERTEX
  8
fork
 10
0.0
 20
0.0
 30
0.0
 70
   128
 71
   46
 72
   2
 73
   37
  0
VERTEX
  8
fork
 10
0.0
 20
0.0
 30
0.0
 70
   128
 71
   17
 72
   60
 73
   15
  0
VERTEX
  8
fork
 10
0.0
 20
0.0
 30
0.0
 70
   128
 71
   52
 72
   50
 73
   54
  0
VERTEX
  8
fork
 10
0.0
 20
0.0
 30
0.0
 70
   128
 71
   87
 72
   79
 73
   77
  0
VERTEX
  8
fork
 10
0.0
 20
0.0
 30
0.0
 70
   128
 71
   42
 72
   50
 73
   43
  0
VERTEX
  8
fork
 10
0.0
 20
0.0
 30
0.0
 70
   128
 71
   51
 72
   58
 73
   53
  0
VERTEX
  8
fork
 10
0.0
 20
0.0
 30
0.0
 70
   128
 71
   17
 72
   16
 73
   32
  0
VERTEX
  8
fork
 10
0.0
 20
0.0
 30
0.0
 70
   128
 71
   60
 72
   10
 73
   15
  0
VERTEX
  8
fork
 10
0.0
 20
0.0
 30
0.0
 70
   128
 71
   87
 72
   29
 73
   10
  0
VERTEX
  8
fork
 10
0.0
 20
0.0
 30
0.0
 70
   128
 71
   88
 72
   9
 73
   29
  0
VERTEX
  8
fork
 10
0.0
 20
0.0
 30
0.0
 70
   128
 71
   15
 72
   42
 73
   43
  0
VERTEX
  8
fork
 10
0.0
 20
0.0
 30
0.0
 70
   128
 71
   52
 72
   57
 73
   51
  0
VERTEX
  8
fork
 10
0.0
 20
0.0
 30
0.0
 70
   128
 71
   39
 72
   45
 73
   17
  0
VERTEX
  8
fork
 10
0.0
 20
0.0
 30
0.0
 70
   128
 71
   22
 72
   57
 73
   55
  0
VERTEX
  8
fork
 10
0.0
 20
0.0
 30
0.0
 70
   128
 71
   5
 72
   21
 73
   20
  0
VERTEX
  8
fork
 10
0.0
 20
0.0
 30
0.0
 70
   128
 71
   21
 72
   6
 73
   20
  0
VERTEX
  8
fork
 10
0.0
 20
0.0
 30
0.0
 70
   128
 71
   31
 72
   13
 73
   30
  0
VERTEX
  8
fork
 10
0.0
 20
0.0
 30
0.0
 70
   128
 71
   58
 72
   14
 73
   56
  0
VERTEX
  8
fork
 10
0.0
 20
0.0
 30
0.0
 70
   128
 71
   11
 72
   31
 73
   14
  0
VERTEX
  8
fork
 10
0.0
 20
0.0
 30
0.0
 70
   128
 71
   53
 72
   56
 73
   54
  0
VERTEX
  8
fork
 10
0.0
 20
0.0
 30
0.0
 70
   128
 71
   47
 72
   51
 73
   49
  0
VERTEX
  8
fork
 10
0.0
 20
0.0
 30
0.0
 70
   128
 71
   55
 72
   54
 73
   56
  0
VERTEX
  8
fork
 10
0.0
 20
0.0
 30
0.0
 70
   128
 71
   48
 72
   54
 73
   50
  0
VERTEX
  8
fork
 10
0.0
 20
0.0
 30
0.0
 70
   128
 71
   57
 72
   11
 73
   58
  0
VERTEX
  8
fork
 10
0.0
 20
0.0
 30
0.0
 70
   128
 71
   87
 72
   46
 73
   88
  0
VERTEX
  8
fork
 10
0.0
 20
0.0
 30
0.0
 70
   128
 71
   66
 72
   86
 73
   71
  0
VERTEX
  8
fork
 10
0.0
 20
0.0
 30
0.0
 70
   128
 71
   62
 72
   76
 73
   66
  0
VERTEX
  8
fork
 10
0.0
 20
0.0
 30
0.0
 70
   128
 71
   71
 72
   88
 73
   46
  0
VERTEX
  8
fork
 10
0.0
 20
0.0
 30
0.0
 70
   128
 71
   77
 72
   68
 73
   72
  0
VERTEX
  8
fork
 10
0.0
 20
0.0
 30
0.0
 70
   128
 71
   87
 72
   72
 73
   83
  0
VERTEX
  8
fork
 10
0.0
 20
0.0
 30
0.0
 70
   128
 71
   78
 72
   67
 73
   68
  0
VERTEX
  8
fork
 10
0.0
 20
0.0
 30
0.0
 70
   128
 71
   69
 72
   79
 73
   73
  0
VERTEX
  8
fork
 10
0.0
 20
0.0
 30
0.0
 70
   128
 71
   73
 72
   60
 73
   59
  0
VERTEX
  8
fork
 10
0.0
 20
0.0
 30
0.0
 70
   128
 71
   45
 72
   59
 73
   60
  0
VERTEX
  8
fork
 10
0.0
 20
0.0
 30
0.0
 70
   128
 71
   45
 72
   74
 73
   85
  0
VERTEX
  8
fork
 10
0.0
 20
0.0
 30
0.0
 70
   128
 71
   61
 72
   80
 73
   69
  0
VERTEX
  8
fork
 10
0.0
 20
0.0
 30
0.0
 70
   128
 71
   81
 72
   84
 73
   74
  0
VERTEX
  8
fork
 10
0.0
 20
0.0
 30
0.0
 70
   128
 71
   82
 72
   64
 73
   84
  0
SEQEND
  0
ENDSEC
  0
EOF
