999
FBX AutoCAD (*.DXF) exporter
  0
SECTION
  2
HEADER
  9
$ACADVER
  1
AC1008
  9
$UCSORG
 10
0.0
 20
0.0
 30
0.0
  9
$UCSXDIR
 10
1.0
 20
0.0
 30
0.0
  9
$TILEMODE
 70
   1
  9
$UCSYDIR
 10
0.0
 20
1.0
 30
0.0
  0
ENDSEC
  0
SECTION
  2
TABLES
  0
TABLE
  2
LTYPE
 70
   1
  0
LTYPE
  2
CONTINUOUS
 70
   64
  3
Solid line
 72
   65
 73
   0
 40
0.0
  0
ENDTAB
  0
TABLE
  2
LAYER
 70
   3
  0
LAYER
  2
nugget
 70
   0
 62
   250
  6
CONTINUOUS
  0
LAYER
  2
bag
 70
   0
 62
   250
  6
CONTINUOUS
  0
ENDTAB
  0
ENDSEC
  0
SECTION
  2
BLOCKS
  0
ENDSEC
  0
SECTION
  2
ENTITIES
  0
POLYLINE
  8
nugget
 66
   1
 10
0.0
 20
0.0
 30
0.0
 70
   64
 71
   50
 72
   97
  0
VERTEX
  8
nugget
 10
-25.142083
 20
97.684862
 30
20.881939
 70
   192
  0
VERTEX
  8
nugget
 10
-8.500353
 20
148.598418
 30
-14.999704
 70
   192
  0
VERTEX
  8
nugget
 10
42.637144
 20
115.202892
 30
-28.311741
 70
   192
  0
VERTEX
  8
nugget
 10
13.522057
 20
86.196965
 30
-18.304870
 70
   192
  0
VERTEX
  8
nugget
 10
21.655555
 20
103.995851
 30
11.414788
 70
   192
  0
VERTEX
  8
nugget
 10
-8.464453
 20
139.834463
 30
-37.842356
 70
   192
  0
VERTEX
  8
nugget
 10
13.461292
 20
140.089487
 30
-37.905741
 70
   192
  0
VERTEX
  8
nugget
 10
-7.655583
 20
86.196965
 30
-0.932000
 70
   192
  0
VERTEX
  8
nugget
 10
13.425392
 20
148.853441
 30
-15.063089
 70
   192
  0
VERTEX
  8
nugget
 10
41.218090
 20
99.505394
 30
-22.291371
 70
   192
  0
VERTEX
  8
nugget
 10
30.564803
 20
86.196965
 30
-13.978343
 70
   192
  0
VERTEX
  8
nugget
 10
-7.115601
 20
86.196965
 30
-20.011317
 70
   192
  0
VERTEX
  8
nugget
 10
-26.690982
 20
127.541834
 30
0.570349
 70
   192
  0
VERTEX
  8
nugget
 10
-20.616749
 20
116.997439
 30
34.778540
 70
   192
  0
VERTEX
  8
nugget
 10
-28.413553
 20
130.532084
 30
20.961064
 70
   192
  0
VERTEX
  8
nugget
 10
-31.334712
 20
86.196965
 30
-19.289844
 70
   192
  0
VERTEX
  8
nugget
 10
-30.257960
 20
86.196965
 30
20.360304
 70
   192
  0
VERTEX
  8
nugget
 10
-41.816910
 20
104.784818
 30
34.778540
 70
   192
  0
VERTEX
  8
nugget
 10
-13.884535
 20
139.963151
 30
17.437217
 70
   192
  0
VERTEX
  8
nugget
 10
-35.910479
 20
143.546166
 30
2.337510
 70
   192
  0
VERTEX
  8
nugget
 10
-30.212815
 20
133.655463
 30
-14.483765
 70
   192
  0
VERTEX
  8
nugget
 10
16.949151
 20
131.399221
 30
-4.253358
 70
   192
  0
VERTEX
  8
nugget
 10
-10.262360
 20
107.452201
 30
37.801682
 70
   192
  0
VERTEX
  8
nugget
 10
-49.613714
 20
118.319463
 30
20.961064
 70
   192
  0
VERTEX
  8
nugget
 10
-57.110640
 20
131.333545
 30
2.337510
 70
   192
  0
VERTEX
  8
nugget
 10
-51.412976
 20
121.442842
 30
-14.483765
 70
   192
  0
VERTEX
  8
nugget
 10
30.546155
 20
86.196965
 30
-0.760183
 70
   192
  0
VERTEX
  8
nugget
 10
1.120869
 20
132.580051
 30
9.219834
 70
   192
  0
VERTEX
  8
nugget
 10
14.038009
 20
129.060995
 30
-7.468432
 70
   192
  0
VERTEX
  8
nugget
 10
-17.168264
 20
111.011136
 30
28.146345
 70
   192
  0
VERTEX
  8
nugget
 10
42.569737
 20
123.618310
 30
-5.335417
 70
   192
  0
VERTEX
  8
nugget
 10
21.113843
 20
109.146315
 30
0.183279
 70
   192
  0
VERTEX
  8
nugget
 10
-27.531899
 20
129.001601
 30
2.365020
 70
   192
  0
VERTEX
  8
nugget
 10
29.939112
 20
127.194961
 30
-6.727508
 70
   192
  0
VERTEX
  8
nugget
 10
53.824299
 20
123.359920
 30
1.816990
 70
   192
  0
VERTEX
  8
nugget
 10
42.078765
 20
86.196965
 30
-9.686095
 70
   192
  0
VERTEX
  8
nugget
 10
23.457656
 20
115.424644
 30
36.333684
 70
   192
  0
VERTEX
  8
nugget
 10
30.467023
 20
130.470563
 30
0.244933
 70
   192
  0
VERTEX
  8
nugget
 10
46.814932
 20
108.314001
 30
37.905741
 70
   192
  0
VERTEX
  8
nugget
 10
51.159442
 20
120.868733
 30
30.142852
 70
   192
  0
VERTEX
  8
nugget
 10
57.110640
 20
136.892144
 30
14.197481
 70
   192
  0
VERTEX
  8
nugget
 10
52.400903
 20
114.527983
 30
-16.982654
 70
   192
  0
VERTEX
  8
nugget
 10
36.006964
 20
86.196965
 30
2.303468
 70
   192
  0
VERTEX
  8
nugget
 10
36.127307
 20
86.196965
 30
22.054882
 70
   192
  0
VERTEX
  8
nugget
 10
27.802166
 20
127.979376
 30
28.570795
 70
   192
  0
VERTEX
  8
nugget
 10
33.753365
 20
144.002787
 30
12.625424
 70
   192
  0
VERTEX
  8
nugget
 10
-13.346912
 20
120.834509
 30
30.862095
 70
   192
  0
VERTEX
  8
nugget
 10
24.316883
 20
111.067993
 30
3.861692
 70
   192
  0
VERTEX
  8
nugget
 10
16.263262
 20
86.196965
 30
23.194659
 70
   192
  0
VERTEX
  8
nugget
 10
-19.828266
 20
115.628692
 30
23.704066
 70
   192
  0
VERTEX
  8
nugget
 10
0.0
 20
0.0
 30
0.0
 70
   128
 71
   23
 72
   5
 73
   49
  0
VERTEX
  8
nugget
 10
0.0
 20
0.0
 30
0.0
 70
   128
 71
   39
 72
   44
 73
   49
  0
VERTEX
  8
nugget
 10
0.0
 20
0.0
 30
0.0
 70
   128
 71
   27
 72
   8
 73
   43
  0
VERTEX
  8
nugget
 10
0.0
 20
0.0
 30
0.0
 70
   128
 71
   10
 72
   11
 73
   27
  0
VERTEX
  8
nugget
 10
0.0
 20
0.0
 30
0.0
 70
   128
 71
   11
 72
   4
 73
   8
  0
VERTEX
  8
nugget
 10
0.0
 20
0.0
 30
0.0
 70
   128
 71
   28
 72
   47
 73
   19
  0
VERTEX
  8
nugget
 10
0.0
 20
0.0
 30
0.0
 70
   128
 71
   47
 72
   28
 73
   5
  0
VERTEX
  8
nugget
 10
0.0
 20
0.0
 30
0.0
 70
   128
 71
   4
 72
   12
 73
   8
  0
VERTEX
  8
nugget
 10
0.0
 20
0.0
 30
0.0
 70
   128
 71
   38
 72
   46
 73
   45
  0
VERTEX
  8
nugget
 10
0.0
 20
0.0
 30
0.0
 70
   128
 71
   50
 72
   33
 73
   19
  0
VERTEX
  8
nugget
 10
0.0
 20
0.0
 30
0.0
 70
   128
 71
   5
 72
   45
 73
   37
  0
VERTEX
  8
nugget
 10
0.0
 20
0.0
 30
0.0
 70
   128
 71
   49
 72
   44
 73
   43
  0
VERTEX
  8
nugget
 10
0.0
 20
0.0
 30
0.0
 70
   128
 71
   22
 72
   29
 73
   34
  0
VERTEX
  8
nugget
 10
0.0
 20
0.0
 30
0.0
 70
   128
 71
   34
 72
   32
 73
   48
  0
VERTEX
  8
nugget
 10
0.0
 20
0.0
 30
0.0
 70
   128
 71
   8
 72
   12
 73
   6
  0
VERTEX
  8
nugget
 10
0.0
 20
0.0
 30
0.0
 70
   128
 71
   2
 72
   6
 73
   7
  0
VERTEX
  8
nugget
 10
0.0
 20
0.0
 30
0.0
 70
   128
 71
   9
 72
   7
 73
   3
  0
VERTEX
  8
nugget
 10
0.0
 20
0.0
 30
0.0
 70
   128
 71
   2
 72
   9
 73
   29
  0
VERTEX
  8
nugget
 10
0.0
 20
0.0
 30
0.0
 70
   128
 71
   9
 72
   31
 73
   34
  0
VERTEX
  8
nugget
 10
0.0
 20
0.0
 30
0.0
 70
   128
 71
   29
 72
   9
 73
   34
  0
VERTEX
  8
nugget
 10
0.0
 20
0.0
 30
0.0
 70
   128
 71
   34
 72
   48
 73
   22
  0
VERTEX
  8
nugget
 10
0.0
 20
0.0
 30
0.0
 70
   128
 71
   29
 72
   22
 73
   28
  0
VERTEX
  8
nugget
 10
0.0
 20
0.0
 30
0.0
 70
   128
 71
   36
 72
   35
 73
   42
  0
VERTEX
  8
nugget
 10
0.0
 20
0.0
 30
0.0
 70
   128
 71
   13
 72
   8
 73
   28
  0
VERTEX
  8
nugget
 10
0.0
 20
0.0
 30
0.0
 70
   128
 71
   13
 72
   19
 73
   33
  0
VERTEX
  8
nugget
 10
0.0
 20
0.0
 30
0.0
 70
   128
 71
   10
 72
   3
 73
   4
  0
VERTEX
  8
nugget
 10
0.0
 20
0.0
 30
0.0
 70
   128
 71
   7
 72
   6
 73
   12
  0
VERTEX
  8
nugget
 10
0.0
 20
0.0
 30
0.0
 70
   128
 71
   3
 72
   7
 73
   12
  0
VERTEX
  8
nugget
 10
0.0
 20
0.0
 30
0.0
 70
   128
 71
   36
 72
   43
 73
   44
  0
VERTEX
  8
nugget
 10
0.0
 20
0.0
 30
0.0
 70
   128
 71
   40
 72
   41
 73
   35
  0
VERTEX
  8
nugget
 10
0.0
 20
0.0
 30
0.0
 70
   128
 71
   30
 72
   50
 73
   47
  0
VERTEX
  8
nugget
 10
0.0
 20
0.0
 30
0.0
 70
   128
 71
   17
 72
   18
 73
   1
  0
VERTEX
  8
nugget
 10
0.0
 20
0.0
 30
0.0
 70
   128
 71
   26
 72
   24
 73
   17
  0
VERTEX
  8
nugget
 10
0.0
 20
0.0
 30
0.0
 70
   128
 71
   48
 72
   38
 73
   45
  0
VERTEX
  8
nugget
 10
0.0
 20
0.0
 30
0.0
 70
   128
 71
   24
 72
   18
 73
   17
  0
VERTEX
  8
nugget
 10
0.0
 20
0.0
 30
0.0
 70
   128
 71
   28
 72
   22
 73
   48
  0
VERTEX
  8
nugget
 10
0.0
 20
0.0
 30
0.0
 70
   128
 71
   14
 72
   15
 73
   50
  0
VERTEX
  8
nugget
 10
0.0
 20
0.0
 30
0.0
 70
   128
 71
   35
 72
   36
 73
   44
  0
VERTEX
  8
nugget
 10
0.0
 20
0.0
 30
0.0
 70
   128
 71
   8
 72
   12
 73
   16
  0
VERTEX
  8
nugget
 10
0.0
 20
0.0
 30
0.0
 70
   128
 71
   15
 72
   20
 73
   33
  0
VERTEX
  8
nugget
 10
0.0
 20
0.0
 30
0.0
 70
   128
 71
   8
 72
   16
 73
   17
  0
VERTEX
  8
nugget
 10
0.0
 20
0.0
 30
0.0
 70
   128
 71
   18
 72
   14
 73
   30
  0
VERTEX
  8
nugget
 10
0.0
 20
0.0
 30
0.0
 70
   128
 71
   33
 72
   20
 73
   21
  0
VERTEX
  8
nugget
 10
0.0
 20
0.0
 30
0.0
 70
   128
 71
   13
 72
   21
 73
   12
  0
VERTEX
  8
nugget
 10
0.0
 20
0.0
 30
0.0
 70
   128
 71
   14
 72
   18
 73
   24
  0
VERTEX
  8
nugget
 10
0.0
 20
0.0
 30
0.0
 70
   128
 71
   15
 72
   24
 73
   25
  0
VERTEX
  8
nugget
 10
0.0
 20
0.0
 30
0.0
 70
   128
 71
   20
 72
   25
 73
   26
  0
VERTEX
  8
nugget
 10
0.0
 20
0.0
 30
0.0
 70
   128
 71
   21
 72
   26
 73
   16
  0
VERTEX
  8
nugget
 10
0.0
 20
0.0
 30
0.0
 70
   128
 71
   44
 72
   39
 73
   40
  0
VERTEX
  8
nugget
 10
0.0
 20
0.0
 30
0.0
 70
   128
 71
   26
 72
   25
 73
   24
  0
VERTEX
  8
nugget
 10
0.0
 20
0.0
 30
0.0
 70
   128
 71
   30
 72
   23
 73
   1
  0
VERTEX
  8
nugget
 10
0.0
 20
0.0
 30
0.0
 70
   128
 71
   30
 72
   14
 73
   50
  0
VERTEX
  8
nugget
 10
0.0
 20
0.0
 30
0.0
 70
   128
 71
   31
 72
   35
 73
   38
  0
VERTEX
  8
nugget
 10
0.0
 20
0.0
 30
0.0
 70
   128
 71
   10
 72
   36
 73
   42
  0
VERTEX
  8
nugget
 10
0.0
 20
0.0
 30
0.0
 70
   128
 71
   27
 72
   43
 73
   36
  0
VERTEX
  8
nugget
 10
0.0
 20
0.0
 30
0.0
 70
   128
 71
   49
 72
   8
 73
   1
  0
VERTEX
  8
nugget
 10
0.0
 20
0.0
 30
0.0
 70
   128
 71
   39
 72
   37
 73
   45
  0
VERTEX
  8
nugget
 10
0.0
 20
0.0
 30
0.0
 70
   128
 71
   40
 72
   45
 73
   46
  0
VERTEX
  8
nugget
 10
0.0
 20
0.0
 30
0.0
 70
   128
 71
   41
 72
   46
 73
   38
  0
VERTEX
  8
nugget
 10
0.0
 20
0.0
 30
0.0
 70
   128
 71
   31
 72
   3
 73
   42
  0
VERTEX
  8
nugget
 10
0.0
 20
0.0
 30
0.0
 70
   128
 71
   38
 72
   48
 73
   34
  0
VERTEX
  8
nugget
 10
0.0
 20
0.0
 30
0.0
 70
   128
 71
   39
 72
   49
 73
   37
  0
VERTEX
  8
nugget
 10
0.0
 20
0.0
 30
0.0
 70
   128
 71
   11
 72
   8
 73
   27
  0
VERTEX
  8
nugget
 10
0.0
 20
0.0
 30
0.0
 70
   128
 71
   47
 72
   5
 73
   23
  0
VERTEX
  8
nugget
 10
0.0
 20
0.0
 30
0.0
 70
   128
 71
   50
 72
   19
 73
   47
  0
VERTEX
  8
nugget
 10
0.0
 20
0.0
 30
0.0
 70
   128
 71
   5
 72
   37
 73
   49
  0
VERTEX
  8
nugget
 10
0.0
 20
0.0
 30
0.0
 70
   128
 71
   49
 72
   43
 73
   8
  0
VERTEX
  8
nugget
 10
0.0
 20
0.0
 30
0.0
 70
   128
 71
   8
 72
   6
 73
   2
  0
VERTEX
  8
nugget
 10
0.0
 20
0.0
 30
0.0
 70
   128
 71
   2
 72
   7
 73
   9
  0
VERTEX
  8
nugget
 10
0.0
 20
0.0
 30
0.0
 70
   128
 71
   9
 72
   3
 73
   31
  0
VERTEX
  8
nugget
 10
0.0
 20
0.0
 30
0.0
 70
   128
 71
   2
 72
   29
 73
   8
  0
VERTEX
  8
nugget
 10
0.0
 20
0.0
 30
0.0
 70
   128
 71
   29
 72
   28
 73
   8
  0
VERTEX
  8
nugget
 10
0.0
 20
0.0
 30
0.0
 70
   128
 71
   13
 72
   28
 73
   19
  0
VERTEX
  8
nugget
 10
0.0
 20
0.0
 30
0.0
 70
   128
 71
   10
 72
   4
 73
   11
  0
VERTEX
  8
nugget
 10
0.0
 20
0.0
 30
0.0
 70
   128
 71
   3
 72
   12
 73
   4
  0
VERTEX
  8
nugget
 10
0.0
 20
0.0
 30
0.0
 70
   128
 71
   30
 72
   47
 73
   23
  0
VERTEX
  8
nugget
 10
0.0
 20
0.0
 30
0.0
 70
   128
 71
   26
 72
   17
 73
   16
  0
VERTEX
  8
nugget
 10
0.0
 20
0.0
 30
0.0
 70
   128
 71
   48
 72
   45
 73
   5
  0
VERTEX
  8
nugget
 10
0.0
 20
0.0
 30
0.0
 70
   128
 71
   28
 72
   48
 73
   5
  0
VERTEX
  8
nugget
 10
0.0
 20
0.0
 30
0.0
 70
   128
 71
   35
 72
   44
 73
   40
  0
VERTEX
  8
nugget
 10
0.0
 20
0.0
 30
0.0
 70
   128
 71
   15
 72
   33
 73
   50
  0
VERTEX
  8
nugget
 10
0.0
 20
0.0
 30
0.0
 70
   128
 71
   8
 72
   17
 73
   1
  0
VERTEX
  8
nugget
 10
0.0
 20
0.0
 30
0.0
 70
   128
 71
   18
 72
   30
 73
   1
  0
VERTEX
  8
nugget
 10
0.0
 20
0.0
 30
0.0
 70
   128
 71
   33
 72
   21
 73
   13
  0
VERTEX
  8
nugget
 10
0.0
 20
0.0
 30
0.0
 70
   128
 71
   13
 72
   12
 73
   8
  0
VERTEX
  8
nugget
 10
0.0
 20
0.0
 30
0.0
 70
   128
 71
   14
 72
   24
 73
   15
  0
VERTEX
  8
nugget
 10
0.0
 20
0.0
 30
0.0
 70
   128
 71
   15
 72
   25
 73
   20
  0
VERTEX
  8
nugget
 10
0.0
 20
0.0
 30
0.0
 70
   128
 71
   20
 72
   26
 73
   21
  0
VERTEX
  8
nugget
 10
0.0
 20
0.0
 30
0.0
 70
   128
 71
   21
 72
   16
 73
   12
  0
VERTEX
  8
nugget
 10
0.0
 20
0.0
 30
0.0
 70
   128
 71
   31
 72
   38
 73
   34
  0
VERTEX
  8
nugget
 10
0.0
 20
0.0
 30
0.0
 70
   128
 71
   10
 72
   42
 73
   3
  0
VERTEX
  8
nugget
 10
0.0
 20
0.0
 30
0.0
 70
   128
 71
   27
 72
   36
 73
   10
  0
VERTEX
  8
nugget
 10
0.0
 20
0.0
 30
0.0
 70
   128
 71
   49
 72
   1
 73
   23
  0
VERTEX
  8
nugget
 10
0.0
 20
0.0
 30
0.0
 70
   128
 71
   39
 72
   45
 73
   40
  0
VERTEX
  8
nugget
 10
0.0
 20
0.0
 30
0.0
 70
   128
 71
   40
 72
   46
 73
   41
  0
VERTEX
  8
nugget
 10
0.0
 20
0.0
 30
0.0
 70
   128
 71
   41
 72
   38
 73
   35
  0
VERTEX
  8
nugget
 10
0.0
 20
0.0
 30
0.0
 70
   128
 71
   31
 72
   42
 73
   35
  0
SEQEND
  0
POLYLINE
  8
bag
 66
   1
 10
0.0
 20
0.0
 30
0.0
 70
   64
 71
   32
 72
   60
  0
VERTEX
  8
bag
 10
-40.139385
 20
0.000000
 30
24.932432
 70
   192
  0
VERTEX
  8
bag
 10
-50.764918
 20
109.932142
 30
36.850159
 70
   192
  0
VERTEX
  8
bag
 10
40.139385
 20
0.000000
 30
24.932432
 70
   192
  0
VERTEX
  8
bag
 10
50.764918
 20
109.932142
 30
36.850159
 70
   192
  0
VERTEX
  8
bag
 10
40.139385
 20
0.000000
 30
-24.932432
 70
   192
  0
VERTEX
  8
bag
 10
50.764918
 20
113.835413
 30
-34.835104
 70
   192
  0
VERTEX
  8
bag
 10
-40.139385
 20
0.000000
 30
-24.932432
 70
   192
  0
VERTEX
  8
bag
 10
-50.764918
 20
113.835413
 30
-34.835104
 70
   192
  0
VERTEX
  8
bag
 10
-43.315017
 20
110.100996
 30
28.938585
 70
   192
  0
VERTEX
  8
bag
 10
43.252277
 20
110.357015
 30
28.938585
 70
   192
  0
VERTEX
  8
bag
 10
43.660918
 20
113.561658
 30
-28.512413
 70
   192
  0
VERTEX
  8
bag
 10
-43.660918
 20
113.561658
 30
-28.512413
 70
   192
  0
VERTEX
  8
bag
 10
-34.522313
 20
95.408602
 30
22.747776
 70
   192
  0
VERTEX
  8
bag
 10
34.522313
 20
95.408602
 30
22.747776
 70
   192
  0
VERTEX
  8
bag
 10
34.522313
 20
95.408602
 30
-22.747776
 70
   192
  0
VERTEX
  8
bag
 10
-34.522313
 20
95.408602
 30
-22.747776
 70
   192
  0
VERTEX
  8
bag
 10
25.993902
 20
102.545887
 30
28.287839
 70
   192
  0
VERTEX
  8
bag
 10
11.159850
 20
98.439214
 30
35.597655
 70
   192
  0
VERTEX
  8
bag
 10
-28.243099
 20
119.292241
 30
-28.938585
 70
   192
  0
VERTEX
  8
bag
 10
11.159850
 20
127.715923
 30
-36.042585
 70
   192
  0
VERTEX
  8
bag
 10
11.159850
 20
98.439214
 30
27.963682
 70
   192
  0
VERTEX
  8
bag
 10
11.159850
 20
124.593021
 30
-29.343953
 70
   192
  0
VERTEX
  8
bag
 10
-28.243099
 20
122.415144
 30
-35.581464
 70
   192
  0
VERTEX
  8
bag
 10
25.993902
 20
122.415144
 30
-35.581464
 70
   192
  0
VERTEX
  8
bag
 10
-28.243099
 20
102.545887
 30
36.049416
 70
   192
  0
VERTEX
  8
bag
 10
-13.409047
 20
98.439214
 30
35.597655
 70
   192
  0
VERTEX
  8
bag
 10
-28.243099
 20
102.545887
 30
28.287839
 70
   192
  0
VERTEX
  8
bag
 10
-13.409047
 20
127.715923
 30
-36.042585
 70
   192
  0
VERTEX
  8
bag
 10
-13.409047
 20
98.439214
 30
27.963682
 70
   192
  0
VERTEX
  8
bag
 10
-13.409047
 20
124.593021
 30
-29.343953
 70
   192
  0
VERTEX
  8
bag
 10
25.993902
 20
102.545887
 30
36.049416
 70
   192
  0
VERTEX
  8
bag
 10
25.993902
 20
119.292241
 30
-28.938585
 70
   192
  0
VERTEX
  8
bag
 10
0.0
 20
0.0
 30
0.0
 70
   128
 71
   31
 72
   4
 73
   3
  0
VERTEX
  8
bag
 10
0.0
 20
0.0
 30
0.0
 70
   128
 71
   3
 72
   4
 73
   6
  0
VERTEX
  8
bag
 10
0.0
 20
0.0
 30
0.0
 70
   128
 71
   20
 72
   28
 73
   7
  0
VERTEX
  8
bag
 10
0.0
 20
0.0
 30
0.0
 70
   128
 71
   7
 72
   8
 73
   2
  0
VERTEX
  8
bag
 10
0.0
 20
0.0
 30
0.0
 70
   128
 71
   19
 72
   30
 73
   16
  0
VERTEX
  8
bag
 10
0.0
 20
0.0
 30
0.0
 70
   128
 71
   23
 72
   8
 73
   7
  0
VERTEX
  8
bag
 10
0.0
 20
0.0
 30
0.0
 70
   128
 71
   17
 72
   10
 73
   4
  0
VERTEX
  8
bag
 10
0.0
 20
0.0
 30
0.0
 70
   128
 71
   4
 72
   10
 73
   11
  0
VERTEX
  8
bag
 10
0.0
 20
0.0
 30
0.0
 70
   128
 71
   19
 72
   12
 73
   8
  0
VERTEX
  8
bag
 10
0.0
 20
0.0
 30
0.0
 70
   128
 71
   8
 72
   12
 73
   9
  0
VERTEX
  8
bag
 10
0.0
 20
0.0
 30
0.0
 70
   128
 71
   14
 72
   10
 73
   17
  0
VERTEX
  8
bag
 10
0.0
 20
0.0
 30
0.0
 70
   128
 71
   10
 72
   14
 73
   15
  0
VERTEX
  8
bag
 10
0.0
 20
0.0
 30
0.0
 70
   128
 71
   16
 72
   12
 73
   19
  0
VERTEX
  8
bag
 10
0.0
 20
0.0
 30
0.0
 70
   128
 71
   12
 72
   16
 73
   13
  0
VERTEX
  8
bag
 10
0.0
 20
0.0
 30
0.0
 70
   128
 71
   13
 72
   16
 73
   15
  0
VERTEX
  8
bag
 10
0.0
 20
0.0
 30
0.0
 70
   128
 71
   25
 72
   26
 73
   1
  0
VERTEX
  8
bag
 10
0.0
 20
0.0
 30
0.0
 70
   128
 71
   1
 72
   2
 73
   25
  0
VERTEX
  8
bag
 10
0.0
 20
0.0
 30
0.0
 70
   128
 71
   5
 72
   6
 73
   24
  0
VERTEX
  8
bag
 10
0.0
 20
0.0
 30
0.0
 70
   128
 71
   26
 72
   25
 73
   27
  0
VERTEX
  8
bag
 10
0.0
 20
0.0
 30
0.0
 70
   128
 71
   20
 72
   24
 73
   32
  0
VERTEX
  8
bag
 10
0.0
 20
0.0
 30
0.0
 70
   128
 71
   29
 72
   27
 73
   13
  0
VERTEX
  8
bag
 10
0.0
 20
0.0
 30
0.0
 70
   128
 71
   22
 72
   32
 73
   15
  0
VERTEX
  8
bag
 10
0.0
 20
0.0
 30
0.0
 70
   128
 71
   27
 72
   9
 73
   13
  0
VERTEX
  8
bag
 10
0.0
 20
0.0
 30
0.0
 70
   128
 71
   5
 72
   7
 73
   1
  0
VERTEX
  8
bag
 10
0.0
 20
0.0
 30
0.0
 70
   128
 71
   28
 72
   23
 73
   7
  0
VERTEX
  8
bag
 10
0.0
 20
0.0
 30
0.0
 70
   128
 71
   28
 72
   20
 73
   22
  0
VERTEX
  8
bag
 10
0.0
 20
0.0
 30
0.0
 70
   128
 71
   30
 72
   22
 73
   15
  0
VERTEX
  8
bag
 10
0.0
 20
0.0
 30
0.0
 70
   128
 71
   26
 72
   18
 73
   3
  0
VERTEX
  8
bag
 10
0.0
 20
0.0
 30
0.0
 70
   128
 71
   29
 72
   21
 73
   18
  0
VERTEX
  8
bag
 10
0.0
 20
0.0
 30
0.0
 70
   128
 71
   13
 72
   14
 73
   21
  0
VERTEX
  8
bag
 10
0.0
 20
0.0
 30
0.0
 70
   128
 71
   23
 72
   28
 73
   30
  0
VERTEX
  8
bag
 10
0.0
 20
0.0
 30
0.0
 70
   128
 71
   25
 72
   2
 73
   9
  0
VERTEX
  8
bag
 10
0.0
 20
0.0
 30
0.0
 70
   128
 71
   3
 72
   18
 73
   31
  0
VERTEX
  8
bag
 10
0.0
 20
0.0
 30
0.0
 70
   128
 71
   31
 72
   18
 73
   21
  0
VERTEX
  8
bag
 10
0.0
 20
0.0
 30
0.0
 70
   128
 71
   17
 72
   21
 73
   14
  0
VERTEX
  8
bag
 10
0.0
 20
0.0
 30
0.0
 70
   128
 71
   24
 72
   20
 73
   5
  0
VERTEX
  8
bag
 10
0.0
 20
0.0
 30
0.0
 70
   128
 71
   24
 72
   6
 73
   11
  0
VERTEX
  8
bag
 10
0.0
 20
0.0
 30
0.0
 70
   128
 71
   32
 72
   11
 73
   15
  0
VERTEX
  8
bag
 10
0.0
 20
0.0
 30
0.0
 70
   128
 71
   3
 72
   6
 73
   5
  0
VERTEX
  8
bag
 10
0.0
 20
0.0
 30
0.0
 70
   128
 71
   20
 72
   7
 73
   5
  0
VERTEX
  8
bag
 10
0.0
 20
0.0
 30
0.0
 70
   128
 71
   7
 72
   2
 73
   1
  0
VERTEX
  8
bag
 10
0.0
 20
0.0
 30
0.0
 70
   128
 71
   17
 72
   4
 73
   31
  0
VERTEX
  8
bag
 10
0.0
 20
0.0
 30
0.0
 70
   128
 71
   4
 72
   11
 73
   6
  0
VERTEX
  8
bag
 10
0.0
 20
0.0
 30
0.0
 70
   128
 71
   19
 72
   8
 73
   23
  0
VERTEX
  8
bag
 10
0.0
 20
0.0
 30
0.0
 70
   128
 71
   8
 72
   9
 73
   2
  0
VERTEX
  8
bag
 10
0.0
 20
0.0
 30
0.0
 70
   128
 71
   10
 72
   15
 73
   11
  0
VERTEX
  8
bag
 10
0.0
 20
0.0
 30
0.0
 70
   128
 71
   12
 72
   13
 73
   9
  0
VERTEX
  8
bag
 10
0.0
 20
0.0
 30
0.0
 70
   128
 71
   13
 72
   15
 73
   14
  0
VERTEX
  8
bag
 10
0.0
 20
0.0
 30
0.0
 70
   128
 71
   26
 72
   27
 73
   29
  0
VERTEX
  8
bag
 10
0.0
 20
0.0
 30
0.0
 70
   128
 71
   20
 72
   32
 73
   22
  0
VERTEX
  8
bag
 10
0.0
 20
0.0
 30
0.0
 70
   128
 71
   5
 72
   1
 73
   3
  0
VERTEX
  8
bag
 10
0.0
 20
0.0
 30
0.0
 70
   128
 71
   28
 72
   22
 73
   30
  0
VERTEX
  8
bag
 10
0.0
 20
0.0
 30
0.0
 70
   128
 71
   30
 72
   15
 73
   16
  0
VERTEX
  8
bag
 10
0.0
 20
0.0
 30
0.0
 70
   128
 71
   26
 72
   3
 73
   1
  0
VERTEX
  8
bag
 10
0.0
 20
0.0
 30
0.0
 70
   128
 71
   29
 72
   18
 73
   26
  0
VERTEX
  8
bag
 10
0.0
 20
0.0
 30
0.0
 70
   128
 71
   13
 72
   21
 73
   29
  0
VERTEX
  8
bag
 10
0.0
 20
0.0
 30
0.0
 70
   128
 71
   23
 72
   30
 73
   19
  0
VERTEX
  8
bag
 10
0.0
 20
0.0
 30
0.0
 70
   128
 71
   25
 72
   9
 73
   27
  0
VERTEX
  8
bag
 10
0.0
 20
0.0
 30
0.0
 70
   128
 71
   31
 72
   21
 73
   17
  0
VERTEX
  8
bag
 10
0.0
 20
0.0
 30
0.0
 70
   128
 71
   24
 72
   11
 73
   32
  0
SEQEND
  0
ENDSEC
  0
EOF
