999
FBX AutoCAD (*.DXF) exporter
  0
SECTION
  2
HEADER
  9
$ACADVER
  1
AC1008
  9
$UCSORG
 10
0.0
 20
0.0
 30
0.0
  9
$UCSXDIR
 10
1.0
 20
0.0
 30
0.0
  9
$TILEMODE
 70
   1
  9
$UCSYDIR
 10
0.0
 20
1.0
 30
0.0
  0
ENDSEC
  0
SECTION
  2
TABLES
  0
TABLE
  2
LTYPE
 70
   1
  0
LTYPE
  2
CONTINUOUS
 70
   64
  3
Solid line
 72
   65
 73
   0
 40
0.0
  0
ENDTAB
  0
TABLE
  2
LAYER
 70
   8
  0
LAYER
  2
sugarBagContainer
 70
   0
 62
   250
  6
CONTINUOUS
  0
LAYER
  2
bagSugar03
 70
   0
 62
   250
  6
CONTINUOUS
  0
LAYER
  2
bagSugar02
 70
   0
 62
   250
  6
CONTINUOUS
  0
LAYER
  2
bagSugar02_2
 70
   0
 62
   250
  6
CONTINUOUS
  0
LAYER
  2
bagSugar04
 70
   0
 62
   250
  6
CONTINUOUS
  0
LAYER
  2
bagSugar01
 70
   0
 62
   250
  6
CONTINUOUS
  0
LAYER
  2
bagSugar01_2
 70
   0
 62
   250
  6
CONTINUOUS
  0
LAYER
  2
bagSugar01_3
 70
   0
 62
   250
  6
CONTINUOUS
  0
ENDTAB
  0
ENDSEC
  0
SECTION
  2
BLOCKS
  0
ENDSEC
  0
SECTION
  2
ENTITIES
  0
POLYLINE
  8
sugarBagContainer
 66
   1
 10
0.0
 20
0.0
 30
0.0
 70
   64
 71
   24
 72
   44
  0
VERTEX
  8
sugarBagContainer
 10
-24.339886
 20
49.342455
 30
45.100000
 70
   192
  0
VERTEX
  8
sugarBagContainer
 10
24.339886
 20
49.342455
 30
45.100000
 70
   192
  0
VERTEX
  8
sugarBagContainer
 10
24.339886
 20
49.342455
 30
-45.100000
 70
   192
  0
VERTEX
  8
sugarBagContainer
 10
-24.339886
 20
49.342455
 30
-45.100000
 70
   192
  0
VERTEX
  8
sugarBagContainer
 10
-24.339886
 20
15.642455
 30
45.100000
 70
   192
  0
VERTEX
  8
sugarBagContainer
 10
24.339886
 20
15.642455
 30
45.100000
 70
   192
  0
VERTEX
  8
sugarBagContainer
 10
24.339886
 20
15.642455
 30
-45.100000
 70
   192
  0
VERTEX
  8
sugarBagContainer
 10
-24.339886
 20
15.642455
 30
-45.100000
 70
   192
  0
VERTEX
  8
sugarBagContainer
 10
-29.857690
 20
0.000000
 30
-50.617803
 70
   192
  0
VERTEX
  8
sugarBagContainer
 10
-29.857690
 20
0.000000
 30
50.617803
 70
   192
  0
VERTEX
  8
sugarBagContainer
 10
29.857690
 20
0.000000
 30
50.617803
 70
   192
  0
VERTEX
  8
sugarBagContainer
 10
29.857690
 20
0.000000
 30
-50.617803
 70
   192
  0
VERTEX
  8
sugarBagContainer
 10
-31.539886
 20
1.682197
 30
-52.300000
 70
   192
  0
VERTEX
  8
sugarBagContainer
 10
-31.539886
 20
47.660259
 30
52.300000
 70
   192
  0
VERTEX
  8
sugarBagContainer
 10
-31.539886
 20
1.682197
 30
52.300000
 70
   192
  0
VERTEX
  8
sugarBagContainer
 10
31.539886
 20
47.660259
 30
52.300000
 70
   192
  0
VERTEX
  8
sugarBagContainer
 10
-29.857690
 20
49.342455
 30
-50.617803
 70
   192
  0
VERTEX
  8
sugarBagContainer
 10
-29.857690
 20
49.342455
 30
50.617803
 70
   192
  0
VERTEX
  8
sugarBagContainer
 10
31.539886
 20
1.682197
 30
52.300000
 70
   192
  0
VERTEX
  8
sugarBagContainer
 10
31.539886
 20
47.660259
 30
-52.300000
 70
   192
  0
VERTEX
  8
sugarBagContainer
 10
29.857690
 20
49.342455
 30
50.617803
 70
   192
  0
VERTEX
  8
sugarBagContainer
 10
31.539886
 20
1.682197
 30
-52.300000
 70
   192
  0
VERTEX
  8
sugarBagContainer
 10
-31.539886
 20
47.660259
 30
-52.300000
 70
   192
  0
VERTEX
  8
sugarBagContainer
 10
29.857690
 20
49.342455
 30
-50.617803
 70
   192
  0
VERTEX
  8
sugarBagContainer
 10
0.0
 20
0.0
 30
0.0
 70
   128
 71
   15
 72
   14
 73
   16
  0
VERTEX
  8
sugarBagContainer
 10
0.0
 20
0.0
 30
0.0
 70
   128
 71
   19
 72
   16
 73
   20
  0
VERTEX
  8
sugarBagContainer
 10
0.0
 20
0.0
 30
0.0
 70
   128
 71
   22
 72
   20
 73
   23
  0
VERTEX
  8
sugarBagContainer
 10
0.0
 20
0.0
 30
0.0
 70
   128
 71
   13
 72
   23
 73
   14
  0
VERTEX
  8
sugarBagContainer
 10
0.0
 20
0.0
 30
0.0
 70
   128
 71
   5
 72
   8
 73
   7
  0
VERTEX
  8
sugarBagContainer
 10
0.0
 20
0.0
 30
0.0
 70
   128
 71
   9
 72
   10
 73
   11
  0
VERTEX
  8
sugarBagContainer
 10
0.0
 20
0.0
 30
0.0
 70
   128
 71
   18
 72
   1
 73
   2
  0
VERTEX
  8
sugarBagContainer
 10
0.0
 20
0.0
 30
0.0
 70
   128
 71
   21
 72
   2
 73
   3
  0
VERTEX
  8
sugarBagContainer
 10
0.0
 20
0.0
 30
0.0
 70
   128
 71
   24
 72
   3
 73
   4
  0
VERTEX
  8
sugarBagContainer
 10
0.0
 20
0.0
 30
0.0
 70
   128
 71
   17
 72
   4
 73
   1
  0
VERTEX
  8
sugarBagContainer
 10
0.0
 20
0.0
 30
0.0
 70
   128
 71
   1
 72
   5
 73
   6
  0
VERTEX
  8
sugarBagContainer
 10
0.0
 20
0.0
 30
0.0
 70
   128
 71
   2
 72
   6
 73
   7
  0
VERTEX
  8
sugarBagContainer
 10
0.0
 20
0.0
 30
0.0
 70
   128
 71
   3
 72
   7
 73
   8
  0
VERTEX
  8
sugarBagContainer
 10
0.0
 20
0.0
 30
0.0
 70
   128
 71
   4
 72
   8
 73
   5
  0
VERTEX
  8
sugarBagContainer
 10
0.0
 20
0.0
 30
0.0
 70
   128
 71
   21
 72
   16
 73
   14
  0
VERTEX
  8
sugarBagContainer
 10
0.0
 20
0.0
 30
0.0
 70
   128
 71
   19
 72
   11
 73
   10
  0
VERTEX
  8
sugarBagContainer
 10
0.0
 20
0.0
 30
0.0
 70
   128
 71
   24
 72
   20
 73
   16
  0
VERTEX
  8
sugarBagContainer
 10
0.0
 20
0.0
 30
0.0
 70
   128
 71
   22
 72
   12
 73
   11
  0
VERTEX
  8
sugarBagContainer
 10
0.0
 20
0.0
 30
0.0
 70
   128
 71
   17
 72
   23
 73
   20
  0
VERTEX
  8
sugarBagContainer
 10
0.0
 20
0.0
 30
0.0
 70
   128
 71
   13
 72
   9
 73
   12
  0
VERTEX
  8
sugarBagContainer
 10
0.0
 20
0.0
 30
0.0
 70
   128
 71
   18
 72
   14
 73
   23
  0
VERTEX
  8
sugarBagContainer
 10
0.0
 20
0.0
 30
0.0
 70
   128
 71
   15
 72
   10
 73
   9
  0
VERTEX
  8
sugarBagContainer
 10
0.0
 20
0.0
 30
0.0
 70
   128
 71
   15
 72
   16
 73
   19
  0
VERTEX
  8
sugarBagContainer
 10
0.0
 20
0.0
 30
0.0
 70
   128
 71
   19
 72
   20
 73
   22
  0
VERTEX
  8
sugarBagContainer
 10
0.0
 20
0.0
 30
0.0
 70
   128
 71
   22
 72
   23
 73
   13
  0
VERTEX
  8
sugarBagContainer
 10
0.0
 20
0.0
 30
0.0
 70
   128
 71
   13
 72
   14
 73
   15
  0
VERTEX
  8
sugarBagContainer
 10
0.0
 20
0.0
 30
0.0
 70
   128
 71
   5
 72
   7
 73
   6
  0
VERTEX
  8
sugarBagContainer
 10
0.0
 20
0.0
 30
0.0
 70
   128
 71
   9
 72
   11
 73
   12
  0
VERTEX
  8
sugarBagContainer
 10
0.0
 20
0.0
 30
0.0
 70
   128
 71
   18
 72
   2
 73
   21
  0
VERTEX
  8
sugarBagContainer
 10
0.0
 20
0.0
 30
0.0
 70
   128
 71
   21
 72
   3
 73
   24
  0
VERTEX
  8
sugarBagContainer
 10
0.0
 20
0.0
 30
0.0
 70
   128
 71
   24
 72
   4
 73
   17
  0
VERTEX
  8
sugarBagContainer
 10
0.0
 20
0.0
 30
0.0
 70
   128
 71
   17
 72
   1
 73
   18
  0
VERTEX
  8
sugarBagContainer
 10
0.0
 20
0.0
 30
0.0
 70
   128
 71
   1
 72
   6
 73
   2
  0
VERTEX
  8
sugarBagContainer
 10
0.0
 20
0.0
 30
0.0
 70
   128
 71
   2
 72
   7
 73
   3
  0
VERTEX
  8
sugarBagContainer
 10
0.0
 20
0.0
 30
0.0
 70
   128
 71
   3
 72
   8
 73
   4
  0
VERTEX
  8
sugarBagContainer
 10
0.0
 20
0.0
 30
0.0
 70
   128
 71
   4
 72
   5
 73
   1
  0
VERTEX
  8
sugarBagContainer
 10
0.0
 20
0.0
 30
0.0
 70
   128
 71
   21
 72
   14
 73
   18
  0
VERTEX
  8
sugarBagContainer
 10
0.0
 20
0.0
 30
0.0
 70
   128
 71
   19
 72
   10
 73
   15
  0
VERTEX
  8
sugarBagContainer
 10
0.0
 20
0.0
 30
0.0
 70
   128
 71
   24
 72
   16
 73
   21
  0
VERTEX
  8
sugarBagContainer
 10
0.0
 20
0.0
 30
0.0
 70
   128
 71
   22
 72
   11
 73
   19
  0
VERTEX
  8
sugarBagContainer
 10
0.0
 20
0.0
 30
0.0
 70
   128
 71
   17
 72
   20
 73
   24
  0
VERTEX
  8
sugarBagContainer
 10
0.0
 20
0.0
 30
0.0
 70
   128
 71
   13
 72
   12
 73
   22
  0
VERTEX
  8
sugarBagContainer
 10
0.0
 20
0.0
 30
0.0
 70
   128
 71
   18
 72
   23
 73
   17
  0
VERTEX
  8
sugarBagContainer
 10
0.0
 20
0.0
 30
0.0
 70
   128
 71
   15
 72
   9
 73
   13
  0
SEQEND
  0
POLYLINE
  8
bagSugar03
 66
   1
 10
0.0
 20
0.0
 30
0.0
 70
   64
 71
   16
 72
   28
  0
VERTEX
  8
bagSugar03
 10
-18.468054
 20
18.541709
 30
44.327790
 70
   192
  0
VERTEX
  8
bagSugar03
 10
-18.614042
 20
64.870700
 30
11.145590
 70
   192
  0
VERTEX
  8
bagSugar03
 10
17.974530
 20
18.657205
 30
44.328713
 70
   192
  0
VERTEX
  8
bagSugar03
 10
17.828542
 20
64.986196
 30
11.146513
 70
   192
  0
VERTEX
  8
bagSugar03
 10
17.980498
 20
16.794765
 30
41.728347
 70
   192
  0
VERTEX
  8
bagSugar03
 10
17.834510
 20
63.123756
 30
8.546147
 70
   192
  0
VERTEX
  8
bagSugar03
 10
-18.462086
 20
16.679269
 30
41.727424
 70
   192
  0
VERTEX
  8
bagSugar03
 10
-18.608074
 20
63.008260
 30
8.545224
 70
   192
  0
VERTEX
  8
bagSugar03
 10
-18.604490
 20
61.820970
 30
15.614785
 70
   192
  0
VERTEX
  8
bagSugar03
 10
17.838094
 20
61.936466
 30
15.615708
 70
   192
  0
VERTEX
  8
bagSugar03
 10
17.850995
 20
57.910761
 30
9.994961
 70
   192
  0
VERTEX
  8
bagSugar03
 10
-18.591589
 20
57.795265
 30
9.994038
 70
   192
  0
VERTEX
  8
bagSugar03
 10
-18.489976
 20
25.480252
 30
41.643087
 70
   192
  0
VERTEX
  8
bagSugar03
 10
17.952608
 20
25.595748
 30
41.644010
 70
   192
  0
VERTEX
  8
bagSugar03
 10
17.965509
 20
21.570042
 30
36.023264
 70
   192
  0
VERTEX
  8
bagSugar03
 10
-18.477075
 20
21.454546
 30
36.022341
 70
   192
  0
VERTEX
  8
bagSugar03
 10
0.0
 20
0.0
 30
0.0
 70
   128
 71
   1
 72
   13
 73
   14
  0
VERTEX
  8
bagSugar03
 10
0.0
 20
0.0
 30
0.0
 70
   128
 71
   3
 72
   14
 73
   15
  0
VERTEX
  8
bagSugar03
 10
0.0
 20
0.0
 30
0.0
 70
   128
 71
   5
 72
   15
 73
   16
  0
VERTEX
  8
bagSugar03
 10
0.0
 20
0.0
 30
0.0
 70
   128
 71
   12
 72
   8
 73
   2
  0
VERTEX
  8
bagSugar03
 10
0.0
 20
0.0
 30
0.0
 70
   128
 71
   2
 72
   8
 73
   6
  0
VERTEX
  8
bagSugar03
 10
0.0
 20
0.0
 30
0.0
 70
   128
 71
   7
 72
   1
 73
   3
  0
VERTEX
  8
bagSugar03
 10
0.0
 20
0.0
 30
0.0
 70
   128
 71
   9
 72
   2
 73
   4
  0
VERTEX
  8
bagSugar03
 10
0.0
 20
0.0
 30
0.0
 70
   128
 71
   10
 72
   4
 73
   6
  0
VERTEX
  8
bagSugar03
 10
0.0
 20
0.0
 30
0.0
 70
   128
 71
   11
 72
   6
 73
   8
  0
VERTEX
  8
bagSugar03
 10
0.0
 20
0.0
 30
0.0
 70
   128
 71
   9
 72
   13
 73
   16
  0
VERTEX
  8
bagSugar03
 10
0.0
 20
0.0
 30
0.0
 70
   128
 71
   13
 72
   9
 73
   10
  0
VERTEX
  8
bagSugar03
 10
0.0
 20
0.0
 30
0.0
 70
   128
 71
   14
 72
   10
 73
   11
  0
VERTEX
  8
bagSugar03
 10
0.0
 20
0.0
 30
0.0
 70
   128
 71
   15
 72
   11
 73
   12
  0
VERTEX
  8
bagSugar03
 10
0.0
 20
0.0
 30
0.0
 70
   128
 71
   13
 72
   1
 73
   7
  0
VERTEX
  8
bagSugar03
 10
0.0
 20
0.0
 30
0.0
 70
   128
 71
   1
 72
   14
 73
   3
  0
VERTEX
  8
bagSugar03
 10
0.0
 20
0.0
 30
0.0
 70
   128
 71
   3
 72
   15
 73
   5
  0
VERTEX
  8
bagSugar03
 10
0.0
 20
0.0
 30
0.0
 70
   128
 71
   5
 72
   16
 73
   7
  0
VERTEX
  8
bagSugar03
 10
0.0
 20
0.0
 30
0.0
 70
   128
 71
   12
 72
   2
 73
   9
  0
VERTEX
  8
bagSugar03
 10
0.0
 20
0.0
 30
0.0
 70
   128
 71
   2
 72
   6
 73
   4
  0
VERTEX
  8
bagSugar03
 10
0.0
 20
0.0
 30
0.0
 70
   128
 71
   7
 72
   3
 73
   5
  0
VERTEX
  8
bagSugar03
 10
0.0
 20
0.0
 30
0.0
 70
   128
 71
   9
 72
   4
 73
   10
  0
VERTEX
  8
bagSugar03
 10
0.0
 20
0.0
 30
0.0
 70
   128
 71
   10
 72
   6
 73
   11
  0
VERTEX
  8
bagSugar03
 10
0.0
 20
0.0
 30
0.0
 70
   128
 71
   11
 72
   8
 73
   12
  0
VERTEX
  8
bagSugar03
 10
0.0
 20
0.0
 30
0.0
 70
   128
 71
   9
 72
   16
 73
   12
  0
VERTEX
  8
bagSugar03
 10
0.0
 20
0.0
 30
0.0
 70
   128
 71
   13
 72
   10
 73
   14
  0
VERTEX
  8
bagSugar03
 10
0.0
 20
0.0
 30
0.0
 70
   128
 71
   14
 72
   11
 73
   15
  0
VERTEX
  8
bagSugar03
 10
0.0
 20
0.0
 30
0.0
 70
   128
 71
   15
 72
   12
 73
   16
  0
VERTEX
  8
bagSugar03
 10
0.0
 20
0.0
 30
0.0
 70
   128
 71
   13
 72
   7
 73
   16
  0
SEQEND
  0
POLYLINE
  8
bagSugar02
 66
   1
 10
0.0
 20
0.0
 30
0.0
 70
   64
 71
   16
 72
   28
  0
VERTEX
  8
bagSugar02
 10
-13.696010
 20
18.530353
 30
27.754834
 70
   192
  0
VERTEX
  8
bagSugar02
 10
-13.735530
 20
60.960535
 30
-10.286371
 70
   192
  0
VERTEX
  8
bagSugar02
 10
22.746729
 20
18.524394
 30
27.710329
 70
   192
  0
VERTEX
  8
bagSugar02
 10
22.707209
 20
60.954576
 30
-10.330876
 70
   192
  0
VERTEX
  8
bagSugar02
 10
22.743471
 20
16.389217
 30
25.328810
 70
   192
  0
VERTEX
  8
bagSugar02
 10
22.703952
 20
58.819399
 30
-12.712395
 70
   192
  0
VERTEX
  8
bagSugar02
 10
-13.699268
 20
16.395176
 30
25.373316
 70
   192
  0
VERTEX
  8
bagSugar02
 10
-13.738788
 20
58.825358
 30
-12.667889
 70
   192
  0
VERTEX
  8
bagSugar02
 10
-13.730114
 20
58.416874
 30
-5.510974
 70
   192
  0
VERTEX
  8
bagSugar02
 10
22.712625
 20
58.410915
 30
-5.555480
 70
   192
  0
VERTEX
  8
bagSugar02
 10
22.705584
 20
53.795683
 30
-10.703183
 70
   192
  0
VERTEX
  8
bagSugar02
 10
-13.737155
 20
53.801643
 30
-10.658677
 70
   192
  0
VERTEX
  8
bagSugar02
 10
-13.699114
 20
25.134404
 30
24.328759
 70
   192
  0
VERTEX
  8
bagSugar02
 10
22.743625
 20
25.128444
 30
24.284253
 70
   192
  0
VERTEX
  8
bagSugar02
 10
22.736583
 20
20.513213
 30
19.136549
 70
   192
  0
VERTEX
  8
bagSugar02
 10
-13.706156
 20
20.519172
 30
19.181055
 70
   192
  0
VERTEX
  8
bagSugar02
 10
0.0
 20
0.0
 30
0.0
 70
   128
 71
   1
 72
   13
 73
   14
  0
VERTEX
  8
bagSugar02
 10
0.0
 20
0.0
 30
0.0
 70
   128
 71
   3
 72
   14
 73
   15
  0
VERTEX
  8
bagSugar02
 10
0.0
 20
0.0
 30
0.0
 70
   128
 71
   5
 72
   15
 73
   16
  0
VERTEX
  8
bagSugar02
 10
0.0
 20
0.0
 30
0.0
 70
   128
 71
   12
 72
   8
 73
   2
  0
VERTEX
  8
bagSugar02
 10
0.0
 20
0.0
 30
0.0
 70
   128
 71
   2
 72
   8
 73
   6
  0
VERTEX
  8
bagSugar02
 10
0.0
 20
0.0
 30
0.0
 70
   128
 71
   7
 72
   1
 73
   3
  0
VERTEX
  8
bagSugar02
 10
0.0
 20
0.0
 30
0.0
 70
   128
 71
   9
 72
   2
 73
   4
  0
VERTEX
  8
bagSugar02
 10
0.0
 20
0.0
 30
0.0
 70
   128
 71
   10
 72
   4
 73
   6
  0
VERTEX
  8
bagSugar02
 10
0.0
 20
0.0
 30
0.0
 70
   128
 71
   11
 72
   6
 73
   8
  0
VERTEX
  8
bagSugar02
 10
0.0
 20
0.0
 30
0.0
 70
   128
 71
   9
 72
   13
 73
   16
  0
VERTEX
  8
bagSugar02
 10
0.0
 20
0.0
 30
0.0
 70
   128
 71
   13
 72
   9
 73
   10
  0
VERTEX
  8
bagSugar02
 10
0.0
 20
0.0
 30
0.0
 70
   128
 71
   14
 72
   10
 73
   11
  0
VERTEX
  8
bagSugar02
 10
0.0
 20
0.0
 30
0.0
 70
   128
 71
   15
 72
   11
 73
   12
  0
VERTEX
  8
bagSugar02
 10
0.0
 20
0.0
 30
0.0
 70
   128
 71
   13
 72
   1
 73
   7
  0
VERTEX
  8
bagSugar02
 10
0.0
 20
0.0
 30
0.0
 70
   128
 71
   1
 72
   14
 73
   3
  0
VERTEX
  8
bagSugar02
 10
0.0
 20
0.0
 30
0.0
 70
   128
 71
   3
 72
   15
 73
   5
  0
VERTEX
  8
bagSugar02
 10
0.0
 20
0.0
 30
0.0
 70
   128
 71
   5
 72
   16
 73
   7
  0
VERTEX
  8
bagSugar02
 10
0.0
 20
0.0
 30
0.0
 70
   128
 71
   12
 72
   2
 73
   9
  0
VERTEX
  8
bagSugar02
 10
0.0
 20
0.0
 30
0.0
 70
   128
 71
   2
 72
   6
 73
   4
  0
VERTEX
  8
bagSugar02
 10
0.0
 20
0.0
 30
0.0
 70
   128
 71
   7
 72
   3
 73
   5
  0
VERTEX
  8
bagSugar02
 10
0.0
 20
0.0
 30
0.0
 70
   128
 71
   9
 72
   4
 73
   10
  0
VERTEX
  8
bagSugar02
 10
0.0
 20
0.0
 30
0.0
 70
   128
 71
   10
 72
   6
 73
   11
  0
VERTEX
  8
bagSugar02
 10
0.0
 20
0.0
 30
0.0
 70
   128
 71
   11
 72
   8
 73
   12
  0
VERTEX
  8
bagSugar02
 10
0.0
 20
0.0
 30
0.0
 70
   128
 71
   9
 72
   16
 73
   12
  0
VERTEX
  8
bagSugar02
 10
0.0
 20
0.0
 30
0.0
 70
   128
 71
   13
 72
   10
 73
   14
  0
VERTEX
  8
bagSugar02
 10
0.0
 20
0.0
 30
0.0
 70
   128
 71
   14
 72
   11
 73
   15
  0
VERTEX
  8
bagSugar02
 10
0.0
 20
0.0
 30
0.0
 70
   128
 71
   15
 72
   12
 73
   16
  0
VERTEX
  8
bagSugar02
 10
0.0
 20
0.0
 30
0.0
 70
   128
 71
   13
 72
   7
 73
   16
  0
SEQEND
  0
POLYLINE
  8
bagSugar02_2
 66
   1
 10
0.0
 20
0.0
 30
0.0
 70
   64
 71
   16
 72
   28
  0
VERTEX
  8
bagSugar02_2
 10
-13.131393
 20
18.525686
 30
36.896141
 70
   192
  0
VERTEX
  8
bagSugar02_2
 10
-13.131804
 20
61.025497
 30
-1.067278
 70
   192
  0
VERTEX
  8
bagSugar02_2
 10
23.311374
 20
18.525774
 30
36.895845
 70
   192
  0
VERTEX
  8
bagSugar02_2
 10
23.310963
 20
61.025585
 30
-1.067575
 70
   192
  0
VERTEX
  8
bagSugar02_2
 10
23.311360
 20
16.394964
 30
34.510417
 70
   192
  0
VERTEX
  8
bagSugar02_2
 10
23.310949
 20
58.894775
 30
-3.453003
 70
   192
  0
VERTEX
  8
bagSugar02_2
 10
-13.131407
 20
16.394876
 30
34.510713
 70
   192
  0
VERTEX
  8
bagSugar02_2
 10
-13.131818
 20
58.894687
 30
-3.452707
 70
   192
  0
VERTEX
  8
bagSugar02_2
 10
-13.131759
 20
58.473090
 30
3.703453
 70
   192
  0
VERTEX
  8
bagSugar02_2
 10
23.311008
 20
58.473178
 30
3.703156
 70
   192
  0
VERTEX
  8
bagSugar02_2
 10
23.310977
 20
53.867386
 30
-1.452999
 70
   192
  0
VERTEX
  8
bagSugar02_2
 10
-13.131790
 20
53.867298
 30
-1.452703
 70
   192
  0
VERTEX
  8
bagSugar02_2
 10
-13.131436
 20
25.136002
 30
33.482170
 70
   192
  0
VERTEX
  8
bagSugar02_2
 10
23.311330
 20
25.136090
 30
33.481874
 70
   192
  0
VERTEX
  8
bagSugar02_2
 10
23.311300
 20
20.530298
 30
28.325718
 70
   192
  0
VERTEX
  8
bagSugar02_2
 10
-13.131467
 20
20.530210
 30
28.326014
 70
   192
  0
VERTEX
  8
bagSugar02_2
 10
0.0
 20
0.0
 30
0.0
 70
   128
 71
   1
 72
   13
 73
   14
  0
VERTEX
  8
bagSugar02_2
 10
0.0
 20
0.0
 30
0.0
 70
   128
 71
   3
 72
   14
 73
   15
  0
VERTEX
  8
bagSugar02_2
 10
0.0
 20
0.0
 30
0.0
 70
   128
 71
   5
 72
   15
 73
   16
  0
VERTEX
  8
bagSugar02_2
 10
0.0
 20
0.0
 30
0.0
 70
   128
 71
   12
 72
   8
 73
   2
  0
VERTEX
  8
bagSugar02_2
 10
0.0
 20
0.0
 30
0.0
 70
   128
 71
   2
 72
   8
 73
   6
  0
VERTEX
  8
bagSugar02_2
 10
0.0
 20
0.0
 30
0.0
 70
   128
 71
   7
 72
   1
 73
   3
  0
VERTEX
  8
bagSugar02_2
 10
0.0
 20
0.0
 30
0.0
 70
   128
 71
   9
 72
   2
 73
   4
  0
VERTEX
  8
bagSugar02_2
 10
0.0
 20
0.0
 30
0.0
 70
   128
 71
   10
 72
   4
 73
   6
  0
VERTEX
  8
bagSugar02_2
 10
0.0
 20
0.0
 30
0.0
 70
   128
 71
   11
 72
   6
 73
   8
  0
VERTEX
  8
bagSugar02_2
 10
0.0
 20
0.0
 30
0.0
 70
   128
 71
   9
 72
   13
 73
   16
  0
VERTEX
  8
bagSugar02_2
 10
0.0
 20
0.0
 30
0.0
 70
   128
 71
   13
 72
   9
 73
   10
  0
VERTEX
  8
bagSugar02_2
 10
0.0
 20
0.0
 30
0.0
 70
   128
 71
   14
 72
   10
 73
   11
  0
VERTEX
  8
bagSugar02_2
 10
0.0
 20
0.0
 30
0.0
 70
   128
 71
   15
 72
   11
 73
   12
  0
VERTEX
  8
bagSugar02_2
 10
0.0
 20
0.0
 30
0.0
 70
   128
 71
   13
 72
   1
 73
   7
  0
VERTEX
  8
bagSugar02_2
 10
0.0
 20
0.0
 30
0.0
 70
   128
 71
   1
 72
   14
 73
   3
  0
VERTEX
  8
bagSugar02_2
 10
0.0
 20
0.0
 30
0.0
 70
   128
 71
   3
 72
   15
 73
   5
  0
VERTEX
  8
bagSugar02_2
 10
0.0
 20
0.0
 30
0.0
 70
   128
 71
   5
 72
   16
 73
   7
  0
VERTEX
  8
bagSugar02_2
 10
0.0
 20
0.0
 30
0.0
 70
   128
 71
   12
 72
   2
 73
   9
  0
VERTEX
  8
bagSugar02_2
 10
0.0
 20
0.0
 30
0.0
 70
   128
 71
   2
 72
   6
 73
   4
  0
VERTEX
  8
bagSugar02_2
 10
0.0
 20
0.0
 30
0.0
 70
   128
 71
   7
 72
   3
 73
   5
  0
VERTEX
  8
bagSugar02_2
 10
0.0
 20
0.0
 30
0.0
 70
   128
 71
   9
 72
   4
 73
   10
  0
VERTEX
  8
bagSugar02_2
 10
0.0
 20
0.0
 30
0.0
 70
   128
 71
   10
 72
   6
 73
   11
  0
VERTEX
  8
bagSugar02_2
 10
0.0
 20
0.0
 30
0.0
 70
   128
 71
   11
 72
   8
 73
   12
  0
VERTEX
  8
bagSugar02_2
 10
0.0
 20
0.0
 30
0.0
 70
   128
 71
   9
 72
   16
 73
   12
  0
VERTEX
  8
bagSugar02_2
 10
0.0
 20
0.0
 30
0.0
 70
   128
 71
   13
 72
   10
 73
   14
  0
VERTEX
  8
bagSugar02_2
 10
0.0
 20
0.0
 30
0.0
 70
   128
 71
   14
 72
   11
 73
   15
  0
VERTEX
  8
bagSugar02_2
 10
0.0
 20
0.0
 30
0.0
 70
   128
 71
   15
 72
   12
 73
   16
  0
VERTEX
  8
bagSugar02_2
 10
0.0
 20
0.0
 30
0.0
 70
   128
 71
   13
 72
   7
 73
   16
  0
SEQEND
  0
POLYLINE
  8
bagSugar04
 66
   1
 10
0.0
 20
0.0
 30
0.0
 70
   64
 71
   16
 72
   28
  0
VERTEX
  8
bagSugar04
 10
-18.107878
 20
18.528220
 30
18.576207
 70
   192
  0
VERTEX
  8
bagSugar04
 10
-18.183980
 20
60.920016
 30
-19.507713
 70
   192
  0
VERTEX
  8
bagSugar04
 10
18.334819
 20
18.529159
 30
18.504431
 70
   192
  0
VERTEX
  8
bagSugar04
 10
18.258717
 20
60.920956
 30
-19.579489
 70
   192
  0
VERTEX
  8
bagSugar04
 10
18.330188
 20
16.391582
 30
16.125070
 70
   192
  0
VERTEX
  8
bagSugar04
 10
18.254086
 20
58.783378
 30
-21.958851
 70
   192
  0
VERTEX
  8
bagSugar04
 10
-18.112509
 20
16.390642
 30
16.196846
 70
   192
  0
VERTEX
  8
bagSugar04
 10
-18.188611
 20
58.782439
 30
-21.887074
 70
   192
  0
VERTEX
  8
bagSugar04
 10
-18.174504
 20
58.381172
 30
-14.729760
 70
   192
  0
VERTEX
  8
bagSugar04
 10
18.268193
 20
58.382112
 30
-14.801536
 70
   192
  0
VERTEX
  8
bagSugar04
 10
18.258182
 20
53.761691
 30
-19.944578
 70
   192
  0
VERTEX
  8
bagSugar04
 10
-18.184514
 20
53.760751
 30
-19.872801
 70
   192
  0
VERTEX
  8
bagSugar04
 10
-18.114809
 20
25.128811
 30
15.143479
 70
   192
  0
VERTEX
  8
bagSugar04
 10
18.327887
 20
25.129751
 30
15.071702
 70
   192
  0
VERTEX
  8
bagSugar04
 10
18.317877
 20
20.509330
 30
9.928661
 70
   192
  0
VERTEX
  8
bagSugar04
 10
-18.124819
 20
20.508391
 30
10.000437
 70
   192
  0
VERTEX
  8
bagSugar04
 10
0.0
 20
0.0
 30
0.0
 70
   128
 71
   1
 72
   13
 73
   14
  0
VERTEX
  8
bagSugar04
 10
0.0
 20
0.0
 30
0.0
 70
   128
 71
   3
 72
   14
 73
   15
  0
VERTEX
  8
bagSugar04
 10
0.0
 20
0.0
 30
0.0
 70
   128
 71
   5
 72
   15
 73
   16
  0
VERTEX
  8
bagSugar04
 10
0.0
 20
0.0
 30
0.0
 70
   128
 71
   12
 72
   8
 73
   2
  0
VERTEX
  8
bagSugar04
 10
0.0
 20
0.0
 30
0.0
 70
   128
 71
   2
 72
   8
 73
   6
  0
VERTEX
  8
bagSugar04
 10
0.0
 20
0.0
 30
0.0
 70
   128
 71
   7
 72
   1
 73
   3
  0
VERTEX
  8
bagSugar04
 10
0.0
 20
0.0
 30
0.0
 70
   128
 71
   9
 72
   2
 73
   4
  0
VERTEX
  8
bagSugar04
 10
0.0
 20
0.0
 30
0.0
 70
   128
 71
   10
 72
   4
 73
   6
  0
VERTEX
  8
bagSugar04
 10
0.0
 20
0.0
 30
0.0
 70
   128
 71
   11
 72
   6
 73
   8
  0
VERTEX
  8
bagSugar04
 10
0.0
 20
0.0
 30
0.0
 70
   128
 71
   9
 72
   13
 73
   16
  0
VERTEX
  8
bagSugar04
 10
0.0
 20
0.0
 30
0.0
 70
   128
 71
   13
 72
   9
 73
   10
  0
VERTEX
  8
bagSugar04
 10
0.0
 20
0.0
 30
0.0
 70
   128
 71
   14
 72
   10
 73
   11
  0
VERTEX
  8
bagSugar04
 10
0.0
 20
0.0
 30
0.0
 70
   128
 71
   15
 72
   11
 73
   12
  0
VERTEX
  8
bagSugar04
 10
0.0
 20
0.0
 30
0.0
 70
   128
 71
   13
 72
   1
 73
   7
  0
VERTEX
  8
bagSugar04
 10
0.0
 20
0.0
 30
0.0
 70
   128
 71
   1
 72
   14
 73
   3
  0
VERTEX
  8
bagSugar04
 10
0.0
 20
0.0
 30
0.0
 70
   128
 71
   3
 72
   15
 73
   5
  0
VERTEX
  8
bagSugar04
 10
0.0
 20
0.0
 30
0.0
 70
   128
 71
   5
 72
   16
 73
   7
  0
VERTEX
  8
bagSugar04
 10
0.0
 20
0.0
 30
0.0
 70
   128
 71
   12
 72
   2
 73
   9
  0
VERTEX
  8
bagSugar04
 10
0.0
 20
0.0
 30
0.0
 70
   128
 71
   2
 72
   6
 73
   4
  0
VERTEX
  8
bagSugar04
 10
0.0
 20
0.0
 30
0.0
 70
   128
 71
   7
 72
   3
 73
   5
  0
VERTEX
  8
bagSugar04
 10
0.0
 20
0.0
 30
0.0
 70
   128
 71
   9
 72
   4
 73
   10
  0
VERTEX
  8
bagSugar04
 10
0.0
 20
0.0
 30
0.0
 70
   128
 71
   10
 72
   6
 73
   11
  0
VERTEX
  8
bagSugar04
 10
0.0
 20
0.0
 30
0.0
 70
   128
 71
   11
 72
   8
 73
   12
  0
VERTEX
  8
bagSugar04
 10
0.0
 20
0.0
 30
0.0
 70
   128
 71
   9
 72
   16
 73
   12
  0
VERTEX
  8
bagSugar04
 10
0.0
 20
0.0
 30
0.0
 70
   128
 71
   13
 72
   10
 73
   14
  0
VERTEX
  8
bagSugar04
 10
0.0
 20
0.0
 30
0.0
 70
   128
 71
   14
 72
   11
 73
   15
  0
VERTEX
  8
bagSugar04
 10
0.0
 20
0.0
 30
0.0
 70
   128
 71
   15
 72
   12
 73
   16
  0
VERTEX
  8
bagSugar04
 10
0.0
 20
0.0
 30
0.0
 70
   128
 71
   13
 72
   7
 73
   16
  0
SEQEND
  0
POLYLINE
  8
bagSugar01
 66
   1
 10
0.0
 20
0.0
 30
0.0
 70
   64
 71
   16
 72
   28
  0
VERTEX
  8
bagSugar01
 10
-22.910805
 20
18.534132
 30
9.375351
 70
   192
  0
VERTEX
  8
bagSugar01
 10
-22.971944
 20
60.874395
 30
-28.765881
 70
   192
  0
VERTEX
  8
bagSugar01
 10
13.531923
 20
18.539182
 30
9.322541
 70
   192
  0
VERTEX
  8
bagSugar01
 10
13.470785
 20
60.879445
 30
-28.818691
 70
   192
  0
VERTEX
  8
bagSugar01
 10
13.528776
 20
16.398389
 30
6.946070
 70
   192
  0
VERTEX
  8
bagSugar01
 10
13.467638
 20
58.738653
 30
-31.195162
 70
   192
  0
VERTEX
  8
bagSugar01
 10
-22.913952
 20
16.393339
 30
6.998880
 70
   192
  0
VERTEX
  8
bagSugar01
 10
-22.975091
 20
58.733603
 30
-31.142352
 70
   192
  0
VERTEX
  8
bagSugar01
 10
-22.964664
 20
58.342014
 30
-23.984495
 70
   192
  0
VERTEX
  8
bagSugar01
 10
13.478064
 20
58.347064
 30
-24.037305
 70
   192
  0
VERTEX
  8
bagSugar01
 10
13.471262
 20
53.719694
 30
-29.174100
 70
   192
  0
VERTEX
  8
bagSugar01
 10
-22.971467
 20
53.714644
 30
-29.121290
 70
   192
  0
VERTEX
  8
bagSugar01
 10
-22.916707
 20
25.130077
 30
5.933699
 70
   192
  0
VERTEX
  8
bagSugar01
 10
13.526022
 20
25.135126
 30
5.880889
 70
   192
  0
VERTEX
  8
bagSugar01
 10
13.519219
 20
20.507756
 30
0.744094
 70
   192
  0
VERTEX
  8
bagSugar01
 10
-22.923509
 20
20.502706
 30
0.796904
 70
   192
  0
VERTEX
  8
bagSugar01
 10
0.0
 20
0.0
 30
0.0
 70
   128
 71
   1
 72
   13
 73
   14
  0
VERTEX
  8
bagSugar01
 10
0.0
 20
0.0
 30
0.0
 70
   128
 71
   3
 72
   14
 73
   15
  0
VERTEX
  8
bagSugar01
 10
0.0
 20
0.0
 30
0.0
 70
   128
 71
   5
 72
   15
 73
   16
  0
VERTEX
  8
bagSugar01
 10
0.0
 20
0.0
 30
0.0
 70
   128
 71
   12
 72
   8
 73
   2
  0
VERTEX
  8
bagSugar01
 10
0.0
 20
0.0
 30
0.0
 70
   128
 71
   2
 72
   8
 73
   6
  0
VERTEX
  8
bagSugar01
 10
0.0
 20
0.0
 30
0.0
 70
   128
 71
   7
 72
   1
 73
   3
  0
VERTEX
  8
bagSugar01
 10
0.0
 20
0.0
 30
0.0
 70
   128
 71
   9
 72
   2
 73
   4
  0
VERTEX
  8
bagSugar01
 10
0.0
 20
0.0
 30
0.0
 70
   128
 71
   10
 72
   4
 73
   6
  0
VERTEX
  8
bagSugar01
 10
0.0
 20
0.0
 30
0.0
 70
   128
 71
   11
 72
   6
 73
   8
  0
VERTEX
  8
bagSugar01
 10
0.0
 20
0.0
 30
0.0
 70
   128
 71
   9
 72
   13
 73
   16
  0
VERTEX
  8
bagSugar01
 10
0.0
 20
0.0
 30
0.0
 70
   128
 71
   13
 72
   9
 73
   10
  0
VERTEX
  8
bagSugar01
 10
0.0
 20
0.0
 30
0.0
 70
   128
 71
   14
 72
   10
 73
   11
  0
VERTEX
  8
bagSugar01
 10
0.0
 20
0.0
 30
0.0
 70
   128
 71
   15
 72
   11
 73
   12
  0
VERTEX
  8
bagSugar01
 10
0.0
 20
0.0
 30
0.0
 70
   128
 71
   13
 72
   1
 73
   7
  0
VERTEX
  8
bagSugar01
 10
0.0
 20
0.0
 30
0.0
 70
   128
 71
   1
 72
   14
 73
   3
  0
VERTEX
  8
bagSugar01
 10
0.0
 20
0.0
 30
0.0
 70
   128
 71
   3
 72
   15
 73
   5
  0
VERTEX
  8
bagSugar01
 10
0.0
 20
0.0
 30
0.0
 70
   128
 71
   5
 72
   16
 73
   7
  0
VERTEX
  8
bagSugar01
 10
0.0
 20
0.0
 30
0.0
 70
   128
 71
   12
 72
   2
 73
   9
  0
VERTEX
  8
bagSugar01
 10
0.0
 20
0.0
 30
0.0
 70
   128
 71
   2
 72
   6
 73
   4
  0
VERTEX
  8
bagSugar01
 10
0.0
 20
0.0
 30
0.0
 70
   128
 71
   7
 72
   3
 73
   5
  0
VERTEX
  8
bagSugar01
 10
0.0
 20
0.0
 30
0.0
 70
   128
 71
   9
 72
   4
 73
   10
  0
VERTEX
  8
bagSugar01
 10
0.0
 20
0.0
 30
0.0
 70
   128
 71
   10
 72
   6
 73
   11
  0
VERTEX
  8
bagSugar01
 10
0.0
 20
0.0
 30
0.0
 70
   128
 71
   11
 72
   8
 73
   12
  0
VERTEX
  8
bagSugar01
 10
0.0
 20
0.0
 30
0.0
 70
   128
 71
   9
 72
   16
 73
   12
  0
VERTEX
  8
bagSugar01
 10
0.0
 20
0.0
 30
0.0
 70
   128
 71
   13
 72
   10
 73
   14
  0
VERTEX
  8
bagSugar01
 10
0.0
 20
0.0
 30
0.0
 70
   128
 71
   14
 72
   11
 73
   15
  0
VERTEX
  8
bagSugar01
 10
0.0
 20
0.0
 30
0.0
 70
   128
 71
   15
 72
   12
 73
   16
  0
VERTEX
  8
bagSugar01
 10
0.0
 20
0.0
 30
0.0
 70
   128
 71
   13
 72
   7
 73
   16
  0
SEQEND
  0
POLYLINE
  8
bagSugar01_2
 66
   1
 10
0.0
 20
0.0
 30
0.0
 70
   64
 71
   16
 72
   28
  0
VERTEX
  8
bagSugar01_2
 10
-22.837766
 20
18.536432
 30
0.103349
 70
   192
  0
VERTEX
  8
bagSugar01_2
 10
-22.856877
 20
60.861605
 30
-38.054672
 70
   192
  0
VERTEX
  8
bagSugar01_2
 10
13.604996
 20
18.536684
 30
0.085377
 70
   192
  0
VERTEX
  8
bagSugar01_2
 10
13.585885
 20
60.861857
 30
-38.072644
 70
   192
  0
VERTEX
  8
bagSugar01_2
 10
13.603840
 20
16.394952
 30
-2.290249
 70
   192
  0
VERTEX
  8
bagSugar01_2
 10
13.584728
 20
58.720124
 30
-40.448270
 70
   192
  0
VERTEX
  8
bagSugar01_2
 10
-22.838923
 20
16.394699
 30
-2.272277
 70
   192
  0
VERTEX
  8
bagSugar01_2
 10
-22.858034
 20
58.719872
 30
-40.430298
 70
   192
  0
VERTEX
  8
bagSugar01_2
 10
-22.854501
 20
58.331115
 30
-33.272280
 70
   192
  0
VERTEX
  8
bagSugar01_2
 10
13.588261
 20
58.331367
 30
-33.290253
 70
   192
  0
VERTEX
  8
bagSugar01_2
 10
13.585761
 20
53.701965
 30
-38.425220
 70
   192
  0
VERTEX
  8
bagSugar01_2
 10
-22.857002
 20
53.701713
 30
-38.407248
 70
   192
  0
VERTEX
  8
bagSugar01_2
 10
-22.839510
 20
25.131015
 30
-3.340916
 70
   192
  0
VERTEX
  8
bagSugar01_2
 10
13.603252
 20
25.131267
 30
-3.358889
 70
   192
  0
VERTEX
  8
bagSugar01_2
 10
13.600752
 20
20.501864
 30
-8.493856
 70
   192
  0
VERTEX
  8
bagSugar01_2
 10
-22.842011
 20
20.501612
 30
-8.475884
 70
   192
  0
VERTEX
  8
bagSugar01_2
 10
0.0
 20
0.0
 30
0.0
 70
   128
 71
   1
 72
   13
 73
   14
  0
VERTEX
  8
bagSugar01_2
 10
0.0
 20
0.0
 30
0.0
 70
   128
 71
   3
 72
   14
 73
   15
  0
VERTEX
  8
bagSugar01_2
 10
0.0
 20
0.0
 30
0.0
 70
   128
 71
   5
 72
   15
 73
   16
  0
VERTEX
  8
bagSugar01_2
 10
0.0
 20
0.0
 30
0.0
 70
   128
 71
   12
 72
   8
 73
   2
  0
VERTEX
  8
bagSugar01_2
 10
0.0
 20
0.0
 30
0.0
 70
   128
 71
   2
 72
   8
 73
   6
  0
VERTEX
  8
bagSugar01_2
 10
0.0
 20
0.0
 30
0.0
 70
   128
 71
   7
 72
   1
 73
   3
  0
VERTEX
  8
bagSugar01_2
 10
0.0
 20
0.0
 30
0.0
 70
   128
 71
   9
 72
   2
 73
   4
  0
VERTEX
  8
bagSugar01_2
 10
0.0
 20
0.0
 30
0.0
 70
   128
 71
   10
 72
   4
 73
   6
  0
VERTEX
  8
bagSugar01_2
 10
0.0
 20
0.0
 30
0.0
 70
   128
 71
   11
 72
   6
 73
   8
  0
VERTEX
  8
bagSugar01_2
 10
0.0
 20
0.0
 30
0.0
 70
   128
 71
   9
 72
   13
 73
   16
  0
VERTEX
  8
bagSugar01_2
 10
0.0
 20
0.0
 30
0.0
 70
   128
 71
   13
 72
   9
 73
   10
  0
VERTEX
  8
bagSugar01_2
 10
0.0
 20
0.0
 30
0.0
 70
   128
 71
   14
 72
   10
 73
   11
  0
VERTEX
  8
bagSugar01_2
 10
0.0
 20
0.0
 30
0.0
 70
   128
 71
   15
 72
   11
 73
   12
  0
VERTEX
  8
bagSugar01_2
 10
0.0
 20
0.0
 30
0.0
 70
   128
 71
   13
 72
   1
 73
   7
  0
VERTEX
  8
bagSugar01_2
 10
0.0
 20
0.0
 30
0.0
 70
   128
 71
   1
 72
   14
 73
   3
  0
VERTEX
  8
bagSugar01_2
 10
0.0
 20
0.0
 30
0.0
 70
   128
 71
   3
 72
   15
 73
   5
  0
VERTEX
  8
bagSugar01_2
 10
0.0
 20
0.0
 30
0.0
 70
   128
 71
   5
 72
   16
 73
   7
  0
VERTEX
  8
bagSugar01_2
 10
0.0
 20
0.0
 30
0.0
 70
   128
 71
   12
 72
   2
 73
   9
  0
VERTEX
  8
bagSugar01_2
 10
0.0
 20
0.0
 30
0.0
 70
   128
 71
   2
 72
   6
 73
   4
  0
VERTEX
  8
bagSugar01_2
 10
0.0
 20
0.0
 30
0.0
 70
   128
 71
   7
 72
   3
 73
   5
  0
VERTEX
  8
bagSugar01_2
 10
0.0
 20
0.0
 30
0.0
 70
   128
 71
   9
 72
   4
 73
   10
  0
VERTEX
  8
bagSugar01_2
 10
0.0
 20
0.0
 30
0.0
 70
   128
 71
   10
 72
   6
 73
   11
  0
VERTEX
  8
bagSugar01_2
 10
0.0
 20
0.0
 30
0.0
 70
   128
 71
   11
 72
   8
 73
   12
  0
VERTEX
  8
bagSugar01_2
 10
0.0
 20
0.0
 30
0.0
 70
   128
 71
   9
 72
   16
 73
   12
  0
VERTEX
  8
bagSugar01_2
 10
0.0
 20
0.0
 30
0.0
 70
   128
 71
   13
 72
   10
 73
   14
  0
VERTEX
  8
bagSugar01_2
 10
0.0
 20
0.0
 30
0.0
 70
   128
 71
   14
 72
   11
 73
   15
  0
VERTEX
  8
bagSugar01_2
 10
0.0
 20
0.0
 30
0.0
 70
   128
 71
   15
 72
   12
 73
   16
  0
VERTEX
  8
bagSugar01_2
 10
0.0
 20
0.0
 30
0.0
 70
   128
 71
   13
 72
   7
 73
   16
  0
SEQEND
  0
POLYLINE
  8
bagSugar01_3
 66
   1
 10
0.0
 20
0.0
 30
0.0
 70
   64
 71
   16
 72
   28
  0
VERTEX
  8
bagSugar01_3
 10
-18.938423
 20
18.533206
 30
-9.209406
 70
   192
  0
VERTEX
  8
bagSugar01_3
 10
-18.912415
 20
60.876345
 30
-47.347485
 70
   192
  0
VERTEX
  8
bagSugar01_3
 10
17.504338
 20
18.530036
 30
-9.188074
 70
   192
  0
VERTEX
  8
bagSugar01_3
 10
17.530346
 20
60.873175
 30
-47.326153
 70
   192
  0
VERTEX
  8
bagSugar01_3
 10
17.505543
 20
16.389423
 30
-11.564708
 70
   192
  0
VERTEX
  8
bagSugar01_3
 10
17.531551
 20
58.732561
 30
-49.702788
 70
   192
  0
VERTEX
  8
bagSugar01_3
 10
-18.937218
 20
16.392593
 30
-11.586040
 70
   192
  0
VERTEX
  8
bagSugar01_3
 10
-18.911210
 20
58.735731
 30
-49.724120
 70
   192
  0
VERTEX
  8
bagSugar01_3
 10
-18.915434
 20
58.343604
 30
-42.566286
 70
   192
  0
VERTEX
  8
bagSugar01_3
 10
17.527327
 20
58.340433
 30
-42.544954
 70
   192
  0
VERTEX
  8
bagSugar01_3
 10
17.529932
 20
53.713450
 30
-47.682101
 70
   192
  0
VERTEX
  8
bagSugar01_3
 10
-18.912829
 20
53.716620
 30
-47.703434
 70
   192
  0
VERTEX
  8
bagSugar01_3
 10
-18.935834
 20
25.129410
 30
-12.650565
 70
   192
  0
VERTEX
  8
bagSugar01_3
 10
17.506926
 20
25.126240
 30
-12.629233
 70
   192
  0
VERTEX
  8
bagSugar01_3
 10
17.509531
 20
20.499257
 30
-17.766380
 70
   192
  0
VERTEX
  8
bagSugar01_3
 10
-18.933230
 20
20.502427
 30
-17.787712
 70
   192
  0
VERTEX
  8
bagSugar01_3
 10
0.0
 20
0.0
 30
0.0
 70
   128
 71
   1
 72
   13
 73
   14
  0
VERTEX
  8
bagSugar01_3
 10
0.0
 20
0.0
 30
0.0
 70
   128
 71
   3
 72
   14
 73
   15
  0
VERTEX
  8
bagSugar01_3
 10
0.0
 20
0.0
 30
0.0
 70
   128
 71
   5
 72
   15
 73
   16
  0
VERTEX
  8
bagSugar01_3
 10
0.0
 20
0.0
 30
0.0
 70
   128
 71
   12
 72
   8
 73
   2
  0
VERTEX
  8
bagSugar01_3
 10
0.0
 20
0.0
 30
0.0
 70
   128
 71
   2
 72
   8
 73
   6
  0
VERTEX
  8
bagSugar01_3
 10
0.0
 20
0.0
 30
0.0
 70
   128
 71
   7
 72
   1
 73
   3
  0
VERTEX
  8
bagSugar01_3
 10
0.0
 20
0.0
 30
0.0
 70
   128
 71
   9
 72
   2
 73
   4
  0
VERTEX
  8
bagSugar01_3
 10
0.0
 20
0.0
 30
0.0
 70
   128
 71
   10
 72
   4
 73
   6
  0
VERTEX
  8
bagSugar01_3
 10
0.0
 20
0.0
 30
0.0
 70
   128
 71
   11
 72
   6
 73
   8
  0
VERTEX
  8
bagSugar01_3
 10
0.0
 20
0.0
 30
0.0
 70
   128
 71
   9
 72
   13
 73
   16
  0
VERTEX
  8
bagSugar01_3
 10
0.0
 20
0.0
 30
0.0
 70
   128
 71
   13
 72
   9
 73
   10
  0
VERTEX
  8
bagSugar01_3
 10
0.0
 20
0.0
 30
0.0
 70
   128
 71
   14
 72
   10
 73
   11
  0
VERTEX
  8
bagSugar01_3
 10
0.0
 20
0.0
 30
0.0
 70
   128
 71
   15
 72
   11
 73
   12
  0
VERTEX
  8
bagSugar01_3
 10
0.0
 20
0.0
 30
0.0
 70
   128
 71
   13
 72
   1
 73
   7
  0
VERTEX
  8
bagSugar01_3
 10
0.0
 20
0.0
 30
0.0
 70
   128
 71
   1
 72
   14
 73
   3
  0
VERTEX
  8
bagSugar01_3
 10
0.0
 20
0.0
 30
0.0
 70
   128
 71
   3
 72
   15
 73
   5
  0
VERTEX
  8
bagSugar01_3
 10
0.0
 20
0.0
 30
0.0
 70
   128
 71
   5
 72
   16
 73
   7
  0
VERTEX
  8
bagSugar01_3
 10
0.0
 20
0.0
 30
0.0
 70
   128
 71
   12
 72
   2
 73
   9
  0
VERTEX
  8
bagSugar01_3
 10
0.0
 20
0.0
 30
0.0
 70
   128
 71
   2
 72
   6
 73
   4
  0
VERTEX
  8
bagSugar01_3
 10
0.0
 20
0.0
 30
0.0
 70
   128
 71
   7
 72
   3
 73
   5
  0
VERTEX
  8
bagSugar01_3
 10
0.0
 20
0.0
 30
0.0
 70
   128
 71
   9
 72
   4
 73
   10
  0
VERTEX
  8
bagSugar01_3
 10
0.0
 20
0.0
 30
0.0
 70
   128
 71
   10
 72
   6
 73
   11
  0
VERTEX
  8
bagSugar01_3
 10
0.0
 20
0.0
 30
0.0
 70
   128
 71
   11
 72
   8
 73
   12
  0
VERTEX
  8
bagSugar01_3
 10
0.0
 20
0.0
 30
0.0
 70
   128
 71
   9
 72
   16
 73
   12
  0
VERTEX
  8
bagSugar01_3
 10
0.0
 20
0.0
 30
0.0
 70
   128
 71
   13
 72
   10
 73
   14
  0
VERTEX
  8
bagSugar01_3
 10
0.0
 20
0.0
 30
0.0
 70
   128
 71
   14
 72
   11
 73
   15
  0
VERTEX
  8
bagSugar01_3
 10
0.0
 20
0.0
 30
0.0
 70
   128
 71
   15
 72
   12
 73
   16
  0
VERTEX
  8
bagSugar01_3
 10
0.0
 20
0.0
 30
0.0
 70
   128
 71
   13
 72
   7
 73
   16
  0
SEQEND
  0
ENDSEC
  0
EOF
