999
FBX AutoCAD (*.DXF) exporter
  0
SECTION
  2
HEADER
  9
$ACADVER
  1
AC1008
  9
$UCSORG
 10
0.0
 20
0.0
 30
0.0
  9
$UCSXDIR
 10
1.0
 20
0.0
 30
0.0
  9
$TILEMODE
 70
   1
  9
$UCSYDIR
 10
0.0
 20
1.0
 30
0.0
  0
ENDSEC
  0
SECTION
  2
TABLES
  0
TABLE
  2
LTYPE
 70
   1
  0
LTYPE
  2
CONTINUOUS
 70
   64
  3
Solid line
 72
   65
 73
   0
 40
0.0
  0
ENDTAB
  0
TABLE
  2
LAYER
 70
   1
  0
LAYER
  2
popcorn
 70
   0
 62
   250
  6
CONTINUOUS
  0
ENDTAB
  0
ENDSEC
  0
SECTION
  2
BLOCKS
  0
ENDSEC
  0
SECTION
  2
ENTITIES
  0
POLYLINE
  8
popcorn
 66
   1
 10
0.0
 20
0.0
 30
0.0
 70
   64
 71
   622
 72
   1076
  0
VERTEX
  8
popcorn
 10
22.231504
 20
145.950328
 30
56.060979
 70
   192
  0
VERTEX
  8
popcorn
 10
7.509469
 20
174.363337
 30
48.474397
 70
   192
  0
VERTEX
  8
popcorn
 10
30.279261
 20
160.157206
 30
58.009471
 70
   192
  0
VERTEX
  8
popcorn
 10
28.711186
 20
155.753018
 30
44.557963
 70
   192
  0
VERTEX
  8
popcorn
 10
16.982920
 20
148.649393
 30
40.712825
 70
   192
  0
VERTEX
  8
popcorn
 10
6.822729
 20
145.949954
 30
50.319196
 70
   192
  0
VERTEX
  8
popcorn
 10
8.390804
 20
150.354142
 30
63.770704
 70
   192
  0
VERTEX
  8
popcorn
 10
20.119070
 20
157.457768
 30
67.615842
 70
   192
  0
VERTEX
  8
popcorn
 10
22.918244
 20
174.363711
 30
54.216180
 70
   192
  0
VERTEX
  8
popcorn
 10
21.350169
 20
169.959523
 30
40.764672
 70
   192
  0
VERTEX
  8
popcorn
 10
9.621903
 20
162.855897
 30
36.919534
 70
   192
  0
VERTEX
  8
popcorn
 10
-0.538288
 20
160.156459
 30
46.525905
 70
   192
  0
VERTEX
  8
popcorn
 10
1.029787
 20
164.560646
 30
59.977413
 70
   192
  0
VERTEX
  8
popcorn
 10
12.758053
 20
171.664272
 30
63.822551
 70
   192
  0
VERTEX
  8
popcorn
 10
50.987464
 20
145.949453
 30
50.753184
 70
   192
  0
VERTEX
  8
popcorn
 10
35.502864
 20
174.403542
 30
45.079949
 70
   192
  0
VERTEX
  8
popcorn
 10
59.107997
 20
160.169800
 30
52.248874
 70
   192
  0
VERTEX
  8
popcorn
 10
56.357260
 20
156.013113
 30
38.908926
 70
   192
  0
VERTEX
  8
popcorn
 10
44.365577
 20
148.906289
 30
35.994927
 70
   192
  0
VERTEX
  8
popcorn
 10
35.124631
 20
145.956151
 30
46.420876
 70
   192
  0
VERTEX
  8
popcorn
 10
37.875369
 20
150.112837
 30
59.760824
 70
   192
  0
VERTEX
  8
popcorn
 10
49.867052
 20
157.219662
 30
62.674823
 70
   192
  0
VERTEX
  8
popcorn
 10
51.365697
 20
174.396844
 30
49.412257
 70
   192
  0
VERTEX
  8
popcorn
 10
48.614960
 20
170.240158
 30
36.072309
 70
   192
  0
VERTEX
  8
popcorn
 10
36.623277
 20
163.133333
 30
33.158310
 70
   192
  0
VERTEX
  8
popcorn
 10
27.382331
 20
160.183195
 30
43.584259
 70
   192
  0
VERTEX
  8
popcorn
 10
30.133069
 20
164.339882
 30
56.924207
 70
   192
  0
VERTEX
  8
popcorn
 10
42.124752
 20
171.446706
 30
59.838206
 70
   192
  0
VERTEX
  8
popcorn
 10
-18.707765
 20
173.876679
 30
67.758296
 70
   192
  0
VERTEX
  8
popcorn
 10
-49.121313
 20
173.845812
 30
80.272639
 70
   192
  0
VERTEX
  8
popcorn
 10
-26.162074
 20
159.632757
 30
71.214071
 70
   192
  0
VERTEX
  8
popcorn
 10
-21.545496
 20
167.062024
 30
82.452042
 70
   192
  0
VERTEX
  8
popcorn
 10
-21.694574
 20
181.298229
 30
82.124853
 70
   192
  0
VERTEX
  8
popcorn
 10
-26.460229
 20
188.105167
 30
70.559693
 70
   192
  0
VERTEX
  8
popcorn
 10
-31.076807
 20
180.675899
 30
59.321721
 70
   192
  0
VERTEX
  8
popcorn
 10
-30.927729
 20
166.439695
 30
59.648910
 70
   192
  0
VERTEX
  8
popcorn
 10
-41.368848
 20
159.617324
 30
77.471242
 70
   192
  0
VERTEX
  8
popcorn
 10
-36.752270
 20
167.046591
 30
88.709214
 70
   192
  0
VERTEX
  8
popcorn
 10
-36.901348
 20
181.282796
 30
88.382025
 70
   192
  0
VERTEX
  8
popcorn
 10
-41.667003
 20
188.089733
 30
76.816864
 70
   192
  0
VERTEX
  8
popcorn
 10
-46.283581
 20
180.660466
 30
65.578893
 70
   192
  0
VERTEX
  8
popcorn
 10
-46.134503
 20
166.424261
 30
65.906082
 70
   192
  0
VERTEX
  8
popcorn
 10
16.887663
 20
172.798264
 30
83.353926
 70
   192
  0
VERTEX
  8
popcorn
 10
42.202102
 20
171.629535
 30
62.391891
 70
   192
  0
VERTEX
  8
popcorn
 10
27.681954
 20
185.190756
 30
82.799091
 70
   192
  0
VERTEX
  8
popcorn
 10
32.306733
 20
173.259922
 30
89.049324
 70
   192
  0
VERTEX
  8
popcorn
 10
27.841052
 20
160.575247
 30
84.363651
 70
   192
  0
VERTEX
  8
popcorn
 10
18.750592
 20
159.821407
 30
73.427744
 70
   192
  0
VERTEX
  8
popcorn
 10
14.125812
 20
171.752242
 30
67.177510
 70
   192
  0
VERTEX
  8
popcorn
 10
18.591493
 20
184.436916
 30
71.863184
 70
   192
  0
VERTEX
  8
popcorn
 10
40.339173
 20
184.606391
 30
72.318074
 70
   192
  0
VERTEX
  8
popcorn
 10
44.963952
 20
172.675557
 30
78.568307
 70
   192
  0
VERTEX
  8
popcorn
 10
40.498271
 20
159.990883
 30
73.882633
 70
   192
  0
VERTEX
  8
popcorn
 10
31.407811
 20
159.237043
 30
62.946726
 70
   192
  0
VERTEX
  8
popcorn
 10
26.783032
 20
171.167877
 30
56.696493
 70
   192
  0
VERTEX
  8
popcorn
 10
31.248713
 20
183.852551
 30
61.382167
 70
   192
  0
VERTEX
  8
popcorn
 10
-44.455558
 20
202.840749
 30
47.290264
 70
   192
  0
VERTEX
  8
popcorn
 10
-49.347195
 20
184.958078
 30
74.454130
 70
   192
  0
VERTEX
  8
popcorn
 10
-57.054104
 20
192.299472
 30
48.036282
 70
   192
  0
VERTEX
  8
popcorn
 10
-44.177379
 20
186.419093
 30
46.483902
 70
   192
  0
VERTEX
  8
popcorn
 10
-32.801742
 20
192.489701
 30
52.528850
 70
   192
  0
VERTEX
  8
popcorn
 10
-34.302831
 20
204.440690
 30
60.126180
 70
   192
  0
VERTEX
  8
popcorn
 10
-47.179556
 20
210.321070
 30
61.678560
 70
   192
  0
VERTEX
  8
popcorn
 10
-58.555193
 20
204.250461
 30
55.633611
 70
   192
  0
VERTEX
  8
popcorn
 10
-59.499922
 20
183.358137
 30
61.618214
 70
   192
  0
VERTEX
  8
popcorn
 10
-46.623197
 20
177.477757
 30
60.065834
 70
   192
  0
VERTEX
  8
popcorn
 10
-35.247560
 20
183.548366
 30
66.110783
 70
   192
  0
VERTEX
  8
popcorn
 10
-36.748649
 20
195.499354
 30
73.708112
 70
   192
  0
VERTEX
  8
popcorn
 10
-49.625374
 20
201.379734
 30
75.260492
 70
   192
  0
VERTEX
  8
popcorn
 10
-61.001011
 20
195.309125
 30
69.215544
 70
   192
  0
VERTEX
  8
popcorn
 10
61.420854
 20
146.462039
 30
23.458022
 70
   192
  0
VERTEX
  8
popcorn
 10
42.509536
 20
173.237340
 30
20.804919
 70
   192
  0
VERTEX
  8
popcorn
 10
65.700758
 20
160.346737
 30
31.158411
 70
   192
  0
VERTEX
  8
popcorn
 10
67.596252
 20
160.287004
 30
17.044505
 70
   192
  0
VERTEX
  8
popcorn
 10
58.588518
 20
153.096132
 30
8.680840
 70
   192
  0
VERTEX
  8
popcorn
 10
47.685290
 20
145.964992
 30
14.431081
 70
   192
  0
VERTEX
  8
popcorn
 10
45.789797
 20
146.024724
 30
28.544987
 70
   192
  0
VERTEX
  8
popcorn
 10
54.797531
 20
153.215597
 30
36.908652
 70
   192
  0
VERTEX
  8
popcorn
 10
56.245100
 20
173.734387
 30
29.831860
 70
   192
  0
VERTEX
  8
popcorn
 10
58.140593
 20
173.674655
 30
15.717954
 70
   192
  0
VERTEX
  8
popcorn
 10
49.132859
 20
166.483782
 30
7.354289
 70
   192
  0
VERTEX
  8
popcorn
 10
38.229632
 20
159.352642
 30
13.104530
 70
   192
  0
VERTEX
  8
popcorn
 10
36.334138
 20
159.412375
 30
27.218436
 70
   192
  0
VERTEX
  8
popcorn
 10
45.341872
 20
166.603247
 30
35.582101
 70
   192
  0
VERTEX
  8
popcorn
 10
-70.317054
 20
153.764325
 30
14.016461
 70
   192
  0
VERTEX
  8
popcorn
 10
-59.258067
 20
183.483493
 30
22.737901
 70
   192
  0
VERTEX
  8
popcorn
 10
-59.369398
 20
155.213468
 30
26.200352
 70
   192
  0
VERTEX
  8
popcorn
 10
-54.258652
 20
157.169906
 30
13.053054
 70
   192
  0
VERTEX
  8
popcorn
 10
-62.441562
 20
163.150555
 30
3.049523
 70
   192
  0
VERTEX
  8
popcorn
 10
-75.735217
 20
167.174766
 30
6.193289
 70
   192
  0
VERTEX
  8
popcorn
 10
-80.845963
 20
165.218328
 30
19.340587
 70
   192
  0
VERTEX
  8
popcorn
 10
-72.663053
 20
159.237679
 30
29.344118
 70
   192
  0
VERTEX
  8
popcorn
 10
-53.839904
 20
170.073052
 30
30.561072
 70
   192
  0
VERTEX
  8
popcorn
 10
-48.729159
 20
172.029490
 30
17.413775
 70
   192
  0
VERTEX
  8
popcorn
 10
-56.912068
 20
178.010139
 30
7.410243
 70
   192
  0
VERTEX
  8
popcorn
 10
-70.205723
 20
182.034349
 30
10.554010
 70
   192
  0
VERTEX
  8
popcorn
 10
-75.316469
 20
180.077912
 30
23.701307
 70
   192
  0
VERTEX
  8
popcorn
 10
-67.133559
 20
174.097263
 30
33.704839
 70
   192
  0
VERTEX
  8
popcorn
 10
19.435912
 20
170.624400
 30
38.021135
 70
   192
  0
VERTEX
  8
popcorn
 10
-4.587570
 20
192.229169
 30
31.881113
 70
   192
  0
VERTEX
  8
popcorn
 10
20.721242
 20
186.103526
 30
43.419559
 70
   192
  0
VERTEX
  8
popcorn
 10
22.649628
 20
184.271826
 30
29.429384
 70
   192
  0
VERTEX
  8
popcorn
 10
15.358427
 20
174.193893
 30
22.495954
 70
   192
  0
VERTEX
  8
popcorn
 10
6.138841
 20
165.947658
 30
29.552699
 70
   192
  0
VERTEX
  8
popcorn
 10
4.210455
 20
167.779358
 30
43.542875
 70
   192
  0
VERTEX
  8
popcorn
 10
11.501656
 20
177.857291
 30
50.476305
 70
   192
  0
VERTEX
  8
popcorn
 10
8.709501
 20
196.905911
 30
40.349549
 70
   192
  0
VERTEX
  8
popcorn
 10
10.637887
 20
195.074211
 30
26.359373
 70
   192
  0
VERTEX
  8
popcorn
 10
3.346686
 20
184.996277
 30
19.425943
 70
   192
  0
VERTEX
  8
popcorn
 10
-5.872900
 20
176.750043
 30
26.482688
 70
   192
  0
VERTEX
  8
popcorn
 10
-7.801286
 20
178.581742
 30
40.472864
 70
   192
  0
VERTEX
  8
popcorn
 10
-0.510085
 20
188.659676
 30
47.406294
 70
   192
  0
VERTEX
  8
popcorn
 10
67.397902
 20
171.026877
 30
30.236047
 70
   192
  0
VERTEX
  8
popcorn
 10
68.392085
 20
172.729939
 30
63.064462
 70
   192
  0
VERTEX
  8
popcorn
 10
63.502458
 20
157.853539
 30
39.274138
 70
   192
  0
VERTEX
  8
popcorn
 10
77.367697
 20
161.048992
 30
38.688468
 70
   192
  0
VERTEX
  8
popcorn
 10
81.511687
 20
174.648096
 30
37.857480
 70
   192
  0
VERTEX
  8
popcorn
 10
71.790438
 20
185.051746
 30
37.612163
 70
   192
  0
VERTEX
  8
popcorn
 10
57.925198
 20
181.856292
 30
38.197834
 70
   192
  0
VERTEX
  8
popcorn
 10
53.781208
 20
168.257189
 30
39.028821
 70
   192
  0
VERTEX
  8
popcorn
 10
63.999549
 20
158.705070
 30
55.688346
 70
   192
  0
VERTEX
  8
popcorn
 10
77.864789
 20
161.900524
 30
55.102675
 70
   192
  0
VERTEX
  8
popcorn
 10
82.008779
 20
175.499627
 30
54.271687
 70
   192
  0
VERTEX
  8
popcorn
 10
72.287529
 20
185.903277
 30
54.026370
 70
   192
  0
VERTEX
  8
popcorn
 10
58.422289
 20
182.707823
 30
54.612041
 70
   192
  0
VERTEX
  8
popcorn
 10
54.278299
 20
169.108720
 30
55.443029
 70
   192
  0
VERTEX
  8
popcorn
 10
-58.578392
 20
173.254606
 30
46.980187
 70
   192
  0
VERTEX
  8
popcorn
 10
-49.815430
 20
196.186529
 30
25.095694
 70
   192
  0
VERTEX
  8
popcorn
 10
-43.596405
 20
172.863467
 30
40.213689
 70
   192
  0
VERTEX
  8
popcorn
 10
-54.303478
 20
168.853076
 30
31.724039
 70
   192
  0
VERTEX
  8
popcorn
 10
-67.094724
 20
174.977195
 30
33.019414
 70
   192
  0
VERTEX
  8
popcorn
 10
-69.178897
 20
185.111706
 30
42.804439
 70
   192
  0
VERTEX
  8
popcorn
 10
-58.471824
 20
189.122098
 30
51.294089
 70
   192
  0
VERTEX
  8
popcorn
 10
-45.680578
 20
182.997979
 30
49.998714
 70
   192
  0
VERTEX
  8
popcorn
 10
-39.214924
 20
184.329429
 30
29.271442
 70
   192
  0
VERTEX
  8
popcorn
 10
-49.921997
 20
180.319037
 30
20.781793
 70
   192
  0
VERTEX
  8
popcorn
 10
-62.713243
 20
186.443156
 30
22.077168
 70
   192
  0
VERTEX
  8
popcorn
 10
-64.797416
 20
196.577668
 30
31.862193
 70
   192
  0
VERTEX
  8
popcorn
 10
-54.090343
 20
200.588060
 30
40.351842
 70
   192
  0
VERTEX
  8
popcorn
 10
-41.299097
 20
194.463940
 30
39.056467
 70
   192
  0
VERTEX
  8
popcorn
 10
5.559372
 20
175.614551
 30
57.249453
 70
   192
  0
VERTEX
  8
popcorn
 10
-15.913958
 20
198.348848
 30
67.429899
 70
   192
  0
VERTEX
  8
popcorn
 10
10.791703
 20
188.563559
 30
65.929563
 70
   192
  0
VERTEX
  8
popcorn
 10
7.216426
 20
191.241739
 30
52.407597
 70
   192
  0
VERTEX
  8
popcorn
 10
-3.384238
 20
183.976305
 30
46.272599
 70
   192
  0
VERTEX
  8
popcorn
 10
-10.409624
 20
174.032691
 30
53.659566
 70
   192
  0
VERTEX
  8
popcorn
 10
-6.834347
 20
171.354511
 30
67.181532
 70
   192
  0
VERTEX
  8
popcorn
 10
3.766317
 20
178.619945
 30
73.316530
 70
   192
  0
VERTEX
  8
popcorn
 10
0.055038
 20
199.930708
 30
71.019786
 70
   192
  0
VERTEX
  8
popcorn
 10
-3.520239
 20
202.608887
 30
57.497820
 70
   192
  0
VERTEX
  8
popcorn
 10
-14.120903
 20
195.343453
 30
51.362822
 70
   192
  0
VERTEX
  8
popcorn
 10
-21.146289
 20
185.399839
 30
58.749789
 70
   192
  0
VERTEX
  8
popcorn
 10
-17.571012
 20
182.721659
 30
72.271755
 70
   192
  0
VERTEX
  8
popcorn
 10
-6.970349
 20
189.987094
 30
78.406753
 70
   192
  0
VERTEX
  8
popcorn
 10
-35.897178
 20
199.971507
 30
20.227383
 70
   192
  0
VERTEX
  8
popcorn
 10
-49.463781
 20
175.348262
 30
3.161724
 70
   192
  0
VERTEX
  8
popcorn
 10
-38.376036
 20
201.567872
 30
4.050075
 70
   192
  0
VERTEX
  8
popcorn
 10
-27.625658
 20
193.026444
 30
7.827929
 70
   192
  0
VERTEX
  8
popcorn
 10
-28.538451
 20
185.274268
 30
19.738822
 70
   192
  0
VERTEX
  8
popcorn
 10
-40.201622
 20
186.063520
 30
27.871861
 70
   192
  0
VERTEX
  8
popcorn
 10
-50.952000
 20
194.604948
 30
24.094007
 70
   192
  0
VERTEX
  8
popcorn
 10
-50.039207
 20
202.357124
 30
12.183114
 70
   192
  0
VERTEX
  8
popcorn
 10
-45.159337
 20
189.256250
 30
-4.482754
 70
   192
  0
VERTEX
  8
popcorn
 10
-34.408959
 20
180.714822
 30
-0.704900
 70
   192
  0
VERTEX
  8
popcorn
 10
-35.321753
 20
172.962645
 30
11.205993
 70
   192
  0
VERTEX
  8
popcorn
 10
-46.984924
 20
173.751897
 30
19.339032
 70
   192
  0
VERTEX
  8
popcorn
 10
-57.735302
 20
182.293326
 30
15.561178
 70
   192
  0
VERTEX
  8
popcorn
 10
-56.822509
 20
190.045502
 30
3.650285
 70
   192
  0
VERTEX
  8
popcorn
 10
11.098866
 20
172.112586
 30
84.282625
 70
   192
  0
VERTEX
  8
popcorn
 10
-21.705187
 20
172.116876
 30
81.940043
 70
   192
  0
VERTEX
  8
popcorn
 10
3.912220
 20
172.107375
 30
69.492409
 70
   192
  0
VERTEX
  8
popcorn
 10
3.403044
 20
159.777671
 30
76.600008
 70
   192
  0
VERTEX
  8
popcorn
 10
2.388677
 20
159.783955
 30
90.804578
 70
   192
  0
VERTEX
  8
popcorn
 10
1.883486
 20
172.119942
 30
97.901550
 70
   192
  0
VERTEX
  8
popcorn
 10
2.392662
 20
184.449646
 30
90.793951
 70
   192
  0
VERTEX
  8
popcorn
 10
3.407029
 20
184.443362
 30
76.589381
 70
   192
  0
VERTEX
  8
popcorn
 10
-12.489807
 20
172.109520
 30
68.321118
 70
   192
  0
VERTEX
  8
popcorn
 10
-12.998983
 20
159.779817
 30
75.428717
 70
   192
  0
VERTEX
  8
popcorn
 10
-14.013350
 20
159.786100
 30
89.633288
 70
   192
  0
VERTEX
  8
popcorn
 10
-14.518540
 20
172.122088
 30
96.730259
 70
   192
  0
VERTEX
  8
popcorn
 10
-14.009365
 20
184.451791
 30
89.622661
 70
   192
  0
VERTEX
  8
popcorn
 10
-12.994998
 20
184.445507
 30
75.418090
 70
   192
  0
VERTEX
  8
popcorn
 10
34.220943
 20
166.925088
 30
21.148961
 70
   192
  0
VERTEX
  8
popcorn
 10
34.406571
 20
192.541244
 30
41.773502
 70
   192
  0
VERTEX
  8
popcorn
 10
47.772280
 20
176.102966
 30
22.738375
 70
   192
  0
VERTEX
  8
popcorn
 10
37.107410
 20
182.068060
 30
15.425578
 70
   192
  0
VERTEX
  8
popcorn
 10
23.602480
 20
179.294221
 30
18.992299
 70
   192
  0
VERTEX
  8
popcorn
 10
20.762421
 20
170.555288
 30
29.871817
 70
   192
  0
VERTEX
  8
popcorn
 10
31.427291
 20
164.590194
 30
37.184615
 70
   192
  0
VERTEX
  8
popcorn
 10
44.932220
 20
167.364033
 30
33.617894
 70
   192
  0
VERTEX
  8
popcorn
 10
47.865094
 20
188.911044
 30
33.050646
 70
   192
  0
VERTEX
  8
popcorn
 10
37.200224
 20
194.876138
 30
25.737848
 70
   192
  0
VERTEX
  8
popcorn
 10
23.695294
 20
192.102299
 30
29.304569
 70
   192
  0
VERTEX
  8
popcorn
 10
20.855235
 20
183.363366
 30
40.184088
 70
   192
  0
VERTEX
  8
popcorn
 10
31.520105
 20
177.398272
 30
47.496885
 70
   192
  0
VERTEX
  8
popcorn
 10
45.025034
 20
180.172111
 30
43.930164
 70
   192
  0
VERTEX
  8
popcorn
 10
-28.991592
 20
188.133757
 30
24.294488
 70
   192
  0
VERTEX
  8
popcorn
 10
0.805604
 20
196.422204
 30
13.113146
 70
   192
  0
VERTEX
  8
popcorn
 10
-23.400481
 20
203.457842
 30
26.370616
 70
   192
  0
VERTEX
  8
popcorn
 10
-17.506275
 20
193.556599
 30
34.738562
 70
   192
  0
VERTEX
  8
popcorn
 10
-15.648088
 20
180.304626
 30
29.867099
 70
   192
  0
VERTEX
  8
popcorn
 10
-19.684106
 20
176.953896
 30
16.627689
 70
   192
  0
VERTEX
  8
popcorn
 10
-25.578311
 20
186.855140
 30
8.259742
 70
   192
  0
VERTEX
  8
popcorn
 10
-27.436499
 20
200.107113
 30
13.131206
 70
   192
  0
VERTEX
  8
popcorn
 10
-8.501883
 20
207.602066
 30
20.779945
 70
   192
  0
VERTEX
  8
popcorn
 10
-2.607677
 20
197.700822
 30
29.147892
 70
   192
  0
VERTEX
  8
popcorn
 10
-0.749490
 20
184.448849
 30
24.276428
 70
   192
  0
VERTEX
  8
popcorn
 10
-4.785508
 20
181.098120
 30
11.037018
 70
   192
  0
VERTEX
  8
popcorn
 10
-10.679713
 20
190.999363
 30
2.669072
 70
   192
  0
VERTEX
  8
popcorn
 10
-12.537901
 20
204.251336
 30
7.540535
 70
   192
  0
VERTEX
  8
popcorn
 10
1.540905
 20
196.485529
 30
-2.783247
 70
   192
  0
VERTEX
  8
popcorn
 10
-12.792255
 20
225.746065
 30
1.686113
 70
   192
  0
VERTEX
  8
popcorn
 10
8.668495
 20
207.746742
 30
6.849040
 70
   192
  0
VERTEX
  8
popcorn
 10
9.409527
 20
210.248105
 30
-7.150705
 70
   192
  0
VERTEX
  8
popcorn
 10
-1.301352
 20
206.302026
 30
-15.665652
 70
   192
  0
VERTEX
  8
popcorn
 10
-12.753264
 20
199.854584
 30
-10.180855
 70
   192
  0
VERTEX
  8
popcorn
 10
-13.494296
 20
197.353220
 30
3.818890
 70
   192
  0
VERTEX
  8
popcorn
 10
-2.783417
 20
201.299299
 30
12.333837
 70
   192
  0
VERTEX
  8
popcorn
 10
1.501915
 20
222.377010
 30
9.083720
 70
   192
  0
VERTEX
  8
popcorn
 10
2.242947
 20
224.878373
 30
-4.916025
 70
   192
  0
VERTEX
  8
popcorn
 10
-8.467933
 20
220.932294
 30
-13.430972
 70
   192
  0
VERTEX
  8
popcorn
 10
-19.919844
 20
214.484852
 30
-7.946175
 70
   192
  0
VERTEX
  8
popcorn
 10
-20.660877
 20
211.983488
 30
6.053570
 70
   192
  0
VERTEX
  8
popcorn
 10
-9.949997
 20
215.929567
 30
14.568518
 70
   192
  0
VERTEX
  8
popcorn
 10
58.059978
 20
168.173663
 30
8.467082
 70
   192
  0
VERTEX
  8
popcorn
 10
74.915607
 20
196.397621
 30
7.523889
 70
   192
  0
VERTEX
  8
popcorn
 10
73.625976
 20
168.280845
 30
3.167400
 70
   192
  0
VERTEX
  8
popcorn
 10
64.013771
 20
173.720939
 30
-5.822021
 70
   192
  0
VERTEX
  8
popcorn
 10
52.661681
 20
180.669747
 30
-0.758137
 70
   192
  0
VERTEX
  8
popcorn
 10
50.921795
 20
182.178460
 30
13.295168
 70
   192
  0
VERTEX
  8
popcorn
 10
60.534000
 20
176.738365
 30
22.284589
 70
   192
  0
VERTEX
  8
popcorn
 10
71.886090
 20
169.789558
 30
17.220705
 70
   192
  0
VERTEX
  8
popcorn
 10
82.053790
 20
182.392824
 30
2.695804
 70
   192
  0
VERTEX
  8
popcorn
 10
72.441586
 20
187.832918
 30
-6.293618
 70
   192
  0
VERTEX
  8
popcorn
 10
61.089495
 20
194.781726
 30
-1.229734
 70
   192
  0
VERTEX
  8
popcorn
 10
59.349609
 20
196.290438
 30
12.823572
 70
   192
  0
VERTEX
  8
popcorn
 10
68.961814
 20
190.850344
 30
21.812993
 70
   192
  0
VERTEX
  8
popcorn
 10
80.313905
 20
183.901537
 30
16.749109
 70
   192
  0
VERTEX
  8
popcorn
 10
-28.352179
 20
220.523238
 30
33.528098
 70
   192
  0
VERTEX
  8
popcorn
 10
-36.757692
 20
189.528736
 30
40.619067
 70
   192
  0
VERTEX
  8
popcorn
 10
-36.347604
 20
217.163749
 30
47.498976
 70
   192
  0
VERTEX
  8
popcorn
 10
-44.175957
 20
216.568564
 30
35.617837
 70
   192
  0
VERTEX
  8
popcorn
 10
-38.281910
 20
212.179428
 30
23.419702
 70
   192
  0
VERTEX
  8
popcorn
 10
-24.559510
 20
208.385477
 30
23.102705
 70
   192
  0
VERTEX
  8
popcorn
 10
-16.731157
 20
208.980662
 30
34.983844
 70
   192
  0
VERTEX
  8
popcorn
 10
-22.625204
 20
213.369798
 30
47.181979
 70
   192
  0
VERTEX
  8
popcorn
 10
-40.550361
 20
201.666498
 30
51.044460
 70
   192
  0
VERTEX
  8
popcorn
 10
-48.378713
 20
201.071313
 30
39.163321
 70
   192
  0
VERTEX
  8
popcorn
 10
-42.484666
 20
196.682177
 30
26.965186
 70
   192
  0
VERTEX
  8
popcorn
 10
-28.762267
 20
192.888226
 30
26.648189
 70
   192
  0
VERTEX
  8
popcorn
 10
-20.933914
 20
193.483411
 30
38.529328
 70
   192
  0
VERTEX
  8
popcorn
 10
-26.827961
 20
197.872547
 30
50.727463
 70
   192
  0
VERTEX
  8
popcorn
 10
22.540267
 20
199.655096
 30
40.571580
 70
   192
  0
VERTEX
  8
popcorn
 10
23.276388
 20
189.796869
 30
71.938236
 70
   192
  0
VERTEX
  8
popcorn
 10
18.011574
 20
209.978587
 30
52.542999
 70
   192
  0
VERTEX
  8
popcorn
 10
8.733264
 20
199.611920
 30
49.502604
 70
   192
  0
VERTEX
  8
popcorn
 10
13.445987
 20
186.823872
 30
45.372849
 70
   192
  0
VERTEX
  8
popcorn
 10
27.437021
 20
184.402491
 30
44.283488
 70
   192
  0
VERTEX
  8
popcorn
 10
36.715331
 20
194.769158
 30
47.323883
 70
   192
  0
VERTEX
  8
popcorn
 10
32.002607
 20
207.557206
 30
51.453638
 70
   192
  0
VERTEX
  8
popcorn
 10
18.379634
 20
205.049473
 30
68.226327
 70
   192
  0
VERTEX
  8
popcorn
 10
9.101324
 20
194.682807
 30
65.185933
 70
   192
  0
VERTEX
  8
popcorn
 10
13.814048
 20
181.894759
 30
61.056177
 70
   192
  0
VERTEX
  8
popcorn
 10
27.805081
 20
179.473378
 30
59.966816
 70
   192
  0
VERTEX
  8
popcorn
 10
37.083391
 20
189.840044
 30
63.007211
 70
   192
  0
VERTEX
  8
popcorn
 10
32.370667
 20
202.628092
 30
67.136966
 70
   192
  0
VERTEX
  8
popcorn
 10
-62.540583
 20
145.966586
 30
-15.546067
 70
   192
  0
VERTEX
  8
popcorn
 10
-48.915407
 20
173.428678
 30
-3.638853
 70
   192
  0
VERTEX
  8
popcorn
 10
-46.665929
 20
146.077758
 30
-11.258711
 70
   192
  0
VERTEX
  8
popcorn
 10
-49.834539
 20
152.894192
 30
-23.353956
 70
   192
  0
VERTEX
  8
popcorn
 10
-62.302899
 20
159.648543
 30
-24.664508
 70
   192
  0
VERTEX
  8
popcorn
 10
-71.602649
 20
159.586460
 30
-13.879815
 70
   192
  0
VERTEX
  8
popcorn
 10
-68.434039
 20
152.770027
 30
-1.784571
 70
   192
  0
VERTEX
  8
popcorn
 10
-55.965679
 20
146.015675
 30
-0.474019
 70
   192
  0
VERTEX
  8
popcorn
 10
-39.853341
 20
159.808804
 30
-5.305105
 70
   192
  0
VERTEX
  8
popcorn
 10
-43.021951
 20
166.625237
 30
-17.400349
 70
   192
  0
VERTEX
  8
popcorn
 10
-55.490311
 20
173.379589
 30
-18.710901
 70
   192
  0
VERTEX
  8
popcorn
 10
-64.790061
 20
173.317506
 30
-7.926209
 70
   192
  0
VERTEX
  8
popcorn
 10
-61.621451
 20
166.501072
 30
4.169036
 70
   192
  0
VERTEX
  8
popcorn
 10
-49.153091
 20
159.746721
 30
5.479588
 70
   192
  0
VERTEX
  8
popcorn
 10
48.066585
 20
148.094423
 30
-7.633245
 70
   192
  0
VERTEX
  8
popcorn
 10
70.078789
 20
172.516214
 30
-8.428589
 70
   192
  0
VERTEX
  8
popcorn
 10
62.954460
 20
145.964022
 30
-0.984112
 70
   192
  0
VERTEX
  8
popcorn
 10
62.493463
 20
145.916002
 30
-15.217312
 70
   192
  0
VERTEX
  8
popcorn
 10
53.108638
 20
154.151851
 30
-22.065281
 70
   192
  0
VERTEX
  8
popcorn
 10
44.184812
 20
162.435719
 30
-14.680049
 70
   192
  0
VERTEX
  8
popcorn
 10
44.645809
 20
162.483739
 30
-0.446849
 70
   192
  0
VERTEX
  8
popcorn
 10
54.030634
 20
154.247890
 30
6.401119
 70
   192
  0
VERTEX
  8
popcorn
 10
73.960563
 20
158.174918
 30
-1.381785
 70
   192
  0
VERTEX
  8
popcorn
 10
73.499565
 20
158.126898
 30
-15.614985
 70
   192
  0
VERTEX
  8
popcorn
 10
64.114741
 20
166.362747
 30
-22.462953
 70
   192
  0
VERTEX
  8
popcorn
 10
55.190914
 20
174.646615
 30
-15.077722
 70
   192
  0
VERTEX
  8
popcorn
 10
55.651911
 20
174.694635
 30
-0.844522
 70
   192
  0
VERTEX
  8
popcorn
 10
65.036736
 20
166.458786
 30
6.003447
 70
   192
  0
VERTEX
  8
popcorn
 10
-74.970679
 20
188.067227
 30
-25.572065
 70
   192
  0
VERTEX
  8
popcorn
 10
-66.237379
 20
158.244022
 30
-36.337730
 70
   192
  0
VERTEX
  8
popcorn
 10
-59.059686
 20
184.246052
 30
-27.196045
 70
   192
  0
VERTEX
  8
popcorn
 10
-65.731427
 20
178.291585
 30
-16.113130
 70
   192
  0
VERTEX
  8
popcorn
 10
-79.459095
 20
174.656959
 30
-17.180566
 70
   192
  0
VERTEX
  8
popcorn
 10
-86.515022
 20
176.976800
 30
-29.330917
 70
   192
  0
VERTEX
  8
popcorn
 10
-79.843281
 20
182.931266
 30
-40.413832
 70
   192
  0
VERTEX
  8
popcorn
 10
-66.115613
 20
186.565892
 30
-39.346396
 70
   192
  0
VERTEX
  8
popcorn
 10
-54.693035
 20
169.334449
 30
-32.578878
 70
   192
  0
VERTEX
  8
popcorn
 10
-61.364776
 20
163.379983
 30
-21.495962
 70
   192
  0
VERTEX
  8
popcorn
 10
-75.092445
 20
159.745357
 30
-22.563398
 70
   192
  0
VERTEX
  8
popcorn
 10
-82.148372
 20
162.065197
 30
-34.713750
 70
   192
  0
VERTEX
  8
popcorn
 10
-75.476631
 20
168.019663
 30
-45.796665
 70
   192
  0
VERTEX
  8
popcorn
 10
-61.748963
 20
171.654289
 30
-44.729229
 70
   192
  0
VERTEX
  8
popcorn
 10
-42.745950
 20
168.071821
 30
-11.349025
 70
   192
  0
VERTEX
  8
popcorn
 10
-45.489124
 20
198.979124
 30
-22.248898
 70
   192
  0
VERTEX
  8
popcorn
 10
-32.381041
 20
179.642457
 30
-5.955749
 70
   192
  0
VERTEX
  8
popcorn
 10
-30.195856
 20
175.135149
 30
-19.286463
 70
   192
  0
VERTEX
  8
popcorn
 10
-41.246558
 20
171.291338
 30
-27.404708
 70
   192
  0
VERTEX
  8
popcorn
 10
-54.482446
 20
171.954836
 30
-22.192238
 70
   192
  0
VERTEX
  8
popcorn
 10
-56.667632
 20
176.462144
 30
-8.861524
 70
   192
  0
VERTEX
  8
popcorn
 10
-45.616929
 20
180.305955
 30
-0.743279
 70
   192
  0
VERTEX
  8
popcorn
 10
-33.752627
 20
195.096109
 30
-11.405686
 70
   192
  0
VERTEX
  8
popcorn
 10
-31.567442
 20
190.588801
 30
-24.736400
 70
   192
  0
VERTEX
  8
popcorn
 10
-42.618145
 20
186.744990
 30
-32.854644
 70
   192
  0
VERTEX
  8
popcorn
 10
-55.854033
 20
187.408488
 30
-27.642174
 70
   192
  0
VERTEX
  8
popcorn
 10
-58.039218
 20
191.915796
 30
-14.311460
 70
   192
  0
VERTEX
  8
popcorn
 10
-46.988516
 20
195.759607
 30
-6.193216
 70
   192
  0
VERTEX
  8
popcorn
 10
50.674468
 20
169.143953
 30
-1.721188
 70
   192
  0
VERTEX
  8
popcorn
 10
19.431494
 20
177.204529
 30
4.642560
 70
   192
  0
VERTEX
  8
popcorn
 10
46.691741
 20
184.790338
 30
1.397613
 70
   192
  0
VERTEX
  8
popcorn
 10
42.817767
 20
179.873202
 30
-11.393513
 70
   192
  0
VERTEX
  8
popcorn
 10
38.989751
 20
166.241961
 30
-12.921377
 70
   192
  0
VERTEX
  8
popcorn
 10
39.035709
 20
157.527856
 30
-1.658115
 70
   192
  0
VERTEX
  8
popcorn
 10
42.909682
 20
162.444992
 30
11.133011
 70
   192
  0
VERTEX
  8
popcorn
 10
46.737698
 20
176.076233
 30
12.660875
 70
   192
  0
VERTEX
  8
popcorn
 10
31.070253
 20
188.820626
 30
4.579487
 70
   192
  0
VERTEX
  8
popcorn
 10
27.196280
 20
183.903490
 30
-8.211639
 70
   192
  0
VERTEX
  8
popcorn
 10
23.368264
 20
170.272249
 30
-9.739503
 70
   192
  0
VERTEX
  8
popcorn
 10
23.414222
 20
161.558144
 30
1.523759
 70
   192
  0
VERTEX
  8
popcorn
 10
27.288195
 20
166.475280
 30
14.314885
 70
   192
  0
VERTEX
  8
popcorn
 10
31.116211
 20
180.106521
 30
15.842749
 70
   192
  0
VERTEX
  8
popcorn
 10
17.687821
 20
176.882905
 30
16.611799
 70
   192
  0
VERTEX
  8
popcorn
 10
4.773612
 20
200.561043
 30
-2.207410
 70
   192
  0
VERTEX
  8
popcorn
 10
10.725851
 20
190.047558
 30
23.584696
 70
   192
  0
VERTEX
  8
popcorn
 10
23.464189
 20
192.246365
 30
17.609848
 70
   192
  0
VERTEX
  8
popcorn
 10
27.197607
 20
185.001246
 30
5.932149
 70
   192
  0
VERTEX
  8
popcorn
 10
18.192687
 20
175.557321
 30
0.229298
 70
   192
  0
VERTEX
  8
popcorn
 10
5.454349
 20
173.358515
 30
6.204146
 70
   192
  0
VERTEX
  8
popcorn
 10
1.720931
 20
180.603633
 30
17.881845
 70
   192
  0
VERTEX
  8
popcorn
 10
4.268747
 20
201.886627
 30
14.175091
 70
   192
  0
VERTEX
  8
popcorn
 10
17.007084
 20
204.085434
 30
8.200243
 70
   192
  0
VERTEX
  8
popcorn
 10
20.740502
 20
196.840315
 30
-3.477456
 70
   192
  0
VERTEX
  8
popcorn
 10
11.735583
 20
187.396390
 30
-9.180307
 70
   192
  0
VERTEX
  8
popcorn
 10
-1.002755
 20
185.197584
 30
-3.205459
 70
   192
  0
VERTEX
  8
popcorn
 10
-4.736173
 20
192.442702
 30
8.472240
 70
   192
  0
VERTEX
  8
popcorn
 10
-42.758817
 20
171.084536
 30
-78.161962
 70
   192
  0
VERTEX
  8
popcorn
 10
-10.052483
 20
174.383921
 30
-79.163640
 70
   192
  0
VERTEX
  8
popcorn
 10
-33.556860
 20
159.595679
 30
-85.491938
 70
   192
  0
VERTEX
  8
popcorn
 10
-35.009435
 20
171.822770
 30
-92.646453
 70
   192
  0
VERTEX
  8
popcorn
 10
-36.034809
 20
184.136473
 30
-85.566897
 70
   192
  0
VERTEX
  8
popcorn
 10
-35.607607
 20
184.223086
 30
-71.332825
 70
   192
  0
VERTEX
  8
popcorn
 10
-34.155032
 20
171.995995
 30
-64.178309
 70
   192
  0
VERTEX
  8
popcorn
 10
-33.129659
 20
159.682292
 30
-71.257866
 70
   192
  0
VERTEX
  8
popcorn
 10
-17.203692
 20
161.245372
 30
-85.992777
 70
   192
  0
VERTEX
  8
popcorn
 10
-18.656268
 20
173.472462
 30
-93.147292
 70
   192
  0
VERTEX
  8
popcorn
 10
-19.681641
 20
185.786166
 30
-86.067736
 70
   192
  0
VERTEX
  8
popcorn
 10
-19.254440
 20
185.872779
 30
-71.833664
 70
   192
  0
VERTEX
  8
popcorn
 10
-17.801865
 20
173.645688
 30
-64.679148
 70
   192
  0
VERTEX
  8
popcorn
 10
-16.776491
 20
161.331985
 30
-71.758705
 70
   192
  0
VERTEX
  8
popcorn
 10
-19.934093
 20
133.371547
 30
-21.047177
 70
   192
  0
VERTEX
  8
popcorn
 10
2.368866
 20
209.317365
 30
-13.530953
 70
   192
  0
VERTEX
  8
popcorn
 10
15.788156
 20
144.979703
 30
-34.069939
 70
   192
  0
VERTEX
  8
popcorn
 10
-11.008052
 20
154.756948
 30
-53.349053
 70
   192
  0
VERTEX
  8
popcorn
 10
-41.154562
 20
162.135247
 30
-38.447234
 70
   192
  0
VERTEX
  8
popcorn
 10
-44.504863
 20
159.736301
 30
-4.266303
 70
   192
  0
VERTEX
  8
popcorn
 10
-17.708655
 20
149.959055
 30
15.012810
 70
   192
  0
VERTEX
  8
popcorn
 10
12.437855
 20
142.580756
 30
0.110992
 70
   192
  0
VERTEX
  8
popcorn
 10
26.939636
 20
182.952612
 30
-30.311827
 70
   192
  0
VERTEX
  8
popcorn
 10
0.143427
 20
192.729857
 30
-49.590940
 70
   192
  0
VERTEX
  8
popcorn
 10
-30.003083
 20
200.108156
 30
-34.689122
 70
   192
  0
VERTEX
  8
popcorn
 10
-33.353384
 20
197.709210
 30
-0.508190
 70
   192
  0
VERTEX
  8
popcorn
 10
-6.557175
 20
187.931965
 30
18.770923
 70
   192
  0
VERTEX
  8
popcorn
 10
23.589335
 20
180.553666
 30
3.869105
 70
   192
  0
VERTEX
  8
popcorn
 10
19.883969
 20
169.635392
 30
-64.313656
 70
   192
  0
VERTEX
  8
popcorn
 10
22.901722
 20
202.246231
 30
-61.310327
 70
   192
  0
VERTEX
  8
popcorn
 10
30.560434
 20
177.810719
 30
-73.778091
 70
   192
  0
VERTEX
  8
popcorn
 10
16.825397
 20
179.395876
 30
-77.189079
 70
   192
  0
VERTEX
  8
popcorn
 10
6.903370
 20
179.373258
 30
-66.973812
 70
   192
  0
VERTEX
  8
popcorn
 10
10.716380
 20
177.765484
 30
-53.347557
 70
   192
  0
VERTEX
  8
popcorn
 10
24.451418
 20
176.180328
 30
-49.936569
 70
   192
  0
VERTEX
  8
popcorn
 10
34.373444
 20
176.202945
 30
-60.151836
 70
   192
  0
VERTEX
  8
popcorn
 10
32.069311
 20
194.116139
 30
-72.276426
 70
   192
  0
VERTEX
  8
popcorn
 10
18.334274
 20
195.701295
 30
-75.687414
 70
   192
  0
VERTEX
  8
popcorn
 10
8.412247
 20
195.678678
 30
-65.472147
 70
   192
  0
VERTEX
  8
popcorn
 10
12.225257
 20
194.070903
 30
-51.845892
 70
   192
  0
VERTEX
  8
popcorn
 10
25.960294
 20
192.485747
 30
-48.434904
 70
   192
  0
VERTEX
  8
popcorn
 10
35.882321
 20
192.508365
 30
-58.650171
 70
   192
  0
VERTEX
  8
popcorn
 10
33.494871
 20
192.824144
 30
-49.410843
 70
   192
  0
VERTEX
  8
popcorn
 10
18.310225
 20
218.293488
 30
-35.186473
 70
   192
  0
VERTEX
  8
popcorn
 10
42.283206
 20
204.309113
 30
-41.584026
 70
   192
  0
VERTEX
  8
popcorn
 10
36.938348
 20
208.171730
 30
-54.205892
 70
   192
  0
VERTEX
  8
popcorn
 10
24.353851
 20
203.054097
 30
-58.476616
 70
   192
  0
VERTEX
  8
popcorn
 10
17.114213
 20
194.073847
 30
-50.125475
 70
   192
  0
VERTEX
  8
popcorn
 10
22.459071
 20
190.211231
 30
-37.503610
 70
   192
  0
VERTEX
  8
popcorn
 10
35.043567
 20
195.328864
 30
-33.232885
 70
   192
  0
VERTEX
  8
popcorn
 10
34.690883
 20
217.043785
 30
-34.471841
 70
   192
  0
VERTEX
  8
popcorn
 10
29.346025
 20
220.906402
 30
-47.093707
 70
   192
  0
VERTEX
  8
popcorn
 10
16.761528
 20
215.788769
 30
-51.364432
 70
   192
  0
VERTEX
  8
popcorn
 10
9.521890
 20
206.808519
 30
-43.013290
 70
   192
  0
VERTEX
  8
popcorn
 10
14.866748
 20
202.945902
 30
-30.391425
 70
   192
  0
VERTEX
  8
popcorn
 10
27.451244
 20
208.063536
 30
-26.120700
 70
   192
  0
VERTEX
  8
popcorn
 10
-11.025100
 20
202.178526
 30
-27.455096
 70
   192
  0
VERTEX
  8
popcorn
 10
-39.764331
 20
208.325040
 30
-12.694656
 70
   192
  0
VERTEX
  8
popcorn
 10
-12.462837
 20
215.017139
 30
-17.281535
 70
   192
  0
VERTEX
  8
popcorn
 10
-18.679903
 20
216.506540
 30
-30.006651
 70
   192
  0
VERTEX
  8
popcorn
 10
-24.426974
 20
205.204556
 30
-36.490102
 70
   192
  0
VERTEX
  8
popcorn
 10
-23.956979
 20
192.413171
 30
-30.248438
 70
   192
  0
VERTEX
  8
popcorn
 10
-17.739913
 20
190.923770
 30
-17.523322
 70
   192
  0
VERTEX
  8
popcorn
 10
-11.992842
 20
202.225753
 30
-11.039870
 70
   192
  0
VERTEX
  8
popcorn
 10
-26.832453
 20
218.090395
 30
-9.901314
 70
   192
  0
VERTEX
  8
popcorn
 10
-33.049519
 20
219.579797
 30
-22.626430
 70
   192
  0
VERTEX
  8
popcorn
 10
-38.796589
 20
208.277813
 30
-29.109882
 70
   192
  0
VERTEX
  8
popcorn
 10
-38.326594
 20
195.486428
 30
-22.868217
 70
   192
  0
VERTEX
  8
popcorn
 10
-32.109528
 20
193.997026
 30
-10.143101
 70
   192
  0
VERTEX
  8
popcorn
 10
-26.362457
 20
205.299010
 30
-3.659650
 70
   192
  0
VERTEX
  8
popcorn
 10
-14.548432
 20
190.583053
 30
-40.937791
 70
   192
  0
VERTEX
  8
popcorn
 10
8.323834
 20
179.162142
 30
-61.626335
 70
   192
  0
VERTEX
  8
popcorn
 10
-19.039111
 20
183.806701
 30
-55.231610
 70
   192
  0
VERTEX
  8
popcorn
 10
-13.327619
 20
196.822803
 30
-56.102670
 70
   192
  0
VERTEX
  8
popcorn
 10
-3.118873
 20
200.743928
 30
-46.980987
 70
   192
  0
VERTEX
  8
popcorn
 10
1.378381
 20
191.648950
 30
-36.988244
 70
   192
  0
VERTEX
  8
popcorn
 10
-4.333112
 20
178.632848
 30
-36.117184
 70
   192
  0
VERTEX
  8
popcorn
 10
-14.541858
 20
174.711723
 30
-45.238867
 70
   192
  0
VERTEX
  8
popcorn
 10
-7.602978
 20
178.096245
 30
-65.575882
 70
   192
  0
VERTEX
  8
popcorn
 10
-1.891486
 20
191.112348
 30
-66.446942
 70
   192
  0
VERTEX
  8
popcorn
 10
8.317260
 20
195.033472
 30
-57.325259
 70
   192
  0
VERTEX
  8
popcorn
 10
12.814514
 20
185.938495
 30
-47.332517
 70
   192
  0
VERTEX
  8
popcorn
 10
7.103021
 20
172.922393
 30
-46.461457
 70
   192
  0
VERTEX
  8
popcorn
 10
-3.105725
 20
169.001268
 30
-55.583139
 70
   192
  0
VERTEX
  8
popcorn
 10
26.352150
 20
177.592223
 30
-11.872005
 70
   192
  0
VERTEX
  8
popcorn
 10
26.927307
 20
206.786594
 30
-27.003149
 70
   192
  0
VERTEX
  8
popcorn
 10
31.475157
 20
190.952729
 30
-3.769531
 70
   192
  0
VERTEX
  8
popcorn
 10
40.537956
 20
185.757810
 30
-13.448235
 70
   192
  0
VERTEX
  8
popcorn
 10
35.558738
 20
179.695897
 30
-25.333495
 70
   192
  0
VERTEX
  8
popcorn
 10
21.516721
 20
178.828902
 30
-27.540051
 70
   192
  0
VERTEX
  8
popcorn
 10
12.453922
 20
184.023821
 30
-17.861347
 70
   192
  0
VERTEX
  8
popcorn
 10
17.433141
 20
190.085734
 30
-5.976088
 70
   192
  0
VERTEX
  8
popcorn
 10
31.762736
 20
205.549914
 30
-11.335103
 70
   192
  0
VERTEX
  8
popcorn
 10
40.825534
 20
200.354996
 30
-21.013807
 70
   192
  0
VERTEX
  8
popcorn
 10
35.846316
 20
194.293083
 30
-32.899067
 70
   192
  0
VERTEX
  8
popcorn
 10
21.804299
 20
193.426088
 30
-35.105623
 70
   192
  0
VERTEX
  8
popcorn
 10
12.741501
 20
198.621007
 30
-25.426919
 70
   192
  0
VERTEX
  8
popcorn
 10
17.720719
 20
204.682920
 30
-13.541659
 70
   192
  0
VERTEX
  8
popcorn
 10
10.400072
 20
199.886526
 30
-22.303384
 70
   192
  0
VERTEX
  8
popcorn
 10
-6.268689
 20
225.402562
 30
-34.659677
 70
   192
  0
VERTEX
  8
popcorn
 10
-5.872697
 20
200.890472
 30
-20.161543
 70
   192
  0
VERTEX
  8
popcorn
 10
1.945880
 20
209.812920
 30
-12.283816
 70
   192
  0
VERTEX
  8
popcorn
 10
14.051459
 20
215.187982
 30
-17.514730
 70
   192
  0
VERTEX
  8
popcorn
 10
18.338461
 20
211.640597
 30
-30.623372
 70
   192
  0
VERTEX
  8
popcorn
 10
10.519883
 20
202.718149
 30
-38.501099
 70
   192
  0
VERTEX
  8
popcorn
 10
-1.585696
 20
197.343087
 30
-33.270184
 70
   192
  0
VERTEX
  8
popcorn
 10
-14.207078
 20
213.648490
 30
-26.339689
 70
   192
  0
VERTEX
  8
popcorn
 10
-6.388500
 20
222.570938
 30
-18.461962
 70
   192
  0
VERTEX
  8
popcorn
 10
5.717079
 20
227.946000
 30
-23.692877
 70
   192
  0
VERTEX
  8
popcorn
 10
10.004080
 20
224.398615
 30
-36.801518
 70
   192
  0
VERTEX
  8
popcorn
 10
2.185503
 20
215.476167
 30
-44.679245
 70
   192
  0
VERTEX
  8
popcorn
 10
-9.920076
 20
210.101105
 30
-39.448330
 70
   192
  0
VERTEX
  8
popcorn
 10
-60.203828
 20
150.649849
 30
-44.935345
 70
   192
  0
VERTEX
  8
popcorn
 10
-34.112401
 20
170.669420
 30
-45.154041
 70
   192
  0
VERTEX
  8
popcorn
 10
-46.233971
 20
145.870615
 30
-52.174157
 70
   192
  0
VERTEX
  8
popcorn
 10
-53.801102
 20
155.655746
 30
-59.230257
 70
   192
  0
VERTEX
  8
popcorn
 10
-61.248103
 20
165.439873
 30
-52.046118
 70
   192
  0
VERTEX
  8
popcorn
 10
-61.127972
 20
165.438869
 30
-37.805880
 70
   192
  0
VERTEX
  8
popcorn
 10
-53.560840
 20
155.653738
 30
-30.749781
 70
   192
  0
VERTEX
  8
popcorn
 10
-46.113840
 20
145.869611
 30
-37.933920
 70
   192
  0
VERTEX
  8
popcorn
 10
-33.188257
 20
155.880400
 30
-52.283506
 70
   192
  0
VERTEX
  8
popcorn
 10
-40.755388
 20
165.665531
 30
-59.339605
 70
   192
  0
VERTEX
  8
popcorn
 10
-48.202389
 20
175.449658
 30
-52.155466
 70
   192
  0
VERTEX
  8
popcorn
 10
-48.082258
 20
175.448654
 30
-37.915229
 70
   192
  0
VERTEX
  8
popcorn
 10
-40.515126
 20
165.663523
 30
-30.859129
 70
   192
  0
VERTEX
  8
popcorn
 10
-33.068126
 20
155.879396
 30
-38.043268
 70
   192
  0
VERTEX
  8
popcorn
 10
-23.714438
 20
145.970789
 30
-59.656818
 70
   192
  0
VERTEX
  8
popcorn
 10
-12.200225
 20
173.841150
 30
-46.532050
 70
   192
  0
VERTEX
  8
popcorn
 10
-9.210869
 20
151.983006
 30
-64.545393
 70
   192
  0
VERTEX
  8
popcorn
 10
-20.689038
 20
158.955544
 30
-69.281864
 70
   192
  0
VERTEX
  8
popcorn
 10
-32.314053
 20
159.910918
 30
-61.112097
 70
   192
  0
VERTEX
  8
popcorn
 10
-32.460900
 20
153.893753
 30
-48.205859
 70
   192
  0
VERTEX
  8
popcorn
 10
-20.982731
 20
146.921215
 30
-43.469388
 70
   192
  0
VERTEX
  8
popcorn
 10
-9.357716
 20
145.965841
 30
-51.639155
 70
   192
  0
VERTEX
  8
popcorn
 10
-3.453763
 20
165.918186
 30
-57.983009
 70
   192
  0
VERTEX
  8
popcorn
 10
-14.931931
 20
172.890724
 30
-62.719480
 70
   192
  0
VERTEX
  8
popcorn
 10
-26.556947
 20
173.846098
 30
-54.549713
 70
   192
  0
VERTEX
  8
popcorn
 10
-26.703793
 20
167.828934
 30
-41.643475
 70
   192
  0
VERTEX
  8
popcorn
 10
-15.225624
 20
160.856395
 30
-36.907004
 70
   192
  0
VERTEX
  8
popcorn
 10
-3.600609
 20
159.901021
 30
-45.076771
 70
   192
  0
VERTEX
  8
popcorn
 10
14.098374
 20
145.977542
 30
-44.261993
 70
   192
  0
VERTEX
  8
popcorn
 10
26.231363
 20
173.567860
 30
-57.420968
 70
   192
  0
VERTEX
  8
popcorn
 10
27.988312
 20
152.492446
 30
-38.343879
 70
   192
  0
VERTEX
  8
popcorn
 10
29.117175
 20
145.979910
 30
-50.957814
 70
   192
  0
VERTEX
  8
popcorn
 10
18.260485
 20
146.362586
 30
-60.165671
 70
   192
  0
VERTEX
  8
popcorn
 10
6.274931
 20
153.257797
 30
-56.759595
 70
   192
  0
VERTEX
  8
popcorn
 10
5.146067
 20
159.770333
 30
-44.145660
 70
   192
  0
VERTEX
  8
popcorn
 10
16.002758
 20
159.387658
 30
-34.937802
 70
   192
  0
VERTEX
  8
popcorn
 10
34.054806
 20
166.287605
 30
-44.923366
 70
   192
  0
VERTEX
  8
popcorn
 10
35.183670
 20
159.775069
 30
-57.537301
 70
   192
  0
VERTEX
  8
popcorn
 10
24.326980
 20
160.157744
 30
-66.745159
 70
   192
  0
VERTEX
  8
popcorn
 10
12.341426
 20
167.052956
 30
-63.339082
 70
   192
  0
VERTEX
  8
popcorn
 10
11.212562
 20
173.565492
 30
-50.725147
 70
   192
  0
VERTEX
  8
popcorn
 10
22.069252
 20
173.182816
 30
-41.517289
 70
   192
  0
VERTEX
  8
popcorn
 10
41.917073
 20
148.327881
 30
-40.688931
 70
   192
  0
VERTEX
  8
popcorn
 10
64.238720
 20
172.344177
 30
-43.249258
 70
   192
  0
VERTEX
  8
popcorn
 10
55.653775
 20
145.891481
 30
-49.393264
 70
   192
  0
VERTEX
  8
popcorn
 10
45.906584
 20
154.301928
 30
-55.480583
 70
   192
  0
VERTEX
  8
popcorn
 10
37.750295
 20
162.742403
 30
-47.416333
 70
   192
  0
VERTEX
  8
popcorn
 10
39.341195
 20
162.772429
 30
-33.264763
 70
   192
  0
VERTEX
  8
popcorn
 10
49.088385
 20
154.361982
 30
-27.177443
 70
   192
  0
VERTEX
  8
popcorn
 10
57.244675
 20
145.921507
 30
-35.241693
 70
   192
  0
VERTEX
  8
popcorn
 10
66.814598
 20
157.899629
 30
-50.673427
 70
   192
  0
VERTEX
  8
popcorn
 10
57.067408
 20
166.310076
 30
-56.760747
 70
   192
  0
VERTEX
  8
popcorn
 10
48.911118
 20
174.750551
 30
-48.696496
 70
   192
  0
VERTEX
  8
popcorn
 10
50.502018
 20
174.780577
 30
-34.544926
 70
   192
  0
VERTEX
  8
popcorn
 10
60.249209
 20
166.370130
 30
-28.457606
 70
   192
  0
VERTEX
  8
popcorn
 10
68.405498
 20
157.929655
 30
-36.521857
 70
   192
  0
VERTEX
  8
popcorn
 10
29.654131
 20
171.671055
 30
-65.730378
 70
   192
  0
VERTEX
  8
popcorn
 10
61.976359
 20
172.734748
 30
-71.708313
 70
   192
  0
VERTEX
  8
popcorn
 10
36.688420
 20
160.050131
 30
-74.997054
 70
   192
  0
VERTEX
  8
popcorn
 10
35.122670
 20
172.773461
 30
-81.198998
 70
   192
  0
VERTEX
  8
popcorn
 10
36.168938
 20
184.660309
 30
-73.426805
 70
   192
  0
VERTEX
  8
popcorn
 10
38.780956
 20
183.823827
 30
-59.452670
 70
   192
  0
VERTEX
  8
popcorn
 10
40.346706
 20
171.100496
 30
-53.250726
 70
   192
  0
VERTEX
  8
popcorn
 10
39.300438
 20
159.213648
 30
-61.022919
 70
   192
  0
VERTEX
  8
popcorn
 10
52.849534
 20
160.581977
 30
-77.986022
 70
   192
  0
VERTEX
  8
popcorn
 10
51.283784
 20
173.305307
 30
-84.187965
 70
   192
  0
VERTEX
  8
popcorn
 10
52.330052
 20
185.192155
 30
-76.415773
 70
   192
  0
VERTEX
  8
popcorn
 10
54.942070
 20
184.355673
 30
-62.441637
 70
   192
  0
VERTEX
  8
popcorn
 10
56.507820
 20
171.632343
 30
-56.239694
 70
   192
  0
VERTEX
  8
popcorn
 10
55.461552
 20
159.745495
 30
-64.011886
 70
   192
  0
VERTEX
  8
popcorn
 10
-27.663231
 20
198.830666
 30
-41.816959
 70
   192
  0
VERTEX
  8
popcorn
 10
-32.427569
 20
166.597265
 30
-37.355727
 70
   192
  0
VERTEX
  8
popcorn
 10
-17.700764
 20
187.961660
 30
-49.097919
 70
   192
  0
VERTEX
  8
popcorn
 10
-15.820611
 20
189.623889
 30
-35.080044
 70
   192
  0
VERTEX
  8
popcorn
 10
-26.974162
 20
192.434545
 30
-26.683776
 70
   192
  0
VERTEX
  8
popcorn
 10
-40.007866
 20
193.582971
 30
-32.305382
 70
   192
  0
VERTEX
  8
popcorn
 10
-41.888020
 20
191.920742
 30
-46.323257
 70
   192
  0
VERTEX
  8
popcorn
 10
-30.734469
 20
189.110086
 30
-54.719526
 70
   192
  0
VERTEX
  8
popcorn
 10
-20.082934
 20
171.844960
 30
-46.867303
 70
   192
  0
VERTEX
  8
popcorn
 10
-18.202780
 20
173.507189
 30
-32.849428
 70
   192
  0
VERTEX
  8
popcorn
 10
-29.356331
 20
176.317845
 30
-24.453160
 70
   192
  0
VERTEX
  8
popcorn
 10
-42.390036
 20
177.466271
 30
-30.074766
 70
   192
  0
VERTEX
  8
popcorn
 10
-44.270189
 20
175.804042
 30
-44.092641
 70
   192
  0
VERTEX
  8
popcorn
 10
-33.116638
 20
172.993386
 30
-52.488910
 70
   192
  0
VERTEX
  8
popcorn
 10
26.788604
 20
167.621010
 30
-34.796332
 70
   192
  0
VERTEX
  8
popcorn
 10
48.102778
 20
191.242034
 30
-43.123806
 70
   192
  0
VERTEX
  8
popcorn
 10
42.711603
 20
166.035588
 30
-31.009125
 70
   192
  0
VERTEX
  8
popcorn
 10
39.422394
 20
164.163606
 30
-44.737766
 70
   192
  0
VERTEX
  8
popcorn
 10
28.827938
 20
171.654284
 30
-50.606842
 70
   192
  0
VERTEX
  8
popcorn
 10
21.522692
 20
181.016944
 30
-42.747277
 70
   192
  0
VERTEX
  8
popcorn
 10
24.811900
 20
182.888926
 30
-29.018635
 70
   192
  0
VERTEX
  8
popcorn
 10
35.406356
 20
175.398248
 30
-23.149559
 70
   192
  0
VERTEX
  8
popcorn
 10
53.368690
 20
177.846100
 30
-35.172862
 70
   192
  0
VERTEX
  8
popcorn
 10
50.079481
 20
175.974118
 30
-48.901503
 70
   192
  0
VERTEX
  8
popcorn
 10
39.485025
 20
183.464796
 30
-54.770579
 70
   192
  0
VERTEX
  8
popcorn
 10
32.179778
 20
192.827456
 30
-46.911014
 70
   192
  0
VERTEX
  8
popcorn
 10
35.468987
 20
194.699439
 30
-33.182373
 70
   192
  0
VERTEX
  8
popcorn
 10
46.063443
 20
187.208761
 30
-27.313297
 70
   192
  0
VERTEX
  8
popcorn
 10
14.052348
 20
187.149165
 30
-81.261237
 70
   192
  0
VERTEX
  8
popcorn
 10
-3.937614
 20
159.781912
 30
-84.259307
 70
   192
  0
VERTEX
  8
popcorn
 10
11.897285
 20
180.306365
 30
-96.057528
 70
   192
  0
VERTEX
  8
popcorn
 10
20.848926
 20
173.467583
 30
-87.345583
 70
   192
  0
VERTEX
  8
popcorn
 10
18.506498
 20
173.468569
 30
-73.298810
 70
   192
  0
VERTEX
  8
popcorn
 10
7.212430
 20
180.308337
 30
-67.963981
 70
   192
  0
VERTEX
  8
popcorn
 10
-1.739211
 20
187.147120
 30
-76.675926
 70
   192
  0
VERTEX
  8
popcorn
 10
0.603217
 20
187.146134
 30
-90.722700
 70
   192
  0
VERTEX
  8
popcorn
 10
2.902304
 20
166.622739
 30
-97.556562
 70
   192
  0
VERTEX
  8
popcorn
 10
11.853945
 20
159.783957
 30
-88.844617
 70
   192
  0
VERTEX
  8
popcorn
 10
9.511518
 20
159.784943
 30
-74.797844
 70
   192
  0
VERTEX
  8
popcorn
 10
-1.782551
 20
166.624711
 30
-69.463016
 70
   192
  0
VERTEX
  8
popcorn
 10
-10.734192
 20
173.463494
 30
-78.174961
 70
   192
  0
VERTEX
  8
popcorn
 10
-8.391764
 20
173.462508
 30
-92.221734
 70
   192
  0
VERTEX
  8
popcorn
 10
-65.524559
 20
0.000000
 30
59.222674
 70
   192
  0
VERTEX
  8
popcorn
 10
-80.336277
 20
158.782184
 30
70.632260
 70
   192
  0
VERTEX
  8
popcorn
 10
65.524559
 20
0.000000
 30
59.222674
 70
   192
  0
VERTEX
  8
popcorn
 10
80.336277
 20
158.782184
 30
70.632260
 70
   192
  0
VERTEX
  8
popcorn
 10
65.524559
 20
0.000000
 30
-59.222674
 70
   192
  0
VERTEX
  8
popcorn
 10
80.336277
 20
158.782184
 30
-70.632260
 70
   192
  0
VERTEX
  8
popcorn
 10
-65.524559
 20
0.000000
 30
-59.222674
 70
   192
  0
VERTEX
  8
popcorn
 10
-80.336277
 20
158.782184
 30
-70.632260
 70
   192
  0
VERTEX
  8
popcorn
 10
-31.200536
 20
0.000000
 30
72.783763
 70
   192
  0
VERTEX
  8
popcorn
 10
-31.200536
 20
158.782184
 30
86.805970
 70
   192
  0
VERTEX
  8
popcorn
 10
-31.200536
 20
0.000000
 30
-72.783763
 70
   192
  0
VERTEX
  8
popcorn
 10
-31.200536
 20
158.782184
 30
-86.805970
 70
   192
  0
VERTEX
  8
popcorn
 10
34.118305
 20
0.000000
 30
72.783763
 70
   192
  0
VERTEX
  8
popcorn
 10
34.118305
 20
158.782184
 30
86.805970
 70
   192
  0
VERTEX
  8
popcorn
 10
34.118305
 20
0.000000
 30
-72.783763
 70
   192
  0
VERTEX
  8
popcorn
 10
34.118305
 20
158.782184
 30
-86.805970
 70
   192
  0
VERTEX
  8
popcorn
 10
-74.214996
 20
0.000000
 30
-16.808960
 70
   192
  0
VERTEX
  8
popcorn
 10
-90.991173
 20
158.782184
 30
-16.808960
 70
   192
  0
VERTEX
  8
popcorn
 10
74.214996
 20
0.000000
 30
-16.808960
 70
   192
  0
VERTEX
  8
popcorn
 10
90.991173
 20
158.782184
 30
-16.808960
 70
   192
  0
VERTEX
  8
popcorn
 10
-74.214996
 20
0.000000
 30
15.466232
 70
   192
  0
VERTEX
  8
popcorn
 10
74.214996
 20
0.000000
 30
15.466232
 70
   192
  0
VERTEX
  8
popcorn
 10
-90.991173
 20
158.782184
 30
15.466232
 70
   192
  0
VERTEX
  8
popcorn
 10
90.991173
 20
158.782184
 30
15.466232
 70
   192
  0
VERTEX
  8
popcorn
 10
-67.975374
 20
158.782184
 30
59.751525
 70
   192
  0
VERTEX
  8
popcorn
 10
67.941819
 20
158.782184
 30
59.925260
 70
   192
  0
VERTEX
  8
popcorn
 10
67.983140
 20
158.782184
 30
-59.910800
 70
   192
  0
VERTEX
  8
popcorn
 10
-68.017409
 20
158.782184
 30
-59.737689
 70
   192
  0
VERTEX
  8
popcorn
 10
-28.923563
 20
158.782184
 30
72.605970
 70
   192
  0
VERTEX
  8
popcorn
 10
-28.923563
 20
158.782184
 30
-72.605970
 70
   192
  0
VERTEX
  8
popcorn
 10
31.705439
 20
158.782184
 30
72.605970
 70
   192
  0
VERTEX
  8
popcorn
 10
31.705439
 20
158.782184
 30
-72.605970
 70
   192
  0
VERTEX
  8
popcorn
 10
-76.791173
 20
158.782184
 30
-15.416946
 70
   192
  0
VERTEX
  8
popcorn
 10
76.791173
 20
158.782184
 30
-15.416946
 70
   192
  0
VERTEX
  8
popcorn
 10
-76.791173
 20
158.782184
 30
14.107477
 70
   192
  0
VERTEX
  8
popcorn
 10
76.791173
 20
158.782184
 30
14.107477
 70
   192
  0
VERTEX
  8
popcorn
 10
-56.079684
 20
144.986456
 30
49.295008
 70
   192
  0
VERTEX
  8
popcorn
 10
56.052000
 20
144.986456
 30
49.438340
 70
   192
  0
VERTEX
  8
popcorn
 10
56.086091
 20
144.986456
 30
-49.426410
 70
   192
  0
VERTEX
  8
popcorn
 10
-56.114363
 20
144.986456
 30
-49.283593
 70
   192
  0
VERTEX
  8
popcorn
 10
-23.861940
 20
144.986456
 30
59.899925
 70
   192
  0
VERTEX
  8
popcorn
 10
-23.861940
 20
144.986456
 30
-59.899925
 70
   192
  0
VERTEX
  8
popcorn
 10
26.156987
 20
144.986456
 30
59.899925
 70
   192
  0
VERTEX
  8
popcorn
 10
26.156987
 20
144.986456
 30
-59.899925
 70
   192
  0
VERTEX
  8
popcorn
 10
-63.352718
 20
144.986456
 30
-12.718980
 70
   192
  0
VERTEX
  8
popcorn
 10
63.352718
 20
144.986456
 30
-12.718980
 70
   192
  0
VERTEX
  8
popcorn
 10
-63.352718
 20
144.986456
 30
11.638669
 70
   192
  0
VERTEX
  8
popcorn
 10
63.352718
 20
144.986456
 30
11.638669
 70
   192
  0
VERTEX
  8
popcorn
 10
0.0
 20
0.0
 30
0.0
 70
   128
 71
   3
 72
   9
 73
   10
  0
VERTEX
  8
popcorn
 10
0.0
 20
0.0
 30
0.0
 70
   128
 71
   4
 72
   10
 73
   11
  0
VERTEX
  8
popcorn
 10
0.0
 20
0.0
 30
0.0
 70
   128
 71
   5
 72
   11
 73
   12
  0
VERTEX
  8
popcorn
 10
0.0
 20
0.0
 30
0.0
 70
   128
 71
   6
 72
   12
 73
   13
  0
VERTEX
  8
popcorn
 10
0.0
 20
0.0
 30
0.0
 70
   128
 71
   7
 72
   13
 73
   14
  0
VERTEX
  8
popcorn
 10
0.0
 20
0.0
 30
0.0
 70
   128
 71
   8
 72
   14
 73
   9
  0
VERTEX
  8
popcorn
 10
0.0
 20
0.0
 30
0.0
 70
   128
 71
   1
 72
   3
 73
   4
  0
VERTEX
  8
popcorn
 10
0.0
 20
0.0
 30
0.0
 70
   128
 71
   10
 72
   9
 73
   2
  0
VERTEX
  8
popcorn
 10
0.0
 20
0.0
 30
0.0
 70
   128
 71
   1
 72
   4
 73
   5
  0
VERTEX
  8
popcorn
 10
0.0
 20
0.0
 30
0.0
 70
   128
 71
   11
 72
   10
 73
   2
  0
VERTEX
  8
popcorn
 10
0.0
 20
0.0
 30
0.0
 70
   128
 71
   1
 72
   5
 73
   6
  0
VERTEX
  8
popcorn
 10
0.0
 20
0.0
 30
0.0
 70
   128
 71
   12
 72
   11
 73
   2
  0
VERTEX
  8
popcorn
 10
0.0
 20
0.0
 30
0.0
 70
   128
 71
   1
 72
   6
 73
   7
  0
VERTEX
  8
popcorn
 10
0.0
 20
0.0
 30
0.0
 70
   128
 71
   13
 72
   12
 73
   2
  0
VERTEX
  8
popcorn
 10
0.0
 20
0.0
 30
0.0
 70
   128
 71
   1
 72
   7
 73
   8
  0
VERTEX
  8
popcorn
 10
0.0
 20
0.0
 30
0.0
 70
   128
 71
   14
 72
   13
 73
   2
  0
VERTEX
  8
popcorn
 10
0.0
 20
0.0
 30
0.0
 70
   128
 71
   1
 72
   8
 73
   3
  0
VERTEX
  8
popcorn
 10
0.0
 20
0.0
 30
0.0
 70
   128
 71
   9
 72
   14
 73
   2
  0
VERTEX
  8
popcorn
 10
0.0
 20
0.0
 30
0.0
 70
   128
 71
   17
 72
   23
 73
   24
  0
VERTEX
  8
popcorn
 10
0.0
 20
0.0
 30
0.0
 70
   128
 71
   18
 72
   24
 73
   25
  0
VERTEX
  8
popcorn
 10
0.0
 20
0.0
 30
0.0
 70
   128
 71
   19
 72
   25
 73
   26
  0
VERTEX
  8
popcorn
 10
0.0
 20
0.0
 30
0.0
 70
   128
 71
   20
 72
   26
 73
   27
  0
VERTEX
  8
popcorn
 10
0.0
 20
0.0
 30
0.0
 70
   128
 71
   21
 72
   27
 73
   28
  0
VERTEX
  8
popcorn
 10
0.0
 20
0.0
 30
0.0
 70
   128
 71
   22
 72
   28
 73
   23
  0
VERTEX
  8
popcorn
 10
0.0
 20
0.0
 30
0.0
 70
   128
 71
   15
 72
   17
 73
   18
  0
VERTEX
  8
popcorn
 10
0.0
 20
0.0
 30
0.0
 70
   128
 71
   24
 72
   23
 73
   16
  0
VERTEX
  8
popcorn
 10
0.0
 20
0.0
 30
0.0
 70
   128
 71
   15
 72
   18
 73
   19
  0
VERTEX
  8
popcorn
 10
0.0
 20
0.0
 30
0.0
 70
   128
 71
   25
 72
   24
 73
   16
  0
VERTEX
  8
popcorn
 10
0.0
 20
0.0
 30
0.0
 70
   128
 71
   15
 72
   19
 73
   20
  0
VERTEX
  8
popcorn
 10
0.0
 20
0.0
 30
0.0
 70
   128
 71
   26
 72
   25
 73
   16
  0
VERTEX
  8
popcorn
 10
0.0
 20
0.0
 30
0.0
 70
   128
 71
   15
 72
   20
 73
   21
  0
VERTEX
  8
popcorn
 10
0.0
 20
0.0
 30
0.0
 70
   128
 71
   27
 72
   26
 73
   16
  0
VERTEX
  8
popcorn
 10
0.0
 20
0.0
 30
0.0
 70
   128
 71
   15
 72
   21
 73
   22
  0
VERTEX
  8
popcorn
 10
0.0
 20
0.0
 30
0.0
 70
   128
 71
   28
 72
   27
 73
   16
  0
VERTEX
  8
popcorn
 10
0.0
 20
0.0
 30
0.0
 70
   128
 71
   15
 72
   22
 73
   17
  0
VERTEX
  8
popcorn
 10
0.0
 20
0.0
 30
0.0
 70
   128
 71
   23
 72
   28
 73
   16
  0
VERTEX
  8
popcorn
 10
0.0
 20
0.0
 30
0.0
 70
   128
 71
   31
 72
   37
 73
   38
  0
VERTEX
  8
popcorn
 10
0.0
 20
0.0
 30
0.0
 70
   128
 71
   32
 72
   38
 73
   39
  0
VERTEX
  8
popcorn
 10
0.0
 20
0.0
 30
0.0
 70
   128
 71
   33
 72
   39
 73
   40
  0
VERTEX
  8
popcorn
 10
0.0
 20
0.0
 30
0.0
 70
   128
 71
   34
 72
   40
 73
   41
  0
VERTEX
  8
popcorn
 10
0.0
 20
0.0
 30
0.0
 70
   128
 71
   35
 72
   41
 73
   42
  0
VERTEX
  8
popcorn
 10
0.0
 20
0.0
 30
0.0
 70
   128
 71
   36
 72
   42
 73
   37
  0
VERTEX
  8
popcorn
 10
0.0
 20
0.0
 30
0.0
 70
   128
 71
   29
 72
   31
 73
   32
  0
VERTEX
  8
popcorn
 10
0.0
 20
0.0
 30
0.0
 70
   128
 71
   38
 72
   37
 73
   30
  0
VERTEX
  8
popcorn
 10
0.0
 20
0.0
 30
0.0
 70
   128
 71
   29
 72
   32
 73
   33
  0
VERTEX
  8
popcorn
 10
0.0
 20
0.0
 30
0.0
 70
   128
 71
   39
 72
   38
 73
   30
  0
VERTEX
  8
popcorn
 10
0.0
 20
0.0
 30
0.0
 70
   128
 71
   29
 72
   33
 73
   34
  0
VERTEX
  8
popcorn
 10
0.0
 20
0.0
 30
0.0
 70
   128
 71
   40
 72
   39
 73
   30
  0
VERTEX
  8
popcorn
 10
0.0
 20
0.0
 30
0.0
 70
   128
 71
   29
 72
   34
 73
   35
  0
VERTEX
  8
popcorn
 10
0.0
 20
0.0
 30
0.0
 70
   128
 71
   41
 72
   40
 73
   30
  0
VERTEX
  8
popcorn
 10
0.0
 20
0.0
 30
0.0
 70
   128
 71
   29
 72
   35
 73
   36
  0
VERTEX
  8
popcorn
 10
0.0
 20
0.0
 30
0.0
 70
   128
 71
   42
 72
   41
 73
   30
  0
VERTEX
  8
popcorn
 10
0.0
 20
0.0
 30
0.0
 70
   128
 71
   29
 72
   36
 73
   31
  0
VERTEX
  8
popcorn
 10
0.0
 20
0.0
 30
0.0
 70
   128
 71
   37
 72
   42
 73
   30
  0
VERTEX
  8
popcorn
 10
0.0
 20
0.0
 30
0.0
 70
   128
 71
   45
 72
   51
 73
   52
  0
VERTEX
  8
popcorn
 10
0.0
 20
0.0
 30
0.0
 70
   128
 71
   46
 72
   52
 73
   53
  0
VERTEX
  8
popcorn
 10
0.0
 20
0.0
 30
0.0
 70
   128
 71
   47
 72
   53
 73
   54
  0
VERTEX
  8
popcorn
 10
0.0
 20
0.0
 30
0.0
 70
   128
 71
   48
 72
   54
 73
   55
  0
VERTEX
  8
popcorn
 10
0.0
 20
0.0
 30
0.0
 70
   128
 71
   49
 72
   55
 73
   56
  0
VERTEX
  8
popcorn
 10
0.0
 20
0.0
 30
0.0
 70
   128
 71
   50
 72
   56
 73
   51
  0
VERTEX
  8
popcorn
 10
0.0
 20
0.0
 30
0.0
 70
   128
 71
   43
 72
   45
 73
   46
  0
VERTEX
  8
popcorn
 10
0.0
 20
0.0
 30
0.0
 70
   128
 71
   52
 72
   51
 73
   44
  0
VERTEX
  8
popcorn
 10
0.0
 20
0.0
 30
0.0
 70
   128
 71
   43
 72
   46
 73
   47
  0
VERTEX
  8
popcorn
 10
0.0
 20
0.0
 30
0.0
 70
   128
 71
   53
 72
   52
 73
   44
  0
VERTEX
  8
popcorn
 10
0.0
 20
0.0
 30
0.0
 70
   128
 71
   43
 72
   47
 73
   48
  0
VERTEX
  8
popcorn
 10
0.0
 20
0.0
 30
0.0
 70
   128
 71
   54
 72
   53
 73
   44
  0
VERTEX
  8
popcorn
 10
0.0
 20
0.0
 30
0.0
 70
   128
 71
   43
 72
   48
 73
   49
  0
VERTEX
  8
popcorn
 10
0.0
 20
0.0
 30
0.0
 70
   128
 71
   55
 72
   54
 73
   44
  0
VERTEX
  8
popcorn
 10
0.0
 20
0.0
 30
0.0
 70
   128
 71
   43
 72
   49
 73
   50
  0
VERTEX
  8
popcorn
 10
0.0
 20
0.0
 30
0.0
 70
   128
 71
   56
 72
   55
 73
   44
  0
VERTEX
  8
popcorn
 10
0.0
 20
0.0
 30
0.0
 70
   128
 71
   43
 72
   50
 73
   45
  0
VERTEX
  8
popcorn
 10
0.0
 20
0.0
 30
0.0
 70
   128
 71
   51
 72
   56
 73
   44
  0
VERTEX
  8
popcorn
 10
0.0
 20
0.0
 30
0.0
 70
   128
 71
   59
 72
   65
 73
   66
  0
VERTEX
  8
popcorn
 10
0.0
 20
0.0
 30
0.0
 70
   128
 71
   60
 72
   66
 73
   67
  0
VERTEX
  8
popcorn
 10
0.0
 20
0.0
 30
0.0
 70
   128
 71
   61
 72
   67
 73
   68
  0
VERTEX
  8
popcorn
 10
0.0
 20
0.0
 30
0.0
 70
   128
 71
   62
 72
   68
 73
   69
  0
VERTEX
  8
popcorn
 10
0.0
 20
0.0
 30
0.0
 70
   128
 71
   63
 72
   69
 73
   70
  0
VERTEX
  8
popcorn
 10
0.0
 20
0.0
 30
0.0
 70
   128
 71
   64
 72
   70
 73
   65
  0
VERTEX
  8
popcorn
 10
0.0
 20
0.0
 30
0.0
 70
   128
 71
   57
 72
   59
 73
   60
  0
VERTEX
  8
popcorn
 10
0.0
 20
0.0
 30
0.0
 70
   128
 71
   66
 72
   65
 73
   58
  0
VERTEX
  8
popcorn
 10
0.0
 20
0.0
 30
0.0
 70
   128
 71
   57
 72
   60
 73
   61
  0
VERTEX
  8
popcorn
 10
0.0
 20
0.0
 30
0.0
 70
   128
 71
   67
 72
   66
 73
   58
  0
VERTEX
  8
popcorn
 10
0.0
 20
0.0
 30
0.0
 70
   128
 71
   57
 72
   61
 73
   62
  0
VERTEX
  8
popcorn
 10
0.0
 20
0.0
 30
0.0
 70
   128
 71
   68
 72
   67
 73
   58
  0
VERTEX
  8
popcorn
 10
0.0
 20
0.0
 30
0.0
 70
   128
 71
   57
 72
   62
 73
   63
  0
VERTEX
  8
popcorn
 10
0.0
 20
0.0
 30
0.0
 70
   128
 71
   69
 72
   68
 73
   58
  0
VERTEX
  8
popcorn
 10
0.0
 20
0.0
 30
0.0
 70
   128
 71
   57
 72
   63
 73
   64
  0
VERTEX
  8
popcorn
 10
0.0
 20
0.0
 30
0.0
 70
   128
 71
   70
 72
   69
 73
   58
  0
VERTEX
  8
popcorn
 10
0.0
 20
0.0
 30
0.0
 70
   128
 71
   57
 72
   64
 73
   59
  0
VERTEX
  8
popcorn
 10
0.0
 20
0.0
 30
0.0
 70
   128
 71
   65
 72
   70
 73
   58
  0
VERTEX
  8
popcorn
 10
0.0
 20
0.0
 30
0.0
 70
   128
 71
   73
 72
   79
 73
   80
  0
VERTEX
  8
popcorn
 10
0.0
 20
0.0
 30
0.0
 70
   128
 71
   74
 72
   80
 73
   81
  0
VERTEX
  8
popcorn
 10
0.0
 20
0.0
 30
0.0
 70
   128
 71
   75
 72
   81
 73
   82
  0
VERTEX
  8
popcorn
 10
0.0
 20
0.0
 30
0.0
 70
   128
 71
   76
 72
   82
 73
   83
  0
VERTEX
  8
popcorn
 10
0.0
 20
0.0
 30
0.0
 70
   128
 71
   77
 72
   83
 73
   84
  0
VERTEX
  8
popcorn
 10
0.0
 20
0.0
 30
0.0
 70
   128
 71
   78
 72
   84
 73
   79
  0
VERTEX
  8
popcorn
 10
0.0
 20
0.0
 30
0.0
 70
   128
 71
   71
 72
   73
 73
   74
  0
VERTEX
  8
popcorn
 10
0.0
 20
0.0
 30
0.0
 70
   128
 71
   80
 72
   79
 73
   72
  0
VERTEX
  8
popcorn
 10
0.0
 20
0.0
 30
0.0
 70
   128
 71
   71
 72
   74
 73
   75
  0
VERTEX
  8
popcorn
 10
0.0
 20
0.0
 30
0.0
 70
   128
 71
   81
 72
   80
 73
   72
  0
VERTEX
  8
popcorn
 10
0.0
 20
0.0
 30
0.0
 70
   128
 71
   71
 72
   75
 73
   76
  0
VERTEX
  8
popcorn
 10
0.0
 20
0.0
 30
0.0
 70
   128
 71
   82
 72
   81
 73
   72
  0
VERTEX
  8
popcorn
 10
0.0
 20
0.0
 30
0.0
 70
   128
 71
   71
 72
   76
 73
   77
  0
VERTEX
  8
popcorn
 10
0.0
 20
0.0
 30
0.0
 70
   128
 71
   83
 72
   82
 73
   72
  0
VERTEX
  8
popcorn
 10
0.0
 20
0.0
 30
0.0
 70
   128
 71
   71
 72
   77
 73
   78
  0
VERTEX
  8
popcorn
 10
0.0
 20
0.0
 30
0.0
 70
   128
 71
   84
 72
   83
 73
   72
  0
VERTEX
  8
popcorn
 10
0.0
 20
0.0
 30
0.0
 70
   128
 71
   71
 72
   78
 73
   73
  0
VERTEX
  8
popcorn
 10
0.0
 20
0.0
 30
0.0
 70
   128
 71
   79
 72
   84
 73
   72
  0
VERTEX
  8
popcorn
 10
0.0
 20
0.0
 30
0.0
 70
   128
 71
   87
 72
   93
 73
   94
  0
VERTEX
  8
popcorn
 10
0.0
 20
0.0
 30
0.0
 70
   128
 71
   88
 72
   94
 73
   95
  0
VERTEX
  8
popcorn
 10
0.0
 20
0.0
 30
0.0
 70
   128
 71
   89
 72
   95
 73
   96
  0
VERTEX
  8
popcorn
 10
0.0
 20
0.0
 30
0.0
 70
   128
 71
   90
 72
   96
 73
   97
  0
VERTEX
  8
popcorn
 10
0.0
 20
0.0
 30
0.0
 70
   128
 71
   91
 72
   97
 73
   98
  0
VERTEX
  8
popcorn
 10
0.0
 20
0.0
 30
0.0
 70
   128
 71
   92
 72
   98
 73
   93
  0
VERTEX
  8
popcorn
 10
0.0
 20
0.0
 30
0.0
 70
   128
 71
   85
 72
   87
 73
   88
  0
VERTEX
  8
popcorn
 10
0.0
 20
0.0
 30
0.0
 70
   128
 71
   94
 72
   93
 73
   86
  0
VERTEX
  8
popcorn
 10
0.0
 20
0.0
 30
0.0
 70
   128
 71
   85
 72
   88
 73
   89
  0
VERTEX
  8
popcorn
 10
0.0
 20
0.0
 30
0.0
 70
   128
 71
   95
 72
   94
 73
   86
  0
VERTEX
  8
popcorn
 10
0.0
 20
0.0
 30
0.0
 70
   128
 71
   85
 72
   89
 73
   90
  0
VERTEX
  8
popcorn
 10
0.0
 20
0.0
 30
0.0
 70
   128
 71
   96
 72
   95
 73
   86
  0
VERTEX
  8
popcorn
 10
0.0
 20
0.0
 30
0.0
 70
   128
 71
   85
 72
   90
 73
   91
  0
VERTEX
  8
popcorn
 10
0.0
 20
0.0
 30
0.0
 70
   128
 71
   97
 72
   96
 73
   86
  0
VERTEX
  8
popcorn
 10
0.0
 20
0.0
 30
0.0
 70
   128
 71
   85
 72
   91
 73
   92
  0
VERTEX
  8
popcorn
 10
0.0
 20
0.0
 30
0.0
 70
   128
 71
   98
 72
   97
 73
   86
  0
VERTEX
  8
popcorn
 10
0.0
 20
0.0
 30
0.0
 70
   128
 71
   85
 72
   92
 73
   87
  0
VERTEX
  8
popcorn
 10
0.0
 20
0.0
 30
0.0
 70
   128
 71
   93
 72
   98
 73
   86
  0
VERTEX
  8
popcorn
 10
0.0
 20
0.0
 30
0.0
 70
   128
 71
   101
 72
   107
 73
   108
  0
VERTEX
  8
popcorn
 10
0.0
 20
0.0
 30
0.0
 70
   128
 71
   102
 72
   108
 73
   109
  0
VERTEX
  8
popcorn
 10
0.0
 20
0.0
 30
0.0
 70
   128
 71
   103
 72
   109
 73
   110
  0
VERTEX
  8
popcorn
 10
0.0
 20
0.0
 30
0.0
 70
   128
 71
   104
 72
   110
 73
   111
  0
VERTEX
  8
popcorn
 10
0.0
 20
0.0
 30
0.0
 70
   128
 71
   105
 72
   111
 73
   112
  0
VERTEX
  8
popcorn
 10
0.0
 20
0.0
 30
0.0
 70
   128
 71
   106
 72
   112
 73
   107
  0
VERTEX
  8
popcorn
 10
0.0
 20
0.0
 30
0.0
 70
   128
 71
   99
 72
   101
 73
   102
  0
VERTEX
  8
popcorn
 10
0.0
 20
0.0
 30
0.0
 70
   128
 71
   108
 72
   107
 73
   100
  0
VERTEX
  8
popcorn
 10
0.0
 20
0.0
 30
0.0
 70
   128
 71
   99
 72
   102
 73
   103
  0
VERTEX
  8
popcorn
 10
0.0
 20
0.0
 30
0.0
 70
   128
 71
   109
 72
   108
 73
   100
  0
VERTEX
  8
popcorn
 10
0.0
 20
0.0
 30
0.0
 70
   128
 71
   99
 72
   103
 73
   104
  0
VERTEX
  8
popcorn
 10
0.0
 20
0.0
 30
0.0
 70
   128
 71
   110
 72
   109
 73
   100
  0
VERTEX
  8
popcorn
 10
0.0
 20
0.0
 30
0.0
 70
   128
 71
   99
 72
   104
 73
   105
  0
VERTEX
  8
popcorn
 10
0.0
 20
0.0
 30
0.0
 70
   128
 71
   111
 72
   110
 73
   100
  0
VERTEX
  8
popcorn
 10
0.0
 20
0.0
 30
0.0
 70
   128
 71
   99
 72
   105
 73
   106
  0
VERTEX
  8
popcorn
 10
0.0
 20
0.0
 30
0.0
 70
   128
 71
   112
 72
   111
 73
   100
  0
VERTEX
  8
popcorn
 10
0.0
 20
0.0
 30
0.0
 70
   128
 71
   99
 72
   106
 73
   101
  0
VERTEX
  8
popcorn
 10
0.0
 20
0.0
 30
0.0
 70
   128
 71
   107
 72
   112
 73
   100
  0
VERTEX
  8
popcorn
 10
0.0
 20
0.0
 30
0.0
 70
   128
 71
   115
 72
   121
 73
   122
  0
VERTEX
  8
popcorn
 10
0.0
 20
0.0
 30
0.0
 70
   128
 71
   116
 72
   122
 73
   123
  0
VERTEX
  8
popcorn
 10
0.0
 20
0.0
 30
0.0
 70
   128
 71
   117
 72
   123
 73
   124
  0
VERTEX
  8
popcorn
 10
0.0
 20
0.0
 30
0.0
 70
   128
 71
   118
 72
   124
 73
   125
  0
VERTEX
  8
popcorn
 10
0.0
 20
0.0
 30
0.0
 70
   128
 71
   119
 72
   125
 73
   126
  0
VERTEX
  8
popcorn
 10
0.0
 20
0.0
 30
0.0
 70
   128
 71
   120
 72
   126
 73
   121
  0
VERTEX
  8
popcorn
 10
0.0
 20
0.0
 30
0.0
 70
   128
 71
   113
 72
   115
 73
   116
  0
VERTEX
  8
popcorn
 10
0.0
 20
0.0
 30
0.0
 70
   128
 71
   122
 72
   121
 73
   114
  0
VERTEX
  8
popcorn
 10
0.0
 20
0.0
 30
0.0
 70
   128
 71
   113
 72
   116
 73
   117
  0
VERTEX
  8
popcorn
 10
0.0
 20
0.0
 30
0.0
 70
   128
 71
   123
 72
   122
 73
   114
  0
VERTEX
  8
popcorn
 10
0.0
 20
0.0
 30
0.0
 70
   128
 71
   113
 72
   117
 73
   118
  0
VERTEX
  8
popcorn
 10
0.0
 20
0.0
 30
0.0
 70
   128
 71
   124
 72
   123
 73
   114
  0
VERTEX
  8
popcorn
 10
0.0
 20
0.0
 30
0.0
 70
   128
 71
   113
 72
   118
 73
   119
  0
VERTEX
  8
popcorn
 10
0.0
 20
0.0
 30
0.0
 70
   128
 71
   125
 72
   124
 73
   114
  0
VERTEX
  8
popcorn
 10
0.0
 20
0.0
 30
0.0
 70
   128
 71
   113
 72
   119
 73
   120
  0
VERTEX
  8
popcorn
 10
0.0
 20
0.0
 30
0.0
 70
   128
 71
   126
 72
   125
 73
   114
  0
VERTEX
  8
popcorn
 10
0.0
 20
0.0
 30
0.0
 70
   128
 71
   113
 72
   120
 73
   115
  0
VERTEX
  8
popcorn
 10
0.0
 20
0.0
 30
0.0
 70
   128
 71
   121
 72
   126
 73
   114
  0
VERTEX
  8
popcorn
 10
0.0
 20
0.0
 30
0.0
 70
   128
 71
   129
 72
   135
 73
   136
  0
VERTEX
  8
popcorn
 10
0.0
 20
0.0
 30
0.0
 70
   128
 71
   130
 72
   136
 73
   137
  0
VERTEX
  8
popcorn
 10
0.0
 20
0.0
 30
0.0
 70
   128
 71
   131
 72
   137
 73
   138
  0
VERTEX
  8
popcorn
 10
0.0
 20
0.0
 30
0.0
 70
   128
 71
   132
 72
   138
 73
   139
  0
VERTEX
  8
popcorn
 10
0.0
 20
0.0
 30
0.0
 70
   128
 71
   133
 72
   139
 73
   140
  0
VERTEX
  8
popcorn
 10
0.0
 20
0.0
 30
0.0
 70
   128
 71
   134
 72
   140
 73
   135
  0
VERTEX
  8
popcorn
 10
0.0
 20
0.0
 30
0.0
 70
   128
 71
   127
 72
   129
 73
   130
  0
VERTEX
  8
popcorn
 10
0.0
 20
0.0
 30
0.0
 70
   128
 71
   136
 72
   135
 73
   128
  0
VERTEX
  8
popcorn
 10
0.0
 20
0.0
 30
0.0
 70
   128
 71
   127
 72
   130
 73
   131
  0
VERTEX
  8
popcorn
 10
0.0
 20
0.0
 30
0.0
 70
   128
 71
   137
 72
   136
 73
   128
  0
VERTEX
  8
popcorn
 10
0.0
 20
0.0
 30
0.0
 70
   128
 71
   127
 72
   131
 73
   132
  0
VERTEX
  8
popcorn
 10
0.0
 20
0.0
 30
0.0
 70
   128
 71
   138
 72
   137
 73
   128
  0
VERTEX
  8
popcorn
 10
0.0
 20
0.0
 30
0.0
 70
   128
 71
   127
 72
   132
 73
   133
  0
VERTEX
  8
popcorn
 10
0.0
 20
0.0
 30
0.0
 70
   128
 71
   139
 72
   138
 73
   128
  0
VERTEX
  8
popcorn
 10
0.0
 20
0.0
 30
0.0
 70
   128
 71
   127
 72
   133
 73
   134
  0
VERTEX
  8
popcorn
 10
0.0
 20
0.0
 30
0.0
 70
   128
 71
   140
 72
   139
 73
   128
  0
VERTEX
  8
popcorn
 10
0.0
 20
0.0
 30
0.0
 70
   128
 71
   127
 72
   134
 73
   129
  0
VERTEX
  8
popcorn
 10
0.0
 20
0.0
 30
0.0
 70
   128
 71
   135
 72
   140
 73
   128
  0
VERTEX
  8
popcorn
 10
0.0
 20
0.0
 30
0.0
 70
   128
 71
   143
 72
   149
 73
   150
  0
VERTEX
  8
popcorn
 10
0.0
 20
0.0
 30
0.0
 70
   128
 71
   144
 72
   150
 73
   151
  0
VERTEX
  8
popcorn
 10
0.0
 20
0.0
 30
0.0
 70
   128
 71
   145
 72
   151
 73
   152
  0
VERTEX
  8
popcorn
 10
0.0
 20
0.0
 30
0.0
 70
   128
 71
   146
 72
   152
 73
   153
  0
VERTEX
  8
popcorn
 10
0.0
 20
0.0
 30
0.0
 70
   128
 71
   147
 72
   153
 73
   154
  0
VERTEX
  8
popcorn
 10
0.0
 20
0.0
 30
0.0
 70
   128
 71
   148
 72
   154
 73
   149
  0
VERTEX
  8
popcorn
 10
0.0
 20
0.0
 30
0.0
 70
   128
 71
   141
 72
   143
 73
   144
  0
VERTEX
  8
popcorn
 10
0.0
 20
0.0
 30
0.0
 70
   128
 71
   150
 72
   149
 73
   142
  0
VERTEX
  8
popcorn
 10
0.0
 20
0.0
 30
0.0
 70
   128
 71
   141
 72
   144
 73
   145
  0
VERTEX
  8
popcorn
 10
0.0
 20
0.0
 30
0.0
 70
   128
 71
   151
 72
   150
 73
   142
  0
VERTEX
  8
popcorn
 10
0.0
 20
0.0
 30
0.0
 70
   128
 71
   141
 72
   145
 73
   146
  0
VERTEX
  8
popcorn
 10
0.0
 20
0.0
 30
0.0
 70
   128
 71
   152
 72
   151
 73
   142
  0
VERTEX
  8
popcorn
 10
0.0
 20
0.0
 30
0.0
 70
   128
 71
   141
 72
   146
 73
   147
  0
VERTEX
  8
popcorn
 10
0.0
 20
0.0
 30
0.0
 70
   128
 71
   153
 72
   152
 73
   142
  0
VERTEX
  8
popcorn
 10
0.0
 20
0.0
 30
0.0
 70
   128
 71
   141
 72
   147
 73
   148
  0
VERTEX
  8
popcorn
 10
0.0
 20
0.0
 30
0.0
 70
   128
 71
   154
 72
   153
 73
   142
  0
VERTEX
  8
popcorn
 10
0.0
 20
0.0
 30
0.0
 70
   128
 71
   141
 72
   148
 73
   143
  0
VERTEX
  8
popcorn
 10
0.0
 20
0.0
 30
0.0
 70
   128
 71
   149
 72
   154
 73
   142
  0
VERTEX
  8
popcorn
 10
0.0
 20
0.0
 30
0.0
 70
   128
 71
   157
 72
   163
 73
   164
  0
VERTEX
  8
popcorn
 10
0.0
 20
0.0
 30
0.0
 70
   128
 71
   158
 72
   164
 73
   165
  0
VERTEX
  8
popcorn
 10
0.0
 20
0.0
 30
0.0
 70
   128
 71
   159
 72
   165
 73
   166
  0
VERTEX
  8
popcorn
 10
0.0
 20
0.0
 30
0.0
 70
   128
 71
   160
 72
   166
 73
   167
  0
VERTEX
  8
popcorn
 10
0.0
 20
0.0
 30
0.0
 70
   128
 71
   161
 72
   167
 73
   168
  0
VERTEX
  8
popcorn
 10
0.0
 20
0.0
 30
0.0
 70
   128
 71
   162
 72
   168
 73
   163
  0
VERTEX
  8
popcorn
 10
0.0
 20
0.0
 30
0.0
 70
   128
 71
   155
 72
   157
 73
   158
  0
VERTEX
  8
popcorn
 10
0.0
 20
0.0
 30
0.0
 70
   128
 71
   164
 72
   163
 73
   156
  0
VERTEX
  8
popcorn
 10
0.0
 20
0.0
 30
0.0
 70
   128
 71
   155
 72
   158
 73
   159
  0
VERTEX
  8
popcorn
 10
0.0
 20
0.0
 30
0.0
 70
   128
 71
   165
 72
   164
 73
   156
  0
VERTEX
  8
popcorn
 10
0.0
 20
0.0
 30
0.0
 70
   128
 71
   155
 72
   159
 73
   160
  0
VERTEX
  8
popcorn
 10
0.0
 20
0.0
 30
0.0
 70
   128
 71
   166
 72
   165
 73
   156
  0
VERTEX
  8
popcorn
 10
0.0
 20
0.0
 30
0.0
 70
   128
 71
   155
 72
   160
 73
   161
  0
VERTEX
  8
popcorn
 10
0.0
 20
0.0
 30
0.0
 70
   128
 71
   167
 72
   166
 73
   156
  0
VERTEX
  8
popcorn
 10
0.0
 20
0.0
 30
0.0
 70
   128
 71
   155
 72
   161
 73
   162
  0
VERTEX
  8
popcorn
 10
0.0
 20
0.0
 30
0.0
 70
   128
 71
   168
 72
   167
 73
   156
  0
VERTEX
  8
popcorn
 10
0.0
 20
0.0
 30
0.0
 70
   128
 71
   155
 72
   162
 73
   157
  0
VERTEX
  8
popcorn
 10
0.0
 20
0.0
 30
0.0
 70
   128
 71
   163
 72
   168
 73
   156
  0
VERTEX
  8
popcorn
 10
0.0
 20
0.0
 30
0.0
 70
   128
 71
   171
 72
   177
 73
   178
  0
VERTEX
  8
popcorn
 10
0.0
 20
0.0
 30
0.0
 70
   128
 71
   172
 72
   178
 73
   179
  0
VERTEX
  8
popcorn
 10
0.0
 20
0.0
 30
0.0
 70
   128
 71
   173
 72
   179
 73
   180
  0
VERTEX
  8
popcorn
 10
0.0
 20
0.0
 30
0.0
 70
   128
 71
   174
 72
   180
 73
   181
  0
VERTEX
  8
popcorn
 10
0.0
 20
0.0
 30
0.0
 70
   128
 71
   175
 72
   181
 73
   182
  0
VERTEX
  8
popcorn
 10
0.0
 20
0.0
 30
0.0
 70
   128
 71
   176
 72
   182
 73
   177
  0
VERTEX
  8
popcorn
 10
0.0
 20
0.0
 30
0.0
 70
   128
 71
   169
 72
   171
 73
   172
  0
VERTEX
  8
popcorn
 10
0.0
 20
0.0
 30
0.0
 70
   128
 71
   178
 72
   177
 73
   170
  0
VERTEX
  8
popcorn
 10
0.0
 20
0.0
 30
0.0
 70
   128
 71
   169
 72
   172
 73
   173
  0
VERTEX
  8
popcorn
 10
0.0
 20
0.0
 30
0.0
 70
   128
 71
   179
 72
   178
 73
   170
  0
VERTEX
  8
popcorn
 10
0.0
 20
0.0
 30
0.0
 70
   128
 71
   169
 72
   173
 73
   174
  0
VERTEX
  8
popcorn
 10
0.0
 20
0.0
 30
0.0
 70
   128
 71
   180
 72
   179
 73
   170
  0
VERTEX
  8
popcorn
 10
0.0
 20
0.0
 30
0.0
 70
   128
 71
   169
 72
   174
 73
   175
  0
VERTEX
  8
popcorn
 10
0.0
 20
0.0
 30
0.0
 70
   128
 71
   181
 72
   180
 73
   170
  0
VERTEX
  8
popcorn
 10
0.0
 20
0.0
 30
0.0
 70
   128
 71
   169
 72
   175
 73
   176
  0
VERTEX
  8
popcorn
 10
0.0
 20
0.0
 30
0.0
 70
   128
 71
   182
 72
   181
 73
   170
  0
VERTEX
  8
popcorn
 10
0.0
 20
0.0
 30
0.0
 70
   128
 71
   169
 72
   176
 73
   171
  0
VERTEX
  8
popcorn
 10
0.0
 20
0.0
 30
0.0
 70
   128
 71
   177
 72
   182
 73
   170
  0
VERTEX
  8
popcorn
 10
0.0
 20
0.0
 30
0.0
 70
   128
 71
   185
 72
   191
 73
   192
  0
VERTEX
  8
popcorn
 10
0.0
 20
0.0
 30
0.0
 70
   128
 71
   186
 72
   192
 73
   193
  0
VERTEX
  8
popcorn
 10
0.0
 20
0.0
 30
0.0
 70
   128
 71
   187
 72
   193
 73
   194
  0
VERTEX
  8
popcorn
 10
0.0
 20
0.0
 30
0.0
 70
   128
 71
   188
 72
   194
 73
   195
  0
VERTEX
  8
popcorn
 10
0.0
 20
0.0
 30
0.0
 70
   128
 71
   189
 72
   195
 73
   196
  0
VERTEX
  8
popcorn
 10
0.0
 20
0.0
 30
0.0
 70
   128
 71
   190
 72
   196
 73
   191
  0
VERTEX
  8
popcorn
 10
0.0
 20
0.0
 30
0.0
 70
   128
 71
   183
 72
   185
 73
   186
  0
VERTEX
  8
popcorn
 10
0.0
 20
0.0
 30
0.0
 70
   128
 71
   192
 72
   191
 73
   184
  0
VERTEX
  8
popcorn
 10
0.0
 20
0.0
 30
0.0
 70
   128
 71
   183
 72
   186
 73
   187
  0
VERTEX
  8
popcorn
 10
0.0
 20
0.0
 30
0.0
 70
   128
 71
   193
 72
   192
 73
   184
  0
VERTEX
  8
popcorn
 10
0.0
 20
0.0
 30
0.0
 70
   128
 71
   183
 72
   187
 73
   188
  0
VERTEX
  8
popcorn
 10
0.0
 20
0.0
 30
0.0
 70
   128
 71
   194
 72
   193
 73
   184
  0
VERTEX
  8
popcorn
 10
0.0
 20
0.0
 30
0.0
 70
   128
 71
   183
 72
   188
 73
   189
  0
VERTEX
  8
popcorn
 10
0.0
 20
0.0
 30
0.0
 70
   128
 71
   195
 72
   194
 73
   184
  0
VERTEX
  8
popcorn
 10
0.0
 20
0.0
 30
0.0
 70
   128
 71
   183
 72
   189
 73
   190
  0
VERTEX
  8
popcorn
 10
0.0
 20
0.0
 30
0.0
 70
   128
 71
   196
 72
   195
 73
   184
  0
VERTEX
  8
popcorn
 10
0.0
 20
0.0
 30
0.0
 70
   128
 71
   183
 72
   190
 73
   185
  0
VERTEX
  8
popcorn
 10
0.0
 20
0.0
 30
0.0
 70
   128
 71
   191
 72
   196
 73
   184
  0
VERTEX
  8
popcorn
 10
0.0
 20
0.0
 30
0.0
 70
   128
 71
   199
 72
   205
 73
   206
  0
VERTEX
  8
popcorn
 10
0.0
 20
0.0
 30
0.0
 70
   128
 71
   200
 72
   206
 73
   207
  0
VERTEX
  8
popcorn
 10
0.0
 20
0.0
 30
0.0
 70
   128
 71
   201
 72
   207
 73
   208
  0
VERTEX
  8
popcorn
 10
0.0
 20
0.0
 30
0.0
 70
   128
 71
   202
 72
   208
 73
   209
  0
VERTEX
  8
popcorn
 10
0.0
 20
0.0
 30
0.0
 70
   128
 71
   203
 72
   209
 73
   210
  0
VERTEX
  8
popcorn
 10
0.0
 20
0.0
 30
0.0
 70
   128
 71
   204
 72
   210
 73
   205
  0
VERTEX
  8
popcorn
 10
0.0
 20
0.0
 30
0.0
 70
   128
 71
   197
 72
   199
 73
   200
  0
VERTEX
  8
popcorn
 10
0.0
 20
0.0
 30
0.0
 70
   128
 71
   206
 72
   205
 73
   198
  0
VERTEX
  8
popcorn
 10
0.0
 20
0.0
 30
0.0
 70
   128
 71
   197
 72
   200
 73
   201
  0
VERTEX
  8
popcorn
 10
0.0
 20
0.0
 30
0.0
 70
   128
 71
   207
 72
   206
 73
   198
  0
VERTEX
  8
popcorn
 10
0.0
 20
0.0
 30
0.0
 70
   128
 71
   197
 72
   201
 73
   202
  0
VERTEX
  8
popcorn
 10
0.0
 20
0.0
 30
0.0
 70
   128
 71
   208
 72
   207
 73
   198
  0
VERTEX
  8
popcorn
 10
0.0
 20
0.0
 30
0.0
 70
   128
 71
   197
 72
   202
 73
   203
  0
VERTEX
  8
popcorn
 10
0.0
 20
0.0
 30
0.0
 70
   128
 71
   209
 72
   208
 73
   198
  0
VERTEX
  8
popcorn
 10
0.0
 20
0.0
 30
0.0
 70
   128
 71
   197
 72
   203
 73
   204
  0
VERTEX
  8
popcorn
 10
0.0
 20
0.0
 30
0.0
 70
   128
 71
   210
 72
   209
 73
   198
  0
VERTEX
  8
popcorn
 10
0.0
 20
0.0
 30
0.0
 70
   128
 71
   197
 72
   204
 73
   199
  0
VERTEX
  8
popcorn
 10
0.0
 20
0.0
 30
0.0
 70
   128
 71
   205
 72
   210
 73
   198
  0
VERTEX
  8
popcorn
 10
0.0
 20
0.0
 30
0.0
 70
   128
 71
   213
 72
   219
 73
   220
  0
VERTEX
  8
popcorn
 10
0.0
 20
0.0
 30
0.0
 70
   128
 71
   214
 72
   220
 73
   221
  0
VERTEX
  8
popcorn
 10
0.0
 20
0.0
 30
0.0
 70
   128
 71
   215
 72
   221
 73
   222
  0
VERTEX
  8
popcorn
 10
0.0
 20
0.0
 30
0.0
 70
   128
 71
   216
 72
   222
 73
   223
  0
VERTEX
  8
popcorn
 10
0.0
 20
0.0
 30
0.0
 70
   128
 71
   217
 72
   223
 73
   224
  0
VERTEX
  8
popcorn
 10
0.0
 20
0.0
 30
0.0
 70
   128
 71
   218
 72
   224
 73
   219
  0
VERTEX
  8
popcorn
 10
0.0
 20
0.0
 30
0.0
 70
   128
 71
   211
 72
   213
 73
   214
  0
VERTEX
  8
popcorn
 10
0.0
 20
0.0
 30
0.0
 70
   128
 71
   220
 72
   219
 73
   212
  0
VERTEX
  8
popcorn
 10
0.0
 20
0.0
 30
0.0
 70
   128
 71
   211
 72
   214
 73
   215
  0
VERTEX
  8
popcorn
 10
0.0
 20
0.0
 30
0.0
 70
   128
 71
   221
 72
   220
 73
   212
  0
VERTEX
  8
popcorn
 10
0.0
 20
0.0
 30
0.0
 70
   128
 71
   211
 72
   215
 73
   216
  0
VERTEX
  8
popcorn
 10
0.0
 20
0.0
 30
0.0
 70
   128
 71
   222
 72
   221
 73
   212
  0
VERTEX
  8
popcorn
 10
0.0
 20
0.0
 30
0.0
 70
   128
 71
   211
 72
   216
 73
   217
  0
VERTEX
  8
popcorn
 10
0.0
 20
0.0
 30
0.0
 70
   128
 71
   223
 72
   222
 73
   212
  0
VERTEX
  8
popcorn
 10
0.0
 20
0.0
 30
0.0
 70
   128
 71
   211
 72
   217
 73
   218
  0
VERTEX
  8
popcorn
 10
0.0
 20
0.0
 30
0.0
 70
   128
 71
   224
 72
   223
 73
   212
  0
VERTEX
  8
popcorn
 10
0.0
 20
0.0
 30
0.0
 70
   128
 71
   211
 72
   218
 73
   213
  0
VERTEX
  8
popcorn
 10
0.0
 20
0.0
 30
0.0
 70
   128
 71
   219
 72
   224
 73
   212
  0
VERTEX
  8
popcorn
 10
0.0
 20
0.0
 30
0.0
 70
   128
 71
   227
 72
   233
 73
   234
  0
VERTEX
  8
popcorn
 10
0.0
 20
0.0
 30
0.0
 70
   128
 71
   228
 72
   234
 73
   235
  0
VERTEX
  8
popcorn
 10
0.0
 20
0.0
 30
0.0
 70
   128
 71
   229
 72
   235
 73
   236
  0
VERTEX
  8
popcorn
 10
0.0
 20
0.0
 30
0.0
 70
   128
 71
   230
 72
   236
 73
   237
  0
VERTEX
  8
popcorn
 10
0.0
 20
0.0
 30
0.0
 70
   128
 71
   231
 72
   237
 73
   238
  0
VERTEX
  8
popcorn
 10
0.0
 20
0.0
 30
0.0
 70
   128
 71
   232
 72
   238
 73
   233
  0
VERTEX
  8
popcorn
 10
0.0
 20
0.0
 30
0.0
 70
   128
 71
   225
 72
   227
 73
   228
  0
VERTEX
  8
popcorn
 10
0.0
 20
0.0
 30
0.0
 70
   128
 71
   234
 72
   233
 73
   226
  0
VERTEX
  8
popcorn
 10
0.0
 20
0.0
 30
0.0
 70
   128
 71
   225
 72
   228
 73
   229
  0
VERTEX
  8
popcorn
 10
0.0
 20
0.0
 30
0.0
 70
   128
 71
   235
 72
   234
 73
   226
  0
VERTEX
  8
popcorn
 10
0.0
 20
0.0
 30
0.0
 70
   128
 71
   225
 72
   229
 73
   230
  0
VERTEX
  8
popcorn
 10
0.0
 20
0.0
 30
0.0
 70
   128
 71
   236
 72
   235
 73
   226
  0
VERTEX
  8
popcorn
 10
0.0
 20
0.0
 30
0.0
 70
   128
 71
   225
 72
   230
 73
   231
  0
VERTEX
  8
popcorn
 10
0.0
 20
0.0
 30
0.0
 70
   128
 71
   237
 72
   236
 73
   226
  0
VERTEX
  8
popcorn
 10
0.0
 20
0.0
 30
0.0
 70
   128
 71
   225
 72
   231
 73
   232
  0
VERTEX
  8
popcorn
 10
0.0
 20
0.0
 30
0.0
 70
   128
 71
   238
 72
   237
 73
   226
  0
VERTEX
  8
popcorn
 10
0.0
 20
0.0
 30
0.0
 70
   128
 71
   225
 72
   232
 73
   227
  0
VERTEX
  8
popcorn
 10
0.0
 20
0.0
 30
0.0
 70
   128
 71
   233
 72
   238
 73
   226
  0
VERTEX
  8
popcorn
 10
0.0
 20
0.0
 30
0.0
 70
   128
 71
   241
 72
   247
 73
   248
  0
VERTEX
  8
popcorn
 10
0.0
 20
0.0
 30
0.0
 70
   128
 71
   242
 72
   248
 73
   249
  0
VERTEX
  8
popcorn
 10
0.0
 20
0.0
 30
0.0
 70
   128
 71
   243
 72
   249
 73
   250
  0
VERTEX
  8
popcorn
 10
0.0
 20
0.0
 30
0.0
 70
   128
 71
   244
 72
   250
 73
   251
  0
VERTEX
  8
popcorn
 10
0.0
 20
0.0
 30
0.0
 70
   128
 71
   245
 72
   251
 73
   252
  0
VERTEX
  8
popcorn
 10
0.0
 20
0.0
 30
0.0
 70
   128
 71
   246
 72
   252
 73
   247
  0
VERTEX
  8
popcorn
 10
0.0
 20
0.0
 30
0.0
 70
   128
 71
   239
 72
   241
 73
   242
  0
VERTEX
  8
popcorn
 10
0.0
 20
0.0
 30
0.0
 70
   128
 71
   248
 72
   247
 73
   240
  0
VERTEX
  8
popcorn
 10
0.0
 20
0.0
 30
0.0
 70
   128
 71
   239
 72
   242
 73
   243
  0
VERTEX
  8
popcorn
 10
0.0
 20
0.0
 30
0.0
 70
   128
 71
   249
 72
   248
 73
   240
  0
VERTEX
  8
popcorn
 10
0.0
 20
0.0
 30
0.0
 70
   128
 71
   239
 72
   243
 73
   244
  0
VERTEX
  8
popcorn
 10
0.0
 20
0.0
 30
0.0
 70
   128
 71
   250
 72
   249
 73
   240
  0
VERTEX
  8
popcorn
 10
0.0
 20
0.0
 30
0.0
 70
   128
 71
   239
 72
   244
 73
   245
  0
VERTEX
  8
popcorn
 10
0.0
 20
0.0
 30
0.0
 70
   128
 71
   251
 72
   250
 73
   240
  0
VERTEX
  8
popcorn
 10
0.0
 20
0.0
 30
0.0
 70
   128
 71
   239
 72
   245
 73
   246
  0
VERTEX
  8
popcorn
 10
0.0
 20
0.0
 30
0.0
 70
   128
 71
   252
 72
   251
 73
   240
  0
VERTEX
  8
popcorn
 10
0.0
 20
0.0
 30
0.0
 70
   128
 71
   239
 72
   246
 73
   241
  0
VERTEX
  8
popcorn
 10
0.0
 20
0.0
 30
0.0
 70
   128
 71
   247
 72
   252
 73
   240
  0
VERTEX
  8
popcorn
 10
0.0
 20
0.0
 30
0.0
 70
   128
 71
   255
 72
   261
 73
   262
  0
VERTEX
  8
popcorn
 10
0.0
 20
0.0
 30
0.0
 70
   128
 71
   256
 72
   262
 73
   263
  0
VERTEX
  8
popcorn
 10
0.0
 20
0.0
 30
0.0
 70
   128
 71
   257
 72
   263
 73
   264
  0
VERTEX
  8
popcorn
 10
0.0
 20
0.0
 30
0.0
 70
   128
 71
   258
 72
   264
 73
   265
  0
VERTEX
  8
popcorn
 10
0.0
 20
0.0
 30
0.0
 70
   128
 71
   259
 72
   265
 73
   266
  0
VERTEX
  8
popcorn
 10
0.0
 20
0.0
 30
0.0
 70
   128
 71
   260
 72
   266
 73
   261
  0
VERTEX
  8
popcorn
 10
0.0
 20
0.0
 30
0.0
 70
   128
 71
   253
 72
   255
 73
   256
  0
VERTEX
  8
popcorn
 10
0.0
 20
0.0
 30
0.0
 70
   128
 71
   262
 72
   261
 73
   254
  0
VERTEX
  8
popcorn
 10
0.0
 20
0.0
 30
0.0
 70
   128
 71
   253
 72
   256
 73
   257
  0
VERTEX
  8
popcorn
 10
0.0
 20
0.0
 30
0.0
 70
   128
 71
   263
 72
   262
 73
   254
  0
VERTEX
  8
popcorn
 10
0.0
 20
0.0
 30
0.0
 70
   128
 71
   253
 72
   257
 73
   258
  0
VERTEX
  8
popcorn
 10
0.0
 20
0.0
 30
0.0
 70
   128
 71
   264
 72
   263
 73
   254
  0
VERTEX
  8
popcorn
 10
0.0
 20
0.0
 30
0.0
 70
   128
 71
   253
 72
   258
 73
   259
  0
VERTEX
  8
popcorn
 10
0.0
 20
0.0
 30
0.0
 70
   128
 71
   265
 72
   264
 73
   254
  0
VERTEX
  8
popcorn
 10
0.0
 20
0.0
 30
0.0
 70
   128
 71
   253
 72
   259
 73
   260
  0
VERTEX
  8
popcorn
 10
0.0
 20
0.0
 30
0.0
 70
   128
 71
   266
 72
   265
 73
   254
  0
VERTEX
  8
popcorn
 10
0.0
 20
0.0
 30
0.0
 70
   128
 71
   253
 72
   260
 73
   255
  0
VERTEX
  8
popcorn
 10
0.0
 20
0.0
 30
0.0
 70
   128
 71
   261
 72
   266
 73
   254
  0
VERTEX
  8
popcorn
 10
0.0
 20
0.0
 30
0.0
 70
   128
 71
   269
 72
   275
 73
   276
  0
VERTEX
  8
popcorn
 10
0.0
 20
0.0
 30
0.0
 70
   128
 71
   270
 72
   276
 73
   277
  0
VERTEX
  8
popcorn
 10
0.0
 20
0.0
 30
0.0
 70
   128
 71
   271
 72
   277
 73
   278
  0
VERTEX
  8
popcorn
 10
0.0
 20
0.0
 30
0.0
 70
   128
 71
   272
 72
   278
 73
   279
  0
VERTEX
  8
popcorn
 10
0.0
 20
0.0
 30
0.0
 70
   128
 71
   273
 72
   279
 73
   280
  0
VERTEX
  8
popcorn
 10
0.0
 20
0.0
 30
0.0
 70
   128
 71
   274
 72
   280
 73
   275
  0
VERTEX
  8
popcorn
 10
0.0
 20
0.0
 30
0.0
 70
   128
 71
   267
 72
   269
 73
   270
  0
VERTEX
  8
popcorn
 10
0.0
 20
0.0
 30
0.0
 70
   128
 71
   276
 72
   275
 73
   268
  0
VERTEX
  8
popcorn
 10
0.0
 20
0.0
 30
0.0
 70
   128
 71
   267
 72
   270
 73
   271
  0
VERTEX
  8
popcorn
 10
0.0
 20
0.0
 30
0.0
 70
   128
 71
   277
 72
   276
 73
   268
  0
VERTEX
  8
popcorn
 10
0.0
 20
0.0
 30
0.0
 70
   128
 71
   267
 72
   271
 73
   272
  0
VERTEX
  8
popcorn
 10
0.0
 20
0.0
 30
0.0
 70
   128
 71
   278
 72
   277
 73
   268
  0
VERTEX
  8
popcorn
 10
0.0
 20
0.0
 30
0.0
 70
   128
 71
   267
 72
   272
 73
   273
  0
VERTEX
  8
popcorn
 10
0.0
 20
0.0
 30
0.0
 70
   128
 71
   279
 72
   278
 73
   268
  0
VERTEX
  8
popcorn
 10
0.0
 20
0.0
 30
0.0
 70
   128
 71
   267
 72
   273
 73
   274
  0
VERTEX
  8
popcorn
 10
0.0
 20
0.0
 30
0.0
 70
   128
 71
   280
 72
   279
 73
   268
  0
VERTEX
  8
popcorn
 10
0.0
 20
0.0
 30
0.0
 70
   128
 71
   267
 72
   274
 73
   269
  0
VERTEX
  8
popcorn
 10
0.0
 20
0.0
 30
0.0
 70
   128
 71
   275
 72
   280
 73
   268
  0
VERTEX
  8
popcorn
 10
0.0
 20
0.0
 30
0.0
 70
   128
 71
   283
 72
   289
 73
   290
  0
VERTEX
  8
popcorn
 10
0.0
 20
0.0
 30
0.0
 70
   128
 71
   284
 72
   290
 73
   291
  0
VERTEX
  8
popcorn
 10
0.0
 20
0.0
 30
0.0
 70
   128
 71
   285
 72
   291
 73
   292
  0
VERTEX
  8
popcorn
 10
0.0
 20
0.0
 30
0.0
 70
   128
 71
   286
 72
   292
 73
   293
  0
VERTEX
  8
popcorn
 10
0.0
 20
0.0
 30
0.0
 70
   128
 71
   287
 72
   293
 73
   294
  0
VERTEX
  8
popcorn
 10
0.0
 20
0.0
 30
0.0
 70
   128
 71
   288
 72
   294
 73
   289
  0
VERTEX
  8
popcorn
 10
0.0
 20
0.0
 30
0.0
 70
   128
 71
   281
 72
   283
 73
   284
  0
VERTEX
  8
popcorn
 10
0.0
 20
0.0
 30
0.0
 70
   128
 71
   290
 72
   289
 73
   282
  0
VERTEX
  8
popcorn
 10
0.0
 20
0.0
 30
0.0
 70
   128
 71
   281
 72
   284
 73
   285
  0
VERTEX
  8
popcorn
 10
0.0
 20
0.0
 30
0.0
 70
   128
 71
   291
 72
   290
 73
   282
  0
VERTEX
  8
popcorn
 10
0.0
 20
0.0
 30
0.0
 70
   128
 71
   281
 72
   285
 73
   286
  0
VERTEX
  8
popcorn
 10
0.0
 20
0.0
 30
0.0
 70
   128
 71
   292
 72
   291
 73
   282
  0
VERTEX
  8
popcorn
 10
0.0
 20
0.0
 30
0.0
 70
   128
 71
   281
 72
   286
 73
   287
  0
VERTEX
  8
popcorn
 10
0.0
 20
0.0
 30
0.0
 70
   128
 71
   293
 72
   292
 73
   282
  0
VERTEX
  8
popcorn
 10
0.0
 20
0.0
 30
0.0
 70
   128
 71
   281
 72
   287
 73
   288
  0
VERTEX
  8
popcorn
 10
0.0
 20
0.0
 30
0.0
 70
   128
 71
   294
 72
   293
 73
   282
  0
VERTEX
  8
popcorn
 10
0.0
 20
0.0
 30
0.0
 70
   128
 71
   281
 72
   288
 73
   283
  0
VERTEX
  8
popcorn
 10
0.0
 20
0.0
 30
0.0
 70
   128
 71
   289
 72
   294
 73
   282
  0
VERTEX
  8
popcorn
 10
0.0
 20
0.0
 30
0.0
 70
   128
 71
   297
 72
   303
 73
   304
  0
VERTEX
  8
popcorn
 10
0.0
 20
0.0
 30
0.0
 70
   128
 71
   298
 72
   304
 73
   305
  0
VERTEX
  8
popcorn
 10
0.0
 20
0.0
 30
0.0
 70
   128
 71
   299
 72
   305
 73
   306
  0
VERTEX
  8
popcorn
 10
0.0
 20
0.0
 30
0.0
 70
   128
 71
   300
 72
   306
 73
   307
  0
VERTEX
  8
popcorn
 10
0.0
 20
0.0
 30
0.0
 70
   128
 71
   301
 72
   307
 73
   308
  0
VERTEX
  8
popcorn
 10
0.0
 20
0.0
 30
0.0
 70
   128
 71
   302
 72
   308
 73
   303
  0
VERTEX
  8
popcorn
 10
0.0
 20
0.0
 30
0.0
 70
   128
 71
   295
 72
   297
 73
   298
  0
VERTEX
  8
popcorn
 10
0.0
 20
0.0
 30
0.0
 70
   128
 71
   304
 72
   303
 73
   296
  0
VERTEX
  8
popcorn
 10
0.0
 20
0.0
 30
0.0
 70
   128
 71
   295
 72
   298
 73
   299
  0
VERTEX
  8
popcorn
 10
0.0
 20
0.0
 30
0.0
 70
   128
 71
   305
 72
   304
 73
   296
  0
VERTEX
  8
popcorn
 10
0.0
 20
0.0
 30
0.0
 70
   128
 71
   295
 72
   299
 73
   300
  0
VERTEX
  8
popcorn
 10
0.0
 20
0.0
 30
0.0
 70
   128
 71
   306
 72
   305
 73
   296
  0
VERTEX
  8
popcorn
 10
0.0
 20
0.0
 30
0.0
 70
   128
 71
   295
 72
   300
 73
   301
  0
VERTEX
  8
popcorn
 10
0.0
 20
0.0
 30
0.0
 70
   128
 71
   307
 72
   306
 73
   296
  0
VERTEX
  8
popcorn
 10
0.0
 20
0.0
 30
0.0
 70
   128
 71
   295
 72
   301
 73
   302
  0
VERTEX
  8
popcorn
 10
0.0
 20
0.0
 30
0.0
 70
   128
 71
   308
 72
   307
 73
   296
  0
VERTEX
  8
popcorn
 10
0.0
 20
0.0
 30
0.0
 70
   128
 71
   295
 72
   302
 73
   297
  0
VERTEX
  8
popcorn
 10
0.0
 20
0.0
 30
0.0
 70
   128
 71
   303
 72
   308
 73
   296
  0
VERTEX
  8
popcorn
 10
0.0
 20
0.0
 30
0.0
 70
   128
 71
   311
 72
   317
 73
   318
  0
VERTEX
  8
popcorn
 10
0.0
 20
0.0
 30
0.0
 70
   128
 71
   312
 72
   318
 73
   319
  0
VERTEX
  8
popcorn
 10
0.0
 20
0.0
 30
0.0
 70
   128
 71
   313
 72
   319
 73
   320
  0
VERTEX
  8
popcorn
 10
0.0
 20
0.0
 30
0.0
 70
   128
 71
   314
 72
   320
 73
   321
  0
VERTEX
  8
popcorn
 10
0.0
 20
0.0
 30
0.0
 70
   128
 71
   315
 72
   321
 73
   322
  0
VERTEX
  8
popcorn
 10
0.0
 20
0.0
 30
0.0
 70
   128
 71
   316
 72
   322
 73
   317
  0
VERTEX
  8
popcorn
 10
0.0
 20
0.0
 30
0.0
 70
   128
 71
   309
 72
   311
 73
   312
  0
VERTEX
  8
popcorn
 10
0.0
 20
0.0
 30
0.0
 70
   128
 71
   318
 72
   317
 73
   310
  0
VERTEX
  8
popcorn
 10
0.0
 20
0.0
 30
0.0
 70
   128
 71
   309
 72
   312
 73
   313
  0
VERTEX
  8
popcorn
 10
0.0
 20
0.0
 30
0.0
 70
   128
 71
   319
 72
   318
 73
   310
  0
VERTEX
  8
popcorn
 10
0.0
 20
0.0
 30
0.0
 70
   128
 71
   309
 72
   313
 73
   314
  0
VERTEX
  8
popcorn
 10
0.0
 20
0.0
 30
0.0
 70
   128
 71
   320
 72
   319
 73
   310
  0
VERTEX
  8
popcorn
 10
0.0
 20
0.0
 30
0.0
 70
   128
 71
   309
 72
   314
 73
   315
  0
VERTEX
  8
popcorn
 10
0.0
 20
0.0
 30
0.0
 70
   128
 71
   321
 72
   320
 73
   310
  0
VERTEX
  8
popcorn
 10
0.0
 20
0.0
 30
0.0
 70
   128
 71
   309
 72
   315
 73
   316
  0
VERTEX
  8
popcorn
 10
0.0
 20
0.0
 30
0.0
 70
   128
 71
   322
 72
   321
 73
   310
  0
VERTEX
  8
popcorn
 10
0.0
 20
0.0
 30
0.0
 70
   128
 71
   309
 72
   316
 73
   311
  0
VERTEX
  8
popcorn
 10
0.0
 20
0.0
 30
0.0
 70
   128
 71
   317
 72
   322
 73
   310
  0
VERTEX
  8
popcorn
 10
0.0
 20
0.0
 30
0.0
 70
   128
 71
   325
 72
   331
 73
   332
  0
VERTEX
  8
popcorn
 10
0.0
 20
0.0
 30
0.0
 70
   128
 71
   326
 72
   332
 73
   333
  0
VERTEX
  8
popcorn
 10
0.0
 20
0.0
 30
0.0
 70
   128
 71
   327
 72
   333
 73
   334
  0
VERTEX
  8
popcorn
 10
0.0
 20
0.0
 30
0.0
 70
   128
 71
   328
 72
   334
 73
   335
  0
VERTEX
  8
popcorn
 10
0.0
 20
0.0
 30
0.0
 70
   128
 71
   329
 72
   335
 73
   336
  0
VERTEX
  8
popcorn
 10
0.0
 20
0.0
 30
0.0
 70
   128
 71
   330
 72
   336
 73
   331
  0
VERTEX
  8
popcorn
 10
0.0
 20
0.0
 30
0.0
 70
   128
 71
   323
 72
   325
 73
   326
  0
VERTEX
  8
popcorn
 10
0.0
 20
0.0
 30
0.0
 70
   128
 71
   332
 72
   331
 73
   324
  0
VERTEX
  8
popcorn
 10
0.0
 20
0.0
 30
0.0
 70
   128
 71
   323
 72
   326
 73
   327
  0
VERTEX
  8
popcorn
 10
0.0
 20
0.0
 30
0.0
 70
   128
 71
   333
 72
   332
 73
   324
  0
VERTEX
  8
popcorn
 10
0.0
 20
0.0
 30
0.0
 70
   128
 71
   323
 72
   327
 73
   328
  0
VERTEX
  8
popcorn
 10
0.0
 20
0.0
 30
0.0
 70
   128
 71
   334
 72
   333
 73
   324
  0
VERTEX
  8
popcorn
 10
0.0
 20
0.0
 30
0.0
 70
   128
 71
   323
 72
   328
 73
   329
  0
VERTEX
  8
popcorn
 10
0.0
 20
0.0
 30
0.0
 70
   128
 71
   335
 72
   334
 73
   324
  0
VERTEX
  8
popcorn
 10
0.0
 20
0.0
 30
0.0
 70
   128
 71
   323
 72
   329
 73
   330
  0
VERTEX
  8
popcorn
 10
0.0
 20
0.0
 30
0.0
 70
   128
 71
   336
 72
   335
 73
   324
  0
VERTEX
  8
popcorn
 10
0.0
 20
0.0
 30
0.0
 70
   128
 71
   323
 72
   330
 73
   325
  0
VERTEX
  8
popcorn
 10
0.0
 20
0.0
 30
0.0
 70
   128
 71
   331
 72
   336
 73
   324
  0
VERTEX
  8
popcorn
 10
0.0
 20
0.0
 30
0.0
 70
   128
 71
   339
 72
   345
 73
   346
  0
VERTEX
  8
popcorn
 10
0.0
 20
0.0
 30
0.0
 70
   128
 71
   340
 72
   346
 73
   347
  0
VERTEX
  8
popcorn
 10
0.0
 20
0.0
 30
0.0
 70
   128
 71
   341
 72
   347
 73
   348
  0
VERTEX
  8
popcorn
 10
0.0
 20
0.0
 30
0.0
 70
   128
 71
   342
 72
   348
 73
   349
  0
VERTEX
  8
popcorn
 10
0.0
 20
0.0
 30
0.0
 70
   128
 71
   343
 72
   349
 73
   350
  0
VERTEX
  8
popcorn
 10
0.0
 20
0.0
 30
0.0
 70
   128
 71
   344
 72
   350
 73
   345
  0
VERTEX
  8
popcorn
 10
0.0
 20
0.0
 30
0.0
 70
   128
 71
   337
 72
   339
 73
   340
  0
VERTEX
  8
popcorn
 10
0.0
 20
0.0
 30
0.0
 70
   128
 71
   346
 72
   345
 73
   338
  0
VERTEX
  8
popcorn
 10
0.0
 20
0.0
 30
0.0
 70
   128
 71
   337
 72
   340
 73
   341
  0
VERTEX
  8
popcorn
 10
0.0
 20
0.0
 30
0.0
 70
   128
 71
   347
 72
   346
 73
   338
  0
VERTEX
  8
popcorn
 10
0.0
 20
0.0
 30
0.0
 70
   128
 71
   337
 72
   341
 73
   342
  0
VERTEX
  8
popcorn
 10
0.0
 20
0.0
 30
0.0
 70
   128
 71
   348
 72
   347
 73
   338
  0
VERTEX
  8
popcorn
 10
0.0
 20
0.0
 30
0.0
 70
   128
 71
   337
 72
   342
 73
   343
  0
VERTEX
  8
popcorn
 10
0.0
 20
0.0
 30
0.0
 70
   128
 71
   349
 72
   348
 73
   338
  0
VERTEX
  8
popcorn
 10
0.0
 20
0.0
 30
0.0
 70
   128
 71
   337
 72
   343
 73
   344
  0
VERTEX
  8
popcorn
 10
0.0
 20
0.0
 30
0.0
 70
   128
 71
   350
 72
   349
 73
   338
  0
VERTEX
  8
popcorn
 10
0.0
 20
0.0
 30
0.0
 70
   128
 71
   337
 72
   344
 73
   339
  0
VERTEX
  8
popcorn
 10
0.0
 20
0.0
 30
0.0
 70
   128
 71
   345
 72
   350
 73
   338
  0
VERTEX
  8
popcorn
 10
0.0
 20
0.0
 30
0.0
 70
   128
 71
   353
 72
   359
 73
   360
  0
VERTEX
  8
popcorn
 10
0.0
 20
0.0
 30
0.0
 70
   128
 71
   354
 72
   360
 73
   361
  0
VERTEX
  8
popcorn
 10
0.0
 20
0.0
 30
0.0
 70
   128
 71
   355
 72
   361
 73
   362
  0
VERTEX
  8
popcorn
 10
0.0
 20
0.0
 30
0.0
 70
   128
 71
   356
 72
   362
 73
   363
  0
VERTEX
  8
popcorn
 10
0.0
 20
0.0
 30
0.0
 70
   128
 71
   357
 72
   363
 73
   364
  0
VERTEX
  8
popcorn
 10
0.0
 20
0.0
 30
0.0
 70
   128
 71
   358
 72
   364
 73
   359
  0
VERTEX
  8
popcorn
 10
0.0
 20
0.0
 30
0.0
 70
   128
 71
   351
 72
   353
 73
   354
  0
VERTEX
  8
popcorn
 10
0.0
 20
0.0
 30
0.0
 70
   128
 71
   360
 72
   359
 73
   352
  0
VERTEX
  8
popcorn
 10
0.0
 20
0.0
 30
0.0
 70
   128
 71
   351
 72
   354
 73
   355
  0
VERTEX
  8
popcorn
 10
0.0
 20
0.0
 30
0.0
 70
   128
 71
   361
 72
   360
 73
   352
  0
VERTEX
  8
popcorn
 10
0.0
 20
0.0
 30
0.0
 70
   128
 71
   351
 72
   355
 73
   356
  0
VERTEX
  8
popcorn
 10
0.0
 20
0.0
 30
0.0
 70
   128
 71
   362
 72
   361
 73
   352
  0
VERTEX
  8
popcorn
 10
0.0
 20
0.0
 30
0.0
 70
   128
 71
   351
 72
   356
 73
   357
  0
VERTEX
  8
popcorn
 10
0.0
 20
0.0
 30
0.0
 70
   128
 71
   363
 72
   362
 73
   352
  0
VERTEX
  8
popcorn
 10
0.0
 20
0.0
 30
0.0
 70
   128
 71
   351
 72
   357
 73
   358
  0
VERTEX
  8
popcorn
 10
0.0
 20
0.0
 30
0.0
 70
   128
 71
   364
 72
   363
 73
   352
  0
VERTEX
  8
popcorn
 10
0.0
 20
0.0
 30
0.0
 70
   128
 71
   351
 72
   358
 73
   353
  0
VERTEX
  8
popcorn
 10
0.0
 20
0.0
 30
0.0
 70
   128
 71
   359
 72
   364
 73
   352
  0
VERTEX
  8
popcorn
 10
0.0
 20
0.0
 30
0.0
 70
   128
 71
   367
 72
   373
 73
   374
  0
VERTEX
  8
popcorn
 10
0.0
 20
0.0
 30
0.0
 70
   128
 71
   368
 72
   374
 73
   375
  0
VERTEX
  8
popcorn
 10
0.0
 20
0.0
 30
0.0
 70
   128
 71
   369
 72
   375
 73
   376
  0
VERTEX
  8
popcorn
 10
0.0
 20
0.0
 30
0.0
 70
   128
 71
   370
 72
   376
 73
   377
  0
VERTEX
  8
popcorn
 10
0.0
 20
0.0
 30
0.0
 70
   128
 71
   371
 72
   377
 73
   378
  0
VERTEX
  8
popcorn
 10
0.0
 20
0.0
 30
0.0
 70
   128
 71
   372
 72
   378
 73
   373
  0
VERTEX
  8
popcorn
 10
0.0
 20
0.0
 30
0.0
 70
   128
 71
   365
 72
   367
 73
   368
  0
VERTEX
  8
popcorn
 10
0.0
 20
0.0
 30
0.0
 70
   128
 71
   374
 72
   373
 73
   366
  0
VERTEX
  8
popcorn
 10
0.0
 20
0.0
 30
0.0
 70
   128
 71
   365
 72
   368
 73
   369
  0
VERTEX
  8
popcorn
 10
0.0
 20
0.0
 30
0.0
 70
   128
 71
   375
 72
   374
 73
   366
  0
VERTEX
  8
popcorn
 10
0.0
 20
0.0
 30
0.0
 70
   128
 71
   365
 72
   369
 73
   370
  0
VERTEX
  8
popcorn
 10
0.0
 20
0.0
 30
0.0
 70
   128
 71
   376
 72
   375
 73
   366
  0
VERTEX
  8
popcorn
 10
0.0
 20
0.0
 30
0.0
 70
   128
 71
   365
 72
   370
 73
   371
  0
VERTEX
  8
popcorn
 10
0.0
 20
0.0
 30
0.0
 70
   128
 71
   377
 72
   376
 73
   366
  0
VERTEX
  8
popcorn
 10
0.0
 20
0.0
 30
0.0
 70
   128
 71
   365
 72
   371
 73
   372
  0
VERTEX
  8
popcorn
 10
0.0
 20
0.0
 30
0.0
 70
   128
 71
   378
 72
   377
 73
   366
  0
VERTEX
  8
popcorn
 10
0.0
 20
0.0
 30
0.0
 70
   128
 71
   365
 72
   372
 73
   367
  0
VERTEX
  8
popcorn
 10
0.0
 20
0.0
 30
0.0
 70
   128
 71
   373
 72
   378
 73
   366
  0
VERTEX
  8
popcorn
 10
0.0
 20
0.0
 30
0.0
 70
   128
 71
   381
 72
   387
 73
   388
  0
VERTEX
  8
popcorn
 10
0.0
 20
0.0
 30
0.0
 70
   128
 71
   382
 72
   388
 73
   389
  0
VERTEX
  8
popcorn
 10
0.0
 20
0.0
 30
0.0
 70
   128
 71
   383
 72
   389
 73
   390
  0
VERTEX
  8
popcorn
 10
0.0
 20
0.0
 30
0.0
 70
   128
 71
   384
 72
   390
 73
   391
  0
VERTEX
  8
popcorn
 10
0.0
 20
0.0
 30
0.0
 70
   128
 71
   385
 72
   391
 73
   392
  0
VERTEX
  8
popcorn
 10
0.0
 20
0.0
 30
0.0
 70
   128
 71
   386
 72
   392
 73
   387
  0
VERTEX
  8
popcorn
 10
0.0
 20
0.0
 30
0.0
 70
   128
 71
   379
 72
   381
 73
   382
  0
VERTEX
  8
popcorn
 10
0.0
 20
0.0
 30
0.0
 70
   128
 71
   388
 72
   387
 73
   380
  0
VERTEX
  8
popcorn
 10
0.0
 20
0.0
 30
0.0
 70
   128
 71
   379
 72
   382
 73
   383
  0
VERTEX
  8
popcorn
 10
0.0
 20
0.0
 30
0.0
 70
   128
 71
   389
 72
   388
 73
   380
  0
VERTEX
  8
popcorn
 10
0.0
 20
0.0
 30
0.0
 70
   128
 71
   379
 72
   383
 73
   384
  0
VERTEX
  8
popcorn
 10
0.0
 20
0.0
 30
0.0
 70
   128
 71
   390
 72
   389
 73
   380
  0
VERTEX
  8
popcorn
 10
0.0
 20
0.0
 30
0.0
 70
   128
 71
   379
 72
   384
 73
   385
  0
VERTEX
  8
popcorn
 10
0.0
 20
0.0
 30
0.0
 70
   128
 71
   391
 72
   390
 73
   380
  0
VERTEX
  8
popcorn
 10
0.0
 20
0.0
 30
0.0
 70
   128
 71
   379
 72
   385
 73
   386
  0
VERTEX
  8
popcorn
 10
0.0
 20
0.0
 30
0.0
 70
   128
 71
   392
 72
   391
 73
   380
  0
VERTEX
  8
popcorn
 10
0.0
 20
0.0
 30
0.0
 70
   128
 71
   379
 72
   386
 73
   381
  0
VERTEX
  8
popcorn
 10
0.0
 20
0.0
 30
0.0
 70
   128
 71
   387
 72
   392
 73
   380
  0
VERTEX
  8
popcorn
 10
0.0
 20
0.0
 30
0.0
 70
   128
 71
   395
 72
   401
 73
   402
  0
VERTEX
  8
popcorn
 10
0.0
 20
0.0
 30
0.0
 70
   128
 71
   396
 72
   402
 73
   403
  0
VERTEX
  8
popcorn
 10
0.0
 20
0.0
 30
0.0
 70
   128
 71
   397
 72
   403
 73
   404
  0
VERTEX
  8
popcorn
 10
0.0
 20
0.0
 30
0.0
 70
   128
 71
   398
 72
   404
 73
   405
  0
VERTEX
  8
popcorn
 10
0.0
 20
0.0
 30
0.0
 70
   128
 71
   399
 72
   405
 73
   406
  0
VERTEX
  8
popcorn
 10
0.0
 20
0.0
 30
0.0
 70
   128
 71
   400
 72
   406
 73
   401
  0
VERTEX
  8
popcorn
 10
0.0
 20
0.0
 30
0.0
 70
   128
 71
   393
 72
   395
 73
   396
  0
VERTEX
  8
popcorn
 10
0.0
 20
0.0
 30
0.0
 70
   128
 71
   402
 72
   401
 73
   394
  0
VERTEX
  8
popcorn
 10
0.0
 20
0.0
 30
0.0
 70
   128
 71
   393
 72
   396
 73
   397
  0
VERTEX
  8
popcorn
 10
0.0
 20
0.0
 30
0.0
 70
   128
 71
   403
 72
   402
 73
   394
  0
VERTEX
  8
popcorn
 10
0.0
 20
0.0
 30
0.0
 70
   128
 71
   393
 72
   397
 73
   398
  0
VERTEX
  8
popcorn
 10
0.0
 20
0.0
 30
0.0
 70
   128
 71
   404
 72
   403
 73
   394
  0
VERTEX
  8
popcorn
 10
0.0
 20
0.0
 30
0.0
 70
   128
 71
   393
 72
   398
 73
   399
  0
VERTEX
  8
popcorn
 10
0.0
 20
0.0
 30
0.0
 70
   128
 71
   405
 72
   404
 73
   394
  0
VERTEX
  8
popcorn
 10
0.0
 20
0.0
 30
0.0
 70
   128
 71
   393
 72
   399
 73
   400
  0
VERTEX
  8
popcorn
 10
0.0
 20
0.0
 30
0.0
 70
   128
 71
   406
 72
   405
 73
   394
  0
VERTEX
  8
popcorn
 10
0.0
 20
0.0
 30
0.0
 70
   128
 71
   393
 72
   400
 73
   395
  0
VERTEX
  8
popcorn
 10
0.0
 20
0.0
 30
0.0
 70
   128
 71
   401
 72
   406
 73
   394
  0
VERTEX
  8
popcorn
 10
0.0
 20
0.0
 30
0.0
 70
   128
 71
   409
 72
   415
 73
   416
  0
VERTEX
  8
popcorn
 10
0.0
 20
0.0
 30
0.0
 70
   128
 71
   410
 72
   416
 73
   417
  0
VERTEX
  8
popcorn
 10
0.0
 20
0.0
 30
0.0
 70
   128
 71
   411
 72
   417
 73
   418
  0
VERTEX
  8
popcorn
 10
0.0
 20
0.0
 30
0.0
 70
   128
 71
   412
 72
   418
 73
   419
  0
VERTEX
  8
popcorn
 10
0.0
 20
0.0
 30
0.0
 70
   128
 71
   413
 72
   419
 73
   420
  0
VERTEX
  8
popcorn
 10
0.0
 20
0.0
 30
0.0
 70
   128
 71
   414
 72
   420
 73
   415
  0
VERTEX
  8
popcorn
 10
0.0
 20
0.0
 30
0.0
 70
   128
 71
   407
 72
   409
 73
   410
  0
VERTEX
  8
popcorn
 10
0.0
 20
0.0
 30
0.0
 70
   128
 71
   416
 72
   415
 73
   408
  0
VERTEX
  8
popcorn
 10
0.0
 20
0.0
 30
0.0
 70
   128
 71
   407
 72
   410
 73
   411
  0
VERTEX
  8
popcorn
 10
0.0
 20
0.0
 30
0.0
 70
   128
 71
   417
 72
   416
 73
   408
  0
VERTEX
  8
popcorn
 10
0.0
 20
0.0
 30
0.0
 70
   128
 71
   407
 72
   411
 73
   412
  0
VERTEX
  8
popcorn
 10
0.0
 20
0.0
 30
0.0
 70
   128
 71
   418
 72
   417
 73
   408
  0
VERTEX
  8
popcorn
 10
0.0
 20
0.0
 30
0.0
 70
   128
 71
   407
 72
   412
 73
   413
  0
VERTEX
  8
popcorn
 10
0.0
 20
0.0
 30
0.0
 70
   128
 71
   419
 72
   418
 73
   408
  0
VERTEX
  8
popcorn
 10
0.0
 20
0.0
 30
0.0
 70
   128
 71
   407
 72
   413
 73
   414
  0
VERTEX
  8
popcorn
 10
0.0
 20
0.0
 30
0.0
 70
   128
 71
   420
 72
   419
 73
   408
  0
VERTEX
  8
popcorn
 10
0.0
 20
0.0
 30
0.0
 70
   128
 71
   407
 72
   414
 73
   409
  0
VERTEX
  8
popcorn
 10
0.0
 20
0.0
 30
0.0
 70
   128
 71
   415
 72
   420
 73
   408
  0
VERTEX
  8
popcorn
 10
0.0
 20
0.0
 30
0.0
 70
   128
 71
   423
 72
   429
 73
   430
  0
VERTEX
  8
popcorn
 10
0.0
 20
0.0
 30
0.0
 70
   128
 71
   424
 72
   430
 73
   431
  0
VERTEX
  8
popcorn
 10
0.0
 20
0.0
 30
0.0
 70
   128
 71
   425
 72
   431
 73
   432
  0
VERTEX
  8
popcorn
 10
0.0
 20
0.0
 30
0.0
 70
   128
 71
   426
 72
   432
 73
   433
  0
VERTEX
  8
popcorn
 10
0.0
 20
0.0
 30
0.0
 70
   128
 71
   427
 72
   433
 73
   434
  0
VERTEX
  8
popcorn
 10
0.0
 20
0.0
 30
0.0
 70
   128
 71
   428
 72
   434
 73
   429
  0
VERTEX
  8
popcorn
 10
0.0
 20
0.0
 30
0.0
 70
   128
 71
   421
 72
   423
 73
   424
  0
VERTEX
  8
popcorn
 10
0.0
 20
0.0
 30
0.0
 70
   128
 71
   430
 72
   429
 73
   422
  0
VERTEX
  8
popcorn
 10
0.0
 20
0.0
 30
0.0
 70
   128
 71
   421
 72
   424
 73
   425
  0
VERTEX
  8
popcorn
 10
0.0
 20
0.0
 30
0.0
 70
   128
 71
   431
 72
   430
 73
   422
  0
VERTEX
  8
popcorn
 10
0.0
 20
0.0
 30
0.0
 70
   128
 71
   421
 72
   425
 73
   426
  0
VERTEX
  8
popcorn
 10
0.0
 20
0.0
 30
0.0
 70
   128
 71
   432
 72
   431
 73
   422
  0
VERTEX
  8
popcorn
 10
0.0
 20
0.0
 30
0.0
 70
   128
 71
   421
 72
   426
 73
   427
  0
VERTEX
  8
popcorn
 10
0.0
 20
0.0
 30
0.0
 70
   128
 71
   433
 72
   432
 73
   422
  0
VERTEX
  8
popcorn
 10
0.0
 20
0.0
 30
0.0
 70
   128
 71
   421
 72
   427
 73
   428
  0
VERTEX
  8
popcorn
 10
0.0
 20
0.0
 30
0.0
 70
   128
 71
   434
 72
   433
 73
   422
  0
VERTEX
  8
popcorn
 10
0.0
 20
0.0
 30
0.0
 70
   128
 71
   421
 72
   428
 73
   423
  0
VERTEX
  8
popcorn
 10
0.0
 20
0.0
 30
0.0
 70
   128
 71
   429
 72
   434
 73
   422
  0
VERTEX
  8
popcorn
 10
0.0
 20
0.0
 30
0.0
 70
   128
 71
   437
 72
   443
 73
   444
  0
VERTEX
  8
popcorn
 10
0.0
 20
0.0
 30
0.0
 70
   128
 71
   438
 72
   444
 73
   445
  0
VERTEX
  8
popcorn
 10
0.0
 20
0.0
 30
0.0
 70
   128
 71
   439
 72
   445
 73
   446
  0
VERTEX
  8
popcorn
 10
0.0
 20
0.0
 30
0.0
 70
   128
 71
   440
 72
   446
 73
   447
  0
VERTEX
  8
popcorn
 10
0.0
 20
0.0
 30
0.0
 70
   128
 71
   441
 72
   447
 73
   448
  0
VERTEX
  8
popcorn
 10
0.0
 20
0.0
 30
0.0
 70
   128
 71
   442
 72
   448
 73
   443
  0
VERTEX
  8
popcorn
 10
0.0
 20
0.0
 30
0.0
 70
   128
 71
   435
 72
   437
 73
   438
  0
VERTEX
  8
popcorn
 10
0.0
 20
0.0
 30
0.0
 70
   128
 71
   444
 72
   443
 73
   436
  0
VERTEX
  8
popcorn
 10
0.0
 20
0.0
 30
0.0
 70
   128
 71
   435
 72
   438
 73
   439
  0
VERTEX
  8
popcorn
 10
0.0
 20
0.0
 30
0.0
 70
   128
 71
   445
 72
   444
 73
   436
  0
VERTEX
  8
popcorn
 10
0.0
 20
0.0
 30
0.0
 70
   128
 71
   435
 72
   439
 73
   440
  0
VERTEX
  8
popcorn
 10
0.0
 20
0.0
 30
0.0
 70
   128
 71
   446
 72
   445
 73
   436
  0
VERTEX
  8
popcorn
 10
0.0
 20
0.0
 30
0.0
 70
   128
 71
   435
 72
   440
 73
   441
  0
VERTEX
  8
popcorn
 10
0.0
 20
0.0
 30
0.0
 70
   128
 71
   447
 72
   446
 73
   436
  0
VERTEX
  8
popcorn
 10
0.0
 20
0.0
 30
0.0
 70
   128
 71
   435
 72
   441
 73
   442
  0
VERTEX
  8
popcorn
 10
0.0
 20
0.0
 30
0.0
 70
   128
 71
   448
 72
   447
 73
   436
  0
VERTEX
  8
popcorn
 10
0.0
 20
0.0
 30
0.0
 70
   128
 71
   435
 72
   442
 73
   437
  0
VERTEX
  8
popcorn
 10
0.0
 20
0.0
 30
0.0
 70
   128
 71
   443
 72
   448
 73
   436
  0
VERTEX
  8
popcorn
 10
0.0
 20
0.0
 30
0.0
 70
   128
 71
   451
 72
   457
 73
   458
  0
VERTEX
  8
popcorn
 10
0.0
 20
0.0
 30
0.0
 70
   128
 71
   452
 72
   458
 73
   459
  0
VERTEX
  8
popcorn
 10
0.0
 20
0.0
 30
0.0
 70
   128
 71
   453
 72
   459
 73
   460
  0
VERTEX
  8
popcorn
 10
0.0
 20
0.0
 30
0.0
 70
   128
 71
   454
 72
   460
 73
   461
  0
VERTEX
  8
popcorn
 10
0.0
 20
0.0
 30
0.0
 70
   128
 71
   455
 72
   461
 73
   462
  0
VERTEX
  8
popcorn
 10
0.0
 20
0.0
 30
0.0
 70
   128
 71
   456
 72
   462
 73
   457
  0
VERTEX
  8
popcorn
 10
0.0
 20
0.0
 30
0.0
 70
   128
 71
   449
 72
   451
 73
   452
  0
VERTEX
  8
popcorn
 10
0.0
 20
0.0
 30
0.0
 70
   128
 71
   458
 72
   457
 73
   450
  0
VERTEX
  8
popcorn
 10
0.0
 20
0.0
 30
0.0
 70
   128
 71
   449
 72
   452
 73
   453
  0
VERTEX
  8
popcorn
 10
0.0
 20
0.0
 30
0.0
 70
   128
 71
   459
 72
   458
 73
   450
  0
VERTEX
  8
popcorn
 10
0.0
 20
0.0
 30
0.0
 70
   128
 71
   449
 72
   453
 73
   454
  0
VERTEX
  8
popcorn
 10
0.0
 20
0.0
 30
0.0
 70
   128
 71
   460
 72
   459
 73
   450
  0
VERTEX
  8
popcorn
 10
0.0
 20
0.0
 30
0.0
 70
   128
 71
   449
 72
   454
 73
   455
  0
VERTEX
  8
popcorn
 10
0.0
 20
0.0
 30
0.0
 70
   128
 71
   461
 72
   460
 73
   450
  0
VERTEX
  8
popcorn
 10
0.0
 20
0.0
 30
0.0
 70
   128
 71
   449
 72
   455
 73
   456
  0
VERTEX
  8
popcorn
 10
0.0
 20
0.0
 30
0.0
 70
   128
 71
   462
 72
   461
 73
   450
  0
VERTEX
  8
popcorn
 10
0.0
 20
0.0
 30
0.0
 70
   128
 71
   449
 72
   456
 73
   451
  0
VERTEX
  8
popcorn
 10
0.0
 20
0.0
 30
0.0
 70
   128
 71
   457
 72
   462
 73
   450
  0
VERTEX
  8
popcorn
 10
0.0
 20
0.0
 30
0.0
 70
   128
 71
   465
 72
   471
 73
   472
  0
VERTEX
  8
popcorn
 10
0.0
 20
0.0
 30
0.0
 70
   128
 71
   466
 72
   472
 73
   473
  0
VERTEX
  8
popcorn
 10
0.0
 20
0.0
 30
0.0
 70
   128
 71
   467
 72
   473
 73
   474
  0
VERTEX
  8
popcorn
 10
0.0
 20
0.0
 30
0.0
 70
   128
 71
   468
 72
   474
 73
   475
  0
VERTEX
  8
popcorn
 10
0.0
 20
0.0
 30
0.0
 70
   128
 71
   469
 72
   475
 73
   476
  0
VERTEX
  8
popcorn
 10
0.0
 20
0.0
 30
0.0
 70
   128
 71
   470
 72
   476
 73
   471
  0
VERTEX
  8
popcorn
 10
0.0
 20
0.0
 30
0.0
 70
   128
 71
   463
 72
   465
 73
   466
  0
VERTEX
  8
popcorn
 10
0.0
 20
0.0
 30
0.0
 70
   128
 71
   472
 72
   471
 73
   464
  0
VERTEX
  8
popcorn
 10
0.0
 20
0.0
 30
0.0
 70
   128
 71
   463
 72
   466
 73
   467
  0
VERTEX
  8
popcorn
 10
0.0
 20
0.0
 30
0.0
 70
   128
 71
   473
 72
   472
 73
   464
  0
VERTEX
  8
popcorn
 10
0.0
 20
0.0
 30
0.0
 70
   128
 71
   463
 72
   467
 73
   468
  0
VERTEX
  8
popcorn
 10
0.0
 20
0.0
 30
0.0
 70
   128
 71
   474
 72
   473
 73
   464
  0
VERTEX
  8
popcorn
 10
0.0
 20
0.0
 30
0.0
 70
   128
 71
   463
 72
   468
 73
   469
  0
VERTEX
  8
popcorn
 10
0.0
 20
0.0
 30
0.0
 70
   128
 71
   475
 72
   474
 73
   464
  0
VERTEX
  8
popcorn
 10
0.0
 20
0.0
 30
0.0
 70
   128
 71
   463
 72
   469
 73
   470
  0
VERTEX
  8
popcorn
 10
0.0
 20
0.0
 30
0.0
 70
   128
 71
   476
 72
   475
 73
   464
  0
VERTEX
  8
popcorn
 10
0.0
 20
0.0
 30
0.0
 70
   128
 71
   463
 72
   470
 73
   465
  0
VERTEX
  8
popcorn
 10
0.0
 20
0.0
 30
0.0
 70
   128
 71
   471
 72
   476
 73
   464
  0
VERTEX
  8
popcorn
 10
0.0
 20
0.0
 30
0.0
 70
   128
 71
   479
 72
   485
 73
   486
  0
VERTEX
  8
popcorn
 10
0.0
 20
0.0
 30
0.0
 70
   128
 71
   480
 72
   486
 73
   487
  0
VERTEX
  8
popcorn
 10
0.0
 20
0.0
 30
0.0
 70
   128
 71
   481
 72
   487
 73
   488
  0
VERTEX
  8
popcorn
 10
0.0
 20
0.0
 30
0.0
 70
   128
 71
   482
 72
   488
 73
   489
  0
VERTEX
  8
popcorn
 10
0.0
 20
0.0
 30
0.0
 70
   128
 71
   483
 72
   489
 73
   490
  0
VERTEX
  8
popcorn
 10
0.0
 20
0.0
 30
0.0
 70
   128
 71
   484
 72
   490
 73
   485
  0
VERTEX
  8
popcorn
 10
0.0
 20
0.0
 30
0.0
 70
   128
 71
   477
 72
   479
 73
   480
  0
VERTEX
  8
popcorn
 10
0.0
 20
0.0
 30
0.0
 70
   128
 71
   486
 72
   485
 73
   478
  0
VERTEX
  8
popcorn
 10
0.0
 20
0.0
 30
0.0
 70
   128
 71
   477
 72
   480
 73
   481
  0
VERTEX
  8
popcorn
 10
0.0
 20
0.0
 30
0.0
 70
   128
 71
   487
 72
   486
 73
   478
  0
VERTEX
  8
popcorn
 10
0.0
 20
0.0
 30
0.0
 70
   128
 71
   477
 72
   481
 73
   482
  0
VERTEX
  8
popcorn
 10
0.0
 20
0.0
 30
0.0
 70
   128
 71
   488
 72
   487
 73
   478
  0
VERTEX
  8
popcorn
 10
0.0
 20
0.0
 30
0.0
 70
   128
 71
   477
 72
   482
 73
   483
  0
VERTEX
  8
popcorn
 10
0.0
 20
0.0
 30
0.0
 70
   128
 71
   489
 72
   488
 73
   478
  0
VERTEX
  8
popcorn
 10
0.0
 20
0.0
 30
0.0
 70
   128
 71
   477
 72
   483
 73
   484
  0
VERTEX
  8
popcorn
 10
0.0
 20
0.0
 30
0.0
 70
   128
 71
   490
 72
   489
 73
   478
  0
VERTEX
  8
popcorn
 10
0.0
 20
0.0
 30
0.0
 70
   128
 71
   477
 72
   484
 73
   479
  0
VERTEX
  8
popcorn
 10
0.0
 20
0.0
 30
0.0
 70
   128
 71
   485
 72
   490
 73
   478
  0
VERTEX
  8
popcorn
 10
0.0
 20
0.0
 30
0.0
 70
   128
 71
   493
 72
   499
 73
   500
  0
VERTEX
  8
popcorn
 10
0.0
 20
0.0
 30
0.0
 70
   128
 71
   494
 72
   500
 73
   501
  0
VERTEX
  8
popcorn
 10
0.0
 20
0.0
 30
0.0
 70
   128
 71
   495
 72
   501
 73
   502
  0
VERTEX
  8
popcorn
 10
0.0
 20
0.0
 30
0.0
 70
   128
 71
   496
 72
   502
 73
   503
  0
VERTEX
  8
popcorn
 10
0.0
 20
0.0
 30
0.0
 70
   128
 71
   497
 72
   503
 73
   504
  0
VERTEX
  8
popcorn
 10
0.0
 20
0.0
 30
0.0
 70
   128
 71
   498
 72
   504
 73
   499
  0
VERTEX
  8
popcorn
 10
0.0
 20
0.0
 30
0.0
 70
   128
 71
   491
 72
   493
 73
   494
  0
VERTEX
  8
popcorn
 10
0.0
 20
0.0
 30
0.0
 70
   128
 71
   500
 72
   499
 73
   492
  0
VERTEX
  8
popcorn
 10
0.0
 20
0.0
 30
0.0
 70
   128
 71
   491
 72
   494
 73
   495
  0
VERTEX
  8
popcorn
 10
0.0
 20
0.0
 30
0.0
 70
   128
 71
   501
 72
   500
 73
   492
  0
VERTEX
  8
popcorn
 10
0.0
 20
0.0
 30
0.0
 70
   128
 71
   491
 72
   495
 73
   496
  0
VERTEX
  8
popcorn
 10
0.0
 20
0.0
 30
0.0
 70
   128
 71
   502
 72
   501
 73
   492
  0
VERTEX
  8
popcorn
 10
0.0
 20
0.0
 30
0.0
 70
   128
 71
   491
 72
   496
 73
   497
  0
VERTEX
  8
popcorn
 10
0.0
 20
0.0
 30
0.0
 70
   128
 71
   503
 72
   502
 73
   492
  0
VERTEX
  8
popcorn
 10
0.0
 20
0.0
 30
0.0
 70
   128
 71
   491
 72
   497
 73
   498
  0
VERTEX
  8
popcorn
 10
0.0
 20
0.0
 30
0.0
 70
   128
 71
   504
 72
   503
 73
   492
  0
VERTEX
  8
popcorn
 10
0.0
 20
0.0
 30
0.0
 70
   128
 71
   491
 72
   498
 73
   493
  0
VERTEX
  8
popcorn
 10
0.0
 20
0.0
 30
0.0
 70
   128
 71
   499
 72
   504
 73
   492
  0
VERTEX
  8
popcorn
 10
0.0
 20
0.0
 30
0.0
 70
   128
 71
   507
 72
   513
 73
   514
  0
VERTEX
  8
popcorn
 10
0.0
 20
0.0
 30
0.0
 70
   128
 71
   508
 72
   514
 73
   515
  0
VERTEX
  8
popcorn
 10
0.0
 20
0.0
 30
0.0
 70
   128
 71
   509
 72
   515
 73
   516
  0
VERTEX
  8
popcorn
 10
0.0
 20
0.0
 30
0.0
 70
   128
 71
   510
 72
   516
 73
   517
  0
VERTEX
  8
popcorn
 10
0.0
 20
0.0
 30
0.0
 70
   128
 71
   511
 72
   517
 73
   518
  0
VERTEX
  8
popcorn
 10
0.0
 20
0.0
 30
0.0
 70
   128
 71
   512
 72
   518
 73
   513
  0
VERTEX
  8
popcorn
 10
0.0
 20
0.0
 30
0.0
 70
   128
 71
   505
 72
   507
 73
   508
  0
VERTEX
  8
popcorn
 10
0.0
 20
0.0
 30
0.0
 70
   128
 71
   514
 72
   513
 73
   506
  0
VERTEX
  8
popcorn
 10
0.0
 20
0.0
 30
0.0
 70
   128
 71
   505
 72
   508
 73
   509
  0
VERTEX
  8
popcorn
 10
0.0
 20
0.0
 30
0.0
 70
   128
 71
   515
 72
   514
 73
   506
  0
VERTEX
  8
popcorn
 10
0.0
 20
0.0
 30
0.0
 70
   128
 71
   505
 72
   509
 73
   510
  0
VERTEX
  8
popcorn
 10
0.0
 20
0.0
 30
0.0
 70
   128
 71
   516
 72
   515
 73
   506
  0
VERTEX
  8
popcorn
 10
0.0
 20
0.0
 30
0.0
 70
   128
 71
   505
 72
   510
 73
   511
  0
VERTEX
  8
popcorn
 10
0.0
 20
0.0
 30
0.0
 70
   128
 71
   517
 72
   516
 73
   506
  0
VERTEX
  8
popcorn
 10
0.0
 20
0.0
 30
0.0
 70
   128
 71
   505
 72
   511
 73
   512
  0
VERTEX
  8
popcorn
 10
0.0
 20
0.0
 30
0.0
 70
   128
 71
   518
 72
   517
 73
   506
  0
VERTEX
  8
popcorn
 10
0.0
 20
0.0
 30
0.0
 70
   128
 71
   505
 72
   512
 73
   507
  0
VERTEX
  8
popcorn
 10
0.0
 20
0.0
 30
0.0
 70
   128
 71
   513
 72
   518
 73
   506
  0
VERTEX
  8
popcorn
 10
0.0
 20
0.0
 30
0.0
 70
   128
 71
   521
 72
   527
 73
   528
  0
VERTEX
  8
popcorn
 10
0.0
 20
0.0
 30
0.0
 70
   128
 71
   522
 72
   528
 73
   529
  0
VERTEX
  8
popcorn
 10
0.0
 20
0.0
 30
0.0
 70
   128
 71
   523
 72
   529
 73
   530
  0
VERTEX
  8
popcorn
 10
0.0
 20
0.0
 30
0.0
 70
   128
 71
   524
 72
   530
 73
   531
  0
VERTEX
  8
popcorn
 10
0.0
 20
0.0
 30
0.0
 70
   128
 71
   525
 72
   531
 73
   532
  0
VERTEX
  8
popcorn
 10
0.0
 20
0.0
 30
0.0
 70
   128
 71
   526
 72
   532
 73
   527
  0
VERTEX
  8
popcorn
 10
0.0
 20
0.0
 30
0.0
 70
   128
 71
   519
 72
   521
 73
   522
  0
VERTEX
  8
popcorn
 10
0.0
 20
0.0
 30
0.0
 70
   128
 71
   528
 72
   527
 73
   520
  0
VERTEX
  8
popcorn
 10
0.0
 20
0.0
 30
0.0
 70
   128
 71
   519
 72
   522
 73
   523
  0
VERTEX
  8
popcorn
 10
0.0
 20
0.0
 30
0.0
 70
   128
 71
   529
 72
   528
 73
   520
  0
VERTEX
  8
popcorn
 10
0.0
 20
0.0
 30
0.0
 70
   128
 71
   519
 72
   523
 73
   524
  0
VERTEX
  8
popcorn
 10
0.0
 20
0.0
 30
0.0
 70
   128
 71
   530
 72
   529
 73
   520
  0
VERTEX
  8
popcorn
 10
0.0
 20
0.0
 30
0.0
 70
   128
 71
   519
 72
   524
 73
   525
  0
VERTEX
  8
popcorn
 10
0.0
 20
0.0
 30
0.0
 70
   128
 71
   531
 72
   530
 73
   520
  0
VERTEX
  8
popcorn
 10
0.0
 20
0.0
 30
0.0
 70
   128
 71
   519
 72
   525
 73
   526
  0
VERTEX
  8
popcorn
 10
0.0
 20
0.0
 30
0.0
 70
   128
 71
   532
 72
   531
 73
   520
  0
VERTEX
  8
popcorn
 10
0.0
 20
0.0
 30
0.0
 70
   128
 71
   519
 72
   526
 73
   521
  0
VERTEX
  8
popcorn
 10
0.0
 20
0.0
 30
0.0
 70
   128
 71
   527
 72
   532
 73
   520
  0
VERTEX
  8
popcorn
 10
0.0
 20
0.0
 30
0.0
 70
   128
 71
   535
 72
   541
 73
   542
  0
VERTEX
  8
popcorn
 10
0.0
 20
0.0
 30
0.0
 70
   128
 71
   536
 72
   542
 73
   543
  0
VERTEX
  8
popcorn
 10
0.0
 20
0.0
 30
0.0
 70
   128
 71
   537
 72
   543
 73
   544
  0
VERTEX
  8
popcorn
 10
0.0
 20
0.0
 30
0.0
 70
   128
 71
   538
 72
   544
 73
   545
  0
VERTEX
  8
popcorn
 10
0.0
 20
0.0
 30
0.0
 70
   128
 71
   539
 72
   545
 73
   546
  0
VERTEX
  8
popcorn
 10
0.0
 20
0.0
 30
0.0
 70
   128
 71
   540
 72
   546
 73
   541
  0
VERTEX
  8
popcorn
 10
0.0
 20
0.0
 30
0.0
 70
   128
 71
   533
 72
   535
 73
   536
  0
VERTEX
  8
popcorn
 10
0.0
 20
0.0
 30
0.0
 70
   128
 71
   542
 72
   541
 73
   534
  0
VERTEX
  8
popcorn
 10
0.0
 20
0.0
 30
0.0
 70
   128
 71
   533
 72
   536
 73
   537
  0
VERTEX
  8
popcorn
 10
0.0
 20
0.0
 30
0.0
 70
   128
 71
   543
 72
   542
 73
   534
  0
VERTEX
  8
popcorn
 10
0.0
 20
0.0
 30
0.0
 70
   128
 71
   533
 72
   537
 73
   538
  0
VERTEX
  8
popcorn
 10
0.0
 20
0.0
 30
0.0
 70
   128
 71
   544
 72
   543
 73
   534
  0
VERTEX
  8
popcorn
 10
0.0
 20
0.0
 30
0.0
 70
   128
 71
   533
 72
   538
 73
   539
  0
VERTEX
  8
popcorn
 10
0.0
 20
0.0
 30
0.0
 70
   128
 71
   545
 72
   544
 73
   534
  0
VERTEX
  8
popcorn
 10
0.0
 20
0.0
 30
0.0
 70
   128
 71
   533
 72
   539
 73
   540
  0
VERTEX
  8
popcorn
 10
0.0
 20
0.0
 30
0.0
 70
   128
 71
   546
 72
   545
 73
   534
  0
VERTEX
  8
popcorn
 10
0.0
 20
0.0
 30
0.0
 70
   128
 71
   533
 72
   540
 73
   535
  0
VERTEX
  8
popcorn
 10
0.0
 20
0.0
 30
0.0
 70
   128
 71
   541
 72
   546
 73
   534
  0
VERTEX
  8
popcorn
 10
0.0
 20
0.0
 30
0.0
 70
   128
 71
   549
 72
   555
 73
   556
  0
VERTEX
  8
popcorn
 10
0.0
 20
0.0
 30
0.0
 70
   128
 71
   550
 72
   556
 73
   557
  0
VERTEX
  8
popcorn
 10
0.0
 20
0.0
 30
0.0
 70
   128
 71
   551
 72
   557
 73
   558
  0
VERTEX
  8
popcorn
 10
0.0
 20
0.0
 30
0.0
 70
   128
 71
   552
 72
   558
 73
   559
  0
VERTEX
  8
popcorn
 10
0.0
 20
0.0
 30
0.0
 70
   128
 71
   553
 72
   559
 73
   560
  0
VERTEX
  8
popcorn
 10
0.0
 20
0.0
 30
0.0
 70
   128
 71
   554
 72
   560
 73
   555
  0
VERTEX
  8
popcorn
 10
0.0
 20
0.0
 30
0.0
 70
   128
 71
   547
 72
   549
 73
   550
  0
VERTEX
  8
popcorn
 10
0.0
 20
0.0
 30
0.0
 70
   128
 71
   556
 72
   555
 73
   548
  0
VERTEX
  8
popcorn
 10
0.0
 20
0.0
 30
0.0
 70
   128
 71
   547
 72
   550
 73
   551
  0
VERTEX
  8
popcorn
 10
0.0
 20
0.0
 30
0.0
 70
   128
 71
   557
 72
   556
 73
   548
  0
VERTEX
  8
popcorn
 10
0.0
 20
0.0
 30
0.0
 70
   128
 71
   547
 72
   551
 73
   552
  0
VERTEX
  8
popcorn
 10
0.0
 20
0.0
 30
0.0
 70
   128
 71
   558
 72
   557
 73
   548
  0
VERTEX
  8
popcorn
 10
0.0
 20
0.0
 30
0.0
 70
   128
 71
   547
 72
   552
 73
   553
  0
VERTEX
  8
popcorn
 10
0.0
 20
0.0
 30
0.0
 70
   128
 71
   559
 72
   558
 73
   548
  0
VERTEX
  8
popcorn
 10
0.0
 20
0.0
 30
0.0
 70
   128
 71
   547
 72
   553
 73
   554
  0
VERTEX
  8
popcorn
 10
0.0
 20
0.0
 30
0.0
 70
   128
 71
   560
 72
   559
 73
   548
  0
VERTEX
  8
popcorn
 10
0.0
 20
0.0
 30
0.0
 70
   128
 71
   547
 72
   554
 73
   549
  0
VERTEX
  8
popcorn
 10
0.0
 20
0.0
 30
0.0
 70
   128
 71
   555
 72
   560
 73
   548
  0
VERTEX
  8
popcorn
 10
0.0
 20
0.0
 30
0.0
 70
   128
 71
   563
 72
   569
 73
   570
  0
VERTEX
  8
popcorn
 10
0.0
 20
0.0
 30
0.0
 70
   128
 71
   564
 72
   570
 73
   571
  0
VERTEX
  8
popcorn
 10
0.0
 20
0.0
 30
0.0
 70
   128
 71
   565
 72
   571
 73
   572
  0
VERTEX
  8
popcorn
 10
0.0
 20
0.0
 30
0.0
 70
   128
 71
   566
 72
   572
 73
   573
  0
VERTEX
  8
popcorn
 10
0.0
 20
0.0
 30
0.0
 70
   128
 71
   567
 72
   573
 73
   574
  0
VERTEX
  8
popcorn
 10
0.0
 20
0.0
 30
0.0
 70
   128
 71
   568
 72
   574
 73
   569
  0
VERTEX
  8
popcorn
 10
0.0
 20
0.0
 30
0.0
 70
   128
 71
   561
 72
   563
 73
   564
  0
VERTEX
  8
popcorn
 10
0.0
 20
0.0
 30
0.0
 70
   128
 71
   570
 72
   569
 73
   562
  0
VERTEX
  8
popcorn
 10
0.0
 20
0.0
 30
0.0
 70
   128
 71
   561
 72
   564
 73
   565
  0
VERTEX
  8
popcorn
 10
0.0
 20
0.0
 30
0.0
 70
   128
 71
   571
 72
   570
 73
   562
  0
VERTEX
  8
popcorn
 10
0.0
 20
0.0
 30
0.0
 70
   128
 71
   561
 72
   565
 73
   566
  0
VERTEX
  8
popcorn
 10
0.0
 20
0.0
 30
0.0
 70
   128
 71
   572
 72
   571
 73
   562
  0
VERTEX
  8
popcorn
 10
0.0
 20
0.0
 30
0.0
 70
   128
 71
   561
 72
   566
 73
   567
  0
VERTEX
  8
popcorn
 10
0.0
 20
0.0
 30
0.0
 70
   128
 71
   573
 72
   572
 73
   562
  0
VERTEX
  8
popcorn
 10
0.0
 20
0.0
 30
0.0
 70
   128
 71
   561
 72
   567
 73
   568
  0
VERTEX
  8
popcorn
 10
0.0
 20
0.0
 30
0.0
 70
   128
 71
   574
 72
   573
 73
   562
  0
VERTEX
  8
popcorn
 10
0.0
 20
0.0
 30
0.0
 70
   128
 71
   561
 72
   568
 73
   563
  0
VERTEX
  8
popcorn
 10
0.0
 20
0.0
 30
0.0
 70
   128
 71
   569
 72
   574
 73
   562
  0
VERTEX
  8
popcorn
 10
0.0
 20
0.0
 30
0.0
 70
   128
 71
   588
 72
   578
 73
   577
  0
VERTEX
  8
popcorn
 10
0.0
 20
0.0
 30
0.0
 70
   128
 71
   594
 72
   580
 73
   579
  0
VERTEX
  8
popcorn
 10
0.0
 20
0.0
 30
0.0
 70
   128
 71
   586
 72
   582
 73
   581
  0
VERTEX
  8
popcorn
 10
0.0
 20
0.0
 30
0.0
 70
   128
 71
   597
 72
   576
 73
   575
  0
VERTEX
  8
popcorn
 10
0.0
 20
0.0
 30
0.0
 70
   128
 71
   616
 72
   618
 73
   620
  0
VERTEX
  8
popcorn
 10
0.0
 20
0.0
 30
0.0
 70
   128
 71
   583
 72
   587
 73
   596
  0
VERTEX
  8
popcorn
 10
0.0
 20
0.0
 30
0.0
 70
   128
 71
   583
 72
   575
 73
   576
  0
VERTEX
  8
popcorn
 10
0.0
 20
0.0
 30
0.0
 70
   128
 71
   585
 72
   589
 73
   590
  0
VERTEX
  8
popcorn
 10
0.0
 20
0.0
 30
0.0
 70
   128
 71
   622
 72
   612
 73
   617
  0
VERTEX
  8
popcorn
 10
0.0
 20
0.0
 30
0.0
 70
   128
 71
   596
 72
   593
 73
   591
  0
VERTEX
  8
popcorn
 10
0.0
 20
0.0
 30
0.0
 70
   128
 71
   587
 72
   583
 73
   584
  0
VERTEX
  8
popcorn
 10
0.0
 20
0.0
 30
0.0
 70
   128
 71
   615
 72
   611
 73
   621
  0
VERTEX
  8
popcorn
 10
0.0
 20
0.0
 30
0.0
 70
   128
 71
   589
 72
   579
 73
   580
  0
VERTEX
  8
popcorn
 10
0.0
 20
0.0
 30
0.0
 70
   128
 71
   587
 72
   577
 73
   596
  0
VERTEX
  8
popcorn
 10
0.0
 20
0.0
 30
0.0
 70
   128
 71
   593
 72
   596
 73
   598
  0
VERTEX
  8
popcorn
 10
0.0
 20
0.0
 30
0.0
 70
   128
 71
   591
 72
   581
 73
   582
  0
VERTEX
  8
popcorn
 10
0.0
 20
0.0
 30
0.0
 70
   128
 71
   621
 72
   616
 73
   622
  0
VERTEX
  8
popcorn
 10
0.0
 20
0.0
 30
0.0
 70
   128
 71
   593
 72
   579
 73
   589
  0
VERTEX
  8
popcorn
 10
0.0
 20
0.0
 30
0.0
 70
   128
 71
   619
 72
   614
 73
   616
  0
VERTEX
  8
popcorn
 10
0.0
 20
0.0
 30
0.0
 70
   128
 71
   593
 72
   589
 73
   585
  0
VERTEX
  8
popcorn
 10
0.0
 20
0.0
 30
0.0
 70
   128
 71
   618
 72
   613
 73
   620
  0
VERTEX
  8
popcorn
 10
0.0
 20
0.0
 30
0.0
 70
   128
 71
   585
 72
   581
 73
   591
  0
VERTEX
  8
popcorn
 10
0.0
 20
0.0
 30
0.0
 70
   128
 71
   595
 72
   591
 73
   592
  0
VERTEX
  8
popcorn
 10
0.0
 20
0.0
 30
0.0
 70
   128
 71
   596
 72
   577
 73
   578
  0
VERTEX
  8
popcorn
 10
0.0
 20
0.0
 30
0.0
 70
   128
 71
   595
 72
   575
 73
   583
  0
VERTEX
  8
popcorn
 10
0.0
 20
0.0
 30
0.0
 70
   128
 71
   592
 72
   607
 73
   609
  0
VERTEX
  8
popcorn
 10
0.0
 20
0.0
 30
0.0
 70
   128
 71
   597
 72
   609
 73
   599
  0
VERTEX
  8
popcorn
 10
0.0
 20
0.0
 30
0.0
 70
   128
 71
   576
 72
   599
 73
   603
  0
VERTEX
  8
popcorn
 10
0.0
 20
0.0
 30
0.0
 70
   128
 71
   584
 72
   603
 73
   605
  0
VERTEX
  8
popcorn
 10
0.0
 20
0.0
 30
0.0
 70
   128
 71
   588
 72
   605
 73
   600
  0
VERTEX
  8
popcorn
 10
0.0
 20
0.0
 30
0.0
 70
   128
 71
   578
 72
   600
 73
   610
  0
VERTEX
  8
popcorn
 10
0.0
 20
0.0
 30
0.0
 70
   128
 71
   598
 72
   610
 73
   608
  0
VERTEX
  8
popcorn
 10
0.0
 20
0.0
 30
0.0
 70
   128
 71
   594
 72
   608
 73
   601
  0
VERTEX
  8
popcorn
 10
0.0
 20
0.0
 30
0.0
 70
   128
 71
   580
 72
   601
 73
   606
  0
VERTEX
  8
popcorn
 10
0.0
 20
0.0
 30
0.0
 70
   128
 71
   590
 72
   606
 73
   604
  0
VERTEX
  8
popcorn
 10
0.0
 20
0.0
 30
0.0
 70
   128
 71
   586
 72
   604
 73
   602
  0
VERTEX
  8
popcorn
 10
0.0
 20
0.0
 30
0.0
 70
   128
 71
   582
 72
   602
 73
   607
  0
VERTEX
  8
popcorn
 10
0.0
 20
0.0
 30
0.0
 70
   128
 71
   607
 72
   619
 73
   621
  0
VERTEX
  8
popcorn
 10
0.0
 20
0.0
 30
0.0
 70
   128
 71
   609
 72
   621
 73
   611
  0
VERTEX
  8
popcorn
 10
0.0
 20
0.0
 30
0.0
 70
   128
 71
   599
 72
   611
 73
   615
  0
VERTEX
  8
popcorn
 10
0.0
 20
0.0
 30
0.0
 70
   128
 71
   603
 72
   615
 73
   617
  0
VERTEX
  8
popcorn
 10
0.0
 20
0.0
 30
0.0
 70
   128
 71
   605
 72
   617
 73
   612
  0
VERTEX
  8
popcorn
 10
0.0
 20
0.0
 30
0.0
 70
   128
 71
   600
 72
   612
 73
   622
  0
VERTEX
  8
popcorn
 10
0.0
 20
0.0
 30
0.0
 70
   128
 71
   610
 72
   622
 73
   620
  0
VERTEX
  8
popcorn
 10
0.0
 20
0.0
 30
0.0
 70
   128
 71
   608
 72
   620
 73
   613
  0
VERTEX
  8
popcorn
 10
0.0
 20
0.0
 30
0.0
 70
   128
 71
   601
 72
   613
 73
   618
  0
VERTEX
  8
popcorn
 10
0.0
 20
0.0
 30
0.0
 70
   128
 71
   606
 72
   618
 73
   616
  0
VERTEX
  8
popcorn
 10
0.0
 20
0.0
 30
0.0
 70
   128
 71
   604
 72
   616
 73
   614
  0
VERTEX
  8
popcorn
 10
0.0
 20
0.0
 30
0.0
 70
   128
 71
   602
 72
   614
 73
   619
  0
VERTEX
  8
popcorn
 10
0.0
 20
0.0
 30
0.0
 70
   128
 71
   3
 72
   10
 73
   4
  0
VERTEX
  8
popcorn
 10
0.0
 20
0.0
 30
0.0
 70
   128
 71
   4
 72
   11
 73
   5
  0
VERTEX
  8
popcorn
 10
0.0
 20
0.0
 30
0.0
 70
   128
 71
   5
 72
   12
 73
   6
  0
VERTEX
  8
popcorn
 10
0.0
 20
0.0
 30
0.0
 70
   128
 71
   6
 72
   13
 73
   7
  0
VERTEX
  8
popcorn
 10
0.0
 20
0.0
 30
0.0
 70
   128
 71
   7
 72
   14
 73
   8
  0
VERTEX
  8
popcorn
 10
0.0
 20
0.0
 30
0.0
 70
   128
 71
   8
 72
   9
 73
   3
  0
VERTEX
  8
popcorn
 10
0.0
 20
0.0
 30
0.0
 70
   128
 71
   17
 72
   24
 73
   18
  0
VERTEX
  8
popcorn
 10
0.0
 20
0.0
 30
0.0
 70
   128
 71
   18
 72
   25
 73
   19
  0
VERTEX
  8
popcorn
 10
0.0
 20
0.0
 30
0.0
 70
   128
 71
   19
 72
   26
 73
   20
  0
VERTEX
  8
popcorn
 10
0.0
 20
0.0
 30
0.0
 70
   128
 71
   20
 72
   27
 73
   21
  0
VERTEX
  8
popcorn
 10
0.0
 20
0.0
 30
0.0
 70
   128
 71
   21
 72
   28
 73
   22
  0
VERTEX
  8
popcorn
 10
0.0
 20
0.0
 30
0.0
 70
   128
 71
   22
 72
   23
 73
   17
  0
VERTEX
  8
popcorn
 10
0.0
 20
0.0
 30
0.0
 70
   128
 71
   31
 72
   38
 73
   32
  0
VERTEX
  8
popcorn
 10
0.0
 20
0.0
 30
0.0
 70
   128
 71
   32
 72
   39
 73
   33
  0
VERTEX
  8
popcorn
 10
0.0
 20
0.0
 30
0.0
 70
   128
 71
   33
 72
   40
 73
   34
  0
VERTEX
  8
popcorn
 10
0.0
 20
0.0
 30
0.0
 70
   128
 71
   34
 72
   41
 73
   35
  0
VERTEX
  8
popcorn
 10
0.0
 20
0.0
 30
0.0
 70
   128
 71
   35
 72
   42
 73
   36
  0
VERTEX
  8
popcorn
 10
0.0
 20
0.0
 30
0.0
 70
   128
 71
   36
 72
   37
 73
   31
  0
VERTEX
  8
popcorn
 10
0.0
 20
0.0
 30
0.0
 70
   128
 71
   45
 72
   52
 73
   46
  0
VERTEX
  8
popcorn
 10
0.0
 20
0.0
 30
0.0
 70
   128
 71
   46
 72
   53
 73
   47
  0
VERTEX
  8
popcorn
 10
0.0
 20
0.0
 30
0.0
 70
   128
 71
   47
 72
   54
 73
   48
  0
VERTEX
  8
popcorn
 10
0.0
 20
0.0
 30
0.0
 70
   128
 71
   48
 72
   55
 73
   49
  0
VERTEX
  8
popcorn
 10
0.0
 20
0.0
 30
0.0
 70
   128
 71
   49
 72
   56
 73
   50
  0
VERTEX
  8
popcorn
 10
0.0
 20
0.0
 30
0.0
 70
   128
 71
   50
 72
   51
 73
   45
  0
VERTEX
  8
popcorn
 10
0.0
 20
0.0
 30
0.0
 70
   128
 71
   59
 72
   66
 73
   60
  0
VERTEX
  8
popcorn
 10
0.0
 20
0.0
 30
0.0
 70
   128
 71
   60
 72
   67
 73
   61
  0
VERTEX
  8
popcorn
 10
0.0
 20
0.0
 30
0.0
 70
   128
 71
   61
 72
   68
 73
   62
  0
VERTEX
  8
popcorn
 10
0.0
 20
0.0
 30
0.0
 70
   128
 71
   62
 72
   69
 73
   63
  0
VERTEX
  8
popcorn
 10
0.0
 20
0.0
 30
0.0
 70
   128
 71
   63
 72
   70
 73
   64
  0
VERTEX
  8
popcorn
 10
0.0
 20
0.0
 30
0.0
 70
   128
 71
   64
 72
   65
 73
   59
  0
VERTEX
  8
popcorn
 10
0.0
 20
0.0
 30
0.0
 70
   128
 71
   73
 72
   80
 73
   74
  0
VERTEX
  8
popcorn
 10
0.0
 20
0.0
 30
0.0
 70
   128
 71
   74
 72
   81
 73
   75
  0
VERTEX
  8
popcorn
 10
0.0
 20
0.0
 30
0.0
 70
   128
 71
   75
 72
   82
 73
   76
  0
VERTEX
  8
popcorn
 10
0.0
 20
0.0
 30
0.0
 70
   128
 71
   76
 72
   83
 73
   77
  0
VERTEX
  8
popcorn
 10
0.0
 20
0.0
 30
0.0
 70
   128
 71
   77
 72
   84
 73
   78
  0
VERTEX
  8
popcorn
 10
0.0
 20
0.0
 30
0.0
 70
   128
 71
   78
 72
   79
 73
   73
  0
VERTEX
  8
popcorn
 10
0.0
 20
0.0
 30
0.0
 70
   128
 71
   87
 72
   94
 73
   88
  0
VERTEX
  8
popcorn
 10
0.0
 20
0.0
 30
0.0
 70
   128
 71
   88
 72
   95
 73
   89
  0
VERTEX
  8
popcorn
 10
0.0
 20
0.0
 30
0.0
 70
   128
 71
   89
 72
   96
 73
   90
  0
VERTEX
  8
popcorn
 10
0.0
 20
0.0
 30
0.0
 70
   128
 71
   90
 72
   97
 73
   91
  0
VERTEX
  8
popcorn
 10
0.0
 20
0.0
 30
0.0
 70
   128
 71
   91
 72
   98
 73
   92
  0
VERTEX
  8
popcorn
 10
0.0
 20
0.0
 30
0.0
 70
   128
 71
   92
 72
   93
 73
   87
  0
VERTEX
  8
popcorn
 10
0.0
 20
0.0
 30
0.0
 70
   128
 71
   101
 72
   108
 73
   102
  0
VERTEX
  8
popcorn
 10
0.0
 20
0.0
 30
0.0
 70
   128
 71
   102
 72
   109
 73
   103
  0
VERTEX
  8
popcorn
 10
0.0
 20
0.0
 30
0.0
 70
   128
 71
   103
 72
   110
 73
   104
  0
VERTEX
  8
popcorn
 10
0.0
 20
0.0
 30
0.0
 70
   128
 71
   104
 72
   111
 73
   105
  0
VERTEX
  8
popcorn
 10
0.0
 20
0.0
 30
0.0
 70
   128
 71
   105
 72
   112
 73
   106
  0
VERTEX
  8
popcorn
 10
0.0
 20
0.0
 30
0.0
 70
   128
 71
   106
 72
   107
 73
   101
  0
VERTEX
  8
popcorn
 10
0.0
 20
0.0
 30
0.0
 70
   128
 71
   115
 72
   122
 73
   116
  0
VERTEX
  8
popcorn
 10
0.0
 20
0.0
 30
0.0
 70
   128
 71
   116
 72
   123
 73
   117
  0
VERTEX
  8
popcorn
 10
0.0
 20
0.0
 30
0.0
 70
   128
 71
   117
 72
   124
 73
   118
  0
VERTEX
  8
popcorn
 10
0.0
 20
0.0
 30
0.0
 70
   128
 71
   118
 72
   125
 73
   119
  0
VERTEX
  8
popcorn
 10
0.0
 20
0.0
 30
0.0
 70
   128
 71
   119
 72
   126
 73
   120
  0
VERTEX
  8
popcorn
 10
0.0
 20
0.0
 30
0.0
 70
   128
 71
   120
 72
   121
 73
   115
  0
VERTEX
  8
popcorn
 10
0.0
 20
0.0
 30
0.0
 70
   128
 71
   129
 72
   136
 73
   130
  0
VERTEX
  8
popcorn
 10
0.0
 20
0.0
 30
0.0
 70
   128
 71
   130
 72
   137
 73
   131
  0
VERTEX
  8
popcorn
 10
0.0
 20
0.0
 30
0.0
 70
   128
 71
   131
 72
   138
 73
   132
  0
VERTEX
  8
popcorn
 10
0.0
 20
0.0
 30
0.0
 70
   128
 71
   132
 72
   139
 73
   133
  0
VERTEX
  8
popcorn
 10
0.0
 20
0.0
 30
0.0
 70
   128
 71
   133
 72
   140
 73
   134
  0
VERTEX
  8
popcorn
 10
0.0
 20
0.0
 30
0.0
 70
   128
 71
   134
 72
   135
 73
   129
  0
VERTEX
  8
popcorn
 10
0.0
 20
0.0
 30
0.0
 70
   128
 71
   143
 72
   150
 73
   144
  0
VERTEX
  8
popcorn
 10
0.0
 20
0.0
 30
0.0
 70
   128
 71
   144
 72
   151
 73
   145
  0
VERTEX
  8
popcorn
 10
0.0
 20
0.0
 30
0.0
 70
   128
 71
   145
 72
   152
 73
   146
  0
VERTEX
  8
popcorn
 10
0.0
 20
0.0
 30
0.0
 70
   128
 71
   146
 72
   153
 73
   147
  0
VERTEX
  8
popcorn
 10
0.0
 20
0.0
 30
0.0
 70
   128
 71
   147
 72
   154
 73
   148
  0
VERTEX
  8
popcorn
 10
0.0
 20
0.0
 30
0.0
 70
   128
 71
   148
 72
   149
 73
   143
  0
VERTEX
  8
popcorn
 10
0.0
 20
0.0
 30
0.0
 70
   128
 71
   157
 72
   164
 73
   158
  0
VERTEX
  8
popcorn
 10
0.0
 20
0.0
 30
0.0
 70
   128
 71
   158
 72
   165
 73
   159
  0
VERTEX
  8
popcorn
 10
0.0
 20
0.0
 30
0.0
 70
   128
 71
   159
 72
   166
 73
   160
  0
VERTEX
  8
popcorn
 10
0.0
 20
0.0
 30
0.0
 70
   128
 71
   160
 72
   167
 73
   161
  0
VERTEX
  8
popcorn
 10
0.0
 20
0.0
 30
0.0
 70
   128
 71
   161
 72
   168
 73
   162
  0
VERTEX
  8
popcorn
 10
0.0
 20
0.0
 30
0.0
 70
   128
 71
   162
 72
   163
 73
   157
  0
VERTEX
  8
popcorn
 10
0.0
 20
0.0
 30
0.0
 70
   128
 71
   171
 72
   178
 73
   172
  0
VERTEX
  8
popcorn
 10
0.0
 20
0.0
 30
0.0
 70
   128
 71
   172
 72
   179
 73
   173
  0
VERTEX
  8
popcorn
 10
0.0
 20
0.0
 30
0.0
 70
   128
 71
   173
 72
   180
 73
   174
  0
VERTEX
  8
popcorn
 10
0.0
 20
0.0
 30
0.0
 70
   128
 71
   174
 72
   181
 73
   175
  0
VERTEX
  8
popcorn
 10
0.0
 20
0.0
 30
0.0
 70
   128
 71
   175
 72
   182
 73
   176
  0
VERTEX
  8
popcorn
 10
0.0
 20
0.0
 30
0.0
 70
   128
 71
   176
 72
   177
 73
   171
  0
VERTEX
  8
popcorn
 10
0.0
 20
0.0
 30
0.0
 70
   128
 71
   185
 72
   192
 73
   186
  0
VERTEX
  8
popcorn
 10
0.0
 20
0.0
 30
0.0
 70
   128
 71
   186
 72
   193
 73
   187
  0
VERTEX
  8
popcorn
 10
0.0
 20
0.0
 30
0.0
 70
   128
 71
   187
 72
   194
 73
   188
  0
VERTEX
  8
popcorn
 10
0.0
 20
0.0
 30
0.0
 70
   128
 71
   188
 72
   195
 73
   189
  0
VERTEX
  8
popcorn
 10
0.0
 20
0.0
 30
0.0
 70
   128
 71
   189
 72
   196
 73
   190
  0
VERTEX
  8
popcorn
 10
0.0
 20
0.0
 30
0.0
 70
   128
 71
   190
 72
   191
 73
   185
  0
VERTEX
  8
popcorn
 10
0.0
 20
0.0
 30
0.0
 70
   128
 71
   199
 72
   206
 73
   200
  0
VERTEX
  8
popcorn
 10
0.0
 20
0.0
 30
0.0
 70
   128
 71
   200
 72
   207
 73
   201
  0
VERTEX
  8
popcorn
 10
0.0
 20
0.0
 30
0.0
 70
   128
 71
   201
 72
   208
 73
   202
  0
VERTEX
  8
popcorn
 10
0.0
 20
0.0
 30
0.0
 70
   128
 71
   202
 72
   209
 73
   203
  0
VERTEX
  8
popcorn
 10
0.0
 20
0.0
 30
0.0
 70
   128
 71
   203
 72
   210
 73
   204
  0
VERTEX
  8
popcorn
 10
0.0
 20
0.0
 30
0.0
 70
   128
 71
   204
 72
   205
 73
   199
  0
VERTEX
  8
popcorn
 10
0.0
 20
0.0
 30
0.0
 70
   128
 71
   213
 72
   220
 73
   214
  0
VERTEX
  8
popcorn
 10
0.0
 20
0.0
 30
0.0
 70
   128
 71
   214
 72
   221
 73
   215
  0
VERTEX
  8
popcorn
 10
0.0
 20
0.0
 30
0.0
 70
   128
 71
   215
 72
   222
 73
   216
  0
VERTEX
  8
popcorn
 10
0.0
 20
0.0
 30
0.0
 70
   128
 71
   216
 72
   223
 73
   217
  0
VERTEX
  8
popcorn
 10
0.0
 20
0.0
 30
0.0
 70
   128
 71
   217
 72
   224
 73
   218
  0
VERTEX
  8
popcorn
 10
0.0
 20
0.0
 30
0.0
 70
   128
 71
   218
 72
   219
 73
   213
  0
VERTEX
  8
popcorn
 10
0.0
 20
0.0
 30
0.0
 70
   128
 71
   227
 72
   234
 73
   228
  0
VERTEX
  8
popcorn
 10
0.0
 20
0.0
 30
0.0
 70
   128
 71
   228
 72
   235
 73
   229
  0
VERTEX
  8
popcorn
 10
0.0
 20
0.0
 30
0.0
 70
   128
 71
   229
 72
   236
 73
   230
  0
VERTEX
  8
popcorn
 10
0.0
 20
0.0
 30
0.0
 70
   128
 71
   230
 72
   237
 73
   231
  0
VERTEX
  8
popcorn
 10
0.0
 20
0.0
 30
0.0
 70
   128
 71
   231
 72
   238
 73
   232
  0
VERTEX
  8
popcorn
 10
0.0
 20
0.0
 30
0.0
 70
   128
 71
   232
 72
   233
 73
   227
  0
VERTEX
  8
popcorn
 10
0.0
 20
0.0
 30
0.0
 70
   128
 71
   241
 72
   248
 73
   242
  0
VERTEX
  8
popcorn
 10
0.0
 20
0.0
 30
0.0
 70
   128
 71
   242
 72
   249
 73
   243
  0
VERTEX
  8
popcorn
 10
0.0
 20
0.0
 30
0.0
 70
   128
 71
   243
 72
   250
 73
   244
  0
VERTEX
  8
popcorn
 10
0.0
 20
0.0
 30
0.0
 70
   128
 71
   244
 72
   251
 73
   245
  0
VERTEX
  8
popcorn
 10
0.0
 20
0.0
 30
0.0
 70
   128
 71
   245
 72
   252
 73
   246
  0
VERTEX
  8
popcorn
 10
0.0
 20
0.0
 30
0.0
 70
   128
 71
   246
 72
   247
 73
   241
  0
VERTEX
  8
popcorn
 10
0.0
 20
0.0
 30
0.0
 70
   128
 71
   255
 72
   262
 73
   256
  0
VERTEX
  8
popcorn
 10
0.0
 20
0.0
 30
0.0
 70
   128
 71
   256
 72
   263
 73
   257
  0
VERTEX
  8
popcorn
 10
0.0
 20
0.0
 30
0.0
 70
   128
 71
   257
 72
   264
 73
   258
  0
VERTEX
  8
popcorn
 10
0.0
 20
0.0
 30
0.0
 70
   128
 71
   258
 72
   265
 73
   259
  0
VERTEX
  8
popcorn
 10
0.0
 20
0.0
 30
0.0
 70
   128
 71
   259
 72
   266
 73
   260
  0
VERTEX
  8
popcorn
 10
0.0
 20
0.0
 30
0.0
 70
   128
 71
   260
 72
   261
 73
   255
  0
VERTEX
  8
popcorn
 10
0.0
 20
0.0
 30
0.0
 70
   128
 71
   269
 72
   276
 73
   270
  0
VERTEX
  8
popcorn
 10
0.0
 20
0.0
 30
0.0
 70
   128
 71
   270
 72
   277
 73
   271
  0
VERTEX
  8
popcorn
 10
0.0
 20
0.0
 30
0.0
 70
   128
 71
   271
 72
   278
 73
   272
  0
VERTEX
  8
popcorn
 10
0.0
 20
0.0
 30
0.0
 70
   128
 71
   272
 72
   279
 73
   273
  0
VERTEX
  8
popcorn
 10
0.0
 20
0.0
 30
0.0
 70
   128
 71
   273
 72
   280
 73
   274
  0
VERTEX
  8
popcorn
 10
0.0
 20
0.0
 30
0.0
 70
   128
 71
   274
 72
   275
 73
   269
  0
VERTEX
  8
popcorn
 10
0.0
 20
0.0
 30
0.0
 70
   128
 71
   283
 72
   290
 73
   284
  0
VERTEX
  8
popcorn
 10
0.0
 20
0.0
 30
0.0
 70
   128
 71
   284
 72
   291
 73
   285
  0
VERTEX
  8
popcorn
 10
0.0
 20
0.0
 30
0.0
 70
   128
 71
   285
 72
   292
 73
   286
  0
VERTEX
  8
popcorn
 10
0.0
 20
0.0
 30
0.0
 70
   128
 71
   286
 72
   293
 73
   287
  0
VERTEX
  8
popcorn
 10
0.0
 20
0.0
 30
0.0
 70
   128
 71
   287
 72
   294
 73
   288
  0
VERTEX
  8
popcorn
 10
0.0
 20
0.0
 30
0.0
 70
   128
 71
   288
 72
   289
 73
   283
  0
VERTEX
  8
popcorn
 10
0.0
 20
0.0
 30
0.0
 70
   128
 71
   297
 72
   304
 73
   298
  0
VERTEX
  8
popcorn
 10
0.0
 20
0.0
 30
0.0
 70
   128
 71
   298
 72
   305
 73
   299
  0
VERTEX
  8
popcorn
 10
0.0
 20
0.0
 30
0.0
 70
   128
 71
   299
 72
   306
 73
   300
  0
VERTEX
  8
popcorn
 10
0.0
 20
0.0
 30
0.0
 70
   128
 71
   300
 72
   307
 73
   301
  0
VERTEX
  8
popcorn
 10
0.0
 20
0.0
 30
0.0
 70
   128
 71
   301
 72
   308
 73
   302
  0
VERTEX
  8
popcorn
 10
0.0
 20
0.0
 30
0.0
 70
   128
 71
   302
 72
   303
 73
   297
  0
VERTEX
  8
popcorn
 10
0.0
 20
0.0
 30
0.0
 70
   128
 71
   311
 72
   318
 73
   312
  0
VERTEX
  8
popcorn
 10
0.0
 20
0.0
 30
0.0
 70
   128
 71
   312
 72
   319
 73
   313
  0
VERTEX
  8
popcorn
 10
0.0
 20
0.0
 30
0.0
 70
   128
 71
   313
 72
   320
 73
   314
  0
VERTEX
  8
popcorn
 10
0.0
 20
0.0
 30
0.0
 70
   128
 71
   314
 72
   321
 73
   315
  0
VERTEX
  8
popcorn
 10
0.0
 20
0.0
 30
0.0
 70
   128
 71
   315
 72
   322
 73
   316
  0
VERTEX
  8
popcorn
 10
0.0
 20
0.0
 30
0.0
 70
   128
 71
   316
 72
   317
 73
   311
  0
VERTEX
  8
popcorn
 10
0.0
 20
0.0
 30
0.0
 70
   128
 71
   325
 72
   332
 73
   326
  0
VERTEX
  8
popcorn
 10
0.0
 20
0.0
 30
0.0
 70
   128
 71
   326
 72
   333
 73
   327
  0
VERTEX
  8
popcorn
 10
0.0
 20
0.0
 30
0.0
 70
   128
 71
   327
 72
   334
 73
   328
  0
VERTEX
  8
popcorn
 10
0.0
 20
0.0
 30
0.0
 70
   128
 71
   328
 72
   335
 73
   329
  0
VERTEX
  8
popcorn
 10
0.0
 20
0.0
 30
0.0
 70
   128
 71
   329
 72
   336
 73
   330
  0
VERTEX
  8
popcorn
 10
0.0
 20
0.0
 30
0.0
 70
   128
 71
   330
 72
   331
 73
   325
  0
VERTEX
  8
popcorn
 10
0.0
 20
0.0
 30
0.0
 70
   128
 71
   339
 72
   346
 73
   340
  0
VERTEX
  8
popcorn
 10
0.0
 20
0.0
 30
0.0
 70
   128
 71
   340
 72
   347
 73
   341
  0
VERTEX
  8
popcorn
 10
0.0
 20
0.0
 30
0.0
 70
   128
 71
   341
 72
   348
 73
   342
  0
VERTEX
  8
popcorn
 10
0.0
 20
0.0
 30
0.0
 70
   128
 71
   342
 72
   349
 73
   343
  0
VERTEX
  8
popcorn
 10
0.0
 20
0.0
 30
0.0
 70
   128
 71
   343
 72
   350
 73
   344
  0
VERTEX
  8
popcorn
 10
0.0
 20
0.0
 30
0.0
 70
   128
 71
   344
 72
   345
 73
   339
  0
VERTEX
  8
popcorn
 10
0.0
 20
0.0
 30
0.0
 70
   128
 71
   353
 72
   360
 73
   354
  0
VERTEX
  8
popcorn
 10
0.0
 20
0.0
 30
0.0
 70
   128
 71
   354
 72
   361
 73
   355
  0
VERTEX
  8
popcorn
 10
0.0
 20
0.0
 30
0.0
 70
   128
 71
   355
 72
   362
 73
   356
  0
VERTEX
  8
popcorn
 10
0.0
 20
0.0
 30
0.0
 70
   128
 71
   356
 72
   363
 73
   357
  0
VERTEX
  8
popcorn
 10
0.0
 20
0.0
 30
0.0
 70
   128
 71
   357
 72
   364
 73
   358
  0
VERTEX
  8
popcorn
 10
0.0
 20
0.0
 30
0.0
 70
   128
 71
   358
 72
   359
 73
   353
  0
VERTEX
  8
popcorn
 10
0.0
 20
0.0
 30
0.0
 70
   128
 71
   367
 72
   374
 73
   368
  0
VERTEX
  8
popcorn
 10
0.0
 20
0.0
 30
0.0
 70
   128
 71
   368
 72
   375
 73
   369
  0
VERTEX
  8
popcorn
 10
0.0
 20
0.0
 30
0.0
 70
   128
 71
   369
 72
   376
 73
   370
  0
VERTEX
  8
popcorn
 10
0.0
 20
0.0
 30
0.0
 70
   128
 71
   370
 72
   377
 73
   371
  0
VERTEX
  8
popcorn
 10
0.0
 20
0.0
 30
0.0
 70
   128
 71
   371
 72
   378
 73
   372
  0
VERTEX
  8
popcorn
 10
0.0
 20
0.0
 30
0.0
 70
   128
 71
   372
 72
   373
 73
   367
  0
VERTEX
  8
popcorn
 10
0.0
 20
0.0
 30
0.0
 70
   128
 71
   381
 72
   388
 73
   382
  0
VERTEX
  8
popcorn
 10
0.0
 20
0.0
 30
0.0
 70
   128
 71
   382
 72
   389
 73
   383
  0
VERTEX
  8
popcorn
 10
0.0
 20
0.0
 30
0.0
 70
   128
 71
   383
 72
   390
 73
   384
  0
VERTEX
  8
popcorn
 10
0.0
 20
0.0
 30
0.0
 70
   128
 71
   384
 72
   391
 73
   385
  0
VERTEX
  8
popcorn
 10
0.0
 20
0.0
 30
0.0
 70
   128
 71
   385
 72
   392
 73
   386
  0
VERTEX
  8
popcorn
 10
0.0
 20
0.0
 30
0.0
 70
   128
 71
   386
 72
   387
 73
   381
  0
VERTEX
  8
popcorn
 10
0.0
 20
0.0
 30
0.0
 70
   128
 71
   395
 72
   402
 73
   396
  0
VERTEX
  8
popcorn
 10
0.0
 20
0.0
 30
0.0
 70
   128
 71
   396
 72
   403
 73
   397
  0
VERTEX
  8
popcorn
 10
0.0
 20
0.0
 30
0.0
 70
   128
 71
   397
 72
   404
 73
   398
  0
VERTEX
  8
popcorn
 10
0.0
 20
0.0
 30
0.0
 70
   128
 71
   398
 72
   405
 73
   399
  0
VERTEX
  8
popcorn
 10
0.0
 20
0.0
 30
0.0
 70
   128
 71
   399
 72
   406
 73
   400
  0
VERTEX
  8
popcorn
 10
0.0
 20
0.0
 30
0.0
 70
   128
 71
   400
 72
   401
 73
   395
  0
VERTEX
  8
popcorn
 10
0.0
 20
0.0
 30
0.0
 70
   128
 71
   409
 72
   416
 73
   410
  0
VERTEX
  8
popcorn
 10
0.0
 20
0.0
 30
0.0
 70
   128
 71
   410
 72
   417
 73
   411
  0
VERTEX
  8
popcorn
 10
0.0
 20
0.0
 30
0.0
 70
   128
 71
   411
 72
   418
 73
   412
  0
VERTEX
  8
popcorn
 10
0.0
 20
0.0
 30
0.0
 70
   128
 71
   412
 72
   419
 73
   413
  0
VERTEX
  8
popcorn
 10
0.0
 20
0.0
 30
0.0
 70
   128
 71
   413
 72
   420
 73
   414
  0
VERTEX
  8
popcorn
 10
0.0
 20
0.0
 30
0.0
 70
   128
 71
   414
 72
   415
 73
   409
  0
VERTEX
  8
popcorn
 10
0.0
 20
0.0
 30
0.0
 70
   128
 71
   423
 72
   430
 73
   424
  0
VERTEX
  8
popcorn
 10
0.0
 20
0.0
 30
0.0
 70
   128
 71
   424
 72
   431
 73
   425
  0
VERTEX
  8
popcorn
 10
0.0
 20
0.0
 30
0.0
 70
   128
 71
   425
 72
   432
 73
   426
  0
VERTEX
  8
popcorn
 10
0.0
 20
0.0
 30
0.0
 70
   128
 71
   426
 72
   433
 73
   427
  0
VERTEX
  8
popcorn
 10
0.0
 20
0.0
 30
0.0
 70
   128
 71
   427
 72
   434
 73
   428
  0
VERTEX
  8
popcorn
 10
0.0
 20
0.0
 30
0.0
 70
   128
 71
   428
 72
   429
 73
   423
  0
VERTEX
  8
popcorn
 10
0.0
 20
0.0
 30
0.0
 70
   128
 71
   437
 72
   444
 73
   438
  0
VERTEX
  8
popcorn
 10
0.0
 20
0.0
 30
0.0
 70
   128
 71
   438
 72
   445
 73
   439
  0
VERTEX
  8
popcorn
 10
0.0
 20
0.0
 30
0.0
 70
   128
 71
   439
 72
   446
 73
   440
  0
VERTEX
  8
popcorn
 10
0.0
 20
0.0
 30
0.0
 70
   128
 71
   440
 72
   447
 73
   441
  0
VERTEX
  8
popcorn
 10
0.0
 20
0.0
 30
0.0
 70
   128
 71
   441
 72
   448
 73
   442
  0
VERTEX
  8
popcorn
 10
0.0
 20
0.0
 30
0.0
 70
   128
 71
   442
 72
   443
 73
   437
  0
VERTEX
  8
popcorn
 10
0.0
 20
0.0
 30
0.0
 70
   128
 71
   451
 72
   458
 73
   452
  0
VERTEX
  8
popcorn
 10
0.0
 20
0.0
 30
0.0
 70
   128
 71
   452
 72
   459
 73
   453
  0
VERTEX
  8
popcorn
 10
0.0
 20
0.0
 30
0.0
 70
   128
 71
   453
 72
   460
 73
   454
  0
VERTEX
  8
popcorn
 10
0.0
 20
0.0
 30
0.0
 70
   128
 71
   454
 72
   461
 73
   455
  0
VERTEX
  8
popcorn
 10
0.0
 20
0.0
 30
0.0
 70
   128
 71
   455
 72
   462
 73
   456
  0
VERTEX
  8
popcorn
 10
0.0
 20
0.0
 30
0.0
 70
   128
 71
   456
 72
   457
 73
   451
  0
VERTEX
  8
popcorn
 10
0.0
 20
0.0
 30
0.0
 70
   128
 71
   465
 72
   472
 73
   466
  0
VERTEX
  8
popcorn
 10
0.0
 20
0.0
 30
0.0
 70
   128
 71
   466
 72
   473
 73
   467
  0
VERTEX
  8
popcorn
 10
0.0
 20
0.0
 30
0.0
 70
   128
 71
   467
 72
   474
 73
   468
  0
VERTEX
  8
popcorn
 10
0.0
 20
0.0
 30
0.0
 70
   128
 71
   468
 72
   475
 73
   469
  0
VERTEX
  8
popcorn
 10
0.0
 20
0.0
 30
0.0
 70
   128
 71
   469
 72
   476
 73
   470
  0
VERTEX
  8
popcorn
 10
0.0
 20
0.0
 30
0.0
 70
   128
 71
   470
 72
   471
 73
   465
  0
VERTEX
  8
popcorn
 10
0.0
 20
0.0
 30
0.0
 70
   128
 71
   479
 72
   486
 73
   480
  0
VERTEX
  8
popcorn
 10
0.0
 20
0.0
 30
0.0
 70
   128
 71
   480
 72
   487
 73
   481
  0
VERTEX
  8
popcorn
 10
0.0
 20
0.0
 30
0.0
 70
   128
 71
   481
 72
   488
 73
   482
  0
VERTEX
  8
popcorn
 10
0.0
 20
0.0
 30
0.0
 70
   128
 71
   482
 72
   489
 73
   483
  0
VERTEX
  8
popcorn
 10
0.0
 20
0.0
 30
0.0
 70
   128
 71
   483
 72
   490
 73
   484
  0
VERTEX
  8
popcorn
 10
0.0
 20
0.0
 30
0.0
 70
   128
 71
   484
 72
   485
 73
   479
  0
VERTEX
  8
popcorn
 10
0.0
 20
0.0
 30
0.0
 70
   128
 71
   493
 72
   500
 73
   494
  0
VERTEX
  8
popcorn
 10
0.0
 20
0.0
 30
0.0
 70
   128
 71
   494
 72
   501
 73
   495
  0
VERTEX
  8
popcorn
 10
0.0
 20
0.0
 30
0.0
 70
   128
 71
   495
 72
   502
 73
   496
  0
VERTEX
  8
popcorn
 10
0.0
 20
0.0
 30
0.0
 70
   128
 71
   496
 72
   503
 73
   497
  0
VERTEX
  8
popcorn
 10
0.0
 20
0.0
 30
0.0
 70
   128
 71
   497
 72
   504
 73
   498
  0
VERTEX
  8
popcorn
 10
0.0
 20
0.0
 30
0.0
 70
   128
 71
   498
 72
   499
 73
   493
  0
VERTEX
  8
popcorn
 10
0.0
 20
0.0
 30
0.0
 70
   128
 71
   507
 72
   514
 73
   508
  0
VERTEX
  8
popcorn
 10
0.0
 20
0.0
 30
0.0
 70
   128
 71
   508
 72
   515
 73
   509
  0
VERTEX
  8
popcorn
 10
0.0
 20
0.0
 30
0.0
 70
   128
 71
   509
 72
   516
 73
   510
  0
VERTEX
  8
popcorn
 10
0.0
 20
0.0
 30
0.0
 70
   128
 71
   510
 72
   517
 73
   511
  0
VERTEX
  8
popcorn
 10
0.0
 20
0.0
 30
0.0
 70
   128
 71
   511
 72
   518
 73
   512
  0
VERTEX
  8
popcorn
 10
0.0
 20
0.0
 30
0.0
 70
   128
 71
   512
 72
   513
 73
   507
  0
VERTEX
  8
popcorn
 10
0.0
 20
0.0
 30
0.0
 70
   128
 71
   521
 72
   528
 73
   522
  0
VERTEX
  8
popcorn
 10
0.0
 20
0.0
 30
0.0
 70
   128
 71
   522
 72
   529
 73
   523
  0
VERTEX
  8
popcorn
 10
0.0
 20
0.0
 30
0.0
 70
   128
 71
   523
 72
   530
 73
   524
  0
VERTEX
  8
popcorn
 10
0.0
 20
0.0
 30
0.0
 70
   128
 71
   524
 72
   531
 73
   525
  0
VERTEX
  8
popcorn
 10
0.0
 20
0.0
 30
0.0
 70
   128
 71
   525
 72
   532
 73
   526
  0
VERTEX
  8
popcorn
 10
0.0
 20
0.0
 30
0.0
 70
   128
 71
   526
 72
   527
 73
   521
  0
VERTEX
  8
popcorn
 10
0.0
 20
0.0
 30
0.0
 70
   128
 71
   535
 72
   542
 73
   536
  0
VERTEX
  8
popcorn
 10
0.0
 20
0.0
 30
0.0
 70
   128
 71
   536
 72
   543
 73
   537
  0
VERTEX
  8
popcorn
 10
0.0
 20
0.0
 30
0.0
 70
   128
 71
   537
 72
   544
 73
   538
  0
VERTEX
  8
popcorn
 10
0.0
 20
0.0
 30
0.0
 70
   128
 71
   538
 72
   545
 73
   539
  0
VERTEX
  8
popcorn
 10
0.0
 20
0.0
 30
0.0
 70
   128
 71
   539
 72
   546
 73
   540
  0
VERTEX
  8
popcorn
 10
0.0
 20
0.0
 30
0.0
 70
   128
 71
   540
 72
   541
 73
   535
  0
VERTEX
  8
popcorn
 10
0.0
 20
0.0
 30
0.0
 70
   128
 71
   549
 72
   556
 73
   550
  0
VERTEX
  8
popcorn
 10
0.0
 20
0.0
 30
0.0
 70
   128
 71
   550
 72
   557
 73
   551
  0
VERTEX
  8
popcorn
 10
0.0
 20
0.0
 30
0.0
 70
   128
 71
   551
 72
   558
 73
   552
  0
VERTEX
  8
popcorn
 10
0.0
 20
0.0
 30
0.0
 70
   128
 71
   552
 72
   559
 73
   553
  0
VERTEX
  8
popcorn
 10
0.0
 20
0.0
 30
0.0
 70
   128
 71
   553
 72
   560
 73
   554
  0
VERTEX
  8
popcorn
 10
0.0
 20
0.0
 30
0.0
 70
   128
 71
   554
 72
   555
 73
   549
  0
VERTEX
  8
popcorn
 10
0.0
 20
0.0
 30
0.0
 70
   128
 71
   563
 72
   570
 73
   564
  0
VERTEX
  8
popcorn
 10
0.0
 20
0.0
 30
0.0
 70
   128
 71
   564
 72
   571
 73
   565
  0
VERTEX
  8
popcorn
 10
0.0
 20
0.0
 30
0.0
 70
   128
 71
   565
 72
   572
 73
   566
  0
VERTEX
  8
popcorn
 10
0.0
 20
0.0
 30
0.0
 70
   128
 71
   566
 72
   573
 73
   567
  0
VERTEX
  8
popcorn
 10
0.0
 20
0.0
 30
0.0
 70
   128
 71
   567
 72
   574
 73
   568
  0
VERTEX
  8
popcorn
 10
0.0
 20
0.0
 30
0.0
 70
   128
 71
   568
 72
   569
 73
   563
  0
VERTEX
  8
popcorn
 10
0.0
 20
0.0
 30
0.0
 70
   128
 71
   588
 72
   577
 73
   587
  0
VERTEX
  8
popcorn
 10
0.0
 20
0.0
 30
0.0
 70
   128
 71
   594
 72
   579
 73
   593
  0
VERTEX
  8
popcorn
 10
0.0
 20
0.0
 30
0.0
 70
   128
 71
   586
 72
   581
 73
   585
  0
VERTEX
  8
popcorn
 10
0.0
 20
0.0
 30
0.0
 70
   128
 71
   597
 72
   575
 73
   595
  0
VERTEX
  8
popcorn
 10
0.0
 20
0.0
 30
0.0
 70
   128
 71
   616
 72
   620
 73
   622
  0
VERTEX
  8
popcorn
 10
0.0
 20
0.0
 30
0.0
 70
   128
 71
   583
 72
   596
 73
   595
  0
VERTEX
  8
popcorn
 10
0.0
 20
0.0
 30
0.0
 70
   128
 71
   583
 72
   576
 73
   584
  0
VERTEX
  8
popcorn
 10
0.0
 20
0.0
 30
0.0
 70
   128
 71
   585
 72
   590
 73
   586
  0
VERTEX
  8
popcorn
 10
0.0
 20
0.0
 30
0.0
 70
   128
 71
   622
 72
   617
 73
   615
  0
VERTEX
  8
popcorn
 10
0.0
 20
0.0
 30
0.0
 70
   128
 71
   596
 72
   591
 73
   595
  0
VERTEX
  8
popcorn
 10
0.0
 20
0.0
 30
0.0
 70
   128
 71
   587
 72
   584
 73
   588
  0
VERTEX
  8
popcorn
 10
0.0
 20
0.0
 30
0.0
 70
   128
 71
   589
 72
   580
 73
   590
  0
VERTEX
  8
popcorn
 10
0.0
 20
0.0
 30
0.0
 70
   128
 71
   593
 72
   598
 73
   594
  0
VERTEX
  8
popcorn
 10
0.0
 20
0.0
 30
0.0
 70
   128
 71
   591
 72
   582
 73
   592
  0
VERTEX
  8
popcorn
 10
0.0
 20
0.0
 30
0.0
 70
   128
 71
   621
 72
   622
 73
   615
  0
VERTEX
  8
popcorn
 10
0.0
 20
0.0
 30
0.0
 70
   128
 71
   619
 72
   616
 73
   621
  0
VERTEX
  8
popcorn
 10
0.0
 20
0.0
 30
0.0
 70
   128
 71
   593
 72
   585
 73
   591
  0
VERTEX
  8
popcorn
 10
0.0
 20
0.0
 30
0.0
 70
   128
 71
   595
 72
   592
 73
   597
  0
VERTEX
  8
popcorn
 10
0.0
 20
0.0
 30
0.0
 70
   128
 71
   596
 72
   578
 73
   598
  0
VERTEX
  8
popcorn
 10
0.0
 20
0.0
 30
0.0
 70
   128
 71
   592
 72
   609
 73
   597
  0
VERTEX
  8
popcorn
 10
0.0
 20
0.0
 30
0.0
 70
   128
 71
   597
 72
   599
 73
   576
  0
VERTEX
  8
popcorn
 10
0.0
 20
0.0
 30
0.0
 70
   128
 71
   576
 72
   603
 73
   584
  0
VERTEX
  8
popcorn
 10
0.0
 20
0.0
 30
0.0
 70
   128
 71
   584
 72
   605
 73
   588
  0
VERTEX
  8
popcorn
 10
0.0
 20
0.0
 30
0.0
 70
   128
 71
   588
 72
   600
 73
   578
  0
VERTEX
  8
popcorn
 10
0.0
 20
0.0
 30
0.0
 70
   128
 71
   578
 72
   610
 73
   598
  0
VERTEX
  8
popcorn
 10
0.0
 20
0.0
 30
0.0
 70
   128
 71
   598
 72
   608
 73
   594
  0
VERTEX
  8
popcorn
 10
0.0
 20
0.0
 30
0.0
 70
   128
 71
   594
 72
   601
 73
   580
  0
VERTEX
  8
popcorn
 10
0.0
 20
0.0
 30
0.0
 70
   128
 71
   580
 72
   606
 73
   590
  0
VERTEX
  8
popcorn
 10
0.0
 20
0.0
 30
0.0
 70
   128
 71
   590
 72
   604
 73
   586
  0
VERTEX
  8
popcorn
 10
0.0
 20
0.0
 30
0.0
 70
   128
 71
   586
 72
   602
 73
   582
  0
VERTEX
  8
popcorn
 10
0.0
 20
0.0
 30
0.0
 70
   128
 71
   582
 72
   607
 73
   592
  0
VERTEX
  8
popcorn
 10
0.0
 20
0.0
 30
0.0
 70
   128
 71
   607
 72
   621
 73
   609
  0
VERTEX
  8
popcorn
 10
0.0
 20
0.0
 30
0.0
 70
   128
 71
   609
 72
   611
 73
   599
  0
VERTEX
  8
popcorn
 10
0.0
 20
0.0
 30
0.0
 70
   128
 71
   599
 72
   615
 73
   603
  0
VERTEX
  8
popcorn
 10
0.0
 20
0.0
 30
0.0
 70
   128
 71
   603
 72
   617
 73
   605
  0
VERTEX
  8
popcorn
 10
0.0
 20
0.0
 30
0.0
 70
   128
 71
   605
 72
   612
 73
   600
  0
VERTEX
  8
popcorn
 10
0.0
 20
0.0
 30
0.0
 70
   128
 71
   600
 72
   622
 73
   610
  0
VERTEX
  8
popcorn
 10
0.0
 20
0.0
 30
0.0
 70
   128
 71
   610
 72
   620
 73
   608
  0
VERTEX
  8
popcorn
 10
0.0
 20
0.0
 30
0.0
 70
   128
 71
   608
 72
   613
 73
   601
  0
VERTEX
  8
popcorn
 10
0.0
 20
0.0
 30
0.0
 70
   128
 71
   601
 72
   618
 73
   606
  0
VERTEX
  8
popcorn
 10
0.0
 20
0.0
 30
0.0
 70
   128
 71
   606
 72
   616
 73
   604
  0
VERTEX
  8
popcorn
 10
0.0
 20
0.0
 30
0.0
 70
   128
 71
   604
 72
   614
 73
   602
  0
VERTEX
  8
popcorn
 10
0.0
 20
0.0
 30
0.0
 70
   128
 71
   602
 72
   619
 73
   607
  0
SEQEND
  0
ENDSEC
  0
EOF
