999
FBX AutoCAD (*.DXF) exporter
  0
SECTION
  2
HEADER
  9
$ACADVER
  1
AC1008
  9
$UCSORG
 10
0.0
 20
0.0
 30
0.0
  9
$UCSXDIR
 10
1.0
 20
0.0
 30
0.0
  9
$TILEMODE
 70
   1
  9
$UCSYDIR
 10
0.0
 20
1.0
 30
0.0
  0
ENDSEC
  0
SECTION
  2
TABLES
  0
TABLE
  2
LTYPE
 70
   1
  0
LTYPE
  2
CONTINUOUS
 70
   64
  3
Solid line
 72
   65
 73
   0
 40
0.0
  0
ENDTAB
  0
TABLE
  2
LAYER
 70
   1
  0
LAYER
  2
knife
 70
   0
 62
   250
  6
CONTINUOUS
  0
ENDTAB
  0
ENDSEC
  0
SECTION
  2
BLOCKS
  0
ENDSEC
  0
SECTION
  2
ENTITIES
  0
POLYLINE
  8
knife
 66
   1
 10
0.0
 20
0.0
 30
0.0
 70
   64
 71
   16
 72
   28
  0
VERTEX
  8
knife
 10
-13.671496
 20
0.000000
 30
-103.512753
 70
   192
  0
VERTEX
  8
knife
 10
6.640441
 20
0.000000
 30
-98.044155
 70
   192
  0
VERTEX
  8
knife
 10
13.671496
 20
0.000000
 30
-85.544502
 70
   192
  0
VERTEX
  8
knife
 10
12.109039
 20
0.000000
 30
97.262927
 70
   192
  0
VERTEX
  8
knife
 10
8.202897
 20
0.000000
 30
103.512753
 70
   192
  0
VERTEX
  8
knife
 10
-0.390614
 20
0.000000
 30
97.262927
 70
   192
  0
VERTEX
  8
knife
 10
-0.390614
 20
0.000000
 30
1.171842
 70
   192
  0
VERTEX
  8
knife
 10
-13.671496
 20
0.000000
 30
-7.421669
 70
   192
  0
VERTEX
  8
knife
 10
-13.671496
 20
8.770000
 30
-103.512753
 70
   192
  0
VERTEX
  8
knife
 10
6.640441
 20
8.770000
 30
-98.044155
 70
   192
  0
VERTEX
  8
knife
 10
13.671496
 20
8.770000
 30
-85.544502
 70
   192
  0
VERTEX
  8
knife
 10
12.109039
 20
8.770000
 30
97.262927
 70
   192
  0
VERTEX
  8
knife
 10
8.202897
 20
8.770000
 30
103.512753
 70
   192
  0
VERTEX
  8
knife
 10
-0.390614
 20
8.770000
 30
97.262927
 70
   192
  0
VERTEX
  8
knife
 10
-0.390614
 20
8.770000
 30
1.171842
 70
   192
  0
VERTEX
  8
knife
 10
-13.671496
 20
8.770000
 30
-7.421669
 70
   192
  0
VERTEX
  8
knife
 10
0.0
 20
0.0
 30
0.0
 70
   128
 71
   1
 72
   2
 73
   10
  0
VERTEX
  8
knife
 10
0.0
 20
0.0
 30
0.0
 70
   128
 71
   2
 72
   3
 73
   11
  0
VERTEX
  8
knife
 10
0.0
 20
0.0
 30
0.0
 70
   128
 71
   3
 72
   4
 73
   12
  0
VERTEX
  8
knife
 10
0.0
 20
0.0
 30
0.0
 70
   128
 71
   4
 72
   5
 73
   13
  0
VERTEX
  8
knife
 10
0.0
 20
0.0
 30
0.0
 70
   128
 71
   5
 72
   6
 73
   14
  0
VERTEX
  8
knife
 10
0.0
 20
0.0
 30
0.0
 70
   128
 71
   6
 72
   7
 73
   15
  0
VERTEX
  8
knife
 10
0.0
 20
0.0
 30
0.0
 70
   128
 71
   7
 72
   8
 73
   16
  0
VERTEX
  8
knife
 10
0.0
 20
0.0
 30
0.0
 70
   128
 71
   8
 72
   1
 73
   9
  0
VERTEX
  8
knife
 10
0.0
 20
0.0
 30
0.0
 70
   128
 71
   3
 72
   1
 73
   8
  0
VERTEX
  8
knife
 10
0.0
 20
0.0
 30
0.0
 70
   128
 71
   1
 72
   3
 73
   2
  0
VERTEX
  8
knife
 10
0.0
 20
0.0
 30
0.0
 70
   128
 71
   7
 72
   6
 73
   4
  0
VERTEX
  8
knife
 10
0.0
 20
0.0
 30
0.0
 70
   128
 71
   16
 72
   9
 73
   11
  0
VERTEX
  8
knife
 10
0.0
 20
0.0
 30
0.0
 70
   128
 71
   6
 72
   5
 73
   4
  0
VERTEX
  8
knife
 10
0.0
 20
0.0
 30
0.0
 70
   128
 71
   15
 72
   11
 73
   12
  0
VERTEX
  8
knife
 10
0.0
 20
0.0
 30
0.0
 70
   128
 71
   9
 72
   10
 73
   11
  0
VERTEX
  8
knife
 10
0.0
 20
0.0
 30
0.0
 70
   128
 71
   12
 72
   13
 73
   14
  0
VERTEX
  8
knife
 10
0.0
 20
0.0
 30
0.0
 70
   128
 71
   1
 72
   10
 73
   9
  0
VERTEX
  8
knife
 10
0.0
 20
0.0
 30
0.0
 70
   128
 71
   2
 72
   11
 73
   10
  0
VERTEX
  8
knife
 10
0.0
 20
0.0
 30
0.0
 70
   128
 71
   3
 72
   12
 73
   11
  0
VERTEX
  8
knife
 10
0.0
 20
0.0
 30
0.0
 70
   128
 71
   4
 72
   13
 73
   12
  0
VERTEX
  8
knife
 10
0.0
 20
0.0
 30
0.0
 70
   128
 71
   5
 72
   14
 73
   13
  0
VERTEX
  8
knife
 10
0.0
 20
0.0
 30
0.0
 70
   128
 71
   6
 72
   15
 73
   14
  0
VERTEX
  8
knife
 10
0.0
 20
0.0
 30
0.0
 70
   128
 71
   7
 72
   16
 73
   15
  0
VERTEX
  8
knife
 10
0.0
 20
0.0
 30
0.0
 70
   128
 71
   8
 72
   9
 73
   16
  0
VERTEX
  8
knife
 10
0.0
 20
0.0
 30
0.0
 70
   128
 71
   3
 72
   8
 73
   7
  0
VERTEX
  8
knife
 10
0.0
 20
0.0
 30
0.0
 70
   128
 71
   7
 72
   4
 73
   3
  0
VERTEX
  8
knife
 10
0.0
 20
0.0
 30
0.0
 70
   128
 71
   16
 72
   11
 73
   15
  0
VERTEX
  8
knife
 10
0.0
 20
0.0
 30
0.0
 70
   128
 71
   15
 72
   12
 73
   14
  0
SEQEND
  0
ENDSEC
  0
EOF
