999
FBX AutoCAD (*.DXF) exporter
  0
SECTION
  2
HEADER
  9
$ACADVER
  1
AC1008
  9
$UCSORG
 10
0.0
 20
0.0
 30
0.0
  9
$UCSXDIR
 10
1.0
 20
0.0
 30
0.0
  9
$TILEMODE
 70
   1
  9
$UCSYDIR
 10
0.0
 20
1.0
 30
0.0
  0
ENDSEC
  0
SECTION
  2
TABLES
  0
TABLE
  2
LTYPE
 70
   1
  0
LTYPE
  2
CONTINUOUS
 70
   64
  3
Solid line
 72
   65
 73
   0
 40
0.0
  0
ENDTAB
  0
TABLE
  2
LAYER
 70
   1
  0
LAYER
  2
plate
 70
   0
 62
   250
  6
CONTINUOUS
  0
ENDTAB
  0
ENDSEC
  0
SECTION
  2
BLOCKS
  0
ENDSEC
  0
SECTION
  2
ENTITIES
  0
POLYLINE
  8
plate
 66
   1
 10
0.0
 20
0.0
 30
0.0
 70
   64
 71
   64
 72
   124
  0
VERTEX
  8
plate
 10
-149.348203
 20
-5.966308
 30
-84.516678
 70
   192
  0
VERTEX
  8
plate
 10
-159.951926
 20
23.318520
 30
-90.517362
 70
   192
  0
VERTEX
  8
plate
 10
-159.951926
 20
23.318520
 30
90.517362
 70
   192
  0
VERTEX
  8
plate
 10
-149.348203
 20
-5.966308
 30
84.516678
 70
   192
  0
VERTEX
  8
plate
 10
-88.648806
 20
-5.966308
 30
145.216075
 70
   192
  0
VERTEX
  8
plate
 10
-94.942871
 20
23.318520
 30
155.526417
 70
   192
  0
VERTEX
  8
plate
 10
94.942871
 20
23.318520
 30
155.526417
 70
   192
  0
VERTEX
  8
plate
 10
88.648806
 20
-5.966308
 30
145.216075
 70
   192
  0
VERTEX
  8
plate
 10
149.348203
 20
-5.966308
 30
84.516678
 70
   192
  0
VERTEX
  8
plate
 10
159.951926
 20
23.318520
 30
90.517362
 70
   192
  0
VERTEX
  8
plate
 10
159.951926
 20
23.318520
 30
-90.517362
 70
   192
  0
VERTEX
  8
plate
 10
149.348203
 20
-5.966308
 30
-84.516678
 70
   192
  0
VERTEX
  8
plate
 10
88.648806
 20
-5.966308
 30
-145.216075
 70
   192
  0
VERTEX
  8
plate
 10
94.942871
 20
23.318520
 30
-155.526417
 70
   192
  0
VERTEX
  8
plate
 10
-94.942871
 20
23.318520
 30
-155.526417
 70
   192
  0
VERTEX
  8
plate
 10
-88.648806
 20
-5.966308
 30
-145.216075
 70
   192
  0
VERTEX
  8
plate
 10
-141.594488
 20
-5.966308
 30
-114.201213
 70
   192
  0
VERTEX
  8
plate
 10
-118.333341
 20
-5.966308
 30
-137.462360
 70
   192
  0
VERTEX
  8
plate
 10
-151.647696
 20
23.318520
 30
-122.309499
 70
   192
  0
VERTEX
  8
plate
 10
-126.735008
 20
23.318520
 30
-147.222187
 70
   192
  0
VERTEX
  8
plate
 10
-151.647696
 20
23.318520
 30
122.309499
 70
   192
  0
VERTEX
  8
plate
 10
-126.735008
 20
23.318520
 30
147.222187
 70
   192
  0
VERTEX
  8
plate
 10
-141.594488
 20
-5.966308
 30
114.201213
 70
   192
  0
VERTEX
  8
plate
 10
-118.333341
 20
-5.966308
 30
137.462360
 70
   192
  0
VERTEX
  8
plate
 10
126.735008
 20
23.318520
 30
147.222187
 70
   192
  0
VERTEX
  8
plate
 10
151.647696
 20
23.318520
 30
122.309499
 70
   192
  0
VERTEX
  8
plate
 10
118.333341
 20
-5.966308
 30
137.462360
 70
   192
  0
VERTEX
  8
plate
 10
141.594488
 20
-5.966308
 30
114.201213
 70
   192
  0
VERTEX
  8
plate
 10
151.647696
 20
23.318520
 30
-122.309499
 70
   192
  0
VERTEX
  8
plate
 10
126.735008
 20
23.318520
 30
-147.222187
 70
   192
  0
VERTEX
  8
plate
 10
141.594488
 20
-5.966308
 30
-114.201213
 70
   192
  0
VERTEX
  8
plate
 10
118.333341
 20
-5.966308
 30
-137.462360
 70
   192
  0
VERTEX
  8
plate
 10
-136.248203
 20
19.020379
 30
-82.834020
 70
   192
  0
VERTEX
  8
plate
 10
-136.248203
 20
19.020379
 30
82.834020
 70
   192
  0
VERTEX
  8
plate
 10
-86.966148
 20
19.020379
 30
132.116075
 70
   192
  0
VERTEX
  8
plate
 10
86.966148
 20
19.020379
 30
132.116075
 70
   192
  0
VERTEX
  8
plate
 10
136.248203
 20
19.020379
 30
82.834020
 70
   192
  0
VERTEX
  8
plate
 10
136.248203
 20
19.020379
 30
-82.834020
 70
   192
  0
VERTEX
  8
plate
 10
86.966148
 20
19.020379
 30
-132.116075
 70
   192
  0
VERTEX
  8
plate
 10
-86.966148
 20
19.020379
 30
-132.116075
 70
   192
  0
VERTEX
  8
plate
 10
-129.818029
 20
19.020379
 30
-107.451474
 70
   192
  0
VERTEX
  8
plate
 10
-111.583602
 20
19.020379
 30
-125.685901
 70
   192
  0
VERTEX
  8
plate
 10
-129.818029
 20
19.020379
 30
107.451474
 70
   192
  0
VERTEX
  8
plate
 10
-111.583602
 20
19.020379
 30
125.685901
 70
   192
  0
VERTEX
  8
plate
 10
111.583602
 20
19.020379
 30
125.685901
 70
   192
  0
VERTEX
  8
plate
 10
129.818029
 20
19.020379
 30
107.451474
 70
   192
  0
VERTEX
  8
plate
 10
129.818029
 20
19.020379
 30
-107.451474
 70
   192
  0
VERTEX
  8
plate
 10
111.583602
 20
19.020379
 30
-125.685901
 70
   192
  0
VERTEX
  8
plate
 10
-136.248203
 20
2.466308
 30
-82.834020
 70
   192
  0
VERTEX
  8
plate
 10
-136.248203
 20
2.466308
 30
82.834020
 70
   192
  0
VERTEX
  8
plate
 10
-86.966148
 20
2.466308
 30
132.116075
 70
   192
  0
VERTEX
  8
plate
 10
86.966148
 20
2.466308
 30
132.116075
 70
   192
  0
VERTEX
  8
plate
 10
136.248203
 20
2.466308
 30
82.834020
 70
   192
  0
VERTEX
  8
plate
 10
136.248203
 20
2.466308
 30
-82.834020
 70
   192
  0
VERTEX
  8
plate
 10
86.966148
 20
2.466308
 30
-132.116075
 70
   192
  0
VERTEX
  8
plate
 10
-86.966148
 20
2.466308
 30
-132.116075
 70
   192
  0
VERTEX
  8
plate
 10
-129.818029
 20
2.466308
 30
-107.451474
 70
   192
  0
VERTEX
  8
plate
 10
-111.583602
 20
2.466308
 30
-125.685901
 70
   192
  0
VERTEX
  8
plate
 10
-129.818029
 20
2.466308
 30
107.451474
 70
   192
  0
VERTEX
  8
plate
 10
-111.583602
 20
2.466308
 30
125.685901
 70
   192
  0
VERTEX
  8
plate
 10
111.583602
 20
2.466308
 30
125.685901
 70
   192
  0
VERTEX
  8
plate
 10
129.818029
 20
2.466308
 30
107.451474
 70
   192
  0
VERTEX
  8
plate
 10
129.818029
 20
2.466308
 30
-107.451474
 70
   192
  0
VERTEX
  8
plate
 10
111.583602
 20
2.466308
 30
-125.685901
 70
   192
  0
VERTEX
  8
plate
 10
0.0
 20
0.0
 30
0.0
 70
   128
 71
   5
 72
   6
 73
   7
  0
VERTEX
  8
plate
 10
0.0
 20
0.0
 30
0.0
 70
   128
 71
   9
 72
   10
 73
   11
  0
VERTEX
  8
plate
 10
0.0
 20
0.0
 30
0.0
 70
   128
 71
   13
 72
   14
 73
   15
  0
VERTEX
  8
plate
 10
0.0
 20
0.0
 30
0.0
 70
   128
 71
   1
 72
   2
 73
   3
  0
VERTEX
  8
plate
 10
0.0
 20
0.0
 30
0.0
 70
   128
 71
   51
 72
   60
 73
   59
  0
VERTEX
  8
plate
 10
0.0
 20
0.0
 30
0.0
 70
   128
 71
   16
 72
   18
 73
   17
  0
VERTEX
  8
plate
 10
0.0
 20
0.0
 30
0.0
 70
   128
 71
   56
 72
   51
 73
   50
  0
VERTEX
  8
plate
 10
0.0
 20
0.0
 30
0.0
 70
   128
 71
   52
 72
   51
 73
   56
  0
VERTEX
  8
plate
 10
0.0
 20
0.0
 30
0.0
 70
   128
 71
   56
 72
   49
 73
   57
  0
VERTEX
  8
plate
 10
0.0
 20
0.0
 30
0.0
 70
   128
 71
   55
 72
   64
 73
   63
  0
VERTEX
  8
plate
 10
0.0
 20
0.0
 30
0.0
 70
   128
 71
   55
 72
   54
 73
   53
  0
VERTEX
  8
plate
 10
0.0
 20
0.0
 30
0.0
 70
   128
 71
   53
 72
   62
 73
   61
  0
VERTEX
  8
plate
 10
0.0
 20
0.0
 30
0.0
 70
   128
 71
   5
 72
   16
 73
   1
  0
VERTEX
  8
plate
 10
0.0
 20
0.0
 30
0.0
 70
   128
 71
   16
 72
   5
 73
   8
  0
VERTEX
  8
plate
 10
0.0
 20
0.0
 30
0.0
 70
   128
 71
   5
 72
   4
 73
   23
  0
VERTEX
  8
plate
 10
0.0
 20
0.0
 30
0.0
 70
   128
 71
   9
 72
   8
 73
   27
  0
VERTEX
  8
plate
 10
0.0
 20
0.0
 30
0.0
 70
   128
 71
   13
 72
   8
 73
   9
  0
VERTEX
  8
plate
 10
0.0
 20
0.0
 30
0.0
 70
   128
 71
   13
 72
   12
 73
   31
  0
VERTEX
  8
plate
 10
0.0
 20
0.0
 30
0.0
 70
   128
 71
   5
 72
   24
 73
   22
  0
VERTEX
  8
plate
 10
0.0
 20
0.0
 30
0.0
 70
   128
 71
   9
 72
   28
 73
   26
  0
VERTEX
  8
plate
 10
0.0
 20
0.0
 30
0.0
 70
   128
 71
   13
 72
   32
 73
   30
  0
VERTEX
  8
plate
 10
0.0
 20
0.0
 30
0.0
 70
   128
 71
   1
 72
   17
 73
   19
  0
VERTEX
  8
plate
 10
0.0
 20
0.0
 30
0.0
 70
   128
 71
   24
 72
   23
 73
   21
  0
VERTEX
  8
plate
 10
0.0
 20
0.0
 30
0.0
 70
   128
 71
   23
 72
   4
 73
   3
  0
VERTEX
  8
plate
 10
0.0
 20
0.0
 30
0.0
 70
   128
 71
   28
 72
   27
 73
   25
  0
VERTEX
  8
plate
 10
0.0
 20
0.0
 30
0.0
 70
   128
 71
   27
 72
   8
 73
   7
  0
VERTEX
  8
plate
 10
0.0
 20
0.0
 30
0.0
 70
   128
 71
   32
 72
   31
 73
   29
  0
VERTEX
  8
plate
 10
0.0
 20
0.0
 30
0.0
 70
   128
 71
   31
 72
   12
 73
   11
  0
VERTEX
  8
plate
 10
0.0
 20
0.0
 30
0.0
 70
   128
 71
   17
 72
   18
 73
   20
  0
VERTEX
  8
plate
 10
0.0
 20
0.0
 30
0.0
 70
   128
 71
   18
 72
   16
 73
   15
  0
VERTEX
  8
plate
 10
0.0
 20
0.0
 30
0.0
 70
   128
 71
   6
 72
   35
 73
   36
  0
VERTEX
  8
plate
 10
0.0
 20
0.0
 30
0.0
 70
   128
 71
   7
 72
   36
 73
   45
  0
VERTEX
  8
plate
 10
0.0
 20
0.0
 30
0.0
 70
   128
 71
   25
 72
   45
 73
   46
  0
VERTEX
  8
plate
 10
0.0
 20
0.0
 30
0.0
 70
   128
 71
   26
 72
   46
 73
   37
  0
VERTEX
  8
plate
 10
0.0
 20
0.0
 30
0.0
 70
   128
 71
   10
 72
   37
 73
   38
  0
VERTEX
  8
plate
 10
0.0
 20
0.0
 30
0.0
 70
   128
 71
   11
 72
   38
 73
   47
  0
VERTEX
  8
plate
 10
0.0
 20
0.0
 30
0.0
 70
   128
 71
   29
 72
   47
 73
   48
  0
VERTEX
  8
plate
 10
0.0
 20
0.0
 30
0.0
 70
   128
 71
   30
 72
   48
 73
   39
  0
VERTEX
  8
plate
 10
0.0
 20
0.0
 30
0.0
 70
   128
 71
   14
 72
   39
 73
   40
  0
VERTEX
  8
plate
 10
0.0
 20
0.0
 30
0.0
 70
   128
 71
   15
 72
   40
 73
   42
  0
VERTEX
  8
plate
 10
0.0
 20
0.0
 30
0.0
 70
   128
 71
   20
 72
   42
 73
   41
  0
VERTEX
  8
plate
 10
0.0
 20
0.0
 30
0.0
 70
   128
 71
   19
 72
   41
 73
   33
  0
VERTEX
  8
plate
 10
0.0
 20
0.0
 30
0.0
 70
   128
 71
   2
 72
   33
 73
   34
  0
VERTEX
  8
plate
 10
0.0
 20
0.0
 30
0.0
 70
   128
 71
   3
 72
   34
 73
   43
  0
VERTEX
  8
plate
 10
0.0
 20
0.0
 30
0.0
 70
   128
 71
   21
 72
   43
 73
   44
  0
VERTEX
  8
plate
 10
0.0
 20
0.0
 30
0.0
 70
   128
 71
   22
 72
   44
 73
   35
  0
VERTEX
  8
plate
 10
0.0
 20
0.0
 30
0.0
 70
   128
 71
   35
 72
   51
 73
   52
  0
VERTEX
  8
plate
 10
0.0
 20
0.0
 30
0.0
 70
   128
 71
   36
 72
   52
 73
   61
  0
VERTEX
  8
plate
 10
0.0
 20
0.0
 30
0.0
 70
   128
 71
   45
 72
   61
 73
   62
  0
VERTEX
  8
plate
 10
0.0
 20
0.0
 30
0.0
 70
   128
 71
   46
 72
   62
 73
   53
  0
VERTEX
  8
plate
 10
0.0
 20
0.0
 30
0.0
 70
   128
 71
   37
 72
   53
 73
   54
  0
VERTEX
  8
plate
 10
0.0
 20
0.0
 30
0.0
 70
   128
 71
   38
 72
   54
 73
   63
  0
VERTEX
  8
plate
 10
0.0
 20
0.0
 30
0.0
 70
   128
 71
   47
 72
   63
 73
   64
  0
VERTEX
  8
plate
 10
0.0
 20
0.0
 30
0.0
 70
   128
 71
   48
 72
   64
 73
   55
  0
VERTEX
  8
plate
 10
0.0
 20
0.0
 30
0.0
 70
   128
 71
   39
 72
   55
 73
   56
  0
VERTEX
  8
plate
 10
0.0
 20
0.0
 30
0.0
 70
   128
 71
   40
 72
   56
 73
   58
  0
VERTEX
  8
plate
 10
0.0
 20
0.0
 30
0.0
 70
   128
 71
   42
 72
   58
 73
   57
  0
VERTEX
  8
plate
 10
0.0
 20
0.0
 30
0.0
 70
   128
 71
   41
 72
   57
 73
   49
  0
VERTEX
  8
plate
 10
0.0
 20
0.0
 30
0.0
 70
   128
 71
   33
 72
   49
 73
   50
  0
VERTEX
  8
plate
 10
0.0
 20
0.0
 30
0.0
 70
   128
 71
   34
 72
   50
 73
   59
  0
VERTEX
  8
plate
 10
0.0
 20
0.0
 30
0.0
 70
   128
 71
   43
 72
   59
 73
   60
  0
VERTEX
  8
plate
 10
0.0
 20
0.0
 30
0.0
 70
   128
 71
   44
 72
   60
 73
   51
  0
VERTEX
  8
plate
 10
0.0
 20
0.0
 30
0.0
 70
   128
 71
   5
 72
   7
 73
   8
  0
VERTEX
  8
plate
 10
0.0
 20
0.0
 30
0.0
 70
   128
 71
   9
 72
   11
 73
   12
  0
VERTEX
  8
plate
 10
0.0
 20
0.0
 30
0.0
 70
   128
 71
   13
 72
   15
 73
   16
  0
VERTEX
  8
plate
 10
0.0
 20
0.0
 30
0.0
 70
   128
 71
   1
 72
   3
 73
   4
  0
VERTEX
  8
plate
 10
0.0
 20
0.0
 30
0.0
 70
   128
 71
   51
 72
   59
 73
   50
  0
VERTEX
  8
plate
 10
0.0
 20
0.0
 30
0.0
 70
   128
 71
   16
 72
   17
 73
   1
  0
VERTEX
  8
plate
 10
0.0
 20
0.0
 30
0.0
 70
   128
 71
   56
 72
   50
 73
   49
  0
VERTEX
  8
plate
 10
0.0
 20
0.0
 30
0.0
 70
   128
 71
   52
 72
   56
 73
   55
  0
VERTEX
  8
plate
 10
0.0
 20
0.0
 30
0.0
 70
   128
 71
   56
 72
   57
 73
   58
  0
VERTEX
  8
plate
 10
0.0
 20
0.0
 30
0.0
 70
   128
 71
   55
 72
   63
 73
   54
  0
VERTEX
  8
plate
 10
0.0
 20
0.0
 30
0.0
 70
   128
 71
   55
 72
   53
 73
   52
  0
VERTEX
  8
plate
 10
0.0
 20
0.0
 30
0.0
 70
   128
 71
   53
 72
   61
 73
   52
  0
VERTEX
  8
plate
 10
0.0
 20
0.0
 30
0.0
 70
   128
 71
   5
 72
   1
 73
   4
  0
VERTEX
  8
plate
 10
0.0
 20
0.0
 30
0.0
 70
   128
 71
   16
 72
   8
 73
   13
  0
VERTEX
  8
plate
 10
0.0
 20
0.0
 30
0.0
 70
   128
 71
   5
 72
   23
 73
   24
  0
VERTEX
  8
plate
 10
0.0
 20
0.0
 30
0.0
 70
   128
 71
   9
 72
   27
 73
   28
  0
VERTEX
  8
plate
 10
0.0
 20
0.0
 30
0.0
 70
   128
 71
   13
 72
   9
 73
   12
  0
VERTEX
  8
plate
 10
0.0
 20
0.0
 30
0.0
 70
   128
 71
   13
 72
   31
 73
   32
  0
VERTEX
  8
plate
 10
0.0
 20
0.0
 30
0.0
 70
   128
 71
   5
 72
   22
 73
   6
  0
VERTEX
  8
plate
 10
0.0
 20
0.0
 30
0.0
 70
   128
 71
   9
 72
   26
 73
   10
  0
VERTEX
  8
plate
 10
0.0
 20
0.0
 30
0.0
 70
   128
 71
   13
 72
   30
 73
   14
  0
VERTEX
  8
plate
 10
0.0
 20
0.0
 30
0.0
 70
   128
 71
   1
 72
   19
 73
   2
  0
VERTEX
  8
plate
 10
0.0
 20
0.0
 30
0.0
 70
   128
 71
   24
 72
   21
 73
   22
  0
VERTEX
  8
plate
 10
0.0
 20
0.0
 30
0.0
 70
   128
 71
   23
 72
   3
 73
   21
  0
VERTEX
  8
plate
 10
0.0
 20
0.0
 30
0.0
 70
   128
 71
   28
 72
   25
 73
   26
  0
VERTEX
  8
plate
 10
0.0
 20
0.0
 30
0.0
 70
   128
 71
   27
 72
   7
 73
   25
  0
VERTEX
  8
plate
 10
0.0
 20
0.0
 30
0.0
 70
   128
 71
   32
 72
   29
 73
   30
  0
VERTEX
  8
plate
 10
0.0
 20
0.0
 30
0.0
 70
   128
 71
   31
 72
   11
 73
   29
  0
VERTEX
  8
plate
 10
0.0
 20
0.0
 30
0.0
 70
   128
 71
   17
 72
   20
 73
   19
  0
VERTEX
  8
plate
 10
0.0
 20
0.0
 30
0.0
 70
   128
 71
   18
 72
   15
 73
   20
  0
VERTEX
  8
plate
 10
0.0
 20
0.0
 30
0.0
 70
   128
 71
   6
 72
   36
 73
   7
  0
VERTEX
  8
plate
 10
0.0
 20
0.0
 30
0.0
 70
   128
 71
   7
 72
   45
 73
   25
  0
VERTEX
  8
plate
 10
0.0
 20
0.0
 30
0.0
 70
   128
 71
   25
 72
   46
 73
   26
  0
VERTEX
  8
plate
 10
0.0
 20
0.0
 30
0.0
 70
   128
 71
   26
 72
   37
 73
   10
  0
VERTEX
  8
plate
 10
0.0
 20
0.0
 30
0.0
 70
   128
 71
   10
 72
   38
 73
   11
  0
VERTEX
  8
plate
 10
0.0
 20
0.0
 30
0.0
 70
   128
 71
   11
 72
   47
 73
   29
  0
VERTEX
  8
plate
 10
0.0
 20
0.0
 30
0.0
 70
   128
 71
   29
 72
   48
 73
   30
  0
VERTEX
  8
plate
 10
0.0
 20
0.0
 30
0.0
 70
   128
 71
   30
 72
   39
 73
   14
  0
VERTEX
  8
plate
 10
0.0
 20
0.0
 30
0.0
 70
   128
 71
   14
 72
   40
 73
   15
  0
VERTEX
  8
plate
 10
0.0
 20
0.0
 30
0.0
 70
   128
 71
   15
 72
   42
 73
   20
  0
VERTEX
  8
plate
 10
0.0
 20
0.0
 30
0.0
 70
   128
 71
   20
 72
   41
 73
   19
  0
VERTEX
  8
plate
 10
0.0
 20
0.0
 30
0.0
 70
   128
 71
   19
 72
   33
 73
   2
  0
VERTEX
  8
plate
 10
0.0
 20
0.0
 30
0.0
 70
   128
 71
   2
 72
   34
 73
   3
  0
VERTEX
  8
plate
 10
0.0
 20
0.0
 30
0.0
 70
   128
 71
   3
 72
   43
 73
   21
  0
VERTEX
  8
plate
 10
0.0
 20
0.0
 30
0.0
 70
   128
 71
   21
 72
   44
 73
   22
  0
VERTEX
  8
plate
 10
0.0
 20
0.0
 30
0.0
 70
   128
 71
   22
 72
   35
 73
   6
  0
VERTEX
  8
plate
 10
0.0
 20
0.0
 30
0.0
 70
   128
 71
   35
 72
   52
 73
   36
  0
VERTEX
  8
plate
 10
0.0
 20
0.0
 30
0.0
 70
   128
 71
   36
 72
   61
 73
   45
  0
VERTEX
  8
plate
 10
0.0
 20
0.0
 30
0.0
 70
   128
 71
   45
 72
   62
 73
   46
  0
VERTEX
  8
plate
 10
0.0
 20
0.0
 30
0.0
 70
   128
 71
   46
 72
   53
 73
   37
  0
VERTEX
  8
plate
 10
0.0
 20
0.0
 30
0.0
 70
   128
 71
   37
 72
   54
 73
   38
  0
VERTEX
  8
plate
 10
0.0
 20
0.0
 30
0.0
 70
   128
 71
   38
 72
   63
 73
   47
  0
VERTEX
  8
plate
 10
0.0
 20
0.0
 30
0.0
 70
   128
 71
   47
 72
   64
 73
   48
  0
VERTEX
  8
plate
 10
0.0
 20
0.0
 30
0.0
 70
   128
 71
   48
 72
   55
 73
   39
  0
VERTEX
  8
plate
 10
0.0
 20
0.0
 30
0.0
 70
   128
 71
   39
 72
   56
 73
   40
  0
VERTEX
  8
plate
 10
0.0
 20
0.0
 30
0.0
 70
   128
 71
   40
 72
   58
 73
   42
  0
VERTEX
  8
plate
 10
0.0
 20
0.0
 30
0.0
 70
   128
 71
   42
 72
   57
 73
   41
  0
VERTEX
  8
plate
 10
0.0
 20
0.0
 30
0.0
 70
   128
 71
   41
 72
   49
 73
   33
  0
VERTEX
  8
plate
 10
0.0
 20
0.0
 30
0.0
 70
   128
 71
   33
 72
   50
 73
   34
  0
VERTEX
  8
plate
 10
0.0
 20
0.0
 30
0.0
 70
   128
 71
   34
 72
   59
 73
   43
  0
VERTEX
  8
plate
 10
0.0
 20
0.0
 30
0.0
 70
   128
 71
   43
 72
   60
 73
   44
  0
VERTEX
  8
plate
 10
0.0
 20
0.0
 30
0.0
 70
   128
 71
   44
 72
   51
 73
   35
  0
SEQEND
  0
ENDSEC
  0
EOF
