999
FBX AutoCAD (*.DXF) exporter
  0
SECTION
  2
HEADER
  9
$ACADVER
  1
AC1008
  9
$UCSORG
 10
0.0
 20
0.0
 30
0.0
  9
$UCSXDIR
 10
1.0
 20
0.0
 30
0.0
  9
$TILEMODE
 70
   1
  9
$UCSYDIR
 10
0.0
 20
1.0
 30
0.0
  0
ENDSEC
  0
SECTION
  2
TABLES
  0
TABLE
  2
LTYPE
 70
   1
  0
LTYPE
  2
CONTINUOUS
 70
   64
  3
Solid line
 72
   65
 73
   0
 40
0.0
  0
ENDTAB
  0
TABLE
  2
LAYER
 70
   1
  0
LAYER
  2
chocolateCandyBar02
 70
   0
 62
   250
  6
CONTINUOUS
  0
ENDTAB
  0
ENDSEC
  0
SECTION
  2
BLOCKS
  0
ENDSEC
  0
SECTION
  2
ENTITIES
  0
POLYLINE
  8
chocolateCandyBar02
 66
   1
 10
0.0
 20
0.0
 30
0.0
 70
   64
 71
   40
 72
   76
  0
VERTEX
  8
chocolateCandyBar02
 10
59.784985
 20
1.726485
 30
1.827184
 70
   192
  0
VERTEX
  8
chocolateCandyBar02
 10
59.784985
 20
104.037051
 30
1.827184
 70
   192
  0
VERTEX
  8
chocolateCandyBar02
 10
59.784985
 20
1.726485
 30
-1.827184
 70
   192
  0
VERTEX
  8
chocolateCandyBar02
 10
59.784985
 20
104.037051
 30
-1.827184
 70
   192
  0
VERTEX
  8
chocolateCandyBar02
 10
-59.784985
 20
1.726485
 30
1.827184
 70
   192
  0
VERTEX
  8
chocolateCandyBar02
 10
-59.784985
 20
104.037051
 30
1.827184
 70
   192
  0
VERTEX
  8
chocolateCandyBar02
 10
-59.784985
 20
1.726485
 30
-1.827184
 70
   192
  0
VERTEX
  8
chocolateCandyBar02
 10
-59.784985
 20
104.037051
 30
-1.827184
 70
   192
  0
VERTEX
  8
chocolateCandyBar02
 10
66.480942
 20
0.000000
 30
1.827184
 70
   192
  0
VERTEX
  8
chocolateCandyBar02
 10
66.480942
 20
105.763536
 30
1.827184
 70
   192
  0
VERTEX
  8
chocolateCandyBar02
 10
66.480942
 20
0.000000
 30
-1.827184
 70
   192
  0
VERTEX
  8
chocolateCandyBar02
 10
66.480942
 20
105.763536
 30
-1.827184
 70
   192
  0
VERTEX
  8
chocolateCandyBar02
 10
-66.480942
 20
0.000000
 30
1.827184
 70
   192
  0
VERTEX
  8
chocolateCandyBar02
 10
-66.480942
 20
105.763536
 30
1.827184
 70
   192
  0
VERTEX
  8
chocolateCandyBar02
 10
-66.480942
 20
0.000000
 30
-1.827184
 70
   192
  0
VERTEX
  8
chocolateCandyBar02
 10
-66.480942
 20
105.763536
 30
-1.827184
 70
   192
  0
VERTEX
  8
chocolateCandyBar02
 10
78.255390
 20
0.000000
 30
1.827184
 70
   192
  0
VERTEX
  8
chocolateCandyBar02
 10
78.255390
 20
105.763536
 30
1.827184
 70
   192
  0
VERTEX
  8
chocolateCandyBar02
 10
78.255390
 20
0.000000
 30
-1.827184
 70
   192
  0
VERTEX
  8
chocolateCandyBar02
 10
78.255390
 20
105.763536
 30
-1.827184
 70
   192
  0
VERTEX
  8
chocolateCandyBar02
 10
-78.255390
 20
0.000000
 30
1.827184
 70
   192
  0
VERTEX
  8
chocolateCandyBar02
 10
-78.255390
 20
105.763536
 30
1.827184
 70
   192
  0
VERTEX
  8
chocolateCandyBar02
 10
-78.255390
 20
0.000000
 30
-1.827184
 70
   192
  0
VERTEX
  8
chocolateCandyBar02
 10
-78.255390
 20
105.763536
 30
-1.827184
 70
   192
  0
VERTEX
  8
chocolateCandyBar02
 10
-55.807443
 20
97.072177
 30
-18.271837
 70
   192
  0
VERTEX
  8
chocolateCandyBar02
 10
55.807443
 20
97.072177
 30
-18.271837
 70
   192
  0
VERTEX
  8
chocolateCandyBar02
 10
-55.807443
 20
1.726485
 30
-14.029001
 70
   192
  0
VERTEX
  8
chocolateCandyBar02
 10
-55.807443
 20
1.726485
 30
14.029001
 70
   192
  0
VERTEX
  8
chocolateCandyBar02
 10
55.807443
 20
1.726485
 30
14.029001
 70
   192
  0
VERTEX
  8
chocolateCandyBar02
 10
55.807443
 20
1.726485
 30
-14.029001
 70
   192
  0
VERTEX
  8
chocolateCandyBar02
 10
-55.807443
 20
8.691358
 30
18.271837
 70
   192
  0
VERTEX
  8
chocolateCandyBar02
 10
-55.807443
 20
97.072177
 30
18.271837
 70
   192
  0
VERTEX
  8
chocolateCandyBar02
 10
55.807443
 20
97.072177
 30
18.271837
 70
   192
  0
VERTEX
  8
chocolateCandyBar02
 10
55.807443
 20
8.691358
 30
18.271837
 70
   192
  0
VERTEX
  8
chocolateCandyBar02
 10
-55.807443
 20
8.691358
 30
-18.271837
 70
   192
  0
VERTEX
  8
chocolateCandyBar02
 10
-55.807443
 20
104.037051
 30
14.029001
 70
   192
  0
VERTEX
  8
chocolateCandyBar02
 10
-55.807443
 20
104.037051
 30
-14.029001
 70
   192
  0
VERTEX
  8
chocolateCandyBar02
 10
55.807443
 20
104.037051
 30
-14.029001
 70
   192
  0
VERTEX
  8
chocolateCandyBar02
 10
55.807443
 20
104.037051
 30
14.029001
 70
   192
  0
VERTEX
  8
chocolateCandyBar02
 10
55.807443
 20
8.691358
 30
-18.271837
 70
   192
  0
VERTEX
  8
chocolateCandyBar02
 10
0.0
 20
0.0
 30
0.0
 70
   128
 71
   31
 72
   32
 73
   33
  0
VERTEX
  8
chocolateCandyBar02
 10
0.0
 20
0.0
 30
0.0
 70
   128
 71
   17
 72
   18
 73
   20
  0
VERTEX
  8
chocolateCandyBar02
 10
0.0
 20
0.0
 30
0.0
 70
   128
 71
   40
 72
   26
 73
   25
  0
VERTEX
  8
chocolateCandyBar02
 10
0.0
 20
0.0
 30
0.0
 70
   128
 71
   23
 72
   24
 73
   22
  0
VERTEX
  8
chocolateCandyBar02
 10
0.0
 20
0.0
 30
0.0
 70
   128
 71
   36
 72
   37
 73
   38
  0
VERTEX
  8
chocolateCandyBar02
 10
0.0
 20
0.0
 30
0.0
 70
   128
 71
   27
 72
   28
 73
   29
  0
VERTEX
  8
chocolateCandyBar02
 10
0.0
 20
0.0
 30
0.0
 70
   128
 71
   29
 72
   1
 73
   3
  0
VERTEX
  8
chocolateCandyBar02
 10
0.0
 20
0.0
 30
0.0
 70
   128
 71
   4
 72
   38
 73
   26
  0
VERTEX
  8
chocolateCandyBar02
 10
0.0
 20
0.0
 30
0.0
 70
   128
 71
   38
 72
   4
 73
   2
  0
VERTEX
  8
chocolateCandyBar02
 10
0.0
 20
0.0
 30
0.0
 70
   128
 71
   33
 72
   39
 73
   2
  0
VERTEX
  8
chocolateCandyBar02
 10
0.0
 20
0.0
 30
0.0
 70
   128
 71
   32
 72
   36
 73
   39
  0
VERTEX
  8
chocolateCandyBar02
 10
0.0
 20
0.0
 30
0.0
 70
   128
 71
   31
 72
   28
 73
   5
  0
VERTEX
  8
chocolateCandyBar02
 10
0.0
 20
0.0
 30
0.0
 70
   128
 71
   25
 72
   37
 73
   8
  0
VERTEX
  8
chocolateCandyBar02
 10
0.0
 20
0.0
 30
0.0
 70
   128
 71
   7
 72
   27
 73
   35
  0
VERTEX
  8
chocolateCandyBar02
 10
0.0
 20
0.0
 30
0.0
 70
   128
 71
   1
 72
   9
 73
   11
  0
VERTEX
  8
chocolateCandyBar02
 10
0.0
 20
0.0
 30
0.0
 70
   128
 71
   3
 72
   11
 73
   12
  0
VERTEX
  8
chocolateCandyBar02
 10
0.0
 20
0.0
 30
0.0
 70
   128
 71
   4
 72
   12
 73
   10
  0
VERTEX
  8
chocolateCandyBar02
 10
0.0
 20
0.0
 30
0.0
 70
   128
 71
   2
 72
   10
 73
   9
  0
VERTEX
  8
chocolateCandyBar02
 10
0.0
 20
0.0
 30
0.0
 70
   128
 71
   7
 72
   15
 73
   13
  0
VERTEX
  8
chocolateCandyBar02
 10
0.0
 20
0.0
 30
0.0
 70
   128
 71
   5
 72
   13
 73
   14
  0
VERTEX
  8
chocolateCandyBar02
 10
0.0
 20
0.0
 30
0.0
 70
   128
 71
   6
 72
   14
 73
   16
  0
VERTEX
  8
chocolateCandyBar02
 10
0.0
 20
0.0
 30
0.0
 70
   128
 71
   8
 72
   16
 73
   15
  0
VERTEX
  8
chocolateCandyBar02
 10
0.0
 20
0.0
 30
0.0
 70
   128
 71
   9
 72
   17
 73
   19
  0
VERTEX
  8
chocolateCandyBar02
 10
0.0
 20
0.0
 30
0.0
 70
   128
 71
   11
 72
   19
 73
   20
  0
VERTEX
  8
chocolateCandyBar02
 10
0.0
 20
0.0
 30
0.0
 70
   128
 71
   12
 72
   20
 73
   18
  0
VERTEX
  8
chocolateCandyBar02
 10
0.0
 20
0.0
 30
0.0
 70
   128
 71
   10
 72
   18
 73
   17
  0
VERTEX
  8
chocolateCandyBar02
 10
0.0
 20
0.0
 30
0.0
 70
   128
 71
   15
 72
   23
 73
   21
  0
VERTEX
  8
chocolateCandyBar02
 10
0.0
 20
0.0
 30
0.0
 70
   128
 71
   13
 72
   21
 73
   22
  0
VERTEX
  8
chocolateCandyBar02
 10
0.0
 20
0.0
 30
0.0
 70
   128
 71
   14
 72
   22
 73
   24
  0
VERTEX
  8
chocolateCandyBar02
 10
0.0
 20
0.0
 30
0.0
 70
   128
 71
   16
 72
   24
 73
   23
  0
VERTEX
  8
chocolateCandyBar02
 10
0.0
 20
0.0
 30
0.0
 70
   128
 71
   28
 72
   31
 73
   34
  0
VERTEX
  8
chocolateCandyBar02
 10
0.0
 20
0.0
 30
0.0
 70
   128
 71
   37
 72
   25
 73
   26
  0
VERTEX
  8
chocolateCandyBar02
 10
0.0
 20
0.0
 30
0.0
 70
   128
 71
   4
 72
   26
 73
   40
  0
VERTEX
  8
chocolateCandyBar02
 10
0.0
 20
0.0
 30
0.0
 70
   128
 71
   40
 72
   30
 73
   3
  0
VERTEX
  8
chocolateCandyBar02
 10
0.0
 20
0.0
 30
0.0
 70
   128
 71
   36
 72
   6
 73
   8
  0
VERTEX
  8
chocolateCandyBar02
 10
0.0
 20
0.0
 30
0.0
 70
   128
 71
   35
 72
   25
 73
   8
  0
VERTEX
  8
chocolateCandyBar02
 10
0.0
 20
0.0
 30
0.0
 70
   128
 71
   1
 72
   29
 73
   34
  0
VERTEX
  8
chocolateCandyBar02
 10
0.0
 20
0.0
 30
0.0
 70
   128
 71
   34
 72
   33
 73
   2
  0
VERTEX
  8
chocolateCandyBar02
 10
0.0
 20
0.0
 30
0.0
 70
   128
 71
   35
 72
   27
 73
   30
  0
VERTEX
  8
chocolateCandyBar02
 10
0.0
 20
0.0
 30
0.0
 70
   128
 71
   27
 72
   7
 73
   5
  0
VERTEX
  8
chocolateCandyBar02
 10
0.0
 20
0.0
 30
0.0
 70
   128
 71
   6
 72
   32
 73
   31
  0
VERTEX
  8
chocolateCandyBar02
 10
0.0
 20
0.0
 30
0.0
 70
   128
 71
   6
 72
   36
 73
   32
  0
VERTEX
  8
chocolateCandyBar02
 10
0.0
 20
0.0
 30
0.0
 70
   128
 71
   31
 72
   33
 73
   34
  0
VERTEX
  8
chocolateCandyBar02
 10
0.0
 20
0.0
 30
0.0
 70
   128
 71
   17
 72
   20
 73
   19
  0
VERTEX
  8
chocolateCandyBar02
 10
0.0
 20
0.0
 30
0.0
 70
   128
 71
   40
 72
   25
 73
   35
  0
VERTEX
  8
chocolateCandyBar02
 10
0.0
 20
0.0
 30
0.0
 70
   128
 71
   23
 72
   22
 73
   21
  0
VERTEX
  8
chocolateCandyBar02
 10
0.0
 20
0.0
 30
0.0
 70
   128
 71
   36
 72
   38
 73
   39
  0
VERTEX
  8
chocolateCandyBar02
 10
0.0
 20
0.0
 30
0.0
 70
   128
 71
   27
 72
   29
 73
   30
  0
VERTEX
  8
chocolateCandyBar02
 10
0.0
 20
0.0
 30
0.0
 70
   128
 71
   29
 72
   3
 73
   30
  0
VERTEX
  8
chocolateCandyBar02
 10
0.0
 20
0.0
 30
0.0
 70
   128
 71
   38
 72
   2
 73
   39
  0
VERTEX
  8
chocolateCandyBar02
 10
0.0
 20
0.0
 30
0.0
 70
   128
 71
   32
 72
   39
 73
   33
  0
VERTEX
  8
chocolateCandyBar02
 10
0.0
 20
0.0
 30
0.0
 70
   128
 71
   1
 72
   11
 73
   3
  0
VERTEX
  8
chocolateCandyBar02
 10
0.0
 20
0.0
 30
0.0
 70
   128
 71
   3
 72
   12
 73
   4
  0
VERTEX
  8
chocolateCandyBar02
 10
0.0
 20
0.0
 30
0.0
 70
   128
 71
   4
 72
   10
 73
   2
  0
VERTEX
  8
chocolateCandyBar02
 10
0.0
 20
0.0
 30
0.0
 70
   128
 71
   2
 72
   9
 73
   1
  0
VERTEX
  8
chocolateCandyBar02
 10
0.0
 20
0.0
 30
0.0
 70
   128
 71
   7
 72
   13
 73
   5
  0
VERTEX
  8
chocolateCandyBar02
 10
0.0
 20
0.0
 30
0.0
 70
   128
 71
   5
 72
   14
 73
   6
  0
VERTEX
  8
chocolateCandyBar02
 10
0.0
 20
0.0
 30
0.0
 70
   128
 71
   6
 72
   16
 73
   8
  0
VERTEX
  8
chocolateCandyBar02
 10
0.0
 20
0.0
 30
0.0
 70
   128
 71
   8
 72
   15
 73
   7
  0
VERTEX
  8
chocolateCandyBar02
 10
0.0
 20
0.0
 30
0.0
 70
   128
 71
   9
 72
   19
 73
   11
  0
VERTEX
  8
chocolateCandyBar02
 10
0.0
 20
0.0
 30
0.0
 70
   128
 71
   11
 72
   20
 73
   12
  0
VERTEX
  8
chocolateCandyBar02
 10
0.0
 20
0.0
 30
0.0
 70
   128
 71
   12
 72
   18
 73
   10
  0
VERTEX
  8
chocolateCandyBar02
 10
0.0
 20
0.0
 30
0.0
 70
   128
 71
   10
 72
   17
 73
   9
  0
VERTEX
  8
chocolateCandyBar02
 10
0.0
 20
0.0
 30
0.0
 70
   128
 71
   15
 72
   21
 73
   13
  0
VERTEX
  8
chocolateCandyBar02
 10
0.0
 20
0.0
 30
0.0
 70
   128
 71
   13
 72
   22
 73
   14
  0
VERTEX
  8
chocolateCandyBar02
 10
0.0
 20
0.0
 30
0.0
 70
   128
 71
   14
 72
   24
 73
   16
  0
VERTEX
  8
chocolateCandyBar02
 10
0.0
 20
0.0
 30
0.0
 70
   128
 71
   16
 72
   23
 73
   15
  0
VERTEX
  8
chocolateCandyBar02
 10
0.0
 20
0.0
 30
0.0
 70
   128
 71
   28
 72
   34
 73
   29
  0
VERTEX
  8
chocolateCandyBar02
 10
0.0
 20
0.0
 30
0.0
 70
   128
 71
   37
 72
   26
 73
   38
  0
VERTEX
  8
chocolateCandyBar02
 10
0.0
 20
0.0
 30
0.0
 70
   128
 71
   4
 72
   40
 73
   3
  0
VERTEX
  8
chocolateCandyBar02
 10
0.0
 20
0.0
 30
0.0
 70
   128
 71
   36
 72
   8
 73
   37
  0
VERTEX
  8
chocolateCandyBar02
 10
0.0
 20
0.0
 30
0.0
 70
   128
 71
   35
 72
   8
 73
   7
  0
VERTEX
  8
chocolateCandyBar02
 10
0.0
 20
0.0
 30
0.0
 70
   128
 71
   34
 72
   2
 73
   1
  0
VERTEX
  8
chocolateCandyBar02
 10
0.0
 20
0.0
 30
0.0
 70
   128
 71
   35
 72
   30
 73
   40
  0
VERTEX
  8
chocolateCandyBar02
 10
0.0
 20
0.0
 30
0.0
 70
   128
 71
   27
 72
   5
 73
   28
  0
VERTEX
  8
chocolateCandyBar02
 10
0.0
 20
0.0
 30
0.0
 70
   128
 71
   6
 72
   31
 73
   5
  0
SEQEND
  0
ENDSEC
  0
EOF
