999
FBX AutoCAD (*.DXF) exporter
  0
SECTION
  2
HEADER
  9
$ACADVER
  1
AC1008
  9
$UCSORG
 10
0.0
 20
0.0
 30
0.0
  9
$UCSXDIR
 10
1.0
 20
0.0
 30
0.0
  9
$TILEMODE
 70
   1
  9
$UCSYDIR
 10
0.0
 20
1.0
 30
0.0
  0
ENDSEC
  0
SECTION
  2
TABLES
  0
TABLE
  2
LTYPE
 70
   1
  0
LTYPE
  2
CONTINUOUS
 70
   64
  3
Solid line
 72
   65
 73
   0
 40
0.0
  0
ENDTAB
  0
TABLE
  2
LAYER
 70
   1
  0
LAYER
  2
spoon
 70
   0
 62
   250
  6
CONTINUOUS
  0
ENDTAB
  0
ENDSEC
  0
SECTION
  2
BLOCKS
  0
ENDSEC
  0
SECTION
  2
ENTITIES
  0
POLYLINE
  8
spoon
 66
   1
 10
0.0
 20
0.0
 30
0.0
 70
   64
 71
   128
 72
   140
  0
VERTEX
  8
spoon
 10
5.821229
 20
12.795351
 30
-93.014815
 70
   192
  0
VERTEX
  8
spoon
 10
18.294211
 20
0.000000
 30
-36.723652
 70
   192
  0
VERTEX
  8
spoon
 10
15.785715
 20
0.000000
 30
-32.769245
 70
   192
  0
VERTEX
  8
spoon
 10
10.141039
 20
0.000000
 30
-29.727393
 70
   192
  0
VERTEX
  8
spoon
 10
4.665705
 20
0.000000
 30
-27.902282
 70
   192
  0
VERTEX
  8
spoon
 10
8.620113
 20
4.160976
 30
72.313878
 70
   192
  0
VERTEX
  8
spoon
 10
9.228483
 20
2.205499
 30
83.714636
 70
   192
  0
VERTEX
  8
spoon
 10
3.144779
 20
1.014584
 30
89.370125
 70
   192
  0
VERTEX
  8
spoon
 10
-4.155665
 20
1.014584
 30
89.370125
 70
   192
  0
VERTEX
  8
spoon
 10
-8.414258
 20
2.017460
 30
84.607608
 70
   192
  0
VERTEX
  8
spoon
 10
-8.718443
 20
4.286336
 30
71.718563
 70
   192
  0
VERTEX
  8
spoon
 10
-4.764035
 20
0.000000
 30
-27.598097
 70
   192
  0
VERTEX
  8
spoon
 10
-11.151924
 20
0.000000
 30
-28.814838
 70
   192
  0
VERTEX
  8
spoon
 10
-16.824731
 20
0.000000
 30
-32.769245
 70
   192
  0
VERTEX
  8
spoon
 10
-18.392541
 20
0.000000
 30
-38.244578
 70
   192
  0
VERTEX
  8
spoon
 10
-5.920910
 20
12.795351
 30
-93.014815
 70
   192
  0
VERTEX
  8
spoon
 10
5.821229
 20
17.540000
 30
-93.014815
 70
   192
  0
VERTEX
  8
spoon
 10
18.294211
 20
8.427791
 30
-36.723652
 70
   192
  0
VERTEX
  8
spoon
 10
15.785715
 20
8.427791
 30
-32.769245
 70
   192
  0
VERTEX
  8
spoon
 10
10.141039
 20
8.427791
 30
-29.727393
 70
   192
  0
VERTEX
  8
spoon
 10
4.665705
 20
8.427791
 30
-27.902282
 70
   192
  0
VERTEX
  8
spoon
 10
8.620113
 20
9.671183
 30
73.474200
 70
   192
  0
VERTEX
  8
spoon
 10
9.228483
 20
7.268105
 30
84.780703
 70
   192
  0
VERTEX
  8
spoon
 10
3.144779
 20
6.077190
 30
90.436192
 70
   192
  0
VERTEX
  8
spoon
 10
-4.155665
 20
6.077190
 30
90.436192
 70
   192
  0
VERTEX
  8
spoon
 10
-8.414258
 20
7.080066
 30
85.673675
 70
   192
  0
VERTEX
  8
spoon
 10
-8.718443
 20
9.796543
 30
72.878885
 70
   192
  0
VERTEX
  8
spoon
 10
-4.764035
 20
8.427791
 30
-27.598097
 70
   192
  0
VERTEX
  8
spoon
 10
-11.151924
 20
8.427791
 30
-28.814838
 70
   192
  0
VERTEX
  8
spoon
 10
-16.824731
 20
8.427791
 30
-32.769245
 70
   192
  0
VERTEX
  8
spoon
 10
-18.392541
 20
8.427791
 30
-38.244578
 70
   192
  0
VERTEX
  8
spoon
 10
-5.920910
 20
17.540000
 30
-93.014815
 70
   192
  0
VERTEX
  8
spoon
 10
5.821229
 20
12.795351
 30
-93.014815
 70
   192
  0
VERTEX
  8
spoon
 10
18.294211
 20
0.000000
 30
-36.723652
 70
   192
  0
VERTEX
  8
spoon
 10
15.785715
 20
0.000000
 30
-32.769245
 70
   192
  0
VERTEX
  8
spoon
 10
10.141039
 20
0.000000
 30
-29.727393
 70
   192
  0
VERTEX
  8
spoon
 10
4.665705
 20
0.000000
 30
-27.902282
 70
   192
  0
VERTEX
  8
spoon
 10
8.620113
 20
4.160976
 30
72.313878
 70
   192
  0
VERTEX
  8
spoon
 10
9.228483
 20
2.205499
 30
83.714636
 70
   192
  0
VERTEX
  8
spoon
 10
3.144779
 20
1.014584
 30
89.370125
 70
   192
  0
VERTEX
  8
spoon
 10
-4.155665
 20
1.014584
 30
89.370125
 70
   192
  0
VERTEX
  8
spoon
 10
-8.414258
 20
2.017460
 30
84.607608
 70
   192
  0
VERTEX
  8
spoon
 10
-8.718443
 20
4.286336
 30
71.718563
 70
   192
  0
VERTEX
  8
spoon
 10
-4.764035
 20
0.000000
 30
-27.598097
 70
   192
  0
VERTEX
  8
spoon
 10
-11.151924
 20
0.000000
 30
-28.814838
 70
   192
  0
VERTEX
  8
spoon
 10
-16.824731
 20
0.000000
 30
-32.769245
 70
   192
  0
VERTEX
  8
spoon
 10
-18.392541
 20
0.000000
 30
-38.244578
 70
   192
  0
VERTEX
  8
spoon
 10
-5.920910
 20
12.795351
 30
-93.014815
 70
   192
  0
VERTEX
  8
spoon
 10
5.821229
 20
17.540000
 30
-93.014815
 70
   192
  0
VERTEX
  8
spoon
 10
18.294211
 20
8.427791
 30
-36.723652
 70
   192
  0
VERTEX
  8
spoon
 10
15.785715
 20
8.427791
 30
-32.769245
 70
   192
  0
VERTEX
  8
spoon
 10
10.141039
 20
8.427791
 30
-29.727393
 70
   192
  0
VERTEX
  8
spoon
 10
4.665705
 20
8.427791
 30
-27.902282
 70
   192
  0
VERTEX
  8
spoon
 10
8.620113
 20
9.671183
 30
73.474200
 70
   192
  0
VERTEX
  8
spoon
 10
9.228483
 20
7.268105
 30
84.780703
 70
   192
  0
VERTEX
  8
spoon
 10
3.144779
 20
6.077190
 30
90.436192
 70
   192
  0
VERTEX
  8
spoon
 10
-4.155665
 20
6.077190
 30
90.436192
 70
   192
  0
VERTEX
  8
spoon
 10
-8.414258
 20
7.080066
 30
85.673675
 70
   192
  0
VERTEX
  8
spoon
 10
-8.718443
 20
9.796543
 30
72.878885
 70
   192
  0
VERTEX
  8
spoon
 10
-4.764035
 20
8.427791
 30
-27.598097
 70
   192
  0
VERTEX
  8
spoon
 10
-11.151924
 20
8.427791
 30
-28.814838
 70
   192
  0
VERTEX
  8
spoon
 10
-16.824731
 20
8.427791
 30
-32.769245
 70
   192
  0
VERTEX
  8
spoon
 10
-18.392541
 20
8.427791
 30
-38.244578
 70
   192
  0
VERTEX
  8
spoon
 10
-5.920910
 20
17.540000
 30
-93.014815
 70
   192
  0
VERTEX
  8
spoon
 10
16.221757
 20
6.953995
 30
-77.983795
 70
   192
  0
VERTEX
  8
spoon
 10
-16.344295
 20
6.953995
 30
-77.983795
 70
   192
  0
VERTEX
  8
spoon
 10
16.221757
 20
12.811283
 30
-77.983795
 70
   192
  0
VERTEX
  8
spoon
 10
-16.344295
 20
12.811283
 30
-77.983795
 70
   192
  0
VERTEX
  8
spoon
 10
16.221757
 20
6.953995
 30
-77.983795
 70
   192
  0
VERTEX
  8
spoon
 10
-16.344295
 20
6.953995
 30
-77.983795
 70
   192
  0
VERTEX
  8
spoon
 10
16.221757
 20
12.811283
 30
-77.983795
 70
   192
  0
VERTEX
  8
spoon
 10
-16.344295
 20
12.811283
 30
-77.983795
 70
   192
  0
VERTEX
  8
spoon
 10
21.081498
 20
1.390799
 30
-57.678129
 70
   192
  0
VERTEX
  8
spoon
 10
-21.231725
 20
1.390799
 30
-57.678129
 70
   192
  0
VERTEX
  8
spoon
 10
21.081498
 20
8.082566
 30
-57.678129
 70
   192
  0
VERTEX
  8
spoon
 10
-21.231725
 20
8.082566
 30
-57.678129
 70
   192
  0
VERTEX
  8
spoon
 10
21.081498
 20
1.390799
 30
-57.678129
 70
   192
  0
VERTEX
  8
spoon
 10
-21.231725
 20
1.390799
 30
-57.678129
 70
   192
  0
VERTEX
  8
spoon
 10
21.081498
 20
8.082566
 30
-57.678129
 70
   192
  0
VERTEX
  8
spoon
 10
-21.231725
 20
8.082566
 30
-57.678129
 70
   192
  0
VERTEX
  8
spoon
 10
5.057144
 20
3.819437
 30
-17.995880
 70
   192
  0
VERTEX
  8
spoon
 10
-5.146946
 20
3.819437
 30
-17.995880
 70
   192
  0
VERTEX
  8
spoon
 10
5.057144
 20
11.105490
 30
-17.995880
 70
   192
  0
VERTEX
  8
spoon
 10
-5.146946
 20
11.085839
 30
-17.995880
 70
   192
  0
VERTEX
  8
spoon
 10
5.057144
 20
3.819437
 30
-17.995880
 70
   192
  0
VERTEX
  8
spoon
 10
-5.146946
 20
3.819437
 30
-17.995880
 70
   192
  0
VERTEX
  8
spoon
 10
5.057144
 20
11.105490
 30
-17.995880
 70
   192
  0
VERTEX
  8
spoon
 10
-5.147056
 20
11.086091
 30
-17.993129
 70
   192
  0
VERTEX
  8
spoon
 10
5.974187
 20
8.685871
 30
5.212360
 70
   192
  0
VERTEX
  8
spoon
 10
-6.072428
 20
8.674321
 30
5.212360
 70
   192
  0
VERTEX
  8
spoon
 10
5.974187
 20
14.151793
 30
5.212360
 70
   192
  0
VERTEX
  8
spoon
 10
-6.072428
 20
14.140039
 30
5.212360
 70
   192
  0
VERTEX
  8
spoon
 10
5.974164
 20
8.685913
 30
5.211776
 70
   192
  0
VERTEX
  8
spoon
 10
-6.072428
 20
8.674321
 30
5.212360
 70
   192
  0
VERTEX
  8
spoon
 10
5.974187
 20
14.151793
 30
5.212360
 70
   192
  0
VERTEX
  8
spoon
 10
-6.072433
 20
14.140192
 30
5.212502
 70
   192
  0
VERTEX
  8
spoon
 10
7.228502
 20
10.335518
 30
36.680196
 70
   192
  0
VERTEX
  8
spoon
 10
-7.338286
 20
10.323109
 30
36.680196
 70
   192
  0
VERTEX
  8
spoon
 10
7.228502
 20
15.459543
 30
36.680196
 70
   192
  0
VERTEX
  8
spoon
 10
-7.338286
 20
15.460341
 30
36.680196
 70
   192
  0
VERTEX
  8
spoon
 10
7.228502
 20
10.335534
 30
36.680198
 70
   192
  0
VERTEX
  8
spoon
 10
-7.338286
 20
10.323109
 30
36.680196
 70
   192
  0
VERTEX
  8
spoon
 10
7.228502
 20
15.459543
 30
36.680196
 70
   192
  0
VERTEX
  8
spoon
 10
-7.338287
 20
15.460419
 30
36.680211
 70
   192
  0
VERTEX
  8
spoon
 10
8.062773
 20
7.100099
 30
58.518472
 70
   192
  0
VERTEX
  8
spoon
 10
-8.180234
 20
7.087398
 30
58.515798
 70
   192
  0
VERTEX
  8
spoon
 10
8.062773
 20
12.249018
 30
59.602715
 70
   192
  0
VERTEX
  8
spoon
 10
-8.180234
 20
12.257969
 30
59.604600
 70
   192
  0
VERTEX
  8
spoon
 10
8.062773
 20
7.100106
 30
58.518470
 70
   192
  0
VERTEX
  8
spoon
 10
-8.180234
 20
7.087398
 30
58.515798
 70
   192
  0
VERTEX
  8
spoon
 10
8.062773
 20
12.249018
 30
59.602715
 70
   192
  0
VERTEX
  8
spoon
 10
-8.180233
 20
12.258004
 30
59.604576
 70
   192
  0
VERTEX
  8
spoon
 10
4.122258
 20
15.961338
 30
-89.813170
 70
   192
  0
VERTEX
  8
spoon
 10
15.256086
 20
7.041401
 30
-37.982904
 70
   192
  0
VERTEX
  8
spoon
 10
13.562258
 20
6.878727
 30
-35.315313
 70
   192
  0
VERTEX
  8
spoon
 10
8.884241
 20
6.755258
 30
-32.796775
 70
   192
  0
VERTEX
  8
spoon
 10
1.417983
 20
6.665277
 30
-30.310335
 70
   192
  0
VERTEX
  8
spoon
 10
-1.502008
 20
6.658678
 30
-30.353400
 70
   192
  0
VERTEX
  8
spoon
 10
-9.899821
 20
6.717164
 30
-31.951497
 70
   192
  0
VERTEX
  8
spoon
 10
-14.098831
 20
6.872581
 30
-34.875744
 70
   192
  0
VERTEX
  8
spoon
 10
-15.299055
 20
7.101857
 30
-39.063280
 70
   192
  0
VERTEX
  8
spoon
 10
-4.223994
 20
15.961354
 30
-89.813163
 70
   192
  0
VERTEX
  8
spoon
 10
13.274556
 20
12.044110
 30
-76.732096
 70
   192
  0
VERTEX
  8
spoon
 10
-13.398589
 20
12.043501
 30
-76.728848
 70
   192
  0
VERTEX
  8
spoon
 10
17.876315
 20
7.585546
 30
-57.678162
 70
   192
  0
VERTEX
  8
spoon
 10
-18.021508
 20
7.586995
 30
-57.696522
 70
   192
  0
VERTEX
  8
spoon
 10
1.773699
 20
8.422076
 30
-21.229389
 70
   192
  0
VERTEX
  8
spoon
 10
-1.862723
 20
8.407340
 30
-21.228668
 70
   192
  0
VERTEX
  8
spoon
 10
0.0
 20
0.0
 30
0.0
 70
   128
 71
   1
 72
   65
 73
   67
  0
VERTEX
  8
spoon
 10
0.0
 20
0.0
 30
0.0
 70
   128
 71
   2
 72
   3
 73
   19
  0
VERTEX
  8
spoon
 10
0.0
 20
0.0
 30
0.0
 70
   128
 71
   3
 72
   4
 73
   20
  0
VERTEX
  8
spoon
 10
0.0
 20
0.0
 30
0.0
 70
   128
 71
   4
 72
   5
 73
   21
  0
VERTEX
  8
spoon
 10
0.0
 20
0.0
 30
0.0
 70
   128
 71
   5
 72
   81
 73
   83
  0
VERTEX
  8
spoon
 10
0.0
 20
0.0
 30
0.0
 70
   128
 71
   6
 72
   7
 73
   23
  0
VERTEX
  8
spoon
 10
0.0
 20
0.0
 30
0.0
 70
   128
 71
   7
 72
   8
 73
   24
  0
VERTEX
  8
spoon
 10
0.0
 20
0.0
 30
0.0
 70
   128
 71
   8
 72
   9
 73
   25
  0
VERTEX
  8
spoon
 10
0.0
 20
0.0
 30
0.0
 70
   128
 71
   9
 72
   10
 73
   26
  0
VERTEX
  8
spoon
 10
0.0
 20
0.0
 30
0.0
 70
   128
 71
   10
 72
   11
 73
   27
  0
VERTEX
  8
spoon
 10
0.0
 20
0.0
 30
0.0
 70
   128
 71
   11
 72
   106
 73
   108
  0
VERTEX
  8
spoon
 10
0.0
 20
0.0
 30
0.0
 70
   128
 71
   12
 72
   13
 73
   29
  0
VERTEX
  8
spoon
 10
0.0
 20
0.0
 30
0.0
 70
   128
 71
   13
 72
   14
 73
   30
  0
VERTEX
  8
spoon
 10
0.0
 20
0.0
 30
0.0
 70
   128
 71
   14
 72
   15
 73
   31
  0
VERTEX
  8
spoon
 10
0.0
 20
0.0
 30
0.0
 70
   128
 71
   15
 72
   74
 73
   76
  0
VERTEX
  8
spoon
 10
0.0
 20
0.0
 30
0.0
 70
   128
 71
   16
 72
   1
 73
   17
  0
VERTEX
  8
spoon
 10
0.0
 20
0.0
 30
0.0
 70
   128
 71
   33
 72
   48
 73
   70
  0
VERTEX
  8
spoon
 10
0.0
 20
0.0
 30
0.0
 70
   128
 71
   65
 72
   73
 73
   75
  0
VERTEX
  8
spoon
 10
0.0
 20
0.0
 30
0.0
 70
   128
 71
   66
 72
   16
 73
   32
  0
VERTEX
  8
spoon
 10
0.0
 20
0.0
 30
0.0
 70
   128
 71
   74
 72
   66
 73
   68
  0
VERTEX
  8
spoon
 10
0.0
 20
0.0
 30
0.0
 70
   128
 71
   73
 72
   2
 73
   18
  0
VERTEX
  8
spoon
 10
0.0
 20
0.0
 30
0.0
 70
   128
 71
   70
 72
   78
 73
   77
  0
VERTEX
  8
spoon
 10
0.0
 20
0.0
 30
0.0
 70
   128
 71
   86
 72
   94
 73
   93
  0
VERTEX
  8
spoon
 10
0.0
 20
0.0
 30
0.0
 70
   128
 71
   90
 72
   82
 73
   84
  0
VERTEX
  8
spoon
 10
0.0
 20
0.0
 30
0.0
 70
   128
 71
   89
 72
   97
 73
   99
  0
VERTEX
  8
spoon
 10
0.0
 20
0.0
 30
0.0
 70
   128
 71
   81
 72
   89
 73
   91
  0
VERTEX
  8
spoon
 10
0.0
 20
0.0
 30
0.0
 70
   128
 71
   82
 72
   12
 73
   28
  0
VERTEX
  8
spoon
 10
0.0
 20
0.0
 30
0.0
 70
   128
 71
   123
 72
   125
 73
   126
  0
VERTEX
  8
spoon
 10
0.0
 20
0.0
 30
0.0
 70
   128
 71
   85
 72
   37
 73
   44
  0
VERTEX
  8
spoon
 10
0.0
 20
0.0
 30
0.0
 70
   128
 71
   77
 72
   37
 73
   36
  0
VERTEX
  8
spoon
 10
0.0
 20
0.0
 30
0.0
 70
   128
 71
   113
 72
   123
 73
   124
  0
VERTEX
  8
spoon
 10
0.0
 20
0.0
 30
0.0
 70
   128
 71
   37
 72
   77
 73
   78
  0
VERTEX
  8
spoon
 10
0.0
 20
0.0
 30
0.0
 70
   128
 71
   98
 72
   90
 73
   92
  0
VERTEX
  8
spoon
 10
0.0
 20
0.0
 30
0.0
 70
   128
 71
   44
 72
   37
 73
   47
  0
VERTEX
  8
spoon
 10
0.0
 20
0.0
 30
0.0
 70
   128
 71
   87
 72
   95
 73
   96
  0
VERTEX
  8
spoon
 10
0.0
 20
0.0
 30
0.0
 70
   128
 71
   97
 72
   105
 73
   107
  0
VERTEX
  8
spoon
 10
0.0
 20
0.0
 30
0.0
 70
   128
 71
   36
 72
   35
 73
   34
  0
VERTEX
  8
spoon
 10
0.0
 20
0.0
 30
0.0
 70
   128
 71
   47
 72
   46
 73
   45
  0
VERTEX
  8
spoon
 10
0.0
 20
0.0
 30
0.0
 70
   128
 71
   128
 72
   118
 73
   117
  0
VERTEX
  8
spoon
 10
0.0
 20
0.0
 30
0.0
 70
   128
 71
   121
 72
   118
 73
   119
  0
VERTEX
  8
spoon
 10
0.0
 20
0.0
 30
0.0
 70
   128
 71
   116
 72
   118
 73
   121
  0
VERTEX
  8
spoon
 10
0.0
 20
0.0
 30
0.0
 70
   128
 71
   118
 72
   116
 73
   117
  0
VERTEX
  8
spoon
 10
0.0
 20
0.0
 30
0.0
 70
   128
 71
   121
 72
   126
 73
   125
  0
VERTEX
  8
spoon
 10
0.0
 20
0.0
 30
0.0
 70
   128
 71
   114
 72
   115
 73
   116
  0
VERTEX
  8
spoon
 10
0.0
 20
0.0
 30
0.0
 70
   128
 71
   94
 72
   102
 73
   101
  0
VERTEX
  8
spoon
 10
0.0
 20
0.0
 30
0.0
 70
   128
 71
   106
 72
   98
 73
   100
  0
VERTEX
  8
spoon
 10
0.0
 20
0.0
 30
0.0
 70
   128
 71
   95
 72
   103
 73
   104
  0
VERTEX
  8
spoon
 10
0.0
 20
0.0
 30
0.0
 70
   128
 71
   105
 72
   6
 73
   22
  0
VERTEX
  8
spoon
 10
0.0
 20
0.0
 30
0.0
 70
   128
 71
   102
 72
   110
 73
   109
  0
VERTEX
  8
spoon
 10
0.0
 20
0.0
 30
0.0
 70
   128
 71
   38
 72
   43
 73
   42
  0
VERTEX
  8
spoon
 10
0.0
 20
0.0
 30
0.0
 70
   128
 71
   103
 72
   111
 73
   112
  0
VERTEX
  8
spoon
 10
0.0
 20
0.0
 30
0.0
 70
   128
 71
   42
 72
   41
 73
   40
  0
VERTEX
  8
spoon
 10
0.0
 20
0.0
 30
0.0
 70
   128
 71
   109
 72
   110
 73
   43
  0
VERTEX
  8
spoon
 10
0.0
 20
0.0
 30
0.0
 70
   128
 71
   58
 72
   55
 73
   56
  0
VERTEX
  8
spoon
 10
0.0
 20
0.0
 30
0.0
 70
   128
 71
   111
 72
   54
 73
   59
  0
VERTEX
  8
spoon
 10
0.0
 20
0.0
 30
0.0
 70
   128
 71
   54
 72
   55
 73
   58
  0
VERTEX
  8
spoon
 10
0.0
 20
0.0
 30
0.0
 70
   128
 71
   88
 72
   128
 73
   127
  0
VERTEX
  8
spoon
 10
0.0
 20
0.0
 30
0.0
 70
   128
 71
   87
 72
   127
 73
   117
  0
VERTEX
  8
spoon
 10
0.0
 20
0.0
 30
0.0
 70
   128
 71
   53
 72
   117
 73
   116
  0
VERTEX
  8
spoon
 10
0.0
 20
0.0
 30
0.0
 70
   128
 71
   52
 72
   116
 73
   115
  0
VERTEX
  8
spoon
 10
0.0
 20
0.0
 30
0.0
 70
   128
 71
   51
 72
   115
 73
   114
  0
VERTEX
  8
spoon
 10
0.0
 20
0.0
 30
0.0
 70
   128
 71
   50
 72
   114
 73
   125
  0
VERTEX
  8
spoon
 10
0.0
 20
0.0
 30
0.0
 70
   128
 71
   80
 72
   126
 73
   121
  0
VERTEX
  8
spoon
 10
0.0
 20
0.0
 30
0.0
 70
   128
 71
   63
 72
   121
 73
   120
  0
VERTEX
  8
spoon
 10
0.0
 20
0.0
 30
0.0
 70
   128
 71
   62
 72
   120
 73
   119
  0
VERTEX
  8
spoon
 10
0.0
 20
0.0
 30
0.0
 70
   128
 71
   61
 72
   119
 73
   118
  0
VERTEX
  8
spoon
 10
0.0
 20
0.0
 30
0.0
 70
   128
 71
   60
 72
   118
 73
   128
  0
VERTEX
  8
spoon
 10
0.0
 20
0.0
 30
0.0
 70
   128
 71
   72
 72
   124
 73
   126
  0
VERTEX
  8
spoon
 10
0.0
 20
0.0
 30
0.0
 70
   128
 71
   79
 72
   125
 73
   123
  0
VERTEX
  8
spoon
 10
0.0
 20
0.0
 30
0.0
 70
   128
 71
   49
 72
   113
 73
   122
  0
VERTEX
  8
spoon
 10
0.0
 20
0.0
 30
0.0
 70
   128
 71
   64
 72
   122
 73
   124
  0
VERTEX
  8
spoon
 10
0.0
 20
0.0
 30
0.0
 70
   128
 71
   71
 72
   123
 73
   113
  0
VERTEX
  8
spoon
 10
0.0
 20
0.0
 30
0.0
 70
   128
 71
   1
 72
   67
 73
   17
  0
VERTEX
  8
spoon
 10
0.0
 20
0.0
 30
0.0
 70
   128
 71
   2
 72
   19
 73
   18
  0
VERTEX
  8
spoon
 10
0.0
 20
0.0
 30
0.0
 70
   128
 71
   3
 72
   20
 73
   19
  0
VERTEX
  8
spoon
 10
0.0
 20
0.0
 30
0.0
 70
   128
 71
   4
 72
   21
 73
   20
  0
VERTEX
  8
spoon
 10
0.0
 20
0.0
 30
0.0
 70
   128
 71
   5
 72
   83
 73
   21
  0
VERTEX
  8
spoon
 10
0.0
 20
0.0
 30
0.0
 70
   128
 71
   6
 72
   23
 73
   22
  0
VERTEX
  8
spoon
 10
0.0
 20
0.0
 30
0.0
 70
   128
 71
   7
 72
   24
 73
   23
  0
VERTEX
  8
spoon
 10
0.0
 20
0.0
 30
0.0
 70
   128
 71
   8
 72
   25
 73
   24
  0
VERTEX
  8
spoon
 10
0.0
 20
0.0
 30
0.0
 70
   128
 71
   9
 72
   26
 73
   25
  0
VERTEX
  8
spoon
 10
0.0
 20
0.0
 30
0.0
 70
   128
 71
   10
 72
   27
 73
   26
  0
VERTEX
  8
spoon
 10
0.0
 20
0.0
 30
0.0
 70
   128
 71
   11
 72
   108
 73
   27
  0
VERTEX
  8
spoon
 10
0.0
 20
0.0
 30
0.0
 70
   128
 71
   12
 72
   29
 73
   28
  0
VERTEX
  8
spoon
 10
0.0
 20
0.0
 30
0.0
 70
   128
 71
   13
 72
   30
 73
   29
  0
VERTEX
  8
spoon
 10
0.0
 20
0.0
 30
0.0
 70
   128
 71
   14
 72
   31
 73
   30
  0
VERTEX
  8
spoon
 10
0.0
 20
0.0
 30
0.0
 70
   128
 71
   15
 72
   76
 73
   31
  0
VERTEX
  8
spoon
 10
0.0
 20
0.0
 30
0.0
 70
   128
 71
   16
 72
   17
 73
   32
  0
VERTEX
  8
spoon
 10
0.0
 20
0.0
 30
0.0
 70
   128
 71
   33
 72
   70
 73
   69
  0
VERTEX
  8
spoon
 10
0.0
 20
0.0
 30
0.0
 70
   128
 71
   65
 72
   75
 73
   67
  0
VERTEX
  8
spoon
 10
0.0
 20
0.0
 30
0.0
 70
   128
 71
   66
 72
   32
 73
   68
  0
VERTEX
  8
spoon
 10
0.0
 20
0.0
 30
0.0
 70
   128
 71
   74
 72
   68
 73
   76
  0
VERTEX
  8
spoon
 10
0.0
 20
0.0
 30
0.0
 70
   128
 71
   73
 72
   18
 73
   75
  0
VERTEX
  8
spoon
 10
0.0
 20
0.0
 30
0.0
 70
   128
 71
   70
 72
   77
 73
   69
  0
VERTEX
  8
spoon
 10
0.0
 20
0.0
 30
0.0
 70
   128
 71
   86
 72
   93
 73
   85
  0
VERTEX
  8
spoon
 10
0.0
 20
0.0
 30
0.0
 70
   128
 71
   90
 72
   84
 73
   92
  0
VERTEX
  8
spoon
 10
0.0
 20
0.0
 30
0.0
 70
   128
 71
   89
 72
   99
 73
   91
  0
VERTEX
  8
spoon
 10
0.0
 20
0.0
 30
0.0
 70
   128
 71
   81
 72
   91
 73
   83
  0
VERTEX
  8
spoon
 10
0.0
 20
0.0
 30
0.0
 70
   128
 71
   82
 72
   28
 73
   84
  0
VERTEX
  8
spoon
 10
0.0
 20
0.0
 30
0.0
 70
   128
 71
   123
 72
   126
 73
   124
  0
VERTEX
  8
spoon
 10
0.0
 20
0.0
 30
0.0
 70
   128
 71
   85
 72
   44
 73
   86
  0
VERTEX
  8
spoon
 10
0.0
 20
0.0
 30
0.0
 70
   128
 71
   77
 72
   36
 73
   34
  0
VERTEX
  8
spoon
 10
0.0
 20
0.0
 30
0.0
 70
   128
 71
   113
 72
   124
 73
   122
  0
VERTEX
  8
spoon
 10
0.0
 20
0.0
 30
0.0
 70
   128
 71
   37
 72
   78
 73
   47
  0
VERTEX
  8
spoon
 10
0.0
 20
0.0
 30
0.0
 70
   128
 71
   98
 72
   92
 73
   100
  0
VERTEX
  8
spoon
 10
0.0
 20
0.0
 30
0.0
 70
   128
 71
   44
 72
   47
 73
   45
  0
VERTEX
  8
spoon
 10
0.0
 20
0.0
 30
0.0
 70
   128
 71
   87
 72
   96
 73
   88
  0
VERTEX
  8
spoon
 10
0.0
 20
0.0
 30
0.0
 70
   128
 71
   97
 72
   107
 73
   99
  0
VERTEX
  8
spoon
 10
0.0
 20
0.0
 30
0.0
 70
   128
 71
   128
 72
   117
 73
   127
  0
VERTEX
  8
spoon
 10
0.0
 20
0.0
 30
0.0
 70
   128
 71
   121
 72
   119
 73
   120
  0
VERTEX
  8
spoon
 10
0.0
 20
0.0
 30
0.0
 70
   128
 71
   116
 72
   121
 73
   114
  0
VERTEX
  8
spoon
 10
0.0
 20
0.0
 30
0.0
 70
   128
 71
   121
 72
   125
 73
   114
  0
VERTEX
  8
spoon
 10
0.0
 20
0.0
 30
0.0
 70
   128
 71
   94
 72
   101
 73
   93
  0
VERTEX
  8
spoon
 10
0.0
 20
0.0
 30
0.0
 70
   128
 71
   106
 72
   100
 73
   108
  0
VERTEX
  8
spoon
 10
0.0
 20
0.0
 30
0.0
 70
   128
 71
   95
 72
   104
 73
   96
  0
VERTEX
  8
spoon
 10
0.0
 20
0.0
 30
0.0
 70
   128
 71
   105
 72
   22
 73
   107
  0
VERTEX
  8
spoon
 10
0.0
 20
0.0
 30
0.0
 70
   128
 71
   102
 72
   109
 73
   101
  0
VERTEX
  8
spoon
 10
0.0
 20
0.0
 30
0.0
 70
   128
 71
   38
 72
   42
 73
   39
  0
VERTEX
  8
spoon
 10
0.0
 20
0.0
 30
0.0
 70
   128
 71
   103
 72
   112
 73
   104
  0
VERTEX
  8
spoon
 10
0.0
 20
0.0
 30
0.0
 70
   128
 71
   42
 72
   40
 73
   39
  0
VERTEX
  8
spoon
 10
0.0
 20
0.0
 30
0.0
 70
   128
 71
   109
 72
   43
 73
   38
  0
VERTEX
  8
spoon
 10
0.0
 20
0.0
 30
0.0
 70
   128
 71
   58
 72
   56
 73
   57
  0
VERTEX
  8
spoon
 10
0.0
 20
0.0
 30
0.0
 70
   128
 71
   111
 72
   59
 73
   112
  0
VERTEX
  8
spoon
 10
0.0
 20
0.0
 30
0.0
 70
   128
 71
   54
 72
   58
 73
   59
  0
VERTEX
  8
spoon
 10
0.0
 20
0.0
 30
0.0
 70
   128
 71
   88
 72
   127
 73
   87
  0
VERTEX
  8
spoon
 10
0.0
 20
0.0
 30
0.0
 70
   128
 71
   87
 72
   117
 73
   53
  0
VERTEX
  8
spoon
 10
0.0
 20
0.0
 30
0.0
 70
   128
 71
   53
 72
   116
 73
   52
  0
VERTEX
  8
spoon
 10
0.0
 20
0.0
 30
0.0
 70
   128
 71
   52
 72
   115
 73
   51
  0
VERTEX
  8
spoon
 10
0.0
 20
0.0
 30
0.0
 70
   128
 71
   51
 72
   114
 73
   50
  0
VERTEX
  8
spoon
 10
0.0
 20
0.0
 30
0.0
 70
   128
 71
   50
 72
   125
 73
   79
  0
VERTEX
  8
spoon
 10
0.0
 20
0.0
 30
0.0
 70
   128
 71
   80
 72
   121
 73
   63
  0
VERTEX
  8
spoon
 10
0.0
 20
0.0
 30
0.0
 70
   128
 71
   63
 72
   120
 73
   62
  0
VERTEX
  8
spoon
 10
0.0
 20
0.0
 30
0.0
 70
   128
 71
   62
 72
   119
 73
   61
  0
VERTEX
  8
spoon
 10
0.0
 20
0.0
 30
0.0
 70
   128
 71
   61
 72
   118
 73
   60
  0
VERTEX
  8
spoon
 10
0.0
 20
0.0
 30
0.0
 70
   128
 71
   60
 72
   128
 73
   88
  0
VERTEX
  8
spoon
 10
0.0
 20
0.0
 30
0.0
 70
   128
 71
   72
 72
   126
 73
   80
  0
VERTEX
  8
spoon
 10
0.0
 20
0.0
 30
0.0
 70
   128
 71
   79
 72
   123
 73
   71
  0
VERTEX
  8
spoon
 10
0.0
 20
0.0
 30
0.0
 70
   128
 71
   49
 72
   122
 73
   64
  0
VERTEX
  8
spoon
 10
0.0
 20
0.0
 30
0.0
 70
   128
 71
   64
 72
   124
 73
   72
  0
VERTEX
  8
spoon
 10
0.0
 20
0.0
 30
0.0
 70
   128
 71
   71
 72
   113
 73
   49
  0
SEQEND
  0
ENDSEC
  0
EOF
