999
FBX AutoCAD (*.DXF) exporter
  0
SECTION
  2
HEADER
  9
$ACADVER
  1
AC1008
  9
$UCSORG
 10
0.0
 20
0.0
 30
0.0
  9
$UCSXDIR
 10
1.0
 20
0.0
 30
0.0
  9
$TILEMODE
 70
   1
  9
$UCSYDIR
 10
0.0
 20
1.0
 30
0.0
  0
ENDSEC
  0
SECTION
  2
TABLES
  0
TABLE
  2
LTYPE
 70
   1
  0
LTYPE
  2
CONTINUOUS
 70
   64
  3
Solid line
 72
   65
 73
   0
 40
0.0
  0
ENDTAB
  0
TABLE
  2
LAYER
 70
   3
  0
LAYER
  2
bottle
 70
   0
 62
   250
  6
CONTINUOUS
  0
LAYER
  2
bottleCap
 70
   0
 62
   250
  6
CONTINUOUS
  0
ENDTAB
  0
ENDSEC
  0
SECTION
  2
BLOCKS
  0
ENDSEC
  0
SECTION
  2
ENTITIES
  0
POLYLINE
  8
bottle
 66
   1
 10
0.0
 20
0.0
 30
0.0
 70
   64
 71
   104
 72
   200
  0
VERTEX
  8
bottle
 10
37.170676
 20
64.941707
 30
-38.898495
 70
   192
  0
VERTEX
  8
bottle
 10
0.000000
 20
166.387807
 30
-32.781284
 70
   192
  0
VERTEX
  8
bottle
 10
0.000000
 20
122.533504
 30
-34.894744
 70
   192
  0
VERTEX
  8
bottle
 10
-25.653070
 20
0.481165
 30
37.424418
 70
   192
  0
VERTEX
  8
bottle
 10
35.542056
 20
11.576832
 30
36.432979
 70
   192
  0
VERTEX
  8
bottle
 10
-16.390642
 20
166.387807
 30
-28.389424
 70
   192
  0
VERTEX
  8
bottle
 10
-17.447372
 20
122.533504
 30
-30.219735
 70
   192
  0
VERTEX
  8
bottle
 10
25.653070
 20
0.481165
 30
37.424418
 70
   192
  0
VERTEX
  8
bottle
 10
-37.646895
 20
11.576832
 30
-39.656479
 70
   192
  0
VERTEX
  8
bottle
 10
-28.389424
 20
166.387807
 30
-16.390642
 70
   192
  0
VERTEX
  8
bottle
 10
-30.219735
 20
122.533504
 30
-17.447372
 70
   192
  0
VERTEX
  8
bottle
 10
-42.734991
 20
92.416693
 30
-24.673058
 70
   192
  0
VERTEX
  8
bottle
 10
-48.225922
 20
64.941707
 30
-27.843249
 70
   192
  0
VERTEX
  8
bottle
 10
-47.310767
 20
11.576832
 30
-27.314884
 70
   192
  0
VERTEX
  8
bottle
 10
-44.565301
 20
4.708086
 30
-25.729789
 70
   192
  0
VERTEX
  8
bottle
 10
-39.989525
 20
0.481165
 30
-23.087963
 70
   192
  0
VERTEX
  8
bottle
 10
-36.614447
 20
64.941707
 30
36.777000
 70
   192
  0
VERTEX
  8
bottle
 10
-0.000000
 20
105.851687
 30
37.424418
 70
   192
  0
VERTEX
  8
bottle
 10
-32.781284
 20
166.387807
 30
-0.000000
 70
   192
  0
VERTEX
  8
bottle
 10
-34.894744
 20
122.533504
 30
-0.000000
 70
   192
  0
VERTEX
  8
bottle
 10
-49.346117
 20
92.416693
 30
-0.000000
 70
   192
  0
VERTEX
  8
bottle
 10
-55.686498
 20
64.941707
 30
-0.000000
 70
   192
  0
VERTEX
  8
bottle
 10
-54.629768
 20
11.576832
 30
-0.000000
 70
   192
  0
VERTEX
  8
bottle
 10
-51.459577
 20
4.708086
 30
-0.000000
 70
   192
  0
VERTEX
  8
bottle
 10
-46.175926
 20
0.481165
 30
-0.000000
 70
   192
  0
VERTEX
  8
bottle
 10
35.542056
 20
11.576832
 30
-39.083595
 70
   192
  0
VERTEX
  8
bottle
 10
-25.653070
 20
0.481165
 30
-39.773780
 70
   192
  0
VERTEX
  8
bottle
 10
-28.389424
 20
166.387807
 30
16.390642
 70
   192
  0
VERTEX
  8
bottle
 10
-30.219735
 20
122.533504
 30
17.447372
 70
   192
  0
VERTEX
  8
bottle
 10
-42.734991
 20
92.416693
 30
24.673058
 70
   192
  0
VERTEX
  8
bottle
 10
-48.225922
 20
64.941707
 30
27.843249
 70
   192
  0
VERTEX
  8
bottle
 10
-47.310767
 20
11.576832
 30
27.314884
 70
   192
  0
VERTEX
  8
bottle
 10
-44.565301
 20
4.708086
 30
25.729789
 70
   192
  0
VERTEX
  8
bottle
 10
-39.989525
 20
0.481165
 30
23.087963
 70
   192
  0
VERTEX
  8
bottle
 10
-32.870672
 20
4.708086
 30
-39.773780
 70
   192
  0
VERTEX
  8
bottle
 10
0.000000
 20
0.481165
 30
-39.773780
 70
   192
  0
VERTEX
  8
bottle
 10
-16.390642
 20
166.387807
 30
28.389424
 70
   192
  0
VERTEX
  8
bottle
 10
-17.447372
 20
122.533504
 30
30.219735
 70
   192
  0
VERTEX
  8
bottle
 10
-29.983631
 20
92.416693
 30
37.424418
 70
   192
  0
VERTEX
  8
bottle
 10
-36.614447
 20
64.941707
 30
-39.454724
 70
   192
  0
VERTEX
  8
bottle
 10
-0.000000
 20
166.387807
 30
32.781284
 70
   192
  0
VERTEX
  8
bottle
 10
-0.000000
 20
122.533504
 30
34.894744
 70
   192
  0
VERTEX
  8
bottle
 10
33.306811
 20
4.708086
 30
36.988279
 70
   192
  0
VERTEX
  8
bottle
 10
-0.000000
 20
0.481165
 30
37.424418
 70
   192
  0
VERTEX
  8
bottle
 10
16.390642
 20
166.387807
 30
28.389424
 70
   192
  0
VERTEX
  8
bottle
 10
17.447372
 20
122.533504
 30
30.219735
 70
   192
  0
VERTEX
  8
bottle
 10
27.634269
 20
92.416693
 30
37.424418
 70
   192
  0
VERTEX
  8
bottle
 10
33.306811
 20
4.708086
 30
-39.638895
 70
   192
  0
VERTEX
  8
bottle
 10
28.389424
 20
166.387807
 30
16.390642
 70
   192
  0
VERTEX
  8
bottle
 10
30.219735
 20
122.533504
 30
17.447372
 70
   192
  0
VERTEX
  8
bottle
 10
42.734991
 20
92.416693
 30
24.673058
 70
   192
  0
VERTEX
  8
bottle
 10
48.225922
 20
64.941707
 30
27.843249
 70
   192
  0
VERTEX
  8
bottle
 10
47.310767
 20
11.576832
 30
27.314884
 70
   192
  0
VERTEX
  8
bottle
 10
44.565301
 20
4.708086
 30
25.729789
 70
   192
  0
VERTEX
  8
bottle
 10
39.989525
 20
0.481165
 30
23.087963
 70
   192
  0
VERTEX
  8
bottle
 10
-32.870672
 20
4.708086
 30
37.424418
 70
   192
  0
VERTEX
  8
bottle
 10
1.079377
 20
165.859442
 30
0.000000
 70
   192
  0
VERTEX
  8
bottle
 10
32.781284
 20
166.387807
 30
0.000000
 70
   192
  0
VERTEX
  8
bottle
 10
34.894744
 20
122.533504
 30
0.000000
 70
   192
  0
VERTEX
  8
bottle
 10
49.346117
 20
92.416693
 30
0.000000
 70
   192
  0
VERTEX
  8
bottle
 10
55.686498
 20
64.941707
 30
0.000000
 70
   192
  0
VERTEX
  8
bottle
 10
54.629768
 20
11.576832
 30
0.000000
 70
   192
  0
VERTEX
  8
bottle
 10
51.459577
 20
4.708086
 30
0.000000
 70
   192
  0
VERTEX
  8
bottle
 10
46.175926
 20
0.481165
 30
0.000000
 70
   192
  0
VERTEX
  8
bottle
 10
-37.646895
 20
11.576832
 30
36.978756
 70
   192
  0
VERTEX
  8
bottle
 10
25.653070
 20
0.481165
 30
-39.773780
 70
   192
  0
VERTEX
  8
bottle
 10
28.389424
 20
166.387807
 30
-16.390642
 70
   192
  0
VERTEX
  8
bottle
 10
30.219735
 20
122.533504
 30
-17.447372
 70
   192
  0
VERTEX
  8
bottle
 10
42.734991
 20
92.416693
 30
-24.673058
 70
   192
  0
VERTEX
  8
bottle
 10
48.225922
 20
64.941707
 30
-27.843249
 70
   192
  0
VERTEX
  8
bottle
 10
47.310767
 20
11.576832
 30
-27.314884
 70
   192
  0
VERTEX
  8
bottle
 10
44.565301
 20
4.708086
 30
-25.729789
 70
   192
  0
VERTEX
  8
bottle
 10
39.989525
 20
0.481165
 30
-23.087963
 70
   192
  0
VERTEX
  8
bottle
 10
27.634269
 20
92.416693
 30
-39.773780
 70
   192
  0
VERTEX
  8
bottle
 10
0.539689
 20
165.859442
 30
-0.934768
 70
   192
  0
VERTEX
  8
bottle
 10
16.390642
 20
166.387807
 30
-28.389424
 70
   192
  0
VERTEX
  8
bottle
 10
17.447372
 20
122.533504
 30
-30.219735
 70
   192
  0
VERTEX
  8
bottle
 10
37.170676
 20
64.941707
 30
36.247879
 70
   192
  0
VERTEX
  8
bottle
 10
-29.983631
 20
92.416693
 30
-39.773780
 70
   192
  0
VERTEX
  8
bottle
 10
-0.000000
 20
105.851687
 30
-39.773780
 70
   192
  0
VERTEX
  8
bottle
 10
-0.000000
 20
166.387807
 30
-22.739105
 70
   192
  0
VERTEX
  8
bottle
 10
-11.369552
 20
166.387807
 30
-19.692642
 70
   192
  0
VERTEX
  8
bottle
 10
-19.692642
 20
166.387807
 30
-11.369552
 70
   192
  0
VERTEX
  8
bottle
 10
-22.739105
 20
166.387807
 30
0.000000
 70
   192
  0
VERTEX
  8
bottle
 10
-19.692642
 20
166.387807
 30
11.369552
 70
   192
  0
VERTEX
  8
bottle
 10
-11.369552
 20
166.387807
 30
19.692642
 70
   192
  0
VERTEX
  8
bottle
 10
-0.000000
 20
166.387807
 30
22.739105
 70
   192
  0
VERTEX
  8
bottle
 10
11.369552
 20
166.387807
 30
19.692642
 70
   192
  0
VERTEX
  8
bottle
 10
19.692642
 20
166.387807
 30
11.369552
 70
   192
  0
VERTEX
  8
bottle
 10
22.739105
 20
166.387807
 30
0.000000
 70
   192
  0
VERTEX
  8
bottle
 10
19.692642
 20
166.387807
 30
-11.369552
 70
   192
  0
VERTEX
  8
bottle
 10
11.369552
 20
166.387807
 30
-19.692642
 70
   192
  0
VERTEX
  8
bottle
 10
-0.000000
 20
146.987807
 30
-22.739105
 70
   192
  0
VERTEX
  8
bottle
 10
-11.369552
 20
146.987807
 30
-19.692642
 70
   192
  0
VERTEX
  8
bottle
 10
-19.692642
 20
146.987807
 30
-11.369552
 70
   192
  0
VERTEX
  8
bottle
 10
-22.739105
 20
146.987807
 30
0.000000
 70
   192
  0
VERTEX
  8
bottle
 10
-19.692642
 20
146.987807
 30
11.369552
 70
   192
  0
VERTEX
  8
bottle
 10
-11.369552
 20
146.987807
 30
19.692642
 70
   192
  0
VERTEX
  8
bottle
 10
-0.000000
 20
146.987807
 30
22.739105
 70
   192
  0
VERTEX
  8
bottle
 10
11.369552
 20
146.987807
 30
19.692642
 70
   192
  0
VERTEX
  8
bottle
 10
19.692642
 20
146.987807
 30
11.369552
 70
   192
  0
VERTEX
  8
bottle
 10
22.739105
 20
146.987807
 30
0.000000
 70
   192
  0
VERTEX
  8
bottle
 10
19.692642
 20
146.987807
 30
-11.369552
 70
   192
  0
VERTEX
  8
bottle
 10
11.369552
 20
146.987807
 30
-19.692642
 70
   192
  0
VERTEX
  8
bottle
 10
0.0
 20
0.0
 30
0.0
 70
   128
 71
   103
 72
   102
 73
   101
  0
VERTEX
  8
bottle
 10
0.0
 20
0.0
 30
0.0
 70
   128
 71
   6
 72
   7
 73
   3
  0
VERTEX
  8
bottle
 10
0.0
 20
0.0
 30
0.0
 70
   128
 71
   80
 72
   3
 73
   7
  0
VERTEX
  8
bottle
 10
0.0
 20
0.0
 30
0.0
 70
   128
 71
   9
 72
   36
 73
   27
  0
VERTEX
  8
bottle
 10
0.0
 20
0.0
 30
0.0
 70
   128
 71
   44
 72
   64
 73
   36
  0
VERTEX
  8
bottle
 10
0.0
 20
0.0
 30
0.0
 70
   128
 71
   39
 72
   56
 73
   44
  0
VERTEX
  8
bottle
 10
0.0
 20
0.0
 30
0.0
 70
   128
 71
   94
 72
   97
 73
   96
  0
VERTEX
  8
bottle
 10
0.0
 20
0.0
 30
0.0
 70
   128
 71
   10
 72
   11
 73
   7
  0
VERTEX
  8
bottle
 10
0.0
 20
0.0
 30
0.0
 70
   128
 71
   12
 72
   79
 73
   7
  0
VERTEX
  8
bottle
 10
0.0
 20
0.0
 30
0.0
 70
   128
 71
   48
 72
   72
 73
   71
  0
VERTEX
  8
bottle
 10
0.0
 20
0.0
 30
0.0
 70
   128
 71
   40
 72
   79
 73
   12
  0
VERTEX
  8
bottle
 10
0.0
 20
0.0
 30
0.0
 70
   128
 71
   55
 72
   64
 73
   44
  0
VERTEX
  8
bottle
 10
0.0
 20
0.0
 30
0.0
 70
   128
 71
   40
 72
   13
 73
   14
  0
VERTEX
  8
bottle
 10
0.0
 20
0.0
 30
0.0
 70
   128
 71
   9
 72
   14
 73
   15
  0
VERTEX
  8
bottle
 10
0.0
 20
0.0
 30
0.0
 70
   128
 71
   44
 72
   43
 73
   47
  0
VERTEX
  8
bottle
 10
0.0
 20
0.0
 30
0.0
 70
   128
 71
   35
 72
   15
 73
   16
  0
VERTEX
  8
bottle
 10
0.0
 20
0.0
 30
0.0
 70
   128
 71
   36
 72
   27
 73
   16
  0
VERTEX
  8
bottle
 10
0.0
 20
0.0
 30
0.0
 70
   128
 71
   39
 72
   17
 73
   65
  0
VERTEX
  8
bottle
 10
0.0
 20
0.0
 30
0.0
 70
   128
 71
   58
 72
   90
 73
   91
  0
VERTEX
  8
bottle
 10
0.0
 20
0.0
 30
0.0
 70
   128
 71
   19
 72
   20
 73
   11
  0
VERTEX
  8
bottle
 10
0.0
 20
0.0
 30
0.0
 70
   128
 71
   20
 72
   21
 73
   12
  0
VERTEX
  8
bottle
 10
0.0
 20
0.0
 30
0.0
 70
   128
 71
   21
 72
   22
 73
   13
  0
VERTEX
  8
bottle
 10
0.0
 20
0.0
 30
0.0
 70
   128
 71
   22
 72
   23
 73
   14
  0
VERTEX
  8
bottle
 10
0.0
 20
0.0
 30
0.0
 70
   128
 71
   23
 72
   24
 73
   15
  0
VERTEX
  8
bottle
 10
0.0
 20
0.0
 30
0.0
 70
   128
 71
   24
 72
   25
 73
   16
  0
VERTEX
  8
bottle
 10
0.0
 20
0.0
 30
0.0
 70
   128
 71
   44
 72
   25
 73
   34
  0
VERTEX
  8
bottle
 10
0.0
 20
0.0
 30
0.0
 70
   128
 71
   98
 72
   97
 73
   100
  0
VERTEX
  8
bottle
 10
0.0
 20
0.0
 30
0.0
 70
   128
 71
   28
 72
   29
 73
   20
  0
VERTEX
  8
bottle
 10
0.0
 20
0.0
 30
0.0
 70
   128
 71
   29
 72
   30
 73
   21
  0
VERTEX
  8
bottle
 10
0.0
 20
0.0
 30
0.0
 70
   128
 71
   30
 72
   31
 73
   22
  0
VERTEX
  8
bottle
 10
0.0
 20
0.0
 30
0.0
 70
   128
 71
   31
 72
   32
 73
   23
  0
VERTEX
  8
bottle
 10
0.0
 20
0.0
 30
0.0
 70
   128
 71
   32
 72
   33
 73
   24
  0
VERTEX
  8
bottle
 10
0.0
 20
0.0
 30
0.0
 70
   128
 71
   33
 72
   34
 73
   25
  0
VERTEX
  8
bottle
 10
0.0
 20
0.0
 30
0.0
 70
   128
 71
   40
 72
   80
 73
   36
  0
VERTEX
  8
bottle
 10
0.0
 20
0.0
 30
0.0
 70
   128
 71
   94
 72
   93
 73
   104
  0
VERTEX
  8
bottle
 10
0.0
 20
0.0
 30
0.0
 70
   128
 71
   37
 72
   38
 73
   29
  0
VERTEX
  8
bottle
 10
0.0
 20
0.0
 30
0.0
 70
   128
 71
   30
 72
   29
 73
   38
  0
VERTEX
  8
bottle
 10
0.0
 20
0.0
 30
0.0
 70
   128
 71
   8
 72
   43
 73
   44
  0
VERTEX
  8
bottle
 10
0.0
 20
0.0
 30
0.0
 70
   128
 71
   80
 72
   40
 73
   79
  0
VERTEX
  8
bottle
 10
0.0
 20
0.0
 30
0.0
 70
   128
 71
   17
 72
   31
 73
   30
  0
VERTEX
  8
bottle
 10
0.0
 20
0.0
 30
0.0
 70
   128
 71
   65
 72
   32
 73
   31
  0
VERTEX
  8
bottle
 10
0.0
 20
0.0
 30
0.0
 70
   128
 71
   56
 72
   33
 73
   32
  0
VERTEX
  8
bottle
 10
0.0
 20
0.0
 30
0.0
 70
   128
 71
   74
 72
   69
 73
   68
  0
VERTEX
  8
bottle
 10
0.0
 20
0.0
 30
0.0
 70
   128
 71
   56
 72
   4
 73
   34
  0
VERTEX
  8
bottle
 10
0.0
 20
0.0
 30
0.0
 70
   128
 71
   36
 72
   80
 73
   74
  0
VERTEX
  8
bottle
 10
0.0
 20
0.0
 30
0.0
 70
   128
 71
   48
 72
   66
 73
   36
  0
VERTEX
  8
bottle
 10
0.0
 20
0.0
 30
0.0
 70
   128
 71
   100
 72
   97
 73
   94
  0
VERTEX
  8
bottle
 10
0.0
 20
0.0
 30
0.0
 70
   128
 71
   41
 72
   42
 73
   38
  0
VERTEX
  8
bottle
 10
0.0
 20
0.0
 30
0.0
 70
   128
 71
   74
 72
   1
 73
   26
  0
VERTEX
  8
bottle
 10
0.0
 20
0.0
 30
0.0
 70
   128
 71
   39
 72
   38
 73
   42
  0
VERTEX
  8
bottle
 10
0.0
 20
0.0
 30
0.0
 70
   128
 71
   56
 72
   4
 73
   44
  0
VERTEX
  8
bottle
 10
0.0
 20
0.0
 30
0.0
 70
   128
 71
   26
 72
   71
 73
   70
  0
VERTEX
  8
bottle
 10
0.0
 20
0.0
 30
0.0
 70
   128
 71
   76
 72
   77
 73
   68
  0
VERTEX
  8
bottle
 10
0.0
 20
0.0
 30
0.0
 70
   128
 71
   45
 72
   46
 73
   42
  0
VERTEX
  8
bottle
 10
0.0
 20
0.0
 30
0.0
 70
   128
 71
   47
 72
   18
 73
   42
  0
VERTEX
  8
bottle
 10
0.0
 20
0.0
 30
0.0
 70
   128
 71
   70
 72
   71
 73
   62
  0
VERTEX
  8
bottle
 10
0.0
 20
0.0
 30
0.0
 70
   128
 71
   71
 72
   72
 73
   63
  0
VERTEX
  8
bottle
 10
0.0
 20
0.0
 30
0.0
 70
   128
 71
   49
 72
   50
 73
   46
  0
VERTEX
  8
bottle
 10
0.0
 20
0.0
 30
0.0
 70
   128
 71
   51
 72
   47
 73
   46
  0
VERTEX
  8
bottle
 10
0.0
 20
0.0
 30
0.0
 70
   128
 71
   48
 72
   66
 73
   73
  0
VERTEX
  8
bottle
 10
0.0
 20
0.0
 30
0.0
 70
   128
 71
   47
 72
   51
 73
   52
  0
VERTEX
  8
bottle
 10
0.0
 20
0.0
 30
0.0
 70
   128
 71
   78
 72
   52
 73
   53
  0
VERTEX
  8
bottle
 10
0.0
 20
0.0
 30
0.0
 70
   128
 71
   5
 72
   53
 73
   54
  0
VERTEX
  8
bottle
 10
0.0
 20
0.0
 30
0.0
 70
   128
 71
   43
 72
   54
 73
   55
  0
VERTEX
  8
bottle
 10
0.0
 20
0.0
 30
0.0
 70
   128
 71
   5
 72
   78
 73
   47
  0
VERTEX
  8
bottle
 10
0.0
 20
0.0
 30
0.0
 70
   128
 71
   2
 72
   3
 73
   77
  0
VERTEX
  8
bottle
 10
0.0
 20
0.0
 30
0.0
 70
   128
 71
   74
 72
   1
 73
   70
  0
VERTEX
  8
bottle
 10
0.0
 20
0.0
 30
0.0
 70
   128
 71
   72
 72
   73
 73
   64
  0
VERTEX
  8
bottle
 10
0.0
 20
0.0
 30
0.0
 70
   128
 71
   58
 72
   59
 73
   50
  0
VERTEX
  8
bottle
 10
0.0
 20
0.0
 30
0.0
 70
   128
 71
   59
 72
   60
 73
   51
  0
VERTEX
  8
bottle
 10
0.0
 20
0.0
 30
0.0
 70
   128
 71
   60
 72
   61
 73
   52
  0
VERTEX
  8
bottle
 10
0.0
 20
0.0
 30
0.0
 70
   128
 71
   61
 72
   62
 73
   53
  0
VERTEX
  8
bottle
 10
0.0
 20
0.0
 30
0.0
 70
   128
 71
   62
 72
   63
 73
   54
  0
VERTEX
  8
bottle
 10
0.0
 20
0.0
 30
0.0
 70
   128
 71
   63
 72
   64
 73
   55
  0
VERTEX
  8
bottle
 10
0.0
 20
0.0
 30
0.0
 70
   128
 71
   36
 72
   64
 73
   73
  0
VERTEX
  8
bottle
 10
0.0
 20
0.0
 30
0.0
 70
   128
 71
   80
 72
   74
 73
   77
  0
VERTEX
  8
bottle
 10
0.0
 20
0.0
 30
0.0
 70
   128
 71
   67
 72
   68
 73
   59
  0
VERTEX
  8
bottle
 10
0.0
 20
0.0
 30
0.0
 70
   128
 71
   68
 72
   69
 73
   60
  0
VERTEX
  8
bottle
 10
0.0
 20
0.0
 30
0.0
 70
   128
 71
   69
 72
   70
 73
   61
  0
VERTEX
  8
bottle
 10
0.0
 20
0.0
 30
0.0
 70
   128
 71
   67
 72
   91
 73
   92
  0
VERTEX
  8
bottle
 10
0.0
 20
0.0
 30
0.0
 70
   128
 71
   76
 72
   92
 73
   81
  0
VERTEX
  8
bottle
 10
0.0
 20
0.0
 30
0.0
 70
   128
 71
   2
 72
   81
 73
   82
  0
VERTEX
  8
bottle
 10
0.0
 20
0.0
 30
0.0
 70
   128
 71
   6
 72
   82
 73
   83
  0
VERTEX
  8
bottle
 10
0.0
 20
0.0
 30
0.0
 70
   128
 71
   10
 72
   83
 73
   84
  0
VERTEX
  8
bottle
 10
0.0
 20
0.0
 30
0.0
 70
   128
 71
   19
 72
   84
 73
   85
  0
VERTEX
  8
bottle
 10
0.0
 20
0.0
 30
0.0
 70
   128
 71
   28
 72
   85
 73
   86
  0
VERTEX
  8
bottle
 10
0.0
 20
0.0
 30
0.0
 70
   128
 71
   37
 72
   86
 73
   87
  0
VERTEX
  8
bottle
 10
0.0
 20
0.0
 30
0.0
 70
   128
 71
   41
 72
   87
 73
   88
  0
VERTEX
  8
bottle
 10
0.0
 20
0.0
 30
0.0
 70
   128
 71
   45
 72
   88
 73
   89
  0
VERTEX
  8
bottle
 10
0.0
 20
0.0
 30
0.0
 70
   128
 71
   49
 72
   89
 73
   90
  0
VERTEX
  8
bottle
 10
0.0
 20
0.0
 30
0.0
 70
   128
 71
   90
 72
   102
 73
   103
  0
VERTEX
  8
bottle
 10
0.0
 20
0.0
 30
0.0
 70
   128
 71
   91
 72
   103
 73
   104
  0
VERTEX
  8
bottle
 10
0.0
 20
0.0
 30
0.0
 70
   128
 71
   92
 72
   104
 73
   93
  0
VERTEX
  8
bottle
 10
0.0
 20
0.0
 30
0.0
 70
   128
 71
   81
 72
   93
 73
   94
  0
VERTEX
  8
bottle
 10
0.0
 20
0.0
 30
0.0
 70
   128
 71
   82
 72
   94
 73
   95
  0
VERTEX
  8
bottle
 10
0.0
 20
0.0
 30
0.0
 70
   128
 71
   83
 72
   95
 73
   96
  0
VERTEX
  8
bottle
 10
0.0
 20
0.0
 30
0.0
 70
   128
 71
   84
 72
   96
 73
   97
  0
VERTEX
  8
bottle
 10
0.0
 20
0.0
 30
0.0
 70
   128
 71
   85
 72
   97
 73
   98
  0
VERTEX
  8
bottle
 10
0.0
 20
0.0
 30
0.0
 70
   128
 71
   86
 72
   98
 73
   99
  0
VERTEX
  8
bottle
 10
0.0
 20
0.0
 30
0.0
 70
   128
 71
   87
 72
   99
 73
   100
  0
VERTEX
  8
bottle
 10
0.0
 20
0.0
 30
0.0
 70
   128
 71
   88
 72
   100
 73
   101
  0
VERTEX
  8
bottle
 10
0.0
 20
0.0
 30
0.0
 70
   128
 71
   89
 72
   101
 73
   102
  0
VERTEX
  8
bottle
 10
0.0
 20
0.0
 30
0.0
 70
   128
 71
   103
 72
   101
 73
   100
  0
VERTEX
  8
bottle
 10
0.0
 20
0.0
 30
0.0
 70
   128
 71
   6
 72
   3
 73
   2
  0
VERTEX
  8
bottle
 10
0.0
 20
0.0
 30
0.0
 70
   128
 71
   80
 72
   7
 73
   79
  0
VERTEX
  8
bottle
 10
0.0
 20
0.0
 30
0.0
 70
   128
 71
   9
 72
   27
 73
   35
  0
VERTEX
  8
bottle
 10
0.0
 20
0.0
 30
0.0
 70
   128
 71
   44
 72
   36
 73
   25
  0
VERTEX
  8
bottle
 10
0.0
 20
0.0
 30
0.0
 70
   128
 71
   39
 72
   44
 73
   18
  0
VERTEX
  8
bottle
 10
0.0
 20
0.0
 30
0.0
 70
   128
 71
   94
 72
   96
 73
   95
  0
VERTEX
  8
bottle
 10
0.0
 20
0.0
 30
0.0
 70
   128
 71
   10
 72
   7
 73
   6
  0
VERTEX
  8
bottle
 10
0.0
 20
0.0
 30
0.0
 70
   128
 71
   12
 72
   7
 73
   11
  0
VERTEX
  8
bottle
 10
0.0
 20
0.0
 30
0.0
 70
   128
 71
   48
 72
   71
 73
   26
  0
VERTEX
  8
bottle
 10
0.0
 20
0.0
 30
0.0
 70
   128
 71
   40
 72
   12
 73
   13
  0
VERTEX
  8
bottle
 10
0.0
 20
0.0
 30
0.0
 70
   128
 71
   55
 72
   44
 73
   8
  0
VERTEX
  8
bottle
 10
0.0
 20
0.0
 30
0.0
 70
   128
 71
   40
 72
   14
 73
   9
  0
VERTEX
  8
bottle
 10
0.0
 20
0.0
 30
0.0
 70
   128
 71
   9
 72
   15
 73
   35
  0
VERTEX
  8
bottle
 10
0.0
 20
0.0
 30
0.0
 70
   128
 71
   44
 72
   47
 73
   18
  0
VERTEX
  8
bottle
 10
0.0
 20
0.0
 30
0.0
 70
   128
 71
   35
 72
   16
 73
   27
  0
VERTEX
  8
bottle
 10
0.0
 20
0.0
 30
0.0
 70
   128
 71
   36
 72
   16
 73
   25
  0
VERTEX
  8
bottle
 10
0.0
 20
0.0
 30
0.0
 70
   128
 71
   39
 72
   65
 73
   56
  0
VERTEX
  8
bottle
 10
0.0
 20
0.0
 30
0.0
 70
   128
 71
   58
 72
   91
 73
   67
  0
VERTEX
  8
bottle
 10
0.0
 20
0.0
 30
0.0
 70
   128
 71
   19
 72
   11
 73
   10
  0
VERTEX
  8
bottle
 10
0.0
 20
0.0
 30
0.0
 70
   128
 71
   20
 72
   12
 73
   11
  0
VERTEX
  8
bottle
 10
0.0
 20
0.0
 30
0.0
 70
   128
 71
   21
 72
   13
 73
   12
  0
VERTEX
  8
bottle
 10
0.0
 20
0.0
 30
0.0
 70
   128
 71
   22
 72
   14
 73
   13
  0
VERTEX
  8
bottle
 10
0.0
 20
0.0
 30
0.0
 70
   128
 71
   23
 72
   15
 73
   14
  0
VERTEX
  8
bottle
 10
0.0
 20
0.0
 30
0.0
 70
   128
 71
   24
 72
   16
 73
   15
  0
VERTEX
  8
bottle
 10
0.0
 20
0.0
 30
0.0
 70
   128
 71
   44
 72
   34
 73
   4
  0
VERTEX
  8
bottle
 10
0.0
 20
0.0
 30
0.0
 70
   128
 71
   98
 72
   100
 73
   99
  0
VERTEX
  8
bottle
 10
0.0
 20
0.0
 30
0.0
 70
   128
 71
   28
 72
   20
 73
   19
  0
VERTEX
  8
bottle
 10
0.0
 20
0.0
 30
0.0
 70
   128
 71
   29
 72
   21
 73
   20
  0
VERTEX
  8
bottle
 10
0.0
 20
0.0
 30
0.0
 70
   128
 71
   30
 72
   22
 73
   21
  0
VERTEX
  8
bottle
 10
0.0
 20
0.0
 30
0.0
 70
   128
 71
   31
 72
   23
 73
   22
  0
VERTEX
  8
bottle
 10
0.0
 20
0.0
 30
0.0
 70
   128
 71
   32
 72
   24
 73
   23
  0
VERTEX
  8
bottle
 10
0.0
 20
0.0
 30
0.0
 70
   128
 71
   33
 72
   25
 73
   24
  0
VERTEX
  8
bottle
 10
0.0
 20
0.0
 30
0.0
 70
   128
 71
   40
 72
   36
 73
   9
  0
VERTEX
  8
bottle
 10
0.0
 20
0.0
 30
0.0
 70
   128
 71
   94
 72
   104
 73
   103
  0
VERTEX
  8
bottle
 10
0.0
 20
0.0
 30
0.0
 70
   128
 71
   37
 72
   29
 73
   28
  0
VERTEX
  8
bottle
 10
0.0
 20
0.0
 30
0.0
 70
   128
 71
   30
 72
   38
 73
   39
  0
VERTEX
  8
bottle
 10
0.0
 20
0.0
 30
0.0
 70
   128
 71
   17
 72
   30
 73
   39
  0
VERTEX
  8
bottle
 10
0.0
 20
0.0
 30
0.0
 70
   128
 71
   65
 72
   31
 73
   17
  0
VERTEX
  8
bottle
 10
0.0
 20
0.0
 30
0.0
 70
   128
 71
   56
 72
   32
 73
   65
  0
VERTEX
  8
bottle
 10
0.0
 20
0.0
 30
0.0
 70
   128
 71
   74
 72
   68
 73
   77
  0
VERTEX
  8
bottle
 10
0.0
 20
0.0
 30
0.0
 70
   128
 71
   56
 72
   34
 73
   33
  0
VERTEX
  8
bottle
 10
0.0
 20
0.0
 30
0.0
 70
   128
 71
   36
 72
   74
 73
   48
  0
VERTEX
  8
bottle
 10
0.0
 20
0.0
 30
0.0
 70
   128
 71
   100
 72
   94
 73
   103
  0
VERTEX
  8
bottle
 10
0.0
 20
0.0
 30
0.0
 70
   128
 71
   41
 72
   38
 73
   37
  0
VERTEX
  8
bottle
 10
0.0
 20
0.0
 30
0.0
 70
   128
 71
   74
 72
   26
 73
   48
  0
VERTEX
  8
bottle
 10
0.0
 20
0.0
 30
0.0
 70
   128
 71
   39
 72
   42
 73
   18
  0
VERTEX
  8
bottle
 10
0.0
 20
0.0
 30
0.0
 70
   128
 71
   26
 72
   70
 73
   1
  0
VERTEX
  8
bottle
 10
0.0
 20
0.0
 30
0.0
 70
   128
 71
   76
 72
   68
 73
   67
  0
VERTEX
  8
bottle
 10
0.0
 20
0.0
 30
0.0
 70
   128
 71
   45
 72
   42
 73
   41
  0
VERTEX
  8
bottle
 10
0.0
 20
0.0
 30
0.0
 70
   128
 71
   47
 72
   42
 73
   46
  0
VERTEX
  8
bottle
 10
0.0
 20
0.0
 30
0.0
 70
   128
 71
   70
 72
   62
 73
   61
  0
VERTEX
  8
bottle
 10
0.0
 20
0.0
 30
0.0
 70
   128
 71
   71
 72
   63
 73
   62
  0
VERTEX
  8
bottle
 10
0.0
 20
0.0
 30
0.0
 70
   128
 71
   49
 72
   46
 73
   45
  0
VERTEX
  8
bottle
 10
0.0
 20
0.0
 30
0.0
 70
   128
 71
   51
 72
   46
 73
   50
  0
VERTEX
  8
bottle
 10
0.0
 20
0.0
 30
0.0
 70
   128
 71
   48
 72
   73
 73
   72
  0
VERTEX
  8
bottle
 10
0.0
 20
0.0
 30
0.0
 70
   128
 71
   47
 72
   52
 73
   78
  0
VERTEX
  8
bottle
 10
0.0
 20
0.0
 30
0.0
 70
   128
 71
   78
 72
   53
 73
   5
  0
VERTEX
  8
bottle
 10
0.0
 20
0.0
 30
0.0
 70
   128
 71
   5
 72
   54
 73
   43
  0
VERTEX
  8
bottle
 10
0.0
 20
0.0
 30
0.0
 70
   128
 71
   43
 72
   55
 73
   8
  0
VERTEX
  8
bottle
 10
0.0
 20
0.0
 30
0.0
 70
   128
 71
   5
 72
   47
 73
   43
  0
VERTEX
  8
bottle
 10
0.0
 20
0.0
 30
0.0
 70
   128
 71
   2
 72
   77
 73
   76
  0
VERTEX
  8
bottle
 10
0.0
 20
0.0
 30
0.0
 70
   128
 71
   74
 72
   70
 73
   69
  0
VERTEX
  8
bottle
 10
0.0
 20
0.0
 30
0.0
 70
   128
 71
   72
 72
   64
 73
   63
  0
VERTEX
  8
bottle
 10
0.0
 20
0.0
 30
0.0
 70
   128
 71
   58
 72
   50
 73
   49
  0
VERTEX
  8
bottle
 10
0.0
 20
0.0
 30
0.0
 70
   128
 71
   59
 72
   51
 73
   50
  0
VERTEX
  8
bottle
 10
0.0
 20
0.0
 30
0.0
 70
   128
 71
   60
 72
   52
 73
   51
  0
VERTEX
  8
bottle
 10
0.0
 20
0.0
 30
0.0
 70
   128
 71
   61
 72
   53
 73
   52
  0
VERTEX
  8
bottle
 10
0.0
 20
0.0
 30
0.0
 70
   128
 71
   62
 72
   54
 73
   53
  0
VERTEX
  8
bottle
 10
0.0
 20
0.0
 30
0.0
 70
   128
 71
   63
 72
   55
 73
   54
  0
VERTEX
  8
bottle
 10
0.0
 20
0.0
 30
0.0
 70
   128
 71
   36
 72
   73
 73
   66
  0
VERTEX
  8
bottle
 10
0.0
 20
0.0
 30
0.0
 70
   128
 71
   80
 72
   77
 73
   3
  0
VERTEX
  8
bottle
 10
0.0
 20
0.0
 30
0.0
 70
   128
 71
   67
 72
   59
 73
   58
  0
VERTEX
  8
bottle
 10
0.0
 20
0.0
 30
0.0
 70
   128
 71
   68
 72
   60
 73
   59
  0
VERTEX
  8
bottle
 10
0.0
 20
0.0
 30
0.0
 70
   128
 71
   69
 72
   61
 73
   60
  0
VERTEX
  8
bottle
 10
0.0
 20
0.0
 30
0.0
 70
   128
 71
   67
 72
   92
 73
   76
  0
VERTEX
  8
bottle
 10
0.0
 20
0.0
 30
0.0
 70
   128
 71
   76
 72
   81
 73
   2
  0
VERTEX
  8
bottle
 10
0.0
 20
0.0
 30
0.0
 70
   128
 71
   2
 72
   82
 73
   6
  0
VERTEX
  8
bottle
 10
0.0
 20
0.0
 30
0.0
 70
   128
 71
   6
 72
   83
 73
   10
  0
VERTEX
  8
bottle
 10
0.0
 20
0.0
 30
0.0
 70
   128
 71
   10
 72
   84
 73
   19
  0
VERTEX
  8
bottle
 10
0.0
 20
0.0
 30
0.0
 70
   128
 71
   19
 72
   85
 73
   28
  0
VERTEX
  8
bottle
 10
0.0
 20
0.0
 30
0.0
 70
   128
 71
   28
 72
   86
 73
   37
  0
VERTEX
  8
bottle
 10
0.0
 20
0.0
 30
0.0
 70
   128
 71
   37
 72
   87
 73
   41
  0
VERTEX
  8
bottle
 10
0.0
 20
0.0
 30
0.0
 70
   128
 71
   41
 72
   88
 73
   45
  0
VERTEX
  8
bottle
 10
0.0
 20
0.0
 30
0.0
 70
   128
 71
   45
 72
   89
 73
   49
  0
VERTEX
  8
bottle
 10
0.0
 20
0.0
 30
0.0
 70
   128
 71
   49
 72
   90
 73
   58
  0
VERTEX
  8
bottle
 10
0.0
 20
0.0
 30
0.0
 70
   128
 71
   90
 72
   103
 73
   91
  0
VERTEX
  8
bottle
 10
0.0
 20
0.0
 30
0.0
 70
   128
 71
   91
 72
   104
 73
   92
  0
VERTEX
  8
bottle
 10
0.0
 20
0.0
 30
0.0
 70
   128
 71
   92
 72
   93
 73
   81
  0
VERTEX
  8
bottle
 10
0.0
 20
0.0
 30
0.0
 70
   128
 71
   81
 72
   94
 73
   82
  0
VERTEX
  8
bottle
 10
0.0
 20
0.0
 30
0.0
 70
   128
 71
   82
 72
   95
 73
   83
  0
VERTEX
  8
bottle
 10
0.0
 20
0.0
 30
0.0
 70
   128
 71
   83
 72
   96
 73
   84
  0
VERTEX
  8
bottle
 10
0.0
 20
0.0
 30
0.0
 70
   128
 71
   84
 72
   97
 73
   85
  0
VERTEX
  8
bottle
 10
0.0
 20
0.0
 30
0.0
 70
   128
 71
   85
 72
   98
 73
   86
  0
VERTEX
  8
bottle
 10
0.0
 20
0.0
 30
0.0
 70
   128
 71
   86
 72
   99
 73
   87
  0
VERTEX
  8
bottle
 10
0.0
 20
0.0
 30
0.0
 70
   128
 71
   87
 72
   100
 73
   88
  0
VERTEX
  8
bottle
 10
0.0
 20
0.0
 30
0.0
 70
   128
 71
   88
 72
   101
 73
   89
  0
VERTEX
  8
bottle
 10
0.0
 20
0.0
 30
0.0
 70
   128
 71
   89
 72
   102
 73
   90
  0
SEQEND
  0
POLYLINE
  8
bottleCap
 66
   1
 10
0.0
 20
0.0
 30
0.0
 70
   64
 71
   60
 72
   116
  0
VERTEX
  8
bottleCap
 10
28.946739
 20
166.482208
 30
16.712408
 70
   192
  0
VERTEX
  8
bottleCap
 10
25.791544
 20
194.603157
 30
14.890755
 70
   192
  0
VERTEX
  8
bottleCap
 10
33.424815
 20
166.482208
 30
0.000000
 70
   192
  0
VERTEX
  8
bottleCap
 10
29.781510
 20
194.603157
 30
0.000000
 70
   192
  0
VERTEX
  8
bottleCap
 10
28.946739
 20
166.482208
 30
-16.712408
 70
   192
  0
VERTEX
  8
bottleCap
 10
25.791544
 20
194.603157
 30
-14.890755
 70
   192
  0
VERTEX
  8
bottleCap
 10
16.712408
 20
166.482208
 30
-28.946739
 70
   192
  0
VERTEX
  8
bottleCap
 10
14.890755
 20
194.603157
 30
-25.791544
 70
   192
  0
VERTEX
  8
bottleCap
 10
0.000000
 20
166.482208
 30
-33.424815
 70
   192
  0
VERTEX
  8
bottleCap
 10
0.000000
 20
194.603157
 30
-29.781510
 70
   192
  0
VERTEX
  8
bottleCap
 10
-16.712408
 20
166.482208
 30
-28.946739
 70
   192
  0
VERTEX
  8
bottleCap
 10
-14.890755
 20
194.603157
 30
-25.791544
 70
   192
  0
VERTEX
  8
bottleCap
 10
-28.946739
 20
166.482208
 30
-16.712408
 70
   192
  0
VERTEX
  8
bottleCap
 10
-25.791544
 20
194.603157
 30
-14.890755
 70
   192
  0
VERTEX
  8
bottleCap
 10
-33.424815
 20
166.482208
 30
-0.000000
 70
   192
  0
VERTEX
  8
bottleCap
 10
-29.781510
 20
194.603157
 30
-0.000000
 70
   192
  0
VERTEX
  8
bottleCap
 10
-28.946739
 20
166.482208
 30
16.712408
 70
   192
  0
VERTEX
  8
bottleCap
 10
-25.791544
 20
194.603157
 30
14.890755
 70
   192
  0
VERTEX
  8
bottleCap
 10
-16.712408
 20
166.482208
 30
28.946739
 70
   192
  0
VERTEX
  8
bottleCap
 10
-14.890755
 20
194.603157
 30
25.791544
 70
   192
  0
VERTEX
  8
bottleCap
 10
-0.000000
 20
166.482208
 30
33.424815
 70
   192
  0
VERTEX
  8
bottleCap
 10
-0.000000
 20
194.603157
 30
29.781510
 70
   192
  0
VERTEX
  8
bottleCap
 10
16.712408
 20
166.482208
 30
28.946739
 70
   192
  0
VERTEX
  8
bottleCap
 10
14.890755
 20
194.603157
 30
25.791544
 70
   192
  0
VERTEX
  8
bottleCap
 10
28.946739
 20
189.146838
 30
16.712408
 70
   192
  0
VERTEX
  8
bottleCap
 10
33.424815
 20
189.146838
 30
0.000000
 70
   192
  0
VERTEX
  8
bottleCap
 10
28.946739
 20
189.146838
 30
-16.712408
 70
   192
  0
VERTEX
  8
bottleCap
 10
16.712408
 20
189.146838
 30
-28.946739
 70
   192
  0
VERTEX
  8
bottleCap
 10
0.000000
 20
189.146838
 30
-33.424815
 70
   192
  0
VERTEX
  8
bottleCap
 10
-16.712408
 20
189.146838
 30
-28.946739
 70
   192
  0
VERTEX
  8
bottleCap
 10
-28.946739
 20
189.146838
 30
-16.712408
 70
   192
  0
VERTEX
  8
bottleCap
 10
-33.424815
 20
189.146838
 30
-0.000000
 70
   192
  0
VERTEX
  8
bottleCap
 10
-28.946739
 20
189.146838
 30
16.712408
 70
   192
  0
VERTEX
  8
bottleCap
 10
-16.712408
 20
189.146838
 30
28.946739
 70
   192
  0
VERTEX
  8
bottleCap
 10
-0.000000
 20
189.146838
 30
33.424815
 70
   192
  0
VERTEX
  8
bottleCap
 10
16.712408
 20
189.146838
 30
28.946739
 70
   192
  0
VERTEX
  8
bottleCap
 10
26.525985
 20
166.482208
 30
15.314785
 70
   192
  0
VERTEX
  8
bottleCap
 10
30.629569
 20
166.482208
 30
-0.000000
 70
   192
  0
VERTEX
  8
bottleCap
 10
26.525985
 20
166.482208
 30
-15.314785
 70
   192
  0
VERTEX
  8
bottleCap
 10
15.314785
 20
166.482208
 30
-26.525985
 70
   192
  0
VERTEX
  8
bottleCap
 10
0.000000
 20
166.482208
 30
-30.629569
 70
   192
  0
VERTEX
  8
bottleCap
 10
-15.314785
 20
166.482208
 30
-26.525985
 70
   192
  0
VERTEX
  8
bottleCap
 10
-26.525985
 20
166.482208
 30
-15.314785
 70
   192
  0
VERTEX
  8
bottleCap
 10
-30.629569
 20
166.482208
 30
-0.000000
 70
   192
  0
VERTEX
  8
bottleCap
 10
-26.525985
 20
166.482208
 30
15.314785
 70
   192
  0
VERTEX
  8
bottleCap
 10
-15.314785
 20
166.482208
 30
26.525985
 70
   192
  0
VERTEX
  8
bottleCap
 10
-0.000000
 20
166.482208
 30
30.629569
 70
   192
  0
VERTEX
  8
bottleCap
 10
15.314785
 20
166.482208
 30
26.525985
 70
   192
  0
VERTEX
  8
bottleCap
 10
25.173160
 20
174.482208
 30
14.533731
 70
   192
  0
VERTEX
  8
bottleCap
 10
29.067461
 20
174.482208
 30
-0.000000
 70
   192
  0
VERTEX
  8
bottleCap
 10
25.173160
 20
174.482208
 30
-14.533731
 70
   192
  0
VERTEX
  8
bottleCap
 10
14.533731
 20
174.482208
 30
-25.173160
 70
   192
  0
VERTEX
  8
bottleCap
 10
0.000000
 20
174.482208
 30
-29.067461
 70
   192
  0
VERTEX
  8
bottleCap
 10
-14.533731
 20
174.482208
 30
-25.173160
 70
   192
  0
VERTEX
  8
bottleCap
 10
-25.173160
 20
174.482208
 30
-14.533731
 70
   192
  0
VERTEX
  8
bottleCap
 10
-29.067461
 20
174.482208
 30
-0.000000
 70
   192
  0
VERTEX
  8
bottleCap
 10
-25.173160
 20
174.482208
 30
14.533731
 70
   192
  0
VERTEX
  8
bottleCap
 10
-14.533731
 20
174.482208
 30
25.173160
 70
   192
  0
VERTEX
  8
bottleCap
 10
-0.000000
 20
174.482208
 30
29.067461
 70
   192
  0
VERTEX
  8
bottleCap
 10
14.533731
 20
174.482208
 30
25.173160
 70
   192
  0
VERTEX
  8
bottleCap
 10
0.0
 20
0.0
 30
0.0
 70
   128
 71
   34
 72
   20
 73
   22
  0
VERTEX
  8
bottleCap
 10
0.0
 20
0.0
 30
0.0
 70
   128
 71
   26
 72
   4
 73
   6
  0
VERTEX
  8
bottleCap
 10
0.0
 20
0.0
 30
0.0
 70
   128
 71
   6
 72
   4
 73
   14
  0
VERTEX
  8
bottleCap
 10
0.0
 20
0.0
 30
0.0
 70
   128
 71
   51
 72
   60
 73
   49
  0
VERTEX
  8
bottleCap
 10
0.0
 20
0.0
 30
0.0
 70
   128
 71
   5
 72
   27
 73
   28
  0
VERTEX
  8
bottleCap
 10
0.0
 20
0.0
 30
0.0
 70
   128
 71
   14
 72
   4
 73
   2
  0
VERTEX
  8
bottleCap
 10
0.0
 20
0.0
 30
0.0
 70
   128
 71
   57
 72
   60
 73
   51
  0
VERTEX
  8
bottleCap
 10
0.0
 20
0.0
 30
0.0
 70
   128
 71
   28
 72
   8
 73
   10
  0
VERTEX
  8
bottleCap
 10
0.0
 20
0.0
 30
0.0
 70
   128
 71
   2
 72
   24
 73
   22
  0
VERTEX
  8
bottleCap
 10
0.0
 20
0.0
 30
0.0
 70
   128
 71
   59
 72
   60
 73
   57
  0
VERTEX
  8
bottleCap
 10
0.0
 20
0.0
 30
0.0
 70
   128
 71
   9
 72
   29
 73
   30
  0
VERTEX
  8
bottleCap
 10
0.0
 20
0.0
 30
0.0
 70
   128
 71
   2
 72
   22
 73
   20
  0
VERTEX
  8
bottleCap
 10
0.0
 20
0.0
 30
0.0
 70
   128
 71
   51
 72
   52
 73
   53
  0
VERTEX
  8
bottleCap
 10
0.0
 20
0.0
 30
0.0
 70
   128
 71
   30
 72
   12
 73
   14
  0
VERTEX
  8
bottleCap
 10
0.0
 20
0.0
 30
0.0
 70
   128
 71
   18
 72
   16
 73
   14
  0
VERTEX
  8
bottleCap
 10
0.0
 20
0.0
 30
0.0
 70
   128
 71
   51
 72
   53
 73
   54
  0
VERTEX
  8
bottleCap
 10
0.0
 20
0.0
 30
0.0
 70
   128
 71
   13
 72
   31
 73
   32
  0
VERTEX
  8
bottleCap
 10
0.0
 20
0.0
 30
0.0
 70
   128
 71
   12
 72
   10
 73
   8
  0
VERTEX
  8
bottleCap
 10
0.0
 20
0.0
 30
0.0
 70
   128
 71
   54
 72
   55
 73
   56
  0
VERTEX
  8
bottleCap
 10
0.0
 20
0.0
 30
0.0
 70
   128
 71
   32
 72
   16
 73
   18
  0
VERTEX
  8
bottleCap
 10
0.0
 20
0.0
 30
0.0
 70
   128
 71
   36
 72
   24
 73
   2
  0
VERTEX
  8
bottleCap
 10
0.0
 20
0.0
 30
0.0
 70
   128
 71
   21
 72
   35
 73
   36
  0
VERTEX
  8
bottleCap
 10
0.0
 20
0.0
 30
0.0
 70
   128
 71
   17
 72
   33
 73
   34
  0
VERTEX
  8
bottleCap
 10
0.0
 20
0.0
 30
0.0
 70
   128
 71
   1
 72
   25
 73
   26
  0
VERTEX
  8
bottleCap
 10
0.0
 20
0.0
 30
0.0
 70
   128
 71
   35
 72
   21
 73
   19
  0
VERTEX
  8
bottleCap
 10
0.0
 20
0.0
 30
0.0
 70
   128
 71
   27
 72
   5
 73
   3
  0
VERTEX
  8
bottleCap
 10
0.0
 20
0.0
 30
0.0
 70
   128
 71
   27
 72
   6
 73
   8
  0
VERTEX
  8
bottleCap
 10
0.0
 20
0.0
 30
0.0
 70
   128
 71
   29
 72
   9
 73
   7
  0
VERTEX
  8
bottleCap
 10
0.0
 20
0.0
 30
0.0
 70
   128
 71
   29
 72
   10
 73
   12
  0
VERTEX
  8
bottleCap
 10
0.0
 20
0.0
 30
0.0
 70
   128
 71
   31
 72
   13
 73
   11
  0
VERTEX
  8
bottleCap
 10
0.0
 20
0.0
 30
0.0
 70
   128
 71
   31
 72
   14
 73
   16
  0
VERTEX
  8
bottleCap
 10
0.0
 20
0.0
 30
0.0
 70
   128
 71
   33
 72
   17
 73
   15
  0
VERTEX
  8
bottleCap
 10
0.0
 20
0.0
 30
0.0
 70
   128
 71
   25
 72
   1
 73
   23
  0
VERTEX
  8
bottleCap
 10
0.0
 20
0.0
 30
0.0
 70
   128
 71
   35
 72
   22
 73
   24
  0
VERTEX
  8
bottleCap
 10
0.0
 20
0.0
 30
0.0
 70
   128
 71
   33
 72
   18
 73
   20
  0
VERTEX
  8
bottleCap
 10
0.0
 20
0.0
 30
0.0
 70
   128
 71
   25
 72
   2
 73
   4
  0
VERTEX
  8
bottleCap
 10
0.0
 20
0.0
 30
0.0
 70
   128
 71
   5
 72
   39
 73
   38
  0
VERTEX
  8
bottleCap
 10
0.0
 20
0.0
 30
0.0
 70
   128
 71
   3
 72
   38
 73
   37
  0
VERTEX
  8
bottleCap
 10
0.0
 20
0.0
 30
0.0
 70
   128
 71
   1
 72
   37
 73
   48
  0
VERTEX
  8
bottleCap
 10
0.0
 20
0.0
 30
0.0
 70
   128
 71
   17
 72
   45
 73
   44
  0
VERTEX
  8
bottleCap
 10
0.0
 20
0.0
 30
0.0
 70
   128
 71
   21
 72
   47
 73
   46
  0
VERTEX
  8
bottleCap
 10
0.0
 20
0.0
 30
0.0
 70
   128
 71
   19
 72
   46
 73
   45
  0
VERTEX
  8
bottleCap
 10
0.0
 20
0.0
 30
0.0
 70
   128
 71
   23
 72
   48
 73
   47
  0
VERTEX
  8
bottleCap
 10
0.0
 20
0.0
 30
0.0
 70
   128
 71
   9
 72
   41
 73
   40
  0
VERTEX
  8
bottleCap
 10
0.0
 20
0.0
 30
0.0
 70
   128
 71
   7
 72
   40
 73
   39
  0
VERTEX
  8
bottleCap
 10
0.0
 20
0.0
 30
0.0
 70
   128
 71
   11
 72
   42
 73
   41
  0
VERTEX
  8
bottleCap
 10
0.0
 20
0.0
 30
0.0
 70
   128
 71
   15
 72
   44
 73
   43
  0
VERTEX
  8
bottleCap
 10
0.0
 20
0.0
 30
0.0
 70
   128
 71
   13
 72
   43
 73
   42
  0
VERTEX
  8
bottleCap
 10
0.0
 20
0.0
 30
0.0
 70
   128
 71
   39
 72
   51
 73
   50
  0
VERTEX
  8
bottleCap
 10
0.0
 20
0.0
 30
0.0
 70
   128
 71
   38
 72
   50
 73
   49
  0
VERTEX
  8
bottleCap
 10
0.0
 20
0.0
 30
0.0
 70
   128
 71
   37
 72
   49
 73
   60
  0
VERTEX
  8
bottleCap
 10
0.0
 20
0.0
 30
0.0
 70
   128
 71
   45
 72
   57
 73
   56
  0
VERTEX
  8
bottleCap
 10
0.0
 20
0.0
 30
0.0
 70
   128
 71
   47
 72
   59
 73
   58
  0
VERTEX
  8
bottleCap
 10
0.0
 20
0.0
 30
0.0
 70
   128
 71
   46
 72
   58
 73
   57
  0
VERTEX
  8
bottleCap
 10
0.0
 20
0.0
 30
0.0
 70
   128
 71
   48
 72
   60
 73
   59
  0
VERTEX
  8
bottleCap
 10
0.0
 20
0.0
 30
0.0
 70
   128
 71
   41
 72
   53
 73
   52
  0
VERTEX
  8
bottleCap
 10
0.0
 20
0.0
 30
0.0
 70
   128
 71
   40
 72
   52
 73
   51
  0
VERTEX
  8
bottleCap
 10
0.0
 20
0.0
 30
0.0
 70
   128
 71
   42
 72
   54
 73
   53
  0
VERTEX
  8
bottleCap
 10
0.0
 20
0.0
 30
0.0
 70
   128
 71
   44
 72
   56
 73
   55
  0
VERTEX
  8
bottleCap
 10
0.0
 20
0.0
 30
0.0
 70
   128
 71
   43
 72
   55
 73
   54
  0
VERTEX
  8
bottleCap
 10
0.0
 20
0.0
 30
0.0
 70
   128
 71
   34
 72
   22
 73
   35
  0
VERTEX
  8
bottleCap
 10
0.0
 20
0.0
 30
0.0
 70
   128
 71
   26
 72
   6
 73
   27
  0
VERTEX
  8
bottleCap
 10
0.0
 20
0.0
 30
0.0
 70
   128
 71
   6
 72
   14
 73
   12
  0
VERTEX
  8
bottleCap
 10
0.0
 20
0.0
 30
0.0
 70
   128
 71
   51
 72
   49
 73
   50
  0
VERTEX
  8
bottleCap
 10
0.0
 20
0.0
 30
0.0
 70
   128
 71
   5
 72
   28
 73
   7
  0
VERTEX
  8
bottleCap
 10
0.0
 20
0.0
 30
0.0
 70
   128
 71
   14
 72
   2
 73
   18
  0
VERTEX
  8
bottleCap
 10
0.0
 20
0.0
 30
0.0
 70
   128
 71
   57
 72
   51
 73
   56
  0
VERTEX
  8
bottleCap
 10
0.0
 20
0.0
 30
0.0
 70
   128
 71
   28
 72
   10
 73
   29
  0
VERTEX
  8
bottleCap
 10
0.0
 20
0.0
 30
0.0
 70
   128
 71
   59
 72
   57
 73
   58
  0
VERTEX
  8
bottleCap
 10
0.0
 20
0.0
 30
0.0
 70
   128
 71
   9
 72
   30
 73
   11
  0
VERTEX
  8
bottleCap
 10
0.0
 20
0.0
 30
0.0
 70
   128
 71
   2
 72
   20
 73
   18
  0
VERTEX
  8
bottleCap
 10
0.0
 20
0.0
 30
0.0
 70
   128
 71
   30
 72
   14
 73
   31
  0
VERTEX
  8
bottleCap
 10
0.0
 20
0.0
 30
0.0
 70
   128
 71
   51
 72
   54
 73
   56
  0
VERTEX
  8
bottleCap
 10
0.0
 20
0.0
 30
0.0
 70
   128
 71
   13
 72
   32
 73
   15
  0
VERTEX
  8
bottleCap
 10
0.0
 20
0.0
 30
0.0
 70
   128
 71
   12
 72
   8
 73
   6
  0
VERTEX
  8
bottleCap
 10
0.0
 20
0.0
 30
0.0
 70
   128
 71
   32
 72
   18
 73
   33
  0
VERTEX
  8
bottleCap
 10
0.0
 20
0.0
 30
0.0
 70
   128
 71
   36
 72
   2
 73
   25
  0
VERTEX
  8
bottleCap
 10
0.0
 20
0.0
 30
0.0
 70
   128
 71
   21
 72
   36
 73
   23
  0
VERTEX
  8
bottleCap
 10
0.0
 20
0.0
 30
0.0
 70
   128
 71
   17
 72
   34
 73
   19
  0
VERTEX
  8
bottleCap
 10
0.0
 20
0.0
 30
0.0
 70
   128
 71
   1
 72
   26
 73
   3
  0
VERTEX
  8
bottleCap
 10
0.0
 20
0.0
 30
0.0
 70
   128
 71
   35
 72
   19
 73
   34
  0
VERTEX
  8
bottleCap
 10
0.0
 20
0.0
 30
0.0
 70
   128
 71
   27
 72
   3
 73
   26
  0
VERTEX
  8
bottleCap
 10
0.0
 20
0.0
 30
0.0
 70
   128
 71
   27
 72
   8
 73
   28
  0
VERTEX
  8
bottleCap
 10
0.0
 20
0.0
 30
0.0
 70
   128
 71
   29
 72
   7
 73
   28
  0
VERTEX
  8
bottleCap
 10
0.0
 20
0.0
 30
0.0
 70
   128
 71
   29
 72
   12
 73
   30
  0
VERTEX
  8
bottleCap
 10
0.0
 20
0.0
 30
0.0
 70
   128
 71
   31
 72
   11
 73
   30
  0
VERTEX
  8
bottleCap
 10
0.0
 20
0.0
 30
0.0
 70
   128
 71
   31
 72
   16
 73
   32
  0
VERTEX
  8
bottleCap
 10
0.0
 20
0.0
 30
0.0
 70
   128
 71
   33
 72
   15
 73
   32
  0
VERTEX
  8
bottleCap
 10
0.0
 20
0.0
 30
0.0
 70
   128
 71
   25
 72
   23
 73
   36
  0
VERTEX
  8
bottleCap
 10
0.0
 20
0.0
 30
0.0
 70
   128
 71
   35
 72
   24
 73
   36
  0
VERTEX
  8
bottleCap
 10
0.0
 20
0.0
 30
0.0
 70
   128
 71
   33
 72
   20
 73
   34
  0
VERTEX
  8
bottleCap
 10
0.0
 20
0.0
 30
0.0
 70
   128
 71
   25
 72
   4
 73
   26
  0
VERTEX
  8
bottleCap
 10
0.0
 20
0.0
 30
0.0
 70
   128
 71
   5
 72
   38
 73
   3
  0
VERTEX
  8
bottleCap
 10
0.0
 20
0.0
 30
0.0
 70
   128
 71
   3
 72
   37
 73
   1
  0
VERTEX
  8
bottleCap
 10
0.0
 20
0.0
 30
0.0
 70
   128
 71
   1
 72
   48
 73
   23
  0
VERTEX
  8
bottleCap
 10
0.0
 20
0.0
 30
0.0
 70
   128
 71
   17
 72
   44
 73
   15
  0
VERTEX
  8
bottleCap
 10
0.0
 20
0.0
 30
0.0
 70
   128
 71
   21
 72
   46
 73
   19
  0
VERTEX
  8
bottleCap
 10
0.0
 20
0.0
 30
0.0
 70
   128
 71
   19
 72
   45
 73
   17
  0
VERTEX
  8
bottleCap
 10
0.0
 20
0.0
 30
0.0
 70
   128
 71
   23
 72
   47
 73
   21
  0
VERTEX
  8
bottleCap
 10
0.0
 20
0.0
 30
0.0
 70
   128
 71
   9
 72
   40
 73
   7
  0
VERTEX
  8
bottleCap
 10
0.0
 20
0.0
 30
0.0
 70
   128
 71
   7
 72
   39
 73
   5
  0
VERTEX
  8
bottleCap
 10
0.0
 20
0.0
 30
0.0
 70
   128
 71
   11
 72
   41
 73
   9
  0
VERTEX
  8
bottleCap
 10
0.0
 20
0.0
 30
0.0
 70
   128
 71
   15
 72
   43
 73
   13
  0
VERTEX
  8
bottleCap
 10
0.0
 20
0.0
 30
0.0
 70
   128
 71
   13
 72
   42
 73
   11
  0
VERTEX
  8
bottleCap
 10
0.0
 20
0.0
 30
0.0
 70
   128
 71
   39
 72
   50
 73
   38
  0
VERTEX
  8
bottleCap
 10
0.0
 20
0.0
 30
0.0
 70
   128
 71
   38
 72
   49
 73
   37
  0
VERTEX
  8
bottleCap
 10
0.0
 20
0.0
 30
0.0
 70
   128
 71
   37
 72
   60
 73
   48
  0
VERTEX
  8
bottleCap
 10
0.0
 20
0.0
 30
0.0
 70
   128
 71
   45
 72
   56
 73
   44
  0
VERTEX
  8
bottleCap
 10
0.0
 20
0.0
 30
0.0
 70
   128
 71
   47
 72
   58
 73
   46
  0
VERTEX
  8
bottleCap
 10
0.0
 20
0.0
 30
0.0
 70
   128
 71
   46
 72
   57
 73
   45
  0
VERTEX
  8
bottleCap
 10
0.0
 20
0.0
 30
0.0
 70
   128
 71
   48
 72
   59
 73
   47
  0
VERTEX
  8
bottleCap
 10
0.0
 20
0.0
 30
0.0
 70
   128
 71
   41
 72
   52
 73
   40
  0
VERTEX
  8
bottleCap
 10
0.0
 20
0.0
 30
0.0
 70
   128
 71
   40
 72
   51
 73
   39
  0
VERTEX
  8
bottleCap
 10
0.0
 20
0.0
 30
0.0
 70
   128
 71
   42
 72
   53
 73
   41
  0
VERTEX
  8
bottleCap
 10
0.0
 20
0.0
 30
0.0
 70
   128
 71
   44
 72
   55
 73
   43
  0
VERTEX
  8
bottleCap
 10
0.0
 20
0.0
 30
0.0
 70
   128
 71
   43
 72
   54
 73
   42
  0
SEQEND
  0
ENDSEC
  0
EOF
