999
FBX AutoCAD (*.DXF) exporter
  0
SECTION
  2
HEADER
  9
$ACADVER
  1
AC1008
  9
$UCSORG
 10
0.0
 20
0.0
 30
0.0
  9
$UCSXDIR
 10
1.0
 20
0.0
 30
0.0
  9
$TILEMODE
 70
   1
  9
$UCSYDIR
 10
0.0
 20
1.0
 30
0.0
  0
ENDSEC
  0
SECTION
  2
TABLES
  0
TABLE
  2
LTYPE
 70
   1
  0
LTYPE
  2
CONTINUOUS
 70
   64
  3
Solid line
 72
   65
 73
   0
 40
0.0
  0
ENDTAB
  0
TABLE
  2
LAYER
 70
   1
  0
LAYER
  2
Lollipop02
 70
   0
 62
   250
  6
CONTINUOUS
  0
ENDTAB
  0
ENDSEC
  0
SECTION
  2
BLOCKS
  0
ENDSEC
  0
SECTION
  2
ENTITIES
  0
POLYLINE
  8
Lollipop02
 66
   1
 10
0.0
 20
0.0
 30
0.0
 70
   64
 71
   111
 72
   218
  0
VERTEX
  8
Lollipop02
 10
5.367873
 20
71.648915
 30
3.899988
 70
   192
  0
VERTEX
  8
Lollipop02
 10
0.000000
 20
163.493054
 30
0.000000
 70
   192
  0
VERTEX
  8
Lollipop02
 10
27.625907
 20
78.469256
 30
0.000000
 70
   192
  0
VERTEX
  8
Lollipop02
 10
22.349828
 20
78.469256
 30
-16.238101
 70
   192
  0
VERTEX
  8
Lollipop02
 10
8.536875
 20
78.469256
 30
-26.273799
 70
   192
  0
VERTEX
  8
Lollipop02
 10
-8.536875
 20
78.469256
 30
-26.273799
 70
   192
  0
VERTEX
  8
Lollipop02
 10
-22.349828
 20
78.469256
 30
-16.238101
 70
   192
  0
VERTEX
  8
Lollipop02
 10
-27.625907
 20
78.469256
 30
-0.000000
 70
   192
  0
VERTEX
  8
Lollipop02
 10
-22.349828
 20
78.469256
 30
16.238101
 70
   192
  0
VERTEX
  8
Lollipop02
 10
-8.536875
 20
78.469256
 30
26.273799
 70
   192
  0
VERTEX
  8
Lollipop02
 10
8.536875
 20
78.469256
 30
26.273799
 70
   192
  0
VERTEX
  8
Lollipop02
 10
22.349828
 20
78.469256
 30
16.238101
 70
   192
  0
VERTEX
  8
Lollipop02
 10
44.699656
 20
101.969256
 30
0.000000
 70
   192
  0
VERTEX
  8
Lollipop02
 10
36.162782
 20
101.969256
 30
-26.273799
 70
   192
  0
VERTEX
  8
Lollipop02
 10
13.812953
 20
101.969256
 30
-42.511899
 70
   192
  0
VERTEX
  8
Lollipop02
 10
-13.812953
 20
101.969256
 30
-42.511899
 70
   192
  0
VERTEX
  8
Lollipop02
 10
-36.162782
 20
101.969256
 30
-26.273799
 70
   192
  0
VERTEX
  8
Lollipop02
 10
-44.699656
 20
101.969256
 30
-0.000000
 70
   192
  0
VERTEX
  8
Lollipop02
 10
-36.162782
 20
101.969256
 30
26.273799
 70
   192
  0
VERTEX
  8
Lollipop02
 10
-13.812953
 20
101.969256
 30
42.511899
 70
   192
  0
VERTEX
  8
Lollipop02
 10
13.812953
 20
101.969256
 30
42.511899
 70
   192
  0
VERTEX
  8
Lollipop02
 10
36.162782
 20
101.969256
 30
26.273799
 70
   192
  0
VERTEX
  8
Lollipop02
 10
44.699656
 20
131.016853
 30
0.000000
 70
   192
  0
VERTEX
  8
Lollipop02
 10
36.162782
 20
131.016853
 30
-26.273799
 70
   192
  0
VERTEX
  8
Lollipop02
 10
13.812953
 20
131.016853
 30
-42.511899
 70
   192
  0
VERTEX
  8
Lollipop02
 10
-13.812953
 20
131.016853
 30
-42.511899
 70
   192
  0
VERTEX
  8
Lollipop02
 10
-36.162782
 20
131.016853
 30
-26.273799
 70
   192
  0
VERTEX
  8
Lollipop02
 10
-44.699656
 20
131.016853
 30
-0.000000
 70
   192
  0
VERTEX
  8
Lollipop02
 10
-36.162782
 20
131.016853
 30
26.273799
 70
   192
  0
VERTEX
  8
Lollipop02
 10
-13.812953
 20
131.016853
 30
42.511899
 70
   192
  0
VERTEX
  8
Lollipop02
 10
13.812953
 20
131.016853
 30
42.511899
 70
   192
  0
VERTEX
  8
Lollipop02
 10
36.162782
 20
131.016853
 30
26.273799
 70
   192
  0
VERTEX
  8
Lollipop02
 10
27.625907
 20
154.516853
 30
0.000000
 70
   192
  0
VERTEX
  8
Lollipop02
 10
22.349828
 20
154.516853
 30
-16.238101
 70
   192
  0
VERTEX
  8
Lollipop02
 10
8.536875
 20
154.516853
 30
-26.273799
 70
   192
  0
VERTEX
  8
Lollipop02
 10
-8.536875
 20
154.516853
 30
-26.273799
 70
   192
  0
VERTEX
  8
Lollipop02
 10
-22.349828
 20
154.516853
 30
-16.238101
 70
   192
  0
VERTEX
  8
Lollipop02
 10
-27.625907
 20
154.516853
 30
-0.000000
 70
   192
  0
VERTEX
  8
Lollipop02
 10
-22.349828
 20
154.516853
 30
16.238101
 70
   192
  0
VERTEX
  8
Lollipop02
 10
-8.536875
 20
154.516853
 30
26.273799
 70
   192
  0
VERTEX
  8
Lollipop02
 10
8.536875
 20
154.516853
 30
26.273799
 70
   192
  0
VERTEX
  8
Lollipop02
 10
22.349828
 20
154.516853
 30
16.238101
 70
   192
  0
VERTEX
  8
Lollipop02
 10
44.699656
 20
118.593515
 30
0.000000
 70
   192
  0
VERTEX
  8
Lollipop02
 10
36.162782
 20
118.593515
 30
-26.273799
 70
   192
  0
VERTEX
  8
Lollipop02
 10
13.812953
 20
118.593515
 30
-42.511899
 70
   192
  0
VERTEX
  8
Lollipop02
 10
-13.812953
 20
118.593515
 30
-42.511899
 70
   192
  0
VERTEX
  8
Lollipop02
 10
-36.162782
 20
118.593515
 30
-26.273799
 70
   192
  0
VERTEX
  8
Lollipop02
 10
-44.699656
 20
118.593515
 30
-0.000000
 70
   192
  0
VERTEX
  8
Lollipop02
 10
-36.162782
 20
118.593515
 30
26.273799
 70
   192
  0
VERTEX
  8
Lollipop02
 10
-13.812953
 20
118.593515
 30
42.511899
 70
   192
  0
VERTEX
  8
Lollipop02
 10
13.812953
 20
118.593515
 30
42.511899
 70
   192
  0
VERTEX
  8
Lollipop02
 10
36.162782
 20
118.593515
 30
26.273799
 70
   192
  0
VERTEX
  8
Lollipop02
 10
44.699656
 20
112.016758
 30
0.000000
 70
   192
  0
VERTEX
  8
Lollipop02
 10
36.162782
 20
112.016758
 30
-26.273799
 70
   192
  0
VERTEX
  8
Lollipop02
 10
13.812953
 20
112.016758
 30
-42.511899
 70
   192
  0
VERTEX
  8
Lollipop02
 10
-13.812953
 20
112.016758
 30
-42.511899
 70
   192
  0
VERTEX
  8
Lollipop02
 10
-36.162782
 20
112.016758
 30
-26.273799
 70
   192
  0
VERTEX
  8
Lollipop02
 10
-44.699656
 20
112.016758
 30
-0.000000
 70
   192
  0
VERTEX
  8
Lollipop02
 10
-36.162782
 20
112.016758
 30
26.273799
 70
   192
  0
VERTEX
  8
Lollipop02
 10
-13.812953
 20
112.016758
 30
42.511899
 70
   192
  0
VERTEX
  8
Lollipop02
 10
13.812953
 20
112.016758
 30
42.511899
 70
   192
  0
VERTEX
  8
Lollipop02
 10
36.162782
 20
112.016758
 30
26.273799
 70
   192
  0
VERTEX
  8
Lollipop02
 10
48.905505
 20
118.593515
 30
0.000000
 70
   192
  0
VERTEX
  8
Lollipop02
 10
39.565385
 20
118.593515
 30
-28.745935
 70
   192
  0
VERTEX
  8
Lollipop02
 10
15.112632
 20
118.593515
 30
-46.511899
 70
   192
  0
VERTEX
  8
Lollipop02
 10
-15.112632
 20
118.593515
 30
-46.511899
 70
   192
  0
VERTEX
  8
Lollipop02
 10
-39.565385
 20
118.593515
 30
-28.745935
 70
   192
  0
VERTEX
  8
Lollipop02
 10
-48.905505
 20
118.593515
 30
-0.000000
 70
   192
  0
VERTEX
  8
Lollipop02
 10
-39.565385
 20
118.593515
 30
28.745935
 70
   192
  0
VERTEX
  8
Lollipop02
 10
-15.112632
 20
118.593515
 30
46.511899
 70
   192
  0
VERTEX
  8
Lollipop02
 10
15.112632
 20
118.593515
 30
46.511899
 70
   192
  0
VERTEX
  8
Lollipop02
 10
39.565385
 20
118.593515
 30
28.745935
 70
   192
  0
VERTEX
  8
Lollipop02
 10
48.905505
 20
112.016758
 30
0.000000
 70
   192
  0
VERTEX
  8
Lollipop02
 10
39.565385
 20
112.016758
 30
-28.745935
 70
   192
  0
VERTEX
  8
Lollipop02
 10
15.112632
 20
112.016758
 30
-46.511899
 70
   192
  0
VERTEX
  8
Lollipop02
 10
-15.112632
 20
112.016758
 30
-46.511899
 70
   192
  0
VERTEX
  8
Lollipop02
 10
-39.565385
 20
112.016758
 30
-28.745935
 70
   192
  0
VERTEX
  8
Lollipop02
 10
-48.905505
 20
112.016758
 30
-0.000000
 70
   192
  0
VERTEX
  8
Lollipop02
 10
-39.565385
 20
112.016758
 30
28.745935
 70
   192
  0
VERTEX
  8
Lollipop02
 10
-15.112632
 20
112.016758
 30
46.511899
 70
   192
  0
VERTEX
  8
Lollipop02
 10
15.112632
 20
112.016758
 30
46.511899
 70
   192
  0
VERTEX
  8
Lollipop02
 10
39.565385
 20
112.016758
 30
28.745935
 70
   192
  0
VERTEX
  8
Lollipop02
 10
4.474090
 20
70.946775
 30
0.000000
 70
   192
  0
VERTEX
  8
Lollipop02
 10
3.619615
 20
70.946775
 30
-2.629804
 70
   192
  0
VERTEX
  8
Lollipop02
 10
1.382570
 20
70.946775
 30
-4.255113
 70
   192
  0
VERTEX
  8
Lollipop02
 10
-1.382570
 20
70.946775
 30
-4.255113
 70
   192
  0
VERTEX
  8
Lollipop02
 10
-3.619615
 20
70.946775
 30
-2.629804
 70
   192
  0
VERTEX
  8
Lollipop02
 10
-4.474090
 20
70.946775
 30
-0.000000
 70
   192
  0
VERTEX
  8
Lollipop02
 10
-3.619615
 20
70.946775
 30
2.629804
 70
   192
  0
VERTEX
  8
Lollipop02
 10
-1.382570
 20
70.946775
 30
4.255113
 70
   192
  0
VERTEX
  8
Lollipop02
 10
1.382570
 20
70.946775
 30
4.255113
 70
   192
  0
VERTEX
  8
Lollipop02
 10
3.619615
 20
70.946775
 30
2.629804
 70
   192
  0
VERTEX
  8
Lollipop02
 10
4.216708
 20
1.040620
 30
-0.000000
 70
   192
  0
VERTEX
  8
Lollipop02
 10
3.411389
 20
1.040620
 30
-2.478519
 70
   192
  0
VERTEX
  8
Lollipop02
 10
1.303034
 20
1.040620
 30
-4.010328
 70
   192
  0
VERTEX
  8
Lollipop02
 10
-1.303034
 20
1.040620
 30
-4.010328
 70
   192
  0
VERTEX
  8
Lollipop02
 10
-3.411389
 20
1.040620
 30
-2.478519
 70
   192
  0
VERTEX
  8
Lollipop02
 10
-4.216708
 20
1.040620
 30
-0.000000
 70
   192
  0
VERTEX
  8
Lollipop02
 10
-3.411389
 20
1.040620
 30
2.478519
 70
   192
  0
VERTEX
  8
Lollipop02
 10
-1.303034
 20
1.040620
 30
4.010328
 70
   192
  0
VERTEX
  8
Lollipop02
 10
1.303034
 20
1.040620
 30
4.010328
 70
   192
  0
VERTEX
  8
Lollipop02
 10
3.411389
 20
1.040620
 30
2.478519
 70
   192
  0
VERTEX
  8
Lollipop02
 10
6.635056
 20
71.648915
 30
0.000000
 70
   192
  0
VERTEX
  8
Lollipop02
 10
5.367873
 20
71.648915
 30
-3.899988
 70
   192
  0
VERTEX
  8
Lollipop02
 10
2.050345
 20
71.648915
 30
-6.310313
 70
   192
  0
VERTEX
  8
Lollipop02
 10
-2.050345
 20
71.648915
 30
-6.310313
 70
   192
  0
VERTEX
  8
Lollipop02
 10
-5.367873
 20
71.648915
 30
-3.899988
 70
   192
  0
VERTEX
  8
Lollipop02
 10
-6.635056
 20
71.648915
 30
-0.000000
 70
   192
  0
VERTEX
  8
Lollipop02
 10
-5.367873
 20
71.648915
 30
3.899988
 70
   192
  0
VERTEX
  8
Lollipop02
 10
-2.050345
 20
71.648915
 30
6.310313
 70
   192
  0
VERTEX
  8
Lollipop02
 10
2.050345
 20
71.648915
 30
6.310313
 70
   192
  0
VERTEX
  8
Lollipop02
 10
0.0
 20
0.0
 30
0.0
 70
   128
 71
   3
 72
   13
 73
   14
  0
VERTEX
  8
Lollipop02
 10
0.0
 20
0.0
 30
0.0
 70
   128
 71
   4
 72
   14
 73
   15
  0
VERTEX
  8
Lollipop02
 10
0.0
 20
0.0
 30
0.0
 70
   128
 71
   5
 72
   15
 73
   16
  0
VERTEX
  8
Lollipop02
 10
0.0
 20
0.0
 30
0.0
 70
   128
 71
   6
 72
   16
 73
   17
  0
VERTEX
  8
Lollipop02
 10
0.0
 20
0.0
 30
0.0
 70
   128
 71
   7
 72
   17
 73
   18
  0
VERTEX
  8
Lollipop02
 10
0.0
 20
0.0
 30
0.0
 70
   128
 71
   8
 72
   18
 73
   19
  0
VERTEX
  8
Lollipop02
 10
0.0
 20
0.0
 30
0.0
 70
   128
 71
   9
 72
   19
 73
   20
  0
VERTEX
  8
Lollipop02
 10
0.0
 20
0.0
 30
0.0
 70
   128
 71
   10
 72
   20
 73
   21
  0
VERTEX
  8
Lollipop02
 10
0.0
 20
0.0
 30
0.0
 70
   128
 71
   11
 72
   21
 73
   22
  0
VERTEX
  8
Lollipop02
 10
0.0
 20
0.0
 30
0.0
 70
   128
 71
   12
 72
   22
 73
   13
  0
VERTEX
  8
Lollipop02
 10
0.0
 20
0.0
 30
0.0
 70
   128
 71
   13
 72
   53
 73
   54
  0
VERTEX
  8
Lollipop02
 10
0.0
 20
0.0
 30
0.0
 70
   128
 71
   44
 72
   24
 73
   25
  0
VERTEX
  8
Lollipop02
 10
0.0
 20
0.0
 30
0.0
 70
   128
 71
   15
 72
   55
 73
   56
  0
VERTEX
  8
Lollipop02
 10
0.0
 20
0.0
 30
0.0
 70
   128
 71
   46
 72
   26
 73
   27
  0
VERTEX
  8
Lollipop02
 10
0.0
 20
0.0
 30
0.0
 70
   128
 71
   17
 72
   57
 73
   58
  0
VERTEX
  8
Lollipop02
 10
0.0
 20
0.0
 30
0.0
 70
   128
 71
   48
 72
   28
 73
   29
  0
VERTEX
  8
Lollipop02
 10
0.0
 20
0.0
 30
0.0
 70
   128
 71
   19
 72
   59
 73
   60
  0
VERTEX
  8
Lollipop02
 10
0.0
 20
0.0
 30
0.0
 70
   128
 71
   50
 72
   30
 73
   31
  0
VERTEX
  8
Lollipop02
 10
0.0
 20
0.0
 30
0.0
 70
   128
 71
   21
 72
   61
 73
   62
  0
VERTEX
  8
Lollipop02
 10
0.0
 20
0.0
 30
0.0
 70
   128
 71
   52
 72
   32
 73
   23
  0
VERTEX
  8
Lollipop02
 10
0.0
 20
0.0
 30
0.0
 70
   128
 71
   23
 72
   33
 73
   34
  0
VERTEX
  8
Lollipop02
 10
0.0
 20
0.0
 30
0.0
 70
   128
 71
   24
 72
   34
 73
   35
  0
VERTEX
  8
Lollipop02
 10
0.0
 20
0.0
 30
0.0
 70
   128
 71
   25
 72
   35
 73
   36
  0
VERTEX
  8
Lollipop02
 10
0.0
 20
0.0
 30
0.0
 70
   128
 71
   26
 72
   36
 73
   37
  0
VERTEX
  8
Lollipop02
 10
0.0
 20
0.0
 30
0.0
 70
   128
 71
   27
 72
   37
 73
   38
  0
VERTEX
  8
Lollipop02
 10
0.0
 20
0.0
 30
0.0
 70
   128
 71
   28
 72
   38
 73
   39
  0
VERTEX
  8
Lollipop02
 10
0.0
 20
0.0
 30
0.0
 70
   128
 71
   29
 72
   39
 73
   40
  0
VERTEX
  8
Lollipop02
 10
0.0
 20
0.0
 30
0.0
 70
   128
 71
   30
 72
   40
 73
   41
  0
VERTEX
  8
Lollipop02
 10
0.0
 20
0.0
 30
0.0
 70
   128
 71
   31
 72
   41
 73
   42
  0
VERTEX
  8
Lollipop02
 10
0.0
 20
0.0
 30
0.0
 70
   128
 71
   32
 72
   42
 73
   33
  0
VERTEX
  8
Lollipop02
 10
0.0
 20
0.0
 30
0.0
 70
   128
 71
   101
 72
   102
 73
   93
  0
VERTEX
  8
Lollipop02
 10
0.0
 20
0.0
 30
0.0
 70
   128
 71
   34
 72
   33
 73
   2
  0
VERTEX
  8
Lollipop02
 10
0.0
 20
0.0
 30
0.0
 70
   128
 71
   93
 72
   94
 73
   95
  0
VERTEX
  8
Lollipop02
 10
0.0
 20
0.0
 30
0.0
 70
   128
 71
   35
 72
   34
 73
   2
  0
VERTEX
  8
Lollipop02
 10
0.0
 20
0.0
 30
0.0
 70
   128
 71
   93
 72
   96
 73
   99
  0
VERTEX
  8
Lollipop02
 10
0.0
 20
0.0
 30
0.0
 70
   128
 71
   36
 72
   35
 73
   2
  0
VERTEX
  8
Lollipop02
 10
0.0
 20
0.0
 30
0.0
 70
   128
 71
   96
 72
   97
 73
   98
  0
VERTEX
  8
Lollipop02
 10
0.0
 20
0.0
 30
0.0
 70
   128
 71
   37
 72
   36
 73
   2
  0
VERTEX
  8
Lollipop02
 10
0.0
 20
0.0
 30
0.0
 70
   128
 71
   107
 72
   7
 73
   8
  0
VERTEX
  8
Lollipop02
 10
0.0
 20
0.0
 30
0.0
 70
   128
 71
   38
 72
   37
 73
   2
  0
VERTEX
  8
Lollipop02
 10
0.0
 20
0.0
 30
0.0
 70
   128
 71
   109
 72
   89
 73
   88
  0
VERTEX
  8
Lollipop02
 10
0.0
 20
0.0
 30
0.0
 70
   128
 71
   39
 72
   38
 73
   2
  0
VERTEX
  8
Lollipop02
 10
0.0
 20
0.0
 30
0.0
 70
   128
 71
   109
 72
   9
 73
   10
  0
VERTEX
  8
Lollipop02
 10
0.0
 20
0.0
 30
0.0
 70
   128
 71
   40
 72
   39
 73
   2
  0
VERTEX
  8
Lollipop02
 10
0.0
 20
0.0
 30
0.0
 70
   128
 71
   111
 72
   91
 73
   90
  0
VERTEX
  8
Lollipop02
 10
0.0
 20
0.0
 30
0.0
 70
   128
 71
   41
 72
   40
 73
   2
  0
VERTEX
  8
Lollipop02
 10
0.0
 20
0.0
 30
0.0
 70
   128
 71
   111
 72
   11
 73
   12
  0
VERTEX
  8
Lollipop02
 10
0.0
 20
0.0
 30
0.0
 70
   128
 71
   42
 72
   41
 73
   2
  0
VERTEX
  8
Lollipop02
 10
0.0
 20
0.0
 30
0.0
 70
   128
 71
   103
 72
   83
 73
   92
  0
VERTEX
  8
Lollipop02
 10
0.0
 20
0.0
 30
0.0
 70
   128
 71
   33
 72
   42
 73
   2
  0
VERTEX
  8
Lollipop02
 10
0.0
 20
0.0
 30
0.0
 70
   128
 71
   43
 72
   23
 73
   24
  0
VERTEX
  8
Lollipop02
 10
0.0
 20
0.0
 30
0.0
 70
   128
 71
   65
 72
   75
 73
   74
  0
VERTEX
  8
Lollipop02
 10
0.0
 20
0.0
 30
0.0
 70
   128
 71
   45
 72
   25
 73
   26
  0
VERTEX
  8
Lollipop02
 10
0.0
 20
0.0
 30
0.0
 70
   128
 71
   67
 72
   77
 73
   76
  0
VERTEX
  8
Lollipop02
 10
0.0
 20
0.0
 30
0.0
 70
   128
 71
   47
 72
   27
 73
   28
  0
VERTEX
  8
Lollipop02
 10
0.0
 20
0.0
 30
0.0
 70
   128
 71
   69
 72
   79
 73
   78
  0
VERTEX
  8
Lollipop02
 10
0.0
 20
0.0
 30
0.0
 70
   128
 71
   49
 72
   29
 73
   30
  0
VERTEX
  8
Lollipop02
 10
0.0
 20
0.0
 30
0.0
 70
   128
 71
   71
 72
   81
 73
   80
  0
VERTEX
  8
Lollipop02
 10
0.0
 20
0.0
 30
0.0
 70
   128
 71
   51
 72
   31
 73
   32
  0
VERTEX
  8
Lollipop02
 10
0.0
 20
0.0
 30
0.0
 70
   128
 71
   63
 72
   73
 73
   82
  0
VERTEX
  8
Lollipop02
 10
0.0
 20
0.0
 30
0.0
 70
   128
 71
   73
 72
   63
 73
   64
  0
VERTEX
  8
Lollipop02
 10
0.0
 20
0.0
 30
0.0
 70
   128
 71
   75
 72
   65
 73
   66
  0
VERTEX
  8
Lollipop02
 10
0.0
 20
0.0
 30
0.0
 70
   128
 71
   77
 72
   67
 73
   68
  0
VERTEX
  8
Lollipop02
 10
0.0
 20
0.0
 30
0.0
 70
   128
 71
   79
 72
   69
 73
   70
  0
VERTEX
  8
Lollipop02
 10
0.0
 20
0.0
 30
0.0
 70
   128
 71
   81
 72
   71
 73
   72
  0
VERTEX
  8
Lollipop02
 10
0.0
 20
0.0
 30
0.0
 70
   128
 71
   55
 72
   15
 73
   14
  0
VERTEX
  8
Lollipop02
 10
0.0
 20
0.0
 30
0.0
 70
   128
 71
   57
 72
   17
 73
   16
  0
VERTEX
  8
Lollipop02
 10
0.0
 20
0.0
 30
0.0
 70
   128
 71
   59
 72
   19
 73
   18
  0
VERTEX
  8
Lollipop02
 10
0.0
 20
0.0
 30
0.0
 70
   128
 71
   61
 72
   21
 73
   20
  0
VERTEX
  8
Lollipop02
 10
0.0
 20
0.0
 30
0.0
 70
   128
 71
   53
 72
   13
 73
   22
  0
VERTEX
  8
Lollipop02
 10
0.0
 20
0.0
 30
0.0
 70
   128
 71
   45
 72
   65
 73
   64
  0
VERTEX
  8
Lollipop02
 10
0.0
 20
0.0
 30
0.0
 70
   128
 71
   54
 72
   74
 73
   75
  0
VERTEX
  8
Lollipop02
 10
0.0
 20
0.0
 30
0.0
 70
   128
 71
   47
 72
   67
 73
   66
  0
VERTEX
  8
Lollipop02
 10
0.0
 20
0.0
 30
0.0
 70
   128
 71
   56
 72
   76
 73
   77
  0
VERTEX
  8
Lollipop02
 10
0.0
 20
0.0
 30
0.0
 70
   128
 71
   49
 72
   69
 73
   68
  0
VERTEX
  8
Lollipop02
 10
0.0
 20
0.0
 30
0.0
 70
   128
 71
   58
 72
   78
 73
   79
  0
VERTEX
  8
Lollipop02
 10
0.0
 20
0.0
 30
0.0
 70
   128
 71
   51
 72
   71
 73
   70
  0
VERTEX
  8
Lollipop02
 10
0.0
 20
0.0
 30
0.0
 70
   128
 71
   60
 72
   80
 73
   81
  0
VERTEX
  8
Lollipop02
 10
0.0
 20
0.0
 30
0.0
 70
   128
 71
   43
 72
   63
 73
   72
  0
VERTEX
  8
Lollipop02
 10
0.0
 20
0.0
 30
0.0
 70
   128
 71
   62
 72
   82
 73
   73
  0
VERTEX
  8
Lollipop02
 10
0.0
 20
0.0
 30
0.0
 70
   128
 71
   53
 72
   73
 73
   74
  0
VERTEX
  8
Lollipop02
 10
0.0
 20
0.0
 30
0.0
 70
   128
 71
   44
 72
   64
 73
   63
  0
VERTEX
  8
Lollipop02
 10
0.0
 20
0.0
 30
0.0
 70
   128
 71
   55
 72
   75
 73
   76
  0
VERTEX
  8
Lollipop02
 10
0.0
 20
0.0
 30
0.0
 70
   128
 71
   46
 72
   66
 73
   65
  0
VERTEX
  8
Lollipop02
 10
0.0
 20
0.0
 30
0.0
 70
   128
 71
   57
 72
   77
 73
   78
  0
VERTEX
  8
Lollipop02
 10
0.0
 20
0.0
 30
0.0
 70
   128
 71
   48
 72
   68
 73
   67
  0
VERTEX
  8
Lollipop02
 10
0.0
 20
0.0
 30
0.0
 70
   128
 71
   59
 72
   79
 73
   80
  0
VERTEX
  8
Lollipop02
 10
0.0
 20
0.0
 30
0.0
 70
   128
 71
   50
 72
   70
 73
   69
  0
VERTEX
  8
Lollipop02
 10
0.0
 20
0.0
 30
0.0
 70
   128
 71
   61
 72
   81
 73
   82
  0
VERTEX
  8
Lollipop02
 10
0.0
 20
0.0
 30
0.0
 70
   128
 71
   52
 72
   72
 73
   71
  0
VERTEX
  8
Lollipop02
 10
0.0
 20
0.0
 30
0.0
 70
   128
 71
   83
 72
   103
 73
   104
  0
VERTEX
  8
Lollipop02
 10
0.0
 20
0.0
 30
0.0
 70
   128
 71
   104
 72
   4
 73
   5
  0
VERTEX
  8
Lollipop02
 10
0.0
 20
0.0
 30
0.0
 70
   128
 71
   85
 72
   105
 73
   106
  0
VERTEX
  8
Lollipop02
 10
0.0
 20
0.0
 30
0.0
 70
   128
 71
   106
 72
   6
 73
   7
  0
VERTEX
  8
Lollipop02
 10
0.0
 20
0.0
 30
0.0
 70
   128
 71
   87
 72
   107
 73
   108
  0
VERTEX
  8
Lollipop02
 10
0.0
 20
0.0
 30
0.0
 70
   128
 71
   108
 72
   8
 73
   9
  0
VERTEX
  8
Lollipop02
 10
0.0
 20
0.0
 30
0.0
 70
   128
 71
   89
 72
   109
 73
   110
  0
VERTEX
  8
Lollipop02
 10
0.0
 20
0.0
 30
0.0
 70
   128
 71
   110
 72
   10
 73
   11
  0
VERTEX
  8
Lollipop02
 10
0.0
 20
0.0
 30
0.0
 70
   128
 71
   91
 72
   111
 73
   1
  0
VERTEX
  8
Lollipop02
 10
0.0
 20
0.0
 30
0.0
 70
   128
 71
   1
 72
   12
 73
   3
  0
VERTEX
  8
Lollipop02
 10
0.0
 20
0.0
 30
0.0
 70
   128
 71
   84
 72
   94
 73
   93
  0
VERTEX
  8
Lollipop02
 10
0.0
 20
0.0
 30
0.0
 70
   128
 71
   85
 72
   95
 73
   94
  0
VERTEX
  8
Lollipop02
 10
0.0
 20
0.0
 30
0.0
 70
   128
 71
   86
 72
   96
 73
   95
  0
VERTEX
  8
Lollipop02
 10
0.0
 20
0.0
 30
0.0
 70
   128
 71
   87
 72
   97
 73
   96
  0
VERTEX
  8
Lollipop02
 10
0.0
 20
0.0
 30
0.0
 70
   128
 71
   88
 72
   98
 73
   97
  0
VERTEX
  8
Lollipop02
 10
0.0
 20
0.0
 30
0.0
 70
   128
 71
   89
 72
   99
 73
   98
  0
VERTEX
  8
Lollipop02
 10
0.0
 20
0.0
 30
0.0
 70
   128
 71
   90
 72
   100
 73
   99
  0
VERTEX
  8
Lollipop02
 10
0.0
 20
0.0
 30
0.0
 70
   128
 71
   91
 72
   101
 73
   100
  0
VERTEX
  8
Lollipop02
 10
0.0
 20
0.0
 30
0.0
 70
   128
 71
   92
 72
   102
 73
   101
  0
VERTEX
  8
Lollipop02
 10
0.0
 20
0.0
 30
0.0
 70
   128
 71
   83
 72
   93
 73
   102
  0
VERTEX
  8
Lollipop02
 10
0.0
 20
0.0
 30
0.0
 70
   128
 71
   103
 72
   3
 73
   4
  0
VERTEX
  8
Lollipop02
 10
0.0
 20
0.0
 30
0.0
 70
   128
 71
   105
 72
   85
 73
   84
  0
VERTEX
  8
Lollipop02
 10
0.0
 20
0.0
 30
0.0
 70
   128
 71
   105
 72
   5
 73
   6
  0
VERTEX
  8
Lollipop02
 10
0.0
 20
0.0
 30
0.0
 70
   128
 71
   107
 72
   87
 73
   86
  0
VERTEX
  8
Lollipop02
 10
0.0
 20
0.0
 30
0.0
 70
   128
 71
   3
 72
   14
 73
   4
  0
VERTEX
  8
Lollipop02
 10
0.0
 20
0.0
 30
0.0
 70
   128
 71
   4
 72
   15
 73
   5
  0
VERTEX
  8
Lollipop02
 10
0.0
 20
0.0
 30
0.0
 70
   128
 71
   5
 72
   16
 73
   6
  0
VERTEX
  8
Lollipop02
 10
0.0
 20
0.0
 30
0.0
 70
   128
 71
   6
 72
   17
 73
   7
  0
VERTEX
  8
Lollipop02
 10
0.0
 20
0.0
 30
0.0
 70
   128
 71
   7
 72
   18
 73
   8
  0
VERTEX
  8
Lollipop02
 10
0.0
 20
0.0
 30
0.0
 70
   128
 71
   8
 72
   19
 73
   9
  0
VERTEX
  8
Lollipop02
 10
0.0
 20
0.0
 30
0.0
 70
   128
 71
   9
 72
   20
 73
   10
  0
VERTEX
  8
Lollipop02
 10
0.0
 20
0.0
 30
0.0
 70
   128
 71
   10
 72
   21
 73
   11
  0
VERTEX
  8
Lollipop02
 10
0.0
 20
0.0
 30
0.0
 70
   128
 71
   11
 72
   22
 73
   12
  0
VERTEX
  8
Lollipop02
 10
0.0
 20
0.0
 30
0.0
 70
   128
 71
   12
 72
   13
 73
   3
  0
VERTEX
  8
Lollipop02
 10
0.0
 20
0.0
 30
0.0
 70
   128
 71
   13
 72
   54
 73
   14
  0
VERTEX
  8
Lollipop02
 10
0.0
 20
0.0
 30
0.0
 70
   128
 71
   44
 72
   25
 73
   45
  0
VERTEX
  8
Lollipop02
 10
0.0
 20
0.0
 30
0.0
 70
   128
 71
   15
 72
   56
 73
   16
  0
VERTEX
  8
Lollipop02
 10
0.0
 20
0.0
 30
0.0
 70
   128
 71
   46
 72
   27
 73
   47
  0
VERTEX
  8
Lollipop02
 10
0.0
 20
0.0
 30
0.0
 70
   128
 71
   17
 72
   58
 73
   18
  0
VERTEX
  8
Lollipop02
 10
0.0
 20
0.0
 30
0.0
 70
   128
 71
   48
 72
   29
 73
   49
  0
VERTEX
  8
Lollipop02
 10
0.0
 20
0.0
 30
0.0
 70
   128
 71
   19
 72
   60
 73
   20
  0
VERTEX
  8
Lollipop02
 10
0.0
 20
0.0
 30
0.0
 70
   128
 71
   50
 72
   31
 73
   51
  0
VERTEX
  8
Lollipop02
 10
0.0
 20
0.0
 30
0.0
 70
   128
 71
   21
 72
   62
 73
   22
  0
VERTEX
  8
Lollipop02
 10
0.0
 20
0.0
 30
0.0
 70
   128
 71
   52
 72
   23
 73
   43
  0
VERTEX
  8
Lollipop02
 10
0.0
 20
0.0
 30
0.0
 70
   128
 71
   23
 72
   34
 73
   24
  0
VERTEX
  8
Lollipop02
 10
0.0
 20
0.0
 30
0.0
 70
   128
 71
   24
 72
   35
 73
   25
  0
VERTEX
  8
Lollipop02
 10
0.0
 20
0.0
 30
0.0
 70
   128
 71
   25
 72
   36
 73
   26
  0
VERTEX
  8
Lollipop02
 10
0.0
 20
0.0
 30
0.0
 70
   128
 71
   26
 72
   37
 73
   27
  0
VERTEX
  8
Lollipop02
 10
0.0
 20
0.0
 30
0.0
 70
   128
 71
   27
 72
   38
 73
   28
  0
VERTEX
  8
Lollipop02
 10
0.0
 20
0.0
 30
0.0
 70
   128
 71
   28
 72
   39
 73
   29
  0
VERTEX
  8
Lollipop02
 10
0.0
 20
0.0
 30
0.0
 70
   128
 71
   29
 72
   40
 73
   30
  0
VERTEX
  8
Lollipop02
 10
0.0
 20
0.0
 30
0.0
 70
   128
 71
   30
 72
   41
 73
   31
  0
VERTEX
  8
Lollipop02
 10
0.0
 20
0.0
 30
0.0
 70
   128
 71
   31
 72
   42
 73
   32
  0
VERTEX
  8
Lollipop02
 10
0.0
 20
0.0
 30
0.0
 70
   128
 71
   32
 72
   33
 73
   23
  0
VERTEX
  8
Lollipop02
 10
0.0
 20
0.0
 30
0.0
 70
   128
 71
   101
 72
   93
 73
   100
  0
VERTEX
  8
Lollipop02
 10
0.0
 20
0.0
 30
0.0
 70
   128
 71
   93
 72
   95
 73
   96
  0
VERTEX
  8
Lollipop02
 10
0.0
 20
0.0
 30
0.0
 70
   128
 71
   93
 72
   99
 73
   100
  0
VERTEX
  8
Lollipop02
 10
0.0
 20
0.0
 30
0.0
 70
   128
 71
   96
 72
   98
 73
   99
  0
VERTEX
  8
Lollipop02
 10
0.0
 20
0.0
 30
0.0
 70
   128
 71
   107
 72
   8
 73
   108
  0
VERTEX
  8
Lollipop02
 10
0.0
 20
0.0
 30
0.0
 70
   128
 71
   109
 72
   88
 73
   108
  0
VERTEX
  8
Lollipop02
 10
0.0
 20
0.0
 30
0.0
 70
   128
 71
   109
 72
   10
 73
   110
  0
VERTEX
  8
Lollipop02
 10
0.0
 20
0.0
 30
0.0
 70
   128
 71
   111
 72
   90
 73
   110
  0
VERTEX
  8
Lollipop02
 10
0.0
 20
0.0
 30
0.0
 70
   128
 71
   111
 72
   12
 73
   1
  0
VERTEX
  8
Lollipop02
 10
0.0
 20
0.0
 30
0.0
 70
   128
 71
   103
 72
   92
 73
   1
  0
VERTEX
  8
Lollipop02
 10
0.0
 20
0.0
 30
0.0
 70
   128
 71
   43
 72
   24
 73
   44
  0
VERTEX
  8
Lollipop02
 10
0.0
 20
0.0
 30
0.0
 70
   128
 71
   65
 72
   74
 73
   64
  0
VERTEX
  8
Lollipop02
 10
0.0
 20
0.0
 30
0.0
 70
   128
 71
   45
 72
   26
 73
   46
  0
VERTEX
  8
Lollipop02
 10
0.0
 20
0.0
 30
0.0
 70
   128
 71
   67
 72
   76
 73
   66
  0
VERTEX
  8
Lollipop02
 10
0.0
 20
0.0
 30
0.0
 70
   128
 71
   47
 72
   28
 73
   48
  0
VERTEX
  8
Lollipop02
 10
0.0
 20
0.0
 30
0.0
 70
   128
 71
   69
 72
   78
 73
   68
  0
VERTEX
  8
Lollipop02
 10
0.0
 20
0.0
 30
0.0
 70
   128
 71
   49
 72
   30
 73
   50
  0
VERTEX
  8
Lollipop02
 10
0.0
 20
0.0
 30
0.0
 70
   128
 71
   71
 72
   80
 73
   70
  0
VERTEX
  8
Lollipop02
 10
0.0
 20
0.0
 30
0.0
 70
   128
 71
   51
 72
   32
 73
   52
  0
VERTEX
  8
Lollipop02
 10
0.0
 20
0.0
 30
0.0
 70
   128
 71
   63
 72
   82
 73
   72
  0
VERTEX
  8
Lollipop02
 10
0.0
 20
0.0
 30
0.0
 70
   128
 71
   73
 72
   64
 73
   74
  0
VERTEX
  8
Lollipop02
 10
0.0
 20
0.0
 30
0.0
 70
   128
 71
   75
 72
   66
 73
   76
  0
VERTEX
  8
Lollipop02
 10
0.0
 20
0.0
 30
0.0
 70
   128
 71
   77
 72
   68
 73
   78
  0
VERTEX
  8
Lollipop02
 10
0.0
 20
0.0
 30
0.0
 70
   128
 71
   79
 72
   70
 73
   80
  0
VERTEX
  8
Lollipop02
 10
0.0
 20
0.0
 30
0.0
 70
   128
 71
   81
 72
   72
 73
   82
  0
VERTEX
  8
Lollipop02
 10
0.0
 20
0.0
 30
0.0
 70
   128
 71
   55
 72
   14
 73
   54
  0
VERTEX
  8
Lollipop02
 10
0.0
 20
0.0
 30
0.0
 70
   128
 71
   57
 72
   16
 73
   56
  0
VERTEX
  8
Lollipop02
 10
0.0
 20
0.0
 30
0.0
 70
   128
 71
   59
 72
   18
 73
   58
  0
VERTEX
  8
Lollipop02
 10
0.0
 20
0.0
 30
0.0
 70
   128
 71
   61
 72
   20
 73
   60
  0
VERTEX
  8
Lollipop02
 10
0.0
 20
0.0
 30
0.0
 70
   128
 71
   53
 72
   22
 73
   62
  0
VERTEX
  8
Lollipop02
 10
0.0
 20
0.0
 30
0.0
 70
   128
 71
   45
 72
   64
 73
   44
  0
VERTEX
  8
Lollipop02
 10
0.0
 20
0.0
 30
0.0
 70
   128
 71
   54
 72
   75
 73
   55
  0
VERTEX
  8
Lollipop02
 10
0.0
 20
0.0
 30
0.0
 70
   128
 71
   47
 72
   66
 73
   46
  0
VERTEX
  8
Lollipop02
 10
0.0
 20
0.0
 30
0.0
 70
   128
 71
   56
 72
   77
 73
   57
  0
VERTEX
  8
Lollipop02
 10
0.0
 20
0.0
 30
0.0
 70
   128
 71
   49
 72
   68
 73
   48
  0
VERTEX
  8
Lollipop02
 10
0.0
 20
0.0
 30
0.0
 70
   128
 71
   58
 72
   79
 73
   59
  0
VERTEX
  8
Lollipop02
 10
0.0
 20
0.0
 30
0.0
 70
   128
 71
   51
 72
   70
 73
   50
  0
VERTEX
  8
Lollipop02
 10
0.0
 20
0.0
 30
0.0
 70
   128
 71
   60
 72
   81
 73
   61
  0
VERTEX
  8
Lollipop02
 10
0.0
 20
0.0
 30
0.0
 70
   128
 71
   43
 72
   72
 73
   52
  0
VERTEX
  8
Lollipop02
 10
0.0
 20
0.0
 30
0.0
 70
   128
 71
   62
 72
   73
 73
   53
  0
VERTEX
  8
Lollipop02
 10
0.0
 20
0.0
 30
0.0
 70
   128
 71
   53
 72
   74
 73
   54
  0
VERTEX
  8
Lollipop02
 10
0.0
 20
0.0
 30
0.0
 70
   128
 71
   44
 72
   63
 73
   43
  0
VERTEX
  8
Lollipop02
 10
0.0
 20
0.0
 30
0.0
 70
   128
 71
   55
 72
   76
 73
   56
  0
VERTEX
  8
Lollipop02
 10
0.0
 20
0.0
 30
0.0
 70
   128
 71
   46
 72
   65
 73
   45
  0
VERTEX
  8
Lollipop02
 10
0.0
 20
0.0
 30
0.0
 70
   128
 71
   57
 72
   78
 73
   58
  0
VERTEX
  8
Lollipop02
 10
0.0
 20
0.0
 30
0.0
 70
   128
 71
   48
 72
   67
 73
   47
  0
VERTEX
  8
Lollipop02
 10
0.0
 20
0.0
 30
0.0
 70
   128
 71
   59
 72
   80
 73
   60
  0
VERTEX
  8
Lollipop02
 10
0.0
 20
0.0
 30
0.0
 70
   128
 71
   50
 72
   69
 73
   49
  0
VERTEX
  8
Lollipop02
 10
0.0
 20
0.0
 30
0.0
 70
   128
 71
   61
 72
   82
 73
   62
  0
VERTEX
  8
Lollipop02
 10
0.0
 20
0.0
 30
0.0
 70
   128
 71
   52
 72
   71
 73
   51
  0
VERTEX
  8
Lollipop02
 10
0.0
 20
0.0
 30
0.0
 70
   128
 71
   83
 72
   104
 73
   84
  0
VERTEX
  8
Lollipop02
 10
0.0
 20
0.0
 30
0.0
 70
   128
 71
   104
 72
   5
 73
   105
  0
VERTEX
  8
Lollipop02
 10
0.0
 20
0.0
 30
0.0
 70
   128
 71
   85
 72
   106
 73
   86
  0
VERTEX
  8
Lollipop02
 10
0.0
 20
0.0
 30
0.0
 70
   128
 71
   106
 72
   7
 73
   107
  0
VERTEX
  8
Lollipop02
 10
0.0
 20
0.0
 30
0.0
 70
   128
 71
   87
 72
   108
 73
   88
  0
VERTEX
  8
Lollipop02
 10
0.0
 20
0.0
 30
0.0
 70
   128
 71
   108
 72
   9
 73
   109
  0
VERTEX
  8
Lollipop02
 10
0.0
 20
0.0
 30
0.0
 70
   128
 71
   89
 72
   110
 73
   90
  0
VERTEX
  8
Lollipop02
 10
0.0
 20
0.0
 30
0.0
 70
   128
 71
   110
 72
   11
 73
   111
  0
VERTEX
  8
Lollipop02
 10
0.0
 20
0.0
 30
0.0
 70
   128
 71
   91
 72
   1
 73
   92
  0
VERTEX
  8
Lollipop02
 10
0.0
 20
0.0
 30
0.0
 70
   128
 71
   1
 72
   3
 73
   103
  0
VERTEX
  8
Lollipop02
 10
0.0
 20
0.0
 30
0.0
 70
   128
 71
   84
 72
   93
 73
   83
  0
VERTEX
  8
Lollipop02
 10
0.0
 20
0.0
 30
0.0
 70
   128
 71
   85
 72
   94
 73
   84
  0
VERTEX
  8
Lollipop02
 10
0.0
 20
0.0
 30
0.0
 70
   128
 71
   86
 72
   95
 73
   85
  0
VERTEX
  8
Lollipop02
 10
0.0
 20
0.0
 30
0.0
 70
   128
 71
   87
 72
   96
 73
   86
  0
VERTEX
  8
Lollipop02
 10
0.0
 20
0.0
 30
0.0
 70
   128
 71
   88
 72
   97
 73
   87
  0
VERTEX
  8
Lollipop02
 10
0.0
 20
0.0
 30
0.0
 70
   128
 71
   89
 72
   98
 73
   88
  0
VERTEX
  8
Lollipop02
 10
0.0
 20
0.0
 30
0.0
 70
   128
 71
   90
 72
   99
 73
   89
  0
VERTEX
  8
Lollipop02
 10
0.0
 20
0.0
 30
0.0
 70
   128
 71
   91
 72
   100
 73
   90
  0
VERTEX
  8
Lollipop02
 10
0.0
 20
0.0
 30
0.0
 70
   128
 71
   92
 72
   101
 73
   91
  0
VERTEX
  8
Lollipop02
 10
0.0
 20
0.0
 30
0.0
 70
   128
 71
   83
 72
   102
 73
   92
  0
VERTEX
  8
Lollipop02
 10
0.0
 20
0.0
 30
0.0
 70
   128
 71
   103
 72
   4
 73
   104
  0
VERTEX
  8
Lollipop02
 10
0.0
 20
0.0
 30
0.0
 70
   128
 71
   105
 72
   84
 73
   104
  0
VERTEX
  8
Lollipop02
 10
0.0
 20
0.0
 30
0.0
 70
   128
 71
   105
 72
   6
 73
   106
  0
VERTEX
  8
Lollipop02
 10
0.0
 20
0.0
 30
0.0
 70
   128
 71
   107
 72
   86
 73
   106
  0
SEQEND
  0
ENDSEC
  0
EOF
