999
FBX AutoCAD (*.DXF) exporter
  0
SECTION
  2
HEADER
  9
$ACADVER
  1
AC1008
  9
$UCSORG
 10
0.0
 20
0.0
 30
0.0
  9
$UCSXDIR
 10
1.0
 20
0.0
 30
0.0
  9
$TILEMODE
 70
   1
  9
$UCSYDIR
 10
0.0
 20
1.0
 30
0.0
  0
ENDSEC
  0
SECTION
  2
TABLES
  0
TABLE
  2
LTYPE
 70
   1
  0
LTYPE
  2
CONTINUOUS
 70
   64
  3
Solid line
 72
   65
 73
   0
 40
0.0
  0
ENDTAB
  0
TABLE
  2
LAYER
 70
   1
  0
LAYER
  2
drinkSmall
 70
   0
 62
   250
  6
CONTINUOUS
  0
ENDTAB
  0
ENDSEC
  0
SECTION
  2
BLOCKS
  0
ENDSEC
  0
SECTION
  2
ENTITIES
  0
POLYLINE
  8
drinkSmall
 66
   1
 10
0.0
 20
0.0
 30
0.0
 70
   64
 71
   120
 72
   236
  0
VERTEX
  8
drinkSmall
 10
-25.650064
 20
151.418915
 30
-14.809071
 70
   192
  0
VERTEX
  8
drinkSmall
 10
-14.809071
 20
151.418915
 30
-25.650064
 70
   192
  0
VERTEX
  8
drinkSmall
 10
-64.846124
 20
136.131350
 30
0.000000
 70
   192
  0
VERTEX
  8
drinkSmall
 10
-44.092000
 20
0.000000
 30
0.000000
 70
   192
  0
VERTEX
  8
drinkSmall
 10
-56.158391
 20
136.131350
 30
32.423062
 70
   192
  0
VERTEX
  8
drinkSmall
 10
-38.184792
 20
0.000000
 30
22.046000
 70
   192
  0
VERTEX
  8
drinkSmall
 10
-32.423062
 20
136.131350
 30
56.158391
 70
   192
  0
VERTEX
  8
drinkSmall
 10
-22.046000
 20
0.000000
 30
38.184792
 70
   192
  0
VERTEX
  8
drinkSmall
 10
0.000000
 20
136.131350
 30
64.846124
 70
   192
  0
VERTEX
  8
drinkSmall
 10
0.000000
 20
0.000000
 30
44.092000
 70
   192
  0
VERTEX
  8
drinkSmall
 10
32.423062
 20
136.131350
 30
56.158391
 70
   192
  0
VERTEX
  8
drinkSmall
 10
22.046000
 20
0.000000
 30
38.184792
 70
   192
  0
VERTEX
  8
drinkSmall
 10
56.158391
 20
136.131350
 30
32.423062
 70
   192
  0
VERTEX
  8
drinkSmall
 10
38.184792
 20
0.000000
 30
22.046000
 70
   192
  0
VERTEX
  8
drinkSmall
 10
64.846124
 20
136.131350
 30
0.000000
 70
   192
  0
VERTEX
  8
drinkSmall
 10
44.092000
 20
0.000000
 30
0.000000
 70
   192
  0
VERTEX
  8
drinkSmall
 10
56.158391
 20
136.131350
 30
-32.423062
 70
   192
  0
VERTEX
  8
drinkSmall
 10
38.184792
 20
0.000000
 30
-22.046000
 70
   192
  0
VERTEX
  8
drinkSmall
 10
32.423062
 20
136.131350
 30
-56.158391
 70
   192
  0
VERTEX
  8
drinkSmall
 10
22.046000
 20
0.000000
 30
-38.184792
 70
   192
  0
VERTEX
  8
drinkSmall
 10
0.000000
 20
136.131350
 30
-64.846124
 70
   192
  0
VERTEX
  8
drinkSmall
 10
0.000000
 20
0.000000
 30
-44.092000
 70
   192
  0
VERTEX
  8
drinkSmall
 10
-32.423062
 20
136.131350
 30
-56.158391
 70
   192
  0
VERTEX
  8
drinkSmall
 10
-22.046000
 20
0.000000
 30
-38.184792
 70
   192
  0
VERTEX
  8
drinkSmall
 10
-56.158391
 20
136.131350
 30
-32.423062
 70
   192
  0
VERTEX
  8
drinkSmall
 10
-38.184792
 20
0.000000
 30
-22.046000
 70
   192
  0
VERTEX
  8
drinkSmall
 10
-63.509772
 20
139.890776
 30
0.000000
 70
   192
  0
VERTEX
  8
drinkSmall
 10
-55.001076
 20
139.890776
 30
31.754886
 70
   192
  0
VERTEX
  8
drinkSmall
 10
-31.754886
 20
139.890776
 30
55.001076
 70
   192
  0
VERTEX
  8
drinkSmall
 10
0.000000
 20
139.890776
 30
63.509772
 70
   192
  0
VERTEX
  8
drinkSmall
 10
31.754886
 20
139.890776
 30
55.001076
 70
   192
  0
VERTEX
  8
drinkSmall
 10
55.001076
 20
139.890776
 30
31.754886
 70
   192
  0
VERTEX
  8
drinkSmall
 10
63.509772
 20
139.890776
 30
0.000000
 70
   192
  0
VERTEX
  8
drinkSmall
 10
55.001076
 20
139.890776
 30
-31.754886
 70
   192
  0
VERTEX
  8
drinkSmall
 10
31.754886
 20
139.890776
 30
-55.001076
 70
   192
  0
VERTEX
  8
drinkSmall
 10
0.000000
 20
139.890776
 30
-63.509772
 70
   192
  0
VERTEX
  8
drinkSmall
 10
-31.754886
 20
139.890776
 30
-55.001076
 70
   192
  0
VERTEX
  8
drinkSmall
 10
-55.001076
 20
139.890776
 30
-31.754886
 70
   192
  0
VERTEX
  8
drinkSmall
 10
-43.807684
 20
7.342767
 30
0.000000
 70
   192
  0
VERTEX
  8
drinkSmall
 10
-37.938567
 20
7.342767
 30
21.903842
 70
   192
  0
VERTEX
  8
drinkSmall
 10
-21.903842
 20
7.342767
 30
37.938567
 70
   192
  0
VERTEX
  8
drinkSmall
 10
0.000000
 20
7.342767
 30
43.807684
 70
   192
  0
VERTEX
  8
drinkSmall
 10
21.903842
 20
7.342767
 30
37.938567
 70
   192
  0
VERTEX
  8
drinkSmall
 10
37.938567
 20
7.342767
 30
21.903842
 70
   192
  0
VERTEX
  8
drinkSmall
 10
43.807684
 20
7.342767
 30
0.000000
 70
   192
  0
VERTEX
  8
drinkSmall
 10
37.938567
 20
7.342767
 30
-21.903842
 70
   192
  0
VERTEX
  8
drinkSmall
 10
21.903842
 20
7.342767
 30
-37.938567
 70
   192
  0
VERTEX
  8
drinkSmall
 10
0.000000
 20
7.342767
 30
-43.807684
 70
   192
  0
VERTEX
  8
drinkSmall
 10
-21.903842
 20
7.342767
 30
-37.938567
 70
   192
  0
VERTEX
  8
drinkSmall
 10
-37.938567
 20
7.342767
 30
-21.903842
 70
   192
  0
VERTEX
  8
drinkSmall
 10
-43.124770
 20
147.909702
 30
0.000000
 70
   192
  0
VERTEX
  8
drinkSmall
 10
-37.347146
 20
147.909702
 30
21.562385
 70
   192
  0
VERTEX
  8
drinkSmall
 10
-21.562385
 20
147.909702
 30
37.347146
 70
   192
  0
VERTEX
  8
drinkSmall
 10
0.000000
 20
147.909702
 30
43.124770
 70
   192
  0
VERTEX
  8
drinkSmall
 10
21.562385
 20
147.909702
 30
37.347146
 70
   192
  0
VERTEX
  8
drinkSmall
 10
37.347146
 20
147.909702
 30
21.562385
 70
   192
  0
VERTEX
  8
drinkSmall
 10
43.124770
 20
147.909702
 30
0.000000
 70
   192
  0
VERTEX
  8
drinkSmall
 10
37.347146
 20
147.909702
 30
-21.562385
 70
   192
  0
VERTEX
  8
drinkSmall
 10
21.562385
 20
147.909702
 30
-37.347146
 70
   192
  0
VERTEX
  8
drinkSmall
 10
0.000000
 20
147.909702
 30
-43.124770
 70
   192
  0
VERTEX
  8
drinkSmall
 10
-21.562385
 20
147.909702
 30
-37.347146
 70
   192
  0
VERTEX
  8
drinkSmall
 10
-37.347146
 20
147.909702
 30
-21.562385
 70
   192
  0
VERTEX
  8
drinkSmall
 10
-29.618143
 20
151.418915
 30
0.000000
 70
   192
  0
VERTEX
  8
drinkSmall
 10
-25.650064
 20
151.418915
 30
14.809071
 70
   192
  0
VERTEX
  8
drinkSmall
 10
-14.809071
 20
151.418915
 30
25.650064
 70
   192
  0
VERTEX
  8
drinkSmall
 10
0.000000
 20
151.418915
 30
29.618143
 70
   192
  0
VERTEX
  8
drinkSmall
 10
14.809071
 20
151.418915
 30
25.650064
 70
   192
  0
VERTEX
  8
drinkSmall
 10
25.650064
 20
151.418915
 30
14.809071
 70
   192
  0
VERTEX
  8
drinkSmall
 10
29.618143
 20
151.418915
 30
0.000000
 70
   192
  0
VERTEX
  8
drinkSmall
 10
25.650064
 20
151.418915
 30
-14.809071
 70
   192
  0
VERTEX
  8
drinkSmall
 10
14.809071
 20
151.418915
 30
-25.650064
 70
   192
  0
VERTEX
  8
drinkSmall
 10
0.000000
 20
151.418915
 30
-29.618143
 70
   192
  0
VERTEX
  8
drinkSmall
 10
-4.422026
 20
151.418915
 30
-2.553058
 70
   192
  0
VERTEX
  8
drinkSmall
 10
-2.553058
 20
151.418915
 30
-4.422026
 70
   192
  0
VERTEX
  8
drinkSmall
 10
-5.106116
 20
151.418915
 30
0.000000
 70
   192
  0
VERTEX
  8
drinkSmall
 10
-4.422026
 20
151.418915
 30
2.553058
 70
   192
  0
VERTEX
  8
drinkSmall
 10
-2.553058
 20
151.418915
 30
4.422026
 70
   192
  0
VERTEX
  8
drinkSmall
 10
0.000000
 20
151.418915
 30
5.106116
 70
   192
  0
VERTEX
  8
drinkSmall
 10
2.553058
 20
151.418915
 30
4.422026
 70
   192
  0
VERTEX
  8
drinkSmall
 10
4.422026
 20
151.418915
 30
2.553058
 70
   192
  0
VERTEX
  8
drinkSmall
 10
5.106116
 20
151.418915
 30
0.000000
 70
   192
  0
VERTEX
  8
drinkSmall
 10
4.422026
 20
151.418915
 30
-2.553058
 70
   192
  0
VERTEX
  8
drinkSmall
 10
2.553058
 20
151.418915
 30
-4.422026
 70
   192
  0
VERTEX
  8
drinkSmall
 10
0.000000
 20
151.418915
 30
-5.106116
 70
   192
  0
VERTEX
  8
drinkSmall
 10
-4.422026
 20
224.865315
 30
-2.553058
 70
   192
  0
VERTEX
  8
drinkSmall
 10
-2.553058
 20
224.865315
 30
-4.422026
 70
   192
  0
VERTEX
  8
drinkSmall
 10
-5.106116
 20
224.865315
 30
0.000000
 70
   192
  0
VERTEX
  8
drinkSmall
 10
-4.422026
 20
224.865315
 30
2.553058
 70
   192
  0
VERTEX
  8
drinkSmall
 10
-2.553058
 20
224.865315
 30
4.422026
 70
   192
  0
VERTEX
  8
drinkSmall
 10
0.000000
 20
224.865315
 30
5.106116
 70
   192
  0
VERTEX
  8
drinkSmall
 10
2.553058
 20
224.865315
 30
4.422026
 70
   192
  0
VERTEX
  8
drinkSmall
 10
4.422026
 20
224.865315
 30
2.553058
 70
   192
  0
VERTEX
  8
drinkSmall
 10
5.106116
 20
224.865315
 30
0.000000
 70
   192
  0
VERTEX
  8
drinkSmall
 10
4.422026
 20
224.865315
 30
-2.553058
 70
   192
  0
VERTEX
  8
drinkSmall
 10
2.553058
 20
224.865315
 30
-4.422026
 70
   192
  0
VERTEX
  8
drinkSmall
 10
0.000000
 20
224.865315
 30
-5.106116
 70
   192
  0
VERTEX
  8
drinkSmall
 10
-62.991934
 20
136.406959
 30
0.000000
 70
   192
  0
VERTEX
  8
drinkSmall
 10
-54.552615
 20
136.406959
 30
31.495967
 70
   192
  0
VERTEX
  8
drinkSmall
 10
-31.495967
 20
136.406959
 30
54.552615
 70
   192
  0
VERTEX
  8
drinkSmall
 10
0.000000
 20
136.406959
 30
62.991934
 70
   192
  0
VERTEX
  8
drinkSmall
 10
31.495967
 20
136.406959
 30
54.552615
 70
   192
  0
VERTEX
  8
drinkSmall
 10
54.552615
 20
136.406959
 30
31.495967
 70
   192
  0
VERTEX
  8
drinkSmall
 10
62.991934
 20
136.406959
 30
0.000000
 70
   192
  0
VERTEX
  8
drinkSmall
 10
54.552615
 20
136.406959
 30
-31.495967
 70
   192
  0
VERTEX
  8
drinkSmall
 10
31.495967
 20
136.406959
 30
-54.552615
 70
   192
  0
VERTEX
  8
drinkSmall
 10
0.000000
 20
136.406959
 30
-62.991934
 70
   192
  0
VERTEX
  8
drinkSmall
 10
-31.495967
 20
136.406959
 30
-54.552615
 70
   192
  0
VERTEX
  8
drinkSmall
 10
-54.552615
 20
136.406959
 30
-31.495967
 70
   192
  0
VERTEX
  8
drinkSmall
 10
-65.363962
 20
139.615167
 30
0.000000
 70
   192
  0
VERTEX
  8
drinkSmall
 10
-56.606852
 20
139.615167
 30
32.681981
 70
   192
  0
VERTEX
  8
drinkSmall
 10
-32.681981
 20
139.615167
 30
56.606852
 70
   192
  0
VERTEX
  8
drinkSmall
 10
0.000000
 20
139.615167
 30
65.363962
 70
   192
  0
VERTEX
  8
drinkSmall
 10
32.681981
 20
139.615167
 30
56.606852
 70
   192
  0
VERTEX
  8
drinkSmall
 10
56.606852
 20
139.615167
 30
32.681981
 70
   192
  0
VERTEX
  8
drinkSmall
 10
65.363962
 20
139.615167
 30
0.000000
 70
   192
  0
VERTEX
  8
drinkSmall
 10
56.606852
 20
139.615167
 30
-32.681981
 70
   192
  0
VERTEX
  8
drinkSmall
 10
32.681981
 20
139.615167
 30
-56.606852
 70
   192
  0
VERTEX
  8
drinkSmall
 10
0.000000
 20
139.615167
 30
-65.363962
 70
   192
  0
VERTEX
  8
drinkSmall
 10
-32.681981
 20
139.615167
 30
-56.606852
 70
   192
  0
VERTEX
  8
drinkSmall
 10
-56.606852
 20
139.615167
 30
-32.681981
 70
   192
  0
VERTEX
  8
drinkSmall
 10
0.0
 20
0.0
 30
0.0
 70
   128
 71
   26
 72
   4
 73
   6
  0
VERTEX
  8
drinkSmall
 10
0.0
 20
0.0
 30
0.0
 70
   128
 71
   103
 72
   15
 73
   17
  0
VERTEX
  8
drinkSmall
 10
0.0
 20
0.0
 30
0.0
 70
   128
 71
   95
 72
   94
 73
   93
  0
VERTEX
  8
drinkSmall
 10
0.0
 20
0.0
 30
0.0
 70
   128
 71
   18
 72
   26
 73
   6
  0
VERTEX
  8
drinkSmall
 10
0.0
 20
0.0
 30
0.0
 70
   128
 71
   34
 72
   116
 73
   115
  0
VERTEX
  8
drinkSmall
 10
0.0
 20
0.0
 30
0.0
 70
   128
 71
   93
 72
   91
 73
   90
  0
VERTEX
  8
drinkSmall
 10
0.0
 20
0.0
 30
0.0
 70
   128
 71
   22
 72
   26
 73
   18
  0
VERTEX
  8
drinkSmall
 10
0.0
 20
0.0
 30
0.0
 70
   128
 71
   105
 72
   19
 73
   21
  0
VERTEX
  8
drinkSmall
 10
0.0
 20
0.0
 30
0.0
 70
   128
 71
   93
 72
   92
 73
   91
  0
VERTEX
  8
drinkSmall
 10
0.0
 20
0.0
 30
0.0
 70
   128
 71
   26
 72
   22
 73
   24
  0
VERTEX
  8
drinkSmall
 10
0.0
 20
0.0
 30
0.0
 70
   128
 71
   36
 72
   118
 73
   117
  0
VERTEX
  8
drinkSmall
 10
0.0
 20
0.0
 30
0.0
 70
   128
 71
   87
 72
   89
 73
   88
  0
VERTEX
  8
drinkSmall
 10
0.0
 20
0.0
 30
0.0
 70
   128
 71
   6
 72
   8
 73
   10
  0
VERTEX
  8
drinkSmall
 10
0.0
 20
0.0
 30
0.0
 70
   128
 71
   107
 72
   23
 73
   25
  0
VERTEX
  8
drinkSmall
 10
0.0
 20
0.0
 30
0.0
 70
   128
 71
   87
 72
   85
 73
   86
  0
VERTEX
  8
drinkSmall
 10
0.0
 20
0.0
 30
0.0
 70
   128
 71
   18
 72
   12
 73
   14
  0
VERTEX
  8
drinkSmall
 10
0.0
 20
0.0
 30
0.0
 70
   128
 71
   38
 72
   120
 73
   119
  0
VERTEX
  8
drinkSmall
 10
0.0
 20
0.0
 30
0.0
 70
   128
 71
   87
 72
   86
 73
   96
  0
VERTEX
  8
drinkSmall
 10
0.0
 20
0.0
 30
0.0
 70
   128
 71
   57
 72
   69
 73
   70
  0
VERTEX
  8
drinkSmall
 10
0.0
 20
0.0
 30
0.0
 70
   128
 71
   97
 72
   3
 73
   5
  0
VERTEX
  8
drinkSmall
 10
0.0
 20
0.0
 30
0.0
 70
   128
 71
   89
 72
   96
 73
   95
  0
VERTEX
  8
drinkSmall
 10
0.0
 20
0.0
 30
0.0
 70
   128
 71
   58
 72
   70
 73
   71
  0
VERTEX
  8
drinkSmall
 10
0.0
 20
0.0
 30
0.0
 70
   128
 71
   28
 72
   110
 73
   109
  0
VERTEX
  8
drinkSmall
 10
0.0
 20
0.0
 30
0.0
 70
   128
 71
   52
 72
   64
 73
   65
  0
VERTEX
  8
drinkSmall
 10
0.0
 20
0.0
 30
0.0
 70
   128
 71
   59
 72
   71
 73
   72
  0
VERTEX
  8
drinkSmall
 10
0.0
 20
0.0
 30
0.0
 70
   128
 71
   99
 72
   7
 73
   9
  0
VERTEX
  8
drinkSmall
 10
0.0
 20
0.0
 30
0.0
 70
   128
 71
   53
 72
   65
 73
   66
  0
VERTEX
  8
drinkSmall
 10
0.0
 20
0.0
 30
0.0
 70
   128
 71
   60
 72
   72
 73
   2
  0
VERTEX
  8
drinkSmall
 10
0.0
 20
0.0
 30
0.0
 70
   128
 71
   30
 72
   112
 73
   111
  0
VERTEX
  8
drinkSmall
 10
0.0
 20
0.0
 30
0.0
 70
   128
 71
   54
 72
   66
 73
   67
  0
VERTEX
  8
drinkSmall
 10
0.0
 20
0.0
 30
0.0
 70
   128
 71
   61
 72
   2
 73
   1
  0
VERTEX
  8
drinkSmall
 10
0.0
 20
0.0
 30
0.0
 70
   128
 71
   101
 72
   11
 73
   13
  0
VERTEX
  8
drinkSmall
 10
0.0
 20
0.0
 30
0.0
 70
   128
 71
   55
 72
   67
 73
   68
  0
VERTEX
  8
drinkSmall
 10
0.0
 20
0.0
 30
0.0
 70
   128
 71
   62
 72
   1
 73
   63
  0
VERTEX
  8
drinkSmall
 10
0.0
 20
0.0
 30
0.0
 70
   128
 71
   32
 72
   114
 73
   113
  0
VERTEX
  8
drinkSmall
 10
0.0
 20
0.0
 30
0.0
 70
   128
 71
   56
 72
   68
 73
   69
  0
VERTEX
  8
drinkSmall
 10
0.0
 20
0.0
 30
0.0
 70
   128
 71
   4
 72
   39
 73
   40
  0
VERTEX
  8
drinkSmall
 10
0.0
 20
0.0
 30
0.0
 70
   128
 71
   5
 72
   110
 73
   111
  0
VERTEX
  8
drinkSmall
 10
0.0
 20
0.0
 30
0.0
 70
   128
 71
   8
 72
   41
 73
   42
  0
VERTEX
  8
drinkSmall
 10
0.0
 20
0.0
 30
0.0
 70
   128
 71
   9
 72
   112
 73
   113
  0
VERTEX
  8
drinkSmall
 10
0.0
 20
0.0
 30
0.0
 70
   128
 71
   12
 72
   43
 73
   44
  0
VERTEX
  8
drinkSmall
 10
0.0
 20
0.0
 30
0.0
 70
   128
 71
   13
 72
   114
 73
   115
  0
VERTEX
  8
drinkSmall
 10
0.0
 20
0.0
 30
0.0
 70
   128
 71
   16
 72
   45
 73
   46
  0
VERTEX
  8
drinkSmall
 10
0.0
 20
0.0
 30
0.0
 70
   128
 71
   17
 72
   116
 73
   117
  0
VERTEX
  8
drinkSmall
 10
0.0
 20
0.0
 30
0.0
 70
   128
 71
   20
 72
   47
 73
   48
  0
VERTEX
  8
drinkSmall
 10
0.0
 20
0.0
 30
0.0
 70
   128
 71
   21
 72
   118
 73
   119
  0
VERTEX
  8
drinkSmall
 10
0.0
 20
0.0
 30
0.0
 70
   128
 71
   24
 72
   49
 73
   50
  0
VERTEX
  8
drinkSmall
 10
0.0
 20
0.0
 30
0.0
 70
   128
 71
   25
 72
   120
 73
   109
  0
VERTEX
  8
drinkSmall
 10
0.0
 20
0.0
 30
0.0
 70
   128
 71
   39
 72
   97
 73
   98
  0
VERTEX
  8
drinkSmall
 10
0.0
 20
0.0
 30
0.0
 70
   128
 71
   41
 72
   8
 73
   6
  0
VERTEX
  8
drinkSmall
 10
0.0
 20
0.0
 30
0.0
 70
   128
 71
   41
 72
   99
 73
   100
  0
VERTEX
  8
drinkSmall
 10
0.0
 20
0.0
 30
0.0
 70
   128
 71
   43
 72
   12
 73
   10
  0
VERTEX
  8
drinkSmall
 10
0.0
 20
0.0
 30
0.0
 70
   128
 71
   43
 72
   101
 73
   102
  0
VERTEX
  8
drinkSmall
 10
0.0
 20
0.0
 30
0.0
 70
   128
 71
   45
 72
   16
 73
   14
  0
VERTEX
  8
drinkSmall
 10
0.0
 20
0.0
 30
0.0
 70
   128
 71
   45
 72
   103
 73
   104
  0
VERTEX
  8
drinkSmall
 10
0.0
 20
0.0
 30
0.0
 70
   128
 71
   47
 72
   20
 73
   18
  0
VERTEX
  8
drinkSmall
 10
0.0
 20
0.0
 30
0.0
 70
   128
 71
   47
 72
   105
 73
   106
  0
VERTEX
  8
drinkSmall
 10
0.0
 20
0.0
 30
0.0
 70
   128
 71
   49
 72
   24
 73
   22
  0
VERTEX
  8
drinkSmall
 10
0.0
 20
0.0
 30
0.0
 70
   128
 71
   49
 72
   107
 73
   108
  0
VERTEX
  8
drinkSmall
 10
0.0
 20
0.0
 30
0.0
 70
   128
 71
   39
 72
   4
 73
   26
  0
VERTEX
  8
drinkSmall
 10
0.0
 20
0.0
 30
0.0
 70
   128
 71
   27
 72
   51
 73
   52
  0
VERTEX
  8
drinkSmall
 10
0.0
 20
0.0
 30
0.0
 70
   128
 71
   28
 72
   52
 73
   53
  0
VERTEX
  8
drinkSmall
 10
0.0
 20
0.0
 30
0.0
 70
   128
 71
   29
 72
   53
 73
   54
  0
VERTEX
  8
drinkSmall
 10
0.0
 20
0.0
 30
0.0
 70
   128
 71
   30
 72
   54
 73
   55
  0
VERTEX
  8
drinkSmall
 10
0.0
 20
0.0
 30
0.0
 70
   128
 71
   31
 72
   55
 73
   56
  0
VERTEX
  8
drinkSmall
 10
0.0
 20
0.0
 30
0.0
 70
   128
 71
   32
 72
   56
 73
   57
  0
VERTEX
  8
drinkSmall
 10
0.0
 20
0.0
 30
0.0
 70
   128
 71
   33
 72
   57
 73
   58
  0
VERTEX
  8
drinkSmall
 10
0.0
 20
0.0
 30
0.0
 70
   128
 71
   34
 72
   58
 73
   59
  0
VERTEX
  8
drinkSmall
 10
0.0
 20
0.0
 30
0.0
 70
   128
 71
   35
 72
   59
 73
   60
  0
VERTEX
  8
drinkSmall
 10
0.0
 20
0.0
 30
0.0
 70
   128
 71
   36
 72
   60
 73
   61
  0
VERTEX
  8
drinkSmall
 10
0.0
 20
0.0
 30
0.0
 70
   128
 71
   37
 72
   61
 73
   62
  0
VERTEX
  8
drinkSmall
 10
0.0
 20
0.0
 30
0.0
 70
   128
 71
   38
 72
   62
 73
   51
  0
VERTEX
  8
drinkSmall
 10
0.0
 20
0.0
 30
0.0
 70
   128
 71
   51
 72
   63
 73
   64
  0
VERTEX
  8
drinkSmall
 10
0.0
 20
0.0
 30
0.0
 70
   128
 71
   63
 72
   75
 73
   76
  0
VERTEX
  8
drinkSmall
 10
0.0
 20
0.0
 30
0.0
 70
   128
 71
   64
 72
   76
 73
   77
  0
VERTEX
  8
drinkSmall
 10
0.0
 20
0.0
 30
0.0
 70
   128
 71
   65
 72
   77
 73
   78
  0
VERTEX
  8
drinkSmall
 10
0.0
 20
0.0
 30
0.0
 70
   128
 71
   66
 72
   78
 73
   79
  0
VERTEX
  8
drinkSmall
 10
0.0
 20
0.0
 30
0.0
 70
   128
 71
   67
 72
   79
 73
   80
  0
VERTEX
  8
drinkSmall
 10
0.0
 20
0.0
 30
0.0
 70
   128
 71
   68
 72
   80
 73
   81
  0
VERTEX
  8
drinkSmall
 10
0.0
 20
0.0
 30
0.0
 70
   128
 71
   69
 72
   81
 73
   82
  0
VERTEX
  8
drinkSmall
 10
0.0
 20
0.0
 30
0.0
 70
   128
 71
   70
 72
   82
 73
   83
  0
VERTEX
  8
drinkSmall
 10
0.0
 20
0.0
 30
0.0
 70
   128
 71
   71
 72
   83
 73
   84
  0
VERTEX
  8
drinkSmall
 10
0.0
 20
0.0
 30
0.0
 70
   128
 71
   72
 72
   84
 73
   74
  0
VERTEX
  8
drinkSmall
 10
0.0
 20
0.0
 30
0.0
 70
   128
 71
   2
 72
   74
 73
   73
  0
VERTEX
  8
drinkSmall
 10
0.0
 20
0.0
 30
0.0
 70
   128
 71
   1
 72
   73
 73
   75
  0
VERTEX
  8
drinkSmall
 10
0.0
 20
0.0
 30
0.0
 70
   128
 71
   75
 72
   87
 73
   88
  0
VERTEX
  8
drinkSmall
 10
0.0
 20
0.0
 30
0.0
 70
   128
 71
   76
 72
   88
 73
   89
  0
VERTEX
  8
drinkSmall
 10
0.0
 20
0.0
 30
0.0
 70
   128
 71
   77
 72
   89
 73
   90
  0
VERTEX
  8
drinkSmall
 10
0.0
 20
0.0
 30
0.0
 70
   128
 71
   78
 72
   90
 73
   91
  0
VERTEX
  8
drinkSmall
 10
0.0
 20
0.0
 30
0.0
 70
   128
 71
   79
 72
   91
 73
   92
  0
VERTEX
  8
drinkSmall
 10
0.0
 20
0.0
 30
0.0
 70
   128
 71
   80
 72
   92
 73
   93
  0
VERTEX
  8
drinkSmall
 10
0.0
 20
0.0
 30
0.0
 70
   128
 71
   81
 72
   93
 73
   94
  0
VERTEX
  8
drinkSmall
 10
0.0
 20
0.0
 30
0.0
 70
   128
 71
   82
 72
   94
 73
   95
  0
VERTEX
  8
drinkSmall
 10
0.0
 20
0.0
 30
0.0
 70
   128
 71
   83
 72
   95
 73
   96
  0
VERTEX
  8
drinkSmall
 10
0.0
 20
0.0
 30
0.0
 70
   128
 71
   84
 72
   96
 73
   86
  0
VERTEX
  8
drinkSmall
 10
0.0
 20
0.0
 30
0.0
 70
   128
 71
   74
 72
   86
 73
   85
  0
VERTEX
  8
drinkSmall
 10
0.0
 20
0.0
 30
0.0
 70
   128
 71
   73
 72
   85
 73
   87
  0
VERTEX
  8
drinkSmall
 10
0.0
 20
0.0
 30
0.0
 70
   128
 71
   99
 72
   41
 73
   40
  0
VERTEX
  8
drinkSmall
 10
0.0
 20
0.0
 30
0.0
 70
   128
 71
   101
 72
   43
 73
   42
  0
VERTEX
  8
drinkSmall
 10
0.0
 20
0.0
 30
0.0
 70
   128
 71
   103
 72
   45
 73
   44
  0
VERTEX
  8
drinkSmall
 10
0.0
 20
0.0
 30
0.0
 70
   128
 71
   105
 72
   47
 73
   46
  0
VERTEX
  8
drinkSmall
 10
0.0
 20
0.0
 30
0.0
 70
   128
 71
   107
 72
   49
 73
   48
  0
VERTEX
  8
drinkSmall
 10
0.0
 20
0.0
 30
0.0
 70
   128
 71
   97
 72
   39
 73
   50
  0
VERTEX
  8
drinkSmall
 10
0.0
 20
0.0
 30
0.0
 70
   128
 71
   3
 72
   109
 73
   110
  0
VERTEX
  8
drinkSmall
 10
0.0
 20
0.0
 30
0.0
 70
   128
 71
   7
 72
   111
 73
   112
  0
VERTEX
  8
drinkSmall
 10
0.0
 20
0.0
 30
0.0
 70
   128
 71
   11
 72
   113
 73
   114
  0
VERTEX
  8
drinkSmall
 10
0.0
 20
0.0
 30
0.0
 70
   128
 71
   15
 72
   115
 73
   116
  0
VERTEX
  8
drinkSmall
 10
0.0
 20
0.0
 30
0.0
 70
   128
 71
   19
 72
   117
 73
   118
  0
VERTEX
  8
drinkSmall
 10
0.0
 20
0.0
 30
0.0
 70
   128
 71
   23
 72
   119
 73
   120
  0
VERTEX
  8
drinkSmall
 10
0.0
 20
0.0
 30
0.0
 70
   128
 71
   98
 72
   5
 73
   7
  0
VERTEX
  8
drinkSmall
 10
0.0
 20
0.0
 30
0.0
 70
   128
 71
   29
 72
   111
 73
   110
  0
VERTEX
  8
drinkSmall
 10
0.0
 20
0.0
 30
0.0
 70
   128
 71
   100
 72
   9
 73
   11
  0
VERTEX
  8
drinkSmall
 10
0.0
 20
0.0
 30
0.0
 70
   128
 71
   31
 72
   113
 73
   112
  0
VERTEX
  8
drinkSmall
 10
0.0
 20
0.0
 30
0.0
 70
   128
 71
   102
 72
   13
 73
   15
  0
VERTEX
  8
drinkSmall
 10
0.0
 20
0.0
 30
0.0
 70
   128
 71
   33
 72
   115
 73
   114
  0
VERTEX
  8
drinkSmall
 10
0.0
 20
0.0
 30
0.0
 70
   128
 71
   104
 72
   17
 73
   19
  0
VERTEX
  8
drinkSmall
 10
0.0
 20
0.0
 30
0.0
 70
   128
 71
   35
 72
   117
 73
   116
  0
VERTEX
  8
drinkSmall
 10
0.0
 20
0.0
 30
0.0
 70
   128
 71
   106
 72
   21
 73
   23
  0
VERTEX
  8
drinkSmall
 10
0.0
 20
0.0
 30
0.0
 70
   128
 71
   37
 72
   119
 73
   118
  0
VERTEX
  8
drinkSmall
 10
0.0
 20
0.0
 30
0.0
 70
   128
 71
   108
 72
   25
 73
   3
  0
VERTEX
  8
drinkSmall
 10
0.0
 20
0.0
 30
0.0
 70
   128
 71
   27
 72
   109
 73
   120
  0
VERTEX
  8
drinkSmall
 10
0.0
 20
0.0
 30
0.0
 70
   128
 71
   103
 72
   17
 73
   104
  0
VERTEX
  8
drinkSmall
 10
0.0
 20
0.0
 30
0.0
 70
   128
 71
   18
 72
   6
 73
   12
  0
VERTEX
  8
drinkSmall
 10
0.0
 20
0.0
 30
0.0
 70
   128
 71
   34
 72
   115
 73
   33
  0
VERTEX
  8
drinkSmall
 10
0.0
 20
0.0
 30
0.0
 70
   128
 71
   93
 72
   90
 73
   89
  0
VERTEX
  8
drinkSmall
 10
0.0
 20
0.0
 30
0.0
 70
   128
 71
   22
 72
   18
 73
   20
  0
VERTEX
  8
drinkSmall
 10
0.0
 20
0.0
 30
0.0
 70
   128
 71
   105
 72
   21
 73
   106
  0
VERTEX
  8
drinkSmall
 10
0.0
 20
0.0
 30
0.0
 70
   128
 71
   36
 72
   117
 73
   35
  0
VERTEX
  8
drinkSmall
 10
0.0
 20
0.0
 30
0.0
 70
   128
 71
   6
 72
   10
 73
   12
  0
VERTEX
  8
drinkSmall
 10
0.0
 20
0.0
 30
0.0
 70
   128
 71
   107
 72
   25
 73
   108
  0
VERTEX
  8
drinkSmall
 10
0.0
 20
0.0
 30
0.0
 70
   128
 71
   18
 72
   14
 73
   16
  0
VERTEX
  8
drinkSmall
 10
0.0
 20
0.0
 30
0.0
 70
   128
 71
   38
 72
   119
 73
   37
  0
VERTEX
  8
drinkSmall
 10
0.0
 20
0.0
 30
0.0
 70
   128
 71
   87
 72
   96
 73
   89
  0
VERTEX
  8
drinkSmall
 10
0.0
 20
0.0
 30
0.0
 70
   128
 71
   57
 72
   70
 73
   58
  0
VERTEX
  8
drinkSmall
 10
0.0
 20
0.0
 30
0.0
 70
   128
 71
   97
 72
   5
 73
   98
  0
VERTEX
  8
drinkSmall
 10
0.0
 20
0.0
 30
0.0
 70
   128
 71
   89
 72
   95
 73
   93
  0
VERTEX
  8
drinkSmall
 10
0.0
 20
0.0
 30
0.0
 70
   128
 71
   58
 72
   71
 73
   59
  0
VERTEX
  8
drinkSmall
 10
0.0
 20
0.0
 30
0.0
 70
   128
 71
   28
 72
   109
 73
   27
  0
VERTEX
  8
drinkSmall
 10
0.0
 20
0.0
 30
0.0
 70
   128
 71
   52
 72
   65
 73
   53
  0
VERTEX
  8
drinkSmall
 10
0.0
 20
0.0
 30
0.0
 70
   128
 71
   59
 72
   72
 73
   60
  0
VERTEX
  8
drinkSmall
 10
0.0
 20
0.0
 30
0.0
 70
   128
 71
   99
 72
   9
 73
   100
  0
VERTEX
  8
drinkSmall
 10
0.0
 20
0.0
 30
0.0
 70
   128
 71
   53
 72
   66
 73
   54
  0
VERTEX
  8
drinkSmall
 10
0.0
 20
0.0
 30
0.0
 70
   128
 71
   60
 72
   2
 73
   61
  0
VERTEX
  8
drinkSmall
 10
0.0
 20
0.0
 30
0.0
 70
   128
 71
   30
 72
   111
 73
   29
  0
VERTEX
  8
drinkSmall
 10
0.0
 20
0.0
 30
0.0
 70
   128
 71
   54
 72
   67
 73
   55
  0
VERTEX
  8
drinkSmall
 10
0.0
 20
0.0
 30
0.0
 70
   128
 71
   61
 72
   1
 73
   62
  0
VERTEX
  8
drinkSmall
 10
0.0
 20
0.0
 30
0.0
 70
   128
 71
   101
 72
   13
 73
   102
  0
VERTEX
  8
drinkSmall
 10
0.0
 20
0.0
 30
0.0
 70
   128
 71
   55
 72
   68
 73
   56
  0
VERTEX
  8
drinkSmall
 10
0.0
 20
0.0
 30
0.0
 70
   128
 71
   62
 72
   63
 73
   51
  0
VERTEX
  8
drinkSmall
 10
0.0
 20
0.0
 30
0.0
 70
   128
 71
   32
 72
   113
 73
   31
  0
VERTEX
  8
drinkSmall
 10
0.0
 20
0.0
 30
0.0
 70
   128
 71
   56
 72
   69
 73
   57
  0
VERTEX
  8
drinkSmall
 10
0.0
 20
0.0
 30
0.0
 70
   128
 71
   4
 72
   40
 73
   6
  0
VERTEX
  8
drinkSmall
 10
0.0
 20
0.0
 30
0.0
 70
   128
 71
   5
 72
   111
 73
   7
  0
VERTEX
  8
drinkSmall
 10
0.0
 20
0.0
 30
0.0
 70
   128
 71
   8
 72
   42
 73
   10
  0
VERTEX
  8
drinkSmall
 10
0.0
 20
0.0
 30
0.0
 70
   128
 71
   9
 72
   113
 73
   11
  0
VERTEX
  8
drinkSmall
 10
0.0
 20
0.0
 30
0.0
 70
   128
 71
   12
 72
   44
 73
   14
  0
VERTEX
  8
drinkSmall
 10
0.0
 20
0.0
 30
0.0
 70
   128
 71
   13
 72
   115
 73
   15
  0
VERTEX
  8
drinkSmall
 10
0.0
 20
0.0
 30
0.0
 70
   128
 71
   16
 72
   46
 73
   18
  0
VERTEX
  8
drinkSmall
 10
0.0
 20
0.0
 30
0.0
 70
   128
 71
   17
 72
   117
 73
   19
  0
VERTEX
  8
drinkSmall
 10
0.0
 20
0.0
 30
0.0
 70
   128
 71
   20
 72
   48
 73
   22
  0
VERTEX
  8
drinkSmall
 10
0.0
 20
0.0
 30
0.0
 70
   128
 71
   21
 72
   119
 73
   23
  0
VERTEX
  8
drinkSmall
 10
0.0
 20
0.0
 30
0.0
 70
   128
 71
   24
 72
   50
 73
   26
  0
VERTEX
  8
drinkSmall
 10
0.0
 20
0.0
 30
0.0
 70
   128
 71
   25
 72
   109
 73
   3
  0
VERTEX
  8
drinkSmall
 10
0.0
 20
0.0
 30
0.0
 70
   128
 71
   39
 72
   98
 73
   40
  0
VERTEX
  8
drinkSmall
 10
0.0
 20
0.0
 30
0.0
 70
   128
 71
   41
 72
   6
 73
   40
  0
VERTEX
  8
drinkSmall
 10
0.0
 20
0.0
 30
0.0
 70
   128
 71
   41
 72
   100
 73
   42
  0
VERTEX
  8
drinkSmall
 10
0.0
 20
0.0
 30
0.0
 70
   128
 71
   43
 72
   10
 73
   42
  0
VERTEX
  8
drinkSmall
 10
0.0
 20
0.0
 30
0.0
 70
   128
 71
   43
 72
   102
 73
   44
  0
VERTEX
  8
drinkSmall
 10
0.0
 20
0.0
 30
0.0
 70
   128
 71
   45
 72
   14
 73
   44
  0
VERTEX
  8
drinkSmall
 10
0.0
 20
0.0
 30
0.0
 70
   128
 71
   45
 72
   104
 73
   46
  0
VERTEX
  8
drinkSmall
 10
0.0
 20
0.0
 30
0.0
 70
   128
 71
   47
 72
   18
 73
   46
  0
VERTEX
  8
drinkSmall
 10
0.0
 20
0.0
 30
0.0
 70
   128
 71
   47
 72
   106
 73
   48
  0
VERTEX
  8
drinkSmall
 10
0.0
 20
0.0
 30
0.0
 70
   128
 71
   49
 72
   22
 73
   48
  0
VERTEX
  8
drinkSmall
 10
0.0
 20
0.0
 30
0.0
 70
   128
 71
   49
 72
   108
 73
   50
  0
VERTEX
  8
drinkSmall
 10
0.0
 20
0.0
 30
0.0
 70
   128
 71
   39
 72
   26
 73
   50
  0
VERTEX
  8
drinkSmall
 10
0.0
 20
0.0
 30
0.0
 70
   128
 71
   27
 72
   52
 73
   28
  0
VERTEX
  8
drinkSmall
 10
0.0
 20
0.0
 30
0.0
 70
   128
 71
   28
 72
   53
 73
   29
  0
VERTEX
  8
drinkSmall
 10
0.0
 20
0.0
 30
0.0
 70
   128
 71
   29
 72
   54
 73
   30
  0
VERTEX
  8
drinkSmall
 10
0.0
 20
0.0
 30
0.0
 70
   128
 71
   30
 72
   55
 73
   31
  0
VERTEX
  8
drinkSmall
 10
0.0
 20
0.0
 30
0.0
 70
   128
 71
   31
 72
   56
 73
   32
  0
VERTEX
  8
drinkSmall
 10
0.0
 20
0.0
 30
0.0
 70
   128
 71
   32
 72
   57
 73
   33
  0
VERTEX
  8
drinkSmall
 10
0.0
 20
0.0
 30
0.0
 70
   128
 71
   33
 72
   58
 73
   34
  0
VERTEX
  8
drinkSmall
 10
0.0
 20
0.0
 30
0.0
 70
   128
 71
   34
 72
   59
 73
   35
  0
VERTEX
  8
drinkSmall
 10
0.0
 20
0.0
 30
0.0
 70
   128
 71
   35
 72
   60
 73
   36
  0
VERTEX
  8
drinkSmall
 10
0.0
 20
0.0
 30
0.0
 70
   128
 71
   36
 72
   61
 73
   37
  0
VERTEX
  8
drinkSmall
 10
0.0
 20
0.0
 30
0.0
 70
   128
 71
   37
 72
   62
 73
   38
  0
VERTEX
  8
drinkSmall
 10
0.0
 20
0.0
 30
0.0
 70
   128
 71
   38
 72
   51
 73
   27
  0
VERTEX
  8
drinkSmall
 10
0.0
 20
0.0
 30
0.0
 70
   128
 71
   51
 72
   64
 73
   52
  0
VERTEX
  8
drinkSmall
 10
0.0
 20
0.0
 30
0.0
 70
   128
 71
   63
 72
   76
 73
   64
  0
VERTEX
  8
drinkSmall
 10
0.0
 20
0.0
 30
0.0
 70
   128
 71
   64
 72
   77
 73
   65
  0
VERTEX
  8
drinkSmall
 10
0.0
 20
0.0
 30
0.0
 70
   128
 71
   65
 72
   78
 73
   66
  0
VERTEX
  8
drinkSmall
 10
0.0
 20
0.0
 30
0.0
 70
   128
 71
   66
 72
   79
 73
   67
  0
VERTEX
  8
drinkSmall
 10
0.0
 20
0.0
 30
0.0
 70
   128
 71
   67
 72
   80
 73
   68
  0
VERTEX
  8
drinkSmall
 10
0.0
 20
0.0
 30
0.0
 70
   128
 71
   68
 72
   81
 73
   69
  0
VERTEX
  8
drinkSmall
 10
0.0
 20
0.0
 30
0.0
 70
   128
 71
   69
 72
   82
 73
   70
  0
VERTEX
  8
drinkSmall
 10
0.0
 20
0.0
 30
0.0
 70
   128
 71
   70
 72
   83
 73
   71
  0
VERTEX
  8
drinkSmall
 10
0.0
 20
0.0
 30
0.0
 70
   128
 71
   71
 72
   84
 73
   72
  0
VERTEX
  8
drinkSmall
 10
0.0
 20
0.0
 30
0.0
 70
   128
 71
   72
 72
   74
 73
   2
  0
VERTEX
  8
drinkSmall
 10
0.0
 20
0.0
 30
0.0
 70
   128
 71
   2
 72
   73
 73
   1
  0
VERTEX
  8
drinkSmall
 10
0.0
 20
0.0
 30
0.0
 70
   128
 71
   1
 72
   75
 73
   63
  0
VERTEX
  8
drinkSmall
 10
0.0
 20
0.0
 30
0.0
 70
   128
 71
   75
 72
   88
 73
   76
  0
VERTEX
  8
drinkSmall
 10
0.0
 20
0.0
 30
0.0
 70
   128
 71
   76
 72
   89
 73
   77
  0
VERTEX
  8
drinkSmall
 10
0.0
 20
0.0
 30
0.0
 70
   128
 71
   77
 72
   90
 73
   78
  0
VERTEX
  8
drinkSmall
 10
0.0
 20
0.0
 30
0.0
 70
   128
 71
   78
 72
   91
 73
   79
  0
VERTEX
  8
drinkSmall
 10
0.0
 20
0.0
 30
0.0
 70
   128
 71
   79
 72
   92
 73
   80
  0
VERTEX
  8
drinkSmall
 10
0.0
 20
0.0
 30
0.0
 70
   128
 71
   80
 72
   93
 73
   81
  0
VERTEX
  8
drinkSmall
 10
0.0
 20
0.0
 30
0.0
 70
   128
 71
   81
 72
   94
 73
   82
  0
VERTEX
  8
drinkSmall
 10
0.0
 20
0.0
 30
0.0
 70
   128
 71
   82
 72
   95
 73
   83
  0
VERTEX
  8
drinkSmall
 10
0.0
 20
0.0
 30
0.0
 70
   128
 71
   83
 72
   96
 73
   84
  0
VERTEX
  8
drinkSmall
 10
0.0
 20
0.0
 30
0.0
 70
   128
 71
   84
 72
   86
 73
   74
  0
VERTEX
  8
drinkSmall
 10
0.0
 20
0.0
 30
0.0
 70
   128
 71
   74
 72
   85
 73
   73
  0
VERTEX
  8
drinkSmall
 10
0.0
 20
0.0
 30
0.0
 70
   128
 71
   73
 72
   87
 73
   75
  0
VERTEX
  8
drinkSmall
 10
0.0
 20
0.0
 30
0.0
 70
   128
 71
   99
 72
   40
 73
   98
  0
VERTEX
  8
drinkSmall
 10
0.0
 20
0.0
 30
0.0
 70
   128
 71
   101
 72
   42
 73
   100
  0
VERTEX
  8
drinkSmall
 10
0.0
 20
0.0
 30
0.0
 70
   128
 71
   103
 72
   44
 73
   102
  0
VERTEX
  8
drinkSmall
 10
0.0
 20
0.0
 30
0.0
 70
   128
 71
   105
 72
   46
 73
   104
  0
VERTEX
  8
drinkSmall
 10
0.0
 20
0.0
 30
0.0
 70
   128
 71
   107
 72
   48
 73
   106
  0
VERTEX
  8
drinkSmall
 10
0.0
 20
0.0
 30
0.0
 70
   128
 71
   97
 72
   50
 73
   108
  0
VERTEX
  8
drinkSmall
 10
0.0
 20
0.0
 30
0.0
 70
   128
 71
   3
 72
   110
 73
   5
  0
VERTEX
  8
drinkSmall
 10
0.0
 20
0.0
 30
0.0
 70
   128
 71
   7
 72
   112
 73
   9
  0
VERTEX
  8
drinkSmall
 10
0.0
 20
0.0
 30
0.0
 70
   128
 71
   11
 72
   114
 73
   13
  0
VERTEX
  8
drinkSmall
 10
0.0
 20
0.0
 30
0.0
 70
   128
 71
   15
 72
   116
 73
   17
  0
VERTEX
  8
drinkSmall
 10
0.0
 20
0.0
 30
0.0
 70
   128
 71
   19
 72
   118
 73
   21
  0
VERTEX
  8
drinkSmall
 10
0.0
 20
0.0
 30
0.0
 70
   128
 71
   23
 72
   120
 73
   25
  0
VERTEX
  8
drinkSmall
 10
0.0
 20
0.0
 30
0.0
 70
   128
 71
   98
 72
   7
 73
   99
  0
VERTEX
  8
drinkSmall
 10
0.0
 20
0.0
 30
0.0
 70
   128
 71
   29
 72
   110
 73
   28
  0
VERTEX
  8
drinkSmall
 10
0.0
 20
0.0
 30
0.0
 70
   128
 71
   100
 72
   11
 73
   101
  0
VERTEX
  8
drinkSmall
 10
0.0
 20
0.0
 30
0.0
 70
   128
 71
   31
 72
   112
 73
   30
  0
VERTEX
  8
drinkSmall
 10
0.0
 20
0.0
 30
0.0
 70
   128
 71
   102
 72
   15
 73
   103
  0
VERTEX
  8
drinkSmall
 10
0.0
 20
0.0
 30
0.0
 70
   128
 71
   33
 72
   114
 73
   32
  0
VERTEX
  8
drinkSmall
 10
0.0
 20
0.0
 30
0.0
 70
   128
 71
   104
 72
   19
 73
   105
  0
VERTEX
  8
drinkSmall
 10
0.0
 20
0.0
 30
0.0
 70
   128
 71
   35
 72
   116
 73
   34
  0
VERTEX
  8
drinkSmall
 10
0.0
 20
0.0
 30
0.0
 70
   128
 71
   106
 72
   23
 73
   107
  0
VERTEX
  8
drinkSmall
 10
0.0
 20
0.0
 30
0.0
 70
   128
 71
   37
 72
   118
 73
   36
  0
VERTEX
  8
drinkSmall
 10
0.0
 20
0.0
 30
0.0
 70
   128
 71
   108
 72
   3
 73
   97
  0
VERTEX
  8
drinkSmall
 10
0.0
 20
0.0
 30
0.0
 70
   128
 71
   27
 72
   120
 73
   38
  0
SEQEND
  0
ENDSEC
  0
EOF
