999
FBX AutoCAD (*.DXF) exporter
  0
SECTION
  2
HEADER
  9
$ACADVER
  1
AC1008
  9
$UCSORG
 10
0.0
 20
0.0
 30
0.0
  9
$UCSXDIR
 10
1.0
 20
0.0
 30
0.0
  9
$TILEMODE
 70
   1
  9
$UCSYDIR
 10
0.0
 20
1.0
 30
0.0
  0
ENDSEC
  0
SECTION
  2
TABLES
  0
TABLE
  2
LTYPE
 70
   1
  0
LTYPE
  2
CONTINUOUS
 70
   64
  3
Solid line
 72
   65
 73
   0
 40
0.0
  0
ENDTAB
  0
TABLE
  2
LAYER
 70
   1
  0
LAYER
  2
almonds
 70
   0
 62
   250
  6
CONTINUOUS
  0
ENDTAB
  0
ENDSEC
  0
SECTION
  2
BLOCKS
  0
ENDSEC
  0
SECTION
  2
ENTITIES
  0
POLYLINE
  8
almonds
 66
   1
 10
0.0
 20
0.0
 30
0.0
 70
   64
 71
   55
 72
   106
  0
VERTEX
  8
almonds
 10
42.062677
 20
9.500000
 30
27.032041
 70
   192
  0
VERTEX
  8
almonds
 10
42.062677
 20
75.775300
 30
27.032041
 70
   192
  0
VERTEX
  8
almonds
 10
50.000000
 20
9.500000
 30
0.000000
 70
   192
  0
VERTEX
  8
almonds
 10
50.000000
 20
75.775300
 30
0.000000
 70
   192
  0
VERTEX
  8
almonds
 10
42.062677
 20
9.500000
 30
-27.032041
 70
   192
  0
VERTEX
  8
almonds
 10
42.062677
 20
75.775300
 30
-27.032041
 70
   192
  0
VERTEX
  8
almonds
 10
20.770751
 20
9.500000
 30
-45.481600
 70
   192
  0
VERTEX
  8
almonds
 10
20.770751
 20
75.775300
 30
-45.481600
 70
   192
  0
VERTEX
  8
almonds
 10
-7.115742
 20
9.500000
 30
-49.491072
 70
   192
  0
VERTEX
  8
almonds
 10
-7.115742
 20
75.775300
 30
-49.491072
 70
   192
  0
VERTEX
  8
almonds
 10
-32.743037
 20
9.500000
 30
-37.787479
 70
   192
  0
VERTEX
  8
almonds
 10
-32.743037
 20
75.775300
 30
-37.787479
 70
   192
  0
VERTEX
  8
almonds
 10
-47.974649
 20
9.500000
 30
-14.086628
 70
   192
  0
VERTEX
  8
almonds
 10
-47.974649
 20
75.775300
 30
-14.086628
 70
   192
  0
VERTEX
  8
almonds
 10
-47.974649
 20
9.500000
 30
14.086628
 70
   192
  0
VERTEX
  8
almonds
 10
-47.974649
 20
75.775300
 30
14.086628
 70
   192
  0
VERTEX
  8
almonds
 10
-32.743037
 20
9.500000
 30
37.787479
 70
   192
  0
VERTEX
  8
almonds
 10
-32.743037
 20
75.775300
 30
37.787479
 70
   192
  0
VERTEX
  8
almonds
 10
-7.115742
 20
9.500000
 30
49.491072
 70
   192
  0
VERTEX
  8
almonds
 10
-7.115742
 20
75.775300
 30
49.491072
 70
   192
  0
VERTEX
  8
almonds
 10
20.770751
 20
9.500000
 30
45.481600
 70
   192
  0
VERTEX
  8
almonds
 10
20.770751
 20
75.775300
 30
45.481600
 70
   192
  0
VERTEX
  8
almonds
 10
35.730743
 20
0.000000
 30
23.517876
 70
   192
  0
VERTEX
  8
almonds
 10
42.443740
 20
0.000000
 30
-0.000000
 70
   192
  0
VERTEX
  8
almonds
 10
35.730743
 20
0.000000
 30
-23.517876
 70
   192
  0
VERTEX
  8
almonds
 10
17.723081
 20
0.000000
 30
-39.568992
 70
   192
  0
VERTEX
  8
almonds
 10
-5.861939
 20
0.000000
 30
-43.057233
 70
   192
  0
VERTEX
  8
almonds
 10
-27.536242
 20
0.000000
 30
-32.875106
 70
   192
  0
VERTEX
  8
almonds
 10
-40.418388
 20
0.000000
 30
-12.255366
 70
   192
  0
VERTEX
  8
almonds
 10
-40.418388
 20
0.000000
 30
12.255366
 70
   192
  0
VERTEX
  8
almonds
 10
-27.536242
 20
0.000000
 30
32.875106
 70
   192
  0
VERTEX
  8
almonds
 10
-5.861939
 20
0.000000
 30
43.057233
 70
   192
  0
VERTEX
  8
almonds
 10
17.723081
 20
0.000000
 30
39.568992
 70
   192
  0
VERTEX
  8
almonds
 10
42.062677
 20
86.675300
 30
27.032041
 70
   192
  0
VERTEX
  8
almonds
 10
50.000000
 20
86.675300
 30
0.000000
 70
   192
  0
VERTEX
  8
almonds
 10
42.062677
 20
86.675300
 30
-27.032041
 70
   192
  0
VERTEX
  8
almonds
 10
20.770751
 20
86.675300
 30
-45.481600
 70
   192
  0
VERTEX
  8
almonds
 10
-7.115742
 20
86.675300
 30
-49.491072
 70
   192
  0
VERTEX
  8
almonds
 10
-32.743037
 20
86.675300
 30
-37.787479
 70
   192
  0
VERTEX
  8
almonds
 10
-47.974649
 20
86.675300
 30
-14.086628
 70
   192
  0
VERTEX
  8
almonds
 10
-47.974649
 20
86.675300
 30
14.086628
 70
   192
  0
VERTEX
  8
almonds
 10
-32.743037
 20
86.675300
 30
37.787479
 70
   192
  0
VERTEX
  8
almonds
 10
-7.115742
 20
86.675300
 30
49.491072
 70
   192
  0
VERTEX
  8
almonds
 10
20.770751
 20
86.675300
 30
45.481600
 70
   192
  0
VERTEX
  8
almonds
 10
39.928077
 20
87.975300
 30
25.626375
 70
   192
  0
VERTEX
  8
almonds
 10
47.452659
 20
87.975300
 30
-0.000000
 70
   192
  0
VERTEX
  8
almonds
 10
39.928077
 20
87.975300
 30
-25.626375
 70
   192
  0
VERTEX
  8
almonds
 10
19.743331
 20
87.975300
 30
-43.116557
 70
   192
  0
VERTEX
  8
almonds
 10
-6.693064
 20
87.975300
 30
-46.917536
 70
   192
  0
VERTEX
  8
almonds
 10
-30.987740
 20
87.975300
 30
-35.822530
 70
   192
  0
VERTEX
  8
almonds
 10
-45.427308
 20
87.975300
 30
-13.354123
 70
   192
  0
VERTEX
  8
almonds
 10
-45.427308
 20
87.975300
 30
13.354123
 70
   192
  0
VERTEX
  8
almonds
 10
-30.987740
 20
87.975300
 30
35.822530
 70
   192
  0
VERTEX
  8
almonds
 10
-6.693064
 20
87.975300
 30
46.917536
 70
   192
  0
VERTEX
  8
almonds
 10
19.743331
 20
87.975300
 30
43.116557
 70
   192
  0
VERTEX
  8
almonds
 10
0.0
 20
0.0
 30
0.0
 70
   128
 71
   23
 72
   25
 73
   29
  0
VERTEX
  8
almonds
 10
0.0
 20
0.0
 30
0.0
 70
   128
 71
   3
 72
   4
 73
   6
  0
VERTEX
  8
almonds
 10
0.0
 20
0.0
 30
0.0
 70
   128
 71
   45
 72
   55
 73
   54
  0
VERTEX
  8
almonds
 10
0.0
 20
0.0
 30
0.0
 70
   128
 71
   25
 72
   26
 73
   28
  0
VERTEX
  8
almonds
 10
0.0
 20
0.0
 30
0.0
 70
   128
 71
   5
 72
   6
 73
   8
  0
VERTEX
  8
almonds
 10
0.0
 20
0.0
 30
0.0
 70
   128
 71
   23
 72
   24
 73
   25
  0
VERTEX
  8
almonds
 10
0.0
 20
0.0
 30
0.0
 70
   128
 71
   26
 72
   27
 73
   28
  0
VERTEX
  8
almonds
 10
0.0
 20
0.0
 30
0.0
 70
   128
 71
   7
 72
   8
 73
   10
  0
VERTEX
  8
almonds
 10
0.0
 20
0.0
 30
0.0
 70
   128
 71
   29
 72
   30
 73
   31
  0
VERTEX
  8
almonds
 10
0.0
 20
0.0
 30
0.0
 70
   128
 71
   31
 72
   32
 73
   33
  0
VERTEX
  8
almonds
 10
0.0
 20
0.0
 30
0.0
 70
   128
 71
   9
 72
   10
 73
   12
  0
VERTEX
  8
almonds
 10
0.0
 20
0.0
 30
0.0
 70
   128
 71
   46
 72
   45
 73
   47
  0
VERTEX
  8
almonds
 10
0.0
 20
0.0
 30
0.0
 70
   128
 71
   47
 72
   45
 73
   52
  0
VERTEX
  8
almonds
 10
0.0
 20
0.0
 30
0.0
 70
   128
 71
   11
 72
   12
 73
   14
  0
VERTEX
  8
almonds
 10
0.0
 20
0.0
 30
0.0
 70
   128
 71
   52
 72
   45
 73
   54
  0
VERTEX
  8
almonds
 10
0.0
 20
0.0
 30
0.0
 70
   128
 71
   52
 72
   51
 73
   50
  0
VERTEX
  8
almonds
 10
0.0
 20
0.0
 30
0.0
 70
   128
 71
   13
 72
   14
 73
   16
  0
VERTEX
  8
almonds
 10
0.0
 20
0.0
 30
0.0
 70
   128
 71
   50
 72
   49
 73
   48
  0
VERTEX
  8
almonds
 10
0.0
 20
0.0
 30
0.0
 70
   128
 71
   19
 72
   20
 73
   22
  0
VERTEX
  8
almonds
 10
0.0
 20
0.0
 30
0.0
 70
   128
 71
   15
 72
   16
 73
   18
  0
VERTEX
  8
almonds
 10
0.0
 20
0.0
 30
0.0
 70
   128
 71
   21
 72
   22
 73
   2
  0
VERTEX
  8
almonds
 10
0.0
 20
0.0
 30
0.0
 70
   128
 71
   1
 72
   2
 73
   4
  0
VERTEX
  8
almonds
 10
0.0
 20
0.0
 30
0.0
 70
   128
 71
   17
 72
   18
 73
   20
  0
VERTEX
  8
almonds
 10
0.0
 20
0.0
 30
0.0
 70
   128
 71
   1
 72
   23
 73
   33
  0
VERTEX
  8
almonds
 10
0.0
 20
0.0
 30
0.0
 70
   128
 71
   21
 72
   33
 73
   32
  0
VERTEX
  8
almonds
 10
0.0
 20
0.0
 30
0.0
 70
   128
 71
   19
 72
   32
 73
   31
  0
VERTEX
  8
almonds
 10
0.0
 20
0.0
 30
0.0
 70
   128
 71
   17
 72
   31
 73
   30
  0
VERTEX
  8
almonds
 10
0.0
 20
0.0
 30
0.0
 70
   128
 71
   15
 72
   30
 73
   29
  0
VERTEX
  8
almonds
 10
0.0
 20
0.0
 30
0.0
 70
   128
 71
   13
 72
   29
 73
   28
  0
VERTEX
  8
almonds
 10
0.0
 20
0.0
 30
0.0
 70
   128
 71
   11
 72
   28
 73
   27
  0
VERTEX
  8
almonds
 10
0.0
 20
0.0
 30
0.0
 70
   128
 71
   9
 72
   27
 73
   26
  0
VERTEX
  8
almonds
 10
0.0
 20
0.0
 30
0.0
 70
   128
 71
   7
 72
   26
 73
   25
  0
VERTEX
  8
almonds
 10
0.0
 20
0.0
 30
0.0
 70
   128
 71
   5
 72
   25
 73
   24
  0
VERTEX
  8
almonds
 10
0.0
 20
0.0
 30
0.0
 70
   128
 71
   3
 72
   24
 73
   23
  0
VERTEX
  8
almonds
 10
0.0
 20
0.0
 30
0.0
 70
   128
 71
   4
 72
   35
 73
   36
  0
VERTEX
  8
almonds
 10
0.0
 20
0.0
 30
0.0
 70
   128
 71
   6
 72
   36
 73
   37
  0
VERTEX
  8
almonds
 10
0.0
 20
0.0
 30
0.0
 70
   128
 71
   8
 72
   37
 73
   38
  0
VERTEX
  8
almonds
 10
0.0
 20
0.0
 30
0.0
 70
   128
 71
   10
 72
   38
 73
   39
  0
VERTEX
  8
almonds
 10
0.0
 20
0.0
 30
0.0
 70
   128
 71
   12
 72
   39
 73
   40
  0
VERTEX
  8
almonds
 10
0.0
 20
0.0
 30
0.0
 70
   128
 71
   14
 72
   40
 73
   41
  0
VERTEX
  8
almonds
 10
0.0
 20
0.0
 30
0.0
 70
   128
 71
   16
 72
   41
 73
   42
  0
VERTEX
  8
almonds
 10
0.0
 20
0.0
 30
0.0
 70
   128
 71
   18
 72
   42
 73
   43
  0
VERTEX
  8
almonds
 10
0.0
 20
0.0
 30
0.0
 70
   128
 71
   20
 72
   43
 73
   44
  0
VERTEX
  8
almonds
 10
0.0
 20
0.0
 30
0.0
 70
   128
 71
   22
 72
   44
 73
   34
  0
VERTEX
  8
almonds
 10
0.0
 20
0.0
 30
0.0
 70
   128
 71
   2
 72
   34
 73
   35
  0
VERTEX
  8
almonds
 10
0.0
 20
0.0
 30
0.0
 70
   128
 71
   35
 72
   46
 73
   47
  0
VERTEX
  8
almonds
 10
0.0
 20
0.0
 30
0.0
 70
   128
 71
   36
 72
   47
 73
   48
  0
VERTEX
  8
almonds
 10
0.0
 20
0.0
 30
0.0
 70
   128
 71
   37
 72
   48
 73
   49
  0
VERTEX
  8
almonds
 10
0.0
 20
0.0
 30
0.0
 70
   128
 71
   38
 72
   49
 73
   50
  0
VERTEX
  8
almonds
 10
0.0
 20
0.0
 30
0.0
 70
   128
 71
   39
 72
   50
 73
   51
  0
VERTEX
  8
almonds
 10
0.0
 20
0.0
 30
0.0
 70
   128
 71
   40
 72
   51
 73
   52
  0
VERTEX
  8
almonds
 10
0.0
 20
0.0
 30
0.0
 70
   128
 71
   41
 72
   52
 73
   53
  0
VERTEX
  8
almonds
 10
0.0
 20
0.0
 30
0.0
 70
   128
 71
   42
 72
   53
 73
   54
  0
VERTEX
  8
almonds
 10
0.0
 20
0.0
 30
0.0
 70
   128
 71
   43
 72
   54
 73
   55
  0
VERTEX
  8
almonds
 10
0.0
 20
0.0
 30
0.0
 70
   128
 71
   44
 72
   55
 73
   45
  0
VERTEX
  8
almonds
 10
0.0
 20
0.0
 30
0.0
 70
   128
 71
   34
 72
   45
 73
   46
  0
VERTEX
  8
almonds
 10
0.0
 20
0.0
 30
0.0
 70
   128
 71
   23
 72
   29
 73
   33
  0
VERTEX
  8
almonds
 10
0.0
 20
0.0
 30
0.0
 70
   128
 71
   3
 72
   6
 73
   5
  0
VERTEX
  8
almonds
 10
0.0
 20
0.0
 30
0.0
 70
   128
 71
   25
 72
   28
 73
   29
  0
VERTEX
  8
almonds
 10
0.0
 20
0.0
 30
0.0
 70
   128
 71
   5
 72
   8
 73
   7
  0
VERTEX
  8
almonds
 10
0.0
 20
0.0
 30
0.0
 70
   128
 71
   7
 72
   10
 73
   9
  0
VERTEX
  8
almonds
 10
0.0
 20
0.0
 30
0.0
 70
   128
 71
   29
 72
   31
 73
   33
  0
VERTEX
  8
almonds
 10
0.0
 20
0.0
 30
0.0
 70
   128
 71
   9
 72
   12
 73
   11
  0
VERTEX
  8
almonds
 10
0.0
 20
0.0
 30
0.0
 70
   128
 71
   47
 72
   52
 73
   50
  0
VERTEX
  8
almonds
 10
0.0
 20
0.0
 30
0.0
 70
   128
 71
   11
 72
   14
 73
   13
  0
VERTEX
  8
almonds
 10
0.0
 20
0.0
 30
0.0
 70
   128
 71
   52
 72
   54
 73
   53
  0
VERTEX
  8
almonds
 10
0.0
 20
0.0
 30
0.0
 70
   128
 71
   13
 72
   16
 73
   15
  0
VERTEX
  8
almonds
 10
0.0
 20
0.0
 30
0.0
 70
   128
 71
   50
 72
   48
 73
   47
  0
VERTEX
  8
almonds
 10
0.0
 20
0.0
 30
0.0
 70
   128
 71
   19
 72
   22
 73
   21
  0
VERTEX
  8
almonds
 10
0.0
 20
0.0
 30
0.0
 70
   128
 71
   15
 72
   18
 73
   17
  0
VERTEX
  8
almonds
 10
0.0
 20
0.0
 30
0.0
 70
   128
 71
   21
 72
   2
 73
   1
  0
VERTEX
  8
almonds
 10
0.0
 20
0.0
 30
0.0
 70
   128
 71
   1
 72
   4
 73
   3
  0
VERTEX
  8
almonds
 10
0.0
 20
0.0
 30
0.0
 70
   128
 71
   17
 72
   20
 73
   19
  0
VERTEX
  8
almonds
 10
0.0
 20
0.0
 30
0.0
 70
   128
 71
   1
 72
   33
 73
   21
  0
VERTEX
  8
almonds
 10
0.0
 20
0.0
 30
0.0
 70
   128
 71
   21
 72
   32
 73
   19
  0
VERTEX
  8
almonds
 10
0.0
 20
0.0
 30
0.0
 70
   128
 71
   19
 72
   31
 73
   17
  0
VERTEX
  8
almonds
 10
0.0
 20
0.0
 30
0.0
 70
   128
 71
   17
 72
   30
 73
   15
  0
VERTEX
  8
almonds
 10
0.0
 20
0.0
 30
0.0
 70
   128
 71
   15
 72
   29
 73
   13
  0
VERTEX
  8
almonds
 10
0.0
 20
0.0
 30
0.0
 70
   128
 71
   13
 72
   28
 73
   11
  0
VERTEX
  8
almonds
 10
0.0
 20
0.0
 30
0.0
 70
   128
 71
   11
 72
   27
 73
   9
  0
VERTEX
  8
almonds
 10
0.0
 20
0.0
 30
0.0
 70
   128
 71
   9
 72
   26
 73
   7
  0
VERTEX
  8
almonds
 10
0.0
 20
0.0
 30
0.0
 70
   128
 71
   7
 72
   25
 73
   5
  0
VERTEX
  8
almonds
 10
0.0
 20
0.0
 30
0.0
 70
   128
 71
   5
 72
   24
 73
   3
  0
VERTEX
  8
almonds
 10
0.0
 20
0.0
 30
0.0
 70
   128
 71
   3
 72
   23
 73
   1
  0
VERTEX
  8
almonds
 10
0.0
 20
0.0
 30
0.0
 70
   128
 71
   4
 72
   36
 73
   6
  0
VERTEX
  8
almonds
 10
0.0
 20
0.0
 30
0.0
 70
   128
 71
   6
 72
   37
 73
   8
  0
VERTEX
  8
almonds
 10
0.0
 20
0.0
 30
0.0
 70
   128
 71
   8
 72
   38
 73
   10
  0
VERTEX
  8
almonds
 10
0.0
 20
0.0
 30
0.0
 70
   128
 71
   10
 72
   39
 73
   12
  0
VERTEX
  8
almonds
 10
0.0
 20
0.0
 30
0.0
 70
   128
 71
   12
 72
   40
 73
   14
  0
VERTEX
  8
almonds
 10
0.0
 20
0.0
 30
0.0
 70
   128
 71
   14
 72
   41
 73
   16
  0
VERTEX
  8
almonds
 10
0.0
 20
0.0
 30
0.0
 70
   128
 71
   16
 72
   42
 73
   18
  0
VERTEX
  8
almonds
 10
0.0
 20
0.0
 30
0.0
 70
   128
 71
   18
 72
   43
 73
   20
  0
VERTEX
  8
almonds
 10
0.0
 20
0.0
 30
0.0
 70
   128
 71
   20
 72
   44
 73
   22
  0
VERTEX
  8
almonds
 10
0.0
 20
0.0
 30
0.0
 70
   128
 71
   22
 72
   34
 73
   2
  0
VERTEX
  8
almonds
 10
0.0
 20
0.0
 30
0.0
 70
   128
 71
   2
 72
   35
 73
   4
  0
VERTEX
  8
almonds
 10
0.0
 20
0.0
 30
0.0
 70
   128
 71
   35
 72
   47
 73
   36
  0
VERTEX
  8
almonds
 10
0.0
 20
0.0
 30
0.0
 70
   128
 71
   36
 72
   48
 73
   37
  0
VERTEX
  8
almonds
 10
0.0
 20
0.0
 30
0.0
 70
   128
 71
   37
 72
   49
 73
   38
  0
VERTEX
  8
almonds
 10
0.0
 20
0.0
 30
0.0
 70
   128
 71
   38
 72
   50
 73
   39
  0
VERTEX
  8
almonds
 10
0.0
 20
0.0
 30
0.0
 70
   128
 71
   39
 72
   51
 73
   40
  0
VERTEX
  8
almonds
 10
0.0
 20
0.0
 30
0.0
 70
   128
 71
   40
 72
   52
 73
   41
  0
VERTEX
  8
almonds
 10
0.0
 20
0.0
 30
0.0
 70
   128
 71
   41
 72
   53
 73
   42
  0
VERTEX
  8
almonds
 10
0.0
 20
0.0
 30
0.0
 70
   128
 71
   42
 72
   54
 73
   43
  0
VERTEX
  8
almonds
 10
0.0
 20
0.0
 30
0.0
 70
   128
 71
   43
 72
   55
 73
   44
  0
VERTEX
  8
almonds
 10
0.0
 20
0.0
 30
0.0
 70
   128
 71
   44
 72
   45
 73
   34
  0
VERTEX
  8
almonds
 10
0.0
 20
0.0
 30
0.0
 70
   128
 71
   34
 72
   46
 73
   35
  0
SEQEND
  0
ENDSEC
  0
EOF
