999
FBX AutoCAD (*.DXF) exporter
  0
SECTION
  2
HEADER
  9
$ACADVER
  1
AC1008
  9
$UCSORG
 10
0.0
 20
0.0
 30
0.0
  9
$UCSXDIR
 10
1.0
 20
0.0
 30
0.0
  9
$TILEMODE
 70
   1
  9
$UCSYDIR
 10
0.0
 20
1.0
 30
0.0
  0
ENDSEC
  0
SECTION
  2
TABLES
  0
TABLE
  2
LTYPE
 70
   1
  0
LTYPE
  2
CONTINUOUS
 70
   64
  3
Solid line
 72
   65
 73
   0
 40
0.0
  0
ENDTAB
  0
TABLE
  2
LAYER
 70
   1
  0
LAYER
  2
candyStick
 70
   0
 62
   250
  6
CONTINUOUS
  0
ENDTAB
  0
ENDSEC
  0
SECTION
  2
BLOCKS
  0
ENDSEC
  0
SECTION
  2
ENTITIES
  0
POLYLINE
  8
candyStick
 66
   1
 10
0.0
 20
0.0
 30
0.0
 70
   64
 71
   64
 72
   124
  0
VERTEX
  8
candyStick
 10
0.000000
 20
115.431864
 30
72.950472
 70
   192
  0
VERTEX
  8
candyStick
 10
-8.826814
 20
115.431864
 30
69.294286
 70
   192
  0
VERTEX
  8
candyStick
 10
-12.483000
 20
115.431864
 30
60.467472
 70
   192
  0
VERTEX
  8
candyStick
 10
-8.826814
 20
115.431864
 30
51.640658
 70
   192
  0
VERTEX
  8
candyStick
 10
0.000000
 20
115.431864
 30
47.984472
 70
   192
  0
VERTEX
  8
candyStick
 10
8.826814
 20
115.431864
 30
51.640658
 70
   192
  0
VERTEX
  8
candyStick
 10
12.483000
 20
115.431864
 30
60.467472
 70
   192
  0
VERTEX
  8
candyStick
 10
8.826814
 20
115.431864
 30
69.294286
 70
   192
  0
VERTEX
  8
candyStick
 10
-8.826814
 20
2.859579
 30
8.943415
 70
   192
  0
VERTEX
  8
candyStick
 10
8.826814
 20
2.859579
 30
8.943415
 70
   192
  0
VERTEX
  8
candyStick
 10
8.826814
 20
2.826033
 30
-8.710181
 70
   192
  0
VERTEX
  8
candyStick
 10
0.000000
 20
2.819085
 30
-12.366360
 70
   192
  0
VERTEX
  8
candyStick
 10
-8.826814
 20
2.826033
 30
-8.710181
 70
   192
  0
VERTEX
  8
candyStick
 10
-12.483000
 20
2.842806
 30
0.116617
 70
   192
  0
VERTEX
  8
candyStick
 10
-0.000000
 20
2.866527
 30
12.599595
 70
   192
  0
VERTEX
  8
candyStick
 10
12.483000
 20
2.842806
 30
0.116617
 70
   192
  0
VERTEX
  8
candyStick
 10
0.000000
 20
174.356165
 30
12.861978
 70
   192
  0
VERTEX
  8
candyStick
 10
-8.826814
 20
170.699979
 30
14.183944
 70
   192
  0
VERTEX
  8
candyStick
 10
-12.483000
 20
161.873165
 30
17.375451
 70
   192
  0
VERTEX
  8
candyStick
 10
-8.826814
 20
153.046351
 30
20.566958
 70
   192
  0
VERTEX
  8
candyStick
 10
0.000000
 20
149.390165
 30
21.888923
 70
   192
  0
VERTEX
  8
candyStick
 10
8.826814
 20
153.046351
 30
20.566958
 70
   192
  0
VERTEX
  8
candyStick
 10
12.483000
 20
161.873165
 30
17.375451
 70
   192
  0
VERTEX
  8
candyStick
 10
8.826814
 20
170.699979
 30
14.183944
 70
   192
  0
VERTEX
  8
candyStick
 10
-8.826814
 20
134.252026
 30
8.693735
 70
   192
  0
VERTEX
  8
candyStick
 10
8.826814
 20
134.252026
 30
8.693735
 70
   192
  0
VERTEX
  8
candyStick
 10
8.826814
 20
137.243883
 30
-8.965610
 70
   192
  0
VERTEX
  8
candyStick
 10
0.000000
 20
137.863517
 30
-12.622981
 70
   192
  0
VERTEX
  8
candyStick
 10
-8.826814
 20
137.243883
 30
-8.965610
 70
   192
  0
VERTEX
  8
candyStick
 10
-12.483000
 20
135.747954
 30
-0.135938
 70
   192
  0
VERTEX
  8
candyStick
 10
0.000000
 20
133.632392
 30
12.351105
 70
   192
  0
VERTEX
  8
candyStick
 10
12.483000
 20
135.747954
 30
-0.135938
 70
   192
  0
VERTEX
  8
candyStick
 10
0.000000
 20
159.461698
 30
-5.042290
 70
   192
  0
VERTEX
  8
candyStick
 10
-8.826814
 20
157.297265
 30
-1.927125
 70
   192
  0
VERTEX
  8
candyStick
 10
-12.483000
 20
152.071862
 30
5.593549
 70
   192
  0
VERTEX
  8
candyStick
 10
-8.826814
 20
146.846460
 30
13.114223
 70
   192
  0
VERTEX
  8
candyStick
 10
0.000000
 20
144.682027
 30
16.229388
 70
   192
  0
VERTEX
  8
candyStick
 10
8.826814
 20
146.846460
 30
13.114223
 70
   192
  0
VERTEX
  8
candyStick
 10
12.483000
 20
152.071862
 30
5.593549
 70
   192
  0
VERTEX
  8
candyStick
 10
8.826814
 20
157.297265
 30
-1.927125
 70
   192
  0
VERTEX
  8
candyStick
 10
0.000000
 20
174.356165
 30
46.059567
 70
   192
  0
VERTEX
  8
candyStick
 10
-8.826814
 20
170.699979
 30
44.859612
 70
   192
  0
VERTEX
  8
candyStick
 10
-12.483000
 20
161.873165
 30
41.962665
 70
   192
  0
VERTEX
  8
candyStick
 10
-8.826814
 20
153.046351
 30
39.065718
 70
   192
  0
VERTEX
  8
candyStick
 10
0.000000
 20
149.390165
 30
37.865763
 70
   192
  0
VERTEX
  8
candyStick
 10
8.826814
 20
153.046351
 30
39.065718
 70
   192
  0
VERTEX
  8
candyStick
 10
12.483000
 20
161.873165
 30
41.962665
 70
   192
  0
VERTEX
  8
candyStick
 10
8.826814
 20
170.699979
 30
44.859612
 70
   192
  0
VERTEX
  8
candyStick
 10
0.000000
 20
160.069022
 30
65.481065
 70
   192
  0
VERTEX
  8
candyStick
 10
-8.826814
 20
157.802383
 30
62.392203
 70
   192
  0
VERTEX
  8
candyStick
 10
-12.483000
 20
152.330233
 30
54.935030
 70
   192
  0
VERTEX
  8
candyStick
 10
-8.826814
 20
146.858082
 30
47.477858
 70
   192
  0
VERTEX
  8
candyStick
 10
0.000000
 20
144.591443
 30
44.388996
 70
   192
  0
VERTEX
  8
candyStick
 10
8.826814
 20
146.858082
 30
47.477858
 70
   192
  0
VERTEX
  8
candyStick
 10
12.483000
 20
152.330233
 30
54.935030
 70
   192
  0
VERTEX
  8
candyStick
 10
8.826814
 20
157.802383
 30
62.392203
 70
   192
  0
VERTEX
  8
candyStick
 10
0.000000
 20
138.231198
 30
72.950472
 70
   192
  0
VERTEX
  8
candyStick
 10
-8.826814
 20
137.623208
 30
69.294286
 70
   192
  0
VERTEX
  8
candyStick
 10
-12.483000
 20
136.155390
 30
60.467472
 70
   192
  0
VERTEX
  8
candyStick
 10
-8.826814
 20
134.687572
 30
51.640658
 70
   192
  0
VERTEX
  8
candyStick
 10
0.000000
 20
134.079582
 30
47.984472
 70
   192
  0
VERTEX
  8
candyStick
 10
8.826814
 20
134.687572
 30
51.640658
 70
   192
  0
VERTEX
  8
candyStick
 10
12.483000
 20
136.155390
 30
60.467472
 70
   192
  0
VERTEX
  8
candyStick
 10
8.826814
 20
137.623208
 30
69.294286
 70
   192
  0
VERTEX
  8
candyStick
 10
0.0
 20
0.0
 30
0.0
 70
   128
 71
   34
 72
   29
 73
   28
  0
VERTEX
  8
candyStick
 10
0.0
 20
0.0
 30
0.0
 70
   128
 71
   2
 72
   3
 73
   59
  0
VERTEX
  8
candyStick
 10
0.0
 20
0.0
 30
0.0
 70
   128
 71
   25
 72
   9
 73
   14
  0
VERTEX
  8
candyStick
 10
0.0
 20
0.0
 30
0.0
 70
   128
 71
   4
 72
   5
 73
   61
  0
VERTEX
  8
candyStick
 10
0.0
 20
0.0
 30
0.0
 70
   128
 71
   38
 72
   26
 73
   31
  0
VERTEX
  8
candyStick
 10
0.0
 20
0.0
 30
0.0
 70
   128
 71
   6
 72
   7
 73
   63
  0
VERTEX
  8
candyStick
 10
0.0
 20
0.0
 30
0.0
 70
   128
 71
   27
 72
   11
 73
   16
  0
VERTEX
  8
candyStick
 10
0.0
 20
0.0
 30
0.0
 70
   128
 71
   8
 72
   1
 73
   57
  0
VERTEX
  8
candyStick
 10
0.0
 20
0.0
 30
0.0
 70
   128
 71
   12
 72
   13
 73
   14
  0
VERTEX
  8
candyStick
 10
0.0
 20
0.0
 30
0.0
 70
   128
 71
   12
 72
   14
 73
   16
  0
VERTEX
  8
candyStick
 10
0.0
 20
0.0
 30
0.0
 70
   128
 71
   12
 72
   16
 73
   11
  0
VERTEX
  8
candyStick
 10
0.0
 20
0.0
 30
0.0
 70
   128
 71
   14
 72
   9
 73
   15
  0
VERTEX
  8
candyStick
 10
0.0
 20
0.0
 30
0.0
 70
   128
 71
   14
 72
   15
 73
   16
  0
VERTEX
  8
candyStick
 10
0.0
 20
0.0
 30
0.0
 70
   128
 71
   15
 72
   10
 73
   16
  0
VERTEX
  8
candyStick
 10
0.0
 20
0.0
 30
0.0
 70
   128
 71
   2
 72
   1
 73
   8
  0
VERTEX
  8
candyStick
 10
0.0
 20
0.0
 30
0.0
 70
   128
 71
   3
 72
   8
 73
   7
  0
VERTEX
  8
candyStick
 10
0.0
 20
0.0
 30
0.0
 70
   128
 71
   4
 72
   3
 73
   6
  0
VERTEX
  8
candyStick
 10
0.0
 20
0.0
 30
0.0
 70
   128
 71
   57
 72
   1
 73
   2
  0
VERTEX
  8
candyStick
 10
0.0
 20
0.0
 30
0.0
 70
   128
 71
   30
 72
   14
 73
   13
  0
VERTEX
  8
candyStick
 10
0.0
 20
0.0
 30
0.0
 70
   128
 71
   59
 72
   3
 73
   4
  0
VERTEX
  8
candyStick
 10
0.0
 20
0.0
 30
0.0
 70
   128
 71
   31
 72
   15
 73
   9
  0
VERTEX
  8
candyStick
 10
0.0
 20
0.0
 30
0.0
 70
   128
 71
   61
 72
   5
 73
   6
  0
VERTEX
  8
candyStick
 10
0.0
 20
0.0
 30
0.0
 70
   128
 71
   32
 72
   16
 73
   10
  0
VERTEX
  8
candyStick
 10
0.0
 20
0.0
 30
0.0
 70
   128
 71
   23
 72
   47
 73
   48
  0
VERTEX
  8
candyStick
 10
0.0
 20
0.0
 30
0.0
 70
   128
 71
   28
 72
   12
 73
   11
  0
VERTEX
  8
candyStick
 10
0.0
 20
0.0
 30
0.0
 70
   128
 71
   29
 72
   13
 73
   12
  0
VERTEX
  8
candyStick
 10
0.0
 20
0.0
 30
0.0
 70
   128
 71
   30
 72
   35
 73
   36
  0
VERTEX
  8
candyStick
 10
0.0
 20
0.0
 30
0.0
 70
   128
 71
   26
 72
   10
 73
   15
  0
VERTEX
  8
candyStick
 10
0.0
 20
0.0
 30
0.0
 70
   128
 71
   39
 72
   23
 73
   24
  0
VERTEX
  8
candyStick
 10
0.0
 20
0.0
 30
0.0
 70
   128
 71
   29
 72
   34
 73
   35
  0
VERTEX
  8
candyStick
 10
0.0
 20
0.0
 30
0.0
 70
   128
 71
   36
 72
   20
 73
   21
  0
VERTEX
  8
candyStick
 10
0.0
 20
0.0
 30
0.0
 70
   128
 71
   38
 72
   22
 73
   23
  0
VERTEX
  8
candyStick
 10
0.0
 20
0.0
 30
0.0
 70
   128
 71
   40
 72
   24
 73
   17
  0
VERTEX
  8
candyStick
 10
0.0
 20
0.0
 30
0.0
 70
   128
 71
   33
 72
   17
 73
   18
  0
VERTEX
  8
candyStick
 10
0.0
 20
0.0
 30
0.0
 70
   128
 71
   37
 72
   21
 73
   22
  0
VERTEX
  8
candyStick
 10
0.0
 20
0.0
 30
0.0
 70
   128
 71
   35
 72
   19
 73
   20
  0
VERTEX
  8
candyStick
 10
0.0
 20
0.0
 30
0.0
 70
   128
 71
   40
 72
   27
 73
   32
  0
VERTEX
  8
candyStick
 10
0.0
 20
0.0
 30
0.0
 70
   128
 71
   34
 72
   18
 73
   19
  0
VERTEX
  8
candyStick
 10
0.0
 20
0.0
 30
0.0
 70
   128
 71
   37
 72
   31
 73
   25
  0
VERTEX
  8
candyStick
 10
0.0
 20
0.0
 30
0.0
 70
   128
 71
   39
 72
   32
 73
   26
  0
VERTEX
  8
candyStick
 10
0.0
 20
0.0
 30
0.0
 70
   128
 71
   33
 72
   28
 73
   27
  0
VERTEX
  8
candyStick
 10
0.0
 20
0.0
 30
0.0
 70
   128
 71
   43
 72
   19
 73
   18
  0
VERTEX
  8
candyStick
 10
0.0
 20
0.0
 30
0.0
 70
   128
 71
   45
 72
   21
 73
   20
  0
VERTEX
  8
candyStick
 10
0.0
 20
0.0
 30
0.0
 70
   128
 71
   47
 72
   23
 73
   22
  0
VERTEX
  8
candyStick
 10
0.0
 20
0.0
 30
0.0
 70
   128
 71
   41
 72
   17
 73
   24
  0
VERTEX
  8
candyStick
 10
0.0
 20
0.0
 30
0.0
 70
   128
 71
   42
 72
   18
 73
   17
  0
VERTEX
  8
candyStick
 10
0.0
 20
0.0
 30
0.0
 70
   128
 71
   44
 72
   20
 73
   19
  0
VERTEX
  8
candyStick
 10
0.0
 20
0.0
 30
0.0
 70
   128
 71
   46
 72
   22
 73
   21
  0
VERTEX
  8
candyStick
 10
0.0
 20
0.0
 30
0.0
 70
   128
 71
   47
 72
   55
 73
   56
  0
VERTEX
  8
candyStick
 10
0.0
 20
0.0
 30
0.0
 70
   128
 71
   51
 72
   43
 73
   42
  0
VERTEX
  8
candyStick
 10
0.0
 20
0.0
 30
0.0
 70
   128
 71
   53
 72
   45
 73
   44
  0
VERTEX
  8
candyStick
 10
0.0
 20
0.0
 30
0.0
 70
   128
 71
   55
 72
   47
 73
   46
  0
VERTEX
  8
candyStick
 10
0.0
 20
0.0
 30
0.0
 70
   128
 71
   49
 72
   41
 73
   48
  0
VERTEX
  8
candyStick
 10
0.0
 20
0.0
 30
0.0
 70
   128
 71
   50
 72
   42
 73
   41
  0
VERTEX
  8
candyStick
 10
0.0
 20
0.0
 30
0.0
 70
   128
 71
   52
 72
   44
 73
   43
  0
VERTEX
  8
candyStick
 10
0.0
 20
0.0
 30
0.0
 70
   128
 71
   54
 72
   46
 73
   45
  0
VERTEX
  8
candyStick
 10
0.0
 20
0.0
 30
0.0
 70
   128
 71
   55
 72
   63
 73
   64
  0
VERTEX
  8
candyStick
 10
0.0
 20
0.0
 30
0.0
 70
   128
 71
   59
 72
   51
 73
   50
  0
VERTEX
  8
candyStick
 10
0.0
 20
0.0
 30
0.0
 70
   128
 71
   61
 72
   53
 73
   52
  0
VERTEX
  8
candyStick
 10
0.0
 20
0.0
 30
0.0
 70
   128
 71
   63
 72
   55
 73
   54
  0
VERTEX
  8
candyStick
 10
0.0
 20
0.0
 30
0.0
 70
   128
 71
   57
 72
   49
 73
   56
  0
VERTEX
  8
candyStick
 10
0.0
 20
0.0
 30
0.0
 70
   128
 71
   58
 72
   50
 73
   49
  0
VERTEX
  8
candyStick
 10
0.0
 20
0.0
 30
0.0
 70
   128
 71
   60
 72
   52
 73
   51
  0
VERTEX
  8
candyStick
 10
0.0
 20
0.0
 30
0.0
 70
   128
 71
   62
 72
   54
 73
   53
  0
VERTEX
  8
candyStick
 10
0.0
 20
0.0
 30
0.0
 70
   128
 71
   63
 72
   7
 73
   8
  0
VERTEX
  8
candyStick
 10
0.0
 20
0.0
 30
0.0
 70
   128
 71
   34
 72
   28
 73
   33
  0
VERTEX
  8
candyStick
 10
0.0
 20
0.0
 30
0.0
 70
   128
 71
   2
 72
   59
 73
   58
  0
VERTEX
  8
candyStick
 10
0.0
 20
0.0
 30
0.0
 70
   128
 71
   25
 72
   14
 73
   30
  0
VERTEX
  8
candyStick
 10
0.0
 20
0.0
 30
0.0
 70
   128
 71
   4
 72
   61
 73
   60
  0
VERTEX
  8
candyStick
 10
0.0
 20
0.0
 30
0.0
 70
   128
 71
   38
 72
   31
 73
   37
  0
VERTEX
  8
candyStick
 10
0.0
 20
0.0
 30
0.0
 70
   128
 71
   6
 72
   63
 73
   62
  0
VERTEX
  8
candyStick
 10
0.0
 20
0.0
 30
0.0
 70
   128
 71
   27
 72
   16
 73
   32
  0
VERTEX
  8
candyStick
 10
0.0
 20
0.0
 30
0.0
 70
   128
 71
   8
 72
   57
 73
   64
  0
VERTEX
  8
candyStick
 10
0.0
 20
0.0
 30
0.0
 70
   128
 71
   2
 72
   8
 73
   3
  0
VERTEX
  8
candyStick
 10
0.0
 20
0.0
 30
0.0
 70
   128
 71
   3
 72
   7
 73
   6
  0
VERTEX
  8
candyStick
 10
0.0
 20
0.0
 30
0.0
 70
   128
 71
   4
 72
   6
 73
   5
  0
VERTEX
  8
candyStick
 10
0.0
 20
0.0
 30
0.0
 70
   128
 71
   57
 72
   2
 73
   58
  0
VERTEX
  8
candyStick
 10
0.0
 20
0.0
 30
0.0
 70
   128
 71
   30
 72
   13
 73
   29
  0
VERTEX
  8
candyStick
 10
0.0
 20
0.0
 30
0.0
 70
   128
 71
   59
 72
   4
 73
   60
  0
VERTEX
  8
candyStick
 10
0.0
 20
0.0
 30
0.0
 70
   128
 71
   31
 72
   9
 73
   25
  0
VERTEX
  8
candyStick
 10
0.0
 20
0.0
 30
0.0
 70
   128
 71
   61
 72
   6
 73
   62
  0
VERTEX
  8
candyStick
 10
0.0
 20
0.0
 30
0.0
 70
   128
 71
   32
 72
   10
 73
   26
  0
VERTEX
  8
candyStick
 10
0.0
 20
0.0
 30
0.0
 70
   128
 71
   23
 72
   48
 73
   24
  0
VERTEX
  8
candyStick
 10
0.0
 20
0.0
 30
0.0
 70
   128
 71
   28
 72
   11
 73
   27
  0
VERTEX
  8
candyStick
 10
0.0
 20
0.0
 30
0.0
 70
   128
 71
   29
 72
   12
 73
   28
  0
VERTEX
  8
candyStick
 10
0.0
 20
0.0
 30
0.0
 70
   128
 71
   30
 72
   36
 73
   25
  0
VERTEX
  8
candyStick
 10
0.0
 20
0.0
 30
0.0
 70
   128
 71
   26
 72
   15
 73
   31
  0
VERTEX
  8
candyStick
 10
0.0
 20
0.0
 30
0.0
 70
   128
 71
   39
 72
   24
 73
   40
  0
VERTEX
  8
candyStick
 10
0.0
 20
0.0
 30
0.0
 70
   128
 71
   29
 72
   35
 73
   30
  0
VERTEX
  8
candyStick
 10
0.0
 20
0.0
 30
0.0
 70
   128
 71
   36
 72
   21
 73
   37
  0
VERTEX
  8
candyStick
 10
0.0
 20
0.0
 30
0.0
 70
   128
 71
   38
 72
   23
 73
   39
  0
VERTEX
  8
candyStick
 10
0.0
 20
0.0
 30
0.0
 70
   128
 71
   40
 72
   17
 73
   33
  0
VERTEX
  8
candyStick
 10
0.0
 20
0.0
 30
0.0
 70
   128
 71
   33
 72
   18
 73
   34
  0
VERTEX
  8
candyStick
 10
0.0
 20
0.0
 30
0.0
 70
   128
 71
   37
 72
   22
 73
   38
  0
VERTEX
  8
candyStick
 10
0.0
 20
0.0
 30
0.0
 70
   128
 71
   35
 72
   20
 73
   36
  0
VERTEX
  8
candyStick
 10
0.0
 20
0.0
 30
0.0
 70
   128
 71
   40
 72
   32
 73
   39
  0
VERTEX
  8
candyStick
 10
0.0
 20
0.0
 30
0.0
 70
   128
 71
   34
 72
   19
 73
   35
  0
VERTEX
  8
candyStick
 10
0.0
 20
0.0
 30
0.0
 70
   128
 71
   37
 72
   25
 73
   36
  0
VERTEX
  8
candyStick
 10
0.0
 20
0.0
 30
0.0
 70
   128
 71
   39
 72
   26
 73
   38
  0
VERTEX
  8
candyStick
 10
0.0
 20
0.0
 30
0.0
 70
   128
 71
   33
 72
   27
 73
   40
  0
VERTEX
  8
candyStick
 10
0.0
 20
0.0
 30
0.0
 70
   128
 71
   43
 72
   18
 73
   42
  0
VERTEX
  8
candyStick
 10
0.0
 20
0.0
 30
0.0
 70
   128
 71
   45
 72
   20
 73
   44
  0
VERTEX
  8
candyStick
 10
0.0
 20
0.0
 30
0.0
 70
   128
 71
   47
 72
   22
 73
   46
  0
VERTEX
  8
candyStick
 10
0.0
 20
0.0
 30
0.0
 70
   128
 71
   41
 72
   24
 73
   48
  0
VERTEX
  8
candyStick
 10
0.0
 20
0.0
 30
0.0
 70
   128
 71
   42
 72
   17
 73
   41
  0
VERTEX
  8
candyStick
 10
0.0
 20
0.0
 30
0.0
 70
   128
 71
   44
 72
   19
 73
   43
  0
VERTEX
  8
candyStick
 10
0.0
 20
0.0
 30
0.0
 70
   128
 71
   46
 72
   21
 73
   45
  0
VERTEX
  8
candyStick
 10
0.0
 20
0.0
 30
0.0
 70
   128
 71
   47
 72
   56
 73
   48
  0
VERTEX
  8
candyStick
 10
0.0
 20
0.0
 30
0.0
 70
   128
 71
   51
 72
   42
 73
   50
  0
VERTEX
  8
candyStick
 10
0.0
 20
0.0
 30
0.0
 70
   128
 71
   53
 72
   44
 73
   52
  0
VERTEX
  8
candyStick
 10
0.0
 20
0.0
 30
0.0
 70
   128
 71
   55
 72
   46
 73
   54
  0
VERTEX
  8
candyStick
 10
0.0
 20
0.0
 30
0.0
 70
   128
 71
   49
 72
   48
 73
   56
  0
VERTEX
  8
candyStick
 10
0.0
 20
0.0
 30
0.0
 70
   128
 71
   50
 72
   41
 73
   49
  0
VERTEX
  8
candyStick
 10
0.0
 20
0.0
 30
0.0
 70
   128
 71
   52
 72
   43
 73
   51
  0
VERTEX
  8
candyStick
 10
0.0
 20
0.0
 30
0.0
 70
   128
 71
   54
 72
   45
 73
   53
  0
VERTEX
  8
candyStick
 10
0.0
 20
0.0
 30
0.0
 70
   128
 71
   55
 72
   64
 73
   56
  0
VERTEX
  8
candyStick
 10
0.0
 20
0.0
 30
0.0
 70
   128
 71
   59
 72
   50
 73
   58
  0
VERTEX
  8
candyStick
 10
0.0
 20
0.0
 30
0.0
 70
   128
 71
   61
 72
   52
 73
   60
  0
VERTEX
  8
candyStick
 10
0.0
 20
0.0
 30
0.0
 70
   128
 71
   63
 72
   54
 73
   62
  0
VERTEX
  8
candyStick
 10
0.0
 20
0.0
 30
0.0
 70
   128
 71
   57
 72
   56
 73
   64
  0
VERTEX
  8
candyStick
 10
0.0
 20
0.0
 30
0.0
 70
   128
 71
   58
 72
   49
 73
   57
  0
VERTEX
  8
candyStick
 10
0.0
 20
0.0
 30
0.0
 70
   128
 71
   60
 72
   51
 73
   59
  0
VERTEX
  8
candyStick
 10
0.0
 20
0.0
 30
0.0
 70
   128
 71
   62
 72
   53
 73
   61
  0
VERTEX
  8
candyStick
 10
0.0
 20
0.0
 30
0.0
 70
   128
 71
   63
 72
   8
 73
   64
  0
SEQEND
  0
ENDSEC
  0
EOF
