999
FBX AutoCAD (*.DXF) exporter
  0
SECTION
  2
HEADER
  9
$ACADVER
  1
AC1008
  9
$UCSORG
 10
0.0
 20
0.0
 30
0.0
  9
$UCSXDIR
 10
1.0
 20
0.0
 30
0.0
  9
$TILEMODE
 70
   1
  9
$UCSYDIR
 10
0.0
 20
1.0
 30
0.0
  0
ENDSEC
  0
SECTION
  2
TABLES
  0
TABLE
  2
LTYPE
 70
   1
  0
LTYPE
  2
CONTINUOUS
 70
   64
  3
Solid line
 72
   65
 73
   0
 40
0.0
  0
ENDTAB
  0
TABLE
  2
LAYER
 70
   5
  0
LAYER
  2
sausageCase
 70
   0
 62
   250
  6
CONTINUOUS
  0
LAYER
  2
sausage
 70
   0
 62
   250
  6
CONTINUOUS
  0
LAYER
  2
sausage_2
 70
   0
 62
   250
  6
CONTINUOUS
  0
LAYER
  2
sausage_3
 70
   0
 62
   250
  6
CONTINUOUS
  0
LAYER
  2
sausage_4
 70
   0
 62
   250
  6
CONTINUOUS
  0
ENDTAB
  0
ENDSEC
  0
SECTION
  2
BLOCKS
  0
ENDSEC
  0
SECTION
  2
ENTITIES
  0
POLYLINE
  8
sausageCase
 66
   1
 10
0.0
 20
0.0
 30
0.0
 70
   64
 71
   60
 72
   116
  0
VERTEX
  8
sausageCase
 10
-95.842555
 20
1.825308
 30
84.575045
 70
   192
  0
VERTEX
  8
sausageCase
 10
-95.842555
 20
6.680245
 30
87.077341
 70
   192
  0
VERTEX
  8
sausageCase
 10
95.842555
 20
1.825308
 30
84.575045
 70
   192
  0
VERTEX
  8
sausageCase
 10
95.842555
 20
6.680245
 30
87.077341
 70
   192
  0
VERTEX
  8
sausageCase
 10
95.842555
 20
1.825308
 30
-84.575045
 70
   192
  0
VERTEX
  8
sausageCase
 10
95.842555
 20
6.680245
 30
-87.077341
 70
   192
  0
VERTEX
  8
sausageCase
 10
-95.842555
 20
1.825308
 30
-84.575045
 70
   192
  0
VERTEX
  8
sausageCase
 10
-95.842555
 20
6.680245
 30
-87.077341
 70
   192
  0
VERTEX
  8
sausageCase
 10
-88.268955
 20
6.680245
 30
79.403142
 70
   192
  0
VERTEX
  8
sausageCase
 10
88.268955
 20
6.680245
 30
79.403142
 70
   192
  0
VERTEX
  8
sausageCase
 10
88.268955
 20
6.680245
 30
-79.403142
 70
   192
  0
VERTEX
  8
sausageCase
 10
-88.268955
 20
6.680245
 30
-79.403142
 70
   192
  0
VERTEX
  8
sausageCase
 10
-98.399312
 20
34.862996
 30
96.132634
 70
   192
  0
VERTEX
  8
sausageCase
 10
98.399312
 20
34.862996
 30
96.132634
 70
   192
  0
VERTEX
  8
sausageCase
 10
98.399312
 20
34.862996
 30
-96.132634
 70
   192
  0
VERTEX
  8
sausageCase
 10
-98.399312
 20
34.862996
 30
-96.132634
 70
   192
  0
VERTEX
  8
sausageCase
 10
-90.623675
 20
34.862996
 30
87.660385
 70
   192
  0
VERTEX
  8
sausageCase
 10
90.623675
 20
34.862996
 30
87.660385
 70
   192
  0
VERTEX
  8
sausageCase
 10
90.623675
 20
34.862996
 30
-87.660385
 70
   192
  0
VERTEX
  8
sausageCase
 10
-90.623675
 20
34.862996
 30
-87.660385
 70
   192
  0
VERTEX
  8
sausageCase
 10
-33.155184
 20
1.825308
 30
91.471816
 70
   192
  0
VERTEX
  8
sausageCase
 10
-33.155184
 20
6.680245
 30
94.178164
 70
   192
  0
VERTEX
  8
sausageCase
 10
-33.155184
 20
1.825308
 30
-91.471816
 70
   192
  0
VERTEX
  8
sausageCase
 10
-33.155184
 20
6.680245
 30
-94.178164
 70
   192
  0
VERTEX
  8
sausageCase
 10
-33.155184
 20
6.680245
 30
85.878164
 70
   192
  0
VERTEX
  8
sausageCase
 10
-33.155184
 20
6.680245
 30
-85.878164
 70
   192
  0
VERTEX
  8
sausageCase
 10
-31.464270
 20
34.862996
 30
103.971881
 70
   192
  0
VERTEX
  8
sausageCase
 10
-31.464270
 20
34.862996
 30
-103.971881
 70
   192
  0
VERTEX
  8
sausageCase
 10
-31.464270
 20
34.862996
 30
94.808752
 70
   192
  0
VERTEX
  8
sausageCase
 10
-31.464270
 20
34.862996
 30
-94.808752
 70
   192
  0
VERTEX
  8
sausageCase
 10
47.856018
 20
1.825308
 30
91.471816
 70
   192
  0
VERTEX
  8
sausageCase
 10
47.856018
 20
6.680245
 30
94.178164
 70
   192
  0
VERTEX
  8
sausageCase
 10
47.856018
 20
1.825308
 30
-91.471816
 70
   192
  0
VERTEX
  8
sausageCase
 10
47.856018
 20
6.680245
 30
-94.178164
 70
   192
  0
VERTEX
  8
sausageCase
 10
47.856018
 20
6.680245
 30
85.878164
 70
   192
  0
VERTEX
  8
sausageCase
 10
47.856018
 20
6.680245
 30
-85.878164
 70
   192
  0
VERTEX
  8
sausageCase
 10
45.415361
 20
34.862996
 30
103.971881
 70
   192
  0
VERTEX
  8
sausageCase
 10
45.415361
 20
34.862996
 30
-103.971881
 70
   192
  0
VERTEX
  8
sausageCase
 10
45.415361
 20
34.862996
 30
94.808752
 70
   192
  0
VERTEX
  8
sausageCase
 10
45.415361
 20
34.862996
 30
-94.808752
 70
   192
  0
VERTEX
  8
sausageCase
 10
-105.035027
 20
1.825308
 30
-32.262232
 70
   192
  0
VERTEX
  8
sausageCase
 10
-105.035027
 20
6.680245
 30
-33.216765
 70
   192
  0
VERTEX
  8
sausageCase
 10
105.035027
 20
1.825308
 30
-32.262232
 70
   192
  0
VERTEX
  8
sausageCase
 10
105.035027
 20
6.680245
 30
-33.216765
 70
   192
  0
VERTEX
  8
sausageCase
 10
-96.735027
 20
6.680245
 30
-33.216765
 70
   192
  0
VERTEX
  8
sausageCase
 10
96.735027
 20
6.680245
 30
-33.216765
 70
   192
  0
VERTEX
  8
sausageCase
 10
-107.837009
 20
34.862996
 30
-31.522710
 70
   192
  0
VERTEX
  8
sausageCase
 10
107.837009
 20
34.862996
 30
-31.522710
 70
   192
  0
VERTEX
  8
sausageCase
 10
-99.315593
 20
34.862996
 30
-31.522710
 70
   192
  0
VERTEX
  8
sausageCase
 10
99.315593
 20
34.862996
 30
-31.522710
 70
   192
  0
VERTEX
  8
sausageCase
 10
-107.837009
 20
34.862996
 30
44.479420
 70
   192
  0
VERTEX
  8
sausageCase
 10
107.837009
 20
34.862996
 30
44.479420
 70
   192
  0
VERTEX
  8
sausageCase
 10
-99.315593
 20
34.862996
 30
44.479420
 70
   192
  0
VERTEX
  8
sausageCase
 10
99.315593
 20
34.862996
 30
44.479420
 70
   192
  0
VERTEX
  8
sausageCase
 10
-105.035027
 20
1.825308
 30
45.522906
 70
   192
  0
VERTEX
  8
sausageCase
 10
-105.035027
 20
6.680245
 30
46.869778
 70
   192
  0
VERTEX
  8
sausageCase
 10
105.035027
 20
1.825308
 30
45.522906
 70
   192
  0
VERTEX
  8
sausageCase
 10
105.035027
 20
6.680245
 30
46.869778
 70
   192
  0
VERTEX
  8
sausageCase
 10
-96.735027
 20
6.680245
 30
46.869778
 70
   192
  0
VERTEX
  8
sausageCase
 10
96.735027
 20
6.680245
 30
46.869778
 70
   192
  0
VERTEX
  8
sausageCase
 10
0.0
 20
0.0
 30
0.0
 70
   128
 71
   32
 72
   4
 73
   3
  0
VERTEX
  8
sausageCase
 10
0.0
 20
0.0
 30
0.0
 70
   128
 71
   44
 72
   6
 73
   5
  0
VERTEX
  8
sausageCase
 10
0.0
 20
0.0
 30
0.0
 70
   128
 71
   24
 72
   8
 73
   7
  0
VERTEX
  8
sausageCase
 10
0.0
 20
0.0
 30
0.0
 70
   128
 71
   56
 72
   2
 73
   1
  0
VERTEX
  8
sausageCase
 10
0.0
 20
0.0
 30
0.0
 70
   128
 71
   45
 72
   26
 73
   25
  0
VERTEX
  8
sausageCase
 10
0.0
 20
0.0
 30
0.0
 70
   128
 71
   7
 72
   41
 73
   23
  0
VERTEX
  8
sausageCase
 10
0.0
 20
0.0
 30
0.0
 70
   128
 71
   39
 72
   18
 73
   14
  0
VERTEX
  8
sausageCase
 10
0.0
 20
0.0
 30
0.0
 70
   128
 71
   50
 72
   19
 73
   15
  0
VERTEX
  8
sausageCase
 10
0.0
 20
0.0
 30
0.0
 70
   128
 71
   30
 72
   20
 73
   16
  0
VERTEX
  8
sausageCase
 10
0.0
 20
0.0
 30
0.0
 70
   128
 71
   53
 72
   17
 73
   13
  0
VERTEX
  8
sausageCase
 10
0.0
 20
0.0
 30
0.0
 70
   128
 71
   37
 72
   14
 73
   4
  0
VERTEX
  8
sausageCase
 10
0.0
 20
0.0
 30
0.0
 70
   128
 71
   29
 72
   17
 73
   9
  0
VERTEX
  8
sausageCase
 10
0.0
 20
0.0
 30
0.0
 70
   128
 71
   48
 72
   15
 73
   6
  0
VERTEX
  8
sausageCase
 10
0.0
 20
0.0
 30
0.0
 70
   128
 71
   54
 72
   18
 73
   10
  0
VERTEX
  8
sausageCase
 10
0.0
 20
0.0
 30
0.0
 70
   128
 71
   28
 72
   16
 73
   8
  0
VERTEX
  8
sausageCase
 10
0.0
 20
0.0
 30
0.0
 70
   128
 71
   40
 72
   19
 73
   11
  0
VERTEX
  8
sausageCase
 10
0.0
 20
0.0
 30
0.0
 70
   128
 71
   8
 72
   16
 73
   47
  0
VERTEX
  8
sausageCase
 10
0.0
 20
0.0
 30
0.0
 70
   128
 71
   49
 72
   20
 73
   12
  0
VERTEX
  8
sausageCase
 10
0.0
 20
0.0
 30
0.0
 70
   128
 71
   21
 72
   1
 73
   2
  0
VERTEX
  8
sausageCase
 10
0.0
 20
0.0
 30
0.0
 70
   128
 71
   23
 72
   33
 73
   34
  0
VERTEX
  8
sausageCase
 10
0.0
 20
0.0
 30
0.0
 70
   128
 71
   25
 72
   26
 73
   36
  0
VERTEX
  8
sausageCase
 10
0.0
 20
0.0
 30
0.0
 70
   128
 71
   41
 72
   55
 73
   21
  0
VERTEX
  8
sausageCase
 10
0.0
 20
0.0
 30
0.0
 70
   128
 71
   27
 72
   13
 73
   17
  0
VERTEX
  8
sausageCase
 10
0.0
 20
0.0
 30
0.0
 70
   128
 71
   28
 72
   38
 73
   40
  0
VERTEX
  8
sausageCase
 10
0.0
 20
0.0
 30
0.0
 70
   128
 71
   22
 72
   2
 73
   13
  0
VERTEX
  8
sausageCase
 10
0.0
 20
0.0
 30
0.0
 70
   128
 71
   25
 72
   35
 73
   39
  0
VERTEX
  8
sausageCase
 10
0.0
 20
0.0
 30
0.0
 70
   128
 71
   24
 72
   34
 73
   38
  0
VERTEX
  8
sausageCase
 10
0.0
 20
0.0
 30
0.0
 70
   128
 71
   26
 72
   12
 73
   20
  0
VERTEX
  8
sausageCase
 10
0.0
 20
0.0
 30
0.0
 70
   128
 71
   31
 72
   21
 73
   22
  0
VERTEX
  8
sausageCase
 10
0.0
 20
0.0
 30
0.0
 70
   128
 71
   36
 72
   11
 73
   46
  0
VERTEX
  8
sausageCase
 10
0.0
 20
0.0
 30
0.0
 70
   128
 71
   37
 72
   27
 73
   29
  0
VERTEX
  8
sausageCase
 10
0.0
 20
0.0
 30
0.0
 70
   128
 71
   32
 72
   22
 73
   27
  0
VERTEX
  8
sausageCase
 10
0.0
 20
0.0
 30
0.0
 70
   128
 71
   36
 72
   26
 73
   30
  0
VERTEX
  8
sausageCase
 10
0.0
 20
0.0
 30
0.0
 70
   128
 71
   33
 72
   5
 73
   6
  0
VERTEX
  8
sausageCase
 10
0.0
 20
0.0
 30
0.0
 70
   128
 71
   55
 72
   1
 73
   21
  0
VERTEX
  8
sausageCase
 10
0.0
 20
0.0
 30
0.0
 70
   128
 71
   38
 72
   15
 73
   19
  0
VERTEX
  8
sausageCase
 10
0.0
 20
0.0
 30
0.0
 70
   128
 71
   35
 72
   10
 73
   18
  0
VERTEX
  8
sausageCase
 10
0.0
 20
0.0
 30
0.0
 70
   128
 71
   34
 72
   6
 73
   15
  0
VERTEX
  8
sausageCase
 10
0.0
 20
0.0
 30
0.0
 70
   128
 71
   43
 72
   57
 73
   58
  0
VERTEX
  8
sausageCase
 10
0.0
 20
0.0
 30
0.0
 70
   128
 71
   41
 72
   7
 73
   8
  0
VERTEX
  8
sausageCase
 10
0.0
 20
0.0
 30
0.0
 70
   128
 71
   35
 72
   36
 73
   46
  0
VERTEX
  8
sausageCase
 10
0.0
 20
0.0
 30
0.0
 70
   128
 71
   21
 72
   31
 73
   33
  0
VERTEX
  8
sausageCase
 10
0.0
 20
0.0
 30
0.0
 70
   128
 71
   52
 72
   14
 73
   18
  0
VERTEX
  8
sausageCase
 10
0.0
 20
0.0
 30
0.0
 70
   128
 71
   47
 72
   16
 73
   20
  0
VERTEX
  8
sausageCase
 10
0.0
 20
0.0
 30
0.0
 70
   128
 71
   58
 72
   4
 73
   14
  0
VERTEX
  8
sausageCase
 10
0.0
 20
0.0
 30
0.0
 70
   128
 71
   46
 72
   11
 73
   19
  0
VERTEX
  8
sausageCase
 10
0.0
 20
0.0
 30
0.0
 70
   128
 71
   47
 72
   51
 73
   56
  0
VERTEX
  8
sausageCase
 10
0.0
 20
0.0
 30
0.0
 70
   128
 71
   45
 72
   59
 73
   53
  0
VERTEX
  8
sausageCase
 10
0.0
 20
0.0
 30
0.0
 70
   128
 71
   45
 72
   12
 73
   26
  0
VERTEX
  8
sausageCase
 10
0.0
 20
0.0
 30
0.0
 70
   128
 71
   31
 72
   3
 73
   57
  0
VERTEX
  8
sausageCase
 10
0.0
 20
0.0
 30
0.0
 70
   128
 71
   60
 72
   10
 73
   35
  0
VERTEX
  8
sausageCase
 10
0.0
 20
0.0
 30
0.0
 70
   128
 71
   31
 72
   57
 73
   43
  0
VERTEX
  8
sausageCase
 10
0.0
 20
0.0
 30
0.0
 70
   128
 71
   55
 72
   41
 73
   42
  0
VERTEX
  8
sausageCase
 10
0.0
 20
0.0
 30
0.0
 70
   128
 71
   51
 72
   47
 73
   49
  0
VERTEX
  8
sausageCase
 10
0.0
 20
0.0
 30
0.0
 70
   128
 71
   60
 72
   46
 73
   50
  0
VERTEX
  8
sausageCase
 10
0.0
 20
0.0
 30
0.0
 70
   128
 71
   25
 72
   9
 73
   59
  0
VERTEX
  8
sausageCase
 10
0.0
 20
0.0
 30
0.0
 70
   128
 71
   59
 72
   9
 73
   17
  0
VERTEX
  8
sausageCase
 10
0.0
 20
0.0
 30
0.0
 70
   128
 71
   43
 72
   5
 73
   33
  0
VERTEX
  8
sausageCase
 10
0.0
 20
0.0
 30
0.0
 70
   128
 71
   57
 72
   3
 73
   4
  0
VERTEX
  8
sausageCase
 10
0.0
 20
0.0
 30
0.0
 70
   128
 71
   52
 72
   48
 73
   44
  0
VERTEX
  8
sausageCase
 10
0.0
 20
0.0
 30
0.0
 70
   128
 71
   51
 72
   13
 73
   2
  0
VERTEX
  8
sausageCase
 10
0.0
 20
0.0
 30
0.0
 70
   128
 71
   54
 72
   50
 73
   48
  0
VERTEX
  8
sausageCase
 10
0.0
 20
0.0
 30
0.0
 70
   128
 71
   32
 72
   3
 73
   31
  0
VERTEX
  8
sausageCase
 10
0.0
 20
0.0
 30
0.0
 70
   128
 71
   44
 72
   5
 73
   43
  0
VERTEX
  8
sausageCase
 10
0.0
 20
0.0
 30
0.0
 70
   128
 71
   24
 72
   7
 73
   23
  0
VERTEX
  8
sausageCase
 10
0.0
 20
0.0
 30
0.0
 70
   128
 71
   56
 72
   1
 73
   55
  0
VERTEX
  8
sausageCase
 10
0.0
 20
0.0
 30
0.0
 70
   128
 71
   45
 72
   25
 73
   59
  0
VERTEX
  8
sausageCase
 10
0.0
 20
0.0
 30
0.0
 70
   128
 71
   39
 72
   14
 73
   37
  0
VERTEX
  8
sausageCase
 10
0.0
 20
0.0
 30
0.0
 70
   128
 71
   50
 72
   15
 73
   48
  0
VERTEX
  8
sausageCase
 10
0.0
 20
0.0
 30
0.0
 70
   128
 71
   30
 72
   16
 73
   28
  0
VERTEX
  8
sausageCase
 10
0.0
 20
0.0
 30
0.0
 70
   128
 71
   53
 72
   13
 73
   51
  0
VERTEX
  8
sausageCase
 10
0.0
 20
0.0
 30
0.0
 70
   128
 71
   37
 72
   4
 73
   32
  0
VERTEX
  8
sausageCase
 10
0.0
 20
0.0
 30
0.0
 70
   128
 71
   29
 72
   9
 73
   25
  0
VERTEX
  8
sausageCase
 10
0.0
 20
0.0
 30
0.0
 70
   128
 71
   48
 72
   6
 73
   44
  0
VERTEX
  8
sausageCase
 10
0.0
 20
0.0
 30
0.0
 70
   128
 71
   54
 72
   10
 73
   60
  0
VERTEX
  8
sausageCase
 10
0.0
 20
0.0
 30
0.0
 70
   128
 71
   28
 72
   8
 73
   24
  0
VERTEX
  8
sausageCase
 10
0.0
 20
0.0
 30
0.0
 70
   128
 71
   40
 72
   11
 73
   36
  0
VERTEX
  8
sausageCase
 10
0.0
 20
0.0
 30
0.0
 70
   128
 71
   8
 72
   47
 73
   42
  0
VERTEX
  8
sausageCase
 10
0.0
 20
0.0
 30
0.0
 70
   128
 71
   49
 72
   12
 73
   45
  0
VERTEX
  8
sausageCase
 10
0.0
 20
0.0
 30
0.0
 70
   128
 71
   21
 72
   2
 73
   22
  0
VERTEX
  8
sausageCase
 10
0.0
 20
0.0
 30
0.0
 70
   128
 71
   23
 72
   34
 73
   24
  0
VERTEX
  8
sausageCase
 10
0.0
 20
0.0
 30
0.0
 70
   128
 71
   25
 72
   36
 73
   35
  0
VERTEX
  8
sausageCase
 10
0.0
 20
0.0
 30
0.0
 70
   128
 71
   41
 72
   21
 73
   23
  0
VERTEX
  8
sausageCase
 10
0.0
 20
0.0
 30
0.0
 70
   128
 71
   27
 72
   17
 73
   29
  0
VERTEX
  8
sausageCase
 10
0.0
 20
0.0
 30
0.0
 70
   128
 71
   28
 72
   40
 73
   30
  0
VERTEX
  8
sausageCase
 10
0.0
 20
0.0
 30
0.0
 70
   128
 71
   22
 72
   13
 73
   27
  0
VERTEX
  8
sausageCase
 10
0.0
 20
0.0
 30
0.0
 70
   128
 71
   25
 72
   39
 73
   29
  0
VERTEX
  8
sausageCase
 10
0.0
 20
0.0
 30
0.0
 70
   128
 71
   24
 72
   38
 73
   28
  0
VERTEX
  8
sausageCase
 10
0.0
 20
0.0
 30
0.0
 70
   128
 71
   26
 72
   20
 73
   30
  0
VERTEX
  8
sausageCase
 10
0.0
 20
0.0
 30
0.0
 70
   128
 71
   31
 72
   22
 73
   32
  0
VERTEX
  8
sausageCase
 10
0.0
 20
0.0
 30
0.0
 70
   128
 71
   37
 72
   29
 73
   39
  0
VERTEX
  8
sausageCase
 10
0.0
 20
0.0
 30
0.0
 70
   128
 71
   32
 72
   27
 73
   37
  0
VERTEX
  8
sausageCase
 10
0.0
 20
0.0
 30
0.0
 70
   128
 71
   36
 72
   30
 73
   40
  0
VERTEX
  8
sausageCase
 10
0.0
 20
0.0
 30
0.0
 70
   128
 71
   33
 72
   6
 73
   34
  0
VERTEX
  8
sausageCase
 10
0.0
 20
0.0
 30
0.0
 70
   128
 71
   38
 72
   19
 73
   40
  0
VERTEX
  8
sausageCase
 10
0.0
 20
0.0
 30
0.0
 70
   128
 71
   35
 72
   18
 73
   39
  0
VERTEX
  8
sausageCase
 10
0.0
 20
0.0
 30
0.0
 70
   128
 71
   34
 72
   15
 73
   38
  0
VERTEX
  8
sausageCase
 10
0.0
 20
0.0
 30
0.0
 70
   128
 71
   43
 72
   58
 73
   44
  0
VERTEX
  8
sausageCase
 10
0.0
 20
0.0
 30
0.0
 70
   128
 71
   41
 72
   8
 73
   42
  0
VERTEX
  8
sausageCase
 10
0.0
 20
0.0
 30
0.0
 70
   128
 71
   35
 72
   46
 73
   60
  0
VERTEX
  8
sausageCase
 10
0.0
 20
0.0
 30
0.0
 70
   128
 71
   21
 72
   33
 73
   23
  0
VERTEX
  8
sausageCase
 10
0.0
 20
0.0
 30
0.0
 70
   128
 71
   52
 72
   18
 73
   54
  0
VERTEX
  8
sausageCase
 10
0.0
 20
0.0
 30
0.0
 70
   128
 71
   47
 72
   20
 73
   49
  0
VERTEX
  8
sausageCase
 10
0.0
 20
0.0
 30
0.0
 70
   128
 71
   58
 72
   14
 73
   52
  0
VERTEX
  8
sausageCase
 10
0.0
 20
0.0
 30
0.0
 70
   128
 71
   46
 72
   19
 73
   50
  0
VERTEX
  8
sausageCase
 10
0.0
 20
0.0
 30
0.0
 70
   128
 71
   47
 72
   56
 73
   42
  0
VERTEX
  8
sausageCase
 10
0.0
 20
0.0
 30
0.0
 70
   128
 71
   45
 72
   53
 73
   49
  0
VERTEX
  8
sausageCase
 10
0.0
 20
0.0
 30
0.0
 70
   128
 71
   31
 72
   43
 73
   33
  0
VERTEX
  8
sausageCase
 10
0.0
 20
0.0
 30
0.0
 70
   128
 71
   55
 72
   42
 73
   56
  0
VERTEX
  8
sausageCase
 10
0.0
 20
0.0
 30
0.0
 70
   128
 71
   51
 72
   49
 73
   53
  0
VERTEX
  8
sausageCase
 10
0.0
 20
0.0
 30
0.0
 70
   128
 71
   60
 72
   50
 73
   54
  0
VERTEX
  8
sausageCase
 10
0.0
 20
0.0
 30
0.0
 70
   128
 71
   59
 72
   17
 73
   53
  0
VERTEX
  8
sausageCase
 10
0.0
 20
0.0
 30
0.0
 70
   128
 71
   57
 72
   4
 73
   58
  0
VERTEX
  8
sausageCase
 10
0.0
 20
0.0
 30
0.0
 70
   128
 71
   52
 72
   44
 73
   58
  0
VERTEX
  8
sausageCase
 10
0.0
 20
0.0
 30
0.0
 70
   128
 71
   51
 72
   2
 73
   56
  0
VERTEX
  8
sausageCase
 10
0.0
 20
0.0
 30
0.0
 70
   128
 71
   54
 72
   48
 73
   52
  0
SEQEND
  0
POLYLINE
  8
sausage
 66
   1
 10
0.0
 20
0.0
 30
0.0
 70
   64
 71
   66
 72
   128
  0
VERTEX
  8
sausage
 10
80.276236
 20
26.390346
 30
88.744168
 70
   192
  0
VERTEX
  8
sausage
 10
82.908926
 20
26.390346
 30
-85.800110
 70
   192
  0
VERTEX
  8
sausage
 10
79.559970
 20
14.740583
 30
85.733625
 70
   192
  0
VERTEX
  8
sausage
 10
77.603096
 20
6.212366
 30
77.508668
 70
   192
  0
VERTEX
  8
sausage
 10
74.929956
 20
3.090821
 30
66.273168
 70
   192
  0
VERTEX
  8
sausage
 10
66.660775
 20
3.090821
 30
24.373899
 70
   192
  0
VERTEX
  8
sausage
 10
67.670828
 20
3.090821
 30
-20.936885
 70
   192
  0
VERTEX
  8
sausage
 10
77.626412
 20
3.090821
 30
-63.314307
 70
   192
  0
VERTEX
  8
sausage
 10
80.267669
 20
6.212366
 30
-74.557208
 70
   192
  0
VERTEX
  8
sausage
 10
82.201203
 20
14.740583
 30
-82.787583
 70
   192
  0
VERTEX
  8
sausage
 10
71.542138
 20
18.152720
 30
87.606579
 70
   192
  0
VERTEX
  8
sausage
 10
63.715802
 20
12.122359
 30
80.752720
 70
   192
  0
VERTEX
  8
sausage
 10
58.894291
 20
9.915094
 30
70.019077
 70
   192
  0
VERTEX
  8
sausage
 10
50.381513
 20
9.915094
 30
26.884469
 70
   192
  0
VERTEX
  8
sausage
 10
51.624600
 20
9.915094
 30
-24.638115
 70
   192
  0
VERTEX
  8
sausage
 10
61.580184
 20
9.915094
 30
-67.015537
 70
   192
  0
VERTEX
  8
sausage
 10
66.371228
 20
12.122359
 30
-77.762567
 70
   192
  0
VERTEX
  8
sausage
 10
74.178089
 20
18.152720
 30
-84.638198
 70
   192
  0
VERTEX
  8
sausage
 10
68.221043
 20
26.390346
 30
88.382382
 70
   192
  0
VERTEX
  8
sausage
 10
57.963497
 20
26.390346
 30
82.096450
 70
   192
  0
VERTEX
  8
sausage
 10
52.252100
 20
26.390346
 30
71.570682
 70
   192
  0
VERTEX
  8
sausage
 10
43.638422
 20
26.390346
 30
27.924382
 70
   192
  0
VERTEX
  8
sausage
 10
44.978034
 20
26.390346
 30
-26.171214
 70
   192
  0
VERTEX
  8
sausage
 10
54.933619
 20
26.390346
 30
-68.548636
 70
   192
  0
VERTEX
  8
sausage
 10
60.615133
 20
26.390346
 30
-79.090270
 70
   192
  0
VERTEX
  8
sausage
 10
70.854806
 20
26.390346
 30
-85.404748
 70
   192
  0
VERTEX
  8
sausage
 10
71.542138
 20
34.627972
 30
87.606579
 70
   192
  0
VERTEX
  8
sausage
 10
63.715802
 20
40.658332
 30
80.752720
 70
   192
  0
VERTEX
  8
sausage
 10
58.894291
 20
42.865597
 30
70.019077
 70
   192
  0
VERTEX
  8
sausage
 10
50.381513
 20
42.865597
 30
26.884469
 70
   192
  0
VERTEX
  8
sausage
 10
51.624600
 20
42.865597
 30
-24.638115
 70
   192
  0
VERTEX
  8
sausage
 10
61.580184
 20
42.865597
 30
-67.015537
 70
   192
  0
VERTEX
  8
sausage
 10
66.371228
 20
40.658332
 30
-77.762567
 70
   192
  0
VERTEX
  8
sausage
 10
74.178089
 20
34.627972
 30
-84.638198
 70
   192
  0
VERTEX
  8
sausage
 10
79.559970
 20
38.040108
 30
85.733625
 70
   192
  0
VERTEX
  8
sausage
 10
77.603096
 20
46.568326
 30
77.508668
 70
   192
  0
VERTEX
  8
sausage
 10
74.929956
 20
49.689870
 30
66.273168
 70
   192
  0
VERTEX
  8
sausage
 10
66.660775
 20
49.689870
 30
24.373899
 70
   192
  0
VERTEX
  8
sausage
 10
67.670828
 20
49.689870
 30
-20.936885
 70
   192
  0
VERTEX
  8
sausage
 10
77.626412
 20
49.689870
 30
-63.314307
 70
   192
  0
VERTEX
  8
sausage
 10
80.267669
 20
46.568326
 30
-74.557208
 70
   192
  0
VERTEX
  8
sausage
 10
82.201203
 20
38.040108
 30
-82.787583
 70
   192
  0
VERTEX
  8
sausage
 10
87.577803
 20
34.627972
 30
83.860671
 70
   192
  0
VERTEX
  8
sausage
 10
91.490390
 20
40.658332
 30
74.264617
 70
   192
  0
VERTEX
  8
sausage
 10
90.965621
 20
42.865597
 30
62.527260
 70
   192
  0
VERTEX
  8
sausage
 10
82.940037
 20
42.865597
 30
21.863329
 70
   192
  0
VERTEX
  8
sausage
 10
83.717056
 20
42.865597
 30
-17.235656
 70
   192
  0
VERTEX
  8
sausage
 10
93.672641
 20
42.865597
 30
-59.613078
 70
   192
  0
VERTEX
  8
sausage
 10
94.164110
 20
40.658332
 30
-71.351850
 70
   192
  0
VERTEX
  8
sausage
 10
90.224317
 20
34.627972
 30
-80.936968
 70
   192
  0
VERTEX
  8
sausage
 10
90.898898
 20
26.390346
 30
83.084868
 70
   192
  0
VERTEX
  8
sausage
 10
97.242695
 20
26.390346
 30
72.920886
 70
   192
  0
VERTEX
  8
sausage
 10
97.607811
 20
26.390346
 30
60.975654
 70
   192
  0
VERTEX
  8
sausage
 10
89.683129
 20
26.390346
 30
20.823417
 70
   192
  0
VERTEX
  8
sausage
 10
90.363622
 20
26.390346
 30
-15.702556
 70
   192
  0
VERTEX
  8
sausage
 10
100.319206
 20
26.390346
 30
-58.079978
 70
   192
  0
VERTEX
  8
sausage
 10
99.920205
 20
26.390346
 30
-70.024147
 70
   192
  0
VERTEX
  8
sausage
 10
93.547600
 20
26.390346
 30
-80.170419
 70
   192
  0
VERTEX
  8
sausage
 10
87.577803
 20
18.152720
 30
83.860671
 70
   192
  0
VERTEX
  8
sausage
 10
91.490390
 20
12.122359
 30
74.264617
 70
   192
  0
VERTEX
  8
sausage
 10
90.965621
 20
9.915094
 30
62.527260
 70
   192
  0
VERTEX
  8
sausage
 10
82.940037
 20
9.915094
 30
21.863329
 70
   192
  0
VERTEX
  8
sausage
 10
83.717056
 20
9.915094
 30
-17.235656
 70
   192
  0
VERTEX
  8
sausage
 10
93.672641
 20
9.915094
 30
-59.613078
 70
   192
  0
VERTEX
  8
sausage
 10
94.164110
 20
12.122359
 30
-71.351850
 70
   192
  0
VERTEX
  8
sausage
 10
90.224317
 20
18.152720
 30
-80.936968
 70
   192
  0
VERTEX
  8
sausage
 10
0.0
 20
0.0
 30
0.0
 70
   128
 71
   1
 72
   3
 73
   11
  0
VERTEX
  8
sausage
 10
0.0
 20
0.0
 30
0.0
 70
   128
 71
   3
 72
   4
 73
   12
  0
VERTEX
  8
sausage
 10
0.0
 20
0.0
 30
0.0
 70
   128
 71
   4
 72
   5
 73
   13
  0
VERTEX
  8
sausage
 10
0.0
 20
0.0
 30
0.0
 70
   128
 71
   5
 72
   6
 73
   14
  0
VERTEX
  8
sausage
 10
0.0
 20
0.0
 30
0.0
 70
   128
 71
   6
 72
   7
 73
   15
  0
VERTEX
  8
sausage
 10
0.0
 20
0.0
 30
0.0
 70
   128
 71
   7
 72
   8
 73
   16
  0
VERTEX
  8
sausage
 10
0.0
 20
0.0
 30
0.0
 70
   128
 71
   8
 72
   9
 73
   17
  0
VERTEX
  8
sausage
 10
0.0
 20
0.0
 30
0.0
 70
   128
 71
   9
 72
   10
 73
   18
  0
VERTEX
  8
sausage
 10
0.0
 20
0.0
 30
0.0
 70
   128
 71
   10
 72
   2
 73
   18
  0
VERTEX
  8
sausage
 10
0.0
 20
0.0
 30
0.0
 70
   128
 71
   1
 72
   11
 73
   19
  0
VERTEX
  8
sausage
 10
0.0
 20
0.0
 30
0.0
 70
   128
 71
   11
 72
   12
 73
   20
  0
VERTEX
  8
sausage
 10
0.0
 20
0.0
 30
0.0
 70
   128
 71
   12
 72
   13
 73
   21
  0
VERTEX
  8
sausage
 10
0.0
 20
0.0
 30
0.0
 70
   128
 71
   13
 72
   14
 73
   22
  0
VERTEX
  8
sausage
 10
0.0
 20
0.0
 30
0.0
 70
   128
 71
   14
 72
   15
 73
   23
  0
VERTEX
  8
sausage
 10
0.0
 20
0.0
 30
0.0
 70
   128
 71
   15
 72
   16
 73
   24
  0
VERTEX
  8
sausage
 10
0.0
 20
0.0
 30
0.0
 70
   128
 71
   16
 72
   17
 73
   25
  0
VERTEX
  8
sausage
 10
0.0
 20
0.0
 30
0.0
 70
   128
 71
   17
 72
   18
 73
   26
  0
VERTEX
  8
sausage
 10
0.0
 20
0.0
 30
0.0
 70
   128
 71
   18
 72
   2
 73
   26
  0
VERTEX
  8
sausage
 10
0.0
 20
0.0
 30
0.0
 70
   128
 71
   1
 72
   19
 73
   27
  0
VERTEX
  8
sausage
 10
0.0
 20
0.0
 30
0.0
 70
   128
 71
   19
 72
   20
 73
   28
  0
VERTEX
  8
sausage
 10
0.0
 20
0.0
 30
0.0
 70
   128
 71
   20
 72
   21
 73
   29
  0
VERTEX
  8
sausage
 10
0.0
 20
0.0
 30
0.0
 70
   128
 71
   21
 72
   22
 73
   30
  0
VERTEX
  8
sausage
 10
0.0
 20
0.0
 30
0.0
 70
   128
 71
   22
 72
   23
 73
   31
  0
VERTEX
  8
sausage
 10
0.0
 20
0.0
 30
0.0
 70
   128
 71
   23
 72
   24
 73
   32
  0
VERTEX
  8
sausage
 10
0.0
 20
0.0
 30
0.0
 70
   128
 71
   24
 72
   25
 73
   33
  0
VERTEX
  8
sausage
 10
0.0
 20
0.0
 30
0.0
 70
   128
 71
   25
 72
   26
 73
   34
  0
VERTEX
  8
sausage
 10
0.0
 20
0.0
 30
0.0
 70
   128
 71
   26
 72
   2
 73
   34
  0
VERTEX
  8
sausage
 10
0.0
 20
0.0
 30
0.0
 70
   128
 71
   1
 72
   27
 73
   35
  0
VERTEX
  8
sausage
 10
0.0
 20
0.0
 30
0.0
 70
   128
 71
   27
 72
   28
 73
   36
  0
VERTEX
  8
sausage
 10
0.0
 20
0.0
 30
0.0
 70
   128
 71
   28
 72
   29
 73
   37
  0
VERTEX
  8
sausage
 10
0.0
 20
0.0
 30
0.0
 70
   128
 71
   29
 72
   30
 73
   38
  0
VERTEX
  8
sausage
 10
0.0
 20
0.0
 30
0.0
 70
   128
 71
   30
 72
   31
 73
   39
  0
VERTEX
  8
sausage
 10
0.0
 20
0.0
 30
0.0
 70
   128
 71
   31
 72
   32
 73
   40
  0
VERTEX
  8
sausage
 10
0.0
 20
0.0
 30
0.0
 70
   128
 71
   32
 72
   33
 73
   41
  0
VERTEX
  8
sausage
 10
0.0
 20
0.0
 30
0.0
 70
   128
 71
   33
 72
   34
 73
   42
  0
VERTEX
  8
sausage
 10
0.0
 20
0.0
 30
0.0
 70
   128
 71
   34
 72
   2
 73
   42
  0
VERTEX
  8
sausage
 10
0.0
 20
0.0
 30
0.0
 70
   128
 71
   1
 72
   35
 73
   43
  0
VERTEX
  8
sausage
 10
0.0
 20
0.0
 30
0.0
 70
   128
 71
   35
 72
   36
 73
   44
  0
VERTEX
  8
sausage
 10
0.0
 20
0.0
 30
0.0
 70
   128
 71
   36
 72
   37
 73
   45
  0
VERTEX
  8
sausage
 10
0.0
 20
0.0
 30
0.0
 70
   128
 71
   37
 72
   38
 73
   46
  0
VERTEX
  8
sausage
 10
0.0
 20
0.0
 30
0.0
 70
   128
 71
   38
 72
   39
 73
   47
  0
VERTEX
  8
sausage
 10
0.0
 20
0.0
 30
0.0
 70
   128
 71
   39
 72
   40
 73
   48
  0
VERTEX
  8
sausage
 10
0.0
 20
0.0
 30
0.0
 70
   128
 71
   40
 72
   41
 73
   49
  0
VERTEX
  8
sausage
 10
0.0
 20
0.0
 30
0.0
 70
   128
 71
   41
 72
   42
 73
   50
  0
VERTEX
  8
sausage
 10
0.0
 20
0.0
 30
0.0
 70
   128
 71
   42
 72
   2
 73
   50
  0
VERTEX
  8
sausage
 10
0.0
 20
0.0
 30
0.0
 70
   128
 71
   1
 72
   43
 73
   51
  0
VERTEX
  8
sausage
 10
0.0
 20
0.0
 30
0.0
 70
   128
 71
   43
 72
   44
 73
   52
  0
VERTEX
  8
sausage
 10
0.0
 20
0.0
 30
0.0
 70
   128
 71
   44
 72
   45
 73
   53
  0
VERTEX
  8
sausage
 10
0.0
 20
0.0
 30
0.0
 70
   128
 71
   45
 72
   46
 73
   54
  0
VERTEX
  8
sausage
 10
0.0
 20
0.0
 30
0.0
 70
   128
 71
   46
 72
   47
 73
   55
  0
VERTEX
  8
sausage
 10
0.0
 20
0.0
 30
0.0
 70
   128
 71
   47
 72
   48
 73
   56
  0
VERTEX
  8
sausage
 10
0.0
 20
0.0
 30
0.0
 70
   128
 71
   48
 72
   49
 73
   57
  0
VERTEX
  8
sausage
 10
0.0
 20
0.0
 30
0.0
 70
   128
 71
   49
 72
   50
 73
   58
  0
VERTEX
  8
sausage
 10
0.0
 20
0.0
 30
0.0
 70
   128
 71
   50
 72
   2
 73
   58
  0
VERTEX
  8
sausage
 10
0.0
 20
0.0
 30
0.0
 70
   128
 71
   1
 72
   51
 73
   59
  0
VERTEX
  8
sausage
 10
0.0
 20
0.0
 30
0.0
 70
   128
 71
   51
 72
   52
 73
   60
  0
VERTEX
  8
sausage
 10
0.0
 20
0.0
 30
0.0
 70
   128
 71
   52
 72
   53
 73
   61
  0
VERTEX
  8
sausage
 10
0.0
 20
0.0
 30
0.0
 70
   128
 71
   53
 72
   54
 73
   62
  0
VERTEX
  8
sausage
 10
0.0
 20
0.0
 30
0.0
 70
   128
 71
   54
 72
   55
 73
   63
  0
VERTEX
  8
sausage
 10
0.0
 20
0.0
 30
0.0
 70
   128
 71
   55
 72
   56
 73
   64
  0
VERTEX
  8
sausage
 10
0.0
 20
0.0
 30
0.0
 70
   128
 71
   56
 72
   57
 73
   65
  0
VERTEX
  8
sausage
 10
0.0
 20
0.0
 30
0.0
 70
   128
 71
   57
 72
   58
 73
   66
  0
VERTEX
  8
sausage
 10
0.0
 20
0.0
 30
0.0
 70
   128
 71
   58
 72
   2
 73
   66
  0
VERTEX
  8
sausage
 10
0.0
 20
0.0
 30
0.0
 70
   128
 71
   1
 72
   59
 73
   3
  0
VERTEX
  8
sausage
 10
0.0
 20
0.0
 30
0.0
 70
   128
 71
   59
 72
   60
 73
   4
  0
VERTEX
  8
sausage
 10
0.0
 20
0.0
 30
0.0
 70
   128
 71
   60
 72
   61
 73
   5
  0
VERTEX
  8
sausage
 10
0.0
 20
0.0
 30
0.0
 70
   128
 71
   61
 72
   62
 73
   6
  0
VERTEX
  8
sausage
 10
0.0
 20
0.0
 30
0.0
 70
   128
 71
   62
 72
   63
 73
   7
  0
VERTEX
  8
sausage
 10
0.0
 20
0.0
 30
0.0
 70
   128
 71
   63
 72
   64
 73
   8
  0
VERTEX
  8
sausage
 10
0.0
 20
0.0
 30
0.0
 70
   128
 71
   64
 72
   65
 73
   9
  0
VERTEX
  8
sausage
 10
0.0
 20
0.0
 30
0.0
 70
   128
 71
   65
 72
   66
 73
   10
  0
VERTEX
  8
sausage
 10
0.0
 20
0.0
 30
0.0
 70
   128
 71
   66
 72
   2
 73
   10
  0
VERTEX
  8
sausage
 10
0.0
 20
0.0
 30
0.0
 70
   128
 71
   3
 72
   12
 73
   11
  0
VERTEX
  8
sausage
 10
0.0
 20
0.0
 30
0.0
 70
   128
 71
   4
 72
   13
 73
   12
  0
VERTEX
  8
sausage
 10
0.0
 20
0.0
 30
0.0
 70
   128
 71
   5
 72
   14
 73
   13
  0
VERTEX
  8
sausage
 10
0.0
 20
0.0
 30
0.0
 70
   128
 71
   6
 72
   15
 73
   14
  0
VERTEX
  8
sausage
 10
0.0
 20
0.0
 30
0.0
 70
   128
 71
   7
 72
   16
 73
   15
  0
VERTEX
  8
sausage
 10
0.0
 20
0.0
 30
0.0
 70
   128
 71
   8
 72
   17
 73
   16
  0
VERTEX
  8
sausage
 10
0.0
 20
0.0
 30
0.0
 70
   128
 71
   9
 72
   18
 73
   17
  0
VERTEX
  8
sausage
 10
0.0
 20
0.0
 30
0.0
 70
   128
 71
   11
 72
   20
 73
   19
  0
VERTEX
  8
sausage
 10
0.0
 20
0.0
 30
0.0
 70
   128
 71
   12
 72
   21
 73
   20
  0
VERTEX
  8
sausage
 10
0.0
 20
0.0
 30
0.0
 70
   128
 71
   13
 72
   22
 73
   21
  0
VERTEX
  8
sausage
 10
0.0
 20
0.0
 30
0.0
 70
   128
 71
   14
 72
   23
 73
   22
  0
VERTEX
  8
sausage
 10
0.0
 20
0.0
 30
0.0
 70
   128
 71
   15
 72
   24
 73
   23
  0
VERTEX
  8
sausage
 10
0.0
 20
0.0
 30
0.0
 70
   128
 71
   16
 72
   25
 73
   24
  0
VERTEX
  8
sausage
 10
0.0
 20
0.0
 30
0.0
 70
   128
 71
   17
 72
   26
 73
   25
  0
VERTEX
  8
sausage
 10
0.0
 20
0.0
 30
0.0
 70
   128
 71
   19
 72
   28
 73
   27
  0
VERTEX
  8
sausage
 10
0.0
 20
0.0
 30
0.0
 70
   128
 71
   20
 72
   29
 73
   28
  0
VERTEX
  8
sausage
 10
0.0
 20
0.0
 30
0.0
 70
   128
 71
   21
 72
   30
 73
   29
  0
VERTEX
  8
sausage
 10
0.0
 20
0.0
 30
0.0
 70
   128
 71
   22
 72
   31
 73
   30
  0
VERTEX
  8
sausage
 10
0.0
 20
0.0
 30
0.0
 70
   128
 71
   23
 72
   32
 73
   31
  0
VERTEX
  8
sausage
 10
0.0
 20
0.0
 30
0.0
 70
   128
 71
   24
 72
   33
 73
   32
  0
VERTEX
  8
sausage
 10
0.0
 20
0.0
 30
0.0
 70
   128
 71
   25
 72
   34
 73
   33
  0
VERTEX
  8
sausage
 10
0.0
 20
0.0
 30
0.0
 70
   128
 71
   27
 72
   36
 73
   35
  0
VERTEX
  8
sausage
 10
0.0
 20
0.0
 30
0.0
 70
   128
 71
   28
 72
   37
 73
   36
  0
VERTEX
  8
sausage
 10
0.0
 20
0.0
 30
0.0
 70
   128
 71
   29
 72
   38
 73
   37
  0
VERTEX
  8
sausage
 10
0.0
 20
0.0
 30
0.0
 70
   128
 71
   30
 72
   39
 73
   38
  0
VERTEX
  8
sausage
 10
0.0
 20
0.0
 30
0.0
 70
   128
 71
   31
 72
   40
 73
   39
  0
VERTEX
  8
sausage
 10
0.0
 20
0.0
 30
0.0
 70
   128
 71
   32
 72
   41
 73
   40
  0
VERTEX
  8
sausage
 10
0.0
 20
0.0
 30
0.0
 70
   128
 71
   33
 72
   42
 73
   41
  0
VERTEX
  8
sausage
 10
0.0
 20
0.0
 30
0.0
 70
   128
 71
   35
 72
   44
 73
   43
  0
VERTEX
  8
sausage
 10
0.0
 20
0.0
 30
0.0
 70
   128
 71
   36
 72
   45
 73
   44
  0
VERTEX
  8
sausage
 10
0.0
 20
0.0
 30
0.0
 70
   128
 71
   37
 72
   46
 73
   45
  0
VERTEX
  8
sausage
 10
0.0
 20
0.0
 30
0.0
 70
   128
 71
   38
 72
   47
 73
   46
  0
VERTEX
  8
sausage
 10
0.0
 20
0.0
 30
0.0
 70
   128
 71
   39
 72
   48
 73
   47
  0
VERTEX
  8
sausage
 10
0.0
 20
0.0
 30
0.0
 70
   128
 71
   40
 72
   49
 73
   48
  0
VERTEX
  8
sausage
 10
0.0
 20
0.0
 30
0.0
 70
   128
 71
   41
 72
   50
 73
   49
  0
VERTEX
  8
sausage
 10
0.0
 20
0.0
 30
0.0
 70
   128
 71
   43
 72
   52
 73
   51
  0
VERTEX
  8
sausage
 10
0.0
 20
0.0
 30
0.0
 70
   128
 71
   44
 72
   53
 73
   52
  0
VERTEX
  8
sausage
 10
0.0
 20
0.0
 30
0.0
 70
   128
 71
   45
 72
   54
 73
   53
  0
VERTEX
  8
sausage
 10
0.0
 20
0.0
 30
0.0
 70
   128
 71
   46
 72
   55
 73
   54
  0
VERTEX
  8
sausage
 10
0.0
 20
0.0
 30
0.0
 70
   128
 71
   47
 72
   56
 73
   55
  0
VERTEX
  8
sausage
 10
0.0
 20
0.0
 30
0.0
 70
   128
 71
   48
 72
   57
 73
   56
  0
VERTEX
  8
sausage
 10
0.0
 20
0.0
 30
0.0
 70
   128
 71
   49
 72
   58
 73
   57
  0
VERTEX
  8
sausage
 10
0.0
 20
0.0
 30
0.0
 70
   128
 71
   51
 72
   60
 73
   59
  0
VERTEX
  8
sausage
 10
0.0
 20
0.0
 30
0.0
 70
   128
 71
   52
 72
   61
 73
   60
  0
VERTEX
  8
sausage
 10
0.0
 20
0.0
 30
0.0
 70
   128
 71
   53
 72
   62
 73
   61
  0
VERTEX
  8
sausage
 10
0.0
 20
0.0
 30
0.0
 70
   128
 71
   54
 72
   63
 73
   62
  0
VERTEX
  8
sausage
 10
0.0
 20
0.0
 30
0.0
 70
   128
 71
   55
 72
   64
 73
   63
  0
VERTEX
  8
sausage
 10
0.0
 20
0.0
 30
0.0
 70
   128
 71
   56
 72
   65
 73
   64
  0
VERTEX
  8
sausage
 10
0.0
 20
0.0
 30
0.0
 70
   128
 71
   57
 72
   66
 73
   65
  0
VERTEX
  8
sausage
 10
0.0
 20
0.0
 30
0.0
 70
   128
 71
   59
 72
   4
 73
   3
  0
VERTEX
  8
sausage
 10
0.0
 20
0.0
 30
0.0
 70
   128
 71
   60
 72
   5
 73
   4
  0
VERTEX
  8
sausage
 10
0.0
 20
0.0
 30
0.0
 70
   128
 71
   61
 72
   6
 73
   5
  0
VERTEX
  8
sausage
 10
0.0
 20
0.0
 30
0.0
 70
   128
 71
   62
 72
   7
 73
   6
  0
VERTEX
  8
sausage
 10
0.0
 20
0.0
 30
0.0
 70
   128
 71
   63
 72
   8
 73
   7
  0
VERTEX
  8
sausage
 10
0.0
 20
0.0
 30
0.0
 70
   128
 71
   64
 72
   9
 73
   8
  0
VERTEX
  8
sausage
 10
0.0
 20
0.0
 30
0.0
 70
   128
 71
   65
 72
   10
 73
   9
  0
SEQEND
  0
POLYLINE
  8
sausage_2
 66
   1
 10
0.0
 20
0.0
 30
0.0
 70
   64
 71
   66
 72
   128
  0
VERTEX
  8
sausage_2
 10
34.636029
 20
26.390346
 30
88.744168
 70
   192
  0
VERTEX
  8
sausage_2
 10
37.268719
 20
26.390346
 30
-85.800110
 70
   192
  0
VERTEX
  8
sausage_2
 10
33.919764
 20
14.740583
 30
85.733625
 70
   192
  0
VERTEX
  8
sausage_2
 10
31.962889
 20
6.212366
 30
77.508668
 70
   192
  0
VERTEX
  8
sausage_2
 10
29.289749
 20
3.090821
 30
66.273168
 70
   192
  0
VERTEX
  8
sausage_2
 10
21.020569
 20
3.090821
 30
24.373899
 70
   192
  0
VERTEX
  8
sausage_2
 10
22.030621
 20
3.090821
 30
-20.936885
 70
   192
  0
VERTEX
  8
sausage_2
 10
31.986206
 20
3.090821
 30
-63.314307
 70
   192
  0
VERTEX
  8
sausage_2
 10
34.627462
 20
6.212366
 30
-74.557208
 70
   192
  0
VERTEX
  8
sausage_2
 10
36.560996
 20
14.740583
 30
-82.787583
 70
   192
  0
VERTEX
  8
sausage_2
 10
25.901931
 20
18.152720
 30
87.606579
 70
   192
  0
VERTEX
  8
sausage_2
 10
18.075596
 20
12.122359
 30
80.752720
 70
   192
  0
VERTEX
  8
sausage_2
 10
13.254084
 20
9.915094
 30
70.019077
 70
   192
  0
VERTEX
  8
sausage_2
 10
4.741306
 20
9.915094
 30
26.884469
 70
   192
  0
VERTEX
  8
sausage_2
 10
5.984393
 20
9.915094
 30
-24.638115
 70
   192
  0
VERTEX
  8
sausage_2
 10
15.939977
 20
9.915094
 30
-67.015537
 70
   192
  0
VERTEX
  8
sausage_2
 10
20.731021
 20
12.122359
 30
-77.762567
 70
   192
  0
VERTEX
  8
sausage_2
 10
28.537882
 20
18.152720
 30
-84.638198
 70
   192
  0
VERTEX
  8
sausage_2
 10
22.580836
 20
26.390346
 30
88.382382
 70
   192
  0
VERTEX
  8
sausage_2
 10
12.323290
 20
26.390346
 30
82.096450
 70
   192
  0
VERTEX
  8
sausage_2
 10
6.611894
 20
26.390346
 30
71.570682
 70
   192
  0
VERTEX
  8
sausage_2
 10
-2.001785
 20
26.390346
 30
27.924382
 70
   192
  0
VERTEX
  8
sausage_2
 10
-0.662172
 20
26.390346
 30
-26.171214
 70
   192
  0
VERTEX
  8
sausage_2
 10
9.293412
 20
26.390346
 30
-68.548636
 70
   192
  0
VERTEX
  8
sausage_2
 10
14.974926
 20
26.390346
 30
-79.090270
 70
   192
  0
VERTEX
  8
sausage_2
 10
25.214600
 20
26.390346
 30
-85.404748
 70
   192
  0
VERTEX
  8
sausage_2
 10
25.901931
 20
34.627972
 30
87.606579
 70
   192
  0
VERTEX
  8
sausage_2
 10
18.075596
 20
40.658332
 30
80.752720
 70
   192
  0
VERTEX
  8
sausage_2
 10
13.254084
 20
42.865597
 30
70.019077
 70
   192
  0
VERTEX
  8
sausage_2
 10
4.741306
 20
42.865597
 30
26.884469
 70
   192
  0
VERTEX
  8
sausage_2
 10
5.984393
 20
42.865597
 30
-24.638115
 70
   192
  0
VERTEX
  8
sausage_2
 10
15.939977
 20
42.865597
 30
-67.015537
 70
   192
  0
VERTEX
  8
sausage_2
 10
20.731021
 20
40.658332
 30
-77.762567
 70
   192
  0
VERTEX
  8
sausage_2
 10
28.537882
 20
34.627972
 30
-84.638198
 70
   192
  0
VERTEX
  8
sausage_2
 10
33.919764
 20
38.040108
 30
85.733625
 70
   192
  0
VERTEX
  8
sausage_2
 10
31.962889
 20
46.568326
 30
77.508668
 70
   192
  0
VERTEX
  8
sausage_2
 10
29.289749
 20
49.689870
 30
66.273168
 70
   192
  0
VERTEX
  8
sausage_2
 10
21.020569
 20
49.689870
 30
24.373899
 70
   192
  0
VERTEX
  8
sausage_2
 10
22.030621
 20
49.689870
 30
-20.936885
 70
   192
  0
VERTEX
  8
sausage_2
 10
31.986206
 20
49.689870
 30
-63.314307
 70
   192
  0
VERTEX
  8
sausage_2
 10
34.627462
 20
46.568326
 30
-74.557208
 70
   192
  0
VERTEX
  8
sausage_2
 10
36.560996
 20
38.040108
 30
-82.787583
 70
   192
  0
VERTEX
  8
sausage_2
 10
41.937596
 20
34.627972
 30
83.860671
 70
   192
  0
VERTEX
  8
sausage_2
 10
45.850183
 20
40.658332
 30
74.264617
 70
   192
  0
VERTEX
  8
sausage_2
 10
45.325415
 20
42.865597
 30
62.527260
 70
   192
  0
VERTEX
  8
sausage_2
 10
37.299831
 20
42.865597
 30
21.863329
 70
   192
  0
VERTEX
  8
sausage_2
 10
38.076850
 20
42.865597
 30
-17.235656
 70
   192
  0
VERTEX
  8
sausage_2
 10
48.032434
 20
42.865597
 30
-59.613078
 70
   192
  0
VERTEX
  8
sausage_2
 10
48.523904
 20
40.658332
 30
-71.351850
 70
   192
  0
VERTEX
  8
sausage_2
 10
44.584111
 20
34.627972
 30
-80.936968
 70
   192
  0
VERTEX
  8
sausage_2
 10
45.258691
 20
26.390346
 30
83.084868
 70
   192
  0
VERTEX
  8
sausage_2
 10
51.602488
 20
26.390346
 30
72.920886
 70
   192
  0
VERTEX
  8
sausage_2
 10
51.967605
 20
26.390346
 30
60.975654
 70
   192
  0
VERTEX
  8
sausage_2
 10
44.042922
 20
26.390346
 30
20.823417
 70
   192
  0
VERTEX
  8
sausage_2
 10
44.723415
 20
26.390346
 30
-15.702556
 70
   192
  0
VERTEX
  8
sausage_2
 10
54.679000
 20
26.390346
 30
-58.079978
 70
   192
  0
VERTEX
  8
sausage_2
 10
54.279998
 20
26.390346
 30
-70.024147
 70
   192
  0
VERTEX
  8
sausage_2
 10
47.907393
 20
26.390346
 30
-80.170419
 70
   192
  0
VERTEX
  8
sausage_2
 10
41.937596
 20
18.152720
 30
83.860671
 70
   192
  0
VERTEX
  8
sausage_2
 10
45.850183
 20
12.122359
 30
74.264617
 70
   192
  0
VERTEX
  8
sausage_2
 10
45.325415
 20
9.915094
 30
62.527260
 70
   192
  0
VERTEX
  8
sausage_2
 10
37.299831
 20
9.915094
 30
21.863329
 70
   192
  0
VERTEX
  8
sausage_2
 10
38.076850
 20
9.915094
 30
-17.235656
 70
   192
  0
VERTEX
  8
sausage_2
 10
48.032434
 20
9.915094
 30
-59.613078
 70
   192
  0
VERTEX
  8
sausage_2
 10
48.523904
 20
12.122359
 30
-71.351850
 70
   192
  0
VERTEX
  8
sausage_2
 10
44.584111
 20
18.152720
 30
-80.936968
 70
   192
  0
VERTEX
  8
sausage_2
 10
0.0
 20
0.0
 30
0.0
 70
   128
 71
   1
 72
   3
 73
   11
  0
VERTEX
  8
sausage_2
 10
0.0
 20
0.0
 30
0.0
 70
   128
 71
   3
 72
   4
 73
   12
  0
VERTEX
  8
sausage_2
 10
0.0
 20
0.0
 30
0.0
 70
   128
 71
   4
 72
   5
 73
   13
  0
VERTEX
  8
sausage_2
 10
0.0
 20
0.0
 30
0.0
 70
   128
 71
   5
 72
   6
 73
   14
  0
VERTEX
  8
sausage_2
 10
0.0
 20
0.0
 30
0.0
 70
   128
 71
   6
 72
   7
 73
   15
  0
VERTEX
  8
sausage_2
 10
0.0
 20
0.0
 30
0.0
 70
   128
 71
   7
 72
   8
 73
   16
  0
VERTEX
  8
sausage_2
 10
0.0
 20
0.0
 30
0.0
 70
   128
 71
   8
 72
   9
 73
   17
  0
VERTEX
  8
sausage_2
 10
0.0
 20
0.0
 30
0.0
 70
   128
 71
   9
 72
   10
 73
   18
  0
VERTEX
  8
sausage_2
 10
0.0
 20
0.0
 30
0.0
 70
   128
 71
   10
 72
   2
 73
   18
  0
VERTEX
  8
sausage_2
 10
0.0
 20
0.0
 30
0.0
 70
   128
 71
   1
 72
   11
 73
   19
  0
VERTEX
  8
sausage_2
 10
0.0
 20
0.0
 30
0.0
 70
   128
 71
   11
 72
   12
 73
   20
  0
VERTEX
  8
sausage_2
 10
0.0
 20
0.0
 30
0.0
 70
   128
 71
   12
 72
   13
 73
   21
  0
VERTEX
  8
sausage_2
 10
0.0
 20
0.0
 30
0.0
 70
   128
 71
   13
 72
   14
 73
   22
  0
VERTEX
  8
sausage_2
 10
0.0
 20
0.0
 30
0.0
 70
   128
 71
   14
 72
   15
 73
   23
  0
VERTEX
  8
sausage_2
 10
0.0
 20
0.0
 30
0.0
 70
   128
 71
   15
 72
   16
 73
   24
  0
VERTEX
  8
sausage_2
 10
0.0
 20
0.0
 30
0.0
 70
   128
 71
   16
 72
   17
 73
   25
  0
VERTEX
  8
sausage_2
 10
0.0
 20
0.0
 30
0.0
 70
   128
 71
   17
 72
   18
 73
   26
  0
VERTEX
  8
sausage_2
 10
0.0
 20
0.0
 30
0.0
 70
   128
 71
   18
 72
   2
 73
   26
  0
VERTEX
  8
sausage_2
 10
0.0
 20
0.0
 30
0.0
 70
   128
 71
   1
 72
   19
 73
   27
  0
VERTEX
  8
sausage_2
 10
0.0
 20
0.0
 30
0.0
 70
   128
 71
   19
 72
   20
 73
   28
  0
VERTEX
  8
sausage_2
 10
0.0
 20
0.0
 30
0.0
 70
   128
 71
   20
 72
   21
 73
   29
  0
VERTEX
  8
sausage_2
 10
0.0
 20
0.0
 30
0.0
 70
   128
 71
   21
 72
   22
 73
   30
  0
VERTEX
  8
sausage_2
 10
0.0
 20
0.0
 30
0.0
 70
   128
 71
   22
 72
   23
 73
   31
  0
VERTEX
  8
sausage_2
 10
0.0
 20
0.0
 30
0.0
 70
   128
 71
   23
 72
   24
 73
   32
  0
VERTEX
  8
sausage_2
 10
0.0
 20
0.0
 30
0.0
 70
   128
 71
   24
 72
   25
 73
   33
  0
VERTEX
  8
sausage_2
 10
0.0
 20
0.0
 30
0.0
 70
   128
 71
   25
 72
   26
 73
   34
  0
VERTEX
  8
sausage_2
 10
0.0
 20
0.0
 30
0.0
 70
   128
 71
   26
 72
   2
 73
   34
  0
VERTEX
  8
sausage_2
 10
0.0
 20
0.0
 30
0.0
 70
   128
 71
   1
 72
   27
 73
   35
  0
VERTEX
  8
sausage_2
 10
0.0
 20
0.0
 30
0.0
 70
   128
 71
   27
 72
   28
 73
   36
  0
VERTEX
  8
sausage_2
 10
0.0
 20
0.0
 30
0.0
 70
   128
 71
   28
 72
   29
 73
   37
  0
VERTEX
  8
sausage_2
 10
0.0
 20
0.0
 30
0.0
 70
   128
 71
   29
 72
   30
 73
   38
  0
VERTEX
  8
sausage_2
 10
0.0
 20
0.0
 30
0.0
 70
   128
 71
   30
 72
   31
 73
   39
  0
VERTEX
  8
sausage_2
 10
0.0
 20
0.0
 30
0.0
 70
   128
 71
   31
 72
   32
 73
   40
  0
VERTEX
  8
sausage_2
 10
0.0
 20
0.0
 30
0.0
 70
   128
 71
   32
 72
   33
 73
   41
  0
VERTEX
  8
sausage_2
 10
0.0
 20
0.0
 30
0.0
 70
   128
 71
   33
 72
   34
 73
   42
  0
VERTEX
  8
sausage_2
 10
0.0
 20
0.0
 30
0.0
 70
   128
 71
   34
 72
   2
 73
   42
  0
VERTEX
  8
sausage_2
 10
0.0
 20
0.0
 30
0.0
 70
   128
 71
   1
 72
   35
 73
   43
  0
VERTEX
  8
sausage_2
 10
0.0
 20
0.0
 30
0.0
 70
   128
 71
   35
 72
   36
 73
   44
  0
VERTEX
  8
sausage_2
 10
0.0
 20
0.0
 30
0.0
 70
   128
 71
   36
 72
   37
 73
   45
  0
VERTEX
  8
sausage_2
 10
0.0
 20
0.0
 30
0.0
 70
   128
 71
   37
 72
   38
 73
   46
  0
VERTEX
  8
sausage_2
 10
0.0
 20
0.0
 30
0.0
 70
   128
 71
   38
 72
   39
 73
   47
  0
VERTEX
  8
sausage_2
 10
0.0
 20
0.0
 30
0.0
 70
   128
 71
   39
 72
   40
 73
   48
  0
VERTEX
  8
sausage_2
 10
0.0
 20
0.0
 30
0.0
 70
   128
 71
   40
 72
   41
 73
   49
  0
VERTEX
  8
sausage_2
 10
0.0
 20
0.0
 30
0.0
 70
   128
 71
   41
 72
   42
 73
   50
  0
VERTEX
  8
sausage_2
 10
0.0
 20
0.0
 30
0.0
 70
   128
 71
   42
 72
   2
 73
   50
  0
VERTEX
  8
sausage_2
 10
0.0
 20
0.0
 30
0.0
 70
   128
 71
   1
 72
   43
 73
   51
  0
VERTEX
  8
sausage_2
 10
0.0
 20
0.0
 30
0.0
 70
   128
 71
   43
 72
   44
 73
   52
  0
VERTEX
  8
sausage_2
 10
0.0
 20
0.0
 30
0.0
 70
   128
 71
   44
 72
   45
 73
   53
  0
VERTEX
  8
sausage_2
 10
0.0
 20
0.0
 30
0.0
 70
   128
 71
   45
 72
   46
 73
   54
  0
VERTEX
  8
sausage_2
 10
0.0
 20
0.0
 30
0.0
 70
   128
 71
   46
 72
   47
 73
   55
  0
VERTEX
  8
sausage_2
 10
0.0
 20
0.0
 30
0.0
 70
   128
 71
   47
 72
   48
 73
   56
  0
VERTEX
  8
sausage_2
 10
0.0
 20
0.0
 30
0.0
 70
   128
 71
   48
 72
   49
 73
   57
  0
VERTEX
  8
sausage_2
 10
0.0
 20
0.0
 30
0.0
 70
   128
 71
   49
 72
   50
 73
   58
  0
VERTEX
  8
sausage_2
 10
0.0
 20
0.0
 30
0.0
 70
   128
 71
   50
 72
   2
 73
   58
  0
VERTEX
  8
sausage_2
 10
0.0
 20
0.0
 30
0.0
 70
   128
 71
   1
 72
   51
 73
   59
  0
VERTEX
  8
sausage_2
 10
0.0
 20
0.0
 30
0.0
 70
   128
 71
   51
 72
   52
 73
   60
  0
VERTEX
  8
sausage_2
 10
0.0
 20
0.0
 30
0.0
 70
   128
 71
   52
 72
   53
 73
   61
  0
VERTEX
  8
sausage_2
 10
0.0
 20
0.0
 30
0.0
 70
   128
 71
   53
 72
   54
 73
   62
  0
VERTEX
  8
sausage_2
 10
0.0
 20
0.0
 30
0.0
 70
   128
 71
   54
 72
   55
 73
   63
  0
VERTEX
  8
sausage_2
 10
0.0
 20
0.0
 30
0.0
 70
   128
 71
   55
 72
   56
 73
   64
  0
VERTEX
  8
sausage_2
 10
0.0
 20
0.0
 30
0.0
 70
   128
 71
   56
 72
   57
 73
   65
  0
VERTEX
  8
sausage_2
 10
0.0
 20
0.0
 30
0.0
 70
   128
 71
   57
 72
   58
 73
   66
  0
VERTEX
  8
sausage_2
 10
0.0
 20
0.0
 30
0.0
 70
   128
 71
   58
 72
   2
 73
   66
  0
VERTEX
  8
sausage_2
 10
0.0
 20
0.0
 30
0.0
 70
   128
 71
   1
 72
   59
 73
   3
  0
VERTEX
  8
sausage_2
 10
0.0
 20
0.0
 30
0.0
 70
   128
 71
   59
 72
   60
 73
   4
  0
VERTEX
  8
sausage_2
 10
0.0
 20
0.0
 30
0.0
 70
   128
 71
   60
 72
   61
 73
   5
  0
VERTEX
  8
sausage_2
 10
0.0
 20
0.0
 30
0.0
 70
   128
 71
   61
 72
   62
 73
   6
  0
VERTEX
  8
sausage_2
 10
0.0
 20
0.0
 30
0.0
 70
   128
 71
   62
 72
   63
 73
   7
  0
VERTEX
  8
sausage_2
 10
0.0
 20
0.0
 30
0.0
 70
   128
 71
   63
 72
   64
 73
   8
  0
VERTEX
  8
sausage_2
 10
0.0
 20
0.0
 30
0.0
 70
   128
 71
   64
 72
   65
 73
   9
  0
VERTEX
  8
sausage_2
 10
0.0
 20
0.0
 30
0.0
 70
   128
 71
   65
 72
   66
 73
   10
  0
VERTEX
  8
sausage_2
 10
0.0
 20
0.0
 30
0.0
 70
   128
 71
   66
 72
   2
 73
   10
  0
VERTEX
  8
sausage_2
 10
0.0
 20
0.0
 30
0.0
 70
   128
 71
   3
 72
   12
 73
   11
  0
VERTEX
  8
sausage_2
 10
0.0
 20
0.0
 30
0.0
 70
   128
 71
   4
 72
   13
 73
   12
  0
VERTEX
  8
sausage_2
 10
0.0
 20
0.0
 30
0.0
 70
   128
 71
   5
 72
   14
 73
   13
  0
VERTEX
  8
sausage_2
 10
0.0
 20
0.0
 30
0.0
 70
   128
 71
   6
 72
   15
 73
   14
  0
VERTEX
  8
sausage_2
 10
0.0
 20
0.0
 30
0.0
 70
   128
 71
   7
 72
   16
 73
   15
  0
VERTEX
  8
sausage_2
 10
0.0
 20
0.0
 30
0.0
 70
   128
 71
   8
 72
   17
 73
   16
  0
VERTEX
  8
sausage_2
 10
0.0
 20
0.0
 30
0.0
 70
   128
 71
   9
 72
   18
 73
   17
  0
VERTEX
  8
sausage_2
 10
0.0
 20
0.0
 30
0.0
 70
   128
 71
   11
 72
   20
 73
   19
  0
VERTEX
  8
sausage_2
 10
0.0
 20
0.0
 30
0.0
 70
   128
 71
   12
 72
   21
 73
   20
  0
VERTEX
  8
sausage_2
 10
0.0
 20
0.0
 30
0.0
 70
   128
 71
   13
 72
   22
 73
   21
  0
VERTEX
  8
sausage_2
 10
0.0
 20
0.0
 30
0.0
 70
   128
 71
   14
 72
   23
 73
   22
  0
VERTEX
  8
sausage_2
 10
0.0
 20
0.0
 30
0.0
 70
   128
 71
   15
 72
   24
 73
   23
  0
VERTEX
  8
sausage_2
 10
0.0
 20
0.0
 30
0.0
 70
   128
 71
   16
 72
   25
 73
   24
  0
VERTEX
  8
sausage_2
 10
0.0
 20
0.0
 30
0.0
 70
   128
 71
   17
 72
   26
 73
   25
  0
VERTEX
  8
sausage_2
 10
0.0
 20
0.0
 30
0.0
 70
   128
 71
   19
 72
   28
 73
   27
  0
VERTEX
  8
sausage_2
 10
0.0
 20
0.0
 30
0.0
 70
   128
 71
   20
 72
   29
 73
   28
  0
VERTEX
  8
sausage_2
 10
0.0
 20
0.0
 30
0.0
 70
   128
 71
   21
 72
   30
 73
   29
  0
VERTEX
  8
sausage_2
 10
0.0
 20
0.0
 30
0.0
 70
   128
 71
   22
 72
   31
 73
   30
  0
VERTEX
  8
sausage_2
 10
0.0
 20
0.0
 30
0.0
 70
   128
 71
   23
 72
   32
 73
   31
  0
VERTEX
  8
sausage_2
 10
0.0
 20
0.0
 30
0.0
 70
   128
 71
   24
 72
   33
 73
   32
  0
VERTEX
  8
sausage_2
 10
0.0
 20
0.0
 30
0.0
 70
   128
 71
   25
 72
   34
 73
   33
  0
VERTEX
  8
sausage_2
 10
0.0
 20
0.0
 30
0.0
 70
   128
 71
   27
 72
   36
 73
   35
  0
VERTEX
  8
sausage_2
 10
0.0
 20
0.0
 30
0.0
 70
   128
 71
   28
 72
   37
 73
   36
  0
VERTEX
  8
sausage_2
 10
0.0
 20
0.0
 30
0.0
 70
   128
 71
   29
 72
   38
 73
   37
  0
VERTEX
  8
sausage_2
 10
0.0
 20
0.0
 30
0.0
 70
   128
 71
   30
 72
   39
 73
   38
  0
VERTEX
  8
sausage_2
 10
0.0
 20
0.0
 30
0.0
 70
   128
 71
   31
 72
   40
 73
   39
  0
VERTEX
  8
sausage_2
 10
0.0
 20
0.0
 30
0.0
 70
   128
 71
   32
 72
   41
 73
   40
  0
VERTEX
  8
sausage_2
 10
0.0
 20
0.0
 30
0.0
 70
   128
 71
   33
 72
   42
 73
   41
  0
VERTEX
  8
sausage_2
 10
0.0
 20
0.0
 30
0.0
 70
   128
 71
   35
 72
   44
 73
   43
  0
VERTEX
  8
sausage_2
 10
0.0
 20
0.0
 30
0.0
 70
   128
 71
   36
 72
   45
 73
   44
  0
VERTEX
  8
sausage_2
 10
0.0
 20
0.0
 30
0.0
 70
   128
 71
   37
 72
   46
 73
   45
  0
VERTEX
  8
sausage_2
 10
0.0
 20
0.0
 30
0.0
 70
   128
 71
   38
 72
   47
 73
   46
  0
VERTEX
  8
sausage_2
 10
0.0
 20
0.0
 30
0.0
 70
   128
 71
   39
 72
   48
 73
   47
  0
VERTEX
  8
sausage_2
 10
0.0
 20
0.0
 30
0.0
 70
   128
 71
   40
 72
   49
 73
   48
  0
VERTEX
  8
sausage_2
 10
0.0
 20
0.0
 30
0.0
 70
   128
 71
   41
 72
   50
 73
   49
  0
VERTEX
  8
sausage_2
 10
0.0
 20
0.0
 30
0.0
 70
   128
 71
   43
 72
   52
 73
   51
  0
VERTEX
  8
sausage_2
 10
0.0
 20
0.0
 30
0.0
 70
   128
 71
   44
 72
   53
 73
   52
  0
VERTEX
  8
sausage_2
 10
0.0
 20
0.0
 30
0.0
 70
   128
 71
   45
 72
   54
 73
   53
  0
VERTEX
  8
sausage_2
 10
0.0
 20
0.0
 30
0.0
 70
   128
 71
   46
 72
   55
 73
   54
  0
VERTEX
  8
sausage_2
 10
0.0
 20
0.0
 30
0.0
 70
   128
 71
   47
 72
   56
 73
   55
  0
VERTEX
  8
sausage_2
 10
0.0
 20
0.0
 30
0.0
 70
   128
 71
   48
 72
   57
 73
   56
  0
VERTEX
  8
sausage_2
 10
0.0
 20
0.0
 30
0.0
 70
   128
 71
   49
 72
   58
 73
   57
  0
VERTEX
  8
sausage_2
 10
0.0
 20
0.0
 30
0.0
 70
   128
 71
   51
 72
   60
 73
   59
  0
VERTEX
  8
sausage_2
 10
0.0
 20
0.0
 30
0.0
 70
   128
 71
   52
 72
   61
 73
   60
  0
VERTEX
  8
sausage_2
 10
0.0
 20
0.0
 30
0.0
 70
   128
 71
   53
 72
   62
 73
   61
  0
VERTEX
  8
sausage_2
 10
0.0
 20
0.0
 30
0.0
 70
   128
 71
   54
 72
   63
 73
   62
  0
VERTEX
  8
sausage_2
 10
0.0
 20
0.0
 30
0.0
 70
   128
 71
   55
 72
   64
 73
   63
  0
VERTEX
  8
sausage_2
 10
0.0
 20
0.0
 30
0.0
 70
   128
 71
   56
 72
   65
 73
   64
  0
VERTEX
  8
sausage_2
 10
0.0
 20
0.0
 30
0.0
 70
   128
 71
   57
 72
   66
 73
   65
  0
VERTEX
  8
sausage_2
 10
0.0
 20
0.0
 30
0.0
 70
   128
 71
   59
 72
   4
 73
   3
  0
VERTEX
  8
sausage_2
 10
0.0
 20
0.0
 30
0.0
 70
   128
 71
   60
 72
   5
 73
   4
  0
VERTEX
  8
sausage_2
 10
0.0
 20
0.0
 30
0.0
 70
   128
 71
   61
 72
   6
 73
   5
  0
VERTEX
  8
sausage_2
 10
0.0
 20
0.0
 30
0.0
 70
   128
 71
   62
 72
   7
 73
   6
  0
VERTEX
  8
sausage_2
 10
0.0
 20
0.0
 30
0.0
 70
   128
 71
   63
 72
   8
 73
   7
  0
VERTEX
  8
sausage_2
 10
0.0
 20
0.0
 30
0.0
 70
   128
 71
   64
 72
   9
 73
   8
  0
VERTEX
  8
sausage_2
 10
0.0
 20
0.0
 30
0.0
 70
   128
 71
   65
 72
   10
 73
   9
  0
SEQEND
  0
POLYLINE
  8
sausage_3
 66
   1
 10
0.0
 20
0.0
 30
0.0
 70
   64
 71
   66
 72
   128
  0
VERTEX
  8
sausage_3
 10
-14.367695
 20
26.390346
 30
88.744168
 70
   192
  0
VERTEX
  8
sausage_3
 10
-11.735005
 20
26.390346
 30
-85.800110
 70
   192
  0
VERTEX
  8
sausage_3
 10
-15.083961
 20
14.740583
 30
85.733625
 70
   192
  0
VERTEX
  8
sausage_3
 10
-17.040835
 20
6.212366
 30
77.508668
 70
   192
  0
VERTEX
  8
sausage_3
 10
-19.713975
 20
3.090821
 30
66.273168
 70
   192
  0
VERTEX
  8
sausage_3
 10
-27.983156
 20
3.090821
 30
24.373899
 70
   192
  0
VERTEX
  8
sausage_3
 10
-26.973103
 20
3.090821
 30
-20.936885
 70
   192
  0
VERTEX
  8
sausage_3
 10
-17.017519
 20
3.090821
 30
-63.314307
 70
   192
  0
VERTEX
  8
sausage_3
 10
-14.376262
 20
6.212366
 30
-74.557208
 70
   192
  0
VERTEX
  8
sausage_3
 10
-12.442728
 20
14.740583
 30
-82.787583
 70
   192
  0
VERTEX
  8
sausage_3
 10
-23.101793
 20
18.152720
 30
87.606579
 70
   192
  0
VERTEX
  8
sausage_3
 10
-30.928129
 20
12.122359
 30
80.752720
 70
   192
  0
VERTEX
  8
sausage_3
 10
-35.749640
 20
9.915094
 30
70.019077
 70
   192
  0
VERTEX
  8
sausage_3
 10
-44.262418
 20
9.915094
 30
26.884469
 70
   192
  0
VERTEX
  8
sausage_3
 10
-43.019331
 20
9.915094
 30
-24.638115
 70
   192
  0
VERTEX
  8
sausage_3
 10
-33.063747
 20
9.915094
 30
-67.015537
 70
   192
  0
VERTEX
  8
sausage_3
 10
-28.272703
 20
12.122359
 30
-77.762567
 70
   192
  0
VERTEX
  8
sausage_3
 10
-20.465842
 20
18.152720
 30
-84.638198
 70
   192
  0
VERTEX
  8
sausage_3
 10
-26.422888
 20
26.390346
 30
88.382382
 70
   192
  0
VERTEX
  8
sausage_3
 10
-36.680434
 20
26.390346
 30
82.096450
 70
   192
  0
VERTEX
  8
sausage_3
 10
-42.391831
 20
26.390346
 30
71.570682
 70
   192
  0
VERTEX
  8
sausage_3
 10
-51.005509
 20
26.390346
 30
27.924382
 70
   192
  0
VERTEX
  8
sausage_3
 10
-49.665897
 20
26.390346
 30
-26.171214
 70
   192
  0
VERTEX
  8
sausage_3
 10
-39.710312
 20
26.390346
 30
-68.548636
 70
   192
  0
VERTEX
  8
sausage_3
 10
-34.028798
 20
26.390346
 30
-79.090270
 70
   192
  0
VERTEX
  8
sausage_3
 10
-23.789125
 20
26.390346
 30
-85.404748
 70
   192
  0
VERTEX
  8
sausage_3
 10
-23.101793
 20
34.627972
 30
87.606579
 70
   192
  0
VERTEX
  8
sausage_3
 10
-30.928129
 20
40.658332
 30
80.752720
 70
   192
  0
VERTEX
  8
sausage_3
 10
-35.749640
 20
42.865597
 30
70.019077
 70
   192
  0
VERTEX
  8
sausage_3
 10
-44.262418
 20
42.865597
 30
26.884469
 70
   192
  0
VERTEX
  8
sausage_3
 10
-43.019331
 20
42.865597
 30
-24.638115
 70
   192
  0
VERTEX
  8
sausage_3
 10
-33.063747
 20
42.865597
 30
-67.015537
 70
   192
  0
VERTEX
  8
sausage_3
 10
-28.272703
 20
40.658332
 30
-77.762567
 70
   192
  0
VERTEX
  8
sausage_3
 10
-20.465842
 20
34.627972
 30
-84.638198
 70
   192
  0
VERTEX
  8
sausage_3
 10
-15.083961
 20
38.040108
 30
85.733625
 70
   192
  0
VERTEX
  8
sausage_3
 10
-17.040835
 20
46.568326
 30
77.508668
 70
   192
  0
VERTEX
  8
sausage_3
 10
-19.713975
 20
49.689870
 30
66.273168
 70
   192
  0
VERTEX
  8
sausage_3
 10
-27.983156
 20
49.689870
 30
24.373899
 70
   192
  0
VERTEX
  8
sausage_3
 10
-26.973103
 20
49.689870
 30
-20.936885
 70
   192
  0
VERTEX
  8
sausage_3
 10
-17.017519
 20
49.689870
 30
-63.314307
 70
   192
  0
VERTEX
  8
sausage_3
 10
-14.376262
 20
46.568326
 30
-74.557208
 70
   192
  0
VERTEX
  8
sausage_3
 10
-12.442728
 20
38.040108
 30
-82.787583
 70
   192
  0
VERTEX
  8
sausage_3
 10
-7.066128
 20
34.627972
 30
83.860671
 70
   192
  0
VERTEX
  8
sausage_3
 10
-3.153541
 20
40.658332
 30
74.264617
 70
   192
  0
VERTEX
  8
sausage_3
 10
-3.678310
 20
42.865597
 30
62.527260
 70
   192
  0
VERTEX
  8
sausage_3
 10
-11.703894
 20
42.865597
 30
21.863329
 70
   192
  0
VERTEX
  8
sausage_3
 10
-10.926875
 20
42.865597
 30
-17.235656
 70
   192
  0
VERTEX
  8
sausage_3
 10
-0.971290
 20
42.865597
 30
-59.613078
 70
   192
  0
VERTEX
  8
sausage_3
 10
-0.479821
 20
40.658332
 30
-71.351850
 70
   192
  0
VERTEX
  8
sausage_3
 10
-4.419614
 20
34.627972
 30
-80.936968
 70
   192
  0
VERTEX
  8
sausage_3
 10
-3.745033
 20
26.390346
 30
83.084868
 70
   192
  0
VERTEX
  8
sausage_3
 10
2.598764
 20
26.390346
 30
72.920886
 70
   192
  0
VERTEX
  8
sausage_3
 10
2.963880
 20
26.390346
 30
60.975654
 70
   192
  0
VERTEX
  8
sausage_3
 10
-4.960802
 20
26.390346
 30
20.823417
 70
   192
  0
VERTEX
  8
sausage_3
 10
-4.280309
 20
26.390346
 30
-15.702556
 70
   192
  0
VERTEX
  8
sausage_3
 10
5.675275
 20
26.390346
 30
-58.079978
 70
   192
  0
VERTEX
  8
sausage_3
 10
5.276274
 20
26.390346
 30
-70.024147
 70
   192
  0
VERTEX
  8
sausage_3
 10
-1.096331
 20
26.390346
 30
-80.170419
 70
   192
  0
VERTEX
  8
sausage_3
 10
-7.066128
 20
18.152720
 30
83.860671
 70
   192
  0
VERTEX
  8
sausage_3
 10
-3.153541
 20
12.122359
 30
74.264617
 70
   192
  0
VERTEX
  8
sausage_3
 10
-3.678310
 20
9.915094
 30
62.527260
 70
   192
  0
VERTEX
  8
sausage_3
 10
-11.703894
 20
9.915094
 30
21.863329
 70
   192
  0
VERTEX
  8
sausage_3
 10
-10.926875
 20
9.915094
 30
-17.235656
 70
   192
  0
VERTEX
  8
sausage_3
 10
-0.971290
 20
9.915094
 30
-59.613078
 70
   192
  0
VERTEX
  8
sausage_3
 10
-0.479821
 20
12.122359
 30
-71.351850
 70
   192
  0
VERTEX
  8
sausage_3
 10
-4.419614
 20
18.152720
 30
-80.936968
 70
   192
  0
VERTEX
  8
sausage_3
 10
0.0
 20
0.0
 30
0.0
 70
   128
 71
   1
 72
   3
 73
   11
  0
VERTEX
  8
sausage_3
 10
0.0
 20
0.0
 30
0.0
 70
   128
 71
   3
 72
   4
 73
   12
  0
VERTEX
  8
sausage_3
 10
0.0
 20
0.0
 30
0.0
 70
   128
 71
   4
 72
   5
 73
   13
  0
VERTEX
  8
sausage_3
 10
0.0
 20
0.0
 30
0.0
 70
   128
 71
   5
 72
   6
 73
   14
  0
VERTEX
  8
sausage_3
 10
0.0
 20
0.0
 30
0.0
 70
   128
 71
   6
 72
   7
 73
   15
  0
VERTEX
  8
sausage_3
 10
0.0
 20
0.0
 30
0.0
 70
   128
 71
   7
 72
   8
 73
   16
  0
VERTEX
  8
sausage_3
 10
0.0
 20
0.0
 30
0.0
 70
   128
 71
   8
 72
   9
 73
   17
  0
VERTEX
  8
sausage_3
 10
0.0
 20
0.0
 30
0.0
 70
   128
 71
   9
 72
   10
 73
   18
  0
VERTEX
  8
sausage_3
 10
0.0
 20
0.0
 30
0.0
 70
   128
 71
   10
 72
   2
 73
   18
  0
VERTEX
  8
sausage_3
 10
0.0
 20
0.0
 30
0.0
 70
   128
 71
   1
 72
   11
 73
   19
  0
VERTEX
  8
sausage_3
 10
0.0
 20
0.0
 30
0.0
 70
   128
 71
   11
 72
   12
 73
   20
  0
VERTEX
  8
sausage_3
 10
0.0
 20
0.0
 30
0.0
 70
   128
 71
   12
 72
   13
 73
   21
  0
VERTEX
  8
sausage_3
 10
0.0
 20
0.0
 30
0.0
 70
   128
 71
   13
 72
   14
 73
   22
  0
VERTEX
  8
sausage_3
 10
0.0
 20
0.0
 30
0.0
 70
   128
 71
   14
 72
   15
 73
   23
  0
VERTEX
  8
sausage_3
 10
0.0
 20
0.0
 30
0.0
 70
   128
 71
   15
 72
   16
 73
   24
  0
VERTEX
  8
sausage_3
 10
0.0
 20
0.0
 30
0.0
 70
   128
 71
   16
 72
   17
 73
   25
  0
VERTEX
  8
sausage_3
 10
0.0
 20
0.0
 30
0.0
 70
   128
 71
   17
 72
   18
 73
   26
  0
VERTEX
  8
sausage_3
 10
0.0
 20
0.0
 30
0.0
 70
   128
 71
   18
 72
   2
 73
   26
  0
VERTEX
  8
sausage_3
 10
0.0
 20
0.0
 30
0.0
 70
   128
 71
   1
 72
   19
 73
   27
  0
VERTEX
  8
sausage_3
 10
0.0
 20
0.0
 30
0.0
 70
   128
 71
   19
 72
   20
 73
   28
  0
VERTEX
  8
sausage_3
 10
0.0
 20
0.0
 30
0.0
 70
   128
 71
   20
 72
   21
 73
   29
  0
VERTEX
  8
sausage_3
 10
0.0
 20
0.0
 30
0.0
 70
   128
 71
   21
 72
   22
 73
   30
  0
VERTEX
  8
sausage_3
 10
0.0
 20
0.0
 30
0.0
 70
   128
 71
   22
 72
   23
 73
   31
  0
VERTEX
  8
sausage_3
 10
0.0
 20
0.0
 30
0.0
 70
   128
 71
   23
 72
   24
 73
   32
  0
VERTEX
  8
sausage_3
 10
0.0
 20
0.0
 30
0.0
 70
   128
 71
   24
 72
   25
 73
   33
  0
VERTEX
  8
sausage_3
 10
0.0
 20
0.0
 30
0.0
 70
   128
 71
   25
 72
   26
 73
   34
  0
VERTEX
  8
sausage_3
 10
0.0
 20
0.0
 30
0.0
 70
   128
 71
   26
 72
   2
 73
   34
  0
VERTEX
  8
sausage_3
 10
0.0
 20
0.0
 30
0.0
 70
   128
 71
   1
 72
   27
 73
   35
  0
VERTEX
  8
sausage_3
 10
0.0
 20
0.0
 30
0.0
 70
   128
 71
   27
 72
   28
 73
   36
  0
VERTEX
  8
sausage_3
 10
0.0
 20
0.0
 30
0.0
 70
   128
 71
   28
 72
   29
 73
   37
  0
VERTEX
  8
sausage_3
 10
0.0
 20
0.0
 30
0.0
 70
   128
 71
   29
 72
   30
 73
   38
  0
VERTEX
  8
sausage_3
 10
0.0
 20
0.0
 30
0.0
 70
   128
 71
   30
 72
   31
 73
   39
  0
VERTEX
  8
sausage_3
 10
0.0
 20
0.0
 30
0.0
 70
   128
 71
   31
 72
   32
 73
   40
  0
VERTEX
  8
sausage_3
 10
0.0
 20
0.0
 30
0.0
 70
   128
 71
   32
 72
   33
 73
   41
  0
VERTEX
  8
sausage_3
 10
0.0
 20
0.0
 30
0.0
 70
   128
 71
   33
 72
   34
 73
   42
  0
VERTEX
  8
sausage_3
 10
0.0
 20
0.0
 30
0.0
 70
   128
 71
   34
 72
   2
 73
   42
  0
VERTEX
  8
sausage_3
 10
0.0
 20
0.0
 30
0.0
 70
   128
 71
   1
 72
   35
 73
   43
  0
VERTEX
  8
sausage_3
 10
0.0
 20
0.0
 30
0.0
 70
   128
 71
   35
 72
   36
 73
   44
  0
VERTEX
  8
sausage_3
 10
0.0
 20
0.0
 30
0.0
 70
   128
 71
   36
 72
   37
 73
   45
  0
VERTEX
  8
sausage_3
 10
0.0
 20
0.0
 30
0.0
 70
   128
 71
   37
 72
   38
 73
   46
  0
VERTEX
  8
sausage_3
 10
0.0
 20
0.0
 30
0.0
 70
   128
 71
   38
 72
   39
 73
   47
  0
VERTEX
  8
sausage_3
 10
0.0
 20
0.0
 30
0.0
 70
   128
 71
   39
 72
   40
 73
   48
  0
VERTEX
  8
sausage_3
 10
0.0
 20
0.0
 30
0.0
 70
   128
 71
   40
 72
   41
 73
   49
  0
VERTEX
  8
sausage_3
 10
0.0
 20
0.0
 30
0.0
 70
   128
 71
   41
 72
   42
 73
   50
  0
VERTEX
  8
sausage_3
 10
0.0
 20
0.0
 30
0.0
 70
   128
 71
   42
 72
   2
 73
   50
  0
VERTEX
  8
sausage_3
 10
0.0
 20
0.0
 30
0.0
 70
   128
 71
   1
 72
   43
 73
   51
  0
VERTEX
  8
sausage_3
 10
0.0
 20
0.0
 30
0.0
 70
   128
 71
   43
 72
   44
 73
   52
  0
VERTEX
  8
sausage_3
 10
0.0
 20
0.0
 30
0.0
 70
   128
 71
   44
 72
   45
 73
   53
  0
VERTEX
  8
sausage_3
 10
0.0
 20
0.0
 30
0.0
 70
   128
 71
   45
 72
   46
 73
   54
  0
VERTEX
  8
sausage_3
 10
0.0
 20
0.0
 30
0.0
 70
   128
 71
   46
 72
   47
 73
   55
  0
VERTEX
  8
sausage_3
 10
0.0
 20
0.0
 30
0.0
 70
   128
 71
   47
 72
   48
 73
   56
  0
VERTEX
  8
sausage_3
 10
0.0
 20
0.0
 30
0.0
 70
   128
 71
   48
 72
   49
 73
   57
  0
VERTEX
  8
sausage_3
 10
0.0
 20
0.0
 30
0.0
 70
   128
 71
   49
 72
   50
 73
   58
  0
VERTEX
  8
sausage_3
 10
0.0
 20
0.0
 30
0.0
 70
   128
 71
   50
 72
   2
 73
   58
  0
VERTEX
  8
sausage_3
 10
0.0
 20
0.0
 30
0.0
 70
   128
 71
   1
 72
   51
 73
   59
  0
VERTEX
  8
sausage_3
 10
0.0
 20
0.0
 30
0.0
 70
   128
 71
   51
 72
   52
 73
   60
  0
VERTEX
  8
sausage_3
 10
0.0
 20
0.0
 30
0.0
 70
   128
 71
   52
 72
   53
 73
   61
  0
VERTEX
  8
sausage_3
 10
0.0
 20
0.0
 30
0.0
 70
   128
 71
   53
 72
   54
 73
   62
  0
VERTEX
  8
sausage_3
 10
0.0
 20
0.0
 30
0.0
 70
   128
 71
   54
 72
   55
 73
   63
  0
VERTEX
  8
sausage_3
 10
0.0
 20
0.0
 30
0.0
 70
   128
 71
   55
 72
   56
 73
   64
  0
VERTEX
  8
sausage_3
 10
0.0
 20
0.0
 30
0.0
 70
   128
 71
   56
 72
   57
 73
   65
  0
VERTEX
  8
sausage_3
 10
0.0
 20
0.0
 30
0.0
 70
   128
 71
   57
 72
   58
 73
   66
  0
VERTEX
  8
sausage_3
 10
0.0
 20
0.0
 30
0.0
 70
   128
 71
   58
 72
   2
 73
   66
  0
VERTEX
  8
sausage_3
 10
0.0
 20
0.0
 30
0.0
 70
   128
 71
   1
 72
   59
 73
   3
  0
VERTEX
  8
sausage_3
 10
0.0
 20
0.0
 30
0.0
 70
   128
 71
   59
 72
   60
 73
   4
  0
VERTEX
  8
sausage_3
 10
0.0
 20
0.0
 30
0.0
 70
   128
 71
   60
 72
   61
 73
   5
  0
VERTEX
  8
sausage_3
 10
0.0
 20
0.0
 30
0.0
 70
   128
 71
   61
 72
   62
 73
   6
  0
VERTEX
  8
sausage_3
 10
0.0
 20
0.0
 30
0.0
 70
   128
 71
   62
 72
   63
 73
   7
  0
VERTEX
  8
sausage_3
 10
0.0
 20
0.0
 30
0.0
 70
   128
 71
   63
 72
   64
 73
   8
  0
VERTEX
  8
sausage_3
 10
0.0
 20
0.0
 30
0.0
 70
   128
 71
   64
 72
   65
 73
   9
  0
VERTEX
  8
sausage_3
 10
0.0
 20
0.0
 30
0.0
 70
   128
 71
   65
 72
   66
 73
   10
  0
VERTEX
  8
sausage_3
 10
0.0
 20
0.0
 30
0.0
 70
   128
 71
   66
 72
   2
 73
   10
  0
VERTEX
  8
sausage_3
 10
0.0
 20
0.0
 30
0.0
 70
   128
 71
   3
 72
   12
 73
   11
  0
VERTEX
  8
sausage_3
 10
0.0
 20
0.0
 30
0.0
 70
   128
 71
   4
 72
   13
 73
   12
  0
VERTEX
  8
sausage_3
 10
0.0
 20
0.0
 30
0.0
 70
   128
 71
   5
 72
   14
 73
   13
  0
VERTEX
  8
sausage_3
 10
0.0
 20
0.0
 30
0.0
 70
   128
 71
   6
 72
   15
 73
   14
  0
VERTEX
  8
sausage_3
 10
0.0
 20
0.0
 30
0.0
 70
   128
 71
   7
 72
   16
 73
   15
  0
VERTEX
  8
sausage_3
 10
0.0
 20
0.0
 30
0.0
 70
   128
 71
   8
 72
   17
 73
   16
  0
VERTEX
  8
sausage_3
 10
0.0
 20
0.0
 30
0.0
 70
   128
 71
   9
 72
   18
 73
   17
  0
VERTEX
  8
sausage_3
 10
0.0
 20
0.0
 30
0.0
 70
   128
 71
   11
 72
   20
 73
   19
  0
VERTEX
  8
sausage_3
 10
0.0
 20
0.0
 30
0.0
 70
   128
 71
   12
 72
   21
 73
   20
  0
VERTEX
  8
sausage_3
 10
0.0
 20
0.0
 30
0.0
 70
   128
 71
   13
 72
   22
 73
   21
  0
VERTEX
  8
sausage_3
 10
0.0
 20
0.0
 30
0.0
 70
   128
 71
   14
 72
   23
 73
   22
  0
VERTEX
  8
sausage_3
 10
0.0
 20
0.0
 30
0.0
 70
   128
 71
   15
 72
   24
 73
   23
  0
VERTEX
  8
sausage_3
 10
0.0
 20
0.0
 30
0.0
 70
   128
 71
   16
 72
   25
 73
   24
  0
VERTEX
  8
sausage_3
 10
0.0
 20
0.0
 30
0.0
 70
   128
 71
   17
 72
   26
 73
   25
  0
VERTEX
  8
sausage_3
 10
0.0
 20
0.0
 30
0.0
 70
   128
 71
   19
 72
   28
 73
   27
  0
VERTEX
  8
sausage_3
 10
0.0
 20
0.0
 30
0.0
 70
   128
 71
   20
 72
   29
 73
   28
  0
VERTEX
  8
sausage_3
 10
0.0
 20
0.0
 30
0.0
 70
   128
 71
   21
 72
   30
 73
   29
  0
VERTEX
  8
sausage_3
 10
0.0
 20
0.0
 30
0.0
 70
   128
 71
   22
 72
   31
 73
   30
  0
VERTEX
  8
sausage_3
 10
0.0
 20
0.0
 30
0.0
 70
   128
 71
   23
 72
   32
 73
   31
  0
VERTEX
  8
sausage_3
 10
0.0
 20
0.0
 30
0.0
 70
   128
 71
   24
 72
   33
 73
   32
  0
VERTEX
  8
sausage_3
 10
0.0
 20
0.0
 30
0.0
 70
   128
 71
   25
 72
   34
 73
   33
  0
VERTEX
  8
sausage_3
 10
0.0
 20
0.0
 30
0.0
 70
   128
 71
   27
 72
   36
 73
   35
  0
VERTEX
  8
sausage_3
 10
0.0
 20
0.0
 30
0.0
 70
   128
 71
   28
 72
   37
 73
   36
  0
VERTEX
  8
sausage_3
 10
0.0
 20
0.0
 30
0.0
 70
   128
 71
   29
 72
   38
 73
   37
  0
VERTEX
  8
sausage_3
 10
0.0
 20
0.0
 30
0.0
 70
   128
 71
   30
 72
   39
 73
   38
  0
VERTEX
  8
sausage_3
 10
0.0
 20
0.0
 30
0.0
 70
   128
 71
   31
 72
   40
 73
   39
  0
VERTEX
  8
sausage_3
 10
0.0
 20
0.0
 30
0.0
 70
   128
 71
   32
 72
   41
 73
   40
  0
VERTEX
  8
sausage_3
 10
0.0
 20
0.0
 30
0.0
 70
   128
 71
   33
 72
   42
 73
   41
  0
VERTEX
  8
sausage_3
 10
0.0
 20
0.0
 30
0.0
 70
   128
 71
   35
 72
   44
 73
   43
  0
VERTEX
  8
sausage_3
 10
0.0
 20
0.0
 30
0.0
 70
   128
 71
   36
 72
   45
 73
   44
  0
VERTEX
  8
sausage_3
 10
0.0
 20
0.0
 30
0.0
 70
   128
 71
   37
 72
   46
 73
   45
  0
VERTEX
  8
sausage_3
 10
0.0
 20
0.0
 30
0.0
 70
   128
 71
   38
 72
   47
 73
   46
  0
VERTEX
  8
sausage_3
 10
0.0
 20
0.0
 30
0.0
 70
   128
 71
   39
 72
   48
 73
   47
  0
VERTEX
  8
sausage_3
 10
0.0
 20
0.0
 30
0.0
 70
   128
 71
   40
 72
   49
 73
   48
  0
VERTEX
  8
sausage_3
 10
0.0
 20
0.0
 30
0.0
 70
   128
 71
   41
 72
   50
 73
   49
  0
VERTEX
  8
sausage_3
 10
0.0
 20
0.0
 30
0.0
 70
   128
 71
   43
 72
   52
 73
   51
  0
VERTEX
  8
sausage_3
 10
0.0
 20
0.0
 30
0.0
 70
   128
 71
   44
 72
   53
 73
   52
  0
VERTEX
  8
sausage_3
 10
0.0
 20
0.0
 30
0.0
 70
   128
 71
   45
 72
   54
 73
   53
  0
VERTEX
  8
sausage_3
 10
0.0
 20
0.0
 30
0.0
 70
   128
 71
   46
 72
   55
 73
   54
  0
VERTEX
  8
sausage_3
 10
0.0
 20
0.0
 30
0.0
 70
   128
 71
   47
 72
   56
 73
   55
  0
VERTEX
  8
sausage_3
 10
0.0
 20
0.0
 30
0.0
 70
   128
 71
   48
 72
   57
 73
   56
  0
VERTEX
  8
sausage_3
 10
0.0
 20
0.0
 30
0.0
 70
   128
 71
   49
 72
   58
 73
   57
  0
VERTEX
  8
sausage_3
 10
0.0
 20
0.0
 30
0.0
 70
   128
 71
   51
 72
   60
 73
   59
  0
VERTEX
  8
sausage_3
 10
0.0
 20
0.0
 30
0.0
 70
   128
 71
   52
 72
   61
 73
   60
  0
VERTEX
  8
sausage_3
 10
0.0
 20
0.0
 30
0.0
 70
   128
 71
   53
 72
   62
 73
   61
  0
VERTEX
  8
sausage_3
 10
0.0
 20
0.0
 30
0.0
 70
   128
 71
   54
 72
   63
 73
   62
  0
VERTEX
  8
sausage_3
 10
0.0
 20
0.0
 30
0.0
 70
   128
 71
   55
 72
   64
 73
   63
  0
VERTEX
  8
sausage_3
 10
0.0
 20
0.0
 30
0.0
 70
   128
 71
   56
 72
   65
 73
   64
  0
VERTEX
  8
sausage_3
 10
0.0
 20
0.0
 30
0.0
 70
   128
 71
   57
 72
   66
 73
   65
  0
VERTEX
  8
sausage_3
 10
0.0
 20
0.0
 30
0.0
 70
   128
 71
   59
 72
   4
 73
   3
  0
VERTEX
  8
sausage_3
 10
0.0
 20
0.0
 30
0.0
 70
   128
 71
   60
 72
   5
 73
   4
  0
VERTEX
  8
sausage_3
 10
0.0
 20
0.0
 30
0.0
 70
   128
 71
   61
 72
   6
 73
   5
  0
VERTEX
  8
sausage_3
 10
0.0
 20
0.0
 30
0.0
 70
   128
 71
   62
 72
   7
 73
   6
  0
VERTEX
  8
sausage_3
 10
0.0
 20
0.0
 30
0.0
 70
   128
 71
   63
 72
   8
 73
   7
  0
VERTEX
  8
sausage_3
 10
0.0
 20
0.0
 30
0.0
 70
   128
 71
   64
 72
   9
 73
   8
  0
VERTEX
  8
sausage_3
 10
0.0
 20
0.0
 30
0.0
 70
   128
 71
   65
 72
   10
 73
   9
  0
SEQEND
  0
POLYLINE
  8
sausage_4
 66
   1
 10
0.0
 20
0.0
 30
0.0
 70
   64
 71
   66
 72
   128
  0
VERTEX
  8
sausage_4
 10
-63.745196
 20
26.390346
 30
88.744168
 70
   192
  0
VERTEX
  8
sausage_4
 10
-61.112506
 20
26.390346
 30
-85.800110
 70
   192
  0
VERTEX
  8
sausage_4
 10
-64.461462
 20
14.740583
 30
85.733625
 70
   192
  0
VERTEX
  8
sausage_4
 10
-66.418336
 20
6.212366
 30
77.508668
 70
   192
  0
VERTEX
  8
sausage_4
 10
-69.091476
 20
3.090821
 30
66.273168
 70
   192
  0
VERTEX
  8
sausage_4
 10
-77.360657
 20
3.090821
 30
24.373899
 70
   192
  0
VERTEX
  8
sausage_4
 10
-76.350604
 20
3.090821
 30
-20.936885
 70
   192
  0
VERTEX
  8
sausage_4
 10
-66.395020
 20
3.090821
 30
-63.314307
 70
   192
  0
VERTEX
  8
sausage_4
 10
-63.753763
 20
6.212366
 30
-74.557208
 70
   192
  0
VERTEX
  8
sausage_4
 10
-61.820229
 20
14.740583
 30
-82.787583
 70
   192
  0
VERTEX
  8
sausage_4
 10
-72.479295
 20
18.152720
 30
87.606579
 70
   192
  0
VERTEX
  8
sausage_4
 10
-80.305630
 20
12.122359
 30
80.752720
 70
   192
  0
VERTEX
  8
sausage_4
 10
-85.127142
 20
9.915094
 30
70.019077
 70
   192
  0
VERTEX
  8
sausage_4
 10
-93.639919
 20
9.915094
 30
26.884469
 70
   192
  0
VERTEX
  8
sausage_4
 10
-92.396833
 20
9.915094
 30
-24.638115
 70
   192
  0
VERTEX
  8
sausage_4
 10
-82.441248
 20
9.915094
 30
-67.015537
 70
   192
  0
VERTEX
  8
sausage_4
 10
-77.650205
 20
12.122359
 30
-77.762567
 70
   192
  0
VERTEX
  8
sausage_4
 10
-69.843343
 20
18.152720
 30
-84.638198
 70
   192
  0
VERTEX
  8
sausage_4
 10
-75.800390
 20
26.390346
 30
88.382382
 70
   192
  0
VERTEX
  8
sausage_4
 10
-86.057935
 20
26.390346
 30
82.096450
 70
   192
  0
VERTEX
  8
sausage_4
 10
-91.769332
 20
26.390346
 30
71.570682
 70
   192
  0
VERTEX
  8
sausage_4
 10
-100.383011
 20
26.390346
 30
27.924382
 70
   192
  0
VERTEX
  8
sausage_4
 10
-99.043398
 20
26.390346
 30
-26.171214
 70
   192
  0
VERTEX
  8
sausage_4
 10
-89.087814
 20
26.390346
 30
-68.548636
 70
   192
  0
VERTEX
  8
sausage_4
 10
-83.406299
 20
26.390346
 30
-79.090270
 70
   192
  0
VERTEX
  8
sausage_4
 10
-73.166626
 20
26.390346
 30
-85.404748
 70
   192
  0
VERTEX
  8
sausage_4
 10
-72.479295
 20
34.627972
 30
87.606579
 70
   192
  0
VERTEX
  8
sausage_4
 10
-80.305630
 20
40.658332
 30
80.752720
 70
   192
  0
VERTEX
  8
sausage_4
 10
-85.127142
 20
42.865597
 30
70.019077
 70
   192
  0
VERTEX
  8
sausage_4
 10
-93.639919
 20
42.865597
 30
26.884469
 70
   192
  0
VERTEX
  8
sausage_4
 10
-92.396833
 20
42.865597
 30
-24.638115
 70
   192
  0
VERTEX
  8
sausage_4
 10
-82.441248
 20
42.865597
 30
-67.015537
 70
   192
  0
VERTEX
  8
sausage_4
 10
-77.650205
 20
40.658332
 30
-77.762567
 70
   192
  0
VERTEX
  8
sausage_4
 10
-69.843343
 20
34.627972
 30
-84.638198
 70
   192
  0
VERTEX
  8
sausage_4
 10
-64.461462
 20
38.040108
 30
85.733625
 70
   192
  0
VERTEX
  8
sausage_4
 10
-66.418336
 20
46.568326
 30
77.508668
 70
   192
  0
VERTEX
  8
sausage_4
 10
-69.091476
 20
49.689870
 30
66.273168
 70
   192
  0
VERTEX
  8
sausage_4
 10
-77.360657
 20
49.689870
 30
24.373899
 70
   192
  0
VERTEX
  8
sausage_4
 10
-76.350604
 20
49.689870
 30
-20.936885
 70
   192
  0
VERTEX
  8
sausage_4
 10
-66.395020
 20
49.689870
 30
-63.314307
 70
   192
  0
VERTEX
  8
sausage_4
 10
-63.753763
 20
46.568326
 30
-74.557208
 70
   192
  0
VERTEX
  8
sausage_4
 10
-61.820229
 20
38.040108
 30
-82.787583
 70
   192
  0
VERTEX
  8
sausage_4
 10
-56.443629
 20
34.627972
 30
83.860671
 70
   192
  0
VERTEX
  8
sausage_4
 10
-52.531043
 20
40.658332
 30
74.264617
 70
   192
  0
VERTEX
  8
sausage_4
 10
-53.055811
 20
42.865597
 30
62.527260
 70
   192
  0
VERTEX
  8
sausage_4
 10
-61.081395
 20
42.865597
 30
21.863329
 70
   192
  0
VERTEX
  8
sausage_4
 10
-60.304376
 20
42.865597
 30
-17.235656
 70
   192
  0
VERTEX
  8
sausage_4
 10
-50.348791
 20
42.865597
 30
-59.613078
 70
   192
  0
VERTEX
  8
sausage_4
 10
-49.857322
 20
40.658332
 30
-71.351850
 70
   192
  0
VERTEX
  8
sausage_4
 10
-53.797115
 20
34.627972
 30
-80.936968
 70
   192
  0
VERTEX
  8
sausage_4
 10
-53.122534
 20
26.390346
 30
83.084868
 70
   192
  0
VERTEX
  8
sausage_4
 10
-46.778737
 20
26.390346
 30
72.920886
 70
   192
  0
VERTEX
  8
sausage_4
 10
-46.413621
 20
26.390346
 30
60.975654
 70
   192
  0
VERTEX
  8
sausage_4
 10
-54.338304
 20
26.390346
 30
20.823417
 70
   192
  0
VERTEX
  8
sausage_4
 10
-53.657810
 20
26.390346
 30
-15.702556
 70
   192
  0
VERTEX
  8
sausage_4
 10
-43.702226
 20
26.390346
 30
-58.079978
 70
   192
  0
VERTEX
  8
sausage_4
 10
-44.101227
 20
26.390346
 30
-70.024147
 70
   192
  0
VERTEX
  8
sausage_4
 10
-50.473832
 20
26.390346
 30
-80.170419
 70
   192
  0
VERTEX
  8
sausage_4
 10
-56.443629
 20
18.152720
 30
83.860671
 70
   192
  0
VERTEX
  8
sausage_4
 10
-52.531043
 20
12.122359
 30
74.264617
 70
   192
  0
VERTEX
  8
sausage_4
 10
-53.055811
 20
9.915094
 30
62.527260
 70
   192
  0
VERTEX
  8
sausage_4
 10
-61.081395
 20
9.915094
 30
21.863329
 70
   192
  0
VERTEX
  8
sausage_4
 10
-60.304376
 20
9.915094
 30
-17.235656
 70
   192
  0
VERTEX
  8
sausage_4
 10
-50.348791
 20
9.915094
 30
-59.613078
 70
   192
  0
VERTEX
  8
sausage_4
 10
-49.857322
 20
12.122359
 30
-71.351850
 70
   192
  0
VERTEX
  8
sausage_4
 10
-53.797115
 20
18.152720
 30
-80.936968
 70
   192
  0
VERTEX
  8
sausage_4
 10
0.0
 20
0.0
 30
0.0
 70
   128
 71
   1
 72
   3
 73
   11
  0
VERTEX
  8
sausage_4
 10
0.0
 20
0.0
 30
0.0
 70
   128
 71
   3
 72
   4
 73
   12
  0
VERTEX
  8
sausage_4
 10
0.0
 20
0.0
 30
0.0
 70
   128
 71
   4
 72
   5
 73
   13
  0
VERTEX
  8
sausage_4
 10
0.0
 20
0.0
 30
0.0
 70
   128
 71
   5
 72
   6
 73
   14
  0
VERTEX
  8
sausage_4
 10
0.0
 20
0.0
 30
0.0
 70
   128
 71
   6
 72
   7
 73
   15
  0
VERTEX
  8
sausage_4
 10
0.0
 20
0.0
 30
0.0
 70
   128
 71
   7
 72
   8
 73
   16
  0
VERTEX
  8
sausage_4
 10
0.0
 20
0.0
 30
0.0
 70
   128
 71
   8
 72
   9
 73
   17
  0
VERTEX
  8
sausage_4
 10
0.0
 20
0.0
 30
0.0
 70
   128
 71
   9
 72
   10
 73
   18
  0
VERTEX
  8
sausage_4
 10
0.0
 20
0.0
 30
0.0
 70
   128
 71
   10
 72
   2
 73
   18
  0
VERTEX
  8
sausage_4
 10
0.0
 20
0.0
 30
0.0
 70
   128
 71
   1
 72
   11
 73
   19
  0
VERTEX
  8
sausage_4
 10
0.0
 20
0.0
 30
0.0
 70
   128
 71
   11
 72
   12
 73
   20
  0
VERTEX
  8
sausage_4
 10
0.0
 20
0.0
 30
0.0
 70
   128
 71
   12
 72
   13
 73
   21
  0
VERTEX
  8
sausage_4
 10
0.0
 20
0.0
 30
0.0
 70
   128
 71
   13
 72
   14
 73
   22
  0
VERTEX
  8
sausage_4
 10
0.0
 20
0.0
 30
0.0
 70
   128
 71
   14
 72
   15
 73
   23
  0
VERTEX
  8
sausage_4
 10
0.0
 20
0.0
 30
0.0
 70
   128
 71
   15
 72
   16
 73
   24
  0
VERTEX
  8
sausage_4
 10
0.0
 20
0.0
 30
0.0
 70
   128
 71
   16
 72
   17
 73
   25
  0
VERTEX
  8
sausage_4
 10
0.0
 20
0.0
 30
0.0
 70
   128
 71
   17
 72
   18
 73
   26
  0
VERTEX
  8
sausage_4
 10
0.0
 20
0.0
 30
0.0
 70
   128
 71
   18
 72
   2
 73
   26
  0
VERTEX
  8
sausage_4
 10
0.0
 20
0.0
 30
0.0
 70
   128
 71
   1
 72
   19
 73
   27
  0
VERTEX
  8
sausage_4
 10
0.0
 20
0.0
 30
0.0
 70
   128
 71
   19
 72
   20
 73
   28
  0
VERTEX
  8
sausage_4
 10
0.0
 20
0.0
 30
0.0
 70
   128
 71
   20
 72
   21
 73
   29
  0
VERTEX
  8
sausage_4
 10
0.0
 20
0.0
 30
0.0
 70
   128
 71
   21
 72
   22
 73
   30
  0
VERTEX
  8
sausage_4
 10
0.0
 20
0.0
 30
0.0
 70
   128
 71
   22
 72
   23
 73
   31
  0
VERTEX
  8
sausage_4
 10
0.0
 20
0.0
 30
0.0
 70
   128
 71
   23
 72
   24
 73
   32
  0
VERTEX
  8
sausage_4
 10
0.0
 20
0.0
 30
0.0
 70
   128
 71
   24
 72
   25
 73
   33
  0
VERTEX
  8
sausage_4
 10
0.0
 20
0.0
 30
0.0
 70
   128
 71
   25
 72
   26
 73
   34
  0
VERTEX
  8
sausage_4
 10
0.0
 20
0.0
 30
0.0
 70
   128
 71
   26
 72
   2
 73
   34
  0
VERTEX
  8
sausage_4
 10
0.0
 20
0.0
 30
0.0
 70
   128
 71
   1
 72
   27
 73
   35
  0
VERTEX
  8
sausage_4
 10
0.0
 20
0.0
 30
0.0
 70
   128
 71
   27
 72
   28
 73
   36
  0
VERTEX
  8
sausage_4
 10
0.0
 20
0.0
 30
0.0
 70
   128
 71
   28
 72
   29
 73
   37
  0
VERTEX
  8
sausage_4
 10
0.0
 20
0.0
 30
0.0
 70
   128
 71
   29
 72
   30
 73
   38
  0
VERTEX
  8
sausage_4
 10
0.0
 20
0.0
 30
0.0
 70
   128
 71
   30
 72
   31
 73
   39
  0
VERTEX
  8
sausage_4
 10
0.0
 20
0.0
 30
0.0
 70
   128
 71
   31
 72
   32
 73
   40
  0
VERTEX
  8
sausage_4
 10
0.0
 20
0.0
 30
0.0
 70
   128
 71
   32
 72
   33
 73
   41
  0
VERTEX
  8
sausage_4
 10
0.0
 20
0.0
 30
0.0
 70
   128
 71
   33
 72
   34
 73
   42
  0
VERTEX
  8
sausage_4
 10
0.0
 20
0.0
 30
0.0
 70
   128
 71
   34
 72
   2
 73
   42
  0
VERTEX
  8
sausage_4
 10
0.0
 20
0.0
 30
0.0
 70
   128
 71
   1
 72
   35
 73
   43
  0
VERTEX
  8
sausage_4
 10
0.0
 20
0.0
 30
0.0
 70
   128
 71
   35
 72
   36
 73
   44
  0
VERTEX
  8
sausage_4
 10
0.0
 20
0.0
 30
0.0
 70
   128
 71
   36
 72
   37
 73
   45
  0
VERTEX
  8
sausage_4
 10
0.0
 20
0.0
 30
0.0
 70
   128
 71
   37
 72
   38
 73
   46
  0
VERTEX
  8
sausage_4
 10
0.0
 20
0.0
 30
0.0
 70
   128
 71
   38
 72
   39
 73
   47
  0
VERTEX
  8
sausage_4
 10
0.0
 20
0.0
 30
0.0
 70
   128
 71
   39
 72
   40
 73
   48
  0
VERTEX
  8
sausage_4
 10
0.0
 20
0.0
 30
0.0
 70
   128
 71
   40
 72
   41
 73
   49
  0
VERTEX
  8
sausage_4
 10
0.0
 20
0.0
 30
0.0
 70
   128
 71
   41
 72
   42
 73
   50
  0
VERTEX
  8
sausage_4
 10
0.0
 20
0.0
 30
0.0
 70
   128
 71
   42
 72
   2
 73
   50
  0
VERTEX
  8
sausage_4
 10
0.0
 20
0.0
 30
0.0
 70
   128
 71
   1
 72
   43
 73
   51
  0
VERTEX
  8
sausage_4
 10
0.0
 20
0.0
 30
0.0
 70
   128
 71
   43
 72
   44
 73
   52
  0
VERTEX
  8
sausage_4
 10
0.0
 20
0.0
 30
0.0
 70
   128
 71
   44
 72
   45
 73
   53
  0
VERTEX
  8
sausage_4
 10
0.0
 20
0.0
 30
0.0
 70
   128
 71
   45
 72
   46
 73
   54
  0
VERTEX
  8
sausage_4
 10
0.0
 20
0.0
 30
0.0
 70
   128
 71
   46
 72
   47
 73
   55
  0
VERTEX
  8
sausage_4
 10
0.0
 20
0.0
 30
0.0
 70
   128
 71
   47
 72
   48
 73
   56
  0
VERTEX
  8
sausage_4
 10
0.0
 20
0.0
 30
0.0
 70
   128
 71
   48
 72
   49
 73
   57
  0
VERTEX
  8
sausage_4
 10
0.0
 20
0.0
 30
0.0
 70
   128
 71
   49
 72
   50
 73
   58
  0
VERTEX
  8
sausage_4
 10
0.0
 20
0.0
 30
0.0
 70
   128
 71
   50
 72
   2
 73
   58
  0
VERTEX
  8
sausage_4
 10
0.0
 20
0.0
 30
0.0
 70
   128
 71
   1
 72
   51
 73
   59
  0
VERTEX
  8
sausage_4
 10
0.0
 20
0.0
 30
0.0
 70
   128
 71
   51
 72
   52
 73
   60
  0
VERTEX
  8
sausage_4
 10
0.0
 20
0.0
 30
0.0
 70
   128
 71
   52
 72
   53
 73
   61
  0
VERTEX
  8
sausage_4
 10
0.0
 20
0.0
 30
0.0
 70
   128
 71
   53
 72
   54
 73
   62
  0
VERTEX
  8
sausage_4
 10
0.0
 20
0.0
 30
0.0
 70
   128
 71
   54
 72
   55
 73
   63
  0
VERTEX
  8
sausage_4
 10
0.0
 20
0.0
 30
0.0
 70
   128
 71
   55
 72
   56
 73
   64
  0
VERTEX
  8
sausage_4
 10
0.0
 20
0.0
 30
0.0
 70
   128
 71
   56
 72
   57
 73
   65
  0
VERTEX
  8
sausage_4
 10
0.0
 20
0.0
 30
0.0
 70
   128
 71
   57
 72
   58
 73
   66
  0
VERTEX
  8
sausage_4
 10
0.0
 20
0.0
 30
0.0
 70
   128
 71
   58
 72
   2
 73
   66
  0
VERTEX
  8
sausage_4
 10
0.0
 20
0.0
 30
0.0
 70
   128
 71
   1
 72
   59
 73
   3
  0
VERTEX
  8
sausage_4
 10
0.0
 20
0.0
 30
0.0
 70
   128
 71
   59
 72
   60
 73
   4
  0
VERTEX
  8
sausage_4
 10
0.0
 20
0.0
 30
0.0
 70
   128
 71
   60
 72
   61
 73
   5
  0
VERTEX
  8
sausage_4
 10
0.0
 20
0.0
 30
0.0
 70
   128
 71
   61
 72
   62
 73
   6
  0
VERTEX
  8
sausage_4
 10
0.0
 20
0.0
 30
0.0
 70
   128
 71
   62
 72
   63
 73
   7
  0
VERTEX
  8
sausage_4
 10
0.0
 20
0.0
 30
0.0
 70
   128
 71
   63
 72
   64
 73
   8
  0
VERTEX
  8
sausage_4
 10
0.0
 20
0.0
 30
0.0
 70
   128
 71
   64
 72
   65
 73
   9
  0
VERTEX
  8
sausage_4
 10
0.0
 20
0.0
 30
0.0
 70
   128
 71
   65
 72
   66
 73
   10
  0
VERTEX
  8
sausage_4
 10
0.0
 20
0.0
 30
0.0
 70
   128
 71
   66
 72
   2
 73
   10
  0
VERTEX
  8
sausage_4
 10
0.0
 20
0.0
 30
0.0
 70
   128
 71
   3
 72
   12
 73
   11
  0
VERTEX
  8
sausage_4
 10
0.0
 20
0.0
 30
0.0
 70
   128
 71
   4
 72
   13
 73
   12
  0
VERTEX
  8
sausage_4
 10
0.0
 20
0.0
 30
0.0
 70
   128
 71
   5
 72
   14
 73
   13
  0
VERTEX
  8
sausage_4
 10
0.0
 20
0.0
 30
0.0
 70
   128
 71
   6
 72
   15
 73
   14
  0
VERTEX
  8
sausage_4
 10
0.0
 20
0.0
 30
0.0
 70
   128
 71
   7
 72
   16
 73
   15
  0
VERTEX
  8
sausage_4
 10
0.0
 20
0.0
 30
0.0
 70
   128
 71
   8
 72
   17
 73
   16
  0
VERTEX
  8
sausage_4
 10
0.0
 20
0.0
 30
0.0
 70
   128
 71
   9
 72
   18
 73
   17
  0
VERTEX
  8
sausage_4
 10
0.0
 20
0.0
 30
0.0
 70
   128
 71
   11
 72
   20
 73
   19
  0
VERTEX
  8
sausage_4
 10
0.0
 20
0.0
 30
0.0
 70
   128
 71
   12
 72
   21
 73
   20
  0
VERTEX
  8
sausage_4
 10
0.0
 20
0.0
 30
0.0
 70
   128
 71
   13
 72
   22
 73
   21
  0
VERTEX
  8
sausage_4
 10
0.0
 20
0.0
 30
0.0
 70
   128
 71
   14
 72
   23
 73
   22
  0
VERTEX
  8
sausage_4
 10
0.0
 20
0.0
 30
0.0
 70
   128
 71
   15
 72
   24
 73
   23
  0
VERTEX
  8
sausage_4
 10
0.0
 20
0.0
 30
0.0
 70
   128
 71
   16
 72
   25
 73
   24
  0
VERTEX
  8
sausage_4
 10
0.0
 20
0.0
 30
0.0
 70
   128
 71
   17
 72
   26
 73
   25
  0
VERTEX
  8
sausage_4
 10
0.0
 20
0.0
 30
0.0
 70
   128
 71
   19
 72
   28
 73
   27
  0
VERTEX
  8
sausage_4
 10
0.0
 20
0.0
 30
0.0
 70
   128
 71
   20
 72
   29
 73
   28
  0
VERTEX
  8
sausage_4
 10
0.0
 20
0.0
 30
0.0
 70
   128
 71
   21
 72
   30
 73
   29
  0
VERTEX
  8
sausage_4
 10
0.0
 20
0.0
 30
0.0
 70
   128
 71
   22
 72
   31
 73
   30
  0
VERTEX
  8
sausage_4
 10
0.0
 20
0.0
 30
0.0
 70
   128
 71
   23
 72
   32
 73
   31
  0
VERTEX
  8
sausage_4
 10
0.0
 20
0.0
 30
0.0
 70
   128
 71
   24
 72
   33
 73
   32
  0
VERTEX
  8
sausage_4
 10
0.0
 20
0.0
 30
0.0
 70
   128
 71
   25
 72
   34
 73
   33
  0
VERTEX
  8
sausage_4
 10
0.0
 20
0.0
 30
0.0
 70
   128
 71
   27
 72
   36
 73
   35
  0
VERTEX
  8
sausage_4
 10
0.0
 20
0.0
 30
0.0
 70
   128
 71
   28
 72
   37
 73
   36
  0
VERTEX
  8
sausage_4
 10
0.0
 20
0.0
 30
0.0
 70
   128
 71
   29
 72
   38
 73
   37
  0
VERTEX
  8
sausage_4
 10
0.0
 20
0.0
 30
0.0
 70
   128
 71
   30
 72
   39
 73
   38
  0
VERTEX
  8
sausage_4
 10
0.0
 20
0.0
 30
0.0
 70
   128
 71
   31
 72
   40
 73
   39
  0
VERTEX
  8
sausage_4
 10
0.0
 20
0.0
 30
0.0
 70
   128
 71
   32
 72
   41
 73
   40
  0
VERTEX
  8
sausage_4
 10
0.0
 20
0.0
 30
0.0
 70
   128
 71
   33
 72
   42
 73
   41
  0
VERTEX
  8
sausage_4
 10
0.0
 20
0.0
 30
0.0
 70
   128
 71
   35
 72
   44
 73
   43
  0
VERTEX
  8
sausage_4
 10
0.0
 20
0.0
 30
0.0
 70
   128
 71
   36
 72
   45
 73
   44
  0
VERTEX
  8
sausage_4
 10
0.0
 20
0.0
 30
0.0
 70
   128
 71
   37
 72
   46
 73
   45
  0
VERTEX
  8
sausage_4
 10
0.0
 20
0.0
 30
0.0
 70
   128
 71
   38
 72
   47
 73
   46
  0
VERTEX
  8
sausage_4
 10
0.0
 20
0.0
 30
0.0
 70
   128
 71
   39
 72
   48
 73
   47
  0
VERTEX
  8
sausage_4
 10
0.0
 20
0.0
 30
0.0
 70
   128
 71
   40
 72
   49
 73
   48
  0
VERTEX
  8
sausage_4
 10
0.0
 20
0.0
 30
0.0
 70
   128
 71
   41
 72
   50
 73
   49
  0
VERTEX
  8
sausage_4
 10
0.0
 20
0.0
 30
0.0
 70
   128
 71
   43
 72
   52
 73
   51
  0
VERTEX
  8
sausage_4
 10
0.0
 20
0.0
 30
0.0
 70
   128
 71
   44
 72
   53
 73
   52
  0
VERTEX
  8
sausage_4
 10
0.0
 20
0.0
 30
0.0
 70
   128
 71
   45
 72
   54
 73
   53
  0
VERTEX
  8
sausage_4
 10
0.0
 20
0.0
 30
0.0
 70
   128
 71
   46
 72
   55
 73
   54
  0
VERTEX
  8
sausage_4
 10
0.0
 20
0.0
 30
0.0
 70
   128
 71
   47
 72
   56
 73
   55
  0
VERTEX
  8
sausage_4
 10
0.0
 20
0.0
 30
0.0
 70
   128
 71
   48
 72
   57
 73
   56
  0
VERTEX
  8
sausage_4
 10
0.0
 20
0.0
 30
0.0
 70
   128
 71
   49
 72
   58
 73
   57
  0
VERTEX
  8
sausage_4
 10
0.0
 20
0.0
 30
0.0
 70
   128
 71
   51
 72
   60
 73
   59
  0
VERTEX
  8
sausage_4
 10
0.0
 20
0.0
 30
0.0
 70
   128
 71
   52
 72
   61
 73
   60
  0
VERTEX
  8
sausage_4
 10
0.0
 20
0.0
 30
0.0
 70
   128
 71
   53
 72
   62
 73
   61
  0
VERTEX
  8
sausage_4
 10
0.0
 20
0.0
 30
0.0
 70
   128
 71
   54
 72
   63
 73
   62
  0
VERTEX
  8
sausage_4
 10
0.0
 20
0.0
 30
0.0
 70
   128
 71
   55
 72
   64
 73
   63
  0
VERTEX
  8
sausage_4
 10
0.0
 20
0.0
 30
0.0
 70
   128
 71
   56
 72
   65
 73
   64
  0
VERTEX
  8
sausage_4
 10
0.0
 20
0.0
 30
0.0
 70
   128
 71
   57
 72
   66
 73
   65
  0
VERTEX
  8
sausage_4
 10
0.0
 20
0.0
 30
0.0
 70
   128
 71
   59
 72
   4
 73
   3
  0
VERTEX
  8
sausage_4
 10
0.0
 20
0.0
 30
0.0
 70
   128
 71
   60
 72
   5
 73
   4
  0
VERTEX
  8
sausage_4
 10
0.0
 20
0.0
 30
0.0
 70
   128
 71
   61
 72
   6
 73
   5
  0
VERTEX
  8
sausage_4
 10
0.0
 20
0.0
 30
0.0
 70
   128
 71
   62
 72
   7
 73
   6
  0
VERTEX
  8
sausage_4
 10
0.0
 20
0.0
 30
0.0
 70
   128
 71
   63
 72
   8
 73
   7
  0
VERTEX
  8
sausage_4
 10
0.0
 20
0.0
 30
0.0
 70
   128
 71
   64
 72
   9
 73
   8
  0
VERTEX
  8
sausage_4
 10
0.0
 20
0.0
 30
0.0
 70
   128
 71
   65
 72
   10
 73
   9
  0
SEQEND
  0
ENDSEC
  0
EOF
