999
FBX AutoCAD (*.DXF) exporter
  0
SECTION
  2
HEADER
  9
$ACADVER
  1
AC1008
  9
$UCSORG
 10
0.0
 20
0.0
 30
0.0
  9
$UCSXDIR
 10
1.0
 20
0.0
 30
0.0
  9
$TILEMODE
 70
   1
  9
$UCSYDIR
 10
0.0
 20
1.0
 30
0.0
  0
ENDSEC
  0
SECTION
  2
TABLES
  0
TABLE
  2
LTYPE
 70
   1
  0
LTYPE
  2
CONTINUOUS
 70
   64
  3
Solid line
 72
   65
 73
   0
 40
0.0
  0
ENDTAB
  0
TABLE
  2
LAYER
 70
   7
  0
LAYER
  2
bunTop
 70
   0
 62
   250
  6
CONTINUOUS
  0
LAYER
  2
tomato
 70
   0
 62
   250
  6
CONTINUOUS
  0
LAYER
  2
lettuce
 70
   0
 62
   250
  6
CONTINUOUS
  0
LAYER
  2
cheese
 70
   0
 62
   250
  6
CONTINUOUS
  0
LAYER
  2
patty
 70
   0
 62
   250
  6
CONTINUOUS
  0
LAYER
  2
bunBase
 70
   0
 62
   250
  6
CONTINUOUS
  0
ENDTAB
  0
ENDSEC
  0
SECTION
  2
BLOCKS
  0
ENDSEC
  0
SECTION
  2
ENTITIES
  0
POLYLINE
  8
bunTop
 66
   1
 10
0.0
 20
0.0
 30
0.0
 70
   64
 71
   49
 72
   94
  0
VERTEX
  8
bunTop
 10
80.698637
 20
153.388983
 30
46.591380
 70
   192
  0
VERTEX
  8
bunTop
 10
-0.000000
 20
186.244625
 30
-0.000000
 70
   192
  0
VERTEX
  8
bunTop
 10
99.924300
 20
111.969414
 30
0.000000
 70
   192
  0
VERTEX
  8
bunTop
 10
77.542400
 20
170.343607
 30
-0.000000
 70
   192
  0
VERTEX
  8
bunTop
 10
86.536982
 20
111.969414
 30
-49.962150
 70
   192
  0
VERTEX
  8
bunTop
 10
67.153688
 20
170.343607
 30
-38.771200
 70
   192
  0
VERTEX
  8
bunTop
 10
49.962150
 20
111.969414
 30
-86.536982
 70
   192
  0
VERTEX
  8
bunTop
 10
38.771200
 20
170.343607
 30
-67.153688
 70
   192
  0
VERTEX
  8
bunTop
 10
-0.000000
 20
111.969414
 30
-99.924300
 70
   192
  0
VERTEX
  8
bunTop
 10
-0.000000
 20
170.343607
 30
-77.542400
 70
   192
  0
VERTEX
  8
bunTop
 10
-49.962150
 20
111.969414
 30
-86.536982
 70
   192
  0
VERTEX
  8
bunTop
 10
-38.771200
 20
170.343607
 30
-67.153688
 70
   192
  0
VERTEX
  8
bunTop
 10
-86.536982
 20
111.969414
 30
-49.962150
 70
   192
  0
VERTEX
  8
bunTop
 10
-67.153688
 20
170.343607
 30
-38.771200
 70
   192
  0
VERTEX
  8
bunTop
 10
-99.924300
 20
111.969414
 30
0.000000
 70
   192
  0
VERTEX
  8
bunTop
 10
-77.542400
 20
170.343607
 30
-0.000000
 70
   192
  0
VERTEX
  8
bunTop
 10
-86.536982
 20
111.969414
 30
49.962150
 70
   192
  0
VERTEX
  8
bunTop
 10
-67.153688
 20
170.343607
 30
38.771200
 70
   192
  0
VERTEX
  8
bunTop
 10
-49.962150
 20
111.969414
 30
86.536982
 70
   192
  0
VERTEX
  8
bunTop
 10
-38.771200
 20
170.343607
 30
67.153688
 70
   192
  0
VERTEX
  8
bunTop
 10
0.000000
 20
111.969414
 30
99.924300
 70
   192
  0
VERTEX
  8
bunTop
 10
0.000000
 20
170.343607
 30
77.542400
 70
   192
  0
VERTEX
  8
bunTop
 10
49.962150
 20
111.969414
 30
86.536982
 70
   192
  0
VERTEX
  8
bunTop
 10
38.771200
 20
170.343607
 30
67.153688
 70
   192
  0
VERTEX
  8
bunTop
 10
86.536982
 20
111.969414
 30
49.962150
 70
   192
  0
VERTEX
  8
bunTop
 10
67.153688
 20
170.343607
 30
38.771200
 70
   192
  0
VERTEX
  8
bunTop
 10
98.656007
 20
130.605059
 30
-0.000000
 70
   192
  0
VERTEX
  8
bunTop
 10
85.438608
 20
130.605059
 30
-49.328003
 70
   192
  0
VERTEX
  8
bunTop
 10
49.328003
 20
130.605059
 30
-85.438608
 70
   192
  0
VERTEX
  8
bunTop
 10
-0.000000
 20
130.605059
 30
-98.656007
 70
   192
  0
VERTEX
  8
bunTop
 10
-49.328003
 20
130.605059
 30
-85.438608
 70
   192
  0
VERTEX
  8
bunTop
 10
-85.438608
 20
130.605059
 30
-49.328003
 70
   192
  0
VERTEX
  8
bunTop
 10
-98.656007
 20
130.605059
 30
0.000000
 70
   192
  0
VERTEX
  8
bunTop
 10
-85.438608
 20
130.605059
 30
49.328003
 70
   192
  0
VERTEX
  8
bunTop
 10
-49.328003
 20
130.605059
 30
85.438608
 70
   192
  0
VERTEX
  8
bunTop
 10
0.000000
 20
130.605059
 30
98.656007
 70
   192
  0
VERTEX
  8
bunTop
 10
49.328003
 20
130.605059
 30
85.438608
 70
   192
  0
VERTEX
  8
bunTop
 10
85.438608
 20
130.605059
 30
49.328003
 70
   192
  0
VERTEX
  8
bunTop
 10
93.182759
 20
153.388983
 30
-0.000000
 70
   192
  0
VERTEX
  8
bunTop
 10
80.698637
 20
153.388983
 30
-46.591380
 70
   192
  0
VERTEX
  8
bunTop
 10
46.591380
 20
153.388983
 30
-80.698637
 70
   192
  0
VERTEX
  8
bunTop
 10
-0.000000
 20
153.388983
 30
-93.182759
 70
   192
  0
VERTEX
  8
bunTop
 10
-46.591380
 20
153.388983
 30
-80.698637
 70
   192
  0
VERTEX
  8
bunTop
 10
-80.698637
 20
153.388983
 30
-46.591380
 70
   192
  0
VERTEX
  8
bunTop
 10
-93.182759
 20
153.388983
 30
-0.000000
 70
   192
  0
VERTEX
  8
bunTop
 10
-80.698637
 20
153.388983
 30
46.591380
 70
   192
  0
VERTEX
  8
bunTop
 10
-46.591380
 20
153.388983
 30
80.698637
 70
   192
  0
VERTEX
  8
bunTop
 10
0.000000
 20
153.388983
 30
93.182759
 70
   192
  0
VERTEX
  8
bunTop
 10
46.591380
 20
153.388983
 30
80.698637
 70
   192
  0
VERTEX
  8
bunTop
 10
0.0
 20
0.0
 30
0.0
 70
   128
 71
   25
 72
   3
 73
   23
  0
VERTEX
  8
bunTop
 10
0.0
 20
0.0
 30
0.0
 70
   128
 71
   3
 72
   27
 73
   28
  0
VERTEX
  8
bunTop
 10
0.0
 20
0.0
 30
0.0
 70
   128
 71
   4
 72
   2
 73
   6
  0
VERTEX
  8
bunTop
 10
0.0
 20
0.0
 30
0.0
 70
   128
 71
   3
 72
   5
 73
   9
  0
VERTEX
  8
bunTop
 10
0.0
 20
0.0
 30
0.0
 70
   128
 71
   40
 72
   6
 73
   8
  0
VERTEX
  8
bunTop
 10
0.0
 20
0.0
 30
0.0
 70
   128
 71
   6
 72
   2
 73
   8
  0
VERTEX
  8
bunTop
 10
0.0
 20
0.0
 30
0.0
 70
   128
 71
   23
 72
   3
 73
   11
  0
VERTEX
  8
bunTop
 10
0.0
 20
0.0
 30
0.0
 70
   128
 71
   7
 72
   29
 73
   30
  0
VERTEX
  8
bunTop
 10
0.0
 20
0.0
 30
0.0
 70
   128
 71
   8
 72
   2
 73
   10
  0
VERTEX
  8
bunTop
 10
0.0
 20
0.0
 30
0.0
 70
   128
 71
   5
 72
   7
 73
   9
  0
VERTEX
  8
bunTop
 10
0.0
 20
0.0
 30
0.0
 70
   128
 71
   30
 72
   42
 73
   43
  0
VERTEX
  8
bunTop
 10
0.0
 20
0.0
 30
0.0
 70
   128
 71
   10
 72
   2
 73
   12
  0
VERTEX
  8
bunTop
 10
0.0
 20
0.0
 30
0.0
 70
   128
 71
   11
 72
   13
 73
   15
  0
VERTEX
  8
bunTop
 10
0.0
 20
0.0
 30
0.0
 70
   128
 71
   11
 72
   31
 73
   32
  0
VERTEX
  8
bunTop
 10
0.0
 20
0.0
 30
0.0
 70
   128
 71
   12
 72
   2
 73
   14
  0
VERTEX
  8
bunTop
 10
0.0
 20
0.0
 30
0.0
 70
   128
 71
   17
 72
   19
 73
   21
  0
VERTEX
  8
bunTop
 10
0.0
 20
0.0
 30
0.0
 70
   128
 71
   32
 72
   44
 73
   45
  0
VERTEX
  8
bunTop
 10
0.0
 20
0.0
 30
0.0
 70
   128
 71
   14
 72
   2
 73
   16
  0
VERTEX
  8
bunTop
 10
0.0
 20
0.0
 30
0.0
 70
   128
 71
   39
 72
   4
 73
   6
  0
VERTEX
  8
bunTop
 10
0.0
 20
0.0
 30
0.0
 70
   128
 71
   15
 72
   33
 73
   34
  0
VERTEX
  8
bunTop
 10
0.0
 20
0.0
 30
0.0
 70
   128
 71
   16
 72
   2
 73
   18
  0
VERTEX
  8
bunTop
 10
0.0
 20
0.0
 30
0.0
 70
   128
 71
   41
 72
   8
 73
   10
  0
VERTEX
  8
bunTop
 10
0.0
 20
0.0
 30
0.0
 70
   128
 71
   34
 72
   46
 73
   47
  0
VERTEX
  8
bunTop
 10
0.0
 20
0.0
 30
0.0
 70
   128
 71
   18
 72
   2
 73
   20
  0
VERTEX
  8
bunTop
 10
0.0
 20
0.0
 30
0.0
 70
   128
 71
   43
 72
   12
 73
   14
  0
VERTEX
  8
bunTop
 10
0.0
 20
0.0
 30
0.0
 70
   128
 71
   19
 72
   35
 73
   36
  0
VERTEX
  8
bunTop
 10
0.0
 20
0.0
 30
0.0
 70
   128
 71
   20
 72
   2
 73
   22
  0
VERTEX
  8
bunTop
 10
0.0
 20
0.0
 30
0.0
 70
   128
 71
   45
 72
   16
 73
   18
  0
VERTEX
  8
bunTop
 10
0.0
 20
0.0
 30
0.0
 70
   128
 71
   36
 72
   48
 73
   49
  0
VERTEX
  8
bunTop
 10
0.0
 20
0.0
 30
0.0
 70
   128
 71
   22
 72
   2
 73
   24
  0
VERTEX
  8
bunTop
 10
0.0
 20
0.0
 30
0.0
 70
   128
 71
   47
 72
   20
 73
   22
  0
VERTEX
  8
bunTop
 10
0.0
 20
0.0
 30
0.0
 70
   128
 71
   23
 72
   37
 73
   38
  0
VERTEX
  8
bunTop
 10
0.0
 20
0.0
 30
0.0
 70
   128
 71
   24
 72
   2
 73
   26
  0
VERTEX
  8
bunTop
 10
0.0
 20
0.0
 30
0.0
 70
   128
 71
   49
 72
   24
 73
   26
  0
VERTEX
  8
bunTop
 10
0.0
 20
0.0
 30
0.0
 70
   128
 71
   38
 72
   1
 73
   39
  0
VERTEX
  8
bunTop
 10
0.0
 20
0.0
 30
0.0
 70
   128
 71
   26
 72
   2
 73
   4
  0
VERTEX
  8
bunTop
 10
0.0
 20
0.0
 30
0.0
 70
   128
 71
   27
 72
   39
 73
   40
  0
VERTEX
  8
bunTop
 10
0.0
 20
0.0
 30
0.0
 70
   128
 71
   29
 72
   7
 73
   5
  0
VERTEX
  8
bunTop
 10
0.0
 20
0.0
 30
0.0
 70
   128
 71
   29
 72
   41
 73
   42
  0
VERTEX
  8
bunTop
 10
0.0
 20
0.0
 30
0.0
 70
   128
 71
   31
 72
   11
 73
   9
  0
VERTEX
  8
bunTop
 10
0.0
 20
0.0
 30
0.0
 70
   128
 71
   31
 72
   43
 73
   44
  0
VERTEX
  8
bunTop
 10
0.0
 20
0.0
 30
0.0
 70
   128
 71
   33
 72
   15
 73
   13
  0
VERTEX
  8
bunTop
 10
0.0
 20
0.0
 30
0.0
 70
   128
 71
   33
 72
   45
 73
   46
  0
VERTEX
  8
bunTop
 10
0.0
 20
0.0
 30
0.0
 70
   128
 71
   35
 72
   19
 73
   17
  0
VERTEX
  8
bunTop
 10
0.0
 20
0.0
 30
0.0
 70
   128
 71
   35
 72
   47
 73
   48
  0
VERTEX
  8
bunTop
 10
0.0
 20
0.0
 30
0.0
 70
   128
 71
   37
 72
   23
 73
   21
  0
VERTEX
  8
bunTop
 10
0.0
 20
0.0
 30
0.0
 70
   128
 71
   37
 72
   49
 73
   1
  0
VERTEX
  8
bunTop
 10
0.0
 20
0.0
 30
0.0
 70
   128
 71
   27
 72
   3
 73
   25
  0
VERTEX
  8
bunTop
 10
0.0
 20
0.0
 30
0.0
 70
   128
 71
   41
 72
   29
 73
   28
  0
VERTEX
  8
bunTop
 10
0.0
 20
0.0
 30
0.0
 70
   128
 71
   42
 72
   10
 73
   12
  0
VERTEX
  8
bunTop
 10
0.0
 20
0.0
 30
0.0
 70
   128
 71
   44
 72
   14
 73
   16
  0
VERTEX
  8
bunTop
 10
0.0
 20
0.0
 30
0.0
 70
   128
 71
   46
 72
   18
 73
   20
  0
VERTEX
  8
bunTop
 10
0.0
 20
0.0
 30
0.0
 70
   128
 71
   48
 72
   22
 73
   24
  0
VERTEX
  8
bunTop
 10
0.0
 20
0.0
 30
0.0
 70
   128
 71
   1
 72
   26
 73
   4
  0
VERTEX
  8
bunTop
 10
0.0
 20
0.0
 30
0.0
 70
   128
 71
   3
 72
   28
 73
   5
  0
VERTEX
  8
bunTop
 10
0.0
 20
0.0
 30
0.0
 70
   128
 71
   3
 72
   9
 73
   11
  0
VERTEX
  8
bunTop
 10
0.0
 20
0.0
 30
0.0
 70
   128
 71
   40
 72
   8
 73
   41
  0
VERTEX
  8
bunTop
 10
0.0
 20
0.0
 30
0.0
 70
   128
 71
   23
 72
   11
 73
   17
  0
VERTEX
  8
bunTop
 10
0.0
 20
0.0
 30
0.0
 70
   128
 71
   7
 72
   30
 73
   9
  0
VERTEX
  8
bunTop
 10
0.0
 20
0.0
 30
0.0
 70
   128
 71
   30
 72
   43
 73
   31
  0
VERTEX
  8
bunTop
 10
0.0
 20
0.0
 30
0.0
 70
   128
 71
   11
 72
   15
 73
   17
  0
VERTEX
  8
bunTop
 10
0.0
 20
0.0
 30
0.0
 70
   128
 71
   11
 72
   32
 73
   13
  0
VERTEX
  8
bunTop
 10
0.0
 20
0.0
 30
0.0
 70
   128
 71
   17
 72
   21
 73
   23
  0
VERTEX
  8
bunTop
 10
0.0
 20
0.0
 30
0.0
 70
   128
 71
   32
 72
   45
 73
   33
  0
VERTEX
  8
bunTop
 10
0.0
 20
0.0
 30
0.0
 70
   128
 71
   39
 72
   6
 73
   40
  0
VERTEX
  8
bunTop
 10
0.0
 20
0.0
 30
0.0
 70
   128
 71
   15
 72
   34
 73
   17
  0
VERTEX
  8
bunTop
 10
0.0
 20
0.0
 30
0.0
 70
   128
 71
   41
 72
   10
 73
   42
  0
VERTEX
  8
bunTop
 10
0.0
 20
0.0
 30
0.0
 70
   128
 71
   34
 72
   47
 73
   35
  0
VERTEX
  8
bunTop
 10
0.0
 20
0.0
 30
0.0
 70
   128
 71
   43
 72
   14
 73
   44
  0
VERTEX
  8
bunTop
 10
0.0
 20
0.0
 30
0.0
 70
   128
 71
   19
 72
   36
 73
   21
  0
VERTEX
  8
bunTop
 10
0.0
 20
0.0
 30
0.0
 70
   128
 71
   45
 72
   18
 73
   46
  0
VERTEX
  8
bunTop
 10
0.0
 20
0.0
 30
0.0
 70
   128
 71
   36
 72
   49
 73
   37
  0
VERTEX
  8
bunTop
 10
0.0
 20
0.0
 30
0.0
 70
   128
 71
   47
 72
   22
 73
   48
  0
VERTEX
  8
bunTop
 10
0.0
 20
0.0
 30
0.0
 70
   128
 71
   23
 72
   38
 73
   25
  0
VERTEX
  8
bunTop
 10
0.0
 20
0.0
 30
0.0
 70
   128
 71
   49
 72
   26
 73
   1
  0
VERTEX
  8
bunTop
 10
0.0
 20
0.0
 30
0.0
 70
   128
 71
   38
 72
   39
 73
   27
  0
VERTEX
  8
bunTop
 10
0.0
 20
0.0
 30
0.0
 70
   128
 71
   27
 72
   40
 73
   28
  0
VERTEX
  8
bunTop
 10
0.0
 20
0.0
 30
0.0
 70
   128
 71
   29
 72
   5
 73
   28
  0
VERTEX
  8
bunTop
 10
0.0
 20
0.0
 30
0.0
 70
   128
 71
   29
 72
   42
 73
   30
  0
VERTEX
  8
bunTop
 10
0.0
 20
0.0
 30
0.0
 70
   128
 71
   31
 72
   9
 73
   30
  0
VERTEX
  8
bunTop
 10
0.0
 20
0.0
 30
0.0
 70
   128
 71
   31
 72
   44
 73
   32
  0
VERTEX
  8
bunTop
 10
0.0
 20
0.0
 30
0.0
 70
   128
 71
   33
 72
   13
 73
   32
  0
VERTEX
  8
bunTop
 10
0.0
 20
0.0
 30
0.0
 70
   128
 71
   33
 72
   46
 73
   34
  0
VERTEX
  8
bunTop
 10
0.0
 20
0.0
 30
0.0
 70
   128
 71
   35
 72
   17
 73
   34
  0
VERTEX
  8
bunTop
 10
0.0
 20
0.0
 30
0.0
 70
   128
 71
   35
 72
   48
 73
   36
  0
VERTEX
  8
bunTop
 10
0.0
 20
0.0
 30
0.0
 70
   128
 71
   37
 72
   21
 73
   36
  0
VERTEX
  8
bunTop
 10
0.0
 20
0.0
 30
0.0
 70
   128
 71
   37
 72
   1
 73
   38
  0
VERTEX
  8
bunTop
 10
0.0
 20
0.0
 30
0.0
 70
   128
 71
   27
 72
   25
 73
   38
  0
VERTEX
  8
bunTop
 10
0.0
 20
0.0
 30
0.0
 70
   128
 71
   41
 72
   28
 73
   40
  0
VERTEX
  8
bunTop
 10
0.0
 20
0.0
 30
0.0
 70
   128
 71
   42
 72
   12
 73
   43
  0
VERTEX
  8
bunTop
 10
0.0
 20
0.0
 30
0.0
 70
   128
 71
   44
 72
   16
 73
   45
  0
VERTEX
  8
bunTop
 10
0.0
 20
0.0
 30
0.0
 70
   128
 71
   46
 72
   20
 73
   47
  0
VERTEX
  8
bunTop
 10
0.0
 20
0.0
 30
0.0
 70
   128
 71
   48
 72
   24
 73
   49
  0
VERTEX
  8
bunTop
 10
0.0
 20
0.0
 30
0.0
 70
   128
 71
   1
 72
   4
 73
   39
  0
SEQEND
  0
POLYLINE
  8
tomato
 66
   1
 10
0.0
 20
0.0
 30
0.0
 70
   64
 71
   20
 72
   36
  0
VERTEX
  8
tomato
 10
80.365973
 20
95.566849
 30
57.913224
 70
   192
  0
VERTEX
  8
tomato
 10
80.297514
 20
112.911251
 30
57.814193
 70
   192
  0
VERTEX
  8
tomato
 10
99.161440
 20
95.708821
 30
-0.397317
 70
   192
  0
VERTEX
  8
tomato
 10
99.078989
 20
113.051885
 30
-0.487833
 70
   192
  0
VERTEX
  8
tomato
 10
80.101719
 20
94.829543
 30
-58.574441
 70
   192
  0
VERTEX
  8
tomato
 10
80.000070
 20
112.443885
 30
-58.715356
 70
   192
  0
VERTEX
  8
tomato
 10
30.431816
 20
94.409663
 30
-94.471770
 70
   192
  0
VERTEX
  8
tomato
 10
30.374231
 20
111.879733
 30
-94.586619
 70
   192
  0
VERTEX
  8
tomato
 10
-30.800075
 20
94.179899
 30
-94.323802
 70
   192
  0
VERTEX
  8
tomato
 10
-30.903586
 20
111.500930
 30
-94.469886
 70
   192
  0
VERTEX
  8
tomato
 10
-80.275771
 20
94.219904
 30
-58.201740
 70
   192
  0
VERTEX
  8
tomato
 10
-80.354685
 20
111.399765
 30
-58.327474
 70
   192
  0
VERTEX
  8
tomato
 10
-99.101475
 20
95.156046
 30
0.135174
 70
   192
  0
VERTEX
  8
tomato
 10
-99.141500
 20
112.699701
 30
-0.034357
 70
   192
  0
VERTEX
  8
tomato
 10
-80.038553
 20
95.012166
 30
58.303510
 70
   192
  0
VERTEX
  8
tomato
 10
-80.057319
 20
112.638308
 30
58.214592
 70
   192
  0
VERTEX
  8
tomato
 10
-30.382020
 20
95.439142
 30
94.185978
 70
   192
  0
VERTEX
  8
tomato
 10
-30.418646
 20
112.885476
 30
94.086968
 70
   192
  0
VERTEX
  8
tomato
 10
30.880012
 20
95.469512
 30
94.041841
 70
   192
  0
VERTEX
  8
tomato
 10
30.832158
 20
113.008887
 30
93.936714
 70
   192
  0
VERTEX
  8
tomato
 10
0.0
 20
0.0
 30
0.0
 70
   128
 71
   1
 72
   3
 73
   5
  0
VERTEX
  8
tomato
 10
0.0
 20
0.0
 30
0.0
 70
   128
 71
   3
 72
   4
 73
   6
  0
VERTEX
  8
tomato
 10
0.0
 20
0.0
 30
0.0
 70
   128
 71
   6
 72
   4
 73
   2
  0
VERTEX
  8
tomato
 10
0.0
 20
0.0
 30
0.0
 70
   128
 71
   1
 72
   17
 73
   19
  0
VERTEX
  8
tomato
 10
0.0
 20
0.0
 30
0.0
 70
   128
 71
   5
 72
   6
 73
   8
  0
VERTEX
  8
tomato
 10
0.0
 20
0.0
 30
0.0
 70
   128
 71
   17
 72
   5
 73
   7
  0
VERTEX
  8
tomato
 10
0.0
 20
0.0
 30
0.0
 70
   128
 71
   7
 72
   9
 73
   11
  0
VERTEX
  8
tomato
 10
0.0
 20
0.0
 30
0.0
 70
   128
 71
   7
 72
   8
 73
   10
  0
VERTEX
  8
tomato
 10
0.0
 20
0.0
 30
0.0
 70
   128
 71
   7
 72
   11
 73
   13
  0
VERTEX
  8
tomato
 10
0.0
 20
0.0
 30
0.0
 70
   128
 71
   2
 72
   20
 73
   18
  0
VERTEX
  8
tomato
 10
0.0
 20
0.0
 30
0.0
 70
   128
 71
   9
 72
   10
 73
   12
  0
VERTEX
  8
tomato
 10
0.0
 20
0.0
 30
0.0
 70
   128
 71
   8
 72
   2
 73
   18
  0
VERTEX
  8
tomato
 10
0.0
 20
0.0
 30
0.0
 70
   128
 71
   12
 72
   18
 73
   16
  0
VERTEX
  8
tomato
 10
0.0
 20
0.0
 30
0.0
 70
   128
 71
   11
 72
   12
 73
   14
  0
VERTEX
  8
tomato
 10
0.0
 20
0.0
 30
0.0
 70
   128
 71
   12
 72
   10
 73
   8
  0
VERTEX
  8
tomato
 10
0.0
 20
0.0
 30
0.0
 70
   128
 71
   17
 72
   18
 73
   20
  0
VERTEX
  8
tomato
 10
0.0
 20
0.0
 30
0.0
 70
   128
 71
   13
 72
   14
 73
   16
  0
VERTEX
  8
tomato
 10
0.0
 20
0.0
 30
0.0
 70
   128
 71
   19
 72
   20
 73
   2
  0
VERTEX
  8
tomato
 10
0.0
 20
0.0
 30
0.0
 70
   128
 71
   1
 72
   2
 73
   4
  0
VERTEX
  8
tomato
 10
0.0
 20
0.0
 30
0.0
 70
   128
 71
   15
 72
   16
 73
   18
  0
VERTEX
  8
tomato
 10
0.0
 20
0.0
 30
0.0
 70
   128
 71
   1
 72
   5
 73
   17
  0
VERTEX
  8
tomato
 10
0.0
 20
0.0
 30
0.0
 70
   128
 71
   3
 72
   6
 73
   5
  0
VERTEX
  8
tomato
 10
0.0
 20
0.0
 30
0.0
 70
   128
 71
   6
 72
   2
 73
   8
  0
VERTEX
  8
tomato
 10
0.0
 20
0.0
 30
0.0
 70
   128
 71
   5
 72
   8
 73
   7
  0
VERTEX
  8
tomato
 10
0.0
 20
0.0
 30
0.0
 70
   128
 71
   17
 72
   7
 73
   15
  0
VERTEX
  8
tomato
 10
0.0
 20
0.0
 30
0.0
 70
   128
 71
   7
 72
   10
 73
   9
  0
VERTEX
  8
tomato
 10
0.0
 20
0.0
 30
0.0
 70
   128
 71
   7
 72
   13
 73
   15
  0
VERTEX
  8
tomato
 10
0.0
 20
0.0
 30
0.0
 70
   128
 71
   9
 72
   12
 73
   11
  0
VERTEX
  8
tomato
 10
0.0
 20
0.0
 30
0.0
 70
   128
 71
   8
 72
   18
 73
   12
  0
VERTEX
  8
tomato
 10
0.0
 20
0.0
 30
0.0
 70
   128
 71
   12
 72
   16
 73
   14
  0
VERTEX
  8
tomato
 10
0.0
 20
0.0
 30
0.0
 70
   128
 71
   11
 72
   14
 73
   13
  0
VERTEX
  8
tomato
 10
0.0
 20
0.0
 30
0.0
 70
   128
 71
   17
 72
   20
 73
   19
  0
VERTEX
  8
tomato
 10
0.0
 20
0.0
 30
0.0
 70
   128
 71
   13
 72
   16
 73
   15
  0
VERTEX
  8
tomato
 10
0.0
 20
0.0
 30
0.0
 70
   128
 71
   19
 72
   2
 73
   1
  0
VERTEX
  8
tomato
 10
0.0
 20
0.0
 30
0.0
 70
   128
 71
   1
 72
   4
 73
   3
  0
VERTEX
  8
tomato
 10
0.0
 20
0.0
 30
0.0
 70
   128
 71
   15
 72
   18
 73
   17
  0
SEQEND
  0
POLYLINE
  8
lettuce
 66
   1
 10
0.0
 20
0.0
 30
0.0
 70
   64
 71
   82
 72
   160
  0
VERTEX
  8
lettuce
 10
102.903734
 20
82.132355
 30
-50.170286
 70
   192
  0
VERTEX
  8
lettuce
 10
110.335826
 20
82.001793
 30
-41.774413
 70
   192
  0
VERTEX
  8
lettuce
 10
112.000255
 20
82.350961
 30
-25.386930
 70
   192
  0
VERTEX
  8
lettuce
 10
107.361072
 20
82.726388
 30
-14.764536
 70
   192
  0
VERTEX
  8
lettuce
 10
91.502859
 20
82.796997
 30
-8.398457
 70
   192
  0
VERTEX
  8
lettuce
 10
87.337221
 20
82.965829
 30
5.352970
 70
   192
  0
VERTEX
  8
lettuce
 10
95.317786
 20
82.905071
 30
22.767370
 70
   192
  0
VERTEX
  8
lettuce
 10
97.990830
 20
82.480429
 30
36.966020
 70
   192
  0
VERTEX
  8
lettuce
 10
90.088143
 20
82.700310
 30
52.335653
 70
   192
  0
VERTEX
  8
lettuce
 10
69.594938
 20
83.317343
 30
61.420102
 70
   192
  0
VERTEX
  8
lettuce
 10
54.353099
 20
83.938375
 30
62.023793
 70
   192
  0
VERTEX
  8
lettuce
 10
42.324297
 20
83.943778
 30
73.746826
 70
   192
  0
VERTEX
  8
lettuce
 10
41.841251
 20
83.178599
 30
87.343019
 70
   192
  0
VERTEX
  8
lettuce
 10
39.247255
 20
82.831244
 30
97.898654
 70
   192
  0
VERTEX
  8
lettuce
 10
28.705050
 20
82.726273
 30
110.121083
 70
   192
  0
VERTEX
  8
lettuce
 10
11.840900
 20
83.002131
 30
116.591491
 70
   192
  0
VERTEX
  8
lettuce
 10
-30.375085
 20
84.050473
 30
121.123620
 70
   192
  0
VERTEX
  8
lettuce
 10
-53.009492
 20
83.212291
 30
110.226897
 70
   192
  0
VERTEX
  8
lettuce
 10
-72.177146
 20
83.006021
 30
93.886189
 70
   192
  0
VERTEX
  8
lettuce
 10
-90.183091
 20
82.318164
 30
81.799527
 70
   192
  0
VERTEX
  8
lettuce
 10
-107.176003
 20
82.166774
 30
61.793797
 70
   192
  0
VERTEX
  8
lettuce
 10
-110.523904
 20
82.278473
 30
39.103936
 70
   192
  0
VERTEX
  8
lettuce
 10
-103.188053
 20
82.534547
 30
19.538880
 70
   192
  0
VERTEX
  8
lettuce
 10
-91.701047
 20
82.933259
 30
-2.166518
 70
   192
  0
VERTEX
  8
lettuce
 10
-99.633086
 20
82.258853
 30
-17.355692
 70
   192
  0
VERTEX
  8
lettuce
 10
-112.362011
 20
81.351102
 30
-42.661792
 70
   192
  0
VERTEX
  8
lettuce
 10
-111.494889
 20
81.199644
 30
-70.140291
 70
   192
  0
VERTEX
  8
lettuce
 10
-94.158554
 20
81.529937
 30
-85.566125
 70
   192
  0
VERTEX
  8
lettuce
 10
-78.857135
 20
82.223623
 30
-86.664423
 70
   192
  0
VERTEX
  8
lettuce
 10
-62.594953
 20
82.237654
 30
-100.900940
 70
   192
  0
VERTEX
  8
lettuce
 10
-60.576742
 20
80.800158
 30
-117.084414
 70
   192
  0
VERTEX
  8
lettuce
 10
-45.301914
 20
80.543334
 30
-125.652196
 70
   192
  0
VERTEX
  8
lettuce
 10
-21.435746
 20
82.258167
 30
-114.881732
 70
   192
  0
VERTEX
  8
lettuce
 10
-3.514855
 20
82.593296
 30
-105.068536
 70
   192
  0
VERTEX
  8
lettuce
 10
20.531578
 20
81.523262
 30
-120.432637
 70
   192
  0
VERTEX
  8
lettuce
 10
42.206717
 20
81.170827
 30
-124.847345
 70
   192
  0
VERTEX
  8
lettuce
 10
56.173817
 20
81.605336
 30
-110.237717
 70
   192
  0
VERTEX
  8
lettuce
 10
63.568890
 20
81.810511
 30
-93.328219
 70
   192
  0
VERTEX
  8
lettuce
 10
73.717910
 20
81.853275
 30
-83.850415
 70
   192
  0
VERTEX
  8
lettuce
 10
93.220410
 20
81.591147
 30
-85.527831
 70
   192
  0
VERTEX
  8
lettuce
 10
101.209101
 20
81.824229
 30
-68.184473
 70
   192
  0
VERTEX
  8
lettuce
 10
102.946122
 20
94.006891
 30
-50.346151
 70
   192
  0
VERTEX
  8
lettuce
 10
110.417442
 20
94.085826
 30
-41.922752
 70
   192
  0
VERTEX
  8
lettuce
 10
112.073948
 20
94.352559
 30
-25.586070
 70
   192
  0
VERTEX
  8
lettuce
 10
107.354278
 20
94.659856
 30
-14.986886
 70
   192
  0
VERTEX
  8
lettuce
 10
91.522345
 20
94.697481
 30
-8.569588
 70
   192
  0
VERTEX
  8
lettuce
 10
87.348807
 20
94.909666
 30
5.249628
 70
   192
  0
VERTEX
  8
lettuce
 10
95.392363
 20
95.002469
 30
22.650547
 70
   192
  0
VERTEX
  8
lettuce
 10
98.208069
 20
94.611978
 30
36.941841
 70
   192
  0
VERTEX
  8
lettuce
 10
90.429986
 20
94.754664
 30
52.270157
 70
   192
  0
VERTEX
  8
lettuce
 10
69.822024
 20
95.474289
 30
61.352575
 70
   192
  0
VERTEX
  8
lettuce
 10
54.380045
 20
95.786334
 30
61.950765
 70
   192
  0
VERTEX
  8
lettuce
 10
42.231777
 20
95.817022
 30
73.699909
 70
   192
  0
VERTEX
  8
lettuce
 10
41.972033
 20
95.309838
 30
87.650028
 70
   192
  0
VERTEX
  8
lettuce
 10
39.437524
 20
94.949775
 30
98.291090
 70
   192
  0
VERTEX
  8
lettuce
 10
28.933503
 20
94.778887
 30
110.449080
 70
   192
  0
VERTEX
  8
lettuce
 10
12.002557
 20
94.983659
 30
116.822294
 70
   192
  0
VERTEX
  8
lettuce
 10
-30.301661
 20
95.827874
 30
121.126841
 70
   192
  0
VERTEX
  8
lettuce
 10
-53.216958
 20
95.226387
 30
110.062311
 70
   192
  0
VERTEX
  8
lettuce
 10
-72.272706
 20
94.876114
 30
93.841222
 70
   192
  0
VERTEX
  8
lettuce
 10
-90.358055
 20
94.369047
 30
81.836666
 70
   192
  0
VERTEX
  8
lettuce
 10
-107.396740
 20
94.072796
 30
61.886718
 70
   192
  0
VERTEX
  8
lettuce
 10
-110.669815
 20
94.240662
 30
39.198173
 70
   192
  0
VERTEX
  8
lettuce
 10
-103.324390
 20
94.524616
 30
19.603956
 70
   192
  0
VERTEX
  8
lettuce
 10
-91.786590
 20
94.817525
 30
-2.162713
 70
   192
  0
VERTEX
  8
lettuce
 10
-99.854399
 20
94.338915
 30
-17.537584
 70
   192
  0
VERTEX
  8
lettuce
 10
-112.712975
 20
93.332912
 30
-42.776322
 70
   192
  0
VERTEX
  8
lettuce
 10
-111.833776
 20
93.238714
 30
-70.238831
 70
   192
  0
VERTEX
  8
lettuce
 10
-94.497382
 20
93.641730
 30
-85.621957
 70
   192
  0
VERTEX
  8
lettuce
 10
-79.129116
 20
94.045689
 30
-86.776203
 70
   192
  0
VERTEX
  8
lettuce
 10
-62.771110
 20
93.919062
 30
-101.221720
 70
   192
  0
VERTEX
  8
lettuce
 10
-60.796293
 20
93.146318
 30
-117.842474
 70
   192
  0
VERTEX
  8
lettuce
 10
-45.547518
 20
92.685305
 30
-126.298154
 70
   192
  0
VERTEX
  8
lettuce
 10
-21.808842
 20
94.124041
 30
-115.206455
 70
   192
  0
VERTEX
  8
lettuce
 10
-3.627177
 20
94.466259
 30
-105.166069
 70
   192
  0
VERTEX
  8
lettuce
 10
20.748629
 20
93.538744
 30
-120.790131
 70
   192
  0
VERTEX
  8
lettuce
 10
42.343815
 20
93.159212
 30
-125.129706
 70
   192
  0
VERTEX
  8
lettuce
 10
56.107713
 20
93.497986
 30
-110.382609
 70
   192
  0
VERTEX
  8
lettuce
 10
63.555259
 20
93.706687
 30
-93.427897
 70
   192
  0
VERTEX
  8
lettuce
 10
73.624028
 20
93.798991
 30
-83.965539
 70
   192
  0
VERTEX
  8
lettuce
 10
93.213541
 20
93.817418
 30
-85.665913
 70
   192
  0
VERTEX
  8
lettuce
 10
101.259579
 20
93.803646
 30
-68.273097
 70
   192
  0
VERTEX
  8
lettuce
 10
0.0
 20
0.0
 30
0.0
 70
   128
 71
   1
 72
   2
 73
   43
  0
VERTEX
  8
lettuce
 10
0.0
 20
0.0
 30
0.0
 70
   128
 71
   2
 72
   3
 73
   44
  0
VERTEX
  8
lettuce
 10
0.0
 20
0.0
 30
0.0
 70
   128
 71
   3
 72
   4
 73
   45
  0
VERTEX
  8
lettuce
 10
0.0
 20
0.0
 30
0.0
 70
   128
 71
   4
 72
   5
 73
   46
  0
VERTEX
  8
lettuce
 10
0.0
 20
0.0
 30
0.0
 70
   128
 71
   5
 72
   6
 73
   47
  0
VERTEX
  8
lettuce
 10
0.0
 20
0.0
 30
0.0
 70
   128
 71
   6
 72
   7
 73
   48
  0
VERTEX
  8
lettuce
 10
0.0
 20
0.0
 30
0.0
 70
   128
 71
   7
 72
   8
 73
   49
  0
VERTEX
  8
lettuce
 10
0.0
 20
0.0
 30
0.0
 70
   128
 71
   8
 72
   9
 73
   50
  0
VERTEX
  8
lettuce
 10
0.0
 20
0.0
 30
0.0
 70
   128
 71
   9
 72
   10
 73
   51
  0
VERTEX
  8
lettuce
 10
0.0
 20
0.0
 30
0.0
 70
   128
 71
   10
 72
   11
 73
   52
  0
VERTEX
  8
lettuce
 10
0.0
 20
0.0
 30
0.0
 70
   128
 71
   11
 72
   12
 73
   53
  0
VERTEX
  8
lettuce
 10
0.0
 20
0.0
 30
0.0
 70
   128
 71
   12
 72
   13
 73
   54
  0
VERTEX
  8
lettuce
 10
0.0
 20
0.0
 30
0.0
 70
   128
 71
   13
 72
   14
 73
   55
  0
VERTEX
  8
lettuce
 10
0.0
 20
0.0
 30
0.0
 70
   128
 71
   14
 72
   15
 73
   56
  0
VERTEX
  8
lettuce
 10
0.0
 20
0.0
 30
0.0
 70
   128
 71
   15
 72
   16
 73
   57
  0
VERTEX
  8
lettuce
 10
0.0
 20
0.0
 30
0.0
 70
   128
 71
   16
 72
   17
 73
   58
  0
VERTEX
  8
lettuce
 10
0.0
 20
0.0
 30
0.0
 70
   128
 71
   17
 72
   18
 73
   59
  0
VERTEX
  8
lettuce
 10
0.0
 20
0.0
 30
0.0
 70
   128
 71
   18
 72
   19
 73
   60
  0
VERTEX
  8
lettuce
 10
0.0
 20
0.0
 30
0.0
 70
   128
 71
   19
 72
   20
 73
   61
  0
VERTEX
  8
lettuce
 10
0.0
 20
0.0
 30
0.0
 70
   128
 71
   20
 72
   21
 73
   62
  0
VERTEX
  8
lettuce
 10
0.0
 20
0.0
 30
0.0
 70
   128
 71
   21
 72
   22
 73
   63
  0
VERTEX
  8
lettuce
 10
0.0
 20
0.0
 30
0.0
 70
   128
 71
   22
 72
   23
 73
   64
  0
VERTEX
  8
lettuce
 10
0.0
 20
0.0
 30
0.0
 70
   128
 71
   23
 72
   24
 73
   65
  0
VERTEX
  8
lettuce
 10
0.0
 20
0.0
 30
0.0
 70
   128
 71
   24
 72
   25
 73
   66
  0
VERTEX
  8
lettuce
 10
0.0
 20
0.0
 30
0.0
 70
   128
 71
   25
 72
   26
 73
   67
  0
VERTEX
  8
lettuce
 10
0.0
 20
0.0
 30
0.0
 70
   128
 71
   26
 72
   27
 73
   68
  0
VERTEX
  8
lettuce
 10
0.0
 20
0.0
 30
0.0
 70
   128
 71
   27
 72
   28
 73
   69
  0
VERTEX
  8
lettuce
 10
0.0
 20
0.0
 30
0.0
 70
   128
 71
   28
 72
   29
 73
   70
  0
VERTEX
  8
lettuce
 10
0.0
 20
0.0
 30
0.0
 70
   128
 71
   29
 72
   30
 73
   71
  0
VERTEX
  8
lettuce
 10
0.0
 20
0.0
 30
0.0
 70
   128
 71
   30
 72
   31
 73
   72
  0
VERTEX
  8
lettuce
 10
0.0
 20
0.0
 30
0.0
 70
   128
 71
   31
 72
   32
 73
   73
  0
VERTEX
  8
lettuce
 10
0.0
 20
0.0
 30
0.0
 70
   128
 71
   32
 72
   33
 73
   74
  0
VERTEX
  8
lettuce
 10
0.0
 20
0.0
 30
0.0
 70
   128
 71
   33
 72
   34
 73
   75
  0
VERTEX
  8
lettuce
 10
0.0
 20
0.0
 30
0.0
 70
   128
 71
   34
 72
   35
 73
   76
  0
VERTEX
  8
lettuce
 10
0.0
 20
0.0
 30
0.0
 70
   128
 71
   35
 72
   36
 73
   77
  0
VERTEX
  8
lettuce
 10
0.0
 20
0.0
 30
0.0
 70
   128
 71
   36
 72
   37
 73
   78
  0
VERTEX
  8
lettuce
 10
0.0
 20
0.0
 30
0.0
 70
   128
 71
   37
 72
   38
 73
   79
  0
VERTEX
  8
lettuce
 10
0.0
 20
0.0
 30
0.0
 70
   128
 71
   38
 72
   39
 73
   80
  0
VERTEX
  8
lettuce
 10
0.0
 20
0.0
 30
0.0
 70
   128
 71
   39
 72
   40
 73
   81
  0
VERTEX
  8
lettuce
 10
0.0
 20
0.0
 30
0.0
 70
   128
 71
   40
 72
   41
 73
   82
  0
VERTEX
  8
lettuce
 10
0.0
 20
0.0
 30
0.0
 70
   128
 71
   41
 72
   1
 73
   42
  0
VERTEX
  8
lettuce
 10
0.0
 20
0.0
 30
0.0
 70
   128
 71
   3
 72
   1
 73
   5
  0
VERTEX
  8
lettuce
 10
0.0
 20
0.0
 30
0.0
 70
   128
 71
   1
 72
   41
 73
   39
  0
VERTEX
  8
lettuce
 10
0.0
 20
0.0
 30
0.0
 70
   128
 71
   1
 72
   3
 73
   2
  0
VERTEX
  8
lettuce
 10
0.0
 20
0.0
 30
0.0
 70
   128
 71
   42
 72
   43
 73
   44
  0
VERTEX
  8
lettuce
 10
0.0
 20
0.0
 30
0.0
 70
   128
 71
   46
 72
   42
 73
   44
  0
VERTEX
  8
lettuce
 10
0.0
 20
0.0
 30
0.0
 70
   128
 71
   41
 72
   40
 73
   39
  0
VERTEX
  8
lettuce
 10
0.0
 20
0.0
 30
0.0
 70
   128
 71
   5
 72
   39
 73
   34
  0
VERTEX
  8
lettuce
 10
0.0
 20
0.0
 30
0.0
 70
   128
 71
   34
 72
   39
 73
   38
  0
VERTEX
  8
lettuce
 10
0.0
 20
0.0
 30
0.0
 70
   128
 71
   35
 72
   38
 73
   37
  0
VERTEX
  8
lettuce
 10
0.0
 20
0.0
 30
0.0
 70
   128
 71
   6
 72
   34
 73
   24
  0
VERTEX
  8
lettuce
 10
0.0
 20
0.0
 30
0.0
 70
   128
 71
   75
 72
   80
 73
   46
  0
VERTEX
  8
lettuce
 10
0.0
 20
0.0
 30
0.0
 70
   128
 71
   65
 72
   75
 73
   47
  0
VERTEX
  8
lettuce
 10
0.0
 20
0.0
 30
0.0
 70
   128
 71
   47
 72
   48
 73
   51
  0
VERTEX
  8
lettuce
 10
0.0
 20
0.0
 30
0.0
 70
   128
 71
   34
 72
   33
 73
   30
  0
VERTEX
  8
lettuce
 10
0.0
 20
0.0
 30
0.0
 70
   128
 71
   24
 72
   34
 73
   29
  0
VERTEX
  8
lettuce
 10
0.0
 20
0.0
 30
0.0
 70
   128
 71
   30
 72
   33
 73
   32
  0
VERTEX
  8
lettuce
 10
0.0
 20
0.0
 30
0.0
 70
   128
 71
   29
 72
   28
 73
   27
  0
VERTEX
  8
lettuce
 10
0.0
 20
0.0
 30
0.0
 70
   128
 71
   29
 72
   27
 73
   26
  0
VERTEX
  8
lettuce
 10
0.0
 20
0.0
 30
0.0
 70
   128
 71
   19
 72
   24
 73
   23
  0
VERTEX
  8
lettuce
 10
0.0
 20
0.0
 30
0.0
 70
   128
 71
   24
 72
   19
 73
   12
  0
VERTEX
  8
lettuce
 10
0.0
 20
0.0
 30
0.0
 70
   128
 71
   48
 72
   49
 73
   50
  0
VERTEX
  8
lettuce
 10
0.0
 20
0.0
 30
0.0
 70
   128
 71
   65
 72
   52
 73
   53
  0
VERTEX
  8
lettuce
 10
0.0
 20
0.0
 30
0.0
 70
   128
 71
   53
 72
   54
 73
   57
  0
VERTEX
  8
lettuce
 10
0.0
 20
0.0
 30
0.0
 70
   128
 71
   23
 72
   22
 73
   21
  0
VERTEX
  8
lettuce
 10
0.0
 20
0.0
 30
0.0
 70
   128
 71
   12
 72
   19
 73
   18
  0
VERTEX
  8
lettuce
 10
0.0
 20
0.0
 30
0.0
 70
   128
 71
   12
 72
   17
 73
   16
  0
VERTEX
  8
lettuce
 10
0.0
 20
0.0
 30
0.0
 70
   128
 71
   13
 72
   16
 73
   15
  0
VERTEX
  8
lettuce
 10
0.0
 20
0.0
 30
0.0
 70
   128
 71
   6
 72
   11
 73
   10
  0
VERTEX
  8
lettuce
 10
0.0
 20
0.0
 30
0.0
 70
   128
 71
   7
 72
   10
 73
   9
  0
VERTEX
  8
lettuce
 10
0.0
 20
0.0
 30
0.0
 70
   128
 71
   53
 72
   58
 73
   59
  0
VERTEX
  8
lettuce
 10
0.0
 20
0.0
 30
0.0
 70
   128
 71
   54
 72
   55
 73
   56
  0
VERTEX
  8
lettuce
 10
0.0
 20
0.0
 30
0.0
 70
   128
 71
   60
 72
   61
 73
   64
  0
VERTEX
  8
lettuce
 10
0.0
 20
0.0
 30
0.0
 70
   128
 71
   64
 72
   61
 73
   62
  0
VERTEX
  8
lettuce
 10
0.0
 20
0.0
 30
0.0
 70
   128
 71
   65
 72
   66
 73
   70
  0
VERTEX
  8
lettuce
 10
0.0
 20
0.0
 30
0.0
 70
   128
 71
   70
 72
   66
 73
   67
  0
VERTEX
  8
lettuce
 10
0.0
 20
0.0
 30
0.0
 70
   128
 71
   68
 72
   69
 73
   70
  0
VERTEX
  8
lettuce
 10
0.0
 20
0.0
 30
0.0
 70
   128
 71
   75
 72
   70
 73
   71
  0
VERTEX
  8
lettuce
 10
0.0
 20
0.0
 30
0.0
 70
   128
 71
   71
 72
   72
 73
   73
  0
VERTEX
  8
lettuce
 10
0.0
 20
0.0
 30
0.0
 70
   128
 71
   75
 72
   76
 73
   79
  0
VERTEX
  8
lettuce
 10
0.0
 20
0.0
 30
0.0
 70
   128
 71
   76
 72
   77
 73
   78
  0
VERTEX
  8
lettuce
 10
0.0
 20
0.0
 30
0.0
 70
   128
 71
   80
 72
   82
 73
   42
  0
VERTEX
  8
lettuce
 10
0.0
 20
0.0
 30
0.0
 70
   128
 71
   80
 72
   81
 73
   82
  0
VERTEX
  8
lettuce
 10
0.0
 20
0.0
 30
0.0
 70
   128
 71
   1
 72
   43
 73
   42
  0
VERTEX
  8
lettuce
 10
0.0
 20
0.0
 30
0.0
 70
   128
 71
   2
 72
   44
 73
   43
  0
VERTEX
  8
lettuce
 10
0.0
 20
0.0
 30
0.0
 70
   128
 71
   3
 72
   45
 73
   44
  0
VERTEX
  8
lettuce
 10
0.0
 20
0.0
 30
0.0
 70
   128
 71
   4
 72
   46
 73
   45
  0
VERTEX
  8
lettuce
 10
0.0
 20
0.0
 30
0.0
 70
   128
 71
   5
 72
   47
 73
   46
  0
VERTEX
  8
lettuce
 10
0.0
 20
0.0
 30
0.0
 70
   128
 71
   6
 72
   48
 73
   47
  0
VERTEX
  8
lettuce
 10
0.0
 20
0.0
 30
0.0
 70
   128
 71
   7
 72
   49
 73
   48
  0
VERTEX
  8
lettuce
 10
0.0
 20
0.0
 30
0.0
 70
   128
 71
   8
 72
   50
 73
   49
  0
VERTEX
  8
lettuce
 10
0.0
 20
0.0
 30
0.0
 70
   128
 71
   9
 72
   51
 73
   50
  0
VERTEX
  8
lettuce
 10
0.0
 20
0.0
 30
0.0
 70
   128
 71
   10
 72
   52
 73
   51
  0
VERTEX
  8
lettuce
 10
0.0
 20
0.0
 30
0.0
 70
   128
 71
   11
 72
   53
 73
   52
  0
VERTEX
  8
lettuce
 10
0.0
 20
0.0
 30
0.0
 70
   128
 71
   12
 72
   54
 73
   53
  0
VERTEX
  8
lettuce
 10
0.0
 20
0.0
 30
0.0
 70
   128
 71
   13
 72
   55
 73
   54
  0
VERTEX
  8
lettuce
 10
0.0
 20
0.0
 30
0.0
 70
   128
 71
   14
 72
   56
 73
   55
  0
VERTEX
  8
lettuce
 10
0.0
 20
0.0
 30
0.0
 70
   128
 71
   15
 72
   57
 73
   56
  0
VERTEX
  8
lettuce
 10
0.0
 20
0.0
 30
0.0
 70
   128
 71
   16
 72
   58
 73
   57
  0
VERTEX
  8
lettuce
 10
0.0
 20
0.0
 30
0.0
 70
   128
 71
   17
 72
   59
 73
   58
  0
VERTEX
  8
lettuce
 10
0.0
 20
0.0
 30
0.0
 70
   128
 71
   18
 72
   60
 73
   59
  0
VERTEX
  8
lettuce
 10
0.0
 20
0.0
 30
0.0
 70
   128
 71
   19
 72
   61
 73
   60
  0
VERTEX
  8
lettuce
 10
0.0
 20
0.0
 30
0.0
 70
   128
 71
   20
 72
   62
 73
   61
  0
VERTEX
  8
lettuce
 10
0.0
 20
0.0
 30
0.0
 70
   128
 71
   21
 72
   63
 73
   62
  0
VERTEX
  8
lettuce
 10
0.0
 20
0.0
 30
0.0
 70
   128
 71
   22
 72
   64
 73
   63
  0
VERTEX
  8
lettuce
 10
0.0
 20
0.0
 30
0.0
 70
   128
 71
   23
 72
   65
 73
   64
  0
VERTEX
  8
lettuce
 10
0.0
 20
0.0
 30
0.0
 70
   128
 71
   24
 72
   66
 73
   65
  0
VERTEX
  8
lettuce
 10
0.0
 20
0.0
 30
0.0
 70
   128
 71
   25
 72
   67
 73
   66
  0
VERTEX
  8
lettuce
 10
0.0
 20
0.0
 30
0.0
 70
   128
 71
   26
 72
   68
 73
   67
  0
VERTEX
  8
lettuce
 10
0.0
 20
0.0
 30
0.0
 70
   128
 71
   27
 72
   69
 73
   68
  0
VERTEX
  8
lettuce
 10
0.0
 20
0.0
 30
0.0
 70
   128
 71
   28
 72
   70
 73
   69
  0
VERTEX
  8
lettuce
 10
0.0
 20
0.0
 30
0.0
 70
   128
 71
   29
 72
   71
 73
   70
  0
VERTEX
  8
lettuce
 10
0.0
 20
0.0
 30
0.0
 70
   128
 71
   30
 72
   72
 73
   71
  0
VERTEX
  8
lettuce
 10
0.0
 20
0.0
 30
0.0
 70
   128
 71
   31
 72
   73
 73
   72
  0
VERTEX
  8
lettuce
 10
0.0
 20
0.0
 30
0.0
 70
   128
 71
   32
 72
   74
 73
   73
  0
VERTEX
  8
lettuce
 10
0.0
 20
0.0
 30
0.0
 70
   128
 71
   33
 72
   75
 73
   74
  0
VERTEX
  8
lettuce
 10
0.0
 20
0.0
 30
0.0
 70
   128
 71
   34
 72
   76
 73
   75
  0
VERTEX
  8
lettuce
 10
0.0
 20
0.0
 30
0.0
 70
   128
 71
   35
 72
   77
 73
   76
  0
VERTEX
  8
lettuce
 10
0.0
 20
0.0
 30
0.0
 70
   128
 71
   36
 72
   78
 73
   77
  0
VERTEX
  8
lettuce
 10
0.0
 20
0.0
 30
0.0
 70
   128
 71
   37
 72
   79
 73
   78
  0
VERTEX
  8
lettuce
 10
0.0
 20
0.0
 30
0.0
 70
   128
 71
   38
 72
   80
 73
   79
  0
VERTEX
  8
lettuce
 10
0.0
 20
0.0
 30
0.0
 70
   128
 71
   39
 72
   81
 73
   80
  0
VERTEX
  8
lettuce
 10
0.0
 20
0.0
 30
0.0
 70
   128
 71
   40
 72
   82
 73
   81
  0
VERTEX
  8
lettuce
 10
0.0
 20
0.0
 30
0.0
 70
   128
 71
   41
 72
   42
 73
   82
  0
VERTEX
  8
lettuce
 10
0.0
 20
0.0
 30
0.0
 70
   128
 71
   3
 72
   5
 73
   4
  0
VERTEX
  8
lettuce
 10
0.0
 20
0.0
 30
0.0
 70
   128
 71
   1
 72
   39
 73
   5
  0
VERTEX
  8
lettuce
 10
0.0
 20
0.0
 30
0.0
 70
   128
 71
   46
 72
   44
 73
   45
  0
VERTEX
  8
lettuce
 10
0.0
 20
0.0
 30
0.0
 70
   128
 71
   5
 72
   34
 73
   6
  0
VERTEX
  8
lettuce
 10
0.0
 20
0.0
 30
0.0
 70
   128
 71
   34
 72
   38
 73
   35
  0
VERTEX
  8
lettuce
 10
0.0
 20
0.0
 30
0.0
 70
   128
 71
   35
 72
   37
 73
   36
  0
VERTEX
  8
lettuce
 10
0.0
 20
0.0
 30
0.0
 70
   128
 71
   6
 72
   24
 73
   11
  0
VERTEX
  8
lettuce
 10
0.0
 20
0.0
 30
0.0
 70
   128
 71
   75
 72
   46
 73
   47
  0
VERTEX
  8
lettuce
 10
0.0
 20
0.0
 30
0.0
 70
   128
 71
   65
 72
   47
 73
   52
  0
VERTEX
  8
lettuce
 10
0.0
 20
0.0
 30
0.0
 70
   128
 71
   47
 72
   51
 73
   52
  0
VERTEX
  8
lettuce
 10
0.0
 20
0.0
 30
0.0
 70
   128
 71
   34
 72
   30
 73
   29
  0
VERTEX
  8
lettuce
 10
0.0
 20
0.0
 30
0.0
 70
   128
 71
   24
 72
   29
 73
   25
  0
VERTEX
  8
lettuce
 10
0.0
 20
0.0
 30
0.0
 70
   128
 71
   30
 72
   32
 73
   31
  0
VERTEX
  8
lettuce
 10
0.0
 20
0.0
 30
0.0
 70
   128
 71
   29
 72
   26
 73
   25
  0
VERTEX
  8
lettuce
 10
0.0
 20
0.0
 30
0.0
 70
   128
 71
   19
 72
   23
 73
   20
  0
VERTEX
  8
lettuce
 10
0.0
 20
0.0
 30
0.0
 70
   128
 71
   24
 72
   12
 73
   11
  0
VERTEX
  8
lettuce
 10
0.0
 20
0.0
 30
0.0
 70
   128
 71
   48
 72
   50
 73
   51
  0
VERTEX
  8
lettuce
 10
0.0
 20
0.0
 30
0.0
 70
   128
 71
   65
 72
   53
 73
   60
  0
VERTEX
  8
lettuce
 10
0.0
 20
0.0
 30
0.0
 70
   128
 71
   53
 72
   57
 73
   58
  0
VERTEX
  8
lettuce
 10
0.0
 20
0.0
 30
0.0
 70
   128
 71
   23
 72
   21
 73
   20
  0
VERTEX
  8
lettuce
 10
0.0
 20
0.0
 30
0.0
 70
   128
 71
   12
 72
   18
 73
   17
  0
VERTEX
  8
lettuce
 10
0.0
 20
0.0
 30
0.0
 70
   128
 71
   12
 72
   16
 73
   13
  0
VERTEX
  8
lettuce
 10
0.0
 20
0.0
 30
0.0
 70
   128
 71
   13
 72
   15
 73
   14
  0
VERTEX
  8
lettuce
 10
0.0
 20
0.0
 30
0.0
 70
   128
 71
   6
 72
   10
 73
   7
  0
VERTEX
  8
lettuce
 10
0.0
 20
0.0
 30
0.0
 70
   128
 71
   7
 72
   9
 73
   8
  0
VERTEX
  8
lettuce
 10
0.0
 20
0.0
 30
0.0
 70
   128
 71
   53
 72
   59
 73
   60
  0
VERTEX
  8
lettuce
 10
0.0
 20
0.0
 30
0.0
 70
   128
 71
   54
 72
   56
 73
   57
  0
VERTEX
  8
lettuce
 10
0.0
 20
0.0
 30
0.0
 70
   128
 71
   60
 72
   64
 73
   65
  0
VERTEX
  8
lettuce
 10
0.0
 20
0.0
 30
0.0
 70
   128
 71
   64
 72
   62
 73
   63
  0
VERTEX
  8
lettuce
 10
0.0
 20
0.0
 30
0.0
 70
   128
 71
   65
 72
   70
 73
   75
  0
VERTEX
  8
lettuce
 10
0.0
 20
0.0
 30
0.0
 70
   128
 71
   70
 72
   67
 73
   68
  0
VERTEX
  8
lettuce
 10
0.0
 20
0.0
 30
0.0
 70
   128
 71
   75
 72
   71
 73
   74
  0
VERTEX
  8
lettuce
 10
0.0
 20
0.0
 30
0.0
 70
   128
 71
   71
 72
   73
 73
   74
  0
VERTEX
  8
lettuce
 10
0.0
 20
0.0
 30
0.0
 70
   128
 71
   75
 72
   79
 73
   80
  0
VERTEX
  8
lettuce
 10
0.0
 20
0.0
 30
0.0
 70
   128
 71
   76
 72
   78
 73
   79
  0
VERTEX
  8
lettuce
 10
0.0
 20
0.0
 30
0.0
 70
   128
 71
   80
 72
   42
 73
   46
  0
SEQEND
  0
POLYLINE
  8
cheese
 66
   1
 10
0.0
 20
0.0
 30
0.0
 70
   64
 71
   97
 72
   190
  0
VERTEX
  8
cheese
 10
-93.037312
 20
61.396553
 30
93.164118
 70
   192
  0
VERTEX
  8
cheese
 10
-93.518762
 20
72.116544
 30
93.706612
 70
   192
  0
VERTEX
  8
cheese
 10
93.430641
 20
66.500429
 30
93.433738
 70
   192
  0
VERTEX
  8
cheese
 10
93.696644
 20
77.037187
 30
93.613208
 70
   192
  0
VERTEX
  8
cheese
 10
93.136595
 20
62.287531
 30
-93.096572
 70
   192
  0
VERTEX
  8
cheese
 10
93.438070
 20
73.135466
 30
-93.683273
 70
   192
  0
VERTEX
  8
cheese
 10
-93.580448
 20
70.617017
 30
-93.441715
 70
   192
  0
VERTEX
  8
cheese
 10
-93.676002
 20
81.285295
 30
-93.485678
 70
   192
  0
VERTEX
  8
cheese
 10
-46.704898
 20
73.665243
 30
93.515887
 70
   192
  0
VERTEX
  8
cheese
 10
-46.766239
 20
82.609936
 30
93.766229
 70
   192
  0
VERTEX
  8
cheese
 10
-46.847630
 20
73.975540
 30
-93.527737
 70
   192
  0
VERTEX
  8
cheese
 10
-46.851956
 20
83.159583
 30
-93.453298
 70
   192
  0
VERTEX
  8
cheese
 10
0.049758
 20
76.612688
 30
93.542919
 70
   192
  0
VERTEX
  8
cheese
 10
0.047210
 20
84.481039
 30
93.700860
 70
   192
  0
VERTEX
  8
cheese
 10
-0.061015
 20
74.941817
 30
-93.550275
 70
   192
  0
VERTEX
  8
cheese
 10
-0.062414
 20
82.938851
 30
-93.503242
 70
   192
  0
VERTEX
  8
cheese
 10
46.807495
 20
73.822665
 30
93.525501
 70
   192
  0
VERTEX
  8
cheese
 10
46.860414
 20
83.115685
 30
93.655160
 70
   192
  0
VERTEX
  8
cheese
 10
46.714016
 20
73.475492
 30
-93.556468
 70
   192
  0
VERTEX
  8
cheese
 10
46.738512
 20
82.590943
 30
-93.555797
 70
   192
  0
VERTEX
  8
cheese
 10
-93.496150
 20
74.099419
 30
46.865107
 70
   192
  0
VERTEX
  8
cheese
 10
-93.576322
 20
83.214777
 30
46.915557
 70
   192
  0
VERTEX
  8
cheese
 10
93.579979
 20
73.669613
 30
46.720755
 70
   192
  0
VERTEX
  8
cheese
 10
93.594306
 20
83.047920
 30
46.838276
 70
   192
  0
VERTEX
  8
cheese
 10
-46.742688
 20
76.899625
 30
46.777167
 70
   192
  0
VERTEX
  8
cheese
 10
-46.784139
 20
82.316752
 30
46.918376
 70
   192
  0
VERTEX
  8
cheese
 10
0.032127
 20
76.418997
 30
46.773526
 70
   192
  0
VERTEX
  8
cheese
 10
0.012659
 20
82.307881
 30
46.901398
 70
   192
  0
VERTEX
  8
cheese
 10
46.806995
 20
76.887231
 30
46.759652
 70
   192
  0
VERTEX
  8
cheese
 10
46.811215
 20
82.253823
 30
46.848418
 70
   192
  0
VERTEX
  8
cheese
 10
93.543882
 20
75.520517
 30
-0.014341
 70
   192
  0
VERTEX
  8
cheese
 10
93.577434
 20
83.710702
 30
0.012214
 70
   192
  0
VERTEX
  8
cheese
 10
-93.620741
 20
75.011649
 30
0.108690
 70
   192
  0
VERTEX
  8
cheese
 10
-93.581358
 20
82.987938
 30
0.103379
 70
   192
  0
VERTEX
  8
cheese
 10
-46.803974
 20
76.348457
 30
0.015040
 70
   192
  0
VERTEX
  8
cheese
 10
-46.801030
 20
82.046591
 30
0.124555
 70
   192
  0
VERTEX
  8
cheese
 10
-0.018255
 20
76.393417
 30
0.011477
 70
   192
  0
VERTEX
  8
cheese
 10
-70.757973
 20
82.040657
 30
-71.723263
 70
   192
  0
VERTEX
  8
cheese
 10
46.770152
 20
76.386656
 30
-0.014723
 70
   192
  0
VERTEX
  8
cheese
 10
46.778576
 20
82.215331
 30
0.051699
 70
   192
  0
VERTEX
  8
cheese
 10
93.507209
 20
73.811431
 30
-46.769706
 70
   192
  0
VERTEX
  8
cheese
 10
93.560531
 20
83.006389
 30
-46.807178
 70
   192
  0
VERTEX
  8
cheese
 10
-93.621226
 20
73.295488
 30
-46.672243
 70
   192
  0
VERTEX
  8
cheese
 10
-93.598214
 20
82.559282
 30
-46.688801
 70
   192
  0
VERTEX
  8
cheese
 10
-46.825792
 20
76.840531
 30
-46.748144
 70
   192
  0
VERTEX
  8
cheese
 10
-46.807033
 20
82.086085
 30
-46.676537
 70
   192
  0
VERTEX
  8
cheese
 10
-0.048395
 20
76.245966
 30
-46.774249
 70
   192
  0
VERTEX
  8
cheese
 10
-0.040711
 20
81.996902
 30
-46.701555
 70
   192
  0
VERTEX
  8
cheese
 10
46.721209
 20
76.969172
 30
-46.767386
 70
   192
  0
VERTEX
  8
cheese
 10
46.769355
 20
82.207840
 30
-46.755802
 70
   192
  0
VERTEX
  8
cheese
 10
-93.469740
 20
72.177946
 30
67.302273
 70
   192
  0
VERTEX
  8
cheese
 10
-93.580972
 20
82.051765
 30
67.739058
 70
   192
  0
VERTEX
  8
cheese
 10
93.570470
 20
71.623969
 30
67.359390
 70
   192
  0
VERTEX
  8
cheese
 10
93.628995
 20
80.841970
 30
67.476451
 70
   192
  0
VERTEX
  8
cheese
 10
-46.714750
 20
76.455495
 30
67.389438
 70
   192
  0
VERTEX
  8
cheese
 10
-46.776072
 20
82.404006
 30
67.605366
 70
   192
  0
VERTEX
  8
cheese
 10
0.049113
 20
77.433804
 30
67.408927
 70
   192
  0
VERTEX
  8
cheese
 10
0.020834
 20
82.719448
 30
67.540261
 70
   192
  0
VERTEX
  8
cheese
 10
46.818710
 20
76.511445
 30
67.387102
 70
   192
  0
VERTEX
  8
cheese
 10
46.825355
 20
82.207716
 30
67.496419
 70
   192
  0
VERTEX
  8
cheese
 10
93.530788
 20
72.192455
 30
-71.635211
 70
   192
  0
VERTEX
  8
cheese
 10
93.487532
 20
82.099731
 30
-72.096636
 70
   192
  0
VERTEX
  8
cheese
 10
-93.623951
 20
72.731442
 30
-71.751576
 70
   192
  0
VERTEX
  8
cheese
 10
-93.609742
 20
82.337988
 30
-71.765335
 70
   192
  0
VERTEX
  8
cheese
 10
-46.839239
 20
76.362601
 30
-71.818515
 70
   192
  0
VERTEX
  8
cheese
 10
-46.840176
 20
82.174652
 30
-71.743738
 70
   192
  0
VERTEX
  8
cheese
 10
-0.056448
 20
76.927865
 30
-71.840692
 70
   192
  0
VERTEX
  8
cheese
 10
-0.033439
 20
82.243388
 30
-71.789788
 70
   192
  0
VERTEX
  8
cheese
 10
46.704773
 20
76.425780
 30
-71.825893
 70
   192
  0
VERTEX
  8
cheese
 10
46.741341
 20
82.239617
 30
-71.846535
 70
   192
  0
VERTEX
  8
cheese
 10
69.441741
 20
71.805180
 30
93.522061
 70
   192
  0
VERTEX
  8
cheese
 10
69.670897
 20
81.527566
 30
93.618876
 70
   192
  0
VERTEX
  8
cheese
 10
69.445426
 20
72.593512
 30
-93.457118
 70
   192
  0
VERTEX
  8
cheese
 10
69.474193
 20
82.478504
 30
-93.580719
 70
   192
  0
VERTEX
  8
cheese
 10
69.519600
 20
76.503167
 30
46.752179
 70
   192
  0
VERTEX
  8
cheese
 10
69.551012
 20
82.115826
 30
46.828763
 70
   192
  0
VERTEX
  8
cheese
 10
69.487901
 20
77.227633
 30
-0.007884
 70
   192
  0
VERTEX
  8
cheese
 10
69.505059
 20
82.623696
 30
0.030305
 70
   192
  0
VERTEX
  8
cheese
 10
69.435559
 20
76.401342
 30
-46.763324
 70
   192
  0
VERTEX
  8
cheese
 10
69.478374
 20
82.328486
 30
-46.764368
 70
   192
  0
VERTEX
  8
cheese
 10
69.519467
 20
75.405531
 30
67.373887
 70
   192
  0
VERTEX
  8
cheese
 10
69.572922
 20
81.897359
 30
67.479664
 70
   192
  0
VERTEX
  8
cheese
 10
69.417613
 20
74.791774
 30
-71.778125
 70
   192
  0
VERTEX
  8
cheese
 10
69.475736
 20
82.182626
 30
-71.877747
 70
   192
  0
VERTEX
  8
cheese
 10
-70.451641
 20
71.795986
 30
93.535164
 70
   192
  0
VERTEX
  8
cheese
 10
-70.918480
 20
81.717027
 30
93.750892
 70
   192
  0
VERTEX
  8
cheese
 10
-70.747682
 20
72.799793
 30
-93.514744
 70
   192
  0
VERTEX
  8
cheese
 10
-70.816176
 20
82.382198
 30
-93.432939
 70
   192
  0
VERTEX
  8
cheese
 10
-70.664570
 20
76.464999
 30
46.793085
 70
   192
  0
VERTEX
  8
cheese
 10
-70.738424
 20
82.316927
 30
46.944067
 70
   192
  0
VERTEX
  8
cheese
 10
-70.748542
 20
77.090674
 30
0.039829
 70
   192
  0
VERTEX
  8
cheese
 10
-70.737193
 20
82.352387
 30
0.133947
 70
   192
  0
VERTEX
  8
cheese
 10
-70.771655
 20
76.306844
 30
-46.728536
 70
   192
  0
VERTEX
  8
cheese
 10
-70.752664
 20
82.165661
 30
-46.652476
 70
   192
  0
VERTEX
  8
cheese
 10
-70.607332
 20
75.117242
 30
67.377082
 70
   192
  0
VERTEX
  8
cheese
 10
-70.744042
 20
82.234957
 30
67.628738
 70
   192
  0
VERTEX
  8
cheese
 10
-70.771044
 20
74.929962
 30
-71.790794
 70
   192
  0
VERTEX
  8
cheese
 10
0.0
 20
0.0
 30
0.0
 70
   128
 71
   72
 72
   4
 73
   3
  0
VERTEX
  8
cheese
 10
0.0
 20
0.0
 30
0.0
 70
   128
 71
   62
 72
   6
 73
   5
  0
VERTEX
  8
cheese
 10
0.0
 20
0.0
 30
0.0
 70
   128
 71
   88
 72
   8
 73
   7
  0
VERTEX
  8
cheese
 10
0.0
 20
0.0
 30
0.0
 70
   128
 71
   52
 72
   2
 73
   1
  0
VERTEX
  8
cheese
 10
0.0
 20
0.0
 30
0.0
 70
   128
 71
   74
 72
   6
 73
   62
  0
VERTEX
  8
cheese
 10
0.0
 20
0.0
 30
0.0
 70
   128
 71
   33
 72
   21
 73
   89
  0
VERTEX
  8
cheese
 10
0.0
 20
0.0
 30
0.0
 70
   128
 71
   85
 72
   1
 73
   2
  0
VERTEX
  8
cheese
 10
0.0
 20
0.0
 30
0.0
 70
   128
 71
   11
 72
   15
 73
   16
  0
VERTEX
  8
cheese
 10
0.0
 20
0.0
 30
0.0
 70
   128
 71
   10
 72
   86
 73
   96
  0
VERTEX
  8
cheese
 10
0.0
 20
0.0
 30
0.0
 70
   128
 71
   67
 72
   15
 73
   11
  0
VERTEX
  8
cheese
 10
0.0
 20
0.0
 30
0.0
 70
   128
 71
   13
 72
   9
 73
   10
  0
VERTEX
  8
cheese
 10
0.0
 20
0.0
 30
0.0
 70
   128
 71
   66
 72
   12
 73
   16
  0
VERTEX
  8
cheese
 10
0.0
 20
0.0
 30
0.0
 70
   128
 71
   15
 72
   19
 73
   20
  0
VERTEX
  8
cheese
 10
0.0
 20
0.0
 30
0.0
 70
   128
 71
   69
 72
   19
 73
   15
  0
VERTEX
  8
cheese
 10
0.0
 20
0.0
 30
0.0
 70
   128
 71
   17
 72
   13
 73
   14
  0
VERTEX
  8
cheese
 10
0.0
 20
0.0
 30
0.0
 70
   128
 71
   68
 72
   16
 73
   20
  0
VERTEX
  8
cheese
 10
0.0
 20
0.0
 30
0.0
 70
   128
 71
   19
 72
   73
 73
   74
  0
VERTEX
  8
cheese
 10
0.0
 20
0.0
 30
0.0
 70
   128
 71
   23
 72
   31
 73
   77
  0
VERTEX
  8
cheese
 10
0.0
 20
0.0
 30
0.0
 70
   128
 71
   23
 72
   53
 73
   54
  0
VERTEX
  8
cheese
 10
0.0
 20
0.0
 30
0.0
 70
   128
 71
   21
 72
   33
 73
   34
  0
VERTEX
  8
cheese
 10
0.0
 20
0.0
 30
0.0
 70
   128
 71
   82
 72
   60
 73
   30
  0
VERTEX
  8
cheese
 10
0.0
 20
0.0
 30
0.0
 70
   128
 71
   95
 72
   55
 73
   25
  0
VERTEX
  8
cheese
 10
0.0
 20
0.0
 30
0.0
 70
   128
 71
   92
 72
   36
 73
   26
  0
VERTEX
  8
cheese
 10
0.0
 20
0.0
 30
0.0
 70
   128
 71
   25
 72
   55
 73
   57
  0
VERTEX
  8
cheese
 10
0.0
 20
0.0
 30
0.0
 70
   128
 71
   28
 72
   58
 73
   56
  0
VERTEX
  8
cheese
 10
0.0
 20
0.0
 30
0.0
 70
   128
 71
   57
 72
   13
 73
   17
  0
VERTEX
  8
cheese
 10
0.0
 20
0.0
 30
0.0
 70
   128
 71
   30
 72
   60
 73
   58
  0
VERTEX
  8
cheese
 10
0.0
 20
0.0
 30
0.0
 70
   128
 71
   71
 72
   3
 73
   53
  0
VERTEX
  8
cheese
 10
0.0
 20
0.0
 30
0.0
 70
   128
 71
   31
 72
   23
 73
   24
  0
VERTEX
  8
cheese
 10
0.0
 20
0.0
 30
0.0
 70
   128
 71
   76
 72
   30
 73
   40
  0
VERTEX
  8
cheese
 10
0.0
 20
0.0
 30
0.0
 70
   128
 71
   87
 72
   7
 73
   63
  0
VERTEX
  8
cheese
 10
0.0
 20
0.0
 30
0.0
 70
   128
 71
   35
 72
   25
 73
   27
  0
VERTEX
  8
cheese
 10
0.0
 20
0.0
 30
0.0
 70
   128
 71
   36
 72
   48
 73
   40
  0
VERTEX
  8
cheese
 10
0.0
 20
0.0
 30
0.0
 70
   128
 71
   37
 72
   27
 73
   29
  0
VERTEX
  8
cheese
 10
0.0
 20
0.0
 30
0.0
 70
   128
 71
   40
 72
   48
 73
   50
  0
VERTEX
  8
cheese
 10
0.0
 20
0.0
 30
0.0
 70
   128
 71
   31
 72
   41
 73
   79
  0
VERTEX
  8
cheese
 10
0.0
 20
0.0
 30
0.0
 70
   128
 71
   33
 72
   43
 73
   44
  0
VERTEX
  8
cheese
 10
0.0
 20
0.0
 30
0.0
 70
   128
 71
   94
 72
   46
 73
   36
  0
VERTEX
  8
cheese
 10
0.0
 20
0.0
 30
0.0
 70
   128
 71
   41
 72
   31
 73
   32
  0
VERTEX
  8
cheese
 10
0.0
 20
0.0
 30
0.0
 70
   128
 71
   78
 72
   40
 73
   50
  0
VERTEX
  8
cheese
 10
0.0
 20
0.0
 30
0.0
 70
   128
 71
   45
 72
   35
 73
   37
  0
VERTEX
  8
cheese
 10
0.0
 20
0.0
 30
0.0
 70
   128
 71
   40
 72
   30
 73
   28
  0
VERTEX
  8
cheese
 10
0.0
 20
0.0
 30
0.0
 70
   128
 71
   47
 72
   37
 73
   39
  0
VERTEX
  8
cheese
 10
0.0
 20
0.0
 30
0.0
 70
   128
 71
   28
 72
   26
 73
   36
  0
VERTEX
  8
cheese
 10
0.0
 20
0.0
 30
0.0
 70
   128
 71
   43
 72
   33
 73
   91
  0
VERTEX
  8
cheese
 10
0.0
 20
0.0
 30
0.0
 70
   128
 71
   41
 72
   61
 73
   83
  0
VERTEX
  8
cheese
 10
0.0
 20
0.0
 30
0.0
 70
   128
 71
   43
 72
   63
 73
   64
  0
VERTEX
  8
cheese
 10
0.0
 20
0.0
 30
0.0
 70
   128
 71
   38
 72
   66
 73
   46
  0
VERTEX
  8
cheese
 10
0.0
 20
0.0
 30
0.0
 70
   128
 71
   51
 72
   21
 73
   22
  0
VERTEX
  8
cheese
 10
0.0
 20
0.0
 30
0.0
 70
   128
 71
   90
 72
   26
 73
   56
  0
VERTEX
  8
cheese
 10
0.0
 20
0.0
 30
0.0
 70
   128
 71
   53
 72
   3
 73
   4
  0
VERTEX
  8
cheese
 10
0.0
 20
0.0
 30
0.0
 70
   128
 71
   72
 72
   18
 73
   60
  0
VERTEX
  8
cheese
 10
0.0
 20
0.0
 30
0.0
 70
   128
 71
   51
 72
   1
 73
   85
  0
VERTEX
  8
cheese
 10
0.0
 20
0.0
 30
0.0
 70
   128
 71
   55
 72
   9
 73
   13
  0
VERTEX
  8
cheese
 10
0.0
 20
0.0
 30
0.0
 70
   128
 71
   58
 72
   14
 73
   10
  0
VERTEX
  8
cheese
 10
0.0
 20
0.0
 30
0.0
 70
   128
 71
   59
 72
   29
 73
   27
  0
VERTEX
  8
cheese
 10
0.0
 20
0.0
 30
0.0
 70
   128
 71
   60
 72
   18
 73
   14
  0
VERTEX
  8
cheese
 10
0.0
 20
0.0
 30
0.0
 70
   128
 71
   53
 72
   23
 73
   75
  0
VERTEX
  8
cheese
 10
0.0
 20
0.0
 30
0.0
 70
   128
 71
   61
 72
   41
 73
   42
  0
VERTEX
  8
cheese
 10
0.0
 20
0.0
 30
0.0
 70
   128
 71
   80
 72
   50
 73
   70
  0
VERTEX
  8
cheese
 10
0.0
 20
0.0
 30
0.0
 70
   128
 71
   65
 72
   45
 73
   47
  0
VERTEX
  8
cheese
 10
0.0
 20
0.0
 30
0.0
 70
   128
 71
   68
 72
   48
 73
   46
  0
VERTEX
  8
cheese
 10
0.0
 20
0.0
 30
0.0
 70
   128
 71
   67
 72
   47
 73
   49
  0
VERTEX
  8
cheese
 10
0.0
 20
0.0
 30
0.0
 70
   128
 71
   70
 72
   50
 73
   48
  0
VERTEX
  8
cheese
 10
0.0
 20
0.0
 30
0.0
 70
   128
 71
   93
 72
   45
 73
   65
  0
VERTEX
  8
cheese
 10
0.0
 20
0.0
 30
0.0
 70
   128
 71
   61
 72
   5
 73
   73
  0
VERTEX
  8
cheese
 10
0.0
 20
0.0
 30
0.0
 70
   128
 71
   63
 72
   7
 73
   8
  0
VERTEX
  8
cheese
 10
0.0
 20
0.0
 30
0.0
 70
   128
 71
   64
 72
   8
 73
   88
  0
VERTEX
  8
cheese
 10
0.0
 20
0.0
 30
0.0
 70
   128
 71
   71
 72
   17
 73
   18
  0
VERTEX
  8
cheese
 10
0.0
 20
0.0
 30
0.0
 70
   128
 71
   84
 72
   70
 73
   20
  0
VERTEX
  8
cheese
 10
0.0
 20
0.0
 30
0.0
 70
   128
 71
   73
 72
   5
 73
   6
  0
VERTEX
  8
cheese
 10
0.0
 20
0.0
 30
0.0
 70
   128
 71
   77
 72
   39
 73
   29
  0
VERTEX
  8
cheese
 10
0.0
 20
0.0
 30
0.0
 70
   128
 71
   76
 72
   24
 73
   54
  0
VERTEX
  8
cheese
 10
0.0
 20
0.0
 30
0.0
 70
   128
 71
   81
 72
   59
 73
   17
  0
VERTEX
  8
cheese
 10
0.0
 20
0.0
 30
0.0
 70
   128
 71
   78
 72
   32
 73
   24
  0
VERTEX
  8
cheese
 10
0.0
 20
0.0
 30
0.0
 70
   128
 71
   79
 72
   49
 73
   39
  0
VERTEX
  8
cheese
 10
0.0
 20
0.0
 30
0.0
 70
   128
 71
   80
 72
   42
 73
   32
  0
VERTEX
  8
cheese
 10
0.0
 20
0.0
 30
0.0
 70
   128
 71
   83
 72
   69
 73
   49
  0
VERTEX
  8
cheese
 10
0.0
 20
0.0
 30
0.0
 70
   128
 71
   82
 72
   54
 73
   4
  0
VERTEX
  8
cheese
 10
0.0
 20
0.0
 30
0.0
 70
   128
 71
   75
 72
   29
 73
   59
  0
VERTEX
  8
cheese
 10
0.0
 20
0.0
 30
0.0
 70
   128
 71
   84
 72
   62
 73
   42
  0
VERTEX
  8
cheese
 10
0.0
 20
0.0
 30
0.0
 70
   128
 71
   73
 72
   19
 73
   69
  0
VERTEX
  8
cheese
 10
0.0
 20
0.0
 30
0.0
 70
   128
 71
   87
 72
   11
 73
   12
  0
VERTEX
  8
cheese
 10
0.0
 20
0.0
 30
0.0
 70
   128
 71
   89
 72
   25
 73
   35
  0
VERTEX
  8
cheese
 10
0.0
 20
0.0
 30
0.0
 70
   128
 71
   86
 72
   10
 73
   9
  0
VERTEX
  8
cheese
 10
0.0
 20
0.0
 30
0.0
 70
   128
 71
   86
 72
   2
 73
   52
  0
VERTEX
  8
cheese
 10
0.0
 20
0.0
 30
0.0
 70
   128
 71
   89
 72
   21
 73
   51
  0
VERTEX
  8
cheese
 10
0.0
 20
0.0
 30
0.0
 70
   128
 71
   90
 72
   22
 73
   34
  0
VERTEX
  8
cheese
 10
0.0
 20
0.0
 30
0.0
 70
   128
 71
   97
 72
   65
 73
   11
  0
VERTEX
  8
cheese
 10
0.0
 20
0.0
 30
0.0
 70
   128
 71
   92
 72
   34
 73
   44
  0
VERTEX
  8
cheese
 10
0.0
 20
0.0
 30
0.0
 70
   128
 71
   91
 72
   35
 73
   45
  0
VERTEX
  8
cheese
 10
0.0
 20
0.0
 30
0.0
 70
   128
 71
   94
 72
   44
 73
   64
  0
VERTEX
  8
cheese
 10
0.0
 20
0.0
 30
0.0
 70
   128
 71
   96
 72
   52
 73
   22
  0
VERTEX
  8
cheese
 10
0.0
 20
0.0
 30
0.0
 70
   128
 71
   85
 72
   9
 73
   55
  0
VERTEX
  8
cheese
 10
0.0
 20
0.0
 30
0.0
 70
   128
 71
   97
 72
   63
 73
   43
  0
VERTEX
  8
cheese
 10
0.0
 20
0.0
 30
0.0
 70
   128
 71
   88
 72
   12
 73
   66
  0
VERTEX
  8
cheese
 10
0.0
 20
0.0
 30
0.0
 70
   128
 71
   36
 72
   46
 73
   48
  0
VERTEX
  8
cheese
 10
0.0
 20
0.0
 30
0.0
 70
   128
 71
   72
 72
   3
 73
   71
  0
VERTEX
  8
cheese
 10
0.0
 20
0.0
 30
0.0
 70
   128
 71
   62
 72
   5
 73
   61
  0
VERTEX
  8
cheese
 10
0.0
 20
0.0
 30
0.0
 70
   128
 71
   88
 72
   7
 73
   87
  0
VERTEX
  8
cheese
 10
0.0
 20
0.0
 30
0.0
 70
   128
 71
   52
 72
   1
 73
   51
  0
VERTEX
  8
cheese
 10
0.0
 20
0.0
 30
0.0
 70
   128
 71
   74
 72
   62
 73
   84
  0
VERTEX
  8
cheese
 10
0.0
 20
0.0
 30
0.0
 70
   128
 71
   33
 72
   89
 73
   91
  0
VERTEX
  8
cheese
 10
0.0
 20
0.0
 30
0.0
 70
   128
 71
   85
 72
   2
 73
   86
  0
VERTEX
  8
cheese
 10
0.0
 20
0.0
 30
0.0
 70
   128
 71
   11
 72
   16
 73
   12
  0
VERTEX
  8
cheese
 10
0.0
 20
0.0
 30
0.0
 70
   128
 71
   10
 72
   96
 73
   56
  0
VERTEX
  8
cheese
 10
0.0
 20
0.0
 30
0.0
 70
   128
 71
   67
 72
   11
 73
   65
  0
VERTEX
  8
cheese
 10
0.0
 20
0.0
 30
0.0
 70
   128
 71
   13
 72
   10
 73
   14
  0
VERTEX
  8
cheese
 10
0.0
 20
0.0
 30
0.0
 70
   128
 71
   66
 72
   16
 73
   68
  0
VERTEX
  8
cheese
 10
0.0
 20
0.0
 30
0.0
 70
   128
 71
   15
 72
   20
 73
   16
  0
VERTEX
  8
cheese
 10
0.0
 20
0.0
 30
0.0
 70
   128
 71
   69
 72
   15
 73
   67
  0
VERTEX
  8
cheese
 10
0.0
 20
0.0
 30
0.0
 70
   128
 71
   17
 72
   14
 73
   18
  0
VERTEX
  8
cheese
 10
0.0
 20
0.0
 30
0.0
 70
   128
 71
   68
 72
   20
 73
   70
  0
VERTEX
  8
cheese
 10
0.0
 20
0.0
 30
0.0
 70
   128
 71
   19
 72
   74
 73
   20
  0
VERTEX
  8
cheese
 10
0.0
 20
0.0
 30
0.0
 70
   128
 71
   23
 72
   77
 73
   75
  0
VERTEX
  8
cheese
 10
0.0
 20
0.0
 30
0.0
 70
   128
 71
   23
 72
   54
 73
   24
  0
VERTEX
  8
cheese
 10
0.0
 20
0.0
 30
0.0
 70
   128
 71
   21
 72
   34
 73
   22
  0
VERTEX
  8
cheese
 10
0.0
 20
0.0
 30
0.0
 70
   128
 71
   82
 72
   30
 73
   76
  0
VERTEX
  8
cheese
 10
0.0
 20
0.0
 30
0.0
 70
   128
 71
   95
 72
   25
 73
   89
  0
VERTEX
  8
cheese
 10
0.0
 20
0.0
 30
0.0
 70
   128
 71
   92
 72
   26
 73
   90
  0
VERTEX
  8
cheese
 10
0.0
 20
0.0
 30
0.0
 70
   128
 71
   25
 72
   57
 73
   27
  0
VERTEX
  8
cheese
 10
0.0
 20
0.0
 30
0.0
 70
   128
 71
   28
 72
   56
 73
   26
  0
VERTEX
  8
cheese
 10
0.0
 20
0.0
 30
0.0
 70
   128
 71
   57
 72
   17
 73
   59
  0
VERTEX
  8
cheese
 10
0.0
 20
0.0
 30
0.0
 70
   128
 71
   30
 72
   58
 73
   28
  0
VERTEX
  8
cheese
 10
0.0
 20
0.0
 30
0.0
 70
   128
 71
   71
 72
   53
 73
   81
  0
VERTEX
  8
cheese
 10
0.0
 20
0.0
 30
0.0
 70
   128
 71
   31
 72
   24
 73
   32
  0
VERTEX
  8
cheese
 10
0.0
 20
0.0
 30
0.0
 70
   128
 71
   76
 72
   40
 73
   78
  0
VERTEX
  8
cheese
 10
0.0
 20
0.0
 30
0.0
 70
   128
 71
   87
 72
   63
 73
   97
  0
VERTEX
  8
cheese
 10
0.0
 20
0.0
 30
0.0
 70
   128
 71
   35
 72
   27
 73
   37
  0
VERTEX
  8
cheese
 10
0.0
 20
0.0
 30
0.0
 70
   128
 71
   36
 72
   40
 73
   28
  0
VERTEX
  8
cheese
 10
0.0
 20
0.0
 30
0.0
 70
   128
 71
   37
 72
   29
 73
   39
  0
VERTEX
  8
cheese
 10
0.0
 20
0.0
 30
0.0
 70
   128
 71
   31
 72
   79
 73
   77
  0
VERTEX
  8
cheese
 10
0.0
 20
0.0
 30
0.0
 70
   128
 71
   33
 72
   44
 73
   34
  0
VERTEX
  8
cheese
 10
0.0
 20
0.0
 30
0.0
 70
   128
 71
   94
 72
   36
 73
   92
  0
VERTEX
  8
cheese
 10
0.0
 20
0.0
 30
0.0
 70
   128
 71
   41
 72
   32
 73
   42
  0
VERTEX
  8
cheese
 10
0.0
 20
0.0
 30
0.0
 70
   128
 71
   78
 72
   50
 73
   80
  0
VERTEX
  8
cheese
 10
0.0
 20
0.0
 30
0.0
 70
   128
 71
   45
 72
   37
 73
   47
  0
VERTEX
  8
cheese
 10
0.0
 20
0.0
 30
0.0
 70
   128
 71
   47
 72
   39
 73
   49
  0
VERTEX
  8
cheese
 10
0.0
 20
0.0
 30
0.0
 70
   128
 71
   43
 72
   91
 73
   93
  0
VERTEX
  8
cheese
 10
0.0
 20
0.0
 30
0.0
 70
   128
 71
   41
 72
   83
 73
   79
  0
VERTEX
  8
cheese
 10
0.0
 20
0.0
 30
0.0
 70
   128
 71
   43
 72
   64
 73
   44
  0
VERTEX
  8
cheese
 10
0.0
 20
0.0
 30
0.0
 70
   128
 71
   38
 72
   46
 73
   94
  0
VERTEX
  8
cheese
 10
0.0
 20
0.0
 30
0.0
 70
   128
 71
   51
 72
   22
 73
   52
  0
VERTEX
  8
cheese
 10
0.0
 20
0.0
 30
0.0
 70
   128
 71
   90
 72
   56
 73
   96
  0
VERTEX
  8
cheese
 10
0.0
 20
0.0
 30
0.0
 70
   128
 71
   53
 72
   4
 73
   54
  0
VERTEX
  8
cheese
 10
0.0
 20
0.0
 30
0.0
 70
   128
 71
   72
 72
   60
 73
   82
  0
VERTEX
  8
cheese
 10
0.0
 20
0.0
 30
0.0
 70
   128
 71
   51
 72
   85
 73
   95
  0
VERTEX
  8
cheese
 10
0.0
 20
0.0
 30
0.0
 70
   128
 71
   55
 72
   13
 73
   57
  0
VERTEX
  8
cheese
 10
0.0
 20
0.0
 30
0.0
 70
   128
 71
   58
 72
   10
 73
   56
  0
VERTEX
  8
cheese
 10
0.0
 20
0.0
 30
0.0
 70
   128
 71
   59
 72
   27
 73
   57
  0
VERTEX
  8
cheese
 10
0.0
 20
0.0
 30
0.0
 70
   128
 71
   60
 72
   14
 73
   58
  0
VERTEX
  8
cheese
 10
0.0
 20
0.0
 30
0.0
 70
   128
 71
   53
 72
   75
 73
   81
  0
VERTEX
  8
cheese
 10
0.0
 20
0.0
 30
0.0
 70
   128
 71
   61
 72
   42
 73
   62
  0
VERTEX
  8
cheese
 10
0.0
 20
0.0
 30
0.0
 70
   128
 71
   80
 72
   70
 73
   84
  0
VERTEX
  8
cheese
 10
0.0
 20
0.0
 30
0.0
 70
   128
 71
   65
 72
   47
 73
   67
  0
VERTEX
  8
cheese
 10
0.0
 20
0.0
 30
0.0
 70
   128
 71
   68
 72
   46
 73
   66
  0
VERTEX
  8
cheese
 10
0.0
 20
0.0
 30
0.0
 70
   128
 71
   67
 72
   49
 73
   69
  0
VERTEX
  8
cheese
 10
0.0
 20
0.0
 30
0.0
 70
   128
 71
   70
 72
   48
 73
   68
  0
VERTEX
  8
cheese
 10
0.0
 20
0.0
 30
0.0
 70
   128
 71
   93
 72
   65
 73
   97
  0
VERTEX
  8
cheese
 10
0.0
 20
0.0
 30
0.0
 70
   128
 71
   61
 72
   73
 73
   83
  0
VERTEX
  8
cheese
 10
0.0
 20
0.0
 30
0.0
 70
   128
 71
   63
 72
   8
 73
   64
  0
VERTEX
  8
cheese
 10
0.0
 20
0.0
 30
0.0
 70
   128
 71
   64
 72
   88
 73
   38
  0
VERTEX
  8
cheese
 10
0.0
 20
0.0
 30
0.0
 70
   128
 71
   71
 72
   18
 73
   72
  0
VERTEX
  8
cheese
 10
0.0
 20
0.0
 30
0.0
 70
   128
 71
   84
 72
   20
 73
   74
  0
VERTEX
  8
cheese
 10
0.0
 20
0.0
 30
0.0
 70
   128
 71
   73
 72
   6
 73
   74
  0
VERTEX
  8
cheese
 10
0.0
 20
0.0
 30
0.0
 70
   128
 71
   77
 72
   29
 73
   75
  0
VERTEX
  8
cheese
 10
0.0
 20
0.0
 30
0.0
 70
   128
 71
   76
 72
   54
 73
   82
  0
VERTEX
  8
cheese
 10
0.0
 20
0.0
 30
0.0
 70
   128
 71
   81
 72
   17
 73
   71
  0
VERTEX
  8
cheese
 10
0.0
 20
0.0
 30
0.0
 70
   128
 71
   78
 72
   24
 73
   76
  0
VERTEX
  8
cheese
 10
0.0
 20
0.0
 30
0.0
 70
   128
 71
   79
 72
   39
 73
   77
  0
VERTEX
  8
cheese
 10
0.0
 20
0.0
 30
0.0
 70
   128
 71
   80
 72
   32
 73
   78
  0
VERTEX
  8
cheese
 10
0.0
 20
0.0
 30
0.0
 70
   128
 71
   83
 72
   49
 73
   79
  0
VERTEX
  8
cheese
 10
0.0
 20
0.0
 30
0.0
 70
   128
 71
   82
 72
   4
 73
   72
  0
VERTEX
  8
cheese
 10
0.0
 20
0.0
 30
0.0
 70
   128
 71
   75
 72
   59
 73
   81
  0
VERTEX
  8
cheese
 10
0.0
 20
0.0
 30
0.0
 70
   128
 71
   84
 72
   42
 73
   80
  0
VERTEX
  8
cheese
 10
0.0
 20
0.0
 30
0.0
 70
   128
 71
   73
 72
   69
 73
   83
  0
VERTEX
  8
cheese
 10
0.0
 20
0.0
 30
0.0
 70
   128
 71
   87
 72
   12
 73
   88
  0
VERTEX
  8
cheese
 10
0.0
 20
0.0
 30
0.0
 70
   128
 71
   89
 72
   35
 73
   91
  0
VERTEX
  8
cheese
 10
0.0
 20
0.0
 30
0.0
 70
   128
 71
   86
 72
   9
 73
   85
  0
VERTEX
  8
cheese
 10
0.0
 20
0.0
 30
0.0
 70
   128
 71
   86
 72
   52
 73
   96
  0
VERTEX
  8
cheese
 10
0.0
 20
0.0
 30
0.0
 70
   128
 71
   89
 72
   51
 73
   95
  0
VERTEX
  8
cheese
 10
0.0
 20
0.0
 30
0.0
 70
   128
 71
   90
 72
   34
 73
   92
  0
VERTEX
  8
cheese
 10
0.0
 20
0.0
 30
0.0
 70
   128
 71
   97
 72
   11
 73
   87
  0
VERTEX
  8
cheese
 10
0.0
 20
0.0
 30
0.0
 70
   128
 71
   92
 72
   44
 73
   94
  0
VERTEX
  8
cheese
 10
0.0
 20
0.0
 30
0.0
 70
   128
 71
   91
 72
   45
 73
   93
  0
VERTEX
  8
cheese
 10
0.0
 20
0.0
 30
0.0
 70
   128
 71
   94
 72
   64
 73
   38
  0
VERTEX
  8
cheese
 10
0.0
 20
0.0
 30
0.0
 70
   128
 71
   96
 72
   22
 73
   90
  0
VERTEX
  8
cheese
 10
0.0
 20
0.0
 30
0.0
 70
   128
 71
   85
 72
   55
 73
   95
  0
VERTEX
  8
cheese
 10
0.0
 20
0.0
 30
0.0
 70
   128
 71
   97
 72
   43
 73
   93
  0
VERTEX
  8
cheese
 10
0.0
 20
0.0
 30
0.0
 70
   128
 71
   88
 72
   66
 73
   38
  0
SEQEND
  0
POLYLINE
  8
patty
 66
   1
 10
0.0
 20
0.0
 30
0.0
 70
   64
 71
   48
 72
   92
  0
VERTEX
  8
patty
 10
41.221855
 20
71.437919
 30
71.398348
 70
   192
  0
VERTEX
  8
patty
 10
71.398348
 20
71.437919
 30
41.221855
 70
   192
  0
VERTEX
  8
patty
 10
93.300000
 20
41.253569
 30
0.000000
 70
   192
  0
VERTEX
  8
patty
 10
92.900000
 20
68.191205
 30
0.000000
 70
   192
  0
VERTEX
  8
patty
 10
80.800170
 20
41.253569
 30
-46.650000
 70
   192
  0
VERTEX
  8
patty
 10
80.453760
 20
68.191205
 30
-46.450000
 70
   192
  0
VERTEX
  8
patty
 10
46.650000
 20
41.253569
 30
-80.800170
 70
   192
  0
VERTEX
  8
patty
 10
46.450000
 20
68.191205
 30
-80.453760
 70
   192
  0
VERTEX
  8
patty
 10
0.000000
 20
41.253569
 30
-93.300000
 70
   192
  0
VERTEX
  8
patty
 10
0.000000
 20
68.191205
 30
-92.900000
 70
   192
  0
VERTEX
  8
patty
 10
-46.650000
 20
41.253569
 30
-80.800170
 70
   192
  0
VERTEX
  8
patty
 10
-46.450000
 20
68.191205
 30
-80.453760
 70
   192
  0
VERTEX
  8
patty
 10
-80.800170
 20
41.253569
 30
-46.650000
 70
   192
  0
VERTEX
  8
patty
 10
-80.453760
 20
68.191205
 30
-46.450000
 70
   192
  0
VERTEX
  8
patty
 10
-93.300000
 20
41.253569
 30
-0.000000
 70
   192
  0
VERTEX
  8
patty
 10
-92.900000
 20
68.191205
 30
-0.000000
 70
   192
  0
VERTEX
  8
patty
 10
-80.800170
 20
41.253569
 30
46.650000
 70
   192
  0
VERTEX
  8
patty
 10
-80.453760
 20
68.191205
 30
46.450000
 70
   192
  0
VERTEX
  8
patty
 10
-46.650000
 20
41.253569
 30
80.800170
 70
   192
  0
VERTEX
  8
patty
 10
-46.450000
 20
68.191205
 30
80.453760
 70
   192
  0
VERTEX
  8
patty
 10
-0.000000
 20
41.253569
 30
93.300000
 70
   192
  0
VERTEX
  8
patty
 10
-0.000000
 20
68.191205
 30
92.900000
 70
   192
  0
VERTEX
  8
patty
 10
46.650000
 20
41.253569
 30
80.800170
 70
   192
  0
VERTEX
  8
patty
 10
46.450000
 20
68.191205
 30
80.453760
 70
   192
  0
VERTEX
  8
patty
 10
80.800170
 20
41.253569
 30
46.650000
 70
   192
  0
VERTEX
  8
patty
 10
80.453760
 20
68.191205
 30
46.450000
 70
   192
  0
VERTEX
  8
patty
 10
82.843711
 20
38.006855
 30
-0.000000
 70
   192
  0
VERTEX
  8
patty
 10
71.744758
 20
38.006855
 30
-41.421855
 70
   192
  0
VERTEX
  8
patty
 10
41.421855
 20
38.006855
 30
-71.744758
 70
   192
  0
VERTEX
  8
patty
 10
0.000000
 20
38.006855
 30
-82.843711
 70
   192
  0
VERTEX
  8
patty
 10
-41.421855
 20
38.006855
 30
-71.744758
 70
   192
  0
VERTEX
  8
patty
 10
-71.744758
 20
38.006855
 30
-41.421855
 70
   192
  0
VERTEX
  8
patty
 10
-82.843711
 20
38.006855
 30
-0.000000
 70
   192
  0
VERTEX
  8
patty
 10
-71.744758
 20
38.006855
 30
41.421855
 70
   192
  0
VERTEX
  8
patty
 10
-41.421855
 20
38.006855
 30
71.744758
 70
   192
  0
VERTEX
  8
patty
 10
-0.000000
 20
38.006855
 30
82.843711
 70
   192
  0
VERTEX
  8
patty
 10
41.421855
 20
38.006855
 30
71.744758
 70
   192
  0
VERTEX
  8
patty
 10
71.744758
 20
38.006855
 30
41.421855
 70
   192
  0
VERTEX
  8
patty
 10
82.443711
 20
71.437919
 30
-0.000000
 70
   192
  0
VERTEX
  8
patty
 10
71.398348
 20
71.437919
 30
-41.221855
 70
   192
  0
VERTEX
  8
patty
 10
41.221855
 20
71.437919
 30
-71.398348
 70
   192
  0
VERTEX
  8
patty
 10
0.000000
 20
71.437919
 30
-82.443711
 70
   192
  0
VERTEX
  8
patty
 10
-41.221855
 20
71.437919
 30
-71.398348
 70
   192
  0
VERTEX
  8
patty
 10
-71.398348
 20
71.437919
 30
-41.221855
 70
   192
  0
VERTEX
  8
patty
 10
-82.443711
 20
71.437919
 30
-0.000000
 70
   192
  0
VERTEX
  8
patty
 10
-71.398348
 20
71.437919
 30
41.221855
 70
   192
  0
VERTEX
  8
patty
 10
-41.221855
 20
71.437919
 30
71.398348
 70
   192
  0
VERTEX
  8
patty
 10
-0.000000
 20
71.437919
 30
82.443711
 70
   192
  0
VERTEX
  8
patty
 10
0.0
 20
0.0
 30
0.0
 70
   128
 71
   38
 72
   27
 73
   28
  0
VERTEX
  8
patty
 10
0.0
 20
0.0
 30
0.0
 70
   128
 71
   3
 72
   4
 73
   6
  0
VERTEX
  8
patty
 10
0.0
 20
0.0
 30
0.0
 70
   128
 71
   39
 72
   2
 73
   1
  0
VERTEX
  8
patty
 10
0.0
 20
0.0
 30
0.0
 70
   128
 71
   35
 72
   38
 73
   29
  0
VERTEX
  8
patty
 10
0.0
 20
0.0
 30
0.0
 70
   128
 71
   5
 72
   6
 73
   8
  0
VERTEX
  8
patty
 10
0.0
 20
0.0
 30
0.0
 70
   128
 71
   37
 72
   38
 73
   35
  0
VERTEX
  8
patty
 10
0.0
 20
0.0
 30
0.0
 70
   128
 71
   29
 72
   30
 73
   31
  0
VERTEX
  8
patty
 10
0.0
 20
0.0
 30
0.0
 70
   128
 71
   7
 72
   8
 73
   10
  0
VERTEX
  8
patty
 10
0.0
 20
0.0
 30
0.0
 70
   128
 71
   31
 72
   32
 73
   33
  0
VERTEX
  8
patty
 10
0.0
 20
0.0
 30
0.0
 70
   128
 71
   33
 72
   34
 73
   35
  0
VERTEX
  8
patty
 10
0.0
 20
0.0
 30
0.0
 70
   128
 71
   9
 72
   10
 73
   12
  0
VERTEX
  8
patty
 10
0.0
 20
0.0
 30
0.0
 70
   128
 71
   46
 72
   39
 73
   1
  0
VERTEX
  8
patty
 10
0.0
 20
0.0
 30
0.0
 70
   128
 71
   40
 72
   39
 73
   46
  0
VERTEX
  8
patty
 10
0.0
 20
0.0
 30
0.0
 70
   128
 71
   11
 72
   12
 73
   14
  0
VERTEX
  8
patty
 10
0.0
 20
0.0
 30
0.0
 70
   128
 71
   48
 72
   47
 73
   46
  0
VERTEX
  8
patty
 10
0.0
 20
0.0
 30
0.0
 70
   128
 71
   46
 72
   45
 73
   44
  0
VERTEX
  8
patty
 10
0.0
 20
0.0
 30
0.0
 70
   128
 71
   13
 72
   14
 73
   16
  0
VERTEX
  8
patty
 10
0.0
 20
0.0
 30
0.0
 70
   128
 71
   43
 72
   42
 73
   41
  0
VERTEX
  8
patty
 10
0.0
 20
0.0
 30
0.0
 70
   128
 71
   4
 72
   39
 73
   40
  0
VERTEX
  8
patty
 10
0.0
 20
0.0
 30
0.0
 70
   128
 71
   15
 72
   16
 73
   18
  0
VERTEX
  8
patty
 10
0.0
 20
0.0
 30
0.0
 70
   128
 71
   6
 72
   40
 73
   41
  0
VERTEX
  8
patty
 10
0.0
 20
0.0
 30
0.0
 70
   128
 71
   8
 72
   41
 73
   42
  0
VERTEX
  8
patty
 10
0.0
 20
0.0
 30
0.0
 70
   128
 71
   17
 72
   18
 73
   20
  0
VERTEX
  8
patty
 10
0.0
 20
0.0
 30
0.0
 70
   128
 71
   10
 72
   42
 73
   43
  0
VERTEX
  8
patty
 10
0.0
 20
0.0
 30
0.0
 70
   128
 71
   12
 72
   43
 73
   44
  0
VERTEX
  8
patty
 10
0.0
 20
0.0
 30
0.0
 70
   128
 71
   19
 72
   20
 73
   22
  0
VERTEX
  8
patty
 10
0.0
 20
0.0
 30
0.0
 70
   128
 71
   14
 72
   44
 73
   45
  0
VERTEX
  8
patty
 10
0.0
 20
0.0
 30
0.0
 70
   128
 71
   16
 72
   45
 73
   46
  0
VERTEX
  8
patty
 10
0.0
 20
0.0
 30
0.0
 70
   128
 71
   21
 72
   22
 73
   24
  0
VERTEX
  8
patty
 10
0.0
 20
0.0
 30
0.0
 70
   128
 71
   18
 72
   46
 73
   47
  0
VERTEX
  8
patty
 10
0.0
 20
0.0
 30
0.0
 70
   128
 71
   20
 72
   47
 73
   48
  0
VERTEX
  8
patty
 10
0.0
 20
0.0
 30
0.0
 70
   128
 71
   23
 72
   24
 73
   26
  0
VERTEX
  8
patty
 10
0.0
 20
0.0
 30
0.0
 70
   128
 71
   22
 72
   48
 73
   1
  0
VERTEX
  8
patty
 10
0.0
 20
0.0
 30
0.0
 70
   128
 71
   24
 72
   1
 73
   2
  0
VERTEX
  8
patty
 10
0.0
 20
0.0
 30
0.0
 70
   128
 71
   25
 72
   26
 73
   4
  0
VERTEX
  8
patty
 10
0.0
 20
0.0
 30
0.0
 70
   128
 71
   26
 72
   2
 73
   39
  0
VERTEX
  8
patty
 10
0.0
 20
0.0
 30
0.0
 70
   128
 71
   5
 72
   28
 73
   27
  0
VERTEX
  8
patty
 10
0.0
 20
0.0
 30
0.0
 70
   128
 71
   7
 72
   29
 73
   28
  0
VERTEX
  8
patty
 10
0.0
 20
0.0
 30
0.0
 70
   128
 71
   9
 72
   30
 73
   29
  0
VERTEX
  8
patty
 10
0.0
 20
0.0
 30
0.0
 70
   128
 71
   11
 72
   31
 73
   30
  0
VERTEX
  8
patty
 10
0.0
 20
0.0
 30
0.0
 70
   128
 71
   13
 72
   32
 73
   31
  0
VERTEX
  8
patty
 10
0.0
 20
0.0
 30
0.0
 70
   128
 71
   15
 72
   33
 73
   32
  0
VERTEX
  8
patty
 10
0.0
 20
0.0
 30
0.0
 70
   128
 71
   17
 72
   34
 73
   33
  0
VERTEX
  8
patty
 10
0.0
 20
0.0
 30
0.0
 70
   128
 71
   19
 72
   35
 73
   34
  0
VERTEX
  8
patty
 10
0.0
 20
0.0
 30
0.0
 70
   128
 71
   21
 72
   36
 73
   35
  0
VERTEX
  8
patty
 10
0.0
 20
0.0
 30
0.0
 70
   128
 71
   23
 72
   37
 73
   36
  0
VERTEX
  8
patty
 10
0.0
 20
0.0
 30
0.0
 70
   128
 71
   25
 72
   38
 73
   37
  0
VERTEX
  8
patty
 10
0.0
 20
0.0
 30
0.0
 70
   128
 71
   3
 72
   27
 73
   38
  0
VERTEX
  8
patty
 10
0.0
 20
0.0
 30
0.0
 70
   128
 71
   38
 72
   28
 73
   29
  0
VERTEX
  8
patty
 10
0.0
 20
0.0
 30
0.0
 70
   128
 71
   3
 72
   6
 73
   5
  0
VERTEX
  8
patty
 10
0.0
 20
0.0
 30
0.0
 70
   128
 71
   35
 72
   29
 73
   31
  0
VERTEX
  8
patty
 10
0.0
 20
0.0
 30
0.0
 70
   128
 71
   5
 72
   8
 73
   7
  0
VERTEX
  8
patty
 10
0.0
 20
0.0
 30
0.0
 70
   128
 71
   37
 72
   35
 73
   36
  0
VERTEX
  8
patty
 10
0.0
 20
0.0
 30
0.0
 70
   128
 71
   7
 72
   10
 73
   9
  0
VERTEX
  8
patty
 10
0.0
 20
0.0
 30
0.0
 70
   128
 71
   31
 72
   33
 73
   35
  0
VERTEX
  8
patty
 10
0.0
 20
0.0
 30
0.0
 70
   128
 71
   9
 72
   12
 73
   11
  0
VERTEX
  8
patty
 10
0.0
 20
0.0
 30
0.0
 70
   128
 71
   46
 72
   1
 73
   48
  0
VERTEX
  8
patty
 10
0.0
 20
0.0
 30
0.0
 70
   128
 71
   40
 72
   46
 73
   43
  0
VERTEX
  8
patty
 10
0.0
 20
0.0
 30
0.0
 70
   128
 71
   11
 72
   14
 73
   13
  0
VERTEX
  8
patty
 10
0.0
 20
0.0
 30
0.0
 70
   128
 71
   46
 72
   44
 73
   43
  0
VERTEX
  8
patty
 10
0.0
 20
0.0
 30
0.0
 70
   128
 71
   13
 72
   16
 73
   15
  0
VERTEX
  8
patty
 10
0.0
 20
0.0
 30
0.0
 70
   128
 71
   43
 72
   41
 73
   40
  0
VERTEX
  8
patty
 10
0.0
 20
0.0
 30
0.0
 70
   128
 71
   4
 72
   40
 73
   6
  0
VERTEX
  8
patty
 10
0.0
 20
0.0
 30
0.0
 70
   128
 71
   15
 72
   18
 73
   17
  0
VERTEX
  8
patty
 10
0.0
 20
0.0
 30
0.0
 70
   128
 71
   6
 72
   41
 73
   8
  0
VERTEX
  8
patty
 10
0.0
 20
0.0
 30
0.0
 70
   128
 71
   8
 72
   42
 73
   10
  0
VERTEX
  8
patty
 10
0.0
 20
0.0
 30
0.0
 70
   128
 71
   17
 72
   20
 73
   19
  0
VERTEX
  8
patty
 10
0.0
 20
0.0
 30
0.0
 70
   128
 71
   10
 72
   43
 73
   12
  0
VERTEX
  8
patty
 10
0.0
 20
0.0
 30
0.0
 70
   128
 71
   12
 72
   44
 73
   14
  0
VERTEX
  8
patty
 10
0.0
 20
0.0
 30
0.0
 70
   128
 71
   19
 72
   22
 73
   21
  0
VERTEX
  8
patty
 10
0.0
 20
0.0
 30
0.0
 70
   128
 71
   14
 72
   45
 73
   16
  0
VERTEX
  8
patty
 10
0.0
 20
0.0
 30
0.0
 70
   128
 71
   16
 72
   46
 73
   18
  0
VERTEX
  8
patty
 10
0.0
 20
0.0
 30
0.0
 70
   128
 71
   21
 72
   24
 73
   23
  0
VERTEX
  8
patty
 10
0.0
 20
0.0
 30
0.0
 70
   128
 71
   18
 72
   47
 73
   20
  0
VERTEX
  8
patty
 10
0.0
 20
0.0
 30
0.0
 70
   128
 71
   20
 72
   48
 73
   22
  0
VERTEX
  8
patty
 10
0.0
 20
0.0
 30
0.0
 70
   128
 71
   23
 72
   26
 73
   25
  0
VERTEX
  8
patty
 10
0.0
 20
0.0
 30
0.0
 70
   128
 71
   22
 72
   1
 73
   24
  0
VERTEX
  8
patty
 10
0.0
 20
0.0
 30
0.0
 70
   128
 71
   24
 72
   2
 73
   26
  0
VERTEX
  8
patty
 10
0.0
 20
0.0
 30
0.0
 70
   128
 71
   25
 72
   4
 73
   3
  0
VERTEX
  8
patty
 10
0.0
 20
0.0
 30
0.0
 70
   128
 71
   26
 72
   39
 73
   4
  0
VERTEX
  8
patty
 10
0.0
 20
0.0
 30
0.0
 70
   128
 71
   5
 72
   27
 73
   3
  0
VERTEX
  8
patty
 10
0.0
 20
0.0
 30
0.0
 70
   128
 71
   7
 72
   28
 73
   5
  0
VERTEX
  8
patty
 10
0.0
 20
0.0
 30
0.0
 70
   128
 71
   9
 72
   29
 73
   7
  0
VERTEX
  8
patty
 10
0.0
 20
0.0
 30
0.0
 70
   128
 71
   11
 72
   30
 73
   9
  0
VERTEX
  8
patty
 10
0.0
 20
0.0
 30
0.0
 70
   128
 71
   13
 72
   31
 73
   11
  0
VERTEX
  8
patty
 10
0.0
 20
0.0
 30
0.0
 70
   128
 71
   15
 72
   32
 73
   13
  0
VERTEX
  8
patty
 10
0.0
 20
0.0
 30
0.0
 70
   128
 71
   17
 72
   33
 73
   15
  0
VERTEX
  8
patty
 10
0.0
 20
0.0
 30
0.0
 70
   128
 71
   19
 72
   34
 73
   17
  0
VERTEX
  8
patty
 10
0.0
 20
0.0
 30
0.0
 70
   128
 71
   21
 72
   35
 73
   19
  0
VERTEX
  8
patty
 10
0.0
 20
0.0
 30
0.0
 70
   128
 71
   23
 72
   36
 73
   21
  0
VERTEX
  8
patty
 10
0.0
 20
0.0
 30
0.0
 70
   128
 71
   25
 72
   37
 73
   23
  0
VERTEX
  8
patty
 10
0.0
 20
0.0
 30
0.0
 70
   128
 71
   3
 72
   38
 73
   25
  0
SEQEND
  0
POLYLINE
  8
bunBase
 66
   1
 10
0.0
 20
0.0
 30
0.0
 70
   64
 71
   24
 72
   44
  0
VERTEX
  8
bunBase
 10
80.800170
 20
0.000000
 30
46.650000
 70
   192
  0
VERTEX
  8
bunBase
 10
86.602540
 20
39.704256
 30
50.000000
 70
   192
  0
VERTEX
  8
bunBase
 10
93.300000
 20
0.000000
 30
0.000000
 70
   192
  0
VERTEX
  8
bunBase
 10
100.000000
 20
39.704256
 30
0.000000
 70
   192
  0
VERTEX
  8
bunBase
 10
80.800170
 20
0.000000
 30
-46.650000
 70
   192
  0
VERTEX
  8
bunBase
 10
86.602540
 20
39.704256
 30
-50.000000
 70
   192
  0
VERTEX
  8
bunBase
 10
46.650000
 20
0.000000
 30
-80.800170
 70
   192
  0
VERTEX
  8
bunBase
 10
50.000000
 20
39.704256
 30
-86.602540
 70
   192
  0
VERTEX
  8
bunBase
 10
0.000000
 20
0.000000
 30
-93.300000
 70
   192
  0
VERTEX
  8
bunBase
 10
0.000000
 20
39.704256
 30
-100.000000
 70
   192
  0
VERTEX
  8
bunBase
 10
-46.650000
 20
0.000000
 30
-80.800170
 70
   192
  0
VERTEX
  8
bunBase
 10
-50.000000
 20
39.704256
 30
-86.602540
 70
   192
  0
VERTEX
  8
bunBase
 10
-80.800170
 20
0.000000
 30
-46.650000
 70
   192
  0
VERTEX
  8
bunBase
 10
-86.602540
 20
39.704256
 30
-50.000000
 70
   192
  0
VERTEX
  8
bunBase
 10
-93.300000
 20
0.000000
 30
-0.000000
 70
   192
  0
VERTEX
  8
bunBase
 10
-100.000000
 20
39.704256
 30
-0.000000
 70
   192
  0
VERTEX
  8
bunBase
 10
-80.800170
 20
0.000000
 30
46.650000
 70
   192
  0
VERTEX
  8
bunBase
 10
-86.602540
 20
39.704256
 30
50.000000
 70
   192
  0
VERTEX
  8
bunBase
 10
-46.650000
 20
0.000000
 30
80.800170
 70
   192
  0
VERTEX
  8
bunBase
 10
-50.000000
 20
39.704256
 30
86.602540
 70
   192
  0
VERTEX
  8
bunBase
 10
-0.000000
 20
0.000000
 30
93.300000
 70
   192
  0
VERTEX
  8
bunBase
 10
-0.000000
 20
39.704256
 30
100.000000
 70
   192
  0
VERTEX
  8
bunBase
 10
46.650000
 20
0.000000
 30
80.800170
 70
   192
  0
VERTEX
  8
bunBase
 10
50.000000
 20
39.704256
 30
86.602540
 70
   192
  0
VERTEX
  8
bunBase
 10
0.0
 20
0.0
 30
0.0
 70
   128
 71
   7
 72
   1
 73
   3
  0
VERTEX
  8
bunBase
 10
0.0
 20
0.0
 30
0.0
 70
   128
 71
   3
 72
   4
 73
   6
  0
VERTEX
  8
bunBase
 10
0.0
 20
0.0
 30
0.0
 70
   128
 71
   6
 72
   4
 73
   2
  0
VERTEX
  8
bunBase
 10
0.0
 20
0.0
 30
0.0
 70
   128
 71
   19
 72
   1
 73
   7
  0
VERTEX
  8
bunBase
 10
0.0
 20
0.0
 30
0.0
 70
   128
 71
   5
 72
   6
 73
   8
  0
VERTEX
  8
bunBase
 10
0.0
 20
0.0
 30
0.0
 70
   128
 71
   1
 72
   19
 73
   21
  0
VERTEX
  8
bunBase
 10
0.0
 20
0.0
 30
0.0
 70
   128
 71
   19
 72
   9
 73
   11
  0
VERTEX
  8
bunBase
 10
0.0
 20
0.0
 30
0.0
 70
   128
 71
   7
 72
   8
 73
   10
  0
VERTEX
  8
bunBase
 10
0.0
 20
0.0
 30
0.0
 70
   128
 71
   13
 72
   15
 73
   17
  0
VERTEX
  8
bunBase
 10
0.0
 20
0.0
 30
0.0
 70
   128
 71
   20
 72
   2
 73
   24
  0
VERTEX
  8
bunBase
 10
0.0
 20
0.0
 30
0.0
 70
   128
 71
   9
 72
   10
 73
   12
  0
VERTEX
  8
bunBase
 10
0.0
 20
0.0
 30
0.0
 70
   128
 71
   8
 72
   2
 73
   20
  0
VERTEX
  8
bunBase
 10
0.0
 20
0.0
 30
0.0
 70
   128
 71
   20
 72
   18
 73
   14
  0
VERTEX
  8
bunBase
 10
0.0
 20
0.0
 30
0.0
 70
   128
 71
   11
 72
   12
 73
   14
  0
VERTEX
  8
bunBase
 10
0.0
 20
0.0
 30
0.0
 70
   128
 71
   18
 72
   16
 73
   14
  0
VERTEX
  8
bunBase
 10
0.0
 20
0.0
 30
0.0
 70
   128
 71
   12
 72
   10
 73
   8
  0
VERTEX
  8
bunBase
 10
0.0
 20
0.0
 30
0.0
 70
   128
 71
   13
 72
   14
 73
   16
  0
VERTEX
  8
bunBase
 10
0.0
 20
0.0
 30
0.0
 70
   128
 71
   19
 72
   20
 73
   22
  0
VERTEX
  8
bunBase
 10
0.0
 20
0.0
 30
0.0
 70
   128
 71
   21
 72
   22
 73
   24
  0
VERTEX
  8
bunBase
 10
0.0
 20
0.0
 30
0.0
 70
   128
 71
   15
 72
   16
 73
   18
  0
VERTEX
  8
bunBase
 10
0.0
 20
0.0
 30
0.0
 70
   128
 71
   23
 72
   24
 73
   2
  0
VERTEX
  8
bunBase
 10
0.0
 20
0.0
 30
0.0
 70
   128
 71
   1
 72
   2
 73
   4
  0
VERTEX
  8
bunBase
 10
0.0
 20
0.0
 30
0.0
 70
   128
 71
   17
 72
   18
 73
   20
  0
VERTEX
  8
bunBase
 10
0.0
 20
0.0
 30
0.0
 70
   128
 71
   7
 72
   3
 73
   5
  0
VERTEX
  8
bunBase
 10
0.0
 20
0.0
 30
0.0
 70
   128
 71
   3
 72
   6
 73
   5
  0
VERTEX
  8
bunBase
 10
0.0
 20
0.0
 30
0.0
 70
   128
 71
   6
 72
   2
 73
   8
  0
VERTEX
  8
bunBase
 10
0.0
 20
0.0
 30
0.0
 70
   128
 71
   19
 72
   7
 73
   9
  0
VERTEX
  8
bunBase
 10
0.0
 20
0.0
 30
0.0
 70
   128
 71
   5
 72
   8
 73
   7
  0
VERTEX
  8
bunBase
 10
0.0
 20
0.0
 30
0.0
 70
   128
 71
   1
 72
   21
 73
   23
  0
VERTEX
  8
bunBase
 10
0.0
 20
0.0
 30
0.0
 70
   128
 71
   19
 72
   11
 73
   13
  0
VERTEX
  8
bunBase
 10
0.0
 20
0.0
 30
0.0
 70
   128
 71
   7
 72
   10
 73
   9
  0
VERTEX
  8
bunBase
 10
0.0
 20
0.0
 30
0.0
 70
   128
 71
   13
 72
   17
 73
   19
  0
VERTEX
  8
bunBase
 10
0.0
 20
0.0
 30
0.0
 70
   128
 71
   20
 72
   24
 73
   22
  0
VERTEX
  8
bunBase
 10
0.0
 20
0.0
 30
0.0
 70
   128
 71
   9
 72
   12
 73
   11
  0
VERTEX
  8
bunBase
 10
0.0
 20
0.0
 30
0.0
 70
   128
 71
   8
 72
   20
 73
   12
  0
VERTEX
  8
bunBase
 10
0.0
 20
0.0
 30
0.0
 70
   128
 71
   20
 72
   14
 73
   12
  0
VERTEX
  8
bunBase
 10
0.0
 20
0.0
 30
0.0
 70
   128
 71
   11
 72
   14
 73
   13
  0
VERTEX
  8
bunBase
 10
0.0
 20
0.0
 30
0.0
 70
   128
 71
   13
 72
   16
 73
   15
  0
VERTEX
  8
bunBase
 10
0.0
 20
0.0
 30
0.0
 70
   128
 71
   19
 72
   22
 73
   21
  0
VERTEX
  8
bunBase
 10
0.0
 20
0.0
 30
0.0
 70
   128
 71
   21
 72
   24
 73
   23
  0
VERTEX
  8
bunBase
 10
0.0
 20
0.0
 30
0.0
 70
   128
 71
   15
 72
   18
 73
   17
  0
VERTEX
  8
bunBase
 10
0.0
 20
0.0
 30
0.0
 70
   128
 71
   23
 72
   2
 73
   1
  0
VERTEX
  8
bunBase
 10
0.0
 20
0.0
 30
0.0
 70
   128
 71
   1
 72
   4
 73
   3
  0
VERTEX
  8
bunBase
 10
0.0
 20
0.0
 30
0.0
 70
   128
 71
   17
 72
   20
 73
   19
  0
SEQEND
  0
ENDSEC
  0
EOF
