999
FBX AutoCAD (*.DXF) exporter
  0
SECTION
  2
HEADER
  9
$ACADVER
  1
AC1008
  9
$UCSORG
 10
0.0
 20
0.0
 30
0.0
  9
$UCSXDIR
 10
1.0
 20
0.0
 30
0.0
  9
$TILEMODE
 70
   1
  9
$UCSYDIR
 10
0.0
 20
1.0
 30
0.0
  0
ENDSEC
  0
SECTION
  2
TABLES
  0
TABLE
  2
LTYPE
 70
   1
  0
LTYPE
  2
CONTINUOUS
 70
   64
  3
Solid line
 72
   65
 73
   0
 40
0.0
  0
ENDTAB
  0
TABLE
  2
LAYER
 70
   1
  0
LAYER
  2
banana
 70
   0
 62
   250
  6
CONTINUOUS
  0
ENDTAB
  0
ENDSEC
  0
SECTION
  2
BLOCKS
  0
ENDSEC
  0
SECTION
  2
ENTITIES
  0
POLYLINE
  8
banana
 66
   1
 10
0.0
 20
0.0
 30
0.0
 70
   64
 71
   80
 72
   156
  0
VERTEX
  8
banana
 10
-34.728228
 20
61.302807
 30
-21.459005
 70
   192
  0
VERTEX
  8
banana
 10
-30.691778
 20
69.222054
 30
0.000000
 70
   192
  0
VERTEX
  8
banana
 10
101.086192
 20
70.739754
 30
-7.595162
 70
   192
  0
VERTEX
  8
banana
 10
-94.476200
 20
95.373095
 30
-7.097770
 70
   192
  0
VERTEX
  8
banana
 10
105.187139
 20
67.271976
 30
-5.370591
 70
   192
  0
VERTEX
  8
banana
 10
-98.602569
 20
92.516131
 30
-5.018881
 70
   192
  0
VERTEX
  8
banana
 10
106.885807
 20
65.835576
 30
0.000000
 70
   192
  0
VERTEX
  8
banana
 10
-100.311767
 20
91.332738
 30
-0.000000
 70
   192
  0
VERTEX
  8
banana
 10
105.187139
 20
67.271976
 30
5.370591
 70
   192
  0
VERTEX
  8
banana
 10
-98.602569
 20
92.516131
 30
5.018881
 70
   192
  0
VERTEX
  8
banana
 10
101.086192
 20
70.739754
 30
7.595162
 70
   192
  0
VERTEX
  8
banana
 10
-94.476200
 20
95.373095
 30
7.097770
 70
   192
  0
VERTEX
  8
banana
 10
96.985245
 20
74.207531
 30
5.370591
 70
   192
  0
VERTEX
  8
banana
 10
-90.349830
 20
98.230059
 30
5.018881
 70
   192
  0
VERTEX
  8
banana
 10
95.286577
 20
75.643931
 30
-0.000000
 70
   192
  0
VERTEX
  8
banana
 10
-88.640632
 20
99.413452
 30
-0.000000
 70
   192
  0
VERTEX
  8
banana
 10
96.985245
 20
74.207531
 30
-5.370591
 70
   192
  0
VERTEX
  8
banana
 10
-90.349830
 20
98.230059
 30
-5.018881
 70
   192
  0
VERTEX
  8
banana
 10
-69.874461
 20
61.444242
 30
-28.822104
 70
   192
  0
VERTEX
  8
banana
 10
-85.039347
 20
47.828696
 30
-20.380305
 70
   192
  0
VERTEX
  8
banana
 10
-91.320848
 20
42.188953
 30
-0.000000
 70
   192
  0
VERTEX
  8
banana
 10
-85.039347
 20
47.828696
 30
20.380305
 70
   192
  0
VERTEX
  8
banana
 10
-69.874461
 20
61.444242
 30
28.822104
 70
   192
  0
VERTEX
  8
banana
 10
-54.709575
 20
75.059788
 30
20.380305
 70
   192
  0
VERTEX
  8
banana
 10
-48.428074
 20
80.699532
 30
-0.000000
 70
   192
  0
VERTEX
  8
banana
 10
-54.709575
 20
75.059788
 30
-20.380305
 70
   192
  0
VERTEX
  8
banana
 10
49.931792
 20
56.394361
 30
0.000000
 70
   192
  0
VERTEX
  8
banana
 10
52.056262
 20
49.014138
 30
-18.540949
 70
   192
  0
VERTEX
  8
banana
 10
-44.473083
 20
42.184054
 30
-30.347616
 70
   192
  0
VERTEX
  8
banana
 10
-54.217937
 20
23.065301
 30
-21.459005
 70
   192
  0
VERTEX
  8
banana
 10
-58.254388
 20
15.146054
 30
-0.000000
 70
   192
  0
VERTEX
  8
banana
 10
-54.217937
 20
23.065301
 30
21.459005
 70
   192
  0
VERTEX
  8
banana
 10
-44.473083
 20
42.184054
 30
30.347616
 70
   192
  0
VERTEX
  8
banana
 10
-34.728228
 20
61.302807
 30
21.459005
 70
   192
  0
VERTEX
  8
banana
 10
8.120833
 20
60.157093
 30
0.000000
 70
   192
  0
VERTEX
  8
banana
 10
7.205929
 20
51.364250
 30
-21.342404
 70
   192
  0
VERTEX
  8
banana
 10
57.185184
 20
31.196704
 30
-26.220862
 70
   192
  0
VERTEX
  8
banana
 10
62.314107
 20
13.379270
 30
-18.540949
 70
   192
  0
VERTEX
  8
banana
 10
64.438576
 20
5.999047
 30
0.000000
 70
   192
  0
VERTEX
  8
banana
 10
62.314107
 20
13.379270
 30
18.540949
 70
   192
  0
VERTEX
  8
banana
 10
57.185184
 20
31.196704
 30
26.220862
 70
   192
  0
VERTEX
  8
banana
 10
52.056262
 20
49.014138
 30
18.540949
 70
   192
  0
VERTEX
  8
banana
 10
82.781520
 20
46.619187
 30
-22.673551
 70
   192
  0
VERTEX
  8
banana
 10
95.513175
 20
36.874963
 30
-16.032621
 70
   192
  0
VERTEX
  8
banana
 10
100.786800
 20
32.838774
 30
0.000000
 70
   192
  0
VERTEX
  8
banana
 10
95.513175
 20
36.874963
 30
16.032621
 70
   192
  0
VERTEX
  8
banana
 10
82.781520
 20
46.619187
 30
22.673551
 70
   192
  0
VERTEX
  8
banana
 10
70.049864
 20
56.363411
 30
16.032621
 70
   192
  0
VERTEX
  8
banana
 10
64.776240
 20
60.399600
 30
0.000000
 70
   192
  0
VERTEX
  8
banana
 10
70.049864
 20
56.363411
 30
-16.032621
 70
   192
  0
VERTEX
  8
banana
 10
-82.539992
 20
78.133397
 30
-20.596380
 70
   192
  0
VERTEX
  8
banana
 10
-94.181143
 20
69.381879
 30
-14.563840
 70
   192
  0
VERTEX
  8
banana
 10
-99.003066
 20
65.756882
 30
-0.000000
 70
   192
  0
VERTEX
  8
banana
 10
-94.181143
 20
69.381879
 30
14.563840
 70
   192
  0
VERTEX
  8
banana
 10
-82.539992
 20
78.133397
 30
20.596380
 70
   192
  0
VERTEX
  8
banana
 10
-70.898842
 20
86.884914
 30
14.563840
 70
   192
  0
VERTEX
  8
banana
 10
-66.076919
 20
90.509911
 30
-0.000000
 70
   192
  0
VERTEX
  8
banana
 10
-70.898842
 20
86.884914
 30
-14.563840
 70
   192
  0
VERTEX
  8
banana
 10
-105.145343
 20
110.782749
 30
-6.565437
 70
   192
  0
VERTEX
  8
banana
 10
-108.962235
 20
108.140057
 30
-4.642465
 70
   192
  0
VERTEX
  8
banana
 10
-110.543243
 20
107.045418
 30
-0.000000
 70
   192
  0
VERTEX
  8
banana
 10
-108.962235
 20
108.140057
 30
4.642465
 70
   192
  0
VERTEX
  8
banana
 10
-105.145343
 20
110.782749
 30
6.565437
 70
   192
  0
VERTEX
  8
banana
 10
-101.328451
 20
113.425441
 30
4.642465
 70
   192
  0
VERTEX
  8
banana
 10
-99.747443
 20
114.520079
 30
-0.000000
 70
   192
  0
VERTEX
  8
banana
 10
-101.328451
 20
113.425441
 30
-4.642465
 70
   192
  0
VERTEX
  8
banana
 10
108.047259
 20
78.971818
 30
-6.364746
 70
   192
  0
VERTEX
  8
banana
 10
111.483852
 20
76.065821
 30
-4.500555
 70
   192
  0
VERTEX
  8
banana
 10
112.907336
 20
74.862118
 30
0.000000
 70
   192
  0
VERTEX
  8
banana
 10
111.483852
 20
76.065821
 30
4.500555
 70
   192
  0
VERTEX
  8
banana
 10
108.047259
 20
78.971818
 30
6.364746
 70
   192
  0
VERTEX
  8
banana
 10
104.610665
 20
81.877816
 30
4.500555
 70
   192
  0
VERTEX
  8
banana
 10
103.187181
 20
83.081519
 30
-0.000000
 70
   192
  0
VERTEX
  8
banana
 10
104.610665
 20
81.877816
 30
-4.500555
 70
   192
  0
VERTEX
  8
banana
 10
4.997156
 20
30.136449
 30
-30.182717
 70
   192
  0
VERTEX
  8
banana
 10
2.788384
 20
8.908649
 30
-21.342404
 70
   192
  0
VERTEX
  8
banana
 10
1.873480
 20
0.115806
 30
-0.000000
 70
   192
  0
VERTEX
  8
banana
 10
2.788384
 20
8.908649
 30
21.342404
 70
   192
  0
VERTEX
  8
banana
 10
4.997156
 20
30.136449
 30
30.182717
 70
   192
  0
VERTEX
  8
banana
 10
7.205929
 20
51.364250
 30
21.342404
 70
   192
  0
VERTEX
  8
banana
 10
0.0
 20
0.0
 30
0.0
 70
   128
 71
   74
 72
   67
 73
   68
  0
VERTEX
  8
banana
 10
0.0
 20
0.0
 30
0.0
 70
   128
 71
   3
 72
   43
 73
   44
  0
VERTEX
  8
banana
 10
0.0
 20
0.0
 30
0.0
 70
   128
 71
   63
 72
   61
 73
   59
  0
VERTEX
  8
banana
 10
0.0
 20
0.0
 30
0.0
 70
   128
 71
   73
 72
   74
 73
   69
  0
VERTEX
  8
banana
 10
0.0
 20
0.0
 30
0.0
 70
   128
 71
   52
 72
   6
 73
   8
  0
VERTEX
  8
banana
 10
0.0
 20
0.0
 30
0.0
 70
   128
 71
   59
 72
   61
 73
   60
  0
VERTEX
  8
banana
 10
0.0
 20
0.0
 30
0.0
 70
   128
 71
   69
 72
   70
 73
   71
  0
VERTEX
  8
banana
 10
0.0
 20
0.0
 30
0.0
 70
   128
 71
   7
 72
   45
 73
   46
  0
VERTEX
  8
banana
 10
0.0
 20
0.0
 30
0.0
 70
   128
 71
   63
 72
   66
 73
   65
  0
VERTEX
  8
banana
 10
0.0
 20
0.0
 30
0.0
 70
   128
 71
   71
 72
   72
 73
   73
  0
VERTEX
  8
banana
 10
0.0
 20
0.0
 30
0.0
 70
   128
 71
   22
 72
   54
 73
   55
  0
VERTEX
  8
banana
 10
0.0
 20
0.0
 30
0.0
 70
   128
 71
   63
 72
   62
 73
   61
  0
VERTEX
  8
banana
 10
0.0
 20
0.0
 30
0.0
 70
   128
 71
   2
 72
   25
 73
   26
  0
VERTEX
  8
banana
 10
0.0
 20
0.0
 30
0.0
 70
   128
 71
   11
 72
   47
 73
   48
  0
VERTEX
  8
banana
 10
0.0
 20
0.0
 30
0.0
 70
   128
 71
   29
 72
   75
 73
   36
  0
VERTEX
  8
banana
 10
0.0
 20
0.0
 30
0.0
 70
   128
 71
   31
 72
   77
 73
   76
  0
VERTEX
  8
banana
 10
0.0
 20
0.0
 30
0.0
 70
   128
 71
   24
 72
   56
 73
   57
  0
VERTEX
  8
banana
 10
0.0
 20
0.0
 30
0.0
 70
   128
 71
   29
 72
   19
 73
   20
  0
VERTEX
  8
banana
 10
0.0
 20
0.0
 30
0.0
 70
   128
 71
   33
 72
   79
 73
   78
  0
VERTEX
  8
banana
 10
0.0
 20
0.0
 30
0.0
 70
   128
 71
   15
 72
   49
 73
   50
  0
VERTEX
  8
banana
 10
0.0
 20
0.0
 30
0.0
 70
   128
 71
   31
 72
   21
 73
   22
  0
VERTEX
  8
banana
 10
0.0
 20
0.0
 30
0.0
 70
   128
 71
   2
 72
   35
 73
   80
  0
VERTEX
  8
banana
 10
0.0
 20
0.0
 30
0.0
 70
   128
 71
   26
 72
   58
 73
   51
  0
VERTEX
  8
banana
 10
0.0
 20
0.0
 30
0.0
 70
   128
 71
   33
 72
   23
 73
   24
  0
VERTEX
  8
banana
 10
0.0
 20
0.0
 30
0.0
 70
   128
 71
   19
 72
   51
 73
   52
  0
VERTEX
  8
banana
 10
0.0
 20
0.0
 30
0.0
 70
   128
 71
   45
 72
   7
 73
   5
  0
VERTEX
  8
banana
 10
0.0
 20
0.0
 30
0.0
 70
   128
 71
   21
 72
   53
 73
   54
  0
VERTEX
  8
banana
 10
0.0
 20
0.0
 30
0.0
 70
   128
 71
   47
 72
   11
 73
   9
  0
VERTEX
  8
banana
 10
0.0
 20
0.0
 30
0.0
 70
   128
 71
   23
 72
   55
 73
   56
  0
VERTEX
  8
banana
 10
0.0
 20
0.0
 30
0.0
 70
   128
 71
   49
 72
   15
 73
   13
  0
VERTEX
  8
banana
 10
0.0
 20
0.0
 30
0.0
 70
   128
 71
   25
 72
   57
 73
   58
  0
VERTEX
  8
banana
 10
0.0
 20
0.0
 30
0.0
 70
   128
 71
   19
 72
   29
 73
   1
  0
VERTEX
  8
banana
 10
0.0
 20
0.0
 30
0.0
 70
   128
 71
   29
 72
   30
 73
   76
  0
VERTEX
  8
banana
 10
0.0
 20
0.0
 30
0.0
 70
   128
 71
   31
 72
   32
 73
   78
  0
VERTEX
  8
banana
 10
0.0
 20
0.0
 30
0.0
 70
   128
 71
   33
 72
   34
 73
   80
  0
VERTEX
  8
banana
 10
0.0
 20
0.0
 30
0.0
 70
   128
 71
   2
 72
   1
 73
   36
  0
VERTEX
  8
banana
 10
0.0
 20
0.0
 30
0.0
 70
   128
 71
   30
 72
   20
 73
   21
  0
VERTEX
  8
banana
 10
0.0
 20
0.0
 30
0.0
 70
   128
 71
   32
 72
   22
 73
   23
  0
VERTEX
  8
banana
 10
0.0
 20
0.0
 30
0.0
 70
   128
 71
   34
 72
   24
 73
   25
  0
VERTEX
  8
banana
 10
0.0
 20
0.0
 30
0.0
 70
   128
 71
   37
 72
   43
 73
   50
  0
VERTEX
  8
banana
 10
0.0
 20
0.0
 30
0.0
 70
   128
 71
   75
 72
   76
 73
   38
  0
VERTEX
  8
banana
 10
0.0
 20
0.0
 30
0.0
 70
   128
 71
   77
 72
   78
 73
   40
  0
VERTEX
  8
banana
 10
0.0
 20
0.0
 30
0.0
 70
   128
 71
   79
 72
   80
 73
   42
  0
VERTEX
  8
banana
 10
0.0
 20
0.0
 30
0.0
 70
   128
 71
   35
 72
   36
 73
   28
  0
VERTEX
  8
banana
 10
0.0
 20
0.0
 30
0.0
 70
   128
 71
   39
 72
   45
 73
   44
  0
VERTEX
  8
banana
 10
0.0
 20
0.0
 30
0.0
 70
   128
 71
   41
 72
   47
 73
   46
  0
VERTEX
  8
banana
 10
0.0
 20
0.0
 30
0.0
 70
   128
 71
   27
 72
   49
 73
   48
  0
VERTEX
  8
banana
 10
0.0
 20
0.0
 30
0.0
 70
   128
 71
   37
 72
   28
 73
   36
  0
VERTEX
  8
banana
 10
0.0
 20
0.0
 30
0.0
 70
   128
 71
   43
 72
   37
 73
   38
  0
VERTEX
  8
banana
 10
0.0
 20
0.0
 30
0.0
 70
   128
 71
   45
 72
   39
 73
   40
  0
VERTEX
  8
banana
 10
0.0
 20
0.0
 30
0.0
 70
   128
 71
   47
 72
   41
 73
   42
  0
VERTEX
  8
banana
 10
0.0
 20
0.0
 30
0.0
 70
   128
 71
   49
 72
   27
 73
   28
  0
VERTEX
  8
banana
 10
0.0
 20
0.0
 30
0.0
 70
   128
 71
   38
 72
   76
 73
   77
  0
VERTEX
  8
banana
 10
0.0
 20
0.0
 30
0.0
 70
   128
 71
   40
 72
   78
 73
   79
  0
VERTEX
  8
banana
 10
0.0
 20
0.0
 30
0.0
 70
   128
 71
   42
 72
   80
 73
   35
  0
VERTEX
  8
banana
 10
0.0
 20
0.0
 30
0.0
 70
   128
 71
   43
 72
   3
 73
   17
  0
VERTEX
  8
banana
 10
0.0
 20
0.0
 30
0.0
 70
   128
 71
   53
 72
   21
 73
   20
  0
VERTEX
  8
banana
 10
0.0
 20
0.0
 30
0.0
 70
   128
 71
   54
 72
   10
 73
   12
  0
VERTEX
  8
banana
 10
0.0
 20
0.0
 30
0.0
 70
   128
 71
   56
 72
   14
 73
   16
  0
VERTEX
  8
banana
 10
0.0
 20
0.0
 30
0.0
 70
   128
 71
   58
 72
   18
 73
   4
  0
VERTEX
  8
banana
 10
0.0
 20
0.0
 30
0.0
 70
   128
 71
   51
 72
   4
 73
   6
  0
VERTEX
  8
banana
 10
0.0
 20
0.0
 30
0.0
 70
   128
 71
   53
 72
   8
 73
   10
  0
VERTEX
  8
banana
 10
0.0
 20
0.0
 30
0.0
 70
   128
 71
   55
 72
   12
 73
   14
  0
VERTEX
  8
banana
 10
0.0
 20
0.0
 30
0.0
 70
   128
 71
   57
 72
   16
 73
   18
  0
VERTEX
  8
banana
 10
0.0
 20
0.0
 30
0.0
 70
   128
 71
   4
 72
   59
 73
   60
  0
VERTEX
  8
banana
 10
0.0
 20
0.0
 30
0.0
 70
   128
 71
   6
 72
   60
 73
   61
  0
VERTEX
  8
banana
 10
0.0
 20
0.0
 30
0.0
 70
   128
 71
   8
 72
   61
 73
   62
  0
VERTEX
  8
banana
 10
0.0
 20
0.0
 30
0.0
 70
   128
 71
   10
 72
   62
 73
   63
  0
VERTEX
  8
banana
 10
0.0
 20
0.0
 30
0.0
 70
   128
 71
   12
 72
   63
 73
   64
  0
VERTEX
  8
banana
 10
0.0
 20
0.0
 30
0.0
 70
   128
 71
   14
 72
   64
 73
   65
  0
VERTEX
  8
banana
 10
0.0
 20
0.0
 30
0.0
 70
   128
 71
   16
 72
   65
 73
   66
  0
VERTEX
  8
banana
 10
0.0
 20
0.0
 30
0.0
 70
   128
 71
   18
 72
   66
 73
   59
  0
VERTEX
  8
banana
 10
0.0
 20
0.0
 30
0.0
 70
   128
 71
   5
 72
   68
 73
   67
  0
VERTEX
  8
banana
 10
0.0
 20
0.0
 30
0.0
 70
   128
 71
   7
 72
   69
 73
   68
  0
VERTEX
  8
banana
 10
0.0
 20
0.0
 30
0.0
 70
   128
 71
   9
 72
   70
 73
   69
  0
VERTEX
  8
banana
 10
0.0
 20
0.0
 30
0.0
 70
   128
 71
   11
 72
   71
 73
   70
  0
VERTEX
  8
banana
 10
0.0
 20
0.0
 30
0.0
 70
   128
 71
   13
 72
   72
 73
   71
  0
VERTEX
  8
banana
 10
0.0
 20
0.0
 30
0.0
 70
   128
 71
   15
 72
   73
 73
   72
  0
VERTEX
  8
banana
 10
0.0
 20
0.0
 30
0.0
 70
   128
 71
   17
 72
   74
 73
   73
  0
VERTEX
  8
banana
 10
0.0
 20
0.0
 30
0.0
 70
   128
 71
   3
 72
   67
 73
   74
  0
VERTEX
  8
banana
 10
0.0
 20
0.0
 30
0.0
 70
   128
 71
   74
 72
   68
 73
   69
  0
VERTEX
  8
banana
 10
0.0
 20
0.0
 30
0.0
 70
   128
 71
   3
 72
   44
 73
   5
  0
VERTEX
  8
banana
 10
0.0
 20
0.0
 30
0.0
 70
   128
 71
   63
 72
   59
 73
   66
  0
VERTEX
  8
banana
 10
0.0
 20
0.0
 30
0.0
 70
   128
 71
   73
 72
   69
 73
   71
  0
VERTEX
  8
banana
 10
0.0
 20
0.0
 30
0.0
 70
   128
 71
   52
 72
   8
 73
   53
  0
VERTEX
  8
banana
 10
0.0
 20
0.0
 30
0.0
 70
   128
 71
   7
 72
   46
 73
   9
  0
VERTEX
  8
banana
 10
0.0
 20
0.0
 30
0.0
 70
   128
 71
   63
 72
   65
 73
   64
  0
VERTEX
  8
banana
 10
0.0
 20
0.0
 30
0.0
 70
   128
 71
   22
 72
   55
 73
   23
  0
VERTEX
  8
banana
 10
0.0
 20
0.0
 30
0.0
 70
   128
 71
   2
 72
   26
 73
   1
  0
VERTEX
  8
banana
 10
0.0
 20
0.0
 30
0.0
 70
   128
 71
   11
 72
   48
 73
   13
  0
VERTEX
  8
banana
 10
0.0
 20
0.0
 30
0.0
 70
   128
 71
   29
 72
   36
 73
   1
  0
VERTEX
  8
banana
 10
0.0
 20
0.0
 30
0.0
 70
   128
 71
   31
 72
   76
 73
   30
  0
VERTEX
  8
banana
 10
0.0
 20
0.0
 30
0.0
 70
   128
 71
   24
 72
   57
 73
   25
  0
VERTEX
  8
banana
 10
0.0
 20
0.0
 30
0.0
 70
   128
 71
   29
 72
   20
 73
   30
  0
VERTEX
  8
banana
 10
0.0
 20
0.0
 30
0.0
 70
   128
 71
   33
 72
   78
 73
   32
  0
VERTEX
  8
banana
 10
0.0
 20
0.0
 30
0.0
 70
   128
 71
   15
 72
   50
 73
   17
  0
VERTEX
  8
banana
 10
0.0
 20
0.0
 30
0.0
 70
   128
 71
   31
 72
   22
 73
   32
  0
VERTEX
  8
banana
 10
0.0
 20
0.0
 30
0.0
 70
   128
 71
   2
 72
   80
 73
   34
  0
VERTEX
  8
banana
 10
0.0
 20
0.0
 30
0.0
 70
   128
 71
   26
 72
   51
 73
   19
  0
VERTEX
  8
banana
 10
0.0
 20
0.0
 30
0.0
 70
   128
 71
   33
 72
   24
 73
   34
  0
VERTEX
  8
banana
 10
0.0
 20
0.0
 30
0.0
 70
   128
 71
   19
 72
   52
 73
   20
  0
VERTEX
  8
banana
 10
0.0
 20
0.0
 30
0.0
 70
   128
 71
   45
 72
   5
 73
   44
  0
VERTEX
  8
banana
 10
0.0
 20
0.0
 30
0.0
 70
   128
 71
   21
 72
   54
 73
   22
  0
VERTEX
  8
banana
 10
0.0
 20
0.0
 30
0.0
 70
   128
 71
   47
 72
   9
 73
   46
  0
VERTEX
  8
banana
 10
0.0
 20
0.0
 30
0.0
 70
   128
 71
   23
 72
   56
 73
   24
  0
VERTEX
  8
banana
 10
0.0
 20
0.0
 30
0.0
 70
   128
 71
   49
 72
   13
 73
   48
  0
VERTEX
  8
banana
 10
0.0
 20
0.0
 30
0.0
 70
   128
 71
   25
 72
   58
 73
   26
  0
VERTEX
  8
banana
 10
0.0
 20
0.0
 30
0.0
 70
   128
 71
   19
 72
   1
 73
   26
  0
VERTEX
  8
banana
 10
0.0
 20
0.0
 30
0.0
 70
   128
 71
   29
 72
   76
 73
   75
  0
VERTEX
  8
banana
 10
0.0
 20
0.0
 30
0.0
 70
   128
 71
   31
 72
   78
 73
   77
  0
VERTEX
  8
banana
 10
0.0
 20
0.0
 30
0.0
 70
   128
 71
   33
 72
   80
 73
   79
  0
VERTEX
  8
banana
 10
0.0
 20
0.0
 30
0.0
 70
   128
 71
   2
 72
   36
 73
   35
  0
VERTEX
  8
banana
 10
0.0
 20
0.0
 30
0.0
 70
   128
 71
   30
 72
   21
 73
   31
  0
VERTEX
  8
banana
 10
0.0
 20
0.0
 30
0.0
 70
   128
 71
   32
 72
   23
 73
   33
  0
VERTEX
  8
banana
 10
0.0
 20
0.0
 30
0.0
 70
   128
 71
   34
 72
   25
 73
   2
  0
VERTEX
  8
banana
 10
0.0
 20
0.0
 30
0.0
 70
   128
 71
   37
 72
   50
 73
   28
  0
VERTEX
  8
banana
 10
0.0
 20
0.0
 30
0.0
 70
   128
 71
   75
 72
   38
 73
   37
  0
VERTEX
  8
banana
 10
0.0
 20
0.0
 30
0.0
 70
   128
 71
   77
 72
   40
 73
   39
  0
VERTEX
  8
banana
 10
0.0
 20
0.0
 30
0.0
 70
   128
 71
   79
 72
   42
 73
   41
  0
VERTEX
  8
banana
 10
0.0
 20
0.0
 30
0.0
 70
   128
 71
   35
 72
   28
 73
   27
  0
VERTEX
  8
banana
 10
0.0
 20
0.0
 30
0.0
 70
   128
 71
   39
 72
   44
 73
   38
  0
VERTEX
  8
banana
 10
0.0
 20
0.0
 30
0.0
 70
   128
 71
   41
 72
   46
 73
   40
  0
VERTEX
  8
banana
 10
0.0
 20
0.0
 30
0.0
 70
   128
 71
   27
 72
   48
 73
   42
  0
VERTEX
  8
banana
 10
0.0
 20
0.0
 30
0.0
 70
   128
 71
   37
 72
   36
 73
   75
  0
VERTEX
  8
banana
 10
0.0
 20
0.0
 30
0.0
 70
   128
 71
   43
 72
   38
 73
   44
  0
VERTEX
  8
banana
 10
0.0
 20
0.0
 30
0.0
 70
   128
 71
   45
 72
   40
 73
   46
  0
VERTEX
  8
banana
 10
0.0
 20
0.0
 30
0.0
 70
   128
 71
   47
 72
   42
 73
   48
  0
VERTEX
  8
banana
 10
0.0
 20
0.0
 30
0.0
 70
   128
 71
   49
 72
   28
 73
   50
  0
VERTEX
  8
banana
 10
0.0
 20
0.0
 30
0.0
 70
   128
 71
   38
 72
   77
 73
   39
  0
VERTEX
  8
banana
 10
0.0
 20
0.0
 30
0.0
 70
   128
 71
   40
 72
   79
 73
   41
  0
VERTEX
  8
banana
 10
0.0
 20
0.0
 30
0.0
 70
   128
 71
   42
 72
   35
 73
   27
  0
VERTEX
  8
banana
 10
0.0
 20
0.0
 30
0.0
 70
   128
 71
   43
 72
   17
 73
   50
  0
VERTEX
  8
banana
 10
0.0
 20
0.0
 30
0.0
 70
   128
 71
   53
 72
   20
 73
   52
  0
VERTEX
  8
banana
 10
0.0
 20
0.0
 30
0.0
 70
   128
 71
   54
 72
   12
 73
   55
  0
VERTEX
  8
banana
 10
0.0
 20
0.0
 30
0.0
 70
   128
 71
   56
 72
   16
 73
   57
  0
VERTEX
  8
banana
 10
0.0
 20
0.0
 30
0.0
 70
   128
 71
   58
 72
   4
 73
   51
  0
VERTEX
  8
banana
 10
0.0
 20
0.0
 30
0.0
 70
   128
 71
   51
 72
   6
 73
   52
  0
VERTEX
  8
banana
 10
0.0
 20
0.0
 30
0.0
 70
   128
 71
   53
 72
   10
 73
   54
  0
VERTEX
  8
banana
 10
0.0
 20
0.0
 30
0.0
 70
   128
 71
   55
 72
   14
 73
   56
  0
VERTEX
  8
banana
 10
0.0
 20
0.0
 30
0.0
 70
   128
 71
   57
 72
   18
 73
   58
  0
VERTEX
  8
banana
 10
0.0
 20
0.0
 30
0.0
 70
   128
 71
   4
 72
   60
 73
   6
  0
VERTEX
  8
banana
 10
0.0
 20
0.0
 30
0.0
 70
   128
 71
   6
 72
   61
 73
   8
  0
VERTEX
  8
banana
 10
0.0
 20
0.0
 30
0.0
 70
   128
 71
   8
 72
   62
 73
   10
  0
VERTEX
  8
banana
 10
0.0
 20
0.0
 30
0.0
 70
   128
 71
   10
 72
   63
 73
   12
  0
VERTEX
  8
banana
 10
0.0
 20
0.0
 30
0.0
 70
   128
 71
   12
 72
   64
 73
   14
  0
VERTEX
  8
banana
 10
0.0
 20
0.0
 30
0.0
 70
   128
 71
   14
 72
   65
 73
   16
  0
VERTEX
  8
banana
 10
0.0
 20
0.0
 30
0.0
 70
   128
 71
   16
 72
   66
 73
   18
  0
VERTEX
  8
banana
 10
0.0
 20
0.0
 30
0.0
 70
   128
 71
   18
 72
   59
 73
   4
  0
VERTEX
  8
banana
 10
0.0
 20
0.0
 30
0.0
 70
   128
 71
   5
 72
   67
 73
   3
  0
VERTEX
  8
banana
 10
0.0
 20
0.0
 30
0.0
 70
   128
 71
   7
 72
   68
 73
   5
  0
VERTEX
  8
banana
 10
0.0
 20
0.0
 30
0.0
 70
   128
 71
   9
 72
   69
 73
   7
  0
VERTEX
  8
banana
 10
0.0
 20
0.0
 30
0.0
 70
   128
 71
   11
 72
   70
 73
   9
  0
VERTEX
  8
banana
 10
0.0
 20
0.0
 30
0.0
 70
   128
 71
   13
 72
   71
 73
   11
  0
VERTEX
  8
banana
 10
0.0
 20
0.0
 30
0.0
 70
   128
 71
   15
 72
   72
 73
   13
  0
VERTEX
  8
banana
 10
0.0
 20
0.0
 30
0.0
 70
   128
 71
   17
 72
   73
 73
   15
  0
VERTEX
  8
banana
 10
0.0
 20
0.0
 30
0.0
 70
   128
 71
   3
 72
   74
 73
   17
  0
SEQEND
  0
ENDSEC
  0
EOF
