999
FBX AutoCAD (*.DXF) exporter
  0
SECTION
  2
HEADER
  9
$ACADVER
  1
AC1008
  9
$UCSORG
 10
0.0
 20
0.0
 30
0.0
  9
$UCSXDIR
 10
1.0
 20
0.0
 30
0.0
  9
$TILEMODE
 70
   1
  9
$UCSYDIR
 10
0.0
 20
1.0
 30
0.0
  0
ENDSEC
  0
SECTION
  2
TABLES
  0
TABLE
  2
LTYPE
 70
   1
  0
LTYPE
  2
CONTINUOUS
 70
   64
  3
Solid line
 72
   65
 73
   0
 40
0.0
  0
ENDTAB
  0
TABLE
  2
LAYER
 70
   1
  0
LAYER
  2
snackCheese02
 70
   0
 62
   250
  6
CONTINUOUS
  0
ENDTAB
  0
ENDSEC
  0
SECTION
  2
BLOCKS
  0
ENDSEC
  0
SECTION
  2
ENTITIES
  0
POLYLINE
  8
snackCheese02
 66
   1
 10
0.0
 20
0.0
 30
0.0
 70
   64
 71
   24
 72
   44
  0
VERTEX
  8
snackCheese02
 10
-43.614872
 20
9.500000
 30
35.357483
 70
   192
  0
VERTEX
  8
snackCheese02
 10
-43.614872
 20
121.261357
 30
35.357483
 70
   192
  0
VERTEX
  8
snackCheese02
 10
43.614872
 20
9.500000
 30
35.357483
 70
   192
  0
VERTEX
  8
snackCheese02
 10
43.614872
 20
121.261357
 30
35.357483
 70
   192
  0
VERTEX
  8
snackCheese02
 10
43.614872
 20
9.500000
 30
-35.357483
 70
   192
  0
VERTEX
  8
snackCheese02
 10
43.614872
 20
121.261357
 30
-35.357483
 70
   192
  0
VERTEX
  8
snackCheese02
 10
-43.614872
 20
9.500000
 30
-35.357483
 70
   192
  0
VERTEX
  8
snackCheese02
 10
-43.614872
 20
121.261357
 30
-35.357483
 70
   192
  0
VERTEX
  8
snackCheese02
 10
-43.614872
 20
158.227553
 30
5.318107
 70
   192
  0
VERTEX
  8
snackCheese02
 10
43.614872
 20
158.227553
 30
5.318107
 70
   192
  0
VERTEX
  8
snackCheese02
 10
43.614872
 20
158.227553
 30
-5.318107
 70
   192
  0
VERTEX
  8
snackCheese02
 10
-43.614872
 20
158.227553
 30
-5.318107
 70
   192
  0
VERTEX
  8
snackCheese02
 10
-43.614872
 20
173.627553
 30
4.177647
 70
   192
  0
VERTEX
  8
snackCheese02
 10
43.614872
 20
173.627553
 30
4.177647
 70
   192
  0
VERTEX
  8
snackCheese02
 10
43.614872
 20
173.627553
 30
-4.177647
 70
   192
  0
VERTEX
  8
snackCheese02
 10
-43.614872
 20
173.627553
 30
-4.177647
 70
   192
  0
VERTEX
  8
snackCheese02
 10
-43.614872
 20
138.242012
 30
26.172269
 70
   192
  0
VERTEX
  8
snackCheese02
 10
43.614872
 20
138.242012
 30
26.172269
 70
   192
  0
VERTEX
  8
snackCheese02
 10
43.614872
 20
138.242012
 30
-26.172269
 70
   192
  0
VERTEX
  8
snackCheese02
 10
-43.614872
 20
138.242012
 30
-26.172269
 70
   192
  0
VERTEX
  8
snackCheese02
 10
-43.614872
 20
0.000000
 30
29.912431
 70
   192
  0
VERTEX
  8
snackCheese02
 10
43.614872
 20
0.000000
 30
29.912431
 70
   192
  0
VERTEX
  8
snackCheese02
 10
43.614872
 20
0.000000
 30
-29.912431
 70
   192
  0
VERTEX
  8
snackCheese02
 10
-43.614872
 20
0.000000
 30
-29.912431
 70
   192
  0
VERTEX
  8
snackCheese02
 10
0.0
 20
0.0
 30
0.0
 70
   128
 71
   1
 72
   2
 73
   4
  0
VERTEX
  8
snackCheese02
 10
0.0
 20
0.0
 30
0.0
 70
   128
 71
   3
 72
   4
 73
   6
  0
VERTEX
  8
snackCheese02
 10
0.0
 20
0.0
 30
0.0
 70
   128
 71
   5
 72
   6
 73
   8
  0
VERTEX
  8
snackCheese02
 10
0.0
 20
0.0
 30
0.0
 70
   128
 71
   7
 72
   8
 73
   2
  0
VERTEX
  8
snackCheese02
 10
0.0
 20
0.0
 30
0.0
 70
   128
 71
   13
 72
   16
 73
   15
  0
VERTEX
  8
snackCheese02
 10
0.0
 20
0.0
 30
0.0
 70
   128
 71
   24
 72
   21
 73
   22
  0
VERTEX
  8
snackCheese02
 10
0.0
 20
0.0
 30
0.0
 70
   128
 71
   2
 72
   17
 73
   18
  0
VERTEX
  8
snackCheese02
 10
0.0
 20
0.0
 30
0.0
 70
   128
 71
   4
 72
   18
 73
   19
  0
VERTEX
  8
snackCheese02
 10
0.0
 20
0.0
 30
0.0
 70
   128
 71
   6
 72
   19
 73
   20
  0
VERTEX
  8
snackCheese02
 10
0.0
 20
0.0
 30
0.0
 70
   128
 71
   20
 72
   12
 73
   9
  0
VERTEX
  8
snackCheese02
 10
0.0
 20
0.0
 30
0.0
 70
   128
 71
   9
 72
   13
 73
   14
  0
VERTEX
  8
snackCheese02
 10
0.0
 20
0.0
 30
0.0
 70
   128
 71
   10
 72
   14
 73
   15
  0
VERTEX
  8
snackCheese02
 10
0.0
 20
0.0
 30
0.0
 70
   128
 71
   11
 72
   15
 73
   16
  0
VERTEX
  8
snackCheese02
 10
0.0
 20
0.0
 30
0.0
 70
   128
 71
   12
 72
   16
 73
   13
  0
VERTEX
  8
snackCheese02
 10
0.0
 20
0.0
 30
0.0
 70
   128
 71
   17
 72
   9
 73
   10
  0
VERTEX
  8
snackCheese02
 10
0.0
 20
0.0
 30
0.0
 70
   128
 71
   18
 72
   10
 73
   11
  0
VERTEX
  8
snackCheese02
 10
0.0
 20
0.0
 30
0.0
 70
   128
 71
   19
 72
   11
 73
   12
  0
VERTEX
  8
snackCheese02
 10
0.0
 20
0.0
 30
0.0
 70
   128
 71
   17
 72
   2
 73
   8
  0
VERTEX
  8
snackCheese02
 10
0.0
 20
0.0
 30
0.0
 70
   128
 71
   7
 72
   24
 73
   23
  0
VERTEX
  8
snackCheese02
 10
0.0
 20
0.0
 30
0.0
 70
   128
 71
   5
 72
   23
 73
   22
  0
VERTEX
  8
snackCheese02
 10
0.0
 20
0.0
 30
0.0
 70
   128
 71
   3
 72
   22
 73
   21
  0
VERTEX
  8
snackCheese02
 10
0.0
 20
0.0
 30
0.0
 70
   128
 71
   1
 72
   21
 73
   24
  0
VERTEX
  8
snackCheese02
 10
0.0
 20
0.0
 30
0.0
 70
   128
 71
   1
 72
   4
 73
   3
  0
VERTEX
  8
snackCheese02
 10
0.0
 20
0.0
 30
0.0
 70
   128
 71
   3
 72
   6
 73
   5
  0
VERTEX
  8
snackCheese02
 10
0.0
 20
0.0
 30
0.0
 70
   128
 71
   5
 72
   8
 73
   7
  0
VERTEX
  8
snackCheese02
 10
0.0
 20
0.0
 30
0.0
 70
   128
 71
   7
 72
   2
 73
   1
  0
VERTEX
  8
snackCheese02
 10
0.0
 20
0.0
 30
0.0
 70
   128
 71
   13
 72
   15
 73
   14
  0
VERTEX
  8
snackCheese02
 10
0.0
 20
0.0
 30
0.0
 70
   128
 71
   24
 72
   22
 73
   23
  0
VERTEX
  8
snackCheese02
 10
0.0
 20
0.0
 30
0.0
 70
   128
 71
   2
 72
   18
 73
   4
  0
VERTEX
  8
snackCheese02
 10
0.0
 20
0.0
 30
0.0
 70
   128
 71
   4
 72
   19
 73
   6
  0
VERTEX
  8
snackCheese02
 10
0.0
 20
0.0
 30
0.0
 70
   128
 71
   6
 72
   20
 73
   8
  0
VERTEX
  8
snackCheese02
 10
0.0
 20
0.0
 30
0.0
 70
   128
 71
   20
 72
   9
 73
   17
  0
VERTEX
  8
snackCheese02
 10
0.0
 20
0.0
 30
0.0
 70
   128
 71
   9
 72
   14
 73
   10
  0
VERTEX
  8
snackCheese02
 10
0.0
 20
0.0
 30
0.0
 70
   128
 71
   10
 72
   15
 73
   11
  0
VERTEX
  8
snackCheese02
 10
0.0
 20
0.0
 30
0.0
 70
   128
 71
   11
 72
   16
 73
   12
  0
VERTEX
  8
snackCheese02
 10
0.0
 20
0.0
 30
0.0
 70
   128
 71
   12
 72
   13
 73
   9
  0
VERTEX
  8
snackCheese02
 10
0.0
 20
0.0
 30
0.0
 70
   128
 71
   17
 72
   10
 73
   18
  0
VERTEX
  8
snackCheese02
 10
0.0
 20
0.0
 30
0.0
 70
   128
 71
   18
 72
   11
 73
   19
  0
VERTEX
  8
snackCheese02
 10
0.0
 20
0.0
 30
0.0
 70
   128
 71
   19
 72
   12
 73
   20
  0
VERTEX
  8
snackCheese02
 10
0.0
 20
0.0
 30
0.0
 70
   128
 71
   17
 72
   8
 73
   20
  0
VERTEX
  8
snackCheese02
 10
0.0
 20
0.0
 30
0.0
 70
   128
 71
   7
 72
   23
 73
   5
  0
VERTEX
  8
snackCheese02
 10
0.0
 20
0.0
 30
0.0
 70
   128
 71
   5
 72
   22
 73
   3
  0
VERTEX
  8
snackCheese02
 10
0.0
 20
0.0
 30
0.0
 70
   128
 71
   3
 72
   21
 73
   1
  0
VERTEX
  8
snackCheese02
 10
0.0
 20
0.0
 30
0.0
 70
   128
 71
   1
 72
   24
 73
   7
  0
SEQEND
  0
ENDSEC
  0
EOF
