999
FBX AutoCAD (*.DXF) exporter
  0
SECTION
  2
HEADER
  9
$ACADVER
  1
AC1008
  9
$UCSORG
 10
0.0
 20
0.0
 30
0.0
  9
$UCSXDIR
 10
1.0
 20
0.0
 30
0.0
  9
$TILEMODE
 70
   1
  9
$UCSYDIR
 10
0.0
 20
1.0
 30
0.0
  0
ENDSEC
  0
SECTION
  2
TABLES
  0
TABLE
  2
LTYPE
 70
   1
  0
LTYPE
  2
CONTINUOUS
 70
   64
  3
Solid line
 72
   65
 73
   0
 40
0.0
  0
ENDTAB
  0
TABLE
  2
LAYER
 70
   1
  0
LAYER
  2
pizza
 70
   0
 62
   250
  6
CONTINUOUS
  0
ENDTAB
  0
ENDSEC
  0
SECTION
  2
BLOCKS
  0
ENDSEC
  0
SECTION
  2
ENTITIES
  0
POLYLINE
  8
pizza
 66
   1
 10
0.0
 20
0.0
 30
0.0
 70
   64
 71
   231
 72
   432
  0
VERTEX
  8
pizza
 10
1.608884
 20
35.668562
 30
-9.956166
 70
   192
  0
VERTEX
  8
pizza
 10
7.002546
 20
29.429511
 30
-20.334100
 70
   192
  0
VERTEX
  8
pizza
 10
6.942678
 20
35.803497
 30
-20.266497
 70
   192
  0
VERTEX
  8
pizza
 10
77.902465
 20
59.314107
 30
-56.291250
 70
   192
  0
VERTEX
  8
pizza
 10
73.698868
 20
35.055433
 30
-47.967900
 70
   192
  0
VERTEX
  8
pizza
 10
8.461355
 20
29.062780
 30
21.100653
 70
   192
  0
VERTEX
  8
pizza
 10
8.401132
 20
35.365870
 30
21.171489
 70
   192
  0
VERTEX
  8
pizza
 10
99.814511
 20
11.722065
 30
-98.245193
 70
   192
  0
VERTEX
  8
pizza
 10
53.173815
 20
35.685715
 30
-125.563374
 70
   192
  0
VERTEX
  8
pizza
 10
50.664276
 20
59.685948
 30
-115.913366
 70
   192
  0
VERTEX
  8
pizza
 10
45.078819
 20
69.381304
 30
-93.133217
 70
   192
  0
VERTEX
  8
pizza
 10
39.689328
 20
59.092375
 30
-70.567229
 70
   192
  0
VERTEX
  8
pizza
 10
37.652895
 20
34.846277
 30
-61.434253
 70
   192
  0
VERTEX
  8
pizza
 10
0.301286
 20
29.240328
 30
12.840270
 70
   192
  0
VERTEX
  8
pizza
 10
45.747891
 20
0.000000
 30
-93.864410
 70
   192
  0
VERTEX
  8
pizza
 10
51.137382
 20
11.439616
 30
-116.430397
 70
   192
  0
VERTEX
  8
pizza
 10
-0.726962
 20
35.225384
 30
-131.929468
 70
   192
  0
VERTEX
  8
pizza
 10
-0.939059
 20
59.245238
 30
-122.008115
 70
   192
  0
VERTEX
  8
pizza
 10
-0.978001
 20
68.987963
 30
-98.572880
 70
   192
  0
VERTEX
  8
pizza
 10
-0.820975
 20
58.746404
 30
-75.351806
 70
   192
  0
VERTEX
  8
pizza
 10
-0.559967
 20
34.519926
 30
-65.947484
 70
   192
  0
VERTEX
  8
pizza
 10
0.241274
 20
35.542898
 30
12.914197
 70
   192
  0
VERTEX
  8
pizza
 10
-0.308928
 20
0.000000
 30
-99.304073
 70
   192
  0
VERTEX
  8
pizza
 10
-0.465953
 20
10.998906
 30
-122.525146
 70
   192
  0
VERTEX
  8
pizza
 10
-54.594853
 20
34.626129
 30
-125.301948
 70
   192
  0
VERTEX
  8
pizza
 10
-52.510910
 20
58.671525
 30
-115.663083
 70
   192
  0
VERTEX
  8
pizza
 10
-47.006720
 20
68.475915
 30
-92.909835
 70
   192
  0
VERTEX
  8
pizza
 10
-41.306563
 20
58.296021
 30
-70.370749
 70
   192
  0
VERTEX
  8
pizza
 10
-38.749514
 20
34.095085
 30
-61.248915
 70
   192
  0
VERTEX
  8
pizza
 10
-8.765445
 20
35.566468
 30
-4.749835
 70
   192
  0
VERTEX
  8
pizza
 10
-46.337647
 20
0.000000
 30
-93.641028
 70
   192
  0
VERTEX
  8
pizza
 10
-52.037804
 20
10.425194
 30
-116.180115
 70
   192
  0
VERTEX
  8
pizza
 10
-11.146392
 20
28.991006
 30
10.951883
 70
   192
  0
VERTEX
  8
pizza
 10
-11.217146
 20
35.392216
 30
11.025693
 70
   192
  0
VERTEX
  8
pizza
 10
-21.527274
 20
28.826144
 30
16.160605
 70
   192
  0
VERTEX
  8
pizza
 10
-21.589478
 20
35.174945
 30
16.228721
 70
   192
  0
VERTEX
  8
pizza
 10
-74.726880
 20
33.596105
 30
-47.607849
 70
   192
  0
VERTEX
  8
pizza
 10
0.022628
 20
0.000000
 30
100.204452
 70
   192
  0
VERTEX
  8
pizza
 10
-26.859568
 20
28.652592
 30
26.467140
 70
   192
  0
VERTEX
  8
pizza
 10
-26.930719
 20
34.947218
 30
26.539660
 70
   192
  0
VERTEX
  8
pizza
 10
104.018108
 20
35.980738
 30
-106.568543
 70
   192
  0
VERTEX
  8
pizza
 10
99.341405
 20
59.968396
 30
-97.728161
 70
   192
  0
VERTEX
  8
pizza
 10
88.523952
 20
69.633394
 30
-76.902625
 70
   192
  0
VERTEX
  8
pizza
 10
-25.115122
 20
28.533617
 30
37.945248
 70
   192
  0
VERTEX
  8
pizza
 10
-25.180393
 20
34.776943
 30
38.014860
 70
   192
  0
VERTEX
  8
pizza
 10
-16.955601
 20
28.747770
 30
46.217248
 70
   192
  0
VERTEX
  8
pizza
 10
89.193024
 20
0.000000
 30
-77.633818
 70
   192
  0
VERTEX
  8
pizza
 10
-17.025622
 20
35.123432
 30
46.277917
 70
   192
  0
VERTEX
  8
pizza
 10
-105.342374
 20
33.922298
 30
-106.060676
 70
   192
  0
VERTEX
  8
pizza
 10
-101.095391
 20
57.997694
 30
-97.241941
 70
   192
  0
VERTEX
  8
pizza
 10
-90.369163
 20
67.874510
 30
-76.468665
 70
   192
  0
VERTEX
  8
pizza
 10
-79.446968
 20
57.767041
 30
-55.909551
 70
   192
  0
VERTEX
  8
pizza
 10
-5.506904
 20
28.625293
 30
48.100317
 70
   192
  0
VERTEX
  8
pizza
 10
-0.310965
 20
32.666602
 30
100.569019
 70
   192
  0
VERTEX
  8
pizza
 10
-89.700091
 20
0.000000
 30
-77.199859
 70
   192
  0
VERTEX
  8
pizza
 10
-100.622286
 20
9.751362
 30
-97.758973
 70
   192
  0
VERTEX
  8
pizza
 10
-5.561689
 20
35.030825
 30
48.164787
 70
   192
  0
VERTEX
  8
pizza
 10
1.666538
 20
29.328383
 30
-10.022051
 70
   192
  0
VERTEX
  8
pizza
 10
4.870295
 20
28.792739
 30
42.892571
 70
   192
  0
VERTEX
  8
pizza
 10
4.812640
 20
35.132919
 30
42.958456
 70
   192
  0
VERTEX
  8
pizza
 10
0.023121
 20
-0.000000
 30
100.203914
 70
   192
  0
VERTEX
  8
pizza
 10
10.206302
 20
28.893868
 30
32.580523
 70
   192
  0
VERTEX
  8
pizza
 10
10.146435
 20
35.267853
 30
32.648125
 70
   192
  0
VERTEX
  8
pizza
 10
-0.309782
 20
32.545961
 30
100.567726
 70
   192
  0
VERTEX
  8
pizza
 10
26.122270
 20
34.356917
 30
21.234353
 70
   192
  0
VERTEX
  8
pizza
 10
26.100781
 20
36.602193
 30
21.259510
 70
   192
  0
VERTEX
  8
pizza
 10
23.404440
 20
34.419965
 30
18.483192
 70
   192
  0
VERTEX
  8
pizza
 10
23.383021
 20
36.665056
 30
18.509378
 70
   192
  0
VERTEX
  8
pizza
 10
19.591712
 20
34.333284
 30
17.854207
 70
   192
  0
VERTEX
  8
pizza
 10
19.566693
 20
36.613515
 30
17.880378
 70
   192
  0
VERTEX
  8
pizza
 10
16.134257
 20
34.278207
 30
19.589022
 70
   192
  0
VERTEX
  8
pizza
 10
16.112097
 20
36.539766
 30
19.613284
 70
   192
  0
VERTEX
  8
pizza
 10
14.358285
 20
34.220153
 30
23.021713
 70
   192
  0
VERTEX
  8
pizza
 10
14.333158
 20
36.462417
 30
23.047429
 70
   192
  0
VERTEX
  8
pizza
 10
14.939293
 20
34.180225
 30
26.844609
 70
   192
  0
VERTEX
  8
pizza
 10
14.916136
 20
36.404213
 30
26.869343
 70
   192
  0
VERTEX
  8
pizza
 10
17.656853
 20
34.256709
 30
29.599737
 70
   192
  0
VERTEX
  8
pizza
 10
17.632084
 20
36.527836
 30
29.621525
 70
   192
  0
VERTEX
  8
pizza
 10
21.470005
 20
34.210949
 30
30.226858
 70
   192
  0
VERTEX
  8
pizza
 10
21.450304
 20
36.492713
 30
30.249920
 70
   192
  0
VERTEX
  8
pizza
 10
24.926232
 20
34.266947
 30
28.492369
 70
   192
  0
VERTEX
  8
pizza
 10
24.905590
 20
36.525433
 30
28.515886
 70
   192
  0
VERTEX
  8
pizza
 10
26.703457
 20
34.299200
 30
25.057823
 70
   192
  0
VERTEX
  8
pizza
 10
26.682070
 20
36.569729
 30
25.081920
 70
   192
  0
VERTEX
  8
pizza
 10
24.982975
 20
36.585054
 30
21.820340
 70
   192
  0
VERTEX
  8
pizza
 10
22.808444
 20
36.647757
 30
19.620163
 70
   192
  0
VERTEX
  8
pizza
 10
19.754733
 20
36.602662
 30
19.116812
 70
   192
  0
VERTEX
  8
pizza
 10
16.990635
 20
36.539500
 30
20.503332
 70
   192
  0
VERTEX
  8
pizza
 10
15.567351
 20
36.472849
 30
23.250958
 70
   192
  0
VERTEX
  8
pizza
 10
16.033772
 20
36.421352
 30
26.308347
 70
   192
  0
VERTEX
  8
pizza
 10
18.206675
 20
36.545135
 30
28.510749
 70
   192
  0
VERTEX
  8
pizza
 10
21.262181
 20
36.503565
 30
29.013466
 70
   192
  0
VERTEX
  8
pizza
 10
24.026665
 20
36.525693
 30
27.626094
 70
   192
  0
VERTEX
  8
pizza
 10
25.448048
 20
36.559298
 30
24.878558
 70
   192
  0
VERTEX
  8
pizza
 10
25.004381
 20
34.340644
 30
21.795028
 70
   192
  0
VERTEX
  8
pizza
 10
22.829747
 20
34.402652
 30
19.593946
 70
   192
  0
VERTEX
  8
pizza
 10
19.779804
 20
34.321545
 30
19.090650
 70
   192
  0
VERTEX
  8
pizza
 10
17.013152
 20
34.276526
 30
20.478841
 70
   192
  0
VERTEX
  8
pizza
 10
15.592292
 20
34.229170
 30
23.225158
 70
   192
  0
VERTEX
  8
pizza
 10
16.057203
 20
34.196496
 30
26.284112
 70
   192
  0
VERTEX
  8
pizza
 10
18.231699
 20
34.274023
 30
28.488980
 70
   192
  0
VERTEX
  8
pizza
 10
21.281825
 20
34.222686
 30
28.990428
 70
   192
  0
VERTEX
  8
pizza
 10
24.047349
 20
34.268628
 30
27.602573
 70
   192
  0
VERTEX
  8
pizza
 10
25.469450
 20
34.290184
 30
24.854331
 70
   192
  0
VERTEX
  8
pizza
 10
-37.105815
 20
34.393230
 30
-40.010498
 70
   192
  0
VERTEX
  8
pizza
 10
-37.127304
 20
36.638506
 30
-39.985341
 70
   192
  0
VERTEX
  8
pizza
 10
-39.823645
 20
34.456278
 30
-42.761659
 70
   192
  0
VERTEX
  8
pizza
 10
-39.845064
 20
36.701369
 30
-42.735473
 70
   192
  0
VERTEX
  8
pizza
 10
-43.636373
 20
34.369597
 30
-43.390644
 70
   192
  0
VERTEX
  8
pizza
 10
-43.661392
 20
36.649827
 30
-43.364472
 70
   192
  0
VERTEX
  8
pizza
 10
-47.093828
 20
34.314520
 30
-41.655829
 70
   192
  0
VERTEX
  8
pizza
 10
-47.115988
 20
36.576079
 30
-41.631567
 70
   192
  0
VERTEX
  8
pizza
 10
-48.869800
 20
34.256466
 30
-38.223137
 70
   192
  0
VERTEX
  8
pizza
 10
-48.894927
 20
36.498730
 30
-38.197421
 70
   192
  0
VERTEX
  8
pizza
 10
-48.288792
 20
34.216538
 30
-34.400242
 70
   192
  0
VERTEX
  8
pizza
 10
-48.311949
 20
36.440526
 30
-34.375507
 70
   192
  0
VERTEX
  8
pizza
 10
-45.571232
 20
34.293022
 30
-31.645114
 70
   192
  0
VERTEX
  8
pizza
 10
-45.596001
 20
36.564148
 30
-31.623325
 70
   192
  0
VERTEX
  8
pizza
 10
-41.758080
 20
34.247262
 30
-31.017992
 70
   192
  0
VERTEX
  8
pizza
 10
-41.777781
 20
36.529026
 30
-30.994930
 70
   192
  0
VERTEX
  8
pizza
 10
-38.301853
 20
34.303260
 30
-32.752482
 70
   192
  0
VERTEX
  8
pizza
 10
-38.322495
 20
36.561746
 30
-32.728965
 70
   192
  0
VERTEX
  8
pizza
 10
-36.524628
 20
34.335513
 30
-36.187028
 70
   192
  0
VERTEX
  8
pizza
 10
-36.546015
 20
36.606042
 30
-36.162930
 70
   192
  0
VERTEX
  8
pizza
 10
-38.245110
 20
36.621367
 30
-39.424511
 70
   192
  0
VERTEX
  8
pizza
 10
-40.419641
 20
36.684070
 30
-41.624688
 70
   192
  0
VERTEX
  8
pizza
 10
-43.473352
 20
36.638975
 30
-42.128038
 70
   192
  0
VERTEX
  8
pizza
 10
-46.237450
 20
36.575813
 30
-40.741519
 70
   192
  0
VERTEX
  8
pizza
 10
-47.660734
 20
36.509161
 30
-37.993893
 70
   192
  0
VERTEX
  8
pizza
 10
-47.194313
 20
36.457665
 30
-34.936504
 70
   192
  0
VERTEX
  8
pizza
 10
-45.021410
 20
36.581448
 30
-32.734101
 70
   192
  0
VERTEX
  8
pizza
 10
-41.965904
 20
36.539878
 30
-32.231385
 70
   192
  0
VERTEX
  8
pizza
 10
-39.201420
 20
36.562006
 30
-33.618757
 70
   192
  0
VERTEX
  8
pizza
 10
-37.780037
 20
36.595611
 30
-36.366293
 70
   192
  0
VERTEX
  8
pizza
 10
-38.223704
 20
34.376957
 30
-39.449822
 70
   192
  0
VERTEX
  8
pizza
 10
-40.398338
 20
34.438965
 30
-41.650905
 70
   192
  0
VERTEX
  8
pizza
 10
-43.448281
 20
34.357858
 30
-42.154200
 70
   192
  0
VERTEX
  8
pizza
 10
-46.214933
 20
34.312839
 30
-40.766010
 70
   192
  0
VERTEX
  8
pizza
 10
-47.635793
 20
34.265483
 30
-38.019693
 70
   192
  0
VERTEX
  8
pizza
 10
-47.170883
 20
34.232808
 30
-34.960739
 70
   192
  0
VERTEX
  8
pizza
 10
-44.996386
 20
34.310336
 30
-32.755871
 70
   192
  0
VERTEX
  8
pizza
 10
-41.946260
 20
34.258999
 30
-32.254422
 70
   192
  0
VERTEX
  8
pizza
 10
-39.180736
 20
34.304941
 30
-33.642277
 70
   192
  0
VERTEX
  8
pizza
 10
-37.758635
 20
34.326497
 30
-36.390520
 70
   192
  0
VERTEX
  8
pizza
 10
-27.275202
 20
32.169550
 30
-4.480106
 70
   192
  0
VERTEX
  8
pizza
 10
-27.336145
 20
38.472650
 30
-4.410763
 70
   192
  0
VERTEX
  8
pizza
 10
-31.731352
 20
32.343221
 30
-8.989453
 70
   192
  0
VERTEX
  8
pizza
 10
-31.792177
 20
38.645814
 30
-8.918425
 70
   192
  0
VERTEX
  8
pizza
 10
-37.981084
 20
32.135691
 30
-10.021277
 70
   192
  0
VERTEX
  8
pizza
 10
-38.048214
 20
38.536962
 30
-9.949833
 70
   192
  0
VERTEX
  8
pizza
 10
-43.649013
 20
32.042386
 30
-7.177350
 70
   192
  0
VERTEX
  8
pizza
 10
-43.711241
 20
38.391188
 30
-7.109270
 70
   192
  0
VERTEX
  8
pizza
 10
-46.560398
 20
31.942719
 30
-1.550035
 70
   192
  0
VERTEX
  8
pizza
 10
-46.627270
 20
38.237411
 30
-1.479813
 70
   192
  0
VERTEX
  8
pizza
 10
-45.607872
 20
31.871824
 30
4.716949
 70
   192
  0
VERTEX
  8
pizza
 10
-45.671305
 20
38.115181
 30
4.785333
 70
   192
  0
VERTEX
  8
pizza
 10
-41.153765
 20
32.089875
 30
9.234545
 70
   192
  0
VERTEX
  8
pizza
 10
-41.220380
 20
38.465533
 30
9.298689
 70
   192
  0
VERTEX
  8
pizza
 10
-34.901821
 20
31.925611
 30
10.261656
 70
   192
  0
VERTEX
  8
pizza
 10
-34.960250
 20
38.331087
 30
10.328021
 70
   192
  0
VERTEX
  8
pizza
 10
-29.235915
 20
32.021521
 30
7.418275
 70
   192
  0
VERTEX
  8
pizza
 10
-29.295620
 20
38.361671
 30
7.485095
 70
   192
  0
VERTEX
  8
pizza
 10
-26.322180
 20
32.048729
 30
1.787596
 70
   192
  0
VERTEX
  8
pizza
 10
-26.383244
 20
38.422699
 30
1.855518
 70
   192
  0
VERTEX
  8
pizza
 10
8.678984
 20
31.808311
 30
62.128126
 70
   192
  0
VERTEX
  8
pizza
 10
8.618041
 20
38.111411
 30
62.197469
 70
   192
  0
VERTEX
  8
pizza
 10
4.222834
 20
31.981983
 30
57.618779
 70
   192
  0
VERTEX
  8
pizza
 10
4.162008
 20
38.284576
 30
57.689807
 70
   192
  0
VERTEX
  8
pizza
 10
-2.026898
 20
31.774453
 30
56.586955
 70
   192
  0
VERTEX
  8
pizza
 10
-2.094028
 20
38.175724
 30
56.658399
 70
   192
  0
VERTEX
  8
pizza
 10
-7.694828
 20
31.681148
 30
59.430882
 70
   192
  0
VERTEX
  8
pizza
 10
-7.757055
 20
38.029950
 30
59.498962
 70
   192
  0
VERTEX
  8
pizza
 10
-10.606212
 20
31.581480
 30
65.058197
 70
   192
  0
VERTEX
  8
pizza
 10
-10.673084
 20
37.876173
 30
65.128419
 70
   192
  0
VERTEX
  8
pizza
 10
-9.653686
 20
31.510585
 30
71.325181
 70
   192
  0
VERTEX
  8
pizza
 10
-9.717119
 20
37.753942
 30
71.393565
 70
   192
  0
VERTEX
  8
pizza
 10
-5.199579
 20
31.728637
 30
75.842776
 70
   192
  0
VERTEX
  8
pizza
 10
-5.266195
 20
38.104294
 30
75.906921
 70
   192
  0
VERTEX
  8
pizza
 10
1.052364
 20
31.564372
 30
76.869888
 70
   192
  0
VERTEX
  8
pizza
 10
0.993936
 20
37.969849
 30
76.936253
 70
   192
  0
VERTEX
  8
pizza
 10
6.718271
 20
31.660282
 30
74.026507
 70
   192
  0
VERTEX
  8
pizza
 10
6.658566
 20
38.000432
 30
74.093327
 70
   192
  0
VERTEX
  8
pizza
 10
9.632006
 20
31.687490
 30
68.395828
 70
   192
  0
VERTEX
  8
pizza
 10
9.570942
 20
38.061460
 30
68.463750
 70
   192
  0
VERTEX
  8
pizza
 10
29.144364
 20
33.104652
 30
-40.112078
 70
   192
  0
VERTEX
  8
pizza
 10
29.083421
 20
39.407752
 30
-40.042736
 70
   192
  0
VERTEX
  8
pizza
 10
24.688214
 20
33.278324
 30
-44.621425
 70
   192
  0
VERTEX
  8
pizza
 10
24.627388
 20
39.580917
 30
-44.550397
 70
   192
  0
VERTEX
  8
pizza
 10
18.438482
 20
33.070794
 30
-45.653249
 70
   192
  0
VERTEX
  8
pizza
 10
18.371352
 20
39.472065
 30
-45.581805
 70
   192
  0
VERTEX
  8
pizza
 10
12.770552
 20
32.977489
 30
-42.809323
 70
   192
  0
VERTEX
  8
pizza
 10
12.708325
 20
39.326291
 30
-42.741243
 70
   192
  0
VERTEX
  8
pizza
 10
9.859168
 20
32.877822
 30
-37.182007
 70
   192
  0
VERTEX
  8
pizza
 10
9.792296
 20
39.172514
 30
-37.111785
 70
   192
  0
VERTEX
  8
pizza
 10
10.811694
 20
32.806926
 30
-30.915024
 70
   192
  0
VERTEX
  8
pizza
 10
10.748260
 20
39.050283
 30
-30.846640
 70
   192
  0
VERTEX
  8
pizza
 10
15.265801
 20
33.024978
 30
-26.397428
 70
   192
  0
VERTEX
  8
pizza
 10
15.199185
 20
39.400635
 30
-26.333283
 70
   192
  0
VERTEX
  8
pizza
 10
21.517744
 20
32.860714
 30
-25.370316
 70
   192
  0
VERTEX
  8
pizza
 10
21.459315
 20
39.266190
 30
-25.303951
 70
   192
  0
VERTEX
  8
pizza
 10
27.183651
 20
32.956624
 30
-28.213697
 70
   192
  0
VERTEX
  8
pizza
 10
27.123946
 20
39.296773
 30
-28.146877
 70
   192
  0
VERTEX
  8
pizza
 10
30.097385
 20
32.983831
 30
-33.844376
 70
   192
  0
VERTEX
  8
pizza
 10
30.036321
 20
39.357802
 30
-33.776454
 70
   192
  0
VERTEX
  8
pizza
 10
57.072183
 20
33.276318
 30
-14.801571
 70
   192
  0
VERTEX
  8
pizza
 10
57.012171
 20
39.578888
 30
-14.727644
 70
   192
  0
VERTEX
  8
pizza
 10
45.624505
 20
33.026996
 30
-16.689958
 70
   192
  0
VERTEX
  8
pizza
 10
45.553751
 20
39.428206
 30
-16.616148
 70
   192
  0
VERTEX
  8
pizza
 10
35.243623
 20
32.862133
 30
-11.481236
 70
   192
  0
VERTEX
  8
pizza
 10
35.181420
 20
39.210935
 30
-11.413120
 70
   192
  0
VERTEX
  8
pizza
 10
29.911329
 20
32.688582
 30
-1.174701
 70
   192
  0
VERTEX
  8
pizza
 10
29.840178
 20
38.983208
 30
-1.102181
 70
   192
  0
VERTEX
  8
pizza
 10
31.655775
 20
32.569607
 30
10.303407
 70
   192
  0
VERTEX
  8
pizza
 10
31.590504
 20
38.812933
 30
10.373019
 70
   192
  0
VERTEX
  8
pizza
 10
39.815296
 20
32.783760
 30
18.575407
 70
   192
  0
VERTEX
  8
pizza
 10
39.745276
 20
39.159421
 30
18.636076
 70
   192
  0
VERTEX
  8
pizza
 10
5.257598
 20
29.598423
 30
-31.813969
 70
   192
  0
VERTEX
  8
pizza
 10
5.197376
 20
35.901514
 30
-31.743134
 70
   192
  0
VERTEX
  8
pizza
 10
-2.902470
 20
29.775972
 30
-40.074352
 70
   192
  0
VERTEX
  8
pizza
 10
-2.962483
 20
36.078541
 30
-40.000425
 70
   192
  0
VERTEX
  8
pizza
 10
-14.350148
 20
29.526649
 30
-41.962739
 70
   192
  0
VERTEX
  8
pizza
 10
-14.420902
 20
35.927859
 30
-41.888929
 70
   192
  0
VERTEX
  8
pizza
 10
-24.731031
 20
29.361787
 30
-36.754018
 70
   192
  0
VERTEX
  8
pizza
 10
-24.793234
 20
35.710589
 30
-36.685902
 70
   192
  0
VERTEX
  8
pizza
 10
-30.063325
 20
29.188235
 30
-26.447483
 70
   192
  0
VERTEX
  8
pizza
 10
-30.134475
 20
35.482861
 30
-26.374962
 70
   192
  0
VERTEX
  8
pizza
 10
-28.318879
 20
29.069260
 30
-14.969374
 70
   192
  0
VERTEX
  8
pizza
 10
-28.384150
 20
35.312586
 30
-14.899762
 70
   192
  0
VERTEX
  8
pizza
 10
-20.159358
 20
29.283414
 30
-6.697374
 70
   192
  0
VERTEX
  8
pizza
 10
-20.229378
 20
35.659075
 30
-6.636705
 70
   192
  0
VERTEX
  8
pizza
 10
-8.710660
 20
29.160936
 30
-4.814305
 70
   192
  0
VERTEX
  8
pizza
 10
0.0
 20
0.0
 30
0.0
 70
   128
 71
   41
 72
   42
 73
   10
  0
VERTEX
  8
pizza
 10
0.0
 20
0.0
 30
0.0
 70
   128
 71
   42
 72
   43
 73
   11
  0
VERTEX
  8
pizza
 10
0.0
 20
0.0
 30
0.0
 70
   128
 71
   43
 72
   4
 73
   12
  0
VERTEX
  8
pizza
 10
0.0
 20
0.0
 30
0.0
 70
   128
 71
   4
 72
   5
 73
   13
  0
VERTEX
  8
pizza
 10
0.0
 20
0.0
 30
0.0
 70
   128
 71
   47
 72
   8
 73
   16
  0
VERTEX
  8
pizza
 10
0.0
 20
0.0
 30
0.0
 70
   128
 71
   8
 72
   41
 73
   9
  0
VERTEX
  8
pizza
 10
0.0
 20
0.0
 30
0.0
 70
   128
 71
   9
 72
   10
 73
   18
  0
VERTEX
  8
pizza
 10
0.0
 20
0.0
 30
0.0
 70
   128
 71
   10
 72
   11
 73
   19
  0
VERTEX
  8
pizza
 10
0.0
 20
0.0
 30
0.0
 70
   128
 71
   11
 72
   12
 73
   20
  0
VERTEX
  8
pizza
 10
0.0
 20
0.0
 30
0.0
 70
   128
 71
   12
 72
   13
 73
   21
  0
VERTEX
  8
pizza
 10
0.0
 20
0.0
 30
0.0
 70
   128
 71
   39
 72
   40
 73
   45
  0
VERTEX
  8
pizza
 10
0.0
 20
0.0
 30
0.0
 70
   128
 71
   36
 72
   7
 73
   60
  0
VERTEX
  8
pizza
 10
0.0
 20
0.0
 30
0.0
 70
   128
 71
   15
 72
   16
 73
   24
  0
VERTEX
  8
pizza
 10
0.0
 20
0.0
 30
0.0
 70
   128
 71
   16
 72
   9
 73
   17
  0
VERTEX
  8
pizza
 10
0.0
 20
0.0
 30
0.0
 70
   128
 71
   17
 72
   18
 73
   26
  0
VERTEX
  8
pizza
 10
0.0
 20
0.0
 30
0.0
 70
   128
 71
   18
 72
   19
 73
   27
  0
VERTEX
  8
pizza
 10
0.0
 20
0.0
 30
0.0
 70
   128
 71
   19
 72
   20
 73
   28
  0
VERTEX
  8
pizza
 10
0.0
 20
0.0
 30
0.0
 70
   128
 71
   20
 72
   21
 73
   29
  0
VERTEX
  8
pizza
 10
0.0
 20
0.0
 30
0.0
 70
   128
 71
   45
 72
   60
 73
   57
  0
VERTEX
  8
pizza
 10
0.0
 20
0.0
 30
0.0
 70
   128
 71
   44
 72
   45
 73
   48
  0
VERTEX
  8
pizza
 10
0.0
 20
0.0
 30
0.0
 70
   128
 71
   23
 72
   24
 73
   32
  0
VERTEX
  8
pizza
 10
0.0
 20
0.0
 30
0.0
 70
   128
 71
   24
 72
   17
 73
   25
  0
VERTEX
  8
pizza
 10
0.0
 20
0.0
 30
0.0
 70
   128
 71
   25
 72
   26
 73
   50
  0
VERTEX
  8
pizza
 10
0.0
 20
0.0
 30
0.0
 70
   128
 71
   26
 72
   27
 73
   51
  0
VERTEX
  8
pizza
 10
0.0
 20
0.0
 30
0.0
 70
   128
 71
   27
 72
   28
 73
   52
  0
VERTEX
  8
pizza
 10
0.0
 20
0.0
 30
0.0
 70
   128
 71
   28
 72
   29
 73
   37
  0
VERTEX
  8
pizza
 10
0.0
 20
0.0
 30
0.0
 70
   128
 71
   35
 72
   39
 73
   44
  0
VERTEX
  8
pizza
 10
0.0
 20
0.0
 30
0.0
 70
   128
 71
   35
 72
   36
 73
   40
  0
VERTEX
  8
pizza
 10
0.0
 20
0.0
 30
0.0
 70
   128
 71
   31
 72
   32
 73
   56
  0
VERTEX
  8
pizza
 10
0.0
 20
0.0
 30
0.0
 70
   128
 71
   32
 72
   25
 73
   49
  0
VERTEX
  8
pizza
 10
0.0
 20
0.0
 30
0.0
 70
   128
 71
   41
 72
   43
 73
   42
  0
VERTEX
  8
pizza
 10
0.0
 20
0.0
 30
0.0
 70
   128
 71
   41
 72
   5
 73
   43
  0
VERTEX
  8
pizza
 10
0.0
 20
0.0
 30
0.0
 70
   128
 71
   41
 72
   47
 73
   5
  0
VERTEX
  8
pizza
 10
0.0
 20
0.0
 30
0.0
 70
   128
 71
   41
 72
   8
 73
   47
  0
VERTEX
  8
pizza
 10
0.0
 20
0.0
 30
0.0
 70
   128
 71
   43
 72
   5
 73
   4
  0
VERTEX
  8
pizza
 10
0.0
 20
0.0
 30
0.0
 70
   128
 71
   47
 72
   38
 73
   54
  0
VERTEX
  8
pizza
 10
0.0
 20
0.0
 30
0.0
 70
   128
 71
   49
 72
   50
 73
   51
  0
VERTEX
  8
pizza
 10
0.0
 20
0.0
 30
0.0
 70
   128
 71
   49
 72
   51
 73
   37
  0
VERTEX
  8
pizza
 10
0.0
 20
0.0
 30
0.0
 70
   128
 71
   49
 72
   37
 73
   55
  0
VERTEX
  8
pizza
 10
0.0
 20
0.0
 30
0.0
 70
   128
 71
   49
 72
   55
 73
   56
  0
VERTEX
  8
pizza
 10
0.0
 20
0.0
 30
0.0
 70
   128
 71
   51
 72
   52
 73
   37
  0
VERTEX
  8
pizza
 10
0.0
 20
0.0
 30
0.0
 70
   128
 71
   35
 72
   44
 73
   46
  0
VERTEX
  8
pizza
 10
0.0
 20
0.0
 30
0.0
 70
   128
 71
   54
 72
   37
 73
   29
  0
VERTEX
  8
pizza
 10
0.0
 20
0.0
 30
0.0
 70
   128
 71
   7
 72
   63
 73
   60
  0
VERTEX
  8
pizza
 10
0.0
 20
0.0
 30
0.0
 70
   128
 71
   31
 72
   55
 73
   61
  0
VERTEX
  8
pizza
 10
0.0
 20
0.0
 30
0.0
 70
   128
 71
   38
 72
   47
 73
   61
  0
VERTEX
  8
pizza
 10
0.0
 20
0.0
 30
0.0
 70
   128
 71
   13
 72
   5
 73
   54
  0
VERTEX
  8
pizza
 10
0.0
 20
0.0
 30
0.0
 70
   128
 71
   15
 72
   23
 73
   61
  0
VERTEX
  8
pizza
 10
0.0
 20
0.0
 30
0.0
 70
   128
 71
   54
 72
   21
 73
   13
  0
VERTEX
  8
pizza
 10
0.0
 20
0.0
 30
0.0
 70
   128
 71
   61
 72
   47
 73
   15
  0
VERTEX
  8
pizza
 10
0.0
 20
0.0
 30
0.0
 70
   128
 71
   45
 72
   40
 73
   36
  0
VERTEX
  8
pizza
 10
0.0
 20
0.0
 30
0.0
 70
   128
 71
   37
 72
   54
 73
   38
  0
VERTEX
  8
pizza
 10
0.0
 20
0.0
 30
0.0
 70
   128
 71
   59
 72
   60
 73
   63
  0
VERTEX
  8
pizza
 10
0.0
 20
0.0
 30
0.0
 70
   128
 71
   46
 72
   48
 73
   57
  0
VERTEX
  8
pizza
 10
0.0
 20
0.0
 30
0.0
 70
   128
 71
   62
 72
   63
 73
   7
  0
VERTEX
  8
pizza
 10
0.0
 20
0.0
 30
0.0
 70
   128
 71
   55
 72
   38
 73
   61
  0
VERTEX
  8
pizza
 10
0.0
 20
0.0
 30
0.0
 70
   128
 71
   6
 72
   7
 73
   22
  0
VERTEX
  8
pizza
 10
0.0
 20
0.0
 30
0.0
 70
   128
 71
   53
 72
   57
 73
   60
  0
VERTEX
  8
pizza
 10
0.0
 20
0.0
 30
0.0
 70
   128
 71
   98
 72
   88
 73
   87
  0
VERTEX
  8
pizza
 10
0.0
 20
0.0
 30
0.0
 70
   128
 71
   67
 72
   68
 73
   70
  0
VERTEX
  8
pizza
 10
0.0
 20
0.0
 30
0.0
 70
   128
 71
   97
 72
   87
 73
   86
  0
VERTEX
  8
pizza
 10
0.0
 20
0.0
 30
0.0
 70
   128
 71
   96
 72
   86
 73
   85
  0
VERTEX
  8
pizza
 10
0.0
 20
0.0
 30
0.0
 70
   128
 71
   69
 72
   70
 73
   72
  0
VERTEX
  8
pizza
 10
0.0
 20
0.0
 30
0.0
 70
   128
 71
   95
 72
   85
 73
   94
  0
VERTEX
  8
pizza
 10
0.0
 20
0.0
 30
0.0
 70
   128
 71
   104
 72
   94
 73
   93
  0
VERTEX
  8
pizza
 10
0.0
 20
0.0
 30
0.0
 70
   128
 71
   71
 72
   72
 73
   74
  0
VERTEX
  8
pizza
 10
0.0
 20
0.0
 30
0.0
 70
   128
 71
   103
 72
   93
 73
   92
  0
VERTEX
  8
pizza
 10
0.0
 20
0.0
 30
0.0
 70
   128
 71
   102
 72
   92
 73
   91
  0
VERTEX
  8
pizza
 10
0.0
 20
0.0
 30
0.0
 70
   128
 71
   73
 72
   74
 73
   76
  0
VERTEX
  8
pizza
 10
0.0
 20
0.0
 30
0.0
 70
   128
 71
   101
 72
   91
 73
   90
  0
VERTEX
  8
pizza
 10
0.0
 20
0.0
 30
0.0
 70
   128
 71
   100
 72
   90
 73
   89
  0
VERTEX
  8
pizza
 10
0.0
 20
0.0
 30
0.0
 70
   128
 71
   75
 72
   76
 73
   78
  0
VERTEX
  8
pizza
 10
0.0
 20
0.0
 30
0.0
 70
   128
 71
   99
 72
   89
 73
   88
  0
VERTEX
  8
pizza
 10
0.0
 20
0.0
 30
0.0
 70
   128
 71
   81
 72
   82
 73
   84
  0
VERTEX
  8
pizza
 10
0.0
 20
0.0
 30
0.0
 70
   128
 71
   77
 72
   78
 73
   80
  0
VERTEX
  8
pizza
 10
0.0
 20
0.0
 30
0.0
 70
   128
 71
   83
 72
   84
 73
   66
  0
VERTEX
  8
pizza
 10
0.0
 20
0.0
 30
0.0
 70
   128
 71
   65
 72
   66
 73
   68
  0
VERTEX
  8
pizza
 10
0.0
 20
0.0
 30
0.0
 70
   128
 71
   79
 72
   80
 73
   82
  0
VERTEX
  8
pizza
 10
0.0
 20
0.0
 30
0.0
 70
   128
 71
   66
 72
   85
 73
   86
  0
VERTEX
  8
pizza
 10
0.0
 20
0.0
 30
0.0
 70
   128
 71
   68
 72
   86
 73
   87
  0
VERTEX
  8
pizza
 10
0.0
 20
0.0
 30
0.0
 70
   128
 71
   70
 72
   87
 73
   88
  0
VERTEX
  8
pizza
 10
0.0
 20
0.0
 30
0.0
 70
   128
 71
   72
 72
   88
 73
   89
  0
VERTEX
  8
pizza
 10
0.0
 20
0.0
 30
0.0
 70
   128
 71
   74
 72
   89
 73
   90
  0
VERTEX
  8
pizza
 10
0.0
 20
0.0
 30
0.0
 70
   128
 71
   76
 72
   90
 73
   91
  0
VERTEX
  8
pizza
 10
0.0
 20
0.0
 30
0.0
 70
   128
 71
   78
 72
   91
 73
   92
  0
VERTEX
  8
pizza
 10
0.0
 20
0.0
 30
0.0
 70
   128
 71
   80
 72
   92
 73
   93
  0
VERTEX
  8
pizza
 10
0.0
 20
0.0
 30
0.0
 70
   128
 71
   82
 72
   93
 73
   94
  0
VERTEX
  8
pizza
 10
0.0
 20
0.0
 30
0.0
 70
   128
 71
   84
 72
   94
 73
   85
  0
VERTEX
  8
pizza
 10
0.0
 20
0.0
 30
0.0
 70
   128
 71
   71
 72
   98
 73
   97
  0
VERTEX
  8
pizza
 10
0.0
 20
0.0
 30
0.0
 70
   128
 71
   69
 72
   97
 73
   96
  0
VERTEX
  8
pizza
 10
0.0
 20
0.0
 30
0.0
 70
   128
 71
   67
 72
   96
 73
   95
  0
VERTEX
  8
pizza
 10
0.0
 20
0.0
 30
0.0
 70
   128
 71
   65
 72
   95
 73
   104
  0
VERTEX
  8
pizza
 10
0.0
 20
0.0
 30
0.0
 70
   128
 71
   83
 72
   104
 73
   103
  0
VERTEX
  8
pizza
 10
0.0
 20
0.0
 30
0.0
 70
   128
 71
   81
 72
   103
 73
   102
  0
VERTEX
  8
pizza
 10
0.0
 20
0.0
 30
0.0
 70
   128
 71
   79
 72
   102
 73
   101
  0
VERTEX
  8
pizza
 10
0.0
 20
0.0
 30
0.0
 70
   128
 71
   77
 72
   101
 73
   100
  0
VERTEX
  8
pizza
 10
0.0
 20
0.0
 30
0.0
 70
   128
 71
   75
 72
   100
 73
   99
  0
VERTEX
  8
pizza
 10
0.0
 20
0.0
 30
0.0
 70
   128
 71
   73
 72
   99
 73
   98
  0
VERTEX
  8
pizza
 10
0.0
 20
0.0
 30
0.0
 70
   128
 71
   138
 72
   128
 73
   127
  0
VERTEX
  8
pizza
 10
0.0
 20
0.0
 30
0.0
 70
   128
 71
   107
 72
   108
 73
   110
  0
VERTEX
  8
pizza
 10
0.0
 20
0.0
 30
0.0
 70
   128
 71
   137
 72
   127
 73
   126
  0
VERTEX
  8
pizza
 10
0.0
 20
0.0
 30
0.0
 70
   128
 71
   136
 72
   126
 73
   125
  0
VERTEX
  8
pizza
 10
0.0
 20
0.0
 30
0.0
 70
   128
 71
   109
 72
   110
 73
   112
  0
VERTEX
  8
pizza
 10
0.0
 20
0.0
 30
0.0
 70
   128
 71
   135
 72
   125
 73
   134
  0
VERTEX
  8
pizza
 10
0.0
 20
0.0
 30
0.0
 70
   128
 71
   144
 72
   134
 73
   133
  0
VERTEX
  8
pizza
 10
0.0
 20
0.0
 30
0.0
 70
   128
 71
   111
 72
   112
 73
   114
  0
VERTEX
  8
pizza
 10
0.0
 20
0.0
 30
0.0
 70
   128
 71
   143
 72
   133
 73
   132
  0
VERTEX
  8
pizza
 10
0.0
 20
0.0
 30
0.0
 70
   128
 71
   142
 72
   132
 73
   131
  0
VERTEX
  8
pizza
 10
0.0
 20
0.0
 30
0.0
 70
   128
 71
   113
 72
   114
 73
   116
  0
VERTEX
  8
pizza
 10
0.0
 20
0.0
 30
0.0
 70
   128
 71
   141
 72
   131
 73
   130
  0
VERTEX
  8
pizza
 10
0.0
 20
0.0
 30
0.0
 70
   128
 71
   140
 72
   130
 73
   129
  0
VERTEX
  8
pizza
 10
0.0
 20
0.0
 30
0.0
 70
   128
 71
   115
 72
   116
 73
   118
  0
VERTEX
  8
pizza
 10
0.0
 20
0.0
 30
0.0
 70
   128
 71
   139
 72
   129
 73
   128
  0
VERTEX
  8
pizza
 10
0.0
 20
0.0
 30
0.0
 70
   128
 71
   121
 72
   122
 73
   124
  0
VERTEX
  8
pizza
 10
0.0
 20
0.0
 30
0.0
 70
   128
 71
   117
 72
   118
 73
   120
  0
VERTEX
  8
pizza
 10
0.0
 20
0.0
 30
0.0
 70
   128
 71
   123
 72
   124
 73
   106
  0
VERTEX
  8
pizza
 10
0.0
 20
0.0
 30
0.0
 70
   128
 71
   105
 72
   106
 73
   108
  0
VERTEX
  8
pizza
 10
0.0
 20
0.0
 30
0.0
 70
   128
 71
   119
 72
   120
 73
   122
  0
VERTEX
  8
pizza
 10
0.0
 20
0.0
 30
0.0
 70
   128
 71
   106
 72
   125
 73
   126
  0
VERTEX
  8
pizza
 10
0.0
 20
0.0
 30
0.0
 70
   128
 71
   108
 72
   126
 73
   127
  0
VERTEX
  8
pizza
 10
0.0
 20
0.0
 30
0.0
 70
   128
 71
   110
 72
   127
 73
   128
  0
VERTEX
  8
pizza
 10
0.0
 20
0.0
 30
0.0
 70
   128
 71
   112
 72
   128
 73
   129
  0
VERTEX
  8
pizza
 10
0.0
 20
0.0
 30
0.0
 70
   128
 71
   114
 72
   129
 73
   130
  0
VERTEX
  8
pizza
 10
0.0
 20
0.0
 30
0.0
 70
   128
 71
   116
 72
   130
 73
   131
  0
VERTEX
  8
pizza
 10
0.0
 20
0.0
 30
0.0
 70
   128
 71
   118
 72
   131
 73
   132
  0
VERTEX
  8
pizza
 10
0.0
 20
0.0
 30
0.0
 70
   128
 71
   120
 72
   132
 73
   133
  0
VERTEX
  8
pizza
 10
0.0
 20
0.0
 30
0.0
 70
   128
 71
   122
 72
   133
 73
   134
  0
VERTEX
  8
pizza
 10
0.0
 20
0.0
 30
0.0
 70
   128
 71
   124
 72
   134
 73
   125
  0
VERTEX
  8
pizza
 10
0.0
 20
0.0
 30
0.0
 70
   128
 71
   111
 72
   138
 73
   137
  0
VERTEX
  8
pizza
 10
0.0
 20
0.0
 30
0.0
 70
   128
 71
   109
 72
   137
 73
   136
  0
VERTEX
  8
pizza
 10
0.0
 20
0.0
 30
0.0
 70
   128
 71
   107
 72
   136
 73
   135
  0
VERTEX
  8
pizza
 10
0.0
 20
0.0
 30
0.0
 70
   128
 71
   105
 72
   135
 73
   144
  0
VERTEX
  8
pizza
 10
0.0
 20
0.0
 30
0.0
 70
   128
 71
   123
 72
   144
 73
   143
  0
VERTEX
  8
pizza
 10
0.0
 20
0.0
 30
0.0
 70
   128
 71
   121
 72
   143
 73
   142
  0
VERTEX
  8
pizza
 10
0.0
 20
0.0
 30
0.0
 70
   128
 71
   119
 72
   142
 73
   141
  0
VERTEX
  8
pizza
 10
0.0
 20
0.0
 30
0.0
 70
   128
 71
   117
 72
   141
 73
   140
  0
VERTEX
  8
pizza
 10
0.0
 20
0.0
 30
0.0
 70
   128
 71
   115
 72
   140
 73
   139
  0
VERTEX
  8
pizza
 10
0.0
 20
0.0
 30
0.0
 70
   128
 71
   113
 72
   139
 73
   138
  0
VERTEX
  8
pizza
 10
0.0
 20
0.0
 30
0.0
 70
   128
 71
   145
 72
   147
 73
   149
  0
VERTEX
  8
pizza
 10
0.0
 20
0.0
 30
0.0
 70
   128
 71
   147
 72
   148
 73
   150
  0
VERTEX
  8
pizza
 10
0.0
 20
0.0
 30
0.0
 70
   128
 71
   150
 72
   148
 73
   146
  0
VERTEX
  8
pizza
 10
0.0
 20
0.0
 30
0.0
 70
   128
 71
   145
 72
   161
 73
   163
  0
VERTEX
  8
pizza
 10
0.0
 20
0.0
 30
0.0
 70
   128
 71
   149
 72
   150
 73
   152
  0
VERTEX
  8
pizza
 10
0.0
 20
0.0
 30
0.0
 70
   128
 71
   161
 72
   149
 73
   151
  0
VERTEX
  8
pizza
 10
0.0
 20
0.0
 30
0.0
 70
   128
 71
   151
 72
   153
 73
   155
  0
VERTEX
  8
pizza
 10
0.0
 20
0.0
 30
0.0
 70
   128
 71
   151
 72
   152
 73
   154
  0
VERTEX
  8
pizza
 10
0.0
 20
0.0
 30
0.0
 70
   128
 71
   151
 72
   155
 73
   157
  0
VERTEX
  8
pizza
 10
0.0
 20
0.0
 30
0.0
 70
   128
 71
   146
 72
   164
 73
   162
  0
VERTEX
  8
pizza
 10
0.0
 20
0.0
 30
0.0
 70
   128
 71
   153
 72
   154
 73
   156
  0
VERTEX
  8
pizza
 10
0.0
 20
0.0
 30
0.0
 70
   128
 71
   152
 72
   146
 73
   162
  0
VERTEX
  8
pizza
 10
0.0
 20
0.0
 30
0.0
 70
   128
 71
   156
 72
   162
 73
   160
  0
VERTEX
  8
pizza
 10
0.0
 20
0.0
 30
0.0
 70
   128
 71
   155
 72
   156
 73
   158
  0
VERTEX
  8
pizza
 10
0.0
 20
0.0
 30
0.0
 70
   128
 71
   156
 72
   154
 73
   152
  0
VERTEX
  8
pizza
 10
0.0
 20
0.0
 30
0.0
 70
   128
 71
   161
 72
   162
 73
   164
  0
VERTEX
  8
pizza
 10
0.0
 20
0.0
 30
0.0
 70
   128
 71
   157
 72
   158
 73
   160
  0
VERTEX
  8
pizza
 10
0.0
 20
0.0
 30
0.0
 70
   128
 71
   163
 72
   164
 73
   146
  0
VERTEX
  8
pizza
 10
0.0
 20
0.0
 30
0.0
 70
   128
 71
   145
 72
   146
 73
   148
  0
VERTEX
  8
pizza
 10
0.0
 20
0.0
 30
0.0
 70
   128
 71
   159
 72
   160
 73
   162
  0
VERTEX
  8
pizza
 10
0.0
 20
0.0
 30
0.0
 70
   128
 71
   165
 72
   167
 73
   169
  0
VERTEX
  8
pizza
 10
0.0
 20
0.0
 30
0.0
 70
   128
 71
   167
 72
   168
 73
   170
  0
VERTEX
  8
pizza
 10
0.0
 20
0.0
 30
0.0
 70
   128
 71
   170
 72
   168
 73
   166
  0
VERTEX
  8
pizza
 10
0.0
 20
0.0
 30
0.0
 70
   128
 71
   165
 72
   181
 73
   183
  0
VERTEX
  8
pizza
 10
0.0
 20
0.0
 30
0.0
 70
   128
 71
   169
 72
   170
 73
   172
  0
VERTEX
  8
pizza
 10
0.0
 20
0.0
 30
0.0
 70
   128
 71
   181
 72
   169
 73
   171
  0
VERTEX
  8
pizza
 10
0.0
 20
0.0
 30
0.0
 70
   128
 71
   171
 72
   173
 73
   175
  0
VERTEX
  8
pizza
 10
0.0
 20
0.0
 30
0.0
 70
   128
 71
   171
 72
   172
 73
   174
  0
VERTEX
  8
pizza
 10
0.0
 20
0.0
 30
0.0
 70
   128
 71
   171
 72
   175
 73
   177
  0
VERTEX
  8
pizza
 10
0.0
 20
0.0
 30
0.0
 70
   128
 71
   166
 72
   184
 73
   182
  0
VERTEX
  8
pizza
 10
0.0
 20
0.0
 30
0.0
 70
   128
 71
   173
 72
   174
 73
   176
  0
VERTEX
  8
pizza
 10
0.0
 20
0.0
 30
0.0
 70
   128
 71
   172
 72
   166
 73
   182
  0
VERTEX
  8
pizza
 10
0.0
 20
0.0
 30
0.0
 70
   128
 71
   176
 72
   182
 73
   180
  0
VERTEX
  8
pizza
 10
0.0
 20
0.0
 30
0.0
 70
   128
 71
   175
 72
   176
 73
   178
  0
VERTEX
  8
pizza
 10
0.0
 20
0.0
 30
0.0
 70
   128
 71
   176
 72
   174
 73
   172
  0
VERTEX
  8
pizza
 10
0.0
 20
0.0
 30
0.0
 70
   128
 71
   181
 72
   182
 73
   184
  0
VERTEX
  8
pizza
 10
0.0
 20
0.0
 30
0.0
 70
   128
 71
   177
 72
   178
 73
   180
  0
VERTEX
  8
pizza
 10
0.0
 20
0.0
 30
0.0
 70
   128
 71
   183
 72
   184
 73
   166
  0
VERTEX
  8
pizza
 10
0.0
 20
0.0
 30
0.0
 70
   128
 71
   165
 72
   166
 73
   168
  0
VERTEX
  8
pizza
 10
0.0
 20
0.0
 30
0.0
 70
   128
 71
   179
 72
   180
 73
   182
  0
VERTEX
  8
pizza
 10
0.0
 20
0.0
 30
0.0
 70
   128
 71
   185
 72
   187
 73
   189
  0
VERTEX
  8
pizza
 10
0.0
 20
0.0
 30
0.0
 70
   128
 71
   187
 72
   188
 73
   190
  0
VERTEX
  8
pizza
 10
0.0
 20
0.0
 30
0.0
 70
   128
 71
   190
 72
   188
 73
   186
  0
VERTEX
  8
pizza
 10
0.0
 20
0.0
 30
0.0
 70
   128
 71
   185
 72
   201
 73
   203
  0
VERTEX
  8
pizza
 10
0.0
 20
0.0
 30
0.0
 70
   128
 71
   189
 72
   190
 73
   192
  0
VERTEX
  8
pizza
 10
0.0
 20
0.0
 30
0.0
 70
   128
 71
   201
 72
   189
 73
   191
  0
VERTEX
  8
pizza
 10
0.0
 20
0.0
 30
0.0
 70
   128
 71
   191
 72
   193
 73
   195
  0
VERTEX
  8
pizza
 10
0.0
 20
0.0
 30
0.0
 70
   128
 71
   191
 72
   192
 73
   194
  0
VERTEX
  8
pizza
 10
0.0
 20
0.0
 30
0.0
 70
   128
 71
   191
 72
   195
 73
   197
  0
VERTEX
  8
pizza
 10
0.0
 20
0.0
 30
0.0
 70
   128
 71
   186
 72
   204
 73
   202
  0
VERTEX
  8
pizza
 10
0.0
 20
0.0
 30
0.0
 70
   128
 71
   193
 72
   194
 73
   196
  0
VERTEX
  8
pizza
 10
0.0
 20
0.0
 30
0.0
 70
   128
 71
   192
 72
   186
 73
   202
  0
VERTEX
  8
pizza
 10
0.0
 20
0.0
 30
0.0
 70
   128
 71
   196
 72
   202
 73
   200
  0
VERTEX
  8
pizza
 10
0.0
 20
0.0
 30
0.0
 70
   128
 71
   195
 72
   196
 73
   198
  0
VERTEX
  8
pizza
 10
0.0
 20
0.0
 30
0.0
 70
   128
 71
   196
 72
   194
 73
   192
  0
VERTEX
  8
pizza
 10
0.0
 20
0.0
 30
0.0
 70
   128
 71
   201
 72
   202
 73
   204
  0
VERTEX
  8
pizza
 10
0.0
 20
0.0
 30
0.0
 70
   128
 71
   197
 72
   198
 73
   200
  0
VERTEX
  8
pizza
 10
0.0
 20
0.0
 30
0.0
 70
   128
 71
   203
 72
   204
 73
   186
  0
VERTEX
  8
pizza
 10
0.0
 20
0.0
 30
0.0
 70
   128
 71
   185
 72
   186
 73
   188
  0
VERTEX
  8
pizza
 10
0.0
 20
0.0
 30
0.0
 70
   128
 71
   199
 72
   200
 73
   202
  0
VERTEX
  8
pizza
 10
0.0
 20
0.0
 30
0.0
 70
   128
 71
   205
 72
   207
 73
   209
  0
VERTEX
  8
pizza
 10
0.0
 20
0.0
 30
0.0
 70
   128
 71
   205
 72
   206
 73
   208
  0
VERTEX
  8
pizza
 10
0.0
 20
0.0
 30
0.0
 70
   128
 71
   205
 72
   209
 73
   213
  0
VERTEX
  8
pizza
 10
0.0
 20
0.0
 30
0.0
 70
   128
 71
   213
 72
   214
 73
   216
  0
VERTEX
  8
pizza
 10
0.0
 20
0.0
 30
0.0
 70
   128
 71
   207
 72
   208
 73
   210
  0
VERTEX
  8
pizza
 10
0.0
 20
0.0
 30
0.0
 70
   128
 71
   214
 72
   212
 73
   210
  0
VERTEX
  8
pizza
 10
0.0
 20
0.0
 30
0.0
 70
   128
 71
   209
 72
   211
 73
   213
  0
VERTEX
  8
pizza
 10
0.0
 20
0.0
 30
0.0
 70
   128
 71
   209
 72
   210
 73
   212
  0
VERTEX
  8
pizza
 10
0.0
 20
0.0
 30
0.0
 70
   128
 71
   216
 72
   210
 73
   208
  0
VERTEX
  8
pizza
 10
0.0
 20
0.0
 30
0.0
 70
   128
 71
   206
 72
   205
 73
   215
  0
VERTEX
  8
pizza
 10
0.0
 20
0.0
 30
0.0
 70
   128
 71
   211
 72
   212
 73
   214
  0
VERTEX
  8
pizza
 10
0.0
 20
0.0
 30
0.0
 70
   128
 71
   217
 72
   219
 73
   221
  0
VERTEX
  8
pizza
 10
0.0
 20
0.0
 30
0.0
 70
   128
 71
   219
 72
   220
 73
   222
  0
VERTEX
  8
pizza
 10
0.0
 20
0.0
 30
0.0
 70
   128
 71
   222
 72
   220
 73
   218
  0
VERTEX
  8
pizza
 10
0.0
 20
0.0
 30
0.0
 70
   128
 71
   217
 72
   58
 73
   2
  0
VERTEX
  8
pizza
 10
0.0
 20
0.0
 30
0.0
 70
   128
 71
   221
 72
   222
 73
   224
  0
VERTEX
  8
pizza
 10
0.0
 20
0.0
 30
0.0
 70
   128
 71
   58
 72
   221
 73
   223
  0
VERTEX
  8
pizza
 10
0.0
 20
0.0
 30
0.0
 70
   128
 71
   223
 72
   225
 73
   227
  0
VERTEX
  8
pizza
 10
0.0
 20
0.0
 30
0.0
 70
   128
 71
   223
 72
   224
 73
   226
  0
VERTEX
  8
pizza
 10
0.0
 20
0.0
 30
0.0
 70
   128
 71
   223
 72
   227
 73
   229
  0
VERTEX
  8
pizza
 10
0.0
 20
0.0
 30
0.0
 70
   128
 71
   218
 72
   3
 73
   1
  0
VERTEX
  8
pizza
 10
0.0
 20
0.0
 30
0.0
 70
   128
 71
   225
 72
   226
 73
   228
  0
VERTEX
  8
pizza
 10
0.0
 20
0.0
 30
0.0
 70
   128
 71
   224
 72
   218
 73
   1
  0
VERTEX
  8
pizza
 10
0.0
 20
0.0
 30
0.0
 70
   128
 71
   228
 72
   1
 73
   30
  0
VERTEX
  8
pizza
 10
0.0
 20
0.0
 30
0.0
 70
   128
 71
   227
 72
   228
 73
   230
  0
VERTEX
  8
pizza
 10
0.0
 20
0.0
 30
0.0
 70
   128
 71
   228
 72
   226
 73
   224
  0
VERTEX
  8
pizza
 10
0.0
 20
0.0
 30
0.0
 70
   128
 71
   58
 72
   1
 73
   3
  0
VERTEX
  8
pizza
 10
0.0
 20
0.0
 30
0.0
 70
   128
 71
   229
 72
   230
 73
   30
  0
VERTEX
  8
pizza
 10
0.0
 20
0.0
 30
0.0
 70
   128
 71
   2
 72
   3
 73
   218
  0
VERTEX
  8
pizza
 10
0.0
 20
0.0
 30
0.0
 70
   128
 71
   217
 72
   218
 73
   220
  0
VERTEX
  8
pizza
 10
0.0
 20
0.0
 30
0.0
 70
   128
 71
   231
 72
   30
 73
   1
  0
VERTEX
  8
pizza
 10
0.0
 20
0.0
 30
0.0
 70
   128
 71
   6
 72
   14
 73
   33
  0
VERTEX
  8
pizza
 10
0.0
 20
0.0
 30
0.0
 70
   128
 71
   14
 72
   22
 73
   34
  0
VERTEX
  8
pizza
 10
0.0
 20
0.0
 30
0.0
 70
   128
 71
   34
 72
   22
 73
   7
  0
VERTEX
  8
pizza
 10
0.0
 20
0.0
 30
0.0
 70
   128
 71
   6
 72
   59
 73
   62
  0
VERTEX
  8
pizza
 10
0.0
 20
0.0
 30
0.0
 70
   128
 71
   33
 72
   34
 73
   36
  0
VERTEX
  8
pizza
 10
0.0
 20
0.0
 30
0.0
 70
   128
 71
   59
 72
   33
 73
   35
  0
VERTEX
  8
pizza
 10
0.0
 20
0.0
 30
0.0
 70
   128
 71
   41
 72
   10
 73
   9
  0
VERTEX
  8
pizza
 10
0.0
 20
0.0
 30
0.0
 70
   128
 71
   42
 72
   11
 73
   10
  0
VERTEX
  8
pizza
 10
0.0
 20
0.0
 30
0.0
 70
   128
 71
   43
 72
   12
 73
   11
  0
VERTEX
  8
pizza
 10
0.0
 20
0.0
 30
0.0
 70
   128
 71
   4
 72
   13
 73
   12
  0
VERTEX
  8
pizza
 10
0.0
 20
0.0
 30
0.0
 70
   128
 71
   47
 72
   16
 73
   15
  0
VERTEX
  8
pizza
 10
0.0
 20
0.0
 30
0.0
 70
   128
 71
   8
 72
   9
 73
   16
  0
VERTEX
  8
pizza
 10
0.0
 20
0.0
 30
0.0
 70
   128
 71
   9
 72
   18
 73
   17
  0
VERTEX
  8
pizza
 10
0.0
 20
0.0
 30
0.0
 70
   128
 71
   10
 72
   19
 73
   18
  0
VERTEX
  8
pizza
 10
0.0
 20
0.0
 30
0.0
 70
   128
 71
   11
 72
   20
 73
   19
  0
VERTEX
  8
pizza
 10
0.0
 20
0.0
 30
0.0
 70
   128
 71
   12
 72
   21
 73
   20
  0
VERTEX
  8
pizza
 10
0.0
 20
0.0
 30
0.0
 70
   128
 71
   39
 72
   45
 73
   44
  0
VERTEX
  8
pizza
 10
0.0
 20
0.0
 30
0.0
 70
   128
 71
   36
 72
   60
 73
   45
  0
VERTEX
  8
pizza
 10
0.0
 20
0.0
 30
0.0
 70
   128
 71
   15
 72
   24
 73
   23
  0
VERTEX
  8
pizza
 10
0.0
 20
0.0
 30
0.0
 70
   128
 71
   16
 72
   17
 73
   24
  0
VERTEX
  8
pizza
 10
0.0
 20
0.0
 30
0.0
 70
   128
 71
   17
 72
   26
 73
   25
  0
VERTEX
  8
pizza
 10
0.0
 20
0.0
 30
0.0
 70
   128
 71
   18
 72
   27
 73
   26
  0
VERTEX
  8
pizza
 10
0.0
 20
0.0
 30
0.0
 70
   128
 71
   19
 72
   28
 73
   27
  0
VERTEX
  8
pizza
 10
0.0
 20
0.0
 30
0.0
 70
   128
 71
   20
 72
   29
 73
   28
  0
VERTEX
  8
pizza
 10
0.0
 20
0.0
 30
0.0
 70
   128
 71
   45
 72
   57
 73
   48
  0
VERTEX
  8
pizza
 10
0.0
 20
0.0
 30
0.0
 70
   128
 71
   44
 72
   48
 73
   46
  0
VERTEX
  8
pizza
 10
0.0
 20
0.0
 30
0.0
 70
   128
 71
   23
 72
   32
 73
   31
  0
VERTEX
  8
pizza
 10
0.0
 20
0.0
 30
0.0
 70
   128
 71
   24
 72
   25
 73
   32
  0
VERTEX
  8
pizza
 10
0.0
 20
0.0
 30
0.0
 70
   128
 71
   25
 72
   50
 73
   49
  0
VERTEX
  8
pizza
 10
0.0
 20
0.0
 30
0.0
 70
   128
 71
   26
 72
   51
 73
   50
  0
VERTEX
  8
pizza
 10
0.0
 20
0.0
 30
0.0
 70
   128
 71
   27
 72
   52
 73
   51
  0
VERTEX
  8
pizza
 10
0.0
 20
0.0
 30
0.0
 70
   128
 71
   28
 72
   37
 73
   52
  0
VERTEX
  8
pizza
 10
0.0
 20
0.0
 30
0.0
 70
   128
 71
   35
 72
   40
 73
   39
  0
VERTEX
  8
pizza
 10
0.0
 20
0.0
 30
0.0
 70
   128
 71
   31
 72
   56
 73
   55
  0
VERTEX
  8
pizza
 10
0.0
 20
0.0
 30
0.0
 70
   128
 71
   32
 72
   49
 73
   56
  0
VERTEX
  8
pizza
 10
0.0
 20
0.0
 30
0.0
 70
   128
 71
   47
 72
   54
 73
   5
  0
VERTEX
  8
pizza
 10
0.0
 20
0.0
 30
0.0
 70
   128
 71
   35
 72
   46
 73
   53
  0
VERTEX
  8
pizza
 10
0.0
 20
0.0
 30
0.0
 70
   128
 71
   54
 72
   29
 73
   21
  0
VERTEX
  8
pizza
 10
0.0
 20
0.0
 30
0.0
 70
   128
 71
   31
 72
   61
 73
   23
  0
VERTEX
  8
pizza
 10
0.0
 20
0.0
 30
0.0
 70
   128
 71
   37
 72
   38
 73
   55
  0
VERTEX
  8
pizza
 10
0.0
 20
0.0
 30
0.0
 70
   128
 71
   59
 72
   63
 73
   62
  0
VERTEX
  8
pizza
 10
0.0
 20
0.0
 30
0.0
 70
   128
 71
   46
 72
   57
 73
   53
  0
VERTEX
  8
pizza
 10
0.0
 20
0.0
 30
0.0
 70
   128
 71
   62
 72
   7
 73
   6
  0
VERTEX
  8
pizza
 10
0.0
 20
0.0
 30
0.0
 70
   128
 71
   6
 72
   22
 73
   14
  0
VERTEX
  8
pizza
 10
0.0
 20
0.0
 30
0.0
 70
   128
 71
   53
 72
   60
 73
   59
  0
VERTEX
  8
pizza
 10
0.0
 20
0.0
 30
0.0
 70
   128
 71
   98
 72
   87
 73
   97
  0
VERTEX
  8
pizza
 10
0.0
 20
0.0
 30
0.0
 70
   128
 71
   67
 72
   70
 73
   69
  0
VERTEX
  8
pizza
 10
0.0
 20
0.0
 30
0.0
 70
   128
 71
   97
 72
   86
 73
   96
  0
VERTEX
  8
pizza
 10
0.0
 20
0.0
 30
0.0
 70
   128
 71
   96
 72
   85
 73
   95
  0
VERTEX
  8
pizza
 10
0.0
 20
0.0
 30
0.0
 70
   128
 71
   69
 72
   72
 73
   71
  0
VERTEX
  8
pizza
 10
0.0
 20
0.0
 30
0.0
 70
   128
 71
   95
 72
   94
 73
   104
  0
VERTEX
  8
pizza
 10
0.0
 20
0.0
 30
0.0
 70
   128
 71
   104
 72
   93
 73
   103
  0
VERTEX
  8
pizza
 10
0.0
 20
0.0
 30
0.0
 70
   128
 71
   71
 72
   74
 73
   73
  0
VERTEX
  8
pizza
 10
0.0
 20
0.0
 30
0.0
 70
   128
 71
   103
 72
   92
 73
   102
  0
VERTEX
  8
pizza
 10
0.0
 20
0.0
 30
0.0
 70
   128
 71
   102
 72
   91
 73
   101
  0
VERTEX
  8
pizza
 10
0.0
 20
0.0
 30
0.0
 70
   128
 71
   73
 72
   76
 73
   75
  0
VERTEX
  8
pizza
 10
0.0
 20
0.0
 30
0.0
 70
   128
 71
   101
 72
   90
 73
   100
  0
VERTEX
  8
pizza
 10
0.0
 20
0.0
 30
0.0
 70
   128
 71
   100
 72
   89
 73
   99
  0
VERTEX
  8
pizza
 10
0.0
 20
0.0
 30
0.0
 70
   128
 71
   75
 72
   78
 73
   77
  0
VERTEX
  8
pizza
 10
0.0
 20
0.0
 30
0.0
 70
   128
 71
   99
 72
   88
 73
   98
  0
VERTEX
  8
pizza
 10
0.0
 20
0.0
 30
0.0
 70
   128
 71
   81
 72
   84
 73
   83
  0
VERTEX
  8
pizza
 10
0.0
 20
0.0
 30
0.0
 70
   128
 71
   77
 72
   80
 73
   79
  0
VERTEX
  8
pizza
 10
0.0
 20
0.0
 30
0.0
 70
   128
 71
   83
 72
   66
 73
   65
  0
VERTEX
  8
pizza
 10
0.0
 20
0.0
 30
0.0
 70
   128
 71
   65
 72
   68
 73
   67
  0
VERTEX
  8
pizza
 10
0.0
 20
0.0
 30
0.0
 70
   128
 71
   79
 72
   82
 73
   81
  0
VERTEX
  8
pizza
 10
0.0
 20
0.0
 30
0.0
 70
   128
 71
   66
 72
   86
 73
   68
  0
VERTEX
  8
pizza
 10
0.0
 20
0.0
 30
0.0
 70
   128
 71
   68
 72
   87
 73
   70
  0
VERTEX
  8
pizza
 10
0.0
 20
0.0
 30
0.0
 70
   128
 71
   70
 72
   88
 73
   72
  0
VERTEX
  8
pizza
 10
0.0
 20
0.0
 30
0.0
 70
   128
 71
   72
 72
   89
 73
   74
  0
VERTEX
  8
pizza
 10
0.0
 20
0.0
 30
0.0
 70
   128
 71
   74
 72
   90
 73
   76
  0
VERTEX
  8
pizza
 10
0.0
 20
0.0
 30
0.0
 70
   128
 71
   76
 72
   91
 73
   78
  0
VERTEX
  8
pizza
 10
0.0
 20
0.0
 30
0.0
 70
   128
 71
   78
 72
   92
 73
   80
  0
VERTEX
  8
pizza
 10
0.0
 20
0.0
 30
0.0
 70
   128
 71
   80
 72
   93
 73
   82
  0
VERTEX
  8
pizza
 10
0.0
 20
0.0
 30
0.0
 70
   128
 71
   82
 72
   94
 73
   84
  0
VERTEX
  8
pizza
 10
0.0
 20
0.0
 30
0.0
 70
   128
 71
   84
 72
   85
 73
   66
  0
VERTEX
  8
pizza
 10
0.0
 20
0.0
 30
0.0
 70
   128
 71
   71
 72
   97
 73
   69
  0
VERTEX
  8
pizza
 10
0.0
 20
0.0
 30
0.0
 70
   128
 71
   69
 72
   96
 73
   67
  0
VERTEX
  8
pizza
 10
0.0
 20
0.0
 30
0.0
 70
   128
 71
   67
 72
   95
 73
   65
  0
VERTEX
  8
pizza
 10
0.0
 20
0.0
 30
0.0
 70
   128
 71
   65
 72
   104
 73
   83
  0
VERTEX
  8
pizza
 10
0.0
 20
0.0
 30
0.0
 70
   128
 71
   83
 72
   103
 73
   81
  0
VERTEX
  8
pizza
 10
0.0
 20
0.0
 30
0.0
 70
   128
 71
   81
 72
   102
 73
   79
  0
VERTEX
  8
pizza
 10
0.0
 20
0.0
 30
0.0
 70
   128
 71
   79
 72
   101
 73
   77
  0
VERTEX
  8
pizza
 10
0.0
 20
0.0
 30
0.0
 70
   128
 71
   77
 72
   100
 73
   75
  0
VERTEX
  8
pizza
 10
0.0
 20
0.0
 30
0.0
 70
   128
 71
   75
 72
   99
 73
   73
  0
VERTEX
  8
pizza
 10
0.0
 20
0.0
 30
0.0
 70
   128
 71
   73
 72
   98
 73
   71
  0
VERTEX
  8
pizza
 10
0.0
 20
0.0
 30
0.0
 70
   128
 71
   138
 72
   127
 73
   137
  0
VERTEX
  8
pizza
 10
0.0
 20
0.0
 30
0.0
 70
   128
 71
   107
 72
   110
 73
   109
  0
VERTEX
  8
pizza
 10
0.0
 20
0.0
 30
0.0
 70
   128
 71
   137
 72
   126
 73
   136
  0
VERTEX
  8
pizza
 10
0.0
 20
0.0
 30
0.0
 70
   128
 71
   136
 72
   125
 73
   135
  0
VERTEX
  8
pizza
 10
0.0
 20
0.0
 30
0.0
 70
   128
 71
   109
 72
   112
 73
   111
  0
VERTEX
  8
pizza
 10
0.0
 20
0.0
 30
0.0
 70
   128
 71
   135
 72
   134
 73
   144
  0
VERTEX
  8
pizza
 10
0.0
 20
0.0
 30
0.0
 70
   128
 71
   144
 72
   133
 73
   143
  0
VERTEX
  8
pizza
 10
0.0
 20
0.0
 30
0.0
 70
   128
 71
   111
 72
   114
 73
   113
  0
VERTEX
  8
pizza
 10
0.0
 20
0.0
 30
0.0
 70
   128
 71
   143
 72
   132
 73
   142
  0
VERTEX
  8
pizza
 10
0.0
 20
0.0
 30
0.0
 70
   128
 71
   142
 72
   131
 73
   141
  0
VERTEX
  8
pizza
 10
0.0
 20
0.0
 30
0.0
 70
   128
 71
   113
 72
   116
 73
   115
  0
VERTEX
  8
pizza
 10
0.0
 20
0.0
 30
0.0
 70
   128
 71
   141
 72
   130
 73
   140
  0
VERTEX
  8
pizza
 10
0.0
 20
0.0
 30
0.0
 70
   128
 71
   140
 72
   129
 73
   139
  0
VERTEX
  8
pizza
 10
0.0
 20
0.0
 30
0.0
 70
   128
 71
   115
 72
   118
 73
   117
  0
VERTEX
  8
pizza
 10
0.0
 20
0.0
 30
0.0
 70
   128
 71
   139
 72
   128
 73
   138
  0
VERTEX
  8
pizza
 10
0.0
 20
0.0
 30
0.0
 70
   128
 71
   121
 72
   124
 73
   123
  0
VERTEX
  8
pizza
 10
0.0
 20
0.0
 30
0.0
 70
   128
 71
   117
 72
   120
 73
   119
  0
VERTEX
  8
pizza
 10
0.0
 20
0.0
 30
0.0
 70
   128
 71
   123
 72
   106
 73
   105
  0
VERTEX
  8
pizza
 10
0.0
 20
0.0
 30
0.0
 70
   128
 71
   105
 72
   108
 73
   107
  0
VERTEX
  8
pizza
 10
0.0
 20
0.0
 30
0.0
 70
   128
 71
   119
 72
   122
 73
   121
  0
VERTEX
  8
pizza
 10
0.0
 20
0.0
 30
0.0
 70
   128
 71
   106
 72
   126
 73
   108
  0
VERTEX
  8
pizza
 10
0.0
 20
0.0
 30
0.0
 70
   128
 71
   108
 72
   127
 73
   110
  0
VERTEX
  8
pizza
 10
0.0
 20
0.0
 30
0.0
 70
   128
 71
   110
 72
   128
 73
   112
  0
VERTEX
  8
pizza
 10
0.0
 20
0.0
 30
0.0
 70
   128
 71
   112
 72
   129
 73
   114
  0
VERTEX
  8
pizza
 10
0.0
 20
0.0
 30
0.0
 70
   128
 71
   114
 72
   130
 73
   116
  0
VERTEX
  8
pizza
 10
0.0
 20
0.0
 30
0.0
 70
   128
 71
   116
 72
   131
 73
   118
  0
VERTEX
  8
pizza
 10
0.0
 20
0.0
 30
0.0
 70
   128
 71
   118
 72
   132
 73
   120
  0
VERTEX
  8
pizza
 10
0.0
 20
0.0
 30
0.0
 70
   128
 71
   120
 72
   133
 73
   122
  0
VERTEX
  8
pizza
 10
0.0
 20
0.0
 30
0.0
 70
   128
 71
   122
 72
   134
 73
   124
  0
VERTEX
  8
pizza
 10
0.0
 20
0.0
 30
0.0
 70
   128
 71
   124
 72
   125
 73
   106
  0
VERTEX
  8
pizza
 10
0.0
 20
0.0
 30
0.0
 70
   128
 71
   111
 72
   137
 73
   109
  0
VERTEX
  8
pizza
 10
0.0
 20
0.0
 30
0.0
 70
   128
 71
   109
 72
   136
 73
   107
  0
VERTEX
  8
pizza
 10
0.0
 20
0.0
 30
0.0
 70
   128
 71
   107
 72
   135
 73
   105
  0
VERTEX
  8
pizza
 10
0.0
 20
0.0
 30
0.0
 70
   128
 71
   105
 72
   144
 73
   123
  0
VERTEX
  8
pizza
 10
0.0
 20
0.0
 30
0.0
 70
   128
 71
   123
 72
   143
 73
   121
  0
VERTEX
  8
pizza
 10
0.0
 20
0.0
 30
0.0
 70
   128
 71
   121
 72
   142
 73
   119
  0
VERTEX
  8
pizza
 10
0.0
 20
0.0
 30
0.0
 70
   128
 71
   119
 72
   141
 73
   117
  0
VERTEX
  8
pizza
 10
0.0
 20
0.0
 30
0.0
 70
   128
 71
   117
 72
   140
 73
   115
  0
VERTEX
  8
pizza
 10
0.0
 20
0.0
 30
0.0
 70
   128
 71
   115
 72
   139
 73
   113
  0
VERTEX
  8
pizza
 10
0.0
 20
0.0
 30
0.0
 70
   128
 71
   113
 72
   138
 73
   111
  0
VERTEX
  8
pizza
 10
0.0
 20
0.0
 30
0.0
 70
   128
 71
   145
 72
   149
 73
   161
  0
VERTEX
  8
pizza
 10
0.0
 20
0.0
 30
0.0
 70
   128
 71
   147
 72
   150
 73
   149
  0
VERTEX
  8
pizza
 10
0.0
 20
0.0
 30
0.0
 70
   128
 71
   150
 72
   146
 73
   152
  0
VERTEX
  8
pizza
 10
0.0
 20
0.0
 30
0.0
 70
   128
 71
   149
 72
   152
 73
   151
  0
VERTEX
  8
pizza
 10
0.0
 20
0.0
 30
0.0
 70
   128
 71
   161
 72
   151
 73
   159
  0
VERTEX
  8
pizza
 10
0.0
 20
0.0
 30
0.0
 70
   128
 71
   151
 72
   154
 73
   153
  0
VERTEX
  8
pizza
 10
0.0
 20
0.0
 30
0.0
 70
   128
 71
   151
 72
   157
 73
   159
  0
VERTEX
  8
pizza
 10
0.0
 20
0.0
 30
0.0
 70
   128
 71
   153
 72
   156
 73
   155
  0
VERTEX
  8
pizza
 10
0.0
 20
0.0
 30
0.0
 70
   128
 71
   152
 72
   162
 73
   156
  0
VERTEX
  8
pizza
 10
0.0
 20
0.0
 30
0.0
 70
   128
 71
   156
 72
   160
 73
   158
  0
VERTEX
  8
pizza
 10
0.0
 20
0.0
 30
0.0
 70
   128
 71
   155
 72
   158
 73
   157
  0
VERTEX
  8
pizza
 10
0.0
 20
0.0
 30
0.0
 70
   128
 71
   161
 72
   164
 73
   163
  0
VERTEX
  8
pizza
 10
0.0
 20
0.0
 30
0.0
 70
   128
 71
   157
 72
   160
 73
   159
  0
VERTEX
  8
pizza
 10
0.0
 20
0.0
 30
0.0
 70
   128
 71
   163
 72
   146
 73
   145
  0
VERTEX
  8
pizza
 10
0.0
 20
0.0
 30
0.0
 70
   128
 71
   145
 72
   148
 73
   147
  0
VERTEX
  8
pizza
 10
0.0
 20
0.0
 30
0.0
 70
   128
 71
   159
 72
   162
 73
   161
  0
VERTEX
  8
pizza
 10
0.0
 20
0.0
 30
0.0
 70
   128
 71
   165
 72
   169
 73
   181
  0
VERTEX
  8
pizza
 10
0.0
 20
0.0
 30
0.0
 70
   128
 71
   167
 72
   170
 73
   169
  0
VERTEX
  8
pizza
 10
0.0
 20
0.0
 30
0.0
 70
   128
 71
   170
 72
   166
 73
   172
  0
VERTEX
  8
pizza
 10
0.0
 20
0.0
 30
0.0
 70
   128
 71
   169
 72
   172
 73
   171
  0
VERTEX
  8
pizza
 10
0.0
 20
0.0
 30
0.0
 70
   128
 71
   181
 72
   171
 73
   179
  0
VERTEX
  8
pizza
 10
0.0
 20
0.0
 30
0.0
 70
   128
 71
   171
 72
   174
 73
   173
  0
VERTEX
  8
pizza
 10
0.0
 20
0.0
 30
0.0
 70
   128
 71
   171
 72
   177
 73
   179
  0
VERTEX
  8
pizza
 10
0.0
 20
0.0
 30
0.0
 70
   128
 71
   173
 72
   176
 73
   175
  0
VERTEX
  8
pizza
 10
0.0
 20
0.0
 30
0.0
 70
   128
 71
   172
 72
   182
 73
   176
  0
VERTEX
  8
pizza
 10
0.0
 20
0.0
 30
0.0
 70
   128
 71
   176
 72
   180
 73
   178
  0
VERTEX
  8
pizza
 10
0.0
 20
0.0
 30
0.0
 70
   128
 71
   175
 72
   178
 73
   177
  0
VERTEX
  8
pizza
 10
0.0
 20
0.0
 30
0.0
 70
   128
 71
   181
 72
   184
 73
   183
  0
VERTEX
  8
pizza
 10
0.0
 20
0.0
 30
0.0
 70
   128
 71
   177
 72
   180
 73
   179
  0
VERTEX
  8
pizza
 10
0.0
 20
0.0
 30
0.0
 70
   128
 71
   183
 72
   166
 73
   165
  0
VERTEX
  8
pizza
 10
0.0
 20
0.0
 30
0.0
 70
   128
 71
   165
 72
   168
 73
   167
  0
VERTEX
  8
pizza
 10
0.0
 20
0.0
 30
0.0
 70
   128
 71
   179
 72
   182
 73
   181
  0
VERTEX
  8
pizza
 10
0.0
 20
0.0
 30
0.0
 70
   128
 71
   185
 72
   189
 73
   201
  0
VERTEX
  8
pizza
 10
0.0
 20
0.0
 30
0.0
 70
   128
 71
   187
 72
   190
 73
   189
  0
VERTEX
  8
pizza
 10
0.0
 20
0.0
 30
0.0
 70
   128
 71
   190
 72
   186
 73
   192
  0
VERTEX
  8
pizza
 10
0.0
 20
0.0
 30
0.0
 70
   128
 71
   189
 72
   192
 73
   191
  0
VERTEX
  8
pizza
 10
0.0
 20
0.0
 30
0.0
 70
   128
 71
   201
 72
   191
 73
   199
  0
VERTEX
  8
pizza
 10
0.0
 20
0.0
 30
0.0
 70
   128
 71
   191
 72
   194
 73
   193
  0
VERTEX
  8
pizza
 10
0.0
 20
0.0
 30
0.0
 70
   128
 71
   191
 72
   197
 73
   199
  0
VERTEX
  8
pizza
 10
0.0
 20
0.0
 30
0.0
 70
   128
 71
   193
 72
   196
 73
   195
  0
VERTEX
  8
pizza
 10
0.0
 20
0.0
 30
0.0
 70
   128
 71
   192
 72
   202
 73
   196
  0
VERTEX
  8
pizza
 10
0.0
 20
0.0
 30
0.0
 70
   128
 71
   196
 72
   200
 73
   198
  0
VERTEX
  8
pizza
 10
0.0
 20
0.0
 30
0.0
 70
   128
 71
   195
 72
   198
 73
   197
  0
VERTEX
  8
pizza
 10
0.0
 20
0.0
 30
0.0
 70
   128
 71
   201
 72
   204
 73
   203
  0
VERTEX
  8
pizza
 10
0.0
 20
0.0
 30
0.0
 70
   128
 71
   197
 72
   200
 73
   199
  0
VERTEX
  8
pizza
 10
0.0
 20
0.0
 30
0.0
 70
   128
 71
   203
 72
   186
 73
   185
  0
VERTEX
  8
pizza
 10
0.0
 20
0.0
 30
0.0
 70
   128
 71
   185
 72
   188
 73
   187
  0
VERTEX
  8
pizza
 10
0.0
 20
0.0
 30
0.0
 70
   128
 71
   199
 72
   202
 73
   201
  0
VERTEX
  8
pizza
 10
0.0
 20
0.0
 30
0.0
 70
   128
 71
   205
 72
   208
 73
   207
  0
VERTEX
  8
pizza
 10
0.0
 20
0.0
 30
0.0
 70
   128
 71
   205
 72
   213
 73
   215
  0
VERTEX
  8
pizza
 10
0.0
 20
0.0
 30
0.0
 70
   128
 71
   213
 72
   216
 73
   215
  0
VERTEX
  8
pizza
 10
0.0
 20
0.0
 30
0.0
 70
   128
 71
   207
 72
   210
 73
   209
  0
VERTEX
  8
pizza
 10
0.0
 20
0.0
 30
0.0
 70
   128
 71
   214
 72
   210
 73
   216
  0
VERTEX
  8
pizza
 10
0.0
 20
0.0
 30
0.0
 70
   128
 71
   209
 72
   212
 73
   211
  0
VERTEX
  8
pizza
 10
0.0
 20
0.0
 30
0.0
 70
   128
 71
   216
 72
   208
 73
   206
  0
VERTEX
  8
pizza
 10
0.0
 20
0.0
 30
0.0
 70
   128
 71
   206
 72
   215
 73
   216
  0
VERTEX
  8
pizza
 10
0.0
 20
0.0
 30
0.0
 70
   128
 71
   211
 72
   214
 73
   213
  0
VERTEX
  8
pizza
 10
0.0
 20
0.0
 30
0.0
 70
   128
 71
   217
 72
   221
 73
   58
  0
VERTEX
  8
pizza
 10
0.0
 20
0.0
 30
0.0
 70
   128
 71
   219
 72
   222
 73
   221
  0
VERTEX
  8
pizza
 10
0.0
 20
0.0
 30
0.0
 70
   128
 71
   222
 72
   218
 73
   224
  0
VERTEX
  8
pizza
 10
0.0
 20
0.0
 30
0.0
 70
   128
 71
   221
 72
   224
 73
   223
  0
VERTEX
  8
pizza
 10
0.0
 20
0.0
 30
0.0
 70
   128
 71
   58
 72
   223
 73
   231
  0
VERTEX
  8
pizza
 10
0.0
 20
0.0
 30
0.0
 70
   128
 71
   223
 72
   226
 73
   225
  0
VERTEX
  8
pizza
 10
0.0
 20
0.0
 30
0.0
 70
   128
 71
   223
 72
   229
 73
   231
  0
VERTEX
  8
pizza
 10
0.0
 20
0.0
 30
0.0
 70
   128
 71
   225
 72
   228
 73
   227
  0
VERTEX
  8
pizza
 10
0.0
 20
0.0
 30
0.0
 70
   128
 71
   224
 72
   1
 73
   228
  0
VERTEX
  8
pizza
 10
0.0
 20
0.0
 30
0.0
 70
   128
 71
   228
 72
   30
 73
   230
  0
VERTEX
  8
pizza
 10
0.0
 20
0.0
 30
0.0
 70
   128
 71
   227
 72
   230
 73
   229
  0
VERTEX
  8
pizza
 10
0.0
 20
0.0
 30
0.0
 70
   128
 71
   58
 72
   3
 73
   2
  0
VERTEX
  8
pizza
 10
0.0
 20
0.0
 30
0.0
 70
   128
 71
   229
 72
   30
 73
   231
  0
VERTEX
  8
pizza
 10
0.0
 20
0.0
 30
0.0
 70
   128
 71
   2
 72
   218
 73
   217
  0
VERTEX
  8
pizza
 10
0.0
 20
0.0
 30
0.0
 70
   128
 71
   217
 72
   220
 73
   219
  0
VERTEX
  8
pizza
 10
0.0
 20
0.0
 30
0.0
 70
   128
 71
   231
 72
   1
 73
   58
  0
VERTEX
  8
pizza
 10
0.0
 20
0.0
 30
0.0
 70
   128
 71
   6
 72
   33
 73
   59
  0
VERTEX
  8
pizza
 10
0.0
 20
0.0
 30
0.0
 70
   128
 71
   14
 72
   34
 73
   33
  0
VERTEX
  8
pizza
 10
0.0
 20
0.0
 30
0.0
 70
   128
 71
   34
 72
   7
 73
   36
  0
VERTEX
  8
pizza
 10
0.0
 20
0.0
 30
0.0
 70
   128
 71
   33
 72
   36
 73
   35
  0
VERTEX
  8
pizza
 10
0.0
 20
0.0
 30
0.0
 70
   128
 71
   59
 72
   35
 73
   53
  0
SEQEND
  0
ENDSEC
  0
EOF
