999
FBX AutoCAD (*.DXF) exporter
  0
SECTION
  2
HEADER
  9
$ACADVER
  1
AC1008
  9
$UCSORG
 10
0.0
 20
0.0
 30
0.0
  9
$UCSXDIR
 10
1.0
 20
0.0
 30
0.0
  9
$TILEMODE
 70
   1
  9
$UCSYDIR
 10
0.0
 20
1.0
 30
0.0
  0
ENDSEC
  0
SECTION
  2
TABLES
  0
TABLE
  2
LTYPE
 70
   1
  0
LTYPE
  2
CONTINUOUS
 70
   64
  3
Solid line
 72
   65
 73
   0
 40
0.0
  0
ENDTAB
  0
TABLE
  2
LAYER
 70
   9
  0
LAYER
  2
oliver
 70
   0
 62
   250
  6
CONTINUOUS
  0
LAYER
  2
bread
 70
   0
 62
   250
  6
CONTINUOUS
  0
LAYER
  2
tomato
 70
   0
 62
   250
  6
CONTINUOUS
  0
LAYER
  2
tomato_2
 70
   0
 62
   250
  6
CONTINUOUS
  0
LAYER
  2
lettuce
 70
   0
 62
   250
  6
CONTINUOUS
  0
LAYER
  2
cheese
 70
   0
 62
   250
  6
CONTINUOUS
  0
LAYER
  2
meat
 70
   0
 62
   250
  6
CONTINUOUS
  0
LAYER
  2
bread_2
 70
   0
 62
   250
  6
CONTINUOUS
  0
ENDTAB
  0
ENDSEC
  0
SECTION
  2
BLOCKS
  0
ENDSEC
  0
SECTION
  2
ENTITIES
  0
POLYLINE
  8
oliver
 66
   1
 10
0.0
 20
0.0
 30
0.0
 70
   64
 71
   12
 72
   20
  0
VERTEX
  8
oliver
 10
43.341493
 20
155.087198
 30
-11.028788
 70
   192
  0
VERTEX
  8
oliver
 10
62.631609
 20
155.087198
 30
-35.905314
 70
   192
  0
VERTEX
  8
oliver
 10
46.721427
 20
175.843077
 30
-28.325245
 70
   192
  0
VERTEX
  8
oliver
 10
26.447059
 20
175.843077
 30
-44.046690
 70
   192
  0
VERTEX
  8
oliver
 10
10.536876
 20
155.087198
 30
-36.466621
 70
   192
  0
VERTEX
  8
oliver
 10
29.826993
 20
155.087198
 30
-61.343146
 70
   192
  0
VERTEX
  8
oliver
 10
26.447059
 20
134.331318
 30
-44.046690
 70
   192
  0
VERTEX
  8
oliver
 10
46.721427
 20
134.331318
 30
-28.325245
 70
   192
  0
VERTEX
  8
oliver
 10
20.978210
 20
167.915037
 30
-16.060435
 70
   192
  0
VERTEX
  8
oliver
 10
20.978210
 20
142.259358
 30
-16.060435
 70
   192
  0
VERTEX
  8
oliver
 10
52.190275
 20
142.259358
 30
-56.311499
 70
   192
  0
VERTEX
  8
oliver
 10
52.190275
 20
167.915037
 30
-56.311499
 70
   192
  0
VERTEX
  8
oliver
 10
0.0
 20
0.0
 30
0.0
 70
   128
 71
   10
 72
   9
 73
   1
  0
VERTEX
  8
oliver
 10
0.0
 20
0.0
 30
0.0
 70
   128
 71
   9
 72
   3
 73
   1
  0
VERTEX
  8
oliver
 10
0.0
 20
0.0
 30
0.0
 70
   128
 71
   9
 72
   4
 73
   3
  0
VERTEX
  8
oliver
 10
0.0
 20
0.0
 30
0.0
 70
   128
 71
   9
 72
   5
 73
   4
  0
VERTEX
  8
oliver
 10
0.0
 20
0.0
 30
0.0
 70
   128
 71
   9
 72
   10
 73
   5
  0
VERTEX
  8
oliver
 10
0.0
 20
0.0
 30
0.0
 70
   128
 71
   5
 72
   10
 73
   7
  0
VERTEX
  8
oliver
 10
0.0
 20
0.0
 30
0.0
 70
   128
 71
   7
 72
   10
 73
   8
  0
VERTEX
  8
oliver
 10
0.0
 20
0.0
 30
0.0
 70
   128
 71
   10
 72
   1
 73
   8
  0
VERTEX
  8
oliver
 10
0.0
 20
0.0
 30
0.0
 70
   128
 71
   12
 72
   11
 73
   2
  0
VERTEX
  8
oliver
 10
0.0
 20
0.0
 30
0.0
 70
   128
 71
   3
 72
   12
 73
   2
  0
VERTEX
  8
oliver
 10
0.0
 20
0.0
 30
0.0
 70
   128
 71
   3
 72
   4
 73
   12
  0
VERTEX
  8
oliver
 10
0.0
 20
0.0
 30
0.0
 70
   128
 71
   4
 72
   6
 73
   12
  0
VERTEX
  8
oliver
 10
0.0
 20
0.0
 30
0.0
 70
   128
 71
   6
 72
   11
 73
   12
  0
VERTEX
  8
oliver
 10
0.0
 20
0.0
 30
0.0
 70
   128
 71
   6
 72
   7
 73
   11
  0
VERTEX
  8
oliver
 10
0.0
 20
0.0
 30
0.0
 70
   128
 71
   7
 72
   8
 73
   11
  0
VERTEX
  8
oliver
 10
0.0
 20
0.0
 30
0.0
 70
   128
 71
   8
 72
   2
 73
   11
  0
VERTEX
  8
oliver
 10
0.0
 20
0.0
 30
0.0
 70
   128
 71
   2
 72
   8
 73
   1
  0
VERTEX
  8
oliver
 10
0.0
 20
0.0
 30
0.0
 70
   128
 71
   3
 72
   2
 73
   1
  0
VERTEX
  8
oliver
 10
0.0
 20
0.0
 30
0.0
 70
   128
 71
   5
 72
   6
 73
   4
  0
VERTEX
  8
oliver
 10
0.0
 20
0.0
 30
0.0
 70
   128
 71
   5
 72
   7
 73
   6
  0
SEQEND
  0
POLYLINE
  8
bread
 66
   1
 10
0.0
 20
0.0
 30
0.0
 70
   64
 71
   6
 72
   8
  0
VERTEX
  8
bread
 10
-100.000000
 20
98.671421
 30
-100.000000
 70
   192
  0
VERTEX
  8
bread
 10
-100.000000
 20
140.126498
 30
-100.000000
 70
   192
  0
VERTEX
  8
bread
 10
100.000000
 20
98.671421
 30
100.000000
 70
   192
  0
VERTEX
  8
bread
 10
100.000000
 20
140.126498
 30
100.000000
 70
   192
  0
VERTEX
  8
bread
 10
100.000000
 20
98.671421
 30
-100.000000
 70
   192
  0
VERTEX
  8
bread
 10
100.000000
 20
140.126498
 30
-100.000000
 70
   192
  0
VERTEX
  8
bread
 10
0.0
 20
0.0
 30
0.0
 70
   128
 71
   1
 72
   2
 73
   4
  0
VERTEX
  8
bread
 10
0.0
 20
0.0
 30
0.0
 70
   128
 71
   3
 72
   4
 73
   6
  0
VERTEX
  8
bread
 10
0.0
 20
0.0
 30
0.0
 70
   128
 71
   5
 72
   6
 73
   2
  0
VERTEX
  8
bread
 10
0.0
 20
0.0
 30
0.0
 70
   128
 71
   1
 72
   3
 73
   5
  0
VERTEX
  8
bread
 10
0.0
 20
0.0
 30
0.0
 70
   128
 71
   2
 72
   6
 73
   4
  0
VERTEX
  8
bread
 10
0.0
 20
0.0
 30
0.0
 70
   128
 71
   1
 72
   4
 73
   3
  0
VERTEX
  8
bread
 10
0.0
 20
0.0
 30
0.0
 70
   128
 71
   3
 72
   6
 73
   5
  0
VERTEX
  8
bread
 10
0.0
 20
0.0
 30
0.0
 70
   128
 71
   5
 72
   2
 73
   1
  0
SEQEND
  0
POLYLINE
  8
tomato
 66
   1
 10
0.0
 20
0.0
 30
0.0
 70
   64
 71
   20
 72
   36
  0
VERTEX
  8
tomato
 10
102.818183
 20
87.069880
 30
62.078720
 70
   192
  0
VERTEX
  8
tomato
 10
102.781883
 20
102.138675
 30
61.978320
 70
   192
  0
VERTEX
  8
tomato
 10
119.174040
 20
87.298488
 30
33.109390
 70
   192
  0
VERTEX
  8
tomato
 10
119.129370
 20
102.366118
 30
33.011998
 70
   192
  0
VERTEX
  8
tomato
 10
115.379233
 20
86.680047
 30
0.085443
 70
   192
  0
VERTEX
  8
tomato
 10
115.329678
 20
101.983487
 30
-0.041483
 70
   192
  0
VERTEX
  8
tomato
 10
92.872053
 20
86.445556
 30
-24.425647
 70
   192
  0
VERTEX
  8
tomato
 10
92.843184
 20
101.623552
 30
-24.533568
 70
   192
  0
VERTEX
  8
tomato
 10
60.284277
 20
86.311102
 30
-31.023500
 70
   192
  0
VERTEX
  8
tomato
 10
60.234475
 20
101.359732
 30
-31.152698
 70
   192
  0
VERTEX
  8
tomato
 10
30.027529
 20
86.321104
 30
-17.203420
 70
   192
  0
VERTEX
  8
tomato
 10
29.988680
 20
101.247018
 30
-17.318783
 70
   192
  0
VERTEX
  8
tomato
 10
13.652048
 20
87.029118
 30
11.774139
 70
   192
  0
VERTEX
  8
tomato
 10
13.638437
 20
102.271143
 30
11.638875
 70
   192
  0
VERTEX
  8
tomato
 10
17.450146
 20
86.758674
 30
44.796136
 70
   192
  0
VERTEX
  8
tomato
 10
17.439004
 20
102.072165
 30
44.705881
 70
   192
  0
VERTEX
  8
tomato
 10
39.951830
 20
86.999376
 30
69.297846
 70
   192
  0
VERTEX
  8
tomato
 10
39.932399
 20
102.156694
 30
69.200693
 70
   192
  0
VERTEX
  8
tomato
 10
72.555345
 20
86.960559
 30
75.901486
 70
   192
  0
VERTEX
  8
tomato
 10
72.530550
 20
102.198735
 30
75.799638
 70
   192
  0
VERTEX
  8
tomato
 10
0.0
 20
0.0
 30
0.0
 70
   128
 71
   1
 72
   3
 73
   5
  0
VERTEX
  8
tomato
 10
0.0
 20
0.0
 30
0.0
 70
   128
 71
   3
 72
   4
 73
   6
  0
VERTEX
  8
tomato
 10
0.0
 20
0.0
 30
0.0
 70
   128
 71
   6
 72
   4
 73
   2
  0
VERTEX
  8
tomato
 10
0.0
 20
0.0
 30
0.0
 70
   128
 71
   1
 72
   17
 73
   19
  0
VERTEX
  8
tomato
 10
0.0
 20
0.0
 30
0.0
 70
   128
 71
   5
 72
   6
 73
   8
  0
VERTEX
  8
tomato
 10
0.0
 20
0.0
 30
0.0
 70
   128
 71
   17
 72
   5
 73
   7
  0
VERTEX
  8
tomato
 10
0.0
 20
0.0
 30
0.0
 70
   128
 71
   7
 72
   9
 73
   11
  0
VERTEX
  8
tomato
 10
0.0
 20
0.0
 30
0.0
 70
   128
 71
   7
 72
   8
 73
   10
  0
VERTEX
  8
tomato
 10
0.0
 20
0.0
 30
0.0
 70
   128
 71
   7
 72
   11
 73
   13
  0
VERTEX
  8
tomato
 10
0.0
 20
0.0
 30
0.0
 70
   128
 71
   2
 72
   20
 73
   18
  0
VERTEX
  8
tomato
 10
0.0
 20
0.0
 30
0.0
 70
   128
 71
   9
 72
   10
 73
   12
  0
VERTEX
  8
tomato
 10
0.0
 20
0.0
 30
0.0
 70
   128
 71
   8
 72
   2
 73
   18
  0
VERTEX
  8
tomato
 10
0.0
 20
0.0
 30
0.0
 70
   128
 71
   12
 72
   18
 73
   16
  0
VERTEX
  8
tomato
 10
0.0
 20
0.0
 30
0.0
 70
   128
 71
   11
 72
   12
 73
   14
  0
VERTEX
  8
tomato
 10
0.0
 20
0.0
 30
0.0
 70
   128
 71
   12
 72
   10
 73
   8
  0
VERTEX
  8
tomato
 10
0.0
 20
0.0
 30
0.0
 70
   128
 71
   17
 72
   18
 73
   20
  0
VERTEX
  8
tomato
 10
0.0
 20
0.0
 30
0.0
 70
   128
 71
   13
 72
   14
 73
   16
  0
VERTEX
  8
tomato
 10
0.0
 20
0.0
 30
0.0
 70
   128
 71
   19
 72
   20
 73
   2
  0
VERTEX
  8
tomato
 10
0.0
 20
0.0
 30
0.0
 70
   128
 71
   1
 72
   2
 73
   4
  0
VERTEX
  8
tomato
 10
0.0
 20
0.0
 30
0.0
 70
   128
 71
   15
 72
   16
 73
   18
  0
VERTEX
  8
tomato
 10
0.0
 20
0.0
 30
0.0
 70
   128
 71
   1
 72
   5
 73
   17
  0
VERTEX
  8
tomato
 10
0.0
 20
0.0
 30
0.0
 70
   128
 71
   3
 72
   6
 73
   5
  0
VERTEX
  8
tomato
 10
0.0
 20
0.0
 30
0.0
 70
   128
 71
   6
 72
   2
 73
   8
  0
VERTEX
  8
tomato
 10
0.0
 20
0.0
 30
0.0
 70
   128
 71
   5
 72
   8
 73
   7
  0
VERTEX
  8
tomato
 10
0.0
 20
0.0
 30
0.0
 70
   128
 71
   17
 72
   7
 73
   15
  0
VERTEX
  8
tomato
 10
0.0
 20
0.0
 30
0.0
 70
   128
 71
   7
 72
   10
 73
   9
  0
VERTEX
  8
tomato
 10
0.0
 20
0.0
 30
0.0
 70
   128
 71
   7
 72
   13
 73
   15
  0
VERTEX
  8
tomato
 10
0.0
 20
0.0
 30
0.0
 70
   128
 71
   9
 72
   12
 73
   11
  0
VERTEX
  8
tomato
 10
0.0
 20
0.0
 30
0.0
 70
   128
 71
   8
 72
   18
 73
   12
  0
VERTEX
  8
tomato
 10
0.0
 20
0.0
 30
0.0
 70
   128
 71
   12
 72
   16
 73
   14
  0
VERTEX
  8
tomato
 10
0.0
 20
0.0
 30
0.0
 70
   128
 71
   11
 72
   14
 73
   13
  0
VERTEX
  8
tomato
 10
0.0
 20
0.0
 30
0.0
 70
   128
 71
   17
 72
   20
 73
   19
  0
VERTEX
  8
tomato
 10
0.0
 20
0.0
 30
0.0
 70
   128
 71
   13
 72
   16
 73
   15
  0
VERTEX
  8
tomato
 10
0.0
 20
0.0
 30
0.0
 70
   128
 71
   19
 72
   2
 73
   1
  0
VERTEX
  8
tomato
 10
0.0
 20
0.0
 30
0.0
 70
   128
 71
   1
 72
   4
 73
   3
  0
VERTEX
  8
tomato
 10
0.0
 20
0.0
 30
0.0
 70
   128
 71
   15
 72
   18
 73
   17
  0
SEQEND
  0
POLYLINE
  8
tomato_2
 66
   1
 10
0.0
 20
0.0
 30
0.0
 70
   64
 71
   20
 72
   36
  0
VERTEX
  8
tomato_2
 10
49.819327
 20
87.519071
 30
-28.954639
 70
   192
  0
VERTEX
  8
tomato_2
 10
49.783027
 20
102.587867
 30
-29.055038
 70
   192
  0
VERTEX
  8
tomato_2
 10
66.175184
 20
87.747680
 30
-57.923968
 70
   192
  0
VERTEX
  8
tomato_2
 10
66.130513
 20
102.815309
 30
-58.021361
 70
   192
  0
VERTEX
  8
tomato_2
 10
62.380377
 20
87.129239
 30
-90.947915
 70
   192
  0
VERTEX
  8
tomato_2
 10
62.330822
 20
102.432679
 30
-91.074841
 70
   192
  0
VERTEX
  8
tomato_2
 10
39.873196
 20
86.894747
 30
-115.459006
 70
   192
  0
VERTEX
  8
tomato_2
 10
39.844328
 20
102.072744
 30
-115.566926
 70
   192
  0
VERTEX
  8
tomato_2
 10
7.285420
 20
86.760293
 30
-122.056859
 70
   192
  0
VERTEX
  8
tomato_2
 10
7.235619
 20
101.808923
 30
-122.186056
 70
   192
  0
VERTEX
  8
tomato_2
 10
-22.971328
 20
86.770296
 30
-108.236778
 70
   192
  0
VERTEX
  8
tomato_2
 10
-23.010176
 20
101.696210
 30
-108.352141
 70
   192
  0
VERTEX
  8
tomato_2
 10
-39.346808
 20
87.478310
 30
-79.259219
 70
   192
  0
VERTEX
  8
tomato_2
 10
-39.360419
 20
102.720334
 30
-79.394483
 70
   192
  0
VERTEX
  8
tomato_2
 10
-35.548711
 20
87.207865
 30
-46.237223
 70
   192
  0
VERTEX
  8
tomato_2
 10
-35.559853
 20
102.521357
 30
-46.327477
 70
   192
  0
VERTEX
  8
tomato_2
 10
-13.047026
 20
87.448568
 30
-21.735512
 70
   192
  0
VERTEX
  8
tomato_2
 10
-13.066458
 20
102.605885
 30
-21.832665
 70
   192
  0
VERTEX
  8
tomato_2
 10
19.556489
 20
87.409751
 30
-15.131872
 70
   192
  0
VERTEX
  8
tomato_2
 10
19.531693
 20
102.647926
 30
-15.233720
 70
   192
  0
VERTEX
  8
tomato_2
 10
0.0
 20
0.0
 30
0.0
 70
   128
 71
   1
 72
   3
 73
   5
  0
VERTEX
  8
tomato_2
 10
0.0
 20
0.0
 30
0.0
 70
   128
 71
   3
 72
   4
 73
   6
  0
VERTEX
  8
tomato_2
 10
0.0
 20
0.0
 30
0.0
 70
   128
 71
   6
 72
   4
 73
   2
  0
VERTEX
  8
tomato_2
 10
0.0
 20
0.0
 30
0.0
 70
   128
 71
   1
 72
   17
 73
   19
  0
VERTEX
  8
tomato_2
 10
0.0
 20
0.0
 30
0.0
 70
   128
 71
   5
 72
   6
 73
   8
  0
VERTEX
  8
tomato_2
 10
0.0
 20
0.0
 30
0.0
 70
   128
 71
   17
 72
   5
 73
   7
  0
VERTEX
  8
tomato_2
 10
0.0
 20
0.0
 30
0.0
 70
   128
 71
   7
 72
   9
 73
   11
  0
VERTEX
  8
tomato_2
 10
0.0
 20
0.0
 30
0.0
 70
   128
 71
   7
 72
   8
 73
   10
  0
VERTEX
  8
tomato_2
 10
0.0
 20
0.0
 30
0.0
 70
   128
 71
   7
 72
   11
 73
   13
  0
VERTEX
  8
tomato_2
 10
0.0
 20
0.0
 30
0.0
 70
   128
 71
   2
 72
   20
 73
   18
  0
VERTEX
  8
tomato_2
 10
0.0
 20
0.0
 30
0.0
 70
   128
 71
   9
 72
   10
 73
   12
  0
VERTEX
  8
tomato_2
 10
0.0
 20
0.0
 30
0.0
 70
   128
 71
   8
 72
   2
 73
   18
  0
VERTEX
  8
tomato_2
 10
0.0
 20
0.0
 30
0.0
 70
   128
 71
   12
 72
   18
 73
   16
  0
VERTEX
  8
tomato_2
 10
0.0
 20
0.0
 30
0.0
 70
   128
 71
   11
 72
   12
 73
   14
  0
VERTEX
  8
tomato_2
 10
0.0
 20
0.0
 30
0.0
 70
   128
 71
   12
 72
   10
 73
   8
  0
VERTEX
  8
tomato_2
 10
0.0
 20
0.0
 30
0.0
 70
   128
 71
   17
 72
   18
 73
   20
  0
VERTEX
  8
tomato_2
 10
0.0
 20
0.0
 30
0.0
 70
   128
 71
   13
 72
   14
 73
   16
  0
VERTEX
  8
tomato_2
 10
0.0
 20
0.0
 30
0.0
 70
   128
 71
   19
 72
   20
 73
   2
  0
VERTEX
  8
tomato_2
 10
0.0
 20
0.0
 30
0.0
 70
   128
 71
   1
 72
   2
 73
   4
  0
VERTEX
  8
tomato_2
 10
0.0
 20
0.0
 30
0.0
 70
   128
 71
   15
 72
   16
 73
   18
  0
VERTEX
  8
tomato_2
 10
0.0
 20
0.0
 30
0.0
 70
   128
 71
   1
 72
   5
 73
   17
  0
VERTEX
  8
tomato_2
 10
0.0
 20
0.0
 30
0.0
 70
   128
 71
   3
 72
   6
 73
   5
  0
VERTEX
  8
tomato_2
 10
0.0
 20
0.0
 30
0.0
 70
   128
 71
   6
 72
   2
 73
   8
  0
VERTEX
  8
tomato_2
 10
0.0
 20
0.0
 30
0.0
 70
   128
 71
   5
 72
   8
 73
   7
  0
VERTEX
  8
tomato_2
 10
0.0
 20
0.0
 30
0.0
 70
   128
 71
   17
 72
   7
 73
   15
  0
VERTEX
  8
tomato_2
 10
0.0
 20
0.0
 30
0.0
 70
   128
 71
   7
 72
   10
 73
   9
  0
VERTEX
  8
tomato_2
 10
0.0
 20
0.0
 30
0.0
 70
   128
 71
   7
 72
   13
 73
   15
  0
VERTEX
  8
tomato_2
 10
0.0
 20
0.0
 30
0.0
 70
   128
 71
   9
 72
   12
 73
   11
  0
VERTEX
  8
tomato_2
 10
0.0
 20
0.0
 30
0.0
 70
   128
 71
   8
 72
   18
 73
   12
  0
VERTEX
  8
tomato_2
 10
0.0
 20
0.0
 30
0.0
 70
   128
 71
   12
 72
   16
 73
   14
  0
VERTEX
  8
tomato_2
 10
0.0
 20
0.0
 30
0.0
 70
   128
 71
   11
 72
   14
 73
   13
  0
VERTEX
  8
tomato_2
 10
0.0
 20
0.0
 30
0.0
 70
   128
 71
   17
 72
   20
 73
   19
  0
VERTEX
  8
tomato_2
 10
0.0
 20
0.0
 30
0.0
 70
   128
 71
   13
 72
   16
 73
   15
  0
VERTEX
  8
tomato_2
 10
0.0
 20
0.0
 30
0.0
 70
   128
 71
   19
 72
   2
 73
   1
  0
VERTEX
  8
tomato_2
 10
0.0
 20
0.0
 30
0.0
 70
   128
 71
   1
 72
   4
 73
   3
  0
VERTEX
  8
tomato_2
 10
0.0
 20
0.0
 30
0.0
 70
   128
 71
   15
 72
   18
 73
   17
  0
SEQEND
  0
POLYLINE
  8
lettuce
 66
   1
 10
0.0
 20
0.0
 30
0.0
 70
   64
 71
   82
 72
   160
  0
VERTEX
  8
lettuce
 10
56.249705
 20
68.562988
 30
-117.703629
 70
   192
  0
VERTEX
  8
lettuce
 10
66.066190
 20
68.342457
 30
-115.868623
 70
   192
  0
VERTEX
  8
lettuce
 10
78.845863
 20
68.794872
 30
-105.534495
 70
   192
  0
VERTEX
  8
lettuce
 10
84.288932
 20
69.308905
 30
-95.829101
 70
   192
  0
VERTEX
  8
lettuce
 10
81.055328
 20
69.409596
 30
-83.135099
 70
   192
  0
VERTEX
  8
lettuce
 10
89.016702
 20
69.616913
 30
-71.538076
 70
   192
  0
VERTEX
  8
lettuce
 10
105.684028
 20
69.469839
 30
-63.822479
 70
   192
  0
VERTEX
  8
lettuce
 10
117.370288
 20
68.814850
 30
-55.515101
 70
   192
  0
VERTEX
  8
lettuce
 10
124.655638
 20
69.095028
 30
-40.846002
 70
   192
  0
VERTEX
  8
lettuce
 10
121.101066
 20
69.978675
 30
-23.855742
 70
   192
  0
VERTEX
  8
lettuce
 10
113.968641
 20
70.886935
 30
-15.428272
 70
   192
  0
VERTEX
  8
lettuce
 10
116.545040
 20
70.873963
 30
-1.083560
 70
   192
  0
VERTEX
  8
lettuce
 10
126.225112
 20
69.734602
 30
8.471810
 70
   192
  0
VERTEX
  8
lettuce
 10
132.637467
 20
69.207257
 30
17.056887
 70
   192
  0
VERTEX
  8
lettuce
 10
136.316901
 20
69.032459
 30
30.961581
 70
   192
  0
VERTEX
  8
lettuce
 10
132.659134
 20
69.429098
 30
44.255701
 70
   192
  0
VERTEX
  8
lettuce
 10
114.992368
 20
70.970485
 30
69.554841
 70
   192
  0
VERTEX
  8
lettuce
 10
95.803064
 20
69.822350
 30
74.004749
 70
   192
  0
VERTEX
  8
lettuce
 10
74.362816
 20
69.594840
 30
72.906897
 70
   192
  0
VERTEX
  8
lettuce
 10
56.604142
 20
68.661152
 30
74.108675
 70
   192
  0
VERTEX
  8
lettuce
 10
33.570519
 20
68.520812
 30
69.360073
 70
   192
  0
VERTEX
  8
lettuce
 10
15.355996
 20
68.751339
 30
55.599561
 70
   192
  0
VERTEX
  8
lettuce
 10
4.727339
 20
69.168405
 30
38.358112
 70
   192
  0
VERTEX
  8
lettuce
 10
-5.401030
 20
69.792171
 30
17.469424
 70
   192
  0
VERTEX
  8
lettuce
 10
-20.418926
 20
68.875610
 30
11.251338
 70
   192
  0
VERTEX
  8
lettuce
 10
-45.198715
 20
67.658391
 30
0.635616
 70
   192
  0
VERTEX
  8
lettuce
 10
-64.811864
 20
67.519778
 30
-18.616801
 70
   192
  0
VERTEX
  8
lettuce
 10
-67.453876
 20
68.020313
 30
-38.285884
 70
   192
  0
VERTEX
  8
lettuce
 10
-60.656448
 20
69.003858
 30
-47.084576
 70
   192
  0
VERTEX
  8
lettuce
 10
-62.963552
 20
69.047371
 30
-65.374868
 70
   192
  0
VERTEX
  8
lettuce
 10
-73.762006
 20
67.025340
 30
-77.504753
 70
   192
  0
VERTEX
  8
lettuce
 10
-72.423687
 20
66.663965
 30
-91.397819
 70
   192
  0
VERTEX
  8
lettuce
 10
-52.717171
 20
69.071626
 30
-96.582881
 70
   192
  0
VERTEX
  8
lettuce
 10
-36.658115
 20
69.504852
 30
-99.294672
 70
   192
  0
VERTEX
  8
lettuce
 10
-35.917977
 20
67.984177
 30
-122.448520
 70
   192
  0
VERTEX
  8
lettuce
 10
-28.370713
 20
67.466055
 30
-136.866314
 70
   192
  0
VERTEX
  8
lettuce
 10
-10.777112
 20
68.032611
 30
-134.218049
 70
   192
  0
VERTEX
  8
lettuce
 10
5.230315
 20
68.270050
 30
-126.540250
 70
   192
  0
VERTEX
  8
lettuce
 10
17.185083
 20
68.292552
 30
-125.394113
 70
   192
  0
VERTEX
  8
lettuce
 10
25.649613
 20
67.898727
 30
-136.797047
 70
   192
  0
VERTEX
  8
lettuce
 10
42.268304
 20
68.174365
 30
-129.134666
 70
   192
  0
VERTEX
  8
lettuce
 10
56.108154
 20
85.637819
 30
-117.860277
 70
   192
  0
VERTEX
  8
lettuce
 10
65.963598
 20
85.718402
 30
-116.027320
 70
   192
  0
VERTEX
  8
lettuce
 10
78.702516
 20
86.052439
 30
-105.723676
 70
   192
  0
VERTEX
  8
lettuce
 10
84.088872
 20
86.468666
 30
-95.991754
 70
   192
  0
VERTEX
  8
lettuce
 10
80.905779
 20
86.521752
 30
-83.276496
 70
   192
  0
VERTEX
  8
lettuce
 10
88.912553
 20
86.791216
 30
-71.628999
 70
   192
  0
VERTEX
  8
lettuce
 10
105.600891
 20
86.864916
 30
-63.955930
 70
   192
  0
VERTEX
  8
lettuce
 10
117.425494
 20
86.258602
 30
-55.660243
 70
   192
  0
VERTEX
  8
lettuce
 10
124.742823
 20
86.427763
 30
-41.084840
 70
   192
  0
VERTEX
  8
lettuce
 10
121.129470
 20
87.459061
 30
-24.035743
 70
   192
  0
VERTEX
  8
lettuce
 10
113.894511
 20
87.923269
 30
-15.506423
 70
   192
  0
VERTEX
  8
lettuce
 10
116.430542
 20
87.946711
 30
-1.081055
 70
   192
  0
VERTEX
  8
lettuce
 10
126.478961
 20
87.177039
 30
8.598683
 70
   192
  0
VERTEX
  8
lettuce
 10
132.983216
 20
86.631106
 30
17.210928
 70
   192
  0
VERTEX
  8
lettuce
 10
136.634802
 20
86.361672
 30
31.051542
 70
   192
  0
VERTEX
  8
lettuce
 10
132.873162
 20
86.656454
 30
44.314386
 70
   192
  0
VERTEX
  8
lettuce
 10
114.997148
 20
87.905091
 30
69.504490
 70
   192
  0
VERTEX
  8
lettuce
 10
95.545228
 20
87.098101
 30
73.987043
 70
   192
  0
VERTEX
  8
lettuce
 10
74.248240
 20
86.663056
 30
72.912338
 70
   192
  0
VERTEX
  8
lettuce
 10
56.509494
 20
85.989175
 30
74.211822
 70
   192
  0
VERTEX
  8
lettuce
 10
33.494243
 20
85.640428
 30
69.525620
 70
   192
  0
VERTEX
  8
lettuce
 10
15.317685
 20
85.951630
 30
55.726593
 70
   192
  0
VERTEX
  8
lettuce
 10
4.672432
 20
86.408860
 30
38.460129
 70
   192
  0
VERTEX
  8
lettuce
 10
-5.475095
 20
86.880614
 30
17.502943
 70
   192
  0
VERTEX
  8
lettuce
 10
-20.696455
 20
86.246280
 30
11.228997
 70
   192
  0
VERTEX
  8
lettuce
 10
-45.491223
 20
84.887733
 30
0.727650
 70
   192
  0
VERTEX
  8
lettuce
 10
-65.086875
 20
84.831395
 30
-18.520248
 70
   192
  0
VERTEX
  8
lettuce
 10
-67.697914
 20
85.436371
 30
-38.160234
 70
   192
  0
VERTEX
  8
lettuce
 10
-60.907256
 20
86.003408
 30
-47.032007
 70
   192
  0
VERTEX
  8
lettuce
 10
-63.318810
 20
85.845172
 30
-65.515490
 70
   192
  0
VERTEX
  8
lettuce
 10
-74.459717
 20
84.780311
 30
-77.922463
 70
   192
  0
VERTEX
  8
lettuce
 10
-73.051975
 20
84.125034
 30
-91.724903
 70
   192
  0
VERTEX
  8
lettuce
 10
-53.173663
 20
86.134902
 30
-96.622853
 70
   192
  0
VERTEX
  8
lettuce
 10
-36.819371
 20
86.577367
 30
-99.316378
 70
   192
  0
VERTEX
  8
lettuce
 10
-36.105667
 20
85.262010
 30
-122.821428
 70
   192
  0
VERTEX
  8
lettuce
 10
-28.543233
 20
84.704794
 30
-137.145751
 70
   192
  0
VERTEX
  8
lettuce
 10
-10.950013
 20
85.133521
 30
-134.296479
 70
   192
  0
VERTEX
  8
lettuce
 10
5.116450
 20
85.375838
 30
-126.615349
 70
   192
  0
VERTEX
  8
lettuce
 10
17.019945
 20
85.469710
 30
-125.437635
 70
   192
  0
VERTEX
  8
lettuce
 10
25.510139
 20
85.479264
 30
-136.902363
 70
   192
  0
VERTEX
  8
lettuce
 10
42.194107
 20
85.399742
 30
-129.236016
 70
   192
  0
VERTEX
  8
lettuce
 10
0.0
 20
0.0
 30
0.0
 70
   128
 71
   1
 72
   2
 73
   43
  0
VERTEX
  8
lettuce
 10
0.0
 20
0.0
 30
0.0
 70
   128
 71
   2
 72
   3
 73
   44
  0
VERTEX
  8
lettuce
 10
0.0
 20
0.0
 30
0.0
 70
   128
 71
   3
 72
   4
 73
   45
  0
VERTEX
  8
lettuce
 10
0.0
 20
0.0
 30
0.0
 70
   128
 71
   4
 72
   5
 73
   46
  0
VERTEX
  8
lettuce
 10
0.0
 20
0.0
 30
0.0
 70
   128
 71
   5
 72
   6
 73
   47
  0
VERTEX
  8
lettuce
 10
0.0
 20
0.0
 30
0.0
 70
   128
 71
   6
 72
   7
 73
   48
  0
VERTEX
  8
lettuce
 10
0.0
 20
0.0
 30
0.0
 70
   128
 71
   7
 72
   8
 73
   49
  0
VERTEX
  8
lettuce
 10
0.0
 20
0.0
 30
0.0
 70
   128
 71
   8
 72
   9
 73
   50
  0
VERTEX
  8
lettuce
 10
0.0
 20
0.0
 30
0.0
 70
   128
 71
   9
 72
   10
 73
   51
  0
VERTEX
  8
lettuce
 10
0.0
 20
0.0
 30
0.0
 70
   128
 71
   10
 72
   11
 73
   52
  0
VERTEX
  8
lettuce
 10
0.0
 20
0.0
 30
0.0
 70
   128
 71
   11
 72
   12
 73
   53
  0
VERTEX
  8
lettuce
 10
0.0
 20
0.0
 30
0.0
 70
   128
 71
   12
 72
   13
 73
   54
  0
VERTEX
  8
lettuce
 10
0.0
 20
0.0
 30
0.0
 70
   128
 71
   13
 72
   14
 73
   55
  0
VERTEX
  8
lettuce
 10
0.0
 20
0.0
 30
0.0
 70
   128
 71
   14
 72
   15
 73
   56
  0
VERTEX
  8
lettuce
 10
0.0
 20
0.0
 30
0.0
 70
   128
 71
   15
 72
   16
 73
   57
  0
VERTEX
  8
lettuce
 10
0.0
 20
0.0
 30
0.0
 70
   128
 71
   16
 72
   17
 73
   58
  0
VERTEX
  8
lettuce
 10
0.0
 20
0.0
 30
0.0
 70
   128
 71
   17
 72
   18
 73
   59
  0
VERTEX
  8
lettuce
 10
0.0
 20
0.0
 30
0.0
 70
   128
 71
   18
 72
   19
 73
   60
  0
VERTEX
  8
lettuce
 10
0.0
 20
0.0
 30
0.0
 70
   128
 71
   19
 72
   20
 73
   61
  0
VERTEX
  8
lettuce
 10
0.0
 20
0.0
 30
0.0
 70
   128
 71
   20
 72
   21
 73
   62
  0
VERTEX
  8
lettuce
 10
0.0
 20
0.0
 30
0.0
 70
   128
 71
   21
 72
   22
 73
   63
  0
VERTEX
  8
lettuce
 10
0.0
 20
0.0
 30
0.0
 70
   128
 71
   22
 72
   23
 73
   64
  0
VERTEX
  8
lettuce
 10
0.0
 20
0.0
 30
0.0
 70
   128
 71
   23
 72
   24
 73
   65
  0
VERTEX
  8
lettuce
 10
0.0
 20
0.0
 30
0.0
 70
   128
 71
   24
 72
   25
 73
   66
  0
VERTEX
  8
lettuce
 10
0.0
 20
0.0
 30
0.0
 70
   128
 71
   25
 72
   26
 73
   67
  0
VERTEX
  8
lettuce
 10
0.0
 20
0.0
 30
0.0
 70
   128
 71
   26
 72
   27
 73
   68
  0
VERTEX
  8
lettuce
 10
0.0
 20
0.0
 30
0.0
 70
   128
 71
   27
 72
   28
 73
   69
  0
VERTEX
  8
lettuce
 10
0.0
 20
0.0
 30
0.0
 70
   128
 71
   28
 72
   29
 73
   70
  0
VERTEX
  8
lettuce
 10
0.0
 20
0.0
 30
0.0
 70
   128
 71
   29
 72
   30
 73
   71
  0
VERTEX
  8
lettuce
 10
0.0
 20
0.0
 30
0.0
 70
   128
 71
   30
 72
   31
 73
   72
  0
VERTEX
  8
lettuce
 10
0.0
 20
0.0
 30
0.0
 70
   128
 71
   31
 72
   32
 73
   73
  0
VERTEX
  8
lettuce
 10
0.0
 20
0.0
 30
0.0
 70
   128
 71
   32
 72
   33
 73
   74
  0
VERTEX
  8
lettuce
 10
0.0
 20
0.0
 30
0.0
 70
   128
 71
   33
 72
   34
 73
   75
  0
VERTEX
  8
lettuce
 10
0.0
 20
0.0
 30
0.0
 70
   128
 71
   34
 72
   35
 73
   76
  0
VERTEX
  8
lettuce
 10
0.0
 20
0.0
 30
0.0
 70
   128
 71
   35
 72
   36
 73
   77
  0
VERTEX
  8
lettuce
 10
0.0
 20
0.0
 30
0.0
 70
   128
 71
   36
 72
   37
 73
   78
  0
VERTEX
  8
lettuce
 10
0.0
 20
0.0
 30
0.0
 70
   128
 71
   37
 72
   38
 73
   79
  0
VERTEX
  8
lettuce
 10
0.0
 20
0.0
 30
0.0
 70
   128
 71
   38
 72
   39
 73
   80
  0
VERTEX
  8
lettuce
 10
0.0
 20
0.0
 30
0.0
 70
   128
 71
   39
 72
   40
 73
   81
  0
VERTEX
  8
lettuce
 10
0.0
 20
0.0
 30
0.0
 70
   128
 71
   40
 72
   41
 73
   82
  0
VERTEX
  8
lettuce
 10
0.0
 20
0.0
 30
0.0
 70
   128
 71
   41
 72
   1
 73
   42
  0
VERTEX
  8
lettuce
 10
0.0
 20
0.0
 30
0.0
 70
   128
 71
   3
 72
   1
 73
   5
  0
VERTEX
  8
lettuce
 10
0.0
 20
0.0
 30
0.0
 70
   128
 71
   1
 72
   41
 73
   39
  0
VERTEX
  8
lettuce
 10
0.0
 20
0.0
 30
0.0
 70
   128
 71
   1
 72
   3
 73
   2
  0
VERTEX
  8
lettuce
 10
0.0
 20
0.0
 30
0.0
 70
   128
 71
   42
 72
   43
 73
   44
  0
VERTEX
  8
lettuce
 10
0.0
 20
0.0
 30
0.0
 70
   128
 71
   46
 72
   42
 73
   44
  0
VERTEX
  8
lettuce
 10
0.0
 20
0.0
 30
0.0
 70
   128
 71
   41
 72
   40
 73
   39
  0
VERTEX
  8
lettuce
 10
0.0
 20
0.0
 30
0.0
 70
   128
 71
   5
 72
   39
 73
   34
  0
VERTEX
  8
lettuce
 10
0.0
 20
0.0
 30
0.0
 70
   128
 71
   34
 72
   39
 73
   38
  0
VERTEX
  8
lettuce
 10
0.0
 20
0.0
 30
0.0
 70
   128
 71
   35
 72
   38
 73
   37
  0
VERTEX
  8
lettuce
 10
0.0
 20
0.0
 30
0.0
 70
   128
 71
   6
 72
   34
 73
   24
  0
VERTEX
  8
lettuce
 10
0.0
 20
0.0
 30
0.0
 70
   128
 71
   75
 72
   80
 73
   46
  0
VERTEX
  8
lettuce
 10
0.0
 20
0.0
 30
0.0
 70
   128
 71
   65
 72
   75
 73
   47
  0
VERTEX
  8
lettuce
 10
0.0
 20
0.0
 30
0.0
 70
   128
 71
   47
 72
   48
 73
   51
  0
VERTEX
  8
lettuce
 10
0.0
 20
0.0
 30
0.0
 70
   128
 71
   34
 72
   33
 73
   30
  0
VERTEX
  8
lettuce
 10
0.0
 20
0.0
 30
0.0
 70
   128
 71
   24
 72
   34
 73
   29
  0
VERTEX
  8
lettuce
 10
0.0
 20
0.0
 30
0.0
 70
   128
 71
   30
 72
   33
 73
   32
  0
VERTEX
  8
lettuce
 10
0.0
 20
0.0
 30
0.0
 70
   128
 71
   29
 72
   28
 73
   27
  0
VERTEX
  8
lettuce
 10
0.0
 20
0.0
 30
0.0
 70
   128
 71
   29
 72
   27
 73
   26
  0
VERTEX
  8
lettuce
 10
0.0
 20
0.0
 30
0.0
 70
   128
 71
   19
 72
   24
 73
   23
  0
VERTEX
  8
lettuce
 10
0.0
 20
0.0
 30
0.0
 70
   128
 71
   24
 72
   19
 73
   12
  0
VERTEX
  8
lettuce
 10
0.0
 20
0.0
 30
0.0
 70
   128
 71
   48
 72
   49
 73
   50
  0
VERTEX
  8
lettuce
 10
0.0
 20
0.0
 30
0.0
 70
   128
 71
   65
 72
   52
 73
   53
  0
VERTEX
  8
lettuce
 10
0.0
 20
0.0
 30
0.0
 70
   128
 71
   53
 72
   54
 73
   57
  0
VERTEX
  8
lettuce
 10
0.0
 20
0.0
 30
0.0
 70
   128
 71
   23
 72
   22
 73
   21
  0
VERTEX
  8
lettuce
 10
0.0
 20
0.0
 30
0.0
 70
   128
 71
   12
 72
   19
 73
   18
  0
VERTEX
  8
lettuce
 10
0.0
 20
0.0
 30
0.0
 70
   128
 71
   12
 72
   17
 73
   16
  0
VERTEX
  8
lettuce
 10
0.0
 20
0.0
 30
0.0
 70
   128
 71
   13
 72
   16
 73
   15
  0
VERTEX
  8
lettuce
 10
0.0
 20
0.0
 30
0.0
 70
   128
 71
   6
 72
   11
 73
   10
  0
VERTEX
  8
lettuce
 10
0.0
 20
0.0
 30
0.0
 70
   128
 71
   7
 72
   10
 73
   9
  0
VERTEX
  8
lettuce
 10
0.0
 20
0.0
 30
0.0
 70
   128
 71
   53
 72
   58
 73
   59
  0
VERTEX
  8
lettuce
 10
0.0
 20
0.0
 30
0.0
 70
   128
 71
   54
 72
   55
 73
   56
  0
VERTEX
  8
lettuce
 10
0.0
 20
0.0
 30
0.0
 70
   128
 71
   60
 72
   61
 73
   64
  0
VERTEX
  8
lettuce
 10
0.0
 20
0.0
 30
0.0
 70
   128
 71
   64
 72
   61
 73
   62
  0
VERTEX
  8
lettuce
 10
0.0
 20
0.0
 30
0.0
 70
   128
 71
   65
 72
   66
 73
   70
  0
VERTEX
  8
lettuce
 10
0.0
 20
0.0
 30
0.0
 70
   128
 71
   70
 72
   66
 73
   67
  0
VERTEX
  8
lettuce
 10
0.0
 20
0.0
 30
0.0
 70
   128
 71
   68
 72
   69
 73
   70
  0
VERTEX
  8
lettuce
 10
0.0
 20
0.0
 30
0.0
 70
   128
 71
   75
 72
   70
 73
   71
  0
VERTEX
  8
lettuce
 10
0.0
 20
0.0
 30
0.0
 70
   128
 71
   71
 72
   72
 73
   73
  0
VERTEX
  8
lettuce
 10
0.0
 20
0.0
 30
0.0
 70
   128
 71
   75
 72
   76
 73
   79
  0
VERTEX
  8
lettuce
 10
0.0
 20
0.0
 30
0.0
 70
   128
 71
   76
 72
   77
 73
   78
  0
VERTEX
  8
lettuce
 10
0.0
 20
0.0
 30
0.0
 70
   128
 71
   80
 72
   82
 73
   42
  0
VERTEX
  8
lettuce
 10
0.0
 20
0.0
 30
0.0
 70
   128
 71
   80
 72
   81
 73
   82
  0
VERTEX
  8
lettuce
 10
0.0
 20
0.0
 30
0.0
 70
   128
 71
   1
 72
   43
 73
   42
  0
VERTEX
  8
lettuce
 10
0.0
 20
0.0
 30
0.0
 70
   128
 71
   2
 72
   44
 73
   43
  0
VERTEX
  8
lettuce
 10
0.0
 20
0.0
 30
0.0
 70
   128
 71
   3
 72
   45
 73
   44
  0
VERTEX
  8
lettuce
 10
0.0
 20
0.0
 30
0.0
 70
   128
 71
   4
 72
   46
 73
   45
  0
VERTEX
  8
lettuce
 10
0.0
 20
0.0
 30
0.0
 70
   128
 71
   5
 72
   47
 73
   46
  0
VERTEX
  8
lettuce
 10
0.0
 20
0.0
 30
0.0
 70
   128
 71
   6
 72
   48
 73
   47
  0
VERTEX
  8
lettuce
 10
0.0
 20
0.0
 30
0.0
 70
   128
 71
   7
 72
   49
 73
   48
  0
VERTEX
  8
lettuce
 10
0.0
 20
0.0
 30
0.0
 70
   128
 71
   8
 72
   50
 73
   49
  0
VERTEX
  8
lettuce
 10
0.0
 20
0.0
 30
0.0
 70
   128
 71
   9
 72
   51
 73
   50
  0
VERTEX
  8
lettuce
 10
0.0
 20
0.0
 30
0.0
 70
   128
 71
   10
 72
   52
 73
   51
  0
VERTEX
  8
lettuce
 10
0.0
 20
0.0
 30
0.0
 70
   128
 71
   11
 72
   53
 73
   52
  0
VERTEX
  8
lettuce
 10
0.0
 20
0.0
 30
0.0
 70
   128
 71
   12
 72
   54
 73
   53
  0
VERTEX
  8
lettuce
 10
0.0
 20
0.0
 30
0.0
 70
   128
 71
   13
 72
   55
 73
   54
  0
VERTEX
  8
lettuce
 10
0.0
 20
0.0
 30
0.0
 70
   128
 71
   14
 72
   56
 73
   55
  0
VERTEX
  8
lettuce
 10
0.0
 20
0.0
 30
0.0
 70
   128
 71
   15
 72
   57
 73
   56
  0
VERTEX
  8
lettuce
 10
0.0
 20
0.0
 30
0.0
 70
   128
 71
   16
 72
   58
 73
   57
  0
VERTEX
  8
lettuce
 10
0.0
 20
0.0
 30
0.0
 70
   128
 71
   17
 72
   59
 73
   58
  0
VERTEX
  8
lettuce
 10
0.0
 20
0.0
 30
0.0
 70
   128
 71
   18
 72
   60
 73
   59
  0
VERTEX
  8
lettuce
 10
0.0
 20
0.0
 30
0.0
 70
   128
 71
   19
 72
   61
 73
   60
  0
VERTEX
  8
lettuce
 10
0.0
 20
0.0
 30
0.0
 70
   128
 71
   20
 72
   62
 73
   61
  0
VERTEX
  8
lettuce
 10
0.0
 20
0.0
 30
0.0
 70
   128
 71
   21
 72
   63
 73
   62
  0
VERTEX
  8
lettuce
 10
0.0
 20
0.0
 30
0.0
 70
   128
 71
   22
 72
   64
 73
   63
  0
VERTEX
  8
lettuce
 10
0.0
 20
0.0
 30
0.0
 70
   128
 71
   23
 72
   65
 73
   64
  0
VERTEX
  8
lettuce
 10
0.0
 20
0.0
 30
0.0
 70
   128
 71
   24
 72
   66
 73
   65
  0
VERTEX
  8
lettuce
 10
0.0
 20
0.0
 30
0.0
 70
   128
 71
   25
 72
   67
 73
   66
  0
VERTEX
  8
lettuce
 10
0.0
 20
0.0
 30
0.0
 70
   128
 71
   26
 72
   68
 73
   67
  0
VERTEX
  8
lettuce
 10
0.0
 20
0.0
 30
0.0
 70
   128
 71
   27
 72
   69
 73
   68
  0
VERTEX
  8
lettuce
 10
0.0
 20
0.0
 30
0.0
 70
   128
 71
   28
 72
   70
 73
   69
  0
VERTEX
  8
lettuce
 10
0.0
 20
0.0
 30
0.0
 70
   128
 71
   29
 72
   71
 73
   70
  0
VERTEX
  8
lettuce
 10
0.0
 20
0.0
 30
0.0
 70
   128
 71
   30
 72
   72
 73
   71
  0
VERTEX
  8
lettuce
 10
0.0
 20
0.0
 30
0.0
 70
   128
 71
   31
 72
   73
 73
   72
  0
VERTEX
  8
lettuce
 10
0.0
 20
0.0
 30
0.0
 70
   128
 71
   32
 72
   74
 73
   73
  0
VERTEX
  8
lettuce
 10
0.0
 20
0.0
 30
0.0
 70
   128
 71
   33
 72
   75
 73
   74
  0
VERTEX
  8
lettuce
 10
0.0
 20
0.0
 30
0.0
 70
   128
 71
   34
 72
   76
 73
   75
  0
VERTEX
  8
lettuce
 10
0.0
 20
0.0
 30
0.0
 70
   128
 71
   35
 72
   77
 73
   76
  0
VERTEX
  8
lettuce
 10
0.0
 20
0.0
 30
0.0
 70
   128
 71
   36
 72
   78
 73
   77
  0
VERTEX
  8
lettuce
 10
0.0
 20
0.0
 30
0.0
 70
   128
 71
   37
 72
   79
 73
   78
  0
VERTEX
  8
lettuce
 10
0.0
 20
0.0
 30
0.0
 70
   128
 71
   38
 72
   80
 73
   79
  0
VERTEX
  8
lettuce
 10
0.0
 20
0.0
 30
0.0
 70
   128
 71
   39
 72
   81
 73
   80
  0
VERTEX
  8
lettuce
 10
0.0
 20
0.0
 30
0.0
 70
   128
 71
   40
 72
   82
 73
   81
  0
VERTEX
  8
lettuce
 10
0.0
 20
0.0
 30
0.0
 70
   128
 71
   41
 72
   42
 73
   82
  0
VERTEX
  8
lettuce
 10
0.0
 20
0.0
 30
0.0
 70
   128
 71
   3
 72
   5
 73
   4
  0
VERTEX
  8
lettuce
 10
0.0
 20
0.0
 30
0.0
 70
   128
 71
   1
 72
   39
 73
   5
  0
VERTEX
  8
lettuce
 10
0.0
 20
0.0
 30
0.0
 70
   128
 71
   46
 72
   44
 73
   45
  0
VERTEX
  8
lettuce
 10
0.0
 20
0.0
 30
0.0
 70
   128
 71
   5
 72
   34
 73
   6
  0
VERTEX
  8
lettuce
 10
0.0
 20
0.0
 30
0.0
 70
   128
 71
   34
 72
   38
 73
   35
  0
VERTEX
  8
lettuce
 10
0.0
 20
0.0
 30
0.0
 70
   128
 71
   35
 72
   37
 73
   36
  0
VERTEX
  8
lettuce
 10
0.0
 20
0.0
 30
0.0
 70
   128
 71
   6
 72
   24
 73
   11
  0
VERTEX
  8
lettuce
 10
0.0
 20
0.0
 30
0.0
 70
   128
 71
   75
 72
   46
 73
   47
  0
VERTEX
  8
lettuce
 10
0.0
 20
0.0
 30
0.0
 70
   128
 71
   65
 72
   47
 73
   52
  0
VERTEX
  8
lettuce
 10
0.0
 20
0.0
 30
0.0
 70
   128
 71
   47
 72
   51
 73
   52
  0
VERTEX
  8
lettuce
 10
0.0
 20
0.0
 30
0.0
 70
   128
 71
   34
 72
   30
 73
   29
  0
VERTEX
  8
lettuce
 10
0.0
 20
0.0
 30
0.0
 70
   128
 71
   24
 72
   29
 73
   25
  0
VERTEX
  8
lettuce
 10
0.0
 20
0.0
 30
0.0
 70
   128
 71
   30
 72
   32
 73
   31
  0
VERTEX
  8
lettuce
 10
0.0
 20
0.0
 30
0.0
 70
   128
 71
   29
 72
   26
 73
   25
  0
VERTEX
  8
lettuce
 10
0.0
 20
0.0
 30
0.0
 70
   128
 71
   19
 72
   23
 73
   20
  0
VERTEX
  8
lettuce
 10
0.0
 20
0.0
 30
0.0
 70
   128
 71
   24
 72
   12
 73
   11
  0
VERTEX
  8
lettuce
 10
0.0
 20
0.0
 30
0.0
 70
   128
 71
   48
 72
   50
 73
   51
  0
VERTEX
  8
lettuce
 10
0.0
 20
0.0
 30
0.0
 70
   128
 71
   65
 72
   53
 73
   60
  0
VERTEX
  8
lettuce
 10
0.0
 20
0.0
 30
0.0
 70
   128
 71
   53
 72
   57
 73
   58
  0
VERTEX
  8
lettuce
 10
0.0
 20
0.0
 30
0.0
 70
   128
 71
   23
 72
   21
 73
   20
  0
VERTEX
  8
lettuce
 10
0.0
 20
0.0
 30
0.0
 70
   128
 71
   12
 72
   18
 73
   17
  0
VERTEX
  8
lettuce
 10
0.0
 20
0.0
 30
0.0
 70
   128
 71
   12
 72
   16
 73
   13
  0
VERTEX
  8
lettuce
 10
0.0
 20
0.0
 30
0.0
 70
   128
 71
   13
 72
   15
 73
   14
  0
VERTEX
  8
lettuce
 10
0.0
 20
0.0
 30
0.0
 70
   128
 71
   6
 72
   10
 73
   7
  0
VERTEX
  8
lettuce
 10
0.0
 20
0.0
 30
0.0
 70
   128
 71
   7
 72
   9
 73
   8
  0
VERTEX
  8
lettuce
 10
0.0
 20
0.0
 30
0.0
 70
   128
 71
   53
 72
   59
 73
   60
  0
VERTEX
  8
lettuce
 10
0.0
 20
0.0
 30
0.0
 70
   128
 71
   54
 72
   56
 73
   57
  0
VERTEX
  8
lettuce
 10
0.0
 20
0.0
 30
0.0
 70
   128
 71
   60
 72
   64
 73
   65
  0
VERTEX
  8
lettuce
 10
0.0
 20
0.0
 30
0.0
 70
   128
 71
   64
 72
   62
 73
   63
  0
VERTEX
  8
lettuce
 10
0.0
 20
0.0
 30
0.0
 70
   128
 71
   65
 72
   70
 73
   75
  0
VERTEX
  8
lettuce
 10
0.0
 20
0.0
 30
0.0
 70
   128
 71
   70
 72
   67
 73
   68
  0
VERTEX
  8
lettuce
 10
0.0
 20
0.0
 30
0.0
 70
   128
 71
   75
 72
   71
 73
   74
  0
VERTEX
  8
lettuce
 10
0.0
 20
0.0
 30
0.0
 70
   128
 71
   71
 72
   73
 73
   74
  0
VERTEX
  8
lettuce
 10
0.0
 20
0.0
 30
0.0
 70
   128
 71
   75
 72
   79
 73
   80
  0
VERTEX
  8
lettuce
 10
0.0
 20
0.0
 30
0.0
 70
   128
 71
   76
 72
   78
 73
   79
  0
VERTEX
  8
lettuce
 10
0.0
 20
0.0
 30
0.0
 70
   128
 71
   80
 72
   42
 73
   46
  0
SEQEND
  0
POLYLINE
  8
cheese
 66
   1
 10
0.0
 20
0.0
 30
0.0
 70
   64
 71
   97
 72
   190
  0
VERTEX
  8
cheese
 10
5.786127
 20
48.811256
 30
85.568414
 70
   192
  0
VERTEX
  8
cheese
 10
5.683818
 20
59.531248
 30
86.187893
 70
   192
  0
VERTEX
  8
cheese
 10
139.766294
 20
53.921561
 30
8.260439
 70
   192
  0
VERTEX
  8
cheese
 10
140.038072
 20
64.458334
 30
8.288675
 70
   192
  0
VERTEX
  8
cheese
 10
56.070505
 20
49.702159
 30
-135.753762
 70
   192
  0
VERTEX
  8
cheese
 10
56.024850
 20
60.550084
 30
-136.332306
 70
   192
  0
VERTEX
  8
cheese
 10
-78.121643
 20
58.025203
 30
-58.400423
 70
   192
  0
VERTEX
  8
cheese
 10
-78.209410
 20
68.693477
 30
-58.394534
 70
   192
  0
VERTEX
  8
cheese
 10
39.204673
 20
61.081552
 30
66.579597
 70
   192
  0
VERTEX
  8
cheese
 10
39.273106
 20
70.026252
 30
66.798656
 70
   192
  0
VERTEX
  8
cheese
 10
-44.612021
 20
61.385333
 30
-77.894098
 70
   192
  0
VERTEX
  8
cheese
 10
-44.581377
 20
70.569379
 30
-77.834661
 70
   192
  0
VERTEX
  8
cheese
 10
72.780552
 20
64.030608
 30
47.164198
 70
   192
  0
VERTEX
  8
cheese
 10
72.849783
 20
71.898965
 30
47.287403
 70
   192
  0
VERTEX
  8
cheese
 10
-11.035480
 20
62.353220
 30
-97.361112
 70
   192
  0
VERTEX
  8
cheese
 10
-11.015056
 20
70.350255
 30
-97.324084
 70
   192
  0
VERTEX
  8
cheese
 10
106.338477
 20
61.242194
 30
27.713096
 70
   192
  0
VERTEX
  8
cheese
 10
106.434936
 20
70.535221
 30
27.791408
 70
   192
  0
VERTEX
  8
cheese
 10
22.539946
 20
60.888506
 30
-116.810712
 70
   192
  0
VERTEX
  8
cheese
 10
22.558263
 20
70.003957
 30
-116.820259
 70
   192
  0
VERTEX
  8
cheese
 10
-15.264492
 20
61.512494
 30
49.982979
 70
   192
  0
VERTEX
  8
cheese
 10
-15.299034
 20
70.627850
 30
50.055408
 70
   192
  0
VERTEX
  8
cheese
 10
118.966726
 20
61.089124
 30
-27.897777
 70
   192
  0
VERTEX
  8
cheese
 10
119.030052
 20
70.467436
 30
-27.812801
 70
   192
  0
VERTEX
  8
cheese
 10
18.259066
 20
64.314306
 30
30.479233
 70
   192
  0
VERTEX
  8
cheese
 10
18.292766
 20
69.731437
 30
30.605649
 70
   192
  0
VERTEX
  8
cheese
 10
51.835526
 20
63.835289
 30
11.031708
 70
   192
  0
VERTEX
  8
cheese
 10
51.879060
 20
69.724176
 30
11.138686
 70
   192
  0
VERTEX
  8
cheese
 10
85.407488
 20
64.305133
 30
-8.423734
 70
   192
  0
VERTEX
  8
cheese
 10
85.450500
 20
69.671728
 30
-8.356828
 70
   192
  0
VERTEX
  8
cheese
 10
98.023891
 20
62.938400
 30
-63.996062
 70
   192
  0
VERTEX
  8
cheese
 10
98.060248
 20
71.128586
 30
-63.989384
 70
   192
  0
VERTEX
  8
cheese
 10
-36.280440
 20
62.423091
 30
13.904995
 70
   192
  0
VERTEX
  8
cheese
 10
-36.254169
 20
70.399381
 30
13.884622
 70
   192
  0
VERTEX
  8
cheese
 10
-2.714063
 20
63.761508
 30
-5.629499
 70
   192
  0
VERTEX
  8
cheese
 10
-2.662665
 20
69.459646
 30
-5.546024
 70
   192
  0
VERTEX
  8
cheese
 10
30.870284
 20
63.808079
 30
-25.081490
 70
   192
  0
VERTEX
  8
cheese
 10
-52.017168
 20
69.450385
 30
-51.105420
 70
   192
  0
VERTEX
  8
cheese
 10
64.446427
 20
63.802928
 30
-44.552091
 70
   192
  0
VERTEX
  8
cheese
 10
64.482478
 20
69.631606
 30
-44.504193
 70
   192
  0
VERTEX
  8
cheese
 10
77.071402
 20
61.227685
 30
-100.109815
 70
   192
  0
VERTEX
  8
cheese
 10
77.093343
 20
70.422643
 30
-100.160819
 70
   192
  0
VERTEX
  8
cheese
 10
-57.218394
 20
60.705301
 30
-22.243559
 70
   192
  0
VERTEX
  8
cheese
 10
-57.208848
 20
69.969095
 30
-22.265801
 70
   192
  0
VERTEX
  8
cheese
 10
-23.659284
 20
64.251953
 30
-41.755441
 70
   192
  0
VERTEX
  8
cheese
 10
-23.613521
 20
69.497511
 30
-41.707840
 70
   192
  0
VERTEX
  8
cheese
 10
9.908970
 20
63.658998
 30
-61.221400
 70
   192
  0
VERTEX
  8
cheese
 10
9.947293
 20
69.409937
 30
-61.168348
 70
   192
  0
VERTEX
  8
cheese
 10
43.486447
 20
64.383815
 30
-80.658626
 70
   192
  0
VERTEX
  8
cheese
 10
43.526443
 20
69.622485
 30
-80.669623
 70
   192
  0
VERTEX
  8
cheese
 10
-6.098655
 20
59.591733
 30
65.764257
 70
   192
  0
VERTEX
  8
cheese
 10
-5.982549
 20
69.465562
 30
66.148139
 70
   192
  0
VERTEX
  8
cheese
 10
128.196941
 20
59.044198
 30
-11.945889
 70
   192
  0
VERTEX
  8
cheese
 10
128.291782
 20
68.262205
 30
-11.879644
 70
   192
  0
VERTEX
  8
cheese
 10
27.504439
 20
63.870894
 30
46.395203
 70
   192
  0
VERTEX
  8
cheese
 10
27.557341
 20
69.819411
 30
46.587624
 70
   192
  0
VERTEX
  8
cheese
 10
61.083458
 20
64.850815
 30
26.970122
 70
   192
  0
VERTEX
  8
cheese
 10
61.122188
 20
70.136462
 30
27.083431
 70
   192
  0
VERTEX
  8
cheese
 10
94.648013
 20
63.930065
 30
7.510709
 70
   192
  0
VERTEX
  8
cheese
 10
94.701979
 20
69.626340
 30
7.592492
 70
   192
  0
VERTEX
  8
cheese
 10
65.959313
 20
59.607844
 30
-119.333803
 70
   192
  0
VERTEX
  8
cheese
 10
65.722212
 20
69.515102
 30
-119.672247
 70
   192
  0
VERTEX
  8
cheese
 10
-68.445018
 20
60.140383
 30
-41.621827
 70
   192
  0
VERTEX
  8
cheese
 10
-68.440521
 20
69.746928
 30
-41.638243
 70
   192
  0
VERTEX
  8
cheese
 10
-34.889589
 20
63.773149
 30
-61.122326
 70
   192
  0
VERTEX
  8
cheese
 10
-34.856520
 20
69.585203
 30
-61.064080
 70
   192
  0
VERTEX
  8
cheese
 10
-1.315650
 20
64.340024
 30
-80.587477
 70
   192
  0
VERTEX
  8
cheese
 10
-1.276098
 20
69.655550
 30
-80.557639
 70
   192
  0
VERTEX
  8
cheese
 10
32.259303
 20
63.839549
 30
-100.015102
 70
   192
  0
VERTEX
  8
cheese
 10
32.276591
 20
69.653387
 30
-100.046180
 70
   192
  0
VERTEX
  8
cheese
 10
122.585228
 20
59.225489
 30
18.301155
 70
   192
  0
VERTEX
  8
cheese
 10
122.793522
 20
68.947886
 30
18.280829
 70
   192
  0
VERTEX
  8
cheese
 10
38.902508
 20
60.007311
 30
-126.183602
 70
   192
  0
VERTEX
  8
cheese
 10
38.868306
 20
69.892300
 30
-126.290943
 70
   192
  0
VERTEX
  8
cheese
 10
101.708764
 20
63.921851
 30
-17.871345
 70
   192
  0
VERTEX
  8
cheese
 10
101.765854
 20
69.534513
 30
-17.825153
 70
   192
  0
VERTEX
  8
cheese
 10
80.757858
 20
64.644688
 30
-53.990765
 70
   192
  0
VERTEX
  8
cheese
 10
80.787522
 20
70.040752
 30
-53.968319
 70
   192
  0
VERTEX
  8
cheese
 10
59.794129
 20
63.816766
 30
-90.098052
 70
   192
  0
VERTEX
  8
cheese
 10
59.824677
 20
69.743912
 30
-90.116581
 70
   192
  0
VERTEX
  8
cheese
 10
110.938178
 20
62.824932
 30
-1.936423
 70
   192
  0
VERTEX
  8
cheese
 10
111.024201
 20
69.316766
 30
-1.876825
 70
   192
  0
VERTEX
  8
cheese
 10
48.585412
 20
62.206327
 30
-109.420141
 70
   192
  0
VERTEX
  8
cheese
 10
48.582898
 20
69.597178
 30
-109.521188
 70
   192
  0
VERTEX
  8
cheese
 10
22.166201
 20
59.211479
 30
76.466200
 70
   192
  0
VERTEX
  8
cheese
 10
21.928094
 20
69.132511
 30
76.827095
 70
   192
  0
VERTEX
  8
cheese
 10
-61.763328
 20
60.208764
 30
-67.948610
 70
   192
  0
VERTEX
  8
cheese
 10
-61.775432
 20
69.791169
 30
-67.856800
 70
   192
  0
VERTEX
  8
cheese
 10
1.093431
 20
63.878857
 30
40.436066
 70
   192
  0
VERTEX
  8
cheese
 10
1.108266
 20
69.730787
 30
40.583511
 70
   192
  0
VERTEX
  8
cheese
 10
-19.891957
 20
64.502902
 30
4.343635
 70
   192
  0
VERTEX
  8
cheese
 10
-19.841438
 20
69.764618
 30
4.411712
 70
   192
  0
VERTEX
  8
cheese
 10
-40.840486
 20
63.717442
 30
-31.785789
 70
   192
  0
VERTEX
  8
cheese
 10
-40.792535
 20
69.576262
 30
-31.734835
 70
   192
  0
VERTEX
  8
cheese
 10
10.347141
 20
62.531818
 30
56.317996
 70
   192
  0
VERTEX
  8
cheese
 10
10.361970
 20
69.649538
 30
56.569380
 70
   192
  0
VERTEX
  8
cheese
 10
-52.057111
 20
62.339688
 30
-51.152260
 70
   192
  0
VERTEX
  8
cheese
 10
0.0
 20
0.0
 30
0.0
 70
   128
 71
   72
 72
   4
 73
   3
  0
VERTEX
  8
cheese
 10
0.0
 20
0.0
 30
0.0
 70
   128
 71
   62
 72
   6
 73
   5
  0
VERTEX
  8
cheese
 10
0.0
 20
0.0
 30
0.0
 70
   128
 71
   88
 72
   8
 73
   7
  0
VERTEX
  8
cheese
 10
0.0
 20
0.0
 30
0.0
 70
   128
 71
   52
 72
   2
 73
   1
  0
VERTEX
  8
cheese
 10
0.0
 20
0.0
 30
0.0
 70
   128
 71
   74
 72
   6
 73
   62
  0
VERTEX
  8
cheese
 10
0.0
 20
0.0
 30
0.0
 70
   128
 71
   33
 72
   21
 73
   89
  0
VERTEX
  8
cheese
 10
0.0
 20
0.0
 30
0.0
 70
   128
 71
   85
 72
   1
 73
   2
  0
VERTEX
  8
cheese
 10
0.0
 20
0.0
 30
0.0
 70
   128
 71
   11
 72
   15
 73
   16
  0
VERTEX
  8
cheese
 10
0.0
 20
0.0
 30
0.0
 70
   128
 71
   10
 72
   86
 73
   96
  0
VERTEX
  8
cheese
 10
0.0
 20
0.0
 30
0.0
 70
   128
 71
   67
 72
   15
 73
   11
  0
VERTEX
  8
cheese
 10
0.0
 20
0.0
 30
0.0
 70
   128
 71
   13
 72
   9
 73
   10
  0
VERTEX
  8
cheese
 10
0.0
 20
0.0
 30
0.0
 70
   128
 71
   66
 72
   12
 73
   16
  0
VERTEX
  8
cheese
 10
0.0
 20
0.0
 30
0.0
 70
   128
 71
   15
 72
   19
 73
   20
  0
VERTEX
  8
cheese
 10
0.0
 20
0.0
 30
0.0
 70
   128
 71
   69
 72
   19
 73
   15
  0
VERTEX
  8
cheese
 10
0.0
 20
0.0
 30
0.0
 70
   128
 71
   17
 72
   13
 73
   14
  0
VERTEX
  8
cheese
 10
0.0
 20
0.0
 30
0.0
 70
   128
 71
   68
 72
   16
 73
   20
  0
VERTEX
  8
cheese
 10
0.0
 20
0.0
 30
0.0
 70
   128
 71
   19
 72
   73
 73
   74
  0
VERTEX
  8
cheese
 10
0.0
 20
0.0
 30
0.0
 70
   128
 71
   23
 72
   31
 73
   77
  0
VERTEX
  8
cheese
 10
0.0
 20
0.0
 30
0.0
 70
   128
 71
   23
 72
   53
 73
   54
  0
VERTEX
  8
cheese
 10
0.0
 20
0.0
 30
0.0
 70
   128
 71
   21
 72
   33
 73
   34
  0
VERTEX
  8
cheese
 10
0.0
 20
0.0
 30
0.0
 70
   128
 71
   82
 72
   60
 73
   30
  0
VERTEX
  8
cheese
 10
0.0
 20
0.0
 30
0.0
 70
   128
 71
   95
 72
   55
 73
   25
  0
VERTEX
  8
cheese
 10
0.0
 20
0.0
 30
0.0
 70
   128
 71
   92
 72
   36
 73
   26
  0
VERTEX
  8
cheese
 10
0.0
 20
0.0
 30
0.0
 70
   128
 71
   25
 72
   55
 73
   57
  0
VERTEX
  8
cheese
 10
0.0
 20
0.0
 30
0.0
 70
   128
 71
   28
 72
   58
 73
   56
  0
VERTEX
  8
cheese
 10
0.0
 20
0.0
 30
0.0
 70
   128
 71
   57
 72
   13
 73
   17
  0
VERTEX
  8
cheese
 10
0.0
 20
0.0
 30
0.0
 70
   128
 71
   30
 72
   60
 73
   58
  0
VERTEX
  8
cheese
 10
0.0
 20
0.0
 30
0.0
 70
   128
 71
   71
 72
   3
 73
   53
  0
VERTEX
  8
cheese
 10
0.0
 20
0.0
 30
0.0
 70
   128
 71
   31
 72
   23
 73
   24
  0
VERTEX
  8
cheese
 10
0.0
 20
0.0
 30
0.0
 70
   128
 71
   76
 72
   30
 73
   40
  0
VERTEX
  8
cheese
 10
0.0
 20
0.0
 30
0.0
 70
   128
 71
   87
 72
   7
 73
   63
  0
VERTEX
  8
cheese
 10
0.0
 20
0.0
 30
0.0
 70
   128
 71
   35
 72
   25
 73
   27
  0
VERTEX
  8
cheese
 10
0.0
 20
0.0
 30
0.0
 70
   128
 71
   36
 72
   48
 73
   40
  0
VERTEX
  8
cheese
 10
0.0
 20
0.0
 30
0.0
 70
   128
 71
   37
 72
   27
 73
   29
  0
VERTEX
  8
cheese
 10
0.0
 20
0.0
 30
0.0
 70
   128
 71
   40
 72
   48
 73
   50
  0
VERTEX
  8
cheese
 10
0.0
 20
0.0
 30
0.0
 70
   128
 71
   31
 72
   41
 73
   79
  0
VERTEX
  8
cheese
 10
0.0
 20
0.0
 30
0.0
 70
   128
 71
   33
 72
   43
 73
   44
  0
VERTEX
  8
cheese
 10
0.0
 20
0.0
 30
0.0
 70
   128
 71
   94
 72
   46
 73
   36
  0
VERTEX
  8
cheese
 10
0.0
 20
0.0
 30
0.0
 70
   128
 71
   41
 72
   31
 73
   32
  0
VERTEX
  8
cheese
 10
0.0
 20
0.0
 30
0.0
 70
   128
 71
   78
 72
   40
 73
   50
  0
VERTEX
  8
cheese
 10
0.0
 20
0.0
 30
0.0
 70
   128
 71
   45
 72
   35
 73
   37
  0
VERTEX
  8
cheese
 10
0.0
 20
0.0
 30
0.0
 70
   128
 71
   40
 72
   30
 73
   28
  0
VERTEX
  8
cheese
 10
0.0
 20
0.0
 30
0.0
 70
   128
 71
   47
 72
   37
 73
   39
  0
VERTEX
  8
cheese
 10
0.0
 20
0.0
 30
0.0
 70
   128
 71
   28
 72
   26
 73
   36
  0
VERTEX
  8
cheese
 10
0.0
 20
0.0
 30
0.0
 70
   128
 71
   43
 72
   33
 73
   91
  0
VERTEX
  8
cheese
 10
0.0
 20
0.0
 30
0.0
 70
   128
 71
   41
 72
   61
 73
   83
  0
VERTEX
  8
cheese
 10
0.0
 20
0.0
 30
0.0
 70
   128
 71
   43
 72
   63
 73
   64
  0
VERTEX
  8
cheese
 10
0.0
 20
0.0
 30
0.0
 70
   128
 71
   38
 72
   66
 73
   46
  0
VERTEX
  8
cheese
 10
0.0
 20
0.0
 30
0.0
 70
   128
 71
   51
 72
   21
 73
   22
  0
VERTEX
  8
cheese
 10
0.0
 20
0.0
 30
0.0
 70
   128
 71
   90
 72
   26
 73
   56
  0
VERTEX
  8
cheese
 10
0.0
 20
0.0
 30
0.0
 70
   128
 71
   53
 72
   3
 73
   4
  0
VERTEX
  8
cheese
 10
0.0
 20
0.0
 30
0.0
 70
   128
 71
   72
 72
   18
 73
   60
  0
VERTEX
  8
cheese
 10
0.0
 20
0.0
 30
0.0
 70
   128
 71
   51
 72
   1
 73
   85
  0
VERTEX
  8
cheese
 10
0.0
 20
0.0
 30
0.0
 70
   128
 71
   55
 72
   9
 73
   13
  0
VERTEX
  8
cheese
 10
0.0
 20
0.0
 30
0.0
 70
   128
 71
   58
 72
   14
 73
   10
  0
VERTEX
  8
cheese
 10
0.0
 20
0.0
 30
0.0
 70
   128
 71
   59
 72
   29
 73
   27
  0
VERTEX
  8
cheese
 10
0.0
 20
0.0
 30
0.0
 70
   128
 71
   60
 72
   18
 73
   14
  0
VERTEX
  8
cheese
 10
0.0
 20
0.0
 30
0.0
 70
   128
 71
   53
 72
   23
 73
   75
  0
VERTEX
  8
cheese
 10
0.0
 20
0.0
 30
0.0
 70
   128
 71
   61
 72
   41
 73
   42
  0
VERTEX
  8
cheese
 10
0.0
 20
0.0
 30
0.0
 70
   128
 71
   80
 72
   50
 73
   70
  0
VERTEX
  8
cheese
 10
0.0
 20
0.0
 30
0.0
 70
   128
 71
   65
 72
   45
 73
   47
  0
VERTEX
  8
cheese
 10
0.0
 20
0.0
 30
0.0
 70
   128
 71
   68
 72
   48
 73
   46
  0
VERTEX
  8
cheese
 10
0.0
 20
0.0
 30
0.0
 70
   128
 71
   67
 72
   47
 73
   49
  0
VERTEX
  8
cheese
 10
0.0
 20
0.0
 30
0.0
 70
   128
 71
   70
 72
   50
 73
   48
  0
VERTEX
  8
cheese
 10
0.0
 20
0.0
 30
0.0
 70
   128
 71
   93
 72
   45
 73
   65
  0
VERTEX
  8
cheese
 10
0.0
 20
0.0
 30
0.0
 70
   128
 71
   61
 72
   5
 73
   73
  0
VERTEX
  8
cheese
 10
0.0
 20
0.0
 30
0.0
 70
   128
 71
   63
 72
   7
 73
   8
  0
VERTEX
  8
cheese
 10
0.0
 20
0.0
 30
0.0
 70
   128
 71
   64
 72
   8
 73
   88
  0
VERTEX
  8
cheese
 10
0.0
 20
0.0
 30
0.0
 70
   128
 71
   71
 72
   17
 73
   18
  0
VERTEX
  8
cheese
 10
0.0
 20
0.0
 30
0.0
 70
   128
 71
   84
 72
   70
 73
   20
  0
VERTEX
  8
cheese
 10
0.0
 20
0.0
 30
0.0
 70
   128
 71
   73
 72
   5
 73
   6
  0
VERTEX
  8
cheese
 10
0.0
 20
0.0
 30
0.0
 70
   128
 71
   77
 72
   39
 73
   29
  0
VERTEX
  8
cheese
 10
0.0
 20
0.0
 30
0.0
 70
   128
 71
   76
 72
   24
 73
   54
  0
VERTEX
  8
cheese
 10
0.0
 20
0.0
 30
0.0
 70
   128
 71
   81
 72
   59
 73
   17
  0
VERTEX
  8
cheese
 10
0.0
 20
0.0
 30
0.0
 70
   128
 71
   78
 72
   32
 73
   24
  0
VERTEX
  8
cheese
 10
0.0
 20
0.0
 30
0.0
 70
   128
 71
   79
 72
   49
 73
   39
  0
VERTEX
  8
cheese
 10
0.0
 20
0.0
 30
0.0
 70
   128
 71
   80
 72
   42
 73
   32
  0
VERTEX
  8
cheese
 10
0.0
 20
0.0
 30
0.0
 70
   128
 71
   83
 72
   69
 73
   49
  0
VERTEX
  8
cheese
 10
0.0
 20
0.0
 30
0.0
 70
   128
 71
   82
 72
   54
 73
   4
  0
VERTEX
  8
cheese
 10
0.0
 20
0.0
 30
0.0
 70
   128
 71
   75
 72
   29
 73
   59
  0
VERTEX
  8
cheese
 10
0.0
 20
0.0
 30
0.0
 70
   128
 71
   84
 72
   62
 73
   42
  0
VERTEX
  8
cheese
 10
0.0
 20
0.0
 30
0.0
 70
   128
 71
   73
 72
   19
 73
   69
  0
VERTEX
  8
cheese
 10
0.0
 20
0.0
 30
0.0
 70
   128
 71
   87
 72
   11
 73
   12
  0
VERTEX
  8
cheese
 10
0.0
 20
0.0
 30
0.0
 70
   128
 71
   89
 72
   25
 73
   35
  0
VERTEX
  8
cheese
 10
0.0
 20
0.0
 30
0.0
 70
   128
 71
   86
 72
   10
 73
   9
  0
VERTEX
  8
cheese
 10
0.0
 20
0.0
 30
0.0
 70
   128
 71
   86
 72
   2
 73
   52
  0
VERTEX
  8
cheese
 10
0.0
 20
0.0
 30
0.0
 70
   128
 71
   89
 72
   21
 73
   51
  0
VERTEX
  8
cheese
 10
0.0
 20
0.0
 30
0.0
 70
   128
 71
   90
 72
   22
 73
   34
  0
VERTEX
  8
cheese
 10
0.0
 20
0.0
 30
0.0
 70
   128
 71
   97
 72
   65
 73
   11
  0
VERTEX
  8
cheese
 10
0.0
 20
0.0
 30
0.0
 70
   128
 71
   92
 72
   34
 73
   44
  0
VERTEX
  8
cheese
 10
0.0
 20
0.0
 30
0.0
 70
   128
 71
   91
 72
   35
 73
   45
  0
VERTEX
  8
cheese
 10
0.0
 20
0.0
 30
0.0
 70
   128
 71
   94
 72
   44
 73
   64
  0
VERTEX
  8
cheese
 10
0.0
 20
0.0
 30
0.0
 70
   128
 71
   96
 72
   52
 73
   22
  0
VERTEX
  8
cheese
 10
0.0
 20
0.0
 30
0.0
 70
   128
 71
   85
 72
   9
 73
   55
  0
VERTEX
  8
cheese
 10
0.0
 20
0.0
 30
0.0
 70
   128
 71
   97
 72
   63
 73
   43
  0
VERTEX
  8
cheese
 10
0.0
 20
0.0
 30
0.0
 70
   128
 71
   88
 72
   12
 73
   66
  0
VERTEX
  8
cheese
 10
0.0
 20
0.0
 30
0.0
 70
   128
 71
   36
 72
   46
 73
   48
  0
VERTEX
  8
cheese
 10
0.0
 20
0.0
 30
0.0
 70
   128
 71
   72
 72
   3
 73
   71
  0
VERTEX
  8
cheese
 10
0.0
 20
0.0
 30
0.0
 70
   128
 71
   62
 72
   5
 73
   61
  0
VERTEX
  8
cheese
 10
0.0
 20
0.0
 30
0.0
 70
   128
 71
   88
 72
   7
 73
   87
  0
VERTEX
  8
cheese
 10
0.0
 20
0.0
 30
0.0
 70
   128
 71
   52
 72
   1
 73
   51
  0
VERTEX
  8
cheese
 10
0.0
 20
0.0
 30
0.0
 70
   128
 71
   74
 72
   62
 73
   84
  0
VERTEX
  8
cheese
 10
0.0
 20
0.0
 30
0.0
 70
   128
 71
   33
 72
   89
 73
   91
  0
VERTEX
  8
cheese
 10
0.0
 20
0.0
 30
0.0
 70
   128
 71
   85
 72
   2
 73
   86
  0
VERTEX
  8
cheese
 10
0.0
 20
0.0
 30
0.0
 70
   128
 71
   11
 72
   16
 73
   12
  0
VERTEX
  8
cheese
 10
0.0
 20
0.0
 30
0.0
 70
   128
 71
   10
 72
   96
 73
   56
  0
VERTEX
  8
cheese
 10
0.0
 20
0.0
 30
0.0
 70
   128
 71
   67
 72
   11
 73
   65
  0
VERTEX
  8
cheese
 10
0.0
 20
0.0
 30
0.0
 70
   128
 71
   13
 72
   10
 73
   14
  0
VERTEX
  8
cheese
 10
0.0
 20
0.0
 30
0.0
 70
   128
 71
   66
 72
   16
 73
   68
  0
VERTEX
  8
cheese
 10
0.0
 20
0.0
 30
0.0
 70
   128
 71
   15
 72
   20
 73
   16
  0
VERTEX
  8
cheese
 10
0.0
 20
0.0
 30
0.0
 70
   128
 71
   69
 72
   15
 73
   67
  0
VERTEX
  8
cheese
 10
0.0
 20
0.0
 30
0.0
 70
   128
 71
   17
 72
   14
 73
   18
  0
VERTEX
  8
cheese
 10
0.0
 20
0.0
 30
0.0
 70
   128
 71
   68
 72
   20
 73
   70
  0
VERTEX
  8
cheese
 10
0.0
 20
0.0
 30
0.0
 70
   128
 71
   19
 72
   74
 73
   20
  0
VERTEX
  8
cheese
 10
0.0
 20
0.0
 30
0.0
 70
   128
 71
   23
 72
   77
 73
   75
  0
VERTEX
  8
cheese
 10
0.0
 20
0.0
 30
0.0
 70
   128
 71
   23
 72
   54
 73
   24
  0
VERTEX
  8
cheese
 10
0.0
 20
0.0
 30
0.0
 70
   128
 71
   21
 72
   34
 73
   22
  0
VERTEX
  8
cheese
 10
0.0
 20
0.0
 30
0.0
 70
   128
 71
   82
 72
   30
 73
   76
  0
VERTEX
  8
cheese
 10
0.0
 20
0.0
 30
0.0
 70
   128
 71
   95
 72
   25
 73
   89
  0
VERTEX
  8
cheese
 10
0.0
 20
0.0
 30
0.0
 70
   128
 71
   92
 72
   26
 73
   90
  0
VERTEX
  8
cheese
 10
0.0
 20
0.0
 30
0.0
 70
   128
 71
   25
 72
   57
 73
   27
  0
VERTEX
  8
cheese
 10
0.0
 20
0.0
 30
0.0
 70
   128
 71
   28
 72
   56
 73
   26
  0
VERTEX
  8
cheese
 10
0.0
 20
0.0
 30
0.0
 70
   128
 71
   57
 72
   17
 73
   59
  0
VERTEX
  8
cheese
 10
0.0
 20
0.0
 30
0.0
 70
   128
 71
   30
 72
   58
 73
   28
  0
VERTEX
  8
cheese
 10
0.0
 20
0.0
 30
0.0
 70
   128
 71
   71
 72
   53
 73
   81
  0
VERTEX
  8
cheese
 10
0.0
 20
0.0
 30
0.0
 70
   128
 71
   31
 72
   24
 73
   32
  0
VERTEX
  8
cheese
 10
0.0
 20
0.0
 30
0.0
 70
   128
 71
   76
 72
   40
 73
   78
  0
VERTEX
  8
cheese
 10
0.0
 20
0.0
 30
0.0
 70
   128
 71
   87
 72
   63
 73
   97
  0
VERTEX
  8
cheese
 10
0.0
 20
0.0
 30
0.0
 70
   128
 71
   35
 72
   27
 73
   37
  0
VERTEX
  8
cheese
 10
0.0
 20
0.0
 30
0.0
 70
   128
 71
   36
 72
   40
 73
   28
  0
VERTEX
  8
cheese
 10
0.0
 20
0.0
 30
0.0
 70
   128
 71
   37
 72
   29
 73
   39
  0
VERTEX
  8
cheese
 10
0.0
 20
0.0
 30
0.0
 70
   128
 71
   31
 72
   79
 73
   77
  0
VERTEX
  8
cheese
 10
0.0
 20
0.0
 30
0.0
 70
   128
 71
   33
 72
   44
 73
   34
  0
VERTEX
  8
cheese
 10
0.0
 20
0.0
 30
0.0
 70
   128
 71
   94
 72
   36
 73
   92
  0
VERTEX
  8
cheese
 10
0.0
 20
0.0
 30
0.0
 70
   128
 71
   41
 72
   32
 73
   42
  0
VERTEX
  8
cheese
 10
0.0
 20
0.0
 30
0.0
 70
   128
 71
   78
 72
   50
 73
   80
  0
VERTEX
  8
cheese
 10
0.0
 20
0.0
 30
0.0
 70
   128
 71
   45
 72
   37
 73
   47
  0
VERTEX
  8
cheese
 10
0.0
 20
0.0
 30
0.0
 70
   128
 71
   47
 72
   39
 73
   49
  0
VERTEX
  8
cheese
 10
0.0
 20
0.0
 30
0.0
 70
   128
 71
   43
 72
   91
 73
   93
  0
VERTEX
  8
cheese
 10
0.0
 20
0.0
 30
0.0
 70
   128
 71
   41
 72
   83
 73
   79
  0
VERTEX
  8
cheese
 10
0.0
 20
0.0
 30
0.0
 70
   128
 71
   43
 72
   64
 73
   44
  0
VERTEX
  8
cheese
 10
0.0
 20
0.0
 30
0.0
 70
   128
 71
   38
 72
   46
 73
   94
  0
VERTEX
  8
cheese
 10
0.0
 20
0.0
 30
0.0
 70
   128
 71
   51
 72
   22
 73
   52
  0
VERTEX
  8
cheese
 10
0.0
 20
0.0
 30
0.0
 70
   128
 71
   90
 72
   56
 73
   96
  0
VERTEX
  8
cheese
 10
0.0
 20
0.0
 30
0.0
 70
   128
 71
   53
 72
   4
 73
   54
  0
VERTEX
  8
cheese
 10
0.0
 20
0.0
 30
0.0
 70
   128
 71
   72
 72
   60
 73
   82
  0
VERTEX
  8
cheese
 10
0.0
 20
0.0
 30
0.0
 70
   128
 71
   51
 72
   85
 73
   95
  0
VERTEX
  8
cheese
 10
0.0
 20
0.0
 30
0.0
 70
   128
 71
   55
 72
   13
 73
   57
  0
VERTEX
  8
cheese
 10
0.0
 20
0.0
 30
0.0
 70
   128
 71
   58
 72
   10
 73
   56
  0
VERTEX
  8
cheese
 10
0.0
 20
0.0
 30
0.0
 70
   128
 71
   59
 72
   27
 73
   57
  0
VERTEX
  8
cheese
 10
0.0
 20
0.0
 30
0.0
 70
   128
 71
   60
 72
   14
 73
   58
  0
VERTEX
  8
cheese
 10
0.0
 20
0.0
 30
0.0
 70
   128
 71
   53
 72
   75
 73
   81
  0
VERTEX
  8
cheese
 10
0.0
 20
0.0
 30
0.0
 70
   128
 71
   61
 72
   42
 73
   62
  0
VERTEX
  8
cheese
 10
0.0
 20
0.0
 30
0.0
 70
   128
 71
   80
 72
   70
 73
   84
  0
VERTEX
  8
cheese
 10
0.0
 20
0.0
 30
0.0
 70
   128
 71
   65
 72
   47
 73
   67
  0
VERTEX
  8
cheese
 10
0.0
 20
0.0
 30
0.0
 70
   128
 71
   68
 72
   46
 73
   66
  0
VERTEX
  8
cheese
 10
0.0
 20
0.0
 30
0.0
 70
   128
 71
   67
 72
   49
 73
   69
  0
VERTEX
  8
cheese
 10
0.0
 20
0.0
 30
0.0
 70
   128
 71
   70
 72
   48
 73
   68
  0
VERTEX
  8
cheese
 10
0.0
 20
0.0
 30
0.0
 70
   128
 71
   93
 72
   65
 73
   97
  0
VERTEX
  8
cheese
 10
0.0
 20
0.0
 30
0.0
 70
   128
 71
   61
 72
   73
 73
   83
  0
VERTEX
  8
cheese
 10
0.0
 20
0.0
 30
0.0
 70
   128
 71
   63
 72
   8
 73
   64
  0
VERTEX
  8
cheese
 10
0.0
 20
0.0
 30
0.0
 70
   128
 71
   64
 72
   88
 73
   38
  0
VERTEX
  8
cheese
 10
0.0
 20
0.0
 30
0.0
 70
   128
 71
   71
 72
   18
 73
   72
  0
VERTEX
  8
cheese
 10
0.0
 20
0.0
 30
0.0
 70
   128
 71
   84
 72
   20
 73
   74
  0
VERTEX
  8
cheese
 10
0.0
 20
0.0
 30
0.0
 70
   128
 71
   73
 72
   6
 73
   74
  0
VERTEX
  8
cheese
 10
0.0
 20
0.0
 30
0.0
 70
   128
 71
   77
 72
   29
 73
   75
  0
VERTEX
  8
cheese
 10
0.0
 20
0.0
 30
0.0
 70
   128
 71
   76
 72
   54
 73
   82
  0
VERTEX
  8
cheese
 10
0.0
 20
0.0
 30
0.0
 70
   128
 71
   81
 72
   17
 73
   71
  0
VERTEX
  8
cheese
 10
0.0
 20
0.0
 30
0.0
 70
   128
 71
   78
 72
   24
 73
   76
  0
VERTEX
  8
cheese
 10
0.0
 20
0.0
 30
0.0
 70
   128
 71
   79
 72
   39
 73
   77
  0
VERTEX
  8
cheese
 10
0.0
 20
0.0
 30
0.0
 70
   128
 71
   80
 72
   32
 73
   78
  0
VERTEX
  8
cheese
 10
0.0
 20
0.0
 30
0.0
 70
   128
 71
   83
 72
   49
 73
   79
  0
VERTEX
  8
cheese
 10
0.0
 20
0.0
 30
0.0
 70
   128
 71
   82
 72
   4
 73
   72
  0
VERTEX
  8
cheese
 10
0.0
 20
0.0
 30
0.0
 70
   128
 71
   75
 72
   59
 73
   81
  0
VERTEX
  8
cheese
 10
0.0
 20
0.0
 30
0.0
 70
   128
 71
   84
 72
   42
 73
   80
  0
VERTEX
  8
cheese
 10
0.0
 20
0.0
 30
0.0
 70
   128
 71
   73
 72
   69
 73
   83
  0
VERTEX
  8
cheese
 10
0.0
 20
0.0
 30
0.0
 70
   128
 71
   87
 72
   12
 73
   88
  0
VERTEX
  8
cheese
 10
0.0
 20
0.0
 30
0.0
 70
   128
 71
   89
 72
   35
 73
   91
  0
VERTEX
  8
cheese
 10
0.0
 20
0.0
 30
0.0
 70
   128
 71
   86
 72
   9
 73
   85
  0
VERTEX
  8
cheese
 10
0.0
 20
0.0
 30
0.0
 70
   128
 71
   86
 72
   52
 73
   96
  0
VERTEX
  8
cheese
 10
0.0
 20
0.0
 30
0.0
 70
   128
 71
   89
 72
   51
 73
   95
  0
VERTEX
  8
cheese
 10
0.0
 20
0.0
 30
0.0
 70
   128
 71
   90
 72
   34
 73
   92
  0
VERTEX
  8
cheese
 10
0.0
 20
0.0
 30
0.0
 70
   128
 71
   97
 72
   11
 73
   87
  0
VERTEX
  8
cheese
 10
0.0
 20
0.0
 30
0.0
 70
   128
 71
   92
 72
   44
 73
   94
  0
VERTEX
  8
cheese
 10
0.0
 20
0.0
 30
0.0
 70
   128
 71
   91
 72
   45
 73
   93
  0
VERTEX
  8
cheese
 10
0.0
 20
0.0
 30
0.0
 70
   128
 71
   94
 72
   64
 73
   38
  0
VERTEX
  8
cheese
 10
0.0
 20
0.0
 30
0.0
 70
   128
 71
   96
 72
   22
 73
   90
  0
VERTEX
  8
cheese
 10
0.0
 20
0.0
 30
0.0
 70
   128
 71
   85
 72
   55
 73
   95
  0
VERTEX
  8
cheese
 10
0.0
 20
0.0
 30
0.0
 70
   128
 71
   97
 72
   43
 73
   93
  0
VERTEX
  8
cheese
 10
0.0
 20
0.0
 30
0.0
 70
   128
 71
   88
 72
   66
 73
   38
  0
SEQEND
  0
POLYLINE
  8
meat
 66
   1
 10
0.0
 20
0.0
 30
0.0
 70
   64
 71
   6
 72
   8
  0
VERTEX
  8
meat
 10
-87.000000
 20
40.788939
 30
-87.000000
 70
   192
  0
VERTEX
  8
meat
 10
-87.000000
 20
62.512418
 30
-87.000000
 70
   192
  0
VERTEX
  8
meat
 10
87.000000
 20
40.788939
 30
87.000000
 70
   192
  0
VERTEX
  8
meat
 10
87.000000
 20
62.512418
 30
87.000000
 70
   192
  0
VERTEX
  8
meat
 10
87.000000
 20
40.788939
 30
-87.000000
 70
   192
  0
VERTEX
  8
meat
 10
87.000000
 20
62.512418
 30
-87.000000
 70
   192
  0
VERTEX
  8
meat
 10
0.0
 20
0.0
 30
0.0
 70
   128
 71
   1
 72
   2
 73
   4
  0
VERTEX
  8
meat
 10
0.0
 20
0.0
 30
0.0
 70
   128
 71
   3
 72
   4
 73
   6
  0
VERTEX
  8
meat
 10
0.0
 20
0.0
 30
0.0
 70
   128
 71
   5
 72
   6
 73
   2
  0
VERTEX
  8
meat
 10
0.0
 20
0.0
 30
0.0
 70
   128
 71
   1
 72
   3
 73
   5
  0
VERTEX
  8
meat
 10
0.0
 20
0.0
 30
0.0
 70
   128
 71
   2
 72
   6
 73
   4
  0
VERTEX
  8
meat
 10
0.0
 20
0.0
 30
0.0
 70
   128
 71
   1
 72
   4
 73
   3
  0
VERTEX
  8
meat
 10
0.0
 20
0.0
 30
0.0
 70
   128
 71
   3
 72
   6
 73
   5
  0
VERTEX
  8
meat
 10
0.0
 20
0.0
 30
0.0
 70
   128
 71
   5
 72
   2
 73
   1
  0
SEQEND
  0
POLYLINE
  8
bread_2
 66
   1
 10
0.0
 20
0.0
 30
0.0
 70
   64
 71
   6
 72
   8
  0
VERTEX
  8
bread_2
 10
-100.000000
 20
0.000000
 30
-100.000000
 70
   192
  0
VERTEX
  8
bread_2
 10
-100.000000
 20
41.455077
 30
-100.000000
 70
   192
  0
VERTEX
  8
bread_2
 10
100.000000
 20
0.000000
 30
100.000000
 70
   192
  0
VERTEX
  8
bread_2
 10
100.000000
 20
41.455077
 30
100.000000
 70
   192
  0
VERTEX
  8
bread_2
 10
100.000000
 20
0.000000
 30
-100.000000
 70
   192
  0
VERTEX
  8
bread_2
 10
100.000000
 20
41.455077
 30
-100.000000
 70
   192
  0
VERTEX
  8
bread_2
 10
0.0
 20
0.0
 30
0.0
 70
   128
 71
   1
 72
   2
 73
   4
  0
VERTEX
  8
bread_2
 10
0.0
 20
0.0
 30
0.0
 70
   128
 71
   3
 72
   4
 73
   6
  0
VERTEX
  8
bread_2
 10
0.0
 20
0.0
 30
0.0
 70
   128
 71
   5
 72
   6
 73
   2
  0
VERTEX
  8
bread_2
 10
0.0
 20
0.0
 30
0.0
 70
   128
 71
   1
 72
   3
 73
   5
  0
VERTEX
  8
bread_2
 10
0.0
 20
0.0
 30
0.0
 70
   128
 71
   2
 72
   6
 73
   4
  0
VERTEX
  8
bread_2
 10
0.0
 20
0.0
 30
0.0
 70
   128
 71
   1
 72
   4
 73
   3
  0
VERTEX
  8
bread_2
 10
0.0
 20
0.0
 30
0.0
 70
   128
 71
   3
 72
   6
 73
   5
  0
VERTEX
  8
bread_2
 10
0.0
 20
0.0
 30
0.0
 70
   128
 71
   5
 72
   2
 73
   1
  0
SEQEND
  0
ENDSEC
  0
EOF
