999
FBX AutoCAD (*.DXF) exporter
  0
SECTION
  2
HEADER
  9
$ACADVER
  1
AC1008
  9
$UCSORG
 10
0.0
 20
0.0
 30
0.0
  9
$UCSXDIR
 10
1.0
 20
0.0
 30
0.0
  9
$TILEMODE
 70
   1
  9
$UCSYDIR
 10
0.0
 20
1.0
 30
0.0
  0
ENDSEC
  0
SECTION
  2
TABLES
  0
TABLE
  2
LTYPE
 70
   1
  0
LTYPE
  2
CONTINUOUS
 70
   64
  3
Solid line
 72
   65
 73
   0
 40
0.0
  0
ENDTAB
  0
TABLE
  2
LAYER
 70
   1
  0
LAYER
  2
icecream_stick
 70
   0
 62
   250
  6
CONTINUOUS
  0
ENDTAB
  0
ENDSEC
  0
SECTION
  2
BLOCKS
  0
ENDSEC
  0
SECTION
  2
ENTITIES
  0
POLYLINE
  8
icecream_stick
 66
   1
 10
0.0
 20
0.0
 30
0.0
 70
   64
 71
   36
 72
   68
  0
VERTEX
  8
icecream_stick
 10
-54.933991
 20
1.500053
 30
71.590631
 70
   192
  0
VERTEX
  8
icecream_stick
 10
-55.035236
 20
69.801810
 30
70.941183
 70
   192
  0
VERTEX
  8
icecream_stick
 10
60.931202
 20
1.666860
 30
71.070827
 70
   192
  0
VERTEX
  8
icecream_stick
 10
60.829957
 20
69.968616
 30
70.421379
 70
   192
  0
VERTEX
  8
icecream_stick
 10
49.420281
 20
0.232235
 30
-78.012618
 70
   192
  0
VERTEX
  8
icecream_stick
 10
49.319036
 20
68.533991
 30
-78.662067
 70
   192
  0
VERTEX
  8
icecream_stick
 10
-44.757080
 20
0.096652
 30
-77.590113
 70
   192
  0
VERTEX
  8
icecream_stick
 10
-44.858325
 20
68.398408
 30
-78.239561
 70
   192
  0
VERTEX
  8
icecream_stick
 10
-55.438239
 20
0.427297
 30
-41.151368
 70
   192
  0
VERTEX
  8
icecream_stick
 10
-55.539483
 20
68.729054
 30
-41.800816
 70
   192
  0
VERTEX
  8
icecream_stick
 10
-8.863921
 20
0.000000
 30
-93.350377
 70
   192
  0
VERTEX
  8
icecream_stick
 10
-8.965166
 20
68.301757
 30
-93.999825
 70
   192
  0
VERTEX
  8
icecream_stick
 10
60.426955
 20
0.594103
 30
-41.671171
 70
   192
  0
VERTEX
  8
icecream_stick
 10
60.325710
 20
68.895860
 30
-42.320619
 70
   192
  0
VERTEX
  8
icecream_stick
 10
13.387587
 20
0.032035
 30
-93.450203
 70
   192
  0
VERTEX
  8
icecream_stick
 10
13.286342
 20
68.333791
 30
-94.099651
 70
   192
  0
VERTEX
  8
icecream_stick
 10
-18.406103
 20
30.551360
 30
71.150830
 70
   192
  0
VERTEX
  8
icecream_stick
 10
-18.421378
 20
40.855802
 30
71.052850
 70
   192
  0
VERTEX
  8
icecream_stick
 10
24.317344
 20
30.612867
 30
70.959160
 70
   192
  0
VERTEX
  8
icecream_stick
 10
24.302069
 20
40.917309
 30
70.861180
 70
   192
  0
VERTEX
  8
icecream_stick
 10
-18.227802
 20
30.930684
 30
111.016141
 70
   192
  0
VERTEX
  8
icecream_stick
 10
-18.243077
 20
41.235127
 30
110.918161
 70
   192
  0
VERTEX
  8
icecream_stick
 10
24.495644
 20
30.992192
 30
110.824471
 70
   192
  0
VERTEX
  8
icecream_stick
 10
24.480370
 20
41.296634
 30
110.726491
 70
   192
  0
VERTEX
  8
icecream_stick
 10
-14.001787
 20
31.008080
 30
118.496917
 70
   192
  0
VERTEX
  8
icecream_stick
 10
-14.017062
 20
41.312522
 30
118.398937
 70
   192
  0
VERTEX
  8
icecream_stick
 10
20.336714
 20
31.057515
 30
118.342865
 70
   192
  0
VERTEX
  8
icecream_stick
 10
20.321440
 20
41.361958
 30
118.244885
 70
   192
  0
VERTEX
  8
icecream_stick
 10
-5.731194
 20
31.080839
 30
124.859588
 70
   192
  0
VERTEX
  8
icecream_stick
 10
-5.746468
 20
41.385281
 30
124.761608
 70
   192
  0
VERTEX
  8
icecream_stick
 10
12.123366
 20
31.106543
 30
124.779487
 70
   192
  0
VERTEX
  8
icecream_stick
 10
12.108092
 20
41.410986
 30
124.681508
 70
   192
  0
VERTEX
  8
icecream_stick
 10
-55.185104
 20
0.965826
 30
15.445659
 70
   192
  0
VERTEX
  8
icecream_stick
 10
-55.286349
 20
69.267583
 30
14.796211
 70
   192
  0
VERTEX
  8
icecream_stick
 10
60.680089
 20
1.132632
 30
14.925856
 70
   192
  0
VERTEX
  8
icecream_stick
 10
60.578845
 20
69.434389
 30
14.276408
 70
   192
  0
VERTEX
  8
icecream_stick
 10
0.0
 20
0.0
 30
0.0
 70
   128
 71
   29
 72
   30
 73
   32
  0
VERTEX
  8
icecream_stick
 10
0.0
 20
0.0
 30
0.0
 70
   128
 71
   14
 72
   6
 73
   5
  0
VERTEX
  8
icecream_stick
 10
0.0
 20
0.0
 30
0.0
 70
   128
 71
   12
 72
   8
 73
   7
  0
VERTEX
  8
icecream_stick
 10
0.0
 20
0.0
 30
0.0
 70
   128
 71
   34
 72
   2
 73
   1
  0
VERTEX
  8
icecream_stick
 10
0.0
 20
0.0
 30
0.0
 70
   128
 71
   10
 72
   8
 73
   12
  0
VERTEX
  8
icecream_stick
 10
0.0
 20
0.0
 30
0.0
 70
   128
 71
   7
 72
   9
 73
   11
  0
VERTEX
  8
icecream_stick
 10
0.0
 20
0.0
 30
0.0
 70
   128
 71
   11
 72
   15
 73
   16
  0
VERTEX
  8
icecream_stick
 10
0.0
 20
0.0
 30
0.0
 70
   128
 71
   9
 72
   7
 73
   8
  0
VERTEX
  8
icecream_stick
 10
0.0
 20
0.0
 30
0.0
 70
   128
 71
   36
 72
   4
 73
   2
  0
VERTEX
  8
icecream_stick
 10
0.0
 20
0.0
 30
0.0
 70
   128
 71
   13
 72
   35
 73
   36
  0
VERTEX
  8
icecream_stick
 10
0.0
 20
0.0
 30
0.0
 70
   128
 71
   16
 72
   6
 73
   14
  0
VERTEX
  8
icecream_stick
 10
0.0
 20
0.0
 30
0.0
 70
   128
 71
   9
 72
   33
 73
   35
  0
VERTEX
  8
icecream_stick
 10
0.0
 20
0.0
 30
0.0
 70
   128
 71
   13
 72
   5
 73
   15
  0
VERTEX
  8
icecream_stick
 10
0.0
 20
0.0
 30
0.0
 70
   128
 71
   15
 72
   5
 73
   6
  0
VERTEX
  8
icecream_stick
 10
0.0
 20
0.0
 30
0.0
 70
   128
 71
   14
 72
   10
 73
   12
  0
VERTEX
  8
icecream_stick
 10
0.0
 20
0.0
 30
0.0
 70
   128
 71
   15
 72
   11
 73
   9
  0
VERTEX
  8
icecream_stick
 10
0.0
 20
0.0
 30
0.0
 70
   128
 71
   1
 72
   17
 73
   19
  0
VERTEX
  8
icecream_stick
 10
0.0
 20
0.0
 30
0.0
 70
   128
 71
   3
 72
   19
 73
   20
  0
VERTEX
  8
icecream_stick
 10
0.0
 20
0.0
 30
0.0
 70
   128
 71
   4
 72
   20
 73
   18
  0
VERTEX
  8
icecream_stick
 10
0.0
 20
0.0
 30
0.0
 70
   128
 71
   2
 72
   18
 73
   17
  0
VERTEX
  8
icecream_stick
 10
0.0
 20
0.0
 30
0.0
 70
   128
 71
   34
 72
   10
 73
   14
  0
VERTEX
  8
icecream_stick
 10
0.0
 20
0.0
 30
0.0
 70
   128
 71
   17
 72
   21
 73
   23
  0
VERTEX
  8
icecream_stick
 10
0.0
 20
0.0
 30
0.0
 70
   128
 71
   19
 72
   23
 73
   24
  0
VERTEX
  8
icecream_stick
 10
0.0
 20
0.0
 30
0.0
 70
   128
 71
   20
 72
   24
 73
   22
  0
VERTEX
  8
icecream_stick
 10
0.0
 20
0.0
 30
0.0
 70
   128
 71
   18
 72
   22
 73
   21
  0
VERTEX
  8
icecream_stick
 10
0.0
 20
0.0
 30
0.0
 70
   128
 71
   35
 72
   3
 73
   4
  0
VERTEX
  8
icecream_stick
 10
0.0
 20
0.0
 30
0.0
 70
   128
 71
   21
 72
   25
 73
   27
  0
VERTEX
  8
icecream_stick
 10
0.0
 20
0.0
 30
0.0
 70
   128
 71
   23
 72
   27
 73
   28
  0
VERTEX
  8
icecream_stick
 10
0.0
 20
0.0
 30
0.0
 70
   128
 71
   24
 72
   28
 73
   26
  0
VERTEX
  8
icecream_stick
 10
0.0
 20
0.0
 30
0.0
 70
   128
 71
   22
 72
   26
 73
   25
  0
VERTEX
  8
icecream_stick
 10
0.0
 20
0.0
 30
0.0
 70
   128
 71
   33
 72
   1
 73
   3
  0
VERTEX
  8
icecream_stick
 10
0.0
 20
0.0
 30
0.0
 70
   128
 71
   25
 72
   29
 73
   31
  0
VERTEX
  8
icecream_stick
 10
0.0
 20
0.0
 30
0.0
 70
   128
 71
   27
 72
   31
 73
   32
  0
VERTEX
  8
icecream_stick
 10
0.0
 20
0.0
 30
0.0
 70
   128
 71
   28
 72
   32
 73
   30
  0
VERTEX
  8
icecream_stick
 10
0.0
 20
0.0
 30
0.0
 70
   128
 71
   26
 72
   30
 73
   29
  0
VERTEX
  8
icecream_stick
 10
0.0
 20
0.0
 30
0.0
 70
   128
 71
   33
 72
   9
 73
   10
  0
VERTEX
  8
icecream_stick
 10
0.0
 20
0.0
 30
0.0
 70
   128
 71
   29
 72
   32
 73
   31
  0
VERTEX
  8
icecream_stick
 10
0.0
 20
0.0
 30
0.0
 70
   128
 71
   14
 72
   5
 73
   13
  0
VERTEX
  8
icecream_stick
 10
0.0
 20
0.0
 30
0.0
 70
   128
 71
   12
 72
   7
 73
   11
  0
VERTEX
  8
icecream_stick
 10
0.0
 20
0.0
 30
0.0
 70
   128
 71
   34
 72
   1
 73
   33
  0
VERTEX
  8
icecream_stick
 10
0.0
 20
0.0
 30
0.0
 70
   128
 71
   11
 72
   16
 73
   12
  0
VERTEX
  8
icecream_stick
 10
0.0
 20
0.0
 30
0.0
 70
   128
 71
   9
 72
   8
 73
   10
  0
VERTEX
  8
icecream_stick
 10
0.0
 20
0.0
 30
0.0
 70
   128
 71
   36
 72
   2
 73
   34
  0
VERTEX
  8
icecream_stick
 10
0.0
 20
0.0
 30
0.0
 70
   128
 71
   13
 72
   36
 73
   14
  0
VERTEX
  8
icecream_stick
 10
0.0
 20
0.0
 30
0.0
 70
   128
 71
   9
 72
   35
 73
   13
  0
VERTEX
  8
icecream_stick
 10
0.0
 20
0.0
 30
0.0
 70
   128
 71
   15
 72
   6
 73
   16
  0
VERTEX
  8
icecream_stick
 10
0.0
 20
0.0
 30
0.0
 70
   128
 71
   14
 72
   12
 73
   16
  0
VERTEX
  8
icecream_stick
 10
0.0
 20
0.0
 30
0.0
 70
   128
 71
   15
 72
   9
 73
   13
  0
VERTEX
  8
icecream_stick
 10
0.0
 20
0.0
 30
0.0
 70
   128
 71
   1
 72
   19
 73
   3
  0
VERTEX
  8
icecream_stick
 10
0.0
 20
0.0
 30
0.0
 70
   128
 71
   3
 72
   20
 73
   4
  0
VERTEX
  8
icecream_stick
 10
0.0
 20
0.0
 30
0.0
 70
   128
 71
   4
 72
   18
 73
   2
  0
VERTEX
  8
icecream_stick
 10
0.0
 20
0.0
 30
0.0
 70
   128
 71
   2
 72
   17
 73
   1
  0
VERTEX
  8
icecream_stick
 10
0.0
 20
0.0
 30
0.0
 70
   128
 71
   34
 72
   14
 73
   36
  0
VERTEX
  8
icecream_stick
 10
0.0
 20
0.0
 30
0.0
 70
   128
 71
   17
 72
   23
 73
   19
  0
VERTEX
  8
icecream_stick
 10
0.0
 20
0.0
 30
0.0
 70
   128
 71
   19
 72
   24
 73
   20
  0
VERTEX
  8
icecream_stick
 10
0.0
 20
0.0
 30
0.0
 70
   128
 71
   20
 72
   22
 73
   18
  0
VERTEX
  8
icecream_stick
 10
0.0
 20
0.0
 30
0.0
 70
   128
 71
   18
 72
   21
 73
   17
  0
VERTEX
  8
icecream_stick
 10
0.0
 20
0.0
 30
0.0
 70
   128
 71
   35
 72
   4
 73
   36
  0
VERTEX
  8
icecream_stick
 10
0.0
 20
0.0
 30
0.0
 70
   128
 71
   21
 72
   27
 73
   23
  0
VERTEX
  8
icecream_stick
 10
0.0
 20
0.0
 30
0.0
 70
   128
 71
   23
 72
   28
 73
   24
  0
VERTEX
  8
icecream_stick
 10
0.0
 20
0.0
 30
0.0
 70
   128
 71
   24
 72
   26
 73
   22
  0
VERTEX
  8
icecream_stick
 10
0.0
 20
0.0
 30
0.0
 70
   128
 71
   22
 72
   25
 73
   21
  0
VERTEX
  8
icecream_stick
 10
0.0
 20
0.0
 30
0.0
 70
   128
 71
   33
 72
   3
 73
   35
  0
VERTEX
  8
icecream_stick
 10
0.0
 20
0.0
 30
0.0
 70
   128
 71
   25
 72
   31
 73
   27
  0
VERTEX
  8
icecream_stick
 10
0.0
 20
0.0
 30
0.0
 70
   128
 71
   27
 72
   32
 73
   28
  0
VERTEX
  8
icecream_stick
 10
0.0
 20
0.0
 30
0.0
 70
   128
 71
   28
 72
   30
 73
   26
  0
VERTEX
  8
icecream_stick
 10
0.0
 20
0.0
 30
0.0
 70
   128
 71
   26
 72
   29
 73
   25
  0
VERTEX
  8
icecream_stick
 10
0.0
 20
0.0
 30
0.0
 70
   128
 71
   33
 72
   10
 73
   34
  0
SEQEND
  0
ENDSEC
  0
EOF
