999
FBX AutoCAD (*.DXF) exporter
  0
SECTION
  2
HEADER
  9
$ACADVER
  1
AC1008
  9
$UCSORG
 10
0.0
 20
0.0
 30
0.0
  9
$UCSXDIR
 10
1.0
 20
0.0
 30
0.0
  9
$TILEMODE
 70
   1
  9
$UCSYDIR
 10
0.0
 20
1.0
 30
0.0
  0
ENDSEC
  0
SECTION
  2
TABLES
  0
TABLE
  2
LTYPE
 70
   1
  0
LTYPE
  2
CONTINUOUS
 70
   64
  3
Solid line
 72
   65
 73
   0
 40
0.0
  0
ENDTAB
  0
TABLE
  2
LAYER
 70
   1
  0
LAYER
  2
egg01
 70
   0
 62
   250
  6
CONTINUOUS
  0
ENDTAB
  0
ENDSEC
  0
SECTION
  2
BLOCKS
  0
ENDSEC
  0
SECTION
  2
ENTITIES
  0
POLYLINE
  8
egg01
 66
   1
 10
0.0
 20
0.0
 30
0.0
 70
   64
 71
   56
 72
   108
  0
VERTEX
  8
egg01
 10
-27.489320
 20
16.895304
 30
27.489320
 70
   192
  0
VERTEX
  8
egg01
 10
-31.174638
 20
34.862147
 30
31.174638
 70
   192
  0
VERTEX
  8
egg01
 10
-27.378694
 20
58.555551
 30
27.378694
 70
   192
  0
VERTEX
  8
egg01
 10
-19.475659
 20
76.522394
 30
19.475659
 70
   192
  0
VERTEX
  8
egg01
 10
-11.015021
 20
11.168744
 30
33.045063
 70
   192
  0
VERTEX
  8
egg01
 10
-13.841779
 20
31.139233
 30
41.525336
 70
   192
  0
VERTEX
  8
egg01
 10
-11.656235
 20
62.278465
 30
34.968704
 70
   192
  0
VERTEX
  8
egg01
 10
-7.219076
 20
82.248954
 30
21.657228
 70
   192
  0
VERTEX
  8
egg01
 10
11.015021
 20
11.168744
 30
33.045063
 70
   192
  0
VERTEX
  8
egg01
 10
13.841779
 20
31.139233
 30
41.525336
 70
   192
  0
VERTEX
  8
egg01
 10
11.656235
 20
62.278465
 30
34.968704
 70
   192
  0
VERTEX
  8
egg01
 10
7.219076
 20
82.248954
 30
21.657228
 70
   192
  0
VERTEX
  8
egg01
 10
27.489320
 20
16.895304
 30
27.489320
 70
   192
  0
VERTEX
  8
egg01
 10
31.174638
 20
34.862147
 30
31.174638
 70
   192
  0
VERTEX
  8
egg01
 10
27.378694
 20
58.555551
 30
27.378694
 70
   192
  0
VERTEX
  8
egg01
 10
19.475659
 20
76.522394
 30
19.475659
 70
   192
  0
VERTEX
  8
egg01
 10
33.045063
 20
11.168744
 30
11.015021
 70
   192
  0
VERTEX
  8
egg01
 10
41.525336
 20
31.139233
 30
13.841779
 70
   192
  0
VERTEX
  8
egg01
 10
34.968704
 20
62.278465
 30
11.656235
 70
   192
  0
VERTEX
  8
egg01
 10
21.657228
 20
82.248954
 30
7.219076
 70
   192
  0
VERTEX
  8
egg01
 10
33.045063
 20
11.168744
 30
-11.015021
 70
   192
  0
VERTEX
  8
egg01
 10
41.525336
 20
31.139233
 30
-13.841779
 70
   192
  0
VERTEX
  8
egg01
 10
34.968704
 20
62.278465
 30
-11.656235
 70
   192
  0
VERTEX
  8
egg01
 10
21.657228
 20
82.248954
 30
-7.219076
 70
   192
  0
VERTEX
  8
egg01
 10
27.489320
 20
16.895304
 30
-27.489320
 70
   192
  0
VERTEX
  8
egg01
 10
31.174638
 20
34.862147
 30
-31.174638
 70
   192
  0
VERTEX
  8
egg01
 10
27.378694
 20
58.555551
 30
-27.378694
 70
   192
  0
VERTEX
  8
egg01
 10
19.475659
 20
76.522394
 30
-19.475659
 70
   192
  0
VERTEX
  8
egg01
 10
11.015021
 20
11.168744
 30
-33.045063
 70
   192
  0
VERTEX
  8
egg01
 10
13.841779
 20
31.139233
 30
-41.525336
 70
   192
  0
VERTEX
  8
egg01
 10
11.656235
 20
62.278465
 30
-34.968704
 70
   192
  0
VERTEX
  8
egg01
 10
7.219076
 20
82.248954
 30
-21.657228
 70
   192
  0
VERTEX
  8
egg01
 10
-11.015021
 20
11.168744
 30
-33.045063
 70
   192
  0
VERTEX
  8
egg01
 10
-13.841779
 20
31.139233
 30
-41.525336
 70
   192
  0
VERTEX
  8
egg01
 10
-11.656235
 20
62.278465
 30
-34.968704
 70
   192
  0
VERTEX
  8
egg01
 10
-7.219076
 20
82.248954
 30
-21.657228
 70
   192
  0
VERTEX
  8
egg01
 10
-27.489320
 20
16.895304
 30
-27.489320
 70
   192
  0
VERTEX
  8
egg01
 10
-31.174638
 20
34.862147
 30
-31.174638
 70
   192
  0
VERTEX
  8
egg01
 10
-27.378694
 20
58.555551
 30
-27.378694
 70
   192
  0
VERTEX
  8
egg01
 10
-19.475659
 20
76.522394
 30
-19.475659
 70
   192
  0
VERTEX
  8
egg01
 10
-33.045063
 20
11.168744
 30
-11.015021
 70
   192
  0
VERTEX
  8
egg01
 10
-41.525336
 20
31.139233
 30
-13.841779
 70
   192
  0
VERTEX
  8
egg01
 10
-34.968704
 20
62.278465
 30
-11.656235
 70
   192
  0
VERTEX
  8
egg01
 10
-21.657228
 20
82.248954
 30
-7.219076
 70
   192
  0
VERTEX
  8
egg01
 10
-33.045063
 20
11.168744
 30
11.015021
 70
   192
  0
VERTEX
  8
egg01
 10
-41.525336
 20
31.139233
 30
13.841779
 70
   192
  0
VERTEX
  8
egg01
 10
-34.968704
 20
62.278465
 30
11.656235
 70
   192
  0
VERTEX
  8
egg01
 10
-21.657228
 20
82.248954
 30
7.219076
 70
   192
  0
VERTEX
  8
egg01
 10
-8.013661
 20
93.417698
 30
8.013661
 70
   192
  0
VERTEX
  8
egg01
 10
-8.013661
 20
93.417698
 30
-8.013661
 70
   192
  0
VERTEX
  8
egg01
 10
8.013661
 20
93.417698
 30
8.013661
 70
   192
  0
VERTEX
  8
egg01
 10
8.013661
 20
93.417698
 30
-8.013661
 70
   192
  0
VERTEX
  8
egg01
 10
-14.570293
 20
0.000000
 30
-14.570293
 70
   192
  0
VERTEX
  8
egg01
 10
-14.570293
 20
0.000000
 30
14.570293
 70
   192
  0
VERTEX
  8
egg01
 10
14.570293
 20
0.000000
 30
-14.570293
 70
   192
  0
VERTEX
  8
egg01
 10
14.570293
 20
0.000000
 30
14.570293
 70
   192
  0
VERTEX
  8
egg01
 10
0.0
 20
0.0
 30
0.0
 70
   128
 71
   1
 72
   2
 73
   6
  0
VERTEX
  8
egg01
 10
0.0
 20
0.0
 30
0.0
 70
   128
 71
   5
 72
   6
 73
   10
  0
VERTEX
  8
egg01
 10
0.0
 20
0.0
 30
0.0
 70
   128
 71
   9
 72
   10
 73
   14
  0
VERTEX
  8
egg01
 10
0.0
 20
0.0
 30
0.0
 70
   128
 71
   2
 72
   3
 73
   7
  0
VERTEX
  8
egg01
 10
0.0
 20
0.0
 30
0.0
 70
   128
 71
   6
 72
   7
 73
   11
  0
VERTEX
  8
egg01
 10
0.0
 20
0.0
 30
0.0
 70
   128
 71
   10
 72
   11
 73
   15
  0
VERTEX
  8
egg01
 10
0.0
 20
0.0
 30
0.0
 70
   128
 71
   3
 72
   4
 73
   8
  0
VERTEX
  8
egg01
 10
0.0
 20
0.0
 30
0.0
 70
   128
 71
   7
 72
   8
 73
   12
  0
VERTEX
  8
egg01
 10
0.0
 20
0.0
 30
0.0
 70
   128
 71
   11
 72
   12
 73
   16
  0
VERTEX
  8
egg01
 10
0.0
 20
0.0
 30
0.0
 70
   128
 71
   13
 72
   14
 73
   18
  0
VERTEX
  8
egg01
 10
0.0
 20
0.0
 30
0.0
 70
   128
 71
   17
 72
   18
 73
   22
  0
VERTEX
  8
egg01
 10
0.0
 20
0.0
 30
0.0
 70
   128
 71
   21
 72
   22
 73
   26
  0
VERTEX
  8
egg01
 10
0.0
 20
0.0
 30
0.0
 70
   128
 71
   14
 72
   15
 73
   19
  0
VERTEX
  8
egg01
 10
0.0
 20
0.0
 30
0.0
 70
   128
 71
   18
 72
   19
 73
   23
  0
VERTEX
  8
egg01
 10
0.0
 20
0.0
 30
0.0
 70
   128
 71
   22
 72
   23
 73
   27
  0
VERTEX
  8
egg01
 10
0.0
 20
0.0
 30
0.0
 70
   128
 71
   15
 72
   16
 73
   20
  0
VERTEX
  8
egg01
 10
0.0
 20
0.0
 30
0.0
 70
   128
 71
   19
 72
   20
 73
   24
  0
VERTEX
  8
egg01
 10
0.0
 20
0.0
 30
0.0
 70
   128
 71
   23
 72
   24
 73
   28
  0
VERTEX
  8
egg01
 10
0.0
 20
0.0
 30
0.0
 70
   128
 71
   25
 72
   26
 73
   30
  0
VERTEX
  8
egg01
 10
0.0
 20
0.0
 30
0.0
 70
   128
 71
   29
 72
   30
 73
   34
  0
VERTEX
  8
egg01
 10
0.0
 20
0.0
 30
0.0
 70
   128
 71
   33
 72
   34
 73
   38
  0
VERTEX
  8
egg01
 10
0.0
 20
0.0
 30
0.0
 70
   128
 71
   26
 72
   27
 73
   31
  0
VERTEX
  8
egg01
 10
0.0
 20
0.0
 30
0.0
 70
   128
 71
   30
 72
   31
 73
   35
  0
VERTEX
  8
egg01
 10
0.0
 20
0.0
 30
0.0
 70
   128
 71
   34
 72
   35
 73
   39
  0
VERTEX
  8
egg01
 10
0.0
 20
0.0
 30
0.0
 70
   128
 71
   27
 72
   28
 73
   32
  0
VERTEX
  8
egg01
 10
0.0
 20
0.0
 30
0.0
 70
   128
 71
   31
 72
   32
 73
   36
  0
VERTEX
  8
egg01
 10
0.0
 20
0.0
 30
0.0
 70
   128
 71
   35
 72
   36
 73
   40
  0
VERTEX
  8
egg01
 10
0.0
 20
0.0
 30
0.0
 70
   128
 71
   37
 72
   38
 73
   42
  0
VERTEX
  8
egg01
 10
0.0
 20
0.0
 30
0.0
 70
   128
 71
   41
 72
   42
 73
   46
  0
VERTEX
  8
egg01
 10
0.0
 20
0.0
 30
0.0
 70
   128
 71
   45
 72
   46
 73
   2
  0
VERTEX
  8
egg01
 10
0.0
 20
0.0
 30
0.0
 70
   128
 71
   38
 72
   39
 73
   43
  0
VERTEX
  8
egg01
 10
0.0
 20
0.0
 30
0.0
 70
   128
 71
   42
 72
   43
 73
   47
  0
VERTEX
  8
egg01
 10
0.0
 20
0.0
 30
0.0
 70
   128
 71
   46
 72
   47
 73
   3
  0
VERTEX
  8
egg01
 10
0.0
 20
0.0
 30
0.0
 70
   128
 71
   39
 72
   40
 73
   44
  0
VERTEX
  8
egg01
 10
0.0
 20
0.0
 30
0.0
 70
   128
 71
   43
 72
   44
 73
   48
  0
VERTEX
  8
egg01
 10
0.0
 20
0.0
 30
0.0
 70
   128
 71
   47
 72
   48
 73
   4
  0
VERTEX
  8
egg01
 10
0.0
 20
0.0
 30
0.0
 70
   128
 71
   4
 72
   48
 73
   49
  0
VERTEX
  8
egg01
 10
0.0
 20
0.0
 30
0.0
 70
   128
 71
   8
 72
   49
 73
   51
  0
VERTEX
  8
egg01
 10
0.0
 20
0.0
 30
0.0
 70
   128
 71
   12
 72
   51
 73
   20
  0
VERTEX
  8
egg01
 10
0.0
 20
0.0
 30
0.0
 70
   128
 71
   48
 72
   44
 73
   50
  0
VERTEX
  8
egg01
 10
0.0
 20
0.0
 30
0.0
 70
   128
 71
   49
 72
   50
 73
   52
  0
VERTEX
  8
egg01
 10
0.0
 20
0.0
 30
0.0
 70
   128
 71
   51
 72
   52
 73
   24
  0
VERTEX
  8
egg01
 10
0.0
 20
0.0
 30
0.0
 70
   128
 71
   44
 72
   40
 73
   36
  0
VERTEX
  8
egg01
 10
0.0
 20
0.0
 30
0.0
 70
   128
 71
   50
 72
   36
 73
   32
  0
VERTEX
  8
egg01
 10
0.0
 20
0.0
 30
0.0
 70
   128
 71
   52
 72
   32
 73
   28
  0
VERTEX
  8
egg01
 10
0.0
 20
0.0
 30
0.0
 70
   128
 71
   37
 72
   41
 73
   53
  0
VERTEX
  8
egg01
 10
0.0
 20
0.0
 30
0.0
 70
   128
 71
   33
 72
   53
 73
   55
  0
VERTEX
  8
egg01
 10
0.0
 20
0.0
 30
0.0
 70
   128
 71
   29
 72
   55
 73
   21
  0
VERTEX
  8
egg01
 10
0.0
 20
0.0
 30
0.0
 70
   128
 71
   41
 72
   45
 73
   54
  0
VERTEX
  8
egg01
 10
0.0
 20
0.0
 30
0.0
 70
   128
 71
   53
 72
   54
 73
   56
  0
VERTEX
  8
egg01
 10
0.0
 20
0.0
 30
0.0
 70
   128
 71
   55
 72
   56
 73
   17
  0
VERTEX
  8
egg01
 10
0.0
 20
0.0
 30
0.0
 70
   128
 71
   45
 72
   1
 73
   5
  0
VERTEX
  8
egg01
 10
0.0
 20
0.0
 30
0.0
 70
   128
 71
   54
 72
   5
 73
   9
  0
VERTEX
  8
egg01
 10
0.0
 20
0.0
 30
0.0
 70
   128
 71
   56
 72
   9
 73
   13
  0
VERTEX
  8
egg01
 10
0.0
 20
0.0
 30
0.0
 70
   128
 71
   1
 72
   6
 73
   5
  0
VERTEX
  8
egg01
 10
0.0
 20
0.0
 30
0.0
 70
   128
 71
   5
 72
   10
 73
   9
  0
VERTEX
  8
egg01
 10
0.0
 20
0.0
 30
0.0
 70
   128
 71
   9
 72
   14
 73
   13
  0
VERTEX
  8
egg01
 10
0.0
 20
0.0
 30
0.0
 70
   128
 71
   2
 72
   7
 73
   6
  0
VERTEX
  8
egg01
 10
0.0
 20
0.0
 30
0.0
 70
   128
 71
   6
 72
   11
 73
   10
  0
VERTEX
  8
egg01
 10
0.0
 20
0.0
 30
0.0
 70
   128
 71
   10
 72
   15
 73
   14
  0
VERTEX
  8
egg01
 10
0.0
 20
0.0
 30
0.0
 70
   128
 71
   3
 72
   8
 73
   7
  0
VERTEX
  8
egg01
 10
0.0
 20
0.0
 30
0.0
 70
   128
 71
   7
 72
   12
 73
   11
  0
VERTEX
  8
egg01
 10
0.0
 20
0.0
 30
0.0
 70
   128
 71
   11
 72
   16
 73
   15
  0
VERTEX
  8
egg01
 10
0.0
 20
0.0
 30
0.0
 70
   128
 71
   13
 72
   18
 73
   17
  0
VERTEX
  8
egg01
 10
0.0
 20
0.0
 30
0.0
 70
   128
 71
   17
 72
   22
 73
   21
  0
VERTEX
  8
egg01
 10
0.0
 20
0.0
 30
0.0
 70
   128
 71
   21
 72
   26
 73
   25
  0
VERTEX
  8
egg01
 10
0.0
 20
0.0
 30
0.0
 70
   128
 71
   14
 72
   19
 73
   18
  0
VERTEX
  8
egg01
 10
0.0
 20
0.0
 30
0.0
 70
   128
 71
   18
 72
   23
 73
   22
  0
VERTEX
  8
egg01
 10
0.0
 20
0.0
 30
0.0
 70
   128
 71
   22
 72
   27
 73
   26
  0
VERTEX
  8
egg01
 10
0.0
 20
0.0
 30
0.0
 70
   128
 71
   15
 72
   20
 73
   19
  0
VERTEX
  8
egg01
 10
0.0
 20
0.0
 30
0.0
 70
   128
 71
   19
 72
   24
 73
   23
  0
VERTEX
  8
egg01
 10
0.0
 20
0.0
 30
0.0
 70
   128
 71
   23
 72
   28
 73
   27
  0
VERTEX
  8
egg01
 10
0.0
 20
0.0
 30
0.0
 70
   128
 71
   25
 72
   30
 73
   29
  0
VERTEX
  8
egg01
 10
0.0
 20
0.0
 30
0.0
 70
   128
 71
   29
 72
   34
 73
   33
  0
VERTEX
  8
egg01
 10
0.0
 20
0.0
 30
0.0
 70
   128
 71
   33
 72
   38
 73
   37
  0
VERTEX
  8
egg01
 10
0.0
 20
0.0
 30
0.0
 70
   128
 71
   26
 72
   31
 73
   30
  0
VERTEX
  8
egg01
 10
0.0
 20
0.0
 30
0.0
 70
   128
 71
   30
 72
   35
 73
   34
  0
VERTEX
  8
egg01
 10
0.0
 20
0.0
 30
0.0
 70
   128
 71
   34
 72
   39
 73
   38
  0
VERTEX
  8
egg01
 10
0.0
 20
0.0
 30
0.0
 70
   128
 71
   27
 72
   32
 73
   31
  0
VERTEX
  8
egg01
 10
0.0
 20
0.0
 30
0.0
 70
   128
 71
   31
 72
   36
 73
   35
  0
VERTEX
  8
egg01
 10
0.0
 20
0.0
 30
0.0
 70
   128
 71
   35
 72
   40
 73
   39
  0
VERTEX
  8
egg01
 10
0.0
 20
0.0
 30
0.0
 70
   128
 71
   37
 72
   42
 73
   41
  0
VERTEX
  8
egg01
 10
0.0
 20
0.0
 30
0.0
 70
   128
 71
   41
 72
   46
 73
   45
  0
VERTEX
  8
egg01
 10
0.0
 20
0.0
 30
0.0
 70
   128
 71
   45
 72
   2
 73
   1
  0
VERTEX
  8
egg01
 10
0.0
 20
0.0
 30
0.0
 70
   128
 71
   38
 72
   43
 73
   42
  0
VERTEX
  8
egg01
 10
0.0
 20
0.0
 30
0.0
 70
   128
 71
   42
 72
   47
 73
   46
  0
VERTEX
  8
egg01
 10
0.0
 20
0.0
 30
0.0
 70
   128
 71
   46
 72
   3
 73
   2
  0
VERTEX
  8
egg01
 10
0.0
 20
0.0
 30
0.0
 70
   128
 71
   39
 72
   44
 73
   43
  0
VERTEX
  8
egg01
 10
0.0
 20
0.0
 30
0.0
 70
   128
 71
   43
 72
   48
 73
   47
  0
VERTEX
  8
egg01
 10
0.0
 20
0.0
 30
0.0
 70
   128
 71
   47
 72
   4
 73
   3
  0
VERTEX
  8
egg01
 10
0.0
 20
0.0
 30
0.0
 70
   128
 71
   4
 72
   49
 73
   8
  0
VERTEX
  8
egg01
 10
0.0
 20
0.0
 30
0.0
 70
   128
 71
   8
 72
   51
 73
   12
  0
VERTEX
  8
egg01
 10
0.0
 20
0.0
 30
0.0
 70
   128
 71
   12
 72
   20
 73
   16
  0
VERTEX
  8
egg01
 10
0.0
 20
0.0
 30
0.0
 70
   128
 71
   48
 72
   50
 73
   49
  0
VERTEX
  8
egg01
 10
0.0
 20
0.0
 30
0.0
 70
   128
 71
   49
 72
   52
 73
   51
  0
VERTEX
  8
egg01
 10
0.0
 20
0.0
 30
0.0
 70
   128
 71
   51
 72
   24
 73
   20
  0
VERTEX
  8
egg01
 10
0.0
 20
0.0
 30
0.0
 70
   128
 71
   44
 72
   36
 73
   50
  0
VERTEX
  8
egg01
 10
0.0
 20
0.0
 30
0.0
 70
   128
 71
   50
 72
   32
 73
   52
  0
VERTEX
  8
egg01
 10
0.0
 20
0.0
 30
0.0
 70
   128
 71
   52
 72
   28
 73
   24
  0
VERTEX
  8
egg01
 10
0.0
 20
0.0
 30
0.0
 70
   128
 71
   37
 72
   53
 73
   33
  0
VERTEX
  8
egg01
 10
0.0
 20
0.0
 30
0.0
 70
   128
 71
   33
 72
   55
 73
   29
  0
VERTEX
  8
egg01
 10
0.0
 20
0.0
 30
0.0
 70
   128
 71
   29
 72
   21
 73
   25
  0
VERTEX
  8
egg01
 10
0.0
 20
0.0
 30
0.0
 70
   128
 71
   41
 72
   54
 73
   53
  0
VERTEX
  8
egg01
 10
0.0
 20
0.0
 30
0.0
 70
   128
 71
   53
 72
   56
 73
   55
  0
VERTEX
  8
egg01
 10
0.0
 20
0.0
 30
0.0
 70
   128
 71
   55
 72
   17
 73
   21
  0
VERTEX
  8
egg01
 10
0.0
 20
0.0
 30
0.0
 70
   128
 71
   45
 72
   5
 73
   54
  0
VERTEX
  8
egg01
 10
0.0
 20
0.0
 30
0.0
 70
   128
 71
   54
 72
   9
 73
   56
  0
VERTEX
  8
egg01
 10
0.0
 20
0.0
 30
0.0
 70
   128
 71
   56
 72
   13
 73
   17
  0
SEQEND
  0
ENDSEC
  0
EOF
