999
FBX AutoCAD (*.DXF) exporter
  0
SECTION
  2
HEADER
  9
$ACADVER
  1
AC1008
  9
$UCSORG
 10
0.0
 20
0.0
 30
0.0
  9
$UCSXDIR
 10
1.0
 20
0.0
 30
0.0
  9
$TILEMODE
 70
   1
  9
$UCSYDIR
 10
0.0
 20
1.0
 30
0.0
  0
ENDSEC
  0
SECTION
  2
TABLES
  0
TABLE
  2
LTYPE
 70
   1
  0
LTYPE
  2
CONTINUOUS
 70
   64
  3
Solid line
 72
   65
 73
   0
 40
0.0
  0
ENDTAB
  0
TABLE
  2
LAYER
 70
   1
  0
LAYER
  2
donut01
 70
   0
 62
   250
  6
CONTINUOUS
  0
ENDTAB
  0
ENDSEC
  0
SECTION
  2
BLOCKS
  0
ENDSEC
  0
SECTION
  2
ENTITIES
  0
POLYLINE
  8
donut01
 66
   1
 10
0.0
 20
0.0
 30
0.0
 70
   64
 71
   117
 72
   234
  0
VERTEX
  8
donut01
 10
73.244937
 20
31.595138
 30
0.000000
 70
   192
  0
VERTEX
  8
donut01
 10
65.739047
 20
52.217400
 30
0.000000
 70
   192
  0
VERTEX
  8
donut01
 10
46.733468
 20
63.190276
 30
0.000000
 70
   192
  0
VERTEX
  8
donut01
 10
25.121120
 20
59.379437
 30
0.000000
 70
   192
  0
VERTEX
  8
donut01
 10
11.014662
 20
42.568015
 30
0.000000
 70
   192
  0
VERTEX
  8
donut01
 10
11.014662
 20
20.622262
 30
0.000000
 70
   192
  0
VERTEX
  8
donut01
 10
25.121120
 20
3.810840
 30
0.000000
 70
   192
  0
VERTEX
  8
donut01
 10
46.733468
 20
0.000000
 30
0.000000
 70
   192
  0
VERTEX
  8
donut01
 10
65.739047
 20
10.972876
 30
0.000000
 70
   192
  0
VERTEX
  8
donut01
 10
64.855171
 20
31.595138
 30
-34.038619
 70
   192
  0
VERTEX
  8
donut01
 10
58.209035
 20
52.217400
 30
-30.550459
 70
   192
  0
VERTEX
  8
donut01
 10
41.380431
 20
63.190276
 30
-21.718125
 70
   192
  0
VERTEX
  8
donut01
 10
22.243647
 20
59.379437
 30
-11.674367
 70
   192
  0
VERTEX
  8
donut01
 10
9.752999
 20
42.568015
 30
-5.118769
 70
   192
  0
VERTEX
  8
donut01
 10
9.752999
 20
20.622262
 30
-5.118769
 70
   192
  0
VERTEX
  8
donut01
 10
22.243647
 20
3.810840
 30
-11.674367
 70
   192
  0
VERTEX
  8
donut01
 10
41.380431
 20
0.000000
 30
-21.718125
 70
   192
  0
VERTEX
  8
donut01
 10
58.209035
 20
10.972876
 30
-30.550459
 70
   192
  0
VERTEX
  8
donut01
 10
41.607866
 20
31.595138
 30
-60.279401
 70
   192
  0
VERTEX
  8
donut01
 10
37.344035
 20
52.217400
 30
-54.102175
 70
   192
  0
VERTEX
  8
donut01
 10
26.547636
 20
63.190276
 30
-38.460890
 70
   192
  0
VERTEX
  8
donut01
 10
14.270423
 20
59.379437
 30
-20.674277
 70
   192
  0
VERTEX
  8
donut01
 10
6.257041
 20
42.568015
 30
-9.064890
 70
   192
  0
VERTEX
  8
donut01
 10
6.257041
 20
20.622262
 30
-9.064890
 70
   192
  0
VERTEX
  8
donut01
 10
14.270423
 20
3.810840
 30
-20.674277
 70
   192
  0
VERTEX
  8
donut01
 10
26.547636
 20
0.000000
 30
-38.460890
 70
   192
  0
VERTEX
  8
donut01
 10
37.344035
 20
10.972876
 30
-54.102175
 70
   192
  0
VERTEX
  8
donut01
 10
8.828702
 20
31.595138
 30
-72.710899
 70
   192
  0
VERTEX
  8
donut01
 10
7.923967
 20
52.217400
 30
-65.259736
 70
   192
  0
VERTEX
  8
donut01
 10
5.633097
 20
63.190276
 30
-46.392728
 70
   192
  0
VERTEX
  8
donut01
 10
3.028016
 20
59.379437
 30
-24.937959
 70
   192
  0
VERTEX
  8
donut01
 10
1.327671
 20
42.568015
 30
-10.934353
 70
   192
  0
VERTEX
  8
donut01
 10
1.327671
 20
20.622262
 30
-10.934353
 70
   192
  0
VERTEX
  8
donut01
 10
3.028016
 20
3.810840
 30
-24.937959
 70
   192
  0
VERTEX
  8
donut01
 10
5.633097
 20
0.000000
 30
-46.392728
 70
   192
  0
VERTEX
  8
donut01
 10
7.923967
 20
10.972876
 30
-65.259736
 70
   192
  0
VERTEX
  8
donut01
 10
-25.973013
 20
31.595138
 30
-68.485206
 70
   192
  0
VERTEX
  8
donut01
 10
-23.311387
 20
52.217400
 30
-61.467077
 70
   192
  0
VERTEX
  8
donut01
 10
-16.571916
 20
63.190276
 30
-43.696552
 70
   192
  0
VERTEX
  8
donut01
 10
-8.908072
 20
59.379437
 30
-23.488656
 70
   192
  0
VERTEX
  8
donut01
 10
-3.905853
 20
42.568015
 30
-10.298888
 70
   192
  0
VERTEX
  8
donut01
 10
-3.905853
 20
20.622262
 30
-10.298888
 70
   192
  0
VERTEX
  8
donut01
 10
-8.908072
 20
3.810840
 30
-23.488656
 70
   192
  0
VERTEX
  8
donut01
 10
-16.571916
 20
0.000000
 30
-43.696552
 70
   192
  0
VERTEX
  8
donut01
 10
-23.311387
 20
10.972876
 30
-61.467077
 70
   192
  0
VERTEX
  8
donut01
 10
-54.824622
 20
31.595138
 30
-48.570377
 70
   192
  0
VERTEX
  8
donut01
 10
-49.206383
 20
52.217400
 30
-43.593052
 70
   192
  0
VERTEX
  8
donut01
 10
-34.980503
 20
63.190276
 30
-30.990021
 70
   192
  0
VERTEX
  8
donut01
 10
-18.803429
 20
59.379437
 30
-16.658384
 70
   192
  0
VERTEX
  8
donut01
 10
-8.244593
 20
42.568015
 30
-7.304072
 70
   192
  0
VERTEX
  8
donut01
 10
-8.244593
 20
20.622262
 30
-7.304072
 70
   192
  0
VERTEX
  8
donut01
 10
-18.803429
 20
3.810840
 30
-16.658384
 70
   192
  0
VERTEX
  8
donut01
 10
-34.980503
 20
0.000000
 30
-30.990021
 70
   192
  0
VERTEX
  8
donut01
 10
-49.206383
 20
10.972876
 30
-43.593052
 70
   192
  0
VERTEX
  8
donut01
 10
-71.116572
 20
31.595138
 30
-17.528661
 70
   192
  0
VERTEX
  8
donut01
 10
-63.828790
 20
52.217400
 30
-15.732384
 70
   192
  0
VERTEX
  8
donut01
 10
-45.375478
 20
63.190276
 30
-11.184051
 70
   192
  0
VERTEX
  8
donut01
 10
-24.391146
 20
59.379437
 30
-6.011878
 70
   192
  0
VERTEX
  8
donut01
 10
-10.694596
 20
42.568015
 30
-2.635981
 70
   192
  0
VERTEX
  8
donut01
 10
-10.694596
 20
20.622262
 30
-2.635981
 70
   192
  0
VERTEX
  8
donut01
 10
-24.391146
 20
3.810840
 30
-6.011878
 70
   192
  0
VERTEX
  8
donut01
 10
-45.375478
 20
0.000000
 30
-11.184051
 70
   192
  0
VERTEX
  8
donut01
 10
-63.828790
 20
10.972876
 30
-15.732384
 70
   192
  0
VERTEX
  8
donut01
 10
-71.116572
 20
31.595138
 30
17.528661
 70
   192
  0
VERTEX
  8
donut01
 10
-63.828790
 20
52.217400
 30
15.732384
 70
   192
  0
VERTEX
  8
donut01
 10
-45.375478
 20
63.190276
 30
11.184051
 70
   192
  0
VERTEX
  8
donut01
 10
-24.391146
 20
59.379437
 30
6.011878
 70
   192
  0
VERTEX
  8
donut01
 10
-10.694596
 20
42.568015
 30
2.635981
 70
   192
  0
VERTEX
  8
donut01
 10
-10.694596
 20
20.622262
 30
2.635981
 70
   192
  0
VERTEX
  8
donut01
 10
-24.391146
 20
3.810840
 30
6.011878
 70
   192
  0
VERTEX
  8
donut01
 10
-45.375478
 20
0.000000
 30
11.184051
 70
   192
  0
VERTEX
  8
donut01
 10
-63.828790
 20
10.972876
 30
15.732384
 70
   192
  0
VERTEX
  8
donut01
 10
-54.824622
 20
31.595138
 30
48.570377
 70
   192
  0
VERTEX
  8
donut01
 10
-49.206383
 20
52.217400
 30
43.593052
 70
   192
  0
VERTEX
  8
donut01
 10
-34.980503
 20
63.190276
 30
30.990021
 70
   192
  0
VERTEX
  8
donut01
 10
-18.803429
 20
59.379437
 30
16.658384
 70
   192
  0
VERTEX
  8
donut01
 10
-8.244593
 20
42.568015
 30
7.304072
 70
   192
  0
VERTEX
  8
donut01
 10
-8.244593
 20
20.622262
 30
7.304072
 70
   192
  0
VERTEX
  8
donut01
 10
-18.803429
 20
3.810840
 30
16.658384
 70
   192
  0
VERTEX
  8
donut01
 10
-34.980503
 20
0.000000
 30
30.990021
 70
   192
  0
VERTEX
  8
donut01
 10
-49.206383
 20
10.972876
 30
43.593052
 70
   192
  0
VERTEX
  8
donut01
 10
-25.973013
 20
31.595138
 30
68.485206
 70
   192
  0
VERTEX
  8
donut01
 10
-23.311387
 20
52.217400
 30
61.467077
 70
   192
  0
VERTEX
  8
donut01
 10
-16.571916
 20
63.190276
 30
43.696552
 70
   192
  0
VERTEX
  8
donut01
 10
-8.908072
 20
59.379437
 30
23.488656
 70
   192
  0
VERTEX
  8
donut01
 10
-3.905853
 20
42.568015
 30
10.298888
 70
   192
  0
VERTEX
  8
donut01
 10
-3.905853
 20
20.622262
 30
10.298888
 70
   192
  0
VERTEX
  8
donut01
 10
-8.908072
 20
3.810840
 30
23.488656
 70
   192
  0
VERTEX
  8
donut01
 10
-16.571916
 20
0.000000
 30
43.696552
 70
   192
  0
VERTEX
  8
donut01
 10
-23.311387
 20
10.972876
 30
61.467077
 70
   192
  0
VERTEX
  8
donut01
 10
8.828702
 20
31.595138
 30
72.710899
 70
   192
  0
VERTEX
  8
donut01
 10
7.923967
 20
52.217400
 30
65.259736
 70
   192
  0
VERTEX
  8
donut01
 10
5.633097
 20
63.190276
 30
46.392728
 70
   192
  0
VERTEX
  8
donut01
 10
3.028016
 20
59.379437
 30
24.937959
 70
   192
  0
VERTEX
  8
donut01
 10
1.327671
 20
42.568015
 30
10.934353
 70
   192
  0
VERTEX
  8
donut01
 10
1.327671
 20
20.622262
 30
10.934353
 70
   192
  0
VERTEX
  8
donut01
 10
3.028016
 20
3.810840
 30
24.937959
 70
   192
  0
VERTEX
  8
donut01
 10
5.633097
 20
0.000000
 30
46.392728
 70
   192
  0
VERTEX
  8
donut01
 10
7.923967
 20
10.972876
 30
65.259736
 70
   192
  0
VERTEX
  8
donut01
 10
41.607866
 20
31.595138
 30
60.279401
 70
   192
  0
VERTEX
  8
donut01
 10
37.344035
 20
52.217400
 30
54.102175
 70
   192
  0
VERTEX
  8
donut01
 10
26.547636
 20
63.190276
 30
38.460890
 70
   192
  0
VERTEX
  8
donut01
 10
14.270423
 20
59.379437
 30
20.674277
 70
   192
  0
VERTEX
  8
donut01
 10
6.257041
 20
42.568015
 30
9.064890
 70
   192
  0
VERTEX
  8
donut01
 10
6.257041
 20
20.622262
 30
9.064890
 70
   192
  0
VERTEX
  8
donut01
 10
14.270423
 20
3.810840
 30
20.674277
 70
   192
  0
VERTEX
  8
donut01
 10
26.547636
 20
0.000000
 30
38.460890
 70
   192
  0
VERTEX
  8
donut01
 10
37.344035
 20
10.972876
 30
54.102175
 70
   192
  0
VERTEX
  8
donut01
 10
64.855171
 20
31.595138
 30
34.038619
 70
   192
  0
VERTEX
  8
donut01
 10
58.209035
 20
52.217400
 30
30.550459
 70
   192
  0
VERTEX
  8
donut01
 10
41.380431
 20
63.190276
 30
21.718125
 70
   192
  0
VERTEX
  8
donut01
 10
22.243647
 20
59.379437
 30
11.674367
 70
   192
  0
VERTEX
  8
donut01
 10
9.752999
 20
42.568015
 30
5.118769
 70
   192
  0
VERTEX
  8
donut01
 10
9.752999
 20
20.622262
 30
5.118769
 70
   192
  0
VERTEX
  8
donut01
 10
22.243647
 20
3.810840
 30
11.674367
 70
   192
  0
VERTEX
  8
donut01
 10
41.380431
 20
0.000000
 30
21.718125
 70
   192
  0
VERTEX
  8
donut01
 10
58.209035
 20
10.972876
 30
30.550459
 70
   192
  0
VERTEX
  8
donut01
 10
0.0
 20
0.0
 30
0.0
 70
   128
 71
   1
 72
   2
 73
   11
  0
VERTEX
  8
donut01
 10
0.0
 20
0.0
 30
0.0
 70
   128
 71
   2
 72
   3
 73
   12
  0
VERTEX
  8
donut01
 10
0.0
 20
0.0
 30
0.0
 70
   128
 71
   3
 72
   4
 73
   13
  0
VERTEX
  8
donut01
 10
0.0
 20
0.0
 30
0.0
 70
   128
 71
   4
 72
   5
 73
   14
  0
VERTEX
  8
donut01
 10
0.0
 20
0.0
 30
0.0
 70
   128
 71
   5
 72
   6
 73
   15
  0
VERTEX
  8
donut01
 10
0.0
 20
0.0
 30
0.0
 70
   128
 71
   6
 72
   7
 73
   16
  0
VERTEX
  8
donut01
 10
0.0
 20
0.0
 30
0.0
 70
   128
 71
   7
 72
   8
 73
   17
  0
VERTEX
  8
donut01
 10
0.0
 20
0.0
 30
0.0
 70
   128
 71
   8
 72
   9
 73
   18
  0
VERTEX
  8
donut01
 10
0.0
 20
0.0
 30
0.0
 70
   128
 71
   9
 72
   1
 73
   10
  0
VERTEX
  8
donut01
 10
0.0
 20
0.0
 30
0.0
 70
   128
 71
   10
 72
   11
 73
   20
  0
VERTEX
  8
donut01
 10
0.0
 20
0.0
 30
0.0
 70
   128
 71
   11
 72
   12
 73
   21
  0
VERTEX
  8
donut01
 10
0.0
 20
0.0
 30
0.0
 70
   128
 71
   12
 72
   13
 73
   22
  0
VERTEX
  8
donut01
 10
0.0
 20
0.0
 30
0.0
 70
   128
 71
   13
 72
   14
 73
   23
  0
VERTEX
  8
donut01
 10
0.0
 20
0.0
 30
0.0
 70
   128
 71
   14
 72
   15
 73
   24
  0
VERTEX
  8
donut01
 10
0.0
 20
0.0
 30
0.0
 70
   128
 71
   15
 72
   16
 73
   25
  0
VERTEX
  8
donut01
 10
0.0
 20
0.0
 30
0.0
 70
   128
 71
   16
 72
   17
 73
   26
  0
VERTEX
  8
donut01
 10
0.0
 20
0.0
 30
0.0
 70
   128
 71
   17
 72
   18
 73
   27
  0
VERTEX
  8
donut01
 10
0.0
 20
0.0
 30
0.0
 70
   128
 71
   18
 72
   10
 73
   19
  0
VERTEX
  8
donut01
 10
0.0
 20
0.0
 30
0.0
 70
   128
 71
   19
 72
   20
 73
   29
  0
VERTEX
  8
donut01
 10
0.0
 20
0.0
 30
0.0
 70
   128
 71
   20
 72
   21
 73
   30
  0
VERTEX
  8
donut01
 10
0.0
 20
0.0
 30
0.0
 70
   128
 71
   21
 72
   22
 73
   31
  0
VERTEX
  8
donut01
 10
0.0
 20
0.0
 30
0.0
 70
   128
 71
   22
 72
   23
 73
   32
  0
VERTEX
  8
donut01
 10
0.0
 20
0.0
 30
0.0
 70
   128
 71
   23
 72
   24
 73
   33
  0
VERTEX
  8
donut01
 10
0.0
 20
0.0
 30
0.0
 70
   128
 71
   24
 72
   25
 73
   34
  0
VERTEX
  8
donut01
 10
0.0
 20
0.0
 30
0.0
 70
   128
 71
   25
 72
   26
 73
   35
  0
VERTEX
  8
donut01
 10
0.0
 20
0.0
 30
0.0
 70
   128
 71
   26
 72
   27
 73
   36
  0
VERTEX
  8
donut01
 10
0.0
 20
0.0
 30
0.0
 70
   128
 71
   27
 72
   19
 73
   28
  0
VERTEX
  8
donut01
 10
0.0
 20
0.0
 30
0.0
 70
   128
 71
   28
 72
   29
 73
   38
  0
VERTEX
  8
donut01
 10
0.0
 20
0.0
 30
0.0
 70
   128
 71
   29
 72
   30
 73
   39
  0
VERTEX
  8
donut01
 10
0.0
 20
0.0
 30
0.0
 70
   128
 71
   30
 72
   31
 73
   40
  0
VERTEX
  8
donut01
 10
0.0
 20
0.0
 30
0.0
 70
   128
 71
   31
 72
   32
 73
   41
  0
VERTEX
  8
donut01
 10
0.0
 20
0.0
 30
0.0
 70
   128
 71
   32
 72
   33
 73
   42
  0
VERTEX
  8
donut01
 10
0.0
 20
0.0
 30
0.0
 70
   128
 71
   33
 72
   34
 73
   43
  0
VERTEX
  8
donut01
 10
0.0
 20
0.0
 30
0.0
 70
   128
 71
   34
 72
   35
 73
   44
  0
VERTEX
  8
donut01
 10
0.0
 20
0.0
 30
0.0
 70
   128
 71
   35
 72
   36
 73
   45
  0
VERTEX
  8
donut01
 10
0.0
 20
0.0
 30
0.0
 70
   128
 71
   36
 72
   28
 73
   37
  0
VERTEX
  8
donut01
 10
0.0
 20
0.0
 30
0.0
 70
   128
 71
   37
 72
   38
 73
   47
  0
VERTEX
  8
donut01
 10
0.0
 20
0.0
 30
0.0
 70
   128
 71
   38
 72
   39
 73
   48
  0
VERTEX
  8
donut01
 10
0.0
 20
0.0
 30
0.0
 70
   128
 71
   39
 72
   40
 73
   49
  0
VERTEX
  8
donut01
 10
0.0
 20
0.0
 30
0.0
 70
   128
 71
   40
 72
   41
 73
   50
  0
VERTEX
  8
donut01
 10
0.0
 20
0.0
 30
0.0
 70
   128
 71
   41
 72
   42
 73
   51
  0
VERTEX
  8
donut01
 10
0.0
 20
0.0
 30
0.0
 70
   128
 71
   42
 72
   43
 73
   52
  0
VERTEX
  8
donut01
 10
0.0
 20
0.0
 30
0.0
 70
   128
 71
   43
 72
   44
 73
   53
  0
VERTEX
  8
donut01
 10
0.0
 20
0.0
 30
0.0
 70
   128
 71
   44
 72
   45
 73
   54
  0
VERTEX
  8
donut01
 10
0.0
 20
0.0
 30
0.0
 70
   128
 71
   45
 72
   37
 73
   46
  0
VERTEX
  8
donut01
 10
0.0
 20
0.0
 30
0.0
 70
   128
 71
   46
 72
   47
 73
   56
  0
VERTEX
  8
donut01
 10
0.0
 20
0.0
 30
0.0
 70
   128
 71
   47
 72
   48
 73
   57
  0
VERTEX
  8
donut01
 10
0.0
 20
0.0
 30
0.0
 70
   128
 71
   48
 72
   49
 73
   58
  0
VERTEX
  8
donut01
 10
0.0
 20
0.0
 30
0.0
 70
   128
 71
   49
 72
   50
 73
   59
  0
VERTEX
  8
donut01
 10
0.0
 20
0.0
 30
0.0
 70
   128
 71
   50
 72
   51
 73
   60
  0
VERTEX
  8
donut01
 10
0.0
 20
0.0
 30
0.0
 70
   128
 71
   51
 72
   52
 73
   61
  0
VERTEX
  8
donut01
 10
0.0
 20
0.0
 30
0.0
 70
   128
 71
   52
 72
   53
 73
   62
  0
VERTEX
  8
donut01
 10
0.0
 20
0.0
 30
0.0
 70
   128
 71
   53
 72
   54
 73
   63
  0
VERTEX
  8
donut01
 10
0.0
 20
0.0
 30
0.0
 70
   128
 71
   54
 72
   46
 73
   55
  0
VERTEX
  8
donut01
 10
0.0
 20
0.0
 30
0.0
 70
   128
 71
   55
 72
   56
 73
   65
  0
VERTEX
  8
donut01
 10
0.0
 20
0.0
 30
0.0
 70
   128
 71
   56
 72
   57
 73
   66
  0
VERTEX
  8
donut01
 10
0.0
 20
0.0
 30
0.0
 70
   128
 71
   57
 72
   58
 73
   67
  0
VERTEX
  8
donut01
 10
0.0
 20
0.0
 30
0.0
 70
   128
 71
   58
 72
   59
 73
   68
  0
VERTEX
  8
donut01
 10
0.0
 20
0.0
 30
0.0
 70
   128
 71
   59
 72
   60
 73
   69
  0
VERTEX
  8
donut01
 10
0.0
 20
0.0
 30
0.0
 70
   128
 71
   60
 72
   61
 73
   70
  0
VERTEX
  8
donut01
 10
0.0
 20
0.0
 30
0.0
 70
   128
 71
   61
 72
   62
 73
   71
  0
VERTEX
  8
donut01
 10
0.0
 20
0.0
 30
0.0
 70
   128
 71
   62
 72
   63
 73
   72
  0
VERTEX
  8
donut01
 10
0.0
 20
0.0
 30
0.0
 70
   128
 71
   63
 72
   55
 73
   64
  0
VERTEX
  8
donut01
 10
0.0
 20
0.0
 30
0.0
 70
   128
 71
   64
 72
   65
 73
   74
  0
VERTEX
  8
donut01
 10
0.0
 20
0.0
 30
0.0
 70
   128
 71
   65
 72
   66
 73
   75
  0
VERTEX
  8
donut01
 10
0.0
 20
0.0
 30
0.0
 70
   128
 71
   66
 72
   67
 73
   76
  0
VERTEX
  8
donut01
 10
0.0
 20
0.0
 30
0.0
 70
   128
 71
   67
 72
   68
 73
   77
  0
VERTEX
  8
donut01
 10
0.0
 20
0.0
 30
0.0
 70
   128
 71
   68
 72
   69
 73
   78
  0
VERTEX
  8
donut01
 10
0.0
 20
0.0
 30
0.0
 70
   128
 71
   69
 72
   70
 73
   79
  0
VERTEX
  8
donut01
 10
0.0
 20
0.0
 30
0.0
 70
   128
 71
   70
 72
   71
 73
   80
  0
VERTEX
  8
donut01
 10
0.0
 20
0.0
 30
0.0
 70
   128
 71
   71
 72
   72
 73
   81
  0
VERTEX
  8
donut01
 10
0.0
 20
0.0
 30
0.0
 70
   128
 71
   72
 72
   64
 73
   73
  0
VERTEX
  8
donut01
 10
0.0
 20
0.0
 30
0.0
 70
   128
 71
   73
 72
   74
 73
   83
  0
VERTEX
  8
donut01
 10
0.0
 20
0.0
 30
0.0
 70
   128
 71
   74
 72
   75
 73
   84
  0
VERTEX
  8
donut01
 10
0.0
 20
0.0
 30
0.0
 70
   128
 71
   75
 72
   76
 73
   85
  0
VERTEX
  8
donut01
 10
0.0
 20
0.0
 30
0.0
 70
   128
 71
   76
 72
   77
 73
   86
  0
VERTEX
  8
donut01
 10
0.0
 20
0.0
 30
0.0
 70
   128
 71
   77
 72
   78
 73
   87
  0
VERTEX
  8
donut01
 10
0.0
 20
0.0
 30
0.0
 70
   128
 71
   78
 72
   79
 73
   88
  0
VERTEX
  8
donut01
 10
0.0
 20
0.0
 30
0.0
 70
   128
 71
   79
 72
   80
 73
   89
  0
VERTEX
  8
donut01
 10
0.0
 20
0.0
 30
0.0
 70
   128
 71
   80
 72
   81
 73
   90
  0
VERTEX
  8
donut01
 10
0.0
 20
0.0
 30
0.0
 70
   128
 71
   81
 72
   73
 73
   82
  0
VERTEX
  8
donut01
 10
0.0
 20
0.0
 30
0.0
 70
   128
 71
   82
 72
   83
 73
   92
  0
VERTEX
  8
donut01
 10
0.0
 20
0.0
 30
0.0
 70
   128
 71
   83
 72
   84
 73
   93
  0
VERTEX
  8
donut01
 10
0.0
 20
0.0
 30
0.0
 70
   128
 71
   84
 72
   85
 73
   94
  0
VERTEX
  8
donut01
 10
0.0
 20
0.0
 30
0.0
 70
   128
 71
   85
 72
   86
 73
   95
  0
VERTEX
  8
donut01
 10
0.0
 20
0.0
 30
0.0
 70
   128
 71
   86
 72
   87
 73
   96
  0
VERTEX
  8
donut01
 10
0.0
 20
0.0
 30
0.0
 70
   128
 71
   87
 72
   88
 73
   97
  0
VERTEX
  8
donut01
 10
0.0
 20
0.0
 30
0.0
 70
   128
 71
   88
 72
   89
 73
   98
  0
VERTEX
  8
donut01
 10
0.0
 20
0.0
 30
0.0
 70
   128
 71
   89
 72
   90
 73
   99
  0
VERTEX
  8
donut01
 10
0.0
 20
0.0
 30
0.0
 70
   128
 71
   90
 72
   82
 73
   91
  0
VERTEX
  8
donut01
 10
0.0
 20
0.0
 30
0.0
 70
   128
 71
   91
 72
   92
 73
   101
  0
VERTEX
  8
donut01
 10
0.0
 20
0.0
 30
0.0
 70
   128
 71
   92
 72
   93
 73
   102
  0
VERTEX
  8
donut01
 10
0.0
 20
0.0
 30
0.0
 70
   128
 71
   93
 72
   94
 73
   103
  0
VERTEX
  8
donut01
 10
0.0
 20
0.0
 30
0.0
 70
   128
 71
   94
 72
   95
 73
   104
  0
VERTEX
  8
donut01
 10
0.0
 20
0.0
 30
0.0
 70
   128
 71
   95
 72
   96
 73
   105
  0
VERTEX
  8
donut01
 10
0.0
 20
0.0
 30
0.0
 70
   128
 71
   96
 72
   97
 73
   106
  0
VERTEX
  8
donut01
 10
0.0
 20
0.0
 30
0.0
 70
   128
 71
   97
 72
   98
 73
   107
  0
VERTEX
  8
donut01
 10
0.0
 20
0.0
 30
0.0
 70
   128
 71
   98
 72
   99
 73
   108
  0
VERTEX
  8
donut01
 10
0.0
 20
0.0
 30
0.0
 70
   128
 71
   99
 72
   91
 73
   100
  0
VERTEX
  8
donut01
 10
0.0
 20
0.0
 30
0.0
 70
   128
 71
   100
 72
   101
 73
   110
  0
VERTEX
  8
donut01
 10
0.0
 20
0.0
 30
0.0
 70
   128
 71
   101
 72
   102
 73
   111
  0
VERTEX
  8
donut01
 10
0.0
 20
0.0
 30
0.0
 70
   128
 71
   102
 72
   103
 73
   112
  0
VERTEX
  8
donut01
 10
0.0
 20
0.0
 30
0.0
 70
   128
 71
   103
 72
   104
 73
   113
  0
VERTEX
  8
donut01
 10
0.0
 20
0.0
 30
0.0
 70
   128
 71
   104
 72
   105
 73
   114
  0
VERTEX
  8
donut01
 10
0.0
 20
0.0
 30
0.0
 70
   128
 71
   105
 72
   106
 73
   115
  0
VERTEX
  8
donut01
 10
0.0
 20
0.0
 30
0.0
 70
   128
 71
   106
 72
   107
 73
   116
  0
VERTEX
  8
donut01
 10
0.0
 20
0.0
 30
0.0
 70
   128
 71
   107
 72
   108
 73
   117
  0
VERTEX
  8
donut01
 10
0.0
 20
0.0
 30
0.0
 70
   128
 71
   108
 72
   100
 73
   109
  0
VERTEX
  8
donut01
 10
0.0
 20
0.0
 30
0.0
 70
   128
 71
   109
 72
   110
 73
   2
  0
VERTEX
  8
donut01
 10
0.0
 20
0.0
 30
0.0
 70
   128
 71
   110
 72
   111
 73
   3
  0
VERTEX
  8
donut01
 10
0.0
 20
0.0
 30
0.0
 70
   128
 71
   111
 72
   112
 73
   4
  0
VERTEX
  8
donut01
 10
0.0
 20
0.0
 30
0.0
 70
   128
 71
   112
 72
   113
 73
   5
  0
VERTEX
  8
donut01
 10
0.0
 20
0.0
 30
0.0
 70
   128
 71
   113
 72
   114
 73
   6
  0
VERTEX
  8
donut01
 10
0.0
 20
0.0
 30
0.0
 70
   128
 71
   114
 72
   115
 73
   7
  0
VERTEX
  8
donut01
 10
0.0
 20
0.0
 30
0.0
 70
   128
 71
   115
 72
   116
 73
   8
  0
VERTEX
  8
donut01
 10
0.0
 20
0.0
 30
0.0
 70
   128
 71
   116
 72
   117
 73
   9
  0
VERTEX
  8
donut01
 10
0.0
 20
0.0
 30
0.0
 70
   128
 71
   117
 72
   109
 73
   1
  0
VERTEX
  8
donut01
 10
0.0
 20
0.0
 30
0.0
 70
   128
 71
   1
 72
   11
 73
   10
  0
VERTEX
  8
donut01
 10
0.0
 20
0.0
 30
0.0
 70
   128
 71
   2
 72
   12
 73
   11
  0
VERTEX
  8
donut01
 10
0.0
 20
0.0
 30
0.0
 70
   128
 71
   3
 72
   13
 73
   12
  0
VERTEX
  8
donut01
 10
0.0
 20
0.0
 30
0.0
 70
   128
 71
   4
 72
   14
 73
   13
  0
VERTEX
  8
donut01
 10
0.0
 20
0.0
 30
0.0
 70
   128
 71
   5
 72
   15
 73
   14
  0
VERTEX
  8
donut01
 10
0.0
 20
0.0
 30
0.0
 70
   128
 71
   6
 72
   16
 73
   15
  0
VERTEX
  8
donut01
 10
0.0
 20
0.0
 30
0.0
 70
   128
 71
   7
 72
   17
 73
   16
  0
VERTEX
  8
donut01
 10
0.0
 20
0.0
 30
0.0
 70
   128
 71
   8
 72
   18
 73
   17
  0
VERTEX
  8
donut01
 10
0.0
 20
0.0
 30
0.0
 70
   128
 71
   9
 72
   10
 73
   18
  0
VERTEX
  8
donut01
 10
0.0
 20
0.0
 30
0.0
 70
   128
 71
   10
 72
   20
 73
   19
  0
VERTEX
  8
donut01
 10
0.0
 20
0.0
 30
0.0
 70
   128
 71
   11
 72
   21
 73
   20
  0
VERTEX
  8
donut01
 10
0.0
 20
0.0
 30
0.0
 70
   128
 71
   12
 72
   22
 73
   21
  0
VERTEX
  8
donut01
 10
0.0
 20
0.0
 30
0.0
 70
   128
 71
   13
 72
   23
 73
   22
  0
VERTEX
  8
donut01
 10
0.0
 20
0.0
 30
0.0
 70
   128
 71
   14
 72
   24
 73
   23
  0
VERTEX
  8
donut01
 10
0.0
 20
0.0
 30
0.0
 70
   128
 71
   15
 72
   25
 73
   24
  0
VERTEX
  8
donut01
 10
0.0
 20
0.0
 30
0.0
 70
   128
 71
   16
 72
   26
 73
   25
  0
VERTEX
  8
donut01
 10
0.0
 20
0.0
 30
0.0
 70
   128
 71
   17
 72
   27
 73
   26
  0
VERTEX
  8
donut01
 10
0.0
 20
0.0
 30
0.0
 70
   128
 71
   18
 72
   19
 73
   27
  0
VERTEX
  8
donut01
 10
0.0
 20
0.0
 30
0.0
 70
   128
 71
   19
 72
   29
 73
   28
  0
VERTEX
  8
donut01
 10
0.0
 20
0.0
 30
0.0
 70
   128
 71
   20
 72
   30
 73
   29
  0
VERTEX
  8
donut01
 10
0.0
 20
0.0
 30
0.0
 70
   128
 71
   21
 72
   31
 73
   30
  0
VERTEX
  8
donut01
 10
0.0
 20
0.0
 30
0.0
 70
   128
 71
   22
 72
   32
 73
   31
  0
VERTEX
  8
donut01
 10
0.0
 20
0.0
 30
0.0
 70
   128
 71
   23
 72
   33
 73
   32
  0
VERTEX
  8
donut01
 10
0.0
 20
0.0
 30
0.0
 70
   128
 71
   24
 72
   34
 73
   33
  0
VERTEX
  8
donut01
 10
0.0
 20
0.0
 30
0.0
 70
   128
 71
   25
 72
   35
 73
   34
  0
VERTEX
  8
donut01
 10
0.0
 20
0.0
 30
0.0
 70
   128
 71
   26
 72
   36
 73
   35
  0
VERTEX
  8
donut01
 10
0.0
 20
0.0
 30
0.0
 70
   128
 71
   27
 72
   28
 73
   36
  0
VERTEX
  8
donut01
 10
0.0
 20
0.0
 30
0.0
 70
   128
 71
   28
 72
   38
 73
   37
  0
VERTEX
  8
donut01
 10
0.0
 20
0.0
 30
0.0
 70
   128
 71
   29
 72
   39
 73
   38
  0
VERTEX
  8
donut01
 10
0.0
 20
0.0
 30
0.0
 70
   128
 71
   30
 72
   40
 73
   39
  0
VERTEX
  8
donut01
 10
0.0
 20
0.0
 30
0.0
 70
   128
 71
   31
 72
   41
 73
   40
  0
VERTEX
  8
donut01
 10
0.0
 20
0.0
 30
0.0
 70
   128
 71
   32
 72
   42
 73
   41
  0
VERTEX
  8
donut01
 10
0.0
 20
0.0
 30
0.0
 70
   128
 71
   33
 72
   43
 73
   42
  0
VERTEX
  8
donut01
 10
0.0
 20
0.0
 30
0.0
 70
   128
 71
   34
 72
   44
 73
   43
  0
VERTEX
  8
donut01
 10
0.0
 20
0.0
 30
0.0
 70
   128
 71
   35
 72
   45
 73
   44
  0
VERTEX
  8
donut01
 10
0.0
 20
0.0
 30
0.0
 70
   128
 71
   36
 72
   37
 73
   45
  0
VERTEX
  8
donut01
 10
0.0
 20
0.0
 30
0.0
 70
   128
 71
   37
 72
   47
 73
   46
  0
VERTEX
  8
donut01
 10
0.0
 20
0.0
 30
0.0
 70
   128
 71
   38
 72
   48
 73
   47
  0
VERTEX
  8
donut01
 10
0.0
 20
0.0
 30
0.0
 70
   128
 71
   39
 72
   49
 73
   48
  0
VERTEX
  8
donut01
 10
0.0
 20
0.0
 30
0.0
 70
   128
 71
   40
 72
   50
 73
   49
  0
VERTEX
  8
donut01
 10
0.0
 20
0.0
 30
0.0
 70
   128
 71
   41
 72
   51
 73
   50
  0
VERTEX
  8
donut01
 10
0.0
 20
0.0
 30
0.0
 70
   128
 71
   42
 72
   52
 73
   51
  0
VERTEX
  8
donut01
 10
0.0
 20
0.0
 30
0.0
 70
   128
 71
   43
 72
   53
 73
   52
  0
VERTEX
  8
donut01
 10
0.0
 20
0.0
 30
0.0
 70
   128
 71
   44
 72
   54
 73
   53
  0
VERTEX
  8
donut01
 10
0.0
 20
0.0
 30
0.0
 70
   128
 71
   45
 72
   46
 73
   54
  0
VERTEX
  8
donut01
 10
0.0
 20
0.0
 30
0.0
 70
   128
 71
   46
 72
   56
 73
   55
  0
VERTEX
  8
donut01
 10
0.0
 20
0.0
 30
0.0
 70
   128
 71
   47
 72
   57
 73
   56
  0
VERTEX
  8
donut01
 10
0.0
 20
0.0
 30
0.0
 70
   128
 71
   48
 72
   58
 73
   57
  0
VERTEX
  8
donut01
 10
0.0
 20
0.0
 30
0.0
 70
   128
 71
   49
 72
   59
 73
   58
  0
VERTEX
  8
donut01
 10
0.0
 20
0.0
 30
0.0
 70
   128
 71
   50
 72
   60
 73
   59
  0
VERTEX
  8
donut01
 10
0.0
 20
0.0
 30
0.0
 70
   128
 71
   51
 72
   61
 73
   60
  0
VERTEX
  8
donut01
 10
0.0
 20
0.0
 30
0.0
 70
   128
 71
   52
 72
   62
 73
   61
  0
VERTEX
  8
donut01
 10
0.0
 20
0.0
 30
0.0
 70
   128
 71
   53
 72
   63
 73
   62
  0
VERTEX
  8
donut01
 10
0.0
 20
0.0
 30
0.0
 70
   128
 71
   54
 72
   55
 73
   63
  0
VERTEX
  8
donut01
 10
0.0
 20
0.0
 30
0.0
 70
   128
 71
   55
 72
   65
 73
   64
  0
VERTEX
  8
donut01
 10
0.0
 20
0.0
 30
0.0
 70
   128
 71
   56
 72
   66
 73
   65
  0
VERTEX
  8
donut01
 10
0.0
 20
0.0
 30
0.0
 70
   128
 71
   57
 72
   67
 73
   66
  0
VERTEX
  8
donut01
 10
0.0
 20
0.0
 30
0.0
 70
   128
 71
   58
 72
   68
 73
   67
  0
VERTEX
  8
donut01
 10
0.0
 20
0.0
 30
0.0
 70
   128
 71
   59
 72
   69
 73
   68
  0
VERTEX
  8
donut01
 10
0.0
 20
0.0
 30
0.0
 70
   128
 71
   60
 72
   70
 73
   69
  0
VERTEX
  8
donut01
 10
0.0
 20
0.0
 30
0.0
 70
   128
 71
   61
 72
   71
 73
   70
  0
VERTEX
  8
donut01
 10
0.0
 20
0.0
 30
0.0
 70
   128
 71
   62
 72
   72
 73
   71
  0
VERTEX
  8
donut01
 10
0.0
 20
0.0
 30
0.0
 70
   128
 71
   63
 72
   64
 73
   72
  0
VERTEX
  8
donut01
 10
0.0
 20
0.0
 30
0.0
 70
   128
 71
   64
 72
   74
 73
   73
  0
VERTEX
  8
donut01
 10
0.0
 20
0.0
 30
0.0
 70
   128
 71
   65
 72
   75
 73
   74
  0
VERTEX
  8
donut01
 10
0.0
 20
0.0
 30
0.0
 70
   128
 71
   66
 72
   76
 73
   75
  0
VERTEX
  8
donut01
 10
0.0
 20
0.0
 30
0.0
 70
   128
 71
   67
 72
   77
 73
   76
  0
VERTEX
  8
donut01
 10
0.0
 20
0.0
 30
0.0
 70
   128
 71
   68
 72
   78
 73
   77
  0
VERTEX
  8
donut01
 10
0.0
 20
0.0
 30
0.0
 70
   128
 71
   69
 72
   79
 73
   78
  0
VERTEX
  8
donut01
 10
0.0
 20
0.0
 30
0.0
 70
   128
 71
   70
 72
   80
 73
   79
  0
VERTEX
  8
donut01
 10
0.0
 20
0.0
 30
0.0
 70
   128
 71
   71
 72
   81
 73
   80
  0
VERTEX
  8
donut01
 10
0.0
 20
0.0
 30
0.0
 70
   128
 71
   72
 72
   73
 73
   81
  0
VERTEX
  8
donut01
 10
0.0
 20
0.0
 30
0.0
 70
   128
 71
   73
 72
   83
 73
   82
  0
VERTEX
  8
donut01
 10
0.0
 20
0.0
 30
0.0
 70
   128
 71
   74
 72
   84
 73
   83
  0
VERTEX
  8
donut01
 10
0.0
 20
0.0
 30
0.0
 70
   128
 71
   75
 72
   85
 73
   84
  0
VERTEX
  8
donut01
 10
0.0
 20
0.0
 30
0.0
 70
   128
 71
   76
 72
   86
 73
   85
  0
VERTEX
  8
donut01
 10
0.0
 20
0.0
 30
0.0
 70
   128
 71
   77
 72
   87
 73
   86
  0
VERTEX
  8
donut01
 10
0.0
 20
0.0
 30
0.0
 70
   128
 71
   78
 72
   88
 73
   87
  0
VERTEX
  8
donut01
 10
0.0
 20
0.0
 30
0.0
 70
   128
 71
   79
 72
   89
 73
   88
  0
VERTEX
  8
donut01
 10
0.0
 20
0.0
 30
0.0
 70
   128
 71
   80
 72
   90
 73
   89
  0
VERTEX
  8
donut01
 10
0.0
 20
0.0
 30
0.0
 70
   128
 71
   81
 72
   82
 73
   90
  0
VERTEX
  8
donut01
 10
0.0
 20
0.0
 30
0.0
 70
   128
 71
   82
 72
   92
 73
   91
  0
VERTEX
  8
donut01
 10
0.0
 20
0.0
 30
0.0
 70
   128
 71
   83
 72
   93
 73
   92
  0
VERTEX
  8
donut01
 10
0.0
 20
0.0
 30
0.0
 70
   128
 71
   84
 72
   94
 73
   93
  0
VERTEX
  8
donut01
 10
0.0
 20
0.0
 30
0.0
 70
   128
 71
   85
 72
   95
 73
   94
  0
VERTEX
  8
donut01
 10
0.0
 20
0.0
 30
0.0
 70
   128
 71
   86
 72
   96
 73
   95
  0
VERTEX
  8
donut01
 10
0.0
 20
0.0
 30
0.0
 70
   128
 71
   87
 72
   97
 73
   96
  0
VERTEX
  8
donut01
 10
0.0
 20
0.0
 30
0.0
 70
   128
 71
   88
 72
   98
 73
   97
  0
VERTEX
  8
donut01
 10
0.0
 20
0.0
 30
0.0
 70
   128
 71
   89
 72
   99
 73
   98
  0
VERTEX
  8
donut01
 10
0.0
 20
0.0
 30
0.0
 70
   128
 71
   90
 72
   91
 73
   99
  0
VERTEX
  8
donut01
 10
0.0
 20
0.0
 30
0.0
 70
   128
 71
   91
 72
   101
 73
   100
  0
VERTEX
  8
donut01
 10
0.0
 20
0.0
 30
0.0
 70
   128
 71
   92
 72
   102
 73
   101
  0
VERTEX
  8
donut01
 10
0.0
 20
0.0
 30
0.0
 70
   128
 71
   93
 72
   103
 73
   102
  0
VERTEX
  8
donut01
 10
0.0
 20
0.0
 30
0.0
 70
   128
 71
   94
 72
   104
 73
   103
  0
VERTEX
  8
donut01
 10
0.0
 20
0.0
 30
0.0
 70
   128
 71
   95
 72
   105
 73
   104
  0
VERTEX
  8
donut01
 10
0.0
 20
0.0
 30
0.0
 70
   128
 71
   96
 72
   106
 73
   105
  0
VERTEX
  8
donut01
 10
0.0
 20
0.0
 30
0.0
 70
   128
 71
   97
 72
   107
 73
   106
  0
VERTEX
  8
donut01
 10
0.0
 20
0.0
 30
0.0
 70
   128
 71
   98
 72
   108
 73
   107
  0
VERTEX
  8
donut01
 10
0.0
 20
0.0
 30
0.0
 70
   128
 71
   99
 72
   100
 73
   108
  0
VERTEX
  8
donut01
 10
0.0
 20
0.0
 30
0.0
 70
   128
 71
   100
 72
   110
 73
   109
  0
VERTEX
  8
donut01
 10
0.0
 20
0.0
 30
0.0
 70
   128
 71
   101
 72
   111
 73
   110
  0
VERTEX
  8
donut01
 10
0.0
 20
0.0
 30
0.0
 70
   128
 71
   102
 72
   112
 73
   111
  0
VERTEX
  8
donut01
 10
0.0
 20
0.0
 30
0.0
 70
   128
 71
   103
 72
   113
 73
   112
  0
VERTEX
  8
donut01
 10
0.0
 20
0.0
 30
0.0
 70
   128
 71
   104
 72
   114
 73
   113
  0
VERTEX
  8
donut01
 10
0.0
 20
0.0
 30
0.0
 70
   128
 71
   105
 72
   115
 73
   114
  0
VERTEX
  8
donut01
 10
0.0
 20
0.0
 30
0.0
 70
   128
 71
   106
 72
   116
 73
   115
  0
VERTEX
  8
donut01
 10
0.0
 20
0.0
 30
0.0
 70
   128
 71
   107
 72
   117
 73
   116
  0
VERTEX
  8
donut01
 10
0.0
 20
0.0
 30
0.0
 70
   128
 71
   108
 72
   109
 73
   117
  0
VERTEX
  8
donut01
 10
0.0
 20
0.0
 30
0.0
 70
   128
 71
   109
 72
   2
 73
   1
  0
VERTEX
  8
donut01
 10
0.0
 20
0.0
 30
0.0
 70
   128
 71
   110
 72
   3
 73
   2
  0
VERTEX
  8
donut01
 10
0.0
 20
0.0
 30
0.0
 70
   128
 71
   111
 72
   4
 73
   3
  0
VERTEX
  8
donut01
 10
0.0
 20
0.0
 30
0.0
 70
   128
 71
   112
 72
   5
 73
   4
  0
VERTEX
  8
donut01
 10
0.0
 20
0.0
 30
0.0
 70
   128
 71
   113
 72
   6
 73
   5
  0
VERTEX
  8
donut01
 10
0.0
 20
0.0
 30
0.0
 70
   128
 71
   114
 72
   7
 73
   6
  0
VERTEX
  8
donut01
 10
0.0
 20
0.0
 30
0.0
 70
   128
 71
   115
 72
   8
 73
   7
  0
VERTEX
  8
donut01
 10
0.0
 20
0.0
 30
0.0
 70
   128
 71
   116
 72
   9
 73
   8
  0
VERTEX
  8
donut01
 10
0.0
 20
0.0
 30
0.0
 70
   128
 71
   117
 72
   1
 73
   9
  0
SEQEND
  0
ENDSEC
  0
EOF
