999
FBX AutoCAD (*.DXF) exporter
  0
SECTION
  2
HEADER
  9
$ACADVER
  1
AC1008
  9
$UCSORG
 10
0.0
 20
0.0
 30
0.0
  9
$UCSXDIR
 10
1.0
 20
0.0
 30
0.0
  9
$TILEMODE
 70
   1
  9
$UCSYDIR
 10
0.0
 20
1.0
 30
0.0
  0
ENDSEC
  0
SECTION
  2
TABLES
  0
TABLE
  2
LTYPE
 70
   1
  0
LTYPE
  2
CONTINUOUS
 70
   64
  3
Solid line
 72
   65
 73
   0
 40
0.0
  0
ENDTAB
  0
TABLE
  2
LAYER
 70
   3
  0
LAYER
  2
fish
 70
   0
 62
   250
  6
CONTINUOUS
  0
LAYER
  2
rice
 70
   0
 62
   250
  6
CONTINUOUS
  0
ENDTAB
  0
ENDSEC
  0
SECTION
  2
BLOCKS
  0
ENDSEC
  0
SECTION
  2
ENTITIES
  0
POLYLINE
  8
fish
 66
   1
 10
0.0
 20
0.0
 30
0.0
 70
   64
 71
   36
 72
   68
  0
VERTEX
  8
fish
 10
8.226428
 20
34.334268
 30
-65.881957
 70
   192
  0
VERTEX
  8
fish
 10
8.226428
 20
86.397211
 30
-63.972774
 70
   192
  0
VERTEX
  8
fish
 10
-8.226428
 20
86.397211
 30
-63.972774
 70
   192
  0
VERTEX
  8
fish
 10
-8.226428
 20
34.334268
 30
-65.881957
 70
   192
  0
VERTEX
  8
fish
 10
41.721859
 20
91.854869
 30
-31.580283
 70
   192
  0
VERTEX
  8
fish
 10
41.721859
 20
40.337660
 30
-32.522755
 70
   192
  0
VERTEX
  8
fish
 10
-41.721859
 20
40.337660
 30
-32.522755
 70
   192
  0
VERTEX
  8
fish
 10
-41.721859
 20
91.854869
 30
-31.580283
 70
   192
  0
VERTEX
  8
fish
 10
24.607090
 20
34.113452
 30
-61.620666
 70
   192
  0
VERTEX
  8
fish
 10
37.443167
 20
38.551672
 30
-48.836795
 70
   192
  0
VERTEX
  8
fish
 10
24.607090
 20
90.434043
 30
-59.834970
 70
   192
  0
VERTEX
  8
fish
 10
37.443167
 20
92.761946
 30
-47.421561
 70
   192
  0
VERTEX
  8
fish
 10
-24.607090
 20
90.434043
 30
-59.834970
 70
   192
  0
VERTEX
  8
fish
 10
-37.443167
 20
92.761946
 30
-47.421561
 70
   192
  0
VERTEX
  8
fish
 10
-24.607090
 20
34.113452
 30
-61.620666
 70
   192
  0
VERTEX
  8
fish
 10
-37.443167
 20
38.551672
 30
-48.836795
 70
   192
  0
VERTEX
  8
fish
 10
-27.373860
 20
73.751370
 30
37.210122
 70
   192
  0
VERTEX
  8
fish
 10
-27.373860
 20
33.928739
 30
38.320609
 70
   192
  0
VERTEX
  8
fish
 10
-9.216916
 20
30.934928
 30
65.881957
 70
   192
  0
VERTEX
  8
fish
 10
-9.216916
 20
56.456725
 30
63.972774
 70
   192
  0
VERTEX
  8
fish
 10
9.216916
 20
56.456725
 30
63.972774
 70
   192
  0
VERTEX
  8
fish
 10
9.216916
 20
30.934928
 30
65.881957
 70
   192
  0
VERTEX
  8
fish
 10
27.373860
 20
33.928739
 30
38.320609
 70
   192
  0
VERTEX
  8
fish
 10
27.373860
 20
73.751370
 30
37.210122
 70
   192
  0
VERTEX
  8
fish
 10
-22.055814
 20
63.645374
 30
56.134174
 70
   192
  0
VERTEX
  8
fish
 10
-22.055814
 20
29.092753
 30
57.809425
 70
   192
  0
VERTEX
  8
fish
 10
22.055814
 20
63.645374
 30
56.134174
 70
   192
  0
VERTEX
  8
fish
 10
22.055814
 20
29.092753
 30
57.809425
 70
   192
  0
VERTEX
  8
fish
 10
35.437086
 20
82.056892
 30
5.650462
 70
   192
  0
VERTEX
  8
fish
 10
35.437086
 20
36.869024
 30
5.819093
 70
   192
  0
VERTEX
  8
fish
 10
-35.437086
 20
36.869024
 30
5.819093
 70
   192
  0
VERTEX
  8
fish
 10
-35.437086
 20
82.056892
 30
5.650462
 70
   192
  0
VERTEX
  8
fish
 10
41.721859
 20
86.086053
 30
-9.659704
 70
   192
  0
VERTEX
  8
fish
 10
41.721859
 20
38.295409
 30
-9.947985
 70
   192
  0
VERTEX
  8
fish
 10
-41.721859
 20
38.295409
 30
-9.947985
 70
   192
  0
VERTEX
  8
fish
 10
-41.721859
 20
86.086053
 30
-9.659704
 70
   192
  0
VERTEX
  8
fish
 10
0.0
 20
0.0
 30
0.0
 70
   128
 71
   19
 72
   20
 73
   21
  0
VERTEX
  8
fish
 10
0.0
 20
0.0
 30
0.0
 70
   128
 71
   23
 72
   24
 73
   29
  0
VERTEX
  8
fish
 10
0.0
 20
0.0
 30
0.0
 70
   128
 71
   1
 72
   2
 73
   3
  0
VERTEX
  8
fish
 10
0.0
 20
0.0
 30
0.0
 70
   128
 71
   32
 72
   17
 73
   18
  0
VERTEX
  8
fish
 10
0.0
 20
0.0
 30
0.0
 70
   128
 71
   24
 72
   27
 73
   21
  0
VERTEX
  8
fish
 10
0.0
 20
0.0
 30
0.0
 70
   128
 71
   22
 72
   28
 73
   23
  0
VERTEX
  8
fish
 10
0.0
 20
0.0
 30
0.0
 70
   128
 71
   20
 72
   25
 73
   17
  0
VERTEX
  8
fish
 10
0.0
 20
0.0
 30
0.0
 70
   128
 71
   24
 72
   17
 73
   32
  0
VERTEX
  8
fish
 10
0.0
 20
0.0
 30
0.0
 70
   128
 71
   29
 72
   33
 73
   34
  0
VERTEX
  8
fish
 10
0.0
 20
0.0
 30
0.0
 70
   128
 71
   30
 72
   31
 73
   18
  0
VERTEX
  8
fish
 10
0.0
 20
0.0
 30
0.0
 70
   128
 71
   18
 72
   19
 73
   22
  0
VERTEX
  8
fish
 10
0.0
 20
0.0
 30
0.0
 70
   128
 71
   31
 72
   35
 73
   36
  0
VERTEX
  8
fish
 10
0.0
 20
0.0
 30
0.0
 70
   128
 71
   1
 72
   9
 73
   11
  0
VERTEX
  8
fish
 10
0.0
 20
0.0
 30
0.0
 70
   128
 71
   7
 72
   16
 73
   14
  0
VERTEX
  8
fish
 10
0.0
 20
0.0
 30
0.0
 70
   128
 71
   9
 72
   10
 73
   12
  0
VERTEX
  8
fish
 10
0.0
 20
0.0
 30
0.0
 70
   128
 71
   10
 72
   6
 73
   5
  0
VERTEX
  8
fish
 10
0.0
 20
0.0
 30
0.0
 70
   128
 71
   16
 72
   15
 73
   13
  0
VERTEX
  8
fish
 10
0.0
 20
0.0
 30
0.0
 70
   128
 71
   15
 72
   4
 73
   3
  0
VERTEX
  8
fish
 10
0.0
 20
0.0
 30
0.0
 70
   128
 71
   20
 72
   17
 73
   24
  0
VERTEX
  8
fish
 10
0.0
 20
0.0
 30
0.0
 70
   128
 71
   33
 72
   5
 73
   6
  0
VERTEX
  8
fish
 10
0.0
 20
0.0
 30
0.0
 70
   128
 71
   32
 72
   36
 73
   33
  0
VERTEX
  8
fish
 10
0.0
 20
0.0
 30
0.0
 70
   128
 71
   18
 72
   26
 73
   19
  0
VERTEX
  8
fish
 10
0.0
 20
0.0
 30
0.0
 70
   128
 71
   35
 72
   7
 73
   8
  0
VERTEX
  8
fish
 10
0.0
 20
0.0
 30
0.0
 70
   128
 71
   8
 72
   14
 73
   13
  0
VERTEX
  8
fish
 10
0.0
 20
0.0
 30
0.0
 70
   128
 71
   17
 72
   25
 73
   26
  0
VERTEX
  8
fish
 10
0.0
 20
0.0
 30
0.0
 70
   128
 71
   21
 72
   27
 73
   28
  0
VERTEX
  8
fish
 10
0.0
 20
0.0
 30
0.0
 70
   128
 71
   25
 72
   20
 73
   19
  0
VERTEX
  8
fish
 10
0.0
 20
0.0
 30
0.0
 70
   128
 71
   27
 72
   24
 73
   23
  0
VERTEX
  8
fish
 10
0.0
 20
0.0
 30
0.0
 70
   128
 71
   5
 72
   8
 73
   3
  0
VERTEX
  8
fish
 10
0.0
 20
0.0
 30
0.0
 70
   128
 71
   30
 72
   34
 73
   35
  0
VERTEX
  8
fish
 10
0.0
 20
0.0
 30
0.0
 70
   128
 71
   5
 72
   2
 73
   11
  0
VERTEX
  8
fish
 10
0.0
 20
0.0
 30
0.0
 70
   128
 71
   36
 72
   8
 73
   5
  0
VERTEX
  8
fish
 10
0.0
 20
0.0
 30
0.0
 70
   128
 71
   6
 72
   10
 73
   9
  0
VERTEX
  8
fish
 10
0.0
 20
0.0
 30
0.0
 70
   128
 71
   7
 72
   6
 73
   1
  0
VERTEX
  8
fish
 10
0.0
 20
0.0
 30
0.0
 70
   128
 71
   7
 72
   4
 73
   15
  0
VERTEX
  8
fish
 10
0.0
 20
0.0
 30
0.0
 70
   128
 71
   35
 72
   34
 73
   6
  0
VERTEX
  8
fish
 10
0.0
 20
0.0
 30
0.0
 70
   128
 71
   19
 72
   21
 73
   22
  0
VERTEX
  8
fish
 10
0.0
 20
0.0
 30
0.0
 70
   128
 71
   23
 72
   29
 73
   30
  0
VERTEX
  8
fish
 10
0.0
 20
0.0
 30
0.0
 70
   128
 71
   1
 72
   3
 73
   4
  0
VERTEX
  8
fish
 10
0.0
 20
0.0
 30
0.0
 70
   128
 71
   32
 72
   18
 73
   31
  0
VERTEX
  8
fish
 10
0.0
 20
0.0
 30
0.0
 70
   128
 71
   24
 72
   32
 73
   29
  0
VERTEX
  8
fish
 10
0.0
 20
0.0
 30
0.0
 70
   128
 71
   29
 72
   34
 73
   30
  0
VERTEX
  8
fish
 10
0.0
 20
0.0
 30
0.0
 70
   128
 71
   30
 72
   18
 73
   23
  0
VERTEX
  8
fish
 10
0.0
 20
0.0
 30
0.0
 70
   128
 71
   18
 72
   22
 73
   23
  0
VERTEX
  8
fish
 10
0.0
 20
0.0
 30
0.0
 70
   128
 71
   31
 72
   36
 73
   32
  0
VERTEX
  8
fish
 10
0.0
 20
0.0
 30
0.0
 70
   128
 71
   1
 72
   11
 73
   2
  0
VERTEX
  8
fish
 10
0.0
 20
0.0
 30
0.0
 70
   128
 71
   7
 72
   14
 73
   8
  0
VERTEX
  8
fish
 10
0.0
 20
0.0
 30
0.0
 70
   128
 71
   9
 72
   12
 73
   11
  0
VERTEX
  8
fish
 10
0.0
 20
0.0
 30
0.0
 70
   128
 71
   10
 72
   5
 73
   12
  0
VERTEX
  8
fish
 10
0.0
 20
0.0
 30
0.0
 70
   128
 71
   16
 72
   13
 73
   14
  0
VERTEX
  8
fish
 10
0.0
 20
0.0
 30
0.0
 70
   128
 71
   15
 72
   3
 73
   13
  0
VERTEX
  8
fish
 10
0.0
 20
0.0
 30
0.0
 70
   128
 71
   20
 72
   24
 73
   21
  0
VERTEX
  8
fish
 10
0.0
 20
0.0
 30
0.0
 70
   128
 71
   33
 72
   6
 73
   34
  0
VERTEX
  8
fish
 10
0.0
 20
0.0
 30
0.0
 70
   128
 71
   32
 72
   33
 73
   29
  0
VERTEX
  8
fish
 10
0.0
 20
0.0
 30
0.0
 70
   128
 71
   35
 72
   8
 73
   36
  0
VERTEX
  8
fish
 10
0.0
 20
0.0
 30
0.0
 70
   128
 71
   8
 72
   13
 73
   3
  0
VERTEX
  8
fish
 10
0.0
 20
0.0
 30
0.0
 70
   128
 71
   17
 72
   26
 73
   18
  0
VERTEX
  8
fish
 10
0.0
 20
0.0
 30
0.0
 70
   128
 71
   21
 72
   28
 73
   22
  0
VERTEX
  8
fish
 10
0.0
 20
0.0
 30
0.0
 70
   128
 71
   25
 72
   19
 73
   26
  0
VERTEX
  8
fish
 10
0.0
 20
0.0
 30
0.0
 70
   128
 71
   27
 72
   23
 73
   28
  0
VERTEX
  8
fish
 10
0.0
 20
0.0
 30
0.0
 70
   128
 71
   5
 72
   3
 73
   2
  0
VERTEX
  8
fish
 10
0.0
 20
0.0
 30
0.0
 70
   128
 71
   30
 72
   35
 73
   31
  0
VERTEX
  8
fish
 10
0.0
 20
0.0
 30
0.0
 70
   128
 71
   5
 72
   11
 73
   12
  0
VERTEX
  8
fish
 10
0.0
 20
0.0
 30
0.0
 70
   128
 71
   36
 72
   5
 73
   33
  0
VERTEX
  8
fish
 10
0.0
 20
0.0
 30
0.0
 70
   128
 71
   6
 72
   9
 73
   1
  0
VERTEX
  8
fish
 10
0.0
 20
0.0
 30
0.0
 70
   128
 71
   7
 72
   1
 73
   4
  0
VERTEX
  8
fish
 10
0.0
 20
0.0
 30
0.0
 70
   128
 71
   7
 72
   15
 73
   16
  0
VERTEX
  8
fish
 10
0.0
 20
0.0
 30
0.0
 70
   128
 71
   35
 72
   6
 73
   7
  0
SEQEND
  0
POLYLINE
  8
rice
 66
   1
 10
0.0
 20
0.0
 30
0.0
 70
   64
 71
   28
 72
   52
  0
VERTEX
  8
rice
 10
-26.900770
 20
0.000000
 30
-38.655608
 70
   192
  0
VERTEX
  8
rice
 10
-26.900770
 20
42.894529
 30
-38.655608
 70
   192
  0
VERTEX
  8
rice
 10
-26.900770
 20
38.538430
 30
33.995815
 70
   192
  0
VERTEX
  8
rice
 10
-26.900770
 20
0.000000
 30
33.995815
 70
   192
  0
VERTEX
  8
rice
 10
-17.186944
 20
0.000000
 30
44.634580
 70
   192
  0
VERTEX
  8
rice
 10
-17.186944
 20
37.377444
 30
44.634580
 70
   192
  0
VERTEX
  8
rice
 10
17.186944
 20
37.377444
 30
44.634580
 70
   192
  0
VERTEX
  8
rice
 10
17.186944
 20
0.000000
 30
44.634580
 70
   192
  0
VERTEX
  8
rice
 10
26.900770
 20
0.000000
 30
33.995815
 70
   192
  0
VERTEX
  8
rice
 10
26.900770
 20
38.538430
 30
33.995815
 70
   192
  0
VERTEX
  8
rice
 10
26.900770
 20
42.894529
 30
-38.655608
 70
   192
  0
VERTEX
  8
rice
 10
26.900770
 20
0.000000
 30
-38.655608
 70
   192
  0
VERTEX
  8
rice
 10
17.186944
 20
0.000000
 30
-49.294373
 70
   192
  0
VERTEX
  8
rice
 10
17.186944
 20
42.894529
 30
-49.294373
 70
   192
  0
VERTEX
  8
rice
 10
-17.186944
 20
42.894529
 30
-49.294373
 70
   192
  0
VERTEX
  8
rice
 10
-17.186944
 20
0.000000
 30
-49.294373
 70
   192
  0
VERTEX
  8
rice
 10
-24.055656
 20
0.000000
 30
-46.178351
 70
   192
  0
VERTEX
  8
rice
 10
-24.055656
 20
42.894529
 30
-46.178351
 70
   192
  0
VERTEX
  8
rice
 10
-24.055656
 20
37.703562
 30
41.518558
 70
   192
  0
VERTEX
  8
rice
 10
-24.055656
 20
0.000000
 30
41.518558
 70
   192
  0
VERTEX
  8
rice
 10
24.055656
 20
37.703562
 30
41.518558
 70
   192
  0
VERTEX
  8
rice
 10
24.055656
 20
0.000000
 30
41.518558
 70
   192
  0
VERTEX
  8
rice
 10
24.055656
 20
42.894529
 30
-46.178351
 70
   192
  0
VERTEX
  8
rice
 10
24.055656
 20
0.000000
 30
-46.178351
 70
   192
  0
VERTEX
  8
rice
 10
-26.900770
 20
0.000000
 30
5.192496
 70
   192
  0
VERTEX
  8
rice
 10
-26.900770
 20
39.840903
 30
5.192496
 70
   192
  0
VERTEX
  8
rice
 10
26.900770
 20
0.000000
 30
5.192496
 70
   192
  0
VERTEX
  8
rice
 10
26.900770
 20
39.840903
 30
5.192496
 70
   192
  0
VERTEX
  8
rice
 10
0.0
 20
0.0
 30
0.0
 70
   128
 71
   5
 72
   6
 73
   7
  0
VERTEX
  8
rice
 10
0.0
 20
0.0
 30
0.0
 70
   128
 71
   28
 72
   11
 73
   12
  0
VERTEX
  8
rice
 10
0.0
 20
0.0
 30
0.0
 70
   128
 71
   13
 72
   14
 73
   15
  0
VERTEX
  8
rice
 10
0.0
 20
0.0
 30
0.0
 70
   128
 71
   26
 72
   3
 73
   4
  0
VERTEX
  8
rice
 10
0.0
 20
0.0
 30
0.0
 70
   128
 71
   6
 72
   19
 73
   3
  0
VERTEX
  8
rice
 10
0.0
 20
0.0
 30
0.0
 70
   128
 71
   16
 72
   17
 73
   1
  0
VERTEX
  8
rice
 10
0.0
 20
0.0
 30
0.0
 70
   128
 71
   6
 72
   3
 73
   10
  0
VERTEX
  8
rice
 10
0.0
 20
0.0
 30
0.0
 70
   128
 71
   3
 72
   26
 73
   28
  0
VERTEX
  8
rice
 10
0.0
 20
0.0
 30
0.0
 70
   128
 71
   2
 72
   18
 73
   15
  0
VERTEX
  8
rice
 10
0.0
 20
0.0
 30
0.0
 70
   128
 71
   2
 72
   15
 73
   14
  0
VERTEX
  8
rice
 10
0.0
 20
0.0
 30
0.0
 70
   128
 71
   14
 72
   23
 73
   11
  0
VERTEX
  8
rice
 10
0.0
 20
0.0
 30
0.0
 70
   128
 71
   10
 72
   21
 73
   7
  0
VERTEX
  8
rice
 10
0.0
 20
0.0
 30
0.0
 70
   128
 71
   16
 72
   1
 73
   12
  0
VERTEX
  8
rice
 10
0.0
 20
0.0
 30
0.0
 70
   128
 71
   1
 72
   25
 73
   27
  0
VERTEX
  8
rice
 10
0.0
 20
0.0
 30
0.0
 70
   128
 71
   4
 72
   20
 73
   5
  0
VERTEX
  8
rice
 10
0.0
 20
0.0
 30
0.0
 70
   128
 71
   4
 72
   5
 73
   8
  0
VERTEX
  8
rice
 10
0.0
 20
0.0
 30
0.0
 70
   128
 71
   8
 72
   22
 73
   9
  0
VERTEX
  8
rice
 10
0.0
 20
0.0
 30
0.0
 70
   128
 71
   12
 72
   24
 73
   13
  0
VERTEX
  8
rice
 10
0.0
 20
0.0
 30
0.0
 70
   128
 71
   5
 72
   20
 73
   19
  0
VERTEX
  8
rice
 10
0.0
 20
0.0
 30
0.0
 70
   128
 71
   9
 72
   22
 73
   21
  0
VERTEX
  8
rice
 10
0.0
 20
0.0
 30
0.0
 70
   128
 71
   13
 72
   24
 73
   23
  0
VERTEX
  8
rice
 10
0.0
 20
0.0
 30
0.0
 70
   128
 71
   1
 72
   17
 73
   18
  0
VERTEX
  8
rice
 10
0.0
 20
0.0
 30
0.0
 70
   128
 71
   20
 72
   4
 73
   3
  0
VERTEX
  8
rice
 10
0.0
 20
0.0
 30
0.0
 70
   128
 71
   22
 72
   8
 73
   7
  0
VERTEX
  8
rice
 10
0.0
 20
0.0
 30
0.0
 70
   128
 71
   24
 72
   12
 73
   11
  0
VERTEX
  8
rice
 10
0.0
 20
0.0
 30
0.0
 70
   128
 71
   17
 72
   16
 73
   15
  0
VERTEX
  8
rice
 10
0.0
 20
0.0
 30
0.0
 70
   128
 71
   27
 72
   9
 73
   10
  0
VERTEX
  8
rice
 10
0.0
 20
0.0
 30
0.0
 70
   128
 71
   25
 72
   1
 73
   2
  0
VERTEX
  8
rice
 10
0.0
 20
0.0
 30
0.0
 70
   128
 71
   26
 72
   2
 73
   11
  0
VERTEX
  8
rice
 10
0.0
 20
0.0
 30
0.0
 70
   128
 71
   25
 72
   4
 73
   9
  0
VERTEX
  8
rice
 10
0.0
 20
0.0
 30
0.0
 70
   128
 71
   5
 72
   7
 73
   8
  0
VERTEX
  8
rice
 10
0.0
 20
0.0
 30
0.0
 70
   128
 71
   28
 72
   12
 73
   27
  0
VERTEX
  8
rice
 10
0.0
 20
0.0
 30
0.0
 70
   128
 71
   13
 72
   15
 73
   16
  0
VERTEX
  8
rice
 10
0.0
 20
0.0
 30
0.0
 70
   128
 71
   26
 72
   4
 73
   25
  0
VERTEX
  8
rice
 10
0.0
 20
0.0
 30
0.0
 70
   128
 71
   6
 72
   10
 73
   7
  0
VERTEX
  8
rice
 10
0.0
 20
0.0
 30
0.0
 70
   128
 71
   3
 72
   28
 73
   10
  0
VERTEX
  8
rice
 10
0.0
 20
0.0
 30
0.0
 70
   128
 71
   2
 72
   14
 73
   11
  0
VERTEX
  8
rice
 10
0.0
 20
0.0
 30
0.0
 70
   128
 71
   16
 72
   12
 73
   13
  0
VERTEX
  8
rice
 10
0.0
 20
0.0
 30
0.0
 70
   128
 71
   1
 72
   27
 73
   12
  0
VERTEX
  8
rice
 10
0.0
 20
0.0
 30
0.0
 70
   128
 71
   4
 72
   8
 73
   9
  0
VERTEX
  8
rice
 10
0.0
 20
0.0
 30
0.0
 70
   128
 71
   5
 72
   19
 73
   6
  0
VERTEX
  8
rice
 10
0.0
 20
0.0
 30
0.0
 70
   128
 71
   9
 72
   21
 73
   10
  0
VERTEX
  8
rice
 10
0.0
 20
0.0
 30
0.0
 70
   128
 71
   13
 72
   23
 73
   14
  0
VERTEX
  8
rice
 10
0.0
 20
0.0
 30
0.0
 70
   128
 71
   1
 72
   18
 73
   2
  0
VERTEX
  8
rice
 10
0.0
 20
0.0
 30
0.0
 70
   128
 71
   20
 72
   3
 73
   19
  0
VERTEX
  8
rice
 10
0.0
 20
0.0
 30
0.0
 70
   128
 71
   22
 72
   7
 73
   21
  0
VERTEX
  8
rice
 10
0.0
 20
0.0
 30
0.0
 70
   128
 71
   24
 72
   11
 73
   23
  0
VERTEX
  8
rice
 10
0.0
 20
0.0
 30
0.0
 70
   128
 71
   17
 72
   15
 73
   18
  0
VERTEX
  8
rice
 10
0.0
 20
0.0
 30
0.0
 70
   128
 71
   27
 72
   10
 73
   28
  0
VERTEX
  8
rice
 10
0.0
 20
0.0
 30
0.0
 70
   128
 71
   25
 72
   2
 73
   26
  0
VERTEX
  8
rice
 10
0.0
 20
0.0
 30
0.0
 70
   128
 71
   26
 72
   11
 73
   28
  0
VERTEX
  8
rice
 10
0.0
 20
0.0
 30
0.0
 70
   128
 71
   25
 72
   9
 73
   27
  0
SEQEND
  0
ENDSEC
  0
EOF
