999
FBX AutoCAD (*.DXF) exporter
  0
SECTION
  2
HEADER
  9
$ACADVER
  1
AC1008
  9
$UCSORG
 10
0.0
 20
0.0
 30
0.0
  9
$UCSXDIR
 10
1.0
 20
0.0
 30
0.0
  9
$TILEMODE
 70
   1
  9
$UCSYDIR
 10
0.0
 20
1.0
 30
0.0
  0
ENDSEC
  0
SECTION
  2
TABLES
  0
TABLE
  2
LTYPE
 70
   1
  0
LTYPE
  2
CONTINUOUS
 70
   64
  3
Solid line
 72
   65
 73
   0
 40
0.0
  0
ENDTAB
  0
TABLE
  2
LAYER
 70
   1
  0
LAYER
  2
candyRoll
 70
   0
 62
   250
  6
CONTINUOUS
  0
ENDTAB
  0
ENDSEC
  0
SECTION
  2
BLOCKS
  0
ENDSEC
  0
SECTION
  2
ENTITIES
  0
POLYLINE
  8
candyRoll
 66
   1
 10
0.0
 20
0.0
 30
0.0
 70
   64
 71
   44
 72
   84
  0
VERTEX
  8
candyRoll
 10
68.691987
 20
41.662071
 30
12.508266
 70
   192
  0
VERTEX
  8
candyRoll
 10
-67.754816
 20
41.662071
 30
12.508266
 70
   192
  0
VERTEX
  8
candyRoll
 10
68.691987
 20
45.334829
 30
0.000000
 70
   192
  0
VERTEX
  8
candyRoll
 10
-67.754816
 20
45.334829
 30
0.000000
 70
   192
  0
VERTEX
  8
candyRoll
 10
68.691987
 20
41.662071
 30
-12.508266
 70
   192
  0
VERTEX
  8
candyRoll
 10
-67.754816
 20
41.662071
 30
-12.508266
 70
   192
  0
VERTEX
  8
candyRoll
 10
68.691987
 20
31.809871
 30
-21.045246
 70
   192
  0
VERTEX
  8
candyRoll
 10
-67.754816
 20
31.809871
 30
-21.045246
 70
   192
  0
VERTEX
  8
candyRoll
 10
68.691987
 20
18.906233
 30
-22.900509
 70
   192
  0
VERTEX
  8
candyRoll
 10
-67.754816
 20
18.906233
 30
-22.900509
 70
   192
  0
VERTEX
  8
candyRoll
 10
68.691987
 20
7.047971
 30
-17.485022
 70
   192
  0
VERTEX
  8
candyRoll
 10
-67.754816
 20
7.047971
 30
-17.485022
 70
   192
  0
VERTEX
  8
candyRoll
 10
68.691987
 20
0.000000
 30
-6.518164
 70
   192
  0
VERTEX
  8
candyRoll
 10
-67.754816
 20
0.000000
 30
-6.518164
 70
   192
  0
VERTEX
  8
candyRoll
 10
68.691987
 20
0.000000
 30
6.518164
 70
   192
  0
VERTEX
  8
candyRoll
 10
-67.754816
 20
0.000000
 30
6.518164
 70
   192
  0
VERTEX
  8
candyRoll
 10
68.691987
 20
7.047971
 30
17.485022
 70
   192
  0
VERTEX
  8
candyRoll
 10
-67.754816
 20
7.047971
 30
17.485022
 70
   192
  0
VERTEX
  8
candyRoll
 10
68.691987
 20
18.906233
 30
22.900509
 70
   192
  0
VERTEX
  8
candyRoll
 10
-67.754816
 20
18.906233
 30
22.900509
 70
   192
  0
VERTEX
  8
candyRoll
 10
68.691987
 20
31.809871
 30
21.045246
 70
   192
  0
VERTEX
  8
candyRoll
 10
-67.754816
 20
31.809871
 30
21.045246
 70
   192
  0
VERTEX
  8
candyRoll
 10
73.337211
 20
37.453581
 30
9.803633
 70
   192
  0
VERTEX
  8
candyRoll
 10
73.337211
 20
40.332187
 30
-0.000000
 70
   192
  0
VERTEX
  8
candyRoll
 10
73.337211
 20
37.453581
 30
-9.803633
 70
   192
  0
VERTEX
  8
candyRoll
 10
73.337211
 20
29.731699
 30
-16.494682
 70
   192
  0
VERTEX
  8
candyRoll
 10
73.337211
 20
19.618184
 30
-17.948786
 70
   192
  0
VERTEX
  8
candyRoll
 10
73.337211
 20
10.324005
 30
-13.704277
 70
   192
  0
VERTEX
  8
candyRoll
 10
73.337211
 20
4.800000
 30
-5.108757
 70
   192
  0
VERTEX
  8
candyRoll
 10
73.337211
 20
4.800000
 30
5.108757
 70
   192
  0
VERTEX
  8
candyRoll
 10
73.337211
 20
10.324005
 30
13.704277
 70
   192
  0
VERTEX
  8
candyRoll
 10
73.337211
 20
19.618184
 30
17.948786
 70
   192
  0
VERTEX
  8
candyRoll
 10
73.337211
 20
29.731699
 30
16.494682
 70
   192
  0
VERTEX
  8
candyRoll
 10
-72.400041
 20
37.453581
 30
9.803633
 70
   192
  0
VERTEX
  8
candyRoll
 10
-72.400041
 20
40.332187
 30
-0.000000
 70
   192
  0
VERTEX
  8
candyRoll
 10
-72.400041
 20
37.453581
 30
-9.803633
 70
   192
  0
VERTEX
  8
candyRoll
 10
-72.400041
 20
29.731699
 30
-16.494682
 70
   192
  0
VERTEX
  8
candyRoll
 10
-72.400041
 20
19.618184
 30
-17.948786
 70
   192
  0
VERTEX
  8
candyRoll
 10
-72.400041
 20
10.324005
 30
-13.704277
 70
   192
  0
VERTEX
  8
candyRoll
 10
-72.400041
 20
4.800000
 30
-5.108757
 70
   192
  0
VERTEX
  8
candyRoll
 10
-72.400041
 20
4.800000
 30
5.108757
 70
   192
  0
VERTEX
  8
candyRoll
 10
-72.400041
 20
10.324005
 30
13.704277
 70
   192
  0
VERTEX
  8
candyRoll
 10
-72.400041
 20
19.618184
 30
17.948786
 70
   192
  0
VERTEX
  8
candyRoll
 10
-72.400041
 20
29.731699
 30
16.494682
 70
   192
  0
VERTEX
  8
candyRoll
 10
0.0
 20
0.0
 30
0.0
 70
   128
 71
   32
 72
   23
 73
   27
  0
VERTEX
  8
candyRoll
 10
0.0
 20
0.0
 30
0.0
 70
   128
 71
   3
 72
   4
 73
   6
  0
VERTEX
  8
candyRoll
 10
0.0
 20
0.0
 30
0.0
 70
   128
 71
   35
 72
   34
 73
   36
  0
VERTEX
  8
candyRoll
 10
0.0
 20
0.0
 30
0.0
 70
   128
 71
   29
 72
   30
 73
   31
  0
VERTEX
  8
candyRoll
 10
0.0
 20
0.0
 30
0.0
 70
   128
 71
   5
 72
   6
 73
   8
  0
VERTEX
  8
candyRoll
 10
0.0
 20
0.0
 30
0.0
 70
   128
 71
   23
 72
   32
 73
   33
  0
VERTEX
  8
candyRoll
 10
0.0
 20
0.0
 30
0.0
 70
   128
 71
   23
 72
   24
 73
   25
  0
VERTEX
  8
candyRoll
 10
0.0
 20
0.0
 30
0.0
 70
   128
 71
   7
 72
   8
 73
   10
  0
VERTEX
  8
candyRoll
 10
0.0
 20
0.0
 30
0.0
 70
   128
 71
   23
 72
   25
 73
   26
  0
VERTEX
  8
candyRoll
 10
0.0
 20
0.0
 30
0.0
 70
   128
 71
   28
 72
   29
 73
   31
  0
VERTEX
  8
candyRoll
 10
0.0
 20
0.0
 30
0.0
 70
   128
 71
   9
 72
   10
 73
   12
  0
VERTEX
  8
candyRoll
 10
0.0
 20
0.0
 30
0.0
 70
   128
 71
   34
 72
   44
 73
   43
  0
VERTEX
  8
candyRoll
 10
0.0
 20
0.0
 30
0.0
 70
   128
 71
   39
 72
   38
 73
   34
  0
VERTEX
  8
candyRoll
 10
0.0
 20
0.0
 30
0.0
 70
   128
 71
   11
 72
   12
 73
   14
  0
VERTEX
  8
candyRoll
 10
0.0
 20
0.0
 30
0.0
 70
   128
 71
   39
 72
   43
 73
   42
  0
VERTEX
  8
candyRoll
 10
0.0
 20
0.0
 30
0.0
 70
   128
 71
   42
 72
   41
 73
   40
  0
VERTEX
  8
candyRoll
 10
0.0
 20
0.0
 30
0.0
 70
   128
 71
   13
 72
   14
 73
   16
  0
VERTEX
  8
candyRoll
 10
0.0
 20
0.0
 30
0.0
 70
   128
 71
   36
 72
   34
 73
   38
  0
VERTEX
  8
candyRoll
 10
0.0
 20
0.0
 30
0.0
 70
   128
 71
   19
 72
   20
 73
   22
  0
VERTEX
  8
candyRoll
 10
0.0
 20
0.0
 30
0.0
 70
   128
 71
   15
 72
   16
 73
   18
  0
VERTEX
  8
candyRoll
 10
0.0
 20
0.0
 30
0.0
 70
   128
 71
   21
 72
   22
 73
   2
  0
VERTEX
  8
candyRoll
 10
0.0
 20
0.0
 30
0.0
 70
   128
 71
   1
 72
   2
 73
   4
  0
VERTEX
  8
candyRoll
 10
0.0
 20
0.0
 30
0.0
 70
   128
 71
   17
 72
   18
 73
   20
  0
VERTEX
  8
candyRoll
 10
0.0
 20
0.0
 30
0.0
 70
   128
 71
   1
 72
   23
 73
   33
  0
VERTEX
  8
candyRoll
 10
0.0
 20
0.0
 30
0.0
 70
   128
 71
   21
 72
   33
 73
   32
  0
VERTEX
  8
candyRoll
 10
0.0
 20
0.0
 30
0.0
 70
   128
 71
   19
 72
   32
 73
   31
  0
VERTEX
  8
candyRoll
 10
0.0
 20
0.0
 30
0.0
 70
   128
 71
   17
 72
   31
 73
   30
  0
VERTEX
  8
candyRoll
 10
0.0
 20
0.0
 30
0.0
 70
   128
 71
   15
 72
   30
 73
   29
  0
VERTEX
  8
candyRoll
 10
0.0
 20
0.0
 30
0.0
 70
   128
 71
   13
 72
   29
 73
   28
  0
VERTEX
  8
candyRoll
 10
0.0
 20
0.0
 30
0.0
 70
   128
 71
   11
 72
   28
 73
   27
  0
VERTEX
  8
candyRoll
 10
0.0
 20
0.0
 30
0.0
 70
   128
 71
   9
 72
   27
 73
   26
  0
VERTEX
  8
candyRoll
 10
0.0
 20
0.0
 30
0.0
 70
   128
 71
   7
 72
   26
 73
   25
  0
VERTEX
  8
candyRoll
 10
0.0
 20
0.0
 30
0.0
 70
   128
 71
   5
 72
   25
 73
   24
  0
VERTEX
  8
candyRoll
 10
0.0
 20
0.0
 30
0.0
 70
   128
 71
   3
 72
   24
 73
   23
  0
VERTEX
  8
candyRoll
 10
0.0
 20
0.0
 30
0.0
 70
   128
 71
   4
 72
   35
 73
   36
  0
VERTEX
  8
candyRoll
 10
0.0
 20
0.0
 30
0.0
 70
   128
 71
   6
 72
   36
 73
   37
  0
VERTEX
  8
candyRoll
 10
0.0
 20
0.0
 30
0.0
 70
   128
 71
   8
 72
   37
 73
   38
  0
VERTEX
  8
candyRoll
 10
0.0
 20
0.0
 30
0.0
 70
   128
 71
   10
 72
   38
 73
   39
  0
VERTEX
  8
candyRoll
 10
0.0
 20
0.0
 30
0.0
 70
   128
 71
   12
 72
   39
 73
   40
  0
VERTEX
  8
candyRoll
 10
0.0
 20
0.0
 30
0.0
 70
   128
 71
   14
 72
   40
 73
   41
  0
VERTEX
  8
candyRoll
 10
0.0
 20
0.0
 30
0.0
 70
   128
 71
   16
 72
   41
 73
   42
  0
VERTEX
  8
candyRoll
 10
0.0
 20
0.0
 30
0.0
 70
   128
 71
   18
 72
   42
 73
   43
  0
VERTEX
  8
candyRoll
 10
0.0
 20
0.0
 30
0.0
 70
   128
 71
   20
 72
   43
 73
   44
  0
VERTEX
  8
candyRoll
 10
0.0
 20
0.0
 30
0.0
 70
   128
 71
   22
 72
   44
 73
   34
  0
VERTEX
  8
candyRoll
 10
0.0
 20
0.0
 30
0.0
 70
   128
 71
   2
 72
   34
 73
   35
  0
VERTEX
  8
candyRoll
 10
0.0
 20
0.0
 30
0.0
 70
   128
 71
   32
 72
   27
 73
   28
  0
VERTEX
  8
candyRoll
 10
0.0
 20
0.0
 30
0.0
 70
   128
 71
   3
 72
   6
 73
   5
  0
VERTEX
  8
candyRoll
 10
0.0
 20
0.0
 30
0.0
 70
   128
 71
   5
 72
   8
 73
   7
  0
VERTEX
  8
candyRoll
 10
0.0
 20
0.0
 30
0.0
 70
   128
 71
   7
 72
   10
 73
   9
  0
VERTEX
  8
candyRoll
 10
0.0
 20
0.0
 30
0.0
 70
   128
 71
   23
 72
   26
 73
   27
  0
VERTEX
  8
candyRoll
 10
0.0
 20
0.0
 30
0.0
 70
   128
 71
   28
 72
   31
 73
   32
  0
VERTEX
  8
candyRoll
 10
0.0
 20
0.0
 30
0.0
 70
   128
 71
   9
 72
   12
 73
   11
  0
VERTEX
  8
candyRoll
 10
0.0
 20
0.0
 30
0.0
 70
   128
 71
   39
 72
   34
 73
   43
  0
VERTEX
  8
candyRoll
 10
0.0
 20
0.0
 30
0.0
 70
   128
 71
   11
 72
   14
 73
   13
  0
VERTEX
  8
candyRoll
 10
0.0
 20
0.0
 30
0.0
 70
   128
 71
   39
 72
   42
 73
   40
  0
VERTEX
  8
candyRoll
 10
0.0
 20
0.0
 30
0.0
 70
   128
 71
   13
 72
   16
 73
   15
  0
VERTEX
  8
candyRoll
 10
0.0
 20
0.0
 30
0.0
 70
   128
 71
   36
 72
   38
 73
   37
  0
VERTEX
  8
candyRoll
 10
0.0
 20
0.0
 30
0.0
 70
   128
 71
   19
 72
   22
 73
   21
  0
VERTEX
  8
candyRoll
 10
0.0
 20
0.0
 30
0.0
 70
   128
 71
   15
 72
   18
 73
   17
  0
VERTEX
  8
candyRoll
 10
0.0
 20
0.0
 30
0.0
 70
   128
 71
   21
 72
   2
 73
   1
  0
VERTEX
  8
candyRoll
 10
0.0
 20
0.0
 30
0.0
 70
   128
 71
   1
 72
   4
 73
   3
  0
VERTEX
  8
candyRoll
 10
0.0
 20
0.0
 30
0.0
 70
   128
 71
   17
 72
   20
 73
   19
  0
VERTEX
  8
candyRoll
 10
0.0
 20
0.0
 30
0.0
 70
   128
 71
   1
 72
   33
 73
   21
  0
VERTEX
  8
candyRoll
 10
0.0
 20
0.0
 30
0.0
 70
   128
 71
   21
 72
   32
 73
   19
  0
VERTEX
  8
candyRoll
 10
0.0
 20
0.0
 30
0.0
 70
   128
 71
   19
 72
   31
 73
   17
  0
VERTEX
  8
candyRoll
 10
0.0
 20
0.0
 30
0.0
 70
   128
 71
   17
 72
   30
 73
   15
  0
VERTEX
  8
candyRoll
 10
0.0
 20
0.0
 30
0.0
 70
   128
 71
   15
 72
   29
 73
   13
  0
VERTEX
  8
candyRoll
 10
0.0
 20
0.0
 30
0.0
 70
   128
 71
   13
 72
   28
 73
   11
  0
VERTEX
  8
candyRoll
 10
0.0
 20
0.0
 30
0.0
 70
   128
 71
   11
 72
   27
 73
   9
  0
VERTEX
  8
candyRoll
 10
0.0
 20
0.0
 30
0.0
 70
   128
 71
   9
 72
   26
 73
   7
  0
VERTEX
  8
candyRoll
 10
0.0
 20
0.0
 30
0.0
 70
   128
 71
   7
 72
   25
 73
   5
  0
VERTEX
  8
candyRoll
 10
0.0
 20
0.0
 30
0.0
 70
   128
 71
   5
 72
   24
 73
   3
  0
VERTEX
  8
candyRoll
 10
0.0
 20
0.0
 30
0.0
 70
   128
 71
   3
 72
   23
 73
   1
  0
VERTEX
  8
candyRoll
 10
0.0
 20
0.0
 30
0.0
 70
   128
 71
   4
 72
   36
 73
   6
  0
VERTEX
  8
candyRoll
 10
0.0
 20
0.0
 30
0.0
 70
   128
 71
   6
 72
   37
 73
   8
  0
VERTEX
  8
candyRoll
 10
0.0
 20
0.0
 30
0.0
 70
   128
 71
   8
 72
   38
 73
   10
  0
VERTEX
  8
candyRoll
 10
0.0
 20
0.0
 30
0.0
 70
   128
 71
   10
 72
   39
 73
   12
  0
VERTEX
  8
candyRoll
 10
0.0
 20
0.0
 30
0.0
 70
   128
 71
   12
 72
   40
 73
   14
  0
VERTEX
  8
candyRoll
 10
0.0
 20
0.0
 30
0.0
 70
   128
 71
   14
 72
   41
 73
   16
  0
VERTEX
  8
candyRoll
 10
0.0
 20
0.0
 30
0.0
 70
   128
 71
   16
 72
   42
 73
   18
  0
VERTEX
  8
candyRoll
 10
0.0
 20
0.0
 30
0.0
 70
   128
 71
   18
 72
   43
 73
   20
  0
VERTEX
  8
candyRoll
 10
0.0
 20
0.0
 30
0.0
 70
   128
 71
   20
 72
   44
 73
   22
  0
VERTEX
  8
candyRoll
 10
0.0
 20
0.0
 30
0.0
 70
   128
 71
   22
 72
   34
 73
   2
  0
VERTEX
  8
candyRoll
 10
0.0
 20
0.0
 30
0.0
 70
   128
 71
   2
 72
   35
 73
   4
  0
SEQEND
  0
ENDSEC
  0
EOF
