999
FBX AutoCAD (*.DXF) exporter
  0
SECTION
  2
HEADER
  9
$ACADVER
  1
AC1008
  9
$UCSORG
 10
0.0
 20
0.0
 30
0.0
  9
$UCSXDIR
 10
1.0
 20
0.0
 30
0.0
  9
$TILEMODE
 70
   1
  9
$UCSYDIR
 10
0.0
 20
1.0
 30
0.0
  0
ENDSEC
  0
SECTION
  2
TABLES
  0
TABLE
  2
LTYPE
 70
   1
  0
LTYPE
  2
CONTINUOUS
 70
   64
  3
Solid line
 72
   65
 73
   0
 40
0.0
  0
ENDTAB
  0
TABLE
  2
LAYER
 70
   6
  0
LAYER
  2
iceCream_2
 70
   0
 62
   250
  6
CONTINUOUS
  0
LAYER
  2
iceCream_3
 70
   0
 62
   250
  6
CONTINUOUS
  0
LAYER
  2
iceCream_4
 70
   0
 62
   250
  6
CONTINUOUS
  0
LAYER
  2
iceCream_5
 70
   0
 62
   250
  6
CONTINUOUS
  0
LAYER
  2
iceCream_6
 70
   0
 62
   250
  6
CONTINUOUS
  0
ENDTAB
  0
ENDSEC
  0
SECTION
  2
BLOCKS
  0
ENDSEC
  0
SECTION
  2
ENTITIES
  0
POLYLINE
  8
iceCream_2
 66
   1
 10
0.0
 20
0.0
 30
0.0
 70
   64
 71
   173
 72
   298
  0
VERTEX
  8
iceCream_2
 10
53.914311
 20
39.453188
 30
31.127442
 70
   192
  0
VERTEX
  8
iceCream_2
 10
22.288500
 20
36.409993
 30
12.868271
 70
   192
  0
VERTEX
  8
iceCream_2
 10
68.341275
 20
62.569004
 30
0.000000
 70
   192
  0
VERTEX
  8
iceCream_2
 10
85.247914
 20
73.604600
 30
0.000000
 70
   192
  0
VERTEX
  8
iceCream_2
 10
87.276711
 20
113.504270
 30
0.000000
 70
   192
  0
VERTEX
  8
iceCream_2
 10
95.391898
 20
113.504270
 30
0.000000
 70
   192
  0
VERTEX
  8
iceCream_2
 10
96.406296
 20
77.662194
 30
0.000000
 70
   192
  0
VERTEX
  8
iceCream_2
 10
90.996172
 20
55.683562
 30
0.000000
 70
   192
  0
VERTEX
  8
iceCream_2
 10
62.254884
 20
39.453188
 30
0.000000
 70
   192
  0
VERTEX
  8
iceCream_2
 10
25.736543
 20
36.409993
 30
0.000000
 70
   192
  0
VERTEX
  8
iceCream_2
 10
11.873098
 20
22.208416
 30
0.000000
 70
   192
  0
VERTEX
  8
iceCream_2
 10
13.901895
 20
13.755096
 30
0.000000
 70
   192
  0
VERTEX
  8
iceCream_2
 10
55.492228
 20
6.992440
 30
0.000000
 70
   192
  0
VERTEX
  8
iceCream_2
 10
57.182892
 20
0.229784
 30
0.000000
 70
   192
  0
VERTEX
  8
iceCream_2
 10
0.038450
 20
-0.108348
 30
0.000000
 70
   192
  0
VERTEX
  8
iceCream_2
 10
10.282405
 20
22.208416
 30
5.936549
 70
   192
  0
VERTEX
  8
iceCream_2
 10
12.039394
 20
13.755096
 30
6.950947
 70
   192
  0
VERTEX
  8
iceCream_2
 10
59.185280
 20
62.569004
 30
-34.170637
 70
   192
  0
VERTEX
  8
iceCream_2
 10
73.826859
 20
73.604600
 30
-42.623957
 70
   192
  0
VERTEX
  8
iceCream_2
 10
75.583849
 20
113.504270
 30
-43.638355
 70
   192
  0
VERTEX
  8
iceCream_2
 10
82.611807
 20
113.504270
 30
-47.695949
 70
   192
  0
VERTEX
  8
iceCream_2
 10
83.490302
 20
77.662194
 30
-48.203148
 70
   192
  0
VERTEX
  8
iceCream_2
 10
78.804996
 20
55.683562
 30
-45.498086
 70
   192
  0
VERTEX
  8
iceCream_2
 10
53.914311
 20
39.453188
 30
-31.127442
 70
   192
  0
VERTEX
  8
iceCream_2
 10
22.288500
 20
36.409993
 30
-12.868271
 70
   192
  0
VERTEX
  8
iceCream_2
 10
10.282405
 20
22.208416
 30
-5.936549
 70
   192
  0
VERTEX
  8
iceCream_2
 10
12.039394
 20
13.755096
 30
-6.950947
 70
   192
  0
VERTEX
  8
iceCream_2
 10
48.057680
 20
6.992440
 30
-27.746114
 70
   192
  0
VERTEX
  8
iceCream_2
 10
49.521837
 20
0.229784
 30
-28.591446
 70
   192
  0
VERTEX
  8
iceCream_2
 10
0.033299
 20
-0.108348
 30
-0.019225
 70
   192
  0
VERTEX
  8
iceCream_2
 10
48.057680
 20
6.992440
 30
27.746114
 70
   192
  0
VERTEX
  8
iceCream_2
 10
49.521837
 20
0.229784
 30
28.591446
 70
   192
  0
VERTEX
  8
iceCream_2
 10
34.170637
 20
62.569004
 30
-59.185280
 70
   192
  0
VERTEX
  8
iceCream_2
 10
42.623957
 20
73.604600
 30
-73.826859
 70
   192
  0
VERTEX
  8
iceCream_2
 10
43.638355
 20
113.504270
 30
-75.583849
 70
   192
  0
VERTEX
  8
iceCream_2
 10
47.695949
 20
113.504270
 30
-82.611807
 70
   192
  0
VERTEX
  8
iceCream_2
 10
48.203148
 20
77.662194
 30
-83.490302
 70
   192
  0
VERTEX
  8
iceCream_2
 10
45.498086
 20
55.683562
 30
-78.804996
 70
   192
  0
VERTEX
  8
iceCream_2
 10
31.127442
 20
39.453188
 30
-53.914311
 70
   192
  0
VERTEX
  8
iceCream_2
 10
12.868271
 20
36.409993
 30
-22.288500
 70
   192
  0
VERTEX
  8
iceCream_2
 10
5.936549
 20
22.208416
 30
-10.282405
 70
   192
  0
VERTEX
  8
iceCream_2
 10
6.950947
 20
13.755096
 30
-12.039394
 70
   192
  0
VERTEX
  8
iceCream_2
 10
27.746114
 20
6.992440
 30
-48.057680
 70
   192
  0
VERTEX
  8
iceCream_2
 10
28.591446
 20
0.229784
 30
-49.521837
 70
   192
  0
VERTEX
  8
iceCream_2
 10
0.019225
 20
-0.108348
 30
-0.033299
 70
   192
  0
VERTEX
  8
iceCream_2
 10
0.033299
 20
-0.108348
 30
0.019225
 70
   192
  0
VERTEX
  8
iceCream_2
 10
0.000000
 20
0.000000
 30
0.000000
 70
   192
  0
VERTEX
  8
iceCream_2
 10
0.000000
 20
62.569004
 30
-68.341275
 70
   192
  0
VERTEX
  8
iceCream_2
 10
0.000000
 20
73.604600
 30
-85.247914
 70
   192
  0
VERTEX
  8
iceCream_2
 10
0.000000
 20
113.504270
 30
-87.276711
 70
   192
  0
VERTEX
  8
iceCream_2
 10
0.000000
 20
113.504270
 30
-95.391898
 70
   192
  0
VERTEX
  8
iceCream_2
 10
0.000000
 20
77.662194
 30
-96.406296
 70
   192
  0
VERTEX
  8
iceCream_2
 10
0.000000
 20
55.683562
 30
-90.996172
 70
   192
  0
VERTEX
  8
iceCream_2
 10
0.000000
 20
39.453188
 30
-62.254884
 70
   192
  0
VERTEX
  8
iceCream_2
 10
0.000000
 20
36.409993
 30
-25.736543
 70
   192
  0
VERTEX
  8
iceCream_2
 10
0.000000
 20
22.208416
 30
-11.873098
 70
   192
  0
VERTEX
  8
iceCream_2
 10
0.000000
 20
13.755096
 30
-13.901895
 70
   192
  0
VERTEX
  8
iceCream_2
 10
0.000000
 20
6.992440
 30
-55.492228
 70
   192
  0
VERTEX
  8
iceCream_2
 10
0.000000
 20
0.229784
 30
-57.182892
 70
   192
  0
VERTEX
  8
iceCream_2
 10
0.000000
 20
-0.108348
 30
-0.038450
 70
   192
  0
VERTEX
  8
iceCream_2
 10
0.000000
 20
0.000000
 30
0.000000
 70
   192
  0
VERTEX
  8
iceCream_2
 10
0.000000
 20
0.000000
 30
0.000000
 70
   192
  0
VERTEX
  8
iceCream_2
 10
-34.170637
 20
62.569004
 30
-59.185280
 70
   192
  0
VERTEX
  8
iceCream_2
 10
-42.623957
 20
73.604600
 30
-73.826859
 70
   192
  0
VERTEX
  8
iceCream_2
 10
-43.638355
 20
113.504270
 30
-75.583849
 70
   192
  0
VERTEX
  8
iceCream_2
 10
-47.695949
 20
113.504270
 30
-82.611807
 70
   192
  0
VERTEX
  8
iceCream_2
 10
-48.203148
 20
77.662194
 30
-83.490302
 70
   192
  0
VERTEX
  8
iceCream_2
 10
-45.498086
 20
55.683562
 30
-78.804996
 70
   192
  0
VERTEX
  8
iceCream_2
 10
-31.127442
 20
39.453188
 30
-53.914311
 70
   192
  0
VERTEX
  8
iceCream_2
 10
-12.868271
 20
36.409993
 30
-22.288500
 70
   192
  0
VERTEX
  8
iceCream_2
 10
-5.936549
 20
22.208416
 30
-10.282405
 70
   192
  0
VERTEX
  8
iceCream_2
 10
-6.950947
 20
13.755096
 30
-12.039394
 70
   192
  0
VERTEX
  8
iceCream_2
 10
-27.746114
 20
6.992440
 30
-48.057680
 70
   192
  0
VERTEX
  8
iceCream_2
 10
-28.591446
 20
0.229784
 30
-49.521837
 70
   192
  0
VERTEX
  8
iceCream_2
 10
-0.019225
 20
-0.108348
 30
-0.033299
 70
   192
  0
VERTEX
  8
iceCream_2
 10
0.000000
 20
0.000000
 30
0.000000
 70
   192
  0
VERTEX
  8
iceCream_2
 10
0.000000
 20
0.000000
 30
0.000000
 70
   192
  0
VERTEX
  8
iceCream_2
 10
-59.185280
 20
62.569004
 30
-34.170637
 70
   192
  0
VERTEX
  8
iceCream_2
 10
-73.826859
 20
73.604600
 30
-42.623957
 70
   192
  0
VERTEX
  8
iceCream_2
 10
-75.583849
 20
113.504270
 30
-43.638355
 70
   192
  0
VERTEX
  8
iceCream_2
 10
-82.611807
 20
113.504270
 30
-47.695949
 70
   192
  0
VERTEX
  8
iceCream_2
 10
-83.490302
 20
77.662194
 30
-48.203148
 70
   192
  0
VERTEX
  8
iceCream_2
 10
-78.804996
 20
55.683562
 30
-45.498086
 70
   192
  0
VERTEX
  8
iceCream_2
 10
-53.914311
 20
39.453188
 30
-31.127442
 70
   192
  0
VERTEX
  8
iceCream_2
 10
-22.288500
 20
36.409993
 30
-12.868271
 70
   192
  0
VERTEX
  8
iceCream_2
 10
-10.282405
 20
22.208416
 30
-5.936549
 70
   192
  0
VERTEX
  8
iceCream_2
 10
-12.039394
 20
13.755096
 30
-6.950947
 70
   192
  0
VERTEX
  8
iceCream_2
 10
-48.057680
 20
6.992440
 30
-27.746114
 70
   192
  0
VERTEX
  8
iceCream_2
 10
-49.521837
 20
0.229784
 30
-28.591446
 70
   192
  0
VERTEX
  8
iceCream_2
 10
-0.033299
 20
-0.108348
 30
-0.019225
 70
   192
  0
VERTEX
  8
iceCream_2
 10
0.000000
 20
0.000000
 30
0.000000
 70
   192
  0
VERTEX
  8
iceCream_2
 10
0.000000
 20
0.000000
 30
0.000000
 70
   192
  0
VERTEX
  8
iceCream_2
 10
-68.341275
 20
62.569004
 30
-0.000000
 70
   192
  0
VERTEX
  8
iceCream_2
 10
-85.247914
 20
73.604600
 30
-0.000000
 70
   192
  0
VERTEX
  8
iceCream_2
 10
-87.276711
 20
113.504270
 30
-0.000000
 70
   192
  0
VERTEX
  8
iceCream_2
 10
-95.391898
 20
113.504270
 30
-0.000000
 70
   192
  0
VERTEX
  8
iceCream_2
 10
-96.406296
 20
77.662194
 30
-0.000000
 70
   192
  0
VERTEX
  8
iceCream_2
 10
-90.996172
 20
55.683562
 30
-0.000000
 70
   192
  0
VERTEX
  8
iceCream_2
 10
-62.254884
 20
39.453188
 30
-0.000000
 70
   192
  0
VERTEX
  8
iceCream_2
 10
-25.736543
 20
36.409993
 30
-0.000000
 70
   192
  0
VERTEX
  8
iceCream_2
 10
-11.873098
 20
22.208416
 30
-0.000000
 70
   192
  0
VERTEX
  8
iceCream_2
 10
-13.901895
 20
13.755096
 30
-0.000000
 70
   192
  0
VERTEX
  8
iceCream_2
 10
-55.492228
 20
6.992440
 30
-0.000000
 70
   192
  0
VERTEX
  8
iceCream_2
 10
-57.182892
 20
0.229784
 30
-0.000000
 70
   192
  0
VERTEX
  8
iceCream_2
 10
-0.038450
 20
-0.108348
 30
-0.000000
 70
   192
  0
VERTEX
  8
iceCream_2
 10
0.000000
 20
0.000000
 30
0.000000
 70
   192
  0
VERTEX
  8
iceCream_2
 10
0.000000
 20
0.000000
 30
0.000000
 70
   192
  0
VERTEX
  8
iceCream_2
 10
-59.185280
 20
62.569004
 30
34.170637
 70
   192
  0
VERTEX
  8
iceCream_2
 10
-73.826859
 20
73.604600
 30
42.623957
 70
   192
  0
VERTEX
  8
iceCream_2
 10
-75.583849
 20
113.504270
 30
43.638355
 70
   192
  0
VERTEX
  8
iceCream_2
 10
-82.611807
 20
113.504270
 30
47.695949
 70
   192
  0
VERTEX
  8
iceCream_2
 10
-83.490302
 20
77.662194
 30
48.203148
 70
   192
  0
VERTEX
  8
iceCream_2
 10
-78.804996
 20
55.683562
 30
45.498086
 70
   192
  0
VERTEX
  8
iceCream_2
 10
-53.914311
 20
39.453188
 30
31.127442
 70
   192
  0
VERTEX
  8
iceCream_2
 10
-22.288500
 20
36.409993
 30
12.868271
 70
   192
  0
VERTEX
  8
iceCream_2
 10
-10.282405
 20
22.208416
 30
5.936549
 70
   192
  0
VERTEX
  8
iceCream_2
 10
-12.039394
 20
13.755096
 30
6.950947
 70
   192
  0
VERTEX
  8
iceCream_2
 10
-48.057680
 20
6.992440
 30
27.746114
 70
   192
  0
VERTEX
  8
iceCream_2
 10
-49.521837
 20
0.229784
 30
28.591446
 70
   192
  0
VERTEX
  8
iceCream_2
 10
-0.033299
 20
-0.108348
 30
0.019225
 70
   192
  0
VERTEX
  8
iceCream_2
 10
0.000000
 20
0.000000
 30
0.000000
 70
   192
  0
VERTEX
  8
iceCream_2
 10
0.000000
 20
0.000000
 30
0.000000
 70
   192
  0
VERTEX
  8
iceCream_2
 10
-34.170637
 20
62.569004
 30
59.185280
 70
   192
  0
VERTEX
  8
iceCream_2
 10
-42.623957
 20
73.604600
 30
73.826859
 70
   192
  0
VERTEX
  8
iceCream_2
 10
-43.638355
 20
113.504270
 30
75.583849
 70
   192
  0
VERTEX
  8
iceCream_2
 10
-47.695949
 20
113.504270
 30
82.611807
 70
   192
  0
VERTEX
  8
iceCream_2
 10
-48.203148
 20
77.662194
 30
83.490302
 70
   192
  0
VERTEX
  8
iceCream_2
 10
-45.498086
 20
55.683562
 30
78.804996
 70
   192
  0
VERTEX
  8
iceCream_2
 10
-31.127442
 20
39.453188
 30
53.914311
 70
   192
  0
VERTEX
  8
iceCream_2
 10
-12.868271
 20
36.409993
 30
22.288500
 70
   192
  0
VERTEX
  8
iceCream_2
 10
-5.936549
 20
22.208416
 30
10.282405
 70
   192
  0
VERTEX
  8
iceCream_2
 10
-6.950947
 20
13.755096
 30
12.039394
 70
   192
  0
VERTEX
  8
iceCream_2
 10
-27.746114
 20
6.992440
 30
48.057680
 70
   192
  0
VERTEX
  8
iceCream_2
 10
-28.591446
 20
0.229784
 30
49.521837
 70
   192
  0
VERTEX
  8
iceCream_2
 10
-0.019225
 20
-0.108348
 30
0.033299
 70
   192
  0
VERTEX
  8
iceCream_2
 10
-0.000000
 20
45.201446
 30
0.038450
 70
   192
  0
VERTEX
  8
iceCream_2
 10
0.000000
 20
0.000000
 30
0.000000
 70
   192
  0
VERTEX
  8
iceCream_2
 10
-0.000000
 20
62.569004
 30
68.341275
 70
   192
  0
VERTEX
  8
iceCream_2
 10
-0.000000
 20
73.604600
 30
85.247914
 70
   192
  0
VERTEX
  8
iceCream_2
 10
-0.000000
 20
113.504270
 30
87.276711
 70
   192
  0
VERTEX
  8
iceCream_2
 10
-0.000000
 20
113.504270
 30
95.391898
 70
   192
  0
VERTEX
  8
iceCream_2
 10
-0.000000
 20
77.662194
 30
96.406296
 70
   192
  0
VERTEX
  8
iceCream_2
 10
-0.000000
 20
55.683562
 30
90.996172
 70
   192
  0
VERTEX
  8
iceCream_2
 10
-0.000000
 20
39.453188
 30
62.254884
 70
   192
  0
VERTEX
  8
iceCream_2
 10
-0.000000
 20
36.409993
 30
25.736543
 70
   192
  0
VERTEX
  8
iceCream_2
 10
-0.000000
 20
22.208416
 30
11.873098
 70
   192
  0
VERTEX
  8
iceCream_2
 10
-0.000000
 20
13.755096
 30
13.901895
 70
   192
  0
VERTEX
  8
iceCream_2
 10
-0.000000
 20
6.992440
 30
55.492228
 70
   192
  0
VERTEX
  8
iceCream_2
 10
-0.000000
 20
0.229784
 30
57.182892
 70
   192
  0
VERTEX
  8
iceCream_2
 10
-0.000000
 20
-0.108348
 30
0.038450
 70
   192
  0
VERTEX
  8
iceCream_2
 10
0.000000
 20
0.000000
 30
0.000000
 70
   192
  0
VERTEX
  8
iceCream_2
 10
0.000000
 20
0.000000
 30
0.000000
 70
   192
  0
VERTEX
  8
iceCream_2
 10
34.170637
 20
62.569004
 30
59.185280
 70
   192
  0
VERTEX
  8
iceCream_2
 10
42.623957
 20
73.604600
 30
73.826859
 70
   192
  0
VERTEX
  8
iceCream_2
 10
43.638355
 20
113.504270
 30
75.583849
 70
   192
  0
VERTEX
  8
iceCream_2
 10
47.695949
 20
113.504270
 30
82.611807
 70
   192
  0
VERTEX
  8
iceCream_2
 10
48.203148
 20
77.662194
 30
83.490302
 70
   192
  0
VERTEX
  8
iceCream_2
 10
45.498086
 20
55.683562
 30
78.804996
 70
   192
  0
VERTEX
  8
iceCream_2
 10
31.127442
 20
39.453188
 30
53.914311
 70
   192
  0
VERTEX
  8
iceCream_2
 10
12.868271
 20
36.409993
 30
22.288500
 70
   192
  0
VERTEX
  8
iceCream_2
 10
5.936549
 20
22.208416
 30
10.282405
 70
   192
  0
VERTEX
  8
iceCream_2
 10
6.950947
 20
13.755096
 30
12.039394
 70
   192
  0
VERTEX
  8
iceCream_2
 10
27.746114
 20
6.992440
 30
48.057680
 70
   192
  0
VERTEX
  8
iceCream_2
 10
28.591446
 20
0.229784
 30
49.521837
 70
   192
  0
VERTEX
  8
iceCream_2
 10
0.019225
 20
-0.108348
 30
0.033299
 70
   192
  0
VERTEX
  8
iceCream_2
 10
0.033299
 20
45.201446
 30
0.019225
 70
   192
  0
VERTEX
  8
iceCream_2
 10
0.000000
 20
0.000000
 30
0.000000
 70
   192
  0
VERTEX
  8
iceCream_2
 10
59.185280
 20
62.569004
 30
34.170637
 70
   192
  0
VERTEX
  8
iceCream_2
 10
73.826859
 20
73.604600
 30
42.623957
 70
   192
  0
VERTEX
  8
iceCream_2
 10
75.583849
 20
113.504270
 30
43.638355
 70
   192
  0
VERTEX
  8
iceCream_2
 10
82.611807
 20
113.504270
 30
47.695949
 70
   192
  0
VERTEX
  8
iceCream_2
 10
83.490302
 20
77.662194
 30
48.203148
 70
   192
  0
VERTEX
  8
iceCream_2
 10
78.804996
 20
55.683562
 30
45.498086
 70
   192
  0
VERTEX
  8
iceCream_2
 10
0.0
 20
0.0
 30
0.0
 70
   128
 71
   63
 72
   168
 73
   3
  0
VERTEX
  8
iceCream_2
 10
0.0
 20
0.0
 30
0.0
 70
   128
 71
   168
 72
   63
 73
   78
  0
VERTEX
  8
iceCream_2
 10
0.0
 20
0.0
 30
0.0
 70
   128
 71
   3
 72
   4
 73
   19
  0
VERTEX
  8
iceCream_2
 10
0.0
 20
0.0
 30
0.0
 70
   128
 71
   4
 72
   5
 73
   20
  0
VERTEX
  8
iceCream_2
 10
0.0
 20
0.0
 30
0.0
 70
   128
 71
   5
 72
   6
 73
   21
  0
VERTEX
  8
iceCream_2
 10
0.0
 20
0.0
 30
0.0
 70
   128
 71
   6
 72
   7
 73
   22
  0
VERTEX
  8
iceCream_2
 10
0.0
 20
0.0
 30
0.0
 70
   128
 71
   7
 72
   8
 73
   23
  0
VERTEX
  8
iceCream_2
 10
0.0
 20
0.0
 30
0.0
 70
   128
 71
   8
 72
   9
 73
   24
  0
VERTEX
  8
iceCream_2
 10
0.0
 20
0.0
 30
0.0
 70
   128
 71
   9
 72
   10
 73
   25
  0
VERTEX
  8
iceCream_2
 10
0.0
 20
0.0
 30
0.0
 70
   128
 71
   10
 72
   11
 73
   26
  0
VERTEX
  8
iceCream_2
 10
0.0
 20
0.0
 30
0.0
 70
   128
 71
   11
 72
   12
 73
   27
  0
VERTEX
  8
iceCream_2
 10
0.0
 20
0.0
 30
0.0
 70
   128
 71
   12
 72
   13
 73
   28
  0
VERTEX
  8
iceCream_2
 10
0.0
 20
0.0
 30
0.0
 70
   128
 71
   13
 72
   14
 73
   29
  0
VERTEX
  8
iceCream_2
 10
0.0
 20
0.0
 30
0.0
 70
   128
 71
   14
 72
   15
 73
   30
  0
VERTEX
  8
iceCream_2
 10
0.0
 20
0.0
 30
0.0
 70
   128
 71
   168
 72
   138
 73
   153
  0
VERTEX
  8
iceCream_2
 10
0.0
 20
0.0
 30
0.0
 70
   128
 71
   3
 72
   18
 73
   33
  0
VERTEX
  8
iceCream_2
 10
0.0
 20
0.0
 30
0.0
 70
   128
 71
   18
 72
   19
 73
   34
  0
VERTEX
  8
iceCream_2
 10
0.0
 20
0.0
 30
0.0
 70
   128
 71
   19
 72
   20
 73
   35
  0
VERTEX
  8
iceCream_2
 10
0.0
 20
0.0
 30
0.0
 70
   128
 71
   20
 72
   21
 73
   36
  0
VERTEX
  8
iceCream_2
 10
0.0
 20
0.0
 30
0.0
 70
   128
 71
   21
 72
   22
 73
   37
  0
VERTEX
  8
iceCream_2
 10
0.0
 20
0.0
 30
0.0
 70
   128
 71
   22
 72
   23
 73
   38
  0
VERTEX
  8
iceCream_2
 10
0.0
 20
0.0
 30
0.0
 70
   128
 71
   23
 72
   24
 73
   39
  0
VERTEX
  8
iceCream_2
 10
0.0
 20
0.0
 30
0.0
 70
   128
 71
   24
 72
   25
 73
   40
  0
VERTEX
  8
iceCream_2
 10
0.0
 20
0.0
 30
0.0
 70
   128
 71
   25
 72
   26
 73
   41
  0
VERTEX
  8
iceCream_2
 10
0.0
 20
0.0
 30
0.0
 70
   128
 71
   26
 72
   27
 73
   42
  0
VERTEX
  8
iceCream_2
 10
0.0
 20
0.0
 30
0.0
 70
   128
 71
   27
 72
   28
 73
   43
  0
VERTEX
  8
iceCream_2
 10
0.0
 20
0.0
 30
0.0
 70
   128
 71
   28
 72
   29
 73
   44
  0
VERTEX
  8
iceCream_2
 10
0.0
 20
0.0
 30
0.0
 70
   128
 71
   29
 72
   30
 73
   45
  0
VERTEX
  8
iceCream_2
 10
0.0
 20
0.0
 30
0.0
 70
   128
 71
   78
 72
   93
 73
   123
  0
VERTEX
  8
iceCream_2
 10
0.0
 20
0.0
 30
0.0
 70
   128
 71
   93
 72
   108
 73
   123
  0
VERTEX
  8
iceCream_2
 10
0.0
 20
0.0
 30
0.0
 70
   128
 71
   33
 72
   34
 73
   49
  0
VERTEX
  8
iceCream_2
 10
0.0
 20
0.0
 30
0.0
 70
   128
 71
   34
 72
   35
 73
   50
  0
VERTEX
  8
iceCream_2
 10
0.0
 20
0.0
 30
0.0
 70
   128
 71
   35
 72
   36
 73
   51
  0
VERTEX
  8
iceCream_2
 10
0.0
 20
0.0
 30
0.0
 70
   128
 71
   36
 72
   37
 73
   52
  0
VERTEX
  8
iceCream_2
 10
0.0
 20
0.0
 30
0.0
 70
   128
 71
   37
 72
   38
 73
   53
  0
VERTEX
  8
iceCream_2
 10
0.0
 20
0.0
 30
0.0
 70
   128
 71
   38
 72
   39
 73
   54
  0
VERTEX
  8
iceCream_2
 10
0.0
 20
0.0
 30
0.0
 70
   128
 71
   39
 72
   40
 73
   55
  0
VERTEX
  8
iceCream_2
 10
0.0
 20
0.0
 30
0.0
 70
   128
 71
   40
 72
   41
 73
   56
  0
VERTEX
  8
iceCream_2
 10
0.0
 20
0.0
 30
0.0
 70
   128
 71
   41
 72
   42
 73
   57
  0
VERTEX
  8
iceCream_2
 10
0.0
 20
0.0
 30
0.0
 70
   128
 71
   42
 72
   43
 73
   58
  0
VERTEX
  8
iceCream_2
 10
0.0
 20
0.0
 30
0.0
 70
   128
 71
   43
 72
   44
 73
   59
  0
VERTEX
  8
iceCream_2
 10
0.0
 20
0.0
 30
0.0
 70
   128
 71
   44
 72
   45
 73
   60
  0
VERTEX
  8
iceCream_2
 10
0.0
 20
0.0
 30
0.0
 70
   128
 71
   168
 72
   169
 73
   4
  0
VERTEX
  8
iceCream_2
 10
0.0
 20
0.0
 30
0.0
 70
   128
 71
   161
 72
   162
 73
   17
  0
VERTEX
  8
iceCream_2
 10
0.0
 20
0.0
 30
0.0
 70
   128
 71
   48
 72
   49
 73
   64
  0
VERTEX
  8
iceCream_2
 10
0.0
 20
0.0
 30
0.0
 70
   128
 71
   49
 72
   50
 73
   65
  0
VERTEX
  8
iceCream_2
 10
0.0
 20
0.0
 30
0.0
 70
   128
 71
   50
 72
   51
 73
   66
  0
VERTEX
  8
iceCream_2
 10
0.0
 20
0.0
 30
0.0
 70
   128
 71
   51
 72
   52
 73
   67
  0
VERTEX
  8
iceCream_2
 10
0.0
 20
0.0
 30
0.0
 70
   128
 71
   52
 72
   53
 73
   68
  0
VERTEX
  8
iceCream_2
 10
0.0
 20
0.0
 30
0.0
 70
   128
 71
   53
 72
   54
 73
   69
  0
VERTEX
  8
iceCream_2
 10
0.0
 20
0.0
 30
0.0
 70
   128
 71
   54
 72
   55
 73
   70
  0
VERTEX
  8
iceCream_2
 10
0.0
 20
0.0
 30
0.0
 70
   128
 71
   55
 72
   56
 73
   71
  0
VERTEX
  8
iceCream_2
 10
0.0
 20
0.0
 30
0.0
 70
   128
 71
   56
 72
   57
 73
   72
  0
VERTEX
  8
iceCream_2
 10
0.0
 20
0.0
 30
0.0
 70
   128
 71
   57
 72
   58
 73
   73
  0
VERTEX
  8
iceCream_2
 10
0.0
 20
0.0
 30
0.0
 70
   128
 71
   58
 72
   59
 73
   74
  0
VERTEX
  8
iceCream_2
 10
0.0
 20
0.0
 30
0.0
 70
   128
 71
   59
 72
   60
 73
   75
  0
VERTEX
  8
iceCream_2
 10
0.0
 20
0.0
 30
0.0
 70
   128
 71
   162
 72
   163
 73
   31
  0
VERTEX
  8
iceCream_2
 10
0.0
 20
0.0
 30
0.0
 70
   128
 71
   163
 72
   164
 73
   32
  0
VERTEX
  8
iceCream_2
 10
0.0
 20
0.0
 30
0.0
 70
   128
 71
   63
 72
   64
 73
   79
  0
VERTEX
  8
iceCream_2
 10
0.0
 20
0.0
 30
0.0
 70
   128
 71
   64
 72
   65
 73
   80
  0
VERTEX
  8
iceCream_2
 10
0.0
 20
0.0
 30
0.0
 70
   128
 71
   65
 72
   66
 73
   81
  0
VERTEX
  8
iceCream_2
 10
0.0
 20
0.0
 30
0.0
 70
   128
 71
   66
 72
   67
 73
   82
  0
VERTEX
  8
iceCream_2
 10
0.0
 20
0.0
 30
0.0
 70
   128
 71
   67
 72
   68
 73
   83
  0
VERTEX
  8
iceCream_2
 10
0.0
 20
0.0
 30
0.0
 70
   128
 71
   68
 72
   69
 73
   84
  0
VERTEX
  8
iceCream_2
 10
0.0
 20
0.0
 30
0.0
 70
   128
 71
   69
 72
   70
 73
   85
  0
VERTEX
  8
iceCream_2
 10
0.0
 20
0.0
 30
0.0
 70
   128
 71
   70
 72
   71
 73
   86
  0
VERTEX
  8
iceCream_2
 10
0.0
 20
0.0
 30
0.0
 70
   128
 71
   71
 72
   72
 73
   87
  0
VERTEX
  8
iceCream_2
 10
0.0
 20
0.0
 30
0.0
 70
   128
 71
   72
 72
   73
 73
   88
  0
VERTEX
  8
iceCream_2
 10
0.0
 20
0.0
 30
0.0
 70
   128
 71
   73
 72
   74
 73
   89
  0
VERTEX
  8
iceCream_2
 10
0.0
 20
0.0
 30
0.0
 70
   128
 71
   74
 72
   75
 73
   90
  0
VERTEX
  8
iceCream_2
 10
0.0
 20
0.0
 30
0.0
 70
   128
 71
   164
 72
   165
 73
   46
  0
VERTEX
  8
iceCream_2
 10
0.0
 20
0.0
 30
0.0
 70
   128
 71
   169
 72
   170
 73
   5
  0
VERTEX
  8
iceCream_2
 10
0.0
 20
0.0
 30
0.0
 70
   128
 71
   78
 72
   79
 73
   94
  0
VERTEX
  8
iceCream_2
 10
0.0
 20
0.0
 30
0.0
 70
   128
 71
   79
 72
   80
 73
   95
  0
VERTEX
  8
iceCream_2
 10
0.0
 20
0.0
 30
0.0
 70
   128
 71
   80
 72
   81
 73
   96
  0
VERTEX
  8
iceCream_2
 10
0.0
 20
0.0
 30
0.0
 70
   128
 71
   81
 72
   82
 73
   97
  0
VERTEX
  8
iceCream_2
 10
0.0
 20
0.0
 30
0.0
 70
   128
 71
   82
 72
   83
 73
   98
  0
VERTEX
  8
iceCream_2
 10
0.0
 20
0.0
 30
0.0
 70
   128
 71
   83
 72
   84
 73
   99
  0
VERTEX
  8
iceCream_2
 10
0.0
 20
0.0
 30
0.0
 70
   128
 71
   84
 72
   85
 73
   100
  0
VERTEX
  8
iceCream_2
 10
0.0
 20
0.0
 30
0.0
 70
   128
 71
   85
 72
   86
 73
   101
  0
VERTEX
  8
iceCream_2
 10
0.0
 20
0.0
 30
0.0
 70
   128
 71
   86
 72
   87
 73
   102
  0
VERTEX
  8
iceCream_2
 10
0.0
 20
0.0
 30
0.0
 70
   128
 71
   87
 72
   88
 73
   103
  0
VERTEX
  8
iceCream_2
 10
0.0
 20
0.0
 30
0.0
 70
   128
 71
   88
 72
   89
 73
   104
  0
VERTEX
  8
iceCream_2
 10
0.0
 20
0.0
 30
0.0
 70
   128
 71
   89
 72
   90
 73
   105
  0
VERTEX
  8
iceCream_2
 10
0.0
 20
0.0
 30
0.0
 70
   128
 71
   170
 72
   171
 73
   6
  0
VERTEX
  8
iceCream_2
 10
0.0
 20
0.0
 30
0.0
 70
   128
 71
   171
 72
   172
 73
   7
  0
VERTEX
  8
iceCream_2
 10
0.0
 20
0.0
 30
0.0
 70
   128
 71
   93
 72
   94
 73
   109
  0
VERTEX
  8
iceCream_2
 10
0.0
 20
0.0
 30
0.0
 70
   128
 71
   94
 72
   95
 73
   110
  0
VERTEX
  8
iceCream_2
 10
0.0
 20
0.0
 30
0.0
 70
   128
 71
   95
 72
   96
 73
   111
  0
VERTEX
  8
iceCream_2
 10
0.0
 20
0.0
 30
0.0
 70
   128
 71
   96
 72
   97
 73
   112
  0
VERTEX
  8
iceCream_2
 10
0.0
 20
0.0
 30
0.0
 70
   128
 71
   97
 72
   98
 73
   113
  0
VERTEX
  8
iceCream_2
 10
0.0
 20
0.0
 30
0.0
 70
   128
 71
   98
 72
   99
 73
   114
  0
VERTEX
  8
iceCream_2
 10
0.0
 20
0.0
 30
0.0
 70
   128
 71
   99
 72
   100
 73
   115
  0
VERTEX
  8
iceCream_2
 10
0.0
 20
0.0
 30
0.0
 70
   128
 71
   100
 72
   101
 73
   116
  0
VERTEX
  8
iceCream_2
 10
0.0
 20
0.0
 30
0.0
 70
   128
 71
   101
 72
   102
 73
   117
  0
VERTEX
  8
iceCream_2
 10
0.0
 20
0.0
 30
0.0
 70
   128
 71
   102
 72
   103
 73
   118
  0
VERTEX
  8
iceCream_2
 10
0.0
 20
0.0
 30
0.0
 70
   128
 71
   103
 72
   104
 73
   119
  0
VERTEX
  8
iceCream_2
 10
0.0
 20
0.0
 30
0.0
 70
   128
 71
   104
 72
   105
 73
   120
  0
VERTEX
  8
iceCream_2
 10
0.0
 20
0.0
 30
0.0
 70
   128
 71
   172
 72
   173
 73
   8
  0
VERTEX
  8
iceCream_2
 10
0.0
 20
0.0
 30
0.0
 70
   128
 71
   173
 72
   1
 73
   9
  0
VERTEX
  8
iceCream_2
 10
0.0
 20
0.0
 30
0.0
 70
   128
 71
   108
 72
   109
 73
   124
  0
VERTEX
  8
iceCream_2
 10
0.0
 20
0.0
 30
0.0
 70
   128
 71
   109
 72
   110
 73
   125
  0
VERTEX
  8
iceCream_2
 10
0.0
 20
0.0
 30
0.0
 70
   128
 71
   110
 72
   111
 73
   126
  0
VERTEX
  8
iceCream_2
 10
0.0
 20
0.0
 30
0.0
 70
   128
 71
   111
 72
   112
 73
   127
  0
VERTEX
  8
iceCream_2
 10
0.0
 20
0.0
 30
0.0
 70
   128
 71
   112
 72
   113
 73
   128
  0
VERTEX
  8
iceCream_2
 10
0.0
 20
0.0
 30
0.0
 70
   128
 71
   113
 72
   114
 73
   129
  0
VERTEX
  8
iceCream_2
 10
0.0
 20
0.0
 30
0.0
 70
   128
 71
   114
 72
   115
 73
   130
  0
VERTEX
  8
iceCream_2
 10
0.0
 20
0.0
 30
0.0
 70
   128
 71
   115
 72
   116
 73
   131
  0
VERTEX
  8
iceCream_2
 10
0.0
 20
0.0
 30
0.0
 70
   128
 71
   116
 72
   117
 73
   132
  0
VERTEX
  8
iceCream_2
 10
0.0
 20
0.0
 30
0.0
 70
   128
 71
   117
 72
   118
 73
   133
  0
VERTEX
  8
iceCream_2
 10
0.0
 20
0.0
 30
0.0
 70
   128
 71
   118
 72
   119
 73
   134
  0
VERTEX
  8
iceCream_2
 10
0.0
 20
0.0
 30
0.0
 70
   128
 71
   119
 72
   120
 73
   135
  0
VERTEX
  8
iceCream_2
 10
0.0
 20
0.0
 30
0.0
 70
   128
 71
   1
 72
   2
 73
   10
  0
VERTEX
  8
iceCream_2
 10
0.0
 20
0.0
 30
0.0
 70
   128
 71
   2
 72
   16
 73
   11
  0
VERTEX
  8
iceCream_2
 10
0.0
 20
0.0
 30
0.0
 70
   128
 71
   123
 72
   124
 73
   139
  0
VERTEX
  8
iceCream_2
 10
0.0
 20
0.0
 30
0.0
 70
   128
 71
   124
 72
   125
 73
   140
  0
VERTEX
  8
iceCream_2
 10
0.0
 20
0.0
 30
0.0
 70
   128
 71
   125
 72
   126
 73
   141
  0
VERTEX
  8
iceCream_2
 10
0.0
 20
0.0
 30
0.0
 70
   128
 71
   126
 72
   127
 73
   142
  0
VERTEX
  8
iceCream_2
 10
0.0
 20
0.0
 30
0.0
 70
   128
 71
   127
 72
   128
 73
   143
  0
VERTEX
  8
iceCream_2
 10
0.0
 20
0.0
 30
0.0
 70
   128
 71
   128
 72
   129
 73
   144
  0
VERTEX
  8
iceCream_2
 10
0.0
 20
0.0
 30
0.0
 70
   128
 71
   129
 72
   130
 73
   145
  0
VERTEX
  8
iceCream_2
 10
0.0
 20
0.0
 30
0.0
 70
   128
 71
   130
 72
   131
 73
   146
  0
VERTEX
  8
iceCream_2
 10
0.0
 20
0.0
 30
0.0
 70
   128
 71
   131
 72
   132
 73
   147
  0
VERTEX
  8
iceCream_2
 10
0.0
 20
0.0
 30
0.0
 70
   128
 71
   132
 72
   133
 73
   148
  0
VERTEX
  8
iceCream_2
 10
0.0
 20
0.0
 30
0.0
 70
   128
 71
   133
 72
   134
 73
   149
  0
VERTEX
  8
iceCream_2
 10
0.0
 20
0.0
 30
0.0
 70
   128
 71
   134
 72
   135
 73
   150
  0
VERTEX
  8
iceCream_2
 10
0.0
 20
0.0
 30
0.0
 70
   128
 71
   16
 72
   17
 73
   12
  0
VERTEX
  8
iceCream_2
 10
0.0
 20
0.0
 30
0.0
 70
   128
 71
   17
 72
   31
 73
   13
  0
VERTEX
  8
iceCream_2
 10
0.0
 20
0.0
 30
0.0
 70
   128
 71
   138
 72
   139
 73
   154
  0
VERTEX
  8
iceCream_2
 10
0.0
 20
0.0
 30
0.0
 70
   128
 71
   139
 72
   140
 73
   155
  0
VERTEX
  8
iceCream_2
 10
0.0
 20
0.0
 30
0.0
 70
   128
 71
   140
 72
   141
 73
   156
  0
VERTEX
  8
iceCream_2
 10
0.0
 20
0.0
 30
0.0
 70
   128
 71
   141
 72
   142
 73
   157
  0
VERTEX
  8
iceCream_2
 10
0.0
 20
0.0
 30
0.0
 70
   128
 71
   142
 72
   143
 73
   158
  0
VERTEX
  8
iceCream_2
 10
0.0
 20
0.0
 30
0.0
 70
   128
 71
   143
 72
   144
 73
   159
  0
VERTEX
  8
iceCream_2
 10
0.0
 20
0.0
 30
0.0
 70
   128
 71
   144
 72
   145
 73
   160
  0
VERTEX
  8
iceCream_2
 10
0.0
 20
0.0
 30
0.0
 70
   128
 71
   145
 72
   146
 73
   161
  0
VERTEX
  8
iceCream_2
 10
0.0
 20
0.0
 30
0.0
 70
   128
 71
   146
 72
   147
 73
   162
  0
VERTEX
  8
iceCream_2
 10
0.0
 20
0.0
 30
0.0
 70
   128
 71
   147
 72
   148
 73
   163
  0
VERTEX
  8
iceCream_2
 10
0.0
 20
0.0
 30
0.0
 70
   128
 71
   148
 72
   149
 73
   164
  0
VERTEX
  8
iceCream_2
 10
0.0
 20
0.0
 30
0.0
 70
   128
 71
   149
 72
   150
 73
   165
  0
VERTEX
  8
iceCream_2
 10
0.0
 20
0.0
 30
0.0
 70
   128
 71
   31
 72
   32
 73
   14
  0
VERTEX
  8
iceCream_2
 10
0.0
 20
0.0
 30
0.0
 70
   128
 71
   32
 72
   46
 73
   15
  0
VERTEX
  8
iceCream_2
 10
0.0
 20
0.0
 30
0.0
 70
   128
 71
   153
 72
   154
 73
   169
  0
VERTEX
  8
iceCream_2
 10
0.0
 20
0.0
 30
0.0
 70
   128
 71
   154
 72
   155
 73
   170
  0
VERTEX
  8
iceCream_2
 10
0.0
 20
0.0
 30
0.0
 70
   128
 71
   155
 72
   156
 73
   171
  0
VERTEX
  8
iceCream_2
 10
0.0
 20
0.0
 30
0.0
 70
   128
 71
   156
 72
   157
 73
   172
  0
VERTEX
  8
iceCream_2
 10
0.0
 20
0.0
 30
0.0
 70
   128
 71
   157
 72
   158
 73
   173
  0
VERTEX
  8
iceCream_2
 10
0.0
 20
0.0
 30
0.0
 70
   128
 71
   158
 72
   159
 73
   1
  0
VERTEX
  8
iceCream_2
 10
0.0
 20
0.0
 30
0.0
 70
   128
 71
   159
 72
   160
 73
   2
  0
VERTEX
  8
iceCream_2
 10
0.0
 20
0.0
 30
0.0
 70
   128
 71
   160
 72
   161
 73
   16
  0
VERTEX
  8
iceCream_2
 10
0.0
 20
0.0
 30
0.0
 70
   128
 71
   63
 72
   3
 73
   48
  0
VERTEX
  8
iceCream_2
 10
0.0
 20
0.0
 30
0.0
 70
   128
 71
   168
 72
   78
 73
   138
  0
VERTEX
  8
iceCream_2
 10
0.0
 20
0.0
 30
0.0
 70
   128
 71
   3
 72
   19
 73
   18
  0
VERTEX
  8
iceCream_2
 10
0.0
 20
0.0
 30
0.0
 70
   128
 71
   4
 72
   20
 73
   19
  0
VERTEX
  8
iceCream_2
 10
0.0
 20
0.0
 30
0.0
 70
   128
 71
   5
 72
   21
 73
   20
  0
VERTEX
  8
iceCream_2
 10
0.0
 20
0.0
 30
0.0
 70
   128
 71
   6
 72
   22
 73
   21
  0
VERTEX
  8
iceCream_2
 10
0.0
 20
0.0
 30
0.0
 70
   128
 71
   7
 72
   23
 73
   22
  0
VERTEX
  8
iceCream_2
 10
0.0
 20
0.0
 30
0.0
 70
   128
 71
   8
 72
   24
 73
   23
  0
VERTEX
  8
iceCream_2
 10
0.0
 20
0.0
 30
0.0
 70
   128
 71
   9
 72
   25
 73
   24
  0
VERTEX
  8
iceCream_2
 10
0.0
 20
0.0
 30
0.0
 70
   128
 71
   10
 72
   26
 73
   25
  0
VERTEX
  8
iceCream_2
 10
0.0
 20
0.0
 30
0.0
 70
   128
 71
   11
 72
   27
 73
   26
  0
VERTEX
  8
iceCream_2
 10
0.0
 20
0.0
 30
0.0
 70
   128
 71
   12
 72
   28
 73
   27
  0
VERTEX
  8
iceCream_2
 10
0.0
 20
0.0
 30
0.0
 70
   128
 71
   13
 72
   29
 73
   28
  0
VERTEX
  8
iceCream_2
 10
0.0
 20
0.0
 30
0.0
 70
   128
 71
   14
 72
   30
 73
   29
  0
VERTEX
  8
iceCream_2
 10
0.0
 20
0.0
 30
0.0
 70
   128
 71
   3
 72
   33
 73
   48
  0
VERTEX
  8
iceCream_2
 10
0.0
 20
0.0
 30
0.0
 70
   128
 71
   18
 72
   34
 73
   33
  0
VERTEX
  8
iceCream_2
 10
0.0
 20
0.0
 30
0.0
 70
   128
 71
   19
 72
   35
 73
   34
  0
VERTEX
  8
iceCream_2
 10
0.0
 20
0.0
 30
0.0
 70
   128
 71
   20
 72
   36
 73
   35
  0
VERTEX
  8
iceCream_2
 10
0.0
 20
0.0
 30
0.0
 70
   128
 71
   21
 72
   37
 73
   36
  0
VERTEX
  8
iceCream_2
 10
0.0
 20
0.0
 30
0.0
 70
   128
 71
   22
 72
   38
 73
   37
  0
VERTEX
  8
iceCream_2
 10
0.0
 20
0.0
 30
0.0
 70
   128
 71
   23
 72
   39
 73
   38
  0
VERTEX
  8
iceCream_2
 10
0.0
 20
0.0
 30
0.0
 70
   128
 71
   24
 72
   40
 73
   39
  0
VERTEX
  8
iceCream_2
 10
0.0
 20
0.0
 30
0.0
 70
   128
 71
   25
 72
   41
 73
   40
  0
VERTEX
  8
iceCream_2
 10
0.0
 20
0.0
 30
0.0
 70
   128
 71
   26
 72
   42
 73
   41
  0
VERTEX
  8
iceCream_2
 10
0.0
 20
0.0
 30
0.0
 70
   128
 71
   27
 72
   43
 73
   42
  0
VERTEX
  8
iceCream_2
 10
0.0
 20
0.0
 30
0.0
 70
   128
 71
   28
 72
   44
 73
   43
  0
VERTEX
  8
iceCream_2
 10
0.0
 20
0.0
 30
0.0
 70
   128
 71
   29
 72
   45
 73
   44
  0
VERTEX
  8
iceCream_2
 10
0.0
 20
0.0
 30
0.0
 70
   128
 71
   78
 72
   123
 73
   138
  0
VERTEX
  8
iceCream_2
 10
0.0
 20
0.0
 30
0.0
 70
   128
 71
   33
 72
   49
 73
   48
  0
VERTEX
  8
iceCream_2
 10
0.0
 20
0.0
 30
0.0
 70
   128
 71
   34
 72
   50
 73
   49
  0
VERTEX
  8
iceCream_2
 10
0.0
 20
0.0
 30
0.0
 70
   128
 71
   35
 72
   51
 73
   50
  0
VERTEX
  8
iceCream_2
 10
0.0
 20
0.0
 30
0.0
 70
   128
 71
   36
 72
   52
 73
   51
  0
VERTEX
  8
iceCream_2
 10
0.0
 20
0.0
 30
0.0
 70
   128
 71
   37
 72
   53
 73
   52
  0
VERTEX
  8
iceCream_2
 10
0.0
 20
0.0
 30
0.0
 70
   128
 71
   38
 72
   54
 73
   53
  0
VERTEX
  8
iceCream_2
 10
0.0
 20
0.0
 30
0.0
 70
   128
 71
   39
 72
   55
 73
   54
  0
VERTEX
  8
iceCream_2
 10
0.0
 20
0.0
 30
0.0
 70
   128
 71
   40
 72
   56
 73
   55
  0
VERTEX
  8
iceCream_2
 10
0.0
 20
0.0
 30
0.0
 70
   128
 71
   41
 72
   57
 73
   56
  0
VERTEX
  8
iceCream_2
 10
0.0
 20
0.0
 30
0.0
 70
   128
 71
   42
 72
   58
 73
   57
  0
VERTEX
  8
iceCream_2
 10
0.0
 20
0.0
 30
0.0
 70
   128
 71
   43
 72
   59
 73
   58
  0
VERTEX
  8
iceCream_2
 10
0.0
 20
0.0
 30
0.0
 70
   128
 71
   44
 72
   60
 73
   59
  0
VERTEX
  8
iceCream_2
 10
0.0
 20
0.0
 30
0.0
 70
   128
 71
   168
 72
   4
 73
   3
  0
VERTEX
  8
iceCream_2
 10
0.0
 20
0.0
 30
0.0
 70
   128
 71
   161
 72
   17
 73
   16
  0
VERTEX
  8
iceCream_2
 10
0.0
 20
0.0
 30
0.0
 70
   128
 71
   48
 72
   64
 73
   63
  0
VERTEX
  8
iceCream_2
 10
0.0
 20
0.0
 30
0.0
 70
   128
 71
   49
 72
   65
 73
   64
  0
VERTEX
  8
iceCream_2
 10
0.0
 20
0.0
 30
0.0
 70
   128
 71
   50
 72
   66
 73
   65
  0
VERTEX
  8
iceCream_2
 10
0.0
 20
0.0
 30
0.0
 70
   128
 71
   51
 72
   67
 73
   66
  0
VERTEX
  8
iceCream_2
 10
0.0
 20
0.0
 30
0.0
 70
   128
 71
   52
 72
   68
 73
   67
  0
VERTEX
  8
iceCream_2
 10
0.0
 20
0.0
 30
0.0
 70
   128
 71
   53
 72
   69
 73
   68
  0
VERTEX
  8
iceCream_2
 10
0.0
 20
0.0
 30
0.0
 70
   128
 71
   54
 72
   70
 73
   69
  0
VERTEX
  8
iceCream_2
 10
0.0
 20
0.0
 30
0.0
 70
   128
 71
   55
 72
   71
 73
   70
  0
VERTEX
  8
iceCream_2
 10
0.0
 20
0.0
 30
0.0
 70
   128
 71
   56
 72
   72
 73
   71
  0
VERTEX
  8
iceCream_2
 10
0.0
 20
0.0
 30
0.0
 70
   128
 71
   57
 72
   73
 73
   72
  0
VERTEX
  8
iceCream_2
 10
0.0
 20
0.0
 30
0.0
 70
   128
 71
   58
 72
   74
 73
   73
  0
VERTEX
  8
iceCream_2
 10
0.0
 20
0.0
 30
0.0
 70
   128
 71
   59
 72
   75
 73
   74
  0
VERTEX
  8
iceCream_2
 10
0.0
 20
0.0
 30
0.0
 70
   128
 71
   162
 72
   31
 73
   17
  0
VERTEX
  8
iceCream_2
 10
0.0
 20
0.0
 30
0.0
 70
   128
 71
   163
 72
   32
 73
   31
  0
VERTEX
  8
iceCream_2
 10
0.0
 20
0.0
 30
0.0
 70
   128
 71
   63
 72
   79
 73
   78
  0
VERTEX
  8
iceCream_2
 10
0.0
 20
0.0
 30
0.0
 70
   128
 71
   64
 72
   80
 73
   79
  0
VERTEX
  8
iceCream_2
 10
0.0
 20
0.0
 30
0.0
 70
   128
 71
   65
 72
   81
 73
   80
  0
VERTEX
  8
iceCream_2
 10
0.0
 20
0.0
 30
0.0
 70
   128
 71
   66
 72
   82
 73
   81
  0
VERTEX
  8
iceCream_2
 10
0.0
 20
0.0
 30
0.0
 70
   128
 71
   67
 72
   83
 73
   82
  0
VERTEX
  8
iceCream_2
 10
0.0
 20
0.0
 30
0.0
 70
   128
 71
   68
 72
   84
 73
   83
  0
VERTEX
  8
iceCream_2
 10
0.0
 20
0.0
 30
0.0
 70
   128
 71
   69
 72
   85
 73
   84
  0
VERTEX
  8
iceCream_2
 10
0.0
 20
0.0
 30
0.0
 70
   128
 71
   70
 72
   86
 73
   85
  0
VERTEX
  8
iceCream_2
 10
0.0
 20
0.0
 30
0.0
 70
   128
 71
   71
 72
   87
 73
   86
  0
VERTEX
  8
iceCream_2
 10
0.0
 20
0.0
 30
0.0
 70
   128
 71
   72
 72
   88
 73
   87
  0
VERTEX
  8
iceCream_2
 10
0.0
 20
0.0
 30
0.0
 70
   128
 71
   73
 72
   89
 73
   88
  0
VERTEX
  8
iceCream_2
 10
0.0
 20
0.0
 30
0.0
 70
   128
 71
   74
 72
   90
 73
   89
  0
VERTEX
  8
iceCream_2
 10
0.0
 20
0.0
 30
0.0
 70
   128
 71
   164
 72
   46
 73
   32
  0
VERTEX
  8
iceCream_2
 10
0.0
 20
0.0
 30
0.0
 70
   128
 71
   169
 72
   5
 73
   4
  0
VERTEX
  8
iceCream_2
 10
0.0
 20
0.0
 30
0.0
 70
   128
 71
   78
 72
   94
 73
   93
  0
VERTEX
  8
iceCream_2
 10
0.0
 20
0.0
 30
0.0
 70
   128
 71
   79
 72
   95
 73
   94
  0
VERTEX
  8
iceCream_2
 10
0.0
 20
0.0
 30
0.0
 70
   128
 71
   80
 72
   96
 73
   95
  0
VERTEX
  8
iceCream_2
 10
0.0
 20
0.0
 30
0.0
 70
   128
 71
   81
 72
   97
 73
   96
  0
VERTEX
  8
iceCream_2
 10
0.0
 20
0.0
 30
0.0
 70
   128
 71
   82
 72
   98
 73
   97
  0
VERTEX
  8
iceCream_2
 10
0.0
 20
0.0
 30
0.0
 70
   128
 71
   83
 72
   99
 73
   98
  0
VERTEX
  8
iceCream_2
 10
0.0
 20
0.0
 30
0.0
 70
   128
 71
   84
 72
   100
 73
   99
  0
VERTEX
  8
iceCream_2
 10
0.0
 20
0.0
 30
0.0
 70
   128
 71
   85
 72
   101
 73
   100
  0
VERTEX
  8
iceCream_2
 10
0.0
 20
0.0
 30
0.0
 70
   128
 71
   86
 72
   102
 73
   101
  0
VERTEX
  8
iceCream_2
 10
0.0
 20
0.0
 30
0.0
 70
   128
 71
   87
 72
   103
 73
   102
  0
VERTEX
  8
iceCream_2
 10
0.0
 20
0.0
 30
0.0
 70
   128
 71
   88
 72
   104
 73
   103
  0
VERTEX
  8
iceCream_2
 10
0.0
 20
0.0
 30
0.0
 70
   128
 71
   89
 72
   105
 73
   104
  0
VERTEX
  8
iceCream_2
 10
0.0
 20
0.0
 30
0.0
 70
   128
 71
   170
 72
   6
 73
   5
  0
VERTEX
  8
iceCream_2
 10
0.0
 20
0.0
 30
0.0
 70
   128
 71
   171
 72
   7
 73
   6
  0
VERTEX
  8
iceCream_2
 10
0.0
 20
0.0
 30
0.0
 70
   128
 71
   93
 72
   109
 73
   108
  0
VERTEX
  8
iceCream_2
 10
0.0
 20
0.0
 30
0.0
 70
   128
 71
   94
 72
   110
 73
   109
  0
VERTEX
  8
iceCream_2
 10
0.0
 20
0.0
 30
0.0
 70
   128
 71
   95
 72
   111
 73
   110
  0
VERTEX
  8
iceCream_2
 10
0.0
 20
0.0
 30
0.0
 70
   128
 71
   96
 72
   112
 73
   111
  0
VERTEX
  8
iceCream_2
 10
0.0
 20
0.0
 30
0.0
 70
   128
 71
   97
 72
   113
 73
   112
  0
VERTEX
  8
iceCream_2
 10
0.0
 20
0.0
 30
0.0
 70
   128
 71
   98
 72
   114
 73
   113
  0
VERTEX
  8
iceCream_2
 10
0.0
 20
0.0
 30
0.0
 70
   128
 71
   99
 72
   115
 73
   114
  0
VERTEX
  8
iceCream_2
 10
0.0
 20
0.0
 30
0.0
 70
   128
 71
   100
 72
   116
 73
   115
  0
VERTEX
  8
iceCream_2
 10
0.0
 20
0.0
 30
0.0
 70
   128
 71
   101
 72
   117
 73
   116
  0
VERTEX
  8
iceCream_2
 10
0.0
 20
0.0
 30
0.0
 70
   128
 71
   102
 72
   118
 73
   117
  0
VERTEX
  8
iceCream_2
 10
0.0
 20
0.0
 30
0.0
 70
   128
 71
   103
 72
   119
 73
   118
  0
VERTEX
  8
iceCream_2
 10
0.0
 20
0.0
 30
0.0
 70
   128
 71
   104
 72
   120
 73
   119
  0
VERTEX
  8
iceCream_2
 10
0.0
 20
0.0
 30
0.0
 70
   128
 71
   172
 72
   8
 73
   7
  0
VERTEX
  8
iceCream_2
 10
0.0
 20
0.0
 30
0.0
 70
   128
 71
   173
 72
   9
 73
   8
  0
VERTEX
  8
iceCream_2
 10
0.0
 20
0.0
 30
0.0
 70
   128
 71
   108
 72
   124
 73
   123
  0
VERTEX
  8
iceCream_2
 10
0.0
 20
0.0
 30
0.0
 70
   128
 71
   109
 72
   125
 73
   124
  0
VERTEX
  8
iceCream_2
 10
0.0
 20
0.0
 30
0.0
 70
   128
 71
   110
 72
   126
 73
   125
  0
VERTEX
  8
iceCream_2
 10
0.0
 20
0.0
 30
0.0
 70
   128
 71
   111
 72
   127
 73
   126
  0
VERTEX
  8
iceCream_2
 10
0.0
 20
0.0
 30
0.0
 70
   128
 71
   112
 72
   128
 73
   127
  0
VERTEX
  8
iceCream_2
 10
0.0
 20
0.0
 30
0.0
 70
   128
 71
   113
 72
   129
 73
   128
  0
VERTEX
  8
iceCream_2
 10
0.0
 20
0.0
 30
0.0
 70
   128
 71
   114
 72
   130
 73
   129
  0
VERTEX
  8
iceCream_2
 10
0.0
 20
0.0
 30
0.0
 70
   128
 71
   115
 72
   131
 73
   130
  0
VERTEX
  8
iceCream_2
 10
0.0
 20
0.0
 30
0.0
 70
   128
 71
   116
 72
   132
 73
   131
  0
VERTEX
  8
iceCream_2
 10
0.0
 20
0.0
 30
0.0
 70
   128
 71
   117
 72
   133
 73
   132
  0
VERTEX
  8
iceCream_2
 10
0.0
 20
0.0
 30
0.0
 70
   128
 71
   118
 72
   134
 73
   133
  0
VERTEX
  8
iceCream_2
 10
0.0
 20
0.0
 30
0.0
 70
   128
 71
   119
 72
   135
 73
   134
  0
VERTEX
  8
iceCream_2
 10
0.0
 20
0.0
 30
0.0
 70
   128
 71
   1
 72
   10
 73
   9
  0
VERTEX
  8
iceCream_2
 10
0.0
 20
0.0
 30
0.0
 70
   128
 71
   2
 72
   11
 73
   10
  0
VERTEX
  8
iceCream_2
 10
0.0
 20
0.0
 30
0.0
 70
   128
 71
   123
 72
   139
 73
   138
  0
VERTEX
  8
iceCream_2
 10
0.0
 20
0.0
 30
0.0
 70
   128
 71
   124
 72
   140
 73
   139
  0
VERTEX
  8
iceCream_2
 10
0.0
 20
0.0
 30
0.0
 70
   128
 71
   125
 72
   141
 73
   140
  0
VERTEX
  8
iceCream_2
 10
0.0
 20
0.0
 30
0.0
 70
   128
 71
   126
 72
   142
 73
   141
  0
VERTEX
  8
iceCream_2
 10
0.0
 20
0.0
 30
0.0
 70
   128
 71
   127
 72
   143
 73
   142
  0
VERTEX
  8
iceCream_2
 10
0.0
 20
0.0
 30
0.0
 70
   128
 71
   128
 72
   144
 73
   143
  0
VERTEX
  8
iceCream_2
 10
0.0
 20
0.0
 30
0.0
 70
   128
 71
   129
 72
   145
 73
   144
  0
VERTEX
  8
iceCream_2
 10
0.0
 20
0.0
 30
0.0
 70
   128
 71
   130
 72
   146
 73
   145
  0
VERTEX
  8
iceCream_2
 10
0.0
 20
0.0
 30
0.0
 70
   128
 71
   131
 72
   147
 73
   146
  0
VERTEX
  8
iceCream_2
 10
0.0
 20
0.0
 30
0.0
 70
   128
 71
   132
 72
   148
 73
   147
  0
VERTEX
  8
iceCream_2
 10
0.0
 20
0.0
 30
0.0
 70
   128
 71
   133
 72
   149
 73
   148
  0
VERTEX
  8
iceCream_2
 10
0.0
 20
0.0
 30
0.0
 70
   128
 71
   134
 72
   150
 73
   149
  0
VERTEX
  8
iceCream_2
 10
0.0
 20
0.0
 30
0.0
 70
   128
 71
   16
 72
   12
 73
   11
  0
VERTEX
  8
iceCream_2
 10
0.0
 20
0.0
 30
0.0
 70
   128
 71
   17
 72
   13
 73
   12
  0
VERTEX
  8
iceCream_2
 10
0.0
 20
0.0
 30
0.0
 70
   128
 71
   138
 72
   154
 73
   153
  0
VERTEX
  8
iceCream_2
 10
0.0
 20
0.0
 30
0.0
 70
   128
 71
   139
 72
   155
 73
   154
  0
VERTEX
  8
iceCream_2
 10
0.0
 20
0.0
 30
0.0
 70
   128
 71
   140
 72
   156
 73
   155
  0
VERTEX
  8
iceCream_2
 10
0.0
 20
0.0
 30
0.0
 70
   128
 71
   141
 72
   157
 73
   156
  0
VERTEX
  8
iceCream_2
 10
0.0
 20
0.0
 30
0.0
 70
   128
 71
   142
 72
   158
 73
   157
  0
VERTEX
  8
iceCream_2
 10
0.0
 20
0.0
 30
0.0
 70
   128
 71
   143
 72
   159
 73
   158
  0
VERTEX
  8
iceCream_2
 10
0.0
 20
0.0
 30
0.0
 70
   128
 71
   144
 72
   160
 73
   159
  0
VERTEX
  8
iceCream_2
 10
0.0
 20
0.0
 30
0.0
 70
   128
 71
   145
 72
   161
 73
   160
  0
VERTEX
  8
iceCream_2
 10
0.0
 20
0.0
 30
0.0
 70
   128
 71
   146
 72
   162
 73
   161
  0
VERTEX
  8
iceCream_2
 10
0.0
 20
0.0
 30
0.0
 70
   128
 71
   147
 72
   163
 73
   162
  0
VERTEX
  8
iceCream_2
 10
0.0
 20
0.0
 30
0.0
 70
   128
 71
   148
 72
   164
 73
   163
  0
VERTEX
  8
iceCream_2
 10
0.0
 20
0.0
 30
0.0
 70
   128
 71
   149
 72
   165
 73
   164
  0
VERTEX
  8
iceCream_2
 10
0.0
 20
0.0
 30
0.0
 70
   128
 71
   31
 72
   14
 73
   13
  0
VERTEX
  8
iceCream_2
 10
0.0
 20
0.0
 30
0.0
 70
   128
 71
   32
 72
   15
 73
   14
  0
VERTEX
  8
iceCream_2
 10
0.0
 20
0.0
 30
0.0
 70
   128
 71
   153
 72
   169
 73
   168
  0
VERTEX
  8
iceCream_2
 10
0.0
 20
0.0
 30
0.0
 70
   128
 71
   154
 72
   170
 73
   169
  0
VERTEX
  8
iceCream_2
 10
0.0
 20
0.0
 30
0.0
 70
   128
 71
   155
 72
   171
 73
   170
  0
VERTEX
  8
iceCream_2
 10
0.0
 20
0.0
 30
0.0
 70
   128
 71
   156
 72
   172
 73
   171
  0
VERTEX
  8
iceCream_2
 10
0.0
 20
0.0
 30
0.0
 70
   128
 71
   157
 72
   173
 73
   172
  0
VERTEX
  8
iceCream_2
 10
0.0
 20
0.0
 30
0.0
 70
   128
 71
   158
 72
   1
 73
   173
  0
VERTEX
  8
iceCream_2
 10
0.0
 20
0.0
 30
0.0
 70
   128
 71
   159
 72
   2
 73
   1
  0
VERTEX
  8
iceCream_2
 10
0.0
 20
0.0
 30
0.0
 70
   128
 71
   160
 72
   16
 73
   2
  0
SEQEND
  0
POLYLINE
  8
iceCream_3
 66
   1
 10
0.0
 20
0.0
 30
0.0
 70
   64
 71
   18
 72
   32
  0
VERTEX
  8
iceCream_3
 10
-22.609355
 20
160.153122
 30
-5.546374
 70
   192
  0
VERTEX
  8
iceCream_3
 10
8.747463
 20
160.153122
 30
25.810444
 70
   192
  0
VERTEX
  8
iceCream_3
 10
40.104281
 20
160.153122
 30
-5.546374
 70
   192
  0
VERTEX
  8
iceCream_3
 10
8.747463
 20
160.153122
 30
-36.903192
 70
   192
  0
VERTEX
  8
iceCream_3
 10
8.747463
 20
191.509941
 30
-5.546374
 70
   192
  0
VERTEX
  8
iceCream_3
 10
8.747463
 20
128.796304
 30
-5.546374
 70
   192
  0
VERTEX
  8
iceCream_3
 10
8.747463
 20
182.325741
 30
16.626245
 70
   192
  0
VERTEX
  8
iceCream_3
 10
-13.425156
 20
160.153122
 30
16.626245
 70
   192
  0
VERTEX
  8
iceCream_3
 10
-13.425156
 20
182.325741
 30
-5.546374
 70
   192
  0
VERTEX
  8
iceCream_3
 10
30.920082
 20
182.325741
 30
-5.546374
 70
   192
  0
VERTEX
  8
iceCream_3
 10
30.920082
 20
160.153122
 30
16.626245
 70
   192
  0
VERTEX
  8
iceCream_3
 10
8.747463
 20
182.325741
 30
-27.718993
 70
   192
  0
VERTEX
  8
iceCream_3
 10
30.920082
 20
160.153122
 30
-27.718993
 70
   192
  0
VERTEX
  8
iceCream_3
 10
-13.425156
 20
160.153122
 30
-27.718993
 70
   192
  0
VERTEX
  8
iceCream_3
 10
-13.425156
 20
137.980503
 30
-5.546374
 70
   192
  0
VERTEX
  8
iceCream_3
 10
8.747463
 20
137.980503
 30
16.626245
 70
   192
  0
VERTEX
  8
iceCream_3
 10
30.920082
 20
137.980503
 30
-5.546374
 70
   192
  0
VERTEX
  8
iceCream_3
 10
8.747463
 20
137.980503
 30
-27.718993
 70
   192
  0
VERTEX
  8
iceCream_3
 10
0.0
 20
0.0
 30
0.0
 70
   128
 71
   5
 72
   7
 73
   9
  0
VERTEX
  8
iceCream_3
 10
0.0
 20
0.0
 30
0.0
 70
   128
 71
   7
 72
   2
 73
   8
  0
VERTEX
  8
iceCream_3
 10
0.0
 20
0.0
 30
0.0
 70
   128
 71
   8
 72
   9
 73
   7
  0
VERTEX
  8
iceCream_3
 10
0.0
 20
0.0
 30
0.0
 70
   128
 71
   9
 72
   8
 73
   1
  0
VERTEX
  8
iceCream_3
 10
0.0
 20
0.0
 30
0.0
 70
   128
 71
   5
 72
   10
 73
   7
  0
VERTEX
  8
iceCream_3
 10
0.0
 20
0.0
 30
0.0
 70
   128
 71
   10
 72
   3
 73
   11
  0
VERTEX
  8
iceCream_3
 10
0.0
 20
0.0
 30
0.0
 70
   128
 71
   11
 72
   7
 73
   10
  0
VERTEX
  8
iceCream_3
 10
0.0
 20
0.0
 30
0.0
 70
   128
 71
   7
 72
   11
 73
   2
  0
VERTEX
  8
iceCream_3
 10
0.0
 20
0.0
 30
0.0
 70
   128
 71
   5
 72
   12
 73
   10
  0
VERTEX
  8
iceCream_3
 10
0.0
 20
0.0
 30
0.0
 70
   128
 71
   12
 72
   4
 73
   13
  0
VERTEX
  8
iceCream_3
 10
0.0
 20
0.0
 30
0.0
 70
   128
 71
   13
 72
   10
 73
   12
  0
VERTEX
  8
iceCream_3
 10
0.0
 20
0.0
 30
0.0
 70
   128
 71
   10
 72
   13
 73
   3
  0
VERTEX
  8
iceCream_3
 10
0.0
 20
0.0
 30
0.0
 70
   128
 71
   5
 72
   9
 73
   12
  0
VERTEX
  8
iceCream_3
 10
0.0
 20
0.0
 30
0.0
 70
   128
 71
   9
 72
   1
 73
   14
  0
VERTEX
  8
iceCream_3
 10
0.0
 20
0.0
 30
0.0
 70
   128
 71
   14
 72
   12
 73
   9
  0
VERTEX
  8
iceCream_3
 10
0.0
 20
0.0
 30
0.0
 70
   128
 71
   12
 72
   14
 73
   4
  0
VERTEX
  8
iceCream_3
 10
0.0
 20
0.0
 30
0.0
 70
   128
 71
   6
 72
   15
 73
   16
  0
VERTEX
  8
iceCream_3
 10
0.0
 20
0.0
 30
0.0
 70
   128
 71
   15
 72
   1
 73
   8
  0
VERTEX
  8
iceCream_3
 10
0.0
 20
0.0
 30
0.0
 70
   128
 71
   8
 72
   16
 73
   15
  0
VERTEX
  8
iceCream_3
 10
0.0
 20
0.0
 30
0.0
 70
   128
 71
   16
 72
   8
 73
   2
  0
VERTEX
  8
iceCream_3
 10
0.0
 20
0.0
 30
0.0
 70
   128
 71
   6
 72
   16
 73
   17
  0
VERTEX
  8
iceCream_3
 10
0.0
 20
0.0
 30
0.0
 70
   128
 71
   16
 72
   2
 73
   11
  0
VERTEX
  8
iceCream_3
 10
0.0
 20
0.0
 30
0.0
 70
   128
 71
   11
 72
   17
 73
   16
  0
VERTEX
  8
iceCream_3
 10
0.0
 20
0.0
 30
0.0
 70
   128
 71
   17
 72
   11
 73
   3
  0
VERTEX
  8
iceCream_3
 10
0.0
 20
0.0
 30
0.0
 70
   128
 71
   6
 72
   17
 73
   18
  0
VERTEX
  8
iceCream_3
 10
0.0
 20
0.0
 30
0.0
 70
   128
 71
   17
 72
   3
 73
   13
  0
VERTEX
  8
iceCream_3
 10
0.0
 20
0.0
 30
0.0
 70
   128
 71
   13
 72
   18
 73
   17
  0
VERTEX
  8
iceCream_3
 10
0.0
 20
0.0
 30
0.0
 70
   128
 71
   18
 72
   13
 73
   4
  0
VERTEX
  8
iceCream_3
 10
0.0
 20
0.0
 30
0.0
 70
   128
 71
   6
 72
   18
 73
   15
  0
VERTEX
  8
iceCream_3
 10
0.0
 20
0.0
 30
0.0
 70
   128
 71
   18
 72
   4
 73
   14
  0
VERTEX
  8
iceCream_3
 10
0.0
 20
0.0
 30
0.0
 70
   128
 71
   14
 72
   15
 73
   18
  0
VERTEX
  8
iceCream_3
 10
0.0
 20
0.0
 30
0.0
 70
   128
 71
   15
 72
   14
 73
   1
  0
SEQEND
  0
POLYLINE
  8
iceCream_4
 66
   1
 10
0.0
 20
0.0
 30
0.0
 70
   64
 71
   18
 72
   32
  0
VERTEX
  8
iceCream_4
 10
-29.409616
 20
110.275388
 30
29.979969
 70
   192
  0
VERTEX
  8
iceCream_4
 10
23.557983
 20
110.275388
 30
82.947568
 70
   192
  0
VERTEX
  8
iceCream_4
 10
76.525581
 20
110.275388
 30
29.979969
 70
   192
  0
VERTEX
  8
iceCream_4
 10
23.557983
 20
110.275388
 30
-22.987629
 70
   192
  0
VERTEX
  8
iceCream_4
 10
23.557983
 20
163.242987
 30
29.979969
 70
   192
  0
VERTEX
  8
iceCream_4
 10
23.557983
 20
57.307790
 30
29.979969
 70
   192
  0
VERTEX
  8
iceCream_4
 10
23.557983
 20
147.729136
 30
67.433717
 70
   192
  0
VERTEX
  8
iceCream_4
 10
-13.895765
 20
110.275388
 30
67.433717
 70
   192
  0
VERTEX
  8
iceCream_4
 10
-13.895765
 20
147.729136
 30
29.979969
 70
   192
  0
VERTEX
  8
iceCream_4
 10
61.011731
 20
147.729136
 30
29.979969
 70
   192
  0
VERTEX
  8
iceCream_4
 10
61.011731
 20
110.275388
 30
67.433717
 70
   192
  0
VERTEX
  8
iceCream_4
 10
23.557983
 20
147.729136
 30
-7.473779
 70
   192
  0
VERTEX
  8
iceCream_4
 10
61.011731
 20
110.275388
 30
-7.473779
 70
   192
  0
VERTEX
  8
iceCream_4
 10
-13.895765
 20
110.275388
 30
-7.473779
 70
   192
  0
VERTEX
  8
iceCream_4
 10
-13.895765
 20
72.821640
 30
29.979969
 70
   192
  0
VERTEX
  8
iceCream_4
 10
23.557983
 20
72.821640
 30
67.433717
 70
   192
  0
VERTEX
  8
iceCream_4
 10
61.011731
 20
72.821640
 30
29.979969
 70
   192
  0
VERTEX
  8
iceCream_4
 10
23.557983
 20
72.821640
 30
-7.473779
 70
   192
  0
VERTEX
  8
iceCream_4
 10
0.0
 20
0.0
 30
0.0
 70
   128
 71
   5
 72
   7
 73
   9
  0
VERTEX
  8
iceCream_4
 10
0.0
 20
0.0
 30
0.0
 70
   128
 71
   7
 72
   2
 73
   8
  0
VERTEX
  8
iceCream_4
 10
0.0
 20
0.0
 30
0.0
 70
   128
 71
   8
 72
   9
 73
   7
  0
VERTEX
  8
iceCream_4
 10
0.0
 20
0.0
 30
0.0
 70
   128
 71
   9
 72
   8
 73
   1
  0
VERTEX
  8
iceCream_4
 10
0.0
 20
0.0
 30
0.0
 70
   128
 71
   5
 72
   10
 73
   7
  0
VERTEX
  8
iceCream_4
 10
0.0
 20
0.0
 30
0.0
 70
   128
 71
   10
 72
   3
 73
   11
  0
VERTEX
  8
iceCream_4
 10
0.0
 20
0.0
 30
0.0
 70
   128
 71
   11
 72
   7
 73
   10
  0
VERTEX
  8
iceCream_4
 10
0.0
 20
0.0
 30
0.0
 70
   128
 71
   7
 72
   11
 73
   2
  0
VERTEX
  8
iceCream_4
 10
0.0
 20
0.0
 30
0.0
 70
   128
 71
   5
 72
   12
 73
   10
  0
VERTEX
  8
iceCream_4
 10
0.0
 20
0.0
 30
0.0
 70
   128
 71
   12
 72
   4
 73
   13
  0
VERTEX
  8
iceCream_4
 10
0.0
 20
0.0
 30
0.0
 70
   128
 71
   13
 72
   10
 73
   12
  0
VERTEX
  8
iceCream_4
 10
0.0
 20
0.0
 30
0.0
 70
   128
 71
   10
 72
   13
 73
   3
  0
VERTEX
  8
iceCream_4
 10
0.0
 20
0.0
 30
0.0
 70
   128
 71
   5
 72
   9
 73
   12
  0
VERTEX
  8
iceCream_4
 10
0.0
 20
0.0
 30
0.0
 70
   128
 71
   9
 72
   1
 73
   14
  0
VERTEX
  8
iceCream_4
 10
0.0
 20
0.0
 30
0.0
 70
   128
 71
   14
 72
   12
 73
   9
  0
VERTEX
  8
iceCream_4
 10
0.0
 20
0.0
 30
0.0
 70
   128
 71
   12
 72
   14
 73
   4
  0
VERTEX
  8
iceCream_4
 10
0.0
 20
0.0
 30
0.0
 70
   128
 71
   6
 72
   15
 73
   16
  0
VERTEX
  8
iceCream_4
 10
0.0
 20
0.0
 30
0.0
 70
   128
 71
   15
 72
   1
 73
   8
  0
VERTEX
  8
iceCream_4
 10
0.0
 20
0.0
 30
0.0
 70
   128
 71
   8
 72
   16
 73
   15
  0
VERTEX
  8
iceCream_4
 10
0.0
 20
0.0
 30
0.0
 70
   128
 71
   16
 72
   8
 73
   2
  0
VERTEX
  8
iceCream_4
 10
0.0
 20
0.0
 30
0.0
 70
   128
 71
   6
 72
   16
 73
   17
  0
VERTEX
  8
iceCream_4
 10
0.0
 20
0.0
 30
0.0
 70
   128
 71
   16
 72
   2
 73
   11
  0
VERTEX
  8
iceCream_4
 10
0.0
 20
0.0
 30
0.0
 70
   128
 71
   11
 72
   17
 73
   16
  0
VERTEX
  8
iceCream_4
 10
0.0
 20
0.0
 30
0.0
 70
   128
 71
   17
 72
   11
 73
   3
  0
VERTEX
  8
iceCream_4
 10
0.0
 20
0.0
 30
0.0
 70
   128
 71
   6
 72
   17
 73
   18
  0
VERTEX
  8
iceCream_4
 10
0.0
 20
0.0
 30
0.0
 70
   128
 71
   17
 72
   3
 73
   13
  0
VERTEX
  8
iceCream_4
 10
0.0
 20
0.0
 30
0.0
 70
   128
 71
   13
 72
   18
 73
   17
  0
VERTEX
  8
iceCream_4
 10
0.0
 20
0.0
 30
0.0
 70
   128
 71
   18
 72
   13
 73
   4
  0
VERTEX
  8
iceCream_4
 10
0.0
 20
0.0
 30
0.0
 70
   128
 71
   6
 72
   18
 73
   15
  0
VERTEX
  8
iceCream_4
 10
0.0
 20
0.0
 30
0.0
 70
   128
 71
   18
 72
   4
 73
   14
  0
VERTEX
  8
iceCream_4
 10
0.0
 20
0.0
 30
0.0
 70
   128
 71
   14
 72
   15
 73
   18
  0
VERTEX
  8
iceCream_4
 10
0.0
 20
0.0
 30
0.0
 70
   128
 71
   15
 72
   14
 73
   1
  0
SEQEND
  0
POLYLINE
  8
iceCream_5
 66
   1
 10
0.0
 20
0.0
 30
0.0
 70
   64
 71
   18
 72
   32
  0
VERTEX
  8
iceCream_5
 10
-45.679454
 20
110.275388
 30
-32.367984
 70
   192
  0
VERTEX
  8
iceCream_5
 10
13.238898
 20
110.275388
 30
26.550368
 70
   192
  0
VERTEX
  8
iceCream_5
 10
72.157250
 20
110.275388
 30
-32.367984
 70
   192
  0
VERTEX
  8
iceCream_5
 10
13.238898
 20
110.275388
 30
-91.286336
 70
   192
  0
VERTEX
  8
iceCream_5
 10
13.238898
 20
169.193740
 30
-32.367984
 70
   192
  0
VERTEX
  8
iceCream_5
 10
13.238898
 20
51.357036
 30
-32.367984
 70
   192
  0
VERTEX
  8
iceCream_5
 10
13.238898
 20
151.936954
 30
9.293583
 70
   192
  0
VERTEX
  8
iceCream_5
 10
-28.422668
 20
110.275388
 30
9.293583
 70
   192
  0
VERTEX
  8
iceCream_5
 10
-28.422668
 20
151.936954
 30
-32.367984
 70
   192
  0
VERTEX
  8
iceCream_5
 10
54.900464
 20
151.936954
 30
-32.367984
 70
   192
  0
VERTEX
  8
iceCream_5
 10
54.900464
 20
110.275388
 30
9.293583
 70
   192
  0
VERTEX
  8
iceCream_5
 10
13.238898
 20
151.936954
 30
-74.029550
 70
   192
  0
VERTEX
  8
iceCream_5
 10
54.900464
 20
110.275388
 30
-74.029550
 70
   192
  0
VERTEX
  8
iceCream_5
 10
-28.422668
 20
110.275388
 30
-74.029550
 70
   192
  0
VERTEX
  8
iceCream_5
 10
-28.422668
 20
68.613822
 30
-32.367984
 70
   192
  0
VERTEX
  8
iceCream_5
 10
13.238898
 20
68.613822
 30
9.293583
 70
   192
  0
VERTEX
  8
iceCream_5
 10
54.900464
 20
68.613822
 30
-32.367984
 70
   192
  0
VERTEX
  8
iceCream_5
 10
13.238898
 20
68.613822
 30
-74.029550
 70
   192
  0
VERTEX
  8
iceCream_5
 10
0.0
 20
0.0
 30
0.0
 70
   128
 71
   5
 72
   7
 73
   9
  0
VERTEX
  8
iceCream_5
 10
0.0
 20
0.0
 30
0.0
 70
   128
 71
   7
 72
   2
 73
   8
  0
VERTEX
  8
iceCream_5
 10
0.0
 20
0.0
 30
0.0
 70
   128
 71
   8
 72
   9
 73
   7
  0
VERTEX
  8
iceCream_5
 10
0.0
 20
0.0
 30
0.0
 70
   128
 71
   9
 72
   8
 73
   1
  0
VERTEX
  8
iceCream_5
 10
0.0
 20
0.0
 30
0.0
 70
   128
 71
   5
 72
   10
 73
   7
  0
VERTEX
  8
iceCream_5
 10
0.0
 20
0.0
 30
0.0
 70
   128
 71
   10
 72
   3
 73
   11
  0
VERTEX
  8
iceCream_5
 10
0.0
 20
0.0
 30
0.0
 70
   128
 71
   11
 72
   7
 73
   10
  0
VERTEX
  8
iceCream_5
 10
0.0
 20
0.0
 30
0.0
 70
   128
 71
   7
 72
   11
 73
   2
  0
VERTEX
  8
iceCream_5
 10
0.0
 20
0.0
 30
0.0
 70
   128
 71
   5
 72
   12
 73
   10
  0
VERTEX
  8
iceCream_5
 10
0.0
 20
0.0
 30
0.0
 70
   128
 71
   12
 72
   4
 73
   13
  0
VERTEX
  8
iceCream_5
 10
0.0
 20
0.0
 30
0.0
 70
   128
 71
   13
 72
   10
 73
   12
  0
VERTEX
  8
iceCream_5
 10
0.0
 20
0.0
 30
0.0
 70
   128
 71
   10
 72
   13
 73
   3
  0
VERTEX
  8
iceCream_5
 10
0.0
 20
0.0
 30
0.0
 70
   128
 71
   5
 72
   9
 73
   12
  0
VERTEX
  8
iceCream_5
 10
0.0
 20
0.0
 30
0.0
 70
   128
 71
   9
 72
   1
 73
   14
  0
VERTEX
  8
iceCream_5
 10
0.0
 20
0.0
 30
0.0
 70
   128
 71
   14
 72
   12
 73
   9
  0
VERTEX
  8
iceCream_5
 10
0.0
 20
0.0
 30
0.0
 70
   128
 71
   12
 72
   14
 73
   4
  0
VERTEX
  8
iceCream_5
 10
0.0
 20
0.0
 30
0.0
 70
   128
 71
   6
 72
   15
 73
   16
  0
VERTEX
  8
iceCream_5
 10
0.0
 20
0.0
 30
0.0
 70
   128
 71
   15
 72
   1
 73
   8
  0
VERTEX
  8
iceCream_5
 10
0.0
 20
0.0
 30
0.0
 70
   128
 71
   8
 72
   16
 73
   15
  0
VERTEX
  8
iceCream_5
 10
0.0
 20
0.0
 30
0.0
 70
   128
 71
   16
 72
   8
 73
   2
  0
VERTEX
  8
iceCream_5
 10
0.0
 20
0.0
 30
0.0
 70
   128
 71
   6
 72
   16
 73
   17
  0
VERTEX
  8
iceCream_5
 10
0.0
 20
0.0
 30
0.0
 70
   128
 71
   16
 72
   2
 73
   11
  0
VERTEX
  8
iceCream_5
 10
0.0
 20
0.0
 30
0.0
 70
   128
 71
   11
 72
   17
 73
   16
  0
VERTEX
  8
iceCream_5
 10
0.0
 20
0.0
 30
0.0
 70
   128
 71
   17
 72
   11
 73
   3
  0
VERTEX
  8
iceCream_5
 10
0.0
 20
0.0
 30
0.0
 70
   128
 71
   6
 72
   17
 73
   18
  0
VERTEX
  8
iceCream_5
 10
0.0
 20
0.0
 30
0.0
 70
   128
 71
   17
 72
   3
 73
   13
  0
VERTEX
  8
iceCream_5
 10
0.0
 20
0.0
 30
0.0
 70
   128
 71
   13
 72
   18
 73
   17
  0
VERTEX
  8
iceCream_5
 10
0.0
 20
0.0
 30
0.0
 70
   128
 71
   18
 72
   13
 73
   4
  0
VERTEX
  8
iceCream_5
 10
0.0
 20
0.0
 30
0.0
 70
   128
 71
   6
 72
   18
 73
   15
  0
VERTEX
  8
iceCream_5
 10
0.0
 20
0.0
 30
0.0
 70
   128
 71
   18
 72
   4
 73
   14
  0
VERTEX
  8
iceCream_5
 10
0.0
 20
0.0
 30
0.0
 70
   128
 71
   14
 72
   15
 73
   18
  0
VERTEX
  8
iceCream_5
 10
0.0
 20
0.0
 30
0.0
 70
   128
 71
   15
 72
   14
 73
   1
  0
SEQEND
  0
POLYLINE
  8
iceCream_6
 66
   1
 10
0.0
 20
0.0
 30
0.0
 70
   64
 71
   18
 72
   32
  0
VERTEX
  8
iceCream_6
 10
-93.915111
 20
124.405889
 30
7.885076
 70
   192
  0
VERTEX
  8
iceCream_6
 10
-32.593330
 20
124.405889
 30
69.206857
 70
   192
  0
VERTEX
  8
iceCream_6
 10
28.728452
 20
124.405889
 30
7.885076
 70
   192
  0
VERTEX
  8
iceCream_6
 10
-32.593330
 20
124.405889
 30
-53.436706
 70
   192
  0
VERTEX
  8
iceCream_6
 10
-32.593330
 20
185.727671
 30
7.885076
 70
   192
  0
VERTEX
  8
iceCream_6
 10
-32.593330
 20
63.084108
 30
7.885076
 70
   192
  0
VERTEX
  8
iceCream_6
 10
-32.593330
 20
167.766937
 30
51.246123
 70
   192
  0
VERTEX
  8
iceCream_6
 10
-75.954377
 20
124.405889
 30
51.246123
 70
   192
  0
VERTEX
  8
iceCream_6
 10
-75.954377
 20
167.766937
 30
7.885076
 70
   192
  0
VERTEX
  8
iceCream_6
 10
10.767718
 20
167.766937
 30
7.885076
 70
   192
  0
VERTEX
  8
iceCream_6
 10
10.767718
 20
124.405889
 30
51.246123
 70
   192
  0
VERTEX
  8
iceCream_6
 10
-32.593330
 20
167.766937
 30
-35.475972
 70
   192
  0
VERTEX
  8
iceCream_6
 10
10.767718
 20
124.405889
 30
-35.475972
 70
   192
  0
VERTEX
  8
iceCream_6
 10
-75.954377
 20
124.405889
 30
-35.475972
 70
   192
  0
VERTEX
  8
iceCream_6
 10
-75.954377
 20
81.044842
 30
7.885076
 70
   192
  0
VERTEX
  8
iceCream_6
 10
-32.593330
 20
81.044842
 30
51.246123
 70
   192
  0
VERTEX
  8
iceCream_6
 10
10.767718
 20
81.044842
 30
7.885076
 70
   192
  0
VERTEX
  8
iceCream_6
 10
-32.593330
 20
81.044842
 30
-35.475972
 70
   192
  0
VERTEX
  8
iceCream_6
 10
0.0
 20
0.0
 30
0.0
 70
   128
 71
   5
 72
   7
 73
   9
  0
VERTEX
  8
iceCream_6
 10
0.0
 20
0.0
 30
0.0
 70
   128
 71
   7
 72
   2
 73
   8
  0
VERTEX
  8
iceCream_6
 10
0.0
 20
0.0
 30
0.0
 70
   128
 71
   8
 72
   9
 73
   7
  0
VERTEX
  8
iceCream_6
 10
0.0
 20
0.0
 30
0.0
 70
   128
 71
   9
 72
   8
 73
   1
  0
VERTEX
  8
iceCream_6
 10
0.0
 20
0.0
 30
0.0
 70
   128
 71
   5
 72
   10
 73
   7
  0
VERTEX
  8
iceCream_6
 10
0.0
 20
0.0
 30
0.0
 70
   128
 71
   10
 72
   3
 73
   11
  0
VERTEX
  8
iceCream_6
 10
0.0
 20
0.0
 30
0.0
 70
   128
 71
   11
 72
   7
 73
   10
  0
VERTEX
  8
iceCream_6
 10
0.0
 20
0.0
 30
0.0
 70
   128
 71
   7
 72
   11
 73
   2
  0
VERTEX
  8
iceCream_6
 10
0.0
 20
0.0
 30
0.0
 70
   128
 71
   5
 72
   12
 73
   10
  0
VERTEX
  8
iceCream_6
 10
0.0
 20
0.0
 30
0.0
 70
   128
 71
   12
 72
   4
 73
   13
  0
VERTEX
  8
iceCream_6
 10
0.0
 20
0.0
 30
0.0
 70
   128
 71
   13
 72
   10
 73
   12
  0
VERTEX
  8
iceCream_6
 10
0.0
 20
0.0
 30
0.0
 70
   128
 71
   10
 72
   13
 73
   3
  0
VERTEX
  8
iceCream_6
 10
0.0
 20
0.0
 30
0.0
 70
   128
 71
   5
 72
   9
 73
   12
  0
VERTEX
  8
iceCream_6
 10
0.0
 20
0.0
 30
0.0
 70
   128
 71
   9
 72
   1
 73
   14
  0
VERTEX
  8
iceCream_6
 10
0.0
 20
0.0
 30
0.0
 70
   128
 71
   14
 72
   12
 73
   9
  0
VERTEX
  8
iceCream_6
 10
0.0
 20
0.0
 30
0.0
 70
   128
 71
   12
 72
   14
 73
   4
  0
VERTEX
  8
iceCream_6
 10
0.0
 20
0.0
 30
0.0
 70
   128
 71
   6
 72
   15
 73
   16
  0
VERTEX
  8
iceCream_6
 10
0.0
 20
0.0
 30
0.0
 70
   128
 71
   15
 72
   1
 73
   8
  0
VERTEX
  8
iceCream_6
 10
0.0
 20
0.0
 30
0.0
 70
   128
 71
   8
 72
   16
 73
   15
  0
VERTEX
  8
iceCream_6
 10
0.0
 20
0.0
 30
0.0
 70
   128
 71
   16
 72
   8
 73
   2
  0
VERTEX
  8
iceCream_6
 10
0.0
 20
0.0
 30
0.0
 70
   128
 71
   6
 72
   16
 73
   17
  0
VERTEX
  8
iceCream_6
 10
0.0
 20
0.0
 30
0.0
 70
   128
 71
   16
 72
   2
 73
   11
  0
VERTEX
  8
iceCream_6
 10
0.0
 20
0.0
 30
0.0
 70
   128
 71
   11
 72
   17
 73
   16
  0
VERTEX
  8
iceCream_6
 10
0.0
 20
0.0
 30
0.0
 70
   128
 71
   17
 72
   11
 73
   3
  0
VERTEX
  8
iceCream_6
 10
0.0
 20
0.0
 30
0.0
 70
   128
 71
   6
 72
   17
 73
   18
  0
VERTEX
  8
iceCream_6
 10
0.0
 20
0.0
 30
0.0
 70
   128
 71
   17
 72
   3
 73
   13
  0
VERTEX
  8
iceCream_6
 10
0.0
 20
0.0
 30
0.0
 70
   128
 71
   13
 72
   18
 73
   17
  0
VERTEX
  8
iceCream_6
 10
0.0
 20
0.0
 30
0.0
 70
   128
 71
   18
 72
   13
 73
   4
  0
VERTEX
  8
iceCream_6
 10
0.0
 20
0.0
 30
0.0
 70
   128
 71
   6
 72
   18
 73
   15
  0
VERTEX
  8
iceCream_6
 10
0.0
 20
0.0
 30
0.0
 70
   128
 71
   18
 72
   4
 73
   14
  0
VERTEX
  8
iceCream_6
 10
0.0
 20
0.0
 30
0.0
 70
   128
 71
   14
 72
   15
 73
   18
  0
VERTEX
  8
iceCream_6
 10
0.0
 20
0.0
 30
0.0
 70
   128
 71
   15
 72
   14
 73
   1
  0
SEQEND
  0
ENDSEC
  0
EOF
