999
FBX AutoCAD (*.DXF) exporter
  0
SECTION
  2
HEADER
  9
$ACADVER
  1
AC1008
  9
$UCSORG
 10
0.0
 20
0.0
 30
0.0
  9
$UCSXDIR
 10
1.0
 20
0.0
 30
0.0
  9
$TILEMODE
 70
   1
  9
$UCSYDIR
 10
0.0
 20
1.0
 30
0.0
  0
ENDSEC
  0
SECTION
  2
TABLES
  0
TABLE
  2
LTYPE
 70
   1
  0
LTYPE
  2
CONTINUOUS
 70
   64
  3
Solid line
 72
   65
 73
   0
 40
0.0
  0
ENDTAB
  0
TABLE
  2
LAYER
 70
   1
  0
LAYER
  2
steak
 70
   0
 62
   250
  6
CONTINUOUS
  0
ENDTAB
  0
ENDSEC
  0
SECTION
  2
BLOCKS
  0
ENDSEC
  0
SECTION
  2
ENTITIES
  0
POLYLINE
  8
steak
 66
   1
 10
0.0
 20
0.0
 30
0.0
 70
   64
 71
   30
 72
   56
  0
VERTEX
  8
steak
 10
-74.796112
 20
0.000000
 30
-50.863599
 70
   192
  0
VERTEX
  8
steak
 10
-60.982029
 20
0.000000
 30
-76.164774
 70
   192
  0
VERTEX
  8
steak
 10
-36.884901
 20
0.000000
 30
-90.815437
 70
   192
  0
VERTEX
  8
steak
 10
11.088111
 20
0.000000
 30
-88.583764
 70
   192
  0
VERTEX
  8
steak
 10
50.968584
 20
0.000000
 30
-66.224751
 70
   192
  0
VERTEX
  8
steak
 10
71.990392
 20
0.000000
 30
-22.700953
 70
   192
  0
VERTEX
  8
steak
 10
61.271596
 20
0.000000
 30
44.474155
 70
   192
  0
VERTEX
  8
steak
 10
35.119790
 20
0.000000
 30
81.871430
 70
   192
  0
VERTEX
  8
steak
 10
-17.149557
 20
0.000000
 30
100.335183
 70
   192
  0
VERTEX
  8
steak
 10
-59.635662
 20
0.000000
 30
76.353587
 70
   192
  0
VERTEX
  8
steak
 10
-62.421453
 20
0.000000
 30
46.102984
 70
   192
  0
VERTEX
  8
steak
 10
-43.021900
 20
0.000000
 30
17.873040
 70
   192
  0
VERTEX
  8
steak
 10
-39.120149
 20
0.000000
 30
-3.747628
 70
   192
  0
VERTEX
  8
steak
 10
-52.138080
 20
0.000000
 30
-17.605878
 70
   192
  0
VERTEX
  8
steak
 10
-69.016842
 20
0.000000
 30
-32.824792
 70
   192
  0
VERTEX
  8
steak
 10
-74.796112
 20
50.000000
 30
-50.863599
 70
   192
  0
VERTEX
  8
steak
 10
-60.982029
 20
50.000000
 30
-76.164774
 70
   192
  0
VERTEX
  8
steak
 10
-36.884901
 20
50.000000
 30
-90.815437
 70
   192
  0
VERTEX
  8
steak
 10
11.088111
 20
50.000000
 30
-88.583764
 70
   192
  0
VERTEX
  8
steak
 10
50.968584
 20
50.000000
 30
-66.224751
 70
   192
  0
VERTEX
  8
steak
 10
71.990392
 20
50.000000
 30
-22.700953
 70
   192
  0
VERTEX
  8
steak
 10
61.271596
 20
50.000000
 30
44.474155
 70
   192
  0
VERTEX
  8
steak
 10
35.119790
 20
50.000000
 30
81.871430
 70
   192
  0
VERTEX
  8
steak
 10
-17.149557
 20
50.000000
 30
100.335183
 70
   192
  0
VERTEX
  8
steak
 10
-59.635662
 20
50.000000
 30
76.353587
 70
   192
  0
VERTEX
  8
steak
 10
-62.421453
 20
50.000000
 30
46.102984
 70
   192
  0
VERTEX
  8
steak
 10
-43.021900
 20
50.000000
 30
17.873040
 70
   192
  0
VERTEX
  8
steak
 10
-39.120149
 20
50.000000
 30
-3.747628
 70
   192
  0
VERTEX
  8
steak
 10
-52.138080
 20
50.000000
 30
-17.605878
 70
   192
  0
VERTEX
  8
steak
 10
-69.016842
 20
50.000000
 30
-32.824792
 70
   192
  0
VERTEX
  8
steak
 10
0.0
 20
0.0
 30
0.0
 70
   128
 71
   1
 72
   2
 73
   17
  0
VERTEX
  8
steak
 10
0.0
 20
0.0
 30
0.0
 70
   128
 71
   2
 72
   3
 73
   18
  0
VERTEX
  8
steak
 10
0.0
 20
0.0
 30
0.0
 70
   128
 71
   3
 72
   4
 73
   19
  0
VERTEX
  8
steak
 10
0.0
 20
0.0
 30
0.0
 70
   128
 71
   4
 72
   5
 73
   20
  0
VERTEX
  8
steak
 10
0.0
 20
0.0
 30
0.0
 70
   128
 71
   5
 72
   6
 73
   21
  0
VERTEX
  8
steak
 10
0.0
 20
0.0
 30
0.0
 70
   128
 71
   6
 72
   7
 73
   22
  0
VERTEX
  8
steak
 10
0.0
 20
0.0
 30
0.0
 70
   128
 71
   7
 72
   8
 73
   23
  0
VERTEX
  8
steak
 10
0.0
 20
0.0
 30
0.0
 70
   128
 71
   8
 72
   9
 73
   24
  0
VERTEX
  8
steak
 10
0.0
 20
0.0
 30
0.0
 70
   128
 71
   9
 72
   10
 73
   25
  0
VERTEX
  8
steak
 10
0.0
 20
0.0
 30
0.0
 70
   128
 71
   10
 72
   11
 73
   26
  0
VERTEX
  8
steak
 10
0.0
 20
0.0
 30
0.0
 70
   128
 71
   11
 72
   12
 73
   27
  0
VERTEX
  8
steak
 10
0.0
 20
0.0
 30
0.0
 70
   128
 71
   12
 72
   13
 73
   28
  0
VERTEX
  8
steak
 10
0.0
 20
0.0
 30
0.0
 70
   128
 71
   13
 72
   14
 73
   29
  0
VERTEX
  8
steak
 10
0.0
 20
0.0
 30
0.0
 70
   128
 71
   14
 72
   15
 73
   30
  0
VERTEX
  8
steak
 10
0.0
 20
0.0
 30
0.0
 70
   128
 71
   15
 72
   1
 73
   16
  0
VERTEX
  8
steak
 10
0.0
 20
0.0
 30
0.0
 70
   128
 71
   2
 72
   1
 73
   15
  0
VERTEX
  8
steak
 10
0.0
 20
0.0
 30
0.0
 70
   128
 71
   14
 72
   4
 73
   3
  0
VERTEX
  8
steak
 10
0.0
 20
0.0
 30
0.0
 70
   128
 71
   29
 72
   17
 73
   18
  0
VERTEX
  8
steak
 10
0.0
 20
0.0
 30
0.0
 70
   128
 71
   19
 72
   20
 73
   28
  0
VERTEX
  8
steak
 10
0.0
 20
0.0
 30
0.0
 70
   128
 71
   4
 72
   14
 73
   13
  0
VERTEX
  8
steak
 10
0.0
 20
0.0
 30
0.0
 70
   128
 71
   28
 72
   20
 73
   21
  0
VERTEX
  8
steak
 10
0.0
 20
0.0
 30
0.0
 70
   128
 71
   27
 72
   28
 73
   22
  0
VERTEX
  8
steak
 10
0.0
 20
0.0
 30
0.0
 70
   128
 71
   6
 72
   5
 73
   13
  0
VERTEX
  8
steak
 10
0.0
 20
0.0
 30
0.0
 70
   128
 71
   27
 72
   23
 73
   24
  0
VERTEX
  8
steak
 10
0.0
 20
0.0
 30
0.0
 70
   128
 71
   7
 72
   13
 73
   12
  0
VERTEX
  8
steak
 10
0.0
 20
0.0
 30
0.0
 70
   128
 71
   11
 72
   10
 73
   9
  0
VERTEX
  8
steak
 10
0.0
 20
0.0
 30
0.0
 70
   128
 71
   24
 72
   25
 73
   26
  0
VERTEX
  8
steak
 10
0.0
 20
0.0
 30
0.0
 70
   128
 71
   12
 72
   11
 73
   9
  0
VERTEX
  8
steak
 10
0.0
 20
0.0
 30
0.0
 70
   128
 71
   30
 72
   16
 73
   17
  0
VERTEX
  8
steak
 10
0.0
 20
0.0
 30
0.0
 70
   128
 71
   1
 72
   17
 73
   16
  0
VERTEX
  8
steak
 10
0.0
 20
0.0
 30
0.0
 70
   128
 71
   2
 72
   18
 73
   17
  0
VERTEX
  8
steak
 10
0.0
 20
0.0
 30
0.0
 70
   128
 71
   3
 72
   19
 73
   18
  0
VERTEX
  8
steak
 10
0.0
 20
0.0
 30
0.0
 70
   128
 71
   4
 72
   20
 73
   19
  0
VERTEX
  8
steak
 10
0.0
 20
0.0
 30
0.0
 70
   128
 71
   5
 72
   21
 73
   20
  0
VERTEX
  8
steak
 10
0.0
 20
0.0
 30
0.0
 70
   128
 71
   6
 72
   22
 73
   21
  0
VERTEX
  8
steak
 10
0.0
 20
0.0
 30
0.0
 70
   128
 71
   7
 72
   23
 73
   22
  0
VERTEX
  8
steak
 10
0.0
 20
0.0
 30
0.0
 70
   128
 71
   8
 72
   24
 73
   23
  0
VERTEX
  8
steak
 10
0.0
 20
0.0
 30
0.0
 70
   128
 71
   9
 72
   25
 73
   24
  0
VERTEX
  8
steak
 10
0.0
 20
0.0
 30
0.0
 70
   128
 71
   10
 72
   26
 73
   25
  0
VERTEX
  8
steak
 10
0.0
 20
0.0
 30
0.0
 70
   128
 71
   11
 72
   27
 73
   26
  0
VERTEX
  8
steak
 10
0.0
 20
0.0
 30
0.0
 70
   128
 71
   12
 72
   28
 73
   27
  0
VERTEX
  8
steak
 10
0.0
 20
0.0
 30
0.0
 70
   128
 71
   13
 72
   29
 73
   28
  0
VERTEX
  8
steak
 10
0.0
 20
0.0
 30
0.0
 70
   128
 71
   14
 72
   30
 73
   29
  0
VERTEX
  8
steak
 10
0.0
 20
0.0
 30
0.0
 70
   128
 71
   15
 72
   16
 73
   30
  0
VERTEX
  8
steak
 10
0.0
 20
0.0
 30
0.0
 70
   128
 71
   2
 72
   15
 73
   14
  0
VERTEX
  8
steak
 10
0.0
 20
0.0
 30
0.0
 70
   128
 71
   14
 72
   3
 73
   2
  0
VERTEX
  8
steak
 10
0.0
 20
0.0
 30
0.0
 70
   128
 71
   29
 72
   18
 73
   19
  0
VERTEX
  8
steak
 10
0.0
 20
0.0
 30
0.0
 70
   128
 71
   19
 72
   28
 73
   29
  0
VERTEX
  8
steak
 10
0.0
 20
0.0
 30
0.0
 70
   128
 71
   4
 72
   13
 73
   5
  0
VERTEX
  8
steak
 10
0.0
 20
0.0
 30
0.0
 70
   128
 71
   28
 72
   21
 73
   22
  0
VERTEX
  8
steak
 10
0.0
 20
0.0
 30
0.0
 70
   128
 71
   27
 72
   22
 73
   23
  0
VERTEX
  8
steak
 10
0.0
 20
0.0
 30
0.0
 70
   128
 71
   6
 72
   13
 73
   7
  0
VERTEX
  8
steak
 10
0.0
 20
0.0
 30
0.0
 70
   128
 71
   27
 72
   24
 73
   26
  0
VERTEX
  8
steak
 10
0.0
 20
0.0
 30
0.0
 70
   128
 71
   7
 72
   12
 73
   8
  0
VERTEX
  8
steak
 10
0.0
 20
0.0
 30
0.0
 70
   128
 71
   12
 72
   9
 73
   8
  0
VERTEX
  8
steak
 10
0.0
 20
0.0
 30
0.0
 70
   128
 71
   30
 72
   17
 73
   29
  0
SEQEND
  0
ENDSEC
  0
EOF
