999
FBX AutoCAD (*.DXF) exporter
  0
SECTION
  2
HEADER
  9
$ACADVER
  1
AC1008
  9
$UCSORG
 10
0.0
 20
0.0
 30
0.0
  9
$UCSXDIR
 10
1.0
 20
0.0
 30
0.0
  9
$TILEMODE
 70
   1
  9
$UCSYDIR
 10
0.0
 20
1.0
 30
0.0
  0
ENDSEC
  0
SECTION
  2
TABLES
  0
TABLE
  2
LTYPE
 70
   1
  0
LTYPE
  2
CONTINUOUS
 70
   64
  3
Solid line
 72
   65
 73
   0
 40
0.0
  0
ENDTAB
  0
TABLE
  2
LAYER
 70
   1
  0
LAYER
  2
bottleMustard
 70
   0
 62
   250
  6
CONTINUOUS
  0
ENDTAB
  0
ENDSEC
  0
SECTION
  2
BLOCKS
  0
ENDSEC
  0
SECTION
  2
ENTITIES
  0
POLYLINE
  8
bottleMustard
 66
   1
 10
0.0
 20
0.0
 30
0.0
 70
   64
 71
   72
 72
   140
  0
VERTEX
  8
bottleMustard
 10
26.236625
 20
0.000000
 30
15.147722
 70
   192
  0
VERTEX
  8
bottleMustard
 10
26.236625
 20
127.216816
 30
15.147722
 70
   192
  0
VERTEX
  8
bottleMustard
 10
30.295445
 20
0.000000
 30
0.000000
 70
   192
  0
VERTEX
  8
bottleMustard
 10
30.295445
 20
127.216816
 30
0.000000
 70
   192
  0
VERTEX
  8
bottleMustard
 10
26.236625
 20
0.000000
 30
-15.147722
 70
   192
  0
VERTEX
  8
bottleMustard
 10
26.236625
 20
127.216816
 30
-15.147722
 70
   192
  0
VERTEX
  8
bottleMustard
 10
15.147722
 20
0.000000
 30
-26.236625
 70
   192
  0
VERTEX
  8
bottleMustard
 10
15.147722
 20
127.216816
 30
-26.236625
 70
   192
  0
VERTEX
  8
bottleMustard
 10
0.000000
 20
0.000000
 30
-30.295445
 70
   192
  0
VERTEX
  8
bottleMustard
 10
0.000000
 20
127.216816
 30
-30.295445
 70
   192
  0
VERTEX
  8
bottleMustard
 10
-15.147722
 20
0.000000
 30
-26.236625
 70
   192
  0
VERTEX
  8
bottleMustard
 10
-15.147722
 20
127.216816
 30
-26.236625
 70
   192
  0
VERTEX
  8
bottleMustard
 10
-26.236625
 20
0.000000
 30
-15.147722
 70
   192
  0
VERTEX
  8
bottleMustard
 10
-26.236625
 20
127.216816
 30
-15.147722
 70
   192
  0
VERTEX
  8
bottleMustard
 10
-30.295445
 20
0.000000
 30
-0.000000
 70
   192
  0
VERTEX
  8
bottleMustard
 10
-30.295445
 20
127.216816
 30
-0.000000
 70
   192
  0
VERTEX
  8
bottleMustard
 10
-26.236625
 20
0.000000
 30
15.147722
 70
   192
  0
VERTEX
  8
bottleMustard
 10
-26.236625
 20
127.216816
 30
15.147722
 70
   192
  0
VERTEX
  8
bottleMustard
 10
-15.147722
 20
0.000000
 30
26.236625
 70
   192
  0
VERTEX
  8
bottleMustard
 10
-15.147722
 20
127.216816
 30
26.236625
 70
   192
  0
VERTEX
  8
bottleMustard
 10
-0.000000
 20
0.000000
 30
30.295445
 70
   192
  0
VERTEX
  8
bottleMustard
 10
-0.000000
 20
127.216816
 30
30.295445
 70
   192
  0
VERTEX
  8
bottleMustard
 10
15.147722
 20
0.000000
 30
26.236625
 70
   192
  0
VERTEX
  8
bottleMustard
 10
15.147722
 20
127.216816
 30
26.236625
 70
   192
  0
VERTEX
  8
bottleMustard
 10
18.615733
 20
127.216816
 30
10.747799
 70
   192
  0
VERTEX
  8
bottleMustard
 10
21.495597
 20
127.216816
 30
-0.000000
 70
   192
  0
VERTEX
  8
bottleMustard
 10
18.615733
 20
127.216816
 30
-10.747799
 70
   192
  0
VERTEX
  8
bottleMustard
 10
10.747799
 20
127.216816
 30
-18.615733
 70
   192
  0
VERTEX
  8
bottleMustard
 10
0.000000
 20
127.216816
 30
-21.495597
 70
   192
  0
VERTEX
  8
bottleMustard
 10
-10.747799
 20
127.216816
 30
-18.615733
 70
   192
  0
VERTEX
  8
bottleMustard
 10
-18.615733
 20
127.216816
 30
-10.747799
 70
   192
  0
VERTEX
  8
bottleMustard
 10
-21.495597
 20
127.216816
 30
-0.000000
 70
   192
  0
VERTEX
  8
bottleMustard
 10
-18.615733
 20
127.216816
 30
10.747799
 70
   192
  0
VERTEX
  8
bottleMustard
 10
-10.747799
 20
127.216816
 30
18.615733
 70
   192
  0
VERTEX
  8
bottleMustard
 10
-0.000000
 20
127.216816
 30
21.495597
 70
   192
  0
VERTEX
  8
bottleMustard
 10
10.747799
 20
127.216816
 30
18.615733
 70
   192
  0
VERTEX
  8
bottleMustard
 10
18.615733
 20
138.416816
 30
10.747799
 70
   192
  0
VERTEX
  8
bottleMustard
 10
21.495597
 20
138.416816
 30
-0.000000
 70
   192
  0
VERTEX
  8
bottleMustard
 10
18.615733
 20
138.416816
 30
-10.747799
 70
   192
  0
VERTEX
  8
bottleMustard
 10
10.747799
 20
138.416816
 30
-18.615733
 70
   192
  0
VERTEX
  8
bottleMustard
 10
0.000000
 20
138.416816
 30
-21.495597
 70
   192
  0
VERTEX
  8
bottleMustard
 10
-10.747799
 20
138.416816
 30
-18.615733
 70
   192
  0
VERTEX
  8
bottleMustard
 10
-18.615733
 20
138.416816
 30
-10.747799
 70
   192
  0
VERTEX
  8
bottleMustard
 10
-21.495597
 20
138.416816
 30
-0.000000
 70
   192
  0
VERTEX
  8
bottleMustard
 10
-18.615733
 20
138.416816
 30
10.747799
 70
   192
  0
VERTEX
  8
bottleMustard
 10
-10.747799
 20
138.416816
 30
18.615733
 70
   192
  0
VERTEX
  8
bottleMustard
 10
-0.000000
 20
138.416816
 30
21.495597
 70
   192
  0
VERTEX
  8
bottleMustard
 10
10.747799
 20
138.416816
 30
18.615733
 70
   192
  0
VERTEX
  8
bottleMustard
 10
6.691279
 20
138.416816
 30
3.863212
 70
   192
  0
VERTEX
  8
bottleMustard
 10
7.726424
 20
138.416816
 30
-0.000000
 70
   192
  0
VERTEX
  8
bottleMustard
 10
6.691279
 20
138.416816
 30
-3.863212
 70
   192
  0
VERTEX
  8
bottleMustard
 10
3.863212
 20
138.416816
 30
-6.691279
 70
   192
  0
VERTEX
  8
bottleMustard
 10
0.000000
 20
138.416816
 30
-7.726424
 70
   192
  0
VERTEX
  8
bottleMustard
 10
-3.863212
 20
138.416816
 30
-6.691279
 70
   192
  0
VERTEX
  8
bottleMustard
 10
-6.691279
 20
138.416816
 30
-3.863212
 70
   192
  0
VERTEX
  8
bottleMustard
 10
-7.726424
 20
138.416816
 30
-0.000000
 70
   192
  0
VERTEX
  8
bottleMustard
 10
-6.691279
 20
138.416816
 30
3.863212
 70
   192
  0
VERTEX
  8
bottleMustard
 10
-3.863212
 20
138.416816
 30
6.691279
 70
   192
  0
VERTEX
  8
bottleMustard
 10
0.000000
 20
138.416816
 30
7.726424
 70
   192
  0
VERTEX
  8
bottleMustard
 10
3.863212
 20
138.416816
 30
6.691279
 70
   192
  0
VERTEX
  8
bottleMustard
 10
3.967929
 20
162.416816
 30
2.290885
 70
   192
  0
VERTEX
  8
bottleMustard
 10
4.581769
 20
162.416816
 30
-0.000000
 70
   192
  0
VERTEX
  8
bottleMustard
 10
3.967929
 20
162.416816
 30
-2.290885
 70
   192
  0
VERTEX
  8
bottleMustard
 10
2.290885
 20
162.416816
 30
-3.967929
 70
   192
  0
VERTEX
  8
bottleMustard
 10
0.000000
 20
162.416816
 30
-4.581769
 70
   192
  0
VERTEX
  8
bottleMustard
 10
-2.290885
 20
162.416816
 30
-3.967929
 70
   192
  0
VERTEX
  8
bottleMustard
 10
-3.967929
 20
162.416816
 30
-2.290885
 70
   192
  0
VERTEX
  8
bottleMustard
 10
-4.581769
 20
162.416816
 30
-0.000000
 70
   192
  0
VERTEX
  8
bottleMustard
 10
-3.967929
 20
162.416816
 30
2.290885
 70
   192
  0
VERTEX
  8
bottleMustard
 10
-2.290885
 20
162.416816
 30
3.967929
 70
   192
  0
VERTEX
  8
bottleMustard
 10
0.000000
 20
162.416816
 30
4.581769
 70
   192
  0
VERTEX
  8
bottleMustard
 10
2.290885
 20
162.416816
 30
3.967929
 70
   192
  0
VERTEX
  8
bottleMustard
 10
0.0
 20
0.0
 30
0.0
 70
   128
 71
   1
 72
   3
 73
   13
  0
VERTEX
  8
bottleMustard
 10
0.0
 20
0.0
 30
0.0
 70
   128
 71
   3
 72
   4
 73
   6
  0
VERTEX
  8
bottleMustard
 10
0.0
 20
0.0
 30
0.0
 70
   128
 71
   62
 72
   61
 73
   63
  0
VERTEX
  8
bottleMustard
 10
0.0
 20
0.0
 30
0.0
 70
   128
 71
   1
 72
   19
 73
   21
  0
VERTEX
  8
bottleMustard
 10
0.0
 20
0.0
 30
0.0
 70
   128
 71
   5
 72
   6
 73
   8
  0
VERTEX
  8
bottleMustard
 10
0.0
 20
0.0
 30
0.0
 70
   128
 71
   3
 72
   5
 73
   7
  0
VERTEX
  8
bottleMustard
 10
0.0
 20
0.0
 30
0.0
 70
   128
 71
   3
 72
   7
 73
   11
  0
VERTEX
  8
bottleMustard
 10
0.0
 20
0.0
 30
0.0
 70
   128
 71
   7
 72
   8
 73
   10
  0
VERTEX
  8
bottleMustard
 10
0.0
 20
0.0
 30
0.0
 70
   128
 71
   7
 72
   9
 73
   11
  0
VERTEX
  8
bottleMustard
 10
0.0
 20
0.0
 30
0.0
 70
   128
 71
   19
 72
   13
 73
   15
  0
VERTEX
  8
bottleMustard
 10
0.0
 20
0.0
 30
0.0
 70
   128
 71
   9
 72
   10
 73
   12
  0
VERTEX
  8
bottleMustard
 10
0.0
 20
0.0
 30
0.0
 70
   128
 71
   66
 72
   65
 73
   72
  0
VERTEX
  8
bottleMustard
 10
0.0
 20
0.0
 30
0.0
 70
   128
 71
   65
 72
   63
 73
   61
  0
VERTEX
  8
bottleMustard
 10
0.0
 20
0.0
 30
0.0
 70
   128
 71
   11
 72
   12
 73
   14
  0
VERTEX
  8
bottleMustard
 10
0.0
 20
0.0
 30
0.0
 70
   128
 71
   66
 72
   71
 73
   70
  0
VERTEX
  8
bottleMustard
 10
0.0
 20
0.0
 30
0.0
 70
   128
 71
   69
 72
   68
 73
   67
  0
VERTEX
  8
bottleMustard
 10
0.0
 20
0.0
 30
0.0
 70
   128
 71
   13
 72
   14
 73
   16
  0
VERTEX
  8
bottleMustard
 10
0.0
 20
0.0
 30
0.0
 70
   128
 71
   65
 72
   64
 73
   63
  0
VERTEX
  8
bottleMustard
 10
0.0
 20
0.0
 30
0.0
 70
   128
 71
   19
 72
   20
 73
   22
  0
VERTEX
  8
bottleMustard
 10
0.0
 20
0.0
 30
0.0
 70
   128
 71
   15
 72
   16
 73
   18
  0
VERTEX
  8
bottleMustard
 10
0.0
 20
0.0
 30
0.0
 70
   128
 71
   21
 72
   22
 73
   24
  0
VERTEX
  8
bottleMustard
 10
0.0
 20
0.0
 30
0.0
 70
   128
 71
   23
 72
   24
 73
   2
  0
VERTEX
  8
bottleMustard
 10
0.0
 20
0.0
 30
0.0
 70
   128
 71
   17
 72
   18
 73
   20
  0
VERTEX
  8
bottleMustard
 10
0.0
 20
0.0
 30
0.0
 70
   128
 71
   1
 72
   2
 73
   4
  0
VERTEX
  8
bottleMustard
 10
0.0
 20
0.0
 30
0.0
 70
   128
 71
   4
 72
   26
 73
   27
  0
VERTEX
  8
bottleMustard
 10
0.0
 20
0.0
 30
0.0
 70
   128
 71
   6
 72
   27
 73
   28
  0
VERTEX
  8
bottleMustard
 10
0.0
 20
0.0
 30
0.0
 70
   128
 71
   8
 72
   28
 73
   29
  0
VERTEX
  8
bottleMustard
 10
0.0
 20
0.0
 30
0.0
 70
   128
 71
   10
 72
   29
 73
   30
  0
VERTEX
  8
bottleMustard
 10
0.0
 20
0.0
 30
0.0
 70
   128
 71
   12
 72
   30
 73
   31
  0
VERTEX
  8
bottleMustard
 10
0.0
 20
0.0
 30
0.0
 70
   128
 71
   14
 72
   31
 73
   32
  0
VERTEX
  8
bottleMustard
 10
0.0
 20
0.0
 30
0.0
 70
   128
 71
   16
 72
   32
 73
   33
  0
VERTEX
  8
bottleMustard
 10
0.0
 20
0.0
 30
0.0
 70
   128
 71
   18
 72
   33
 73
   34
  0
VERTEX
  8
bottleMustard
 10
0.0
 20
0.0
 30
0.0
 70
   128
 71
   20
 72
   34
 73
   35
  0
VERTEX
  8
bottleMustard
 10
0.0
 20
0.0
 30
0.0
 70
   128
 71
   22
 72
   35
 73
   36
  0
VERTEX
  8
bottleMustard
 10
0.0
 20
0.0
 30
0.0
 70
   128
 71
   24
 72
   36
 73
   25
  0
VERTEX
  8
bottleMustard
 10
0.0
 20
0.0
 30
0.0
 70
   128
 71
   2
 72
   25
 73
   26
  0
VERTEX
  8
bottleMustard
 10
0.0
 20
0.0
 30
0.0
 70
   128
 71
   26
 72
   38
 73
   39
  0
VERTEX
  8
bottleMustard
 10
0.0
 20
0.0
 30
0.0
 70
   128
 71
   27
 72
   39
 73
   40
  0
VERTEX
  8
bottleMustard
 10
0.0
 20
0.0
 30
0.0
 70
   128
 71
   28
 72
   40
 73
   41
  0
VERTEX
  8
bottleMustard
 10
0.0
 20
0.0
 30
0.0
 70
   128
 71
   29
 72
   41
 73
   42
  0
VERTEX
  8
bottleMustard
 10
0.0
 20
0.0
 30
0.0
 70
   128
 71
   30
 72
   42
 73
   43
  0
VERTEX
  8
bottleMustard
 10
0.0
 20
0.0
 30
0.0
 70
   128
 71
   31
 72
   43
 73
   44
  0
VERTEX
  8
bottleMustard
 10
0.0
 20
0.0
 30
0.0
 70
   128
 71
   32
 72
   44
 73
   45
  0
VERTEX
  8
bottleMustard
 10
0.0
 20
0.0
 30
0.0
 70
   128
 71
   33
 72
   45
 73
   46
  0
VERTEX
  8
bottleMustard
 10
0.0
 20
0.0
 30
0.0
 70
   128
 71
   34
 72
   46
 73
   47
  0
VERTEX
  8
bottleMustard
 10
0.0
 20
0.0
 30
0.0
 70
   128
 71
   35
 72
   47
 73
   48
  0
VERTEX
  8
bottleMustard
 10
0.0
 20
0.0
 30
0.0
 70
   128
 71
   36
 72
   48
 73
   37
  0
VERTEX
  8
bottleMustard
 10
0.0
 20
0.0
 30
0.0
 70
   128
 71
   25
 72
   37
 73
   38
  0
VERTEX
  8
bottleMustard
 10
0.0
 20
0.0
 30
0.0
 70
   128
 71
   38
 72
   50
 73
   51
  0
VERTEX
  8
bottleMustard
 10
0.0
 20
0.0
 30
0.0
 70
   128
 71
   39
 72
   51
 73
   52
  0
VERTEX
  8
bottleMustard
 10
0.0
 20
0.0
 30
0.0
 70
   128
 71
   40
 72
   52
 73
   53
  0
VERTEX
  8
bottleMustard
 10
0.0
 20
0.0
 30
0.0
 70
   128
 71
   41
 72
   53
 73
   54
  0
VERTEX
  8
bottleMustard
 10
0.0
 20
0.0
 30
0.0
 70
   128
 71
   42
 72
   54
 73
   55
  0
VERTEX
  8
bottleMustard
 10
0.0
 20
0.0
 30
0.0
 70
   128
 71
   43
 72
   55
 73
   56
  0
VERTEX
  8
bottleMustard
 10
0.0
 20
0.0
 30
0.0
 70
   128
 71
   44
 72
   56
 73
   57
  0
VERTEX
  8
bottleMustard
 10
0.0
 20
0.0
 30
0.0
 70
   128
 71
   45
 72
   57
 73
   58
  0
VERTEX
  8
bottleMustard
 10
0.0
 20
0.0
 30
0.0
 70
   128
 71
   46
 72
   58
 73
   59
  0
VERTEX
  8
bottleMustard
 10
0.0
 20
0.0
 30
0.0
 70
   128
 71
   47
 72
   59
 73
   60
  0
VERTEX
  8
bottleMustard
 10
0.0
 20
0.0
 30
0.0
 70
   128
 71
   48
 72
   60
 73
   49
  0
VERTEX
  8
bottleMustard
 10
0.0
 20
0.0
 30
0.0
 70
   128
 71
   37
 72
   49
 73
   50
  0
VERTEX
  8
bottleMustard
 10
0.0
 20
0.0
 30
0.0
 70
   128
 71
   50
 72
   62
 73
   63
  0
VERTEX
  8
bottleMustard
 10
0.0
 20
0.0
 30
0.0
 70
   128
 71
   51
 72
   63
 73
   64
  0
VERTEX
  8
bottleMustard
 10
0.0
 20
0.0
 30
0.0
 70
   128
 71
   52
 72
   64
 73
   65
  0
VERTEX
  8
bottleMustard
 10
0.0
 20
0.0
 30
0.0
 70
   128
 71
   53
 72
   65
 73
   66
  0
VERTEX
  8
bottleMustard
 10
0.0
 20
0.0
 30
0.0
 70
   128
 71
   54
 72
   66
 73
   67
  0
VERTEX
  8
bottleMustard
 10
0.0
 20
0.0
 30
0.0
 70
   128
 71
   55
 72
   67
 73
   68
  0
VERTEX
  8
bottleMustard
 10
0.0
 20
0.0
 30
0.0
 70
   128
 71
   56
 72
   68
 73
   69
  0
VERTEX
  8
bottleMustard
 10
0.0
 20
0.0
 30
0.0
 70
   128
 71
   57
 72
   69
 73
   70
  0
VERTEX
  8
bottleMustard
 10
0.0
 20
0.0
 30
0.0
 70
   128
 71
   58
 72
   70
 73
   71
  0
VERTEX
  8
bottleMustard
 10
0.0
 20
0.0
 30
0.0
 70
   128
 71
   59
 72
   71
 73
   72
  0
VERTEX
  8
bottleMustard
 10
0.0
 20
0.0
 30
0.0
 70
   128
 71
   60
 72
   72
 73
   61
  0
VERTEX
  8
bottleMustard
 10
0.0
 20
0.0
 30
0.0
 70
   128
 71
   49
 72
   61
 73
   62
  0
VERTEX
  8
bottleMustard
 10
0.0
 20
0.0
 30
0.0
 70
   128
 71
   1
 72
   13
 73
   19
  0
VERTEX
  8
bottleMustard
 10
0.0
 20
0.0
 30
0.0
 70
   128
 71
   3
 72
   6
 73
   5
  0
VERTEX
  8
bottleMustard
 10
0.0
 20
0.0
 30
0.0
 70
   128
 71
   1
 72
   21
 73
   23
  0
VERTEX
  8
bottleMustard
 10
0.0
 20
0.0
 30
0.0
 70
   128
 71
   5
 72
   8
 73
   7
  0
VERTEX
  8
bottleMustard
 10
0.0
 20
0.0
 30
0.0
 70
   128
 71
   3
 72
   11
 73
   13
  0
VERTEX
  8
bottleMustard
 10
0.0
 20
0.0
 30
0.0
 70
   128
 71
   7
 72
   10
 73
   9
  0
VERTEX
  8
bottleMustard
 10
0.0
 20
0.0
 30
0.0
 70
   128
 71
   19
 72
   15
 73
   17
  0
VERTEX
  8
bottleMustard
 10
0.0
 20
0.0
 30
0.0
 70
   128
 71
   9
 72
   12
 73
   11
  0
VERTEX
  8
bottleMustard
 10
0.0
 20
0.0
 30
0.0
 70
   128
 71
   66
 72
   72
 73
   71
  0
VERTEX
  8
bottleMustard
 10
0.0
 20
0.0
 30
0.0
 70
   128
 71
   65
 72
   61
 73
   72
  0
VERTEX
  8
bottleMustard
 10
0.0
 20
0.0
 30
0.0
 70
   128
 71
   11
 72
   14
 73
   13
  0
VERTEX
  8
bottleMustard
 10
0.0
 20
0.0
 30
0.0
 70
   128
 71
   66
 72
   70
 73
   69
  0
VERTEX
  8
bottleMustard
 10
0.0
 20
0.0
 30
0.0
 70
   128
 71
   69
 72
   67
 73
   66
  0
VERTEX
  8
bottleMustard
 10
0.0
 20
0.0
 30
0.0
 70
   128
 71
   13
 72
   16
 73
   15
  0
VERTEX
  8
bottleMustard
 10
0.0
 20
0.0
 30
0.0
 70
   128
 71
   19
 72
   22
 73
   21
  0
VERTEX
  8
bottleMustard
 10
0.0
 20
0.0
 30
0.0
 70
   128
 71
   15
 72
   18
 73
   17
  0
VERTEX
  8
bottleMustard
 10
0.0
 20
0.0
 30
0.0
 70
   128
 71
   21
 72
   24
 73
   23
  0
VERTEX
  8
bottleMustard
 10
0.0
 20
0.0
 30
0.0
 70
   128
 71
   23
 72
   2
 73
   1
  0
VERTEX
  8
bottleMustard
 10
0.0
 20
0.0
 30
0.0
 70
   128
 71
   17
 72
   20
 73
   19
  0
VERTEX
  8
bottleMustard
 10
0.0
 20
0.0
 30
0.0
 70
   128
 71
   1
 72
   4
 73
   3
  0
VERTEX
  8
bottleMustard
 10
0.0
 20
0.0
 30
0.0
 70
   128
 71
   4
 72
   27
 73
   6
  0
VERTEX
  8
bottleMustard
 10
0.0
 20
0.0
 30
0.0
 70
   128
 71
   6
 72
   28
 73
   8
  0
VERTEX
  8
bottleMustard
 10
0.0
 20
0.0
 30
0.0
 70
   128
 71
   8
 72
   29
 73
   10
  0
VERTEX
  8
bottleMustard
 10
0.0
 20
0.0
 30
0.0
 70
   128
 71
   10
 72
   30
 73
   12
  0
VERTEX
  8
bottleMustard
 10
0.0
 20
0.0
 30
0.0
 70
   128
 71
   12
 72
   31
 73
   14
  0
VERTEX
  8
bottleMustard
 10
0.0
 20
0.0
 30
0.0
 70
   128
 71
   14
 72
   32
 73
   16
  0
VERTEX
  8
bottleMustard
 10
0.0
 20
0.0
 30
0.0
 70
   128
 71
   16
 72
   33
 73
   18
  0
VERTEX
  8
bottleMustard
 10
0.0
 20
0.0
 30
0.0
 70
   128
 71
   18
 72
   34
 73
   20
  0
VERTEX
  8
bottleMustard
 10
0.0
 20
0.0
 30
0.0
 70
   128
 71
   20
 72
   35
 73
   22
  0
VERTEX
  8
bottleMustard
 10
0.0
 20
0.0
 30
0.0
 70
   128
 71
   22
 72
   36
 73
   24
  0
VERTEX
  8
bottleMustard
 10
0.0
 20
0.0
 30
0.0
 70
   128
 71
   24
 72
   25
 73
   2
  0
VERTEX
  8
bottleMustard
 10
0.0
 20
0.0
 30
0.0
 70
   128
 71
   2
 72
   26
 73
   4
  0
VERTEX
  8
bottleMustard
 10
0.0
 20
0.0
 30
0.0
 70
   128
 71
   26
 72
   39
 73
   27
  0
VERTEX
  8
bottleMustard
 10
0.0
 20
0.0
 30
0.0
 70
   128
 71
   27
 72
   40
 73
   28
  0
VERTEX
  8
bottleMustard
 10
0.0
 20
0.0
 30
0.0
 70
   128
 71
   28
 72
   41
 73
   29
  0
VERTEX
  8
bottleMustard
 10
0.0
 20
0.0
 30
0.0
 70
   128
 71
   29
 72
   42
 73
   30
  0
VERTEX
  8
bottleMustard
 10
0.0
 20
0.0
 30
0.0
 70
   128
 71
   30
 72
   43
 73
   31
  0
VERTEX
  8
bottleMustard
 10
0.0
 20
0.0
 30
0.0
 70
   128
 71
   31
 72
   44
 73
   32
  0
VERTEX
  8
bottleMustard
 10
0.0
 20
0.0
 30
0.0
 70
   128
 71
   32
 72
   45
 73
   33
  0
VERTEX
  8
bottleMustard
 10
0.0
 20
0.0
 30
0.0
 70
   128
 71
   33
 72
   46
 73
   34
  0
VERTEX
  8
bottleMustard
 10
0.0
 20
0.0
 30
0.0
 70
   128
 71
   34
 72
   47
 73
   35
  0
VERTEX
  8
bottleMustard
 10
0.0
 20
0.0
 30
0.0
 70
   128
 71
   35
 72
   48
 73
   36
  0
VERTEX
  8
bottleMustard
 10
0.0
 20
0.0
 30
0.0
 70
   128
 71
   36
 72
   37
 73
   25
  0
VERTEX
  8
bottleMustard
 10
0.0
 20
0.0
 30
0.0
 70
   128
 71
   25
 72
   38
 73
   26
  0
VERTEX
  8
bottleMustard
 10
0.0
 20
0.0
 30
0.0
 70
   128
 71
   38
 72
   51
 73
   39
  0
VERTEX
  8
bottleMustard
 10
0.0
 20
0.0
 30
0.0
 70
   128
 71
   39
 72
   52
 73
   40
  0
VERTEX
  8
bottleMustard
 10
0.0
 20
0.0
 30
0.0
 70
   128
 71
   40
 72
   53
 73
   41
  0
VERTEX
  8
bottleMustard
 10
0.0
 20
0.0
 30
0.0
 70
   128
 71
   41
 72
   54
 73
   42
  0
VERTEX
  8
bottleMustard
 10
0.0
 20
0.0
 30
0.0
 70
   128
 71
   42
 72
   55
 73
   43
  0
VERTEX
  8
bottleMustard
 10
0.0
 20
0.0
 30
0.0
 70
   128
 71
   43
 72
   56
 73
   44
  0
VERTEX
  8
bottleMustard
 10
0.0
 20
0.0
 30
0.0
 70
   128
 71
   44
 72
   57
 73
   45
  0
VERTEX
  8
bottleMustard
 10
0.0
 20
0.0
 30
0.0
 70
   128
 71
   45
 72
   58
 73
   46
  0
VERTEX
  8
bottleMustard
 10
0.0
 20
0.0
 30
0.0
 70
   128
 71
   46
 72
   59
 73
   47
  0
VERTEX
  8
bottleMustard
 10
0.0
 20
0.0
 30
0.0
 70
   128
 71
   47
 72
   60
 73
   48
  0
VERTEX
  8
bottleMustard
 10
0.0
 20
0.0
 30
0.0
 70
   128
 71
   48
 72
   49
 73
   37
  0
VERTEX
  8
bottleMustard
 10
0.0
 20
0.0
 30
0.0
 70
   128
 71
   37
 72
   50
 73
   38
  0
VERTEX
  8
bottleMustard
 10
0.0
 20
0.0
 30
0.0
 70
   128
 71
   50
 72
   63
 73
   51
  0
VERTEX
  8
bottleMustard
 10
0.0
 20
0.0
 30
0.0
 70
   128
 71
   51
 72
   64
 73
   52
  0
VERTEX
  8
bottleMustard
 10
0.0
 20
0.0
 30
0.0
 70
   128
 71
   52
 72
   65
 73
   53
  0
VERTEX
  8
bottleMustard
 10
0.0
 20
0.0
 30
0.0
 70
   128
 71
   53
 72
   66
 73
   54
  0
VERTEX
  8
bottleMustard
 10
0.0
 20
0.0
 30
0.0
 70
   128
 71
   54
 72
   67
 73
   55
  0
VERTEX
  8
bottleMustard
 10
0.0
 20
0.0
 30
0.0
 70
   128
 71
   55
 72
   68
 73
   56
  0
VERTEX
  8
bottleMustard
 10
0.0
 20
0.0
 30
0.0
 70
   128
 71
   56
 72
   69
 73
   57
  0
VERTEX
  8
bottleMustard
 10
0.0
 20
0.0
 30
0.0
 70
   128
 71
   57
 72
   70
 73
   58
  0
VERTEX
  8
bottleMustard
 10
0.0
 20
0.0
 30
0.0
 70
   128
 71
   58
 72
   71
 73
   59
  0
VERTEX
  8
bottleMustard
 10
0.0
 20
0.0
 30
0.0
 70
   128
 71
   59
 72
   72
 73
   60
  0
VERTEX
  8
bottleMustard
 10
0.0
 20
0.0
 30
0.0
 70
   128
 71
   60
 72
   61
 73
   49
  0
VERTEX
  8
bottleMustard
 10
0.0
 20
0.0
 30
0.0
 70
   128
 71
   49
 72
   62
 73
   50
  0
SEQEND
  0
ENDSEC
  0
EOF
