999
FBX AutoCAD (*.DXF) exporter
  0
SECTION
  2
HEADER
  9
$ACADVER
  1
AC1008
  9
$UCSORG
 10
0.0
 20
0.0
 30
0.0
  9
$UCSXDIR
 10
1.0
 20
0.0
 30
0.0
  9
$TILEMODE
 70
   1
  9
$UCSYDIR
 10
0.0
 20
1.0
 30
0.0
  0
ENDSEC
  0
SECTION
  2
TABLES
  0
TABLE
  2
LTYPE
 70
   1
  0
LTYPE
  2
CONTINUOUS
 70
   64
  3
Solid line
 72
   65
 73
   0
 40
0.0
  0
ENDTAB
  0
TABLE
  2
LAYER
 70
   4
  0
LAYER
  2
icecreamSandwich_2
 70
   0
 62
   250
  6
CONTINUOUS
  0
LAYER
  2
icecreamSandwich_3
 70
   0
 62
   250
  6
CONTINUOUS
  0
LAYER
  2
icecreamSandwich_4
 70
   0
 62
   250
  6
CONTINUOUS
  0
ENDTAB
  0
ENDSEC
  0
SECTION
  2
BLOCKS
  0
ENDSEC
  0
SECTION
  2
ENTITIES
  0
POLYLINE
  8
icecreamSandwich_2
 66
   1
 10
0.0
 20
0.0
 30
0.0
 70
   64
 71
   24
 72
   44
  0
VERTEX
  8
icecreamSandwich_2
 10
-83.700000
 20
0.466180
 30
-50.443681
 70
   192
  0
VERTEX
  8
icecreamSandwich_2
 10
-83.700000
 20
31.810534
 30
-50.443681
 70
   192
  0
VERTEX
  8
icecreamSandwich_2
 10
-83.700000
 20
31.810534
 30
50.443681
 70
   192
  0
VERTEX
  8
icecreamSandwich_2
 10
-83.700000
 20
0.466180
 30
50.443681
 70
   192
  0
VERTEX
  8
icecreamSandwich_2
 10
-50.443681
 20
0.466180
 30
83.700000
 70
   192
  0
VERTEX
  8
icecreamSandwich_2
 10
-50.443681
 20
31.810534
 30
83.700000
 70
   192
  0
VERTEX
  8
icecreamSandwich_2
 10
50.443681
 20
31.810534
 30
83.700000
 70
   192
  0
VERTEX
  8
icecreamSandwich_2
 10
50.443681
 20
0.466180
 30
83.700000
 70
   192
  0
VERTEX
  8
icecreamSandwich_2
 10
83.700000
 20
0.466180
 30
50.443681
 70
   192
  0
VERTEX
  8
icecreamSandwich_2
 10
83.700000
 20
31.810534
 30
50.443681
 70
   192
  0
VERTEX
  8
icecreamSandwich_2
 10
83.700000
 20
31.810534
 30
-50.443681
 70
   192
  0
VERTEX
  8
icecreamSandwich_2
 10
83.700000
 20
0.466180
 30
-50.443681
 70
   192
  0
VERTEX
  8
icecreamSandwich_2
 10
50.443681
 20
0.466180
 30
-83.700000
 70
   192
  0
VERTEX
  8
icecreamSandwich_2
 10
50.443681
 20
31.810534
 30
-83.700000
 70
   192
  0
VERTEX
  8
icecreamSandwich_2
 10
-50.443681
 20
31.810534
 30
-83.700000
 70
   192
  0
VERTEX
  8
icecreamSandwich_2
 10
-50.443681
 20
0.466180
 30
-83.700000
 70
   192
  0
VERTEX
  8
icecreamSandwich_2
 10
-73.959450
 20
0.466180
 30
-73.959450
 70
   192
  0
VERTEX
  8
icecreamSandwich_2
 10
-73.959450
 20
31.810534
 30
-73.959450
 70
   192
  0
VERTEX
  8
icecreamSandwich_2
 10
-73.959450
 20
31.810534
 30
73.959450
 70
   192
  0
VERTEX
  8
icecreamSandwich_2
 10
-73.959450
 20
0.466180
 30
73.959450
 70
   192
  0
VERTEX
  8
icecreamSandwich_2
 10
73.959450
 20
31.810534
 30
73.959450
 70
   192
  0
VERTEX
  8
icecreamSandwich_2
 10
73.959450
 20
0.466180
 30
73.959450
 70
   192
  0
VERTEX
  8
icecreamSandwich_2
 10
73.959450
 20
31.810534
 30
-73.959450
 70
   192
  0
VERTEX
  8
icecreamSandwich_2
 10
73.959450
 20
0.466180
 30
-73.959450
 70
   192
  0
VERTEX
  8
icecreamSandwich_2
 10
0.0
 20
0.0
 30
0.0
 70
   128
 71
   5
 72
   6
 73
   7
  0
VERTEX
  8
icecreamSandwich_2
 10
0.0
 20
0.0
 30
0.0
 70
   128
 71
   9
 72
   10
 73
   11
  0
VERTEX
  8
icecreamSandwich_2
 10
0.0
 20
0.0
 30
0.0
 70
   128
 71
   13
 72
   14
 73
   15
  0
VERTEX
  8
icecreamSandwich_2
 10
0.0
 20
0.0
 30
0.0
 70
   128
 71
   1
 72
   2
 73
   3
  0
VERTEX
  8
icecreamSandwich_2
 10
0.0
 20
0.0
 30
0.0
 70
   128
 71
   6
 72
   19
 73
   3
  0
VERTEX
  8
icecreamSandwich_2
 10
0.0
 20
0.0
 30
0.0
 70
   128
 71
   16
 72
   17
 73
   1
  0
VERTEX
  8
icecreamSandwich_2
 10
0.0
 20
0.0
 30
0.0
 70
   128
 71
   6
 72
   2
 73
   11
  0
VERTEX
  8
icecreamSandwich_2
 10
0.0
 20
0.0
 30
0.0
 70
   128
 71
   7
 72
   6
 73
   10
  0
VERTEX
  8
icecreamSandwich_2
 10
0.0
 20
0.0
 30
0.0
 70
   128
 71
   2
 72
   18
 73
   15
  0
VERTEX
  8
icecreamSandwich_2
 10
0.0
 20
0.0
 30
0.0
 70
   128
 71
   11
 72
   2
 73
   15
  0
VERTEX
  8
icecreamSandwich_2
 10
0.0
 20
0.0
 30
0.0
 70
   128
 71
   14
 72
   23
 73
   11
  0
VERTEX
  8
icecreamSandwich_2
 10
0.0
 20
0.0
 30
0.0
 70
   128
 71
   13
 72
   16
 73
   1
  0
VERTEX
  8
icecreamSandwich_2
 10
0.0
 20
0.0
 30
0.0
 70
   128
 71
   1
 72
   4
 73
   8
  0
VERTEX
  8
icecreamSandwich_2
 10
0.0
 20
0.0
 30
0.0
 70
   128
 71
   4
 72
   20
 73
   5
  0
VERTEX
  8
icecreamSandwich_2
 10
0.0
 20
0.0
 30
0.0
 70
   128
 71
   8
 72
   22
 73
   9
  0
VERTEX
  8
icecreamSandwich_2
 10
0.0
 20
0.0
 30
0.0
 70
   128
 71
   12
 72
   24
 73
   13
  0
VERTEX
  8
icecreamSandwich_2
 10
0.0
 20
0.0
 30
0.0
 70
   128
 71
   5
 72
   20
 73
   19
  0
VERTEX
  8
icecreamSandwich_2
 10
0.0
 20
0.0
 30
0.0
 70
   128
 71
   9
 72
   22
 73
   21
  0
VERTEX
  8
icecreamSandwich_2
 10
0.0
 20
0.0
 30
0.0
 70
   128
 71
   13
 72
   24
 73
   23
  0
VERTEX
  8
icecreamSandwich_2
 10
0.0
 20
0.0
 30
0.0
 70
   128
 71
   1
 72
   17
 73
   18
  0
VERTEX
  8
icecreamSandwich_2
 10
0.0
 20
0.0
 30
0.0
 70
   128
 71
   20
 72
   4
 73
   3
  0
VERTEX
  8
icecreamSandwich_2
 10
0.0
 20
0.0
 30
0.0
 70
   128
 71
   22
 72
   8
 73
   7
  0
VERTEX
  8
icecreamSandwich_2
 10
0.0
 20
0.0
 30
0.0
 70
   128
 71
   24
 72
   12
 73
   11
  0
VERTEX
  8
icecreamSandwich_2
 10
0.0
 20
0.0
 30
0.0
 70
   128
 71
   17
 72
   16
 73
   15
  0
VERTEX
  8
icecreamSandwich_2
 10
0.0
 20
0.0
 30
0.0
 70
   128
 71
   5
 72
   7
 73
   8
  0
VERTEX
  8
icecreamSandwich_2
 10
0.0
 20
0.0
 30
0.0
 70
   128
 71
   9
 72
   11
 73
   12
  0
VERTEX
  8
icecreamSandwich_2
 10
0.0
 20
0.0
 30
0.0
 70
   128
 71
   13
 72
   15
 73
   16
  0
VERTEX
  8
icecreamSandwich_2
 10
0.0
 20
0.0
 30
0.0
 70
   128
 71
   1
 72
   3
 73
   4
  0
VERTEX
  8
icecreamSandwich_2
 10
0.0
 20
0.0
 30
0.0
 70
   128
 71
   6
 72
   3
 73
   2
  0
VERTEX
  8
icecreamSandwich_2
 10
0.0
 20
0.0
 30
0.0
 70
   128
 71
   6
 72
   11
 73
   10
  0
VERTEX
  8
icecreamSandwich_2
 10
0.0
 20
0.0
 30
0.0
 70
   128
 71
   7
 72
   10
 73
   21
  0
VERTEX
  8
icecreamSandwich_2
 10
0.0
 20
0.0
 30
0.0
 70
   128
 71
   11
 72
   15
 73
   14
  0
VERTEX
  8
icecreamSandwich_2
 10
0.0
 20
0.0
 30
0.0
 70
   128
 71
   13
 72
   1
 73
   12
  0
VERTEX
  8
icecreamSandwich_2
 10
0.0
 20
0.0
 30
0.0
 70
   128
 71
   1
 72
   8
 73
   12
  0
VERTEX
  8
icecreamSandwich_2
 10
0.0
 20
0.0
 30
0.0
 70
   128
 71
   4
 72
   5
 73
   8
  0
VERTEX
  8
icecreamSandwich_2
 10
0.0
 20
0.0
 30
0.0
 70
   128
 71
   8
 72
   9
 73
   12
  0
VERTEX
  8
icecreamSandwich_2
 10
0.0
 20
0.0
 30
0.0
 70
   128
 71
   5
 72
   19
 73
   6
  0
VERTEX
  8
icecreamSandwich_2
 10
0.0
 20
0.0
 30
0.0
 70
   128
 71
   9
 72
   21
 73
   10
  0
VERTEX
  8
icecreamSandwich_2
 10
0.0
 20
0.0
 30
0.0
 70
   128
 71
   13
 72
   23
 73
   14
  0
VERTEX
  8
icecreamSandwich_2
 10
0.0
 20
0.0
 30
0.0
 70
   128
 71
   1
 72
   18
 73
   2
  0
VERTEX
  8
icecreamSandwich_2
 10
0.0
 20
0.0
 30
0.0
 70
   128
 71
   20
 72
   3
 73
   19
  0
VERTEX
  8
icecreamSandwich_2
 10
0.0
 20
0.0
 30
0.0
 70
   128
 71
   22
 72
   7
 73
   21
  0
VERTEX
  8
icecreamSandwich_2
 10
0.0
 20
0.0
 30
0.0
 70
   128
 71
   24
 72
   11
 73
   23
  0
VERTEX
  8
icecreamSandwich_2
 10
0.0
 20
0.0
 30
0.0
 70
   128
 71
   17
 72
   15
 73
   18
  0
SEQEND
  0
POLYLINE
  8
icecreamSandwich_3
 66
   1
 10
0.0
 20
0.0
 30
0.0
 70
   64
 71
   24
 72
   44
  0
VERTEX
  8
icecreamSandwich_3
 10
-75.211816
 20
31.053048
 30
-45.328086
 70
   192
  0
VERTEX
  8
icecreamSandwich_3
 10
-75.211816
 20
83.548850
 30
-45.328086
 70
   192
  0
VERTEX
  8
icecreamSandwich_3
 10
-75.211816
 20
83.548850
 30
45.328086
 70
   192
  0
VERTEX
  8
icecreamSandwich_3
 10
-75.211816
 20
31.053048
 30
45.328086
 70
   192
  0
VERTEX
  8
icecreamSandwich_3
 10
-45.328086
 20
31.053048
 30
75.211816
 70
   192
  0
VERTEX
  8
icecreamSandwich_3
 10
-45.328086
 20
83.548850
 30
75.211816
 70
   192
  0
VERTEX
  8
icecreamSandwich_3
 10
45.328086
 20
83.548850
 30
75.211816
 70
   192
  0
VERTEX
  8
icecreamSandwich_3
 10
45.328086
 20
31.053048
 30
75.211816
 70
   192
  0
VERTEX
  8
icecreamSandwich_3
 10
75.211816
 20
31.053048
 30
45.328086
 70
   192
  0
VERTEX
  8
icecreamSandwich_3
 10
75.211816
 20
83.548850
 30
45.328086
 70
   192
  0
VERTEX
  8
icecreamSandwich_3
 10
75.211816
 20
83.548850
 30
-45.328086
 70
   192
  0
VERTEX
  8
icecreamSandwich_3
 10
75.211816
 20
31.053048
 30
-45.328086
 70
   192
  0
VERTEX
  8
icecreamSandwich_3
 10
45.328086
 20
31.053048
 30
-75.211816
 70
   192
  0
VERTEX
  8
icecreamSandwich_3
 10
45.328086
 20
83.548850
 30
-75.211816
 70
   192
  0
VERTEX
  8
icecreamSandwich_3
 10
-45.328086
 20
83.548850
 30
-75.211816
 70
   192
  0
VERTEX
  8
icecreamSandwich_3
 10
-45.328086
 20
31.053048
 30
-75.211816
 70
   192
  0
VERTEX
  8
icecreamSandwich_3
 10
-66.459074
 20
31.053048
 30
-66.459074
 70
   192
  0
VERTEX
  8
icecreamSandwich_3
 10
-66.459074
 20
83.548850
 30
-66.459074
 70
   192
  0
VERTEX
  8
icecreamSandwich_3
 10
-66.459074
 20
83.548850
 30
66.459074
 70
   192
  0
VERTEX
  8
icecreamSandwich_3
 10
-66.459074
 20
31.053048
 30
66.459074
 70
   192
  0
VERTEX
  8
icecreamSandwich_3
 10
66.459074
 20
83.548850
 30
66.459074
 70
   192
  0
VERTEX
  8
icecreamSandwich_3
 10
66.459074
 20
31.053048
 30
66.459074
 70
   192
  0
VERTEX
  8
icecreamSandwich_3
 10
66.459074
 20
83.548850
 30
-66.459074
 70
   192
  0
VERTEX
  8
icecreamSandwich_3
 10
66.459074
 20
31.053048
 30
-66.459074
 70
   192
  0
VERTEX
  8
icecreamSandwich_3
 10
0.0
 20
0.0
 30
0.0
 70
   128
 71
   5
 72
   6
 73
   7
  0
VERTEX
  8
icecreamSandwich_3
 10
0.0
 20
0.0
 30
0.0
 70
   128
 71
   9
 72
   10
 73
   11
  0
VERTEX
  8
icecreamSandwich_3
 10
0.0
 20
0.0
 30
0.0
 70
   128
 71
   13
 72
   14
 73
   15
  0
VERTEX
  8
icecreamSandwich_3
 10
0.0
 20
0.0
 30
0.0
 70
   128
 71
   1
 72
   2
 73
   3
  0
VERTEX
  8
icecreamSandwich_3
 10
0.0
 20
0.0
 30
0.0
 70
   128
 71
   6
 72
   19
 73
   3
  0
VERTEX
  8
icecreamSandwich_3
 10
0.0
 20
0.0
 30
0.0
 70
   128
 71
   16
 72
   17
 73
   1
  0
VERTEX
  8
icecreamSandwich_3
 10
0.0
 20
0.0
 30
0.0
 70
   128
 71
   6
 72
   2
 73
   11
  0
VERTEX
  8
icecreamSandwich_3
 10
0.0
 20
0.0
 30
0.0
 70
   128
 71
   7
 72
   6
 73
   10
  0
VERTEX
  8
icecreamSandwich_3
 10
0.0
 20
0.0
 30
0.0
 70
   128
 71
   2
 72
   18
 73
   15
  0
VERTEX
  8
icecreamSandwich_3
 10
0.0
 20
0.0
 30
0.0
 70
   128
 71
   11
 72
   2
 73
   15
  0
VERTEX
  8
icecreamSandwich_3
 10
0.0
 20
0.0
 30
0.0
 70
   128
 71
   14
 72
   23
 73
   11
  0
VERTEX
  8
icecreamSandwich_3
 10
0.0
 20
0.0
 30
0.0
 70
   128
 71
   13
 72
   16
 73
   1
  0
VERTEX
  8
icecreamSandwich_3
 10
0.0
 20
0.0
 30
0.0
 70
   128
 71
   1
 72
   4
 73
   8
  0
VERTEX
  8
icecreamSandwich_3
 10
0.0
 20
0.0
 30
0.0
 70
   128
 71
   4
 72
   20
 73
   5
  0
VERTEX
  8
icecreamSandwich_3
 10
0.0
 20
0.0
 30
0.0
 70
   128
 71
   8
 72
   22
 73
   9
  0
VERTEX
  8
icecreamSandwich_3
 10
0.0
 20
0.0
 30
0.0
 70
   128
 71
   12
 72
   24
 73
   13
  0
VERTEX
  8
icecreamSandwich_3
 10
0.0
 20
0.0
 30
0.0
 70
   128
 71
   5
 72
   20
 73
   19
  0
VERTEX
  8
icecreamSandwich_3
 10
0.0
 20
0.0
 30
0.0
 70
   128
 71
   9
 72
   22
 73
   21
  0
VERTEX
  8
icecreamSandwich_3
 10
0.0
 20
0.0
 30
0.0
 70
   128
 71
   13
 72
   24
 73
   23
  0
VERTEX
  8
icecreamSandwich_3
 10
0.0
 20
0.0
 30
0.0
 70
   128
 71
   1
 72
   17
 73
   18
  0
VERTEX
  8
icecreamSandwich_3
 10
0.0
 20
0.0
 30
0.0
 70
   128
 71
   20
 72
   4
 73
   3
  0
VERTEX
  8
icecreamSandwich_3
 10
0.0
 20
0.0
 30
0.0
 70
   128
 71
   22
 72
   8
 73
   7
  0
VERTEX
  8
icecreamSandwich_3
 10
0.0
 20
0.0
 30
0.0
 70
   128
 71
   24
 72
   12
 73
   11
  0
VERTEX
  8
icecreamSandwich_3
 10
0.0
 20
0.0
 30
0.0
 70
   128
 71
   17
 72
   16
 73
   15
  0
VERTEX
  8
icecreamSandwich_3
 10
0.0
 20
0.0
 30
0.0
 70
   128
 71
   5
 72
   7
 73
   8
  0
VERTEX
  8
icecreamSandwich_3
 10
0.0
 20
0.0
 30
0.0
 70
   128
 71
   9
 72
   11
 73
   12
  0
VERTEX
  8
icecreamSandwich_3
 10
0.0
 20
0.0
 30
0.0
 70
   128
 71
   13
 72
   15
 73
   16
  0
VERTEX
  8
icecreamSandwich_3
 10
0.0
 20
0.0
 30
0.0
 70
   128
 71
   1
 72
   3
 73
   4
  0
VERTEX
  8
icecreamSandwich_3
 10
0.0
 20
0.0
 30
0.0
 70
   128
 71
   6
 72
   3
 73
   2
  0
VERTEX
  8
icecreamSandwich_3
 10
0.0
 20
0.0
 30
0.0
 70
   128
 71
   6
 72
   11
 73
   10
  0
VERTEX
  8
icecreamSandwich_3
 10
0.0
 20
0.0
 30
0.0
 70
   128
 71
   7
 72
   10
 73
   21
  0
VERTEX
  8
icecreamSandwich_3
 10
0.0
 20
0.0
 30
0.0
 70
   128
 71
   11
 72
   15
 73
   14
  0
VERTEX
  8
icecreamSandwich_3
 10
0.0
 20
0.0
 30
0.0
 70
   128
 71
   13
 72
   1
 73
   12
  0
VERTEX
  8
icecreamSandwich_3
 10
0.0
 20
0.0
 30
0.0
 70
   128
 71
   1
 72
   8
 73
   12
  0
VERTEX
  8
icecreamSandwich_3
 10
0.0
 20
0.0
 30
0.0
 70
   128
 71
   4
 72
   5
 73
   8
  0
VERTEX
  8
icecreamSandwich_3
 10
0.0
 20
0.0
 30
0.0
 70
   128
 71
   8
 72
   9
 73
   12
  0
VERTEX
  8
icecreamSandwich_3
 10
0.0
 20
0.0
 30
0.0
 70
   128
 71
   5
 72
   19
 73
   6
  0
VERTEX
  8
icecreamSandwich_3
 10
0.0
 20
0.0
 30
0.0
 70
   128
 71
   9
 72
   21
 73
   10
  0
VERTEX
  8
icecreamSandwich_3
 10
0.0
 20
0.0
 30
0.0
 70
   128
 71
   13
 72
   23
 73
   14
  0
VERTEX
  8
icecreamSandwich_3
 10
0.0
 20
0.0
 30
0.0
 70
   128
 71
   1
 72
   18
 73
   2
  0
VERTEX
  8
icecreamSandwich_3
 10
0.0
 20
0.0
 30
0.0
 70
   128
 71
   20
 72
   3
 73
   19
  0
VERTEX
  8
icecreamSandwich_3
 10
0.0
 20
0.0
 30
0.0
 70
   128
 71
   22
 72
   7
 73
   21
  0
VERTEX
  8
icecreamSandwich_3
 10
0.0
 20
0.0
 30
0.0
 70
   128
 71
   24
 72
   11
 73
   23
  0
VERTEX
  8
icecreamSandwich_3
 10
0.0
 20
0.0
 30
0.0
 70
   128
 71
   17
 72
   15
 73
   18
  0
SEQEND
  0
POLYLINE
  8
icecreamSandwich_4
 66
   1
 10
0.0
 20
0.0
 30
0.0
 70
   64
 71
   24
 72
   44
  0
VERTEX
  8
icecreamSandwich_4
 10
-83.700000
 20
79.977721
 30
-50.443681
 70
   192
  0
VERTEX
  8
icecreamSandwich_4
 10
-83.700000
 20
111.322075
 30
-50.443681
 70
   192
  0
VERTEX
  8
icecreamSandwich_4
 10
-83.700000
 20
111.322075
 30
50.443681
 70
   192
  0
VERTEX
  8
icecreamSandwich_4
 10
-83.700000
 20
79.977721
 30
50.443681
 70
   192
  0
VERTEX
  8
icecreamSandwich_4
 10
-50.443681
 20
79.977721
 30
83.700000
 70
   192
  0
VERTEX
  8
icecreamSandwich_4
 10
-50.443681
 20
111.322075
 30
83.700000
 70
   192
  0
VERTEX
  8
icecreamSandwich_4
 10
50.443681
 20
111.322075
 30
83.700000
 70
   192
  0
VERTEX
  8
icecreamSandwich_4
 10
50.443681
 20
79.977721
 30
83.700000
 70
   192
  0
VERTEX
  8
icecreamSandwich_4
 10
83.700000
 20
79.977721
 30
50.443681
 70
   192
  0
VERTEX
  8
icecreamSandwich_4
 10
83.700000
 20
111.322075
 30
50.443681
 70
   192
  0
VERTEX
  8
icecreamSandwich_4
 10
83.700000
 20
111.322075
 30
-50.443681
 70
   192
  0
VERTEX
  8
icecreamSandwich_4
 10
83.700000
 20
79.977721
 30
-50.443681
 70
   192
  0
VERTEX
  8
icecreamSandwich_4
 10
50.443681
 20
79.977721
 30
-83.700000
 70
   192
  0
VERTEX
  8
icecreamSandwich_4
 10
50.443681
 20
111.322075
 30
-83.700000
 70
   192
  0
VERTEX
  8
icecreamSandwich_4
 10
-50.443681
 20
111.322075
 30
-83.700000
 70
   192
  0
VERTEX
  8
icecreamSandwich_4
 10
-50.443681
 20
79.977721
 30
-83.700000
 70
   192
  0
VERTEX
  8
icecreamSandwich_4
 10
-73.959450
 20
79.977721
 30
-73.959450
 70
   192
  0
VERTEX
  8
icecreamSandwich_4
 10
-73.959450
 20
111.322075
 30
-73.959450
 70
   192
  0
VERTEX
  8
icecreamSandwich_4
 10
-73.959450
 20
111.322075
 30
73.959450
 70
   192
  0
VERTEX
  8
icecreamSandwich_4
 10
-73.959450
 20
79.977721
 30
73.959450
 70
   192
  0
VERTEX
  8
icecreamSandwich_4
 10
73.959450
 20
111.322075
 30
73.959450
 70
   192
  0
VERTEX
  8
icecreamSandwich_4
 10
73.959450
 20
79.977721
 30
73.959450
 70
   192
  0
VERTEX
  8
icecreamSandwich_4
 10
73.959450
 20
111.322075
 30
-73.959450
 70
   192
  0
VERTEX
  8
icecreamSandwich_4
 10
73.959450
 20
79.977721
 30
-73.959450
 70
   192
  0
VERTEX
  8
icecreamSandwich_4
 10
0.0
 20
0.0
 30
0.0
 70
   128
 71
   5
 72
   6
 73
   7
  0
VERTEX
  8
icecreamSandwich_4
 10
0.0
 20
0.0
 30
0.0
 70
   128
 71
   9
 72
   10
 73
   11
  0
VERTEX
  8
icecreamSandwich_4
 10
0.0
 20
0.0
 30
0.0
 70
   128
 71
   13
 72
   14
 73
   15
  0
VERTEX
  8
icecreamSandwich_4
 10
0.0
 20
0.0
 30
0.0
 70
   128
 71
   1
 72
   2
 73
   3
  0
VERTEX
  8
icecreamSandwich_4
 10
0.0
 20
0.0
 30
0.0
 70
   128
 71
   6
 72
   19
 73
   3
  0
VERTEX
  8
icecreamSandwich_4
 10
0.0
 20
0.0
 30
0.0
 70
   128
 71
   16
 72
   17
 73
   1
  0
VERTEX
  8
icecreamSandwich_4
 10
0.0
 20
0.0
 30
0.0
 70
   128
 71
   6
 72
   2
 73
   11
  0
VERTEX
  8
icecreamSandwich_4
 10
0.0
 20
0.0
 30
0.0
 70
   128
 71
   7
 72
   6
 73
   10
  0
VERTEX
  8
icecreamSandwich_4
 10
0.0
 20
0.0
 30
0.0
 70
   128
 71
   2
 72
   18
 73
   15
  0
VERTEX
  8
icecreamSandwich_4
 10
0.0
 20
0.0
 30
0.0
 70
   128
 71
   11
 72
   2
 73
   15
  0
VERTEX
  8
icecreamSandwich_4
 10
0.0
 20
0.0
 30
0.0
 70
   128
 71
   14
 72
   23
 73
   11
  0
VERTEX
  8
icecreamSandwich_4
 10
0.0
 20
0.0
 30
0.0
 70
   128
 71
   13
 72
   16
 73
   1
  0
VERTEX
  8
icecreamSandwich_4
 10
0.0
 20
0.0
 30
0.0
 70
   128
 71
   1
 72
   4
 73
   8
  0
VERTEX
  8
icecreamSandwich_4
 10
0.0
 20
0.0
 30
0.0
 70
   128
 71
   4
 72
   20
 73
   5
  0
VERTEX
  8
icecreamSandwich_4
 10
0.0
 20
0.0
 30
0.0
 70
   128
 71
   8
 72
   22
 73
   9
  0
VERTEX
  8
icecreamSandwich_4
 10
0.0
 20
0.0
 30
0.0
 70
   128
 71
   12
 72
   24
 73
   13
  0
VERTEX
  8
icecreamSandwich_4
 10
0.0
 20
0.0
 30
0.0
 70
   128
 71
   5
 72
   20
 73
   19
  0
VERTEX
  8
icecreamSandwich_4
 10
0.0
 20
0.0
 30
0.0
 70
   128
 71
   9
 72
   22
 73
   21
  0
VERTEX
  8
icecreamSandwich_4
 10
0.0
 20
0.0
 30
0.0
 70
   128
 71
   13
 72
   24
 73
   23
  0
VERTEX
  8
icecreamSandwich_4
 10
0.0
 20
0.0
 30
0.0
 70
   128
 71
   1
 72
   17
 73
   18
  0
VERTEX
  8
icecreamSandwich_4
 10
0.0
 20
0.0
 30
0.0
 70
   128
 71
   20
 72
   4
 73
   3
  0
VERTEX
  8
icecreamSandwich_4
 10
0.0
 20
0.0
 30
0.0
 70
   128
 71
   22
 72
   8
 73
   7
  0
VERTEX
  8
icecreamSandwich_4
 10
0.0
 20
0.0
 30
0.0
 70
   128
 71
   24
 72
   12
 73
   11
  0
VERTEX
  8
icecreamSandwich_4
 10
0.0
 20
0.0
 30
0.0
 70
   128
 71
   17
 72
   16
 73
   15
  0
VERTEX
  8
icecreamSandwich_4
 10
0.0
 20
0.0
 30
0.0
 70
   128
 71
   5
 72
   7
 73
   8
  0
VERTEX
  8
icecreamSandwich_4
 10
0.0
 20
0.0
 30
0.0
 70
   128
 71
   9
 72
   11
 73
   12
  0
VERTEX
  8
icecreamSandwich_4
 10
0.0
 20
0.0
 30
0.0
 70
   128
 71
   13
 72
   15
 73
   16
  0
VERTEX
  8
icecreamSandwich_4
 10
0.0
 20
0.0
 30
0.0
 70
   128
 71
   1
 72
   3
 73
   4
  0
VERTEX
  8
icecreamSandwich_4
 10
0.0
 20
0.0
 30
0.0
 70
   128
 71
   6
 72
   3
 73
   2
  0
VERTEX
  8
icecreamSandwich_4
 10
0.0
 20
0.0
 30
0.0
 70
   128
 71
   6
 72
   11
 73
   10
  0
VERTEX
  8
icecreamSandwich_4
 10
0.0
 20
0.0
 30
0.0
 70
   128
 71
   7
 72
   10
 73
   21
  0
VERTEX
  8
icecreamSandwich_4
 10
0.0
 20
0.0
 30
0.0
 70
   128
 71
   11
 72
   15
 73
   14
  0
VERTEX
  8
icecreamSandwich_4
 10
0.0
 20
0.0
 30
0.0
 70
   128
 71
   13
 72
   1
 73
   12
  0
VERTEX
  8
icecreamSandwich_4
 10
0.0
 20
0.0
 30
0.0
 70
   128
 71
   1
 72
   8
 73
   12
  0
VERTEX
  8
icecreamSandwich_4
 10
0.0
 20
0.0
 30
0.0
 70
   128
 71
   4
 72
   5
 73
   8
  0
VERTEX
  8
icecreamSandwich_4
 10
0.0
 20
0.0
 30
0.0
 70
   128
 71
   8
 72
   9
 73
   12
  0
VERTEX
  8
icecreamSandwich_4
 10
0.0
 20
0.0
 30
0.0
 70
   128
 71
   5
 72
   19
 73
   6
  0
VERTEX
  8
icecreamSandwich_4
 10
0.0
 20
0.0
 30
0.0
 70
   128
 71
   9
 72
   21
 73
   10
  0
VERTEX
  8
icecreamSandwich_4
 10
0.0
 20
0.0
 30
0.0
 70
   128
 71
   13
 72
   23
 73
   14
  0
VERTEX
  8
icecreamSandwich_4
 10
0.0
 20
0.0
 30
0.0
 70
   128
 71
   1
 72
   18
 73
   2
  0
VERTEX
  8
icecreamSandwich_4
 10
0.0
 20
0.0
 30
0.0
 70
   128
 71
   20
 72
   3
 73
   19
  0
VERTEX
  8
icecreamSandwich_4
 10
0.0
 20
0.0
 30
0.0
 70
   128
 71
   22
 72
   7
 73
   21
  0
VERTEX
  8
icecreamSandwich_4
 10
0.0
 20
0.0
 30
0.0
 70
   128
 71
   24
 72
   11
 73
   23
  0
VERTEX
  8
icecreamSandwich_4
 10
0.0
 20
0.0
 30
0.0
 70
   128
 71
   17
 72
   15
 73
   18
  0
SEQEND
  0
ENDSEC
  0
EOF
