999
FBX AutoCAD (*.DXF) exporter
  0
SECTION
  2
HEADER
  9
$ACADVER
  1
AC1008
  9
$UCSORG
 10
0.0
 20
0.0
 30
0.0
  9
$UCSXDIR
 10
1.0
 20
0.0
 30
0.0
  9
$TILEMODE
 70
   1
  9
$UCSYDIR
 10
0.0
 20
1.0
 30
0.0
  0
ENDSEC
  0
SECTION
  2
TABLES
  0
TABLE
  2
LTYPE
 70
   1
  0
LTYPE
  2
CONTINUOUS
 70
   64
  3
Solid line
 72
   65
 73
   0
 40
0.0
  0
ENDTAB
  0
TABLE
  2
LAYER
 70
   4
  0
LAYER
  2
raddishLeaf
 70
   0
 62
   250
  6
CONTINUOUS
  0
LAYER
  2
raddishLeaf_2
 70
   0
 62
   250
  6
CONTINUOUS
  0
LAYER
  2
raddish
 70
   0
 62
   250
  6
CONTINUOUS
  0
ENDTAB
  0
ENDSEC
  0
SECTION
  2
BLOCKS
  0
ENDSEC
  0
SECTION
  2
ENTITIES
  0
POLYLINE
  8
raddishLeaf
 66
   1
 10
0.0
 20
0.0
 30
0.0
 70
   64
 71
   126
 72
   108
  0
VERTEX
  8
raddishLeaf
 10
23.198748
 20
86.589587
 30
11.326855
 70
   192
  0
VERTEX
  8
raddishLeaf
 10
39.070883
 20
119.682849
 30
21.009653
 70
   192
  0
VERTEX
  8
raddishLeaf
 10
43.561311
 20
144.989313
 30
21.175710
 70
   192
  0
VERTEX
  8
raddishLeaf
 10
36.884773
 20
159.734346
 30
12.476112
 70
   192
  0
VERTEX
  8
raddishLeaf
 10
25.380216
 20
160.684695
 30
1.432925
 70
   192
  0
VERTEX
  8
raddishLeaf
 10
12.348303
 20
137.376675
 30
-7.140742
 70
   192
  0
VERTEX
  8
raddishLeaf
 10
12.430461
 20
131.134498
 30
-6.055497
 70
   192
  0
VERTEX
  8
raddishLeaf
 10
11.763300
 20
140.926463
 30
-8.267415
 70
   192
  0
VERTEX
  8
raddishLeaf
 10
6.443346
 20
157.357686
 30
-15.955066
 70
   192
  0
VERTEX
  8
raddishLeaf
 10
-1.924206
 20
165.620388
 30
-25.209079
 70
   192
  0
VERTEX
  8
raddishLeaf
 10
-16.771614
 20
155.731577
 30
-37.667067
 70
   192
  0
VERTEX
  8
raddishLeaf
 10
-19.937501
 20
128.835259
 30
-36.322761
 70
   192
  0
VERTEX
  8
raddishLeaf
 10
-13.529864
 20
108.948307
 30
-27.047799
 70
   192
  0
VERTEX
  8
raddishLeaf
 10
-3.846069
 20
79.706627
 30
-13.161904
 70
   192
  0
VERTEX
  8
raddishLeaf
 10
6.129686
 20
89.500027
 30
29.359505
 70
   192
  0
VERTEX
  8
raddishLeaf
 10
22.001820
 20
122.593289
 30
39.042302
 70
   192
  0
VERTEX
  8
raddishLeaf
 10
26.492249
 20
147.899754
 30
39.208359
 70
   192
  0
VERTEX
  8
raddishLeaf
 10
19.815710
 20
162.644787
 30
30.508762
 70
   192
  0
VERTEX
  8
raddishLeaf
 10
8.311153
 20
163.595135
 30
19.465574
 70
   192
  0
VERTEX
  8
raddishLeaf
 10
-4.720759
 20
140.287115
 30
10.891907
 70
   192
  0
VERTEX
  8
raddishLeaf
 10
-4.638601
 20
134.044939
 30
11.977153
 70
   192
  0
VERTEX
  8
raddishLeaf
 10
-5.305763
 20
143.836903
 30
9.765234
 70
   192
  0
VERTEX
  8
raddishLeaf
 10
-10.625716
 20
160.268126
 30
2.077583
 70
   192
  0
VERTEX
  8
raddishLeaf
 10
-18.993268
 20
168.530828
 30
-7.176429
 70
   192
  0
VERTEX
  8
raddishLeaf
 10
-33.840676
 20
158.642018
 30
-19.634418
 70
   192
  0
VERTEX
  8
raddishLeaf
 10
-37.006563
 20
131.745699
 30
-18.290111
 70
   192
  0
VERTEX
  8
raddishLeaf
 10
-30.598927
 20
111.858747
 30
-9.015149
 70
   192
  0
VERTEX
  8
raddishLeaf
 10
-20.915131
 20
82.617067
 30
4.870745
 70
   192
  0
VERTEX
  8
raddishLeaf
 10
23.198748
 20
86.589587
 30
11.326855
 70
   192
  0
VERTEX
  8
raddishLeaf
 10
39.070883
 20
119.682849
 30
21.009653
 70
   192
  0
VERTEX
  8
raddishLeaf
 10
43.561311
 20
144.989313
 30
21.175710
 70
   192
  0
VERTEX
  8
raddishLeaf
 10
36.884773
 20
159.734346
 30
12.476112
 70
   192
  0
VERTEX
  8
raddishLeaf
 10
25.380216
 20
160.684695
 30
1.432925
 70
   192
  0
VERTEX
  8
raddishLeaf
 10
12.348303
 20
137.376675
 30
-7.140742
 70
   192
  0
VERTEX
  8
raddishLeaf
 10
12.430461
 20
131.134498
 30
-6.055497
 70
   192
  0
VERTEX
  8
raddishLeaf
 10
11.763300
 20
140.926463
 30
-8.267415
 70
   192
  0
VERTEX
  8
raddishLeaf
 10
6.443346
 20
157.357686
 30
-15.955066
 70
   192
  0
VERTEX
  8
raddishLeaf
 10
-1.924206
 20
165.620388
 30
-25.209079
 70
   192
  0
VERTEX
  8
raddishLeaf
 10
-16.771614
 20
155.731577
 30
-37.667067
 70
   192
  0
VERTEX
  8
raddishLeaf
 10
-19.937501
 20
128.835259
 30
-36.322761
 70
   192
  0
VERTEX
  8
raddishLeaf
 10
-13.529864
 20
108.948307
 30
-27.047799
 70
   192
  0
VERTEX
  8
raddishLeaf
 10
-3.846069
 20
79.706627
 30
-13.161904
 70
   192
  0
VERTEX
  8
raddishLeaf
 10
24.882716
 20
91.465313
 30
5.202034
 70
   192
  0
VERTEX
  8
raddishLeaf
 10
39.197078
 20
121.310634
 30
13.934512
 70
   192
  0
VERTEX
  8
raddishLeaf
 10
42.977929
 20
142.618173
 30
14.074329
 70
   192
  0
VERTEX
  8
raddishLeaf
 10
38.121056
 20
153.344502
 30
7.745774
 70
   192
  0
VERTEX
  8
raddishLeaf
 10
30.014013
 20
154.014195
 30
-0.036151
 70
   192
  0
VERTEX
  8
raddishLeaf
 10
18.949821
 20
134.225511
 30
-7.315259
 70
   192
  0
VERTEX
  8
raddishLeaf
 10
15.831609
 20
118.759560
 30
-7.770668
 70
   192
  0
VERTEX
  8
raddishLeaf
 10
11.782903
 20
137.411927
 30
-14.613491
 70
   192
  0
VERTEX
  8
raddishLeaf
 10
6.961919
 20
152.302029
 30
-21.580100
 70
   192
  0
VERTEX
  8
raddishLeaf
 10
0.764230
 20
158.422057
 30
-28.434373
 70
   192
  0
VERTEX
  8
raddishLeaf
 10
-10.192293
 20
151.124691
 30
-37.627644
 70
   192
  0
VERTEX
  8
raddishLeaf
 10
-12.697323
 20
129.842790
 30
-36.563952
 70
   192
  0
VERTEX
  8
raddishLeaf
 10
-6.833362
 20
111.643207
 30
-28.075952
 70
   192
  0
VERTEX
  8
raddishLeaf
 10
1.794733
 20
85.589375
 30
-15.703860
 70
   192
  0
VERTEX
  8
raddishLeaf
 10
24.882716
 20
91.465313
 30
5.202034
 70
   192
  0
VERTEX
  8
raddishLeaf
 10
39.197078
 20
121.310634
 30
13.934512
 70
   192
  0
VERTEX
  8
raddishLeaf
 10
42.977929
 20
142.618173
 30
14.074329
 70
   192
  0
VERTEX
  8
raddishLeaf
 10
38.121056
 20
153.344502
 30
7.745774
 70
   192
  0
VERTEX
  8
raddishLeaf
 10
30.014013
 20
154.014195
 30
-0.036151
 70
   192
  0
VERTEX
  8
raddishLeaf
 10
18.949821
 20
134.225511
 30
-7.315259
 70
   192
  0
VERTEX
  8
raddishLeaf
 10
15.831609
 20
118.759560
 30
-7.770668
 70
   192
  0
VERTEX
  8
raddishLeaf
 10
11.782903
 20
137.411927
 30
-14.613491
 70
   192
  0
VERTEX
  8
raddishLeaf
 10
6.961919
 20
152.302029
 30
-21.580100
 70
   192
  0
VERTEX
  8
raddishLeaf
 10
0.764230
 20
158.422057
 30
-28.434373
 70
   192
  0
VERTEX
  8
raddishLeaf
 10
-10.192293
 20
151.124691
 30
-37.627644
 70
   192
  0
VERTEX
  8
raddishLeaf
 10
-12.697323
 20
129.842790
 30
-36.563952
 70
   192
  0
VERTEX
  8
raddishLeaf
 10
-6.833362
 20
111.643207
 30
-28.075952
 70
   192
  0
VERTEX
  8
raddishLeaf
 10
1.794733
 20
85.589375
 30
-15.703860
 70
   192
  0
VERTEX
  8
raddishLeaf
 10
6.129686
 20
89.500027
 30
29.359505
 70
   192
  0
VERTEX
  8
raddishLeaf
 10
22.001820
 20
122.593289
 30
39.042302
 70
   192
  0
VERTEX
  8
raddishLeaf
 10
26.492249
 20
147.899754
 30
39.208359
 70
   192
  0
VERTEX
  8
raddishLeaf
 10
19.815710
 20
162.644787
 30
30.508762
 70
   192
  0
VERTEX
  8
raddishLeaf
 10
8.311153
 20
163.595135
 30
19.465574
 70
   192
  0
VERTEX
  8
raddishLeaf
 10
-4.720759
 20
140.287115
 30
10.891907
 70
   192
  0
VERTEX
  8
raddishLeaf
 10
-4.638601
 20
134.044939
 30
11.977153
 70
   192
  0
VERTEX
  8
raddishLeaf
 10
-5.305763
 20
143.836903
 30
9.765234
 70
   192
  0
VERTEX
  8
raddishLeaf
 10
-10.625716
 20
160.268126
 30
2.077583
 70
   192
  0
VERTEX
  8
raddishLeaf
 10
-18.993268
 20
168.530828
 30
-7.176429
 70
   192
  0
VERTEX
  8
raddishLeaf
 10
-33.840676
 20
158.642018
 30
-19.634418
 70
   192
  0
VERTEX
  8
raddishLeaf
 10
-37.006563
 20
131.745699
 30
-18.290111
 70
   192
  0
VERTEX
  8
raddishLeaf
 10
-30.598927
 20
111.858747
 30
-9.015149
 70
   192
  0
VERTEX
  8
raddishLeaf
 10
-20.915131
 20
82.617067
 30
4.870745
 70
   192
  0
VERTEX
  8
raddishLeaf
 10
0.986029
 20
95.539930
 30
30.447743
 70
   192
  0
VERTEX
  8
raddishLeaf
 10
15.300391
 20
125.385250
 30
39.180221
 70
   192
  0
VERTEX
  8
raddishLeaf
 10
19.081242
 20
146.692789
 30
39.320038
 70
   192
  0
VERTEX
  8
raddishLeaf
 10
14.224369
 20
157.419119
 30
32.991483
 70
   192
  0
VERTEX
  8
raddishLeaf
 10
6.117326
 20
158.088811
 30
25.209558
 70
   192
  0
VERTEX
  8
raddishLeaf
 10
-4.946866
 20
138.300128
 30
17.930451
 70
   192
  0
VERTEX
  8
raddishLeaf
 10
-8.065078
 20
122.834176
 30
17.475042
 70
   192
  0
VERTEX
  8
raddishLeaf
 10
-12.113785
 20
141.486543
 30
10.632219
 70
   192
  0
VERTEX
  8
raddishLeaf
 10
-16.934768
 20
156.376645
 30
3.665610
 70
   192
  0
VERTEX
  8
raddishLeaf
 10
-23.132457
 20
162.496674
 30
-3.188664
 70
   192
  0
VERTEX
  8
raddishLeaf
 10
-34.088980
 20
155.199307
 30
-12.381934
 70
   192
  0
VERTEX
  8
raddishLeaf
 10
-36.594010
 20
133.917407
 30
-11.318242
 70
   192
  0
VERTEX
  8
raddishLeaf
 10
-30.730049
 20
115.717824
 30
-2.830243
 70
   192
  0
VERTEX
  8
raddishLeaf
 10
-22.101955
 20
89.663992
 30
9.541849
 70
   192
  0
VERTEX
  8
raddishLeaf
 10
0.986029
 20
95.539930
 30
30.447743
 70
   192
  0
VERTEX
  8
raddishLeaf
 10
15.300391
 20
125.385250
 30
39.180221
 70
   192
  0
VERTEX
  8
raddishLeaf
 10
19.081242
 20
146.692789
 30
39.320038
 70
   192
  0
VERTEX
  8
raddishLeaf
 10
14.224369
 20
157.419119
 30
32.991483
 70
   192
  0
VERTEX
  8
raddishLeaf
 10
6.117326
 20
158.088811
 30
25.209558
 70
   192
  0
VERTEX
  8
raddishLeaf
 10
-4.946866
 20
138.300128
 30
17.930451
 70
   192
  0
VERTEX
  8
raddishLeaf
 10
-8.065078
 20
122.834176
 30
17.475042
 70
   192
  0
VERTEX
  8
raddishLeaf
 10
-12.113785
 20
141.486543
 30
10.632219
 70
   192
  0
VERTEX
  8
raddishLeaf
 10
-16.934768
 20
156.376645
 30
3.665610
 70
   192
  0
VERTEX
  8
raddishLeaf
 10
-23.132457
 20
162.496674
 30
-3.188664
 70
   192
  0
VERTEX
  8
raddishLeaf
 10
-34.088980
 20
155.199307
 30
-12.381934
 70
   192
  0
VERTEX
  8
raddishLeaf
 10
-36.594010
 20
133.917407
 30
-11.318242
 70
   192
  0
VERTEX
  8
raddishLeaf
 10
-30.730049
 20
115.717824
 30
-2.830243
 70
   192
  0
VERTEX
  8
raddishLeaf
 10
-22.101955
 20
89.663992
 30
9.541849
 70
   192
  0
VERTEX
  8
raddishLeaf
 10
-10.629192
 20
-89.973798
 30
24.226138
 70
   192
  0
VERTEX
  8
raddishLeaf
 10
-10.629192
 20
-89.973798
 30
24.226138
 70
   192
  0
VERTEX
  8
raddishLeaf
 10
-10.629192
 20
-89.973798
 30
24.226138
 70
   192
  0
VERTEX
  8
raddishLeaf
 10
-10.629192
 20
-89.973798
 30
24.226138
 70
   192
  0
VERTEX
  8
raddishLeaf
 10
-10.629192
 20
-89.973798
 30
24.226138
 70
   192
  0
VERTEX
  8
raddishLeaf
 10
-10.629192
 20
-89.973798
 30
24.226138
 70
   192
  0
VERTEX
  8
raddishLeaf
 10
-10.629192
 20
-89.973798
 30
24.226138
 70
   192
  0
VERTEX
  8
raddishLeaf
 10
-10.629192
 20
-89.973798
 30
24.226138
 70
   192
  0
VERTEX
  8
raddishLeaf
 10
-10.629192
 20
-89.973798
 30
24.226138
 70
   192
  0
VERTEX
  8
raddishLeaf
 10
-10.629192
 20
-89.973798
 30
24.226138
 70
   192
  0
VERTEX
  8
raddishLeaf
 10
-10.629192
 20
-89.973798
 30
24.226138
 70
   192
  0
VERTEX
  8
raddishLeaf
 10
-10.629192
 20
-89.973798
 30
24.226138
 70
   192
  0
VERTEX
  8
raddishLeaf
 10
-10.629192
 20
-89.973798
 30
24.226138
 70
   192
  0
VERTEX
  8
raddishLeaf
 10
-10.629192
 20
-89.973798
 30
24.226138
 70
   192
  0
VERTEX
  8
raddishLeaf
 10
0.0
 20
0.0
 30
0.0
 70
   128
 71
   1
 72
   15
 73
   16
  0
VERTEX
  8
raddishLeaf
 10
0.0
 20
0.0
 30
0.0
 70
   128
 71
   2
 72
   16
 73
   17
  0
VERTEX
  8
raddishLeaf
 10
0.0
 20
0.0
 30
0.0
 70
   128
 71
   3
 72
   17
 73
   18
  0
VERTEX
  8
raddishLeaf
 10
0.0
 20
0.0
 30
0.0
 70
   128
 71
   4
 72
   18
 73
   19
  0
VERTEX
  8
raddishLeaf
 10
0.0
 20
0.0
 30
0.0
 70
   128
 71
   5
 72
   19
 73
   20
  0
VERTEX
  8
raddishLeaf
 10
0.0
 20
0.0
 30
0.0
 70
   128
 71
   6
 72
   20
 73
   21
  0
VERTEX
  8
raddishLeaf
 10
0.0
 20
0.0
 30
0.0
 70
   128
 71
   7
 72
   21
 73
   22
  0
VERTEX
  8
raddishLeaf
 10
0.0
 20
0.0
 30
0.0
 70
   128
 71
   8
 72
   22
 73
   23
  0
VERTEX
  8
raddishLeaf
 10
0.0
 20
0.0
 30
0.0
 70
   128
 71
   9
 72
   23
 73
   24
  0
VERTEX
  8
raddishLeaf
 10
0.0
 20
0.0
 30
0.0
 70
   128
 71
   10
 72
   24
 73
   25
  0
VERTEX
  8
raddishLeaf
 10
0.0
 20
0.0
 30
0.0
 70
   128
 71
   11
 72
   25
 73
   26
  0
VERTEX
  8
raddishLeaf
 10
0.0
 20
0.0
 30
0.0
 70
   128
 71
   12
 72
   26
 73
   27
  0
VERTEX
  8
raddishLeaf
 10
0.0
 20
0.0
 30
0.0
 70
   128
 71
   13
 72
   27
 73
   28
  0
VERTEX
  8
raddishLeaf
 10
0.0
 20
0.0
 30
0.0
 70
   128
 71
   14
 72
   28
 73
   15
  0
VERTEX
  8
raddishLeaf
 10
0.0
 20
0.0
 30
0.0
 70
   128
 71
   29
 72
   30
 73
   44
  0
VERTEX
  8
raddishLeaf
 10
0.0
 20
0.0
 30
0.0
 70
   128
 71
   30
 72
   31
 73
   45
  0
VERTEX
  8
raddishLeaf
 10
0.0
 20
0.0
 30
0.0
 70
   128
 71
   31
 72
   32
 73
   46
  0
VERTEX
  8
raddishLeaf
 10
0.0
 20
0.0
 30
0.0
 70
   128
 71
   32
 72
   33
 73
   47
  0
VERTEX
  8
raddishLeaf
 10
0.0
 20
0.0
 30
0.0
 70
   128
 71
   33
 72
   34
 73
   48
  0
VERTEX
  8
raddishLeaf
 10
0.0
 20
0.0
 30
0.0
 70
   128
 71
   34
 72
   35
 73
   49
  0
VERTEX
  8
raddishLeaf
 10
0.0
 20
0.0
 30
0.0
 70
   128
 71
   35
 72
   36
 73
   50
  0
VERTEX
  8
raddishLeaf
 10
0.0
 20
0.0
 30
0.0
 70
   128
 71
   36
 72
   37
 73
   51
  0
VERTEX
  8
raddishLeaf
 10
0.0
 20
0.0
 30
0.0
 70
   128
 71
   37
 72
   38
 73
   52
  0
VERTEX
  8
raddishLeaf
 10
0.0
 20
0.0
 30
0.0
 70
   128
 71
   38
 72
   39
 73
   53
  0
VERTEX
  8
raddishLeaf
 10
0.0
 20
0.0
 30
0.0
 70
   128
 71
   39
 72
   40
 73
   54
  0
VERTEX
  8
raddishLeaf
 10
0.0
 20
0.0
 30
0.0
 70
   128
 71
   40
 72
   41
 73
   55
  0
VERTEX
  8
raddishLeaf
 10
0.0
 20
0.0
 30
0.0
 70
   128
 71
   41
 72
   42
 73
   56
  0
VERTEX
  8
raddishLeaf
 10
0.0
 20
0.0
 30
0.0
 70
   128
 71
   42
 72
   29
 73
   43
  0
VERTEX
  8
raddishLeaf
 10
0.0
 20
0.0
 30
0.0
 70
   128
 71
   57
 72
   58
 73
   63
  0
VERTEX
  8
raddishLeaf
 10
0.0
 20
0.0
 30
0.0
 70
   128
 71
   57
 72
   63
 73
   70
  0
VERTEX
  8
raddishLeaf
 10
0.0
 20
0.0
 30
0.0
 70
   128
 71
   58
 72
   59
 73
   61
  0
VERTEX
  8
raddishLeaf
 10
0.0
 20
0.0
 30
0.0
 70
   128
 71
   58
 72
   61
 73
   62
  0
VERTEX
  8
raddishLeaf
 10
0.0
 20
0.0
 30
0.0
 70
   128
 71
   58
 72
   62
 73
   63
  0
VERTEX
  8
raddishLeaf
 10
0.0
 20
0.0
 30
0.0
 70
   128
 71
   59
 72
   60
 73
   61
  0
VERTEX
  8
raddishLeaf
 10
0.0
 20
0.0
 30
0.0
 70
   128
 71
   63
 72
   64
 73
   69
  0
VERTEX
  8
raddishLeaf
 10
0.0
 20
0.0
 30
0.0
 70
   128
 71
   63
 72
   69
 73
   70
  0
VERTEX
  8
raddishLeaf
 10
0.0
 20
0.0
 30
0.0
 70
   128
 71
   64
 72
   65
 73
   68
  0
VERTEX
  8
raddishLeaf
 10
0.0
 20
0.0
 30
0.0
 70
   128
 71
   64
 72
   68
 73
   69
  0
VERTEX
  8
raddishLeaf
 10
0.0
 20
0.0
 30
0.0
 70
   128
 71
   65
 72
   66
 73
   67
  0
VERTEX
  8
raddishLeaf
 10
0.0
 20
0.0
 30
0.0
 70
   128
 71
   65
 72
   67
 73
   68
  0
VERTEX
  8
raddishLeaf
 10
0.0
 20
0.0
 30
0.0
 70
   128
 71
   71
 72
   85
 73
   86
  0
VERTEX
  8
raddishLeaf
 10
0.0
 20
0.0
 30
0.0
 70
   128
 71
   72
 72
   86
 73
   87
  0
VERTEX
  8
raddishLeaf
 10
0.0
 20
0.0
 30
0.0
 70
   128
 71
   73
 72
   87
 73
   88
  0
VERTEX
  8
raddishLeaf
 10
0.0
 20
0.0
 30
0.0
 70
   128
 71
   74
 72
   88
 73
   89
  0
VERTEX
  8
raddishLeaf
 10
0.0
 20
0.0
 30
0.0
 70
   128
 71
   75
 72
   89
 73
   90
  0
VERTEX
  8
raddishLeaf
 10
0.0
 20
0.0
 30
0.0
 70
   128
 71
   76
 72
   90
 73
   91
  0
VERTEX
  8
raddishLeaf
 10
0.0
 20
0.0
 30
0.0
 70
   128
 71
   77
 72
   91
 73
   92
  0
VERTEX
  8
raddishLeaf
 10
0.0
 20
0.0
 30
0.0
 70
   128
 71
   78
 72
   92
 73
   93
  0
VERTEX
  8
raddishLeaf
 10
0.0
 20
0.0
 30
0.0
 70
   128
 71
   79
 72
   93
 73
   94
  0
VERTEX
  8
raddishLeaf
 10
0.0
 20
0.0
 30
0.0
 70
   128
 71
   80
 72
   94
 73
   95
  0
VERTEX
  8
raddishLeaf
 10
0.0
 20
0.0
 30
0.0
 70
   128
 71
   81
 72
   95
 73
   96
  0
VERTEX
  8
raddishLeaf
 10
0.0
 20
0.0
 30
0.0
 70
   128
 71
   82
 72
   96
 73
   97
  0
VERTEX
  8
raddishLeaf
 10
0.0
 20
0.0
 30
0.0
 70
   128
 71
   83
 72
   97
 73
   98
  0
VERTEX
  8
raddishLeaf
 10
0.0
 20
0.0
 30
0.0
 70
   128
 71
   84
 72
   98
 73
   85
  0
VERTEX
  8
raddishLeaf
 10
0.0
 20
0.0
 30
0.0
 70
   128
 71
   112
 72
   111
 73
   105
  0
VERTEX
  8
raddishLeaf
 10
0.0
 20
0.0
 30
0.0
 70
   128
 71
   112
 72
   105
 73
   99
  0
VERTEX
  8
raddishLeaf
 10
0.0
 20
0.0
 30
0.0
 70
   128
 71
   111
 72
   110
 73
   106
  0
VERTEX
  8
raddishLeaf
 10
0.0
 20
0.0
 30
0.0
 70
   128
 71
   111
 72
   106
 73
   105
  0
VERTEX
  8
raddishLeaf
 10
0.0
 20
0.0
 30
0.0
 70
   128
 71
   110
 72
   109
 73
   107
  0
VERTEX
  8
raddishLeaf
 10
0.0
 20
0.0
 30
0.0
 70
   128
 71
   110
 72
   107
 73
   106
  0
VERTEX
  8
raddishLeaf
 10
0.0
 20
0.0
 30
0.0
 70
   128
 71
   109
 72
   108
 73
   107
  0
VERTEX
  8
raddishLeaf
 10
0.0
 20
0.0
 30
0.0
 70
   128
 71
   105
 72
   104
 73
   100
  0
VERTEX
  8
raddishLeaf
 10
0.0
 20
0.0
 30
0.0
 70
   128
 71
   105
 72
   100
 73
   99
  0
VERTEX
  8
raddishLeaf
 10
0.0
 20
0.0
 30
0.0
 70
   128
 71
   104
 72
   103
 73
   100
  0
VERTEX
  8
raddishLeaf
 10
0.0
 20
0.0
 30
0.0
 70
   128
 71
   103
 72
   102
 73
   101
  0
VERTEX
  8
raddishLeaf
 10
0.0
 20
0.0
 30
0.0
 70
   128
 71
   103
 72
   101
 73
   100
  0
VERTEX
  8
raddishLeaf
 10
0.0
 20
0.0
 30
0.0
 70
   128
 71
   1
 72
   16
 73
   2
  0
VERTEX
  8
raddishLeaf
 10
0.0
 20
0.0
 30
0.0
 70
   128
 71
   2
 72
   17
 73
   3
  0
VERTEX
  8
raddishLeaf
 10
0.0
 20
0.0
 30
0.0
 70
   128
 71
   3
 72
   18
 73
   4
  0
VERTEX
  8
raddishLeaf
 10
0.0
 20
0.0
 30
0.0
 70
   128
 71
   4
 72
   19
 73
   5
  0
VERTEX
  8
raddishLeaf
 10
0.0
 20
0.0
 30
0.0
 70
   128
 71
   5
 72
   20
 73
   6
  0
VERTEX
  8
raddishLeaf
 10
0.0
 20
0.0
 30
0.0
 70
   128
 71
   6
 72
   21
 73
   7
  0
VERTEX
  8
raddishLeaf
 10
0.0
 20
0.0
 30
0.0
 70
   128
 71
   7
 72
   22
 73
   8
  0
VERTEX
  8
raddishLeaf
 10
0.0
 20
0.0
 30
0.0
 70
   128
 71
   8
 72
   23
 73
   9
  0
VERTEX
  8
raddishLeaf
 10
0.0
 20
0.0
 30
0.0
 70
   128
 71
   9
 72
   24
 73
   10
  0
VERTEX
  8
raddishLeaf
 10
0.0
 20
0.0
 30
0.0
 70
   128
 71
   10
 72
   25
 73
   11
  0
VERTEX
  8
raddishLeaf
 10
0.0
 20
0.0
 30
0.0
 70
   128
 71
   11
 72
   26
 73
   12
  0
VERTEX
  8
raddishLeaf
 10
0.0
 20
0.0
 30
0.0
 70
   128
 71
   12
 72
   27
 73
   13
  0
VERTEX
  8
raddishLeaf
 10
0.0
 20
0.0
 30
0.0
 70
   128
 71
   13
 72
   28
 73
   14
  0
VERTEX
  8
raddishLeaf
 10
0.0
 20
0.0
 30
0.0
 70
   128
 71
   14
 72
   15
 73
   1
  0
VERTEX
  8
raddishLeaf
 10
0.0
 20
0.0
 30
0.0
 70
   128
 71
   29
 72
   44
 73
   43
  0
VERTEX
  8
raddishLeaf
 10
0.0
 20
0.0
 30
0.0
 70
   128
 71
   30
 72
   45
 73
   44
  0
VERTEX
  8
raddishLeaf
 10
0.0
 20
0.0
 30
0.0
 70
   128
 71
   31
 72
   46
 73
   45
  0
VERTEX
  8
raddishLeaf
 10
0.0
 20
0.0
 30
0.0
 70
   128
 71
   32
 72
   47
 73
   46
  0
VERTEX
  8
raddishLeaf
 10
0.0
 20
0.0
 30
0.0
 70
   128
 71
   33
 72
   48
 73
   47
  0
VERTEX
  8
raddishLeaf
 10
0.0
 20
0.0
 30
0.0
 70
   128
 71
   34
 72
   49
 73
   48
  0
VERTEX
  8
raddishLeaf
 10
0.0
 20
0.0
 30
0.0
 70
   128
 71
   35
 72
   50
 73
   49
  0
VERTEX
  8
raddishLeaf
 10
0.0
 20
0.0
 30
0.0
 70
   128
 71
   36
 72
   51
 73
   50
  0
VERTEX
  8
raddishLeaf
 10
0.0
 20
0.0
 30
0.0
 70
   128
 71
   37
 72
   52
 73
   51
  0
VERTEX
  8
raddishLeaf
 10
0.0
 20
0.0
 30
0.0
 70
   128
 71
   38
 72
   53
 73
   52
  0
VERTEX
  8
raddishLeaf
 10
0.0
 20
0.0
 30
0.0
 70
   128
 71
   39
 72
   54
 73
   53
  0
VERTEX
  8
raddishLeaf
 10
0.0
 20
0.0
 30
0.0
 70
   128
 71
   40
 72
   55
 73
   54
  0
VERTEX
  8
raddishLeaf
 10
0.0
 20
0.0
 30
0.0
 70
   128
 71
   41
 72
   56
 73
   55
  0
VERTEX
  8
raddishLeaf
 10
0.0
 20
0.0
 30
0.0
 70
   128
 71
   42
 72
   43
 73
   56
  0
VERTEX
  8
raddishLeaf
 10
0.0
 20
0.0
 30
0.0
 70
   128
 71
   71
 72
   86
 73
   72
  0
VERTEX
  8
raddishLeaf
 10
0.0
 20
0.0
 30
0.0
 70
   128
 71
   72
 72
   87
 73
   73
  0
VERTEX
  8
raddishLeaf
 10
0.0
 20
0.0
 30
0.0
 70
   128
 71
   73
 72
   88
 73
   74
  0
VERTEX
  8
raddishLeaf
 10
0.0
 20
0.0
 30
0.0
 70
   128
 71
   74
 72
   89
 73
   75
  0
VERTEX
  8
raddishLeaf
 10
0.0
 20
0.0
 30
0.0
 70
   128
 71
   75
 72
   90
 73
   76
  0
VERTEX
  8
raddishLeaf
 10
0.0
 20
0.0
 30
0.0
 70
   128
 71
   76
 72
   91
 73
   77
  0
VERTEX
  8
raddishLeaf
 10
0.0
 20
0.0
 30
0.0
 70
   128
 71
   77
 72
   92
 73
   78
  0
VERTEX
  8
raddishLeaf
 10
0.0
 20
0.0
 30
0.0
 70
   128
 71
   78
 72
   93
 73
   79
  0
VERTEX
  8
raddishLeaf
 10
0.0
 20
0.0
 30
0.0
 70
   128
 71
   79
 72
   94
 73
   80
  0
VERTEX
  8
raddishLeaf
 10
0.0
 20
0.0
 30
0.0
 70
   128
 71
   80
 72
   95
 73
   81
  0
VERTEX
  8
raddishLeaf
 10
0.0
 20
0.0
 30
0.0
 70
   128
 71
   81
 72
   96
 73
   82
  0
VERTEX
  8
raddishLeaf
 10
0.0
 20
0.0
 30
0.0
 70
   128
 71
   82
 72
   97
 73
   83
  0
VERTEX
  8
raddishLeaf
 10
0.0
 20
0.0
 30
0.0
 70
   128
 71
   83
 72
   98
 73
   84
  0
VERTEX
  8
raddishLeaf
 10
0.0
 20
0.0
 30
0.0
 70
   128
 71
   84
 72
   85
 73
   71
  0
SEQEND
  0
POLYLINE
  8
raddishLeaf_2
 66
   1
 10
0.0
 20
0.0
 30
0.0
 70
   64
 71
   126
 72
   108
  0
VERTEX
  8
raddishLeaf_2
 10
-5.846983
 20
85.695635
 30
-13.836598
 70
   192
  0
VERTEX
  8
raddishLeaf_2
 10
3.195551
 20
98.815189
 30
-46.249678
 70
   192
  0
VERTEX
  8
raddishLeaf_2
 10
15.848400
 20
111.243663
 30
-62.538778
 70
   192
  0
VERTEX
  8
raddishLeaf_2
 10
30.193729
 20
121.396845
 30
-61.703628
 70
   192
  0
VERTEX
  8
raddishLeaf_2
 10
39.427977
 20
125.520976
 30
-49.344300
 70
   192
  0
VERTEX
  8
raddishLeaf_2
 10
34.449587
 20
116.861263
 30
-24.456365
 70
   192
  0
VERTEX
  8
raddishLeaf_2
 10
30.435829
 20
113.422836
 30
-21.760507
 70
   192
  0
VERTEX
  8
raddishLeaf_2
 10
37.136028
 20
118.985272
 30
-25.391311
 70
   192
  0
VERTEX
  8
raddishLeaf_2
 10
51.531008
 20
129.635278
 30
-26.816463
 70
   192
  0
VERTEX
  8
raddishLeaf_2
 10
63.041046
 20
136.774301
 30
-21.207909
 70
   192
  0
VERTEX
  8
raddishLeaf_2
 10
67.921036
 20
136.019880
 30
-0.294346
 70
   192
  0
VERTEX
  8
raddishLeaf_2
 10
53.267720
 20
122.307211
 30
15.232821
 70
   192
  0
VERTEX
  8
raddishLeaf_2
 10
35.868660
 20
109.427121
 30
16.992353
 70
   192
  0
VERTEX
  8
raddishLeaf_2
 10
10.088543
 20
90.406199
 30
19.288390
 70
   192
  0
VERTEX
  8
raddishLeaf_2
 10
8.559743
 20
65.676431
 30
-17.920434
 70
   192
  0
VERTEX
  8
raddishLeaf_2
 10
17.602277
 20
78.795986
 30
-50.333515
 70
   192
  0
VERTEX
  8
raddishLeaf_2
 10
30.255126
 20
91.224460
 30
-66.622614
 70
   192
  0
VERTEX
  8
raddishLeaf_2
 10
44.600455
 20
101.377641
 30
-65.787464
 70
   192
  0
VERTEX
  8
raddishLeaf_2
 10
53.834703
 20
105.501772
 30
-53.428136
 70
   192
  0
VERTEX
  8
raddishLeaf_2
 10
48.856314
 20
96.842059
 30
-28.540202
 70
   192
  0
VERTEX
  8
raddishLeaf_2
 10
44.842555
 20
93.403633
 30
-25.844343
 70
   192
  0
VERTEX
  8
raddishLeaf_2
 10
51.542754
 20
98.966069
 30
-29.475147
 70
   192
  0
VERTEX
  8
raddishLeaf_2
 10
65.937734
 20
109.616074
 30
-30.900300
 70
   192
  0
VERTEX
  8
raddishLeaf_2
 10
77.447772
 20
116.755097
 30
-25.291745
 70
   192
  0
VERTEX
  8
raddishLeaf_2
 10
82.327762
 20
116.000677
 30
-4.378182
 70
   192
  0
VERTEX
  8
raddishLeaf_2
 10
67.674446
 20
102.288007
 30
11.148985
 70
   192
  0
VERTEX
  8
raddishLeaf_2
 10
50.275386
 20
89.407918
 30
12.908516
 70
   192
  0
VERTEX
  8
raddishLeaf_2
 10
24.495270
 20
70.386995
 30
15.204554
 70
   192
  0
VERTEX
  8
raddishLeaf_2
 10
-5.846983
 20
85.695635
 30
-13.836598
 70
   192
  0
VERTEX
  8
raddishLeaf_2
 10
3.195551
 20
98.815189
 30
-46.249678
 70
   192
  0
VERTEX
  8
raddishLeaf_2
 10
15.848400
 20
111.243663
 30
-62.538778
 70
   192
  0
VERTEX
  8
raddishLeaf_2
 10
30.193729
 20
121.396845
 30
-61.703628
 70
   192
  0
VERTEX
  8
raddishLeaf_2
 10
39.427977
 20
125.520976
 30
-49.344300
 70
   192
  0
VERTEX
  8
raddishLeaf_2
 10
34.449587
 20
116.861263
 30
-24.456365
 70
   192
  0
VERTEX
  8
raddishLeaf_2
 10
30.435829
 20
113.422836
 30
-21.760507
 70
   192
  0
VERTEX
  8
raddishLeaf_2
 10
37.136028
 20
118.985272
 30
-25.391311
 70
   192
  0
VERTEX
  8
raddishLeaf_2
 10
51.531008
 20
129.635278
 30
-26.816463
 70
   192
  0
VERTEX
  8
raddishLeaf_2
 10
63.041046
 20
136.774301
 30
-21.207909
 70
   192
  0
VERTEX
  8
raddishLeaf_2
 10
67.921036
 20
136.019880
 30
-0.294346
 70
   192
  0
VERTEX
  8
raddishLeaf_2
 10
53.267720
 20
122.307211
 30
15.232821
 70
   192
  0
VERTEX
  8
raddishLeaf_2
 10
35.868660
 20
109.427121
 30
16.992353
 70
   192
  0
VERTEX
  8
raddishLeaf_2
 10
10.088543
 20
90.406199
 30
19.288390
 70
   192
  0
VERTEX
  8
raddishLeaf_2
 10
-3.974816
 20
93.225327
 30
-13.534589
 70
   192
  0
VERTEX
  8
raddishLeaf_2
 10
4.180237
 20
105.057261
 30
-42.766484
 70
   192
  0
VERTEX
  8
raddishLeaf_2
 10
14.833684
 20
115.521789
 30
-56.481581
 70
   192
  0
VERTEX
  8
raddishLeaf_2
 10
25.269247
 20
122.907759
 30
-55.874048
 70
   192
  0
VERTEX
  8
raddishLeaf_2
 10
31.776447
 20
125.813956
 30
-47.164664
 70
   192
  0
VERTEX
  8
raddishLeaf_2
 10
27.549757
 20
118.461795
 30
-26.034621
 70
   192
  0
VERTEX
  8
raddishLeaf_2
 10
20.097577
 20
110.983329
 30
-15.664123
 70
   192
  0
VERTEX
  8
raddishLeaf_2
 10
34.944939
 20
122.449363
 30
-19.493611
 70
   192
  0
VERTEX
  8
raddishLeaf_2
 10
47.989782
 20
132.100481
 30
-20.785095
 70
   192
  0
VERTEX
  8
raddishLeaf_2
 10
56.515051
 20
137.388221
 30
-16.630944
 70
   192
  0
VERTEX
  8
raddishLeaf_2
 10
60.116200
 20
136.831503
 30
-1.197951
 70
   192
  0
VERTEX
  8
raddishLeaf_2
 10
48.521661
 20
125.981257
 30
11.088029
 70
   192
  0
VERTEX
  8
raddishLeaf_2
 10
32.598877
 20
114.194018
 30
12.698267
 70
   192
  0
VERTEX
  8
raddishLeaf_2
 10
9.629238
 20
97.246704
 30
14.743997
 70
   192
  0
VERTEX
  8
raddishLeaf_2
 10
-3.974816
 20
93.225327
 30
-13.534589
 70
   192
  0
VERTEX
  8
raddishLeaf_2
 10
4.180237
 20
105.057261
 30
-42.766484
 70
   192
  0
VERTEX
  8
raddishLeaf_2
 10
14.833684
 20
115.521789
 30
-56.481581
 70
   192
  0
VERTEX
  8
raddishLeaf_2
 10
25.269247
 20
122.907759
 30
-55.874048
 70
   192
  0
VERTEX
  8
raddishLeaf_2
 10
31.776447
 20
125.813956
 30
-47.164664
 70
   192
  0
VERTEX
  8
raddishLeaf_2
 10
27.549757
 20
118.461795
 30
-26.034621
 70
   192
  0
VERTEX
  8
raddishLeaf_2
 10
20.097577
 20
110.983329
 30
-15.664123
 70
   192
  0
VERTEX
  8
raddishLeaf_2
 10
34.944939
 20
122.449363
 30
-19.493611
 70
   192
  0
VERTEX
  8
raddishLeaf_2
 10
47.989782
 20
132.100481
 30
-20.785095
 70
   192
  0
VERTEX
  8
raddishLeaf_2
 10
56.515051
 20
137.388221
 30
-16.630944
 70
   192
  0
VERTEX
  8
raddishLeaf_2
 10
60.116200
 20
136.831503
 30
-1.197951
 70
   192
  0
VERTEX
  8
raddishLeaf_2
 10
48.521661
 20
125.981257
 30
11.088029
 70
   192
  0
VERTEX
  8
raddishLeaf_2
 10
32.598877
 20
114.194018
 30
12.698267
 70
   192
  0
VERTEX
  8
raddishLeaf_2
 10
9.629238
 20
97.246704
 30
14.743997
 70
   192
  0
VERTEX
  8
raddishLeaf_2
 10
8.559743
 20
65.676431
 30
-17.920434
 70
   192
  0
VERTEX
  8
raddishLeaf_2
 10
17.602277
 20
78.795986
 30
-50.333515
 70
   192
  0
VERTEX
  8
raddishLeaf_2
 10
30.255126
 20
91.224460
 30
-66.622614
 70
   192
  0
VERTEX
  8
raddishLeaf_2
 10
44.600455
 20
101.377641
 30
-65.787464
 70
   192
  0
VERTEX
  8
raddishLeaf_2
 10
53.834703
 20
105.501772
 30
-53.428136
 70
   192
  0
VERTEX
  8
raddishLeaf_2
 10
48.856314
 20
96.842059
 30
-28.540202
 70
   192
  0
VERTEX
  8
raddishLeaf_2
 10
44.842555
 20
93.403633
 30
-25.844343
 70
   192
  0
VERTEX
  8
raddishLeaf_2
 10
51.542754
 20
98.966069
 30
-29.475147
 70
   192
  0
VERTEX
  8
raddishLeaf_2
 10
65.937734
 20
109.616074
 30
-30.900300
 70
   192
  0
VERTEX
  8
raddishLeaf_2
 10
77.447772
 20
116.755097
 30
-25.291745
 70
   192
  0
VERTEX
  8
raddishLeaf_2
 10
82.327762
 20
116.000677
 30
-4.378182
 70
   192
  0
VERTEX
  8
raddishLeaf_2
 10
67.674446
 20
102.288007
 30
11.148985
 70
   192
  0
VERTEX
  8
raddishLeaf_2
 10
50.275386
 20
89.407918
 30
12.908516
 70
   192
  0
VERTEX
  8
raddishLeaf_2
 10
24.495270
 20
70.386995
 30
15.204554
 70
   192
  0
VERTEX
  8
raddishLeaf_2
 10
16.194600
 20
65.198442
 30
-19.251960
 70
   192
  0
VERTEX
  8
raddishLeaf_2
 10
24.349654
 20
77.030376
 30
-48.483855
 70
   192
  0
VERTEX
  8
raddishLeaf_2
 10
35.003101
 20
87.494904
 30
-62.198952
 70
   192
  0
VERTEX
  8
raddishLeaf_2
 10
45.438664
 20
94.880874
 30
-61.591419
 70
   192
  0
VERTEX
  8
raddishLeaf_2
 10
51.945864
 20
97.787071
 30
-52.882035
 70
   192
  0
VERTEX
  8
raddishLeaf_2
 10
47.719174
 20
90.434910
 30
-31.751992
 70
   192
  0
VERTEX
  8
raddishLeaf_2
 10
40.266994
 20
82.956444
 30
-21.381494
 70
   192
  0
VERTEX
  8
raddishLeaf_2
 10
55.114356
 20
94.422478
 30
-25.210982
 70
   192
  0
VERTEX
  8
raddishLeaf_2
 10
68.159198
 20
104.073596
 30
-26.502466
 70
   192
  0
VERTEX
  8
raddishLeaf_2
 10
76.684468
 20
109.361336
 30
-22.348315
 70
   192
  0
VERTEX
  8
raddishLeaf_2
 10
80.285616
 20
108.804618
 30
-6.915322
 70
   192
  0
VERTEX
  8
raddishLeaf_2
 10
68.691077
 20
97.954372
 30
5.370657
 70
   192
  0
VERTEX
  8
raddishLeaf_2
 10
52.768294
 20
86.167133
 30
6.980896
 70
   192
  0
VERTEX
  8
raddishLeaf_2
 10
29.798655
 20
69.219819
 30
9.026626
 70
   192
  0
VERTEX
  8
raddishLeaf_2
 10
16.194600
 20
65.198442
 30
-19.251960
 70
   192
  0
VERTEX
  8
raddishLeaf_2
 10
24.349654
 20
77.030376
 30
-48.483855
 70
   192
  0
VERTEX
  8
raddishLeaf_2
 10
35.003101
 20
87.494904
 30
-62.198952
 70
   192
  0
VERTEX
  8
raddishLeaf_2
 10
45.438664
 20
94.880874
 30
-61.591419
 70
   192
  0
VERTEX
  8
raddishLeaf_2
 10
51.945864
 20
97.787071
 30
-52.882035
 70
   192
  0
VERTEX
  8
raddishLeaf_2
 10
47.719174
 20
90.434910
 30
-31.751992
 70
   192
  0
VERTEX
  8
raddishLeaf_2
 10
40.266994
 20
82.956444
 30
-21.381494
 70
   192
  0
VERTEX
  8
raddishLeaf_2
 10
55.114356
 20
94.422478
 30
-25.210982
 70
   192
  0
VERTEX
  8
raddishLeaf_2
 10
68.159198
 20
104.073596
 30
-26.502466
 70
   192
  0
VERTEX
  8
raddishLeaf_2
 10
76.684468
 20
109.361336
 30
-22.348315
 70
   192
  0
VERTEX
  8
raddishLeaf_2
 10
80.285616
 20
108.804618
 30
-6.915322
 70
   192
  0
VERTEX
  8
raddishLeaf_2
 10
68.691077
 20
97.954372
 30
5.370657
 70
   192
  0
VERTEX
  8
raddishLeaf_2
 10
52.768294
 20
86.167133
 30
6.980896
 70
   192
  0
VERTEX
  8
raddishLeaf_2
 10
29.798655
 20
69.219819
 30
9.026626
 70
   192
  0
VERTEX
  8
raddishLeaf_2
 10
-92.367029
 20
-13.008827
 30
92.282209
 70
   192
  0
VERTEX
  8
raddishLeaf_2
 10
-92.367029
 20
-13.008827
 30
92.282209
 70
   192
  0
VERTEX
  8
raddishLeaf_2
 10
-92.367029
 20
-13.008827
 30
92.282209
 70
   192
  0
VERTEX
  8
raddishLeaf_2
 10
-92.367029
 20
-13.008827
 30
92.282209
 70
   192
  0
VERTEX
  8
raddishLeaf_2
 10
-92.367029
 20
-13.008827
 30
92.282209
 70
   192
  0
VERTEX
  8
raddishLeaf_2
 10
-92.367029
 20
-13.008827
 30
92.282209
 70
   192
  0
VERTEX
  8
raddishLeaf_2
 10
-92.367029
 20
-13.008827
 30
92.282209
 70
   192
  0
VERTEX
  8
raddishLeaf_2
 10
-92.367029
 20
-13.008827
 30
92.282209
 70
   192
  0
VERTEX
  8
raddishLeaf_2
 10
-92.367029
 20
-13.008827
 30
92.282209
 70
   192
  0
VERTEX
  8
raddishLeaf_2
 10
-92.367029
 20
-13.008827
 30
92.282209
 70
   192
  0
VERTEX
  8
raddishLeaf_2
 10
-92.367029
 20
-13.008827
 30
92.282209
 70
   192
  0
VERTEX
  8
raddishLeaf_2
 10
-92.367029
 20
-13.008827
 30
92.282209
 70
   192
  0
VERTEX
  8
raddishLeaf_2
 10
-92.367029
 20
-13.008827
 30
92.282209
 70
   192
  0
VERTEX
  8
raddishLeaf_2
 10
-92.367029
 20
-13.008827
 30
92.282209
 70
   192
  0
VERTEX
  8
raddishLeaf_2
 10
0.0
 20
0.0
 30
0.0
 70
   128
 71
   1
 72
   15
 73
   16
  0
VERTEX
  8
raddishLeaf_2
 10
0.0
 20
0.0
 30
0.0
 70
   128
 71
   2
 72
   16
 73
   17
  0
VERTEX
  8
raddishLeaf_2
 10
0.0
 20
0.0
 30
0.0
 70
   128
 71
   3
 72
   17
 73
   18
  0
VERTEX
  8
raddishLeaf_2
 10
0.0
 20
0.0
 30
0.0
 70
   128
 71
   4
 72
   18
 73
   19
  0
VERTEX
  8
raddishLeaf_2
 10
0.0
 20
0.0
 30
0.0
 70
   128
 71
   5
 72
   19
 73
   20
  0
VERTEX
  8
raddishLeaf_2
 10
0.0
 20
0.0
 30
0.0
 70
   128
 71
   6
 72
   20
 73
   21
  0
VERTEX
  8
raddishLeaf_2
 10
0.0
 20
0.0
 30
0.0
 70
   128
 71
   7
 72
   21
 73
   22
  0
VERTEX
  8
raddishLeaf_2
 10
0.0
 20
0.0
 30
0.0
 70
   128
 71
   8
 72
   22
 73
   23
  0
VERTEX
  8
raddishLeaf_2
 10
0.0
 20
0.0
 30
0.0
 70
   128
 71
   9
 72
   23
 73
   24
  0
VERTEX
  8
raddishLeaf_2
 10
0.0
 20
0.0
 30
0.0
 70
   128
 71
   10
 72
   24
 73
   25
  0
VERTEX
  8
raddishLeaf_2
 10
0.0
 20
0.0
 30
0.0
 70
   128
 71
   11
 72
   25
 73
   26
  0
VERTEX
  8
raddishLeaf_2
 10
0.0
 20
0.0
 30
0.0
 70
   128
 71
   12
 72
   26
 73
   27
  0
VERTEX
  8
raddishLeaf_2
 10
0.0
 20
0.0
 30
0.0
 70
   128
 71
   13
 72
   27
 73
   28
  0
VERTEX
  8
raddishLeaf_2
 10
0.0
 20
0.0
 30
0.0
 70
   128
 71
   14
 72
   28
 73
   15
  0
VERTEX
  8
raddishLeaf_2
 10
0.0
 20
0.0
 30
0.0
 70
   128
 71
   29
 72
   30
 73
   44
  0
VERTEX
  8
raddishLeaf_2
 10
0.0
 20
0.0
 30
0.0
 70
   128
 71
   30
 72
   31
 73
   45
  0
VERTEX
  8
raddishLeaf_2
 10
0.0
 20
0.0
 30
0.0
 70
   128
 71
   31
 72
   32
 73
   46
  0
VERTEX
  8
raddishLeaf_2
 10
0.0
 20
0.0
 30
0.0
 70
   128
 71
   32
 72
   33
 73
   47
  0
VERTEX
  8
raddishLeaf_2
 10
0.0
 20
0.0
 30
0.0
 70
   128
 71
   33
 72
   34
 73
   48
  0
VERTEX
  8
raddishLeaf_2
 10
0.0
 20
0.0
 30
0.0
 70
   128
 71
   34
 72
   35
 73
   49
  0
VERTEX
  8
raddishLeaf_2
 10
0.0
 20
0.0
 30
0.0
 70
   128
 71
   35
 72
   36
 73
   50
  0
VERTEX
  8
raddishLeaf_2
 10
0.0
 20
0.0
 30
0.0
 70
   128
 71
   36
 72
   37
 73
   51
  0
VERTEX
  8
raddishLeaf_2
 10
0.0
 20
0.0
 30
0.0
 70
   128
 71
   37
 72
   38
 73
   52
  0
VERTEX
  8
raddishLeaf_2
 10
0.0
 20
0.0
 30
0.0
 70
   128
 71
   38
 72
   39
 73
   53
  0
VERTEX
  8
raddishLeaf_2
 10
0.0
 20
0.0
 30
0.0
 70
   128
 71
   39
 72
   40
 73
   54
  0
VERTEX
  8
raddishLeaf_2
 10
0.0
 20
0.0
 30
0.0
 70
   128
 71
   40
 72
   41
 73
   55
  0
VERTEX
  8
raddishLeaf_2
 10
0.0
 20
0.0
 30
0.0
 70
   128
 71
   41
 72
   42
 73
   56
  0
VERTEX
  8
raddishLeaf_2
 10
0.0
 20
0.0
 30
0.0
 70
   128
 71
   42
 72
   29
 73
   43
  0
VERTEX
  8
raddishLeaf_2
 10
0.0
 20
0.0
 30
0.0
 70
   128
 71
   57
 72
   58
 73
   63
  0
VERTEX
  8
raddishLeaf_2
 10
0.0
 20
0.0
 30
0.0
 70
   128
 71
   57
 72
   63
 73
   70
  0
VERTEX
  8
raddishLeaf_2
 10
0.0
 20
0.0
 30
0.0
 70
   128
 71
   58
 72
   59
 73
   61
  0
VERTEX
  8
raddishLeaf_2
 10
0.0
 20
0.0
 30
0.0
 70
   128
 71
   58
 72
   61
 73
   62
  0
VERTEX
  8
raddishLeaf_2
 10
0.0
 20
0.0
 30
0.0
 70
   128
 71
   58
 72
   62
 73
   63
  0
VERTEX
  8
raddishLeaf_2
 10
0.0
 20
0.0
 30
0.0
 70
   128
 71
   59
 72
   60
 73
   61
  0
VERTEX
  8
raddishLeaf_2
 10
0.0
 20
0.0
 30
0.0
 70
   128
 71
   63
 72
   64
 73
   69
  0
VERTEX
  8
raddishLeaf_2
 10
0.0
 20
0.0
 30
0.0
 70
   128
 71
   63
 72
   69
 73
   70
  0
VERTEX
  8
raddishLeaf_2
 10
0.0
 20
0.0
 30
0.0
 70
   128
 71
   64
 72
   65
 73
   68
  0
VERTEX
  8
raddishLeaf_2
 10
0.0
 20
0.0
 30
0.0
 70
   128
 71
   64
 72
   68
 73
   69
  0
VERTEX
  8
raddishLeaf_2
 10
0.0
 20
0.0
 30
0.0
 70
   128
 71
   65
 72
   66
 73
   67
  0
VERTEX
  8
raddishLeaf_2
 10
0.0
 20
0.0
 30
0.0
 70
   128
 71
   65
 72
   67
 73
   68
  0
VERTEX
  8
raddishLeaf_2
 10
0.0
 20
0.0
 30
0.0
 70
   128
 71
   71
 72
   85
 73
   86
  0
VERTEX
  8
raddishLeaf_2
 10
0.0
 20
0.0
 30
0.0
 70
   128
 71
   72
 72
   86
 73
   87
  0
VERTEX
  8
raddishLeaf_2
 10
0.0
 20
0.0
 30
0.0
 70
   128
 71
   73
 72
   87
 73
   88
  0
VERTEX
  8
raddishLeaf_2
 10
0.0
 20
0.0
 30
0.0
 70
   128
 71
   74
 72
   88
 73
   89
  0
VERTEX
  8
raddishLeaf_2
 10
0.0
 20
0.0
 30
0.0
 70
   128
 71
   75
 72
   89
 73
   90
  0
VERTEX
  8
raddishLeaf_2
 10
0.0
 20
0.0
 30
0.0
 70
   128
 71
   76
 72
   90
 73
   91
  0
VERTEX
  8
raddishLeaf_2
 10
0.0
 20
0.0
 30
0.0
 70
   128
 71
   77
 72
   91
 73
   92
  0
VERTEX
  8
raddishLeaf_2
 10
0.0
 20
0.0
 30
0.0
 70
   128
 71
   78
 72
   92
 73
   93
  0
VERTEX
  8
raddishLeaf_2
 10
0.0
 20
0.0
 30
0.0
 70
   128
 71
   79
 72
   93
 73
   94
  0
VERTEX
  8
raddishLeaf_2
 10
0.0
 20
0.0
 30
0.0
 70
   128
 71
   80
 72
   94
 73
   95
  0
VERTEX
  8
raddishLeaf_2
 10
0.0
 20
0.0
 30
0.0
 70
   128
 71
   81
 72
   95
 73
   96
  0
VERTEX
  8
raddishLeaf_2
 10
0.0
 20
0.0
 30
0.0
 70
   128
 71
   82
 72
   96
 73
   97
  0
VERTEX
  8
raddishLeaf_2
 10
0.0
 20
0.0
 30
0.0
 70
   128
 71
   83
 72
   97
 73
   98
  0
VERTEX
  8
raddishLeaf_2
 10
0.0
 20
0.0
 30
0.0
 70
   128
 71
   84
 72
   98
 73
   85
  0
VERTEX
  8
raddishLeaf_2
 10
0.0
 20
0.0
 30
0.0
 70
   128
 71
   112
 72
   111
 73
   105
  0
VERTEX
  8
raddishLeaf_2
 10
0.0
 20
0.0
 30
0.0
 70
   128
 71
   112
 72
   105
 73
   99
  0
VERTEX
  8
raddishLeaf_2
 10
0.0
 20
0.0
 30
0.0
 70
   128
 71
   111
 72
   110
 73
   106
  0
VERTEX
  8
raddishLeaf_2
 10
0.0
 20
0.0
 30
0.0
 70
   128
 71
   111
 72
   106
 73
   105
  0
VERTEX
  8
raddishLeaf_2
 10
0.0
 20
0.0
 30
0.0
 70
   128
 71
   110
 72
   109
 73
   107
  0
VERTEX
  8
raddishLeaf_2
 10
0.0
 20
0.0
 30
0.0
 70
   128
 71
   110
 72
   107
 73
   106
  0
VERTEX
  8
raddishLeaf_2
 10
0.0
 20
0.0
 30
0.0
 70
   128
 71
   109
 72
   108
 73
   107
  0
VERTEX
  8
raddishLeaf_2
 10
0.0
 20
0.0
 30
0.0
 70
   128
 71
   105
 72
   104
 73
   100
  0
VERTEX
  8
raddishLeaf_2
 10
0.0
 20
0.0
 30
0.0
 70
   128
 71
   105
 72
   100
 73
   99
  0
VERTEX
  8
raddishLeaf_2
 10
0.0
 20
0.0
 30
0.0
 70
   128
 71
   104
 72
   103
 73
   100
  0
VERTEX
  8
raddishLeaf_2
 10
0.0
 20
0.0
 30
0.0
 70
   128
 71
   103
 72
   102
 73
   101
  0
VERTEX
  8
raddishLeaf_2
 10
0.0
 20
0.0
 30
0.0
 70
   128
 71
   103
 72
   101
 73
   100
  0
VERTEX
  8
raddishLeaf_2
 10
0.0
 20
0.0
 30
0.0
 70
   128
 71
   1
 72
   16
 73
   2
  0
VERTEX
  8
raddishLeaf_2
 10
0.0
 20
0.0
 30
0.0
 70
   128
 71
   2
 72
   17
 73
   3
  0
VERTEX
  8
raddishLeaf_2
 10
0.0
 20
0.0
 30
0.0
 70
   128
 71
   3
 72
   18
 73
   4
  0
VERTEX
  8
raddishLeaf_2
 10
0.0
 20
0.0
 30
0.0
 70
   128
 71
   4
 72
   19
 73
   5
  0
VERTEX
  8
raddishLeaf_2
 10
0.0
 20
0.0
 30
0.0
 70
   128
 71
   5
 72
   20
 73
   6
  0
VERTEX
  8
raddishLeaf_2
 10
0.0
 20
0.0
 30
0.0
 70
   128
 71
   6
 72
   21
 73
   7
  0
VERTEX
  8
raddishLeaf_2
 10
0.0
 20
0.0
 30
0.0
 70
   128
 71
   7
 72
   22
 73
   8
  0
VERTEX
  8
raddishLeaf_2
 10
0.0
 20
0.0
 30
0.0
 70
   128
 71
   8
 72
   23
 73
   9
  0
VERTEX
  8
raddishLeaf_2
 10
0.0
 20
0.0
 30
0.0
 70
   128
 71
   9
 72
   24
 73
   10
  0
VERTEX
  8
raddishLeaf_2
 10
0.0
 20
0.0
 30
0.0
 70
   128
 71
   10
 72
   25
 73
   11
  0
VERTEX
  8
raddishLeaf_2
 10
0.0
 20
0.0
 30
0.0
 70
   128
 71
   11
 72
   26
 73
   12
  0
VERTEX
  8
raddishLeaf_2
 10
0.0
 20
0.0
 30
0.0
 70
   128
 71
   12
 72
   27
 73
   13
  0
VERTEX
  8
raddishLeaf_2
 10
0.0
 20
0.0
 30
0.0
 70
   128
 71
   13
 72
   28
 73
   14
  0
VERTEX
  8
raddishLeaf_2
 10
0.0
 20
0.0
 30
0.0
 70
   128
 71
   14
 72
   15
 73
   1
  0
VERTEX
  8
raddishLeaf_2
 10
0.0
 20
0.0
 30
0.0
 70
   128
 71
   29
 72
   44
 73
   43
  0
VERTEX
  8
raddishLeaf_2
 10
0.0
 20
0.0
 30
0.0
 70
   128
 71
   30
 72
   45
 73
   44
  0
VERTEX
  8
raddishLeaf_2
 10
0.0
 20
0.0
 30
0.0
 70
   128
 71
   31
 72
   46
 73
   45
  0
VERTEX
  8
raddishLeaf_2
 10
0.0
 20
0.0
 30
0.0
 70
   128
 71
   32
 72
   47
 73
   46
  0
VERTEX
  8
raddishLeaf_2
 10
0.0
 20
0.0
 30
0.0
 70
   128
 71
   33
 72
   48
 73
   47
  0
VERTEX
  8
raddishLeaf_2
 10
0.0
 20
0.0
 30
0.0
 70
   128
 71
   34
 72
   49
 73
   48
  0
VERTEX
  8
raddishLeaf_2
 10
0.0
 20
0.0
 30
0.0
 70
   128
 71
   35
 72
   50
 73
   49
  0
VERTEX
  8
raddishLeaf_2
 10
0.0
 20
0.0
 30
0.0
 70
   128
 71
   36
 72
   51
 73
   50
  0
VERTEX
  8
raddishLeaf_2
 10
0.0
 20
0.0
 30
0.0
 70
   128
 71
   37
 72
   52
 73
   51
  0
VERTEX
  8
raddishLeaf_2
 10
0.0
 20
0.0
 30
0.0
 70
   128
 71
   38
 72
   53
 73
   52
  0
VERTEX
  8
raddishLeaf_2
 10
0.0
 20
0.0
 30
0.0
 70
   128
 71
   39
 72
   54
 73
   53
  0
VERTEX
  8
raddishLeaf_2
 10
0.0
 20
0.0
 30
0.0
 70
   128
 71
   40
 72
   55
 73
   54
  0
VERTEX
  8
raddishLeaf_2
 10
0.0
 20
0.0
 30
0.0
 70
   128
 71
   41
 72
   56
 73
   55
  0
VERTEX
  8
raddishLeaf_2
 10
0.0
 20
0.0
 30
0.0
 70
   128
 71
   42
 72
   43
 73
   56
  0
VERTEX
  8
raddishLeaf_2
 10
0.0
 20
0.0
 30
0.0
 70
   128
 71
   71
 72
   86
 73
   72
  0
VERTEX
  8
raddishLeaf_2
 10
0.0
 20
0.0
 30
0.0
 70
   128
 71
   72
 72
   87
 73
   73
  0
VERTEX
  8
raddishLeaf_2
 10
0.0
 20
0.0
 30
0.0
 70
   128
 71
   73
 72
   88
 73
   74
  0
VERTEX
  8
raddishLeaf_2
 10
0.0
 20
0.0
 30
0.0
 70
   128
 71
   74
 72
   89
 73
   75
  0
VERTEX
  8
raddishLeaf_2
 10
0.0
 20
0.0
 30
0.0
 70
   128
 71
   75
 72
   90
 73
   76
  0
VERTEX
  8
raddishLeaf_2
 10
0.0
 20
0.0
 30
0.0
 70
   128
 71
   76
 72
   91
 73
   77
  0
VERTEX
  8
raddishLeaf_2
 10
0.0
 20
0.0
 30
0.0
 70
   128
 71
   77
 72
   92
 73
   78
  0
VERTEX
  8
raddishLeaf_2
 10
0.0
 20
0.0
 30
0.0
 70
   128
 71
   78
 72
   93
 73
   79
  0
VERTEX
  8
raddishLeaf_2
 10
0.0
 20
0.0
 30
0.0
 70
   128
 71
   79
 72
   94
 73
   80
  0
VERTEX
  8
raddishLeaf_2
 10
0.0
 20
0.0
 30
0.0
 70
   128
 71
   80
 72
   95
 73
   81
  0
VERTEX
  8
raddishLeaf_2
 10
0.0
 20
0.0
 30
0.0
 70
   128
 71
   81
 72
   96
 73
   82
  0
VERTEX
  8
raddishLeaf_2
 10
0.0
 20
0.0
 30
0.0
 70
   128
 71
   82
 72
   97
 73
   83
  0
VERTEX
  8
raddishLeaf_2
 10
0.0
 20
0.0
 30
0.0
 70
   128
 71
   83
 72
   98
 73
   84
  0
VERTEX
  8
raddishLeaf_2
 10
0.0
 20
0.0
 30
0.0
 70
   128
 71
   84
 72
   85
 73
   71
  0
SEQEND
  0
POLYLINE
  8
raddish
 66
   1
 10
0.0
 20
0.0
 30
0.0
 70
   64
 71
   67
 72
   118
  0
VERTEX
  8
raddish
 10
-37.276787
 20
-0.000000
 30
33.186884
 70
   192
  0
VERTEX
  8
raddish
 10
-18.252099
 20
97.451585
 30
-16.017925
 70
   192
  0
VERTEX
  8
raddish
 10
-36.372564
 20
90.438422
 30
-26.380909
 70
   192
  0
VERTEX
  8
raddish
 10
-49.433117
 20
74.624747
 30
-26.674498
 70
   192
  0
VERTEX
  8
raddish
 10
-56.301709
 20
48.885085
 30
-15.208418
 70
   192
  0
VERTEX
  8
raddish
 10
-53.808964
 20
19.702834
 30
6.323861
 70
   192
  0
VERTEX
  8
raddish
 10
-43.515709
 20
3.709653
 30
25.534250
 70
   192
  0
VERTEX
  8
raddish
 10
-36.801065
 20
1.064693
 30
32.871643
 70
   192
  0
VERTEX
  8
raddish
 10
-37.276787
 20
-0.000000
 30
33.186884
 70
   192
  0
VERTEX
  8
raddish
 10
-24.439150
 20
105.191790
 30
0.787102
 70
   192
  0
VERTEX
  8
raddish
 10
-46.341471
 20
102.909853
 30
0.696248
 70
   192
  0
VERTEX
  8
raddish
 10
-60.914767
 20
88.988669
 30
4.511512
 70
   192
  0
VERTEX
  8
raddish
 10
-66.614421
 20
61.786628
 30
12.802570
 70
   192
  0
VERTEX
  8
raddish
 10
-60.202298
 20
27.701105
 30
23.689185
 70
   192
  0
VERTEX
  8
raddish
 10
-45.508337
 20
6.202496
 30
30.946549
 70
   192
  0
VERTEX
  8
raddish
 10
-32.946172
 20
-1.557152
 30
23.696387
 70
   192
  0
VERTEX
  8
raddish
 10
-37.276787
 20
-0.000000
 30
33.186884
 70
   192
  0
VERTEX
  8
raddish
 10
-19.551368
 20
108.512814
 30
19.379564
 70
   192
  0
VERTEX
  8
raddish
 10
-38.466016
 20
108.260865
 30
30.653419
 70
   192
  0
VERTEX
  8
raddish
 10
-51.844242
 20
95.151677
 30
39.014566
 70
   192
  0
VERTEX
  8
raddish
 10
-58.467359
 20
67.322185
 30
43.792896
 70
   192
  0
VERTEX
  8
raddish
 10
-55.151552
 20
31.132856
 30
42.901541
 70
   192
  0
VERTEX
  8
raddish
 10
-43.934157
 20
7.272080
 30
36.934517
 70
   192
  0
VERTEX
  8
raddish
 10
-3.353459
 20
88.248696
 30
-24.616566
 70
   192
  0
VERTEX
  8
raddish
 10
-37.276787
 20
-0.000000
 30
33.186884
 70
   192
  0
VERTEX
  8
raddish
 10
-5.455721
 20
106.146141
 30
32.657774
 70
   192
  0
VERTEX
  8
raddish
 10
-15.754354
 20
104.447554
 30
52.047981
 70
   192
  0
VERTEX
  8
raddish
 10
-25.686175
 20
90.759711
 30
63.655669
 70
   192
  0
VERTEX
  8
raddish
 10
-34.972424
 20
63.377361
 30
65.925308
 70
   192
  0
VERTEX
  8
raddish
 10
-40.585940
 20
28.687275
 30
56.622461
 70
   192
  0
VERTEX
  8
raddish
 10
-39.394452
 20
6.509859
 30
41.210955
 70
   192
  0
VERTEX
  8
raddish
 10
-12.367078
 20
75.610234
 30
-40.235501
 70
   192
  0
VERTEX
  8
raddish
 10
11.469224
 20
44.277083
 30
-37.264381
 70
   192
  0
VERTEX
  8
raddish
 10
12.463734
 20
98.995758
 30
35.549906
 70
   192
  0
VERTEX
  8
raddish
 10
13.118430
 20
92.926475
 30
56.707939
 70
   192
  0
VERTEX
  8
raddish
 10
7.567942
 20
77.490353
 30
69.022757
 70
   192
  0
VERTEX
  8
raddish
 10
-5.103882
 20
51.458946
 30
70.745977
 70
   192
  0
VERTEX
  8
raddish
 10
-22.069031
 20
21.298491
 30
59.611020
 70
   192
  0
VERTEX
  8
raddish
 10
-33.623235
 20
4.206976
 30
42.142407
 70
   192
  0
VERTEX
  8
raddish
 10
-21.784893
 20
57.546441
 30
-42.631469
 70
   192
  0
VERTEX
  8
raddish
 10
-1.599786
 20
21.627092
 30
-24.720153
 70
   192
  0
VERTEX
  8
raddish
 10
27.362374
 20
89.792869
 30
26.951265
 70
   192
  0
VERTEX
  8
raddish
 10
37.123916
 20
78.098288
 30
42.853347
 70
   192
  0
VERTEX
  8
raddish
 10
35.216166
 20
60.412047
 30
53.065786
 70
   192
  0
VERTEX
  8
raddish
 10
19.729499
 20
36.119368
 30
56.413572
 70
   192
  0
VERTEX
  8
raddish
 10
-6.673654
 20
11.788767
 30
50.725690
 70
   192
  0
VERTEX
  8
raddish
 10
-28.824915
 20
1.243054
 30
39.373092
 70
   192
  0
VERTEX
  8
raddish
 10
-31.468328
 20
33.545507
 30
-29.540823
 70
   192
  0
VERTEX
  8
raddish
 10
-19.896677
 20
2.804326
 30
0.427090
 70
   192
  0
VERTEX
  8
raddish
 10
33.549425
 20
82.052665
 30
10.146238
 70
   192
  0
VERTEX
  8
raddish
 10
47.092823
 20
65.626857
 30
15.776189
 70
   192
  0
VERTEX
  8
raddish
 10
46.697815
 20
46.048125
 30
21.879775
 70
   192
  0
VERTEX
  8
raddish
 10
30.042211
 20
23.217825
 30
28.402584
 70
   192
  0
VERTEX
  8
raddish
 10
-0.280320
 20
3.790496
 30
33.360366
 70
   192
  0
VERTEX
  8
raddish
 10
-26.832287
 20
-1.249790
 30
33.960792
 70
   192
  0
VERTEX
  8
raddish
 10
-38.413587
 20
10.193110
 30
-2.561469
 70
   192
  0
VERTEX
  8
raddish
 10
6.714013
 20
96.174675
 30
4.104327
 70
   192
  0
VERTEX
  8
raddish
 10
28.661643
 20
78.731640
 30
-8.446224
 70
   192
  0
VERTEX
  8
raddish
 10
39.217368
 20
60.275844
 30
-14.180981
 70
   192
  0
VERTEX
  8
raddish
 10
37.627291
 20
39.885117
 30
-12.623278
 70
   192
  0
VERTEX
  8
raddish
 10
21.895149
 20
17.682268
 30
-2.587741
 70
   192
  0
VERTEX
  8
raddish
 10
-5.331065
 20
0.358745
 30
14.148010
 70
   192
  0
VERTEX
  8
raddish
 10
-28.406467
 20
-2.319373
 30
27.972824
 70
   192
  0
VERTEX
  8
raddish
 10
-38.717389
 20
0.745731
 30
22.764934
 70
   192
  0
VERTEX
  8
raddish
 10
6.247333
 20
96.253031
 30
3.664711
 70
   192
  0
VERTEX
  8
raddish
 10
14.565996
 20
81.098314
 30
-21.724434
 70
   192
  0
VERTEX
  8
raddish
 10
16.505707
 20
64.089155
 30
-35.575543
 70
   192
  0
VERTEX
  8
raddish
 10
0.0
 20
0.0
 30
0.0
 70
   128
 71
   2
 72
   10
 73
   18
  0
VERTEX
  8
raddish
 10
0.0
 20
0.0
 30
0.0
 70
   128
 71
   2
 72
   3
 73
   11
  0
VERTEX
  8
raddish
 10
0.0
 20
0.0
 30
0.0
 70
   128
 71
   3
 72
   4
 73
   12
  0
VERTEX
  8
raddish
 10
0.0
 20
0.0
 30
0.0
 70
   128
 71
   5
 72
   4
 73
   40
  0
VERTEX
  8
raddish
 10
0.0
 20
0.0
 30
0.0
 70
   128
 71
   5
 72
   6
 73
   14
  0
VERTEX
  8
raddish
 10
0.0
 20
0.0
 30
0.0
 70
   128
 71
   6
 72
   7
 73
   15
  0
VERTEX
  8
raddish
 10
0.0
 20
0.0
 30
0.0
 70
   128
 71
   7
 72
   64
 73
   8
  0
VERTEX
  8
raddish
 10
0.0
 20
0.0
 30
0.0
 70
   128
 71
   2
 72
   18
 73
   42
  0
VERTEX
  8
raddish
 10
0.0
 20
0.0
 30
0.0
 70
   128
 71
   10
 72
   11
 73
   19
  0
VERTEX
  8
raddish
 10
0.0
 20
0.0
 30
0.0
 70
   128
 71
   11
 72
   12
 73
   20
  0
VERTEX
  8
raddish
 10
0.0
 20
0.0
 30
0.0
 70
   128
 71
   12
 72
   13
 73
   21
  0
VERTEX
  8
raddish
 10
0.0
 20
0.0
 30
0.0
 70
   128
 71
   2
 72
   66
 73
   24
  0
VERTEX
  8
raddish
 10
0.0
 20
0.0
 30
0.0
 70
   128
 71
   14
 72
   15
 73
   23
  0
VERTEX
  8
raddish
 10
0.0
 20
0.0
 30
0.0
 70
   128
 71
   12
 72
   4
 73
   5
  0
VERTEX
  8
raddish
 10
0.0
 20
0.0
 30
0.0
 70
   128
 71
   42
 72
   18
 73
   26
  0
VERTEX
  8
raddish
 10
0.0
 20
0.0
 30
0.0
 70
   128
 71
   18
 72
   19
 73
   27
  0
VERTEX
  8
raddish
 10
0.0
 20
0.0
 30
0.0
 70
   128
 71
   19
 72
   20
 73
   28
  0
VERTEX
  8
raddish
 10
0.0
 20
0.0
 30
0.0
 70
   128
 71
   20
 72
   21
 73
   29
  0
VERTEX
  8
raddish
 10
0.0
 20
0.0
 30
0.0
 70
   128
 71
   21
 72
   22
 73
   30
  0
VERTEX
  8
raddish
 10
0.0
 20
0.0
 30
0.0
 70
   128
 71
   22
 72
   23
 73
   31
  0
VERTEX
  8
raddish
 10
0.0
 20
0.0
 30
0.0
 70
   128
 71
   7
 72
   8
 73
   15
  0
VERTEX
  8
raddish
 10
0.0
 20
0.0
 30
0.0
 70
   128
 71
   42
 72
   50
 73
   58
  0
VERTEX
  8
raddish
 10
0.0
 20
0.0
 30
0.0
 70
   128
 71
   26
 72
   27
 73
   35
  0
VERTEX
  8
raddish
 10
0.0
 20
0.0
 30
0.0
 70
   128
 71
   27
 72
   28
 73
   36
  0
VERTEX
  8
raddish
 10
0.0
 20
0.0
 30
0.0
 70
   128
 71
   28
 72
   29
 73
   37
  0
VERTEX
  8
raddish
 10
0.0
 20
0.0
 30
0.0
 70
   128
 71
   29
 72
   30
 73
   38
  0
VERTEX
  8
raddish
 10
0.0
 20
0.0
 30
0.0
 70
   128
 71
   30
 72
   31
 73
   39
  0
VERTEX
  8
raddish
 10
0.0
 20
0.0
 30
0.0
 70
   128
 71
   64
 72
   16
 73
   8
  0
VERTEX
  8
raddish
 10
0.0
 20
0.0
 30
0.0
 70
   128
 71
   14
 72
   22
 73
   21
  0
VERTEX
  8
raddish
 10
0.0
 20
0.0
 30
0.0
 70
   128
 71
   34
 72
   35
 73
   43
  0
VERTEX
  8
raddish
 10
0.0
 20
0.0
 30
0.0
 70
   128
 71
   35
 72
   36
 73
   44
  0
VERTEX
  8
raddish
 10
0.0
 20
0.0
 30
0.0
 70
   128
 71
   36
 72
   37
 73
   45
  0
VERTEX
  8
raddish
 10
0.0
 20
0.0
 30
0.0
 70
   128
 71
   37
 72
   38
 73
   46
  0
VERTEX
  8
raddish
 10
0.0
 20
0.0
 30
0.0
 70
   128
 71
   38
 72
   39
 73
   47
  0
VERTEX
  8
raddish
 10
0.0
 20
0.0
 30
0.0
 70
   128
 71
   16
 72
   63
 73
   8
  0
VERTEX
  8
raddish
 10
0.0
 20
0.0
 30
0.0
 70
   128
 71
   32
 72
   40
 73
   4
  0
VERTEX
  8
raddish
 10
0.0
 20
0.0
 30
0.0
 70
   128
 71
   42
 72
   43
 73
   51
  0
VERTEX
  8
raddish
 10
0.0
 20
0.0
 30
0.0
 70
   128
 71
   43
 72
   44
 73
   52
  0
VERTEX
  8
raddish
 10
0.0
 20
0.0
 30
0.0
 70
   128
 71
   44
 72
   45
 73
   53
  0
VERTEX
  8
raddish
 10
0.0
 20
0.0
 30
0.0
 70
   128
 71
   45
 72
   46
 73
   54
  0
VERTEX
  8
raddish
 10
0.0
 20
0.0
 30
0.0
 70
   128
 71
   46
 72
   47
 73
   55
  0
VERTEX
  8
raddish
 10
0.0
 20
0.0
 30
0.0
 70
   128
 71
   8
 72
   63
 73
   55
  0
VERTEX
  8
raddish
 10
0.0
 20
0.0
 30
0.0
 70
   128
 71
   8
 72
   55
 73
   47
  0
VERTEX
  8
raddish
 10
0.0
 20
0.0
 30
0.0
 70
   128
 71
   50
 72
   51
 73
   59
  0
VERTEX
  8
raddish
 10
0.0
 20
0.0
 30
0.0
 70
   128
 71
   51
 72
   52
 73
   60
  0
VERTEX
  8
raddish
 10
0.0
 20
0.0
 30
0.0
 70
   128
 71
   52
 72
   53
 73
   61
  0
VERTEX
  8
raddish
 10
0.0
 20
0.0
 30
0.0
 70
   128
 71
   53
 72
   54
 73
   62
  0
VERTEX
  8
raddish
 10
0.0
 20
0.0
 30
0.0
 70
   128
 71
   54
 72
   55
 73
   63
  0
VERTEX
  8
raddish
 10
0.0
 20
0.0
 30
0.0
 70
   128
 71
   47
 72
   39
 73
   8
  0
VERTEX
  8
raddish
 10
0.0
 20
0.0
 30
0.0
 70
   128
 71
   48
 72
   56
 73
   6
  0
VERTEX
  8
raddish
 10
0.0
 20
0.0
 30
0.0
 70
   128
 71
   58
 72
   59
 73
   67
  0
VERTEX
  8
raddish
 10
0.0
 20
0.0
 30
0.0
 70
   128
 71
   59
 72
   60
 73
   33
  0
VERTEX
  8
raddish
 10
0.0
 20
0.0
 30
0.0
 70
   128
 71
   60
 72
   61
 73
   41
  0
VERTEX
  8
raddish
 10
0.0
 20
0.0
 30
0.0
 70
   128
 71
   61
 72
   62
 73
   49
  0
VERTEX
  8
raddish
 10
0.0
 20
0.0
 30
0.0
 70
   128
 71
   62
 72
   63
 73
   16
  0
VERTEX
  8
raddish
 10
0.0
 20
0.0
 30
0.0
 70
   128
 71
   39
 72
   31
 73
   8
  0
VERTEX
  8
raddish
 10
0.0
 20
0.0
 30
0.0
 70
   128
 71
   56
 72
   64
 73
   7
  0
VERTEX
  8
raddish
 10
0.0
 20
0.0
 30
0.0
 70
   128
 71
   66
 72
   67
 73
   32
  0
VERTEX
  8
raddish
 10
0.0
 20
0.0
 30
0.0
 70
   128
 71
   67
 72
   33
 73
   40
  0
VERTEX
  8
raddish
 10
0.0
 20
0.0
 30
0.0
 70
   128
 71
   33
 72
   41
 73
   48
  0
VERTEX
  8
raddish
 10
0.0
 20
0.0
 30
0.0
 70
   128
 71
   41
 72
   49
 73
   56
  0
VERTEX
  8
raddish
 10
0.0
 20
0.0
 30
0.0
 70
   128
 71
   49
 72
   16
 73
   64
  0
VERTEX
  8
raddish
 10
0.0
 20
0.0
 30
0.0
 70
   128
 71
   31
 72
   23
 73
   8
  0
VERTEX
  8
raddish
 10
0.0
 20
0.0
 30
0.0
 70
   128
 71
   23
 72
   15
 73
   8
  0
VERTEX
  8
raddish
 10
0.0
 20
0.0
 30
0.0
 70
   128
 71
   24
 72
   32
 73
   3
  0
VERTEX
  8
raddish
 10
0.0
 20
0.0
 30
0.0
 70
   128
 71
   2
 72
   11
 73
   10
  0
VERTEX
  8
raddish
 10
0.0
 20
0.0
 30
0.0
 70
   128
 71
   3
 72
   12
 73
   11
  0
VERTEX
  8
raddish
 10
0.0
 20
0.0
 30
0.0
 70
   128
 71
   5
 72
   40
 73
   48
  0
VERTEX
  8
raddish
 10
0.0
 20
0.0
 30
0.0
 70
   128
 71
   5
 72
   14
 73
   13
  0
VERTEX
  8
raddish
 10
0.0
 20
0.0
 30
0.0
 70
   128
 71
   6
 72
   15
 73
   14
  0
VERTEX
  8
raddish
 10
0.0
 20
0.0
 30
0.0
 70
   128
 71
   2
 72
   42
 73
   66
  0
VERTEX
  8
raddish
 10
0.0
 20
0.0
 30
0.0
 70
   128
 71
   10
 72
   19
 73
   18
  0
VERTEX
  8
raddish
 10
0.0
 20
0.0
 30
0.0
 70
   128
 71
   11
 72
   20
 73
   19
  0
VERTEX
  8
raddish
 10
0.0
 20
0.0
 30
0.0
 70
   128
 71
   12
 72
   21
 73
   20
  0
VERTEX
  8
raddish
 10
0.0
 20
0.0
 30
0.0
 70
   128
 71
   14
 72
   23
 73
   22
  0
VERTEX
  8
raddish
 10
0.0
 20
0.0
 30
0.0
 70
   128
 71
   12
 72
   5
 73
   13
  0
VERTEX
  8
raddish
 10
0.0
 20
0.0
 30
0.0
 70
   128
 71
   42
 72
   26
 73
   34
  0
VERTEX
  8
raddish
 10
0.0
 20
0.0
 30
0.0
 70
   128
 71
   18
 72
   27
 73
   26
  0
VERTEX
  8
raddish
 10
0.0
 20
0.0
 30
0.0
 70
   128
 71
   19
 72
   28
 73
   27
  0
VERTEX
  8
raddish
 10
0.0
 20
0.0
 30
0.0
 70
   128
 71
   20
 72
   29
 73
   28
  0
VERTEX
  8
raddish
 10
0.0
 20
0.0
 30
0.0
 70
   128
 71
   21
 72
   30
 73
   29
  0
VERTEX
  8
raddish
 10
0.0
 20
0.0
 30
0.0
 70
   128
 71
   22
 72
   31
 73
   30
  0
VERTEX
  8
raddish
 10
0.0
 20
0.0
 30
0.0
 70
   128
 71
   42
 72
   58
 73
   66
  0
VERTEX
  8
raddish
 10
0.0
 20
0.0
 30
0.0
 70
   128
 71
   26
 72
   35
 73
   34
  0
VERTEX
  8
raddish
 10
0.0
 20
0.0
 30
0.0
 70
   128
 71
   27
 72
   36
 73
   35
  0
VERTEX
  8
raddish
 10
0.0
 20
0.0
 30
0.0
 70
   128
 71
   28
 72
   37
 73
   36
  0
VERTEX
  8
raddish
 10
0.0
 20
0.0
 30
0.0
 70
   128
 71
   29
 72
   38
 73
   37
  0
VERTEX
  8
raddish
 10
0.0
 20
0.0
 30
0.0
 70
   128
 71
   30
 72
   39
 73
   38
  0
VERTEX
  8
raddish
 10
0.0
 20
0.0
 30
0.0
 70
   128
 71
   14
 72
   21
 73
   13
  0
VERTEX
  8
raddish
 10
0.0
 20
0.0
 30
0.0
 70
   128
 71
   34
 72
   43
 73
   42
  0
VERTEX
  8
raddish
 10
0.0
 20
0.0
 30
0.0
 70
   128
 71
   35
 72
   44
 73
   43
  0
VERTEX
  8
raddish
 10
0.0
 20
0.0
 30
0.0
 70
   128
 71
   36
 72
   45
 73
   44
  0
VERTEX
  8
raddish
 10
0.0
 20
0.0
 30
0.0
 70
   128
 71
   37
 72
   46
 73
   45
  0
VERTEX
  8
raddish
 10
0.0
 20
0.0
 30
0.0
 70
   128
 71
   38
 72
   47
 73
   46
  0
VERTEX
  8
raddish
 10
0.0
 20
0.0
 30
0.0
 70
   128
 71
   32
 72
   4
 73
   3
  0
VERTEX
  8
raddish
 10
0.0
 20
0.0
 30
0.0
 70
   128
 71
   42
 72
   51
 73
   50
  0
VERTEX
  8
raddish
 10
0.0
 20
0.0
 30
0.0
 70
   128
 71
   43
 72
   52
 73
   51
  0
VERTEX
  8
raddish
 10
0.0
 20
0.0
 30
0.0
 70
   128
 71
   44
 72
   53
 73
   52
  0
VERTEX
  8
raddish
 10
0.0
 20
0.0
 30
0.0
 70
   128
 71
   45
 72
   54
 73
   53
  0
VERTEX
  8
raddish
 10
0.0
 20
0.0
 30
0.0
 70
   128
 71
   46
 72
   55
 73
   54
  0
VERTEX
  8
raddish
 10
0.0
 20
0.0
 30
0.0
 70
   128
 71
   50
 72
   59
 73
   58
  0
VERTEX
  8
raddish
 10
0.0
 20
0.0
 30
0.0
 70
   128
 71
   51
 72
   60
 73
   59
  0
VERTEX
  8
raddish
 10
0.0
 20
0.0
 30
0.0
 70
   128
 71
   52
 72
   61
 73
   60
  0
VERTEX
  8
raddish
 10
0.0
 20
0.0
 30
0.0
 70
   128
 71
   53
 72
   62
 73
   61
  0
VERTEX
  8
raddish
 10
0.0
 20
0.0
 30
0.0
 70
   128
 71
   54
 72
   63
 73
   62
  0
VERTEX
  8
raddish
 10
0.0
 20
0.0
 30
0.0
 70
   128
 71
   48
 72
   6
 73
   5
  0
VERTEX
  8
raddish
 10
0.0
 20
0.0
 30
0.0
 70
   128
 71
   58
 72
   67
 73
   66
  0
VERTEX
  8
raddish
 10
0.0
 20
0.0
 30
0.0
 70
   128
 71
   59
 72
   33
 73
   67
  0
VERTEX
  8
raddish
 10
0.0
 20
0.0
 30
0.0
 70
   128
 71
   60
 72
   41
 73
   33
  0
VERTEX
  8
raddish
 10
0.0
 20
0.0
 30
0.0
 70
   128
 71
   61
 72
   49
 73
   41
  0
VERTEX
  8
raddish
 10
0.0
 20
0.0
 30
0.0
 70
   128
 71
   62
 72
   16
 73
   49
  0
VERTEX
  8
raddish
 10
0.0
 20
0.0
 30
0.0
 70
   128
 71
   56
 72
   7
 73
   6
  0
VERTEX
  8
raddish
 10
0.0
 20
0.0
 30
0.0
 70
   128
 71
   66
 72
   32
 73
   24
  0
VERTEX
  8
raddish
 10
0.0
 20
0.0
 30
0.0
 70
   128
 71
   67
 72
   40
 73
   32
  0
VERTEX
  8
raddish
 10
0.0
 20
0.0
 30
0.0
 70
   128
 71
   33
 72
   48
 73
   40
  0
VERTEX
  8
raddish
 10
0.0
 20
0.0
 30
0.0
 70
   128
 71
   41
 72
   56
 73
   48
  0
VERTEX
  8
raddish
 10
0.0
 20
0.0
 30
0.0
 70
   128
 71
   49
 72
   64
 73
   56
  0
VERTEX
  8
raddish
 10
0.0
 20
0.0
 30
0.0
 70
   128
 71
   24
 72
   3
 73
   2
  0
SEQEND
  0
ENDSEC
  0
EOF
