999
FBX AutoCAD (*.DXF) exporter
  0
SECTION
  2
HEADER
  9
$ACADVER
  1
AC1008
  9
$UCSORG
 10
0.0
 20
0.0
 30
0.0
  9
$UCSXDIR
 10
1.0
 20
0.0
 30
0.0
  9
$TILEMODE
 70
   1
  9
$UCSYDIR
 10
0.0
 20
1.0
 30
0.0
  0
ENDSEC
  0
SECTION
  2
TABLES
  0
TABLE
  2
LTYPE
 70
   1
  0
LTYPE
  2
CONTINUOUS
 70
   64
  3
Solid line
 72
   65
 73
   0
 40
0.0
  0
ENDTAB
  0
TABLE
  2
LAYER
 70
   1
  0
LAYER
  2
tomato
 70
   0
 62
   250
  6
CONTINUOUS
  0
ENDTAB
  0
ENDSEC
  0
SECTION
  2
BLOCKS
  0
ENDSEC
  0
SECTION
  2
ENTITIES
  0
POLYLINE
  8
tomato
 66
   1
 10
0.0
 20
0.0
 30
0.0
 70
   64
 71
   77
 72
   146
  0
VERTEX
  8
tomato
 10
-1.217762
 20
103.005423
 30
35.442991
 70
   192
  0
VERTEX
  8
tomato
 10
6.284557
 20
107.685621
 30
-31.632286
 70
   192
  0
VERTEX
  8
tomato
 10
16.233606
 20
113.322764
 30
-0.956091
 70
   192
  0
VERTEX
  8
tomato
 10
-31.956681
 20
109.943744
 30
0.329626
 70
   192
  0
VERTEX
  8
tomato
 10
-5.330302
 20
134.830269
 30
-7.000088
 70
   192
  0
VERTEX
  8
tomato
 10
9.376776
 20
113.185724
 30
22.309675
 70
   192
  0
VERTEX
  8
tomato
 10
-19.285645
 20
112.476858
 30
18.756144
 70
   192
  0
VERTEX
  8
tomato
 10
34.441926
 20
104.546050
 30
18.397510
 70
   192
  0
VERTEX
  8
tomato
 10
10.730268
 20
114.747052
 30
-11.451273
 70
   192
  0
VERTEX
  8
tomato
 10
-11.163019
 20
117.480426
 30
-14.295607
 70
   192
  0
VERTEX
  8
tomato
 10
-48.520095
 20
96.923469
 30
-17.738258
 70
   192
  0
VERTEX
  8
tomato
 10
-48.520095
 20
94.969904
 30
18.397510
 70
   192
  0
VERTEX
  8
tomato
 10
-1.217762
 20
104.507850
 30
36.262811
 70
   192
  0
VERTEX
  8
tomato
 10
6.284557
 20
109.188049
 30
-32.452107
 70
   192
  0
VERTEX
  8
tomato
 10
16.729441
 20
115.026941
 30
-0.812460
 70
   192
  0
VERTEX
  8
tomato
 10
-32.545252
 20
111.651180
 30
0.329626
 70
   192
  0
VERTEX
  8
tomato
 10
-1.217762
 20
118.567406
 30
0.329626
 70
   192
  0
VERTEX
  8
tomato
 10
9.666321
 20
114.874028
 30
22.815116
 70
   192
  0
VERTEX
  8
tomato
 10
-19.575190
 20
114.165162
 30
19.261585
 70
   192
  0
VERTEX
  8
tomato
 10
35.209209
 20
106.004771
 30
18.812111
 70
   192
  0
VERTEX
  8
tomato
 10
10.843702
 20
116.438715
 30
-11.965274
 70
   192
  0
VERTEX
  8
tomato
 10
-11.452563
 20
119.168729
 30
-14.801048
 70
   192
  0
VERTEX
  8
tomato
 10
-49.287379
 20
98.382191
 30
-18.152860
 70
   192
  0
VERTEX
  8
tomato
 10
-49.287379
 20
96.428626
 30
18.812111
 70
   192
  0
VERTEX
  8
tomato
 10
4.533788
 20
118.821001
 30
0.356074
 70
   192
  0
VERTEX
  8
tomato
 10
-6.986388
 20
118.821601
 30
0.329626
 70
   192
  0
VERTEX
  8
tomato
 10
2.162565
 20
118.375406
 30
5.805912
 70
   192
  0
VERTEX
  8
tomato
 10
-4.598088
 20
118.375406
 30
5.805912
 70
   192
  0
VERTEX
  8
tomato
 10
2.130136
 20
118.376025
 30
-5.148237
 70
   192
  0
VERTEX
  8
tomato
 10
-4.598088
 20
118.375406
 30
-5.146661
 70
   192
  0
VERTEX
  8
tomato
 10
6.268446
 20
134.830269
 30
0.348069
 70
   192
  0
VERTEX
  8
tomato
 10
-8.708299
 20
134.830269
 30
0.329233
 70
   192
  0
VERTEX
  8
tomato
 10
2.892834
 20
134.830269
 30
7.659168
 70
   192
  0
VERTEX
  8
tomato
 10
-5.329366
 20
134.830269
 30
7.659168
 70
   192
  0
VERTEX
  8
tomato
 10
2.876806
 20
134.830269
 30
-7.003287
 70
   192
  0
VERTEX
  8
tomato
 10
0.000000
 20
88.098160
 30
60.141012
 70
   192
  0
VERTEX
  8
tomato
 10
0.000000
 20
27.385046
 30
60.141012
 70
   192
  0
VERTEX
  8
tomato
 10
60.141012
 20
57.741603
 30
37.169190
 70
   192
  0
VERTEX
  8
tomato
 10
60.141012
 20
57.741603
 30
-37.169190
 70
   192
  0
VERTEX
  8
tomato
 10
0.000000
 20
88.098160
 30
-60.141012
 70
   192
  0
VERTEX
  8
tomato
 10
0.000000
 20
27.385046
 30
-60.141012
 70
   192
  0
VERTEX
  8
tomato
 10
-60.141012
 20
57.741603
 30
-37.169190
 70
   192
  0
VERTEX
  8
tomato
 10
-60.141012
 20
57.741603
 30
37.169190
 70
   192
  0
VERTEX
  8
tomato
 10
37.169190
 20
106.859545
 30
0.000000
 70
   192
  0
VERTEX
  8
tomato
 10
-37.169190
 20
106.859545
 30
0.000000
 70
   192
  0
VERTEX
  8
tomato
 10
-37.169190
 20
8.623662
 30
0.000000
 70
   192
  0
VERTEX
  8
tomato
 10
37.169190
 20
8.623662
 30
0.000000
 70
   192
  0
VERTEX
  8
tomato
 10
0.000000
 20
115.483206
 30
0.000000
 70
   192
  0
VERTEX
  8
tomato
 10
21.847502
 20
104.455541
 30
35.350000
 70
   192
  0
VERTEX
  8
tomato
 10
-21.847502
 20
104.455541
 30
35.350000
 70
   192
  0
VERTEX
  8
tomato
 10
57.197502
 20
86.612405
 30
21.847502
 70
   192
  0
VERTEX
  8
tomato
 10
35.350000
 20
75.584740
 30
57.197502
 70
   192
  0
VERTEX
  8
tomato
 10
57.197502
 20
86.612405
 30
-21.847502
 70
   192
  0
VERTEX
  8
tomato
 10
70.700000
 20
57.741603
 30
0.000000
 70
   192
  0
VERTEX
  8
tomato
 10
21.847502
 20
104.455541
 30
-35.350000
 70
   192
  0
VERTEX
  8
tomato
 10
35.350000
 20
75.584740
 30
-57.197502
 70
   192
  0
VERTEX
  8
tomato
 10
-21.847502
 20
104.455541
 30
-35.350000
 70
   192
  0
VERTEX
  8
tomato
 10
-57.197502
 20
86.612405
 30
-21.847502
 70
   192
  0
VERTEX
  8
tomato
 10
-35.350000
 20
75.584740
 30
-57.197502
 70
   192
  0
VERTEX
  8
tomato
 10
-57.197502
 20
86.612405
 30
21.847502
 70
   192
  0
VERTEX
  8
tomato
 10
-70.700000
 20
57.741603
 30
0.000000
 70
   192
  0
VERTEX
  8
tomato
 10
-35.350000
 20
75.584740
 30
57.197502
 70
   192
  0
VERTEX
  8
tomato
 10
0.000000
 20
0.000000
 30
0.000000
 70
   192
  0
VERTEX
  8
tomato
 10
-21.847502
 20
11.027665
 30
35.350000
 70
   192
  0
VERTEX
  8
tomato
 10
21.847502
 20
11.027665
 30
35.350000
 70
   192
  0
VERTEX
  8
tomato
 10
57.197502
 20
28.870802
 30
21.847502
 70
   192
  0
VERTEX
  8
tomato
 10
35.350000
 20
39.898467
 30
57.197502
 70
   192
  0
VERTEX
  8
tomato
 10
57.197502
 20
28.870802
 30
-21.847502
 70
   192
  0
VERTEX
  8
tomato
 10
35.350000
 20
39.898467
 30
-57.197502
 70
   192
  0
VERTEX
  8
tomato
 10
21.847502
 20
11.027665
 30
-35.350000
 70
   192
  0
VERTEX
  8
tomato
 10
-21.847502
 20
11.027665
 30
-35.350000
 70
   192
  0
VERTEX
  8
tomato
 10
-35.350000
 20
39.898467
 30
-57.197502
 70
   192
  0
VERTEX
  8
tomato
 10
-57.197502
 20
28.870802
 30
-21.847502
 70
   192
  0
VERTEX
  8
tomato
 10
-57.197502
 20
28.870802
 30
21.847502
 70
   192
  0
VERTEX
  8
tomato
 10
-35.350000
 20
39.898467
 30
57.197502
 70
   192
  0
VERTEX
  8
tomato
 10
0.000000
 20
57.741603
 30
70.700000
 70
   192
  0
VERTEX
  8
tomato
 10
0.000000
 20
57.741603
 30
-70.700000
 70
   192
  0
VERTEX
  8
tomato
 10
0.0
 20
0.0
 30
0.0
 70
   128
 71
   35
 72
   32
 73
   5
  0
VERTEX
  8
tomato
 10
0.0
 20
0.0
 30
0.0
 70
   128
 71
   32
 72
   35
 73
   31
  0
VERTEX
  8
tomato
 10
0.0
 20
0.0
 30
0.0
 70
   128
 71
   31
 72
   33
 73
   34
  0
VERTEX
  8
tomato
 10
0.0
 20
0.0
 30
0.0
 70
   128
 71
   19
 72
   18
 73
   13
  0
VERTEX
  8
tomato
 10
0.0
 20
0.0
 30
0.0
 70
   128
 71
   15
 72
   20
 73
   18
  0
VERTEX
  8
tomato
 10
0.0
 20
0.0
 30
0.0
 70
   128
 71
   25
 72
   31
 73
   35
  0
VERTEX
  8
tomato
 10
0.0
 20
0.0
 30
0.0
 70
   128
 71
   29
 72
   35
 73
   5
  0
VERTEX
  8
tomato
 10
0.0
 20
0.0
 30
0.0
 70
   128
 71
   30
 72
   5
 73
   32
  0
VERTEX
  8
tomato
 10
0.0
 20
0.0
 30
0.0
 70
   128
 71
   21
 72
   22
 73
   14
  0
VERTEX
  8
tomato
 10
0.0
 20
0.0
 30
0.0
 70
   128
 71
   22
 72
   16
 73
   23
  0
VERTEX
  8
tomato
 10
0.0
 20
0.0
 30
0.0
 70
   128
 71
   16
 72
   19
 73
   24
  0
VERTEX
  8
tomato
 10
0.0
 20
0.0
 30
0.0
 70
   128
 71
   7
 72
   17
 73
   4
  0
VERTEX
  8
tomato
 10
0.0
 20
0.0
 30
0.0
 70
   128
 71
   6
 72
   3
 73
   17
  0
VERTEX
  8
tomato
 10
0.0
 20
0.0
 30
0.0
 70
   128
 71
   17
 72
   7
 73
   6
  0
VERTEX
  8
tomato
 10
0.0
 20
0.0
 30
0.0
 70
   128
 71
   1
 72
   6
 73
   7
  0
VERTEX
  8
tomato
 10
0.0
 20
0.0
 30
0.0
 70
   128
 71
   6
 72
   8
 73
   3
  0
VERTEX
  8
tomato
 10
0.0
 20
0.0
 30
0.0
 70
   128
 71
   9
 72
   17
 73
   3
  0
VERTEX
  8
tomato
 10
0.0
 20
0.0
 30
0.0
 70
   128
 71
   10
 72
   4
 73
   17
  0
VERTEX
  8
tomato
 10
0.0
 20
0.0
 30
0.0
 70
   128
 71
   17
 72
   9
 73
   10
  0
VERTEX
  8
tomato
 10
0.0
 20
0.0
 30
0.0
 70
   128
 71
   2
 72
   10
 73
   9
  0
VERTEX
  8
tomato
 10
0.0
 20
0.0
 30
0.0
 70
   128
 71
   11
 72
   4
 73
   10
  0
VERTEX
  8
tomato
 10
0.0
 20
0.0
 30
0.0
 70
   128
 71
   12
 72
   7
 73
   4
  0
VERTEX
  8
tomato
 10
0.0
 20
0.0
 30
0.0
 70
   128
 71
   7
 72
   19
 73
   13
  0
VERTEX
  8
tomato
 10
0.0
 20
0.0
 30
0.0
 70
   128
 71
   1
 72
   13
 73
   18
  0
VERTEX
  8
tomato
 10
0.0
 20
0.0
 30
0.0
 70
   128
 71
   6
 72
   18
 73
   20
  0
VERTEX
  8
tomato
 10
0.0
 20
0.0
 30
0.0
 70
   128
 71
   8
 72
   20
 73
   15
  0
VERTEX
  8
tomato
 10
0.0
 20
0.0
 30
0.0
 70
   128
 71
   3
 72
   15
 73
   21
  0
VERTEX
  8
tomato
 10
0.0
 20
0.0
 30
0.0
 70
   128
 71
   9
 72
   21
 73
   14
  0
VERTEX
  8
tomato
 10
0.0
 20
0.0
 30
0.0
 70
   128
 71
   2
 72
   14
 73
   22
  0
VERTEX
  8
tomato
 10
0.0
 20
0.0
 30
0.0
 70
   128
 71
   10
 72
   22
 73
   23
  0
VERTEX
  8
tomato
 10
0.0
 20
0.0
 30
0.0
 70
   128
 71
   11
 72
   23
 73
   16
  0
VERTEX
  8
tomato
 10
0.0
 20
0.0
 30
0.0
 70
   128
 71
   4
 72
   16
 73
   24
  0
VERTEX
  8
tomato
 10
0.0
 20
0.0
 30
0.0
 70
   128
 71
   12
 72
   24
 73
   19
  0
VERTEX
  8
tomato
 10
0.0
 20
0.0
 30
0.0
 70
   128
 71
   28
 72
   19
 73
   16
  0
VERTEX
  8
tomato
 10
0.0
 20
0.0
 30
0.0
 70
   128
 71
   25
 72
   15
 73
   18
  0
VERTEX
  8
tomato
 10
0.0
 20
0.0
 30
0.0
 70
   128
 71
   27
 72
   18
 73
   19
  0
VERTEX
  8
tomato
 10
0.0
 20
0.0
 30
0.0
 70
   128
 71
   29
 72
   21
 73
   15
  0
VERTEX
  8
tomato
 10
0.0
 20
0.0
 30
0.0
 70
   128
 71
   26
 72
   16
 73
   22
  0
VERTEX
  8
tomato
 10
0.0
 20
0.0
 30
0.0
 70
   128
 71
   30
 72
   22
 73
   21
  0
VERTEX
  8
tomato
 10
0.0
 20
0.0
 30
0.0
 70
   128
 71
   26
 72
   32
 73
   34
  0
VERTEX
  8
tomato
 10
0.0
 20
0.0
 30
0.0
 70
   128
 71
   27
 72
   33
 73
   31
  0
VERTEX
  8
tomato
 10
0.0
 20
0.0
 30
0.0
 70
   128
 71
   28
 72
   34
 73
   33
  0
VERTEX
  8
tomato
 10
0.0
 20
0.0
 30
0.0
 70
   128
 71
   45
 72
   48
 73
   50
  0
VERTEX
  8
tomato
 10
0.0
 20
0.0
 30
0.0
 70
   128
 71
   48
 72
   44
 73
   49
  0
VERTEX
  8
tomato
 10
0.0
 20
0.0
 30
0.0
 70
   128
 71
   49
 72
   50
 73
   48
  0
VERTEX
  8
tomato
 10
0.0
 20
0.0
 30
0.0
 70
   128
 71
   50
 72
   49
 73
   36
  0
VERTEX
  8
tomato
 10
0.0
 20
0.0
 30
0.0
 70
   128
 71
   44
 72
   51
 73
   49
  0
VERTEX
  8
tomato
 10
0.0
 20
0.0
 30
0.0
 70
   128
 71
   51
 72
   38
 73
   52
  0
VERTEX
  8
tomato
 10
0.0
 20
0.0
 30
0.0
 70
   128
 71
   52
 72
   49
 73
   51
  0
VERTEX
  8
tomato
 10
0.0
 20
0.0
 30
0.0
 70
   128
 71
   49
 72
   52
 73
   36
  0
VERTEX
  8
tomato
 10
0.0
 20
0.0
 30
0.0
 70
   128
 71
   44
 72
   53
 73
   51
  0
VERTEX
  8
tomato
 10
0.0
 20
0.0
 30
0.0
 70
   128
 71
   53
 72
   39
 73
   54
  0
VERTEX
  8
tomato
 10
0.0
 20
0.0
 30
0.0
 70
   128
 71
   54
 72
   51
 73
   53
  0
VERTEX
  8
tomato
 10
0.0
 20
0.0
 30
0.0
 70
   128
 71
   51
 72
   54
 73
   38
  0
VERTEX
  8
tomato
 10
0.0
 20
0.0
 30
0.0
 70
   128
 71
   44
 72
   55
 73
   53
  0
VERTEX
  8
tomato
 10
0.0
 20
0.0
 30
0.0
 70
   128
 71
   55
 72
   40
 73
   56
  0
VERTEX
  8
tomato
 10
0.0
 20
0.0
 30
0.0
 70
   128
 71
   56
 72
   53
 73
   55
  0
VERTEX
  8
tomato
 10
0.0
 20
0.0
 30
0.0
 70
   128
 71
   53
 72
   56
 73
   39
  0
VERTEX
  8
tomato
 10
0.0
 20
0.0
 30
0.0
 70
   128
 71
   44
 72
   48
 73
   55
  0
VERTEX
  8
tomato
 10
0.0
 20
0.0
 30
0.0
 70
   128
 71
   48
 72
   45
 73
   57
  0
VERTEX
  8
tomato
 10
0.0
 20
0.0
 30
0.0
 70
   128
 71
   57
 72
   55
 73
   48
  0
VERTEX
  8
tomato
 10
0.0
 20
0.0
 30
0.0
 70
   128
 71
   55
 72
   57
 73
   40
  0
VERTEX
  8
tomato
 10
0.0
 20
0.0
 30
0.0
 70
   128
 71
   40
 72
   57
 73
   59
  0
VERTEX
  8
tomato
 10
0.0
 20
0.0
 30
0.0
 70
   128
 71
   57
 72
   45
 73
   58
  0
VERTEX
  8
tomato
 10
0.0
 20
0.0
 30
0.0
 70
   128
 71
   58
 72
   59
 73
   57
  0
VERTEX
  8
tomato
 10
0.0
 20
0.0
 30
0.0
 70
   128
 71
   59
 72
   58
 73
   42
  0
VERTEX
  8
tomato
 10
0.0
 20
0.0
 30
0.0
 70
   128
 71
   42
 72
   58
 73
   61
  0
VERTEX
  8
tomato
 10
0.0
 20
0.0
 30
0.0
 70
   128
 71
   58
 72
   45
 73
   60
  0
VERTEX
  8
tomato
 10
0.0
 20
0.0
 30
0.0
 70
   128
 71
   60
 72
   61
 73
   58
  0
VERTEX
  8
tomato
 10
0.0
 20
0.0
 30
0.0
 70
   128
 71
   61
 72
   60
 73
   43
  0
VERTEX
  8
tomato
 10
0.0
 20
0.0
 30
0.0
 70
   128
 71
   45
 72
   50
 73
   60
  0
VERTEX
  8
tomato
 10
0.0
 20
0.0
 30
0.0
 70
   128
 71
   50
 72
   36
 73
   62
  0
VERTEX
  8
tomato
 10
0.0
 20
0.0
 30
0.0
 70
   128
 71
   62
 72
   60
 73
   50
  0
VERTEX
  8
tomato
 10
0.0
 20
0.0
 30
0.0
 70
   128
 71
   60
 72
   62
 73
   43
  0
VERTEX
  8
tomato
 10
0.0
 20
0.0
 30
0.0
 70
   128
 71
   47
 72
   63
 73
   65
  0
VERTEX
  8
tomato
 10
0.0
 20
0.0
 30
0.0
 70
   128
 71
   63
 72
   46
 73
   64
  0
VERTEX
  8
tomato
 10
0.0
 20
0.0
 30
0.0
 70
   128
 71
   64
 72
   65
 73
   63
  0
VERTEX
  8
tomato
 10
0.0
 20
0.0
 30
0.0
 70
   128
 71
   65
 72
   64
 73
   37
  0
VERTEX
  8
tomato
 10
0.0
 20
0.0
 30
0.0
 70
   128
 71
   38
 72
   66
 73
   67
  0
VERTEX
  8
tomato
 10
0.0
 20
0.0
 30
0.0
 70
   128
 71
   66
 72
   47
 73
   65
  0
VERTEX
  8
tomato
 10
0.0
 20
0.0
 30
0.0
 70
   128
 71
   65
 72
   67
 73
   66
  0
VERTEX
  8
tomato
 10
0.0
 20
0.0
 30
0.0
 70
   128
 71
   67
 72
   65
 73
   37
  0
VERTEX
  8
tomato
 10
0.0
 20
0.0
 30
0.0
 70
   128
 71
   38
 72
   54
 73
   66
  0
VERTEX
  8
tomato
 10
0.0
 20
0.0
 30
0.0
 70
   128
 71
   54
 72
   39
 73
   68
  0
VERTEX
  8
tomato
 10
0.0
 20
0.0
 30
0.0
 70
   128
 71
   68
 72
   66
 73
   54
  0
VERTEX
  8
tomato
 10
0.0
 20
0.0
 30
0.0
 70
   128
 71
   66
 72
   68
 73
   47
  0
VERTEX
  8
tomato
 10
0.0
 20
0.0
 30
0.0
 70
   128
 71
   39
 72
   69
 73
   68
  0
VERTEX
  8
tomato
 10
0.0
 20
0.0
 30
0.0
 70
   128
 71
   69
 72
   41
 73
   70
  0
VERTEX
  8
tomato
 10
0.0
 20
0.0
 30
0.0
 70
   128
 71
   70
 72
   68
 73
   69
  0
VERTEX
  8
tomato
 10
0.0
 20
0.0
 30
0.0
 70
   128
 71
   68
 72
   70
 73
   47
  0
VERTEX
  8
tomato
 10
0.0
 20
0.0
 30
0.0
 70
   128
 71
   41
 72
   71
 73
   70
  0
VERTEX
  8
tomato
 10
0.0
 20
0.0
 30
0.0
 70
   128
 71
   71
 72
   46
 73
   63
  0
VERTEX
  8
tomato
 10
0.0
 20
0.0
 30
0.0
 70
   128
 71
   63
 72
   70
 73
   71
  0
VERTEX
  8
tomato
 10
0.0
 20
0.0
 30
0.0
 70
   128
 71
   70
 72
   63
 73
   47
  0
VERTEX
  8
tomato
 10
0.0
 20
0.0
 30
0.0
 70
   128
 71
   41
 72
   72
 73
   71
  0
VERTEX
  8
tomato
 10
0.0
 20
0.0
 30
0.0
 70
   128
 71
   72
 72
   42
 73
   73
  0
VERTEX
  8
tomato
 10
0.0
 20
0.0
 30
0.0
 70
   128
 71
   73
 72
   71
 73
   72
  0
VERTEX
  8
tomato
 10
0.0
 20
0.0
 30
0.0
 70
   128
 71
   71
 72
   73
 73
   46
  0
VERTEX
  8
tomato
 10
0.0
 20
0.0
 30
0.0
 70
   128
 71
   42
 72
   61
 73
   73
  0
VERTEX
  8
tomato
 10
0.0
 20
0.0
 30
0.0
 70
   128
 71
   61
 72
   43
 73
   74
  0
VERTEX
  8
tomato
 10
0.0
 20
0.0
 30
0.0
 70
   128
 71
   74
 72
   73
 73
   61
  0
VERTEX
  8
tomato
 10
0.0
 20
0.0
 30
0.0
 70
   128
 71
   73
 72
   74
 73
   46
  0
VERTEX
  8
tomato
 10
0.0
 20
0.0
 30
0.0
 70
   128
 71
   43
 72
   75
 73
   74
  0
VERTEX
  8
tomato
 10
0.0
 20
0.0
 30
0.0
 70
   128
 71
   75
 72
   37
 73
   64
  0
VERTEX
  8
tomato
 10
0.0
 20
0.0
 30
0.0
 70
   128
 71
   64
 72
   74
 73
   75
  0
VERTEX
  8
tomato
 10
0.0
 20
0.0
 30
0.0
 70
   128
 71
   74
 72
   64
 73
   46
  0
VERTEX
  8
tomato
 10
0.0
 20
0.0
 30
0.0
 70
   128
 71
   37
 72
   75
 73
   76
  0
VERTEX
  8
tomato
 10
0.0
 20
0.0
 30
0.0
 70
   128
 71
   75
 72
   43
 73
   62
  0
VERTEX
  8
tomato
 10
0.0
 20
0.0
 30
0.0
 70
   128
 71
   62
 72
   76
 73
   75
  0
VERTEX
  8
tomato
 10
0.0
 20
0.0
 30
0.0
 70
   128
 71
   76
 72
   62
 73
   36
  0
VERTEX
  8
tomato
 10
0.0
 20
0.0
 30
0.0
 70
   128
 71
   38
 72
   67
 73
   52
  0
VERTEX
  8
tomato
 10
0.0
 20
0.0
 30
0.0
 70
   128
 71
   67
 72
   37
 73
   76
  0
VERTEX
  8
tomato
 10
0.0
 20
0.0
 30
0.0
 70
   128
 71
   76
 72
   52
 73
   67
  0
VERTEX
  8
tomato
 10
0.0
 20
0.0
 30
0.0
 70
   128
 71
   52
 72
   76
 73
   36
  0
VERTEX
  8
tomato
 10
0.0
 20
0.0
 30
0.0
 70
   128
 71
   40
 72
   77
 73
   56
  0
VERTEX
  8
tomato
 10
0.0
 20
0.0
 30
0.0
 70
   128
 71
   77
 72
   41
 73
   69
  0
VERTEX
  8
tomato
 10
0.0
 20
0.0
 30
0.0
 70
   128
 71
   69
 72
   56
 73
   77
  0
VERTEX
  8
tomato
 10
0.0
 20
0.0
 30
0.0
 70
   128
 71
   56
 72
   69
 73
   39
  0
VERTEX
  8
tomato
 10
0.0
 20
0.0
 30
0.0
 70
   128
 71
   40
 72
   59
 73
   77
  0
VERTEX
  8
tomato
 10
0.0
 20
0.0
 30
0.0
 70
   128
 71
   59
 72
   42
 73
   72
  0
VERTEX
  8
tomato
 10
0.0
 20
0.0
 30
0.0
 70
   128
 71
   72
 72
   77
 73
   59
  0
VERTEX
  8
tomato
 10
0.0
 20
0.0
 30
0.0
 70
   128
 71
   77
 72
   72
 73
   41
  0
VERTEX
  8
tomato
 10
0.0
 20
0.0
 30
0.0
 70
   128
 71
   32
 72
   31
 73
   34
  0
VERTEX
  8
tomato
 10
0.0
 20
0.0
 30
0.0
 70
   128
 71
   25
 72
   35
 73
   29
  0
VERTEX
  8
tomato
 10
0.0
 20
0.0
 30
0.0
 70
   128
 71
   29
 72
   5
 73
   30
  0
VERTEX
  8
tomato
 10
0.0
 20
0.0
 30
0.0
 70
   128
 71
   30
 72
   32
 73
   26
  0
VERTEX
  8
tomato
 10
0.0
 20
0.0
 30
0.0
 70
   128
 71
   7
 72
   13
 73
   1
  0
VERTEX
  8
tomato
 10
0.0
 20
0.0
 30
0.0
 70
   128
 71
   1
 72
   18
 73
   6
  0
VERTEX
  8
tomato
 10
0.0
 20
0.0
 30
0.0
 70
   128
 71
   6
 72
   20
 73
   8
  0
VERTEX
  8
tomato
 10
0.0
 20
0.0
 30
0.0
 70
   128
 71
   8
 72
   15
 73
   3
  0
VERTEX
  8
tomato
 10
0.0
 20
0.0
 30
0.0
 70
   128
 71
   3
 72
   21
 73
   9
  0
VERTEX
  8
tomato
 10
0.0
 20
0.0
 30
0.0
 70
   128
 71
   9
 72
   14
 73
   2
  0
VERTEX
  8
tomato
 10
0.0
 20
0.0
 30
0.0
 70
   128
 71
   2
 72
   22
 73
   10
  0
VERTEX
  8
tomato
 10
0.0
 20
0.0
 30
0.0
 70
   128
 71
   10
 72
   23
 73
   11
  0
VERTEX
  8
tomato
 10
0.0
 20
0.0
 30
0.0
 70
   128
 71
   11
 72
   16
 73
   4
  0
VERTEX
  8
tomato
 10
0.0
 20
0.0
 30
0.0
 70
   128
 71
   4
 72
   24
 73
   12
  0
VERTEX
  8
tomato
 10
0.0
 20
0.0
 30
0.0
 70
   128
 71
   12
 72
   19
 73
   7
  0
VERTEX
  8
tomato
 10
0.0
 20
0.0
 30
0.0
 70
   128
 71
   28
 72
   16
 73
   26
  0
VERTEX
  8
tomato
 10
0.0
 20
0.0
 30
0.0
 70
   128
 71
   25
 72
   18
 73
   27
  0
VERTEX
  8
tomato
 10
0.0
 20
0.0
 30
0.0
 70
   128
 71
   27
 72
   19
 73
   28
  0
VERTEX
  8
tomato
 10
0.0
 20
0.0
 30
0.0
 70
   128
 71
   29
 72
   15
 73
   25
  0
VERTEX
  8
tomato
 10
0.0
 20
0.0
 30
0.0
 70
   128
 71
   26
 72
   22
 73
   30
  0
VERTEX
  8
tomato
 10
0.0
 20
0.0
 30
0.0
 70
   128
 71
   30
 72
   21
 73
   29
  0
VERTEX
  8
tomato
 10
0.0
 20
0.0
 30
0.0
 70
   128
 71
   26
 72
   34
 73
   28
  0
VERTEX
  8
tomato
 10
0.0
 20
0.0
 30
0.0
 70
   128
 71
   27
 72
   31
 73
   25
  0
VERTEX
  8
tomato
 10
0.0
 20
0.0
 30
0.0
 70
   128
 71
   28
 72
   33
 73
   27
  0
SEQEND
  0
ENDSEC
  0
EOF
