999
FBX AutoCAD (*.DXF) exporter
  0
SECTION
  2
HEADER
  9
$ACADVER
  1
AC1008
  9
$UCSORG
 10
0.0
 20
0.0
 30
0.0
  9
$UCSXDIR
 10
1.0
 20
0.0
 30
0.0
  9
$TILEMODE
 70
   1
  9
$UCSYDIR
 10
0.0
 20
1.0
 30
0.0
  0
ENDSEC
  0
SECTION
  2
TABLES
  0
TABLE
  2
LTYPE
 70
   1
  0
LTYPE
  2
CONTINUOUS
 70
   64
  3
Solid line
 72
   65
 73
   0
 40
0.0
  0
ENDTAB
  0
TABLE
  2
LAYER
 70
   1
  0
LAYER
  2
asianSushi01
 70
   0
 62
   250
  6
CONTINUOUS
  0
ENDTAB
  0
ENDSEC
  0
SECTION
  2
BLOCKS
  0
ENDSEC
  0
SECTION
  2
ENTITIES
  0
POLYLINE
  8
asianSushi01
 66
   1
 10
0.0
 20
0.0
 30
0.0
 70
   64
 71
   96
 72
   188
  0
VERTEX
  8
asianSushi01
 10
11.619512
 20
71.353786
 30
20.125586
 70
   192
  0
VERTEX
  8
asianSushi01
 10
20.125586
 20
71.353786
 30
11.619512
 70
   192
  0
VERTEX
  8
asianSushi01
 10
58.735228
 20
0.000000
 30
0.000000
 70
   192
  0
VERTEX
  8
asianSushi01
 10
58.735228
 20
74.033386
 30
0.000000
 70
   192
  0
VERTEX
  8
asianSushi01
 10
50.866200
 20
0.000000
 30
-29.367614
 70
   192
  0
VERTEX
  8
asianSushi01
 10
50.866200
 20
74.033386
 30
-29.367614
 70
   192
  0
VERTEX
  8
asianSushi01
 10
29.367614
 20
0.000000
 30
-50.866200
 70
   192
  0
VERTEX
  8
asianSushi01
 10
29.367614
 20
74.033386
 30
-50.866200
 70
   192
  0
VERTEX
  8
asianSushi01
 10
0.000000
 20
0.000000
 30
-58.735228
 70
   192
  0
VERTEX
  8
asianSushi01
 10
0.000000
 20
74.033386
 30
-58.735228
 70
   192
  0
VERTEX
  8
asianSushi01
 10
-29.367614
 20
0.000000
 30
-50.866200
 70
   192
  0
VERTEX
  8
asianSushi01
 10
-29.367614
 20
74.033386
 30
-50.866200
 70
   192
  0
VERTEX
  8
asianSushi01
 10
-50.866200
 20
0.000000
 30
-29.367614
 70
   192
  0
VERTEX
  8
asianSushi01
 10
-50.866200
 20
74.033386
 30
-29.367614
 70
   192
  0
VERTEX
  8
asianSushi01
 10
-58.735228
 20
0.000000
 30
-0.000000
 70
   192
  0
VERTEX
  8
asianSushi01
 10
-58.735228
 20
74.033386
 30
-0.000000
 70
   192
  0
VERTEX
  8
asianSushi01
 10
-50.866200
 20
0.000000
 30
29.367614
 70
   192
  0
VERTEX
  8
asianSushi01
 10
-50.866200
 20
74.033386
 30
29.367614
 70
   192
  0
VERTEX
  8
asianSushi01
 10
-29.367614
 20
0.000000
 30
50.866200
 70
   192
  0
VERTEX
  8
asianSushi01
 10
-29.367614
 20
74.033386
 30
50.866200
 70
   192
  0
VERTEX
  8
asianSushi01
 10
-0.000000
 20
0.000000
 30
58.735228
 70
   192
  0
VERTEX
  8
asianSushi01
 10
-0.000000
 20
74.033386
 30
58.735228
 70
   192
  0
VERTEX
  8
asianSushi01
 10
29.367614
 20
0.000000
 30
50.866200
 70
   192
  0
VERTEX
  8
asianSushi01
 10
29.367614
 20
74.033386
 30
50.866200
 70
   192
  0
VERTEX
  8
asianSushi01
 10
50.866200
 20
0.000000
 30
29.367614
 70
   192
  0
VERTEX
  8
asianSushi01
 10
50.866200
 20
74.033386
 30
29.367614
 70
   192
  0
VERTEX
  8
asianSushi01
 10
52.619541
 20
0.000000
 30
-0.000000
 70
   192
  0
VERTEX
  8
asianSushi01
 10
45.569860
 20
0.000000
 30
-26.309771
 70
   192
  0
VERTEX
  8
asianSushi01
 10
26.309771
 20
0.000000
 30
-45.569860
 70
   192
  0
VERTEX
  8
asianSushi01
 10
0.000000
 20
0.000000
 30
-52.619541
 70
   192
  0
VERTEX
  8
asianSushi01
 10
-26.309771
 20
0.000000
 30
-45.569860
 70
   192
  0
VERTEX
  8
asianSushi01
 10
-45.569860
 20
0.000000
 30
-26.309771
 70
   192
  0
VERTEX
  8
asianSushi01
 10
-52.619541
 20
0.000000
 30
-0.000000
 70
   192
  0
VERTEX
  8
asianSushi01
 10
-45.569860
 20
0.000000
 30
26.309771
 70
   192
  0
VERTEX
  8
asianSushi01
 10
-26.309771
 20
0.000000
 30
45.569860
 70
   192
  0
VERTEX
  8
asianSushi01
 10
-0.000000
 20
0.000000
 30
52.619541
 70
   192
  0
VERTEX
  8
asianSushi01
 10
26.309771
 20
0.000000
 30
45.569860
 70
   192
  0
VERTEX
  8
asianSushi01
 10
45.569860
 20
0.000000
 30
26.309771
 70
   192
  0
VERTEX
  8
asianSushi01
 10
52.619541
 20
74.033386
 30
-0.000000
 70
   192
  0
VERTEX
  8
asianSushi01
 10
45.569860
 20
74.033386
 30
-26.309771
 70
   192
  0
VERTEX
  8
asianSushi01
 10
26.309771
 20
74.033386
 30
-45.569860
 70
   192
  0
VERTEX
  8
asianSushi01
 10
0.000000
 20
74.033386
 30
-52.619541
 70
   192
  0
VERTEX
  8
asianSushi01
 10
-26.309771
 20
74.033386
 30
-45.569860
 70
   192
  0
VERTEX
  8
asianSushi01
 10
-45.569860
 20
74.033386
 30
-26.309771
 70
   192
  0
VERTEX
  8
asianSushi01
 10
-52.619541
 20
74.033386
 30
-0.000000
 70
   192
  0
VERTEX
  8
asianSushi01
 10
-45.569860
 20
74.033386
 30
26.309771
 70
   192
  0
VERTEX
  8
asianSushi01
 10
-26.309771
 20
74.033386
 30
45.569860
 70
   192
  0
VERTEX
  8
asianSushi01
 10
-0.000000
 20
74.033386
 30
52.619541
 70
   192
  0
VERTEX
  8
asianSushi01
 10
26.309771
 20
74.033386
 30
45.569860
 70
   192
  0
VERTEX
  8
asianSushi01
 10
45.569860
 20
74.033386
 30
26.309771
 70
   192
  0
VERTEX
  8
asianSushi01
 10
52.619541
 20
2.679600
 30
-0.000000
 70
   192
  0
VERTEX
  8
asianSushi01
 10
45.569860
 20
2.679600
 30
-26.309771
 70
   192
  0
VERTEX
  8
asianSushi01
 10
26.309771
 20
2.679600
 30
-45.569860
 70
   192
  0
VERTEX
  8
asianSushi01
 10
0.000000
 20
2.679600
 30
-52.619541
 70
   192
  0
VERTEX
  8
asianSushi01
 10
-26.309771
 20
2.679600
 30
-45.569860
 70
   192
  0
VERTEX
  8
asianSushi01
 10
-45.569860
 20
2.679600
 30
-26.309771
 70
   192
  0
VERTEX
  8
asianSushi01
 10
-52.619541
 20
2.679600
 30
-0.000000
 70
   192
  0
VERTEX
  8
asianSushi01
 10
-45.569860
 20
2.679600
 30
26.309771
 70
   192
  0
VERTEX
  8
asianSushi01
 10
-26.309771
 20
2.679600
 30
45.569860
 70
   192
  0
VERTEX
  8
asianSushi01
 10
-0.000000
 20
2.679600
 30
52.619541
 70
   192
  0
VERTEX
  8
asianSushi01
 10
26.309771
 20
2.679600
 30
45.569860
 70
   192
  0
VERTEX
  8
asianSushi01
 10
45.569860
 20
2.679600
 30
26.309771
 70
   192
  0
VERTEX
  8
asianSushi01
 10
52.619541
 20
71.353786
 30
-0.000000
 70
   192
  0
VERTEX
  8
asianSushi01
 10
45.569860
 20
71.353786
 30
-26.309771
 70
   192
  0
VERTEX
  8
asianSushi01
 10
26.309771
 20
71.353786
 30
-45.569860
 70
   192
  0
VERTEX
  8
asianSushi01
 10
0.000000
 20
71.353786
 30
-52.619541
 70
   192
  0
VERTEX
  8
asianSushi01
 10
-26.309771
 20
71.353786
 30
-45.569860
 70
   192
  0
VERTEX
  8
asianSushi01
 10
-45.569860
 20
71.353786
 30
-26.309771
 70
   192
  0
VERTEX
  8
asianSushi01
 10
-52.619541
 20
71.353786
 30
-0.000000
 70
   192
  0
VERTEX
  8
asianSushi01
 10
-45.569860
 20
71.353786
 30
26.309771
 70
   192
  0
VERTEX
  8
asianSushi01
 10
-26.309771
 20
71.353786
 30
45.569860
 70
   192
  0
VERTEX
  8
asianSushi01
 10
-0.000000
 20
71.353786
 30
52.619541
 70
   192
  0
VERTEX
  8
asianSushi01
 10
26.309771
 20
71.353786
 30
45.569860
 70
   192
  0
VERTEX
  8
asianSushi01
 10
45.569860
 20
71.353786
 30
26.309771
 70
   192
  0
VERTEX
  8
asianSushi01
 10
23.239024
 20
2.679600
 30
-0.000000
 70
   192
  0
VERTEX
  8
asianSushi01
 10
20.125586
 20
2.679600
 30
-11.619512
 70
   192
  0
VERTEX
  8
asianSushi01
 10
11.619512
 20
2.679600
 30
-20.125586
 70
   192
  0
VERTEX
  8
asianSushi01
 10
0.000000
 20
2.679600
 30
-23.239024
 70
   192
  0
VERTEX
  8
asianSushi01
 10
-11.619512
 20
2.679600
 30
-20.125586
 70
   192
  0
VERTEX
  8
asianSushi01
 10
-20.125586
 20
2.679600
 30
-11.619512
 70
   192
  0
VERTEX
  8
asianSushi01
 10
-23.239024
 20
2.679600
 30
-0.000000
 70
   192
  0
VERTEX
  8
asianSushi01
 10
-20.125586
 20
2.679600
 30
11.619512
 70
   192
  0
VERTEX
  8
asianSushi01
 10
-11.619512
 20
2.679600
 30
20.125586
 70
   192
  0
VERTEX
  8
asianSushi01
 10
-0.000000
 20
2.679600
 30
23.239024
 70
   192
  0
VERTEX
  8
asianSushi01
 10
11.619512
 20
2.679600
 30
20.125586
 70
   192
  0
VERTEX
  8
asianSushi01
 10
20.125586
 20
2.679600
 30
11.619512
 70
   192
  0
VERTEX
  8
asianSushi01
 10
23.239024
 20
71.353786
 30
-0.000000
 70
   192
  0
VERTEX
  8
asianSushi01
 10
20.125586
 20
71.353786
 30
-11.619512
 70
   192
  0
VERTEX
  8
asianSushi01
 10
11.619512
 20
71.353786
 30
-20.125586
 70
   192
  0
VERTEX
  8
asianSushi01
 10
0.000000
 20
71.353786
 30
-23.239024
 70
   192
  0
VERTEX
  8
asianSushi01
 10
-11.619512
 20
71.353786
 30
-20.125586
 70
   192
  0
VERTEX
  8
asianSushi01
 10
-20.125586
 20
71.353786
 30
-11.619512
 70
   192
  0
VERTEX
  8
asianSushi01
 10
-23.239024
 20
71.353786
 30
-0.000000
 70
   192
  0
VERTEX
  8
asianSushi01
 10
-20.125586
 20
71.353786
 30
11.619512
 70
   192
  0
VERTEX
  8
asianSushi01
 10
-11.619512
 20
71.353786
 30
20.125586
 70
   192
  0
VERTEX
  8
asianSushi01
 10
-0.000000
 20
71.353786
 30
23.239024
 70
   192
  0
VERTEX
  8
asianSushi01
 10
0.0
 20
0.0
 30
0.0
 70
   128
 71
   86
 72
   75
 73
   79
  0
VERTEX
  8
asianSushi01
 10
0.0
 20
0.0
 30
0.0
 70
   128
 71
   3
 72
   4
 73
   6
  0
VERTEX
  8
asianSushi01
 10
0.0
 20
0.0
 30
0.0
 70
   128
 71
   88
 72
   87
 73
   91
  0
VERTEX
  8
asianSushi01
 10
0.0
 20
0.0
 30
0.0
 70
   128
 71
   86
 72
   84
 73
   85
  0
VERTEX
  8
asianSushi01
 10
0.0
 20
0.0
 30
0.0
 70
   128
 71
   5
 72
   6
 73
   8
  0
VERTEX
  8
asianSushi01
 10
0.0
 20
0.0
 30
0.0
 70
   128
 71
   75
 72
   76
 73
   78
  0
VERTEX
  8
asianSushi01
 10
0.0
 20
0.0
 30
0.0
 70
   128
 71
   76
 72
   77
 73
   78
  0
VERTEX
  8
asianSushi01
 10
0.0
 20
0.0
 30
0.0
 70
   128
 71
   7
 72
   8
 73
   10
  0
VERTEX
  8
asianSushi01
 10
0.0
 20
0.0
 30
0.0
 70
   128
 71
   79
 72
   80
 73
   82
  0
VERTEX
  8
asianSushi01
 10
0.0
 20
0.0
 30
0.0
 70
   128
 71
   80
 72
   81
 73
   82
  0
VERTEX
  8
asianSushi01
 10
0.0
 20
0.0
 30
0.0
 70
   128
 71
   9
 72
   10
 73
   12
  0
VERTEX
  8
asianSushi01
 10
0.0
 20
0.0
 30
0.0
 70
   128
 71
   82
 72
   83
 73
   84
  0
VERTEX
  8
asianSushi01
 10
0.0
 20
0.0
 30
0.0
 70
   128
 71
   91
 72
   87
 73
   2
  0
VERTEX
  8
asianSushi01
 10
0.0
 20
0.0
 30
0.0
 70
   128
 71
   11
 72
   12
 73
   14
  0
VERTEX
  8
asianSushi01
 10
0.0
 20
0.0
 30
0.0
 70
   128
 71
   2
 72
   1
 73
   96
  0
VERTEX
  8
asianSushi01
 10
0.0
 20
0.0
 30
0.0
 70
   128
 71
   96
 72
   95
 73
   94
  0
VERTEX
  8
asianSushi01
 10
0.0
 20
0.0
 30
0.0
 70
   128
 71
   13
 72
   14
 73
   16
  0
VERTEX
  8
asianSushi01
 10
0.0
 20
0.0
 30
0.0
 70
   128
 71
   91
 72
   96
 73
   94
  0
VERTEX
  8
asianSushi01
 10
0.0
 20
0.0
 30
0.0
 70
   128
 71
   94
 72
   93
 73
   92
  0
VERTEX
  8
asianSushi01
 10
0.0
 20
0.0
 30
0.0
 70
   128
 71
   15
 72
   16
 73
   18
  0
VERTEX
  8
asianSushi01
 10
0.0
 20
0.0
 30
0.0
 70
   128
 71
   90
 72
   89
 73
   88
  0
VERTEX
  8
asianSushi01
 10
0.0
 20
0.0
 30
0.0
 70
   128
 71
   65
 72
   89
 73
   90
  0
VERTEX
  8
asianSushi01
 10
0.0
 20
0.0
 30
0.0
 70
   128
 71
   17
 72
   18
 73
   20
  0
VERTEX
  8
asianSushi01
 10
0.0
 20
0.0
 30
0.0
 70
   128
 71
   66
 72
   90
 73
   91
  0
VERTEX
  8
asianSushi01
 10
0.0
 20
0.0
 30
0.0
 70
   128
 71
   67
 72
   91
 73
   92
  0
VERTEX
  8
asianSushi01
 10
0.0
 20
0.0
 30
0.0
 70
   128
 71
   19
 72
   20
 73
   22
  0
VERTEX
  8
asianSushi01
 10
0.0
 20
0.0
 30
0.0
 70
   128
 71
   68
 72
   92
 73
   93
  0
VERTEX
  8
asianSushi01
 10
0.0
 20
0.0
 30
0.0
 70
   128
 71
   69
 72
   93
 73
   94
  0
VERTEX
  8
asianSushi01
 10
0.0
 20
0.0
 30
0.0
 70
   128
 71
   21
 72
   22
 73
   24
  0
VERTEX
  8
asianSushi01
 10
0.0
 20
0.0
 30
0.0
 70
   128
 71
   70
 72
   94
 73
   95
  0
VERTEX
  8
asianSushi01
 10
0.0
 20
0.0
 30
0.0
 70
   128
 71
   71
 72
   95
 73
   96
  0
VERTEX
  8
asianSushi01
 10
0.0
 20
0.0
 30
0.0
 70
   128
 71
   23
 72
   24
 73
   26
  0
VERTEX
  8
asianSushi01
 10
0.0
 20
0.0
 30
0.0
 70
   128
 71
   72
 72
   96
 73
   1
  0
VERTEX
  8
asianSushi01
 10
0.0
 20
0.0
 30
0.0
 70
   128
 71
   73
 72
   1
 73
   2
  0
VERTEX
  8
asianSushi01
 10
0.0
 20
0.0
 30
0.0
 70
   128
 71
   25
 72
   26
 73
   4
  0
VERTEX
  8
asianSushi01
 10
0.0
 20
0.0
 30
0.0
 70
   128
 71
   74
 72
   2
 73
   87
  0
VERTEX
  8
asianSushi01
 10
0.0
 20
0.0
 30
0.0
 70
   128
 71
   5
 72
   28
 73
   27
  0
VERTEX
  8
asianSushi01
 10
0.0
 20
0.0
 30
0.0
 70
   128
 71
   7
 72
   29
 73
   28
  0
VERTEX
  8
asianSushi01
 10
0.0
 20
0.0
 30
0.0
 70
   128
 71
   9
 72
   30
 73
   29
  0
VERTEX
  8
asianSushi01
 10
0.0
 20
0.0
 30
0.0
 70
   128
 71
   11
 72
   31
 73
   30
  0
VERTEX
  8
asianSushi01
 10
0.0
 20
0.0
 30
0.0
 70
   128
 71
   13
 72
   32
 73
   31
  0
VERTEX
  8
asianSushi01
 10
0.0
 20
0.0
 30
0.0
 70
   128
 71
   15
 72
   33
 73
   32
  0
VERTEX
  8
asianSushi01
 10
0.0
 20
0.0
 30
0.0
 70
   128
 71
   17
 72
   34
 73
   33
  0
VERTEX
  8
asianSushi01
 10
0.0
 20
0.0
 30
0.0
 70
   128
 71
   19
 72
   35
 73
   34
  0
VERTEX
  8
asianSushi01
 10
0.0
 20
0.0
 30
0.0
 70
   128
 71
   21
 72
   36
 73
   35
  0
VERTEX
  8
asianSushi01
 10
0.0
 20
0.0
 30
0.0
 70
   128
 71
   23
 72
   37
 73
   36
  0
VERTEX
  8
asianSushi01
 10
0.0
 20
0.0
 30
0.0
 70
   128
 71
   25
 72
   38
 73
   37
  0
VERTEX
  8
asianSushi01
 10
0.0
 20
0.0
 30
0.0
 70
   128
 71
   3
 72
   27
 73
   38
  0
VERTEX
  8
asianSushi01
 10
0.0
 20
0.0
 30
0.0
 70
   128
 71
   4
 72
   39
 73
   40
  0
VERTEX
  8
asianSushi01
 10
0.0
 20
0.0
 30
0.0
 70
   128
 71
   6
 72
   40
 73
   41
  0
VERTEX
  8
asianSushi01
 10
0.0
 20
0.0
 30
0.0
 70
   128
 71
   8
 72
   41
 73
   42
  0
VERTEX
  8
asianSushi01
 10
0.0
 20
0.0
 30
0.0
 70
   128
 71
   10
 72
   42
 73
   43
  0
VERTEX
  8
asianSushi01
 10
0.0
 20
0.0
 30
0.0
 70
   128
 71
   12
 72
   43
 73
   44
  0
VERTEX
  8
asianSushi01
 10
0.0
 20
0.0
 30
0.0
 70
   128
 71
   14
 72
   44
 73
   45
  0
VERTEX
  8
asianSushi01
 10
0.0
 20
0.0
 30
0.0
 70
   128
 71
   16
 72
   45
 73
   46
  0
VERTEX
  8
asianSushi01
 10
0.0
 20
0.0
 30
0.0
 70
   128
 71
   18
 72
   46
 73
   47
  0
VERTEX
  8
asianSushi01
 10
0.0
 20
0.0
 30
0.0
 70
   128
 71
   20
 72
   47
 73
   48
  0
VERTEX
  8
asianSushi01
 10
0.0
 20
0.0
 30
0.0
 70
   128
 71
   22
 72
   48
 73
   49
  0
VERTEX
  8
asianSushi01
 10
0.0
 20
0.0
 30
0.0
 70
   128
 71
   24
 72
   49
 73
   50
  0
VERTEX
  8
asianSushi01
 10
0.0
 20
0.0
 30
0.0
 70
   128
 71
   26
 72
   50
 73
   39
  0
VERTEX
  8
asianSushi01
 10
0.0
 20
0.0
 30
0.0
 70
   128
 71
   28
 72
   52
 73
   51
  0
VERTEX
  8
asianSushi01
 10
0.0
 20
0.0
 30
0.0
 70
   128
 71
   29
 72
   53
 73
   52
  0
VERTEX
  8
asianSushi01
 10
0.0
 20
0.0
 30
0.0
 70
   128
 71
   30
 72
   54
 73
   53
  0
VERTEX
  8
asianSushi01
 10
0.0
 20
0.0
 30
0.0
 70
   128
 71
   31
 72
   55
 73
   54
  0
VERTEX
  8
asianSushi01
 10
0.0
 20
0.0
 30
0.0
 70
   128
 71
   32
 72
   56
 73
   55
  0
VERTEX
  8
asianSushi01
 10
0.0
 20
0.0
 30
0.0
 70
   128
 71
   33
 72
   57
 73
   56
  0
VERTEX
  8
asianSushi01
 10
0.0
 20
0.0
 30
0.0
 70
   128
 71
   34
 72
   58
 73
   57
  0
VERTEX
  8
asianSushi01
 10
0.0
 20
0.0
 30
0.0
 70
   128
 71
   35
 72
   59
 73
   58
  0
VERTEX
  8
asianSushi01
 10
0.0
 20
0.0
 30
0.0
 70
   128
 71
   36
 72
   60
 73
   59
  0
VERTEX
  8
asianSushi01
 10
0.0
 20
0.0
 30
0.0
 70
   128
 71
   37
 72
   61
 73
   60
  0
VERTEX
  8
asianSushi01
 10
0.0
 20
0.0
 30
0.0
 70
   128
 71
   38
 72
   62
 73
   61
  0
VERTEX
  8
asianSushi01
 10
0.0
 20
0.0
 30
0.0
 70
   128
 71
   27
 72
   51
 73
   62
  0
VERTEX
  8
asianSushi01
 10
0.0
 20
0.0
 30
0.0
 70
   128
 71
   39
 72
   63
 73
   64
  0
VERTEX
  8
asianSushi01
 10
0.0
 20
0.0
 30
0.0
 70
   128
 71
   40
 72
   64
 73
   65
  0
VERTEX
  8
asianSushi01
 10
0.0
 20
0.0
 30
0.0
 70
   128
 71
   41
 72
   65
 73
   66
  0
VERTEX
  8
asianSushi01
 10
0.0
 20
0.0
 30
0.0
 70
   128
 71
   42
 72
   66
 73
   67
  0
VERTEX
  8
asianSushi01
 10
0.0
 20
0.0
 30
0.0
 70
   128
 71
   43
 72
   67
 73
   68
  0
VERTEX
  8
asianSushi01
 10
0.0
 20
0.0
 30
0.0
 70
   128
 71
   44
 72
   68
 73
   69
  0
VERTEX
  8
asianSushi01
 10
0.0
 20
0.0
 30
0.0
 70
   128
 71
   45
 72
   69
 73
   70
  0
VERTEX
  8
asianSushi01
 10
0.0
 20
0.0
 30
0.0
 70
   128
 71
   46
 72
   70
 73
   71
  0
VERTEX
  8
asianSushi01
 10
0.0
 20
0.0
 30
0.0
 70
   128
 71
   47
 72
   71
 73
   72
  0
VERTEX
  8
asianSushi01
 10
0.0
 20
0.0
 30
0.0
 70
   128
 71
   48
 72
   72
 73
   73
  0
VERTEX
  8
asianSushi01
 10
0.0
 20
0.0
 30
0.0
 70
   128
 71
   49
 72
   73
 73
   74
  0
VERTEX
  8
asianSushi01
 10
0.0
 20
0.0
 30
0.0
 70
   128
 71
   50
 72
   74
 73
   63
  0
VERTEX
  8
asianSushi01
 10
0.0
 20
0.0
 30
0.0
 70
   128
 71
   52
 72
   76
 73
   75
  0
VERTEX
  8
asianSushi01
 10
0.0
 20
0.0
 30
0.0
 70
   128
 71
   53
 72
   77
 73
   76
  0
VERTEX
  8
asianSushi01
 10
0.0
 20
0.0
 30
0.0
 70
   128
 71
   54
 72
   78
 73
   77
  0
VERTEX
  8
asianSushi01
 10
0.0
 20
0.0
 30
0.0
 70
   128
 71
   55
 72
   79
 73
   78
  0
VERTEX
  8
asianSushi01
 10
0.0
 20
0.0
 30
0.0
 70
   128
 71
   56
 72
   80
 73
   79
  0
VERTEX
  8
asianSushi01
 10
0.0
 20
0.0
 30
0.0
 70
   128
 71
   57
 72
   81
 73
   80
  0
VERTEX
  8
asianSushi01
 10
0.0
 20
0.0
 30
0.0
 70
   128
 71
   58
 72
   82
 73
   81
  0
VERTEX
  8
asianSushi01
 10
0.0
 20
0.0
 30
0.0
 70
   128
 71
   59
 72
   83
 73
   82
  0
VERTEX
  8
asianSushi01
 10
0.0
 20
0.0
 30
0.0
 70
   128
 71
   60
 72
   84
 73
   83
  0
VERTEX
  8
asianSushi01
 10
0.0
 20
0.0
 30
0.0
 70
   128
 71
   61
 72
   85
 73
   84
  0
VERTEX
  8
asianSushi01
 10
0.0
 20
0.0
 30
0.0
 70
   128
 71
   62
 72
   86
 73
   85
  0
VERTEX
  8
asianSushi01
 10
0.0
 20
0.0
 30
0.0
 70
   128
 71
   51
 72
   75
 73
   86
  0
VERTEX
  8
asianSushi01
 10
0.0
 20
0.0
 30
0.0
 70
   128
 71
   63
 72
   87
 73
   88
  0
VERTEX
  8
asianSushi01
 10
0.0
 20
0.0
 30
0.0
 70
   128
 71
   64
 72
   88
 73
   89
  0
VERTEX
  8
asianSushi01
 10
0.0
 20
0.0
 30
0.0
 70
   128
 71
   86
 72
   79
 73
   84
  0
VERTEX
  8
asianSushi01
 10
0.0
 20
0.0
 30
0.0
 70
   128
 71
   3
 72
   6
 73
   5
  0
VERTEX
  8
asianSushi01
 10
0.0
 20
0.0
 30
0.0
 70
   128
 71
   88
 72
   91
 73
   90
  0
VERTEX
  8
asianSushi01
 10
0.0
 20
0.0
 30
0.0
 70
   128
 71
   5
 72
   8
 73
   7
  0
VERTEX
  8
asianSushi01
 10
0.0
 20
0.0
 30
0.0
 70
   128
 71
   75
 72
   78
 73
   79
  0
VERTEX
  8
asianSushi01
 10
0.0
 20
0.0
 30
0.0
 70
   128
 71
   7
 72
   10
 73
   9
  0
VERTEX
  8
asianSushi01
 10
0.0
 20
0.0
 30
0.0
 70
   128
 71
   79
 72
   82
 73
   84
  0
VERTEX
  8
asianSushi01
 10
0.0
 20
0.0
 30
0.0
 70
   128
 71
   9
 72
   12
 73
   11
  0
VERTEX
  8
asianSushi01
 10
0.0
 20
0.0
 30
0.0
 70
   128
 71
   91
 72
   2
 73
   96
  0
VERTEX
  8
asianSushi01
 10
0.0
 20
0.0
 30
0.0
 70
   128
 71
   11
 72
   14
 73
   13
  0
VERTEX
  8
asianSushi01
 10
0.0
 20
0.0
 30
0.0
 70
   128
 71
   13
 72
   16
 73
   15
  0
VERTEX
  8
asianSushi01
 10
0.0
 20
0.0
 30
0.0
 70
   128
 71
   91
 72
   94
 73
   92
  0
VERTEX
  8
asianSushi01
 10
0.0
 20
0.0
 30
0.0
 70
   128
 71
   15
 72
   18
 73
   17
  0
VERTEX
  8
asianSushi01
 10
0.0
 20
0.0
 30
0.0
 70
   128
 71
   65
 72
   90
 73
   66
  0
VERTEX
  8
asianSushi01
 10
0.0
 20
0.0
 30
0.0
 70
   128
 71
   17
 72
   20
 73
   19
  0
VERTEX
  8
asianSushi01
 10
0.0
 20
0.0
 30
0.0
 70
   128
 71
   66
 72
   91
 73
   67
  0
VERTEX
  8
asianSushi01
 10
0.0
 20
0.0
 30
0.0
 70
   128
 71
   67
 72
   92
 73
   68
  0
VERTEX
  8
asianSushi01
 10
0.0
 20
0.0
 30
0.0
 70
   128
 71
   19
 72
   22
 73
   21
  0
VERTEX
  8
asianSushi01
 10
0.0
 20
0.0
 30
0.0
 70
   128
 71
   68
 72
   93
 73
   69
  0
VERTEX
  8
asianSushi01
 10
0.0
 20
0.0
 30
0.0
 70
   128
 71
   69
 72
   94
 73
   70
  0
VERTEX
  8
asianSushi01
 10
0.0
 20
0.0
 30
0.0
 70
   128
 71
   21
 72
   24
 73
   23
  0
VERTEX
  8
asianSushi01
 10
0.0
 20
0.0
 30
0.0
 70
   128
 71
   70
 72
   95
 73
   71
  0
VERTEX
  8
asianSushi01
 10
0.0
 20
0.0
 30
0.0
 70
   128
 71
   71
 72
   96
 73
   72
  0
VERTEX
  8
asianSushi01
 10
0.0
 20
0.0
 30
0.0
 70
   128
 71
   23
 72
   26
 73
   25
  0
VERTEX
  8
asianSushi01
 10
0.0
 20
0.0
 30
0.0
 70
   128
 71
   72
 72
   1
 73
   73
  0
VERTEX
  8
asianSushi01
 10
0.0
 20
0.0
 30
0.0
 70
   128
 71
   73
 72
   2
 73
   74
  0
VERTEX
  8
asianSushi01
 10
0.0
 20
0.0
 30
0.0
 70
   128
 71
   25
 72
   4
 73
   3
  0
VERTEX
  8
asianSushi01
 10
0.0
 20
0.0
 30
0.0
 70
   128
 71
   74
 72
   87
 73
   63
  0
VERTEX
  8
asianSushi01
 10
0.0
 20
0.0
 30
0.0
 70
   128
 71
   5
 72
   27
 73
   3
  0
VERTEX
  8
asianSushi01
 10
0.0
 20
0.0
 30
0.0
 70
   128
 71
   7
 72
   28
 73
   5
  0
VERTEX
  8
asianSushi01
 10
0.0
 20
0.0
 30
0.0
 70
   128
 71
   9
 72
   29
 73
   7
  0
VERTEX
  8
asianSushi01
 10
0.0
 20
0.0
 30
0.0
 70
   128
 71
   11
 72
   30
 73
   9
  0
VERTEX
  8
asianSushi01
 10
0.0
 20
0.0
 30
0.0
 70
   128
 71
   13
 72
   31
 73
   11
  0
VERTEX
  8
asianSushi01
 10
0.0
 20
0.0
 30
0.0
 70
   128
 71
   15
 72
   32
 73
   13
  0
VERTEX
  8
asianSushi01
 10
0.0
 20
0.0
 30
0.0
 70
   128
 71
   17
 72
   33
 73
   15
  0
VERTEX
  8
asianSushi01
 10
0.0
 20
0.0
 30
0.0
 70
   128
 71
   19
 72
   34
 73
   17
  0
VERTEX
  8
asianSushi01
 10
0.0
 20
0.0
 30
0.0
 70
   128
 71
   21
 72
   35
 73
   19
  0
VERTEX
  8
asianSushi01
 10
0.0
 20
0.0
 30
0.0
 70
   128
 71
   23
 72
   36
 73
   21
  0
VERTEX
  8
asianSushi01
 10
0.0
 20
0.0
 30
0.0
 70
   128
 71
   25
 72
   37
 73
   23
  0
VERTEX
  8
asianSushi01
 10
0.0
 20
0.0
 30
0.0
 70
   128
 71
   3
 72
   38
 73
   25
  0
VERTEX
  8
asianSushi01
 10
0.0
 20
0.0
 30
0.0
 70
   128
 71
   4
 72
   40
 73
   6
  0
VERTEX
  8
asianSushi01
 10
0.0
 20
0.0
 30
0.0
 70
   128
 71
   6
 72
   41
 73
   8
  0
VERTEX
  8
asianSushi01
 10
0.0
 20
0.0
 30
0.0
 70
   128
 71
   8
 72
   42
 73
   10
  0
VERTEX
  8
asianSushi01
 10
0.0
 20
0.0
 30
0.0
 70
   128
 71
   10
 72
   43
 73
   12
  0
VERTEX
  8
asianSushi01
 10
0.0
 20
0.0
 30
0.0
 70
   128
 71
   12
 72
   44
 73
   14
  0
VERTEX
  8
asianSushi01
 10
0.0
 20
0.0
 30
0.0
 70
   128
 71
   14
 72
   45
 73
   16
  0
VERTEX
  8
asianSushi01
 10
0.0
 20
0.0
 30
0.0
 70
   128
 71
   16
 72
   46
 73
   18
  0
VERTEX
  8
asianSushi01
 10
0.0
 20
0.0
 30
0.0
 70
   128
 71
   18
 72
   47
 73
   20
  0
VERTEX
  8
asianSushi01
 10
0.0
 20
0.0
 30
0.0
 70
   128
 71
   20
 72
   48
 73
   22
  0
VERTEX
  8
asianSushi01
 10
0.0
 20
0.0
 30
0.0
 70
   128
 71
   22
 72
   49
 73
   24
  0
VERTEX
  8
asianSushi01
 10
0.0
 20
0.0
 30
0.0
 70
   128
 71
   24
 72
   50
 73
   26
  0
VERTEX
  8
asianSushi01
 10
0.0
 20
0.0
 30
0.0
 70
   128
 71
   26
 72
   39
 73
   4
  0
VERTEX
  8
asianSushi01
 10
0.0
 20
0.0
 30
0.0
 70
   128
 71
   28
 72
   51
 73
   27
  0
VERTEX
  8
asianSushi01
 10
0.0
 20
0.0
 30
0.0
 70
   128
 71
   29
 72
   52
 73
   28
  0
VERTEX
  8
asianSushi01
 10
0.0
 20
0.0
 30
0.0
 70
   128
 71
   30
 72
   53
 73
   29
  0
VERTEX
  8
asianSushi01
 10
0.0
 20
0.0
 30
0.0
 70
   128
 71
   31
 72
   54
 73
   30
  0
VERTEX
  8
asianSushi01
 10
0.0
 20
0.0
 30
0.0
 70
   128
 71
   32
 72
   55
 73
   31
  0
VERTEX
  8
asianSushi01
 10
0.0
 20
0.0
 30
0.0
 70
   128
 71
   33
 72
   56
 73
   32
  0
VERTEX
  8
asianSushi01
 10
0.0
 20
0.0
 30
0.0
 70
   128
 71
   34
 72
   57
 73
   33
  0
VERTEX
  8
asianSushi01
 10
0.0
 20
0.0
 30
0.0
 70
   128
 71
   35
 72
   58
 73
   34
  0
VERTEX
  8
asianSushi01
 10
0.0
 20
0.0
 30
0.0
 70
   128
 71
   36
 72
   59
 73
   35
  0
VERTEX
  8
asianSushi01
 10
0.0
 20
0.0
 30
0.0
 70
   128
 71
   37
 72
   60
 73
   36
  0
VERTEX
  8
asianSushi01
 10
0.0
 20
0.0
 30
0.0
 70
   128
 71
   38
 72
   61
 73
   37
  0
VERTEX
  8
asianSushi01
 10
0.0
 20
0.0
 30
0.0
 70
   128
 71
   27
 72
   62
 73
   38
  0
VERTEX
  8
asianSushi01
 10
0.0
 20
0.0
 30
0.0
 70
   128
 71
   39
 72
   64
 73
   40
  0
VERTEX
  8
asianSushi01
 10
0.0
 20
0.0
 30
0.0
 70
   128
 71
   40
 72
   65
 73
   41
  0
VERTEX
  8
asianSushi01
 10
0.0
 20
0.0
 30
0.0
 70
   128
 71
   41
 72
   66
 73
   42
  0
VERTEX
  8
asianSushi01
 10
0.0
 20
0.0
 30
0.0
 70
   128
 71
   42
 72
   67
 73
   43
  0
VERTEX
  8
asianSushi01
 10
0.0
 20
0.0
 30
0.0
 70
   128
 71
   43
 72
   68
 73
   44
  0
VERTEX
  8
asianSushi01
 10
0.0
 20
0.0
 30
0.0
 70
   128
 71
   44
 72
   69
 73
   45
  0
VERTEX
  8
asianSushi01
 10
0.0
 20
0.0
 30
0.0
 70
   128
 71
   45
 72
   70
 73
   46
  0
VERTEX
  8
asianSushi01
 10
0.0
 20
0.0
 30
0.0
 70
   128
 71
   46
 72
   71
 73
   47
  0
VERTEX
  8
asianSushi01
 10
0.0
 20
0.0
 30
0.0
 70
   128
 71
   47
 72
   72
 73
   48
  0
VERTEX
  8
asianSushi01
 10
0.0
 20
0.0
 30
0.0
 70
   128
 71
   48
 72
   73
 73
   49
  0
VERTEX
  8
asianSushi01
 10
0.0
 20
0.0
 30
0.0
 70
   128
 71
   49
 72
   74
 73
   50
  0
VERTEX
  8
asianSushi01
 10
0.0
 20
0.0
 30
0.0
 70
   128
 71
   50
 72
   63
 73
   39
  0
VERTEX
  8
asianSushi01
 10
0.0
 20
0.0
 30
0.0
 70
   128
 71
   52
 72
   75
 73
   51
  0
VERTEX
  8
asianSushi01
 10
0.0
 20
0.0
 30
0.0
 70
   128
 71
   53
 72
   76
 73
   52
  0
VERTEX
  8
asianSushi01
 10
0.0
 20
0.0
 30
0.0
 70
   128
 71
   54
 72
   77
 73
   53
  0
VERTEX
  8
asianSushi01
 10
0.0
 20
0.0
 30
0.0
 70
   128
 71
   55
 72
   78
 73
   54
  0
VERTEX
  8
asianSushi01
 10
0.0
 20
0.0
 30
0.0
 70
   128
 71
   56
 72
   79
 73
   55
  0
VERTEX
  8
asianSushi01
 10
0.0
 20
0.0
 30
0.0
 70
   128
 71
   57
 72
   80
 73
   56
  0
VERTEX
  8
asianSushi01
 10
0.0
 20
0.0
 30
0.0
 70
   128
 71
   58
 72
   81
 73
   57
  0
VERTEX
  8
asianSushi01
 10
0.0
 20
0.0
 30
0.0
 70
   128
 71
   59
 72
   82
 73
   58
  0
VERTEX
  8
asianSushi01
 10
0.0
 20
0.0
 30
0.0
 70
   128
 71
   60
 72
   83
 73
   59
  0
VERTEX
  8
asianSushi01
 10
0.0
 20
0.0
 30
0.0
 70
   128
 71
   61
 72
   84
 73
   60
  0
VERTEX
  8
asianSushi01
 10
0.0
 20
0.0
 30
0.0
 70
   128
 71
   62
 72
   85
 73
   61
  0
VERTEX
  8
asianSushi01
 10
0.0
 20
0.0
 30
0.0
 70
   128
 71
   51
 72
   86
 73
   62
  0
VERTEX
  8
asianSushi01
 10
0.0
 20
0.0
 30
0.0
 70
   128
 71
   63
 72
   88
 73
   64
  0
VERTEX
  8
asianSushi01
 10
0.0
 20
0.0
 30
0.0
 70
   128
 71
   64
 72
   89
 73
   65
  0
SEQEND
  0
ENDSEC
  0
EOF
