999
FBX AutoCAD (*.DXF) exporter
  0
SECTION
  2
HEADER
  9
$ACADVER
  1
AC1008
  9
$UCSORG
 10
0.0
 20
0.0
 30
0.0
  9
$UCSXDIR
 10
1.0
 20
0.0
 30
0.0
  9
$TILEMODE
 70
   1
  9
$UCSYDIR
 10
0.0
 20
1.0
 30
0.0
  0
ENDSEC
  0
SECTION
  2
TABLES
  0
TABLE
  2
LTYPE
 70
   1
  0
LTYPE
  2
CONTINUOUS
 70
   64
  3
Solid line
 72
   65
 73
   0
 40
0.0
  0
ENDTAB
  0
TABLE
  2
LAYER
 70
   3
  0
LAYER
  2
bottle
 70
   0
 62
   250
  6
CONTINUOUS
  0
LAYER
  2
bottleCap
 70
   0
 62
   250
  6
CONTINUOUS
  0
ENDTAB
  0
ENDSEC
  0
SECTION
  2
BLOCKS
  0
ENDSEC
  0
SECTION
  2
ENTITIES
  0
POLYLINE
  8
bottle
 66
   1
 10
0.0
 20
0.0
 30
0.0
 70
   64
 71
   88
 72
   172
  0
VERTEX
  8
bottle
 10
-23.617528
 20
129.755261
 30
37.492651
 70
   192
  0
VERTEX
  8
bottle
 10
20.042400
 20
142.284018
 30
12.019247
 70
   192
  0
VERTEX
  8
bottle
 10
58.918916
 20
0.000000
 30
0.000000
 70
   192
  0
VERTEX
  8
bottle
 10
67.105826
 20
129.755261
 30
0.000000
 70
   192
  0
VERTEX
  8
bottle
 10
-23.617528
 20
7.514252
 30
37.492651
 70
   192
  0
VERTEX
  8
bottle
 10
-20.042400
 20
142.284018
 30
-12.019247
 70
   192
  0
VERTEX
  8
bottle
 10
23.617528
 20
129.755261
 30
37.492651
 70
   192
  0
VERTEX
  8
bottle
 10
23.617528
 20
7.514252
 30
37.492651
 70
   192
  0
VERTEX
  8
bottle
 10
-58.918916
 20
0.000000
 30
0.000000
 70
   192
  0
VERTEX
  8
bottle
 10
-67.105826
 20
129.755261
 30
0.000000
 70
   192
  0
VERTEX
  8
bottle
 10
-51.025278
 20
0.000000
 30
18.173052
 70
   192
  0
VERTEX
  8
bottle
 10
-58.115350
 20
129.755261
 30
20.698236
 70
   192
  0
VERTEX
  8
bottle
 10
-29.459458
 20
0.000000
 30
31.476649
 70
   192
  0
VERTEX
  8
bottle
 10
-33.552913
 20
129.755261
 30
35.850397
 70
   192
  0
VERTEX
  8
bottle
 10
-11.517615
 20
142.284018
 30
-20.725847
 70
   192
  0
VERTEX
  8
bottle
 10
29.459458
 20
0.000000
 30
31.476649
 70
   192
  0
VERTEX
  8
bottle
 10
33.552913
 20
129.755261
 30
35.850397
 70
   192
  0
VERTEX
  8
bottle
 10
51.025278
 20
0.000000
 30
18.173052
 70
   192
  0
VERTEX
  8
bottle
 10
58.115350
 20
129.755261
 30
20.698236
 70
   192
  0
VERTEX
  8
bottle
 10
45.477646
 20
151.951644
 30
0.000000
 70
   192
  0
VERTEX
  8
bottle
 10
-45.477646
 20
151.951644
 30
0.000000
 70
   192
  0
VERTEX
  8
bottle
 10
-39.384796
 20
151.951644
 30
18.183300
 70
   192
  0
VERTEX
  8
bottle
 10
-22.738823
 20
151.951644
 30
31.494399
 70
   192
  0
VERTEX
  8
bottle
 10
-0.000000
 20
151.951644
 30
36.366599
 70
   192
  0
VERTEX
  8
bottle
 10
22.738823
 20
151.951644
 30
31.494399
 70
   192
  0
VERTEX
  8
bottle
 10
39.384796
 20
151.951644
 30
18.183300
 70
   192
  0
VERTEX
  8
bottle
 10
33.327346
 20
167.484018
 30
0.000000
 70
   192
  0
VERTEX
  8
bottle
 10
-33.327346
 20
167.484018
 30
0.000000
 70
   192
  0
VERTEX
  8
bottle
 10
-28.862329
 20
167.484018
 30
17.019075
 70
   192
  0
VERTEX
  8
bottle
 10
-16.663673
 20
167.484018
 30
29.477902
 70
   192
  0
VERTEX
  8
bottle
 10
-0.000000
 20
167.484018
 30
34.038149
 70
   192
  0
VERTEX
  8
bottle
 10
16.663673
 20
167.484018
 30
29.477902
 70
   192
  0
VERTEX
  8
bottle
 10
28.862329
 20
167.484018
 30
17.019075
 70
   192
  0
VERTEX
  8
bottle
 10
67.105826
 20
7.514252
 30
0.000000
 70
   192
  0
VERTEX
  8
bottle
 10
-67.105826
 20
7.514252
 30
0.000000
 70
   192
  0
VERTEX
  8
bottle
 10
-58.115350
 20
7.514252
 30
20.698236
 70
   192
  0
VERTEX
  8
bottle
 10
-33.552913
 20
7.514252
 30
35.850397
 70
   192
  0
VERTEX
  8
bottle
 10
33.552913
 20
7.514252
 30
35.850397
 70
   192
  0
VERTEX
  8
bottle
 10
58.115350
 20
7.514252
 30
20.698236
 70
   192
  0
VERTEX
  8
bottle
 10
23.195694
 20
167.484018
 30
0.000000
 70
   192
  0
VERTEX
  8
bottle
 10
-23.195694
 20
167.484018
 30
0.000000
 70
   192
  0
VERTEX
  8
bottle
 10
-20.042400
 20
167.484018
 30
12.019247
 70
   192
  0
VERTEX
  8
bottle
 10
-11.517615
 20
167.484018
 30
20.725847
 70
   192
  0
VERTEX
  8
bottle
 10
-0.000000
 20
167.484018
 30
23.877804
 70
   192
  0
VERTEX
  8
bottle
 10
11.517615
 20
167.484018
 30
20.725847
 70
   192
  0
VERTEX
  8
bottle
 10
20.042400
 20
167.484018
 30
12.019247
 70
   192
  0
VERTEX
  8
bottle
 10
23.195694
 20
142.284018
 30
0.000000
 70
   192
  0
VERTEX
  8
bottle
 10
-0.000000
 20
146.982479
 30
37.492651
 70
   192
  0
VERTEX
  8
bottle
 10
-23.195694
 20
142.284018
 30
0.000000
 70
   192
  0
VERTEX
  8
bottle
 10
-20.042400
 20
142.284018
 30
12.019247
 70
   192
  0
VERTEX
  8
bottle
 10
-11.517615
 20
142.284018
 30
20.725847
 70
   192
  0
VERTEX
  8
bottle
 10
-0.000000
 20
142.284018
 30
23.877804
 70
   192
  0
VERTEX
  8
bottle
 10
11.517615
 20
142.284018
 30
20.725847
 70
   192
  0
VERTEX
  8
bottle
 10
-23.617528
 20
129.755261
 30
-37.492651
 70
   192
  0
VERTEX
  8
bottle
 10
20.042400
 20
142.284018
 30
-12.019247
 70
   192
  0
VERTEX
  8
bottle
 10
-23.617528
 20
7.514252
 30
-37.492651
 70
   192
  0
VERTEX
  8
bottle
 10
-0.000000
 20
142.284018
 30
-23.877804
 70
   192
  0
VERTEX
  8
bottle
 10
23.617528
 20
129.755261
 30
-37.492651
 70
   192
  0
VERTEX
  8
bottle
 10
23.617528
 20
7.514252
 30
-37.492651
 70
   192
  0
VERTEX
  8
bottle
 10
-51.025278
 20
0.000000
 30
-18.173052
 70
   192
  0
VERTEX
  8
bottle
 10
-58.115350
 20
129.755261
 30
-20.698236
 70
   192
  0
VERTEX
  8
bottle
 10
-29.459458
 20
0.000000
 30
-31.476649
 70
   192
  0
VERTEX
  8
bottle
 10
-33.552913
 20
129.755261
 30
-35.850397
 70
   192
  0
VERTEX
  8
bottle
 10
11.517615
 20
142.284018
 30
-20.725847
 70
   192
  0
VERTEX
  8
bottle
 10
29.459458
 20
0.000000
 30
-31.476649
 70
   192
  0
VERTEX
  8
bottle
 10
33.552913
 20
129.755261
 30
-35.850397
 70
   192
  0
VERTEX
  8
bottle
 10
51.025278
 20
0.000000
 30
-18.173052
 70
   192
  0
VERTEX
  8
bottle
 10
58.115350
 20
129.755261
 30
-20.698236
 70
   192
  0
VERTEX
  8
bottle
 10
-39.384796
 20
151.951644
 30
-18.183300
 70
   192
  0
VERTEX
  8
bottle
 10
-22.738823
 20
151.951644
 30
-31.494399
 70
   192
  0
VERTEX
  8
bottle
 10
-0.000000
 20
151.951644
 30
-36.366599
 70
   192
  0
VERTEX
  8
bottle
 10
22.738823
 20
151.951644
 30
-31.494399
 70
   192
  0
VERTEX
  8
bottle
 10
39.384796
 20
151.951644
 30
-18.183300
 70
   192
  0
VERTEX
  8
bottle
 10
-28.862329
 20
167.484018
 30
-17.019075
 70
   192
  0
VERTEX
  8
bottle
 10
-16.663673
 20
167.484018
 30
-29.477902
 70
   192
  0
VERTEX
  8
bottle
 10
-0.000000
 20
167.484018
 30
-34.038149
 70
   192
  0
VERTEX
  8
bottle
 10
16.663673
 20
167.484018
 30
-29.477902
 70
   192
  0
VERTEX
  8
bottle
 10
28.862329
 20
167.484018
 30
-17.019075
 70
   192
  0
VERTEX
  8
bottle
 10
-58.115350
 20
7.514252
 30
-20.698236
 70
   192
  0
VERTEX
  8
bottle
 10
-33.552913
 20
7.514252
 30
-35.850397
 70
   192
  0
VERTEX
  8
bottle
 10
33.552913
 20
7.514252
 30
-35.850397
 70
   192
  0
VERTEX
  8
bottle
 10
58.115350
 20
7.514252
 30
-20.698236
 70
   192
  0
VERTEX
  8
bottle
 10
-20.042400
 20
167.484018
 30
-12.019247
 70
   192
  0
VERTEX
  8
bottle
 10
-11.517615
 20
167.484018
 30
-20.725847
 70
   192
  0
VERTEX
  8
bottle
 10
-0.000000
 20
167.484018
 30
-23.877804
 70
   192
  0
VERTEX
  8
bottle
 10
11.517615
 20
167.484018
 30
-20.725847
 70
   192
  0
VERTEX
  8
bottle
 10
20.042400
 20
167.484018
 30
-12.019247
 70
   192
  0
VERTEX
  8
bottle
 10
-0.000000
 20
146.982479
 30
-37.492651
 70
   192
  0
VERTEX
  8
bottle
 10
0.0
 20
0.0
 30
0.0
 70
   128
 71
   10
 72
   21
 73
   22
  0
VERTEX
  8
bottle
 10
0.0
 20
0.0
 30
0.0
 70
   128
 71
   17
 72
   25
 73
   26
  0
VERTEX
  8
bottle
 10
0.0
 20
0.0
 30
0.0
 70
   128
 71
   32
 72
   45
 73
   46
  0
VERTEX
  8
bottle
 10
0.0
 20
0.0
 30
0.0
 70
   128
 71
   12
 72
   22
 73
   23
  0
VERTEX
  8
bottle
 10
0.0
 20
0.0
 30
0.0
 70
   128
 71
   19
 72
   26
 73
   20
  0
VERTEX
  8
bottle
 10
0.0
 20
0.0
 30
0.0
 70
   128
 71
   75
 72
   76
 73
   85
  0
VERTEX
  8
bottle
 10
0.0
 20
0.0
 30
0.0
 70
   128
 71
   14
 72
   23
 73
   1
  0
VERTEX
  8
bottle
 10
0.0
 20
0.0
 30
0.0
 70
   128
 71
   21
 72
   28
 73
   29
  0
VERTEX
  8
bottle
 10
0.0
 20
0.0
 30
0.0
 70
   128
 71
   76
 72
   77
 73
   86
  0
VERTEX
  8
bottle
 10
0.0
 20
0.0
 30
0.0
 70
   128
 71
   25
 72
   7
 73
   48
  0
VERTEX
  8
bottle
 10
0.0
 20
0.0
 30
0.0
 70
   128
 71
   22
 72
   29
 73
   30
  0
VERTEX
  8
bottle
 10
0.0
 20
0.0
 30
0.0
 70
   128
 71
   25
 72
   17
 73
   7
  0
VERTEX
  8
bottle
 10
0.0
 20
0.0
 30
0.0
 70
   128
 71
   23
 72
   30
 73
   31
  0
VERTEX
  8
bottle
 10
0.0
 20
0.0
 30
0.0
 70
   128
 71
   24
 72
   31
 73
   32
  0
VERTEX
  8
bottle
 10
0.0
 20
0.0
 30
0.0
 70
   128
 71
   25
 72
   32
 73
   33
  0
VERTEX
  8
bottle
 10
0.0
 20
0.0
 30
0.0
 70
   128
 71
   33
 72
   46
 73
   40
  0
VERTEX
  8
bottle
 10
0.0
 20
0.0
 30
0.0
 70
   128
 71
   26
 72
   33
 73
   27
  0
VERTEX
  8
bottle
 10
0.0
 20
0.0
 30
0.0
 70
   128
 71
   16
 72
   8
 73
   38
  0
VERTEX
  8
bottle
 10
0.0
 20
0.0
 30
0.0
 70
   128
 71
   35
 72
   10
 73
   12
  0
VERTEX
  8
bottle
 10
0.0
 20
0.0
 30
0.0
 70
   128
 71
   9
 72
   35
 73
   36
  0
VERTEX
  8
bottle
 10
0.0
 20
0.0
 30
0.0
 70
   128
 71
   41
 72
   49
 73
   50
  0
VERTEX
  8
bottle
 10
0.0
 20
0.0
 30
0.0
 70
   128
 71
   37
 72
   13
 73
   11
  0
VERTEX
  8
bottle
 10
0.0
 20
0.0
 30
0.0
 70
   128
 71
   36
 72
   12
 73
   14
  0
VERTEX
  8
bottle
 10
0.0
 20
0.0
 30
0.0
 70
   128
 71
   42
 72
   50
 73
   51
  0
VERTEX
  8
bottle
 10
0.0
 20
0.0
 30
0.0
 70
   128
 71
   5
 72
   37
 73
   14
  0
VERTEX
  8
bottle
 10
0.0
 20
0.0
 30
0.0
 70
   128
 71
   13
 72
   37
 73
   5
  0
VERTEX
  8
bottle
 10
0.0
 20
0.0
 30
0.0
 70
   128
 71
   5
 72
   8
 73
   16
  0
VERTEX
  8
bottle
 10
0.0
 20
0.0
 30
0.0
 70
   128
 71
   43
 72
   51
 73
   52
  0
VERTEX
  8
bottle
 10
0.0
 20
0.0
 30
0.0
 70
   128
 71
   16
 72
   18
 73
   67
  0
VERTEX
  8
bottle
 10
0.0
 20
0.0
 30
0.0
 70
   128
 71
   7
 72
   17
 73
   38
  0
VERTEX
  8
bottle
 10
0.0
 20
0.0
 30
0.0
 70
   128
 71
   44
 72
   52
 73
   53
  0
VERTEX
  8
bottle
 10
0.0
 20
0.0
 30
0.0
 70
   128
 71
   7
 72
   8
 73
   5
  0
VERTEX
  8
bottle
 10
0.0
 20
0.0
 30
0.0
 70
   128
 71
   16
 72
   38
 73
   39
  0
VERTEX
  8
bottle
 10
0.0
 20
0.0
 30
0.0
 70
   128
 71
   45
 72
   53
 73
   2
  0
VERTEX
  8
bottle
 10
0.0
 20
0.0
 30
0.0
 70
   128
 71
   48
 72
   7
 73
   1
  0
VERTEX
  8
bottle
 10
0.0
 20
0.0
 30
0.0
 70
   128
 71
   39
 72
   19
 73
   4
  0
VERTEX
  8
bottle
 10
0.0
 20
0.0
 30
0.0
 70
   128
 71
   46
 72
   2
 73
   47
  0
VERTEX
  8
bottle
 10
0.0
 20
0.0
 30
0.0
 70
   128
 71
   38
 72
   17
 73
   19
  0
VERTEX
  8
bottle
 10
0.0
 20
0.0
 30
0.0
 70
   128
 71
   34
 72
   3
 73
   18
  0
VERTEX
  8
bottle
 10
0.0
 20
0.0
 30
0.0
 70
   128
 71
   16
 72
   65
 73
   62
  0
VERTEX
  8
bottle
 10
0.0
 20
0.0
 30
0.0
 70
   128
 71
   28
 72
   41
 73
   42
  0
VERTEX
  8
bottle
 10
0.0
 20
0.0
 30
0.0
 70
   128
 71
   29
 72
   42
 73
   43
  0
VERTEX
  8
bottle
 10
0.0
 20
0.0
 30
0.0
 70
   128
 71
   30
 72
   43
 73
   44
  0
VERTEX
  8
bottle
 10
0.0
 20
0.0
 30
0.0
 70
   128
 71
   31
 72
   44
 73
   45
  0
VERTEX
  8
bottle
 10
0.0
 20
0.0
 30
0.0
 70
   128
 71
   23
 72
   24
 73
   48
  0
VERTEX
  8
bottle
 10
0.0
 20
0.0
 30
0.0
 70
   128
 71
   10
 72
   61
 73
   69
  0
VERTEX
  8
bottle
 10
0.0
 20
0.0
 30
0.0
 70
   128
 71
   66
 72
   68
 73
   73
  0
VERTEX
  8
bottle
 10
0.0
 20
0.0
 30
0.0
 70
   128
 71
   77
 72
   78
 73
   87
  0
VERTEX
  8
bottle
 10
0.0
 20
0.0
 30
0.0
 70
   128
 71
   61
 72
   63
 73
   70
  0
VERTEX
  8
bottle
 10
0.0
 20
0.0
 30
0.0
 70
   128
 71
   68
 72
   4
 73
   20
  0
VERTEX
  8
bottle
 10
0.0
 20
0.0
 30
0.0
 70
   128
 71
   70
 72
   54
 73
   88
  0
VERTEX
  8
bottle
 10
0.0
 20
0.0
 30
0.0
 70
   128
 71
   63
 72
   54
 73
   70
  0
VERTEX
  8
bottle
 10
0.0
 20
0.0
 30
0.0
 70
   128
 71
   21
 72
   69
 73
   74
  0
VERTEX
  8
bottle
 10
0.0
 20
0.0
 30
0.0
 70
   128
 71
   18
 72
   3
 73
   67
  0
VERTEX
  8
bottle
 10
0.0
 20
0.0
 30
0.0
 70
   128
 71
   72
 72
   71
 73
   88
  0
VERTEX
  8
bottle
 10
0.0
 20
0.0
 30
0.0
 70
   128
 71
   69
 72
   70
 73
   75
  0
VERTEX
  8
bottle
 10
0.0
 20
0.0
 30
0.0
 70
   128
 71
   72
 72
   58
 73
   66
  0
VERTEX
  8
bottle
 10
0.0
 20
0.0
 30
0.0
 70
   128
 71
   70
 72
   71
 73
   76
  0
VERTEX
  8
bottle
 10
0.0
 20
0.0
 30
0.0
 70
   128
 71
   71
 72
   72
 73
   77
  0
VERTEX
  8
bottle
 10
0.0
 20
0.0
 30
0.0
 70
   128
 71
   72
 72
   73
 73
   78
  0
VERTEX
  8
bottle
 10
0.0
 20
0.0
 30
0.0
 70
   128
 71
   78
 72
   27
 73
   40
  0
VERTEX
  8
bottle
 10
0.0
 20
0.0
 30
0.0
 70
   128
 71
   73
 72
   20
 73
   27
  0
VERTEX
  8
bottle
 10
0.0
 20
0.0
 30
0.0
 70
   128
 71
   65
 72
   81
 73
   59
  0
VERTEX
  8
bottle
 10
0.0
 20
0.0
 30
0.0
 70
   128
 71
   35
 72
   79
 73
   61
  0
VERTEX
  8
bottle
 10
0.0
 20
0.0
 30
0.0
 70
   128
 71
   9
 72
   60
 73
   79
  0
VERTEX
  8
bottle
 10
0.0
 20
0.0
 30
0.0
 70
   128
 71
   41
 72
   83
 73
   6
  0
VERTEX
  8
bottle
 10
0.0
 20
0.0
 30
0.0
 70
   128
 71
   80
 72
   79
 73
   60
  0
VERTEX
  8
bottle
 10
0.0
 20
0.0
 30
0.0
 70
   128
 71
   79
 72
   80
 73
   63
  0
VERTEX
  8
bottle
 10
0.0
 20
0.0
 30
0.0
 70
   128
 71
   83
 72
   84
 73
   15
  0
VERTEX
  8
bottle
 10
0.0
 20
0.0
 30
0.0
 70
   128
 71
   56
 72
   54
 73
   63
  0
VERTEX
  8
bottle
 10
0.0
 20
0.0
 30
0.0
 70
   128
 71
   62
 72
   56
 73
   80
  0
VERTEX
  8
bottle
 10
0.0
 20
0.0
 30
0.0
 70
   128
 71
   56
 72
   62
 73
   65
  0
VERTEX
  8
bottle
 10
0.0
 20
0.0
 30
0.0
 70
   128
 71
   84
 72
   85
 73
   57
  0
VERTEX
  8
bottle
 10
0.0
 20
0.0
 30
0.0
 70
   128
 71
   62
 72
   60
 73
   11
  0
VERTEX
  8
bottle
 10
0.0
 20
0.0
 30
0.0
 70
   128
 71
   58
 72
   59
 73
   81
  0
VERTEX
  8
bottle
 10
0.0
 20
0.0
 30
0.0
 70
   128
 71
   85
 72
   86
 73
   64
  0
VERTEX
  8
bottle
 10
0.0
 20
0.0
 30
0.0
 70
   128
 71
   58
 72
   54
 73
   56
  0
VERTEX
  8
bottle
 10
0.0
 20
0.0
 30
0.0
 70
   128
 71
   65
 72
   67
 73
   82
  0
VERTEX
  8
bottle
 10
0.0
 20
0.0
 30
0.0
 70
   128
 71
   86
 72
   87
 73
   55
  0
VERTEX
  8
bottle
 10
0.0
 20
0.0
 30
0.0
 70
   128
 71
   88
 72
   54
 73
   58
  0
VERTEX
  8
bottle
 10
0.0
 20
0.0
 30
0.0
 70
   128
 71
   82
 72
   34
 73
   4
  0
VERTEX
  8
bottle
 10
0.0
 20
0.0
 30
0.0
 70
   128
 71
   87
 72
   40
 73
   47
  0
VERTEX
  8
bottle
 10
0.0
 20
0.0
 30
0.0
 70
   128
 71
   81
 72
   82
 73
   68
  0
VERTEX
  8
bottle
 10
0.0
 20
0.0
 30
0.0
 70
   128
 71
   34
 72
   82
 73
   67
  0
VERTEX
  8
bottle
 10
0.0
 20
0.0
 30
0.0
 70
   128
 71
   60
 72
   9
 73
   11
  0
VERTEX
  8
bottle
 10
0.0
 20
0.0
 30
0.0
 70
   128
 71
   28
 72
   74
 73
   83
  0
VERTEX
  8
bottle
 10
0.0
 20
0.0
 30
0.0
 70
   128
 71
   74
 72
   75
 73
   84
  0
VERTEX
  8
bottle
 10
0.0
 20
0.0
 30
0.0
 70
   128
 71
   6
 72
   15
 73
   55
  0
VERTEX
  8
bottle
 10
0.0
 20
0.0
 30
0.0
 70
   128
 71
   15
 72
   57
 73
   64
  0
VERTEX
  8
bottle
 10
0.0
 20
0.0
 30
0.0
 70
   128
 71
   49
 72
   55
 73
   47
  0
VERTEX
  8
bottle
 10
0.0
 20
0.0
 30
0.0
 70
   128
 71
   50
 72
   49
 73
   2
  0
VERTEX
  8
bottle
 10
0.0
 20
0.0
 30
0.0
 70
   128
 71
   51
 72
   50
 73
   53
  0
VERTEX
  8
bottle
 10
0.0
 20
0.0
 30
0.0
 70
   128
 71
   10
 72
   22
 73
   12
  0
VERTEX
  8
bottle
 10
0.0
 20
0.0
 30
0.0
 70
   128
 71
   17
 72
   26
 73
   19
  0
VERTEX
  8
bottle
 10
0.0
 20
0.0
 30
0.0
 70
   128
 71
   32
 72
   46
 73
   33
  0
VERTEX
  8
bottle
 10
0.0
 20
0.0
 30
0.0
 70
   128
 71
   12
 72
   23
 73
   14
  0
VERTEX
  8
bottle
 10
0.0
 20
0.0
 30
0.0
 70
   128
 71
   19
 72
   20
 73
   4
  0
VERTEX
  8
bottle
 10
0.0
 20
0.0
 30
0.0
 70
   128
 71
   75
 72
   85
 73
   84
  0
VERTEX
  8
bottle
 10
0.0
 20
0.0
 30
0.0
 70
   128
 71
   21
 72
   29
 73
   22
  0
VERTEX
  8
bottle
 10
0.0
 20
0.0
 30
0.0
 70
   128
 71
   76
 72
   86
 73
   85
  0
VERTEX
  8
bottle
 10
0.0
 20
0.0
 30
0.0
 70
   128
 71
   25
 72
   48
 73
   24
  0
VERTEX
  8
bottle
 10
0.0
 20
0.0
 30
0.0
 70
   128
 71
   22
 72
   30
 73
   23
  0
VERTEX
  8
bottle
 10
0.0
 20
0.0
 30
0.0
 70
   128
 71
   23
 72
   31
 73
   24
  0
VERTEX
  8
bottle
 10
0.0
 20
0.0
 30
0.0
 70
   128
 71
   24
 72
   32
 73
   25
  0
VERTEX
  8
bottle
 10
0.0
 20
0.0
 30
0.0
 70
   128
 71
   25
 72
   33
 73
   26
  0
VERTEX
  8
bottle
 10
0.0
 20
0.0
 30
0.0
 70
   128
 71
   33
 72
   40
 73
   27
  0
VERTEX
  8
bottle
 10
0.0
 20
0.0
 30
0.0
 70
   128
 71
   26
 72
   27
 73
   20
  0
VERTEX
  8
bottle
 10
0.0
 20
0.0
 30
0.0
 70
   128
 71
   35
 72
   12
 73
   36
  0
VERTEX
  8
bottle
 10
0.0
 20
0.0
 30
0.0
 70
   128
 71
   9
 72
   36
 73
   11
  0
VERTEX
  8
bottle
 10
0.0
 20
0.0
 30
0.0
 70
   128
 71
   41
 72
   50
 73
   42
  0
VERTEX
  8
bottle
 10
0.0
 20
0.0
 30
0.0
 70
   128
 71
   37
 72
   11
 73
   36
  0
VERTEX
  8
bottle
 10
0.0
 20
0.0
 30
0.0
 70
   128
 71
   36
 72
   14
 73
   37
  0
VERTEX
  8
bottle
 10
0.0
 20
0.0
 30
0.0
 70
   128
 71
   42
 72
   51
 73
   43
  0
VERTEX
  8
bottle
 10
0.0
 20
0.0
 30
0.0
 70
   128
 71
   5
 72
   14
 73
   1
  0
VERTEX
  8
bottle
 10
0.0
 20
0.0
 30
0.0
 70
   128
 71
   5
 72
   16
 73
   13
  0
VERTEX
  8
bottle
 10
0.0
 20
0.0
 30
0.0
 70
   128
 71
   43
 72
   52
 73
   44
  0
VERTEX
  8
bottle
 10
0.0
 20
0.0
 30
0.0
 70
   128
 71
   16
 72
   67
 73
   65
  0
VERTEX
  8
bottle
 10
0.0
 20
0.0
 30
0.0
 70
   128
 71
   7
 72
   38
 73
   8
  0
VERTEX
  8
bottle
 10
0.0
 20
0.0
 30
0.0
 70
   128
 71
   44
 72
   53
 73
   45
  0
VERTEX
  8
bottle
 10
0.0
 20
0.0
 30
0.0
 70
   128
 71
   7
 72
   5
 73
   1
  0
VERTEX
  8
bottle
 10
0.0
 20
0.0
 30
0.0
 70
   128
 71
   16
 72
   39
 73
   18
  0
VERTEX
  8
bottle
 10
0.0
 20
0.0
 30
0.0
 70
   128
 71
   45
 72
   2
 73
   46
  0
VERTEX
  8
bottle
 10
0.0
 20
0.0
 30
0.0
 70
   128
 71
   39
 72
   4
 73
   34
  0
VERTEX
  8
bottle
 10
0.0
 20
0.0
 30
0.0
 70
   128
 71
   46
 72
   47
 73
   40
  0
VERTEX
  8
bottle
 10
0.0
 20
0.0
 30
0.0
 70
   128
 71
   38
 72
   19
 73
   39
  0
VERTEX
  8
bottle
 10
0.0
 20
0.0
 30
0.0
 70
   128
 71
   34
 72
   18
 73
   39
  0
VERTEX
  8
bottle
 10
0.0
 20
0.0
 30
0.0
 70
   128
 71
   16
 72
   62
 73
   13
  0
VERTEX
  8
bottle
 10
0.0
 20
0.0
 30
0.0
 70
   128
 71
   28
 72
   42
 73
   29
  0
VERTEX
  8
bottle
 10
0.0
 20
0.0
 30
0.0
 70
   128
 71
   29
 72
   43
 73
   30
  0
VERTEX
  8
bottle
 10
0.0
 20
0.0
 30
0.0
 70
   128
 71
   30
 72
   44
 73
   31
  0
VERTEX
  8
bottle
 10
0.0
 20
0.0
 30
0.0
 70
   128
 71
   31
 72
   45
 73
   32
  0
VERTEX
  8
bottle
 10
0.0
 20
0.0
 30
0.0
 70
   128
 71
   23
 72
   48
 73
   1
  0
VERTEX
  8
bottle
 10
0.0
 20
0.0
 30
0.0
 70
   128
 71
   10
 72
   69
 73
   21
  0
VERTEX
  8
bottle
 10
0.0
 20
0.0
 30
0.0
 70
   128
 71
   66
 72
   73
 73
   72
  0
VERTEX
  8
bottle
 10
0.0
 20
0.0
 30
0.0
 70
   128
 71
   77
 72
   87
 73
   86
  0
VERTEX
  8
bottle
 10
0.0
 20
0.0
 30
0.0
 70
   128
 71
   61
 72
   70
 73
   69
  0
VERTEX
  8
bottle
 10
0.0
 20
0.0
 30
0.0
 70
   128
 71
   68
 72
   20
 73
   73
  0
VERTEX
  8
bottle
 10
0.0
 20
0.0
 30
0.0
 70
   128
 71
   70
 72
   88
 73
   71
  0
VERTEX
  8
bottle
 10
0.0
 20
0.0
 30
0.0
 70
   128
 71
   21
 72
   74
 73
   28
  0
VERTEX
  8
bottle
 10
0.0
 20
0.0
 30
0.0
 70
   128
 71
   72
 72
   88
 73
   58
  0
VERTEX
  8
bottle
 10
0.0
 20
0.0
 30
0.0
 70
   128
 71
   69
 72
   75
 73
   74
  0
VERTEX
  8
bottle
 10
0.0
 20
0.0
 30
0.0
 70
   128
 71
   70
 72
   76
 73
   75
  0
VERTEX
  8
bottle
 10
0.0
 20
0.0
 30
0.0
 70
   128
 71
   71
 72
   77
 73
   76
  0
VERTEX
  8
bottle
 10
0.0
 20
0.0
 30
0.0
 70
   128
 71
   72
 72
   78
 73
   77
  0
VERTEX
  8
bottle
 10
0.0
 20
0.0
 30
0.0
 70
   128
 71
   78
 72
   40
 73
   87
  0
VERTEX
  8
bottle
 10
0.0
 20
0.0
 30
0.0
 70
   128
 71
   73
 72
   27
 73
   78
  0
VERTEX
  8
bottle
 10
0.0
 20
0.0
 30
0.0
 70
   128
 71
   35
 72
   61
 73
   10
  0
VERTEX
  8
bottle
 10
0.0
 20
0.0
 30
0.0
 70
   128
 71
   9
 72
   79
 73
   35
  0
VERTEX
  8
bottle
 10
0.0
 20
0.0
 30
0.0
 70
   128
 71
   41
 72
   6
 73
   49
  0
VERTEX
  8
bottle
 10
0.0
 20
0.0
 30
0.0
 70
   128
 71
   80
 72
   60
 73
   62
  0
VERTEX
  8
bottle
 10
0.0
 20
0.0
 30
0.0
 70
   128
 71
   79
 72
   63
 73
   61
  0
VERTEX
  8
bottle
 10
0.0
 20
0.0
 30
0.0
 70
   128
 71
   83
 72
   15
 73
   6
  0
VERTEX
  8
bottle
 10
0.0
 20
0.0
 30
0.0
 70
   128
 71
   56
 72
   63
 73
   80
  0
VERTEX
  8
bottle
 10
0.0
 20
0.0
 30
0.0
 70
   128
 71
   56
 72
   65
 73
   59
  0
VERTEX
  8
bottle
 10
0.0
 20
0.0
 30
0.0
 70
   128
 71
   84
 72
   57
 73
   15
  0
VERTEX
  8
bottle
 10
0.0
 20
0.0
 30
0.0
 70
   128
 71
   62
 72
   11
 73
   13
  0
VERTEX
  8
bottle
 10
0.0
 20
0.0
 30
0.0
 70
   128
 71
   58
 72
   81
 73
   66
  0
VERTEX
  8
bottle
 10
0.0
 20
0.0
 30
0.0
 70
   128
 71
   85
 72
   64
 73
   57
  0
VERTEX
  8
bottle
 10
0.0
 20
0.0
 30
0.0
 70
   128
 71
   58
 72
   56
 73
   59
  0
VERTEX
  8
bottle
 10
0.0
 20
0.0
 30
0.0
 70
   128
 71
   65
 72
   82
 73
   81
  0
VERTEX
  8
bottle
 10
0.0
 20
0.0
 30
0.0
 70
   128
 71
   86
 72
   55
 73
   64
  0
VERTEX
  8
bottle
 10
0.0
 20
0.0
 30
0.0
 70
   128
 71
   82
 72
   4
 73
   68
  0
VERTEX
  8
bottle
 10
0.0
 20
0.0
 30
0.0
 70
   128
 71
   87
 72
   47
 73
   55
  0
VERTEX
  8
bottle
 10
0.0
 20
0.0
 30
0.0
 70
   128
 71
   81
 72
   68
 73
   66
  0
VERTEX
  8
bottle
 10
0.0
 20
0.0
 30
0.0
 70
   128
 71
   34
 72
   67
 73
   3
  0
VERTEX
  8
bottle
 10
0.0
 20
0.0
 30
0.0
 70
   128
 71
   28
 72
   83
 73
   41
  0
VERTEX
  8
bottle
 10
0.0
 20
0.0
 30
0.0
 70
   128
 71
   74
 72
   84
 73
   83
  0
VERTEX
  8
bottle
 10
0.0
 20
0.0
 30
0.0
 70
   128
 71
   6
 72
   55
 73
   49
  0
VERTEX
  8
bottle
 10
0.0
 20
0.0
 30
0.0
 70
   128
 71
   15
 72
   64
 73
   55
  0
VERTEX
  8
bottle
 10
0.0
 20
0.0
 30
0.0
 70
   128
 71
   49
 72
   47
 73
   2
  0
VERTEX
  8
bottle
 10
0.0
 20
0.0
 30
0.0
 70
   128
 71
   50
 72
   2
 73
   53
  0
VERTEX
  8
bottle
 10
0.0
 20
0.0
 30
0.0
 70
   128
 71
   51
 72
   53
 73
   52
  0
SEQEND
  0
POLYLINE
  8
bottleCap
 66
   1
 10
0.0
 20
0.0
 30
0.0
 70
   64
 71
   60
 72
   116
  0
VERTEX
  8
bottleCap
 10
28.946739
 20
166.486428
 30
16.712408
 70
   192
  0
VERTEX
  8
bottleCap
 10
25.791544
 20
194.607378
 30
14.890755
 70
   192
  0
VERTEX
  8
bottleCap
 10
33.424815
 20
166.486428
 30
0.000000
 70
   192
  0
VERTEX
  8
bottleCap
 10
29.781510
 20
194.607378
 30
0.000000
 70
   192
  0
VERTEX
  8
bottleCap
 10
28.946739
 20
166.486428
 30
-16.712408
 70
   192
  0
VERTEX
  8
bottleCap
 10
25.791544
 20
194.607378
 30
-14.890755
 70
   192
  0
VERTEX
  8
bottleCap
 10
16.712408
 20
166.486428
 30
-28.946739
 70
   192
  0
VERTEX
  8
bottleCap
 10
14.890755
 20
194.607378
 30
-25.791544
 70
   192
  0
VERTEX
  8
bottleCap
 10
0.000000
 20
166.486428
 30
-33.424815
 70
   192
  0
VERTEX
  8
bottleCap
 10
0.000000
 20
194.607378
 30
-29.781510
 70
   192
  0
VERTEX
  8
bottleCap
 10
-16.712408
 20
166.486428
 30
-28.946739
 70
   192
  0
VERTEX
  8
bottleCap
 10
-14.890755
 20
194.607378
 30
-25.791544
 70
   192
  0
VERTEX
  8
bottleCap
 10
-28.946739
 20
166.486428
 30
-16.712408
 70
   192
  0
VERTEX
  8
bottleCap
 10
-25.791544
 20
194.607378
 30
-14.890755
 70
   192
  0
VERTEX
  8
bottleCap
 10
-33.424815
 20
166.486428
 30
-0.000000
 70
   192
  0
VERTEX
  8
bottleCap
 10
-29.781510
 20
194.607378
 30
-0.000000
 70
   192
  0
VERTEX
  8
bottleCap
 10
-28.946739
 20
166.486428
 30
16.712408
 70
   192
  0
VERTEX
  8
bottleCap
 10
-25.791544
 20
194.607378
 30
14.890755
 70
   192
  0
VERTEX
  8
bottleCap
 10
-16.712408
 20
166.486428
 30
28.946739
 70
   192
  0
VERTEX
  8
bottleCap
 10
-14.890755
 20
194.607378
 30
25.791544
 70
   192
  0
VERTEX
  8
bottleCap
 10
-0.000000
 20
166.486428
 30
33.424815
 70
   192
  0
VERTEX
  8
bottleCap
 10
-0.000000
 20
194.607378
 30
29.781510
 70
   192
  0
VERTEX
  8
bottleCap
 10
16.712408
 20
166.486428
 30
28.946739
 70
   192
  0
VERTEX
  8
bottleCap
 10
14.890755
 20
194.607378
 30
25.791544
 70
   192
  0
VERTEX
  8
bottleCap
 10
28.946739
 20
189.151058
 30
16.712408
 70
   192
  0
VERTEX
  8
bottleCap
 10
33.424815
 20
189.151058
 30
0.000000
 70
   192
  0
VERTEX
  8
bottleCap
 10
28.946739
 20
189.151058
 30
-16.712408
 70
   192
  0
VERTEX
  8
bottleCap
 10
16.712408
 20
189.151058
 30
-28.946739
 70
   192
  0
VERTEX
  8
bottleCap
 10
0.000000
 20
189.151058
 30
-33.424815
 70
   192
  0
VERTEX
  8
bottleCap
 10
-16.712408
 20
189.151058
 30
-28.946739
 70
   192
  0
VERTEX
  8
bottleCap
 10
-28.946739
 20
189.151058
 30
-16.712408
 70
   192
  0
VERTEX
  8
bottleCap
 10
-33.424815
 20
189.151058
 30
-0.000000
 70
   192
  0
VERTEX
  8
bottleCap
 10
-28.946739
 20
189.151058
 30
16.712408
 70
   192
  0
VERTEX
  8
bottleCap
 10
-16.712408
 20
189.151058
 30
28.946739
 70
   192
  0
VERTEX
  8
bottleCap
 10
-0.000000
 20
189.151058
 30
33.424815
 70
   192
  0
VERTEX
  8
bottleCap
 10
16.712408
 20
189.151058
 30
28.946739
 70
   192
  0
VERTEX
  8
bottleCap
 10
26.525985
 20
166.486428
 30
15.314785
 70
   192
  0
VERTEX
  8
bottleCap
 10
30.629569
 20
166.486428
 30
-0.000000
 70
   192
  0
VERTEX
  8
bottleCap
 10
26.525985
 20
166.486428
 30
-15.314785
 70
   192
  0
VERTEX
  8
bottleCap
 10
15.314785
 20
166.486428
 30
-26.525985
 70
   192
  0
VERTEX
  8
bottleCap
 10
0.000000
 20
166.486428
 30
-30.629569
 70
   192
  0
VERTEX
  8
bottleCap
 10
-15.314785
 20
166.486428
 30
-26.525985
 70
   192
  0
VERTEX
  8
bottleCap
 10
-26.525985
 20
166.486428
 30
-15.314785
 70
   192
  0
VERTEX
  8
bottleCap
 10
-30.629569
 20
166.486428
 30
-0.000000
 70
   192
  0
VERTEX
  8
bottleCap
 10
-26.525985
 20
166.486428
 30
15.314785
 70
   192
  0
VERTEX
  8
bottleCap
 10
-15.314785
 20
166.486428
 30
26.525985
 70
   192
  0
VERTEX
  8
bottleCap
 10
-0.000000
 20
166.486428
 30
30.629569
 70
   192
  0
VERTEX
  8
bottleCap
 10
15.314785
 20
166.486428
 30
26.525985
 70
   192
  0
VERTEX
  8
bottleCap
 10
25.173160
 20
174.486428
 30
14.533731
 70
   192
  0
VERTEX
  8
bottleCap
 10
29.067461
 20
174.486428
 30
-0.000000
 70
   192
  0
VERTEX
  8
bottleCap
 10
25.173160
 20
174.486428
 30
-14.533731
 70
   192
  0
VERTEX
  8
bottleCap
 10
14.533731
 20
174.486428
 30
-25.173160
 70
   192
  0
VERTEX
  8
bottleCap
 10
0.000000
 20
174.486428
 30
-29.067461
 70
   192
  0
VERTEX
  8
bottleCap
 10
-14.533731
 20
174.486428
 30
-25.173160
 70
   192
  0
VERTEX
  8
bottleCap
 10
-25.173160
 20
174.486428
 30
-14.533731
 70
   192
  0
VERTEX
  8
bottleCap
 10
-29.067461
 20
174.486428
 30
-0.000000
 70
   192
  0
VERTEX
  8
bottleCap
 10
-25.173160
 20
174.486428
 30
14.533731
 70
   192
  0
VERTEX
  8
bottleCap
 10
-14.533731
 20
174.486428
 30
25.173160
 70
   192
  0
VERTEX
  8
bottleCap
 10
-0.000000
 20
174.486428
 30
29.067461
 70
   192
  0
VERTEX
  8
bottleCap
 10
14.533731
 20
174.486428
 30
25.173160
 70
   192
  0
VERTEX
  8
bottleCap
 10
0.0
 20
0.0
 30
0.0
 70
   128
 71
   34
 72
   20
 73
   22
  0
VERTEX
  8
bottleCap
 10
0.0
 20
0.0
 30
0.0
 70
   128
 71
   26
 72
   4
 73
   6
  0
VERTEX
  8
bottleCap
 10
0.0
 20
0.0
 30
0.0
 70
   128
 71
   6
 72
   4
 73
   14
  0
VERTEX
  8
bottleCap
 10
0.0
 20
0.0
 30
0.0
 70
   128
 71
   51
 72
   60
 73
   49
  0
VERTEX
  8
bottleCap
 10
0.0
 20
0.0
 30
0.0
 70
   128
 71
   5
 72
   27
 73
   28
  0
VERTEX
  8
bottleCap
 10
0.0
 20
0.0
 30
0.0
 70
   128
 71
   14
 72
   4
 73
   2
  0
VERTEX
  8
bottleCap
 10
0.0
 20
0.0
 30
0.0
 70
   128
 71
   57
 72
   60
 73
   51
  0
VERTEX
  8
bottleCap
 10
0.0
 20
0.0
 30
0.0
 70
   128
 71
   28
 72
   8
 73
   10
  0
VERTEX
  8
bottleCap
 10
0.0
 20
0.0
 30
0.0
 70
   128
 71
   2
 72
   24
 73
   22
  0
VERTEX
  8
bottleCap
 10
0.0
 20
0.0
 30
0.0
 70
   128
 71
   59
 72
   60
 73
   57
  0
VERTEX
  8
bottleCap
 10
0.0
 20
0.0
 30
0.0
 70
   128
 71
   9
 72
   29
 73
   30
  0
VERTEX
  8
bottleCap
 10
0.0
 20
0.0
 30
0.0
 70
   128
 71
   2
 72
   22
 73
   20
  0
VERTEX
  8
bottleCap
 10
0.0
 20
0.0
 30
0.0
 70
   128
 71
   51
 72
   52
 73
   53
  0
VERTEX
  8
bottleCap
 10
0.0
 20
0.0
 30
0.0
 70
   128
 71
   30
 72
   12
 73
   14
  0
VERTEX
  8
bottleCap
 10
0.0
 20
0.0
 30
0.0
 70
   128
 71
   18
 72
   16
 73
   14
  0
VERTEX
  8
bottleCap
 10
0.0
 20
0.0
 30
0.0
 70
   128
 71
   51
 72
   53
 73
   54
  0
VERTEX
  8
bottleCap
 10
0.0
 20
0.0
 30
0.0
 70
   128
 71
   13
 72
   31
 73
   32
  0
VERTEX
  8
bottleCap
 10
0.0
 20
0.0
 30
0.0
 70
   128
 71
   12
 72
   10
 73
   8
  0
VERTEX
  8
bottleCap
 10
0.0
 20
0.0
 30
0.0
 70
   128
 71
   54
 72
   55
 73
   56
  0
VERTEX
  8
bottleCap
 10
0.0
 20
0.0
 30
0.0
 70
   128
 71
   32
 72
   16
 73
   18
  0
VERTEX
  8
bottleCap
 10
0.0
 20
0.0
 30
0.0
 70
   128
 71
   36
 72
   24
 73
   2
  0
VERTEX
  8
bottleCap
 10
0.0
 20
0.0
 30
0.0
 70
   128
 71
   21
 72
   35
 73
   36
  0
VERTEX
  8
bottleCap
 10
0.0
 20
0.0
 30
0.0
 70
   128
 71
   17
 72
   33
 73
   34
  0
VERTEX
  8
bottleCap
 10
0.0
 20
0.0
 30
0.0
 70
   128
 71
   1
 72
   25
 73
   26
  0
VERTEX
  8
bottleCap
 10
0.0
 20
0.0
 30
0.0
 70
   128
 71
   35
 72
   21
 73
   19
  0
VERTEX
  8
bottleCap
 10
0.0
 20
0.0
 30
0.0
 70
   128
 71
   27
 72
   5
 73
   3
  0
VERTEX
  8
bottleCap
 10
0.0
 20
0.0
 30
0.0
 70
   128
 71
   27
 72
   6
 73
   8
  0
VERTEX
  8
bottleCap
 10
0.0
 20
0.0
 30
0.0
 70
   128
 71
   29
 72
   9
 73
   7
  0
VERTEX
  8
bottleCap
 10
0.0
 20
0.0
 30
0.0
 70
   128
 71
   29
 72
   10
 73
   12
  0
VERTEX
  8
bottleCap
 10
0.0
 20
0.0
 30
0.0
 70
   128
 71
   31
 72
   13
 73
   11
  0
VERTEX
  8
bottleCap
 10
0.0
 20
0.0
 30
0.0
 70
   128
 71
   31
 72
   14
 73
   16
  0
VERTEX
  8
bottleCap
 10
0.0
 20
0.0
 30
0.0
 70
   128
 71
   33
 72
   17
 73
   15
  0
VERTEX
  8
bottleCap
 10
0.0
 20
0.0
 30
0.0
 70
   128
 71
   25
 72
   1
 73
   23
  0
VERTEX
  8
bottleCap
 10
0.0
 20
0.0
 30
0.0
 70
   128
 71
   35
 72
   22
 73
   24
  0
VERTEX
  8
bottleCap
 10
0.0
 20
0.0
 30
0.0
 70
   128
 71
   33
 72
   18
 73
   20
  0
VERTEX
  8
bottleCap
 10
0.0
 20
0.0
 30
0.0
 70
   128
 71
   25
 72
   2
 73
   4
  0
VERTEX
  8
bottleCap
 10
0.0
 20
0.0
 30
0.0
 70
   128
 71
   5
 72
   39
 73
   38
  0
VERTEX
  8
bottleCap
 10
0.0
 20
0.0
 30
0.0
 70
   128
 71
   3
 72
   38
 73
   37
  0
VERTEX
  8
bottleCap
 10
0.0
 20
0.0
 30
0.0
 70
   128
 71
   1
 72
   37
 73
   48
  0
VERTEX
  8
bottleCap
 10
0.0
 20
0.0
 30
0.0
 70
   128
 71
   17
 72
   45
 73
   44
  0
VERTEX
  8
bottleCap
 10
0.0
 20
0.0
 30
0.0
 70
   128
 71
   21
 72
   47
 73
   46
  0
VERTEX
  8
bottleCap
 10
0.0
 20
0.0
 30
0.0
 70
   128
 71
   19
 72
   46
 73
   45
  0
VERTEX
  8
bottleCap
 10
0.0
 20
0.0
 30
0.0
 70
   128
 71
   23
 72
   48
 73
   47
  0
VERTEX
  8
bottleCap
 10
0.0
 20
0.0
 30
0.0
 70
   128
 71
   9
 72
   41
 73
   40
  0
VERTEX
  8
bottleCap
 10
0.0
 20
0.0
 30
0.0
 70
   128
 71
   7
 72
   40
 73
   39
  0
VERTEX
  8
bottleCap
 10
0.0
 20
0.0
 30
0.0
 70
   128
 71
   11
 72
   42
 73
   41
  0
VERTEX
  8
bottleCap
 10
0.0
 20
0.0
 30
0.0
 70
   128
 71
   15
 72
   44
 73
   43
  0
VERTEX
  8
bottleCap
 10
0.0
 20
0.0
 30
0.0
 70
   128
 71
   13
 72
   43
 73
   42
  0
VERTEX
  8
bottleCap
 10
0.0
 20
0.0
 30
0.0
 70
   128
 71
   39
 72
   51
 73
   50
  0
VERTEX
  8
bottleCap
 10
0.0
 20
0.0
 30
0.0
 70
   128
 71
   38
 72
   50
 73
   49
  0
VERTEX
  8
bottleCap
 10
0.0
 20
0.0
 30
0.0
 70
   128
 71
   37
 72
   49
 73
   60
  0
VERTEX
  8
bottleCap
 10
0.0
 20
0.0
 30
0.0
 70
   128
 71
   45
 72
   57
 73
   56
  0
VERTEX
  8
bottleCap
 10
0.0
 20
0.0
 30
0.0
 70
   128
 71
   47
 72
   59
 73
   58
  0
VERTEX
  8
bottleCap
 10
0.0
 20
0.0
 30
0.0
 70
   128
 71
   46
 72
   58
 73
   57
  0
VERTEX
  8
bottleCap
 10
0.0
 20
0.0
 30
0.0
 70
   128
 71
   48
 72
   60
 73
   59
  0
VERTEX
  8
bottleCap
 10
0.0
 20
0.0
 30
0.0
 70
   128
 71
   41
 72
   53
 73
   52
  0
VERTEX
  8
bottleCap
 10
0.0
 20
0.0
 30
0.0
 70
   128
 71
   40
 72
   52
 73
   51
  0
VERTEX
  8
bottleCap
 10
0.0
 20
0.0
 30
0.0
 70
   128
 71
   42
 72
   54
 73
   53
  0
VERTEX
  8
bottleCap
 10
0.0
 20
0.0
 30
0.0
 70
   128
 71
   44
 72
   56
 73
   55
  0
VERTEX
  8
bottleCap
 10
0.0
 20
0.0
 30
0.0
 70
   128
 71
   43
 72
   55
 73
   54
  0
VERTEX
  8
bottleCap
 10
0.0
 20
0.0
 30
0.0
 70
   128
 71
   34
 72
   22
 73
   35
  0
VERTEX
  8
bottleCap
 10
0.0
 20
0.0
 30
0.0
 70
   128
 71
   26
 72
   6
 73
   27
  0
VERTEX
  8
bottleCap
 10
0.0
 20
0.0
 30
0.0
 70
   128
 71
   6
 72
   14
 73
   12
  0
VERTEX
  8
bottleCap
 10
0.0
 20
0.0
 30
0.0
 70
   128
 71
   51
 72
   49
 73
   50
  0
VERTEX
  8
bottleCap
 10
0.0
 20
0.0
 30
0.0
 70
   128
 71
   5
 72
   28
 73
   7
  0
VERTEX
  8
bottleCap
 10
0.0
 20
0.0
 30
0.0
 70
   128
 71
   14
 72
   2
 73
   18
  0
VERTEX
  8
bottleCap
 10
0.0
 20
0.0
 30
0.0
 70
   128
 71
   57
 72
   51
 73
   56
  0
VERTEX
  8
bottleCap
 10
0.0
 20
0.0
 30
0.0
 70
   128
 71
   28
 72
   10
 73
   29
  0
VERTEX
  8
bottleCap
 10
0.0
 20
0.0
 30
0.0
 70
   128
 71
   59
 72
   57
 73
   58
  0
VERTEX
  8
bottleCap
 10
0.0
 20
0.0
 30
0.0
 70
   128
 71
   9
 72
   30
 73
   11
  0
VERTEX
  8
bottleCap
 10
0.0
 20
0.0
 30
0.0
 70
   128
 71
   2
 72
   20
 73
   18
  0
VERTEX
  8
bottleCap
 10
0.0
 20
0.0
 30
0.0
 70
   128
 71
   30
 72
   14
 73
   31
  0
VERTEX
  8
bottleCap
 10
0.0
 20
0.0
 30
0.0
 70
   128
 71
   51
 72
   54
 73
   56
  0
VERTEX
  8
bottleCap
 10
0.0
 20
0.0
 30
0.0
 70
   128
 71
   13
 72
   32
 73
   15
  0
VERTEX
  8
bottleCap
 10
0.0
 20
0.0
 30
0.0
 70
   128
 71
   12
 72
   8
 73
   6
  0
VERTEX
  8
bottleCap
 10
0.0
 20
0.0
 30
0.0
 70
   128
 71
   32
 72
   18
 73
   33
  0
VERTEX
  8
bottleCap
 10
0.0
 20
0.0
 30
0.0
 70
   128
 71
   36
 72
   2
 73
   25
  0
VERTEX
  8
bottleCap
 10
0.0
 20
0.0
 30
0.0
 70
   128
 71
   21
 72
   36
 73
   23
  0
VERTEX
  8
bottleCap
 10
0.0
 20
0.0
 30
0.0
 70
   128
 71
   17
 72
   34
 73
   19
  0
VERTEX
  8
bottleCap
 10
0.0
 20
0.0
 30
0.0
 70
   128
 71
   1
 72
   26
 73
   3
  0
VERTEX
  8
bottleCap
 10
0.0
 20
0.0
 30
0.0
 70
   128
 71
   35
 72
   19
 73
   34
  0
VERTEX
  8
bottleCap
 10
0.0
 20
0.0
 30
0.0
 70
   128
 71
   27
 72
   3
 73
   26
  0
VERTEX
  8
bottleCap
 10
0.0
 20
0.0
 30
0.0
 70
   128
 71
   27
 72
   8
 73
   28
  0
VERTEX
  8
bottleCap
 10
0.0
 20
0.0
 30
0.0
 70
   128
 71
   29
 72
   7
 73
   28
  0
VERTEX
  8
bottleCap
 10
0.0
 20
0.0
 30
0.0
 70
   128
 71
   29
 72
   12
 73
   30
  0
VERTEX
  8
bottleCap
 10
0.0
 20
0.0
 30
0.0
 70
   128
 71
   31
 72
   11
 73
   30
  0
VERTEX
  8
bottleCap
 10
0.0
 20
0.0
 30
0.0
 70
   128
 71
   31
 72
   16
 73
   32
  0
VERTEX
  8
bottleCap
 10
0.0
 20
0.0
 30
0.0
 70
   128
 71
   33
 72
   15
 73
   32
  0
VERTEX
  8
bottleCap
 10
0.0
 20
0.0
 30
0.0
 70
   128
 71
   25
 72
   23
 73
   36
  0
VERTEX
  8
bottleCap
 10
0.0
 20
0.0
 30
0.0
 70
   128
 71
   35
 72
   24
 73
   36
  0
VERTEX
  8
bottleCap
 10
0.0
 20
0.0
 30
0.0
 70
   128
 71
   33
 72
   20
 73
   34
  0
VERTEX
  8
bottleCap
 10
0.0
 20
0.0
 30
0.0
 70
   128
 71
   25
 72
   4
 73
   26
  0
VERTEX
  8
bottleCap
 10
0.0
 20
0.0
 30
0.0
 70
   128
 71
   5
 72
   38
 73
   3
  0
VERTEX
  8
bottleCap
 10
0.0
 20
0.0
 30
0.0
 70
   128
 71
   3
 72
   37
 73
   1
  0
VERTEX
  8
bottleCap
 10
0.0
 20
0.0
 30
0.0
 70
   128
 71
   1
 72
   48
 73
   23
  0
VERTEX
  8
bottleCap
 10
0.0
 20
0.0
 30
0.0
 70
   128
 71
   17
 72
   44
 73
   15
  0
VERTEX
  8
bottleCap
 10
0.0
 20
0.0
 30
0.0
 70
   128
 71
   21
 72
   46
 73
   19
  0
VERTEX
  8
bottleCap
 10
0.0
 20
0.0
 30
0.0
 70
   128
 71
   19
 72
   45
 73
   17
  0
VERTEX
  8
bottleCap
 10
0.0
 20
0.0
 30
0.0
 70
   128
 71
   23
 72
   47
 73
   21
  0
VERTEX
  8
bottleCap
 10
0.0
 20
0.0
 30
0.0
 70
   128
 71
   9
 72
   40
 73
   7
  0
VERTEX
  8
bottleCap
 10
0.0
 20
0.0
 30
0.0
 70
   128
 71
   7
 72
   39
 73
   5
  0
VERTEX
  8
bottleCap
 10
0.0
 20
0.0
 30
0.0
 70
   128
 71
   11
 72
   41
 73
   9
  0
VERTEX
  8
bottleCap
 10
0.0
 20
0.0
 30
0.0
 70
   128
 71
   15
 72
   43
 73
   13
  0
VERTEX
  8
bottleCap
 10
0.0
 20
0.0
 30
0.0
 70
   128
 71
   13
 72
   42
 73
   11
  0
VERTEX
  8
bottleCap
 10
0.0
 20
0.0
 30
0.0
 70
   128
 71
   39
 72
   50
 73
   38
  0
VERTEX
  8
bottleCap
 10
0.0
 20
0.0
 30
0.0
 70
   128
 71
   38
 72
   49
 73
   37
  0
VERTEX
  8
bottleCap
 10
0.0
 20
0.0
 30
0.0
 70
   128
 71
   37
 72
   60
 73
   48
  0
VERTEX
  8
bottleCap
 10
0.0
 20
0.0
 30
0.0
 70
   128
 71
   45
 72
   56
 73
   44
  0
VERTEX
  8
bottleCap
 10
0.0
 20
0.0
 30
0.0
 70
   128
 71
   47
 72
   58
 73
   46
  0
VERTEX
  8
bottleCap
 10
0.0
 20
0.0
 30
0.0
 70
   128
 71
   46
 72
   57
 73
   45
  0
VERTEX
  8
bottleCap
 10
0.0
 20
0.0
 30
0.0
 70
   128
 71
   48
 72
   59
 73
   47
  0
VERTEX
  8
bottleCap
 10
0.0
 20
0.0
 30
0.0
 70
   128
 71
   41
 72
   52
 73
   40
  0
VERTEX
  8
bottleCap
 10
0.0
 20
0.0
 30
0.0
 70
   128
 71
   40
 72
   51
 73
   39
  0
VERTEX
  8
bottleCap
 10
0.0
 20
0.0
 30
0.0
 70
   128
 71
   42
 72
   53
 73
   41
  0
VERTEX
  8
bottleCap
 10
0.0
 20
0.0
 30
0.0
 70
   128
 71
   44
 72
   55
 73
   43
  0
VERTEX
  8
bottleCap
 10
0.0
 20
0.0
 30
0.0
 70
   128
 71
   43
 72
   54
 73
   42
  0
SEQEND
  0
ENDSEC
  0
EOF
