999
FBX AutoCAD (*.DXF) exporter
  0
SECTION
  2
HEADER
  9
$ACADVER
  1
AC1008
  9
$UCSORG
 10
0.0
 20
0.0
 30
0.0
  9
$UCSXDIR
 10
1.0
 20
0.0
 30
0.0
  9
$TILEMODE
 70
   1
  9
$UCSYDIR
 10
0.0
 20
1.0
 30
0.0
  0
ENDSEC
  0
SECTION
  2
TABLES
  0
TABLE
  2
LTYPE
 70
   1
  0
LTYPE
  2
CONTINUOUS
 70
   64
  3
Solid line
 72
   65
 73
   0
 40
0.0
  0
ENDTAB
  0
TABLE
  2
LAYER
 70
   2
  0
LAYER
  2
jamJar
 70
   0
 62
   250
  6
CONTINUOUS
  0
LAYER
  2
lid
 70
   0
 62
   250
  6
CONTINUOUS
  0
ENDTAB
  0
ENDSEC
  0
SECTION
  2
BLOCKS
  0
ENDSEC
  0
SECTION
  2
ENTITIES
  0
POLYLINE
  8
jamJar
 66
   1
 10
0.0
 20
0.0
 30
0.0
 70
   64
 71
   108
 72
   212
  0
VERTEX
  8
jamJar
 10
44.413239
 20
120.967130
 30
0.000000
 70
   192
  0
VERTEX
  8
jamJar
 10
45.887265
 20
134.624888
 30
0.000000
 70
   192
  0
VERTEX
  8
jamJar
 10
53.257391
 20
136.835926
 30
0.000000
 70
   192
  0
VERTEX
  8
jamJar
 10
54.731416
 20
118.756092
 30
0.000000
 70
   192
  0
VERTEX
  8
jamJar
 10
48.770164
 20
111.401626
 30
0.000000
 70
   192
  0
VERTEX
  8
jamJar
 10
48.770164
 20
101.379488
 30
0.000000
 70
   192
  0
VERTEX
  8
jamJar
 10
61.876037
 20
92.899218
 30
0.000000
 70
   192
  0
VERTEX
  8
jamJar
 10
64.188838
 20
11.180247
 30
0.000000
 70
   192
  0
VERTEX
  8
jamJar
 10
58.021369
 20
1.929043
 30
0.000000
 70
   192
  0
VERTEX
  8
jamJar
 10
38.462994
 20
120.967130
 30
-22.206620
 70
   192
  0
VERTEX
  8
jamJar
 10
39.739537
 20
134.624888
 30
-22.943632
 70
   192
  0
VERTEX
  8
jamJar
 10
46.122253
 20
136.835926
 30
-26.628695
 70
   192
  0
VERTEX
  8
jamJar
 10
47.398797
 20
118.756092
 30
-27.365708
 70
   192
  0
VERTEX
  8
jamJar
 10
42.236201
 20
111.401626
 30
-24.385082
 70
   192
  0
VERTEX
  8
jamJar
 10
42.236201
 20
101.379488
 30
-24.385082
 70
   192
  0
VERTEX
  8
jamJar
 10
53.586220
 20
92.899218
 30
-30.938019
 70
   192
  0
VERTEX
  8
jamJar
 10
55.589164
 20
11.180247
 30
-32.094419
 70
   192
  0
VERTEX
  8
jamJar
 10
50.247979
 20
1.929043
 30
-29.010684
 70
   192
  0
VERTEX
  8
jamJar
 10
22.206620
 20
120.967130
 30
-38.462994
 70
   192
  0
VERTEX
  8
jamJar
 10
22.943632
 20
134.624888
 30
-39.739537
 70
   192
  0
VERTEX
  8
jamJar
 10
26.628695
 20
136.835926
 30
-46.122253
 70
   192
  0
VERTEX
  8
jamJar
 10
27.365708
 20
118.756092
 30
-47.398797
 70
   192
  0
VERTEX
  8
jamJar
 10
24.385082
 20
111.401626
 30
-42.236201
 70
   192
  0
VERTEX
  8
jamJar
 10
24.385082
 20
101.379488
 30
-42.236201
 70
   192
  0
VERTEX
  8
jamJar
 10
30.938019
 20
92.899218
 30
-53.586220
 70
   192
  0
VERTEX
  8
jamJar
 10
32.094419
 20
11.180247
 30
-55.589164
 70
   192
  0
VERTEX
  8
jamJar
 10
29.010684
 20
1.929043
 30
-50.247979
 70
   192
  0
VERTEX
  8
jamJar
 10
0.000000
 20
120.967130
 30
-44.413239
 70
   192
  0
VERTEX
  8
jamJar
 10
0.000000
 20
134.624888
 30
-45.887265
 70
   192
  0
VERTEX
  8
jamJar
 10
0.000000
 20
136.835926
 30
-53.257391
 70
   192
  0
VERTEX
  8
jamJar
 10
0.000000
 20
118.756092
 30
-54.731416
 70
   192
  0
VERTEX
  8
jamJar
 10
0.000000
 20
111.401626
 30
-48.770164
 70
   192
  0
VERTEX
  8
jamJar
 10
0.000000
 20
101.379488
 30
-48.770164
 70
   192
  0
VERTEX
  8
jamJar
 10
0.000000
 20
92.899218
 30
-61.876037
 70
   192
  0
VERTEX
  8
jamJar
 10
0.000000
 20
11.180247
 30
-64.188838
 70
   192
  0
VERTEX
  8
jamJar
 10
0.000000
 20
1.929043
 30
-58.021369
 70
   192
  0
VERTEX
  8
jamJar
 10
-22.206620
 20
120.967130
 30
-38.462994
 70
   192
  0
VERTEX
  8
jamJar
 10
-22.943632
 20
134.624888
 30
-39.739537
 70
   192
  0
VERTEX
  8
jamJar
 10
-26.628695
 20
136.835926
 30
-46.122253
 70
   192
  0
VERTEX
  8
jamJar
 10
-27.365708
 20
118.756092
 30
-47.398797
 70
   192
  0
VERTEX
  8
jamJar
 10
-24.385082
 20
111.401626
 30
-42.236201
 70
   192
  0
VERTEX
  8
jamJar
 10
-24.385082
 20
101.379488
 30
-42.236201
 70
   192
  0
VERTEX
  8
jamJar
 10
-30.938019
 20
92.899218
 30
-53.586220
 70
   192
  0
VERTEX
  8
jamJar
 10
-32.094419
 20
11.180247
 30
-55.589164
 70
   192
  0
VERTEX
  8
jamJar
 10
-29.010684
 20
1.929043
 30
-50.247979
 70
   192
  0
VERTEX
  8
jamJar
 10
-38.462994
 20
120.967130
 30
-22.206620
 70
   192
  0
VERTEX
  8
jamJar
 10
-39.739537
 20
134.624888
 30
-22.943632
 70
   192
  0
VERTEX
  8
jamJar
 10
-46.122253
 20
136.835926
 30
-26.628695
 70
   192
  0
VERTEX
  8
jamJar
 10
-47.398797
 20
118.756092
 30
-27.365708
 70
   192
  0
VERTEX
  8
jamJar
 10
-42.236201
 20
111.401626
 30
-24.385082
 70
   192
  0
VERTEX
  8
jamJar
 10
-42.236201
 20
101.379488
 30
-24.385082
 70
   192
  0
VERTEX
  8
jamJar
 10
-53.586220
 20
92.899218
 30
-30.938019
 70
   192
  0
VERTEX
  8
jamJar
 10
-55.589164
 20
11.180247
 30
-32.094419
 70
   192
  0
VERTEX
  8
jamJar
 10
-50.247979
 20
1.929043
 30
-29.010684
 70
   192
  0
VERTEX
  8
jamJar
 10
-44.413239
 20
120.967130
 30
-0.000000
 70
   192
  0
VERTEX
  8
jamJar
 10
-45.887265
 20
134.624888
 30
-0.000000
 70
   192
  0
VERTEX
  8
jamJar
 10
-53.257391
 20
136.835926
 30
-0.000000
 70
   192
  0
VERTEX
  8
jamJar
 10
-54.731416
 20
118.756092
 30
-0.000000
 70
   192
  0
VERTEX
  8
jamJar
 10
-48.770164
 20
111.401626
 30
-0.000000
 70
   192
  0
VERTEX
  8
jamJar
 10
-48.770164
 20
101.379488
 30
-0.000000
 70
   192
  0
VERTEX
  8
jamJar
 10
-61.876037
 20
92.899218
 30
-0.000000
 70
   192
  0
VERTEX
  8
jamJar
 10
-64.188838
 20
11.180247
 30
-0.000000
 70
   192
  0
VERTEX
  8
jamJar
 10
-58.021369
 20
1.929043
 30
-0.000000
 70
   192
  0
VERTEX
  8
jamJar
 10
-38.462994
 20
120.967130
 30
22.206620
 70
   192
  0
VERTEX
  8
jamJar
 10
-39.739537
 20
134.624888
 30
22.943632
 70
   192
  0
VERTEX
  8
jamJar
 10
-46.122253
 20
136.835926
 30
26.628695
 70
   192
  0
VERTEX
  8
jamJar
 10
-47.398797
 20
118.756092
 30
27.365708
 70
   192
  0
VERTEX
  8
jamJar
 10
-42.236201
 20
111.401626
 30
24.385082
 70
   192
  0
VERTEX
  8
jamJar
 10
-42.236201
 20
101.379488
 30
24.385082
 70
   192
  0
VERTEX
  8
jamJar
 10
-53.586220
 20
92.899218
 30
30.938019
 70
   192
  0
VERTEX
  8
jamJar
 10
-55.589164
 20
11.180247
 30
32.094419
 70
   192
  0
VERTEX
  8
jamJar
 10
-50.247979
 20
1.929043
 30
29.010684
 70
   192
  0
VERTEX
  8
jamJar
 10
-22.206620
 20
120.967130
 30
38.462994
 70
   192
  0
VERTEX
  8
jamJar
 10
-22.943632
 20
134.624888
 30
39.739537
 70
   192
  0
VERTEX
  8
jamJar
 10
-26.628695
 20
136.835926
 30
46.122253
 70
   192
  0
VERTEX
  8
jamJar
 10
-27.365708
 20
118.756092
 30
47.398797
 70
   192
  0
VERTEX
  8
jamJar
 10
-24.385082
 20
111.401626
 30
42.236201
 70
   192
  0
VERTEX
  8
jamJar
 10
-24.385082
 20
101.379488
 30
42.236201
 70
   192
  0
VERTEX
  8
jamJar
 10
-30.938019
 20
92.899218
 30
53.586220
 70
   192
  0
VERTEX
  8
jamJar
 10
-32.094419
 20
11.180247
 30
55.589164
 70
   192
  0
VERTEX
  8
jamJar
 10
-29.010684
 20
1.929043
 30
50.247979
 70
   192
  0
VERTEX
  8
jamJar
 10
-0.000000
 20
120.967130
 30
44.413239
 70
   192
  0
VERTEX
  8
jamJar
 10
-0.000000
 20
134.624888
 30
45.887265
 70
   192
  0
VERTEX
  8
jamJar
 10
-0.000000
 20
136.835926
 30
53.257391
 70
   192
  0
VERTEX
  8
jamJar
 10
-0.000000
 20
118.756092
 30
54.731416
 70
   192
  0
VERTEX
  8
jamJar
 10
-0.000000
 20
111.401626
 30
48.770164
 70
   192
  0
VERTEX
  8
jamJar
 10
-0.000000
 20
101.379488
 30
48.770164
 70
   192
  0
VERTEX
  8
jamJar
 10
-0.000000
 20
92.899218
 30
61.876037
 70
   192
  0
VERTEX
  8
jamJar
 10
-0.000000
 20
11.180247
 30
64.188838
 70
   192
  0
VERTEX
  8
jamJar
 10
-0.000000
 20
1.929043
 30
58.021369
 70
   192
  0
VERTEX
  8
jamJar
 10
22.206620
 20
120.967130
 30
38.462994
 70
   192
  0
VERTEX
  8
jamJar
 10
22.943632
 20
134.624888
 30
39.739537
 70
   192
  0
VERTEX
  8
jamJar
 10
26.628695
 20
136.835926
 30
46.122253
 70
   192
  0
VERTEX
  8
jamJar
 10
27.365708
 20
118.756092
 30
47.398797
 70
   192
  0
VERTEX
  8
jamJar
 10
24.385082
 20
111.401626
 30
42.236201
 70
   192
  0
VERTEX
  8
jamJar
 10
24.385082
 20
101.379488
 30
42.236201
 70
   192
  0
VERTEX
  8
jamJar
 10
30.938019
 20
92.899218
 30
53.586220
 70
   192
  0
VERTEX
  8
jamJar
 10
32.094419
 20
11.180247
 30
55.589164
 70
   192
  0
VERTEX
  8
jamJar
 10
29.010684
 20
1.929043
 30
50.247979
 70
   192
  0
VERTEX
  8
jamJar
 10
38.462994
 20
120.967130
 30
22.206620
 70
   192
  0
VERTEX
  8
jamJar
 10
39.739537
 20
134.624888
 30
22.943632
 70
   192
  0
VERTEX
  8
jamJar
 10
46.122253
 20
136.835926
 30
26.628695
 70
   192
  0
VERTEX
  8
jamJar
 10
47.398797
 20
118.756092
 30
27.365708
 70
   192
  0
VERTEX
  8
jamJar
 10
42.236201
 20
111.401626
 30
24.385082
 70
   192
  0
VERTEX
  8
jamJar
 10
42.236201
 20
101.379488
 30
24.385082
 70
   192
  0
VERTEX
  8
jamJar
 10
53.586220
 20
92.899218
 30
30.938019
 70
   192
  0
VERTEX
  8
jamJar
 10
55.589164
 20
11.180247
 30
32.094419
 70
   192
  0
VERTEX
  8
jamJar
 10
50.247979
 20
1.929043
 30
29.010684
 70
   192
  0
VERTEX
  8
jamJar
 10
0.0
 20
0.0
 30
0.0
 70
   128
 71
   100
 72
   101
 73
   92
  0
VERTEX
  8
jamJar
 10
0.0
 20
0.0
 30
0.0
 70
   128
 71
   10
 72
   11
 73
   2
  0
VERTEX
  8
jamJar
 10
0.0
 20
0.0
 30
0.0
 70
   128
 71
   11
 72
   12
 73
   3
  0
VERTEX
  8
jamJar
 10
0.0
 20
0.0
 30
0.0
 70
   128
 71
   12
 72
   13
 73
   4
  0
VERTEX
  8
jamJar
 10
0.0
 20
0.0
 30
0.0
 70
   128
 71
   13
 72
   14
 73
   5
  0
VERTEX
  8
jamJar
 10
0.0
 20
0.0
 30
0.0
 70
   128
 71
   14
 72
   15
 73
   6
  0
VERTEX
  8
jamJar
 10
0.0
 20
0.0
 30
0.0
 70
   128
 71
   15
 72
   16
 73
   7
  0
VERTEX
  8
jamJar
 10
0.0
 20
0.0
 30
0.0
 70
   128
 71
   16
 72
   17
 73
   8
  0
VERTEX
  8
jamJar
 10
0.0
 20
0.0
 30
0.0
 70
   128
 71
   17
 72
   18
 73
   9
  0
VERTEX
  8
jamJar
 10
0.0
 20
0.0
 30
0.0
 70
   128
 71
   4
 72
   5
 73
   104
  0
VERTEX
  8
jamJar
 10
0.0
 20
0.0
 30
0.0
 70
   128
 71
   101
 72
   102
 73
   93
  0
VERTEX
  8
jamJar
 10
0.0
 20
0.0
 30
0.0
 70
   128
 71
   19
 72
   20
 73
   11
  0
VERTEX
  8
jamJar
 10
0.0
 20
0.0
 30
0.0
 70
   128
 71
   20
 72
   21
 73
   12
  0
VERTEX
  8
jamJar
 10
0.0
 20
0.0
 30
0.0
 70
   128
 71
   21
 72
   22
 73
   13
  0
VERTEX
  8
jamJar
 10
0.0
 20
0.0
 30
0.0
 70
   128
 71
   22
 72
   23
 73
   14
  0
VERTEX
  8
jamJar
 10
0.0
 20
0.0
 30
0.0
 70
   128
 71
   23
 72
   24
 73
   15
  0
VERTEX
  8
jamJar
 10
0.0
 20
0.0
 30
0.0
 70
   128
 71
   24
 72
   25
 73
   16
  0
VERTEX
  8
jamJar
 10
0.0
 20
0.0
 30
0.0
 70
   128
 71
   25
 72
   26
 73
   17
  0
VERTEX
  8
jamJar
 10
0.0
 20
0.0
 30
0.0
 70
   128
 71
   26
 72
   27
 73
   18
  0
VERTEX
  8
jamJar
 10
0.0
 20
0.0
 30
0.0
 70
   128
 71
   5
 72
   6
 73
   105
  0
VERTEX
  8
jamJar
 10
0.0
 20
0.0
 30
0.0
 70
   128
 71
   102
 72
   103
 73
   94
  0
VERTEX
  8
jamJar
 10
0.0
 20
0.0
 30
0.0
 70
   128
 71
   28
 72
   29
 73
   20
  0
VERTEX
  8
jamJar
 10
0.0
 20
0.0
 30
0.0
 70
   128
 71
   29
 72
   30
 73
   21
  0
VERTEX
  8
jamJar
 10
0.0
 20
0.0
 30
0.0
 70
   128
 71
   30
 72
   31
 73
   22
  0
VERTEX
  8
jamJar
 10
0.0
 20
0.0
 30
0.0
 70
   128
 71
   31
 72
   32
 73
   23
  0
VERTEX
  8
jamJar
 10
0.0
 20
0.0
 30
0.0
 70
   128
 71
   32
 72
   33
 73
   24
  0
VERTEX
  8
jamJar
 10
0.0
 20
0.0
 30
0.0
 70
   128
 71
   33
 72
   34
 73
   25
  0
VERTEX
  8
jamJar
 10
0.0
 20
0.0
 30
0.0
 70
   128
 71
   34
 72
   35
 73
   26
  0
VERTEX
  8
jamJar
 10
0.0
 20
0.0
 30
0.0
 70
   128
 71
   35
 72
   36
 73
   27
  0
VERTEX
  8
jamJar
 10
0.0
 20
0.0
 30
0.0
 70
   128
 71
   6
 72
   7
 73
   106
  0
VERTEX
  8
jamJar
 10
0.0
 20
0.0
 30
0.0
 70
   128
 71
   103
 72
   104
 73
   95
  0
VERTEX
  8
jamJar
 10
0.0
 20
0.0
 30
0.0
 70
   128
 71
   37
 72
   38
 73
   29
  0
VERTEX
  8
jamJar
 10
0.0
 20
0.0
 30
0.0
 70
   128
 71
   38
 72
   39
 73
   30
  0
VERTEX
  8
jamJar
 10
0.0
 20
0.0
 30
0.0
 70
   128
 71
   39
 72
   40
 73
   31
  0
VERTEX
  8
jamJar
 10
0.0
 20
0.0
 30
0.0
 70
   128
 71
   40
 72
   41
 73
   32
  0
VERTEX
  8
jamJar
 10
0.0
 20
0.0
 30
0.0
 70
   128
 71
   41
 72
   42
 73
   33
  0
VERTEX
  8
jamJar
 10
0.0
 20
0.0
 30
0.0
 70
   128
 71
   42
 72
   43
 73
   34
  0
VERTEX
  8
jamJar
 10
0.0
 20
0.0
 30
0.0
 70
   128
 71
   43
 72
   44
 73
   35
  0
VERTEX
  8
jamJar
 10
0.0
 20
0.0
 30
0.0
 70
   128
 71
   44
 72
   45
 73
   36
  0
VERTEX
  8
jamJar
 10
0.0
 20
0.0
 30
0.0
 70
   128
 71
   7
 72
   8
 73
   107
  0
VERTEX
  8
jamJar
 10
0.0
 20
0.0
 30
0.0
 70
   128
 71
   104
 72
   105
 73
   96
  0
VERTEX
  8
jamJar
 10
0.0
 20
0.0
 30
0.0
 70
   128
 71
   46
 72
   47
 73
   38
  0
VERTEX
  8
jamJar
 10
0.0
 20
0.0
 30
0.0
 70
   128
 71
   47
 72
   48
 73
   39
  0
VERTEX
  8
jamJar
 10
0.0
 20
0.0
 30
0.0
 70
   128
 71
   48
 72
   49
 73
   40
  0
VERTEX
  8
jamJar
 10
0.0
 20
0.0
 30
0.0
 70
   128
 71
   49
 72
   50
 73
   41
  0
VERTEX
  8
jamJar
 10
0.0
 20
0.0
 30
0.0
 70
   128
 71
   50
 72
   51
 73
   42
  0
VERTEX
  8
jamJar
 10
0.0
 20
0.0
 30
0.0
 70
   128
 71
   51
 72
   52
 73
   43
  0
VERTEX
  8
jamJar
 10
0.0
 20
0.0
 30
0.0
 70
   128
 71
   52
 72
   53
 73
   44
  0
VERTEX
  8
jamJar
 10
0.0
 20
0.0
 30
0.0
 70
   128
 71
   53
 72
   54
 73
   45
  0
VERTEX
  8
jamJar
 10
0.0
 20
0.0
 30
0.0
 70
   128
 71
   8
 72
   9
 73
   108
  0
VERTEX
  8
jamJar
 10
0.0
 20
0.0
 30
0.0
 70
   128
 71
   105
 72
   106
 73
   97
  0
VERTEX
  8
jamJar
 10
0.0
 20
0.0
 30
0.0
 70
   128
 71
   55
 72
   56
 73
   47
  0
VERTEX
  8
jamJar
 10
0.0
 20
0.0
 30
0.0
 70
   128
 71
   56
 72
   57
 73
   48
  0
VERTEX
  8
jamJar
 10
0.0
 20
0.0
 30
0.0
 70
   128
 71
   57
 72
   58
 73
   49
  0
VERTEX
  8
jamJar
 10
0.0
 20
0.0
 30
0.0
 70
   128
 71
   58
 72
   59
 73
   50
  0
VERTEX
  8
jamJar
 10
0.0
 20
0.0
 30
0.0
 70
   128
 71
   59
 72
   60
 73
   51
  0
VERTEX
  8
jamJar
 10
0.0
 20
0.0
 30
0.0
 70
   128
 71
   60
 72
   61
 73
   52
  0
VERTEX
  8
jamJar
 10
0.0
 20
0.0
 30
0.0
 70
   128
 71
   61
 72
   62
 73
   53
  0
VERTEX
  8
jamJar
 10
0.0
 20
0.0
 30
0.0
 70
   128
 71
   62
 72
   63
 73
   54
  0
VERTEX
  8
jamJar
 10
0.0
 20
0.0
 30
0.0
 70
   128
 71
   106
 72
   107
 73
   98
  0
VERTEX
  8
jamJar
 10
0.0
 20
0.0
 30
0.0
 70
   128
 71
   107
 72
   108
 73
   99
  0
VERTEX
  8
jamJar
 10
0.0
 20
0.0
 30
0.0
 70
   128
 71
   64
 72
   65
 73
   56
  0
VERTEX
  8
jamJar
 10
0.0
 20
0.0
 30
0.0
 70
   128
 71
   65
 72
   66
 73
   57
  0
VERTEX
  8
jamJar
 10
0.0
 20
0.0
 30
0.0
 70
   128
 71
   66
 72
   67
 73
   58
  0
VERTEX
  8
jamJar
 10
0.0
 20
0.0
 30
0.0
 70
   128
 71
   67
 72
   68
 73
   59
  0
VERTEX
  8
jamJar
 10
0.0
 20
0.0
 30
0.0
 70
   128
 71
   68
 72
   69
 73
   60
  0
VERTEX
  8
jamJar
 10
0.0
 20
0.0
 30
0.0
 70
   128
 71
   69
 72
   70
 73
   61
  0
VERTEX
  8
jamJar
 10
0.0
 20
0.0
 30
0.0
 70
   128
 71
   70
 72
   71
 73
   62
  0
VERTEX
  8
jamJar
 10
0.0
 20
0.0
 30
0.0
 70
   128
 71
   71
 72
   72
 73
   63
  0
VERTEX
  8
jamJar
 10
0.0
 20
0.0
 30
0.0
 70
   128
 71
   1
 72
   2
 73
   101
  0
VERTEX
  8
jamJar
 10
0.0
 20
0.0
 30
0.0
 70
   128
 71
   2
 72
   3
 73
   102
  0
VERTEX
  8
jamJar
 10
0.0
 20
0.0
 30
0.0
 70
   128
 71
   73
 72
   74
 73
   65
  0
VERTEX
  8
jamJar
 10
0.0
 20
0.0
 30
0.0
 70
   128
 71
   74
 72
   75
 73
   66
  0
VERTEX
  8
jamJar
 10
0.0
 20
0.0
 30
0.0
 70
   128
 71
   75
 72
   76
 73
   67
  0
VERTEX
  8
jamJar
 10
0.0
 20
0.0
 30
0.0
 70
   128
 71
   76
 72
   77
 73
   68
  0
VERTEX
  8
jamJar
 10
0.0
 20
0.0
 30
0.0
 70
   128
 71
   77
 72
   78
 73
   69
  0
VERTEX
  8
jamJar
 10
0.0
 20
0.0
 30
0.0
 70
   128
 71
   78
 72
   79
 73
   70
  0
VERTEX
  8
jamJar
 10
0.0
 20
0.0
 30
0.0
 70
   128
 71
   79
 72
   80
 73
   71
  0
VERTEX
  8
jamJar
 10
0.0
 20
0.0
 30
0.0
 70
   128
 71
   80
 72
   81
 73
   72
  0
VERTEX
  8
jamJar
 10
0.0
 20
0.0
 30
0.0
 70
   128
 71
   3
 72
   4
 73
   103
  0
VERTEX
  8
jamJar
 10
0.0
 20
0.0
 30
0.0
 70
   128
 71
   9
 72
   18
 73
   27
  0
VERTEX
  8
jamJar
 10
0.0
 20
0.0
 30
0.0
 70
   128
 71
   82
 72
   83
 73
   74
  0
VERTEX
  8
jamJar
 10
0.0
 20
0.0
 30
0.0
 70
   128
 71
   83
 72
   84
 73
   75
  0
VERTEX
  8
jamJar
 10
0.0
 20
0.0
 30
0.0
 70
   128
 71
   84
 72
   85
 73
   76
  0
VERTEX
  8
jamJar
 10
0.0
 20
0.0
 30
0.0
 70
   128
 71
   85
 72
   86
 73
   77
  0
VERTEX
  8
jamJar
 10
0.0
 20
0.0
 30
0.0
 70
   128
 71
   86
 72
   87
 73
   78
  0
VERTEX
  8
jamJar
 10
0.0
 20
0.0
 30
0.0
 70
   128
 71
   87
 72
   88
 73
   79
  0
VERTEX
  8
jamJar
 10
0.0
 20
0.0
 30
0.0
 70
   128
 71
   88
 72
   89
 73
   80
  0
VERTEX
  8
jamJar
 10
0.0
 20
0.0
 30
0.0
 70
   128
 71
   89
 72
   90
 73
   81
  0
VERTEX
  8
jamJar
 10
0.0
 20
0.0
 30
0.0
 70
   128
 71
   9
 72
   36
 73
   45
  0
VERTEX
  8
jamJar
 10
0.0
 20
0.0
 30
0.0
 70
   128
 71
   108
 72
   9
 73
   54
  0
VERTEX
  8
jamJar
 10
0.0
 20
0.0
 30
0.0
 70
   128
 71
   91
 72
   92
 73
   83
  0
VERTEX
  8
jamJar
 10
0.0
 20
0.0
 30
0.0
 70
   128
 71
   92
 72
   93
 73
   84
  0
VERTEX
  8
jamJar
 10
0.0
 20
0.0
 30
0.0
 70
   128
 71
   93
 72
   94
 73
   85
  0
VERTEX
  8
jamJar
 10
0.0
 20
0.0
 30
0.0
 70
   128
 71
   94
 72
   95
 73
   86
  0
VERTEX
  8
jamJar
 10
0.0
 20
0.0
 30
0.0
 70
   128
 71
   95
 72
   96
 73
   87
  0
VERTEX
  8
jamJar
 10
0.0
 20
0.0
 30
0.0
 70
   128
 71
   96
 72
   97
 73
   88
  0
VERTEX
  8
jamJar
 10
0.0
 20
0.0
 30
0.0
 70
   128
 71
   97
 72
   98
 73
   89
  0
VERTEX
  8
jamJar
 10
0.0
 20
0.0
 30
0.0
 70
   128
 71
   98
 72
   99
 73
   90
  0
VERTEX
  8
jamJar
 10
0.0
 20
0.0
 30
0.0
 70
   128
 71
   81
 72
   54
 73
   63
  0
VERTEX
  8
jamJar
 10
0.0
 20
0.0
 30
0.0
 70
   128
 71
   108
 72
   81
 73
   90
  0
VERTEX
  8
jamJar
 10
0.0
 20
0.0
 30
0.0
 70
   128
 71
   1
 72
   100
 73
   10
  0
VERTEX
  8
jamJar
 10
0.0
 20
0.0
 30
0.0
 70
   128
 71
   37
 72
   10
 73
   100
  0
VERTEX
  8
jamJar
 10
0.0
 20
0.0
 30
0.0
 70
   128
 71
   73
 72
   100
 73
   91
  0
VERTEX
  8
jamJar
 10
0.0
 20
0.0
 30
0.0
 70
   128
 71
   37
 72
   73
 73
   64
  0
VERTEX
  8
jamJar
 10
0.0
 20
0.0
 30
0.0
 70
   128
 71
   55
 72
   46
 73
   37
  0
VERTEX
  8
jamJar
 10
0.0
 20
0.0
 30
0.0
 70
   128
 71
   37
 72
   28
 73
   19
  0
VERTEX
  8
jamJar
 10
0.0
 20
0.0
 30
0.0
 70
   128
 71
   100
 72
   92
 73
   91
  0
VERTEX
  8
jamJar
 10
0.0
 20
0.0
 30
0.0
 70
   128
 71
   10
 72
   2
 73
   1
  0
VERTEX
  8
jamJar
 10
0.0
 20
0.0
 30
0.0
 70
   128
 71
   11
 72
   3
 73
   2
  0
VERTEX
  8
jamJar
 10
0.0
 20
0.0
 30
0.0
 70
   128
 71
   12
 72
   4
 73
   3
  0
VERTEX
  8
jamJar
 10
0.0
 20
0.0
 30
0.0
 70
   128
 71
   13
 72
   5
 73
   4
  0
VERTEX
  8
jamJar
 10
0.0
 20
0.0
 30
0.0
 70
   128
 71
   14
 72
   6
 73
   5
  0
VERTEX
  8
jamJar
 10
0.0
 20
0.0
 30
0.0
 70
   128
 71
   15
 72
   7
 73
   6
  0
VERTEX
  8
jamJar
 10
0.0
 20
0.0
 30
0.0
 70
   128
 71
   16
 72
   8
 73
   7
  0
VERTEX
  8
jamJar
 10
0.0
 20
0.0
 30
0.0
 70
   128
 71
   17
 72
   9
 73
   8
  0
VERTEX
  8
jamJar
 10
0.0
 20
0.0
 30
0.0
 70
   128
 71
   4
 72
   104
 73
   103
  0
VERTEX
  8
jamJar
 10
0.0
 20
0.0
 30
0.0
 70
   128
 71
   101
 72
   93
 73
   92
  0
VERTEX
  8
jamJar
 10
0.0
 20
0.0
 30
0.0
 70
   128
 71
   19
 72
   11
 73
   10
  0
VERTEX
  8
jamJar
 10
0.0
 20
0.0
 30
0.0
 70
   128
 71
   20
 72
   12
 73
   11
  0
VERTEX
  8
jamJar
 10
0.0
 20
0.0
 30
0.0
 70
   128
 71
   21
 72
   13
 73
   12
  0
VERTEX
  8
jamJar
 10
0.0
 20
0.0
 30
0.0
 70
   128
 71
   22
 72
   14
 73
   13
  0
VERTEX
  8
jamJar
 10
0.0
 20
0.0
 30
0.0
 70
   128
 71
   23
 72
   15
 73
   14
  0
VERTEX
  8
jamJar
 10
0.0
 20
0.0
 30
0.0
 70
   128
 71
   24
 72
   16
 73
   15
  0
VERTEX
  8
jamJar
 10
0.0
 20
0.0
 30
0.0
 70
   128
 71
   25
 72
   17
 73
   16
  0
VERTEX
  8
jamJar
 10
0.0
 20
0.0
 30
0.0
 70
   128
 71
   26
 72
   18
 73
   17
  0
VERTEX
  8
jamJar
 10
0.0
 20
0.0
 30
0.0
 70
   128
 71
   5
 72
   105
 73
   104
  0
VERTEX
  8
jamJar
 10
0.0
 20
0.0
 30
0.0
 70
   128
 71
   102
 72
   94
 73
   93
  0
VERTEX
  8
jamJar
 10
0.0
 20
0.0
 30
0.0
 70
   128
 71
   28
 72
   20
 73
   19
  0
VERTEX
  8
jamJar
 10
0.0
 20
0.0
 30
0.0
 70
   128
 71
   29
 72
   21
 73
   20
  0
VERTEX
  8
jamJar
 10
0.0
 20
0.0
 30
0.0
 70
   128
 71
   30
 72
   22
 73
   21
  0
VERTEX
  8
jamJar
 10
0.0
 20
0.0
 30
0.0
 70
   128
 71
   31
 72
   23
 73
   22
  0
VERTEX
  8
jamJar
 10
0.0
 20
0.0
 30
0.0
 70
   128
 71
   32
 72
   24
 73
   23
  0
VERTEX
  8
jamJar
 10
0.0
 20
0.0
 30
0.0
 70
   128
 71
   33
 72
   25
 73
   24
  0
VERTEX
  8
jamJar
 10
0.0
 20
0.0
 30
0.0
 70
   128
 71
   34
 72
   26
 73
   25
  0
VERTEX
  8
jamJar
 10
0.0
 20
0.0
 30
0.0
 70
   128
 71
   35
 72
   27
 73
   26
  0
VERTEX
  8
jamJar
 10
0.0
 20
0.0
 30
0.0
 70
   128
 71
   6
 72
   106
 73
   105
  0
VERTEX
  8
jamJar
 10
0.0
 20
0.0
 30
0.0
 70
   128
 71
   103
 72
   95
 73
   94
  0
VERTEX
  8
jamJar
 10
0.0
 20
0.0
 30
0.0
 70
   128
 71
   37
 72
   29
 73
   28
  0
VERTEX
  8
jamJar
 10
0.0
 20
0.0
 30
0.0
 70
   128
 71
   38
 72
   30
 73
   29
  0
VERTEX
  8
jamJar
 10
0.0
 20
0.0
 30
0.0
 70
   128
 71
   39
 72
   31
 73
   30
  0
VERTEX
  8
jamJar
 10
0.0
 20
0.0
 30
0.0
 70
   128
 71
   40
 72
   32
 73
   31
  0
VERTEX
  8
jamJar
 10
0.0
 20
0.0
 30
0.0
 70
   128
 71
   41
 72
   33
 73
   32
  0
VERTEX
  8
jamJar
 10
0.0
 20
0.0
 30
0.0
 70
   128
 71
   42
 72
   34
 73
   33
  0
VERTEX
  8
jamJar
 10
0.0
 20
0.0
 30
0.0
 70
   128
 71
   43
 72
   35
 73
   34
  0
VERTEX
  8
jamJar
 10
0.0
 20
0.0
 30
0.0
 70
   128
 71
   44
 72
   36
 73
   35
  0
VERTEX
  8
jamJar
 10
0.0
 20
0.0
 30
0.0
 70
   128
 71
   7
 72
   107
 73
   106
  0
VERTEX
  8
jamJar
 10
0.0
 20
0.0
 30
0.0
 70
   128
 71
   104
 72
   96
 73
   95
  0
VERTEX
  8
jamJar
 10
0.0
 20
0.0
 30
0.0
 70
   128
 71
   46
 72
   38
 73
   37
  0
VERTEX
  8
jamJar
 10
0.0
 20
0.0
 30
0.0
 70
   128
 71
   47
 72
   39
 73
   38
  0
VERTEX
  8
jamJar
 10
0.0
 20
0.0
 30
0.0
 70
   128
 71
   48
 72
   40
 73
   39
  0
VERTEX
  8
jamJar
 10
0.0
 20
0.0
 30
0.0
 70
   128
 71
   49
 72
   41
 73
   40
  0
VERTEX
  8
jamJar
 10
0.0
 20
0.0
 30
0.0
 70
   128
 71
   50
 72
   42
 73
   41
  0
VERTEX
  8
jamJar
 10
0.0
 20
0.0
 30
0.0
 70
   128
 71
   51
 72
   43
 73
   42
  0
VERTEX
  8
jamJar
 10
0.0
 20
0.0
 30
0.0
 70
   128
 71
   52
 72
   44
 73
   43
  0
VERTEX
  8
jamJar
 10
0.0
 20
0.0
 30
0.0
 70
   128
 71
   53
 72
   45
 73
   44
  0
VERTEX
  8
jamJar
 10
0.0
 20
0.0
 30
0.0
 70
   128
 71
   8
 72
   108
 73
   107
  0
VERTEX
  8
jamJar
 10
0.0
 20
0.0
 30
0.0
 70
   128
 71
   105
 72
   97
 73
   96
  0
VERTEX
  8
jamJar
 10
0.0
 20
0.0
 30
0.0
 70
   128
 71
   55
 72
   47
 73
   46
  0
VERTEX
  8
jamJar
 10
0.0
 20
0.0
 30
0.0
 70
   128
 71
   56
 72
   48
 73
   47
  0
VERTEX
  8
jamJar
 10
0.0
 20
0.0
 30
0.0
 70
   128
 71
   57
 72
   49
 73
   48
  0
VERTEX
  8
jamJar
 10
0.0
 20
0.0
 30
0.0
 70
   128
 71
   58
 72
   50
 73
   49
  0
VERTEX
  8
jamJar
 10
0.0
 20
0.0
 30
0.0
 70
   128
 71
   59
 72
   51
 73
   50
  0
VERTEX
  8
jamJar
 10
0.0
 20
0.0
 30
0.0
 70
   128
 71
   60
 72
   52
 73
   51
  0
VERTEX
  8
jamJar
 10
0.0
 20
0.0
 30
0.0
 70
   128
 71
   61
 72
   53
 73
   52
  0
VERTEX
  8
jamJar
 10
0.0
 20
0.0
 30
0.0
 70
   128
 71
   62
 72
   54
 73
   53
  0
VERTEX
  8
jamJar
 10
0.0
 20
0.0
 30
0.0
 70
   128
 71
   106
 72
   98
 73
   97
  0
VERTEX
  8
jamJar
 10
0.0
 20
0.0
 30
0.0
 70
   128
 71
   107
 72
   99
 73
   98
  0
VERTEX
  8
jamJar
 10
0.0
 20
0.0
 30
0.0
 70
   128
 71
   64
 72
   56
 73
   55
  0
VERTEX
  8
jamJar
 10
0.0
 20
0.0
 30
0.0
 70
   128
 71
   65
 72
   57
 73
   56
  0
VERTEX
  8
jamJar
 10
0.0
 20
0.0
 30
0.0
 70
   128
 71
   66
 72
   58
 73
   57
  0
VERTEX
  8
jamJar
 10
0.0
 20
0.0
 30
0.0
 70
   128
 71
   67
 72
   59
 73
   58
  0
VERTEX
  8
jamJar
 10
0.0
 20
0.0
 30
0.0
 70
   128
 71
   68
 72
   60
 73
   59
  0
VERTEX
  8
jamJar
 10
0.0
 20
0.0
 30
0.0
 70
   128
 71
   69
 72
   61
 73
   60
  0
VERTEX
  8
jamJar
 10
0.0
 20
0.0
 30
0.0
 70
   128
 71
   70
 72
   62
 73
   61
  0
VERTEX
  8
jamJar
 10
0.0
 20
0.0
 30
0.0
 70
   128
 71
   71
 72
   63
 73
   62
  0
VERTEX
  8
jamJar
 10
0.0
 20
0.0
 30
0.0
 70
   128
 71
   1
 72
   101
 73
   100
  0
VERTEX
  8
jamJar
 10
0.0
 20
0.0
 30
0.0
 70
   128
 71
   2
 72
   102
 73
   101
  0
VERTEX
  8
jamJar
 10
0.0
 20
0.0
 30
0.0
 70
   128
 71
   73
 72
   65
 73
   64
  0
VERTEX
  8
jamJar
 10
0.0
 20
0.0
 30
0.0
 70
   128
 71
   74
 72
   66
 73
   65
  0
VERTEX
  8
jamJar
 10
0.0
 20
0.0
 30
0.0
 70
   128
 71
   75
 72
   67
 73
   66
  0
VERTEX
  8
jamJar
 10
0.0
 20
0.0
 30
0.0
 70
   128
 71
   76
 72
   68
 73
   67
  0
VERTEX
  8
jamJar
 10
0.0
 20
0.0
 30
0.0
 70
   128
 71
   77
 72
   69
 73
   68
  0
VERTEX
  8
jamJar
 10
0.0
 20
0.0
 30
0.0
 70
   128
 71
   78
 72
   70
 73
   69
  0
VERTEX
  8
jamJar
 10
0.0
 20
0.0
 30
0.0
 70
   128
 71
   79
 72
   71
 73
   70
  0
VERTEX
  8
jamJar
 10
0.0
 20
0.0
 30
0.0
 70
   128
 71
   80
 72
   72
 73
   71
  0
VERTEX
  8
jamJar
 10
0.0
 20
0.0
 30
0.0
 70
   128
 71
   3
 72
   103
 73
   102
  0
VERTEX
  8
jamJar
 10
0.0
 20
0.0
 30
0.0
 70
   128
 71
   9
 72
   27
 73
   36
  0
VERTEX
  8
jamJar
 10
0.0
 20
0.0
 30
0.0
 70
   128
 71
   82
 72
   74
 73
   73
  0
VERTEX
  8
jamJar
 10
0.0
 20
0.0
 30
0.0
 70
   128
 71
   83
 72
   75
 73
   74
  0
VERTEX
  8
jamJar
 10
0.0
 20
0.0
 30
0.0
 70
   128
 71
   84
 72
   76
 73
   75
  0
VERTEX
  8
jamJar
 10
0.0
 20
0.0
 30
0.0
 70
   128
 71
   85
 72
   77
 73
   76
  0
VERTEX
  8
jamJar
 10
0.0
 20
0.0
 30
0.0
 70
   128
 71
   86
 72
   78
 73
   77
  0
VERTEX
  8
jamJar
 10
0.0
 20
0.0
 30
0.0
 70
   128
 71
   87
 72
   79
 73
   78
  0
VERTEX
  8
jamJar
 10
0.0
 20
0.0
 30
0.0
 70
   128
 71
   88
 72
   80
 73
   79
  0
VERTEX
  8
jamJar
 10
0.0
 20
0.0
 30
0.0
 70
   128
 71
   89
 72
   81
 73
   80
  0
VERTEX
  8
jamJar
 10
0.0
 20
0.0
 30
0.0
 70
   128
 71
   9
 72
   45
 73
   54
  0
VERTEX
  8
jamJar
 10
0.0
 20
0.0
 30
0.0
 70
   128
 71
   108
 72
   54
 73
   81
  0
VERTEX
  8
jamJar
 10
0.0
 20
0.0
 30
0.0
 70
   128
 71
   91
 72
   83
 73
   82
  0
VERTEX
  8
jamJar
 10
0.0
 20
0.0
 30
0.0
 70
   128
 71
   92
 72
   84
 73
   83
  0
VERTEX
  8
jamJar
 10
0.0
 20
0.0
 30
0.0
 70
   128
 71
   93
 72
   85
 73
   84
  0
VERTEX
  8
jamJar
 10
0.0
 20
0.0
 30
0.0
 70
   128
 71
   94
 72
   86
 73
   85
  0
VERTEX
  8
jamJar
 10
0.0
 20
0.0
 30
0.0
 70
   128
 71
   95
 72
   87
 73
   86
  0
VERTEX
  8
jamJar
 10
0.0
 20
0.0
 30
0.0
 70
   128
 71
   96
 72
   88
 73
   87
  0
VERTEX
  8
jamJar
 10
0.0
 20
0.0
 30
0.0
 70
   128
 71
   97
 72
   89
 73
   88
  0
VERTEX
  8
jamJar
 10
0.0
 20
0.0
 30
0.0
 70
   128
 71
   98
 72
   90
 73
   89
  0
VERTEX
  8
jamJar
 10
0.0
 20
0.0
 30
0.0
 70
   128
 71
   81
 72
   63
 73
   72
  0
VERTEX
  8
jamJar
 10
0.0
 20
0.0
 30
0.0
 70
   128
 71
   108
 72
   90
 73
   99
  0
VERTEX
  8
jamJar
 10
0.0
 20
0.0
 30
0.0
 70
   128
 71
   37
 72
   100
 73
   73
  0
VERTEX
  8
jamJar
 10
0.0
 20
0.0
 30
0.0
 70
   128
 71
   73
 72
   91
 73
   82
  0
VERTEX
  8
jamJar
 10
0.0
 20
0.0
 30
0.0
 70
   128
 71
   37
 72
   64
 73
   55
  0
VERTEX
  8
jamJar
 10
0.0
 20
0.0
 30
0.0
 70
   128
 71
   37
 72
   19
 73
   10
  0
SEQEND
  0
POLYLINE
  8
lid
 66
   1
 10
0.0
 20
0.0
 30
0.0
 70
   64
 71
   60
 72
   116
  0
VERTEX
  8
lid
 10
42.229743
 20
145.417627
 30
0.000000
 70
   192
  0
VERTEX
  8
lid
 10
47.999231
 20
141.468040
 30
0.000000
 70
   192
  0
VERTEX
  8
lid
 10
55.708568
 20
143.780841
 30
0.000000
 70
   192
  0
VERTEX
  8
lid
 10
57.250435
 20
118.340029
 30
0.000000
 70
   192
  0
VERTEX
  8
lid
 10
54.963975
 20
116.027228
 30
0.000000
 70
   192
  0
VERTEX
  8
lid
 10
36.572031
 20
145.417627
 30
-21.114872
 70
   192
  0
VERTEX
  8
lid
 10
41.568553
 20
141.468040
 30
-23.999615
 70
   192
  0
VERTEX
  8
lid
 10
48.245035
 20
143.780841
 30
-27.854284
 70
   192
  0
VERTEX
  8
lid
 10
49.580331
 20
118.340029
 30
-28.625217
 70
   192
  0
VERTEX
  8
lid
 10
47.600199
 20
116.027228
 30
-27.481988
 70
   192
  0
VERTEX
  8
lid
 10
21.114872
 20
145.417627
 30
-36.572031
 70
   192
  0
VERTEX
  8
lid
 10
23.999615
 20
141.468040
 30
-41.568553
 70
   192
  0
VERTEX
  8
lid
 10
27.854284
 20
143.780841
 30
-48.245035
 70
   192
  0
VERTEX
  8
lid
 10
28.625217
 20
118.340029
 30
-49.580331
 70
   192
  0
VERTEX
  8
lid
 10
27.481988
 20
116.027228
 30
-47.600199
 70
   192
  0
VERTEX
  8
lid
 10
0.000000
 20
145.417627
 30
-42.229743
 70
   192
  0
VERTEX
  8
lid
 10
0.000000
 20
141.468040
 30
-47.999231
 70
   192
  0
VERTEX
  8
lid
 10
0.000000
 20
143.780841
 30
-55.708568
 70
   192
  0
VERTEX
  8
lid
 10
0.000000
 20
118.340029
 30
-57.250435
 70
   192
  0
VERTEX
  8
lid
 10
0.000000
 20
116.027228
 30
-54.963975
 70
   192
  0
VERTEX
  8
lid
 10
-21.114872
 20
145.417627
 30
-36.572031
 70
   192
  0
VERTEX
  8
lid
 10
-23.999615
 20
141.468040
 30
-41.568553
 70
   192
  0
VERTEX
  8
lid
 10
-27.854284
 20
143.780841
 30
-48.245035
 70
   192
  0
VERTEX
  8
lid
 10
-28.625217
 20
118.340029
 30
-49.580331
 70
   192
  0
VERTEX
  8
lid
 10
-27.481988
 20
116.027228
 30
-47.600199
 70
   192
  0
VERTEX
  8
lid
 10
-36.572031
 20
145.417627
 30
-21.114872
 70
   192
  0
VERTEX
  8
lid
 10
-41.568553
 20
141.468040
 30
-23.999615
 70
   192
  0
VERTEX
  8
lid
 10
-48.245035
 20
143.780841
 30
-27.854284
 70
   192
  0
VERTEX
  8
lid
 10
-49.580331
 20
118.340029
 30
-28.625217
 70
   192
  0
VERTEX
  8
lid
 10
-47.600199
 20
116.027228
 30
-27.481988
 70
   192
  0
VERTEX
  8
lid
 10
-42.229743
 20
145.417627
 30
-0.000000
 70
   192
  0
VERTEX
  8
lid
 10
-47.999231
 20
141.468040
 30
-0.000000
 70
   192
  0
VERTEX
  8
lid
 10
-55.708568
 20
143.780841
 30
-0.000000
 70
   192
  0
VERTEX
  8
lid
 10
-57.250435
 20
118.340029
 30
-0.000000
 70
   192
  0
VERTEX
  8
lid
 10
-54.963975
 20
116.027228
 30
-0.000000
 70
   192
  0
VERTEX
  8
lid
 10
-36.572031
 20
145.417627
 30
21.114872
 70
   192
  0
VERTEX
  8
lid
 10
-41.568553
 20
141.468040
 30
23.999615
 70
   192
  0
VERTEX
  8
lid
 10
-48.245035
 20
143.780841
 30
27.854284
 70
   192
  0
VERTEX
  8
lid
 10
-49.580331
 20
118.340029
 30
28.625217
 70
   192
  0
VERTEX
  8
lid
 10
-47.600199
 20
116.027228
 30
27.481988
 70
   192
  0
VERTEX
  8
lid
 10
-21.114872
 20
145.417627
 30
36.572031
 70
   192
  0
VERTEX
  8
lid
 10
-23.999615
 20
141.468040
 30
41.568553
 70
   192
  0
VERTEX
  8
lid
 10
-27.854284
 20
143.780841
 30
48.245035
 70
   192
  0
VERTEX
  8
lid
 10
-28.625217
 20
118.340029
 30
49.580331
 70
   192
  0
VERTEX
  8
lid
 10
-27.481988
 20
116.027228
 30
47.600199
 70
   192
  0
VERTEX
  8
lid
 10
-0.000000
 20
145.417627
 30
42.229743
 70
   192
  0
VERTEX
  8
lid
 10
-0.000000
 20
141.468040
 30
47.999231
 70
   192
  0
VERTEX
  8
lid
 10
-0.000000
 20
143.780841
 30
55.708568
 70
   192
  0
VERTEX
  8
lid
 10
-0.000000
 20
118.340029
 30
57.250435
 70
   192
  0
VERTEX
  8
lid
 10
-0.000000
 20
116.027228
 30
54.963975
 70
   192
  0
VERTEX
  8
lid
 10
21.114872
 20
145.417627
 30
36.572031
 70
   192
  0
VERTEX
  8
lid
 10
23.999615
 20
141.468040
 30
41.568553
 70
   192
  0
VERTEX
  8
lid
 10
27.854284
 20
143.780841
 30
48.245035
 70
   192
  0
VERTEX
  8
lid
 10
28.625217
 20
118.340029
 30
49.580331
 70
   192
  0
VERTEX
  8
lid
 10
27.481988
 20
116.027228
 30
47.600199
 70
   192
  0
VERTEX
  8
lid
 10
36.572031
 20
145.417627
 30
21.114872
 70
   192
  0
VERTEX
  8
lid
 10
41.568553
 20
141.468040
 30
23.999615
 70
   192
  0
VERTEX
  8
lid
 10
48.245035
 20
143.780841
 30
27.854284
 70
   192
  0
VERTEX
  8
lid
 10
49.580331
 20
118.340029
 30
28.625217
 70
   192
  0
VERTEX
  8
lid
 10
47.600199
 20
116.027228
 30
27.481988
 70
   192
  0
VERTEX
  8
lid
 10
0.0
 20
0.0
 30
0.0
 70
   128
 71
   56
 72
   57
 73
   52
  0
VERTEX
  8
lid
 10
0.0
 20
0.0
 30
0.0
 70
   128
 71
   6
 72
   7
 73
   2
  0
VERTEX
  8
lid
 10
0.0
 20
0.0
 30
0.0
 70
   128
 71
   7
 72
   8
 73
   3
  0
VERTEX
  8
lid
 10
0.0
 20
0.0
 30
0.0
 70
   128
 71
   8
 72
   9
 73
   4
  0
VERTEX
  8
lid
 10
0.0
 20
0.0
 30
0.0
 70
   128
 71
   9
 72
   10
 73
   5
  0
VERTEX
  8
lid
 10
0.0
 20
0.0
 30
0.0
 70
   128
 71
   34
 72
   35
 73
   30
  0
VERTEX
  8
lid
 10
0.0
 20
0.0
 30
0.0
 70
   128
 71
   36
 72
   37
 73
   32
  0
VERTEX
  8
lid
 10
0.0
 20
0.0
 30
0.0
 70
   128
 71
   37
 72
   38
 73
   33
  0
VERTEX
  8
lid
 10
0.0
 20
0.0
 30
0.0
 70
   128
 71
   38
 72
   39
 73
   34
  0
VERTEX
  8
lid
 10
0.0
 20
0.0
 30
0.0
 70
   128
 71
   4
 72
   5
 73
   60
  0
VERTEX
  8
lid
 10
0.0
 20
0.0
 30
0.0
 70
   128
 71
   57
 72
   58
 73
   53
  0
VERTEX
  8
lid
 10
0.0
 20
0.0
 30
0.0
 70
   128
 71
   11
 72
   12
 73
   7
  0
VERTEX
  8
lid
 10
0.0
 20
0.0
 30
0.0
 70
   128
 71
   12
 72
   13
 73
   8
  0
VERTEX
  8
lid
 10
0.0
 20
0.0
 30
0.0
 70
   128
 71
   13
 72
   14
 73
   9
  0
VERTEX
  8
lid
 10
0.0
 20
0.0
 30
0.0
 70
   128
 71
   14
 72
   15
 73
   10
  0
VERTEX
  8
lid
 10
0.0
 20
0.0
 30
0.0
 70
   128
 71
   39
 72
   40
 73
   35
  0
VERTEX
  8
lid
 10
0.0
 20
0.0
 30
0.0
 70
   128
 71
   1
 72
   2
 73
   57
  0
VERTEX
  8
lid
 10
0.0
 20
0.0
 30
0.0
 70
   128
 71
   2
 72
   3
 73
   58
  0
VERTEX
  8
lid
 10
0.0
 20
0.0
 30
0.0
 70
   128
 71
   41
 72
   42
 73
   37
  0
VERTEX
  8
lid
 10
0.0
 20
0.0
 30
0.0
 70
   128
 71
   42
 72
   43
 73
   38
  0
VERTEX
  8
lid
 10
0.0
 20
0.0
 30
0.0
 70
   128
 71
   58
 72
   59
 73
   54
  0
VERTEX
  8
lid
 10
0.0
 20
0.0
 30
0.0
 70
   128
 71
   16
 72
   17
 73
   12
  0
VERTEX
  8
lid
 10
0.0
 20
0.0
 30
0.0
 70
   128
 71
   17
 72
   18
 73
   13
  0
VERTEX
  8
lid
 10
0.0
 20
0.0
 30
0.0
 70
   128
 71
   18
 72
   19
 73
   14
  0
VERTEX
  8
lid
 10
0.0
 20
0.0
 30
0.0
 70
   128
 71
   19
 72
   20
 73
   15
  0
VERTEX
  8
lid
 10
0.0
 20
0.0
 30
0.0
 70
   128
 71
   43
 72
   44
 73
   39
  0
VERTEX
  8
lid
 10
0.0
 20
0.0
 30
0.0
 70
   128
 71
   44
 72
   45
 73
   40
  0
VERTEX
  8
lid
 10
0.0
 20
0.0
 30
0.0
 70
   128
 71
   3
 72
   4
 73
   59
  0
VERTEX
  8
lid
 10
0.0
 20
0.0
 30
0.0
 70
   128
 71
   46
 72
   47
 73
   42
  0
VERTEX
  8
lid
 10
0.0
 20
0.0
 30
0.0
 70
   128
 71
   47
 72
   48
 73
   43
  0
VERTEX
  8
lid
 10
0.0
 20
0.0
 30
0.0
 70
   128
 71
   59
 72
   60
 73
   55
  0
VERTEX
  8
lid
 10
0.0
 20
0.0
 30
0.0
 70
   128
 71
   21
 72
   22
 73
   17
  0
VERTEX
  8
lid
 10
0.0
 20
0.0
 30
0.0
 70
   128
 71
   22
 72
   23
 73
   18
  0
VERTEX
  8
lid
 10
0.0
 20
0.0
 30
0.0
 70
   128
 71
   23
 72
   24
 73
   19
  0
VERTEX
  8
lid
 10
0.0
 20
0.0
 30
0.0
 70
   128
 71
   24
 72
   25
 73
   20
  0
VERTEX
  8
lid
 10
0.0
 20
0.0
 30
0.0
 70
   128
 71
   48
 72
   49
 73
   44
  0
VERTEX
  8
lid
 10
0.0
 20
0.0
 30
0.0
 70
   128
 71
   49
 72
   50
 73
   45
  0
VERTEX
  8
lid
 10
0.0
 20
0.0
 30
0.0
 70
   128
 71
   51
 72
   52
 73
   47
  0
VERTEX
  8
lid
 10
0.0
 20
0.0
 30
0.0
 70
   128
 71
   52
 72
   53
 73
   48
  0
VERTEX
  8
lid
 10
0.0
 20
0.0
 30
0.0
 70
   128
 71
   53
 72
   54
 73
   49
  0
VERTEX
  8
lid
 10
0.0
 20
0.0
 30
0.0
 70
   128
 71
   54
 72
   55
 73
   50
  0
VERTEX
  8
lid
 10
0.0
 20
0.0
 30
0.0
 70
   128
 71
   26
 72
   27
 73
   22
  0
VERTEX
  8
lid
 10
0.0
 20
0.0
 30
0.0
 70
   128
 71
   27
 72
   28
 73
   23
  0
VERTEX
  8
lid
 10
0.0
 20
0.0
 30
0.0
 70
   128
 71
   28
 72
   29
 73
   24
  0
VERTEX
  8
lid
 10
0.0
 20
0.0
 30
0.0
 70
   128
 71
   29
 72
   30
 73
   25
  0
VERTEX
  8
lid
 10
0.0
 20
0.0
 30
0.0
 70
   128
 71
   1
 72
   56
 73
   6
  0
VERTEX
  8
lid
 10
0.0
 20
0.0
 30
0.0
 70
   128
 71
   21
 72
   6
 73
   56
  0
VERTEX
  8
lid
 10
0.0
 20
0.0
 30
0.0
 70
   128
 71
   41
 72
   56
 73
   51
  0
VERTEX
  8
lid
 10
0.0
 20
0.0
 30
0.0
 70
   128
 71
   21
 72
   41
 73
   36
  0
VERTEX
  8
lid
 10
0.0
 20
0.0
 30
0.0
 70
   128
 71
   31
 72
   26
 73
   21
  0
VERTEX
  8
lid
 10
0.0
 20
0.0
 30
0.0
 70
   128
 71
   21
 72
   16
 73
   11
  0
VERTEX
  8
lid
 10
0.0
 20
0.0
 30
0.0
 70
   128
 71
   31
 72
   32
 73
   27
  0
VERTEX
  8
lid
 10
0.0
 20
0.0
 30
0.0
 70
   128
 71
   32
 72
   33
 73
   28
  0
VERTEX
  8
lid
 10
0.0
 20
0.0
 30
0.0
 70
   128
 71
   33
 72
   34
 73
   29
  0
VERTEX
  8
lid
 10
0.0
 20
0.0
 30
0.0
 70
   128
 71
   20
 72
   5
 73
   10
  0
VERTEX
  8
lid
 10
0.0
 20
0.0
 30
0.0
 70
   128
 71
   50
 72
   5
 73
   20
  0
VERTEX
  8
lid
 10
0.0
 20
0.0
 30
0.0
 70
   128
 71
   60
 72
   5
 73
   50
  0
VERTEX
  8
lid
 10
0.0
 20
0.0
 30
0.0
 70
   128
 71
   50
 72
   25
 73
   30
  0
VERTEX
  8
lid
 10
0.0
 20
0.0
 30
0.0
 70
   128
 71
   35
 72
   40
 73
   45
  0
VERTEX
  8
lid
 10
0.0
 20
0.0
 30
0.0
 70
   128
 71
   56
 72
   52
 73
   51
  0
VERTEX
  8
lid
 10
0.0
 20
0.0
 30
0.0
 70
   128
 71
   6
 72
   2
 73
   1
  0
VERTEX
  8
lid
 10
0.0
 20
0.0
 30
0.0
 70
   128
 71
   7
 72
   3
 73
   2
  0
VERTEX
  8
lid
 10
0.0
 20
0.0
 30
0.0
 70
   128
 71
   8
 72
   4
 73
   3
  0
VERTEX
  8
lid
 10
0.0
 20
0.0
 30
0.0
 70
   128
 71
   9
 72
   5
 73
   4
  0
VERTEX
  8
lid
 10
0.0
 20
0.0
 30
0.0
 70
   128
 71
   34
 72
   30
 73
   29
  0
VERTEX
  8
lid
 10
0.0
 20
0.0
 30
0.0
 70
   128
 71
   36
 72
   32
 73
   31
  0
VERTEX
  8
lid
 10
0.0
 20
0.0
 30
0.0
 70
   128
 71
   37
 72
   33
 73
   32
  0
VERTEX
  8
lid
 10
0.0
 20
0.0
 30
0.0
 70
   128
 71
   38
 72
   34
 73
   33
  0
VERTEX
  8
lid
 10
0.0
 20
0.0
 30
0.0
 70
   128
 71
   4
 72
   60
 73
   59
  0
VERTEX
  8
lid
 10
0.0
 20
0.0
 30
0.0
 70
   128
 71
   57
 72
   53
 73
   52
  0
VERTEX
  8
lid
 10
0.0
 20
0.0
 30
0.0
 70
   128
 71
   11
 72
   7
 73
   6
  0
VERTEX
  8
lid
 10
0.0
 20
0.0
 30
0.0
 70
   128
 71
   12
 72
   8
 73
   7
  0
VERTEX
  8
lid
 10
0.0
 20
0.0
 30
0.0
 70
   128
 71
   13
 72
   9
 73
   8
  0
VERTEX
  8
lid
 10
0.0
 20
0.0
 30
0.0
 70
   128
 71
   14
 72
   10
 73
   9
  0
VERTEX
  8
lid
 10
0.0
 20
0.0
 30
0.0
 70
   128
 71
   39
 72
   35
 73
   34
  0
VERTEX
  8
lid
 10
0.0
 20
0.0
 30
0.0
 70
   128
 71
   1
 72
   57
 73
   56
  0
VERTEX
  8
lid
 10
0.0
 20
0.0
 30
0.0
 70
   128
 71
   2
 72
   58
 73
   57
  0
VERTEX
  8
lid
 10
0.0
 20
0.0
 30
0.0
 70
   128
 71
   41
 72
   37
 73
   36
  0
VERTEX
  8
lid
 10
0.0
 20
0.0
 30
0.0
 70
   128
 71
   42
 72
   38
 73
   37
  0
VERTEX
  8
lid
 10
0.0
 20
0.0
 30
0.0
 70
   128
 71
   58
 72
   54
 73
   53
  0
VERTEX
  8
lid
 10
0.0
 20
0.0
 30
0.0
 70
   128
 71
   16
 72
   12
 73
   11
  0
VERTEX
  8
lid
 10
0.0
 20
0.0
 30
0.0
 70
   128
 71
   17
 72
   13
 73
   12
  0
VERTEX
  8
lid
 10
0.0
 20
0.0
 30
0.0
 70
   128
 71
   18
 72
   14
 73
   13
  0
VERTEX
  8
lid
 10
0.0
 20
0.0
 30
0.0
 70
   128
 71
   19
 72
   15
 73
   14
  0
VERTEX
  8
lid
 10
0.0
 20
0.0
 30
0.0
 70
   128
 71
   43
 72
   39
 73
   38
  0
VERTEX
  8
lid
 10
0.0
 20
0.0
 30
0.0
 70
   128
 71
   44
 72
   40
 73
   39
  0
VERTEX
  8
lid
 10
0.0
 20
0.0
 30
0.0
 70
   128
 71
   3
 72
   59
 73
   58
  0
VERTEX
  8
lid
 10
0.0
 20
0.0
 30
0.0
 70
   128
 71
   46
 72
   42
 73
   41
  0
VERTEX
  8
lid
 10
0.0
 20
0.0
 30
0.0
 70
   128
 71
   47
 72
   43
 73
   42
  0
VERTEX
  8
lid
 10
0.0
 20
0.0
 30
0.0
 70
   128
 71
   59
 72
   55
 73
   54
  0
VERTEX
  8
lid
 10
0.0
 20
0.0
 30
0.0
 70
   128
 71
   21
 72
   17
 73
   16
  0
VERTEX
  8
lid
 10
0.0
 20
0.0
 30
0.0
 70
   128
 71
   22
 72
   18
 73
   17
  0
VERTEX
  8
lid
 10
0.0
 20
0.0
 30
0.0
 70
   128
 71
   23
 72
   19
 73
   18
  0
VERTEX
  8
lid
 10
0.0
 20
0.0
 30
0.0
 70
   128
 71
   24
 72
   20
 73
   19
  0
VERTEX
  8
lid
 10
0.0
 20
0.0
 30
0.0
 70
   128
 71
   48
 72
   44
 73
   43
  0
VERTEX
  8
lid
 10
0.0
 20
0.0
 30
0.0
 70
   128
 71
   49
 72
   45
 73
   44
  0
VERTEX
  8
lid
 10
0.0
 20
0.0
 30
0.0
 70
   128
 71
   51
 72
   47
 73
   46
  0
VERTEX
  8
lid
 10
0.0
 20
0.0
 30
0.0
 70
   128
 71
   52
 72
   48
 73
   47
  0
VERTEX
  8
lid
 10
0.0
 20
0.0
 30
0.0
 70
   128
 71
   53
 72
   49
 73
   48
  0
VERTEX
  8
lid
 10
0.0
 20
0.0
 30
0.0
 70
   128
 71
   54
 72
   50
 73
   49
  0
VERTEX
  8
lid
 10
0.0
 20
0.0
 30
0.0
 70
   128
 71
   26
 72
   22
 73
   21
  0
VERTEX
  8
lid
 10
0.0
 20
0.0
 30
0.0
 70
   128
 71
   27
 72
   23
 73
   22
  0
VERTEX
  8
lid
 10
0.0
 20
0.0
 30
0.0
 70
   128
 71
   28
 72
   24
 73
   23
  0
VERTEX
  8
lid
 10
0.0
 20
0.0
 30
0.0
 70
   128
 71
   29
 72
   25
 73
   24
  0
VERTEX
  8
lid
 10
0.0
 20
0.0
 30
0.0
 70
   128
 71
   21
 72
   56
 73
   41
  0
VERTEX
  8
lid
 10
0.0
 20
0.0
 30
0.0
 70
   128
 71
   41
 72
   51
 73
   46
  0
VERTEX
  8
lid
 10
0.0
 20
0.0
 30
0.0
 70
   128
 71
   21
 72
   36
 73
   31
  0
VERTEX
  8
lid
 10
0.0
 20
0.0
 30
0.0
 70
   128
 71
   21
 72
   11
 73
   6
  0
VERTEX
  8
lid
 10
0.0
 20
0.0
 30
0.0
 70
   128
 71
   31
 72
   27
 73
   26
  0
VERTEX
  8
lid
 10
0.0
 20
0.0
 30
0.0
 70
   128
 71
   32
 72
   28
 73
   27
  0
VERTEX
  8
lid
 10
0.0
 20
0.0
 30
0.0
 70
   128
 71
   33
 72
   29
 73
   28
  0
VERTEX
  8
lid
 10
0.0
 20
0.0
 30
0.0
 70
   128
 71
   20
 72
   10
 73
   15
  0
VERTEX
  8
lid
 10
0.0
 20
0.0
 30
0.0
 70
   128
 71
   50
 72
   20
 73
   25
  0
VERTEX
  8
lid
 10
0.0
 20
0.0
 30
0.0
 70
   128
 71
   60
 72
   50
 73
   55
  0
VERTEX
  8
lid
 10
0.0
 20
0.0
 30
0.0
 70
   128
 71
   50
 72
   30
 73
   35
  0
VERTEX
  8
lid
 10
0.0
 20
0.0
 30
0.0
 70
   128
 71
   35
 72
   45
 73
   50
  0
SEQEND
  0
ENDSEC
  0
EOF
