999
FBX AutoCAD (*.DXF) exporter
  0
SECTION
  2
HEADER
  9
$ACADVER
  1
AC1008
  9
$UCSORG
 10
0.0
 20
0.0
 30
0.0
  9
$UCSXDIR
 10
1.0
 20
0.0
 30
0.0
  9
$TILEMODE
 70
   1
  9
$UCSYDIR
 10
0.0
 20
1.0
 30
0.0
  0
ENDSEC
  0
SECTION
  2
TABLES
  0
TABLE
  2
LTYPE
 70
   1
  0
LTYPE
  2
CONTINUOUS
 70
   64
  3
Solid line
 72
   65
 73
   0
 40
0.0
  0
ENDTAB
  0
TABLE
  2
LAYER
 70
   1
  0
LAYER
  2
cheese
 70
   0
 62
   250
  6
CONTINUOUS
  0
ENDTAB
  0
ENDSEC
  0
SECTION
  2
BLOCKS
  0
ENDSEC
  0
SECTION
  2
ENTITIES
  0
POLYLINE
  8
cheese
 66
   1
 10
0.0
 20
0.0
 30
0.0
 70
   64
 71
   289
 72
   574
  0
VERTEX
  8
cheese
 10
-97.324900
 20
-1.530454
 30
65.092978
 70
   192
  0
VERTEX
  8
cheese
 10
-97.324900
 20
114.285634
 30
65.092978
 70
   192
  0
VERTEX
  8
cheese
 10
-95.469647
 20
-1.530454
 30
68.982595
 70
   192
  0
VERTEX
  8
cheese
 10
96.453618
 20
-1.530454
 30
68.982595
 70
   192
  0
VERTEX
  8
cheese
 10
-68.393340
 20
-6.535456
 30
37.318505
 70
   192
  0
VERTEX
  8
cheese
 10
29.235474
 20
-6.535456
 30
-83.243040
 70
   192
  0
VERTEX
  8
cheese
 10
42.018370
 20
-6.535456
 30
-71.657298
 70
   192
  0
VERTEX
  8
cheese
 10
-79.995975
 20
-6.535456
 30
52.838510
 70
   192
  0
VERTEX
  8
cheese
 10
56.753253
 20
-6.535456
 30
-54.965889
 70
   192
  0
VERTEX
  8
cheese
 10
-78.330042
 20
-6.535456
 30
55.212193
 70
   192
  0
VERTEX
  8
cheese
 10
69.543687
 20
-6.535456
 30
-36.741600
 70
   192
  0
VERTEX
  8
cheese
 10
-76.937973
 20
-6.535456
 30
57.756176
 70
   192
  0
VERTEX
  8
cheese
 10
80.231491
 20
-6.535456
 30
-17.209812
 70
   192
  0
VERTEX
  8
cheese
 10
-75.836984
 20
-6.535456
 30
60.438997
 70
   192
  0
VERTEX
  8
cheese
 10
88.684488
 20
-6.535456
 30
3.387924
 70
   192
  0
VERTEX
  8
cheese
 10
-75.040691
 20
-6.535456
 30
63.227478
 70
   192
  0
VERTEX
  8
cheese
 10
94.798140
 20
-6.535456
 30
24.796874
 70
   192
  0
VERTEX
  8
cheese
 10
-55.677607
 20
-6.535456
 30
63.977593
 70
   192
  0
VERTEX
  8
cheese
 10
99.456114
 20
-6.535456
 30
63.977593
 70
   192
  0
VERTEX
  8
cheese
 10
98.496838
 20
-6.535456
 30
46.752273
 70
   192
  0
VERTEX
  8
cheese
 10
-92.180669
 20
112.300900
 30
68.982595
 70
   192
  0
VERTEX
  8
cheese
 10
99.742596
 20
112.300900
 30
68.982595
 70
   192
  0
VERTEX
  8
cheese
 10
99.456114
 20
117.305902
 30
63.977593
 70
   192
  0
VERTEX
  8
cheese
 10
-55.677607
 20
117.305902
 30
63.977593
 70
   192
  0
VERTEX
  8
cheese
 10
104.469302
 20
-1.530454
 30
63.985336
 70
   192
  0
VERTEX
  8
cheese
 10
104.469302
 20
112.300900
 30
63.985336
 70
   192
  0
VERTEX
  8
cheese
 10
103.478599
 20
112.300900
 30
46.195679
 70
   192
  0
VERTEX
  8
cheese
 10
103.478599
 20
-1.530454
 30
46.195679
 70
   192
  0
VERTEX
  8
cheese
 10
99.687294
 20
112.300900
 30
23.690571
 70
   192
  0
VERTEX
  8
cheese
 10
98.496838
 20
117.305902
 30
46.752273
 70
   192
  0
VERTEX
  8
cheese
 10
99.687294
 20
-1.530454
 30
23.690571
 70
   192
  0
VERTEX
  8
cheese
 10
94.798140
 20
117.305902
 30
24.796874
 70
   192
  0
VERTEX
  8
cheese
 10
-80.769948
 20
117.305902
 30
64.523876
 70
   192
  0
VERTEX
  8
cheese
 10
93.420571
 20
-1.530454
 30
1.745593
 70
   192
  0
VERTEX
  8
cheese
 10
-81.386868
 20
117.305902
 30
62.363530
 70
   192
  0
VERTEX
  8
cheese
 10
84.755932
 20
-1.530454
 30
-19.367860
 70
   192
  0
VERTEX
  8
cheese
 10
-82.239848
 20
117.305902
 30
60.285041
 70
   192
  0
VERTEX
  8
cheese
 10
73.800531
 20
-1.530454
 30
-39.388676
 70
   192
  0
VERTEX
  8
cheese
 10
60.689856
 20
112.300900
 30
-58.069257
 70
   192
  0
VERTEX
  8
cheese
 10
-83.318339
 20
117.305902
 30
58.314116
 70
   192
  0
VERTEX
  8
cheese
 10
60.689856
 20
-1.530454
 30
-58.069257
 70
   192
  0
VERTEX
  8
cheese
 10
45.586048
 20
112.300900
 30
-75.178577
 70
   192
  0
VERTEX
  8
cheese
 10
56.753253
 20
117.305902
 30
-54.965889
 70
   192
  0
VERTEX
  8
cheese
 10
-84.609004
 20
117.305902
 30
56.475129
 70
   192
  0
VERTEX
  8
cheese
 10
45.586048
 20
-1.530454
 30
-75.178577
 70
   192
  0
VERTEX
  8
cheese
 10
32.384358
 20
112.300900
 30
-87.143892
 70
   192
  0
VERTEX
  8
cheese
 10
32.384358
 20
-1.530454
 30
-87.143892
 70
   192
  0
VERTEX
  8
cheese
 10
42.018370
 20
117.305902
 30
-71.657298
 70
   192
  0
VERTEX
  8
cheese
 10
-68.393340
 20
117.305902
 30
37.318505
 70
   192
  0
VERTEX
  8
cheese
 10
29.235474
 20
117.305902
 30
-83.243040
 70
   192
  0
VERTEX
  8
cheese
 10
25.526146
 20
-3.515188
 30
-86.615429
 70
   192
  0
VERTEX
  8
cheese
 10
25.526146
 20
112.300900
 30
-86.615429
 70
   192
  0
VERTEX
  8
cheese
 10
-8.137703
 20
28.764790
 30
-45.044037
 70
   192
  0
VERTEX
  8
cheese
 10
-6.516981
 20
98.189043
 30
-47.045463
 70
   192
  0
VERTEX
  8
cheese
 10
13.806841
 20
117.305902
 30
-45.523280
 70
   192
  0
VERTEX
  8
cheese
 10
-0.302448
 20
96.027669
 30
-54.719771
 70
   192
  0
VERTEX
  8
cheese
 10
11.394123
 20
113.979887
 30
-66.495897
 70
   192
  0
VERTEX
  8
cheese
 10
79.907778
 20
117.305902
 30
6.431421
 70
   192
  0
VERTEX
  8
cheese
 10
13.214200
 20
117.305902
 30
-63.458414
 70
   192
  0
VERTEX
  8
cheese
 10
-34.526500
 20
54.068783
 30
-12.456587
 70
   192
  0
VERTEX
  8
cheese
 10
25.618297
 20
117.305902
 30
63.977593
 70
   192
  0
VERTEX
  8
cheese
 10
-10.676728
 20
114.230164
 30
-38.842972
 70
   192
  0
VERTEX
  8
cheese
 10
-37.189737
 20
117.305902
 30
-1.214736
 70
   192
  0
VERTEX
  8
cheese
 10
59.997696
 20
117.305902
 30
-30.805522
 70
   192
  0
VERTEX
  8
cheese
 10
-58.431332
 20
117.305902
 30
25.016449
 70
   192
  0
VERTEX
  8
cheese
 10
-31.731926
 20
117.305902
 30
10.603221
 70
   192
  0
VERTEX
  8
cheese
 10
93.762801
 20
112.300900
 30
2.944021
 70
   192
  0
VERTEX
  8
cheese
 10
93.420571
 20
107.486078
 30
1.745593
 70
   192
  0
VERTEX
  8
cheese
 10
-40.420048
 20
117.305902
 30
25.651489
 70
   192
  0
VERTEX
  8
cheese
 10
10.620253
 20
113.095240
 30
-66.945964
 70
   192
  0
VERTEX
  8
cheese
 10
-49.108170
 20
117.305902
 30
27.979464
 70
   192
  0
VERTEX
  8
cheese
 10
-53.199964
 20
103.368656
 30
10.603221
 70
   192
  0
VERTEX
  8
cheese
 10
-34.059902
 20
117.305902
 30
1.915099
 70
   192
  0
VERTEX
  8
cheese
 10
59.829187
 20
117.305902
 30
-7.478413
 70
   192
  0
VERTEX
  8
cheese
 10
-33.738550
 20
117.305902
 30
3.114401
 70
   192
  0
VERTEX
  8
cheese
 10
9.966550
 20
112.552275
 30
-67.400928
 70
   192
  0
VERTEX
  8
cheese
 10
-49.108170
 20
103.626196
 30
5.550275
 70
   192
  0
VERTEX
  8
cheese
 10
-11.913510
 20
112.905761
 30
-40.381304
 70
   192
  0
VERTEX
  8
cheese
 10
-7.061940
 20
117.305902
 30
-38.419467
 70
   192
  0
VERTEX
  8
cheese
 10
-46.404033
 20
104.715115
 30
2.210944
 70
   192
  0
VERTEX
  8
cheese
 10
67.740082
 20
117.305902
 30
-39.311444
 70
   192
  0
VERTEX
  8
cheese
 10
-50.811248
 20
103.184940
 30
7.653402
 70
   192
  0
VERTEX
  8
cheese
 10
-33.154273
 20
117.305902
 30
15.911489
 70
   192
  0
VERTEX
  8
cheese
 10
-51.896390
 20
103.134941
 30
8.993441
 70
   192
  0
VERTEX
  8
cheese
 10
-56.792710
 20
104.649868
 30
15.039892
 70
   192
  0
VERTEX
  8
cheese
 10
-48.129930
 20
117.305902
 30
27.717346
 70
   192
  0
VERTEX
  8
cheese
 10
-56.833873
 20
117.305902
 30
25.909368
 70
   192
  0
VERTEX
  8
cheese
 10
-41.607187
 20
113.385480
 30
-3.712666
 70
   192
  0
VERTEX
  8
cheese
 10
-61.400191
 20
113.705248
 30
20.729658
 70
   192
  0
VERTEX
  8
cheese
 10
82.830212
 20
117.305902
 30
7.214485
 70
   192
  0
VERTEX
  8
cheese
 10
26.827495
 20
117.305902
 30
59.464806
 70
   192
  0
VERTEX
  8
cheese
 10
73.825510
 20
105.685395
 30
-39.343028
 70
   192
  0
VERTEX
  8
cheese
 10
33.187642
 20
117.305902
 30
53.104660
 70
   192
  0
VERTEX
  8
cheese
 10
90.255932
 20
97.608529
 30
-5.965802
 70
   192
  0
VERTEX
  8
cheese
 10
-34.059902
 20
117.305902
 30
19.291343
 70
   192
  0
VERTEX
  8
cheese
 10
-38.579574
 20
115.717116
 30
-2.023037
 70
   192
  0
VERTEX
  8
cheese
 10
-58.713610
 20
116.790066
 30
24.545361
 70
   192
  0
VERTEX
  8
cheese
 10
69.809207
 20
117.305902
 30
3.725517
 70
   192
  0
VERTEX
  8
cheese
 10
56.924031
 20
117.305902
 30
59.464806
 70
   192
  0
VERTEX
  8
cheese
 10
32.981224
 20
104.715115
 30
68.982595
 70
   192
  0
VERTEX
  8
cheese
 10
60.277169
 20
117.305902
 30
-5.806520
 70
   192
  0
VERTEX
  8
cheese
 10
26.307228
 20
111.389111
 30
68.982595
 70
   192
  0
VERTEX
  8
cheese
 10
41.875763
 20
117.305902
 30
50.776685
 70
   192
  0
VERTEX
  8
cheese
 10
-1.212198
 20
117.305902
 30
-36.852034
 70
   192
  0
VERTEX
  8
cheese
 10
50.563885
 20
117.305902
 30
53.104660
 70
   192
  0
VERTEX
  8
cheese
 10
85.644476
 20
93.318468
 30
-17.202710
 70
   192
  0
VERTEX
  8
cheese
 10
60.277169
 20
117.305902
 30
-31.848531
 70
   192
  0
VERTEX
  8
cheese
 10
-15.211709
 20
41.564381
 30
68.982595
 70
   192
  0
VERTEX
  8
cheese
 10
42.354772
 20
102.528963
 30
68.982595
 70
   192
  0
VERTEX
  8
cheese
 10
25.618297
 20
113.130567
 30
68.152928
 70
   192
  0
VERTEX
  8
cheese
 10
-20.565237
 20
46.917909
 30
68.982595
 70
   192
  0
VERTEX
  8
cheese
 10
93.242180
 20
105.685395
 30
1.310901
 70
   192
  0
VERTEX
  8
cheese
 10
-24.110740
 20
60.149909
 30
68.982595
 70
   192
  0
VERTEX
  8
cheese
 10
56.788202
 20
117.305902
 30
-18.827526
 70
   192
  0
VERTEX
  8
cheese
 10
47.937900
 20
117.305902
 30
52.401029
 70
   192
  0
VERTEX
  8
cheese
 10
32.124502
 20
117.305902
 30
54.167800
 70
   192
  0
VERTEX
  8
cheese
 10
58.133229
 20
117.305902
 30
63.977593
 70
   192
  0
VERTEX
  8
cheese
 10
16.130294
 20
117.305902
 30
-54.194527
 70
   192
  0
VERTEX
  8
cheese
 10
57.444299
 20
111.389111
 30
68.982595
 70
   192
  0
VERTEX
  8
cheese
 10
13.806841
 20
117.305902
 30
-62.865773
 70
   192
  0
VERTEX
  8
cheese
 10
57.688612
 20
112.300900
 30
68.982595
 70
   192
  0
VERTEX
  8
cheese
 10
9.292764
 20
37.231413
 30
68.982595
 70
   192
  0
VERTEX
  8
cheese
 10
15.211709
 20
41.564381
 30
68.982595
 70
   192
  0
VERTEX
  8
cheese
 10
40.438738
 20
102.716880
 30
68.982595
 70
   192
  0
VERTEX
  8
cheese
 10
-9.292764
 20
37.231413
 30
68.982595
 70
   192
  0
VERTEX
  8
cheese
 10
20.565237
 20
46.917909
 30
68.982595
 70
   192
  0
VERTEX
  8
cheese
 10
50.770303
 20
104.715115
 30
68.982595
 70
   192
  0
VERTEX
  8
cheese
 10
7.459048
 20
117.305902
 30
-39.175487
 70
   192
  0
VERTEX
  8
cheese
 10
5.070570
 20
36.403219
 30
68.982595
 70
   192
  0
VERTEX
  8
cheese
 10
0.000000
 20
36.039168
 30
68.982595
 70
   192
  0
VERTEX
  8
cheese
 10
-15.211709
 20
78.735437
 30
68.982595
 70
   192
  0
VERTEX
  8
cheese
 10
24.110740
 20
60.149909
 30
68.982595
 70
   192
  0
VERTEX
  8
cheese
 10
20.565237
 20
73.381909
 30
68.982595
 70
   192
  0
VERTEX
  8
cheese
 10
9.292764
 20
83.068405
 30
68.982595
 70
   192
  0
VERTEX
  8
cheese
 10
-5.070570
 20
36.403219
 30
68.982595
 70
   192
  0
VERTEX
  8
cheese
 10
-20.565237
 20
73.381909
 30
68.982595
 70
   192
  0
VERTEX
  8
cheese
 10
15.211709
 20
78.735437
 30
68.982595
 70
   192
  0
VERTEX
  8
cheese
 10
-9.292764
 20
83.068405
 30
68.982595
 70
   192
  0
VERTEX
  8
cheese
 10
-11.558642
 20
23.167934
 30
-40.819529
 70
   192
  0
VERTEX
  8
cheese
 10
-33.664193
 20
32.858577
 30
-13.521448
 70
   192
  0
VERTEX
  8
cheese
 10
-21.556435
 20
69.682708
 30
68.982595
 70
   192
  0
VERTEX
  8
cheese
 10
18.910354
 20
45.263026
 30
68.982595
 70
   192
  0
VERTEX
  8
cheese
 10
-15.947490
 20
21.243949
 30
-35.399753
 70
   192
  0
VERTEX
  8
cheese
 10
-18.976116
 20
20.024362
 30
-31.659712
 70
   192
  0
VERTEX
  8
cheese
 10
7.904650
 20
98.189043
 30
-54.194527
 70
   192
  0
VERTEX
  8
cheese
 10
6.683224
 20
98.189043
 30
-58.752951
 70
   192
  0
VERTEX
  8
cheese
 10
-5.770622
 20
98.189043
 30
-46.299105
 70
   192
  0
VERTEX
  8
cheese
 10
-1.212198
 20
98.189043
 30
-45.077679
 70
   192
  0
VERTEX
  8
cheese
 10
3.346226
 20
98.189043
 30
-46.299105
 70
   192
  0
VERTEX
  8
cheese
 10
-27.741028
 20
23.167934
 30
-20.835947
 70
   192
  0
VERTEX
  8
cheese
 10
-5.635478
 20
32.858577
 30
-48.134028
 70
   192
  0
VERTEX
  8
cheese
 10
6.683224
 20
98.189043
 30
-49.636103
 70
   192
  0
VERTEX
  8
cheese
 10
14.578645
 20
104.863039
 30
-54.194527
 70
   192
  0
VERTEX
  8
cheese
 10
-11.558642
 20
69.024545
 30
-40.819529
 70
   192
  0
VERTEX
  8
cheese
 10
12.463074
 20
104.863039
 30
-62.089949
 70
   192
  0
VERTEX
  8
cheese
 10
5.070570
 20
83.896599
 30
68.982595
 70
   192
  0
VERTEX
  8
cheese
 10
-5.070570
 20
83.896599
 30
68.982595
 70
   192
  0
VERTEX
  8
cheese
 10
-19.483605
 20
72.299604
 30
-31.033015
 70
   192
  0
VERTEX
  8
cheese
 10
-9.107620
 20
104.863039
 30
-40.519255
 70
   192
  0
VERTEX
  8
cheese
 10
-1.212198
 20
104.863039
 30
-38.403683
 70
   192
  0
VERTEX
  8
cheese
 10
-35.832221
 20
46.096240
 30
-10.844155
 70
   192
  0
VERTEX
  8
cheese
 10
8.707228
 20
104.863039
 30
-65.845794
 70
   192
  0
VERTEX
  8
cheese
 10
4.627913
 20
98.189043
 30
-60.808261
 70
   192
  0
VERTEX
  8
cheese
 10
-10.596295
 20
104.863039
 30
-42.007929
 70
   192
  0
VERTEX
  8
cheese
 10
6.683224
 20
104.863039
 30
-40.519255
 70
   192
  0
VERTEX
  8
cheese
 10
12.463074
 20
104.863039
 30
-46.299105
 70
   192
  0
VERTEX
  8
cheese
 10
17.021498
 20
113.979887
 30
-54.194527
 70
   192
  0
VERTEX
  8
cheese
 10
14.578645
 20
113.979887
 30
-63.311375
 70
   192
  0
VERTEX
  8
cheese
 10
-2.415455
 20
96.391014
 30
-52.110425
 70
   192
  0
VERTEX
  8
cheese
 10
-1.212198
 20
113.979887
 30
-35.960831
 70
   192
  0
VERTEX
  8
cheese
 10
7.904650
 20
113.979887
 30
-38.403683
 70
   192
  0
VERTEX
  8
cheese
 10
14.578645
 20
113.979887
 30
-45.077679
 70
   192
  0
VERTEX
  8
cheese
 10
-49.108170
 20
102.272263
 30
10.603221
 70
   192
  0
VERTEX
  8
cheese
 10
-39.991322
 20
104.715115
 30
10.603221
 70
   192
  0
VERTEX
  8
cheese
 10
-41.963129
 20
111.389111
 30
-3.273115
 70
   192
  0
VERTEX
  8
cheese
 10
-41.212748
 20
104.715115
 30
6.044797
 70
   192
  0
VERTEX
  8
cheese
 10
0.000000
 20
84.260649
 30
68.982595
 70
   192
  0
VERTEX
  8
cheese
 10
-44.549746
 20
104.715115
 30
2.707799
 70
   192
  0
VERTEX
  8
cheese
 10
-53.666594
 20
104.715115
 30
18.498643
 70
   192
  0
VERTEX
  8
cheese
 10
-49.108170
 20
104.715115
 30
19.720069
 70
   192
  0
VERTEX
  8
cheese
 10
-44.549746
 20
104.715115
 30
18.498643
 70
   192
  0
VERTEX
  8
cheese
 10
-21.265980
 20
71.863080
 30
-28.831966
 70
   192
  0
VERTEX
  8
cheese
 10
-41.212748
 20
104.715115
 30
15.161645
 70
   192
  0
VERTEX
  8
cheese
 10
-33.317326
 20
111.389111
 30
10.603221
 70
   192
  0
VERTEX
  8
cheese
 10
58.133229
 20
113.130567
 30
68.152928
 70
   192
  0
VERTEX
  8
cheese
 10
-35.432898
 20
111.389111
 30
2.707799
 70
   192
  0
VERTEX
  8
cheese
 10
-41.212748
 20
111.389111
 30
-3.072051
 70
   192
  0
VERTEX
  8
cheese
 10
-1.212198
 20
95.906479
 30
-53.596323
 70
   192
  0
VERTEX
  8
cheese
 10
-57.003592
 20
111.389111
 30
24.278493
 70
   192
  0
VERTEX
  8
cheese
 10
-49.108170
 20
111.389111
 30
26.394065
 70
   192
  0
VERTEX
  8
cheese
 10
-41.212748
 20
111.389111
 30
24.278493
 70
   192
  0
VERTEX
  8
cheese
 10
-61.020861
 20
111.389111
 30
20.261224
 70
   192
  0
VERTEX
  8
cheese
 10
-15.947490
 20
70.948531
 30
-35.399753
 70
   192
  0
VERTEX
  8
cheese
 10
-35.432898
 20
111.389111
 30
18.498643
 70
   192
  0
VERTEX
  8
cheese
 10
49.771185
 20
104.715115
 30
63.594504
 70
   192
  0
VERTEX
  8
cheese
 10
46.434187
 20
104.715115
 30
60.257506
 70
   192
  0
VERTEX
  8
cheese
 10
82.830212
 20
92.447732
 30
-18.827526
 70
   192
  0
VERTEX
  8
cheese
 10
76.211381
 20
95.994753
 30
-30.291678
 70
   192
  0
VERTEX
  8
cheese
 10
71.366060
 20
95.994753
 30
-25.446357
 70
   192
  0
VERTEX
  8
cheese
 10
69.592549
 20
95.994753
 30
-18.827526
 70
   192
  0
VERTEX
  8
cheese
 10
71.366060
 20
95.994753
 30
-12.208694
 70
   192
  0
VERTEX
  8
cheese
 10
76.211381
 20
95.994753
 30
-7.363373
 70
   192
  0
VERTEX
  8
cheese
 10
82.830212
 20
95.994753
 30
-5.589862
 70
   192
  0
VERTEX
  8
cheese
 10
89.449044
 20
95.994753
 30
-7.363373
 70
   192
  0
VERTEX
  8
cheese
 10
71.366060
 20
105.685395
 30
-38.684021
 70
   192
  0
VERTEX
  8
cheese
 10
62.973718
 20
105.685395
 30
-30.291678
 70
   192
  0
VERTEX
  8
cheese
 10
59.901907
 20
105.685395
 30
-18.827526
 70
   192
  0
VERTEX
  8
cheese
 10
62.973718
 20
105.685395
 30
-7.363373
 70
   192
  0
VERTEX
  8
cheese
 10
71.366060
 20
105.685395
 30
1.028969
 70
   192
  0
VERTEX
  8
cheese
 10
82.830212
 20
105.685395
 30
4.100780
 70
   192
  0
VERTEX
  8
cheese
 10
41.875763
 20
104.715115
 30
59.036080
 70
   192
  0
VERTEX
  8
cheese
 10
37.317339
 20
104.715115
 30
60.257506
 70
   192
  0
VERTEX
  8
cheese
 10
33.980341
 20
104.715115
 30
63.594504
 70
   192
  0
VERTEX
  8
cheese
 10
57.666607
 20
111.389111
 30
68.152928
 70
   192
  0
VERTEX
  8
cheese
 10
83.970686
 20
93.058910
 30
-20.802884
 70
   192
  0
VERTEX
  8
cheese
 10
55.551035
 20
111.389111
 30
60.257506
 70
   192
  0
VERTEX
  8
cheese
 10
49.771185
 20
111.389111
 30
54.477656
 70
   192
  0
VERTEX
  8
cheese
 10
78.450159
 20
95.994753
 30
-30.891557
 70
   192
  0
VERTEX
  8
cheese
 10
84.977676
 20
93.023143
 30
-18.827526
 70
   192
  0
VERTEX
  8
cheese
 10
41.875763
 20
111.389111
 30
52.362084
 70
   192
  0
VERTEX
  8
cheese
 10
33.980341
 20
111.389111
 30
54.477656
 70
   192
  0
VERTEX
  8
cheese
 10
84.518293
 20
92.970026
 30
-19.802140
 70
   192
  0
VERTEX
  8
cheese
 10
28.200491
 20
111.389111
 30
60.257506
 70
   192
  0
VERTEX
  8
cheese
 10
82.830212
 20
93.535486
 30
-22.887080
 70
   192
  0
VERTEX
  8
cheese
 10
70.186440
 20
114.490196
 30
-40.727182
 70
   192
  0
VERTEX
  8
cheese
 10
6.616000
 20
37.231413
 30
66.305831
 70
   192
  0
VERTEX
  8
cheese
 10
0.000000
 20
37.231413
 30
64.533079
 70
   192
  0
VERTEX
  8
cheese
 10
89.283440
 20
117.305902
 30
5.485348
 70
   192
  0
VERTEX
  8
cheese
 10
-6.616000
 20
37.231413
 30
66.305831
 70
   192
  0
VERTEX
  8
cheese
 10
19.848000
 20
46.917909
 30
66.305831
 70
   192
  0
VERTEX
  8
cheese
 10
11.459248
 20
46.917909
 30
57.917079
 70
   192
  0
VERTEX
  8
cheese
 10
0.000000
 20
46.917909
 30
54.846583
 70
   192
  0
VERTEX
  8
cheese
 10
-11.459248
 20
46.917909
 30
57.917079
 70
   192
  0
VERTEX
  8
cheese
 10
-19.848000
 20
46.917909
 30
66.305831
 70
   192
  0
VERTEX
  8
cheese
 10
22.918496
 20
60.149909
 30
64.533079
 70
   192
  0
VERTEX
  8
cheese
 10
72.784291
 20
112.300900
 30
-40.836654
 70
   192
  0
VERTEX
  8
cheese
 10
-18.976116
 20
19.620913
 30
-30.154019
 70
   192
  0
VERTEX
  8
cheese
 10
-18.976116
 20
72.571566
 30
-30.154019
 70
   192
  0
VERTEX
  8
cheese
 10
-5.738453
 20
23.167934
 30
-30.154019
 70
   192
  0
VERTEX
  8
cheese
 10
-7.511964
 20
23.167934
 30
-36.772851
 70
   192
  0
VERTEX
  8
cheese
 10
-25.594948
 20
23.167934
 30
-18.689866
 70
   192
  0
VERTEX
  8
cheese
 10
-18.976116
 20
23.167934
 30
-16.916356
 70
   192
  0
VERTEX
  8
cheese
 10
-12.357285
 20
23.167934
 30
-18.689866
 70
   192
  0
VERTEX
  8
cheese
 10
-7.511964
 20
23.167934
 30
-23.535187
 70
   192
  0
VERTEX
  8
cheese
 10
3.952189
 20
32.858577
 30
-30.154019
 70
   192
  0
VERTEX
  8
cheese
 10
0.880379
 20
32.858577
 30
-41.618172
 70
   192
  0
VERTEX
  8
cheese
 10
-30.440269
 20
32.858577
 30
-10.297524
 70
   192
  0
VERTEX
  8
cheese
 10
-18.976116
 20
32.858577
 30
-7.225714
 70
   192
  0
VERTEX
  8
cheese
 10
-7.511964
 20
32.858577
 30
-10.297524
 70
   192
  0
VERTEX
  8
cheese
 10
0.880379
 20
32.858577
 30
-18.689866
 70
   192
  0
VERTEX
  8
cheese
 10
7.499210
 20
46.096240
 30
-30.154019
 70
   192
  0
VERTEX
  8
cheese
 10
3.952189
 20
46.096240
 30
-43.391682
 70
   192
  0
VERTEX
  8
cheese
 10
-32.213780
 20
46.096240
 30
-7.225714
 70
   192
  0
VERTEX
  8
cheese
 10
-18.976116
 20
46.096240
 30
-3.678692
 70
   192
  0
VERTEX
  8
cheese
 10
-5.738453
 20
46.096240
 30
-7.225714
 70
   192
  0
VERTEX
  8
cheese
 10
3.952189
 20
46.096240
 30
-16.916356
 70
   192
  0
VERTEX
  8
cheese
 10
3.952189
 20
59.333903
 30
-30.154019
 70
   192
  0
VERTEX
  8
cheese
 10
0.880379
 20
59.333903
 30
-41.618172
 70
   192
  0
VERTEX
  8
cheese
 10
-30.440269
 20
59.333903
 30
-10.297524
 70
   192
  0
VERTEX
  8
cheese
 10
-18.976116
 20
59.333903
 30
-7.225714
 70
   192
  0
VERTEX
  8
cheese
 10
-7.511964
 20
59.333903
 30
-10.297524
 70
   192
  0
VERTEX
  8
cheese
 10
0.880379
 20
59.333903
 30
-18.689866
 70
   192
  0
VERTEX
  8
cheese
 10
-5.738453
 20
69.024545
 30
-30.154019
 70
   192
  0
VERTEX
  8
cheese
 10
-7.511964
 20
69.024545
 30
-36.772851
 70
   192
  0
VERTEX
  8
cheese
 10
-25.594948
 20
69.024545
 30
-18.689866
 70
   192
  0
VERTEX
  8
cheese
 10
-18.976116
 20
69.024545
 30
-16.916356
 70
   192
  0
VERTEX
  8
cheese
 10
-12.357285
 20
69.024545
 30
-18.689866
 70
   192
  0
VERTEX
  8
cheese
 10
-7.511964
 20
69.024545
 30
-23.535187
 70
   192
  0
VERTEX
  8
cheese
 10
13.232000
 20
60.149909
 30
54.846583
 70
   192
  0
VERTEX
  8
cheese
 10
0.000000
 20
60.149909
 30
51.301079
 70
   192
  0
VERTEX
  8
cheese
 10
-13.232000
 20
60.149909
 30
54.846583
 70
   192
  0
VERTEX
  8
cheese
 10
-22.918496
 20
60.149909
 30
64.533079
 70
   192
  0
VERTEX
  8
cheese
 10
19.848000
 20
73.381909
 30
66.305831
 70
   192
  0
VERTEX
  8
cheese
 10
11.459248
 20
73.381909
 30
57.917079
 70
   192
  0
VERTEX
  8
cheese
 10
0.000000
 20
73.381909
 30
54.846583
 70
   192
  0
VERTEX
  8
cheese
 10
-19.483605
 20
19.892876
 30
-31.033015
 70
   192
  0
VERTEX
  8
cheese
 10
-3.467449
 20
46.096240
 30
-50.811321
 70
   192
  0
VERTEX
  8
cheese
 10
-20.195402
 20
19.947620
 30
-30.154019
 70
   192
  0
VERTEX
  8
cheese
 10
-21.265980
 20
20.329399
 30
-28.831966
 70
   192
  0
VERTEX
  8
cheese
 10
-33.664193
 20
59.333903
 30
-13.521448
 70
   192
  0
VERTEX
  8
cheese
 10
-11.459248
 20
73.381909
 30
57.917079
 70
   192
  0
VERTEX
  8
cheese
 10
-18.976116
 20
72.168117
 30
-31.659712
 70
   192
  0
VERTEX
  8
cheese
 10
-5.635478
 20
59.333903
 30
-48.134028
 70
   192
  0
VERTEX
  8
cheese
 10
-19.848000
 20
73.381909
 30
66.305831
 70
   192
  0
VERTEX
  8
cheese
 10
-20.195402
 20
72.244860
 30
-30.154019
 70
   192
  0
VERTEX
  8
cheese
 10
6.616000
 20
83.068405
 30
66.305831
 70
   192
  0
VERTEX
  8
cheese
 10
-27.741028
 20
69.024545
 30
-20.835947
 70
   192
  0
VERTEX
  8
cheese
 10
0.000000
 20
83.068405
 30
64.533079
 70
   192
  0
VERTEX
  8
cheese
 10
-6.616000
 20
83.068405
 30
66.305831
 70
   192
  0
VERTEX
  8
cheese
 10
0.0
 20
0.0
 30
0.0
 70
   128
 71
   18
 72
   19
 73
   20
  0
VERTEX
  8
cheese
 10
0.0
 20
0.0
 30
0.0
 70
   128
 71
   25
 72
   26
 73
   27
  0
VERTEX
  8
cheese
 10
0.0
 20
0.0
 30
0.0
 70
   128
 71
   99
 72
   105
 73
   30
  0
VERTEX
  8
cheese
 10
0.0
 20
0.0
 30
0.0
 70
   128
 71
   30
 72
   23
 73
   117
  0
VERTEX
  8
cheese
 10
0.0
 20
0.0
 30
0.0
 70
   128
 71
   105
 72
   115
 73
   30
  0
VERTEX
  8
cheese
 10
0.0
 20
0.0
 30
0.0
 70
   128
 71
   91
 72
   61
 73
   24
  0
VERTEX
  8
cheese
 10
0.0
 20
0.0
 30
0.0
 70
   128
 71
   32
 72
   103
 73
   93
  0
VERTEX
  8
cheese
 10
0.0
 20
0.0
 30
0.0
 70
   128
 71
   16
 72
   18
 73
   20
  0
VERTEX
  8
cheese
 10
0.0
 20
0.0
 30
0.0
 70
   128
 71
   28
 72
   27
 73
   29
  0
VERTEX
  8
cheese
 10
0.0
 20
0.0
 30
0.0
 70
   128
 71
   93
 72
   116
 73
   24
  0
VERTEX
  8
cheese
 10
0.0
 20
0.0
 30
0.0
 70
   128
 71
   32
 72
   93
 73
   24
  0
VERTEX
  8
cheese
 10
0.0
 20
0.0
 30
0.0
 70
   128
 71
   32
 72
   30
 73
   115
  0
VERTEX
  8
cheese
 10
0.0
 20
0.0
 30
0.0
 70
   128
 71
   68
 72
   34
 73
   31
  0
VERTEX
  8
cheese
 10
0.0
 20
0.0
 30
0.0
 70
   128
 71
   14
 72
   16
 73
   17
  0
VERTEX
  8
cheese
 10
0.0
 20
0.0
 30
0.0
 70
   128
 71
   68
 72
   29
 73
   67
  0
VERTEX
  8
cheese
 10
0.0
 20
0.0
 30
0.0
 70
   128
 71
   58
 72
   32
 73
   33
  0
VERTEX
  8
cheese
 10
0.0
 20
0.0
 30
0.0
 70
   128
 71
   90
 72
   228
 73
   32
  0
VERTEX
  8
cheese
 10
0.0
 20
0.0
 30
0.0
 70
   128
 71
   90
 72
   32
 73
   58
  0
VERTEX
  8
cheese
 10
0.0
 20
0.0
 30
0.0
 70
   128
 71
   34
 72
   112
 73
   94
  0
VERTEX
  8
cheese
 10
0.0
 20
0.0
 30
0.0
 70
   128
 71
   12
 72
   14
 73
   15
  0
VERTEX
  8
cheese
 10
0.0
 20
0.0
 30
0.0
 70
   128
 71
   34
 72
   94
 73
   204
  0
VERTEX
  8
cheese
 10
0.0
 20
0.0
 30
0.0
 70
   128
 71
   34
 72
   68
 73
   112
  0
VERTEX
  8
cheese
 10
0.0
 20
0.0
 30
0.0
 70
   128
 71
   34
 72
   204
 73
   106
  0
VERTEX
  8
cheese
 10
0.0
 20
0.0
 30
0.0
 70
   128
 71
   106
 72
   219
 73
   36
  0
VERTEX
  8
cheese
 10
0.0
 20
0.0
 30
0.0
 70
   128
 71
   235
 72
   132
 73
   126
  0
VERTEX
  8
cheese
 10
0.0
 20
0.0
 30
0.0
 70
   128
 71
   35
 72
   37
 73
   101
  0
VERTEX
  8
cheese
 10
0.0
 20
0.0
 30
0.0
 70
   128
 71
   98
 72
   58
 73
   35
  0
VERTEX
  8
cheese
 10
0.0
 20
0.0
 30
0.0
 70
   128
 71
   37
 72
   74
 73
   101
  0
VERTEX
  8
cheese
 10
0.0
 20
0.0
 30
0.0
 70
   128
 71
   224
 72
   218
 73
   38
  0
VERTEX
  8
cheese
 10
0.0
 20
0.0
 30
0.0
 70
   128
 71
   10
 72
   12
 73
   13
  0
VERTEX
  8
cheese
 10
0.0
 20
0.0
 30
0.0
 70
   128
 71
   36
 72
   219
 73
   222
  0
VERTEX
  8
cheese
 10
0.0
 20
0.0
 30
0.0
 70
   128
 71
   218
 72
   92
 73
   38
  0
VERTEX
  8
cheese
 10
0.0
 20
0.0
 30
0.0
 70
   128
 71
   36
 72
   222
 73
   215
  0
VERTEX
  8
cheese
 10
0.0
 20
0.0
 30
0.0
 70
   128
 71
   38
 72
   36
 73
   215
  0
VERTEX
  8
cheese
 10
0.0
 20
0.0
 30
0.0
 70
   128
 71
   234
 72
   111
 73
   113
  0
VERTEX
  8
cheese
 10
0.0
 20
0.0
 30
0.0
 70
   128
 71
   74
 72
   37
 73
   40
  0
VERTEX
  8
cheese
 10
0.0
 20
0.0
 30
0.0
 70
   128
 71
   40
 72
   64
 73
   114
  0
VERTEX
  8
cheese
 10
0.0
 20
0.0
 30
0.0
 70
   128
 71
   92
 72
   39
 73
   41
  0
VERTEX
  8
cheese
 10
0.0
 20
0.0
 30
0.0
 70
   128
 71
   8
 72
   10
 73
   11
  0
VERTEX
  8
cheese
 10
0.0
 20
0.0
 30
0.0
 70
   128
 71
   236
 72
   39
 73
   92
  0
VERTEX
  8
cheese
 10
0.0
 20
0.0
 30
0.0
 70
   128
 71
   64
 72
   40
 73
   69
  0
VERTEX
  8
cheese
 10
0.0
 20
0.0
 30
0.0
 70
   128
 71
   64
 72
   95
 73
   83
  0
VERTEX
  8
cheese
 10
0.0
 20
0.0
 30
0.0
 70
   128
 71
   43
 72
   107
 73
   64
  0
VERTEX
  8
cheese
 10
0.0
 20
0.0
 30
0.0
 70
   128
 71
   95
 72
   64
 73
   69
  0
VERTEX
  8
cheese
 10
0.0
 20
0.0
 30
0.0
 70
   128
 71
   43
 72
   81
 73
   107
  0
VERTEX
  8
cheese
 10
0.0
 20
0.0
 30
0.0
 70
   128
 71
   40
 72
   44
 73
   86
  0
VERTEX
  8
cheese
 10
0.0
 20
0.0
 30
0.0
 70
   128
 71
   71
 72
   86
 73
   44
  0
VERTEX
  8
cheese
 10
0.0
 20
0.0
 30
0.0
 70
   128
 71
   5
 72
   8
 73
   9
  0
VERTEX
  8
cheese
 10
0.0
 20
0.0
 30
0.0
 70
   128
 71
   41
 72
   39
 73
   42
  0
VERTEX
  8
cheese
 10
0.0
 20
0.0
 30
0.0
 70
   128
 71
   71
 72
   49
 73
   87
  0
VERTEX
  8
cheese
 10
0.0
 20
0.0
 30
0.0
 70
   128
 71
   43
 72
   83
 73
   66
  0
VERTEX
  8
cheese
 10
0.0
 20
0.0
 30
0.0
 70
   128
 71
   75
 72
   48
 73
   43
  0
VERTEX
  8
cheese
 10
0.0
 20
0.0
 30
0.0
 70
   128
 71
   120
 72
   50
 73
   48
  0
VERTEX
  8
cheese
 10
0.0
 20
0.0
 30
0.0
 70
   128
 71
   5
 72
   7
 73
   6
  0
VERTEX
  8
cheese
 10
0.0
 20
0.0
 30
0.0
 70
   128
 71
   45
 72
   42
 73
   46
  0
VERTEX
  8
cheese
 10
0.0
 20
0.0
 30
0.0
 70
   128
 71
   49
 72
   65
 73
   87
  0
VERTEX
  8
cheese
 10
0.0
 20
0.0
 30
0.0
 70
   128
 71
   48
 72
   75
 73
   128
  0
VERTEX
  8
cheese
 10
0.0
 20
0.0
 30
0.0
 70
   128
 71
   59
 72
   50
 73
   120
  0
VERTEX
  8
cheese
 10
0.0
 20
0.0
 30
0.0
 70
   128
 71
   75
 72
   73
 73
   104
  0
VERTEX
  8
cheese
 10
0.0
 20
0.0
 30
0.0
 70
   128
 71
   73
 72
   63
 73
   79
  0
VERTEX
  8
cheese
 10
0.0
 20
0.0
 30
0.0
 70
   128
 71
   48
 72
   55
 73
   118
  0
VERTEX
  8
cheese
 10
0.0
 20
0.0
 30
0.0
 70
   128
 71
   21
 72
   141
 73
   113
  0
VERTEX
  8
cheese
 10
0.0
 20
0.0
 30
0.0
 70
   128
 71
   3
 72
   21
 73
   113
  0
VERTEX
  8
cheese
 10
0.0
 20
0.0
 30
0.0
 70
   128
 71
   3
 72
   135
 73
   130
  0
VERTEX
  8
cheese
 10
0.0
 20
0.0
 30
0.0
 70
   128
 71
   4
 72
   129
 73
   122
  0
VERTEX
  8
cheese
 10
0.0
 20
0.0
 30
0.0
 70
   128
 71
   3
 72
   111
 73
   108
  0
VERTEX
  8
cheese
 10
0.0
 20
0.0
 30
0.0
 70
   128
 71
   4
 72
   3
 73
   130
  0
VERTEX
  8
cheese
 10
0.0
 20
0.0
 30
0.0
 70
   128
 71
   123
 72
   142
 73
   4
  0
VERTEX
  8
cheese
 10
0.0
 20
0.0
 30
0.0
 70
   128
 71
   3
 72
   108
 73
   125
  0
VERTEX
  8
cheese
 10
0.0
 20
0.0
 30
0.0
 70
   128
 71
   3
 72
   125
 73
   135
  0
VERTEX
  8
cheese
 10
0.0
 20
0.0
 30
0.0
 70
   128
 71
   123
 72
   4
 73
   122
  0
VERTEX
  8
cheese
 10
0.0
 20
0.0
 30
0.0
 70
   128
 71
   131
 72
   136
 73
   21
  0
VERTEX
  8
cheese
 10
0.0
 20
0.0
 30
0.0
 70
   128
 71
   273
 72
   133
 73
   132
  0
VERTEX
  8
cheese
 10
0.0
 20
0.0
 30
0.0
 70
   128
 71
   100
 72
   124
 73
   133
  0
VERTEX
  8
cheese
 10
0.0
 20
0.0
 30
0.0
 70
   128
 71
   136
 72
   141
 73
   21
  0
VERTEX
  8
cheese
 10
0.0
 20
0.0
 30
0.0
 70
   128
 71
   133
 72
   124
 73
   109
  0
VERTEX
  8
cheese
 10
0.0
 20
0.0
 30
0.0
 70
   128
 71
   137
 72
   134
 73
   100
  0
VERTEX
  8
cheese
 10
0.0
 20
0.0
 30
0.0
 70
   128
 71
   102
 72
   100
 73
   134
  0
VERTEX
  8
cheese
 10
0.0
 20
0.0
 30
0.0
 70
   128
 71
   4
 72
   126
 73
   132
  0
VERTEX
  8
cheese
 10
0.0
 20
0.0
 30
0.0
 70
   128
 71
   109
 72
   127
 73
   132
  0
VERTEX
  8
cheese
 10
0.0
 20
0.0
 30
0.0
 70
   128
 71
   273
 72
   137
 73
   133
  0
VERTEX
  8
cheese
 10
0.0
 20
0.0
 30
0.0
 70
   128
 71
   289
 72
   138
 73
   157
  0
VERTEX
  8
cheese
 10
0.0
 20
0.0
 30
0.0
 70
   128
 71
   121
 72
   22
 73
   119
  0
VERTEX
  8
cheese
 10
0.0
 20
0.0
 30
0.0
 70
   128
 71
   127
 72
   22
 73
   4
  0
VERTEX
  8
cheese
 10
0.0
 20
0.0
 30
0.0
 70
   128
 71
   22
 72
   127
 73
   119
  0
VERTEX
  8
cheese
 10
0.0
 20
0.0
 30
0.0
 70
   128
 71
   4
 72
   142
 73
   126
  0
VERTEX
  8
cheese
 10
0.0
 20
0.0
 30
0.0
 70
   128
 71
   138
 72
   131
 73
   21
  0
VERTEX
  8
cheese
 10
0.0
 20
0.0
 30
0.0
 70
   128
 71
   156
 72
   177
 73
   102
  0
VERTEX
  8
cheese
 10
0.0
 20
0.0
 30
0.0
 70
   128
 71
   177
 72
   157
 73
   102
  0
VERTEX
  8
cheese
 10
0.0
 20
0.0
 30
0.0
 70
   128
 71
   102
 72
   157
 73
   138
  0
VERTEX
  8
cheese
 10
0.0
 20
0.0
 30
0.0
 70
   128
 71
   51
 72
   276
 73
   278
  0
VERTEX
  8
cheese
 10
0.0
 20
0.0
 30
0.0
 70
   128
 71
   51
 72
   278
 73
   1
  0
VERTEX
  8
cheese
 10
0.0
 20
0.0
 30
0.0
 70
   128
 71
   278
 72
   279
 73
   1
  0
VERTEX
  8
cheese
 10
0.0
 20
0.0
 30
0.0
 70
   128
 71
   51
 72
   143
 73
   144
  0
VERTEX
  8
cheese
 10
0.0
 20
0.0
 30
0.0
 70
   128
 71
   51
 72
   53
 73
   139
  0
VERTEX
  8
cheese
 10
0.0
 20
0.0
 30
0.0
 70
   128
 71
   284
 72
   136
 73
   131
  0
VERTEX
  8
cheese
 10
0.0
 20
0.0
 30
0.0
 70
   128
 71
   51
 72
   144
 73
   276
  0
VERTEX
  8
cheese
 10
0.0
 20
0.0
 30
0.0
 70
   128
 71
   51
 72
   139
 73
   143
  0
VERTEX
  8
cheese
 10
0.0
 20
0.0
 30
0.0
 70
   128
 71
   161
 72
   60
 73
   2
  0
VERTEX
  8
cheese
 10
0.0
 20
0.0
 30
0.0
 70
   128
 71
   279
 72
   150
 73
   1
  0
VERTEX
  8
cheese
 10
0.0
 20
0.0
 30
0.0
 70
   128
 71
   150
 72
   140
 73
   1
  0
VERTEX
  8
cheese
 10
0.0
 20
0.0
 30
0.0
 70
   128
 71
   140
 72
   161
 73
   1
  0
VERTEX
  8
cheese
 10
0.0
 20
0.0
 30
0.0
 70
   128
 71
   226
 72
   122
 73
   129
  0
VERTEX
  8
cheese
 10
0.0
 20
0.0
 30
0.0
 70
   128
 71
   280
 72
   77
 73
   82
  0
VERTEX
  8
cheese
 10
0.0
 20
0.0
 30
0.0
 70
   128
 71
   286
 72
   156
 73
   134
  0
VERTEX
  8
cheese
 10
0.0
 20
0.0
 30
0.0
 70
   128
 71
   280
 72
   82
 73
   84
  0
VERTEX
  8
cheese
 10
0.0
 20
0.0
 30
0.0
 70
   128
 71
   130
 72
   227
 73
   226
  0
VERTEX
  8
cheese
 10
0.0
 20
0.0
 30
0.0
 70
   128
 71
   177
 72
   156
 73
   286
  0
VERTEX
  8
cheese
 10
0.0
 20
0.0
 30
0.0
 70
   128
 71
   130
 72
   135
 73
   229
  0
VERTEX
  8
cheese
 10
0.0
 20
0.0
 30
0.0
 70
   128
 71
   280
 72
   84
 73
   72
  0
VERTEX
  8
cheese
 10
0.0
 20
0.0
 30
0.0
 70
   128
 71
   282
 72
   193
 73
   54
  0
VERTEX
  8
cheese
 10
0.0
 20
0.0
 30
0.0
 70
   128
 71
   175
 72
   287
 73
   182
  0
VERTEX
  8
cheese
 10
0.0
 20
0.0
 30
0.0
 70
   128
 71
   280
 72
   287
 73
   80
  0
VERTEX
  8
cheese
 10
0.0
 20
0.0
 30
0.0
 70
   128
 71
   287
 72
   175
 73
   80
  0
VERTEX
  8
cheese
 10
0.0
 20
0.0
 30
0.0
 70
   128
 71
   2
 72
   60
 73
   85
  0
VERTEX
  8
cheese
 10
0.0
 20
0.0
 30
0.0
 70
   128
 71
   2
 72
   192
 73
   89
  0
VERTEX
  8
cheese
 10
0.0
 20
0.0
 30
0.0
 70
   128
 71
   60
 72
   280
 73
   72
  0
VERTEX
  8
cheese
 10
0.0
 20
0.0
 30
0.0
 70
   128
 71
   54
 72
   193
 73
   154
  0
VERTEX
  8
cheese
 10
0.0
 20
0.0
 30
0.0
 70
   128
 71
   175
 72
   164
 73
   78
  0
VERTEX
  8
cheese
 10
0.0
 20
0.0
 30
0.0
 70
   128
 71
   182
 72
   285
 73
   164
  0
VERTEX
  8
cheese
 10
0.0
 20
0.0
 30
0.0
 70
   128
 71
   285
 72
   158
 73
   164
  0
VERTEX
  8
cheese
 10
0.0
 20
0.0
 30
0.0
 70
   128
 71
   154
 72
   188
 73
   169
  0
VERTEX
  8
cheese
 10
0.0
 20
0.0
 30
0.0
 70
   128
 71
   188
 72
   154
 73
   283
  0
VERTEX
  8
cheese
 10
0.0
 20
0.0
 30
0.0
 70
   128
 71
   52
 72
   162
 73
   163
  0
VERTEX
  8
cheese
 10
0.0
 20
0.0
 30
0.0
 70
   128
 71
   277
 72
   151
 73
   51
  0
VERTEX
  8
cheese
 10
0.0
 20
0.0
 30
0.0
 70
   128
 71
   163
 72
   56
 73
   283
  0
VERTEX
  8
cheese
 10
0.0
 20
0.0
 30
0.0
 70
   128
 71
   52
 72
   163
 73
   277
  0
VERTEX
  8
cheese
 10
0.0
 20
0.0
 30
0.0
 70
   128
 71
   151
 72
   53
 73
   51
  0
VERTEX
  8
cheese
 10
0.0
 20
0.0
 30
0.0
 70
   128
 71
   52
 72
   76
 73
   162
  0
VERTEX
  8
cheese
 10
0.0
 20
0.0
 30
0.0
 70
   128
 71
   164
 72
   158
 73
   282
  0
VERTEX
  8
cheese
 10
0.0
 20
0.0
 30
0.0
 70
   128
 71
   23
 72
   22
 73
   185
  0
VERTEX
  8
cheese
 10
0.0
 20
0.0
 30
0.0
 70
   128
 71
   24
 72
   110
 73
   102
  0
VERTEX
  8
cheese
 10
0.0
 20
0.0
 30
0.0
 70
   128
 71
   225
 72
   81
 73
   43
  0
VERTEX
  8
cheese
 10
0.0
 20
0.0
 30
0.0
 70
   128
 71
   89
 72
   97
 73
   49
  0
VERTEX
  8
cheese
 10
0.0
 20
0.0
 30
0.0
 70
   128
 71
   177
 72
   288
 73
   289
  0
VERTEX
  8
cheese
 10
0.0
 20
0.0
 30
0.0
 70
   128
 71
   229
 72
   135
 73
   125
  0
VERTEX
  8
cheese
 10
0.0
 20
0.0
 30
0.0
 70
   128
 71
   63
 72
   96
 73
   62
  0
VERTEX
  8
cheese
 10
0.0
 20
0.0
 30
0.0
 70
   128
 71
   272
 72
   113
 73
   141
  0
VERTEX
  8
cheese
 10
0.0
 20
0.0
 30
0.0
 70
   128
 71
   57
 72
   52
 73
   50
  0
VERTEX
  8
cheese
 10
0.0
 20
0.0
 30
0.0
 70
   128
 71
   18
 72
   3
 73
   4
  0
VERTEX
  8
cheese
 10
0.0
 20
0.0
 30
0.0
 70
   128
 71
   28
 72
   20
 73
   19
  0
VERTEX
  8
cheese
 10
0.0
 20
0.0
 30
0.0
 70
   128
 71
   22
 72
   26
 73
   25
  0
VERTEX
  8
cheese
 10
0.0
 20
0.0
 30
0.0
 70
   128
 71
   30
 72
   27
 73
   26
  0
VERTEX
  8
cheese
 10
0.0
 20
0.0
 30
0.0
 70
   128
 71
   22
 72
   121
 73
   185
  0
VERTEX
  8
cheese
 10
0.0
 20
0.0
 30
0.0
 70
   128
 71
   57
 72
   70
 73
   52
  0
VERTEX
  8
cheese
 10
0.0
 20
0.0
 30
0.0
 70
   128
 71
   24
 72
   61
 73
   110
  0
VERTEX
  8
cheese
 10
0.0
 20
0.0
 30
0.0
 70
   128
 71
   3
 72
   16
 73
   14
  0
VERTEX
  8
cheese
 10
0.0
 20
0.0
 30
0.0
 70
   128
 71
   20
 72
   28
 73
   31
  0
VERTEX
  8
cheese
 10
0.0
 20
0.0
 30
0.0
 70
   128
 71
   27
 72
   30
 73
   32
  0
VERTEX
  8
cheese
 10
0.0
 20
0.0
 30
0.0
 70
   128
 71
   17
 72
   31
 73
   34
  0
VERTEX
  8
cheese
 10
0.0
 20
0.0
 30
0.0
 70
   128
 71
   67
 72
   29
 73
   32
  0
VERTEX
  8
cheese
 10
0.0
 20
0.0
 30
0.0
 70
   128
 71
   15
 72
   34
 73
   36
  0
VERTEX
  8
cheese
 10
0.0
 20
0.0
 30
0.0
 70
   128
 71
   13
 72
   36
 73
   38
  0
VERTEX
  8
cheese
 10
0.0
 20
0.0
 30
0.0
 70
   128
 71
   11
 72
   38
 73
   41
  0
VERTEX
  8
cheese
 10
0.0
 20
0.0
 30
0.0
 70
   128
 71
   225
 72
   43
 73
   39
  0
VERTEX
  8
cheese
 10
0.0
 20
0.0
 30
0.0
 70
   128
 71
   3
 72
   14
 73
   12
  0
VERTEX
  8
cheese
 10
0.0
 20
0.0
 30
0.0
 70
   128
 71
   9
 72
   41
 73
   45
  0
VERTEX
  8
cheese
 10
0.0
 20
0.0
 30
0.0
 70
   128
 71
   39
 72
   43
 73
   48
  0
VERTEX
  8
cheese
 10
0.0
 20
0.0
 30
0.0
 70
   128
 71
   7
 72
   45
 73
   47
  0
VERTEX
  8
cheese
 10
0.0
 20
0.0
 30
0.0
 70
   128
 71
   1
 72
   5
 73
   6
  0
VERTEX
  8
cheese
 10
0.0
 20
0.0
 30
0.0
 70
   128
 71
   42
 72
   48
 73
   50
  0
VERTEX
  8
cheese
 10
0.0
 20
0.0
 30
0.0
 70
   128
 71
   51
 72
   47
 73
   46
  0
VERTEX
  8
cheese
 10
0.0
 20
0.0
 30
0.0
 70
   128
 71
   65
 72
   49
 73
   97
  0
VERTEX
  8
cheese
 10
0.0
 20
0.0
 30
0.0
 70
   128
 71
   62
 72
   96
 73
   88
  0
VERTEX
  8
cheese
 10
0.0
 20
0.0
 30
0.0
 70
   128
 71
   12
 72
   10
 73
   1
  0
VERTEX
  8
cheese
 10
0.0
 20
0.0
 30
0.0
 70
   128
 71
   70
 72
   76
 73
   52
  0
VERTEX
  8
cheese
 10
0.0
 20
0.0
 30
0.0
 70
   128
 71
   10
 72
   8
 73
   1
  0
VERTEX
  8
cheese
 10
0.0
 20
0.0
 30
0.0
 70
   128
 71
   8
 72
   5
 73
   1
  0
VERTEX
  8
cheese
 10
0.0
 20
0.0
 30
0.0
 70
   128
 71
   2
 72
   44
 73
   40
  0
VERTEX
  8
cheese
 10
0.0
 20
0.0
 30
0.0
 70
   128
 71
   40
 72
   37
 73
   21
  0
VERTEX
  8
cheese
 10
0.0
 20
0.0
 30
0.0
 70
   128
 71
   37
 72
   35
 73
   21
  0
VERTEX
  8
cheese
 10
0.0
 20
0.0
 30
0.0
 70
   128
 71
   3
 72
   1
 73
   2
  0
VERTEX
  8
cheese
 10
0.0
 20
0.0
 30
0.0
 70
   128
 71
   3
 72
   18
 73
   16
  0
VERTEX
  8
cheese
 10
0.0
 20
0.0
 30
0.0
 70
   128
 71
   35
 72
   33
 73
   21
  0
VERTEX
  8
cheese
 10
0.0
 20
0.0
 30
0.0
 70
   128
 71
   33
 72
   24
 73
   21
  0
VERTEX
  8
cheese
 10
0.0
 20
0.0
 30
0.0
 70
   128
 71
   4
 72
   25
 73
   19
  0
VERTEX
  8
cheese
 10
0.0
 20
0.0
 30
0.0
 70
   128
 71
   22
 72
   23
 73
   26
  0
VERTEX
  8
cheese
 10
0.0
 20
0.0
 30
0.0
 70
   128
 71
   46
 72
   50
 73
   52
  0
VERTEX
  8
cheese
 10
0.0
 20
0.0
 30
0.0
 70
   128
 71
   51
 72
   6
 73
   47
  0
VERTEX
  8
cheese
 10
0.0
 20
0.0
 30
0.0
 70
   128
 71
   2
 72
   49
 73
   44
  0
VERTEX
  8
cheese
 10
0.0
 20
0.0
 30
0.0
 70
   128
 71
   92
 72
   218
 73
   198
  0
VERTEX
  8
cheese
 10
0.0
 20
0.0
 30
0.0
 70
   128
 71
   205
 72
   198
 73
   199
  0
VERTEX
  8
cheese
 10
0.0
 20
0.0
 30
0.0
 70
   128
 71
   206
 72
   199
 73
   200
  0
VERTEX
  8
cheese
 10
0.0
 20
0.0
 30
0.0
 70
   128
 71
   207
 72
   200
 73
   201
  0
VERTEX
  8
cheese
 10
0.0
 20
0.0
 30
0.0
 70
   128
 71
   208
 72
   201
 73
   202
  0
VERTEX
  8
cheese
 10
0.0
 20
0.0
 30
0.0
 70
   128
 71
   209
 72
   202
 73
   203
  0
VERTEX
  8
cheese
 10
0.0
 20
0.0
 30
0.0
 70
   128
 71
   203
 72
   204
 73
   94
  0
VERTEX
  8
cheese
 10
0.0
 20
0.0
 30
0.0
 70
   128
 71
   94
 72
   112
 73
   210
  0
VERTEX
  8
cheese
 10
0.0
 20
0.0
 30
0.0
 70
   128
 71
   274
 72
   286
 73
   137
  0
VERTEX
  8
cheese
 10
0.0
 20
0.0
 30
0.0
 70
   128
 71
   205
 72
   225
 73
   236
  0
VERTEX
  8
cheese
 10
0.0
 20
0.0
 30
0.0
 70
   128
 71
   286
 72
   134
 73
   137
  0
VERTEX
  8
cheese
 10
0.0
 20
0.0
 30
0.0
 70
   128
 71
   205
 72
   206
 73
   225
  0
VERTEX
  8
cheese
 10
0.0
 20
0.0
 30
0.0
 70
   128
 71
   206
 72
   107
 73
   81
  0
VERTEX
  8
cheese
 10
0.0
 20
0.0
 30
0.0
 70
   128
 71
   207
 72
   114
 73
   64
  0
VERTEX
  8
cheese
 10
0.0
 20
0.0
 30
0.0
 70
   128
 71
   64
 72
   107
 73
   206
  0
VERTEX
  8
cheese
 10
0.0
 20
0.0
 30
0.0
 70
   128
 71
   101
 72
   74
 73
   208
  0
VERTEX
  8
cheese
 10
0.0
 20
0.0
 30
0.0
 70
   128
 71
   74
 72
   114
 73
   207
  0
VERTEX
  8
cheese
 10
0.0
 20
0.0
 30
0.0
 70
   128
 71
   208
 72
   209
 73
   98
  0
VERTEX
  8
cheese
 10
0.0
 20
0.0
 30
0.0
 70
   128
 71
   210
 72
   90
 73
   58
  0
VERTEX
  8
cheese
 10
0.0
 20
0.0
 30
0.0
 70
   128
 71
   58
 72
   98
 73
   209
  0
VERTEX
  8
cheese
 10
0.0
 20
0.0
 30
0.0
 70
   128
 71
   210
 72
   112
 73
   68
  0
VERTEX
  8
cheese
 10
0.0
 20
0.0
 30
0.0
 70
   128
 71
   228
 72
   90
 73
   210
  0
VERTEX
  8
cheese
 10
0.0
 20
0.0
 30
0.0
 70
   128
 71
   210
 72
   68
 73
   67
  0
VERTEX
  8
cheese
 10
0.0
 20
0.0
 30
0.0
 70
   128
 71
   222
 72
   219
 73
   197
  0
VERTEX
  8
cheese
 10
0.0
 20
0.0
 30
0.0
 70
   128
 71
   197
 72
   215
 73
   222
  0
VERTEX
  8
cheese
 10
0.0
 20
0.0
 30
0.0
 70
   128
 71
   197
 72
   224
 73
   215
  0
VERTEX
  8
cheese
 10
0.0
 20
0.0
 30
0.0
 70
   128
 71
   218
 72
   224
 73
   197
  0
VERTEX
  8
cheese
 10
0.0
 20
0.0
 30
0.0
 70
   128
 71
   198
 72
   197
 73
   199
  0
VERTEX
  8
cheese
 10
0.0
 20
0.0
 30
0.0
 70
   128
 71
   199
 72
   197
 73
   200
  0
VERTEX
  8
cheese
 10
0.0
 20
0.0
 30
0.0
 70
   128
 71
   200
 72
   197
 73
   201
  0
VERTEX
  8
cheese
 10
0.0
 20
0.0
 30
0.0
 70
   128
 71
   201
 72
   197
 73
   202
  0
VERTEX
  8
cheese
 10
0.0
 20
0.0
 30
0.0
 70
   128
 71
   202
 72
   197
 73
   203
  0
VERTEX
  8
cheese
 10
0.0
 20
0.0
 30
0.0
 70
   128
 71
   203
 72
   197
 73
   204
  0
VERTEX
  8
cheese
 10
0.0
 20
0.0
 30
0.0
 70
   128
 71
   197
 72
   106
 73
   204
  0
VERTEX
  8
cheese
 10
0.0
 20
0.0
 30
0.0
 70
   128
 71
   197
 72
   219
 73
   106
  0
VERTEX
  8
cheese
 10
0.0
 20
0.0
 30
0.0
 70
   128
 71
   245
 72
   239
 73
   240
  0
VERTEX
  8
cheese
 10
0.0
 20
0.0
 30
0.0
 70
   128
 71
   53
 72
   151
 73
   246
  0
VERTEX
  8
cheese
 10
0.0
 20
0.0
 30
0.0
 70
   128
 71
   240
 72
   139
 73
   53
  0
VERTEX
  8
cheese
 10
0.0
 20
0.0
 30
0.0
 70
   128
 71
   150
 72
   241
 73
   247
  0
VERTEX
  8
cheese
 10
0.0
 20
0.0
 30
0.0
 70
   128
 71
   247
 72
   241
 73
   242
  0
VERTEX
  8
cheese
 10
0.0
 20
0.0
 30
0.0
 70
   128
 71
   248
 72
   242
 73
   243
  0
VERTEX
  8
cheese
 10
0.0
 20
0.0
 30
0.0
 70
   128
 71
   249
 72
   243
 73
   244
  0
VERTEX
  8
cheese
 10
0.0
 20
0.0
 30
0.0
 70
   128
 71
   250
 72
   244
 73
   239
  0
VERTEX
  8
cheese
 10
0.0
 20
0.0
 30
0.0
 70
   128
 71
   251
 72
   245
 73
   246
  0
VERTEX
  8
cheese
 10
0.0
 20
0.0
 30
0.0
 70
   128
 71
   277
 72
   252
 73
   246
  0
VERTEX
  8
cheese
 10
0.0
 20
0.0
 30
0.0
 70
   128
 71
   140
 72
   247
 73
   253
  0
VERTEX
  8
cheese
 10
0.0
 20
0.0
 30
0.0
 70
   128
 71
   253
 72
   247
 73
   248
  0
VERTEX
  8
cheese
 10
0.0
 20
0.0
 30
0.0
 70
   128
 71
   254
 72
   248
 73
   249
  0
VERTEX
  8
cheese
 10
0.0
 20
0.0
 30
0.0
 70
   128
 71
   255
 72
   249
 73
   250
  0
VERTEX
  8
cheese
 10
0.0
 20
0.0
 30
0.0
 70
   128
 71
   256
 72
   250
 73
   245
  0
VERTEX
  8
cheese
 10
0.0
 20
0.0
 30
0.0
 70
   128
 71
   257
 72
   251
 73
   252
  0
VERTEX
  8
cheese
 10
0.0
 20
0.0
 30
0.0
 70
   128
 71
   283
 72
   258
 73
   252
  0
VERTEX
  8
cheese
 10
0.0
 20
0.0
 30
0.0
 70
   128
 71
   280
 72
   60
 73
   259
  0
VERTEX
  8
cheese
 10
0.0
 20
0.0
 30
0.0
 70
   128
 71
   253
 72
   259
 73
   60
  0
VERTEX
  8
cheese
 10
0.0
 20
0.0
 30
0.0
 70
   128
 71
   259
 72
   253
 73
   254
  0
VERTEX
  8
cheese
 10
0.0
 20
0.0
 30
0.0
 70
   128
 71
   260
 72
   254
 73
   255
  0
VERTEX
  8
cheese
 10
0.0
 20
0.0
 30
0.0
 70
   128
 71
   261
 72
   255
 73
   256
  0
VERTEX
  8
cheese
 10
0.0
 20
0.0
 30
0.0
 70
   128
 71
   262
 72
   256
 73
   251
  0
VERTEX
  8
cheese
 10
0.0
 20
0.0
 30
0.0
 70
   128
 71
   263
 72
   257
 73
   258
  0
VERTEX
  8
cheese
 10
0.0
 20
0.0
 30
0.0
 70
   128
 71
   283
 72
   154
 73
   264
  0
VERTEX
  8
cheese
 10
0.0
 20
0.0
 30
0.0
 70
   128
 71
   280
 72
   259
 73
   265
  0
VERTEX
  8
cheese
 10
0.0
 20
0.0
 30
0.0
 70
   128
 71
   265
 72
   259
 73
   260
  0
VERTEX
  8
cheese
 10
0.0
 20
0.0
 30
0.0
 70
   128
 71
   266
 72
   260
 73
   261
  0
VERTEX
  8
cheese
 10
0.0
 20
0.0
 30
0.0
 70
   128
 71
   267
 72
   261
 73
   262
  0
VERTEX
  8
cheese
 10
0.0
 20
0.0
 30
0.0
 70
   128
 71
   268
 72
   262
 73
   257
  0
VERTEX
  8
cheese
 10
0.0
 20
0.0
 30
0.0
 70
   128
 71
   239
 72
   237
 73
   240
  0
VERTEX
  8
cheese
 10
0.0
 20
0.0
 30
0.0
 70
   128
 71
   263
 72
   264
 73
   238
  0
VERTEX
  8
cheese
 10
0.0
 20
0.0
 30
0.0
 70
   128
 71
   139
 72
   240
 73
   237
  0
VERTEX
  8
cheese
 10
0.0
 20
0.0
 30
0.0
 70
   128
 71
   154
 72
   193
 73
   238
  0
VERTEX
  8
cheese
 10
0.0
 20
0.0
 30
0.0
 70
   128
 71
   237
 72
   144
 73
   143
  0
VERTEX
  8
cheese
 10
0.0
 20
0.0
 30
0.0
 70
   128
 71
   238
 72
   193
 73
   282
  0
VERTEX
  8
cheese
 10
0.0
 20
0.0
 30
0.0
 70
   128
 71
   237
 72
   276
 73
   144
  0
VERTEX
  8
cheese
 10
0.0
 20
0.0
 30
0.0
 70
   128
 71
   238
 72
   282
 73
   158
  0
VERTEX
  8
cheese
 10
0.0
 20
0.0
 30
0.0
 70
   128
 71
   237
 72
   278
 73
   276
  0
VERTEX
  8
cheese
 10
0.0
 20
0.0
 30
0.0
 70
   128
 71
   238
 72
   158
 73
   285
  0
VERTEX
  8
cheese
 10
0.0
 20
0.0
 30
0.0
 70
   128
 71
   281
 72
   284
 73
   131
  0
VERTEX
  8
cheese
 10
0.0
 20
0.0
 30
0.0
 70
   128
 71
   131
 72
   138
 73
   289
  0
VERTEX
  8
cheese
 10
0.0
 20
0.0
 30
0.0
 70
   128
 71
   237
 72
   279
 73
   278
  0
VERTEX
  8
cheese
 10
0.0
 20
0.0
 30
0.0
 70
   128
 71
   238
 72
   285
 73
   182
  0
VERTEX
  8
cheese
 10
0.0
 20
0.0
 30
0.0
 70
   128
 71
   150
 72
   279
 73
   237
  0
VERTEX
  8
cheese
 10
0.0
 20
0.0
 30
0.0
 70
   128
 71
   287
 72
   265
 73
   238
  0
VERTEX
  8
cheese
 10
0.0
 20
0.0
 30
0.0
 70
   128
 71
   241
 72
   237
 73
   242
  0
VERTEX
  8
cheese
 10
0.0
 20
0.0
 30
0.0
 70
   128
 71
   265
 72
   266
 73
   238
  0
VERTEX
  8
cheese
 10
0.0
 20
0.0
 30
0.0
 70
   128
 71
   242
 72
   237
 73
   243
  0
VERTEX
  8
cheese
 10
0.0
 20
0.0
 30
0.0
 70
   128
 71
   266
 72
   267
 73
   238
  0
VERTEX
  8
cheese
 10
0.0
 20
0.0
 30
0.0
 70
   128
 71
   243
 72
   237
 73
   244
  0
VERTEX
  8
cheese
 10
0.0
 20
0.0
 30
0.0
 70
   128
 71
   267
 72
   268
 73
   238
  0
VERTEX
  8
cheese
 10
0.0
 20
0.0
 30
0.0
 70
   128
 71
   244
 72
   237
 73
   239
  0
VERTEX
  8
cheese
 10
0.0
 20
0.0
 30
0.0
 70
   128
 71
   268
 72
   263
 73
   238
  0
VERTEX
  8
cheese
 10
0.0
 20
0.0
 30
0.0
 70
   128
 71
   153
 72
   145
 73
   146
  0
VERTEX
  8
cheese
 10
0.0
 20
0.0
 30
0.0
 70
   128
 71
   162
 72
   155
 73
   146
  0
VERTEX
  8
cheese
 10
0.0
 20
0.0
 30
0.0
 70
   128
 71
   54
 72
   147
 73
   159
  0
VERTEX
  8
cheese
 10
0.0
 20
0.0
 30
0.0
 70
   128
 71
   159
 72
   147
 73
   148
  0
VERTEX
  8
cheese
 10
0.0
 20
0.0
 30
0.0
 70
   128
 71
   160
 72
   148
 73
   149
  0
VERTEX
  8
cheese
 10
0.0
 20
0.0
 30
0.0
 70
   128
 71
   165
 72
   149
 73
   152
  0
VERTEX
  8
cheese
 10
0.0
 20
0.0
 30
0.0
 70
   128
 71
   166
 72
   152
 73
   145
  0
VERTEX
  8
cheese
 10
0.0
 20
0.0
 30
0.0
 70
   128
 71
   167
 72
   153
 73
   155
  0
VERTEX
  8
cheese
 10
0.0
 20
0.0
 30
0.0
 70
   128
 71
   155
 72
   76
 73
   70
  0
VERTEX
  8
cheese
 10
0.0
 20
0.0
 30
0.0
 70
   128
 71
   70
 72
   57
 73
   168
  0
VERTEX
  8
cheese
 10
0.0
 20
0.0
 30
0.0
 70
   128
 71
   164
 72
   159
 73
   62
  0
VERTEX
  8
cheese
 10
0.0
 20
0.0
 30
0.0
 70
   128
 71
   76
 72
   155
 73
   162
  0
VERTEX
  8
cheese
 10
0.0
 20
0.0
 30
0.0
 70
   128
 71
   62
 72
   159
 73
   160
  0
VERTEX
  8
cheese
 10
0.0
 20
0.0
 30
0.0
 70
   128
 71
   170
 72
   160
 73
   165
  0
VERTEX
  8
cheese
 10
0.0
 20
0.0
 30
0.0
 70
   128
 71
   171
 72
   165
 73
   166
  0
VERTEX
  8
cheese
 10
0.0
 20
0.0
 30
0.0
 70
   128
 71
   172
 72
   166
 73
   153
  0
VERTEX
  8
cheese
 10
0.0
 20
0.0
 30
0.0
 70
   128
 71
   168
 72
   120
 73
   118
  0
VERTEX
  8
cheese
 10
0.0
 20
0.0
 30
0.0
 70
   128
 71
   120
 72
   168
 73
   57
  0
VERTEX
  8
cheese
 10
0.0
 20
0.0
 30
0.0
 70
   128
 71
   235
 72
   230
 73
   231
  0
VERTEX
  8
cheese
 10
0.0
 20
0.0
 30
0.0
 70
   128
 71
   269
 72
   231
 73
   232
  0
VERTEX
  8
cheese
 10
0.0
 20
0.0
 30
0.0
 70
   128
 71
   170
 72
   104
 73
   79
  0
VERTEX
  8
cheese
 10
0.0
 20
0.0
 30
0.0
 70
   128
 71
   270
 72
   232
 73
   233
  0
VERTEX
  8
cheese
 10
0.0
 20
0.0
 30
0.0
 70
   128
 71
   171
 72
   128
 73
   104
  0
VERTEX
  8
cheese
 10
0.0
 20
0.0
 30
0.0
 70
   128
 71
   172
 72
   55
 73
   128
  0
VERTEX
  8
cheese
 10
0.0
 20
0.0
 30
0.0
 70
   128
 71
   167
 72
   118
 73
   55
  0
VERTEX
  8
cheese
 10
0.0
 20
0.0
 30
0.0
 70
   128
 71
   146
 72
   145
 73
   188
  0
VERTEX
  8
cheese
 10
0.0
 20
0.0
 30
0.0
 70
   128
 71
   146
 72
   56
 73
   163
  0
VERTEX
  8
cheese
 10
0.0
 20
0.0
 30
0.0
 70
   128
 71
   147
 72
   54
 73
   169
  0
VERTEX
  8
cheese
 10
0.0
 20
0.0
 30
0.0
 70
   128
 71
   147
 72
   169
 73
   188
  0
VERTEX
  8
cheese
 10
0.0
 20
0.0
 30
0.0
 70
   128
 71
   149
 72
   148
 73
   188
  0
VERTEX
  8
cheese
 10
0.0
 20
0.0
 30
0.0
 70
   128
 71
   152
 72
   149
 73
   188
  0
VERTEX
  8
cheese
 10
0.0
 20
0.0
 30
0.0
 70
   128
 71
   188
 72
   145
 73
   152
  0
VERTEX
  8
cheese
 10
0.0
 20
0.0
 30
0.0
 70
   128
 71
   184
 72
   174
 73
   176
  0
VERTEX
  8
cheese
 10
0.0
 20
0.0
 30
0.0
 70
   128
 71
   186
 72
   176
 73
   178
  0
VERTEX
  8
cheese
 10
0.0
 20
0.0
 30
0.0
 70
   128
 71
   178
 72
   80
 73
   175
  0
VERTEX
  8
cheese
 10
0.0
 20
0.0
 30
0.0
 70
   128
 71
   85
 72
   179
 73
   189
  0
VERTEX
  8
cheese
 10
0.0
 20
0.0
 30
0.0
 70
   128
 71
   189
 72
   179
 73
   180
  0
VERTEX
  8
cheese
 10
0.0
 20
0.0
 30
0.0
 70
   128
 71
   190
 72
   180
 73
   181
  0
VERTEX
  8
cheese
 10
0.0
 20
0.0
 30
0.0
 70
   128
 71
   191
 72
   181
 73
   183
  0
VERTEX
  8
cheese
 10
0.0
 20
0.0
 30
0.0
 70
   128
 71
   194
 72
   183
 73
   174
  0
VERTEX
  8
cheese
 10
0.0
 20
0.0
 30
0.0
 70
   128
 71
   184
 72
   186
 73
   75
  0
VERTEX
  8
cheese
 10
0.0
 20
0.0
 30
0.0
 70
   128
 71
   186
 72
   73
 73
   75
  0
VERTEX
  8
cheese
 10
0.0
 20
0.0
 30
0.0
 70
   128
 71
   187
 72
   88
 73
   96
  0
VERTEX
  8
cheese
 10
0.0
 20
0.0
 30
0.0
 70
   128
 71
   186
 72
   96
 73
   63
  0
VERTEX
  8
cheese
 10
0.0
 20
0.0
 30
0.0
 70
   128
 71
   187
 72
   175
 73
   88
  0
VERTEX
  8
cheese
 10
0.0
 20
0.0
 30
0.0
 70
   128
 71
   189
 72
   97
 73
   89
  0
VERTEX
  8
cheese
 10
0.0
 20
0.0
 30
0.0
 70
   128
 71
   65
 72
   97
 73
   189
  0
VERTEX
  8
cheese
 10
0.0
 20
0.0
 30
0.0
 70
   128
 71
   65
 72
   189
 73
   87
  0
VERTEX
  8
cheese
 10
0.0
 20
0.0
 30
0.0
 70
   128
 71
   87
 72
   189
 73
   190
  0
VERTEX
  8
cheese
 10
0.0
 20
0.0
 30
0.0
 70
   128
 71
   86
 72
   71
 73
   190
  0
VERTEX
  8
cheese
 10
0.0
 20
0.0
 30
0.0
 70
   128
 71
   191
 72
   69
 73
   86
  0
VERTEX
  8
cheese
 10
0.0
 20
0.0
 30
0.0
 70
   128
 71
   191
 72
   194
 73
   95
  0
VERTEX
  8
cheese
 10
0.0
 20
0.0
 30
0.0
 70
   128
 71
   184
 72
   66
 73
   83
  0
VERTEX
  8
cheese
 10
0.0
 20
0.0
 30
0.0
 70
   128
 71
   83
 72
   95
 73
   194
  0
VERTEX
  8
cheese
 10
0.0
 20
0.0
 30
0.0
 70
   128
 71
   174
 72
   173
 73
   176
  0
VERTEX
  8
cheese
 10
0.0
 20
0.0
 30
0.0
 70
   128
 71
   176
 72
   173
 73
   178
  0
VERTEX
  8
cheese
 10
0.0
 20
0.0
 30
0.0
 70
   128
 71
   178
 72
   173
 73
   77
  0
VERTEX
  8
cheese
 10
0.0
 20
0.0
 30
0.0
 70
   128
 71
   173
 72
   82
 73
   77
  0
VERTEX
  8
cheese
 10
0.0
 20
0.0
 30
0.0
 70
   128
 71
   173
 72
   84
 73
   82
  0
VERTEX
  8
cheese
 10
0.0
 20
0.0
 30
0.0
 70
   128
 71
   173
 72
   72
 73
   84
  0
VERTEX
  8
cheese
 10
0.0
 20
0.0
 30
0.0
 70
   128
 71
   173
 72
   85
 73
   72
  0
VERTEX
  8
cheese
 10
0.0
 20
0.0
 30
0.0
 70
   128
 71
   85
 72
   173
 73
   179
  0
VERTEX
  8
cheese
 10
0.0
 20
0.0
 30
0.0
 70
   128
 71
   179
 72
   173
 73
   180
  0
VERTEX
  8
cheese
 10
0.0
 20
0.0
 30
0.0
 70
   128
 71
   180
 72
   173
 73
   181
  0
VERTEX
  8
cheese
 10
0.0
 20
0.0
 30
0.0
 70
   128
 71
   181
 72
   173
 73
   183
  0
VERTEX
  8
cheese
 10
0.0
 20
0.0
 30
0.0
 70
   128
 71
   183
 72
   173
 73
   174
  0
VERTEX
  8
cheese
 10
0.0
 20
0.0
 30
0.0
 70
   128
 71
   214
 72
   127
 73
   195
  0
VERTEX
  8
cheese
 10
0.0
 20
0.0
 30
0.0
 70
   128
 71
   216
 72
   195
 73
   196
  0
VERTEX
  8
cheese
 10
0.0
 20
0.0
 30
0.0
 70
   128
 71
   217
 72
   196
 73
   211
  0
VERTEX
  8
cheese
 10
0.0
 20
0.0
 30
0.0
 70
   128
 71
   220
 72
   211
 73
   212
  0
VERTEX
  8
cheese
 10
0.0
 20
0.0
 30
0.0
 70
   128
 71
   221
 72
   212
 73
   213
  0
VERTEX
  8
cheese
 10
0.0
 20
0.0
 30
0.0
 70
   128
 71
   223
 72
   213
 73
   100
  0
VERTEX
  8
cheese
 10
0.0
 20
0.0
 30
0.0
 70
   128
 71
   271
 72
   233
 73
   234
  0
VERTEX
  8
cheese
 10
0.0
 20
0.0
 30
0.0
 70
   128
 71
   127
 72
   214
 73
   119
  0
VERTEX
  8
cheese
 10
0.0
 20
0.0
 30
0.0
 70
   128
 71
   216
 72
   117
 73
   185
  0
VERTEX
  8
cheese
 10
0.0
 20
0.0
 30
0.0
 70
   128
 71
   216
 72
   99
 73
   117
  0
VERTEX
  8
cheese
 10
0.0
 20
0.0
 30
0.0
 70
   128
 71
   217
 72
   105
 73
   99
  0
VERTEX
  8
cheese
 10
0.0
 20
0.0
 30
0.0
 70
   128
 71
   115
 72
   105
 73
   217
  0
VERTEX
  8
cheese
 10
0.0
 20
0.0
 30
0.0
 70
   128
 71
   220
 72
   103
 73
   115
  0
VERTEX
  8
cheese
 10
0.0
 20
0.0
 30
0.0
 70
   128
 71
   221
 72
   93
 73
   103
  0
VERTEX
  8
cheese
 10
0.0
 20
0.0
 30
0.0
 70
   128
 71
   116
 72
   221
 73
   223
  0
VERTEX
  8
cheese
 10
0.0
 20
0.0
 30
0.0
 70
   128
 71
   221
 72
   116
 73
   93
  0
VERTEX
  8
cheese
 10
0.0
 20
0.0
 30
0.0
 70
   128
 71
   110
 72
   61
 73
   223
  0
VERTEX
  8
cheese
 10
0.0
 20
0.0
 30
0.0
 70
   128
 71
   223
 72
   61
 73
   91
  0
VERTEX
  8
cheese
 10
0.0
 20
0.0
 30
0.0
 70
   128
 71
   273
 72
   235
 73
   269
  0
VERTEX
  8
cheese
 10
0.0
 20
0.0
 30
0.0
 70
   128
 71
   214
 72
   185
 73
   121
  0
VERTEX
  8
cheese
 10
0.0
 20
0.0
 30
0.0
 70
   128
 71
   127
 72
   109
 73
   195
  0
VERTEX
  8
cheese
 10
0.0
 20
0.0
 30
0.0
 70
   128
 71
   195
 72
   109
 73
   196
  0
VERTEX
  8
cheese
 10
0.0
 20
0.0
 30
0.0
 70
   128
 71
   196
 72
   109
 73
   211
  0
VERTEX
  8
cheese
 10
0.0
 20
0.0
 30
0.0
 70
   128
 71
   211
 72
   109
 73
   212
  0
VERTEX
  8
cheese
 10
0.0
 20
0.0
 30
0.0
 70
   128
 71
   212
 72
   109
 73
   213
  0
VERTEX
  8
cheese
 10
0.0
 20
0.0
 30
0.0
 70
   128
 71
   213
 72
   109
 73
   100
  0
VERTEX
  8
cheese
 10
0.0
 20
0.0
 30
0.0
 70
   128
 71
   109
 72
   124
 73
   100
  0
VERTEX
  8
cheese
 10
0.0
 20
0.0
 30
0.0
 70
   128
 71
   274
 72
   269
 73
   270
  0
VERTEX
  8
cheese
 10
0.0
 20
0.0
 30
0.0
 70
   128
 71
   275
 72
   270
 73
   271
  0
VERTEX
  8
cheese
 10
0.0
 20
0.0
 30
0.0
 70
   128
 71
   281
 72
   271
 73
   272
  0
VERTEX
  8
cheese
 10
0.0
 20
0.0
 30
0.0
 70
   128
 71
   286
 72
   274
 73
   275
  0
VERTEX
  8
cheese
 10
0.0
 20
0.0
 30
0.0
 70
   128
 71
   288
 72
   275
 73
   281
  0
VERTEX
  8
cheese
 10
0.0
 20
0.0
 30
0.0
 70
   128
 71
   142
 72
   123
 73
   230
  0
VERTEX
  8
cheese
 10
0.0
 20
0.0
 30
0.0
 70
   128
 71
   123
 72
   122
 73
   226
  0
VERTEX
  8
cheese
 10
0.0
 20
0.0
 30
0.0
 70
   128
 71
   231
 72
   230
 73
   123
  0
VERTEX
  8
cheese
 10
0.0
 20
0.0
 30
0.0
 70
   128
 71
   229
 72
   125
 73
   108
  0
VERTEX
  8
cheese
 10
0.0
 20
0.0
 30
0.0
 70
   128
 71
   231
 72
   226
 73
   227
  0
VERTEX
  8
cheese
 10
0.0
 20
0.0
 30
0.0
 70
   128
 71
   232
 72
   227
 73
   229
  0
VERTEX
  8
cheese
 10
0.0
 20
0.0
 30
0.0
 70
   128
 71
   108
 72
   234
 73
   233
  0
VERTEX
  8
cheese
 10
0.0
 20
0.0
 30
0.0
 70
   128
 71
   141
 72
   136
 73
   284
  0
VERTEX
  8
cheese
 10
0.0
 20
0.0
 30
0.0
 70
   128
 71
   234
 72
   108
 73
   111
  0
VERTEX
  8
cheese
 10
0.0
 20
0.0
 30
0.0
 70
   128
 71
   25
 72
   27
 73
   28
  0
VERTEX
  8
cheese
 10
0.0
 20
0.0
 30
0.0
 70
   128
 71
   30
 72
   117
 73
   99
  0
VERTEX
  8
cheese
 10
0.0
 20
0.0
 30
0.0
 70
   128
 71
   91
 72
   24
 73
   116
  0
VERTEX
  8
cheese
 10
0.0
 20
0.0
 30
0.0
 70
   128
 71
   16
 72
   20
 73
   17
  0
VERTEX
  8
cheese
 10
0.0
 20
0.0
 30
0.0
 70
   128
 71
   28
 72
   29
 73
   31
  0
VERTEX
  8
cheese
 10
0.0
 20
0.0
 30
0.0
 70
   128
 71
   32
 72
   24
 73
   33
  0
VERTEX
  8
cheese
 10
0.0
 20
0.0
 30
0.0
 70
   128
 71
   32
 72
   115
 73
   103
  0
VERTEX
  8
cheese
 10
0.0
 20
0.0
 30
0.0
 70
   128
 71
   68
 72
   31
 73
   29
  0
VERTEX
  8
cheese
 10
0.0
 20
0.0
 30
0.0
 70
   128
 71
   14
 72
   17
 73
   15
  0
VERTEX
  8
cheese
 10
0.0
 20
0.0
 30
0.0
 70
   128
 71
   58
 72
   33
 73
   35
  0
VERTEX
  8
cheese
 10
0.0
 20
0.0
 30
0.0
 70
   128
 71
   12
 72
   15
 73
   13
  0
VERTEX
  8
cheese
 10
0.0
 20
0.0
 30
0.0
 70
   128
 71
   34
 72
   106
 73
   36
  0
VERTEX
  8
cheese
 10
0.0
 20
0.0
 30
0.0
 70
   128
 71
   235
 72
   126
 73
   230
  0
VERTEX
  8
cheese
 10
0.0
 20
0.0
 30
0.0
 70
   128
 71
   35
 72
   101
 73
   98
  0
VERTEX
  8
cheese
 10
0.0
 20
0.0
 30
0.0
 70
   128
 71
   10
 72
   13
 73
   11
  0
VERTEX
  8
cheese
 10
0.0
 20
0.0
 30
0.0
 70
   128
 71
   38
 72
   215
 73
   224
  0
VERTEX
  8
cheese
 10
0.0
 20
0.0
 30
0.0
 70
   128
 71
   234
 72
   113
 73
   272
  0
VERTEX
  8
cheese
 10
0.0
 20
0.0
 30
0.0
 70
   128
 71
   74
 72
   40
 73
   114
  0
VERTEX
  8
cheese
 10
0.0
 20
0.0
 30
0.0
 70
   128
 71
   92
 72
   41
 73
   38
  0
VERTEX
  8
cheese
 10
0.0
 20
0.0
 30
0.0
 70
   128
 71
   8
 72
   11
 73
   9
  0
VERTEX
  8
cheese
 10
0.0
 20
0.0
 30
0.0
 70
   128
 71
   64
 72
   83
 73
   43
  0
VERTEX
  8
cheese
 10
0.0
 20
0.0
 30
0.0
 70
   128
 71
   40
 72
   86
 73
   69
  0
VERTEX
  8
cheese
 10
0.0
 20
0.0
 30
0.0
 70
   128
 71
   71
 72
   44
 73
   49
  0
VERTEX
  8
cheese
 10
0.0
 20
0.0
 30
0.0
 70
   128
 71
   5
 72
   9
 73
   7
  0
VERTEX
  8
cheese
 10
0.0
 20
0.0
 30
0.0
 70
   128
 71
   41
 72
   42
 73
   45
  0
VERTEX
  8
cheese
 10
0.0
 20
0.0
 30
0.0
 70
   128
 71
   75
 72
   43
 73
   66
  0
VERTEX
  8
cheese
 10
0.0
 20
0.0
 30
0.0
 70
   128
 71
   120
 72
   48
 73
   118
  0
VERTEX
  8
cheese
 10
0.0
 20
0.0
 30
0.0
 70
   128
 71
   45
 72
   46
 73
   47
  0
VERTEX
  8
cheese
 10
0.0
 20
0.0
 30
0.0
 70
   128
 71
   48
 72
   128
 73
   55
  0
VERTEX
  8
cheese
 10
0.0
 20
0.0
 30
0.0
 70
   128
 71
   75
 72
   104
 73
   128
  0
VERTEX
  8
cheese
 10
0.0
 20
0.0
 30
0.0
 70
   128
 71
   73
 72
   79
 73
   104
  0
VERTEX
  8
cheese
 10
0.0
 20
0.0
 30
0.0
 70
   128
 71
   3
 72
   113
 73
   111
  0
VERTEX
  8
cheese
 10
0.0
 20
0.0
 30
0.0
 70
   128
 71
   4
 72
   130
 73
   129
  0
VERTEX
  8
cheese
 10
0.0
 20
0.0
 30
0.0
 70
   128
 71
   273
 72
   132
 73
   235
  0
VERTEX
  8
cheese
 10
0.0
 20
0.0
 30
0.0
 70
   128
 71
   100
 72
   133
 73
   137
  0
VERTEX
  8
cheese
 10
0.0
 20
0.0
 30
0.0
 70
   128
 71
   102
 72
   134
 73
   156
  0
VERTEX
  8
cheese
 10
0.0
 20
0.0
 30
0.0
 70
   128
 71
   109
 72
   132
 73
   133
  0
VERTEX
  8
cheese
 10
0.0
 20
0.0
 30
0.0
 70
   128
 71
   127
 72
   4
 73
   132
  0
VERTEX
  8
cheese
 10
0.0
 20
0.0
 30
0.0
 70
   128
 71
   102
 72
   138
 73
   21
  0
VERTEX
  8
cheese
 10
0.0
 20
0.0
 30
0.0
 70
   128
 71
   161
 72
   2
 73
   1
  0
VERTEX
  8
cheese
 10
0.0
 20
0.0
 30
0.0
 70
   128
 71
   130
 72
   226
 73
   129
  0
VERTEX
  8
cheese
 10
0.0
 20
0.0
 30
0.0
 70
   128
 71
   177
 72
   286
 73
   288
  0
VERTEX
  8
cheese
 10
0.0
 20
0.0
 30
0.0
 70
   128
 71
   130
 72
   229
 73
   227
  0
VERTEX
  8
cheese
 10
0.0
 20
0.0
 30
0.0
 70
   128
 71
   175
 72
   182
 73
   164
  0
VERTEX
  8
cheese
 10
0.0
 20
0.0
 30
0.0
 70
   128
 71
   280
 72
   80
 73
   77
  0
VERTEX
  8
cheese
 10
0.0
 20
0.0
 30
0.0
 70
   128
 71
   2
 72
   85
 73
   192
  0
VERTEX
  8
cheese
 10
0.0
 20
0.0
 30
0.0
 70
   128
 71
   60
 72
   72
 73
   85
  0
VERTEX
  8
cheese
 10
0.0
 20
0.0
 30
0.0
 70
   128
 71
   54
 72
   154
 73
   169
  0
VERTEX
  8
cheese
 10
0.0
 20
0.0
 30
0.0
 70
   128
 71
   175
 72
   78
 73
   88
  0
VERTEX
  8
cheese
 10
0.0
 20
0.0
 30
0.0
 70
   128
 71
   188
 72
   283
 73
   56
  0
VERTEX
  8
cheese
 10
0.0
 20
0.0
 30
0.0
 70
   128
 71
   163
 72
   283
 73
   277
  0
VERTEX
  8
cheese
 10
0.0
 20
0.0
 30
0.0
 70
   128
 71
   52
 72
   277
 73
   51
  0
VERTEX
  8
cheese
 10
0.0
 20
0.0
 30
0.0
 70
   128
 71
   164
 72
   282
 73
   54
  0
VERTEX
  8
cheese
 10
0.0
 20
0.0
 30
0.0
 70
   128
 71
   23
 72
   185
 73
   117
  0
VERTEX
  8
cheese
 10
0.0
 20
0.0
 30
0.0
 70
   128
 71
   24
 72
   102
 73
   21
  0
VERTEX
  8
cheese
 10
0.0
 20
0.0
 30
0.0
 70
   128
 71
   89
 72
   49
 73
   2
  0
VERTEX
  8
cheese
 10
0.0
 20
0.0
 30
0.0
 70
   128
 71
   177
 72
   289
 73
   157
  0
VERTEX
  8
cheese
 10
0.0
 20
0.0
 30
0.0
 70
   128
 71
   63
 72
   62
 73
   79
  0
VERTEX
  8
cheese
 10
0.0
 20
0.0
 30
0.0
 70
   128
 71
   272
 72
   141
 73
   284
  0
VERTEX
  8
cheese
 10
0.0
 20
0.0
 30
0.0
 70
   128
 71
   57
 72
   50
 73
   59
  0
VERTEX
  8
cheese
 10
0.0
 20
0.0
 30
0.0
 70
   128
 71
   18
 72
   4
 73
   19
  0
VERTEX
  8
cheese
 10
0.0
 20
0.0
 30
0.0
 70
   128
 71
   28
 72
   19
 73
   25
  0
VERTEX
  8
cheese
 10
0.0
 20
0.0
 30
0.0
 70
   128
 71
   22
 72
   25
 73
   4
  0
VERTEX
  8
cheese
 10
0.0
 20
0.0
 30
0.0
 70
   128
 71
   30
 72
   26
 73
   23
  0
VERTEX
  8
cheese
 10
0.0
 20
0.0
 30
0.0
 70
   128
 71
   20
 72
   31
 73
   17
  0
VERTEX
  8
cheese
 10
0.0
 20
0.0
 30
0.0
 70
   128
 71
   27
 72
   32
 73
   29
  0
VERTEX
  8
cheese
 10
0.0
 20
0.0
 30
0.0
 70
   128
 71
   17
 72
   34
 73
   15
  0
VERTEX
  8
cheese
 10
0.0
 20
0.0
 30
0.0
 70
   128
 71
   67
 72
   32
 73
   228
  0
VERTEX
  8
cheese
 10
0.0
 20
0.0
 30
0.0
 70
   128
 71
   15
 72
   36
 73
   13
  0
VERTEX
  8
cheese
 10
0.0
 20
0.0
 30
0.0
 70
   128
 71
   13
 72
   38
 73
   11
  0
VERTEX
  8
cheese
 10
0.0
 20
0.0
 30
0.0
 70
   128
 71
   11
 72
   41
 73
   9
  0
VERTEX
  8
cheese
 10
0.0
 20
0.0
 30
0.0
 70
   128
 71
   225
 72
   39
 73
   236
  0
VERTEX
  8
cheese
 10
0.0
 20
0.0
 30
0.0
 70
   128
 71
   3
 72
   12
 73
   1
  0
VERTEX
  8
cheese
 10
0.0
 20
0.0
 30
0.0
 70
   128
 71
   9
 72
   45
 73
   7
  0
VERTEX
  8
cheese
 10
0.0
 20
0.0
 30
0.0
 70
   128
 71
   39
 72
   48
 73
   42
  0
VERTEX
  8
cheese
 10
0.0
 20
0.0
 30
0.0
 70
   128
 71
   7
 72
   47
 73
   6
  0
VERTEX
  8
cheese
 10
0.0
 20
0.0
 30
0.0
 70
   128
 71
   1
 72
   6
 73
   51
  0
VERTEX
  8
cheese
 10
0.0
 20
0.0
 30
0.0
 70
   128
 71
   42
 72
   50
 73
   46
  0
VERTEX
  8
cheese
 10
0.0
 20
0.0
 30
0.0
 70
   128
 71
   51
 72
   46
 73
   52
  0
VERTEX
  8
cheese
 10
0.0
 20
0.0
 30
0.0
 70
   128
 71
   62
 72
   88
 73
   78
  0
VERTEX
  8
cheese
 10
0.0
 20
0.0
 30
0.0
 70
   128
 71
   2
 72
   40
 73
   21
  0
VERTEX
  8
cheese
 10
0.0
 20
0.0
 30
0.0
 70
   128
 71
   3
 72
   2
 73
   21
  0
VERTEX
  8
cheese
 10
0.0
 20
0.0
 30
0.0
 70
   128
 71
   92
 72
   198
 73
   205
  0
VERTEX
  8
cheese
 10
0.0
 20
0.0
 30
0.0
 70
   128
 71
   205
 72
   199
 73
   206
  0
VERTEX
  8
cheese
 10
0.0
 20
0.0
 30
0.0
 70
   128
 71
   206
 72
   200
 73
   207
  0
VERTEX
  8
cheese
 10
0.0
 20
0.0
 30
0.0
 70
   128
 71
   207
 72
   201
 73
   208
  0
VERTEX
  8
cheese
 10
0.0
 20
0.0
 30
0.0
 70
   128
 71
   208
 72
   202
 73
   209
  0
VERTEX
  8
cheese
 10
0.0
 20
0.0
 30
0.0
 70
   128
 71
   209
 72
   203
 73
   210
  0
VERTEX
  8
cheese
 10
0.0
 20
0.0
 30
0.0
 70
   128
 71
   94
 72
   210
 73
   203
  0
VERTEX
  8
cheese
 10
0.0
 20
0.0
 30
0.0
 70
   128
 71
   274
 72
   137
 73
   273
  0
VERTEX
  8
cheese
 10
0.0
 20
0.0
 30
0.0
 70
   128
 71
   205
 72
   236
 73
   92
  0
VERTEX
  8
cheese
 10
0.0
 20
0.0
 30
0.0
 70
   128
 71
   206
 72
   81
 73
   225
  0
VERTEX
  8
cheese
 10
0.0
 20
0.0
 30
0.0
 70
   128
 71
   207
 72
   64
 73
   206
  0
VERTEX
  8
cheese
 10
0.0
 20
0.0
 30
0.0
 70
   128
 71
   74
 72
   207
 73
   208
  0
VERTEX
  8
cheese
 10
0.0
 20
0.0
 30
0.0
 70
   128
 71
   208
 72
   98
 73
   101
  0
VERTEX
  8
cheese
 10
0.0
 20
0.0
 30
0.0
 70
   128
 71
   58
 72
   209
 73
   210
  0
VERTEX
  8
cheese
 10
0.0
 20
0.0
 30
0.0
 70
   128
 71
   228
 72
   210
 73
   67
  0
VERTEX
  8
cheese
 10
0.0
 20
0.0
 30
0.0
 70
   128
 71
   218
 72
   197
 73
   198
  0
VERTEX
  8
cheese
 10
0.0
 20
0.0
 30
0.0
 70
   128
 71
   245
 72
   240
 73
   246
  0
VERTEX
  8
cheese
 10
0.0
 20
0.0
 30
0.0
 70
   128
 71
   53
 72
   246
 73
   240
  0
VERTEX
  8
cheese
 10
0.0
 20
0.0
 30
0.0
 70
   128
 71
   150
 72
   247
 73
   140
  0
VERTEX
  8
cheese
 10
0.0
 20
0.0
 30
0.0
 70
   128
 71
   247
 72
   242
 73
   248
  0
VERTEX
  8
cheese
 10
0.0
 20
0.0
 30
0.0
 70
   128
 71
   248
 72
   243
 73
   249
  0
VERTEX
  8
cheese
 10
0.0
 20
0.0
 30
0.0
 70
   128
 71
   249
 72
   244
 73
   250
  0
VERTEX
  8
cheese
 10
0.0
 20
0.0
 30
0.0
 70
   128
 71
   250
 72
   239
 73
   245
  0
VERTEX
  8
cheese
 10
0.0
 20
0.0
 30
0.0
 70
   128
 71
   251
 72
   246
 73
   252
  0
VERTEX
  8
cheese
 10
0.0
 20
0.0
 30
0.0
 70
   128
 71
   277
 72
   246
 73
   151
  0
VERTEX
  8
cheese
 10
0.0
 20
0.0
 30
0.0
 70
   128
 71
   140
 72
   253
 73
   161
  0
VERTEX
  8
cheese
 10
0.0
 20
0.0
 30
0.0
 70
   128
 71
   253
 72
   248
 73
   254
  0
VERTEX
  8
cheese
 10
0.0
 20
0.0
 30
0.0
 70
   128
 71
   254
 72
   249
 73
   255
  0
VERTEX
  8
cheese
 10
0.0
 20
0.0
 30
0.0
 70
   128
 71
   255
 72
   250
 73
   256
  0
VERTEX
  8
cheese
 10
0.0
 20
0.0
 30
0.0
 70
   128
 71
   256
 72
   245
 73
   251
  0
VERTEX
  8
cheese
 10
0.0
 20
0.0
 30
0.0
 70
   128
 71
   257
 72
   252
 73
   258
  0
VERTEX
  8
cheese
 10
0.0
 20
0.0
 30
0.0
 70
   128
 71
   283
 72
   252
 73
   277
  0
VERTEX
  8
cheese
 10
0.0
 20
0.0
 30
0.0
 70
   128
 71
   253
 72
   60
 73
   161
  0
VERTEX
  8
cheese
 10
0.0
 20
0.0
 30
0.0
 70
   128
 71
   259
 72
   254
 73
   260
  0
VERTEX
  8
cheese
 10
0.0
 20
0.0
 30
0.0
 70
   128
 71
   260
 72
   255
 73
   261
  0
VERTEX
  8
cheese
 10
0.0
 20
0.0
 30
0.0
 70
   128
 71
   261
 72
   256
 73
   262
  0
VERTEX
  8
cheese
 10
0.0
 20
0.0
 30
0.0
 70
   128
 71
   262
 72
   251
 73
   257
  0
VERTEX
  8
cheese
 10
0.0
 20
0.0
 30
0.0
 70
   128
 71
   263
 72
   258
 73
   264
  0
VERTEX
  8
cheese
 10
0.0
 20
0.0
 30
0.0
 70
   128
 71
   283
 72
   264
 73
   258
  0
VERTEX
  8
cheese
 10
0.0
 20
0.0
 30
0.0
 70
   128
 71
   280
 72
   265
 73
   287
  0
VERTEX
  8
cheese
 10
0.0
 20
0.0
 30
0.0
 70
   128
 71
   265
 72
   260
 73
   266
  0
VERTEX
  8
cheese
 10
0.0
 20
0.0
 30
0.0
 70
   128
 71
   266
 72
   261
 73
   267
  0
VERTEX
  8
cheese
 10
0.0
 20
0.0
 30
0.0
 70
   128
 71
   267
 72
   262
 73
   268
  0
VERTEX
  8
cheese
 10
0.0
 20
0.0
 30
0.0
 70
   128
 71
   268
 72
   257
 73
   263
  0
VERTEX
  8
cheese
 10
0.0
 20
0.0
 30
0.0
 70
   128
 71
   139
 72
   237
 73
   143
  0
VERTEX
  8
cheese
 10
0.0
 20
0.0
 30
0.0
 70
   128
 71
   154
 72
   238
 73
   264
  0
VERTEX
  8
cheese
 10
0.0
 20
0.0
 30
0.0
 70
   128
 71
   281
 72
   131
 73
   289
  0
VERTEX
  8
cheese
 10
0.0
 20
0.0
 30
0.0
 70
   128
 71
   150
 72
   237
 73
   241
  0
VERTEX
  8
cheese
 10
0.0
 20
0.0
 30
0.0
 70
   128
 71
   287
 72
   238
 73
   182
  0
VERTEX
  8
cheese
 10
0.0
 20
0.0
 30
0.0
 70
   128
 71
   153
 72
   146
 73
   155
  0
VERTEX
  8
cheese
 10
0.0
 20
0.0
 30
0.0
 70
   128
 71
   162
 72
   146
 73
   163
  0
VERTEX
  8
cheese
 10
0.0
 20
0.0
 30
0.0
 70
   128
 71
   54
 72
   159
 73
   164
  0
VERTEX
  8
cheese
 10
0.0
 20
0.0
 30
0.0
 70
   128
 71
   159
 72
   148
 73
   160
  0
VERTEX
  8
cheese
 10
0.0
 20
0.0
 30
0.0
 70
   128
 71
   160
 72
   149
 73
   165
  0
VERTEX
  8
cheese
 10
0.0
 20
0.0
 30
0.0
 70
   128
 71
   165
 72
   152
 73
   166
  0
VERTEX
  8
cheese
 10
0.0
 20
0.0
 30
0.0
 70
   128
 71
   166
 72
   145
 73
   153
  0
VERTEX
  8
cheese
 10
0.0
 20
0.0
 30
0.0
 70
   128
 71
   167
 72
   155
 73
   168
  0
VERTEX
  8
cheese
 10
0.0
 20
0.0
 30
0.0
 70
   128
 71
   155
 72
   70
 73
   168
  0
VERTEX
  8
cheese
 10
0.0
 20
0.0
 30
0.0
 70
   128
 71
   164
 72
   62
 73
   78
  0
VERTEX
  8
cheese
 10
0.0
 20
0.0
 30
0.0
 70
   128
 71
   62
 72
   160
 73
   170
  0
VERTEX
  8
cheese
 10
0.0
 20
0.0
 30
0.0
 70
   128
 71
   170
 72
   165
 73
   171
  0
VERTEX
  8
cheese
 10
0.0
 20
0.0
 30
0.0
 70
   128
 71
   171
 72
   166
 73
   172
  0
VERTEX
  8
cheese
 10
0.0
 20
0.0
 30
0.0
 70
   128
 71
   172
 72
   153
 73
   167
  0
VERTEX
  8
cheese
 10
0.0
 20
0.0
 30
0.0
 70
   128
 71
   168
 72
   118
 73
   167
  0
VERTEX
  8
cheese
 10
0.0
 20
0.0
 30
0.0
 70
   128
 71
   120
 72
   57
 73
   59
  0
VERTEX
  8
cheese
 10
0.0
 20
0.0
 30
0.0
 70
   128
 71
   235
 72
   231
 73
   269
  0
VERTEX
  8
cheese
 10
0.0
 20
0.0
 30
0.0
 70
   128
 71
   269
 72
   232
 73
   270
  0
VERTEX
  8
cheese
 10
0.0
 20
0.0
 30
0.0
 70
   128
 71
   170
 72
   79
 73
   62
  0
VERTEX
  8
cheese
 10
0.0
 20
0.0
 30
0.0
 70
   128
 71
   270
 72
   233
 73
   271
  0
VERTEX
  8
cheese
 10
0.0
 20
0.0
 30
0.0
 70
   128
 71
   171
 72
   104
 73
   170
  0
VERTEX
  8
cheese
 10
0.0
 20
0.0
 30
0.0
 70
   128
 71
   172
 72
   128
 73
   171
  0
VERTEX
  8
cheese
 10
0.0
 20
0.0
 30
0.0
 70
   128
 71
   167
 72
   55
 73
   172
  0
VERTEX
  8
cheese
 10
0.0
 20
0.0
 30
0.0
 70
   128
 71
   146
 72
   188
 73
   56
  0
VERTEX
  8
cheese
 10
0.0
 20
0.0
 30
0.0
 70
   128
 71
   147
 72
   188
 73
   148
  0
VERTEX
  8
cheese
 10
0.0
 20
0.0
 30
0.0
 70
   128
 71
   184
 72
   176
 73
   186
  0
VERTEX
  8
cheese
 10
0.0
 20
0.0
 30
0.0
 70
   128
 71
   186
 72
   178
 73
   187
  0
VERTEX
  8
cheese
 10
0.0
 20
0.0
 30
0.0
 70
   128
 71
   178
 72
   175
 73
   187
  0
VERTEX
  8
cheese
 10
0.0
 20
0.0
 30
0.0
 70
   128
 71
   85
 72
   189
 73
   192
  0
VERTEX
  8
cheese
 10
0.0
 20
0.0
 30
0.0
 70
   128
 71
   189
 72
   180
 73
   190
  0
VERTEX
  8
cheese
 10
0.0
 20
0.0
 30
0.0
 70
   128
 71
   190
 72
   181
 73
   191
  0
VERTEX
  8
cheese
 10
0.0
 20
0.0
 30
0.0
 70
   128
 71
   191
 72
   183
 73
   194
  0
VERTEX
  8
cheese
 10
0.0
 20
0.0
 30
0.0
 70
   128
 71
   194
 72
   174
 73
   184
  0
VERTEX
  8
cheese
 10
0.0
 20
0.0
 30
0.0
 70
   128
 71
   184
 72
   75
 73
   66
  0
VERTEX
  8
cheese
 10
0.0
 20
0.0
 30
0.0
 70
   128
 71
   187
 72
   96
 73
   186
  0
VERTEX
  8
cheese
 10
0.0
 20
0.0
 30
0.0
 70
   128
 71
   186
 72
   63
 73
   73
  0
VERTEX
  8
cheese
 10
0.0
 20
0.0
 30
0.0
 70
   128
 71
   189
 72
   89
 73
   192
  0
VERTEX
  8
cheese
 10
0.0
 20
0.0
 30
0.0
 70
   128
 71
   87
 72
   190
 73
   71
  0
VERTEX
  8
cheese
 10
0.0
 20
0.0
 30
0.0
 70
   128
 71
   191
 72
   86
 73
   190
  0
VERTEX
  8
cheese
 10
0.0
 20
0.0
 30
0.0
 70
   128
 71
   191
 72
   95
 73
   69
  0
VERTEX
  8
cheese
 10
0.0
 20
0.0
 30
0.0
 70
   128
 71
   184
 72
   83
 73
   194
  0
VERTEX
  8
cheese
 10
0.0
 20
0.0
 30
0.0
 70
   128
 71
   178
 72
   77
 73
   80
  0
VERTEX
  8
cheese
 10
0.0
 20
0.0
 30
0.0
 70
   128
 71
   214
 72
   195
 73
   216
  0
VERTEX
  8
cheese
 10
0.0
 20
0.0
 30
0.0
 70
   128
 71
   216
 72
   196
 73
   217
  0
VERTEX
  8
cheese
 10
0.0
 20
0.0
 30
0.0
 70
   128
 71
   217
 72
   211
 73
   220
  0
VERTEX
  8
cheese
 10
0.0
 20
0.0
 30
0.0
 70
   128
 71
   220
 72
   212
 73
   221
  0
VERTEX
  8
cheese
 10
0.0
 20
0.0
 30
0.0
 70
   128
 71
   221
 72
   213
 73
   223
  0
VERTEX
  8
cheese
 10
0.0
 20
0.0
 30
0.0
 70
   128
 71
   223
 72
   100
 73
   102
  0
VERTEX
  8
cheese
 10
0.0
 20
0.0
 30
0.0
 70
   128
 71
   271
 72
   234
 73
   272
  0
VERTEX
  8
cheese
 10
0.0
 20
0.0
 30
0.0
 70
   128
 71
   216
 72
   185
 73
   214
  0
VERTEX
  8
cheese
 10
0.0
 20
0.0
 30
0.0
 70
   128
 71
   217
 72
   99
 73
   216
  0
VERTEX
  8
cheese
 10
0.0
 20
0.0
 30
0.0
 70
   128
 71
   220
 72
   115
 73
   217
  0
VERTEX
  8
cheese
 10
0.0
 20
0.0
 30
0.0
 70
   128
 71
   221
 72
   103
 73
   220
  0
VERTEX
  8
cheese
 10
0.0
 20
0.0
 30
0.0
 70
   128
 71
   116
 72
   223
 73
   91
  0
VERTEX
  8
cheese
 10
0.0
 20
0.0
 30
0.0
 70
   128
 71
   110
 72
   223
 73
   102
  0
VERTEX
  8
cheese
 10
0.0
 20
0.0
 30
0.0
 70
   128
 71
   273
 72
   269
 73
   274
  0
VERTEX
  8
cheese
 10
0.0
 20
0.0
 30
0.0
 70
   128
 71
   214
 72
   121
 73
   119
  0
VERTEX
  8
cheese
 10
0.0
 20
0.0
 30
0.0
 70
   128
 71
   274
 72
   270
 73
   275
  0
VERTEX
  8
cheese
 10
0.0
 20
0.0
 30
0.0
 70
   128
 71
   275
 72
   271
 73
   281
  0
VERTEX
  8
cheese
 10
0.0
 20
0.0
 30
0.0
 70
   128
 71
   281
 72
   272
 73
   284
  0
VERTEX
  8
cheese
 10
0.0
 20
0.0
 30
0.0
 70
   128
 71
   286
 72
   275
 73
   288
  0
VERTEX
  8
cheese
 10
0.0
 20
0.0
 30
0.0
 70
   128
 71
   288
 72
   281
 73
   289
  0
VERTEX
  8
cheese
 10
0.0
 20
0.0
 30
0.0
 70
   128
 71
   142
 72
   230
 73
   126
  0
VERTEX
  8
cheese
 10
0.0
 20
0.0
 30
0.0
 70
   128
 71
   231
 72
   123
 73
   226
  0
VERTEX
  8
cheese
 10
0.0
 20
0.0
 30
0.0
 70
   128
 71
   231
 72
   227
 73
   232
  0
VERTEX
  8
cheese
 10
0.0
 20
0.0
 30
0.0
 70
   128
 71
   232
 72
   229
 73
   233
  0
VERTEX
  8
cheese
 10
0.0
 20
0.0
 30
0.0
 70
   128
 71
   108
 72
   233
 73
   229
  0
SEQEND
  0
ENDSEC
  0
EOF
