999
FBX AutoCAD (*.DXF) exporter
  0
SECTION
  2
HEADER
  9
$ACADVER
  1
AC1008
  9
$UCSORG
 10
0.0
 20
0.0
 30
0.0
  9
$UCSXDIR
 10
1.0
 20
0.0
 30
0.0
  9
$TILEMODE
 70
   1
  9
$UCSYDIR
 10
0.0
 20
1.0
 30
0.0
  0
ENDSEC
  0
SECTION
  2
TABLES
  0
TABLE
  2
LTYPE
 70
   1
  0
LTYPE
  2
CONTINUOUS
 70
   64
  3
Solid line
 72
   65
 73
   0
 40
0.0
  0
ENDTAB
  0
TABLE
  2
LAYER
 70
   1
  0
LAYER
  2
pumpkin
 70
   0
 62
   250
  6
CONTINUOUS
  0
ENDTAB
  0
ENDSEC
  0
SECTION
  2
BLOCKS
  0
ENDSEC
  0
SECTION
  2
ENTITIES
  0
POLYLINE
  8
pumpkin
 66
   1
 10
0.0
 20
0.0
 30
0.0
 70
   64
 71
   141
 72
   278
  0
VERTEX
  8
pumpkin
 10
-48.644027
 20
117.739277
 30
-38.371919
 70
   192
  0
VERTEX
  8
pumpkin
 10
-1.498917
 20
170.870401
 30
23.882011
 70
   192
  0
VERTEX
  8
pumpkin
 10
-4.008973
 20
175.998292
 30
19.232926
 70
   192
  0
VERTEX
  8
pumpkin
 10
-10.365006
 20
178.726786
 30
16.759200
 70
   192
  0
VERTEX
  8
pumpkin
 10
-17.593429
 20
177.779190
 30
17.618316
 70
   192
  0
VERTEX
  8
pumpkin
 10
-22.311793
 20
173.598895
 30
21.408285
 70
   192
  0
VERTEX
  8
pumpkin
 10
-22.311793
 20
168.141907
 30
26.355738
 70
   192
  0
VERTEX
  8
pumpkin
 10
-17.593429
 20
163.961612
 30
30.145707
 70
   192
  0
VERTEX
  8
pumpkin
 10
-10.365006
 20
163.014016
 30
31.004823
 70
   192
  0
VERTEX
  8
pumpkin
 10
-4.008973
 20
165.742510
 30
28.531096
 70
   192
  0
VERTEX
  8
pumpkin
 10
6.452052
 20
133.863930
 30
1.302516
 70
   192
  0
VERTEX
  8
pumpkin
 10
4.644806
 20
134.405947
 30
-6.340753
 70
   192
  0
VERTEX
  8
pumpkin
 10
-1.677536
 20
136.302098
 30
-10.407652
 70
   192
  0
VERTEX
  8
pumpkin
 10
-9.478008
 20
138.641561
 30
-8.995233
 70
   192
  0
VERTEX
  8
pumpkin
 10
-15.133731
 20
140.337785
 30
-2.764383
 70
   192
  0
VERTEX
  8
pumpkin
 10
-16.091404
 20
140.625004
 30
5.369415
 70
   192
  0
VERTEX
  8
pumpkin
 10
-11.914752
 20
139.372372
 30
11.600265
 70
   192
  0
VERTEX
  8
pumpkin
 10
-4.457386
 20
137.135811
 30
13.012684
 70
   192
  0
VERTEX
  8
pumpkin
 10
2.832988
 20
134.949334
 30
8.945786
 70
   192
  0
VERTEX
  8
pumpkin
 10
-4.529204
 20
158.166219
 30
9.134150
 70
   192
  0
VERTEX
  8
pumpkin
 10
-6.253991
 20
159.550033
 30
3.088445
 70
   192
  0
VERTEX
  8
pumpkin
 10
-11.686789
 20
160.286345
 30
-0.128407
 70
   192
  0
VERTEX
  8
pumpkin
 10
-18.266620
 20
160.030626
 30
0.988794
 70
   192
  0
VERTEX
  8
pumpkin
 10
-22.920887
 20
158.902531
 30
5.917298
 70
   192
  0
VERTEX
  8
pumpkin
 10
-23.493279
 20
157.429907
 30
12.351002
 70
   192
  0
VERTEX
  8
pumpkin
 10
-19.717805
 20
156.301812
 30
17.279505
 70
   192
  0
VERTEX
  8
pumpkin
 10
-13.339239
 20
156.046093
 30
18.396706
 70
   192
  0
VERTEX
  8
pumpkin
 10
-7.333186
 20
156.782405
 30
15.179854
 70
   192
  0
VERTEX
  8
pumpkin
 10
16.077372
 20
111.395849
 30
0.102879
 70
   192
  0
VERTEX
  8
pumpkin
 10
-16.356491
 20
111.395849
 30
-5.240415
 70
   192
  0
VERTEX
  8
pumpkin
 10
12.822658
 20
111.395849
 30
-10.790602
 70
   192
  0
VERTEX
  8
pumpkin
 10
2.680834
 20
111.395849
 30
-16.567536
 70
   192
  0
VERTEX
  8
pumpkin
 10
0.921222
 20
111.395849
 30
16.818181
 70
   192
  0
VERTEX
  8
pumpkin
 10
11.366427
 20
111.395849
 30
10.995540
 70
   192
  0
VERTEX
  8
pumpkin
 10
-8.679299
 20
111.395849
 30
-14.273919
 70
   192
  0
VERTEX
  8
pumpkin
 10
-52.403879
 20
117.739277
 30
-24.339958
 70
   192
  0
VERTEX
  8
pumpkin
 10
-17.067564
 20
111.395849
 30
5.904550
 70
   192
  0
VERTEX
  8
pumpkin
 10
-10.298321
 20
111.395849
 30
14.818519
 70
   192
  0
VERTEX
  8
pumpkin
 10
-52.403879
 20
117.739277
 30
24.339958
 70
   192
  0
VERTEX
  8
pumpkin
 10
-48.644027
 20
117.739277
 30
38.371919
 70
   192
  0
VERTEX
  8
pumpkin
 10
-38.371919
 20
117.739277
 30
48.644027
 70
   192
  0
VERTEX
  8
pumpkin
 10
-18.936488
 20
111.395849
 30
18.936488
 70
   192
  0
VERTEX
  8
pumpkin
 10
18.936488
 20
111.395849
 30
18.936488
 70
   192
  0
VERTEX
  8
pumpkin
 10
18.936488
 20
111.395849
 30
-18.936488
 70
   192
  0
VERTEX
  8
pumpkin
 10
-16.795747
 20
111.395849
 30
6.304556
 70
   192
  0
VERTEX
  8
pumpkin
 10
-18.936488
 20
111.395849
 30
-18.936488
 70
   192
  0
VERTEX
  8
pumpkin
 10
-23.987205
 20
0.000000
 30
23.987205
 70
   192
  0
VERTEX
  8
pumpkin
 10
23.987205
 20
0.000000
 30
23.987205
 70
   192
  0
VERTEX
  8
pumpkin
 10
23.987205
 20
0.000000
 30
-23.987205
 70
   192
  0
VERTEX
  8
pumpkin
 10
-23.987205
 20
0.000000
 30
-23.987205
 70
   192
  0
VERTEX
  8
pumpkin
 10
-23.987205
 20
4.382315
 30
51.644403
 70
   192
  0
VERTEX
  8
pumpkin
 10
23.987205
 20
4.382315
 30
51.644403
 70
   192
  0
VERTEX
  8
pumpkin
 10
37.815804
 20
4.382315
 30
47.939041
 70
   192
  0
VERTEX
  8
pumpkin
 10
47.939041
 20
4.382315
 30
37.815804
 70
   192
  0
VERTEX
  8
pumpkin
 10
51.644403
 20
4.382315
 30
23.987205
 70
   192
  0
VERTEX
  8
pumpkin
 10
51.644403
 20
4.382315
 30
-23.987205
 70
   192
  0
VERTEX
  8
pumpkin
 10
47.939041
 20
4.382315
 30
-37.815804
 70
   192
  0
VERTEX
  8
pumpkin
 10
37.815804
 20
4.382315
 30
-47.939041
 70
   192
  0
VERTEX
  8
pumpkin
 10
23.987205
 20
4.382315
 30
-51.644403
 70
   192
  0
VERTEX
  8
pumpkin
 10
-23.987205
 20
4.382315
 30
-51.644403
 70
   192
  0
VERTEX
  8
pumpkin
 10
-37.815804
 20
4.382315
 30
-47.939041
 70
   192
  0
VERTEX
  8
pumpkin
 10
-47.939041
 20
4.382315
 30
-37.815804
 70
   192
  0
VERTEX
  8
pumpkin
 10
-51.644403
 20
4.382315
 30
-23.987205
 70
   192
  0
VERTEX
  8
pumpkin
 10
-51.644403
 20
4.382315
 30
23.987205
 70
   192
  0
VERTEX
  8
pumpkin
 10
-47.939041
 20
4.382315
 30
37.815804
 70
   192
  0
VERTEX
  8
pumpkin
 10
-37.815804
 20
4.382315
 30
47.939041
 70
   192
  0
VERTEX
  8
pumpkin
 10
-23.843282
 20
16.245634
 30
71.459531
 70
   192
  0
VERTEX
  8
pumpkin
 10
23.843282
 20
16.245634
 30
71.459531
 70
   192
  0
VERTEX
  8
pumpkin
 10
47.651407
 20
16.245634
 30
65.080163
 70
   192
  0
VERTEX
  8
pumpkin
 10
65.080163
 20
16.245634
 30
47.651407
 70
   192
  0
VERTEX
  8
pumpkin
 10
71.459531
 20
16.245634
 30
23.843282
 70
   192
  0
VERTEX
  8
pumpkin
 10
71.459531
 20
16.245634
 30
-23.843282
 70
   192
  0
VERTEX
  8
pumpkin
 10
65.080163
 20
16.245634
 30
-47.651407
 70
   192
  0
VERTEX
  8
pumpkin
 10
47.651407
 20
16.245634
 30
-65.080163
 70
   192
  0
VERTEX
  8
pumpkin
 10
23.843282
 20
16.245634
 30
-71.459531
 70
   192
  0
VERTEX
  8
pumpkin
 10
-23.843282
 20
16.245634
 30
-71.459531
 70
   192
  0
VERTEX
  8
pumpkin
 10
-47.651407
 20
16.245634
 30
-65.080163
 70
   192
  0
VERTEX
  8
pumpkin
 10
-65.080163
 20
16.245634
 30
-47.651407
 70
   192
  0
VERTEX
  8
pumpkin
 10
-71.459531
 20
16.245634
 30
-23.843282
 70
   192
  0
VERTEX
  8
pumpkin
 10
-71.459531
 20
16.245634
 30
23.843282
 70
   192
  0
VERTEX
  8
pumpkin
 10
-65.080163
 20
16.245634
 30
47.651407
 70
   192
  0
VERTEX
  8
pumpkin
 10
-47.651407
 20
16.245634
 30
65.080163
 70
   192
  0
VERTEX
  8
pumpkin
 10
-25.796828
 20
37.037153
 30
85.284206
 70
   192
  0
VERTEX
  8
pumpkin
 10
25.796828
 20
37.037153
 30
85.284206
 70
   192
  0
VERTEX
  8
pumpkin
 10
55.540517
 20
37.037153
 30
77.314409
 70
   192
  0
VERTEX
  8
pumpkin
 10
77.314409
 20
37.037153
 30
55.540517
 70
   192
  0
VERTEX
  8
pumpkin
 10
85.284206
 20
37.037153
 30
25.796828
 70
   192
  0
VERTEX
  8
pumpkin
 10
85.284206
 20
37.037153
 30
-25.796828
 70
   192
  0
VERTEX
  8
pumpkin
 10
77.314409
 20
37.037153
 30
-55.540517
 70
   192
  0
VERTEX
  8
pumpkin
 10
55.540517
 20
37.037153
 30
-77.314409
 70
   192
  0
VERTEX
  8
pumpkin
 10
25.796828
 20
37.037153
 30
-85.284206
 70
   192
  0
VERTEX
  8
pumpkin
 10
-25.796828
 20
37.037153
 30
-85.284206
 70
   192
  0
VERTEX
  8
pumpkin
 10
-55.540517
 20
37.037153
 30
-77.314409
 70
   192
  0
VERTEX
  8
pumpkin
 10
-77.314409
 20
37.037153
 30
-55.540517
 70
   192
  0
VERTEX
  8
pumpkin
 10
-85.284206
 20
37.037153
 30
-25.796828
 70
   192
  0
VERTEX
  8
pumpkin
 10
-85.284206
 20
37.037153
 30
25.796828
 70
   192
  0
VERTEX
  8
pumpkin
 10
-77.314409
 20
37.037153
 30
55.540517
 70
   192
  0
VERTEX
  8
pumpkin
 10
-55.540517
 20
37.037153
 30
77.314409
 70
   192
  0
VERTEX
  8
pumpkin
 10
-25.952544
 20
81.895602
 30
85.799000
 70
   192
  0
VERTEX
  8
pumpkin
 10
25.952544
 20
81.895602
 30
85.799000
 70
   192
  0
VERTEX
  8
pumpkin
 10
55.875772
 20
81.895602
 30
77.781095
 70
   192
  0
VERTEX
  8
pumpkin
 10
77.781095
 20
81.895602
 30
55.875772
 70
   192
  0
VERTEX
  8
pumpkin
 10
85.799000
 20
81.895602
 30
25.952544
 70
   192
  0
VERTEX
  8
pumpkin
 10
85.799000
 20
81.895602
 30
-25.952544
 70
   192
  0
VERTEX
  8
pumpkin
 10
77.781095
 20
81.895602
 30
-55.875772
 70
   192
  0
VERTEX
  8
pumpkin
 10
55.875772
 20
81.895602
 30
-77.781095
 70
   192
  0
VERTEX
  8
pumpkin
 10
25.952544
 20
81.895602
 30
-85.799000
 70
   192
  0
VERTEX
  8
pumpkin
 10
-25.952544
 20
81.895602
 30
-85.799000
 70
   192
  0
VERTEX
  8
pumpkin
 10
-55.875772
 20
81.895602
 30
-77.781095
 70
   192
  0
VERTEX
  8
pumpkin
 10
-77.781095
 20
81.895602
 30
-55.875772
 70
   192
  0
VERTEX
  8
pumpkin
 10
-85.799000
 20
81.895602
 30
-25.952544
 70
   192
  0
VERTEX
  8
pumpkin
 10
-85.799000
 20
81.895602
 30
25.952544
 70
   192
  0
VERTEX
  8
pumpkin
 10
-77.781095
 20
81.895602
 30
55.875772
 70
   192
  0
VERTEX
  8
pumpkin
 10
-55.875772
 20
81.895602
 30
77.781095
 70
   192
  0
VERTEX
  8
pumpkin
 10
-24.339958
 20
108.342098
 30
72.948095
 70
   192
  0
VERTEX
  8
pumpkin
 10
24.339958
 20
108.342098
 30
72.948095
 70
   192
  0
VERTEX
  8
pumpkin
 10
48.644027
 20
108.342098
 30
66.435840
 70
   192
  0
VERTEX
  8
pumpkin
 10
66.435840
 20
108.342098
 30
48.644027
 70
   192
  0
VERTEX
  8
pumpkin
 10
72.948095
 20
108.342098
 30
24.339958
 70
   192
  0
VERTEX
  8
pumpkin
 10
72.948095
 20
108.342098
 30
-24.339958
 70
   192
  0
VERTEX
  8
pumpkin
 10
66.435840
 20
108.342098
 30
-48.644027
 70
   192
  0
VERTEX
  8
pumpkin
 10
48.644027
 20
108.342098
 30
-66.435840
 70
   192
  0
VERTEX
  8
pumpkin
 10
24.339958
 20
108.342098
 30
-72.948095
 70
   192
  0
VERTEX
  8
pumpkin
 10
-24.339958
 20
108.342098
 30
-72.948095
 70
   192
  0
VERTEX
  8
pumpkin
 10
-48.644027
 20
108.342098
 30
-66.435840
 70
   192
  0
VERTEX
  8
pumpkin
 10
-66.435840
 20
108.342098
 30
-48.644027
 70
   192
  0
VERTEX
  8
pumpkin
 10
-72.948095
 20
108.342098
 30
-24.339958
 70
   192
  0
VERTEX
  8
pumpkin
 10
-72.948095
 20
108.342098
 30
24.339958
 70
   192
  0
VERTEX
  8
pumpkin
 10
-66.435840
 20
108.342098
 30
48.644027
 70
   192
  0
VERTEX
  8
pumpkin
 10
-48.644027
 20
108.342098
 30
66.435840
 70
   192
  0
VERTEX
  8
pumpkin
 10
-24.339958
 20
117.739277
 30
52.403879
 70
   192
  0
VERTEX
  8
pumpkin
 10
24.339958
 20
117.739277
 30
52.403879
 70
   192
  0
VERTEX
  8
pumpkin
 10
38.371919
 20
117.739277
 30
48.644027
 70
   192
  0
VERTEX
  8
pumpkin
 10
48.644027
 20
117.739277
 30
38.371919
 70
   192
  0
VERTEX
  8
pumpkin
 10
52.403879
 20
117.739277
 30
24.339958
 70
   192
  0
VERTEX
  8
pumpkin
 10
52.403879
 20
117.739277
 30
-24.339958
 70
   192
  0
VERTEX
  8
pumpkin
 10
48.644027
 20
117.739277
 30
-38.371919
 70
   192
  0
VERTEX
  8
pumpkin
 10
38.371919
 20
117.739277
 30
-48.644027
 70
   192
  0
VERTEX
  8
pumpkin
 10
24.339958
 20
117.739277
 30
-52.403879
 70
   192
  0
VERTEX
  8
pumpkin
 10
-24.339958
 20
117.739277
 30
-52.403879
 70
   192
  0
VERTEX
  8
pumpkin
 10
-38.371919
 20
117.739277
 30
-48.644027
 70
   192
  0
VERTEX
  8
pumpkin
 10
0.0
 20
0.0
 30
0.0
 70
   128
 71
   29
 72
   11
 73
   12
  0
VERTEX
  8
pumpkin
 10
0.0
 20
0.0
 30
0.0
 70
   128
 71
   43
 72
   42
 73
   33
  0
VERTEX
  8
pumpkin
 10
0.0
 20
0.0
 30
0.0
 70
   128
 71
   2
 72
   10
 73
   7
  0
VERTEX
  8
pumpkin
 10
0.0
 20
0.0
 30
0.0
 70
   128
 71
   21
 72
   3
 73
   4
  0
VERTEX
  8
pumpkin
 10
0.0
 20
0.0
 30
0.0
 70
   128
 71
   3
 72
   2
 73
   6
  0
VERTEX
  8
pumpkin
 10
0.0
 20
0.0
 30
0.0
 70
   128
 71
   32
 72
   13
 73
   14
  0
VERTEX
  8
pumpkin
 10
0.0
 20
0.0
 30
0.0
 70
   128
 71
   44
 72
   29
 73
   31
  0
VERTEX
  8
pumpkin
 10
0.0
 20
0.0
 30
0.0
 70
   128
 71
   10
 72
   9
 73
   8
  0
VERTEX
  8
pumpkin
 10
0.0
 20
0.0
 30
0.0
 70
   128
 71
   23
 72
   5
 73
   6
  0
VERTEX
  8
pumpkin
 10
0.0
 20
0.0
 30
0.0
 70
   128
 71
   5
 72
   4
 73
   3
  0
VERTEX
  8
pumpkin
 10
0.0
 20
0.0
 30
0.0
 70
   128
 71
   30
 72
   15
 73
   16
  0
VERTEX
  8
pumpkin
 10
0.0
 20
0.0
 30
0.0
 70
   128
 71
   44
 72
   32
 73
   46
  0
VERTEX
  8
pumpkin
 10
0.0
 20
0.0
 30
0.0
 70
   128
 71
   42
 72
   38
 73
   33
  0
VERTEX
  8
pumpkin
 10
0.0
 20
0.0
 30
0.0
 70
   128
 71
   25
 72
   7
 73
   8
  0
VERTEX
  8
pumpkin
 10
0.0
 20
0.0
 30
0.0
 70
   128
 71
   46
 72
   32
 73
   35
  0
VERTEX
  8
pumpkin
 10
0.0
 20
0.0
 30
0.0
 70
   128
 71
   42
 72
   37
 73
   45
  0
VERTEX
  8
pumpkin
 10
0.0
 20
0.0
 30
0.0
 70
   128
 71
   38
 72
   17
 73
   18
  0
VERTEX
  8
pumpkin
 10
0.0
 20
0.0
 30
0.0
 70
   128
 71
   44
 72
   43
 73
   29
  0
VERTEX
  8
pumpkin
 10
0.0
 20
0.0
 30
0.0
 70
   128
 71
   27
 72
   9
 73
   10
  0
VERTEX
  8
pumpkin
 10
0.0
 20
0.0
 30
0.0
 70
   128
 71
   47
 72
   48
 73
   49
  0
VERTEX
  8
pumpkin
 10
0.0
 20
0.0
 30
0.0
 70
   128
 71
   34
 72
   19
 73
   11
  0
VERTEX
  8
pumpkin
 10
0.0
 20
0.0
 30
0.0
 70
   128
 71
   43
 72
   33
 73
   34
  0
VERTEX
  8
pumpkin
 10
0.0
 20
0.0
 30
0.0
 70
   128
 71
   44
 72
   31
 73
   32
  0
VERTEX
  8
pumpkin
 10
0.0
 20
0.0
 30
0.0
 70
   128
 71
   11
 72
   20
 73
   21
  0
VERTEX
  8
pumpkin
 10
0.0
 20
0.0
 30
0.0
 70
   128
 71
   31
 72
   12
 73
   13
  0
VERTEX
  8
pumpkin
 10
0.0
 20
0.0
 30
0.0
 70
   128
 71
   43
 72
   34
 73
   29
  0
VERTEX
  8
pumpkin
 10
0.0
 20
0.0
 30
0.0
 70
   128
 71
   13
 72
   22
 73
   23
  0
VERTEX
  8
pumpkin
 10
0.0
 20
0.0
 30
0.0
 70
   128
 71
   35
 72
   14
 73
   15
  0
VERTEX
  8
pumpkin
 10
0.0
 20
0.0
 30
0.0
 70
   128
 71
   37
 72
   42
 73
   46
  0
VERTEX
  8
pumpkin
 10
0.0
 20
0.0
 30
0.0
 70
   128
 71
   15
 72
   24
 73
   25
  0
VERTEX
  8
pumpkin
 10
0.0
 20
0.0
 30
0.0
 70
   128
 71
   45
 72
   17
 73
   38
  0
VERTEX
  8
pumpkin
 10
0.0
 20
0.0
 30
0.0
 70
   128
 71
   45
 72
   37
 73
   16
  0
VERTEX
  8
pumpkin
 10
0.0
 20
0.0
 30
0.0
 70
   128
 71
   17
 72
   26
 73
   27
  0
VERTEX
  8
pumpkin
 10
0.0
 20
0.0
 30
0.0
 70
   128
 71
   46
 72
   35
 73
   30
  0
VERTEX
  8
pumpkin
 10
0.0
 20
0.0
 30
0.0
 70
   128
 71
   33
 72
   18
 73
   19
  0
VERTEX
  8
pumpkin
 10
0.0
 20
0.0
 30
0.0
 70
   128
 71
   19
 72
   28
 73
   20
  0
VERTEX
  8
pumpkin
 10
0.0
 20
0.0
 30
0.0
 70
   128
 71
   22
 72
   13
 73
   12
  0
VERTEX
  8
pumpkin
 10
0.0
 20
0.0
 30
0.0
 70
   128
 71
   24
 72
   15
 73
   14
  0
VERTEX
  8
pumpkin
 10
0.0
 20
0.0
 30
0.0
 70
   128
 71
   26
 72
   17
 73
   16
  0
VERTEX
  8
pumpkin
 10
0.0
 20
0.0
 30
0.0
 70
   128
 71
   28
 72
   19
 73
   18
  0
VERTEX
  8
pumpkin
 10
0.0
 20
0.0
 30
0.0
 70
   128
 71
   20
 72
   2
 73
   3
  0
VERTEX
  8
pumpkin
 10
0.0
 20
0.0
 30
0.0
 70
   128
 71
   22
 72
   4
 73
   5
  0
VERTEX
  8
pumpkin
 10
0.0
 20
0.0
 30
0.0
 70
   128
 71
   24
 72
   6
 73
   7
  0
VERTEX
  8
pumpkin
 10
0.0
 20
0.0
 30
0.0
 70
   128
 71
   26
 72
   8
 73
   9
  0
VERTEX
  8
pumpkin
 10
0.0
 20
0.0
 30
0.0
 70
   128
 71
   28
 72
   10
 73
   2
  0
VERTEX
  8
pumpkin
 10
0.0
 20
0.0
 30
0.0
 70
   128
 71
   47
 72
   51
 73
   52
  0
VERTEX
  8
pumpkin
 10
0.0
 20
0.0
 30
0.0
 70
   128
 71
   51
 72
   67
 73
   68
  0
VERTEX
  8
pumpkin
 10
0.0
 20
0.0
 30
0.0
 70
   128
 71
   67
 72
   83
 73
   84
  0
VERTEX
  8
pumpkin
 10
0.0
 20
0.0
 30
0.0
 70
   128
 71
   83
 72
   99
 73
   100
  0
VERTEX
  8
pumpkin
 10
0.0
 20
0.0
 30
0.0
 70
   128
 71
   99
 72
   115
 73
   116
  0
VERTEX
  8
pumpkin
 10
0.0
 20
0.0
 30
0.0
 70
   128
 71
   115
 72
   131
 73
   132
  0
VERTEX
  8
pumpkin
 10
0.0
 20
0.0
 30
0.0
 70
   128
 71
   131
 72
   42
 73
   43
  0
VERTEX
  8
pumpkin
 10
0.0
 20
0.0
 30
0.0
 70
   128
 71
   48
 72
   52
 73
   53
  0
VERTEX
  8
pumpkin
 10
0.0
 20
0.0
 30
0.0
 70
   128
 71
   52
 72
   68
 73
   69
  0
VERTEX
  8
pumpkin
 10
0.0
 20
0.0
 30
0.0
 70
   128
 71
   68
 72
   84
 73
   85
  0
VERTEX
  8
pumpkin
 10
0.0
 20
0.0
 30
0.0
 70
   128
 71
   84
 72
   100
 73
   101
  0
VERTEX
  8
pumpkin
 10
0.0
 20
0.0
 30
0.0
 70
   128
 71
   100
 72
   116
 73
   117
  0
VERTEX
  8
pumpkin
 10
0.0
 20
0.0
 30
0.0
 70
   128
 71
   116
 72
   132
 73
   133
  0
VERTEX
  8
pumpkin
 10
0.0
 20
0.0
 30
0.0
 70
   128
 71
   132
 72
   43
 73
   133
  0
VERTEX
  8
pumpkin
 10
0.0
 20
0.0
 30
0.0
 70
   128
 71
   48
 72
   53
 73
   54
  0
VERTEX
  8
pumpkin
 10
0.0
 20
0.0
 30
0.0
 70
   128
 71
   53
 72
   69
 73
   70
  0
VERTEX
  8
pumpkin
 10
0.0
 20
0.0
 30
0.0
 70
   128
 71
   69
 72
   85
 73
   86
  0
VERTEX
  8
pumpkin
 10
0.0
 20
0.0
 30
0.0
 70
   128
 71
   85
 72
   101
 73
   102
  0
VERTEX
  8
pumpkin
 10
0.0
 20
0.0
 30
0.0
 70
   128
 71
   101
 72
   117
 73
   118
  0
VERTEX
  8
pumpkin
 10
0.0
 20
0.0
 30
0.0
 70
   128
 71
   117
 72
   133
 73
   134
  0
VERTEX
  8
pumpkin
 10
0.0
 20
0.0
 30
0.0
 70
   128
 71
   133
 72
   43
 73
   134
  0
VERTEX
  8
pumpkin
 10
0.0
 20
0.0
 30
0.0
 70
   128
 71
   48
 72
   54
 73
   55
  0
VERTEX
  8
pumpkin
 10
0.0
 20
0.0
 30
0.0
 70
   128
 71
   54
 72
   70
 73
   71
  0
VERTEX
  8
pumpkin
 10
0.0
 20
0.0
 30
0.0
 70
   128
 71
   70
 72
   86
 73
   87
  0
VERTEX
  8
pumpkin
 10
0.0
 20
0.0
 30
0.0
 70
   128
 71
   86
 72
   102
 73
   103
  0
VERTEX
  8
pumpkin
 10
0.0
 20
0.0
 30
0.0
 70
   128
 71
   102
 72
   118
 73
   119
  0
VERTEX
  8
pumpkin
 10
0.0
 20
0.0
 30
0.0
 70
   128
 71
   118
 72
   134
 73
   135
  0
VERTEX
  8
pumpkin
 10
0.0
 20
0.0
 30
0.0
 70
   128
 71
   134
 72
   43
 73
   135
  0
VERTEX
  8
pumpkin
 10
0.0
 20
0.0
 30
0.0
 70
   128
 71
   48
 72
   55
 73
   56
  0
VERTEX
  8
pumpkin
 10
0.0
 20
0.0
 30
0.0
 70
   128
 71
   55
 72
   71
 73
   72
  0
VERTEX
  8
pumpkin
 10
0.0
 20
0.0
 30
0.0
 70
   128
 71
   71
 72
   87
 73
   88
  0
VERTEX
  8
pumpkin
 10
0.0
 20
0.0
 30
0.0
 70
   128
 71
   87
 72
   103
 73
   104
  0
VERTEX
  8
pumpkin
 10
0.0
 20
0.0
 30
0.0
 70
   128
 71
   103
 72
   119
 73
   120
  0
VERTEX
  8
pumpkin
 10
0.0
 20
0.0
 30
0.0
 70
   128
 71
   119
 72
   135
 73
   136
  0
VERTEX
  8
pumpkin
 10
0.0
 20
0.0
 30
0.0
 70
   128
 71
   135
 72
   43
 73
   44
  0
VERTEX
  8
pumpkin
 10
0.0
 20
0.0
 30
0.0
 70
   128
 71
   49
 72
   56
 73
   57
  0
VERTEX
  8
pumpkin
 10
0.0
 20
0.0
 30
0.0
 70
   128
 71
   56
 72
   72
 73
   73
  0
VERTEX
  8
pumpkin
 10
0.0
 20
0.0
 30
0.0
 70
   128
 71
   72
 72
   88
 73
   89
  0
VERTEX
  8
pumpkin
 10
0.0
 20
0.0
 30
0.0
 70
   128
 71
   88
 72
   104
 73
   105
  0
VERTEX
  8
pumpkin
 10
0.0
 20
0.0
 30
0.0
 70
   128
 71
   104
 72
   120
 73
   121
  0
VERTEX
  8
pumpkin
 10
0.0
 20
0.0
 30
0.0
 70
   128
 71
   120
 72
   136
 73
   137
  0
VERTEX
  8
pumpkin
 10
0.0
 20
0.0
 30
0.0
 70
   128
 71
   136
 72
   44
 73
   137
  0
VERTEX
  8
pumpkin
 10
0.0
 20
0.0
 30
0.0
 70
   128
 71
   49
 72
   57
 73
   58
  0
VERTEX
  8
pumpkin
 10
0.0
 20
0.0
 30
0.0
 70
   128
 71
   57
 72
   73
 73
   74
  0
VERTEX
  8
pumpkin
 10
0.0
 20
0.0
 30
0.0
 70
   128
 71
   73
 72
   89
 73
   90
  0
VERTEX
  8
pumpkin
 10
0.0
 20
0.0
 30
0.0
 70
   128
 71
   89
 72
   105
 73
   106
  0
VERTEX
  8
pumpkin
 10
0.0
 20
0.0
 30
0.0
 70
   128
 71
   105
 72
   121
 73
   122
  0
VERTEX
  8
pumpkin
 10
0.0
 20
0.0
 30
0.0
 70
   128
 71
   121
 72
   137
 73
   138
  0
VERTEX
  8
pumpkin
 10
0.0
 20
0.0
 30
0.0
 70
   128
 71
   137
 72
   44
 73
   138
  0
VERTEX
  8
pumpkin
 10
0.0
 20
0.0
 30
0.0
 70
   128
 71
   49
 72
   58
 73
   59
  0
VERTEX
  8
pumpkin
 10
0.0
 20
0.0
 30
0.0
 70
   128
 71
   58
 72
   74
 73
   75
  0
VERTEX
  8
pumpkin
 10
0.0
 20
0.0
 30
0.0
 70
   128
 71
   74
 72
   90
 73
   91
  0
VERTEX
  8
pumpkin
 10
0.0
 20
0.0
 30
0.0
 70
   128
 71
   90
 72
   106
 73
   107
  0
VERTEX
  8
pumpkin
 10
0.0
 20
0.0
 30
0.0
 70
   128
 71
   106
 72
   122
 73
   123
  0
VERTEX
  8
pumpkin
 10
0.0
 20
0.0
 30
0.0
 70
   128
 71
   122
 72
   138
 73
   139
  0
VERTEX
  8
pumpkin
 10
0.0
 20
0.0
 30
0.0
 70
   128
 71
   138
 72
   44
 73
   139
  0
VERTEX
  8
pumpkin
 10
0.0
 20
0.0
 30
0.0
 70
   128
 71
   49
 72
   59
 73
   60
  0
VERTEX
  8
pumpkin
 10
0.0
 20
0.0
 30
0.0
 70
   128
 71
   59
 72
   75
 73
   76
  0
VERTEX
  8
pumpkin
 10
0.0
 20
0.0
 30
0.0
 70
   128
 71
   75
 72
   91
 73
   92
  0
VERTEX
  8
pumpkin
 10
0.0
 20
0.0
 30
0.0
 70
   128
 71
   91
 72
   107
 73
   108
  0
VERTEX
  8
pumpkin
 10
0.0
 20
0.0
 30
0.0
 70
   128
 71
   107
 72
   123
 73
   124
  0
VERTEX
  8
pumpkin
 10
0.0
 20
0.0
 30
0.0
 70
   128
 71
   123
 72
   139
 73
   140
  0
VERTEX
  8
pumpkin
 10
0.0
 20
0.0
 30
0.0
 70
   128
 71
   139
 72
   44
 73
   46
  0
VERTEX
  8
pumpkin
 10
0.0
 20
0.0
 30
0.0
 70
   128
 71
   50
 72
   60
 73
   61
  0
VERTEX
  8
pumpkin
 10
0.0
 20
0.0
 30
0.0
 70
   128
 71
   60
 72
   76
 73
   77
  0
VERTEX
  8
pumpkin
 10
0.0
 20
0.0
 30
0.0
 70
   128
 71
   76
 72
   92
 73
   93
  0
VERTEX
  8
pumpkin
 10
0.0
 20
0.0
 30
0.0
 70
   128
 71
   92
 72
   108
 73
   109
  0
VERTEX
  8
pumpkin
 10
0.0
 20
0.0
 30
0.0
 70
   128
 71
   108
 72
   124
 73
   125
  0
VERTEX
  8
pumpkin
 10
0.0
 20
0.0
 30
0.0
 70
   128
 71
   124
 72
   140
 73
   141
  0
VERTEX
  8
pumpkin
 10
0.0
 20
0.0
 30
0.0
 70
   128
 71
   140
 72
   46
 73
   141
  0
VERTEX
  8
pumpkin
 10
0.0
 20
0.0
 30
0.0
 70
   128
 71
   50
 72
   61
 73
   62
  0
VERTEX
  8
pumpkin
 10
0.0
 20
0.0
 30
0.0
 70
   128
 71
   61
 72
   77
 73
   78
  0
VERTEX
  8
pumpkin
 10
0.0
 20
0.0
 30
0.0
 70
   128
 71
   77
 72
   93
 73
   94
  0
VERTEX
  8
pumpkin
 10
0.0
 20
0.0
 30
0.0
 70
   128
 71
   93
 72
   109
 73
   110
  0
VERTEX
  8
pumpkin
 10
0.0
 20
0.0
 30
0.0
 70
   128
 71
   109
 72
   125
 73
   126
  0
VERTEX
  8
pumpkin
 10
0.0
 20
0.0
 30
0.0
 70
   128
 71
   125
 72
   141
 73
   1
  0
VERTEX
  8
pumpkin
 10
0.0
 20
0.0
 30
0.0
 70
   128
 71
   141
 72
   46
 73
   1
  0
VERTEX
  8
pumpkin
 10
0.0
 20
0.0
 30
0.0
 70
   128
 71
   50
 72
   62
 73
   63
  0
VERTEX
  8
pumpkin
 10
0.0
 20
0.0
 30
0.0
 70
   128
 71
   62
 72
   78
 73
   79
  0
VERTEX
  8
pumpkin
 10
0.0
 20
0.0
 30
0.0
 70
   128
 71
   78
 72
   94
 73
   95
  0
VERTEX
  8
pumpkin
 10
0.0
 20
0.0
 30
0.0
 70
   128
 71
   94
 72
   110
 73
   111
  0
VERTEX
  8
pumpkin
 10
0.0
 20
0.0
 30
0.0
 70
   128
 71
   110
 72
   126
 73
   127
  0
VERTEX
  8
pumpkin
 10
0.0
 20
0.0
 30
0.0
 70
   128
 71
   126
 72
   1
 73
   36
  0
VERTEX
  8
pumpkin
 10
0.0
 20
0.0
 30
0.0
 70
   128
 71
   1
 72
   46
 73
   36
  0
VERTEX
  8
pumpkin
 10
0.0
 20
0.0
 30
0.0
 70
   128
 71
   50
 72
   63
 73
   64
  0
VERTEX
  8
pumpkin
 10
0.0
 20
0.0
 30
0.0
 70
   128
 71
   63
 72
   79
 73
   80
  0
VERTEX
  8
pumpkin
 10
0.0
 20
0.0
 30
0.0
 70
   128
 71
   79
 72
   95
 73
   96
  0
VERTEX
  8
pumpkin
 10
0.0
 20
0.0
 30
0.0
 70
   128
 71
   95
 72
   111
 73
   112
  0
VERTEX
  8
pumpkin
 10
0.0
 20
0.0
 30
0.0
 70
   128
 71
   111
 72
   127
 73
   128
  0
VERTEX
  8
pumpkin
 10
0.0
 20
0.0
 30
0.0
 70
   128
 71
   127
 72
   36
 73
   39
  0
VERTEX
  8
pumpkin
 10
0.0
 20
0.0
 30
0.0
 70
   128
 71
   36
 72
   46
 73
   42
  0
VERTEX
  8
pumpkin
 10
0.0
 20
0.0
 30
0.0
 70
   128
 71
   47
 72
   64
 73
   65
  0
VERTEX
  8
pumpkin
 10
0.0
 20
0.0
 30
0.0
 70
   128
 71
   64
 72
   80
 73
   81
  0
VERTEX
  8
pumpkin
 10
0.0
 20
0.0
 30
0.0
 70
   128
 71
   80
 72
   96
 73
   97
  0
VERTEX
  8
pumpkin
 10
0.0
 20
0.0
 30
0.0
 70
   128
 71
   96
 72
   112
 73
   113
  0
VERTEX
  8
pumpkin
 10
0.0
 20
0.0
 30
0.0
 70
   128
 71
   112
 72
   128
 73
   129
  0
VERTEX
  8
pumpkin
 10
0.0
 20
0.0
 30
0.0
 70
   128
 71
   128
 72
   39
 73
   40
  0
VERTEX
  8
pumpkin
 10
0.0
 20
0.0
 30
0.0
 70
   128
 71
   39
 72
   42
 73
   40
  0
VERTEX
  8
pumpkin
 10
0.0
 20
0.0
 30
0.0
 70
   128
 71
   47
 72
   65
 73
   66
  0
VERTEX
  8
pumpkin
 10
0.0
 20
0.0
 30
0.0
 70
   128
 71
   65
 72
   81
 73
   82
  0
VERTEX
  8
pumpkin
 10
0.0
 20
0.0
 30
0.0
 70
   128
 71
   81
 72
   97
 73
   98
  0
VERTEX
  8
pumpkin
 10
0.0
 20
0.0
 30
0.0
 70
   128
 71
   97
 72
   113
 73
   114
  0
VERTEX
  8
pumpkin
 10
0.0
 20
0.0
 30
0.0
 70
   128
 71
   113
 72
   129
 73
   130
  0
VERTEX
  8
pumpkin
 10
0.0
 20
0.0
 30
0.0
 70
   128
 71
   129
 72
   40
 73
   41
  0
VERTEX
  8
pumpkin
 10
0.0
 20
0.0
 30
0.0
 70
   128
 71
   40
 72
   42
 73
   41
  0
VERTEX
  8
pumpkin
 10
0.0
 20
0.0
 30
0.0
 70
   128
 71
   47
 72
   66
 73
   51
  0
VERTEX
  8
pumpkin
 10
0.0
 20
0.0
 30
0.0
 70
   128
 71
   66
 72
   82
 73
   67
  0
VERTEX
  8
pumpkin
 10
0.0
 20
0.0
 30
0.0
 70
   128
 71
   82
 72
   98
 73
   83
  0
VERTEX
  8
pumpkin
 10
0.0
 20
0.0
 30
0.0
 70
   128
 71
   98
 72
   114
 73
   99
  0
VERTEX
  8
pumpkin
 10
0.0
 20
0.0
 30
0.0
 70
   128
 71
   114
 72
   130
 73
   115
  0
VERTEX
  8
pumpkin
 10
0.0
 20
0.0
 30
0.0
 70
   128
 71
   130
 72
   41
 73
   131
  0
VERTEX
  8
pumpkin
 10
0.0
 20
0.0
 30
0.0
 70
   128
 71
   41
 72
   42
 73
   131
  0
VERTEX
  8
pumpkin
 10
0.0
 20
0.0
 30
0.0
 70
   128
 71
   42
 72
   45
 73
   38
  0
VERTEX
  8
pumpkin
 10
0.0
 20
0.0
 30
0.0
 70
   128
 71
   29
 72
   12
 73
   31
  0
VERTEX
  8
pumpkin
 10
0.0
 20
0.0
 30
0.0
 70
   128
 71
   2
 72
   7
 73
   6
  0
VERTEX
  8
pumpkin
 10
0.0
 20
0.0
 30
0.0
 70
   128
 71
   21
 72
   4
 73
   22
  0
VERTEX
  8
pumpkin
 10
0.0
 20
0.0
 30
0.0
 70
   128
 71
   3
 72
   6
 73
   5
  0
VERTEX
  8
pumpkin
 10
0.0
 20
0.0
 30
0.0
 70
   128
 71
   32
 72
   14
 73
   35
  0
VERTEX
  8
pumpkin
 10
0.0
 20
0.0
 30
0.0
 70
   128
 71
   10
 72
   8
 73
   7
  0
VERTEX
  8
pumpkin
 10
0.0
 20
0.0
 30
0.0
 70
   128
 71
   23
 72
   6
 73
   24
  0
VERTEX
  8
pumpkin
 10
0.0
 20
0.0
 30
0.0
 70
   128
 71
   30
 72
   16
 73
   37
  0
VERTEX
  8
pumpkin
 10
0.0
 20
0.0
 30
0.0
 70
   128
 71
   25
 72
   8
 73
   26
  0
VERTEX
  8
pumpkin
 10
0.0
 20
0.0
 30
0.0
 70
   128
 71
   38
 72
   18
 73
   33
  0
VERTEX
  8
pumpkin
 10
0.0
 20
0.0
 30
0.0
 70
   128
 71
   27
 72
   10
 73
   28
  0
VERTEX
  8
pumpkin
 10
0.0
 20
0.0
 30
0.0
 70
   128
 71
   47
 72
   49
 73
   50
  0
VERTEX
  8
pumpkin
 10
0.0
 20
0.0
 30
0.0
 70
   128
 71
   34
 72
   11
 73
   29
  0
VERTEX
  8
pumpkin
 10
0.0
 20
0.0
 30
0.0
 70
   128
 71
   11
 72
   21
 73
   12
  0
VERTEX
  8
pumpkin
 10
0.0
 20
0.0
 30
0.0
 70
   128
 71
   31
 72
   13
 73
   32
  0
VERTEX
  8
pumpkin
 10
0.0
 20
0.0
 30
0.0
 70
   128
 71
   13
 72
   23
 73
   14
  0
VERTEX
  8
pumpkin
 10
0.0
 20
0.0
 30
0.0
 70
   128
 71
   35
 72
   15
 73
   30
  0
VERTEX
  8
pumpkin
 10
0.0
 20
0.0
 30
0.0
 70
   128
 71
   37
 72
   46
 73
   30
  0
VERTEX
  8
pumpkin
 10
0.0
 20
0.0
 30
0.0
 70
   128
 71
   15
 72
   25
 73
   16
  0
VERTEX
  8
pumpkin
 10
0.0
 20
0.0
 30
0.0
 70
   128
 71
   45
 72
   16
 73
   17
  0
VERTEX
  8
pumpkin
 10
0.0
 20
0.0
 30
0.0
 70
   128
 71
   17
 72
   27
 73
   18
  0
VERTEX
  8
pumpkin
 10
0.0
 20
0.0
 30
0.0
 70
   128
 71
   33
 72
   19
 73
   34
  0
VERTEX
  8
pumpkin
 10
0.0
 20
0.0
 30
0.0
 70
   128
 71
   19
 72
   20
 73
   11
  0
VERTEX
  8
pumpkin
 10
0.0
 20
0.0
 30
0.0
 70
   128
 71
   22
 72
   12
 73
   21
  0
VERTEX
  8
pumpkin
 10
0.0
 20
0.0
 30
0.0
 70
   128
 71
   24
 72
   14
 73
   23
  0
VERTEX
  8
pumpkin
 10
0.0
 20
0.0
 30
0.0
 70
   128
 71
   26
 72
   16
 73
   25
  0
VERTEX
  8
pumpkin
 10
0.0
 20
0.0
 30
0.0
 70
   128
 71
   28
 72
   18
 73
   27
  0
VERTEX
  8
pumpkin
 10
0.0
 20
0.0
 30
0.0
 70
   128
 71
   20
 72
   3
 73
   21
  0
VERTEX
  8
pumpkin
 10
0.0
 20
0.0
 30
0.0
 70
   128
 71
   22
 72
   5
 73
   23
  0
VERTEX
  8
pumpkin
 10
0.0
 20
0.0
 30
0.0
 70
   128
 71
   24
 72
   7
 73
   25
  0
VERTEX
  8
pumpkin
 10
0.0
 20
0.0
 30
0.0
 70
   128
 71
   26
 72
   9
 73
   27
  0
VERTEX
  8
pumpkin
 10
0.0
 20
0.0
 30
0.0
 70
   128
 71
   28
 72
   2
 73
   20
  0
VERTEX
  8
pumpkin
 10
0.0
 20
0.0
 30
0.0
 70
   128
 71
   47
 72
   52
 73
   48
  0
VERTEX
  8
pumpkin
 10
0.0
 20
0.0
 30
0.0
 70
   128
 71
   51
 72
   68
 73
   52
  0
VERTEX
  8
pumpkin
 10
0.0
 20
0.0
 30
0.0
 70
   128
 71
   67
 72
   84
 73
   68
  0
VERTEX
  8
pumpkin
 10
0.0
 20
0.0
 30
0.0
 70
   128
 71
   83
 72
   100
 73
   84
  0
VERTEX
  8
pumpkin
 10
0.0
 20
0.0
 30
0.0
 70
   128
 71
   99
 72
   116
 73
   100
  0
VERTEX
  8
pumpkin
 10
0.0
 20
0.0
 30
0.0
 70
   128
 71
   115
 72
   132
 73
   116
  0
VERTEX
  8
pumpkin
 10
0.0
 20
0.0
 30
0.0
 70
   128
 71
   131
 72
   43
 73
   132
  0
VERTEX
  8
pumpkin
 10
0.0
 20
0.0
 30
0.0
 70
   128
 71
   52
 72
   69
 73
   53
  0
VERTEX
  8
pumpkin
 10
0.0
 20
0.0
 30
0.0
 70
   128
 71
   68
 72
   85
 73
   69
  0
VERTEX
  8
pumpkin
 10
0.0
 20
0.0
 30
0.0
 70
   128
 71
   84
 72
   101
 73
   85
  0
VERTEX
  8
pumpkin
 10
0.0
 20
0.0
 30
0.0
 70
   128
 71
   100
 72
   117
 73
   101
  0
VERTEX
  8
pumpkin
 10
0.0
 20
0.0
 30
0.0
 70
   128
 71
   116
 72
   133
 73
   117
  0
VERTEX
  8
pumpkin
 10
0.0
 20
0.0
 30
0.0
 70
   128
 71
   53
 72
   70
 73
   54
  0
VERTEX
  8
pumpkin
 10
0.0
 20
0.0
 30
0.0
 70
   128
 71
   69
 72
   86
 73
   70
  0
VERTEX
  8
pumpkin
 10
0.0
 20
0.0
 30
0.0
 70
   128
 71
   85
 72
   102
 73
   86
  0
VERTEX
  8
pumpkin
 10
0.0
 20
0.0
 30
0.0
 70
   128
 71
   101
 72
   118
 73
   102
  0
VERTEX
  8
pumpkin
 10
0.0
 20
0.0
 30
0.0
 70
   128
 71
   117
 72
   134
 73
   118
  0
VERTEX
  8
pumpkin
 10
0.0
 20
0.0
 30
0.0
 70
   128
 71
   54
 72
   71
 73
   55
  0
VERTEX
  8
pumpkin
 10
0.0
 20
0.0
 30
0.0
 70
   128
 71
   70
 72
   87
 73
   71
  0
VERTEX
  8
pumpkin
 10
0.0
 20
0.0
 30
0.0
 70
   128
 71
   86
 72
   103
 73
   87
  0
VERTEX
  8
pumpkin
 10
0.0
 20
0.0
 30
0.0
 70
   128
 71
   102
 72
   119
 73
   103
  0
VERTEX
  8
pumpkin
 10
0.0
 20
0.0
 30
0.0
 70
   128
 71
   118
 72
   135
 73
   119
  0
VERTEX
  8
pumpkin
 10
0.0
 20
0.0
 30
0.0
 70
   128
 71
   48
 72
   56
 73
   49
  0
VERTEX
  8
pumpkin
 10
0.0
 20
0.0
 30
0.0
 70
   128
 71
   55
 72
   72
 73
   56
  0
VERTEX
  8
pumpkin
 10
0.0
 20
0.0
 30
0.0
 70
   128
 71
   71
 72
   88
 73
   72
  0
VERTEX
  8
pumpkin
 10
0.0
 20
0.0
 30
0.0
 70
   128
 71
   87
 72
   104
 73
   88
  0
VERTEX
  8
pumpkin
 10
0.0
 20
0.0
 30
0.0
 70
   128
 71
   103
 72
   120
 73
   104
  0
VERTEX
  8
pumpkin
 10
0.0
 20
0.0
 30
0.0
 70
   128
 71
   119
 72
   136
 73
   120
  0
VERTEX
  8
pumpkin
 10
0.0
 20
0.0
 30
0.0
 70
   128
 71
   135
 72
   44
 73
   136
  0
VERTEX
  8
pumpkin
 10
0.0
 20
0.0
 30
0.0
 70
   128
 71
   56
 72
   73
 73
   57
  0
VERTEX
  8
pumpkin
 10
0.0
 20
0.0
 30
0.0
 70
   128
 71
   72
 72
   89
 73
   73
  0
VERTEX
  8
pumpkin
 10
0.0
 20
0.0
 30
0.0
 70
   128
 71
   88
 72
   105
 73
   89
  0
VERTEX
  8
pumpkin
 10
0.0
 20
0.0
 30
0.0
 70
   128
 71
   104
 72
   121
 73
   105
  0
VERTEX
  8
pumpkin
 10
0.0
 20
0.0
 30
0.0
 70
   128
 71
   120
 72
   137
 73
   121
  0
VERTEX
  8
pumpkin
 10
0.0
 20
0.0
 30
0.0
 70
   128
 71
   57
 72
   74
 73
   58
  0
VERTEX
  8
pumpkin
 10
0.0
 20
0.0
 30
0.0
 70
   128
 71
   73
 72
   90
 73
   74
  0
VERTEX
  8
pumpkin
 10
0.0
 20
0.0
 30
0.0
 70
   128
 71
   89
 72
   106
 73
   90
  0
VERTEX
  8
pumpkin
 10
0.0
 20
0.0
 30
0.0
 70
   128
 71
   105
 72
   122
 73
   106
  0
VERTEX
  8
pumpkin
 10
0.0
 20
0.0
 30
0.0
 70
   128
 71
   121
 72
   138
 73
   122
  0
VERTEX
  8
pumpkin
 10
0.0
 20
0.0
 30
0.0
 70
   128
 71
   58
 72
   75
 73
   59
  0
VERTEX
  8
pumpkin
 10
0.0
 20
0.0
 30
0.0
 70
   128
 71
   74
 72
   91
 73
   75
  0
VERTEX
  8
pumpkin
 10
0.0
 20
0.0
 30
0.0
 70
   128
 71
   90
 72
   107
 73
   91
  0
VERTEX
  8
pumpkin
 10
0.0
 20
0.0
 30
0.0
 70
   128
 71
   106
 72
   123
 73
   107
  0
VERTEX
  8
pumpkin
 10
0.0
 20
0.0
 30
0.0
 70
   128
 71
   122
 72
   139
 73
   123
  0
VERTEX
  8
pumpkin
 10
0.0
 20
0.0
 30
0.0
 70
   128
 71
   49
 72
   60
 73
   50
  0
VERTEX
  8
pumpkin
 10
0.0
 20
0.0
 30
0.0
 70
   128
 71
   59
 72
   76
 73
   60
  0
VERTEX
  8
pumpkin
 10
0.0
 20
0.0
 30
0.0
 70
   128
 71
   75
 72
   92
 73
   76
  0
VERTEX
  8
pumpkin
 10
0.0
 20
0.0
 30
0.0
 70
   128
 71
   91
 72
   108
 73
   92
  0
VERTEX
  8
pumpkin
 10
0.0
 20
0.0
 30
0.0
 70
   128
 71
   107
 72
   124
 73
   108
  0
VERTEX
  8
pumpkin
 10
0.0
 20
0.0
 30
0.0
 70
   128
 71
   123
 72
   140
 73
   124
  0
VERTEX
  8
pumpkin
 10
0.0
 20
0.0
 30
0.0
 70
   128
 71
   139
 72
   46
 73
   140
  0
VERTEX
  8
pumpkin
 10
0.0
 20
0.0
 30
0.0
 70
   128
 71
   60
 72
   77
 73
   61
  0
VERTEX
  8
pumpkin
 10
0.0
 20
0.0
 30
0.0
 70
   128
 71
   76
 72
   93
 73
   77
  0
VERTEX
  8
pumpkin
 10
0.0
 20
0.0
 30
0.0
 70
   128
 71
   92
 72
   109
 73
   93
  0
VERTEX
  8
pumpkin
 10
0.0
 20
0.0
 30
0.0
 70
   128
 71
   108
 72
   125
 73
   109
  0
VERTEX
  8
pumpkin
 10
0.0
 20
0.0
 30
0.0
 70
   128
 71
   124
 72
   141
 73
   125
  0
VERTEX
  8
pumpkin
 10
0.0
 20
0.0
 30
0.0
 70
   128
 71
   61
 72
   78
 73
   62
  0
VERTEX
  8
pumpkin
 10
0.0
 20
0.0
 30
0.0
 70
   128
 71
   77
 72
   94
 73
   78
  0
VERTEX
  8
pumpkin
 10
0.0
 20
0.0
 30
0.0
 70
   128
 71
   93
 72
   110
 73
   94
  0
VERTEX
  8
pumpkin
 10
0.0
 20
0.0
 30
0.0
 70
   128
 71
   109
 72
   126
 73
   110
  0
VERTEX
  8
pumpkin
 10
0.0
 20
0.0
 30
0.0
 70
   128
 71
   125
 72
   1
 73
   126
  0
VERTEX
  8
pumpkin
 10
0.0
 20
0.0
 30
0.0
 70
   128
 71
   62
 72
   79
 73
   63
  0
VERTEX
  8
pumpkin
 10
0.0
 20
0.0
 30
0.0
 70
   128
 71
   78
 72
   95
 73
   79
  0
VERTEX
  8
pumpkin
 10
0.0
 20
0.0
 30
0.0
 70
   128
 71
   94
 72
   111
 73
   95
  0
VERTEX
  8
pumpkin
 10
0.0
 20
0.0
 30
0.0
 70
   128
 71
   110
 72
   127
 73
   111
  0
VERTEX
  8
pumpkin
 10
0.0
 20
0.0
 30
0.0
 70
   128
 71
   126
 72
   36
 73
   127
  0
VERTEX
  8
pumpkin
 10
0.0
 20
0.0
 30
0.0
 70
   128
 71
   50
 72
   64
 73
   47
  0
VERTEX
  8
pumpkin
 10
0.0
 20
0.0
 30
0.0
 70
   128
 71
   63
 72
   80
 73
   64
  0
VERTEX
  8
pumpkin
 10
0.0
 20
0.0
 30
0.0
 70
   128
 71
   79
 72
   96
 73
   80
  0
VERTEX
  8
pumpkin
 10
0.0
 20
0.0
 30
0.0
 70
   128
 71
   95
 72
   112
 73
   96
  0
VERTEX
  8
pumpkin
 10
0.0
 20
0.0
 30
0.0
 70
   128
 71
   111
 72
   128
 73
   112
  0
VERTEX
  8
pumpkin
 10
0.0
 20
0.0
 30
0.0
 70
   128
 71
   127
 72
   39
 73
   128
  0
VERTEX
  8
pumpkin
 10
0.0
 20
0.0
 30
0.0
 70
   128
 71
   36
 72
   42
 73
   39
  0
VERTEX
  8
pumpkin
 10
0.0
 20
0.0
 30
0.0
 70
   128
 71
   64
 72
   81
 73
   65
  0
VERTEX
  8
pumpkin
 10
0.0
 20
0.0
 30
0.0
 70
   128
 71
   80
 72
   97
 73
   81
  0
VERTEX
  8
pumpkin
 10
0.0
 20
0.0
 30
0.0
 70
   128
 71
   96
 72
   113
 73
   97
  0
VERTEX
  8
pumpkin
 10
0.0
 20
0.0
 30
0.0
 70
   128
 71
   112
 72
   129
 73
   113
  0
VERTEX
  8
pumpkin
 10
0.0
 20
0.0
 30
0.0
 70
   128
 71
   128
 72
   40
 73
   129
  0
VERTEX
  8
pumpkin
 10
0.0
 20
0.0
 30
0.0
 70
   128
 71
   65
 72
   82
 73
   66
  0
VERTEX
  8
pumpkin
 10
0.0
 20
0.0
 30
0.0
 70
   128
 71
   81
 72
   98
 73
   82
  0
VERTEX
  8
pumpkin
 10
0.0
 20
0.0
 30
0.0
 70
   128
 71
   97
 72
   114
 73
   98
  0
VERTEX
  8
pumpkin
 10
0.0
 20
0.0
 30
0.0
 70
   128
 71
   113
 72
   130
 73
   114
  0
VERTEX
  8
pumpkin
 10
0.0
 20
0.0
 30
0.0
 70
   128
 71
   129
 72
   41
 73
   130
  0
VERTEX
  8
pumpkin
 10
0.0
 20
0.0
 30
0.0
 70
   128
 71
   66
 72
   67
 73
   51
  0
VERTEX
  8
pumpkin
 10
0.0
 20
0.0
 30
0.0
 70
   128
 71
   82
 72
   83
 73
   67
  0
VERTEX
  8
pumpkin
 10
0.0
 20
0.0
 30
0.0
 70
   128
 71
   98
 72
   99
 73
   83
  0
VERTEX
  8
pumpkin
 10
0.0
 20
0.0
 30
0.0
 70
   128
 71
   114
 72
   115
 73
   99
  0
VERTEX
  8
pumpkin
 10
0.0
 20
0.0
 30
0.0
 70
   128
 71
   130
 72
   131
 73
   115
  0
SEQEND
  0
ENDSEC
  0
EOF
