999
FBX AutoCAD (*.DXF) exporter
  0
SECTION
  2
HEADER
  9
$ACADVER
  1
AC1008
  9
$UCSORG
 10
0.0
 20
0.0
 30
0.0
  9
$UCSXDIR
 10
1.0
 20
0.0
 30
0.0
  9
$TILEMODE
 70
   1
  9
$UCSYDIR
 10
0.0
 20
1.0
 30
0.0
  0
ENDSEC
  0
SECTION
  2
TABLES
  0
TABLE
  2
LTYPE
 70
   1
  0
LTYPE
  2
CONTINUOUS
 70
   64
  3
Solid line
 72
   65
 73
   0
 40
0.0
  0
ENDTAB
  0
TABLE
  2
LAYER
 70
   3
  0
LAYER
  2
milkCartonBig_2
 70
   0
 62
   250
  6
CONTINUOUS
  0
LAYER
  2
cap
 70
   0
 62
   250
  6
CONTINUOUS
  0
ENDTAB
  0
ENDSEC
  0
SECTION
  2
BLOCKS
  0
ENDSEC
  0
SECTION
  2
ENTITIES
  0
POLYLINE
  8
milkCartonBig_2
 66
   1
 10
0.0
 20
0.0
 30
0.0
 70
   64
 71
   16
 72
   28
  0
VERTEX
  8
milkCartonBig_2
 10
-45.266788
 20
0.000000
 30
46.461118
 70
   192
  0
VERTEX
  8
milkCartonBig_2
 10
-45.266788
 20
138.328702
 30
46.461118
 70
   192
  0
VERTEX
  8
milkCartonBig_2
 10
45.266788
 20
0.000000
 30
46.461118
 70
   192
  0
VERTEX
  8
milkCartonBig_2
 10
45.266788
 20
138.328702
 30
46.461118
 70
   192
  0
VERTEX
  8
milkCartonBig_2
 10
45.266788
 20
0.000000
 30
-46.461118
 70
   192
  0
VERTEX
  8
milkCartonBig_2
 10
45.266788
 20
138.328702
 30
-46.461118
 70
   192
  0
VERTEX
  8
milkCartonBig_2
 10
-45.266788
 20
0.000000
 30
-46.461118
 70
   192
  0
VERTEX
  8
milkCartonBig_2
 10
-45.266788
 20
138.328702
 30
-46.461118
 70
   192
  0
VERTEX
  8
milkCartonBig_2
 10
45.266788
 20
182.734960
 30
-5.092510
 70
   192
  0
VERTEX
  8
milkCartonBig_2
 10
-45.266788
 20
182.734960
 30
-5.092510
 70
   192
  0
VERTEX
  8
milkCartonBig_2
 10
-45.266788
 20
164.409175
 30
4.819959
 70
   192
  0
VERTEX
  8
milkCartonBig_2
 10
45.266788
 20
164.409175
 30
4.819959
 70
   192
  0
VERTEX
  8
milkCartonBig_2
 10
45.266788
 20
164.183650
 30
-5.180041
 70
   192
  0
VERTEX
  8
milkCartonBig_2
 10
-45.266788
 20
164.183650
 30
-5.180041
 70
   192
  0
VERTEX
  8
milkCartonBig_2
 10
-45.266788
 20
182.734960
 30
4.732428
 70
   192
  0
VERTEX
  8
milkCartonBig_2
 10
45.266788
 20
182.734960
 30
4.732428
 70
   192
  0
VERTEX
  8
milkCartonBig_2
 10
0.0
 20
0.0
 30
0.0
 70
   128
 71
   4
 72
   2
 73
   11
  0
VERTEX
  8
milkCartonBig_2
 10
0.0
 20
0.0
 30
0.0
 70
   128
 71
   12
 72
   16
 73
   9
  0
VERTEX
  8
milkCartonBig_2
 10
0.0
 20
0.0
 30
0.0
 70
   128
 71
   5
 72
   6
 73
   8
  0
VERTEX
  8
milkCartonBig_2
 10
0.0
 20
0.0
 30
0.0
 70
   128
 71
   2
 72
   8
 73
   14
  0
VERTEX
  8
milkCartonBig_2
 10
0.0
 20
0.0
 30
0.0
 70
   128
 71
   1
 72
   2
 73
   4
  0
VERTEX
  8
milkCartonBig_2
 10
0.0
 20
0.0
 30
0.0
 70
   128
 71
   7
 72
   1
 73
   3
  0
VERTEX
  8
milkCartonBig_2
 10
0.0
 20
0.0
 30
0.0
 70
   128
 71
   4
 72
   12
 73
   13
  0
VERTEX
  8
milkCartonBig_2
 10
0.0
 20
0.0
 30
0.0
 70
   128
 71
   7
 72
   8
 73
   2
  0
VERTEX
  8
milkCartonBig_2
 10
0.0
 20
0.0
 30
0.0
 70
   128
 71
   14
 72
   8
 73
   6
  0
VERTEX
  8
milkCartonBig_2
 10
0.0
 20
0.0
 30
0.0
 70
   128
 71
   3
 72
   4
 73
   6
  0
VERTEX
  8
milkCartonBig_2
 10
0.0
 20
0.0
 30
0.0
 70
   128
 71
   14
 72
   10
 73
   15
  0
VERTEX
  8
milkCartonBig_2
 10
0.0
 20
0.0
 30
0.0
 70
   128
 71
   15
 72
   10
 73
   9
  0
VERTEX
  8
milkCartonBig_2
 10
0.0
 20
0.0
 30
0.0
 70
   128
 71
   13
 72
   9
 73
   10
  0
VERTEX
  8
milkCartonBig_2
 10
0.0
 20
0.0
 30
0.0
 70
   128
 71
   11
 72
   15
 73
   16
  0
VERTEX
  8
milkCartonBig_2
 10
0.0
 20
0.0
 30
0.0
 70
   128
 71
   4
 72
   11
 73
   12
  0
VERTEX
  8
milkCartonBig_2
 10
0.0
 20
0.0
 30
0.0
 70
   128
 71
   12
 72
   9
 73
   13
  0
VERTEX
  8
milkCartonBig_2
 10
0.0
 20
0.0
 30
0.0
 70
   128
 71
   5
 72
   8
 73
   7
  0
VERTEX
  8
milkCartonBig_2
 10
0.0
 20
0.0
 30
0.0
 70
   128
 71
   2
 72
   14
 73
   11
  0
VERTEX
  8
milkCartonBig_2
 10
0.0
 20
0.0
 30
0.0
 70
   128
 71
   1
 72
   4
 73
   3
  0
VERTEX
  8
milkCartonBig_2
 10
0.0
 20
0.0
 30
0.0
 70
   128
 71
   7
 72
   3
 73
   5
  0
VERTEX
  8
milkCartonBig_2
 10
0.0
 20
0.0
 30
0.0
 70
   128
 71
   4
 72
   13
 73
   6
  0
VERTEX
  8
milkCartonBig_2
 10
0.0
 20
0.0
 30
0.0
 70
   128
 71
   7
 72
   2
 73
   1
  0
VERTEX
  8
milkCartonBig_2
 10
0.0
 20
0.0
 30
0.0
 70
   128
 71
   14
 72
   6
 73
   13
  0
VERTEX
  8
milkCartonBig_2
 10
0.0
 20
0.0
 30
0.0
 70
   128
 71
   3
 72
   6
 73
   5
  0
VERTEX
  8
milkCartonBig_2
 10
0.0
 20
0.0
 30
0.0
 70
   128
 71
   14
 72
   15
 73
   11
  0
VERTEX
  8
milkCartonBig_2
 10
0.0
 20
0.0
 30
0.0
 70
   128
 71
   15
 72
   9
 73
   16
  0
VERTEX
  8
milkCartonBig_2
 10
0.0
 20
0.0
 30
0.0
 70
   128
 71
   13
 72
   10
 73
   14
  0
VERTEX
  8
milkCartonBig_2
 10
0.0
 20
0.0
 30
0.0
 70
   128
 71
   11
 72
   16
 73
   12
  0
SEQEND
  0
POLYLINE
  8
cap
 66
   1
 10
0.0
 20
0.0
 30
0.0
 70
   64
 71
   18
 72
   32
  0
VERTEX
  8
cap
 10
10.494349
 20
146.696967
 30
30.527394
 70
   192
  0
VERTEX
  8
cap
 10
10.494349
 20
157.089861
 30
37.087778
 70
   192
  0
VERTEX
  8
cap
 10
13.699400
 20
151.397387
 30
23.081036
 70
   192
  0
VERTEX
  8
cap
 10
13.699400
 20
161.790281
 30
29.641420
 70
   192
  0
VERTEX
  8
cap
 10
10.494349
 20
156.097807
 30
15.634678
 70
   192
  0
VERTEX
  8
cap
 10
10.494349
 20
166.490701
 30
22.195062
 70
   192
  0
VERTEX
  8
cap
 10
2.378876
 20
158.598848
 30
11.672554
 70
   192
  0
VERTEX
  8
cap
 10
2.378876
 20
168.991742
 30
18.232938
 70
   192
  0
VERTEX
  8
cap
 10
-6.849700
 20
157.730246
 30
13.048585
 70
   192
  0
VERTEX
  8
cap
 10
-6.849700
 20
168.123139
 30
19.608969
 70
   192
  0
VERTEX
  8
cap
 10
-12.873225
 20
153.898428
 30
19.118912
 70
   192
  0
VERTEX
  8
cap
 10
-12.873225
 20
164.291322
 30
25.679295
 70
   192
  0
VERTEX
  8
cap
 10
-12.873225
 20
148.896346
 30
27.043160
 70
   192
  0
VERTEX
  8
cap
 10
-12.873225
 20
159.289239
 30
33.603544
 70
   192
  0
VERTEX
  8
cap
 10
-6.849700
 20
145.064528
 30
33.113487
 70
   192
  0
VERTEX
  8
cap
 10
-6.849700
 20
155.457422
 30
39.673871
 70
   192
  0
VERTEX
  8
cap
 10
2.378876
 20
144.195926
 30
34.489518
 70
   192
  0
VERTEX
  8
cap
 10
2.378876
 20
154.588819
 30
41.049902
 70
   192
  0
VERTEX
  8
cap
 10
0.0
 20
0.0
 30
0.0
 70
   128
 71
   1
 72
   3
 73
   5
  0
VERTEX
  8
cap
 10
0.0
 20
0.0
 30
0.0
 70
   128
 71
   3
 72
   4
 73
   6
  0
VERTEX
  8
cap
 10
0.0
 20
0.0
 30
0.0
 70
   128
 71
   4
 72
   2
 73
   6
  0
VERTEX
  8
cap
 10
0.0
 20
0.0
 30
0.0
 70
   128
 71
   17
 72
   1
 73
   5
  0
VERTEX
  8
cap
 10
0.0
 20
0.0
 30
0.0
 70
   128
 71
   5
 72
   6
 73
   8
  0
VERTEX
  8
cap
 10
0.0
 20
0.0
 30
0.0
 70
   128
 71
   6
 72
   2
 73
   14
  0
VERTEX
  8
cap
 10
0.0
 20
0.0
 30
0.0
 70
   128
 71
   11
 72
   5
 73
   7
  0
VERTEX
  8
cap
 10
0.0
 20
0.0
 30
0.0
 70
   128
 71
   7
 72
   8
 73
   10
  0
VERTEX
  8
cap
 10
0.0
 20
0.0
 30
0.0
 70
   128
 71
   14
 72
   2
 73
   18
  0
VERTEX
  8
cap
 10
0.0
 20
0.0
 30
0.0
 70
   128
 71
   17
 72
   11
 73
   13
  0
VERTEX
  8
cap
 10
0.0
 20
0.0
 30
0.0
 70
   128
 71
   9
 72
   10
 73
   12
  0
VERTEX
  8
cap
 10
0.0
 20
0.0
 30
0.0
 70
   128
 71
   14
 72
   12
 73
   10
  0
VERTEX
  8
cap
 10
0.0
 20
0.0
 30
0.0
 70
   128
 71
   15
 72
   16
 73
   18
  0
VERTEX
  8
cap
 10
0.0
 20
0.0
 30
0.0
 70
   128
 71
   11
 72
   12
 73
   14
  0
VERTEX
  8
cap
 10
0.0
 20
0.0
 30
0.0
 70
   128
 71
   10
 72
   8
 73
   6
  0
VERTEX
  8
cap
 10
0.0
 20
0.0
 30
0.0
 70
   128
 71
   17
 72
   18
 73
   2
  0
VERTEX
  8
cap
 10
0.0
 20
0.0
 30
0.0
 70
   128
 71
   13
 72
   14
 73
   16
  0
VERTEX
  8
cap
 10
0.0
 20
0.0
 30
0.0
 70
   128
 71
   1
 72
   2
 73
   4
  0
VERTEX
  8
cap
 10
0.0
 20
0.0
 30
0.0
 70
   128
 71
   3
 72
   6
 73
   5
  0
VERTEX
  8
cap
 10
0.0
 20
0.0
 30
0.0
 70
   128
 71
   17
 72
   5
 73
   11
  0
VERTEX
  8
cap
 10
0.0
 20
0.0
 30
0.0
 70
   128
 71
   5
 72
   8
 73
   7
  0
VERTEX
  8
cap
 10
0.0
 20
0.0
 30
0.0
 70
   128
 71
   6
 72
   14
 73
   10
  0
VERTEX
  8
cap
 10
0.0
 20
0.0
 30
0.0
 70
   128
 71
   11
 72
   7
 73
   9
  0
VERTEX
  8
cap
 10
0.0
 20
0.0
 30
0.0
 70
   128
 71
   7
 72
   10
 73
   9
  0
VERTEX
  8
cap
 10
0.0
 20
0.0
 30
0.0
 70
   128
 71
   14
 72
   18
 73
   16
  0
VERTEX
  8
cap
 10
0.0
 20
0.0
 30
0.0
 70
   128
 71
   17
 72
   13
 73
   15
  0
VERTEX
  8
cap
 10
0.0
 20
0.0
 30
0.0
 70
   128
 71
   9
 72
   12
 73
   11
  0
VERTEX
  8
cap
 10
0.0
 20
0.0
 30
0.0
 70
   128
 71
   15
 72
   18
 73
   17
  0
VERTEX
  8
cap
 10
0.0
 20
0.0
 30
0.0
 70
   128
 71
   11
 72
   14
 73
   13
  0
VERTEX
  8
cap
 10
0.0
 20
0.0
 30
0.0
 70
   128
 71
   17
 72
   2
 73
   1
  0
VERTEX
  8
cap
 10
0.0
 20
0.0
 30
0.0
 70
   128
 71
   13
 72
   16
 73
   15
  0
VERTEX
  8
cap
 10
0.0
 20
0.0
 30
0.0
 70
   128
 71
   1
 72
   4
 73
   3
  0
SEQEND
  0
ENDSEC
  0
EOF
