999
FBX AutoCAD (*.DXF) exporter
  0
SECTION
  2
HEADER
  9
$ACADVER
  1
AC1008
  9
$UCSORG
 10
0.0
 20
0.0
 30
0.0
  9
$UCSXDIR
 10
1.0
 20
0.0
 30
0.0
  9
$TILEMODE
 70
   1
  9
$UCSYDIR
 10
0.0
 20
1.0
 30
0.0
  0
ENDSEC
  0
SECTION
  2
TABLES
  0
TABLE
  2
LTYPE
 70
   1
  0
LTYPE
  2
CONTINUOUS
 70
   64
  3
Solid line
 72
   65
 73
   0
 40
0.0
  0
ENDTAB
  0
TABLE
  2
LAYER
 70
   1
  0
LAYER
  2
bowl02
 70
   0
 62
   250
  6
CONTINUOUS
  0
ENDTAB
  0
ENDSEC
  0
SECTION
  2
BLOCKS
  0
ENDSEC
  0
SECTION
  2
ENTITIES
  0
POLYLINE
  8
bowl02
 66
   1
 10
0.0
 20
0.0
 30
0.0
 70
   64
 71
   143
 72
   282
  0
VERTEX
  8
bowl02
 10
36.813482
 20
10.097512
 30
0.000000
 70
   192
  0
VERTEX
  8
bowl02
 10
49.751405
 20
16.285215
 30
0.000000
 70
   192
  0
VERTEX
  8
bowl02
 10
52.778846
 20
29.325793
 30
-0.000000
 70
   192
  0
VERTEX
  8
bowl02
 10
51.071802
 20
50.311346
 30
0.000000
 70
   192
  0
VERTEX
  8
bowl02
 10
42.863601
 20
58.700653
 30
-0.000000
 70
   192
  0
VERTEX
  8
bowl02
 10
42.259409
 20
63.131395
 30
-0.000000
 70
   192
  0
VERTEX
  8
bowl02
 10
45.243736
 20
65.517607
 30
-0.000000
 70
   192
  0
VERTEX
  8
bowl02
 10
49.112996
 20
62.615662
 30
-0.000000
 70
   192
  0
VERTEX
  8
bowl02
 10
59.433871
 20
50.455020
 30
0.000000
 70
   192
  0
VERTEX
  8
bowl02
 10
62.587449
 20
32.994223
 30
-0.000000
 70
   192
  0
VERTEX
  8
bowl02
 10
54.532812
 20
9.456251
 30
0.000000
 70
   192
  0
VERTEX
  8
bowl02
 10
40.348436
 20
2.026339
 30
0.000000
 70
   192
  0
VERTEX
  8
bowl02
 10
16.707810
 20
0.000000
 30
0.000000
 70
   192
  0
VERTEX
  8
bowl02
 10
30.969472
 20
10.097512
 30
-19.902871
 70
   192
  0
VERTEX
  8
bowl02
 10
41.853546
 20
16.285215
 30
-26.897641
 70
   192
  0
VERTEX
  8
bowl02
 10
44.411640
 20
29.325793
 30
-28.496087
 70
   192
  0
VERTEX
  8
bowl02
 10
42.997015
 20
50.311346
 30
-27.500199
 70
   192
  0
VERTEX
  8
bowl02
 10
36.121273
 20
58.700653
 30
-22.962260
 70
   192
  0
VERTEX
  8
bowl02
 10
35.612994
 20
63.131395
 30
-22.635609
 70
   192
  0
VERTEX
  8
bowl02
 10
38.123570
 20
65.517607
 30
-24.249058
 70
   192
  0
VERTEX
  8
bowl02
 10
41.378599
 20
62.615662
 30
-26.340938
 70
   192
  0
VERTEX
  8
bowl02
 10
50.031635
 20
50.455020
 30
-32.021075
 70
   192
  0
VERTEX
  8
bowl02
 10
52.663162
 20
32.994223
 30
-33.799018
 70
   192
  0
VERTEX
  8
bowl02
 10
45.875921
 20
9.456251
 30
-29.482664
 70
   192
  0
VERTEX
  8
bowl02
 10
33.943265
 20
2.026339
 30
-21.814012
 70
   192
  0
VERTEX
  8
bowl02
 10
14.055504
 20
0.000000
 30
-9.032924
 70
   192
  0
VERTEX
  8
bowl02
 10
15.292873
 20
10.097512
 30
-33.486721
 70
   192
  0
VERTEX
  8
bowl02
 10
20.667481
 20
16.285215
 30
-45.255470
 70
   192
  0
VERTEX
  8
bowl02
 10
21.966551
 20
29.325793
 30
-47.944868
 70
   192
  0
VERTEX
  8
bowl02
 10
21.336341
 20
50.311346
 30
-46.269279
 70
   192
  0
VERTEX
  8
bowl02
 10
18.034931
 20
58.700653
 30
-38.634165
 70
   192
  0
VERTEX
  8
bowl02
 10
17.783940
 20
63.131395
 30
-38.084573
 70
   192
  0
VERTEX
  8
bowl02
 10
19.023675
 20
65.517607
 30
-40.799212
 70
   192
  0
VERTEX
  8
bowl02
 10
20.631023
 20
62.615662
 30
-44.318815
 70
   192
  0
VERTEX
  8
bowl02
 10
24.810070
 20
50.455020
 30
-53.875685
 70
   192
  0
VERTEX
  8
bowl02
 10
26.041192
 20
32.994223
 30
-56.867087
 70
   192
  0
VERTEX
  8
bowl02
 10
22.653749
 20
9.456251
 30
-49.604791
 70
   192
  0
VERTEX
  8
bowl02
 10
16.761346
 20
2.026339
 30
-36.702229
 70
   192
  0
VERTEX
  8
bowl02
 10
6.940675
 20
0.000000
 30
-15.197958
 70
   192
  0
VERTEX
  8
bowl02
 10
-5.239105
 20
10.097512
 30
-36.438774
 70
   192
  0
VERTEX
  8
bowl02
 10
-7.080363
 20
16.285215
 30
-49.245008
 70
   192
  0
VERTEX
  8
bowl02
 10
-7.430265
 20
29.325793
 30
-52.171492
 70
   192
  0
VERTEX
  8
bowl02
 10
-7.033107
 20
50.311346
 30
-50.348190
 70
   192
  0
VERTEX
  8
bowl02
 10
-5.653140
 20
58.700653
 30
-42.039995
 70
   192
  0
VERTEX
  8
bowl02
 10
-5.567155
 20
63.131395
 30
-41.441953
 70
   192
  0
VERTEX
  8
bowl02
 10
-5.991869
 20
65.517607
 30
-44.395904
 70
   192
  0
VERTEX
  8
bowl02
 10
-6.542522
 20
62.615662
 30
-48.225781
 70
   192
  0
VERTEX
  8
bowl02
 10
-8.223154
 20
50.455020
 30
-58.625146
 70
   192
  0
VERTEX
  8
bowl02
 10
-8.826174
 20
32.994223
 30
-61.880257
 70
   192
  0
VERTEX
  8
bowl02
 10
-7.760828
 20
9.456251
 30
-53.977747
 70
   192
  0
VERTEX
  8
bowl02
 10
-5.742181
 20
2.026339
 30
-39.937747
 70
   192
  0
VERTEX
  8
bowl02
 10
-2.377769
 20
0.000000
 30
-16.537748
 70
   192
  0
VERTEX
  8
bowl02
 10
-24.107704
 20
10.097512
 30
-27.821773
 70
   192
  0
VERTEX
  8
bowl02
 10
-32.580242
 20
16.285215
 30
-37.599604
 70
   192
  0
VERTEX
  8
bowl02
 10
-34.445525
 20
29.325793
 30
-39.834036
 70
   192
  0
VERTEX
  8
bowl02
 10
-33.104232
 20
50.311346
 30
-38.441907
 70
   192
  0
VERTEX
  8
bowl02
 10
-27.422144
 20
58.700653
 30
-32.098424
 70
   192
  0
VERTEX
  8
bowl02
 10
-27.026483
 20
63.131395
 30
-31.641806
 70
   192
  0
VERTEX
  8
bowl02
 10
-28.980801
 20
65.517607
 30
-33.897210
 70
   192
  0
VERTEX
  8
bowl02
 10
-31.514628
 20
62.615662
 30
-36.821402
 70
   192
  0
VERTEX
  8
bowl02
 10
-38.580223
 20
50.455020
 30
-44.761537
 70
   192
  0
VERTEX
  8
bowl02
 10
-40.868794
 20
32.994223
 30
-47.246883
 70
   192
  0
VERTEX
  8
bowl02
 10
-35.711397
 20
9.456251
 30
-41.213150
 70
   192
  0
VERTEX
  8
bowl02
 10
-26.422607
 20
2.026339
 30
-30.493313
 70
   192
  0
VERTEX
  8
bowl02
 10
-10.941289
 20
0.000000
 30
-12.626920
 70
   192
  0
VERTEX
  8
bowl02
 10
-35.322277
 20
10.097512
 30
-10.371556
 70
   192
  0
VERTEX
  8
bowl02
 10
-47.736124
 20
16.285215
 30
-14.016591
 70
   192
  0
VERTEX
  8
bowl02
 10
-50.502076
 20
29.325793
 30
-14.849555
 70
   192
  0
VERTEX
  8
bowl02
 10
-48.599635
 20
50.311346
 30
-14.330589
 70
   192
  0
VERTEX
  8
bowl02
 10
-40.360577
 20
58.700653
 30
-11.965830
 70
   192
  0
VERTEX
  8
bowl02
 10
-39.780859
 20
63.131395
 30
-11.795610
 70
   192
  0
VERTEX
  8
bowl02
 10
-42.644300
 20
65.517607
 30
-12.636392
 70
   192
  0
VERTEX
  8
bowl02
 10
-46.356827
 20
62.615662
 30
-13.726488
 70
   192
  0
VERTEX
  8
bowl02
 10
-56.622982
 20
50.455020
 30
-16.686456
 70
   192
  0
VERTEX
  8
bowl02
 10
-59.913361
 20
32.994223
 30
-17.612958
 70
   192
  0
VERTEX
  8
bowl02
 10
-52.323850
 20
9.456251
 30
-15.363669
 70
   192
  0
VERTEX
  8
bowl02
 10
-38.714041
 20
2.026339
 30
-11.367468
 70
   192
  0
VERTEX
  8
bowl02
 10
-16.031026
 20
0.000000
 30
-4.707134
 70
   192
  0
VERTEX
  8
bowl02
 10
-35.322277
 20
10.097512
 30
10.371556
 70
   192
  0
VERTEX
  8
bowl02
 10
-47.736124
 20
16.285215
 30
14.016591
 70
   192
  0
VERTEX
  8
bowl02
 10
-50.502076
 20
29.325793
 30
14.849555
 70
   192
  0
VERTEX
  8
bowl02
 10
-48.599635
 20
50.311346
 30
14.330589
 70
   192
  0
VERTEX
  8
bowl02
 10
-40.360577
 20
58.700653
 30
11.965830
 70
   192
  0
VERTEX
  8
bowl02
 10
-39.780859
 20
63.131395
 30
11.795610
 70
   192
  0
VERTEX
  8
bowl02
 10
-42.644300
 20
65.517607
 30
12.636392
 70
   192
  0
VERTEX
  8
bowl02
 10
-46.356827
 20
62.615662
 30
13.726488
 70
   192
  0
VERTEX
  8
bowl02
 10
-56.622982
 20
50.455020
 30
16.686456
 70
   192
  0
VERTEX
  8
bowl02
 10
-59.913361
 20
32.994223
 30
17.612958
 70
   192
  0
VERTEX
  8
bowl02
 10
-52.323850
 20
9.456251
 30
15.363669
 70
   192
  0
VERTEX
  8
bowl02
 10
-38.714041
 20
2.026339
 30
11.367468
 70
   192
  0
VERTEX
  8
bowl02
 10
-16.031026
 20
0.000000
 30
4.707134
 70
   192
  0
VERTEX
  8
bowl02
 10
-24.107704
 20
10.097512
 30
27.821773
 70
   192
  0
VERTEX
  8
bowl02
 10
-32.580242
 20
16.285215
 30
37.599604
 70
   192
  0
VERTEX
  8
bowl02
 10
-34.445525
 20
29.325793
 30
39.834036
 70
   192
  0
VERTEX
  8
bowl02
 10
-33.104232
 20
50.311346
 30
38.441907
 70
   192
  0
VERTEX
  8
bowl02
 10
-27.422144
 20
58.700653
 30
32.098424
 70
   192
  0
VERTEX
  8
bowl02
 10
-27.026483
 20
63.131395
 30
31.641806
 70
   192
  0
VERTEX
  8
bowl02
 10
-28.980801
 20
65.517607
 30
33.897210
 70
   192
  0
VERTEX
  8
bowl02
 10
-31.514628
 20
62.615662
 30
36.821402
 70
   192
  0
VERTEX
  8
bowl02
 10
-38.580223
 20
50.455020
 30
44.761537
 70
   192
  0
VERTEX
  8
bowl02
 10
-40.868794
 20
32.994223
 30
47.246883
 70
   192
  0
VERTEX
  8
bowl02
 10
-35.711397
 20
9.456251
 30
41.213150
 70
   192
  0
VERTEX
  8
bowl02
 10
-26.422607
 20
2.026339
 30
30.493313
 70
   192
  0
VERTEX
  8
bowl02
 10
-10.941289
 20
0.000000
 30
12.626920
 70
   192
  0
VERTEX
  8
bowl02
 10
-5.239105
 20
10.097512
 30
36.438774
 70
   192
  0
VERTEX
  8
bowl02
 10
-7.080363
 20
16.285215
 30
49.245008
 70
   192
  0
VERTEX
  8
bowl02
 10
-7.430265
 20
29.325793
 30
52.171492
 70
   192
  0
VERTEX
  8
bowl02
 10
-7.033107
 20
50.311346
 30
50.348190
 70
   192
  0
VERTEX
  8
bowl02
 10
-5.653140
 20
58.700653
 30
42.039995
 70
   192
  0
VERTEX
  8
bowl02
 10
-5.567155
 20
63.131395
 30
41.441953
 70
   192
  0
VERTEX
  8
bowl02
 10
-5.991869
 20
65.517607
 30
44.395904
 70
   192
  0
VERTEX
  8
bowl02
 10
-6.542522
 20
62.615662
 30
48.225781
 70
   192
  0
VERTEX
  8
bowl02
 10
-8.223154
 20
50.455020
 30
58.625146
 70
   192
  0
VERTEX
  8
bowl02
 10
-8.826174
 20
32.994223
 30
61.880257
 70
   192
  0
VERTEX
  8
bowl02
 10
-7.760828
 20
9.456251
 30
53.977747
 70
   192
  0
VERTEX
  8
bowl02
 10
-5.742181
 20
2.026339
 30
39.937747
 70
   192
  0
VERTEX
  8
bowl02
 10
-2.377769
 20
0.000000
 30
16.537748
 70
   192
  0
VERTEX
  8
bowl02
 10
15.292873
 20
10.097512
 30
33.486721
 70
   192
  0
VERTEX
  8
bowl02
 10
20.667481
 20
16.285215
 30
45.255470
 70
   192
  0
VERTEX
  8
bowl02
 10
21.966551
 20
29.325793
 30
47.944868
 70
   192
  0
VERTEX
  8
bowl02
 10
21.336341
 20
50.311346
 30
46.269279
 70
   192
  0
VERTEX
  8
bowl02
 10
18.034931
 20
58.700653
 30
38.634165
 70
   192
  0
VERTEX
  8
bowl02
 10
17.783940
 20
63.131395
 30
38.084573
 70
   192
  0
VERTEX
  8
bowl02
 10
19.023675
 20
65.517607
 30
40.799212
 70
   192
  0
VERTEX
  8
bowl02
 10
20.631023
 20
62.615662
 30
44.318815
 70
   192
  0
VERTEX
  8
bowl02
 10
24.810070
 20
50.455020
 30
53.875685
 70
   192
  0
VERTEX
  8
bowl02
 10
26.041192
 20
32.994223
 30
56.867087
 70
   192
  0
VERTEX
  8
bowl02
 10
22.653749
 20
9.456251
 30
49.604791
 70
   192
  0
VERTEX
  8
bowl02
 10
16.761346
 20
2.026339
 30
36.702229
 70
   192
  0
VERTEX
  8
bowl02
 10
6.940675
 20
0.000000
 30
15.197958
 70
   192
  0
VERTEX
  8
bowl02
 10
30.969472
 20
10.097512
 30
19.902871
 70
   192
  0
VERTEX
  8
bowl02
 10
41.853546
 20
16.285215
 30
26.897641
 70
   192
  0
VERTEX
  8
bowl02
 10
44.411640
 20
29.325793
 30
28.496087
 70
   192
  0
VERTEX
  8
bowl02
 10
42.997015
 20
50.311346
 30
27.500199
 70
   192
  0
VERTEX
  8
bowl02
 10
36.121273
 20
58.700653
 30
22.962260
 70
   192
  0
VERTEX
  8
bowl02
 10
35.612994
 20
63.131395
 30
22.635609
 70
   192
  0
VERTEX
  8
bowl02
 10
38.123570
 20
65.517607
 30
24.249058
 70
   192
  0
VERTEX
  8
bowl02
 10
41.378599
 20
62.615662
 30
26.340938
 70
   192
  0
VERTEX
  8
bowl02
 10
50.031635
 20
50.455020
 30
32.021075
 70
   192
  0
VERTEX
  8
bowl02
 10
52.663162
 20
32.994223
 30
33.799018
 70
   192
  0
VERTEX
  8
bowl02
 10
45.875921
 20
9.456251
 30
29.482664
 70
   192
  0
VERTEX
  8
bowl02
 10
33.943265
 20
2.026339
 30
21.814012
 70
   192
  0
VERTEX
  8
bowl02
 10
14.055504
 20
0.000000
 30
9.032924
 70
   192
  0
VERTEX
  8
bowl02
 10
0.0
 20
0.0
 30
0.0
 70
   128
 71
   14
 72
   15
 73
   2
  0
VERTEX
  8
bowl02
 10
0.0
 20
0.0
 30
0.0
 70
   128
 71
   15
 72
   16
 73
   3
  0
VERTEX
  8
bowl02
 10
0.0
 20
0.0
 30
0.0
 70
   128
 71
   16
 72
   17
 73
   4
  0
VERTEX
  8
bowl02
 10
0.0
 20
0.0
 30
0.0
 70
   128
 71
   17
 72
   18
 73
   5
  0
VERTEX
  8
bowl02
 10
0.0
 20
0.0
 30
0.0
 70
   128
 71
   18
 72
   19
 73
   6
  0
VERTEX
  8
bowl02
 10
0.0
 20
0.0
 30
0.0
 70
   128
 71
   19
 72
   20
 73
   7
  0
VERTEX
  8
bowl02
 10
0.0
 20
0.0
 30
0.0
 70
   128
 71
   20
 72
   21
 73
   8
  0
VERTEX
  8
bowl02
 10
0.0
 20
0.0
 30
0.0
 70
   128
 71
   21
 72
   22
 73
   9
  0
VERTEX
  8
bowl02
 10
0.0
 20
0.0
 30
0.0
 70
   128
 71
   22
 72
   23
 73
   10
  0
VERTEX
  8
bowl02
 10
0.0
 20
0.0
 30
0.0
 70
   128
 71
   23
 72
   24
 73
   11
  0
VERTEX
  8
bowl02
 10
0.0
 20
0.0
 30
0.0
 70
   128
 71
   24
 72
   25
 73
   12
  0
VERTEX
  8
bowl02
 10
0.0
 20
0.0
 30
0.0
 70
   128
 71
   25
 72
   26
 73
   13
  0
VERTEX
  8
bowl02
 10
0.0
 20
0.0
 30
0.0
 70
   128
 71
   27
 72
   28
 73
   15
  0
VERTEX
  8
bowl02
 10
0.0
 20
0.0
 30
0.0
 70
   128
 71
   28
 72
   29
 73
   16
  0
VERTEX
  8
bowl02
 10
0.0
 20
0.0
 30
0.0
 70
   128
 71
   29
 72
   30
 73
   17
  0
VERTEX
  8
bowl02
 10
0.0
 20
0.0
 30
0.0
 70
   128
 71
   30
 72
   31
 73
   18
  0
VERTEX
  8
bowl02
 10
0.0
 20
0.0
 30
0.0
 70
   128
 71
   31
 72
   32
 73
   19
  0
VERTEX
  8
bowl02
 10
0.0
 20
0.0
 30
0.0
 70
   128
 71
   32
 72
   33
 73
   20
  0
VERTEX
  8
bowl02
 10
0.0
 20
0.0
 30
0.0
 70
   128
 71
   33
 72
   34
 73
   21
  0
VERTEX
  8
bowl02
 10
0.0
 20
0.0
 30
0.0
 70
   128
 71
   34
 72
   35
 73
   22
  0
VERTEX
  8
bowl02
 10
0.0
 20
0.0
 30
0.0
 70
   128
 71
   35
 72
   36
 73
   23
  0
VERTEX
  8
bowl02
 10
0.0
 20
0.0
 30
0.0
 70
   128
 71
   36
 72
   37
 73
   24
  0
VERTEX
  8
bowl02
 10
0.0
 20
0.0
 30
0.0
 70
   128
 71
   37
 72
   38
 73
   25
  0
VERTEX
  8
bowl02
 10
0.0
 20
0.0
 30
0.0
 70
   128
 71
   38
 72
   39
 73
   26
  0
VERTEX
  8
bowl02
 10
0.0
 20
0.0
 30
0.0
 70
   128
 71
   40
 72
   41
 73
   28
  0
VERTEX
  8
bowl02
 10
0.0
 20
0.0
 30
0.0
 70
   128
 71
   41
 72
   42
 73
   29
  0
VERTEX
  8
bowl02
 10
0.0
 20
0.0
 30
0.0
 70
   128
 71
   42
 72
   43
 73
   30
  0
VERTEX
  8
bowl02
 10
0.0
 20
0.0
 30
0.0
 70
   128
 71
   43
 72
   44
 73
   31
  0
VERTEX
  8
bowl02
 10
0.0
 20
0.0
 30
0.0
 70
   128
 71
   44
 72
   45
 73
   32
  0
VERTEX
  8
bowl02
 10
0.0
 20
0.0
 30
0.0
 70
   128
 71
   45
 72
   46
 73
   33
  0
VERTEX
  8
bowl02
 10
0.0
 20
0.0
 30
0.0
 70
   128
 71
   46
 72
   47
 73
   34
  0
VERTEX
  8
bowl02
 10
0.0
 20
0.0
 30
0.0
 70
   128
 71
   47
 72
   48
 73
   35
  0
VERTEX
  8
bowl02
 10
0.0
 20
0.0
 30
0.0
 70
   128
 71
   48
 72
   49
 73
   36
  0
VERTEX
  8
bowl02
 10
0.0
 20
0.0
 30
0.0
 70
   128
 71
   49
 72
   50
 73
   37
  0
VERTEX
  8
bowl02
 10
0.0
 20
0.0
 30
0.0
 70
   128
 71
   50
 72
   51
 73
   38
  0
VERTEX
  8
bowl02
 10
0.0
 20
0.0
 30
0.0
 70
   128
 71
   51
 72
   52
 73
   39
  0
VERTEX
  8
bowl02
 10
0.0
 20
0.0
 30
0.0
 70
   128
 71
   53
 72
   54
 73
   41
  0
VERTEX
  8
bowl02
 10
0.0
 20
0.0
 30
0.0
 70
   128
 71
   54
 72
   55
 73
   42
  0
VERTEX
  8
bowl02
 10
0.0
 20
0.0
 30
0.0
 70
   128
 71
   55
 72
   56
 73
   43
  0
VERTEX
  8
bowl02
 10
0.0
 20
0.0
 30
0.0
 70
   128
 71
   56
 72
   57
 73
   44
  0
VERTEX
  8
bowl02
 10
0.0
 20
0.0
 30
0.0
 70
   128
 71
   57
 72
   58
 73
   45
  0
VERTEX
  8
bowl02
 10
0.0
 20
0.0
 30
0.0
 70
   128
 71
   58
 72
   59
 73
   46
  0
VERTEX
  8
bowl02
 10
0.0
 20
0.0
 30
0.0
 70
   128
 71
   59
 72
   60
 73
   47
  0
VERTEX
  8
bowl02
 10
0.0
 20
0.0
 30
0.0
 70
   128
 71
   60
 72
   61
 73
   48
  0
VERTEX
  8
bowl02
 10
0.0
 20
0.0
 30
0.0
 70
   128
 71
   61
 72
   62
 73
   49
  0
VERTEX
  8
bowl02
 10
0.0
 20
0.0
 30
0.0
 70
   128
 71
   62
 72
   63
 73
   50
  0
VERTEX
  8
bowl02
 10
0.0
 20
0.0
 30
0.0
 70
   128
 71
   63
 72
   64
 73
   51
  0
VERTEX
  8
bowl02
 10
0.0
 20
0.0
 30
0.0
 70
   128
 71
   64
 72
   65
 73
   52
  0
VERTEX
  8
bowl02
 10
0.0
 20
0.0
 30
0.0
 70
   128
 71
   66
 72
   67
 73
   54
  0
VERTEX
  8
bowl02
 10
0.0
 20
0.0
 30
0.0
 70
   128
 71
   67
 72
   68
 73
   55
  0
VERTEX
  8
bowl02
 10
0.0
 20
0.0
 30
0.0
 70
   128
 71
   68
 72
   69
 73
   56
  0
VERTEX
  8
bowl02
 10
0.0
 20
0.0
 30
0.0
 70
   128
 71
   69
 72
   70
 73
   57
  0
VERTEX
  8
bowl02
 10
0.0
 20
0.0
 30
0.0
 70
   128
 71
   70
 72
   71
 73
   58
  0
VERTEX
  8
bowl02
 10
0.0
 20
0.0
 30
0.0
 70
   128
 71
   71
 72
   72
 73
   59
  0
VERTEX
  8
bowl02
 10
0.0
 20
0.0
 30
0.0
 70
   128
 71
   72
 72
   73
 73
   60
  0
VERTEX
  8
bowl02
 10
0.0
 20
0.0
 30
0.0
 70
   128
 71
   73
 72
   74
 73
   61
  0
VERTEX
  8
bowl02
 10
0.0
 20
0.0
 30
0.0
 70
   128
 71
   74
 72
   75
 73
   62
  0
VERTEX
  8
bowl02
 10
0.0
 20
0.0
 30
0.0
 70
   128
 71
   75
 72
   76
 73
   63
  0
VERTEX
  8
bowl02
 10
0.0
 20
0.0
 30
0.0
 70
   128
 71
   76
 72
   77
 73
   64
  0
VERTEX
  8
bowl02
 10
0.0
 20
0.0
 30
0.0
 70
   128
 71
   77
 72
   78
 73
   65
  0
VERTEX
  8
bowl02
 10
0.0
 20
0.0
 30
0.0
 70
   128
 71
   79
 72
   80
 73
   67
  0
VERTEX
  8
bowl02
 10
0.0
 20
0.0
 30
0.0
 70
   128
 71
   80
 72
   81
 73
   68
  0
VERTEX
  8
bowl02
 10
0.0
 20
0.0
 30
0.0
 70
   128
 71
   81
 72
   82
 73
   69
  0
VERTEX
  8
bowl02
 10
0.0
 20
0.0
 30
0.0
 70
   128
 71
   82
 72
   83
 73
   70
  0
VERTEX
  8
bowl02
 10
0.0
 20
0.0
 30
0.0
 70
   128
 71
   83
 72
   84
 73
   71
  0
VERTEX
  8
bowl02
 10
0.0
 20
0.0
 30
0.0
 70
   128
 71
   84
 72
   85
 73
   72
  0
VERTEX
  8
bowl02
 10
0.0
 20
0.0
 30
0.0
 70
   128
 71
   85
 72
   86
 73
   73
  0
VERTEX
  8
bowl02
 10
0.0
 20
0.0
 30
0.0
 70
   128
 71
   86
 72
   87
 73
   74
  0
VERTEX
  8
bowl02
 10
0.0
 20
0.0
 30
0.0
 70
   128
 71
   87
 72
   88
 73
   75
  0
VERTEX
  8
bowl02
 10
0.0
 20
0.0
 30
0.0
 70
   128
 71
   88
 72
   89
 73
   76
  0
VERTEX
  8
bowl02
 10
0.0
 20
0.0
 30
0.0
 70
   128
 71
   89
 72
   90
 73
   77
  0
VERTEX
  8
bowl02
 10
0.0
 20
0.0
 30
0.0
 70
   128
 71
   90
 72
   91
 73
   78
  0
VERTEX
  8
bowl02
 10
0.0
 20
0.0
 30
0.0
 70
   128
 71
   92
 72
   93
 73
   80
  0
VERTEX
  8
bowl02
 10
0.0
 20
0.0
 30
0.0
 70
   128
 71
   93
 72
   94
 73
   81
  0
VERTEX
  8
bowl02
 10
0.0
 20
0.0
 30
0.0
 70
   128
 71
   94
 72
   95
 73
   82
  0
VERTEX
  8
bowl02
 10
0.0
 20
0.0
 30
0.0
 70
   128
 71
   95
 72
   96
 73
   83
  0
VERTEX
  8
bowl02
 10
0.0
 20
0.0
 30
0.0
 70
   128
 71
   96
 72
   97
 73
   84
  0
VERTEX
  8
bowl02
 10
0.0
 20
0.0
 30
0.0
 70
   128
 71
   97
 72
   98
 73
   85
  0
VERTEX
  8
bowl02
 10
0.0
 20
0.0
 30
0.0
 70
   128
 71
   98
 72
   99
 73
   86
  0
VERTEX
  8
bowl02
 10
0.0
 20
0.0
 30
0.0
 70
   128
 71
   99
 72
   100
 73
   87
  0
VERTEX
  8
bowl02
 10
0.0
 20
0.0
 30
0.0
 70
   128
 71
   100
 72
   101
 73
   88
  0
VERTEX
  8
bowl02
 10
0.0
 20
0.0
 30
0.0
 70
   128
 71
   101
 72
   102
 73
   89
  0
VERTEX
  8
bowl02
 10
0.0
 20
0.0
 30
0.0
 70
   128
 71
   102
 72
   103
 73
   90
  0
VERTEX
  8
bowl02
 10
0.0
 20
0.0
 30
0.0
 70
   128
 71
   103
 72
   104
 73
   91
  0
VERTEX
  8
bowl02
 10
0.0
 20
0.0
 30
0.0
 70
   128
 71
   105
 72
   106
 73
   93
  0
VERTEX
  8
bowl02
 10
0.0
 20
0.0
 30
0.0
 70
   128
 71
   106
 72
   107
 73
   94
  0
VERTEX
  8
bowl02
 10
0.0
 20
0.0
 30
0.0
 70
   128
 71
   107
 72
   108
 73
   95
  0
VERTEX
  8
bowl02
 10
0.0
 20
0.0
 30
0.0
 70
   128
 71
   108
 72
   109
 73
   96
  0
VERTEX
  8
bowl02
 10
0.0
 20
0.0
 30
0.0
 70
   128
 71
   109
 72
   110
 73
   97
  0
VERTEX
  8
bowl02
 10
0.0
 20
0.0
 30
0.0
 70
   128
 71
   110
 72
   111
 73
   98
  0
VERTEX
  8
bowl02
 10
0.0
 20
0.0
 30
0.0
 70
   128
 71
   111
 72
   112
 73
   99
  0
VERTEX
  8
bowl02
 10
0.0
 20
0.0
 30
0.0
 70
   128
 71
   112
 72
   113
 73
   100
  0
VERTEX
  8
bowl02
 10
0.0
 20
0.0
 30
0.0
 70
   128
 71
   113
 72
   114
 73
   101
  0
VERTEX
  8
bowl02
 10
0.0
 20
0.0
 30
0.0
 70
   128
 71
   114
 72
   115
 73
   102
  0
VERTEX
  8
bowl02
 10
0.0
 20
0.0
 30
0.0
 70
   128
 71
   115
 72
   116
 73
   103
  0
VERTEX
  8
bowl02
 10
0.0
 20
0.0
 30
0.0
 70
   128
 71
   116
 72
   117
 73
   104
  0
VERTEX
  8
bowl02
 10
0.0
 20
0.0
 30
0.0
 70
   128
 71
   118
 72
   119
 73
   106
  0
VERTEX
  8
bowl02
 10
0.0
 20
0.0
 30
0.0
 70
   128
 71
   119
 72
   120
 73
   107
  0
VERTEX
  8
bowl02
 10
0.0
 20
0.0
 30
0.0
 70
   128
 71
   120
 72
   121
 73
   108
  0
VERTEX
  8
bowl02
 10
0.0
 20
0.0
 30
0.0
 70
   128
 71
   121
 72
   122
 73
   109
  0
VERTEX
  8
bowl02
 10
0.0
 20
0.0
 30
0.0
 70
   128
 71
   122
 72
   123
 73
   110
  0
VERTEX
  8
bowl02
 10
0.0
 20
0.0
 30
0.0
 70
   128
 71
   123
 72
   124
 73
   111
  0
VERTEX
  8
bowl02
 10
0.0
 20
0.0
 30
0.0
 70
   128
 71
   124
 72
   125
 73
   112
  0
VERTEX
  8
bowl02
 10
0.0
 20
0.0
 30
0.0
 70
   128
 71
   125
 72
   126
 73
   113
  0
VERTEX
  8
bowl02
 10
0.0
 20
0.0
 30
0.0
 70
   128
 71
   126
 72
   127
 73
   114
  0
VERTEX
  8
bowl02
 10
0.0
 20
0.0
 30
0.0
 70
   128
 71
   127
 72
   128
 73
   115
  0
VERTEX
  8
bowl02
 10
0.0
 20
0.0
 30
0.0
 70
   128
 71
   128
 72
   129
 73
   116
  0
VERTEX
  8
bowl02
 10
0.0
 20
0.0
 30
0.0
 70
   128
 71
   129
 72
   130
 73
   117
  0
VERTEX
  8
bowl02
 10
0.0
 20
0.0
 30
0.0
 70
   128
 71
   131
 72
   132
 73
   119
  0
VERTEX
  8
bowl02
 10
0.0
 20
0.0
 30
0.0
 70
   128
 71
   132
 72
   133
 73
   120
  0
VERTEX
  8
bowl02
 10
0.0
 20
0.0
 30
0.0
 70
   128
 71
   133
 72
   134
 73
   121
  0
VERTEX
  8
bowl02
 10
0.0
 20
0.0
 30
0.0
 70
   128
 71
   134
 72
   135
 73
   122
  0
VERTEX
  8
bowl02
 10
0.0
 20
0.0
 30
0.0
 70
   128
 71
   135
 72
   136
 73
   123
  0
VERTEX
  8
bowl02
 10
0.0
 20
0.0
 30
0.0
 70
   128
 71
   136
 72
   137
 73
   124
  0
VERTEX
  8
bowl02
 10
0.0
 20
0.0
 30
0.0
 70
   128
 71
   137
 72
   138
 73
   125
  0
VERTEX
  8
bowl02
 10
0.0
 20
0.0
 30
0.0
 70
   128
 71
   138
 72
   139
 73
   126
  0
VERTEX
  8
bowl02
 10
0.0
 20
0.0
 30
0.0
 70
   128
 71
   139
 72
   140
 73
   127
  0
VERTEX
  8
bowl02
 10
0.0
 20
0.0
 30
0.0
 70
   128
 71
   140
 72
   141
 73
   128
  0
VERTEX
  8
bowl02
 10
0.0
 20
0.0
 30
0.0
 70
   128
 71
   141
 72
   142
 73
   129
  0
VERTEX
  8
bowl02
 10
0.0
 20
0.0
 30
0.0
 70
   128
 71
   142
 72
   143
 73
   130
  0
VERTEX
  8
bowl02
 10
0.0
 20
0.0
 30
0.0
 70
   128
 71
   1
 72
   2
 73
   132
  0
VERTEX
  8
bowl02
 10
0.0
 20
0.0
 30
0.0
 70
   128
 71
   2
 72
   3
 73
   133
  0
VERTEX
  8
bowl02
 10
0.0
 20
0.0
 30
0.0
 70
   128
 71
   3
 72
   4
 73
   134
  0
VERTEX
  8
bowl02
 10
0.0
 20
0.0
 30
0.0
 70
   128
 71
   4
 72
   5
 73
   135
  0
VERTEX
  8
bowl02
 10
0.0
 20
0.0
 30
0.0
 70
   128
 71
   5
 72
   6
 73
   136
  0
VERTEX
  8
bowl02
 10
0.0
 20
0.0
 30
0.0
 70
   128
 71
   6
 72
   7
 73
   137
  0
VERTEX
  8
bowl02
 10
0.0
 20
0.0
 30
0.0
 70
   128
 71
   7
 72
   8
 73
   138
  0
VERTEX
  8
bowl02
 10
0.0
 20
0.0
 30
0.0
 70
   128
 71
   8
 72
   9
 73
   139
  0
VERTEX
  8
bowl02
 10
0.0
 20
0.0
 30
0.0
 70
   128
 71
   9
 72
   10
 73
   140
  0
VERTEX
  8
bowl02
 10
0.0
 20
0.0
 30
0.0
 70
   128
 71
   10
 72
   11
 73
   141
  0
VERTEX
  8
bowl02
 10
0.0
 20
0.0
 30
0.0
 70
   128
 71
   11
 72
   12
 73
   142
  0
VERTEX
  8
bowl02
 10
0.0
 20
0.0
 30
0.0
 70
   128
 71
   12
 72
   13
 73
   143
  0
VERTEX
  8
bowl02
 10
0.0
 20
0.0
 30
0.0
 70
   128
 71
   27
 72
   14
 73
   53
  0
VERTEX
  8
bowl02
 10
0.0
 20
0.0
 30
0.0
 70
   128
 71
   14
 72
   1
 73
   105
  0
VERTEX
  8
bowl02
 10
0.0
 20
0.0
 30
0.0
 70
   128
 71
   1
 72
   131
 73
   118
  0
VERTEX
  8
bowl02
 10
0.0
 20
0.0
 30
0.0
 70
   128
 71
   105
 72
   92
 73
   79
  0
VERTEX
  8
bowl02
 10
0.0
 20
0.0
 30
0.0
 70
   128
 71
   79
 72
   66
 73
   53
  0
VERTEX
  8
bowl02
 10
0.0
 20
0.0
 30
0.0
 70
   128
 71
   26
 72
   39
 73
   13
  0
VERTEX
  8
bowl02
 10
0.0
 20
0.0
 30
0.0
 70
   128
 71
   39
 72
   52
 73
   143
  0
VERTEX
  8
bowl02
 10
0.0
 20
0.0
 30
0.0
 70
   128
 71
   52
 72
   65
 73
   78
  0
VERTEX
  8
bowl02
 10
0.0
 20
0.0
 30
0.0
 70
   128
 71
   143
 72
   52
 73
   78
  0
VERTEX
  8
bowl02
 10
0.0
 20
0.0
 30
0.0
 70
   128
 71
   78
 72
   91
 73
   104
  0
VERTEX
  8
bowl02
 10
0.0
 20
0.0
 30
0.0
 70
   128
 71
   117
 72
   130
 73
   143
  0
VERTEX
  8
bowl02
 10
0.0
 20
0.0
 30
0.0
 70
   128
 71
   14
 72
   2
 73
   1
  0
VERTEX
  8
bowl02
 10
0.0
 20
0.0
 30
0.0
 70
   128
 71
   15
 72
   3
 73
   2
  0
VERTEX
  8
bowl02
 10
0.0
 20
0.0
 30
0.0
 70
   128
 71
   16
 72
   4
 73
   3
  0
VERTEX
  8
bowl02
 10
0.0
 20
0.0
 30
0.0
 70
   128
 71
   17
 72
   5
 73
   4
  0
VERTEX
  8
bowl02
 10
0.0
 20
0.0
 30
0.0
 70
   128
 71
   18
 72
   6
 73
   5
  0
VERTEX
  8
bowl02
 10
0.0
 20
0.0
 30
0.0
 70
   128
 71
   19
 72
   7
 73
   6
  0
VERTEX
  8
bowl02
 10
0.0
 20
0.0
 30
0.0
 70
   128
 71
   20
 72
   8
 73
   7
  0
VERTEX
  8
bowl02
 10
0.0
 20
0.0
 30
0.0
 70
   128
 71
   21
 72
   9
 73
   8
  0
VERTEX
  8
bowl02
 10
0.0
 20
0.0
 30
0.0
 70
   128
 71
   22
 72
   10
 73
   9
  0
VERTEX
  8
bowl02
 10
0.0
 20
0.0
 30
0.0
 70
   128
 71
   23
 72
   11
 73
   10
  0
VERTEX
  8
bowl02
 10
0.0
 20
0.0
 30
0.0
 70
   128
 71
   24
 72
   12
 73
   11
  0
VERTEX
  8
bowl02
 10
0.0
 20
0.0
 30
0.0
 70
   128
 71
   25
 72
   13
 73
   12
  0
VERTEX
  8
bowl02
 10
0.0
 20
0.0
 30
0.0
 70
   128
 71
   27
 72
   15
 73
   14
  0
VERTEX
  8
bowl02
 10
0.0
 20
0.0
 30
0.0
 70
   128
 71
   28
 72
   16
 73
   15
  0
VERTEX
  8
bowl02
 10
0.0
 20
0.0
 30
0.0
 70
   128
 71
   29
 72
   17
 73
   16
  0
VERTEX
  8
bowl02
 10
0.0
 20
0.0
 30
0.0
 70
   128
 71
   30
 72
   18
 73
   17
  0
VERTEX
  8
bowl02
 10
0.0
 20
0.0
 30
0.0
 70
   128
 71
   31
 72
   19
 73
   18
  0
VERTEX
  8
bowl02
 10
0.0
 20
0.0
 30
0.0
 70
   128
 71
   32
 72
   20
 73
   19
  0
VERTEX
  8
bowl02
 10
0.0
 20
0.0
 30
0.0
 70
   128
 71
   33
 72
   21
 73
   20
  0
VERTEX
  8
bowl02
 10
0.0
 20
0.0
 30
0.0
 70
   128
 71
   34
 72
   22
 73
   21
  0
VERTEX
  8
bowl02
 10
0.0
 20
0.0
 30
0.0
 70
   128
 71
   35
 72
   23
 73
   22
  0
VERTEX
  8
bowl02
 10
0.0
 20
0.0
 30
0.0
 70
   128
 71
   36
 72
   24
 73
   23
  0
VERTEX
  8
bowl02
 10
0.0
 20
0.0
 30
0.0
 70
   128
 71
   37
 72
   25
 73
   24
  0
VERTEX
  8
bowl02
 10
0.0
 20
0.0
 30
0.0
 70
   128
 71
   38
 72
   26
 73
   25
  0
VERTEX
  8
bowl02
 10
0.0
 20
0.0
 30
0.0
 70
   128
 71
   40
 72
   28
 73
   27
  0
VERTEX
  8
bowl02
 10
0.0
 20
0.0
 30
0.0
 70
   128
 71
   41
 72
   29
 73
   28
  0
VERTEX
  8
bowl02
 10
0.0
 20
0.0
 30
0.0
 70
   128
 71
   42
 72
   30
 73
   29
  0
VERTEX
  8
bowl02
 10
0.0
 20
0.0
 30
0.0
 70
   128
 71
   43
 72
   31
 73
   30
  0
VERTEX
  8
bowl02
 10
0.0
 20
0.0
 30
0.0
 70
   128
 71
   44
 72
   32
 73
   31
  0
VERTEX
  8
bowl02
 10
0.0
 20
0.0
 30
0.0
 70
   128
 71
   45
 72
   33
 73
   32
  0
VERTEX
  8
bowl02
 10
0.0
 20
0.0
 30
0.0
 70
   128
 71
   46
 72
   34
 73
   33
  0
VERTEX
  8
bowl02
 10
0.0
 20
0.0
 30
0.0
 70
   128
 71
   47
 72
   35
 73
   34
  0
VERTEX
  8
bowl02
 10
0.0
 20
0.0
 30
0.0
 70
   128
 71
   48
 72
   36
 73
   35
  0
VERTEX
  8
bowl02
 10
0.0
 20
0.0
 30
0.0
 70
   128
 71
   49
 72
   37
 73
   36
  0
VERTEX
  8
bowl02
 10
0.0
 20
0.0
 30
0.0
 70
   128
 71
   50
 72
   38
 73
   37
  0
VERTEX
  8
bowl02
 10
0.0
 20
0.0
 30
0.0
 70
   128
 71
   51
 72
   39
 73
   38
  0
VERTEX
  8
bowl02
 10
0.0
 20
0.0
 30
0.0
 70
   128
 71
   53
 72
   41
 73
   40
  0
VERTEX
  8
bowl02
 10
0.0
 20
0.0
 30
0.0
 70
   128
 71
   54
 72
   42
 73
   41
  0
VERTEX
  8
bowl02
 10
0.0
 20
0.0
 30
0.0
 70
   128
 71
   55
 72
   43
 73
   42
  0
VERTEX
  8
bowl02
 10
0.0
 20
0.0
 30
0.0
 70
   128
 71
   56
 72
   44
 73
   43
  0
VERTEX
  8
bowl02
 10
0.0
 20
0.0
 30
0.0
 70
   128
 71
   57
 72
   45
 73
   44
  0
VERTEX
  8
bowl02
 10
0.0
 20
0.0
 30
0.0
 70
   128
 71
   58
 72
   46
 73
   45
  0
VERTEX
  8
bowl02
 10
0.0
 20
0.0
 30
0.0
 70
   128
 71
   59
 72
   47
 73
   46
  0
VERTEX
  8
bowl02
 10
0.0
 20
0.0
 30
0.0
 70
   128
 71
   60
 72
   48
 73
   47
  0
VERTEX
  8
bowl02
 10
0.0
 20
0.0
 30
0.0
 70
   128
 71
   61
 72
   49
 73
   48
  0
VERTEX
  8
bowl02
 10
0.0
 20
0.0
 30
0.0
 70
   128
 71
   62
 72
   50
 73
   49
  0
VERTEX
  8
bowl02
 10
0.0
 20
0.0
 30
0.0
 70
   128
 71
   63
 72
   51
 73
   50
  0
VERTEX
  8
bowl02
 10
0.0
 20
0.0
 30
0.0
 70
   128
 71
   64
 72
   52
 73
   51
  0
VERTEX
  8
bowl02
 10
0.0
 20
0.0
 30
0.0
 70
   128
 71
   66
 72
   54
 73
   53
  0
VERTEX
  8
bowl02
 10
0.0
 20
0.0
 30
0.0
 70
   128
 71
   67
 72
   55
 73
   54
  0
VERTEX
  8
bowl02
 10
0.0
 20
0.0
 30
0.0
 70
   128
 71
   68
 72
   56
 73
   55
  0
VERTEX
  8
bowl02
 10
0.0
 20
0.0
 30
0.0
 70
   128
 71
   69
 72
   57
 73
   56
  0
VERTEX
  8
bowl02
 10
0.0
 20
0.0
 30
0.0
 70
   128
 71
   70
 72
   58
 73
   57
  0
VERTEX
  8
bowl02
 10
0.0
 20
0.0
 30
0.0
 70
   128
 71
   71
 72
   59
 73
   58
  0
VERTEX
  8
bowl02
 10
0.0
 20
0.0
 30
0.0
 70
   128
 71
   72
 72
   60
 73
   59
  0
VERTEX
  8
bowl02
 10
0.0
 20
0.0
 30
0.0
 70
   128
 71
   73
 72
   61
 73
   60
  0
VERTEX
  8
bowl02
 10
0.0
 20
0.0
 30
0.0
 70
   128
 71
   74
 72
   62
 73
   61
  0
VERTEX
  8
bowl02
 10
0.0
 20
0.0
 30
0.0
 70
   128
 71
   75
 72
   63
 73
   62
  0
VERTEX
  8
bowl02
 10
0.0
 20
0.0
 30
0.0
 70
   128
 71
   76
 72
   64
 73
   63
  0
VERTEX
  8
bowl02
 10
0.0
 20
0.0
 30
0.0
 70
   128
 71
   77
 72
   65
 73
   64
  0
VERTEX
  8
bowl02
 10
0.0
 20
0.0
 30
0.0
 70
   128
 71
   79
 72
   67
 73
   66
  0
VERTEX
  8
bowl02
 10
0.0
 20
0.0
 30
0.0
 70
   128
 71
   80
 72
   68
 73
   67
  0
VERTEX
  8
bowl02
 10
0.0
 20
0.0
 30
0.0
 70
   128
 71
   81
 72
   69
 73
   68
  0
VERTEX
  8
bowl02
 10
0.0
 20
0.0
 30
0.0
 70
   128
 71
   82
 72
   70
 73
   69
  0
VERTEX
  8
bowl02
 10
0.0
 20
0.0
 30
0.0
 70
   128
 71
   83
 72
   71
 73
   70
  0
VERTEX
  8
bowl02
 10
0.0
 20
0.0
 30
0.0
 70
   128
 71
   84
 72
   72
 73
   71
  0
VERTEX
  8
bowl02
 10
0.0
 20
0.0
 30
0.0
 70
   128
 71
   85
 72
   73
 73
   72
  0
VERTEX
  8
bowl02
 10
0.0
 20
0.0
 30
0.0
 70
   128
 71
   86
 72
   74
 73
   73
  0
VERTEX
  8
bowl02
 10
0.0
 20
0.0
 30
0.0
 70
   128
 71
   87
 72
   75
 73
   74
  0
VERTEX
  8
bowl02
 10
0.0
 20
0.0
 30
0.0
 70
   128
 71
   88
 72
   76
 73
   75
  0
VERTEX
  8
bowl02
 10
0.0
 20
0.0
 30
0.0
 70
   128
 71
   89
 72
   77
 73
   76
  0
VERTEX
  8
bowl02
 10
0.0
 20
0.0
 30
0.0
 70
   128
 71
   90
 72
   78
 73
   77
  0
VERTEX
  8
bowl02
 10
0.0
 20
0.0
 30
0.0
 70
   128
 71
   92
 72
   80
 73
   79
  0
VERTEX
  8
bowl02
 10
0.0
 20
0.0
 30
0.0
 70
   128
 71
   93
 72
   81
 73
   80
  0
VERTEX
  8
bowl02
 10
0.0
 20
0.0
 30
0.0
 70
   128
 71
   94
 72
   82
 73
   81
  0
VERTEX
  8
bowl02
 10
0.0
 20
0.0
 30
0.0
 70
   128
 71
   95
 72
   83
 73
   82
  0
VERTEX
  8
bowl02
 10
0.0
 20
0.0
 30
0.0
 70
   128
 71
   96
 72
   84
 73
   83
  0
VERTEX
  8
bowl02
 10
0.0
 20
0.0
 30
0.0
 70
   128
 71
   97
 72
   85
 73
   84
  0
VERTEX
  8
bowl02
 10
0.0
 20
0.0
 30
0.0
 70
   128
 71
   98
 72
   86
 73
   85
  0
VERTEX
  8
bowl02
 10
0.0
 20
0.0
 30
0.0
 70
   128
 71
   99
 72
   87
 73
   86
  0
VERTEX
  8
bowl02
 10
0.0
 20
0.0
 30
0.0
 70
   128
 71
   100
 72
   88
 73
   87
  0
VERTEX
  8
bowl02
 10
0.0
 20
0.0
 30
0.0
 70
   128
 71
   101
 72
   89
 73
   88
  0
VERTEX
  8
bowl02
 10
0.0
 20
0.0
 30
0.0
 70
   128
 71
   102
 72
   90
 73
   89
  0
VERTEX
  8
bowl02
 10
0.0
 20
0.0
 30
0.0
 70
   128
 71
   103
 72
   91
 73
   90
  0
VERTEX
  8
bowl02
 10
0.0
 20
0.0
 30
0.0
 70
   128
 71
   105
 72
   93
 73
   92
  0
VERTEX
  8
bowl02
 10
0.0
 20
0.0
 30
0.0
 70
   128
 71
   106
 72
   94
 73
   93
  0
VERTEX
  8
bowl02
 10
0.0
 20
0.0
 30
0.0
 70
   128
 71
   107
 72
   95
 73
   94
  0
VERTEX
  8
bowl02
 10
0.0
 20
0.0
 30
0.0
 70
   128
 71
   108
 72
   96
 73
   95
  0
VERTEX
  8
bowl02
 10
0.0
 20
0.0
 30
0.0
 70
   128
 71
   109
 72
   97
 73
   96
  0
VERTEX
  8
bowl02
 10
0.0
 20
0.0
 30
0.0
 70
   128
 71
   110
 72
   98
 73
   97
  0
VERTEX
  8
bowl02
 10
0.0
 20
0.0
 30
0.0
 70
   128
 71
   111
 72
   99
 73
   98
  0
VERTEX
  8
bowl02
 10
0.0
 20
0.0
 30
0.0
 70
   128
 71
   112
 72
   100
 73
   99
  0
VERTEX
  8
bowl02
 10
0.0
 20
0.0
 30
0.0
 70
   128
 71
   113
 72
   101
 73
   100
  0
VERTEX
  8
bowl02
 10
0.0
 20
0.0
 30
0.0
 70
   128
 71
   114
 72
   102
 73
   101
  0
VERTEX
  8
bowl02
 10
0.0
 20
0.0
 30
0.0
 70
   128
 71
   115
 72
   103
 73
   102
  0
VERTEX
  8
bowl02
 10
0.0
 20
0.0
 30
0.0
 70
   128
 71
   116
 72
   104
 73
   103
  0
VERTEX
  8
bowl02
 10
0.0
 20
0.0
 30
0.0
 70
   128
 71
   118
 72
   106
 73
   105
  0
VERTEX
  8
bowl02
 10
0.0
 20
0.0
 30
0.0
 70
   128
 71
   119
 72
   107
 73
   106
  0
VERTEX
  8
bowl02
 10
0.0
 20
0.0
 30
0.0
 70
   128
 71
   120
 72
   108
 73
   107
  0
VERTEX
  8
bowl02
 10
0.0
 20
0.0
 30
0.0
 70
   128
 71
   121
 72
   109
 73
   108
  0
VERTEX
  8
bowl02
 10
0.0
 20
0.0
 30
0.0
 70
   128
 71
   122
 72
   110
 73
   109
  0
VERTEX
  8
bowl02
 10
0.0
 20
0.0
 30
0.0
 70
   128
 71
   123
 72
   111
 73
   110
  0
VERTEX
  8
bowl02
 10
0.0
 20
0.0
 30
0.0
 70
   128
 71
   124
 72
   112
 73
   111
  0
VERTEX
  8
bowl02
 10
0.0
 20
0.0
 30
0.0
 70
   128
 71
   125
 72
   113
 73
   112
  0
VERTEX
  8
bowl02
 10
0.0
 20
0.0
 30
0.0
 70
   128
 71
   126
 72
   114
 73
   113
  0
VERTEX
  8
bowl02
 10
0.0
 20
0.0
 30
0.0
 70
   128
 71
   127
 72
   115
 73
   114
  0
VERTEX
  8
bowl02
 10
0.0
 20
0.0
 30
0.0
 70
   128
 71
   128
 72
   116
 73
   115
  0
VERTEX
  8
bowl02
 10
0.0
 20
0.0
 30
0.0
 70
   128
 71
   129
 72
   117
 73
   116
  0
VERTEX
  8
bowl02
 10
0.0
 20
0.0
 30
0.0
 70
   128
 71
   131
 72
   119
 73
   118
  0
VERTEX
  8
bowl02
 10
0.0
 20
0.0
 30
0.0
 70
   128
 71
   132
 72
   120
 73
   119
  0
VERTEX
  8
bowl02
 10
0.0
 20
0.0
 30
0.0
 70
   128
 71
   133
 72
   121
 73
   120
  0
VERTEX
  8
bowl02
 10
0.0
 20
0.0
 30
0.0
 70
   128
 71
   134
 72
   122
 73
   121
  0
VERTEX
  8
bowl02
 10
0.0
 20
0.0
 30
0.0
 70
   128
 71
   135
 72
   123
 73
   122
  0
VERTEX
  8
bowl02
 10
0.0
 20
0.0
 30
0.0
 70
   128
 71
   136
 72
   124
 73
   123
  0
VERTEX
  8
bowl02
 10
0.0
 20
0.0
 30
0.0
 70
   128
 71
   137
 72
   125
 73
   124
  0
VERTEX
  8
bowl02
 10
0.0
 20
0.0
 30
0.0
 70
   128
 71
   138
 72
   126
 73
   125
  0
VERTEX
  8
bowl02
 10
0.0
 20
0.0
 30
0.0
 70
   128
 71
   139
 72
   127
 73
   126
  0
VERTEX
  8
bowl02
 10
0.0
 20
0.0
 30
0.0
 70
   128
 71
   140
 72
   128
 73
   127
  0
VERTEX
  8
bowl02
 10
0.0
 20
0.0
 30
0.0
 70
   128
 71
   141
 72
   129
 73
   128
  0
VERTEX
  8
bowl02
 10
0.0
 20
0.0
 30
0.0
 70
   128
 71
   142
 72
   130
 73
   129
  0
VERTEX
  8
bowl02
 10
0.0
 20
0.0
 30
0.0
 70
   128
 71
   1
 72
   132
 73
   131
  0
VERTEX
  8
bowl02
 10
0.0
 20
0.0
 30
0.0
 70
   128
 71
   2
 72
   133
 73
   132
  0
VERTEX
  8
bowl02
 10
0.0
 20
0.0
 30
0.0
 70
   128
 71
   3
 72
   134
 73
   133
  0
VERTEX
  8
bowl02
 10
0.0
 20
0.0
 30
0.0
 70
   128
 71
   4
 72
   135
 73
   134
  0
VERTEX
  8
bowl02
 10
0.0
 20
0.0
 30
0.0
 70
   128
 71
   5
 72
   136
 73
   135
  0
VERTEX
  8
bowl02
 10
0.0
 20
0.0
 30
0.0
 70
   128
 71
   6
 72
   137
 73
   136
  0
VERTEX
  8
bowl02
 10
0.0
 20
0.0
 30
0.0
 70
   128
 71
   7
 72
   138
 73
   137
  0
VERTEX
  8
bowl02
 10
0.0
 20
0.0
 30
0.0
 70
   128
 71
   8
 72
   139
 73
   138
  0
VERTEX
  8
bowl02
 10
0.0
 20
0.0
 30
0.0
 70
   128
 71
   9
 72
   140
 73
   139
  0
VERTEX
  8
bowl02
 10
0.0
 20
0.0
 30
0.0
 70
   128
 71
   10
 72
   141
 73
   140
  0
VERTEX
  8
bowl02
 10
0.0
 20
0.0
 30
0.0
 70
   128
 71
   11
 72
   142
 73
   141
  0
VERTEX
  8
bowl02
 10
0.0
 20
0.0
 30
0.0
 70
   128
 71
   12
 72
   143
 73
   142
  0
VERTEX
  8
bowl02
 10
0.0
 20
0.0
 30
0.0
 70
   128
 71
   27
 72
   53
 73
   40
  0
VERTEX
  8
bowl02
 10
0.0
 20
0.0
 30
0.0
 70
   128
 71
   14
 72
   105
 73
   53
  0
VERTEX
  8
bowl02
 10
0.0
 20
0.0
 30
0.0
 70
   128
 71
   1
 72
   118
 73
   105
  0
VERTEX
  8
bowl02
 10
0.0
 20
0.0
 30
0.0
 70
   128
 71
   105
 72
   79
 73
   53
  0
VERTEX
  8
bowl02
 10
0.0
 20
0.0
 30
0.0
 70
   128
 71
   39
 72
   143
 73
   13
  0
VERTEX
  8
bowl02
 10
0.0
 20
0.0
 30
0.0
 70
   128
 71
   143
 72
   78
 73
   117
  0
VERTEX
  8
bowl02
 10
0.0
 20
0.0
 30
0.0
 70
   128
 71
   78
 72
   104
 73
   117
  0
SEQEND
  0
ENDSEC
  0
EOF
