999
FBX AutoCAD (*.DXF) exporter
  0
SECTION
  2
HEADER
  9
$ACADVER
  1
AC1008
  9
$UCSORG
 10
0.0
 20
0.0
 30
0.0
  9
$UCSXDIR
 10
1.0
 20
0.0
 30
0.0
  9
$TILEMODE
 70
   1
  9
$UCSYDIR
 10
0.0
 20
1.0
 30
0.0
  0
ENDSEC
  0
SECTION
  2
TABLES
  0
TABLE
  2
LTYPE
 70
   1
  0
LTYPE
  2
CONTINUOUS
 70
   64
  3
Solid line
 72
   65
 73
   0
 40
0.0
  0
ENDTAB
  0
TABLE
  2
LAYER
 70
   1
  0
LAYER
  2
candy01
 70
   0
 62
   250
  6
CONTINUOUS
  0
ENDTAB
  0
ENDSEC
  0
SECTION
  2
BLOCKS
  0
ENDSEC
  0
SECTION
  2
ENTITIES
  0
POLYLINE
  8
candy01
 66
   1
 10
0.0
 20
0.0
 30
0.0
 70
   64
 71
   88
 72
   172
  0
VERTEX
  8
candy01
 10
35.331768
 20
136.098964
 30
-5.392779
 70
   192
  0
VERTEX
  8
candy01
 10
35.331768
 20
136.098964
 30
5.392779
 70
   192
  0
VERTEX
  8
candy01
 10
39.129620
 20
70.410296
 30
11.523947
 70
   192
  0
VERTEX
  8
candy01
 10
39.129620
 20
70.410296
 30
-11.523947
 70
   192
  0
VERTEX
  8
candy01
 10
58.837882
 20
119.653669
 30
-4.787136
 70
   192
  0
VERTEX
  8
candy01
 10
44.314337
 20
127.137627
 30
-3.842579
 70
   192
  0
VERTEX
  8
candy01
 10
6.644351
 20
100.958267
 30
20.080830
 70
   192
  0
VERTEX
  8
candy01
 10
32.895971
 20
76.272194
 30
20.080830
 70
   192
  0
VERTEX
  8
candy01
 10
49.967221
 20
100.045248
 30
4.312826
 70
   192
  0
VERTEX
  8
candy01
 10
49.967221
 20
100.045248
 30
-4.312826
 70
   192
  0
VERTEX
  8
candy01
 10
0.410701
 20
106.820165
 30
-11.523947
 70
   192
  0
VERTEX
  8
candy01
 10
0.410701
 20
106.820165
 30
11.523947
 70
   192
  0
VERTEX
  8
candy01
 10
32.895971
 20
76.272194
 30
-20.080830
 70
   192
  0
VERTEX
  8
candy01
 10
6.644351
 20
100.958267
 30
-20.080830
 70
   192
  0
VERTEX
  8
candy01
 10
28.742608
 20
120.907660
 30
-4.428278
 70
   192
  0
VERTEX
  8
candy01
 10
28.742608
 20
120.907660
 30
4.428278
 70
   192
  0
VERTEX
  8
candy01
 10
42.528989
 20
85.444003
 30
8.133045
 70
   192
  0
VERTEX
  8
candy01
 10
42.528989
 20
85.444003
 30
-8.133045
 70
   192
  0
VERTEX
  8
candy01
 10
19.606002
 20
106.999949
 30
14.172079
 70
   192
  0
VERTEX
  8
candy01
 10
38.130260
 20
89.580408
 30
14.172079
 70
   192
  0
VERTEX
  8
candy01
 10
15.207274
 20
111.136354
 30
-8.133045
 70
   192
  0
VERTEX
  8
candy01
 10
15.207274
 20
111.136354
 30
8.133045
 70
   192
  0
VERTEX
  8
candy01
 10
38.130260
 20
89.580408
 30
-14.172079
 70
   192
  0
VERTEX
  8
candy01
 10
19.606002
 20
106.999949
 30
-14.172079
 70
   192
  0
VERTEX
  8
candy01
 10
42.321894
 20
76.828974
 30
10.626405
 70
   192
  0
VERTEX
  8
candy01
 10
42.321894
 20
76.828974
 30
-10.626405
 70
   192
  0
VERTEX
  8
candy01
 10
12.368942
 20
104.995644
 30
18.516836
 70
   192
  0
VERTEX
  8
candy01
 10
36.574174
 20
82.233921
 30
18.516836
 70
   192
  0
VERTEX
  8
candy01
 10
6.621223
 20
110.400591
 30
-10.626405
 70
   192
  0
VERTEX
  8
candy01
 10
6.621223
 20
110.400591
 30
10.626405
 70
   192
  0
VERTEX
  8
candy01
 10
36.574174
 20
82.233921
 30
-18.516836
 70
   192
  0
VERTEX
  8
candy01
 10
12.368942
 20
104.995644
 30
-18.516836
 70
   192
  0
VERTEX
  8
candy01
 10
31.723566
 20
95.605031
 30
3.413632
 70
   192
  0
VERTEX
  8
candy01
 10
31.723566
 20
95.605031
 30
-3.413632
 70
   192
  0
VERTEX
  8
candy01
 10
26.175337
 20
100.822384
 30
3.842579
 70
   192
  0
VERTEX
  8
candy01
 10
31.560925
 20
95.757973
 30
3.842579
 70
   192
  0
VERTEX
  8
candy01
 10
26.012697
 20
100.975326
 30
-3.413632
 70
   192
  0
VERTEX
  8
candy01
 10
26.012697
 20
100.975326
 30
3.413632
 70
   192
  0
VERTEX
  8
candy01
 10
31.560925
 20
95.757973
 30
-3.842579
 70
   192
  0
VERTEX
  8
candy01
 10
26.175337
 20
100.822384
 30
-3.842579
 70
   192
  0
VERTEX
  8
candy01
 10
-31.593763
 20
39.715566
 30
-3.413632
 70
   192
  0
VERTEX
  8
candy01
 10
-31.593763
 20
39.715566
 30
3.413632
 70
   192
  0
VERTEX
  8
candy01
 10
-26.045534
 20
34.498213
 30
-3.842579
 70
   192
  0
VERTEX
  8
candy01
 10
-31.431122
 20
39.562625
 30
-3.842579
 70
   192
  0
VERTEX
  8
candy01
 10
-35.756154
 20
0.000000
 30
5.167583
 70
   192
  0
VERTEX
  8
candy01
 10
-35.756154
 20
0.000000
 30
-5.167583
 70
   192
  0
VERTEX
  8
candy01
 10
-56.582760
 20
19.841813
 30
3.842579
 70
   192
  0
VERTEX
  8
candy01
 10
-48.221021
 20
5.805279
 30
4.787136
 70
   192
  0
VERTEX
  8
candy01
 10
65.397685
 20
107.568837
 30
5.167583
 70
   192
  0
VERTEX
  8
candy01
 10
65.397685
 20
107.568837
 30
-5.167583
 70
   192
  0
VERTEX
  8
candy01
 10
44.314337
 20
127.137627
 30
3.842579
 70
   192
  0
VERTEX
  8
candy01
 10
58.837882
 20
119.653669
 30
4.787136
 70
   192
  0
VERTEX
  8
candy01
 10
-66.078813
 20
28.257103
 30
-5.392779
 70
   192
  0
VERTEX
  8
candy01
 10
-66.078813
 20
28.257103
 30
5.392779
 70
   192
  0
VERTEX
  8
candy01
 10
-0.280898
 20
28.500432
 30
11.523947
 70
   192
  0
VERTEX
  8
candy01
 10
-0.280898
 20
28.500432
 30
-11.523947
 70
   192
  0
VERTEX
  8
candy01
 10
-48.221021
 20
5.805279
 30
-4.787136
 70
   192
  0
VERTEX
  8
candy01
 10
-56.582760
 20
19.841813
 30
-3.842579
 70
   192
  0
VERTEX
  8
candy01
 10
-32.766167
 20
59.048403
 30
20.080830
 70
   192
  0
VERTEX
  8
candy01
 10
-6.514548
 20
34.362330
 30
20.080830
 70
   192
  0
VERTEX
  8
candy01
 10
-29.194367
 20
15.863372
 30
4.312826
 70
   192
  0
VERTEX
  8
candy01
 10
-29.194367
 20
15.863372
 30
-4.312826
 70
   192
  0
VERTEX
  8
candy01
 10
-38.999817
 20
64.910301
 30
-11.523947
 70
   192
  0
VERTEX
  8
candy01
 10
-38.999817
 20
64.910301
 30
11.523947
 70
   192
  0
VERTEX
  8
candy01
 10
-6.514548
 20
34.362330
 30
-20.080830
 70
   192
  0
VERTEX
  8
candy01
 10
-32.766167
 20
59.048403
 30
-20.080830
 70
   192
  0
VERTEX
  8
candy01
 10
-51.320829
 20
35.766741
 30
-4.428278
 70
   192
  0
VERTEX
  8
candy01
 10
-51.320829
 20
35.766741
 30
4.428278
 70
   192
  0
VERTEX
  8
candy01
 10
-15.077471
 20
24.184243
 30
8.133045
 70
   192
  0
VERTEX
  8
candy01
 10
-15.077471
 20
24.184243
 30
-8.133045
 70
   192
  0
VERTEX
  8
candy01
 10
-38.000457
 20
45.740190
 30
14.172079
 70
   192
  0
VERTEX
  8
candy01
 10
-19.476199
 20
28.320648
 30
14.172079
 70
   192
  0
VERTEX
  8
candy01
 10
-42.399185
 20
49.876594
 30
-8.133045
 70
   192
  0
VERTEX
  8
candy01
 10
-42.399185
 20
49.876594
 30
8.133045
 70
   192
  0
VERTEX
  8
candy01
 10
-19.476199
 20
28.320648
 30
-14.172079
 70
   192
  0
VERTEX
  8
candy01
 10
-38.000457
 20
45.740190
 30
-14.172079
 70
   192
  0
VERTEX
  8
candy01
 10
-6.491420
 20
24.920006
 30
10.626405
 70
   192
  0
VERTEX
  8
candy01
 10
-6.491420
 20
24.920006
 30
-10.626405
 70
   192
  0
VERTEX
  8
candy01
 10
-36.444371
 20
53.086677
 30
18.516836
 70
   192
  0
VERTEX
  8
candy01
 10
-12.239139
 20
30.324953
 30
18.516836
 70
   192
  0
VERTEX
  8
candy01
 10
-42.192090
 20
58.491624
 30
-10.626405
 70
   192
  0
VERTEX
  8
candy01
 10
-42.192090
 20
58.491624
 30
10.626405
 70
   192
  0
VERTEX
  8
candy01
 10
-12.239139
 20
30.324953
 30
-18.516836
 70
   192
  0
VERTEX
  8
candy01
 10
-36.444371
 20
53.086677
 30
-18.516836
 70
   192
  0
VERTEX
  8
candy01
 10
-25.882894
 20
34.345272
 30
3.413632
 70
   192
  0
VERTEX
  8
candy01
 10
-25.882894
 20
34.345272
 30
-3.413632
 70
   192
  0
VERTEX
  8
candy01
 10
-31.431122
 20
39.562625
 30
3.842579
 70
   192
  0
VERTEX
  8
candy01
 10
-26.045534
 20
34.498213
 30
3.842579
 70
   192
  0
VERTEX
  8
candy01
 10
0.0
 20
0.0
 30
0.0
 70
   128
 71
   7
 72
   8
 73
   60
  0
VERTEX
  8
candy01
 10
0.0
 20
0.0
 30
0.0
 70
   128
 71
   6
 72
   1
 73
   15
  0
VERTEX
  8
candy01
 10
0.0
 20
0.0
 30
0.0
 70
   128
 71
   13
 72
   14
 73
   66
  0
VERTEX
  8
candy01
 10
0.0
 20
0.0
 30
0.0
 70
   128
 71
   37
 72
   15
 73
   16
  0
VERTEX
  8
candy01
 10
0.0
 20
0.0
 30
0.0
 70
   128
 71
   11
 72
   12
 73
   64
  0
VERTEX
  8
candy01
 10
0.0
 20
0.0
 30
0.0
 70
   128
 71
   3
 72
   4
 73
   56
  0
VERTEX
  8
candy01
 10
0.0
 20
0.0
 30
0.0
 70
   128
 71
   16
 72
   2
 73
   51
  0
VERTEX
  8
candy01
 10
0.0
 20
0.0
 30
0.0
 70
   128
 71
   35
 72
   51
 73
   52
  0
VERTEX
  8
candy01
 10
0.0
 20
0.0
 30
0.0
 70
   128
 71
   52
 72
   49
 73
   9
  0
VERTEX
  8
candy01
 10
0.0
 20
0.0
 30
0.0
 70
   128
 71
   1
 72
   6
 73
   51
  0
VERTEX
  8
candy01
 10
0.0
 20
0.0
 30
0.0
 70
   128
 71
   12
 72
   7
 73
   59
  0
VERTEX
  8
candy01
 10
0.0
 20
0.0
 30
0.0
 70
   128
 71
   51
 72
   6
 73
   5
  0
VERTEX
  8
candy01
 10
0.0
 20
0.0
 30
0.0
 70
   128
 71
   5
 72
   50
 73
   49
  0
VERTEX
  8
candy01
 10
0.0
 20
0.0
 30
0.0
 70
   128
 71
   9
 72
   49
 73
   50
  0
VERTEX
  8
candy01
 10
0.0
 20
0.0
 30
0.0
 70
   128
 71
   3
 72
   25
 73
   26
  0
VERTEX
  8
candy01
 10
0.0
 20
0.0
 30
0.0
 70
   128
 71
   26
 72
   18
 73
   23
  0
VERTEX
  8
candy01
 10
0.0
 20
0.0
 30
0.0
 70
   128
 71
   13
 72
   31
 73
   32
  0
VERTEX
  8
candy01
 10
0.0
 20
0.0
 30
0.0
 70
   128
 71
   32
 72
   24
 73
   21
  0
VERTEX
  8
candy01
 10
0.0
 20
0.0
 30
0.0
 70
   128
 71
   11
 72
   29
 73
   30
  0
VERTEX
  8
candy01
 10
0.0
 20
0.0
 30
0.0
 70
   128
 71
   30
 72
   22
 73
   19
  0
VERTEX
  8
candy01
 10
0.0
 20
0.0
 30
0.0
 70
   128
 71
   7
 72
   27
 73
   28
  0
VERTEX
  8
candy01
 10
0.0
 20
0.0
 30
0.0
 70
   128
 71
   28
 72
   20
 73
   17
  0
VERTEX
  8
candy01
 10
0.0
 20
0.0
 30
0.0
 70
   128
 71
   5
 72
   39
 73
   34
  0
VERTEX
  8
candy01
 10
0.0
 20
0.0
 30
0.0
 70
   128
 71
   9
 72
   33
 73
   36
  0
VERTEX
  8
candy01
 10
0.0
 20
0.0
 30
0.0
 70
   128
 71
   15
 72
   37
 73
   40
  0
VERTEX
  8
candy01
 10
0.0
 20
0.0
 30
0.0
 70
   128
 71
   15
 72
   1
 73
   2
  0
VERTEX
  8
candy01
 10
0.0
 20
0.0
 30
0.0
 70
   128
 71
   51
 72
   35
 73
   38
  0
VERTEX
  8
candy01
 10
0.0
 20
0.0
 30
0.0
 70
   128
 71
   25
 72
   17
 73
   18
  0
VERTEX
  8
candy01
 10
0.0
 20
0.0
 30
0.0
 70
   128
 71
   31
 72
   13
 73
   4
  0
VERTEX
  8
candy01
 10
0.0
 20
0.0
 30
0.0
 70
   128
 71
   31
 72
   23
 73
   24
  0
VERTEX
  8
candy01
 10
0.0
 20
0.0
 30
0.0
 70
   128
 71
   17
 72
   33
 73
   34
  0
VERTEX
  8
candy01
 10
0.0
 20
0.0
 30
0.0
 70
   128
 71
   18
 72
   34
 73
   39
  0
VERTEX
  8
candy01
 10
0.0
 20
0.0
 30
0.0
 70
   128
 71
   23
 72
   39
 73
   40
  0
VERTEX
  8
candy01
 10
0.0
 20
0.0
 30
0.0
 70
   128
 71
   24
 72
   40
 73
   37
  0
VERTEX
  8
candy01
 10
0.0
 20
0.0
 30
0.0
 70
   128
 71
   21
 72
   37
 73
   38
  0
VERTEX
  8
candy01
 10
0.0
 20
0.0
 30
0.0
 70
   128
 71
   22
 72
   38
 73
   35
  0
VERTEX
  8
candy01
 10
0.0
 20
0.0
 30
0.0
 70
   128
 71
   19
 72
   35
 73
   36
  0
VERTEX
  8
candy01
 10
0.0
 20
0.0
 30
0.0
 70
   128
 71
   20
 72
   36
 73
   33
  0
VERTEX
  8
candy01
 10
0.0
 20
0.0
 30
0.0
 70
   128
 71
   29
 72
   11
 73
   14
  0
VERTEX
  8
candy01
 10
0.0
 20
0.0
 30
0.0
 70
   128
 71
   29
 72
   21
 73
   22
  0
VERTEX
  8
candy01
 10
0.0
 20
0.0
 30
0.0
 70
   128
 71
   27
 72
   7
 73
   12
  0
VERTEX
  8
candy01
 10
0.0
 20
0.0
 30
0.0
 70
   128
 71
   27
 72
   19
 73
   20
  0
VERTEX
  8
candy01
 10
0.0
 20
0.0
 30
0.0
 70
   128
 71
   25
 72
   3
 73
   8
  0
VERTEX
  8
candy01
 10
0.0
 20
0.0
 30
0.0
 70
   128
 71
   8
 72
   3
 73
   55
  0
VERTEX
  8
candy01
 10
0.0
 20
0.0
 30
0.0
 70
   128
 71
   14
 72
   11
 73
   63
  0
VERTEX
  8
candy01
 10
0.0
 20
0.0
 30
0.0
 70
   128
 71
   4
 72
   13
 73
   65
  0
VERTEX
  8
candy01
 10
0.0
 20
0.0
 30
0.0
 70
   128
 71
   33
 72
   9
 73
   10
  0
VERTEX
  8
candy01
 10
0.0
 20
0.0
 30
0.0
 70
   128
 71
   10
 72
   50
 73
   5
  0
VERTEX
  8
candy01
 10
0.0
 20
0.0
 30
0.0
 70
   128
 71
   39
 72
   5
 73
   6
  0
VERTEX
  8
candy01
 10
0.0
 20
0.0
 30
0.0
 70
   128
 71
   77
 72
   80
 73
   60
  0
VERTEX
  8
candy01
 10
0.0
 20
0.0
 30
0.0
 70
   128
 71
   58
 72
   67
 73
   53
  0
VERTEX
  8
candy01
 10
0.0
 20
0.0
 30
0.0
 70
   128
 71
   79
 72
   80
 73
   72
  0
VERTEX
  8
candy01
 10
0.0
 20
0.0
 30
0.0
 70
   128
 71
   41
 72
   42
 73
   68
  0
VERTEX
  8
candy01
 10
0.0
 20
0.0
 30
0.0
 70
   128
 71
   85
 72
   86
 73
   62
  0
VERTEX
  8
candy01
 10
0.0
 20
0.0
 30
0.0
 70
   128
 71
   62
 72
   57
 73
   46
  0
VERTEX
  8
candy01
 10
0.0
 20
0.0
 30
0.0
 70
   128
 71
   68
 72
   47
 73
   54
  0
VERTEX
  8
candy01
 10
0.0
 20
0.0
 30
0.0
 70
   128
 71
   87
 72
   88
 73
   48
  0
VERTEX
  8
candy01
 10
0.0
 20
0.0
 30
0.0
 70
   128
 71
   48
 72
   61
 73
   45
  0
VERTEX
  8
candy01
 10
0.0
 20
0.0
 30
0.0
 70
   128
 71
   53
 72
   54
 73
   47
  0
VERTEX
  8
candy01
 10
0.0
 20
0.0
 30
0.0
 70
   128
 71
   43
 72
   44
 73
   58
  0
VERTEX
  8
candy01
 10
0.0
 20
0.0
 30
0.0
 70
   128
 71
   47
 72
   48
 73
   57
  0
VERTEX
  8
candy01
 10
0.0
 20
0.0
 30
0.0
 70
   128
 71
   57
 72
   48
 73
   45
  0
VERTEX
  8
candy01
 10
0.0
 20
0.0
 30
0.0
 70
   128
 71
   61
 72
   62
 73
   46
  0
VERTEX
  8
candy01
 10
0.0
 20
0.0
 30
0.0
 70
   128
 71
   55
 72
   56
 73
   78
  0
VERTEX
  8
candy01
 10
0.0
 20
0.0
 30
0.0
 70
   128
 71
   78
 72
   83
 73
   75
  0
VERTEX
  8
candy01
 10
0.0
 20
0.0
 30
0.0
 70
   128
 71
   65
 72
   66
 73
   84
  0
VERTEX
  8
candy01
 10
0.0
 20
0.0
 30
0.0
 70
   128
 71
   84
 72
   81
 73
   73
  0
VERTEX
  8
candy01
 10
0.0
 20
0.0
 30
0.0
 70
   128
 71
   63
 72
   64
 73
   82
  0
VERTEX
  8
candy01
 10
0.0
 20
0.0
 30
0.0
 70
   128
 71
   82
 72
   79
 73
   71
  0
VERTEX
  8
candy01
 10
0.0
 20
0.0
 30
0.0
 70
   128
 71
   59
 72
   60
 73
   80
  0
VERTEX
  8
candy01
 10
0.0
 20
0.0
 30
0.0
 70
   128
 71
   80
 72
   77
 73
   69
  0
VERTEX
  8
candy01
 10
0.0
 20
0.0
 30
0.0
 70
   128
 71
   57
 72
   62
 73
   86
  0
VERTEX
  8
candy01
 10
0.0
 20
0.0
 30
0.0
 70
   128
 71
   61
 72
   48
 73
   88
  0
VERTEX
  8
candy01
 10
0.0
 20
0.0
 30
0.0
 70
   128
 71
   67
 72
   58
 73
   44
  0
VERTEX
  8
candy01
 10
0.0
 20
0.0
 30
0.0
 70
   128
 71
   67
 72
   68
 73
   54
  0
VERTEX
  8
candy01
 10
0.0
 20
0.0
 30
0.0
 70
   128
 71
   47
 72
   68
 73
   42
  0
VERTEX
  8
candy01
 10
0.0
 20
0.0
 30
0.0
 70
   128
 71
   77
 72
   78
 73
   70
  0
VERTEX
  8
candy01
 10
0.0
 20
0.0
 30
0.0
 70
   128
 71
   83
 72
   78
 73
   56
  0
VERTEX
  8
candy01
 10
0.0
 20
0.0
 30
0.0
 70
   128
 71
   83
 72
   84
 73
   76
  0
VERTEX
  8
candy01
 10
0.0
 20
0.0
 30
0.0
 70
   128
 71
   69
 72
   70
 73
   86
  0
VERTEX
  8
candy01
 10
0.0
 20
0.0
 30
0.0
 70
   128
 71
   70
 72
   75
 73
   43
  0
VERTEX
  8
candy01
 10
0.0
 20
0.0
 30
0.0
 70
   128
 71
   75
 72
   76
 73
   44
  0
VERTEX
  8
candy01
 10
0.0
 20
0.0
 30
0.0
 70
   128
 71
   76
 72
   73
 73
   41
  0
VERTEX
  8
candy01
 10
0.0
 20
0.0
 30
0.0
 70
   128
 71
   73
 72
   74
 73
   42
  0
VERTEX
  8
candy01
 10
0.0
 20
0.0
 30
0.0
 70
   128
 71
   74
 72
   71
 73
   87
  0
VERTEX
  8
candy01
 10
0.0
 20
0.0
 30
0.0
 70
   128
 71
   71
 72
   72
 73
   88
  0
VERTEX
  8
candy01
 10
0.0
 20
0.0
 30
0.0
 70
   128
 71
   72
 72
   69
 73
   85
  0
VERTEX
  8
candy01
 10
0.0
 20
0.0
 30
0.0
 70
   128
 71
   81
 72
   84
 73
   66
  0
VERTEX
  8
candy01
 10
0.0
 20
0.0
 30
0.0
 70
   128
 71
   81
 72
   82
 73
   74
  0
VERTEX
  8
candy01
 10
0.0
 20
0.0
 30
0.0
 70
   128
 71
   79
 72
   82
 73
   64
  0
VERTEX
  8
candy01
 10
0.0
 20
0.0
 30
0.0
 70
   128
 71
   7
 72
   60
 73
   59
  0
VERTEX
  8
candy01
 10
0.0
 20
0.0
 30
0.0
 70
   128
 71
   13
 72
   66
 73
   65
  0
VERTEX
  8
candy01
 10
0.0
 20
0.0
 30
0.0
 70
   128
 71
   37
 72
   16
 73
   38
  0
VERTEX
  8
candy01
 10
0.0
 20
0.0
 30
0.0
 70
   128
 71
   11
 72
   64
 73
   63
  0
VERTEX
  8
candy01
 10
0.0
 20
0.0
 30
0.0
 70
   128
 71
   3
 72
   56
 73
   55
  0
VERTEX
  8
candy01
 10
0.0
 20
0.0
 30
0.0
 70
   128
 71
   35
 72
   52
 73
   36
  0
VERTEX
  8
candy01
 10
0.0
 20
0.0
 30
0.0
 70
   128
 71
   1
 72
   51
 73
   2
  0
VERTEX
  8
candy01
 10
0.0
 20
0.0
 30
0.0
 70
   128
 71
   12
 72
   59
 73
   64
  0
VERTEX
  8
candy01
 10
0.0
 20
0.0
 30
0.0
 70
   128
 71
   51
 72
   5
 73
   52
  0
VERTEX
  8
candy01
 10
0.0
 20
0.0
 30
0.0
 70
   128
 71
   5
 72
   49
 73
   52
  0
VERTEX
  8
candy01
 10
0.0
 20
0.0
 30
0.0
 70
   128
 71
   9
 72
   50
 73
   10
  0
VERTEX
  8
candy01
 10
0.0
 20
0.0
 30
0.0
 70
   128
 71
   3
 72
   26
 73
   4
  0
VERTEX
  8
candy01
 10
0.0
 20
0.0
 30
0.0
 70
   128
 71
   26
 72
   23
 73
   31
  0
VERTEX
  8
candy01
 10
0.0
 20
0.0
 30
0.0
 70
   128
 71
   13
 72
   32
 73
   14
  0
VERTEX
  8
candy01
 10
0.0
 20
0.0
 30
0.0
 70
   128
 71
   32
 72
   21
 73
   29
  0
VERTEX
  8
candy01
 10
0.0
 20
0.0
 30
0.0
 70
   128
 71
   11
 72
   30
 73
   12
  0
VERTEX
  8
candy01
 10
0.0
 20
0.0
 30
0.0
 70
   128
 71
   30
 72
   19
 73
   27
  0
VERTEX
  8
candy01
 10
0.0
 20
0.0
 30
0.0
 70
   128
 71
   7
 72
   28
 73
   8
  0
VERTEX
  8
candy01
 10
0.0
 20
0.0
 30
0.0
 70
   128
 71
   28
 72
   17
 73
   25
  0
VERTEX
  8
candy01
 10
0.0
 20
0.0
 30
0.0
 70
   128
 71
   5
 72
   34
 73
   10
  0
VERTEX
  8
candy01
 10
0.0
 20
0.0
 30
0.0
 70
   128
 71
   9
 72
   36
 73
   52
  0
VERTEX
  8
candy01
 10
0.0
 20
0.0
 30
0.0
 70
   128
 71
   15
 72
   40
 73
   6
  0
VERTEX
  8
candy01
 10
0.0
 20
0.0
 30
0.0
 70
   128
 71
   15
 72
   2
 73
   16
  0
VERTEX
  8
candy01
 10
0.0
 20
0.0
 30
0.0
 70
   128
 71
   51
 72
   38
 73
   16
  0
VERTEX
  8
candy01
 10
0.0
 20
0.0
 30
0.0
 70
   128
 71
   25
 72
   18
 73
   26
  0
VERTEX
  8
candy01
 10
0.0
 20
0.0
 30
0.0
 70
   128
 71
   31
 72
   4
 73
   26
  0
VERTEX
  8
candy01
 10
0.0
 20
0.0
 30
0.0
 70
   128
 71
   31
 72
   24
 73
   32
  0
VERTEX
  8
candy01
 10
0.0
 20
0.0
 30
0.0
 70
   128
 71
   17
 72
   34
 73
   18
  0
VERTEX
  8
candy01
 10
0.0
 20
0.0
 30
0.0
 70
   128
 71
   18
 72
   39
 73
   23
  0
VERTEX
  8
candy01
 10
0.0
 20
0.0
 30
0.0
 70
   128
 71
   23
 72
   40
 73
   24
  0
VERTEX
  8
candy01
 10
0.0
 20
0.0
 30
0.0
 70
   128
 71
   24
 72
   37
 73
   21
  0
VERTEX
  8
candy01
 10
0.0
 20
0.0
 30
0.0
 70
   128
 71
   21
 72
   38
 73
   22
  0
VERTEX
  8
candy01
 10
0.0
 20
0.0
 30
0.0
 70
   128
 71
   22
 72
   35
 73
   19
  0
VERTEX
  8
candy01
 10
0.0
 20
0.0
 30
0.0
 70
   128
 71
   19
 72
   36
 73
   20
  0
VERTEX
  8
candy01
 10
0.0
 20
0.0
 30
0.0
 70
   128
 71
   20
 72
   33
 73
   17
  0
VERTEX
  8
candy01
 10
0.0
 20
0.0
 30
0.0
 70
   128
 71
   29
 72
   14
 73
   32
  0
VERTEX
  8
candy01
 10
0.0
 20
0.0
 30
0.0
 70
   128
 71
   29
 72
   22
 73
   30
  0
VERTEX
  8
candy01
 10
0.0
 20
0.0
 30
0.0
 70
   128
 71
   27
 72
   12
 73
   30
  0
VERTEX
  8
candy01
 10
0.0
 20
0.0
 30
0.0
 70
   128
 71
   27
 72
   20
 73
   28
  0
VERTEX
  8
candy01
 10
0.0
 20
0.0
 30
0.0
 70
   128
 71
   25
 72
   8
 73
   28
  0
VERTEX
  8
candy01
 10
0.0
 20
0.0
 30
0.0
 70
   128
 71
   8
 72
   55
 73
   60
  0
VERTEX
  8
candy01
 10
0.0
 20
0.0
 30
0.0
 70
   128
 71
   14
 72
   63
 73
   66
  0
VERTEX
  8
candy01
 10
0.0
 20
0.0
 30
0.0
 70
   128
 71
   4
 72
   65
 73
   56
  0
VERTEX
  8
candy01
 10
0.0
 20
0.0
 30
0.0
 70
   128
 71
   33
 72
   10
 73
   34
  0
VERTEX
  8
candy01
 10
0.0
 20
0.0
 30
0.0
 70
   128
 71
   39
 72
   6
 73
   40
  0
VERTEX
  8
candy01
 10
0.0
 20
0.0
 30
0.0
 70
   128
 71
   77
 72
   60
 73
   55
  0
VERTEX
  8
candy01
 10
0.0
 20
0.0
 30
0.0
 70
   128
 71
   79
 72
   72
 73
   71
  0
VERTEX
  8
candy01
 10
0.0
 20
0.0
 30
0.0
 70
   128
 71
   41
 72
   68
 73
   67
  0
VERTEX
  8
candy01
 10
0.0
 20
0.0
 30
0.0
 70
   128
 71
   85
 72
   62
 73
   61
  0
VERTEX
  8
candy01
 10
0.0
 20
0.0
 30
0.0
 70
   128
 71
   87
 72
   48
 73
   47
  0
VERTEX
  8
candy01
 10
0.0
 20
0.0
 30
0.0
 70
   128
 71
   53
 72
   47
 73
   58
  0
VERTEX
  8
candy01
 10
0.0
 20
0.0
 30
0.0
 70
   128
 71
   43
 72
   58
 73
   57
  0
VERTEX
  8
candy01
 10
0.0
 20
0.0
 30
0.0
 70
   128
 71
   47
 72
   57
 73
   58
  0
VERTEX
  8
candy01
 10
0.0
 20
0.0
 30
0.0
 70
   128
 71
   57
 72
   45
 73
   46
  0
VERTEX
  8
candy01
 10
0.0
 20
0.0
 30
0.0
 70
   128
 71
   61
 72
   46
 73
   45
  0
VERTEX
  8
candy01
 10
0.0
 20
0.0
 30
0.0
 70
   128
 71
   55
 72
   78
 73
   77
  0
VERTEX
  8
candy01
 10
0.0
 20
0.0
 30
0.0
 70
   128
 71
   78
 72
   75
 73
   70
  0
VERTEX
  8
candy01
 10
0.0
 20
0.0
 30
0.0
 70
   128
 71
   65
 72
   84
 73
   83
  0
VERTEX
  8
candy01
 10
0.0
 20
0.0
 30
0.0
 70
   128
 71
   84
 72
   73
 73
   76
  0
VERTEX
  8
candy01
 10
0.0
 20
0.0
 30
0.0
 70
   128
 71
   63
 72
   82
 73
   81
  0
VERTEX
  8
candy01
 10
0.0
 20
0.0
 30
0.0
 70
   128
 71
   82
 72
   71
 73
   74
  0
VERTEX
  8
candy01
 10
0.0
 20
0.0
 30
0.0
 70
   128
 71
   59
 72
   80
 73
   79
  0
VERTEX
  8
candy01
 10
0.0
 20
0.0
 30
0.0
 70
   128
 71
   80
 72
   69
 73
   72
  0
VERTEX
  8
candy01
 10
0.0
 20
0.0
 30
0.0
 70
   128
 71
   57
 72
   86
 73
   43
  0
VERTEX
  8
candy01
 10
0.0
 20
0.0
 30
0.0
 70
   128
 71
   61
 72
   88
 73
   85
  0
VERTEX
  8
candy01
 10
0.0
 20
0.0
 30
0.0
 70
   128
 71
   67
 72
   44
 73
   41
  0
VERTEX
  8
candy01
 10
0.0
 20
0.0
 30
0.0
 70
   128
 71
   67
 72
   54
 73
   53
  0
VERTEX
  8
candy01
 10
0.0
 20
0.0
 30
0.0
 70
   128
 71
   47
 72
   42
 73
   87
  0
VERTEX
  8
candy01
 10
0.0
 20
0.0
 30
0.0
 70
   128
 71
   77
 72
   70
 73
   69
  0
VERTEX
  8
candy01
 10
0.0
 20
0.0
 30
0.0
 70
   128
 71
   83
 72
   56
 73
   65
  0
VERTEX
  8
candy01
 10
0.0
 20
0.0
 30
0.0
 70
   128
 71
   83
 72
   76
 73
   75
  0
VERTEX
  8
candy01
 10
0.0
 20
0.0
 30
0.0
 70
   128
 71
   69
 72
   86
 73
   85
  0
VERTEX
  8
candy01
 10
0.0
 20
0.0
 30
0.0
 70
   128
 71
   70
 72
   43
 73
   86
  0
VERTEX
  8
candy01
 10
0.0
 20
0.0
 30
0.0
 70
   128
 71
   75
 72
   44
 73
   43
  0
VERTEX
  8
candy01
 10
0.0
 20
0.0
 30
0.0
 70
   128
 71
   76
 72
   41
 73
   44
  0
VERTEX
  8
candy01
 10
0.0
 20
0.0
 30
0.0
 70
   128
 71
   73
 72
   42
 73
   41
  0
VERTEX
  8
candy01
 10
0.0
 20
0.0
 30
0.0
 70
   128
 71
   74
 72
   87
 73
   42
  0
VERTEX
  8
candy01
 10
0.0
 20
0.0
 30
0.0
 70
   128
 71
   71
 72
   88
 73
   87
  0
VERTEX
  8
candy01
 10
0.0
 20
0.0
 30
0.0
 70
   128
 71
   72
 72
   85
 73
   88
  0
VERTEX
  8
candy01
 10
0.0
 20
0.0
 30
0.0
 70
   128
 71
   81
 72
   66
 73
   63
  0
VERTEX
  8
candy01
 10
0.0
 20
0.0
 30
0.0
 70
   128
 71
   81
 72
   74
 73
   73
  0
VERTEX
  8
candy01
 10
0.0
 20
0.0
 30
0.0
 70
   128
 71
   79
 72
   64
 73
   59
  0
SEQEND
  0
ENDSEC
  0
EOF
