999
FBX AutoCAD (*.DXF) exporter
  0
SECTION
  2
HEADER
  9
$ACADVER
  1
AC1008
  9
$UCSORG
 10
0.0
 20
0.0
 30
0.0
  9
$UCSXDIR
 10
1.0
 20
0.0
 30
0.0
  9
$TILEMODE
 70
   1
  9
$UCSYDIR
 10
0.0
 20
1.0
 30
0.0
  0
ENDSEC
  0
SECTION
  2
TABLES
  0
TABLE
  2
LTYPE
 70
   1
  0
LTYPE
  2
CONTINUOUS
 70
   64
  3
Solid line
 72
   65
 73
   0
 40
0.0
  0
ENDTAB
  0
TABLE
  2
LAYER
 70
   1
  0
LAYER
  2
waffle
 70
   0
 62
   250
  6
CONTINUOUS
  0
ENDTAB
  0
ENDSEC
  0
SECTION
  2
BLOCKS
  0
ENDSEC
  0
SECTION
  2
ENTITIES
  0
POLYLINE
  8
waffle
 66
   1
 10
0.0
 20
0.0
 30
0.0
 70
   64
 71
   160
 72
   316
  0
VERTEX
  8
waffle
 10
-14.973640
 20
9.473604
 30
-37.820443
 70
   192
  0
VERTEX
  8
waffle
 10
78.589522
 20
-0.000000
 30
79.418720
 70
   192
  0
VERTEX
  8
waffle
 10
14.981723
 20
9.473604
 30
-37.703120
 70
   192
  0
VERTEX
  8
waffle
 10
-79.625423
 20
-0.000000
 30
78.799056
 70
   192
  0
VERTEX
  8
waffle
 10
15.099046
 20
9.473604
 30
-67.659172
 70
   192
  0
VERTEX
  8
waffle
 10
-79.005759
 20
-0.000000
 30
-79.419530
 70
   192
  0
VERTEX
  8
waffle
 10
-14.856317
 20
9.473604
 30
-67.776495
 70
   192
  0
VERTEX
  8
waffle
 10
79.209186
 20
-0.000000
 30
-78.799866
 70
   192
  0
VERTEX
  8
waffle
 10
82.851775
 20
30.865649
 30
84.012780
 70
   192
  0
VERTEX
  8
waffle
 10
82.871245
 20
33.735740
 30
84.012818
 70
   192
  0
VERTEX
  8
waffle
 10
-83.497122
 20
31.994131
 30
83.361259
 70
   192
  0
VERTEX
  8
waffle
 10
-19.232209
 20
61.357536
 30
-72.540954
 70
   192
  0
VERTEX
  8
waffle
 10
-82.841601
 20
31.991908
 30
-84.012755
 70
   192
  0
VERTEX
  8
waffle
 10
20.216050
 20
61.357536
 30
-72.386451
 70
   192
  0
VERTEX
  8
waffle
 10
83.507296
 20
30.863426
 30
-83.361234
 70
   192
  0
VERTEX
  8
waffle
 10
83.526766
 20
33.733516
 30
-83.361196
 70
   192
  0
VERTEX
  8
waffle
 10
68.007738
 20
51.883932
 30
-37.496002
 70
   192
  0
VERTEX
  8
waffle
 10
19.854993
 20
61.357536
 30
19.802245
 70
   192
  0
VERTEX
  8
waffle
 10
-19.593267
 20
61.357536
 30
19.647742
 70
   192
  0
VERTEX
  8
waffle
 10
-19.438764
 20
61.357536
 30
-19.801425
 70
   192
  0
VERTEX
  8
waffle
 10
20.009496
 20
61.357536
 30
-19.646922
 70
   192
  0
VERTEX
  8
waffle
 10
38.052375
 20
51.883932
 30
-37.613325
 70
   192
  0
VERTEX
  8
waffle
 10
-83.477652
 20
34.864221
 30
83.361297
 70
   192
  0
VERTEX
  8
waffle
 10
20.061548
 20
61.357536
 30
-32.937283
 70
   192
  0
VERTEX
  8
waffle
 10
-19.386712
 20
61.357536
 30
-33.091786
 70
   192
  0
VERTEX
  8
waffle
 10
37.756589
 20
51.883932
 30
37.909680
 70
   192
  0
VERTEX
  8
waffle
 10
67.711952
 20
51.883932
 30
38.027003
 70
   192
  0
VERTEX
  8
waffle
 10
67.594629
 20
51.883932
 30
67.983055
 70
   192
  0
VERTEX
  8
waffle
 10
37.639266
 20
51.883932
 30
67.865732
 70
   192
  0
VERTEX
  8
waffle
 10
-67.424255
 20
51.883932
 30
-38.026434
 70
   192
  0
VERTEX
  8
waffle
 10
-67.306932
 20
51.883932
 30
-67.982487
 70
   192
  0
VERTEX
  8
waffle
 10
-82.822131
 20
34.861997
 30
-84.012717
 70
   192
  0
VERTEX
  8
waffle
 10
-33.351607
 20
-0.000000
 30
32.885237
 70
   192
  0
VERTEX
  8
waffle
 10
-72.799867
 20
-0.000000
 30
32.730734
 70
   192
  0
VERTEX
  8
waffle
 10
-72.954370
 20
-0.000000
 30
72.179901
 70
   192
  0
VERTEX
  8
waffle
 10
-33.506110
 20
-0.000000
 30
72.334404
 70
   192
  0
VERTEX
  8
waffle
 10
72.383630
 20
-0.000000
 30
-32.731544
 70
   192
  0
VERTEX
  8
waffle
 10
72.538133
 20
-0.000000
 30
-72.180711
 70
   192
  0
VERTEX
  8
waffle
 10
33.089873
 20
-0.000000
 30
-72.335214
 70
   192
  0
VERTEX
  8
waffle
 10
32.935370
 20
-0.000000
 30
-32.886047
 70
   192
  0
VERTEX
  8
waffle
 10
-72.593312
 20
-0.000000
 30
-20.008795
 70
   192
  0
VERTEX
  8
waffle
 10
-72.747815
 20
-0.000000
 30
19.440373
 70
   192
  0
VERTEX
  8
waffle
 10
-33.299555
 20
-0.000000
 30
19.594876
 70
   192
  0
VERTEX
  8
waffle
 10
-33.145052
 20
-0.000000
 30
-19.854292
 70
   192
  0
VERTEX
  8
waffle
 10
32.522261
 20
-0.000000
 30
72.593011
 70
   192
  0
VERTEX
  8
waffle
 10
71.970521
 20
-0.000000
 30
72.747513
 70
   192
  0
VERTEX
  8
waffle
 10
72.125023
 20
-0.000000
 30
33.298346
 70
   192
  0
VERTEX
  8
waffle
 10
32.676764
 20
-0.000000
 30
33.143843
 70
   192
  0
VERTEX
  8
waffle
 10
-32.938498
 20
-0.000000
 30
-72.593821
 70
   192
  0
VERTEX
  8
waffle
 10
-72.386757
 20
-0.000000
 30
-72.748323
 70
   192
  0
VERTEX
  8
waffle
 10
-72.541260
 20
-0.000000
 30
-33.299156
 70
   192
  0
VERTEX
  8
waffle
 10
-33.093001
 20
-0.000000
 30
-33.144653
 70
   192
  0
VERTEX
  8
waffle
 10
32.728815
 20
-0.000000
 30
19.853482
 70
   192
  0
VERTEX
  8
waffle
 10
72.177075
 20
-0.000000
 30
20.007985
 70
   192
  0
VERTEX
  8
waffle
 10
72.331578
 20
-0.000000
 30
-19.441183
 70
   192
  0
VERTEX
  8
waffle
 10
32.883318
 20
-0.000000
 30
-19.595685
 70
   192
  0
VERTEX
  8
waffle
 10
-20.216054
 20
-0.000000
 30
72.386456
 70
   192
  0
VERTEX
  8
waffle
 10
19.232205
 20
-0.000000
 30
72.540959
 70
   192
  0
VERTEX
  8
waffle
 10
19.386708
 20
-0.000000
 30
33.091791
 70
   192
  0
VERTEX
  8
waffle
 10
-20.061551
 20
-0.000000
 30
32.937289
 70
   192
  0
VERTEX
  8
waffle
 10
-20.009500
 20
-0.000000
 30
19.646927
 70
   192
  0
VERTEX
  8
waffle
 10
19.438760
 20
-0.000000
 30
19.801430
 70
   192
  0
VERTEX
  8
waffle
 10
19.593263
 20
-0.000000
 30
-19.647737
 70
   192
  0
VERTEX
  8
waffle
 10
-19.854997
 20
-0.000000
 30
-19.802240
 70
   192
  0
VERTEX
  8
waffle
 10
-19.802945
 20
-0.000000
 30
-33.092601
 70
   192
  0
VERTEX
  8
waffle
 10
19.645315
 20
-0.000000
 30
-32.938098
 70
   192
  0
VERTEX
  8
waffle
 10
19.799818
 20
-0.000000
 30
-72.387266
 70
   192
  0
VERTEX
  8
waffle
 10
-19.648442
 20
-0.000000
 30
-72.541769
 70
   192
  0
VERTEX
  8
waffle
 10
-38.052378
 20
9.473604
 30
37.613330
 70
   192
  0
VERTEX
  8
waffle
 10
-68.007741
 20
9.473604
 30
37.496007
 70
   192
  0
VERTEX
  8
waffle
 10
-68.125064
 20
9.473604
 30
67.452060
 70
   192
  0
VERTEX
  8
waffle
 10
-38.169701
 20
9.473604
 30
67.569383
 70
   192
  0
VERTEX
  8
waffle
 10
67.720038
 20
9.473604
 30
-37.496565
 70
   192
  0
VERTEX
  8
waffle
 10
67.837361
 20
9.473604
 30
-67.452618
 70
   192
  0
VERTEX
  8
waffle
 10
37.881998
 20
9.473604
 30
-67.569941
 70
   192
  0
VERTEX
  8
waffle
 10
37.764675
 20
9.473604
 30
-37.613889
 70
   192
  0
VERTEX
  8
waffle
 10
-67.801187
 20
9.473604
 30
-15.243521
 70
   192
  0
VERTEX
  8
waffle
 10
-67.918510
 20
9.473604
 30
14.712531
 70
   192
  0
VERTEX
  8
waffle
 10
-37.963147
 20
9.473604
 30
14.829854
 70
   192
  0
VERTEX
  8
waffle
 10
-37.845824
 20
9.473604
 30
-15.126198
 70
   192
  0
VERTEX
  8
waffle
 10
37.351566
 20
9.473604
 30
67.865169
 70
   192
  0
VERTEX
  8
waffle
 10
67.306929
 20
9.473604
 30
67.982492
 70
   192
  0
VERTEX
  8
waffle
 10
67.424252
 20
9.473604
 30
38.026440
 70
   192
  0
VERTEX
  8
waffle
 10
37.468889
 20
9.473604
 30
37.909117
 70
   192
  0
VERTEX
  8
waffle
 10
-37.639269
 20
9.473604
 30
-67.865727
 70
   192
  0
VERTEX
  8
waffle
 10
-67.594632
 20
9.473604
 30
-67.983050
 70
   192
  0
VERTEX
  8
waffle
 10
-67.711955
 20
9.473604
 30
-38.026998
 70
   192
  0
VERTEX
  8
waffle
 10
-37.756592
 20
9.473604
 30
-37.909675
 70
   192
  0
VERTEX
  8
waffle
 10
37.558121
 20
9.473604
 30
15.125640
 70
   192
  0
VERTEX
  8
waffle
 10
67.513484
 20
9.473604
 30
15.242963
 70
   192
  0
VERTEX
  8
waffle
 10
67.630807
 20
9.473604
 30
-14.713089
 70
   192
  0
VERTEX
  8
waffle
 10
37.675444
 20
9.473604
 30
-14.830412
 70
   192
  0
VERTEX
  8
waffle
 10
-15.386749
 20
9.473604
 30
67.658614
 70
   192
  0
VERTEX
  8
waffle
 10
14.568614
 20
9.473604
 30
67.775937
 70
   192
  0
VERTEX
  8
waffle
 10
14.685937
 20
9.473604
 30
37.819885
 70
   192
  0
VERTEX
  8
waffle
 10
-15.269426
 20
9.473604
 30
37.702562
 70
   192
  0
VERTEX
  8
waffle
 10
-15.180195
 20
9.473604
 30
14.919086
 70
   192
  0
VERTEX
  8
waffle
 10
14.775168
 20
9.473604
 30
15.036409
 70
   192
  0
VERTEX
  8
waffle
 10
14.892491
 20
9.473604
 30
-14.919644
 70
   192
  0
VERTEX
  8
waffle
 10
-15.062872
 20
9.473604
 30
-15.036967
 70
   192
  0
VERTEX
  8
waffle
 10
15.269423
 20
51.883932
 30
-37.702557
 70
   192
  0
VERTEX
  8
waffle
 10
-79.209190
 20
61.357536
 30
78.799871
 70
   192
  0
VERTEX
  8
waffle
 10
-14.685940
 20
51.883932
 30
-37.819880
 70
   192
  0
VERTEX
  8
waffle
 10
79.005755
 20
61.357536
 30
79.419535
 70
   192
  0
VERTEX
  8
waffle
 10
-14.568617
 20
51.883932
 30
-67.775932
 70
   192
  0
VERTEX
  8
waffle
 10
79.625419
 20
61.357536
 30
-78.799051
 70
   192
  0
VERTEX
  8
waffle
 10
15.386746
 20
51.883932
 30
-67.658609
 70
   192
  0
VERTEX
  8
waffle
 10
-78.589526
 20
61.357536
 30
-79.418715
 70
   192
  0
VERTEX
  8
waffle
 10
-37.675447
 20
51.883932
 30
14.830417
 70
   192
  0
VERTEX
  8
waffle
 10
-37.351569
 20
51.883932
 30
-67.865164
 70
   192
  0
VERTEX
  8
waffle
 10
-67.630810
 20
51.883932
 30
14.713094
 70
   192
  0
VERTEX
  8
waffle
 10
38.169698
 20
51.883932
 30
-67.569377
 70
   192
  0
VERTEX
  8
waffle
 10
-67.513487
 20
51.883932
 30
-15.242958
 70
   192
  0
VERTEX
  8
waffle
 10
68.125061
 20
51.883932
 30
-67.452054
 70
   192
  0
VERTEX
  8
waffle
 10
-37.558124
 20
51.883932
 30
-15.125635
 70
   192
  0
VERTEX
  8
waffle
 10
-37.468892
 20
51.883932
 30
-37.909111
 70
   192
  0
VERTEX
  8
waffle
 10
14.856314
 20
51.883932
 30
67.776501
 70
   192
  0
VERTEX
  8
waffle
 10
67.918507
 20
51.883932
 30
-14.712526
 70
   192
  0
VERTEX
  8
waffle
 10
-15.099049
 20
51.883932
 30
67.659178
 70
   192
  0
VERTEX
  8
waffle
 10
67.801184
 20
51.883932
 30
15.243527
 70
   192
  0
VERTEX
  8
waffle
 10
-14.981726
 20
51.883932
 30
37.703125
 70
   192
  0
VERTEX
  8
waffle
 10
37.845821
 20
51.883932
 30
15.126204
 70
   192
  0
VERTEX
  8
waffle
 10
14.973637
 20
51.883932
 30
37.820448
 70
   192
  0
VERTEX
  8
waffle
 10
37.963144
 20
51.883932
 30
-14.829849
 70
   192
  0
VERTEX
  8
waffle
 10
15.062868
 20
51.883932
 30
15.036972
 70
   192
  0
VERTEX
  8
waffle
 10
-37.882001
 20
51.883932
 30
67.569946
 70
   192
  0
VERTEX
  8
waffle
 10
-14.892495
 20
51.883932
 30
14.919649
 70
   192
  0
VERTEX
  8
waffle
 10
-67.837364
 20
51.883932
 30
67.452623
 70
   192
  0
VERTEX
  8
waffle
 10
-14.775172
 20
51.883932
 30
-15.036403
 70
   192
  0
VERTEX
  8
waffle
 10
-67.720041
 20
51.883932
 30
37.496571
 70
   192
  0
VERTEX
  8
waffle
 10
15.180191
 20
51.883932
 30
-14.919080
 70
   192
  0
VERTEX
  8
waffle
 10
-37.764678
 20
51.883932
 30
37.613894
 70
   192
  0
VERTEX
  8
waffle
 10
33.092997
 20
61.357536
 30
33.144658
 70
   192
  0
VERTEX
  8
waffle
 10
72.541256
 20
61.357536
 30
33.299161
 70
   192
  0
VERTEX
  8
waffle
 10
72.386753
 20
61.357536
 30
72.748329
 70
   192
  0
VERTEX
  8
waffle
 10
32.938494
 20
61.357536
 30
72.593826
 70
   192
  0
VERTEX
  8
waffle
 10
-72.125027
 20
61.357536
 30
-33.298341
 70
   192
  0
VERTEX
  8
waffle
 10
-71.970525
 20
61.357536
 30
-72.747508
 70
   192
  0
VERTEX
  8
waffle
 10
-32.522265
 20
61.357536
 30
-72.593005
 70
   192
  0
VERTEX
  8
waffle
 10
-32.676768
 20
61.357536
 30
-33.143838
 70
   192
  0
VERTEX
  8
waffle
 10
72.747811
 20
61.357536
 30
-19.440368
 70
   192
  0
VERTEX
  8
waffle
 10
72.593308
 20
61.357536
 30
20.008800
 70
   192
  0
VERTEX
  8
waffle
 10
33.145048
 20
61.357536
 30
19.854297
 70
   192
  0
VERTEX
  8
waffle
 10
33.299551
 20
61.357536
 30
-19.594870
 70
   192
  0
VERTEX
  8
waffle
 10
-33.089877
 20
61.357536
 30
72.335219
 70
   192
  0
VERTEX
  8
waffle
 10
-72.538137
 20
61.357536
 30
72.180716
 70
   192
  0
VERTEX
  8
waffle
 10
-72.383634
 20
61.357536
 30
32.731549
 70
   192
  0
VERTEX
  8
waffle
 10
-32.935374
 20
61.357536
 30
32.886052
 70
   192
  0
VERTEX
  8
waffle
 10
33.506106
 20
61.357536
 30
-72.334399
 70
   192
  0
VERTEX
  8
waffle
 10
72.954366
 20
61.357536
 30
-72.179896
 70
   192
  0
VERTEX
  8
waffle
 10
72.799863
 20
61.357536
 30
-32.730729
 70
   192
  0
VERTEX
  8
waffle
 10
33.351603
 20
61.357536
 30
-32.885232
 70
   192
  0
VERTEX
  8
waffle
 10
-32.883322
 20
61.357536
 30
19.595691
 70
   192
  0
VERTEX
  8
waffle
 10
-72.331582
 20
61.357536
 30
19.441188
 70
   192
  0
VERTEX
  8
waffle
 10
-72.177079
 20
61.357536
 30
-20.007980
 70
   192
  0
VERTEX
  8
waffle
 10
-32.728819
 20
61.357536
 30
-19.853477
 70
   192
  0
VERTEX
  8
waffle
 10
19.648438
 20
61.357536
 30
72.541774
 70
   192
  0
VERTEX
  8
waffle
 10
-19.799821
 20
61.357536
 30
72.387271
 70
   192
  0
VERTEX
  8
waffle
 10
-19.645319
 20
61.357536
 30
32.938104
 70
   192
  0
VERTEX
  8
waffle
 10
19.802941
 20
61.357536
 30
33.092606
 70
   192
  0
VERTEX
  8
waffle
 10
0.0
 20
0.0
 30
0.0
 70
   128
 71
   60
 72
   96
 73
   95
  0
VERTEX
  8
waffle
 10
0.0
 20
0.0
 30
0.0
 70
   128
 71
   6
 72
   13
 73
   11
  0
VERTEX
  8
waffle
 10
0.0
 20
0.0
 30
0.0
 70
   128
 71
   8
 72
   15
 73
   13
  0
VERTEX
  8
waffle
 10
0.0
 20
0.0
 30
0.0
 70
   128
 71
   2
 72
   9
 73
   15
  0
VERTEX
  8
waffle
 10
0.0
 20
0.0
 30
0.0
 70
   128
 71
   69
 72
   70
 73
   71
  0
VERTEX
  8
waffle
 10
0.0
 20
0.0
 30
0.0
 70
   128
 71
   61
 72
   97
 73
   100
  0
VERTEX
  8
waffle
 10
0.0
 20
0.0
 30
0.0
 70
   128
 71
   62
 72
   98
 73
   97
  0
VERTEX
  8
waffle
 10
0.0
 20
0.0
 30
0.0
 70
   128
 71
   141
 72
   151
 73
   106
  0
VERTEX
  8
waffle
 10
0.0
 20
0.0
 30
0.0
 70
   128
 71
   73
 72
   74
 73
   75
  0
VERTEX
  8
waffle
 10
0.0
 20
0.0
 30
0.0
 70
   128
 71
   63
 72
   99
 73
   98
  0
VERTEX
  8
waffle
 10
0.0
 20
0.0
 30
0.0
 70
   128
 71
   145
 72
   102
 73
   146
  0
VERTEX
  8
waffle
 10
0.0
 20
0.0
 30
0.0
 70
   128
 71
   64
 72
   100
 73
   99
  0
VERTEX
  8
waffle
 10
0.0
 20
0.0
 30
0.0
 70
   128
 71
   65
 72
   1
 73
   7
  0
VERTEX
  8
waffle
 10
0.0
 20
0.0
 30
0.0
 70
   128
 71
   77
 72
   78
 73
   79
  0
VERTEX
  8
waffle
 10
0.0
 20
0.0
 30
0.0
 70
   128
 71
   66
 72
   3
 73
   1
  0
VERTEX
  8
waffle
 10
0.0
 20
0.0
 30
0.0
 70
   128
 71
   102
 72
   158
 73
   157
  0
VERTEX
  8
waffle
 10
0.0
 20
0.0
 30
0.0
 70
   128
 71
   81
 72
   82
 73
   83
  0
VERTEX
  8
waffle
 10
0.0
 20
0.0
 30
0.0
 70
   128
 71
   67
 72
   5
 73
   3
  0
VERTEX
  8
waffle
 10
0.0
 20
0.0
 30
0.0
 70
   128
 71
   85
 72
   86
 73
   87
  0
VERTEX
  8
waffle
 10
0.0
 20
0.0
 30
0.0
 70
   128
 71
   68
 72
   7
 73
   5
  0
VERTEX
  8
waffle
 10
0.0
 20
0.0
 30
0.0
 70
   128
 71
   157
 72
   136
 73
   104
  0
VERTEX
  8
waffle
 10
0.0
 20
0.0
 30
0.0
 70
   128
 71
   89
 72
   90
 73
   91
  0
VERTEX
  8
waffle
 10
0.0
 20
0.0
 30
0.0
 70
   128
 71
   136
 72
   135
 73
   104
  0
VERTEX
  8
waffle
 10
0.0
 20
0.0
 30
0.0
 70
   128
 71
   93
 72
   94
 73
   95
  0
VERTEX
  8
waffle
 10
0.0
 20
0.0
 30
0.0
 70
   128
 71
   151
 72
   150
 73
   106
  0
VERTEX
  8
waffle
 10
0.0
 20
0.0
 30
0.0
 70
   128
 71
   97
 72
   98
 73
   99
  0
VERTEX
  8
waffle
 10
0.0
 20
0.0
 30
0.0
 70
   128
 71
   9
 72
   2
 73
   4
  0
VERTEX
  8
waffle
 10
0.0
 20
0.0
 30
0.0
 70
   128
 71
   137
 72
   155
 73
   108
  0
VERTEX
  8
waffle
 10
0.0
 20
0.0
 30
0.0
 70
   128
 71
   1
 72
   3
 73
   5
  0
VERTEX
  8
waffle
 10
0.0
 20
0.0
 30
0.0
 70
   128
 71
   155
 72
   154
 73
   102
  0
VERTEX
  8
waffle
 10
0.0
 20
0.0
 30
0.0
 70
   128
 71
   34
 72
   33
 73
   43
  0
VERTEX
  8
waffle
 10
0.0
 20
0.0
 30
0.0
 70
   128
 71
   52
 72
   44
 73
   64
  0
VERTEX
  8
waffle
 10
0.0
 20
0.0
 30
0.0
 70
   128
 71
   6
 72
   4
 73
   42
  0
VERTEX
  8
waffle
 10
0.0
 20
0.0
 30
0.0
 70
   128
 71
   60
 72
   59
 73
   62
  0
VERTEX
  8
waffle
 10
0.0
 20
0.0
 30
0.0
 70
   128
 71
   43
 72
   33
 73
   60
  0
VERTEX
  8
waffle
 10
0.0
 20
0.0
 30
0.0
 70
   128
 71
   64
 72
   63
 73
   66
  0
VERTEX
  8
waffle
 10
0.0
 20
0.0
 30
0.0
 70
   128
 71
   2
 72
   8
 73
   55
  0
VERTEX
  8
waffle
 10
0.0
 20
0.0
 30
0.0
 70
   128
 71
   43
 72
   61
 73
   64
  0
VERTEX
  8
waffle
 10
0.0
 20
0.0
 30
0.0
 70
   128
 71
   4
 72
   57
 73
   36
  0
VERTEX
  8
waffle
 10
0.0
 20
0.0
 30
0.0
 70
   128
 71
   4
 72
   34
 73
   42
  0
VERTEX
  8
waffle
 10
0.0
 20
0.0
 30
0.0
 70
   128
 71
   41
 72
   44
 73
   52
  0
VERTEX
  8
waffle
 10
0.0
 20
0.0
 30
0.0
 70
   128
 71
   55
 72
   37
 73
   40
  0
VERTEX
  8
waffle
 10
0.0
 20
0.0
 30
0.0
 70
   128
 71
   6
 72
   51
 73
   50
  0
VERTEX
  8
waffle
 10
0.0
 20
0.0
 30
0.0
 70
   128
 71
   6
 72
   50
 73
   49
  0
VERTEX
  8
waffle
 10
0.0
 20
0.0
 30
0.0
 70
   128
 71
   2
 72
   54
 73
   47
  0
VERTEX
  8
waffle
 10
0.0
 20
0.0
 30
0.0
 70
   128
 71
   6
 72
   41
 73
   51
  0
VERTEX
  8
waffle
 10
0.0
 20
0.0
 30
0.0
 70
   128
 71
   60
 72
   33
 73
   36
  0
VERTEX
  8
waffle
 10
0.0
 20
0.0
 30
0.0
 70
   128
 71
   2
 72
   45
 73
   58
  0
VERTEX
  8
waffle
 10
0.0
 20
0.0
 30
0.0
 70
   128
 71
   4
 72
   36
 73
   35
  0
VERTEX
  8
waffle
 10
0.0
 20
0.0
 30
0.0
 70
   128
 71
   2
 72
   46
 73
   45
  0
VERTEX
  8
waffle
 10
0.0
 20
0.0
 30
0.0
 70
   128
 71
   4
 72
   35
 73
   34
  0
VERTEX
  8
waffle
 10
0.0
 20
0.0
 30
0.0
 70
   128
 71
   56
 72
   40
 73
   66
  0
VERTEX
  8
waffle
 10
0.0
 20
0.0
 30
0.0
 70
   128
 71
   49
 72
   52
 73
   65
  0
VERTEX
  8
waffle
 10
0.0
 20
0.0
 30
0.0
 70
   128
 71
   47
 72
   54
 73
   53
  0
VERTEX
  8
waffle
 10
0.0
 20
0.0
 30
0.0
 70
   128
 71
   6
 72
   49
 73
   68
  0
VERTEX
  8
waffle
 10
0.0
 20
0.0
 30
0.0
 70
   128
 71
   8
 72
   38
 73
   37
  0
VERTEX
  8
waffle
 10
0.0
 20
0.0
 30
0.0
 70
   128
 71
   6
 72
   68
 73
   67
  0
VERTEX
  8
waffle
 10
0.0
 20
0.0
 30
0.0
 70
   128
 71
   2
 72
   47
 73
   46
  0
VERTEX
  8
waffle
 10
0.0
 20
0.0
 30
0.0
 70
   128
 71
   58
 72
   45
 73
   48
  0
VERTEX
  8
waffle
 10
0.0
 20
0.0
 30
0.0
 70
   128
 71
   8
 72
   39
 73
   38
  0
VERTEX
  8
waffle
 10
0.0
 20
0.0
 30
0.0
 70
   128
 71
   8
 72
   67
 73
   39
  0
VERTEX
  8
waffle
 10
0.0
 20
0.0
 30
0.0
 70
   128
 71
   57
 72
   4
 73
   2
  0
VERTEX
  8
waffle
 10
0.0
 20
0.0
 30
0.0
 70
   128
 71
   53
 72
   56
 73
   63
  0
VERTEX
  8
waffle
 10
0.0
 20
0.0
 30
0.0
 70
   128
 71
   48
 72
   53
 73
   62
  0
VERTEX
  8
waffle
 10
0.0
 20
0.0
 30
0.0
 70
   128
 71
   39
 72
   67
 73
   66
  0
VERTEX
  8
waffle
 10
0.0
 20
0.0
 30
0.0
 70
   128
 71
   8
 72
   37
 73
   55
  0
VERTEX
  8
waffle
 10
0.0
 20
0.0
 30
0.0
 70
   128
 71
   33
 72
   69
 73
   72
  0
VERTEX
  8
waffle
 10
0.0
 20
0.0
 30
0.0
 70
   128
 71
   34
 72
   70
 73
   69
  0
VERTEX
  8
waffle
 10
0.0
 20
0.0
 30
0.0
 70
   128
 71
   35
 72
   71
 73
   70
  0
VERTEX
  8
waffle
 10
0.0
 20
0.0
 30
0.0
 70
   128
 71
   36
 72
   72
 73
   71
  0
VERTEX
  8
waffle
 10
0.0
 20
0.0
 30
0.0
 70
   128
 71
   37
 72
   73
 73
   76
  0
VERTEX
  8
waffle
 10
0.0
 20
0.0
 30
0.0
 70
   128
 71
   38
 72
   74
 73
   73
  0
VERTEX
  8
waffle
 10
0.0
 20
0.0
 30
0.0
 70
   128
 71
   39
 72
   75
 73
   74
  0
VERTEX
  8
waffle
 10
0.0
 20
0.0
 30
0.0
 70
   128
 71
   40
 72
   76
 73
   75
  0
VERTEX
  8
waffle
 10
0.0
 20
0.0
 30
0.0
 70
   128
 71
   41
 72
   77
 73
   80
  0
VERTEX
  8
waffle
 10
0.0
 20
0.0
 30
0.0
 70
   128
 71
   42
 72
   78
 73
   77
  0
VERTEX
  8
waffle
 10
0.0
 20
0.0
 30
0.0
 70
   128
 71
   43
 72
   79
 73
   78
  0
VERTEX
  8
waffle
 10
0.0
 20
0.0
 30
0.0
 70
   128
 71
   44
 72
   80
 73
   79
  0
VERTEX
  8
waffle
 10
0.0
 20
0.0
 30
0.0
 70
   128
 71
   45
 72
   81
 73
   84
  0
VERTEX
  8
waffle
 10
0.0
 20
0.0
 30
0.0
 70
   128
 71
   46
 72
   82
 73
   81
  0
VERTEX
  8
waffle
 10
0.0
 20
0.0
 30
0.0
 70
   128
 71
   47
 72
   83
 73
   82
  0
VERTEX
  8
waffle
 10
0.0
 20
0.0
 30
0.0
 70
   128
 71
   48
 72
   84
 73
   83
  0
VERTEX
  8
waffle
 10
0.0
 20
0.0
 30
0.0
 70
   128
 71
   49
 72
   85
 73
   88
  0
VERTEX
  8
waffle
 10
0.0
 20
0.0
 30
0.0
 70
   128
 71
   50
 72
   86
 73
   85
  0
VERTEX
  8
waffle
 10
0.0
 20
0.0
 30
0.0
 70
   128
 71
   51
 72
   87
 73
   86
  0
VERTEX
  8
waffle
 10
0.0
 20
0.0
 30
0.0
 70
   128
 71
   52
 72
   88
 73
   87
  0
VERTEX
  8
waffle
 10
0.0
 20
0.0
 30
0.0
 70
   128
 71
   53
 72
   89
 73
   92
  0
VERTEX
  8
waffle
 10
0.0
 20
0.0
 30
0.0
 70
   128
 71
   54
 72
   90
 73
   89
  0
VERTEX
  8
waffle
 10
0.0
 20
0.0
 30
0.0
 70
   128
 71
   55
 72
   91
 73
   90
  0
VERTEX
  8
waffle
 10
0.0
 20
0.0
 30
0.0
 70
   128
 71
   56
 72
   92
 73
   91
  0
VERTEX
  8
waffle
 10
0.0
 20
0.0
 30
0.0
 70
   128
 71
   57
 72
   93
 73
   96
  0
VERTEX
  8
waffle
 10
0.0
 20
0.0
 30
0.0
 70
   128
 71
   58
 72
   94
 73
   93
  0
VERTEX
  8
waffle
 10
0.0
 20
0.0
 30
0.0
 70
   128
 71
   59
 72
   95
 73
   94
  0
VERTEX
  8
waffle
 10
0.0
 20
0.0
 30
0.0
 70
   128
 71
   160
 72
   123
 73
   121
  0
VERTEX
  8
waffle
 10
0.0
 20
0.0
 30
0.0
 70
   128
 71
   106
 72
   16
 73
   10
  0
VERTEX
  8
waffle
 10
0.0
 20
0.0
 30
0.0
 70
   128
 71
   154
 72
   147
 73
   102
  0
VERTEX
  8
waffle
 10
0.0
 20
0.0
 30
0.0
 70
   128
 71
   147
 72
   146
 73
   102
  0
VERTEX
  8
waffle
 10
0.0
 20
0.0
 30
0.0
 70
   128
 71
   26
 72
   27
 73
   28
  0
VERTEX
  8
waffle
 10
0.0
 20
0.0
 30
0.0
 70
   128
 71
   18
 72
   125
 73
   131
  0
VERTEX
  8
waffle
 10
0.0
 20
0.0
 30
0.0
 70
   128
 71
   19
 72
   127
 73
   125
  0
VERTEX
  8
waffle
 10
0.0
 20
0.0
 30
0.0
 70
   128
 71
   13
 72
   32
 73
   23
  0
VERTEX
  8
waffle
 10
0.0
 20
0.0
 30
0.0
 70
   128
 71
   30
 72
   31
 73
   110
  0
VERTEX
  8
waffle
 10
0.0
 20
0.0
 30
0.0
 70
   128
 71
   20
 72
   129
 73
   127
  0
VERTEX
  8
waffle
 10
0.0
 20
0.0
 30
0.0
 70
   128
 71
   9
 72
   10
 73
   16
  0
VERTEX
  8
waffle
 10
0.0
 20
0.0
 30
0.0
 70
   128
 71
   21
 72
   131
 73
   129
  0
VERTEX
  8
waffle
 10
0.0
 20
0.0
 30
0.0
 70
   128
 71
   24
 72
   101
 73
   107
  0
VERTEX
  8
waffle
 10
0.0
 20
0.0
 30
0.0
 70
   128
 71
   118
 72
   120
 73
   122
  0
VERTEX
  8
waffle
 10
0.0
 20
0.0
 30
0.0
 70
   128
 71
   25
 72
   103
 73
   101
  0
VERTEX
  8
waffle
 10
0.0
 20
0.0
 30
0.0
 70
   128
 71
   15
 72
   16
 73
   32
  0
VERTEX
  8
waffle
 10
0.0
 20
0.0
 30
0.0
 70
   128
 71
   126
 72
   128
 73
   130
  0
VERTEX
  8
waffle
 10
0.0
 20
0.0
 30
0.0
 70
   128
 71
   12
 72
   105
 73
   103
  0
VERTEX
  8
waffle
 10
0.0
 20
0.0
 30
0.0
 70
   128
 71
   112
 72
   114
 73
   17
  0
VERTEX
  8
waffle
 10
0.0
 20
0.0
 30
0.0
 70
   128
 71
   14
 72
   107
 73
   105
  0
VERTEX
  8
waffle
 10
0.0
 20
0.0
 30
0.0
 70
   128
 71
   23
 72
   102
 73
   104
  0
VERTEX
  8
waffle
 10
0.0
 20
0.0
 30
0.0
 70
   128
 71
   109
 72
   111
 73
   113
  0
VERTEX
  8
waffle
 10
0.0
 20
0.0
 30
0.0
 70
   128
 71
   16
 72
   106
 73
   108
  0
VERTEX
  8
waffle
 10
0.0
 20
0.0
 30
0.0
 70
   128
 71
   117
 72
   119
 73
   121
  0
VERTEX
  8
waffle
 10
0.0
 20
0.0
 30
0.0
 70
   128
 71
   12
 72
   108
 73
   106
  0
VERTEX
  8
waffle
 10
0.0
 20
0.0
 30
0.0
 70
   128
 71
   125
 72
   127
 73
   129
  0
VERTEX
  8
waffle
 10
0.0
 20
0.0
 30
0.0
 70
   128
 71
   108
 72
   12
 73
   139
  0
VERTEX
  8
waffle
 10
0.0
 20
0.0
 30
0.0
 70
   128
 71
   106
 72
   150
 73
   149
  0
VERTEX
  8
waffle
 10
0.0
 20
0.0
 30
0.0
 70
   128
 71
   101
 72
   103
 73
   105
  0
VERTEX
  8
waffle
 10
0.0
 20
0.0
 30
0.0
 70
   128
 71
   106
 72
   149
 73
   14
  0
VERTEX
  8
waffle
 10
0.0
 20
0.0
 30
0.0
 70
   128
 71
   148
 72
   132
 73
   130
  0
VERTEX
  8
waffle
 10
0.0
 20
0.0
 30
0.0
 70
   128
 71
   149
 72
   112
 73
   22
  0
VERTEX
  8
waffle
 10
0.0
 20
0.0
 30
0.0
 70
   128
 71
   104
 72
   134
 73
   142
  0
VERTEX
  8
waffle
 10
0.0
 20
0.0
 30
0.0
 70
   128
 71
   104
 72
   142
 73
   141
  0
VERTEX
  8
waffle
 10
0.0
 20
0.0
 30
0.0
 70
   128
 71
   10
 72
   9
 73
   11
  0
VERTEX
  8
waffle
 10
0.0
 20
0.0
 30
0.0
 70
   128
 71
   104
 72
   135
 73
   134
  0
VERTEX
  8
waffle
 10
0.0
 20
0.0
 30
0.0
 70
   128
 71
   150
 72
   114
 73
   112
  0
VERTEX
  8
waffle
 10
0.0
 20
0.0
 30
0.0
 70
   128
 71
   151
 72
   17
 73
   114
  0
VERTEX
  8
waffle
 10
0.0
 20
0.0
 30
0.0
 70
   128
 71
   154
 72
   111
 73
   109
  0
VERTEX
  8
waffle
 10
0.0
 20
0.0
 30
0.0
 70
   128
 71
   155
 72
   113
 73
   111
  0
VERTEX
  8
waffle
 10
0.0
 20
0.0
 30
0.0
 70
   128
 71
   145
 72
   158
 73
   102
  0
VERTEX
  8
waffle
 10
0.0
 20
0.0
 30
0.0
 70
   128
 71
   156
 72
   115
 73
   113
  0
VERTEX
  8
waffle
 10
0.0
 20
0.0
 30
0.0
 70
   128
 71
   157
 72
   117
 73
   123
  0
VERTEX
  8
waffle
 10
0.0
 20
0.0
 30
0.0
 70
   128
 71
   158
 72
   119
 73
   117
  0
VERTEX
  8
waffle
 10
0.0
 20
0.0
 30
0.0
 70
   128
 71
   159
 72
   121
 73
   119
  0
VERTEX
  8
waffle
 10
0.0
 20
0.0
 30
0.0
 70
   128
 71
   137
 72
   108
 73
   138
  0
VERTEX
  8
waffle
 10
0.0
 20
0.0
 30
0.0
 70
   128
 71
   32
 72
   108
 73
   102
  0
VERTEX
  8
waffle
 10
0.0
 20
0.0
 30
0.0
 70
   128
 71
   152
 72
   22
 73
   17
  0
VERTEX
  8
waffle
 10
0.0
 20
0.0
 30
0.0
 70
   128
 71
   138
 72
   108
 73
   139
  0
VERTEX
  8
waffle
 10
0.0
 20
0.0
 30
0.0
 70
   128
 71
   153
 72
   109
 73
   115
  0
VERTEX
  8
waffle
 10
0.0
 20
0.0
 30
0.0
 70
   128
 71
   134
 72
   133
 73
   143
  0
VERTEX
  8
waffle
 10
0.0
 20
0.0
 30
0.0
 70
   128
 71
   133
 72
   160
 73
   18
  0
VERTEX
  8
waffle
 10
0.0
 20
0.0
 30
0.0
 70
   128
 71
   160
 72
   133
 73
   136
  0
VERTEX
  8
waffle
 10
0.0
 20
0.0
 30
0.0
 70
   128
 71
   144
 72
   143
 73
   18
  0
VERTEX
  8
waffle
 10
0.0
 20
0.0
 30
0.0
 70
   128
 71
   151
 72
   141
 73
   144
  0
VERTEX
  8
waffle
 10
0.0
 20
0.0
 30
0.0
 70
   128
 71
   144
 72
   21
 73
   24
  0
VERTEX
  8
waffle
 10
0.0
 20
0.0
 30
0.0
 70
   128
 71
   14
 72
   149
 73
   152
  0
VERTEX
  8
waffle
 10
0.0
 20
0.0
 30
0.0
 70
   128
 71
   147
 72
   154
 73
   153
  0
VERTEX
  8
waffle
 10
0.0
 20
0.0
 30
0.0
 70
   128
 71
   158
 72
   145
 73
   148
  0
VERTEX
  8
waffle
 10
0.0
 20
0.0
 30
0.0
 70
   128
 71
   159
 72
   148
 73
   153
  0
VERTEX
  8
waffle
 10
0.0
 20
0.0
 30
0.0
 70
   128
 71
   139
 72
   12
 73
   25
  0
VERTEX
  8
waffle
 10
0.0
 20
0.0
 30
0.0
 70
   128
 71
   137
 72
   140
 73
   156
  0
VERTEX
  8
waffle
 10
0.0
 20
0.0
 30
0.0
 70
   128
 71
   140
 72
   25
 73
   20
  0
VERTEX
  8
waffle
 10
0.0
 20
0.0
 30
0.0
 70
   128
 71
   19
 72
   153
 73
   156
  0
VERTEX
  8
waffle
 10
0.0
 20
0.0
 30
0.0
 70
   128
 71
   159
 72
   19
 73
   18
  0
VERTEX
  8
waffle
 10
0.0
 20
0.0
 30
0.0
 70
   128
 71
   20
 72
   25
 73
   24
  0
VERTEX
  8
waffle
 10
0.0
 20
0.0
 30
0.0
 70
   128
 71
   133
 72
   26
 73
   29
  0
VERTEX
  8
waffle
 10
0.0
 20
0.0
 30
0.0
 70
   128
 71
   134
 72
   27
 73
   26
  0
VERTEX
  8
waffle
 10
0.0
 20
0.0
 30
0.0
 70
   128
 71
   135
 72
   28
 73
   27
  0
VERTEX
  8
waffle
 10
0.0
 20
0.0
 30
0.0
 70
   128
 71
   136
 72
   29
 73
   28
  0
VERTEX
  8
waffle
 10
0.0
 20
0.0
 30
0.0
 70
   128
 71
   137
 72
   30
 73
   116
  0
VERTEX
  8
waffle
 10
0.0
 20
0.0
 30
0.0
 70
   128
 71
   138
 72
   31
 73
   30
  0
VERTEX
  8
waffle
 10
0.0
 20
0.0
 30
0.0
 70
   128
 71
   139
 72
   110
 73
   31
  0
VERTEX
  8
waffle
 10
0.0
 20
0.0
 30
0.0
 70
   128
 71
   140
 72
   116
 73
   110
  0
VERTEX
  8
waffle
 10
0.0
 20
0.0
 30
0.0
 70
   128
 71
   141
 72
   118
 73
   124
  0
VERTEX
  8
waffle
 10
0.0
 20
0.0
 30
0.0
 70
   128
 71
   142
 72
   120
 73
   118
  0
VERTEX
  8
waffle
 10
0.0
 20
0.0
 30
0.0
 70
   128
 71
   143
 72
   122
 73
   120
  0
VERTEX
  8
waffle
 10
0.0
 20
0.0
 30
0.0
 70
   128
 71
   144
 72
   124
 73
   122
  0
VERTEX
  8
waffle
 10
0.0
 20
0.0
 30
0.0
 70
   128
 71
   145
 72
   126
 73
   132
  0
VERTEX
  8
waffle
 10
0.0
 20
0.0
 30
0.0
 70
   128
 71
   146
 72
   128
 73
   126
  0
VERTEX
  8
waffle
 10
0.0
 20
0.0
 30
0.0
 70
   128
 71
   147
 72
   130
 73
   128
  0
VERTEX
  8
waffle
 10
0.0
 20
0.0
 30
0.0
 70
   128
 71
   60
 72
   95
 73
   59
  0
VERTEX
  8
waffle
 10
0.0
 20
0.0
 30
0.0
 70
   128
 71
   6
 72
   11
 73
   4
  0
VERTEX
  8
waffle
 10
0.0
 20
0.0
 30
0.0
 70
   128
 71
   8
 72
   13
 73
   6
  0
VERTEX
  8
waffle
 10
0.0
 20
0.0
 30
0.0
 70
   128
 71
   2
 72
   15
 73
   8
  0
VERTEX
  8
waffle
 10
0.0
 20
0.0
 30
0.0
 70
   128
 71
   69
 72
   71
 73
   72
  0
VERTEX
  8
waffle
 10
0.0
 20
0.0
 30
0.0
 70
   128
 71
   61
 72
   100
 73
   64
  0
VERTEX
  8
waffle
 10
0.0
 20
0.0
 30
0.0
 70
   128
 71
   62
 72
   97
 73
   61
  0
VERTEX
  8
waffle
 10
0.0
 20
0.0
 30
0.0
 70
   128
 71
   73
 72
   75
 73
   76
  0
VERTEX
  8
waffle
 10
0.0
 20
0.0
 30
0.0
 70
   128
 71
   63
 72
   98
 73
   62
  0
VERTEX
  8
waffle
 10
0.0
 20
0.0
 30
0.0
 70
   128
 71
   64
 72
   99
 73
   63
  0
VERTEX
  8
waffle
 10
0.0
 20
0.0
 30
0.0
 70
   128
 71
   65
 72
   7
 73
   68
  0
VERTEX
  8
waffle
 10
0.0
 20
0.0
 30
0.0
 70
   128
 71
   77
 72
   79
 73
   80
  0
VERTEX
  8
waffle
 10
0.0
 20
0.0
 30
0.0
 70
   128
 71
   66
 72
   1
 73
   65
  0
VERTEX
  8
waffle
 10
0.0
 20
0.0
 30
0.0
 70
   128
 71
   102
 72
   157
 73
   104
  0
VERTEX
  8
waffle
 10
0.0
 20
0.0
 30
0.0
 70
   128
 71
   81
 72
   83
 73
   84
  0
VERTEX
  8
waffle
 10
0.0
 20
0.0
 30
0.0
 70
   128
 71
   67
 72
   3
 73
   66
  0
VERTEX
  8
waffle
 10
0.0
 20
0.0
 30
0.0
 70
   128
 71
   85
 72
   87
 73
   88
  0
VERTEX
  8
waffle
 10
0.0
 20
0.0
 30
0.0
 70
   128
 71
   68
 72
   5
 73
   67
  0
VERTEX
  8
waffle
 10
0.0
 20
0.0
 30
0.0
 70
   128
 71
   89
 72
   91
 73
   92
  0
VERTEX
  8
waffle
 10
0.0
 20
0.0
 30
0.0
 70
   128
 71
   93
 72
   95
 73
   96
  0
VERTEX
  8
waffle
 10
0.0
 20
0.0
 30
0.0
 70
   128
 71
   97
 72
   99
 73
   100
  0
VERTEX
  8
waffle
 10
0.0
 20
0.0
 30
0.0
 70
   128
 71
   9
 72
   4
 73
   11
  0
VERTEX
  8
waffle
 10
0.0
 20
0.0
 30
0.0
 70
   128
 71
   1
 72
   5
 73
   7
  0
VERTEX
  8
waffle
 10
0.0
 20
0.0
 30
0.0
 70
   128
 71
   155
 72
   102
 73
   108
  0
VERTEX
  8
waffle
 10
0.0
 20
0.0
 30
0.0
 70
   128
 71
   34
 72
   43
 73
   42
  0
VERTEX
  8
waffle
 10
0.0
 20
0.0
 30
0.0
 70
   128
 71
   52
 72
   64
 73
   65
  0
VERTEX
  8
waffle
 10
0.0
 20
0.0
 30
0.0
 70
   128
 71
   6
 72
   42
 73
   41
  0
VERTEX
  8
waffle
 10
0.0
 20
0.0
 30
0.0
 70
   128
 71
   60
 72
   62
 73
   61
  0
VERTEX
  8
waffle
 10
0.0
 20
0.0
 30
0.0
 70
   128
 71
   43
 72
   60
 73
   61
  0
VERTEX
  8
waffle
 10
0.0
 20
0.0
 30
0.0
 70
   128
 71
   64
 72
   66
 73
   65
  0
VERTEX
  8
waffle
 10
0.0
 20
0.0
 30
0.0
 70
   128
 71
   2
 72
   55
 73
   54
  0
VERTEX
  8
waffle
 10
0.0
 20
0.0
 30
0.0
 70
   128
 71
   43
 72
   64
 73
   44
  0
VERTEX
  8
waffle
 10
0.0
 20
0.0
 30
0.0
 70
   128
 71
   41
 72
   52
 73
   51
  0
VERTEX
  8
waffle
 10
0.0
 20
0.0
 30
0.0
 70
   128
 71
   55
 72
   40
 73
   56
  0
VERTEX
  8
waffle
 10
0.0
 20
0.0
 30
0.0
 70
   128
 71
   60
 72
   36
 73
   57
  0
VERTEX
  8
waffle
 10
0.0
 20
0.0
 30
0.0
 70
   128
 71
   56
 72
   66
 73
   63
  0
VERTEX
  8
waffle
 10
0.0
 20
0.0
 30
0.0
 70
   128
 71
   49
 72
   65
 73
   68
  0
VERTEX
  8
waffle
 10
0.0
 20
0.0
 30
0.0
 70
   128
 71
   47
 72
   53
 73
   48
  0
VERTEX
  8
waffle
 10
0.0
 20
0.0
 30
0.0
 70
   128
 71
   6
 72
   67
 73
   8
  0
VERTEX
  8
waffle
 10
0.0
 20
0.0
 30
0.0
 70
   128
 71
   58
 72
   48
 73
   59
  0
VERTEX
  8
waffle
 10
0.0
 20
0.0
 30
0.0
 70
   128
 71
   57
 72
   2
 73
   58
  0
VERTEX
  8
waffle
 10
0.0
 20
0.0
 30
0.0
 70
   128
 71
   53
 72
   63
 73
   62
  0
VERTEX
  8
waffle
 10
0.0
 20
0.0
 30
0.0
 70
   128
 71
   48
 72
   62
 73
   59
  0
VERTEX
  8
waffle
 10
0.0
 20
0.0
 30
0.0
 70
   128
 71
   39
 72
   66
 73
   40
  0
VERTEX
  8
waffle
 10
0.0
 20
0.0
 30
0.0
 70
   128
 71
   33
 72
   72
 73
   36
  0
VERTEX
  8
waffle
 10
0.0
 20
0.0
 30
0.0
 70
   128
 71
   34
 72
   69
 73
   33
  0
VERTEX
  8
waffle
 10
0.0
 20
0.0
 30
0.0
 70
   128
 71
   35
 72
   70
 73
   34
  0
VERTEX
  8
waffle
 10
0.0
 20
0.0
 30
0.0
 70
   128
 71
   36
 72
   71
 73
   35
  0
VERTEX
  8
waffle
 10
0.0
 20
0.0
 30
0.0
 70
   128
 71
   37
 72
   76
 73
   40
  0
VERTEX
  8
waffle
 10
0.0
 20
0.0
 30
0.0
 70
   128
 71
   38
 72
   73
 73
   37
  0
VERTEX
  8
waffle
 10
0.0
 20
0.0
 30
0.0
 70
   128
 71
   39
 72
   74
 73
   38
  0
VERTEX
  8
waffle
 10
0.0
 20
0.0
 30
0.0
 70
   128
 71
   40
 72
   75
 73
   39
  0
VERTEX
  8
waffle
 10
0.0
 20
0.0
 30
0.0
 70
   128
 71
   41
 72
   80
 73
   44
  0
VERTEX
  8
waffle
 10
0.0
 20
0.0
 30
0.0
 70
   128
 71
   42
 72
   77
 73
   41
  0
VERTEX
  8
waffle
 10
0.0
 20
0.0
 30
0.0
 70
   128
 71
   43
 72
   78
 73
   42
  0
VERTEX
  8
waffle
 10
0.0
 20
0.0
 30
0.0
 70
   128
 71
   44
 72
   79
 73
   43
  0
VERTEX
  8
waffle
 10
0.0
 20
0.0
 30
0.0
 70
   128
 71
   45
 72
   84
 73
   48
  0
VERTEX
  8
waffle
 10
0.0
 20
0.0
 30
0.0
 70
   128
 71
   46
 72
   81
 73
   45
  0
VERTEX
  8
waffle
 10
0.0
 20
0.0
 30
0.0
 70
   128
 71
   47
 72
   82
 73
   46
  0
VERTEX
  8
waffle
 10
0.0
 20
0.0
 30
0.0
 70
   128
 71
   48
 72
   83
 73
   47
  0
VERTEX
  8
waffle
 10
0.0
 20
0.0
 30
0.0
 70
   128
 71
   49
 72
   88
 73
   52
  0
VERTEX
  8
waffle
 10
0.0
 20
0.0
 30
0.0
 70
   128
 71
   50
 72
   85
 73
   49
  0
VERTEX
  8
waffle
 10
0.0
 20
0.0
 30
0.0
 70
   128
 71
   51
 72
   86
 73
   50
  0
VERTEX
  8
waffle
 10
0.0
 20
0.0
 30
0.0
 70
   128
 71
   52
 72
   87
 73
   51
  0
VERTEX
  8
waffle
 10
0.0
 20
0.0
 30
0.0
 70
   128
 71
   53
 72
   92
 73
   56
  0
VERTEX
  8
waffle
 10
0.0
 20
0.0
 30
0.0
 70
   128
 71
   54
 72
   89
 73
   53
  0
VERTEX
  8
waffle
 10
0.0
 20
0.0
 30
0.0
 70
   128
 71
   55
 72
   90
 73
   54
  0
VERTEX
  8
waffle
 10
0.0
 20
0.0
 30
0.0
 70
   128
 71
   56
 72
   91
 73
   55
  0
VERTEX
  8
waffle
 10
0.0
 20
0.0
 30
0.0
 70
   128
 71
   57
 72
   96
 73
   60
  0
VERTEX
  8
waffle
 10
0.0
 20
0.0
 30
0.0
 70
   128
 71
   58
 72
   93
 73
   57
  0
VERTEX
  8
waffle
 10
0.0
 20
0.0
 30
0.0
 70
   128
 71
   59
 72
   94
 73
   58
  0
VERTEX
  8
waffle
 10
0.0
 20
0.0
 30
0.0
 70
   128
 71
   160
 72
   121
 73
   159
  0
VERTEX
  8
waffle
 10
0.0
 20
0.0
 30
0.0
 70
   128
 71
   106
 72
   10
 73
   104
  0
VERTEX
  8
waffle
 10
0.0
 20
0.0
 30
0.0
 70
   128
 71
   26
 72
   28
 73
   29
  0
VERTEX
  8
waffle
 10
0.0
 20
0.0
 30
0.0
 70
   128
 71
   18
 72
   131
 73
   21
  0
VERTEX
  8
waffle
 10
0.0
 20
0.0
 30
0.0
 70
   128
 71
   19
 72
   125
 73
   18
  0
VERTEX
  8
waffle
 10
0.0
 20
0.0
 30
0.0
 70
   128
 71
   13
 72
   23
 73
   11
  0
VERTEX
  8
waffle
 10
0.0
 20
0.0
 30
0.0
 70
   128
 71
   30
 72
   110
 73
   116
  0
VERTEX
  8
waffle
 10
0.0
 20
0.0
 30
0.0
 70
   128
 71
   20
 72
   127
 73
   19
  0
VERTEX
  8
waffle
 10
0.0
 20
0.0
 30
0.0
 70
   128
 71
   9
 72
   16
 73
   15
  0
VERTEX
  8
waffle
 10
0.0
 20
0.0
 30
0.0
 70
   128
 71
   21
 72
   129
 73
   20
  0
VERTEX
  8
waffle
 10
0.0
 20
0.0
 30
0.0
 70
   128
 71
   24
 72
   107
 73
   14
  0
VERTEX
  8
waffle
 10
0.0
 20
0.0
 30
0.0
 70
   128
 71
   118
 72
   122
 73
   124
  0
VERTEX
  8
waffle
 10
0.0
 20
0.0
 30
0.0
 70
   128
 71
   25
 72
   101
 73
   24
  0
VERTEX
  8
waffle
 10
0.0
 20
0.0
 30
0.0
 70
   128
 71
   15
 72
   32
 73
   13
  0
VERTEX
  8
waffle
 10
0.0
 20
0.0
 30
0.0
 70
   128
 71
   126
 72
   130
 73
   132
  0
VERTEX
  8
waffle
 10
0.0
 20
0.0
 30
0.0
 70
   128
 71
   12
 72
   103
 73
   25
  0
VERTEX
  8
waffle
 10
0.0
 20
0.0
 30
0.0
 70
   128
 71
   112
 72
   17
 73
   22
  0
VERTEX
  8
waffle
 10
0.0
 20
0.0
 30
0.0
 70
   128
 71
   14
 72
   105
 73
   12
  0
VERTEX
  8
waffle
 10
0.0
 20
0.0
 30
0.0
 70
   128
 71
   23
 72
   104
 73
   10
  0
VERTEX
  8
waffle
 10
0.0
 20
0.0
 30
0.0
 70
   128
 71
   109
 72
   113
 73
   115
  0
VERTEX
  8
waffle
 10
0.0
 20
0.0
 30
0.0
 70
   128
 71
   16
 72
   108
 73
   32
  0
VERTEX
  8
waffle
 10
0.0
 20
0.0
 30
0.0
 70
   128
 71
   117
 72
   121
 73
   123
  0
VERTEX
  8
waffle
 10
0.0
 20
0.0
 30
0.0
 70
   128
 71
   12
 72
   106
 73
   14
  0
VERTEX
  8
waffle
 10
0.0
 20
0.0
 30
0.0
 70
   128
 71
   125
 72
   129
 73
   131
  0
VERTEX
  8
waffle
 10
0.0
 20
0.0
 30
0.0
 70
   128
 71
   101
 72
   105
 73
   107
  0
VERTEX
  8
waffle
 10
0.0
 20
0.0
 30
0.0
 70
   128
 71
   148
 72
   130
 73
   147
  0
VERTEX
  8
waffle
 10
0.0
 20
0.0
 30
0.0
 70
   128
 71
   149
 72
   22
 73
   152
  0
VERTEX
  8
waffle
 10
0.0
 20
0.0
 30
0.0
 70
   128
 71
   104
 72
   141
 73
   106
  0
VERTEX
  8
waffle
 10
0.0
 20
0.0
 30
0.0
 70
   128
 71
   10
 72
   11
 73
   23
  0
VERTEX
  8
waffle
 10
0.0
 20
0.0
 30
0.0
 70
   128
 71
   150
 72
   112
 73
   149
  0
VERTEX
  8
waffle
 10
0.0
 20
0.0
 30
0.0
 70
   128
 71
   151
 72
   114
 73
   150
  0
VERTEX
  8
waffle
 10
0.0
 20
0.0
 30
0.0
 70
   128
 71
   154
 72
   109
 73
   153
  0
VERTEX
  8
waffle
 10
0.0
 20
0.0
 30
0.0
 70
   128
 71
   155
 72
   111
 73
   154
  0
VERTEX
  8
waffle
 10
0.0
 20
0.0
 30
0.0
 70
   128
 71
   156
 72
   113
 73
   155
  0
VERTEX
  8
waffle
 10
0.0
 20
0.0
 30
0.0
 70
   128
 71
   157
 72
   123
 73
   160
  0
VERTEX
  8
waffle
 10
0.0
 20
0.0
 30
0.0
 70
   128
 71
   158
 72
   117
 73
   157
  0
VERTEX
  8
waffle
 10
0.0
 20
0.0
 30
0.0
 70
   128
 71
   159
 72
   119
 73
   158
  0
VERTEX
  8
waffle
 10
0.0
 20
0.0
 30
0.0
 70
   128
 71
   32
 72
   102
 73
   23
  0
VERTEX
  8
waffle
 10
0.0
 20
0.0
 30
0.0
 70
   128
 71
   152
 72
   17
 73
   151
  0
VERTEX
  8
waffle
 10
0.0
 20
0.0
 30
0.0
 70
   128
 71
   153
 72
   115
 73
   156
  0
VERTEX
  8
waffle
 10
0.0
 20
0.0
 30
0.0
 70
   128
 71
   134
 72
   143
 73
   142
  0
VERTEX
  8
waffle
 10
0.0
 20
0.0
 30
0.0
 70
   128
 71
   133
 72
   18
 73
   143
  0
VERTEX
  8
waffle
 10
0.0
 20
0.0
 30
0.0
 70
   128
 71
   160
 72
   136
 73
   157
  0
VERTEX
  8
waffle
 10
0.0
 20
0.0
 30
0.0
 70
   128
 71
   144
 72
   18
 73
   21
  0
VERTEX
  8
waffle
 10
0.0
 20
0.0
 30
0.0
 70
   128
 71
   151
 72
   144
 73
   152
  0
VERTEX
  8
waffle
 10
0.0
 20
0.0
 30
0.0
 70
   128
 71
   144
 72
   24
 73
   152
  0
VERTEX
  8
waffle
 10
0.0
 20
0.0
 30
0.0
 70
   128
 71
   14
 72
   152
 73
   24
  0
VERTEX
  8
waffle
 10
0.0
 20
0.0
 30
0.0
 70
   128
 71
   147
 72
   153
 73
   148
  0
VERTEX
  8
waffle
 10
0.0
 20
0.0
 30
0.0
 70
   128
 71
   158
 72
   148
 73
   159
  0
VERTEX
  8
waffle
 10
0.0
 20
0.0
 30
0.0
 70
   128
 71
   159
 72
   153
 73
   19
  0
VERTEX
  8
waffle
 10
0.0
 20
0.0
 30
0.0
 70
   128
 71
   139
 72
   25
 73
   140
  0
VERTEX
  8
waffle
 10
0.0
 20
0.0
 30
0.0
 70
   128
 71
   137
 72
   156
 73
   155
  0
VERTEX
  8
waffle
 10
0.0
 20
0.0
 30
0.0
 70
   128
 71
   140
 72
   20
 73
   156
  0
VERTEX
  8
waffle
 10
0.0
 20
0.0
 30
0.0
 70
   128
 71
   19
 72
   156
 73
   20
  0
VERTEX
  8
waffle
 10
0.0
 20
0.0
 30
0.0
 70
   128
 71
   159
 72
   18
 73
   160
  0
VERTEX
  8
waffle
 10
0.0
 20
0.0
 30
0.0
 70
   128
 71
   20
 72
   24
 73
   21
  0
VERTEX
  8
waffle
 10
0.0
 20
0.0
 30
0.0
 70
   128
 71
   133
 72
   29
 73
   136
  0
VERTEX
  8
waffle
 10
0.0
 20
0.0
 30
0.0
 70
   128
 71
   134
 72
   26
 73
   133
  0
VERTEX
  8
waffle
 10
0.0
 20
0.0
 30
0.0
 70
   128
 71
   135
 72
   27
 73
   134
  0
VERTEX
  8
waffle
 10
0.0
 20
0.0
 30
0.0
 70
   128
 71
   136
 72
   28
 73
   135
  0
VERTEX
  8
waffle
 10
0.0
 20
0.0
 30
0.0
 70
   128
 71
   137
 72
   116
 73
   140
  0
VERTEX
  8
waffle
 10
0.0
 20
0.0
 30
0.0
 70
   128
 71
   138
 72
   30
 73
   137
  0
VERTEX
  8
waffle
 10
0.0
 20
0.0
 30
0.0
 70
   128
 71
   139
 72
   31
 73
   138
  0
VERTEX
  8
waffle
 10
0.0
 20
0.0
 30
0.0
 70
   128
 71
   140
 72
   110
 73
   139
  0
VERTEX
  8
waffle
 10
0.0
 20
0.0
 30
0.0
 70
   128
 71
   141
 72
   124
 73
   144
  0
VERTEX
  8
waffle
 10
0.0
 20
0.0
 30
0.0
 70
   128
 71
   142
 72
   118
 73
   141
  0
VERTEX
  8
waffle
 10
0.0
 20
0.0
 30
0.0
 70
   128
 71
   143
 72
   120
 73
   142
  0
VERTEX
  8
waffle
 10
0.0
 20
0.0
 30
0.0
 70
   128
 71
   144
 72
   122
 73
   143
  0
VERTEX
  8
waffle
 10
0.0
 20
0.0
 30
0.0
 70
   128
 71
   145
 72
   132
 73
   148
  0
VERTEX
  8
waffle
 10
0.0
 20
0.0
 30
0.0
 70
   128
 71
   146
 72
   126
 73
   145
  0
VERTEX
  8
waffle
 10
0.0
 20
0.0
 30
0.0
 70
   128
 71
   147
 72
   128
 73
   146
  0
SEQEND
  0
ENDSEC
  0
EOF
