999
FBX AutoCAD (*.DXF) exporter
  0
SECTION
  2
HEADER
  9
$ACADVER
  1
AC1008
  9
$UCSORG
 10
0.0
 20
0.0
 30
0.0
  9
$UCSXDIR
 10
1.0
 20
0.0
 30
0.0
  9
$TILEMODE
 70
   1
  9
$UCSYDIR
 10
0.0
 20
1.0
 30
0.0
  0
ENDSEC
  0
SECTION
  2
TABLES
  0
TABLE
  2
LTYPE
 70
   1
  0
LTYPE
  2
CONTINUOUS
 70
   64
  3
Solid line
 72
   65
 73
   0
 40
0.0
  0
ENDTAB
  0
TABLE
  2
LAYER
 70
   1
  0
LAYER
  2
cookie
 70
   0
 62
   250
  6
CONTINUOUS
  0
ENDTAB
  0
ENDSEC
  0
SECTION
  2
BLOCKS
  0
ENDSEC
  0
SECTION
  2
ENTITIES
  0
POLYLINE
  8
cookie
 66
   1
 10
0.0
 20
0.0
 30
0.0
 70
   64
 71
   66
 72
   128
  0
VERTEX
  8
cookie
 10
0.000000
 20
46.867394
 30
82.344715
 70
   192
  0
VERTEX
  8
cookie
 10
0.000000
 20
13.091041
 30
82.535453
 70
   192
  0
VERTEX
  8
cookie
 10
85.065081
 20
30.497358
 30
49.944670
 70
   192
  0
VERTEX
  8
cookie
 10
85.065081
 20
29.903599
 30
-55.199876
 70
   192
  0
VERTEX
  8
cookie
 10
0.000000
 20
45.906672
 30
-87.782734
 70
   192
  0
VERTEX
  8
cookie
 10
0.000000
 20
12.130319
 30
-87.591996
 70
   192
  0
VERTEX
  8
cookie
 10
-85.065081
 20
29.903599
 30
-55.199876
 70
   192
  0
VERTEX
  8
cookie
 10
-85.065081
 20
30.497358
 30
49.944670
 70
   192
  0
VERTEX
  8
cookie
 10
52.573111
 20
52.098704
 30
-2.751264
 70
   192
  0
VERTEX
  8
cookie
 10
-52.573111
 20
52.098704
 30
-2.751264
 70
   192
  0
VERTEX
  8
cookie
 10
-52.573111
 20
6.899009
 30
-2.496018
 70
   192
  0
VERTEX
  8
cookie
 10
52.573111
 20
6.899009
 30
-2.496018
 70
   192
  0
VERTEX
  8
cookie
 10
0.000000
 20
54.724072
 30
-2.766089
 70
   192
  0
VERTEX
  8
cookie
 10
30.901699
 20
51.649184
 30
47.252072
 70
   192
  0
VERTEX
  8
cookie
 10
-30.901699
 20
51.649184
 30
47.252072
 70
   192
  0
VERTEX
  8
cookie
 10
80.901699
 20
46.109214
 30
28.184752
 70
   192
  0
VERTEX
  8
cookie
 10
50.000000
 20
43.034327
 30
78.202913
 70
   192
  0
VERTEX
  8
cookie
 10
80.901699
 20
45.760212
 30
-33.617662
 70
   192
  0
VERTEX
  8
cookie
 10
100.000000
 20
30.200479
 30
-2.627603
 70
   192
  0
VERTEX
  8
cookie
 10
30.901699
 20
51.084486
 30
-52.746333
 70
   192
  0
VERTEX
  8
cookie
 10
50.000000
 20
42.120626
 30
-83.597906
 70
   192
  0
VERTEX
  8
cookie
 10
-30.901699
 20
51.084486
 30
-52.746333
 70
   192
  0
VERTEX
  8
cookie
 10
-80.901699
 20
45.760212
 30
-33.617662
 70
   192
  0
VERTEX
  8
cookie
 10
-50.000000
 20
42.120626
 30
-83.597906
 70
   192
  0
VERTEX
  8
cookie
 10
-80.901699
 20
46.109214
 30
28.184752
 70
   192
  0
VERTEX
  8
cookie
 10
-100.000000
 20
30.200479
 30
-2.627603
 70
   192
  0
VERTEX
  8
cookie
 10
-50.000000
 20
43.034327
 30
78.202913
 70
   192
  0
VERTEX
  8
cookie
 10
0.000000
 20
4.273641
 30
-2.481192
 70
   192
  0
VERTEX
  8
cookie
 10
-30.901699
 20
7.913227
 30
47.499052
 70
   192
  0
VERTEX
  8
cookie
 10
30.901699
 20
7.913227
 30
47.499052
 70
   192
  0
VERTEX
  8
cookie
 10
80.901699
 20
13.237501
 30
28.370381
 70
   192
  0
VERTEX
  8
cookie
 10
50.000000
 20
16.877087
 30
78.350625
 70
   192
  0
VERTEX
  8
cookie
 10
80.901699
 20
12.888499
 30
-33.432033
 70
   192
  0
VERTEX
  8
cookie
 10
50.000000
 20
15.963386
 30
-83.450194
 70
   192
  0
VERTEX
  8
cookie
 10
30.901699
 20
7.348529
 30
-52.499353
 70
   192
  0
VERTEX
  8
cookie
 10
-30.901699
 20
7.348529
 30
-52.499353
 70
   192
  0
VERTEX
  8
cookie
 10
-50.000000
 20
15.963386
 30
-83.450194
 70
   192
  0
VERTEX
  8
cookie
 10
-80.901699
 20
12.888499
 30
-33.432033
 70
   192
  0
VERTEX
  8
cookie
 10
-80.901699
 20
13.237501
 30
28.370381
 70
   192
  0
VERTEX
  8
cookie
 10
-50.000000
 20
16.877087
 30
78.350625
 70
   192
  0
VERTEX
  8
cookie
 10
0.000000
 20
30.765177
 30
97.370803
 70
   192
  0
VERTEX
  8
cookie
 10
0.000000
 20
29.635781
 30
-102.626008
 70
   192
  0
VERTEX
  8
cookie
 10
4.031837
 20
59.066956
 30
-0.686499
 70
   192
  0
VERTEX
  8
cookie
 10
48.456116
 20
56.848520
 30
-0.673971
 70
   192
  0
VERTEX
  8
cookie
 10
30.143773
 20
56.468676
 30
41.578848
 70
   192
  0
VERTEX
  8
cookie
 10
30.243132
 20
55.048604
 30
-56.374658
 70
   192
  0
VERTEX
  8
cookie
 10
2.740620
 20
50.440349
 30
-87.557054
 70
   192
  0
VERTEX
  8
cookie
 10
47.240620
 20
47.070768
 30
-83.832558
 70
   192
  0
VERTEX
  8
cookie
 10
-35.740875
 20
55.264630
 30
-50.417084
 70
   192
  0
VERTEX
  8
cookie
 10
-53.923189
 20
56.115559
 30
-8.471221
 70
   192
  0
VERTEX
  8
cookie
 10
-77.690875
 20
50.797563
 30
-34.368129
 70
   192
  0
VERTEX
  8
cookie
 10
-51.796778
 20
48.054299
 30
74.672226
 70
   192
  0
VERTEX
  8
cookie
 10
-78.650355
 20
50.726376
 30
31.206443
 70
   192
  0
VERTEX
  8
cookie
 10
-35.200355
 20
55.540610
 30
47.775945
 70
   192
  0
VERTEX
  8
cookie
 10
-4.669686
 20
0.000000
 30
-0.027938
 70
   192
  0
VERTEX
  8
cookie
 10
-47.727064
 20
2.150176
 30
-0.040081
 70
   192
  0
VERTEX
  8
cookie
 10
-29.978178
 20
2.980820
 30
40.905882
 70
   192
  0
VERTEX
  8
cookie
 10
77.928954
 20
8.230834
 30
29.096713
 70
   192
  0
VERTEX
  8
cookie
 10
53.877983
 20
2.849454
 30
2.891141
 70
   192
  0
VERTEX
  8
cookie
 10
35.478954
 20
3.710525
 30
45.336955
 70
   192
  0
VERTEX
  8
cookie
 10
0.000000
 20
6.977106
 30
-83.844028
 70
   192
  0
VERTEX
  8
cookie
 10
-23.207176
 20
3.385981
 30
-57.489453
 70
   192
  0
VERTEX
  8
cookie
 10
23.207176
 20
3.385981
 30
-57.489453
 70
   192
  0
VERTEX
  8
cookie
 10
47.260351
 20
14.587226
 30
82.875773
 70
   192
  0
VERTEX
  8
cookie
 10
3.710351
 20
11.289580
 30
86.520758
 70
   192
  0
VERTEX
  8
cookie
 10
3.710351
 20
26.683752
 30
99.442348
 70
   192
  0
VERTEX
  8
cookie
 10
0.0
 20
0.0
 30
0.0
 70
   128
 71
   10
 72
   13
 73
   15
  0
VERTEX
  8
cookie
 10
0.0
 20
0.0
 30
0.0
 70
   128
 71
   43
 72
   44
 73
   45
  0
VERTEX
  8
cookie
 10
0.0
 20
0.0
 30
0.0
 70
   128
 71
   14
 72
   15
 73
   13
  0
VERTEX
  8
cookie
 10
0.0
 20
0.0
 30
0.0
 70
   128
 71
   15
 72
   14
 73
   1
  0
VERTEX
  8
cookie
 10
0.0
 20
0.0
 30
0.0
 70
   128
 71
   9
 72
   16
 73
   14
  0
VERTEX
  8
cookie
 10
0.0
 20
0.0
 30
0.0
 70
   128
 71
   16
 72
   3
 73
   17
  0
VERTEX
  8
cookie
 10
0.0
 20
0.0
 30
0.0
 70
   128
 71
   17
 72
   14
 73
   16
  0
VERTEX
  8
cookie
 10
0.0
 20
0.0
 30
0.0
 70
   128
 71
   14
 72
   17
 73
   1
  0
VERTEX
  8
cookie
 10
0.0
 20
0.0
 30
0.0
 70
   128
 71
   9
 72
   18
 73
   16
  0
VERTEX
  8
cookie
 10
0.0
 20
0.0
 30
0.0
 70
   128
 71
   18
 72
   4
 73
   19
  0
VERTEX
  8
cookie
 10
0.0
 20
0.0
 30
0.0
 70
   128
 71
   19
 72
   16
 73
   18
  0
VERTEX
  8
cookie
 10
0.0
 20
0.0
 30
0.0
 70
   128
 71
   16
 72
   19
 73
   3
  0
VERTEX
  8
cookie
 10
0.0
 20
0.0
 30
0.0
 70
   128
 71
   9
 72
   20
 73
   18
  0
VERTEX
  8
cookie
 10
0.0
 20
0.0
 30
0.0
 70
   128
 71
   46
 72
   47
 73
   48
  0
VERTEX
  8
cookie
 10
0.0
 20
0.0
 30
0.0
 70
   128
 71
   21
 72
   18
 73
   20
  0
VERTEX
  8
cookie
 10
0.0
 20
0.0
 30
0.0
 70
   128
 71
   18
 72
   21
 73
   4
  0
VERTEX
  8
cookie
 10
0.0
 20
0.0
 30
0.0
 70
   128
 71
   9
 72
   13
 73
   20
  0
VERTEX
  8
cookie
 10
0.0
 20
0.0
 30
0.0
 70
   128
 71
   13
 72
   10
 73
   22
  0
VERTEX
  8
cookie
 10
0.0
 20
0.0
 30
0.0
 70
   128
 71
   22
 72
   20
 73
   13
  0
VERTEX
  8
cookie
 10
0.0
 20
0.0
 30
0.0
 70
   128
 71
   20
 72
   22
 73
   5
  0
VERTEX
  8
cookie
 10
0.0
 20
0.0
 30
0.0
 70
   128
 71
   5
 72
   22
 73
   24
  0
VERTEX
  8
cookie
 10
0.0
 20
0.0
 30
0.0
 70
   128
 71
   49
 72
   50
 73
   51
  0
VERTEX
  8
cookie
 10
0.0
 20
0.0
 30
0.0
 70
   128
 71
   23
 72
   24
 73
   22
  0
VERTEX
  8
cookie
 10
0.0
 20
0.0
 30
0.0
 70
   128
 71
   24
 72
   23
 73
   7
  0
VERTEX
  8
cookie
 10
0.0
 20
0.0
 30
0.0
 70
   128
 71
   7
 72
   23
 73
   26
  0
VERTEX
  8
cookie
 10
0.0
 20
0.0
 30
0.0
 70
   128
 71
   23
 72
   10
 73
   25
  0
VERTEX
  8
cookie
 10
0.0
 20
0.0
 30
0.0
 70
   128
 71
   25
 72
   26
 73
   23
  0
VERTEX
  8
cookie
 10
0.0
 20
0.0
 30
0.0
 70
   128
 71
   26
 72
   25
 73
   8
  0
VERTEX
  8
cookie
 10
0.0
 20
0.0
 30
0.0
 70
   128
 71
   10
 72
   15
 73
   25
  0
VERTEX
  8
cookie
 10
0.0
 20
0.0
 30
0.0
 70
   128
 71
   15
 72
   1
 73
   27
  0
VERTEX
  8
cookie
 10
0.0
 20
0.0
 30
0.0
 70
   128
 71
   52
 72
   53
 73
   54
  0
VERTEX
  8
cookie
 10
0.0
 20
0.0
 30
0.0
 70
   128
 71
   25
 72
   27
 73
   8
  0
VERTEX
  8
cookie
 10
0.0
 20
0.0
 30
0.0
 70
   128
 71
   12
 72
   28
 73
   30
  0
VERTEX
  8
cookie
 10
0.0
 20
0.0
 30
0.0
 70
   128
 71
   55
 72
   56
 73
   57
  0
VERTEX
  8
cookie
 10
0.0
 20
0.0
 30
0.0
 70
   128
 71
   29
 72
   30
 73
   28
  0
VERTEX
  8
cookie
 10
0.0
 20
0.0
 30
0.0
 70
   128
 71
   30
 72
   29
 73
   2
  0
VERTEX
  8
cookie
 10
0.0
 20
0.0
 30
0.0
 70
   128
 71
   3
 72
   31
 73
   32
  0
VERTEX
  8
cookie
 10
0.0
 20
0.0
 30
0.0
 70
   128
 71
   58
 72
   59
 73
   60
  0
VERTEX
  8
cookie
 10
0.0
 20
0.0
 30
0.0
 70
   128
 71
   30
 72
   32
 73
   31
  0
VERTEX
  8
cookie
 10
0.0
 20
0.0
 30
0.0
 70
   128
 71
   32
 72
   30
 73
   2
  0
VERTEX
  8
cookie
 10
0.0
 20
0.0
 30
0.0
 70
   128
 71
   3
 72
   19
 73
   31
  0
VERTEX
  8
cookie
 10
0.0
 20
0.0
 30
0.0
 70
   128
 71
   19
 72
   4
 73
   33
  0
VERTEX
  8
cookie
 10
0.0
 20
0.0
 30
0.0
 70
   128
 71
   33
 72
   31
 73
   19
  0
VERTEX
  8
cookie
 10
0.0
 20
0.0
 30
0.0
 70
   128
 71
   31
 72
   33
 73
   12
  0
VERTEX
  8
cookie
 10
0.0
 20
0.0
 30
0.0
 70
   128
 71
   4
 72
   34
 73
   33
  0
VERTEX
  8
cookie
 10
0.0
 20
0.0
 30
0.0
 70
   128
 71
   34
 72
   6
 73
   35
  0
VERTEX
  8
cookie
 10
0.0
 20
0.0
 30
0.0
 70
   128
 71
   35
 72
   33
 73
   34
  0
VERTEX
  8
cookie
 10
0.0
 20
0.0
 30
0.0
 70
   128
 71
   33
 72
   35
 73
   12
  0
VERTEX
  8
cookie
 10
0.0
 20
0.0
 30
0.0
 70
   128
 71
   61
 72
   62
 73
   63
  0
VERTEX
  8
cookie
 10
0.0
 20
0.0
 30
0.0
 70
   128
 71
   36
 72
   11
 73
   28
  0
VERTEX
  8
cookie
 10
0.0
 20
0.0
 30
0.0
 70
   128
 71
   28
 72
   35
 73
   36
  0
VERTEX
  8
cookie
 10
0.0
 20
0.0
 30
0.0
 70
   128
 71
   35
 72
   28
 73
   12
  0
VERTEX
  8
cookie
 10
0.0
 20
0.0
 30
0.0
 70
   128
 71
   6
 72
   37
 73
   36
  0
VERTEX
  8
cookie
 10
0.0
 20
0.0
 30
0.0
 70
   128
 71
   37
 72
   7
 73
   38
  0
VERTEX
  8
cookie
 10
0.0
 20
0.0
 30
0.0
 70
   128
 71
   38
 72
   36
 73
   37
  0
VERTEX
  8
cookie
 10
0.0
 20
0.0
 30
0.0
 70
   128
 71
   36
 72
   38
 73
   11
  0
VERTEX
  8
cookie
 10
0.0
 20
0.0
 30
0.0
 70
   128
 71
   7
 72
   26
 73
   38
  0
VERTEX
  8
cookie
 10
0.0
 20
0.0
 30
0.0
 70
   128
 71
   26
 72
   8
 73
   39
  0
VERTEX
  8
cookie
 10
0.0
 20
0.0
 30
0.0
 70
   128
 71
   39
 72
   38
 73
   26
  0
VERTEX
  8
cookie
 10
0.0
 20
0.0
 30
0.0
 70
   128
 71
   38
 72
   39
 73
   11
  0
VERTEX
  8
cookie
 10
0.0
 20
0.0
 30
0.0
 70
   128
 71
   8
 72
   40
 73
   39
  0
VERTEX
  8
cookie
 10
0.0
 20
0.0
 30
0.0
 70
   128
 71
   40
 72
   2
 73
   29
  0
VERTEX
  8
cookie
 10
0.0
 20
0.0
 30
0.0
 70
   128
 71
   29
 72
   39
 73
   40
  0
VERTEX
  8
cookie
 10
0.0
 20
0.0
 30
0.0
 70
   128
 71
   39
 72
   29
 73
   11
  0
VERTEX
  8
cookie
 10
0.0
 20
0.0
 30
0.0
 70
   128
 71
   2
 72
   40
 73
   41
  0
VERTEX
  8
cookie
 10
0.0
 20
0.0
 30
0.0
 70
   128
 71
   40
 72
   8
 73
   27
  0
VERTEX
  8
cookie
 10
0.0
 20
0.0
 30
0.0
 70
   128
 71
   27
 72
   41
 73
   40
  0
VERTEX
  8
cookie
 10
0.0
 20
0.0
 30
0.0
 70
   128
 71
   41
 72
   27
 73
   1
  0
VERTEX
  8
cookie
 10
0.0
 20
0.0
 30
0.0
 70
   128
 71
   3
 72
   32
 73
   17
  0
VERTEX
  8
cookie
 10
0.0
 20
0.0
 30
0.0
 70
   128
 71
   64
 72
   65
 73
   66
  0
VERTEX
  8
cookie
 10
0.0
 20
0.0
 30
0.0
 70
   128
 71
   41
 72
   17
 73
   32
  0
VERTEX
  8
cookie
 10
0.0
 20
0.0
 30
0.0
 70
   128
 71
   17
 72
   41
 73
   1
  0
VERTEX
  8
cookie
 10
0.0
 20
0.0
 30
0.0
 70
   128
 71
   5
 72
   42
 73
   21
  0
VERTEX
  8
cookie
 10
0.0
 20
0.0
 30
0.0
 70
   128
 71
   42
 72
   6
 73
   34
  0
VERTEX
  8
cookie
 10
0.0
 20
0.0
 30
0.0
 70
   128
 71
   34
 72
   21
 73
   42
  0
VERTEX
  8
cookie
 10
0.0
 20
0.0
 30
0.0
 70
   128
 71
   21
 72
   34
 73
   4
  0
VERTEX
  8
cookie
 10
0.0
 20
0.0
 30
0.0
 70
   128
 71
   5
 72
   24
 73
   42
  0
VERTEX
  8
cookie
 10
0.0
 20
0.0
 30
0.0
 70
   128
 71
   24
 72
   7
 73
   37
  0
VERTEX
  8
cookie
 10
0.0
 20
0.0
 30
0.0
 70
   128
 71
   37
 72
   42
 73
   24
  0
VERTEX
  8
cookie
 10
0.0
 20
0.0
 30
0.0
 70
   128
 71
   42
 72
   37
 73
   6
  0
VERTEX
  8
cookie
 10
0.0
 20
0.0
 30
0.0
 70
   128
 71
   13
 72
   43
 73
   45
  0
VERTEX
  8
cookie
 10
0.0
 20
0.0
 30
0.0
 70
   128
 71
   9
 72
   44
 73
   43
  0
VERTEX
  8
cookie
 10
0.0
 20
0.0
 30
0.0
 70
   128
 71
   14
 72
   45
 73
   44
  0
VERTEX
  8
cookie
 10
0.0
 20
0.0
 30
0.0
 70
   128
 71
   20
 72
   46
 73
   48
  0
VERTEX
  8
cookie
 10
0.0
 20
0.0
 30
0.0
 70
   128
 71
   5
 72
   47
 73
   46
  0
VERTEX
  8
cookie
 10
0.0
 20
0.0
 30
0.0
 70
   128
 71
   21
 72
   48
 73
   47
  0
VERTEX
  8
cookie
 10
0.0
 20
0.0
 30
0.0
 70
   128
 71
   22
 72
   49
 73
   51
  0
VERTEX
  8
cookie
 10
0.0
 20
0.0
 30
0.0
 70
   128
 71
   10
 72
   50
 73
   49
  0
VERTEX
  8
cookie
 10
0.0
 20
0.0
 30
0.0
 70
   128
 71
   23
 72
   51
 73
   50
  0
VERTEX
  8
cookie
 10
0.0
 20
0.0
 30
0.0
 70
   128
 71
   27
 72
   52
 73
   54
  0
VERTEX
  8
cookie
 10
0.0
 20
0.0
 30
0.0
 70
   128
 71
   25
 72
   53
 73
   52
  0
VERTEX
  8
cookie
 10
0.0
 20
0.0
 30
0.0
 70
   128
 71
   15
 72
   54
 73
   53
  0
VERTEX
  8
cookie
 10
0.0
 20
0.0
 30
0.0
 70
   128
 71
   28
 72
   55
 73
   57
  0
VERTEX
  8
cookie
 10
0.0
 20
0.0
 30
0.0
 70
   128
 71
   11
 72
   56
 73
   55
  0
VERTEX
  8
cookie
 10
0.0
 20
0.0
 30
0.0
 70
   128
 71
   29
 72
   57
 73
   56
  0
VERTEX
  8
cookie
 10
0.0
 20
0.0
 30
0.0
 70
   128
 71
   31
 72
   58
 73
   60
  0
VERTEX
  8
cookie
 10
0.0
 20
0.0
 30
0.0
 70
   128
 71
   12
 72
   59
 73
   58
  0
VERTEX
  8
cookie
 10
0.0
 20
0.0
 30
0.0
 70
   128
 71
   30
 72
   60
 73
   59
  0
VERTEX
  8
cookie
 10
0.0
 20
0.0
 30
0.0
 70
   128
 71
   6
 72
   61
 73
   63
  0
VERTEX
  8
cookie
 10
0.0
 20
0.0
 30
0.0
 70
   128
 71
   36
 72
   62
 73
   61
  0
VERTEX
  8
cookie
 10
0.0
 20
0.0
 30
0.0
 70
   128
 71
   35
 72
   63
 73
   62
  0
VERTEX
  8
cookie
 10
0.0
 20
0.0
 30
0.0
 70
   128
 71
   32
 72
   64
 73
   66
  0
VERTEX
  8
cookie
 10
0.0
 20
0.0
 30
0.0
 70
   128
 71
   2
 72
   65
 73
   64
  0
VERTEX
  8
cookie
 10
0.0
 20
0.0
 30
0.0
 70
   128
 71
   41
 72
   66
 73
   65
  0
VERTEX
  8
cookie
 10
0.0
 20
0.0
 30
0.0
 70
   128
 71
   13
 72
   45
 73
   14
  0
VERTEX
  8
cookie
 10
0.0
 20
0.0
 30
0.0
 70
   128
 71
   9
 72
   43
 73
   13
  0
VERTEX
  8
cookie
 10
0.0
 20
0.0
 30
0.0
 70
   128
 71
   14
 72
   44
 73
   9
  0
VERTEX
  8
cookie
 10
0.0
 20
0.0
 30
0.0
 70
   128
 71
   20
 72
   48
 73
   21
  0
VERTEX
  8
cookie
 10
0.0
 20
0.0
 30
0.0
 70
   128
 71
   5
 72
   46
 73
   20
  0
VERTEX
  8
cookie
 10
0.0
 20
0.0
 30
0.0
 70
   128
 71
   21
 72
   47
 73
   5
  0
VERTEX
  8
cookie
 10
0.0
 20
0.0
 30
0.0
 70
   128
 71
   22
 72
   51
 73
   23
  0
VERTEX
  8
cookie
 10
0.0
 20
0.0
 30
0.0
 70
   128
 71
   10
 72
   49
 73
   22
  0
VERTEX
  8
cookie
 10
0.0
 20
0.0
 30
0.0
 70
   128
 71
   23
 72
   50
 73
   10
  0
VERTEX
  8
cookie
 10
0.0
 20
0.0
 30
0.0
 70
   128
 71
   27
 72
   54
 73
   15
  0
VERTEX
  8
cookie
 10
0.0
 20
0.0
 30
0.0
 70
   128
 71
   25
 72
   52
 73
   27
  0
VERTEX
  8
cookie
 10
0.0
 20
0.0
 30
0.0
 70
   128
 71
   15
 72
   53
 73
   25
  0
VERTEX
  8
cookie
 10
0.0
 20
0.0
 30
0.0
 70
   128
 71
   28
 72
   57
 73
   29
  0
VERTEX
  8
cookie
 10
0.0
 20
0.0
 30
0.0
 70
   128
 71
   11
 72
   55
 73
   28
  0
VERTEX
  8
cookie
 10
0.0
 20
0.0
 30
0.0
 70
   128
 71
   29
 72
   56
 73
   11
  0
VERTEX
  8
cookie
 10
0.0
 20
0.0
 30
0.0
 70
   128
 71
   31
 72
   60
 73
   30
  0
VERTEX
  8
cookie
 10
0.0
 20
0.0
 30
0.0
 70
   128
 71
   12
 72
   58
 73
   31
  0
VERTEX
  8
cookie
 10
0.0
 20
0.0
 30
0.0
 70
   128
 71
   30
 72
   59
 73
   12
  0
VERTEX
  8
cookie
 10
0.0
 20
0.0
 30
0.0
 70
   128
 71
   6
 72
   63
 73
   35
  0
VERTEX
  8
cookie
 10
0.0
 20
0.0
 30
0.0
 70
   128
 71
   36
 72
   61
 73
   6
  0
VERTEX
  8
cookie
 10
0.0
 20
0.0
 30
0.0
 70
   128
 71
   35
 72
   62
 73
   36
  0
VERTEX
  8
cookie
 10
0.0
 20
0.0
 30
0.0
 70
   128
 71
   32
 72
   66
 73
   41
  0
VERTEX
  8
cookie
 10
0.0
 20
0.0
 30
0.0
 70
   128
 71
   2
 72
   64
 73
   32
  0
VERTEX
  8
cookie
 10
0.0
 20
0.0
 30
0.0
 70
   128
 71
   41
 72
   65
 73
   2
  0
SEQEND
  0
ENDSEC
  0
EOF
