999
FBX AutoCAD (*.DXF) exporter
  0
SECTION
  2
HEADER
  9
$ACADVER
  1
AC1008
  9
$UCSORG
 10
0.0
 20
0.0
 30
0.0
  9
$UCSXDIR
 10
1.0
 20
0.0
 30
0.0
  9
$TILEMODE
 70
   1
  9
$UCSYDIR
 10
0.0
 20
1.0
 30
0.0
  0
ENDSEC
  0
SECTION
  2
TABLES
  0
TABLE
  2
LTYPE
 70
   1
  0
LTYPE
  2
CONTINUOUS
 70
   64
  3
Solid line
 72
   65
 73
   0
 40
0.0
  0
ENDTAB
  0
TABLE
  2
LAYER
 70
   2
  0
LAYER
  2
donutBox
 70
   0
 62
   250
  6
CONTINUOUS
  0
LAYER
  2
donutBoxLid
 70
   0
 62
   250
  6
CONTINUOUS
  0
ENDTAB
  0
ENDSEC
  0
SECTION
  2
BLOCKS
  0
ENDSEC
  0
SECTION
  2
ENTITIES
  0
POLYLINE
  8
donutBox
 66
   1
 10
0.0
 20
0.0
 30
0.0
 70
   64
 71
   16
 72
   28
  0
VERTEX
  8
donutBox
 10
-191.852539
 20
0.000000
 30
107.400452
 70
   192
  0
VERTEX
  8
donutBox
 10
-191.852539
 20
89.450147
 30
107.400452
 70
   192
  0
VERTEX
  8
donutBox
 10
191.852539
 20
0.000000
 30
107.400452
 70
   192
  0
VERTEX
  8
donutBox
 10
191.852539
 20
89.450147
 30
107.400452
 70
   192
  0
VERTEX
  8
donutBox
 10
191.852539
 20
0.000000
 30
-107.400452
 70
   192
  0
VERTEX
  8
donutBox
 10
191.852539
 20
89.450147
 30
-107.400452
 70
   192
  0
VERTEX
  8
donutBox
 10
-191.852539
 20
0.000000
 30
-107.400452
 70
   192
  0
VERTEX
  8
donutBox
 10
-191.852539
 20
89.450147
 30
-107.400452
 70
   192
  0
VERTEX
  8
donutBox
 10
-184.501760
 20
89.450147
 30
98.904239
 70
   192
  0
VERTEX
  8
donutBox
 10
184.501760
 20
89.450147
 30
98.904239
 70
   192
  0
VERTEX
  8
donutBox
 10
184.501760
 20
89.450147
 30
-98.904239
 70
   192
  0
VERTEX
  8
donutBox
 10
-184.501760
 20
89.450147
 30
-98.904239
 70
   192
  0
VERTEX
  8
donutBox
 10
-184.501760
 20
11.019284
 30
98.904239
 70
   192
  0
VERTEX
  8
donutBox
 10
184.501760
 20
11.019284
 30
98.904239
 70
   192
  0
VERTEX
  8
donutBox
 10
184.501760
 20
11.019284
 30
-98.904239
 70
   192
  0
VERTEX
  8
donutBox
 10
-184.501760
 20
11.019284
 30
-98.904239
 70
   192
  0
VERTEX
  8
donutBox
 10
0.0
 20
0.0
 30
0.0
 70
   128
 71
   1
 72
   2
 73
   4
  0
VERTEX
  8
donutBox
 10
0.0
 20
0.0
 30
0.0
 70
   128
 71
   3
 72
   4
 73
   6
  0
VERTEX
  8
donutBox
 10
0.0
 20
0.0
 30
0.0
 70
   128
 71
   5
 72
   6
 73
   8
  0
VERTEX
  8
donutBox
 10
0.0
 20
0.0
 30
0.0
 70
   128
 71
   7
 72
   8
 73
   2
  0
VERTEX
  8
donutBox
 10
0.0
 20
0.0
 30
0.0
 70
   128
 71
   13
 72
   16
 73
   15
  0
VERTEX
  8
donutBox
 10
0.0
 20
0.0
 30
0.0
 70
   128
 71
   7
 72
   1
 73
   3
  0
VERTEX
  8
donutBox
 10
0.0
 20
0.0
 30
0.0
 70
   128
 71
   2
 72
   9
 73
   10
  0
VERTEX
  8
donutBox
 10
0.0
 20
0.0
 30
0.0
 70
   128
 71
   4
 72
   10
 73
   11
  0
VERTEX
  8
donutBox
 10
0.0
 20
0.0
 30
0.0
 70
   128
 71
   6
 72
   11
 73
   12
  0
VERTEX
  8
donutBox
 10
0.0
 20
0.0
 30
0.0
 70
   128
 71
   8
 72
   12
 73
   9
  0
VERTEX
  8
donutBox
 10
0.0
 20
0.0
 30
0.0
 70
   128
 71
   9
 72
   13
 73
   14
  0
VERTEX
  8
donutBox
 10
0.0
 20
0.0
 30
0.0
 70
   128
 71
   10
 72
   14
 73
   15
  0
VERTEX
  8
donutBox
 10
0.0
 20
0.0
 30
0.0
 70
   128
 71
   11
 72
   15
 73
   16
  0
VERTEX
  8
donutBox
 10
0.0
 20
0.0
 30
0.0
 70
   128
 71
   12
 72
   16
 73
   13
  0
VERTEX
  8
donutBox
 10
0.0
 20
0.0
 30
0.0
 70
   128
 71
   1
 72
   4
 73
   3
  0
VERTEX
  8
donutBox
 10
0.0
 20
0.0
 30
0.0
 70
   128
 71
   3
 72
   6
 73
   5
  0
VERTEX
  8
donutBox
 10
0.0
 20
0.0
 30
0.0
 70
   128
 71
   5
 72
   8
 73
   7
  0
VERTEX
  8
donutBox
 10
0.0
 20
0.0
 30
0.0
 70
   128
 71
   7
 72
   2
 73
   1
  0
VERTEX
  8
donutBox
 10
0.0
 20
0.0
 30
0.0
 70
   128
 71
   13
 72
   15
 73
   14
  0
VERTEX
  8
donutBox
 10
0.0
 20
0.0
 30
0.0
 70
   128
 71
   7
 72
   3
 73
   5
  0
VERTEX
  8
donutBox
 10
0.0
 20
0.0
 30
0.0
 70
   128
 71
   2
 72
   10
 73
   4
  0
VERTEX
  8
donutBox
 10
0.0
 20
0.0
 30
0.0
 70
   128
 71
   4
 72
   11
 73
   6
  0
VERTEX
  8
donutBox
 10
0.0
 20
0.0
 30
0.0
 70
   128
 71
   6
 72
   12
 73
   8
  0
VERTEX
  8
donutBox
 10
0.0
 20
0.0
 30
0.0
 70
   128
 71
   8
 72
   9
 73
   2
  0
VERTEX
  8
donutBox
 10
0.0
 20
0.0
 30
0.0
 70
   128
 71
   9
 72
   14
 73
   10
  0
VERTEX
  8
donutBox
 10
0.0
 20
0.0
 30
0.0
 70
   128
 71
   10
 72
   15
 73
   11
  0
VERTEX
  8
donutBox
 10
0.0
 20
0.0
 30
0.0
 70
   128
 71
   11
 72
   16
 73
   12
  0
VERTEX
  8
donutBox
 10
0.0
 20
0.0
 30
0.0
 70
   128
 71
   12
 72
   13
 73
   9
  0
SEQEND
  0
POLYLINE
  8
donutBoxLid
 66
   1
 10
0.0
 20
0.0
 30
0.0
 70
   64
 71
   16
 72
   28
  0
VERTEX
  8
donutBoxLid
 10
200.664882
 20
102.309062
 30
110.833163
 70
   192
  0
VERTEX
  8
donutBoxLid
 10
200.662473
 20
9.996511
 30
110.833163
 70
   192
  0
VERTEX
  8
donutBoxLid
 10
-200.121764
 20
102.318846
 30
110.841359
 70
   192
  0
VERTEX
  8
donutBoxLid
 10
-200.124172
 20
10.006295
 30
110.841359
 70
   192
  0
VERTEX
  8
donutBoxLid
 10
-200.126348
 20
102.318846
 30
-107.934381
 70
   192
  0
VERTEX
  8
donutBoxLid
 10
-200.128756
 20
10.006295
 30
-107.934381
 70
   192
  0
VERTEX
  8
donutBoxLid
 10
200.660298
 20
102.309062
 30
-107.942577
 70
   192
  0
VERTEX
  8
donutBoxLid
 10
200.657889
 20
9.996511
 30
-107.942577
 70
   192
  0
VERTEX
  8
donutBoxLid
 10
193.076286
 20
9.996696
 30
102.065226
 70
   192
  0
VERTEX
  8
donutBoxLid
 10
-192.538352
 20
10.006110
 30
102.073112
 70
   192
  0
VERTEX
  8
donutBoxLid
 10
-192.542752
 20
10.006110
 30
-107.934536
 70
   192
  0
VERTEX
  8
donutBoxLid
 10
193.071886
 20
9.996696
 30
-107.942421
 70
   192
  0
VERTEX
  8
donutBoxLid
 10
193.078398
 20
90.937346
 30
102.065226
 70
   192
  0
VERTEX
  8
donutBoxLid
 10
-192.536241
 20
90.946760
 30
102.073112
 70
   192
  0
VERTEX
  8
donutBoxLid
 10
-192.540641
 20
90.946760
 30
-107.934536
 70
   192
  0
VERTEX
  8
donutBoxLid
 10
193.073998
 20
90.937346
 30
-107.942421
 70
   192
  0
VERTEX
  8
donutBoxLid
 10
0.0
 20
0.0
 30
0.0
 70
   128
 71
   1
 72
   2
 73
   4
  0
VERTEX
  8
donutBoxLid
 10
0.0
 20
0.0
 30
0.0
 70
   128
 71
   3
 72
   4
 73
   6
  0
VERTEX
  8
donutBoxLid
 10
0.0
 20
0.0
 30
0.0
 70
   128
 71
   12
 72
   16
 73
   13
  0
VERTEX
  8
donutBoxLid
 10
0.0
 20
0.0
 30
0.0
 70
   128
 71
   7
 72
   8
 73
   2
  0
VERTEX
  8
donutBoxLid
 10
0.0
 20
0.0
 30
0.0
 70
   128
 71
   13
 72
   16
 73
   15
  0
VERTEX
  8
donutBoxLid
 10
0.0
 20
0.0
 30
0.0
 70
   128
 71
   7
 72
   1
 73
   3
  0
VERTEX
  8
donutBoxLid
 10
0.0
 20
0.0
 30
0.0
 70
   128
 71
   2
 72
   9
 73
   10
  0
VERTEX
  8
donutBoxLid
 10
0.0
 20
0.0
 30
0.0
 70
   128
 71
   4
 72
   10
 73
   11
  0
VERTEX
  8
donutBoxLid
 10
0.0
 20
0.0
 30
0.0
 70
   128
 71
   10
 72
   14
 73
   15
  0
VERTEX
  8
donutBoxLid
 10
0.0
 20
0.0
 30
0.0
 70
   128
 71
   8
 72
   12
 73
   9
  0
VERTEX
  8
donutBoxLid
 10
0.0
 20
0.0
 30
0.0
 70
   128
 71
   9
 72
   13
 73
   14
  0
VERTEX
  8
donutBoxLid
 10
0.0
 20
0.0
 30
0.0
 70
   128
 71
   16
 72
   12
 73
   8
  0
VERTEX
  8
donutBoxLid
 10
0.0
 20
0.0
 30
0.0
 70
   128
 71
   7
 72
   5
 73
   15
  0
VERTEX
  8
donutBoxLid
 10
0.0
 20
0.0
 30
0.0
 70
   128
 71
   15
 72
   5
 73
   6
  0
VERTEX
  8
donutBoxLid
 10
0.0
 20
0.0
 30
0.0
 70
   128
 71
   1
 72
   4
 73
   3
  0
VERTEX
  8
donutBoxLid
 10
0.0
 20
0.0
 30
0.0
 70
   128
 71
   3
 72
   6
 73
   5
  0
VERTEX
  8
donutBoxLid
 10
0.0
 20
0.0
 30
0.0
 70
   128
 71
   12
 72
   13
 73
   9
  0
VERTEX
  8
donutBoxLid
 10
0.0
 20
0.0
 30
0.0
 70
   128
 71
   7
 72
   2
 73
   1
  0
VERTEX
  8
donutBoxLid
 10
0.0
 20
0.0
 30
0.0
 70
   128
 71
   13
 72
   15
 73
   14
  0
VERTEX
  8
donutBoxLid
 10
0.0
 20
0.0
 30
0.0
 70
   128
 71
   7
 72
   3
 73
   5
  0
VERTEX
  8
donutBoxLid
 10
0.0
 20
0.0
 30
0.0
 70
   128
 71
   2
 72
   10
 73
   4
  0
VERTEX
  8
donutBoxLid
 10
0.0
 20
0.0
 30
0.0
 70
   128
 71
   4
 72
   11
 73
   6
  0
VERTEX
  8
donutBoxLid
 10
0.0
 20
0.0
 30
0.0
 70
   128
 71
   10
 72
   15
 73
   11
  0
VERTEX
  8
donutBoxLid
 10
0.0
 20
0.0
 30
0.0
 70
   128
 71
   8
 72
   9
 73
   2
  0
VERTEX
  8
donutBoxLid
 10
0.0
 20
0.0
 30
0.0
 70
   128
 71
   9
 72
   14
 73
   10
  0
VERTEX
  8
donutBoxLid
 10
0.0
 20
0.0
 30
0.0
 70
   128
 71
   16
 72
   8
 73
   7
  0
VERTEX
  8
donutBoxLid
 10
0.0
 20
0.0
 30
0.0
 70
   128
 71
   7
 72
   15
 73
   16
  0
VERTEX
  8
donutBoxLid
 10
0.0
 20
0.0
 30
0.0
 70
   128
 71
   15
 72
   6
 73
   11
  0
SEQEND
  0
ENDSEC
  0
EOF
