999
FBX AutoCAD (*.DXF) exporter
  0
SECTION
  2
HEADER
  9
$ACADVER
  1
AC1008
  9
$UCSORG
 10
0.0
 20
0.0
 30
0.0
  9
$UCSXDIR
 10
1.0
 20
0.0
 30
0.0
  9
$TILEMODE
 70
   1
  9
$UCSYDIR
 10
0.0
 20
1.0
 30
0.0
  0
ENDSEC
  0
SECTION
  2
TABLES
  0
TABLE
  2
LTYPE
 70
   1
  0
LTYPE
  2
CONTINUOUS
 70
   64
  3
Solid line
 72
   65
 73
   0
 40
0.0
  0
ENDTAB
  0
TABLE
  2
LAYER
 70
   1
  0
LAYER
  2
milkshakeMango
 70
   0
 62
   250
  6
CONTINUOUS
  0
ENDTAB
  0
ENDSEC
  0
SECTION
  2
BLOCKS
  0
ENDSEC
  0
SECTION
  2
ENTITIES
  0
POLYLINE
  8
milkshakeMango
 66
   1
 10
0.0
 20
0.0
 30
0.0
 70
   64
 71
   126
 72
   243
  0
VERTEX
  8
milkshakeMango
 10
78.153797
 20
258.778042
 30
2.517220
 70
   192
  0
VERTEX
  8
milkshakeMango
 10
79.102697
 20
258.345906
 30
0.000000
 70
   192
  0
VERTEX
  8
milkshakeMango
 10
78.153797
 20
258.778042
 30
-2.517220
 70
   192
  0
VERTEX
  8
milkshakeMango
 10
75.862948
 20
259.821310
 30
-3.559886
 70
   192
  0
VERTEX
  8
milkshakeMango
 10
73.572100
 20
260.864578
 30
-2.517220
 70
   192
  0
VERTEX
  8
milkshakeMango
 10
72.623200
 20
261.296714
 30
-0.000000
 70
   192
  0
VERTEX
  8
milkshakeMango
 10
73.572100
 20
260.864578
 30
2.517220
 70
   192
  0
VERTEX
  8
milkshakeMango
 10
75.862948
 20
259.821310
 30
3.559886
 70
   192
  0
VERTEX
  8
milkshakeMango
 10
49.792652
 20
196.501555
 30
-2.517220
 70
   192
  0
VERTEX
  8
milkshakeMango
 10
50.938351
 20
196.501555
 30
0.000000
 70
   192
  0
VERTEX
  8
milkshakeMango
 10
43.115034
 20
196.501555
 30
-0.000000
 70
   192
  0
VERTEX
  8
milkshakeMango
 10
44.260733
 20
196.501555
 30
-2.517219
 70
   192
  0
VERTEX
  8
milkshakeMango
 10
47.026692
 20
196.501555
 30
-3.559886
 70
   192
  0
VERTEX
  8
milkshakeMango
 10
47.026693
 20
196.501555
 30
3.559886
 70
   192
  0
VERTEX
  8
milkshakeMango
 10
44.260733
 20
196.501555
 30
2.517220
 70
   192
  0
VERTEX
  8
milkshakeMango
 10
49.792653
 20
196.501555
 30
2.517220
 70
   192
  0
VERTEX
  8
milkshakeMango
 10
54.345083
 20
122.105781
 30
34.925455
 70
   192
  0
VERTEX
  8
milkshakeMango
 10
45.441454
 20
196.501555
 30
-2.962309
 70
   192
  0
VERTEX
  8
milkshakeMango
 10
19.123212
 20
206.176242
 30
1.706125
 70
   192
  0
VERTEX
  8
milkshakeMango
 10
4.757005
 20
210.931088
 30
-12.389480
 70
   192
  0
VERTEX
  8
milkshakeMango
 10
-31.894748
 20
213.896158
 30
-19.255412
 70
   192
  0
VERTEX
  8
milkshakeMango
 10
3.032329
 20
196.501556
 30
12.856628
 70
   192
  0
VERTEX
  8
milkshakeMango
 10
19.744948
 20
196.501555
 30
-5.790870
 70
   192
  0
VERTEX
  8
milkshakeMango
 10
35.764703
 20
12.105441
 30
22.984576
 70
   192
  0
VERTEX
  8
milkshakeMango
 10
51.921555
 20
104.552535
 30
33.367949
 70
   192
  0
VERTEX
  8
milkshakeMango
 10
-37.421118
 20
196.501555
 30
2.733582
 70
   192
  0
VERTEX
  8
milkshakeMango
 10
0.172656
 20
196.501555
 30
5.851287
 70
   192
  0
VERTEX
  8
milkshakeMango
 10
35.764703
 20
49.552365
 30
22.984575
 70
   192
  0
VERTEX
  8
milkshakeMango
 10
5.684309
 20
196.501554
 30
-23.571046
 70
   192
  0
VERTEX
  8
milkshakeMango
 10
-30.776896
 20
196.501554
 30
-32.734635
 70
   192
  0
VERTEX
  8
milkshakeMango
 10
32.533333
 20
0.403277
 30
20.907902
 70
   192
  0
VERTEX
  8
milkshakeMango
 10
39.803916
 20
72.956693
 30
25.580418
 70
   192
  0
VERTEX
  8
milkshakeMango
 10
33.411284
 20
196.501556
 30
15.375998
 70
   192
  0
VERTEX
  8
milkshakeMango
 10
51.156142
 20
196.501555
 30
-0.000011
 70
   192
  0
VERTEX
  8
milkshakeMango
 10
53.076711
 20
200.510277
 30
-0.000011
 70
   192
  0
VERTEX
  8
milkshakeMango
 10
62.679554
 20
200.510277
 30
-0.000011
 70
   192
  0
VERTEX
  8
milkshakeMango
 10
64.600122
 20
122.105780
 30
-0.000008
 70
   192
  0
VERTEX
  8
milkshakeMango
 10
61.719269
 20
104.552534
 30
-0.000007
 70
   192
  0
VERTEX
  8
milkshakeMango
 10
47.315005
 20
72.956692
 30
-0.000005
 70
   192
  0
VERTEX
  8
milkshakeMango
 10
42.513584
 20
49.552364
 30
-0.000004
 70
   192
  0
VERTEX
  8
milkshakeMango
 10
42.513584
 20
12.105440
 30
-0.000002
 70
   192
  0
VERTEX
  8
milkshakeMango
 10
38.672446
 20
0.403276
 30
-0.000002
 70
   192
  0
VERTEX
  8
milkshakeMango
 10
43.035284
 20
196.501554
 30
-27.657109
 70
   192
  0
VERTEX
  8
milkshakeMango
 10
44.650969
 20
200.510276
 30
-28.695447
 70
   192
  0
VERTEX
  8
milkshakeMango
 10
52.729395
 20
200.510276
 30
-33.887136
 70
   192
  0
VERTEX
  8
milkshakeMango
 10
54.345080
 20
122.105778
 30
-34.925471
 70
   192
  0
VERTEX
  8
milkshakeMango
 10
51.921552
 20
104.552533
 30
-33.367963
 70
   192
  0
VERTEX
  8
milkshakeMango
 10
39.803914
 20
72.956691
 30
-25.580428
 70
   192
  0
VERTEX
  8
milkshakeMango
 10
35.764701
 20
49.552363
 30
-22.984582
 70
   192
  0
VERTEX
  8
milkshakeMango
 10
35.764701
 20
12.105439
 30
-22.984581
 70
   192
  0
VERTEX
  8
milkshakeMango
 10
32.533331
 20
0.403275
 30
-20.907904
 70
   192
  0
VERTEX
  8
milkshakeMango
 10
21.251027
 20
196.501553
 30
-46.533273
 70
   192
  0
VERTEX
  8
milkshakeMango
 10
22.048860
 20
200.510275
 30
-48.280284
 70
   192
  0
VERTEX
  8
milkshakeMango
 10
26.038025
 20
200.510275
 30
-57.015337
 70
   192
  0
VERTEX
  8
milkshakeMango
 10
26.835858
 20
122.105777
 30
-58.762345
 70
   192
  0
VERTEX
  8
milkshakeMango
 10
25.639109
 20
104.552532
 30
-56.141828
 70
   192
  0
VERTEX
  8
milkshakeMango
 10
19.655361
 20
72.956690
 30
-43.039246
 70
   192
  0
VERTEX
  8
milkshakeMango
 10
17.660779
 20
49.552362
 30
-38.671719
 70
   192
  0
VERTEX
  8
milkshakeMango
 10
17.660779
 20
12.105438
 30
-38.671717
 70
   192
  0
VERTEX
  8
milkshakeMango
 10
16.065113
 20
0.403275
 30
-35.177695
 70
   192
  0
VERTEX
  8
milkshakeMango
 10
-7.280280
 20
196.501553
 30
-50.635455
 70
   192
  0
VERTEX
  8
milkshakeMango
 10
-7.553606
 20
200.510275
 30
-52.536475
 70
   192
  0
VERTEX
  8
milkshakeMango
 10
-8.920233
 20
200.510274
 30
-62.041574
 70
   192
  0
VERTEX
  8
milkshakeMango
 10
-9.193559
 20
122.105777
 30
-63.942591
 70
   192
  0
VERTEX
  8
milkshakeMango
 10
-8.783571
 20
104.552531
 30
-61.091060
 70
   192
  0
VERTEX
  8
milkshakeMango
 10
-6.733629
 20
72.956690
 30
-46.833409
 70
   192
  0
VERTEX
  8
milkshakeMango
 10
-6.050316
 20
49.552362
 30
-42.080858
 70
   192
  0
VERTEX
  8
milkshakeMango
 10
-6.050316
 20
12.105438
 30
-42.080857
 70
   192
  0
VERTEX
  8
milkshakeMango
 10
-5.503665
 20
0.403274
 30
-38.278816
 70
   192
  0
VERTEX
  8
milkshakeMango
 10
-33.500151
 20
196.501554
 30
-38.661240
 70
   192
  0
VERTEX
  8
milkshakeMango
 10
-34.757856
 20
200.510275
 30
-40.112709
 70
   192
  0
VERTEX
  8
milkshakeMango
 10
-41.046381
 20
200.510275
 30
-47.370053
 70
   192
  0
VERTEX
  8
milkshakeMango
 10
-42.304086
 20
122.105778
 30
-48.821518
 70
   192
  0
VERTEX
  8
milkshakeMango
 10
-40.417528
 20
104.552532
 30
-46.644314
 70
   192
  0
VERTEX
  8
milkshakeMango
 10
-30.984741
 20
72.956690
 30
-35.758297
 70
   192
  0
VERTEX
  8
milkshakeMango
 10
-27.840478
 20
49.552363
 30
-32.129624
 70
   192
  0
VERTEX
  8
milkshakeMango
 10
-27.840478
 20
12.105439
 30
-32.129622
 70
   192
  0
VERTEX
  8
milkshakeMango
 10
-25.325068
 20
0.403275
 30
-29.226684
 70
   192
  0
VERTEX
  8
milkshakeMango
 10
-49.083960
 20
196.501555
 30
-14.412357
 70
   192
  0
VERTEX
  8
milkshakeMango
 10
-50.926732
 20
200.510276
 30
-14.953444
 70
   192
  0
VERTEX
  8
milkshakeMango
 10
-60.140592
 20
200.510276
 30
-17.658877
 70
   192
  0
VERTEX
  8
milkshakeMango
 10
-61.983364
 20
122.105779
 30
-18.199960
 70
   192
  0
VERTEX
  8
milkshakeMango
 10
-59.219206
 20
104.552533
 30
-17.388329
 70
   192
  0
VERTEX
  8
milkshakeMango
 10
-45.398415
 20
72.956691
 30
-13.330178
 70
   192
  0
VERTEX
  8
milkshakeMango
 10
-40.791485
 20
49.552364
 30
-11.977461
 70
   192
  0
VERTEX
  8
milkshakeMango
 10
-40.791485
 20
12.105439
 30
-11.977459
 70
   192
  0
VERTEX
  8
milkshakeMango
 10
-37.105941
 20
0.403276
 30
-10.895286
 70
   192
  0
VERTEX
  8
milkshakeMango
 10
-49.083958
 20
196.501556
 30
14.412345
 70
   192
  0
VERTEX
  8
milkshakeMango
 10
-50.926730
 20
200.510278
 30
14.953431
 70
   192
  0
VERTEX
  8
milkshakeMango
 10
-60.140591
 20
200.510278
 30
17.658865
 70
   192
  0
VERTEX
  8
milkshakeMango
 10
-61.983363
 20
122.105780
 30
18.199955
 70
   192
  0
VERTEX
  8
milkshakeMango
 10
-59.219205
 20
104.552535
 30
17.388326
 70
   192
  0
VERTEX
  8
milkshakeMango
 10
-45.398414
 20
72.956692
 30
13.330176
 70
   192
  0
VERTEX
  8
milkshakeMango
 10
-40.791484
 20
49.552365
 30
11.977460
 70
   192
  0
VERTEX
  8
milkshakeMango
 10
-40.791484
 20
12.105440
 30
11.977462
 70
   192
  0
VERTEX
  8
milkshakeMango
 10
-37.105940
 20
0.403277
 30
10.895289
 70
   192
  0
VERTEX
  8
milkshakeMango
 10
-33.500147
 20
196.501557
 30
38.661226
 70
   192
  0
VERTEX
  8
milkshakeMango
 10
-34.757852
 20
200.510279
 30
40.112695
 70
   192
  0
VERTEX
  8
milkshakeMango
 10
-41.046376
 20
200.510279
 30
47.370039
 70
   192
  0
VERTEX
  8
milkshakeMango
 10
-42.304081
 20
122.105782
 30
48.821512
 70
   192
  0
VERTEX
  8
milkshakeMango
 10
-40.417524
 20
104.552536
 30
46.644309
 70
   192
  0
VERTEX
  8
milkshakeMango
 10
-30.984737
 20
72.956693
 30
35.758293
 70
   192
  0
VERTEX
  8
milkshakeMango
 10
-27.840475
 20
49.552365
 30
32.129622
 70
   192
  0
VERTEX
  8
milkshakeMango
 10
-27.840475
 20
12.105441
 30
32.129623
 70
   192
  0
VERTEX
  8
milkshakeMango
 10
-25.325065
 20
0.403277
 30
29.226686
 70
   192
  0
VERTEX
  8
milkshakeMango
 10
-7.280276
 20
196.501557
 30
50.635438
 70
   192
  0
VERTEX
  8
milkshakeMango
 10
-7.553601
 20
200.510279
 30
52.536458
 70
   192
  0
VERTEX
  8
milkshakeMango
 10
-8.920228
 20
200.510280
 30
62.041558
 70
   192
  0
VERTEX
  8
milkshakeMango
 10
-9.193553
 20
122.105782
 30
63.942581
 70
   192
  0
VERTEX
  8
milkshakeMango
 10
-8.783565
 20
104.552537
 30
61.091052
 70
   192
  0
VERTEX
  8
milkshakeMango
 10
-6.733625
 20
72.956694
 30
46.833404
 70
   192
  0
VERTEX
  8
milkshakeMango
 10
-6.050312
 20
49.552366
 30
42.080855
 70
   192
  0
VERTEX
  8
milkshakeMango
 10
-6.050312
 20
12.105442
 30
42.080856
 70
   192
  0
VERTEX
  8
milkshakeMango
 10
-5.503661
 20
0.403278
 30
38.278817
 70
   192
  0
VERTEX
  8
milkshakeMango
 10
21.251032
 20
196.501557
 30
46.533254
 70
   192
  0
VERTEX
  8
milkshakeMango
 10
22.048865
 20
200.510279
 30
48.280265
 70
   192
  0
VERTEX
  8
milkshakeMango
 10
26.038030
 20
200.510280
 30
57.015318
 70
   192
  0
VERTEX
  8
milkshakeMango
 10
26.835863
 20
122.105782
 30
58.762332
 70
   192
  0
VERTEX
  8
milkshakeMango
 10
25.639114
 20
104.552536
 30
56.141817
 70
   192
  0
VERTEX
  8
milkshakeMango
 10
19.655365
 20
72.956694
 30
43.039238
 70
   192
  0
VERTEX
  8
milkshakeMango
 10
17.660783
 20
49.552366
 30
38.671713
 70
   192
  0
VERTEX
  8
milkshakeMango
 10
17.660783
 20
12.105442
 30
38.671715
 70
   192
  0
VERTEX
  8
milkshakeMango
 10
16.065116
 20
0.403278
 30
35.177694
 70
   192
  0
VERTEX
  8
milkshakeMango
 10
43.035287
 20
196.501556
 30
27.657088
 70
   192
  0
VERTEX
  8
milkshakeMango
 10
44.650972
 20
200.510278
 30
28.695426
 70
   192
  0
VERTEX
  8
milkshakeMango
 10
52.729398
 20
200.510279
 30
33.887114
 70
   192
  0
VERTEX
  8
milkshakeMango
 10
0.0
 20
0.0
 30
0.0
 70
   128
 71
   2
 72
   3
 73
   9
  0
VERTEX
  8
milkshakeMango
 10
0.0
 20
0.0
 30
0.0
 70
   128
 71
   26
 72
   97
 73
   88
  0
VERTEX
  8
milkshakeMango
 10
0.0
 20
0.0
 30
0.0
 70
   128
 71
   2
 72
   1
 73
   3
  0
VERTEX
  8
milkshakeMango
 10
0.0
 20
0.0
 30
0.0
 70
   128
 71
   9
 72
   3
 73
   4
  0
VERTEX
  8
milkshakeMango
 10
0.0
 20
0.0
 30
0.0
 70
   128
 71
   1
 72
   7
 73
   5
  0
VERTEX
  8
milkshakeMango
 10
0.0
 20
0.0
 30
0.0
 70
   128
 71
   13
 72
   4
 73
   5
  0
VERTEX
  8
milkshakeMango
 10
0.0
 20
0.0
 30
0.0
 70
   128
 71
   1
 72
   8
 73
   7
  0
VERTEX
  8
milkshakeMango
 10
0.0
 20
0.0
 30
0.0
 70
   128
 71
   7
 72
   6
 73
   5
  0
VERTEX
  8
milkshakeMango
 10
0.0
 20
0.0
 30
0.0
 70
   128
 71
   12
 72
   5
 73
   6
  0
VERTEX
  8
milkshakeMango
 10
0.0
 20
0.0
 30
0.0
 70
   128
 71
   5
 72
   4
 73
   3
  0
VERTEX
  8
milkshakeMango
 10
0.0
 20
0.0
 30
0.0
 70
   128
 71
   11
 72
   6
 73
   7
  0
VERTEX
  8
milkshakeMango
 10
0.0
 20
0.0
 30
0.0
 70
   128
 71
   5
 72
   12
 73
   18
  0
VERTEX
  8
milkshakeMango
 10
0.0
 20
0.0
 30
0.0
 70
   128
 71
   15
 72
   7
 73
   8
  0
VERTEX
  8
milkshakeMango
 10
0.0
 20
0.0
 30
0.0
 70
   128
 71
   16
 72
   1
 73
   2
  0
VERTEX
  8
milkshakeMango
 10
0.0
 20
0.0
 30
0.0
 70
   128
 71
   14
 72
   8
 73
   1
  0
VERTEX
  8
milkshakeMango
 10
0.0
 20
0.0
 30
0.0
 70
   128
 71
   19
 72
   23
 73
   33
  0
VERTEX
  8
milkshakeMango
 10
0.0
 20
0.0
 30
0.0
 70
   128
 71
   21
 72
   20
 73
   27
  0
VERTEX
  8
milkshakeMango
 10
0.0
 20
0.0
 30
0.0
 70
   128
 71
   22
 72
   19
 73
   33
  0
VERTEX
  8
milkshakeMango
 10
0.0
 20
0.0
 30
0.0
 70
   128
 71
   78
 72
   51
 73
   60
  0
VERTEX
  8
milkshakeMango
 10
0.0
 20
0.0
 30
0.0
 70
   128
 71
   23
 72
   19
 73
   22
  0
VERTEX
  8
milkshakeMango
 10
0.0
 20
0.0
 30
0.0
 70
   128
 71
   29
 72
   20
 73
   21
  0
VERTEX
  8
milkshakeMango
 10
0.0
 20
0.0
 30
0.0
 70
   128
 71
   27
 72
   20
 73
   29
  0
VERTEX
  8
milkshakeMango
 10
0.0
 20
0.0
 30
0.0
 70
   128
 71
   21
 72
   26
 73
   30
  0
VERTEX
  8
milkshakeMango
 10
0.0
 20
0.0
 30
0.0
 70
   128
 71
   43
 72
   44
 73
   35
  0
VERTEX
  8
milkshakeMango
 10
0.0
 20
0.0
 30
0.0
 70
   128
 71
   44
 72
   45
 73
   36
  0
VERTEX
  8
milkshakeMango
 10
0.0
 20
0.0
 30
0.0
 70
   128
 71
   45
 72
   46
 73
   37
  0
VERTEX
  8
milkshakeMango
 10
0.0
 20
0.0
 30
0.0
 70
   128
 71
   46
 72
   47
 73
   38
  0
VERTEX
  8
milkshakeMango
 10
0.0
 20
0.0
 30
0.0
 70
   128
 71
   47
 72
   48
 73
   39
  0
VERTEX
  8
milkshakeMango
 10
0.0
 20
0.0
 30
0.0
 70
   128
 71
   48
 72
   49
 73
   40
  0
VERTEX
  8
milkshakeMango
 10
0.0
 20
0.0
 30
0.0
 70
   128
 71
   49
 72
   50
 73
   41
  0
VERTEX
  8
milkshakeMango
 10
0.0
 20
0.0
 30
0.0
 70
   128
 71
   50
 72
   51
 73
   42
  0
VERTEX
  8
milkshakeMango
 10
0.0
 20
0.0
 30
0.0
 70
   128
 71
   52
 72
   53
 73
   44
  0
VERTEX
  8
milkshakeMango
 10
0.0
 20
0.0
 30
0.0
 70
   128
 71
   53
 72
   54
 73
   45
  0
VERTEX
  8
milkshakeMango
 10
0.0
 20
0.0
 30
0.0
 70
   128
 71
   54
 72
   55
 73
   46
  0
VERTEX
  8
milkshakeMango
 10
0.0
 20
0.0
 30
0.0
 70
   128
 71
   55
 72
   56
 73
   47
  0
VERTEX
  8
milkshakeMango
 10
0.0
 20
0.0
 30
0.0
 70
   128
 71
   56
 72
   57
 73
   48
  0
VERTEX
  8
milkshakeMango
 10
0.0
 20
0.0
 30
0.0
 70
   128
 71
   57
 72
   58
 73
   49
  0
VERTEX
  8
milkshakeMango
 10
0.0
 20
0.0
 30
0.0
 70
   128
 71
   58
 72
   59
 73
   50
  0
VERTEX
  8
milkshakeMango
 10
0.0
 20
0.0
 30
0.0
 70
   128
 71
   59
 72
   60
 73
   51
  0
VERTEX
  8
milkshakeMango
 10
0.0
 20
0.0
 30
0.0
 70
   128
 71
   61
 72
   62
 73
   53
  0
VERTEX
  8
milkshakeMango
 10
0.0
 20
0.0
 30
0.0
 70
   128
 71
   62
 72
   63
 73
   54
  0
VERTEX
  8
milkshakeMango
 10
0.0
 20
0.0
 30
0.0
 70
   128
 71
   63
 72
   64
 73
   55
  0
VERTEX
  8
milkshakeMango
 10
0.0
 20
0.0
 30
0.0
 70
   128
 71
   64
 72
   65
 73
   56
  0
VERTEX
  8
milkshakeMango
 10
0.0
 20
0.0
 30
0.0
 70
   128
 71
   65
 72
   66
 73
   57
  0
VERTEX
  8
milkshakeMango
 10
0.0
 20
0.0
 30
0.0
 70
   128
 71
   66
 72
   67
 73
   58
  0
VERTEX
  8
milkshakeMango
 10
0.0
 20
0.0
 30
0.0
 70
   128
 71
   67
 72
   68
 73
   59
  0
VERTEX
  8
milkshakeMango
 10
0.0
 20
0.0
 30
0.0
 70
   128
 71
   68
 72
   69
 73
   60
  0
VERTEX
  8
milkshakeMango
 10
0.0
 20
0.0
 30
0.0
 70
   128
 71
   70
 72
   71
 73
   62
  0
VERTEX
  8
milkshakeMango
 10
0.0
 20
0.0
 30
0.0
 70
   128
 71
   71
 72
   72
 73
   63
  0
VERTEX
  8
milkshakeMango
 10
0.0
 20
0.0
 30
0.0
 70
   128
 71
   72
 72
   73
 73
   64
  0
VERTEX
  8
milkshakeMango
 10
0.0
 20
0.0
 30
0.0
 70
   128
 71
   73
 72
   74
 73
   65
  0
VERTEX
  8
milkshakeMango
 10
0.0
 20
0.0
 30
0.0
 70
   128
 71
   74
 72
   75
 73
   66
  0
VERTEX
  8
milkshakeMango
 10
0.0
 20
0.0
 30
0.0
 70
   128
 71
   75
 72
   76
 73
   67
  0
VERTEX
  8
milkshakeMango
 10
0.0
 20
0.0
 30
0.0
 70
   128
 71
   76
 72
   77
 73
   68
  0
VERTEX
  8
milkshakeMango
 10
0.0
 20
0.0
 30
0.0
 70
   128
 71
   77
 72
   78
 73
   69
  0
VERTEX
  8
milkshakeMango
 10
0.0
 20
0.0
 30
0.0
 70
   128
 71
   79
 72
   80
 73
   71
  0
VERTEX
  8
milkshakeMango
 10
0.0
 20
0.0
 30
0.0
 70
   128
 71
   80
 72
   81
 73
   72
  0
VERTEX
  8
milkshakeMango
 10
0.0
 20
0.0
 30
0.0
 70
   128
 71
   81
 72
   82
 73
   73
  0
VERTEX
  8
milkshakeMango
 10
0.0
 20
0.0
 30
0.0
 70
   128
 71
   82
 72
   83
 73
   74
  0
VERTEX
  8
milkshakeMango
 10
0.0
 20
0.0
 30
0.0
 70
   128
 71
   83
 72
   84
 73
   75
  0
VERTEX
  8
milkshakeMango
 10
0.0
 20
0.0
 30
0.0
 70
   128
 71
   84
 72
   85
 73
   76
  0
VERTEX
  8
milkshakeMango
 10
0.0
 20
0.0
 30
0.0
 70
   128
 71
   85
 72
   86
 73
   77
  0
VERTEX
  8
milkshakeMango
 10
0.0
 20
0.0
 30
0.0
 70
   128
 71
   86
 72
   87
 73
   78
  0
VERTEX
  8
milkshakeMango
 10
0.0
 20
0.0
 30
0.0
 70
   128
 71
   88
 72
   89
 73
   80
  0
VERTEX
  8
milkshakeMango
 10
0.0
 20
0.0
 30
0.0
 70
   128
 71
   89
 72
   90
 73
   81
  0
VERTEX
  8
milkshakeMango
 10
0.0
 20
0.0
 30
0.0
 70
   128
 71
   90
 72
   91
 73
   82
  0
VERTEX
  8
milkshakeMango
 10
0.0
 20
0.0
 30
0.0
 70
   128
 71
   91
 72
   92
 73
   83
  0
VERTEX
  8
milkshakeMango
 10
0.0
 20
0.0
 30
0.0
 70
   128
 71
   92
 72
   93
 73
   84
  0
VERTEX
  8
milkshakeMango
 10
0.0
 20
0.0
 30
0.0
 70
   128
 71
   93
 72
   94
 73
   85
  0
VERTEX
  8
milkshakeMango
 10
0.0
 20
0.0
 30
0.0
 70
   128
 71
   94
 72
   95
 73
   86
  0
VERTEX
  8
milkshakeMango
 10
0.0
 20
0.0
 30
0.0
 70
   128
 71
   95
 72
   96
 73
   87
  0
VERTEX
  8
milkshakeMango
 10
0.0
 20
0.0
 30
0.0
 70
   128
 71
   97
 72
   98
 73
   89
  0
VERTEX
  8
milkshakeMango
 10
0.0
 20
0.0
 30
0.0
 70
   128
 71
   98
 72
   99
 73
   90
  0
VERTEX
  8
milkshakeMango
 10
0.0
 20
0.0
 30
0.0
 70
   128
 71
   99
 72
   100
 73
   91
  0
VERTEX
  8
milkshakeMango
 10
0.0
 20
0.0
 30
0.0
 70
   128
 71
   100
 72
   101
 73
   92
  0
VERTEX
  8
milkshakeMango
 10
0.0
 20
0.0
 30
0.0
 70
   128
 71
   101
 72
   102
 73
   93
  0
VERTEX
  8
milkshakeMango
 10
0.0
 20
0.0
 30
0.0
 70
   128
 71
   102
 72
   103
 73
   94
  0
VERTEX
  8
milkshakeMango
 10
0.0
 20
0.0
 30
0.0
 70
   128
 71
   103
 72
   104
 73
   95
  0
VERTEX
  8
milkshakeMango
 10
0.0
 20
0.0
 30
0.0
 70
   128
 71
   104
 72
   105
 73
   96
  0
VERTEX
  8
milkshakeMango
 10
0.0
 20
0.0
 30
0.0
 70
   128
 71
   106
 72
   107
 73
   98
  0
VERTEX
  8
milkshakeMango
 10
0.0
 20
0.0
 30
0.0
 70
   128
 71
   107
 72
   108
 73
   99
  0
VERTEX
  8
milkshakeMango
 10
0.0
 20
0.0
 30
0.0
 70
   128
 71
   108
 72
   109
 73
   100
  0
VERTEX
  8
milkshakeMango
 10
0.0
 20
0.0
 30
0.0
 70
   128
 71
   109
 72
   110
 73
   101
  0
VERTEX
  8
milkshakeMango
 10
0.0
 20
0.0
 30
0.0
 70
   128
 71
   110
 72
   111
 73
   102
  0
VERTEX
  8
milkshakeMango
 10
0.0
 20
0.0
 30
0.0
 70
   128
 71
   111
 72
   112
 73
   103
  0
VERTEX
  8
milkshakeMango
 10
0.0
 20
0.0
 30
0.0
 70
   128
 71
   112
 72
   113
 73
   104
  0
VERTEX
  8
milkshakeMango
 10
0.0
 20
0.0
 30
0.0
 70
   128
 71
   113
 72
   114
 73
   105
  0
VERTEX
  8
milkshakeMango
 10
0.0
 20
0.0
 30
0.0
 70
   128
 71
   115
 72
   116
 73
   107
  0
VERTEX
  8
milkshakeMango
 10
0.0
 20
0.0
 30
0.0
 70
   128
 71
   116
 72
   117
 73
   108
  0
VERTEX
  8
milkshakeMango
 10
0.0
 20
0.0
 30
0.0
 70
   128
 71
   117
 72
   118
 73
   109
  0
VERTEX
  8
milkshakeMango
 10
0.0
 20
0.0
 30
0.0
 70
   128
 71
   118
 72
   119
 73
   110
  0
VERTEX
  8
milkshakeMango
 10
0.0
 20
0.0
 30
0.0
 70
   128
 71
   119
 72
   120
 73
   111
  0
VERTEX
  8
milkshakeMango
 10
0.0
 20
0.0
 30
0.0
 70
   128
 71
   120
 72
   121
 73
   112
  0
VERTEX
  8
milkshakeMango
 10
0.0
 20
0.0
 30
0.0
 70
   128
 71
   121
 72
   122
 73
   113
  0
VERTEX
  8
milkshakeMango
 10
0.0
 20
0.0
 30
0.0
 70
   128
 71
   122
 72
   123
 73
   114
  0
VERTEX
  8
milkshakeMango
 10
0.0
 20
0.0
 30
0.0
 70
   128
 71
   124
 72
   125
 73
   116
  0
VERTEX
  8
milkshakeMango
 10
0.0
 20
0.0
 30
0.0
 70
   128
 71
   125
 72
   126
 73
   117
  0
VERTEX
  8
milkshakeMango
 10
0.0
 20
0.0
 30
0.0
 70
   128
 71
   126
 72
   17
 73
   118
  0
VERTEX
  8
milkshakeMango
 10
0.0
 20
0.0
 30
0.0
 70
   128
 71
   17
 72
   25
 73
   119
  0
VERTEX
  8
milkshakeMango
 10
0.0
 20
0.0
 30
0.0
 70
   128
 71
   25
 72
   32
 73
   120
  0
VERTEX
  8
milkshakeMango
 10
0.0
 20
0.0
 30
0.0
 70
   128
 71
   32
 72
   28
 73
   121
  0
VERTEX
  8
milkshakeMango
 10
0.0
 20
0.0
 30
0.0
 70
   128
 71
   28
 72
   24
 73
   122
  0
VERTEX
  8
milkshakeMango
 10
0.0
 20
0.0
 30
0.0
 70
   128
 71
   24
 72
   31
 73
   123
  0
VERTEX
  8
milkshakeMango
 10
0.0
 20
0.0
 30
0.0
 70
   128
 71
   34
 72
   35
 73
   125
  0
VERTEX
  8
milkshakeMango
 10
0.0
 20
0.0
 30
0.0
 70
   128
 71
   35
 72
   36
 73
   126
  0
VERTEX
  8
milkshakeMango
 10
0.0
 20
0.0
 30
0.0
 70
   128
 71
   36
 72
   37
 73
   17
  0
VERTEX
  8
milkshakeMango
 10
0.0
 20
0.0
 30
0.0
 70
   128
 71
   37
 72
   38
 73
   25
  0
VERTEX
  8
milkshakeMango
 10
0.0
 20
0.0
 30
0.0
 70
   128
 71
   38
 72
   39
 73
   32
  0
VERTEX
  8
milkshakeMango
 10
0.0
 20
0.0
 30
0.0
 70
   128
 71
   39
 72
   40
 73
   28
  0
VERTEX
  8
milkshakeMango
 10
0.0
 20
0.0
 30
0.0
 70
   128
 71
   40
 72
   41
 73
   24
  0
VERTEX
  8
milkshakeMango
 10
0.0
 20
0.0
 30
0.0
 70
   128
 71
   41
 72
   42
 73
   31
  0
VERTEX
  8
milkshakeMango
 10
0.0
 20
0.0
 30
0.0
 70
   128
 71
   34
 72
   124
 73
   16
  0
VERTEX
  8
milkshakeMango
 10
0.0
 20
0.0
 30
0.0
 70
   128
 71
   87
 72
   96
 73
   123
  0
VERTEX
  8
milkshakeMango
 10
0.0
 20
0.0
 30
0.0
 70
   128
 71
   96
 72
   105
 73
   114
  0
VERTEX
  8
milkshakeMango
 10
0.0
 20
0.0
 30
0.0
 70
   128
 71
   31
 72
   42
 73
   51
  0
VERTEX
  8
milkshakeMango
 10
0.0
 20
0.0
 30
0.0
 70
   128
 71
   27
 72
   15
 73
   124
  0
VERTEX
  8
milkshakeMango
 10
0.0
 20
0.0
 30
0.0
 70
   128
 71
   79
 72
   70
 73
   30
  0
VERTEX
  8
milkshakeMango
 10
0.0
 20
0.0
 30
0.0
 70
   128
 71
   78
 72
   87
 73
   31
  0
VERTEX
  8
milkshakeMango
 10
0.0
 20
0.0
 30
0.0
 70
   128
 71
   61
 72
   52
 73
   29
  0
VERTEX
  8
milkshakeMango
 10
0.0
 20
0.0
 30
0.0
 70
   128
 71
   29
 72
   52
 73
   43
  0
VERTEX
  8
milkshakeMango
 10
0.0
 20
0.0
 30
0.0
 70
   128
 71
   124
 72
   14
 73
   16
  0
VERTEX
  8
milkshakeMango
 10
0.0
 20
0.0
 30
0.0
 70
   128
 71
   115
 72
   106
 73
   27
  0
VERTEX
  8
milkshakeMango
 10
0.0
 20
0.0
 30
0.0
 70
   128
 71
   27
 72
   106
 73
   97
  0
VERTEX
  8
milkshakeMango
 10
0.0
 20
0.0
 30
0.0
 70
   128
 71
   9
 72
   43
 73
   34
  0
VERTEX
  8
milkshakeMango
 10
0.0
 20
0.0
 30
0.0
 70
   128
 71
   124
 72
   15
 73
   14
  0
VERTEX
  8
milkshakeMango
 10
0.0
 20
0.0
 30
0.0
 70
   128
 71
   43
 72
   9
 73
   13
  0
VERTEX
  8
milkshakeMango
 10
0.0
 20
0.0
 30
0.0
 70
   128
 71
   70
 72
   61
 73
   30
  0
VERTEX
  8
milkshakeMango
 10
0.0
 20
0.0
 30
0.0
 70
   128
 71
   11
 72
   15
 73
   27
  0
VERTEX
  8
milkshakeMango
 10
0.0
 20
0.0
 30
0.0
 70
   128
 71
   29
 72
   12
 73
   11
  0
VERTEX
  8
milkshakeMango
 10
0.0
 20
0.0
 30
0.0
 70
   128
 71
   43
 72
   13
 73
   18
  0
VERTEX
  8
milkshakeMango
 10
0.0
 20
0.0
 30
0.0
 70
   128
 71
   43
 72
   18
 73
   12
  0
VERTEX
  8
milkshakeMango
 10
0.0
 20
0.0
 30
0.0
 70
   128
 71
   2
 72
   9
 73
   10
  0
VERTEX
  8
milkshakeMango
 10
0.0
 20
0.0
 30
0.0
 70
   128
 71
   26
 72
   88
 73
   79
  0
VERTEX
  8
milkshakeMango
 10
0.0
 20
0.0
 30
0.0
 70
   128
 71
   9
 72
   4
 73
   13
  0
VERTEX
  8
milkshakeMango
 10
0.0
 20
0.0
 30
0.0
 70
   128
 71
   1
 72
   5
 73
   3
  0
VERTEX
  8
milkshakeMango
 10
0.0
 20
0.0
 30
0.0
 70
   128
 71
   13
 72
   5
 73
   18
  0
VERTEX
  8
milkshakeMango
 10
0.0
 20
0.0
 30
0.0
 70
   128
 71
   12
 72
   6
 73
   11
  0
VERTEX
  8
milkshakeMango
 10
0.0
 20
0.0
 30
0.0
 70
   128
 71
   11
 72
   7
 73
   15
  0
VERTEX
  8
milkshakeMango
 10
0.0
 20
0.0
 30
0.0
 70
   128
 71
   15
 72
   8
 73
   14
  0
VERTEX
  8
milkshakeMango
 10
0.0
 20
0.0
 30
0.0
 70
   128
 71
   16
 72
   2
 73
   10
  0
VERTEX
  8
milkshakeMango
 10
0.0
 20
0.0
 30
0.0
 70
   128
 71
   14
 72
   1
 73
   16
  0
VERTEX
  8
milkshakeMango
 10
0.0
 20
0.0
 30
0.0
 70
   128
 71
   21
 72
   27
 73
   26
  0
VERTEX
  8
milkshakeMango
 10
0.0
 20
0.0
 30
0.0
 70
   128
 71
   78
 72
   60
 73
   69
  0
VERTEX
  8
milkshakeMango
 10
0.0
 20
0.0
 30
0.0
 70
   128
 71
   29
 72
   21
 73
   30
  0
VERTEX
  8
milkshakeMango
 10
0.0
 20
0.0
 30
0.0
 70
   128
 71
   43
 72
   35
 73
   34
  0
VERTEX
  8
milkshakeMango
 10
0.0
 20
0.0
 30
0.0
 70
   128
 71
   44
 72
   36
 73
   35
  0
VERTEX
  8
milkshakeMango
 10
0.0
 20
0.0
 30
0.0
 70
   128
 71
   45
 72
   37
 73
   36
  0
VERTEX
  8
milkshakeMango
 10
0.0
 20
0.0
 30
0.0
 70
   128
 71
   46
 72
   38
 73
   37
  0
VERTEX
  8
milkshakeMango
 10
0.0
 20
0.0
 30
0.0
 70
   128
 71
   47
 72
   39
 73
   38
  0
VERTEX
  8
milkshakeMango
 10
0.0
 20
0.0
 30
0.0
 70
   128
 71
   48
 72
   40
 73
   39
  0
VERTEX
  8
milkshakeMango
 10
0.0
 20
0.0
 30
0.0
 70
   128
 71
   49
 72
   41
 73
   40
  0
VERTEX
  8
milkshakeMango
 10
0.0
 20
0.0
 30
0.0
 70
   128
 71
   50
 72
   42
 73
   41
  0
VERTEX
  8
milkshakeMango
 10
0.0
 20
0.0
 30
0.0
 70
   128
 71
   52
 72
   44
 73
   43
  0
VERTEX
  8
milkshakeMango
 10
0.0
 20
0.0
 30
0.0
 70
   128
 71
   53
 72
   45
 73
   44
  0
VERTEX
  8
milkshakeMango
 10
0.0
 20
0.0
 30
0.0
 70
   128
 71
   54
 72
   46
 73
   45
  0
VERTEX
  8
milkshakeMango
 10
0.0
 20
0.0
 30
0.0
 70
   128
 71
   55
 72
   47
 73
   46
  0
VERTEX
  8
milkshakeMango
 10
0.0
 20
0.0
 30
0.0
 70
   128
 71
   56
 72
   48
 73
   47
  0
VERTEX
  8
milkshakeMango
 10
0.0
 20
0.0
 30
0.0
 70
   128
 71
   57
 72
   49
 73
   48
  0
VERTEX
  8
milkshakeMango
 10
0.0
 20
0.0
 30
0.0
 70
   128
 71
   58
 72
   50
 73
   49
  0
VERTEX
  8
milkshakeMango
 10
0.0
 20
0.0
 30
0.0
 70
   128
 71
   59
 72
   51
 73
   50
  0
VERTEX
  8
milkshakeMango
 10
0.0
 20
0.0
 30
0.0
 70
   128
 71
   61
 72
   53
 73
   52
  0
VERTEX
  8
milkshakeMango
 10
0.0
 20
0.0
 30
0.0
 70
   128
 71
   62
 72
   54
 73
   53
  0
VERTEX
  8
milkshakeMango
 10
0.0
 20
0.0
 30
0.0
 70
   128
 71
   63
 72
   55
 73
   54
  0
VERTEX
  8
milkshakeMango
 10
0.0
 20
0.0
 30
0.0
 70
   128
 71
   64
 72
   56
 73
   55
  0
VERTEX
  8
milkshakeMango
 10
0.0
 20
0.0
 30
0.0
 70
   128
 71
   65
 72
   57
 73
   56
  0
VERTEX
  8
milkshakeMango
 10
0.0
 20
0.0
 30
0.0
 70
   128
 71
   66
 72
   58
 73
   57
  0
VERTEX
  8
milkshakeMango
 10
0.0
 20
0.0
 30
0.0
 70
   128
 71
   67
 72
   59
 73
   58
  0
VERTEX
  8
milkshakeMango
 10
0.0
 20
0.0
 30
0.0
 70
   128
 71
   68
 72
   60
 73
   59
  0
VERTEX
  8
milkshakeMango
 10
0.0
 20
0.0
 30
0.0
 70
   128
 71
   70
 72
   62
 73
   61
  0
VERTEX
  8
milkshakeMango
 10
0.0
 20
0.0
 30
0.0
 70
   128
 71
   71
 72
   63
 73
   62
  0
VERTEX
  8
milkshakeMango
 10
0.0
 20
0.0
 30
0.0
 70
   128
 71
   72
 72
   64
 73
   63
  0
VERTEX
  8
milkshakeMango
 10
0.0
 20
0.0
 30
0.0
 70
   128
 71
   73
 72
   65
 73
   64
  0
VERTEX
  8
milkshakeMango
 10
0.0
 20
0.0
 30
0.0
 70
   128
 71
   74
 72
   66
 73
   65
  0
VERTEX
  8
milkshakeMango
 10
0.0
 20
0.0
 30
0.0
 70
   128
 71
   75
 72
   67
 73
   66
  0
VERTEX
  8
milkshakeMango
 10
0.0
 20
0.0
 30
0.0
 70
   128
 71
   76
 72
   68
 73
   67
  0
VERTEX
  8
milkshakeMango
 10
0.0
 20
0.0
 30
0.0
 70
   128
 71
   77
 72
   69
 73
   68
  0
VERTEX
  8
milkshakeMango
 10
0.0
 20
0.0
 30
0.0
 70
   128
 71
   79
 72
   71
 73
   70
  0
VERTEX
  8
milkshakeMango
 10
0.0
 20
0.0
 30
0.0
 70
   128
 71
   80
 72
   72
 73
   71
  0
VERTEX
  8
milkshakeMango
 10
0.0
 20
0.0
 30
0.0
 70
   128
 71
   81
 72
   73
 73
   72
  0
VERTEX
  8
milkshakeMango
 10
0.0
 20
0.0
 30
0.0
 70
   128
 71
   82
 72
   74
 73
   73
  0
VERTEX
  8
milkshakeMango
 10
0.0
 20
0.0
 30
0.0
 70
   128
 71
   83
 72
   75
 73
   74
  0
VERTEX
  8
milkshakeMango
 10
0.0
 20
0.0
 30
0.0
 70
   128
 71
   84
 72
   76
 73
   75
  0
VERTEX
  8
milkshakeMango
 10
0.0
 20
0.0
 30
0.0
 70
   128
 71
   85
 72
   77
 73
   76
  0
VERTEX
  8
milkshakeMango
 10
0.0
 20
0.0
 30
0.0
 70
   128
 71
   86
 72
   78
 73
   77
  0
VERTEX
  8
milkshakeMango
 10
0.0
 20
0.0
 30
0.0
 70
   128
 71
   88
 72
   80
 73
   79
  0
VERTEX
  8
milkshakeMango
 10
0.0
 20
0.0
 30
0.0
 70
   128
 71
   89
 72
   81
 73
   80
  0
VERTEX
  8
milkshakeMango
 10
0.0
 20
0.0
 30
0.0
 70
   128
 71
   90
 72
   82
 73
   81
  0
VERTEX
  8
milkshakeMango
 10
0.0
 20
0.0
 30
0.0
 70
   128
 71
   91
 72
   83
 73
   82
  0
VERTEX
  8
milkshakeMango
 10
0.0
 20
0.0
 30
0.0
 70
   128
 71
   92
 72
   84
 73
   83
  0
VERTEX
  8
milkshakeMango
 10
0.0
 20
0.0
 30
0.0
 70
   128
 71
   93
 72
   85
 73
   84
  0
VERTEX
  8
milkshakeMango
 10
0.0
 20
0.0
 30
0.0
 70
   128
 71
   94
 72
   86
 73
   85
  0
VERTEX
  8
milkshakeMango
 10
0.0
 20
0.0
 30
0.0
 70
   128
 71
   95
 72
   87
 73
   86
  0
VERTEX
  8
milkshakeMango
 10
0.0
 20
0.0
 30
0.0
 70
   128
 71
   97
 72
   89
 73
   88
  0
VERTEX
  8
milkshakeMango
 10
0.0
 20
0.0
 30
0.0
 70
   128
 71
   98
 72
   90
 73
   89
  0
VERTEX
  8
milkshakeMango
 10
0.0
 20
0.0
 30
0.0
 70
   128
 71
   99
 72
   91
 73
   90
  0
VERTEX
  8
milkshakeMango
 10
0.0
 20
0.0
 30
0.0
 70
   128
 71
   100
 72
   92
 73
   91
  0
VERTEX
  8
milkshakeMango
 10
0.0
 20
0.0
 30
0.0
 70
   128
 71
   101
 72
   93
 73
   92
  0
VERTEX
  8
milkshakeMango
 10
0.0
 20
0.0
 30
0.0
 70
   128
 71
   102
 72
   94
 73
   93
  0
VERTEX
  8
milkshakeMango
 10
0.0
 20
0.0
 30
0.0
 70
   128
 71
   103
 72
   95
 73
   94
  0
VERTEX
  8
milkshakeMango
 10
0.0
 20
0.0
 30
0.0
 70
   128
 71
   104
 72
   96
 73
   95
  0
VERTEX
  8
milkshakeMango
 10
0.0
 20
0.0
 30
0.0
 70
   128
 71
   106
 72
   98
 73
   97
  0
VERTEX
  8
milkshakeMango
 10
0.0
 20
0.0
 30
0.0
 70
   128
 71
   107
 72
   99
 73
   98
  0
VERTEX
  8
milkshakeMango
 10
0.0
 20
0.0
 30
0.0
 70
   128
 71
   108
 72
   100
 73
   99
  0
VERTEX
  8
milkshakeMango
 10
0.0
 20
0.0
 30
0.0
 70
   128
 71
   109
 72
   101
 73
   100
  0
VERTEX
  8
milkshakeMango
 10
0.0
 20
0.0
 30
0.0
 70
   128
 71
   110
 72
   102
 73
   101
  0
VERTEX
  8
milkshakeMango
 10
0.0
 20
0.0
 30
0.0
 70
   128
 71
   111
 72
   103
 73
   102
  0
VERTEX
  8
milkshakeMango
 10
0.0
 20
0.0
 30
0.0
 70
   128
 71
   112
 72
   104
 73
   103
  0
VERTEX
  8
milkshakeMango
 10
0.0
 20
0.0
 30
0.0
 70
   128
 71
   113
 72
   105
 73
   104
  0
VERTEX
  8
milkshakeMango
 10
0.0
 20
0.0
 30
0.0
 70
   128
 71
   115
 72
   107
 73
   106
  0
VERTEX
  8
milkshakeMango
 10
0.0
 20
0.0
 30
0.0
 70
   128
 71
   116
 72
   108
 73
   107
  0
VERTEX
  8
milkshakeMango
 10
0.0
 20
0.0
 30
0.0
 70
   128
 71
   117
 72
   109
 73
   108
  0
VERTEX
  8
milkshakeMango
 10
0.0
 20
0.0
 30
0.0
 70
   128
 71
   118
 72
   110
 73
   109
  0
VERTEX
  8
milkshakeMango
 10
0.0
 20
0.0
 30
0.0
 70
   128
 71
   119
 72
   111
 73
   110
  0
VERTEX
  8
milkshakeMango
 10
0.0
 20
0.0
 30
0.0
 70
   128
 71
   120
 72
   112
 73
   111
  0
VERTEX
  8
milkshakeMango
 10
0.0
 20
0.0
 30
0.0
 70
   128
 71
   121
 72
   113
 73
   112
  0
VERTEX
  8
milkshakeMango
 10
0.0
 20
0.0
 30
0.0
 70
   128
 71
   122
 72
   114
 73
   113
  0
VERTEX
  8
milkshakeMango
 10
0.0
 20
0.0
 30
0.0
 70
   128
 71
   124
 72
   116
 73
   115
  0
VERTEX
  8
milkshakeMango
 10
0.0
 20
0.0
 30
0.0
 70
   128
 71
   125
 72
   117
 73
   116
  0
VERTEX
  8
milkshakeMango
 10
0.0
 20
0.0
 30
0.0
 70
   128
 71
   126
 72
   118
 73
   117
  0
VERTEX
  8
milkshakeMango
 10
0.0
 20
0.0
 30
0.0
 70
   128
 71
   17
 72
   119
 73
   118
  0
VERTEX
  8
milkshakeMango
 10
0.0
 20
0.0
 30
0.0
 70
   128
 71
   25
 72
   120
 73
   119
  0
VERTEX
  8
milkshakeMango
 10
0.0
 20
0.0
 30
0.0
 70
   128
 71
   32
 72
   121
 73
   120
  0
VERTEX
  8
milkshakeMango
 10
0.0
 20
0.0
 30
0.0
 70
   128
 71
   28
 72
   122
 73
   121
  0
VERTEX
  8
milkshakeMango
 10
0.0
 20
0.0
 30
0.0
 70
   128
 71
   24
 72
   123
 73
   122
  0
VERTEX
  8
milkshakeMango
 10
0.0
 20
0.0
 30
0.0
 70
   128
 71
   34
 72
   125
 73
   124
  0
VERTEX
  8
milkshakeMango
 10
0.0
 20
0.0
 30
0.0
 70
   128
 71
   35
 72
   126
 73
   125
  0
VERTEX
  8
milkshakeMango
 10
0.0
 20
0.0
 30
0.0
 70
   128
 71
   36
 72
   17
 73
   126
  0
VERTEX
  8
milkshakeMango
 10
0.0
 20
0.0
 30
0.0
 70
   128
 71
   37
 72
   25
 73
   17
  0
VERTEX
  8
milkshakeMango
 10
0.0
 20
0.0
 30
0.0
 70
   128
 71
   38
 72
   32
 73
   25
  0
VERTEX
  8
milkshakeMango
 10
0.0
 20
0.0
 30
0.0
 70
   128
 71
   39
 72
   28
 73
   32
  0
VERTEX
  8
milkshakeMango
 10
0.0
 20
0.0
 30
0.0
 70
   128
 71
   40
 72
   24
 73
   28
  0
VERTEX
  8
milkshakeMango
 10
0.0
 20
0.0
 30
0.0
 70
   128
 71
   41
 72
   31
 73
   24
  0
VERTEX
  8
milkshakeMango
 10
0.0
 20
0.0
 30
0.0
 70
   128
 71
   34
 72
   16
 73
   10
  0
VERTEX
  8
milkshakeMango
 10
0.0
 20
0.0
 30
0.0
 70
   128
 71
   87
 72
   123
 73
   31
  0
VERTEX
  8
milkshakeMango
 10
0.0
 20
0.0
 30
0.0
 70
   128
 71
   96
 72
   114
 73
   123
  0
VERTEX
  8
milkshakeMango
 10
0.0
 20
0.0
 30
0.0
 70
   128
 71
   27
 72
   124
 73
   115
  0
VERTEX
  8
milkshakeMango
 10
0.0
 20
0.0
 30
0.0
 70
   128
 71
   79
 72
   30
 73
   26
  0
VERTEX
  8
milkshakeMango
 10
0.0
 20
0.0
 30
0.0
 70
   128
 71
   78
 72
   31
 73
   51
  0
VERTEX
  8
milkshakeMango
 10
0.0
 20
0.0
 30
0.0
 70
   128
 71
   61
 72
   29
 73
   30
  0
VERTEX
  8
milkshakeMango
 10
0.0
 20
0.0
 30
0.0
 70
   128
 71
   29
 72
   43
 73
   12
  0
VERTEX
  8
milkshakeMango
 10
0.0
 20
0.0
 30
0.0
 70
   128
 71
   27
 72
   97
 73
   26
  0
VERTEX
  8
milkshakeMango
 10
0.0
 20
0.0
 30
0.0
 70
   128
 71
   9
 72
   34
 73
   10
  0
VERTEX
  8
milkshakeMango
 10
0.0
 20
0.0
 30
0.0
 70
   128
 71
   29
 72
   11
 73
   27
  0
SEQEND
  0
ENDSEC
  0
EOF
