999
FBX AutoCAD (*.DXF) exporter
  0
SECTION
  2
HEADER
  9
$ACADVER
  1
AC1008
  9
$UCSORG
 10
0.0
 20
0.0
 30
0.0
  9
$UCSXDIR
 10
1.0
 20
0.0
 30
0.0
  9
$TILEMODE
 70
   1
  9
$UCSYDIR
 10
0.0
 20
1.0
 30
0.0
  0
ENDSEC
  0
SECTION
  2
TABLES
  0
TABLE
  2
LTYPE
 70
   1
  0
LTYPE
  2
CONTINUOUS
 70
   64
  3
Solid line
 72
   65
 73
   0
 40
0.0
  0
ENDTAB
  0
TABLE
  2
LAYER
 70
   1
  0
LAYER
  2
CoffeeMug01
 70
   0
 62
   250
  6
CONTINUOUS
  0
ENDTAB
  0
ENDSEC
  0
SECTION
  2
BLOCKS
  0
ENDSEC
  0
SECTION
  2
ENTITIES
  0
POLYLINE
  8
CoffeeMug01
 66
   1
 10
0.0
 20
0.0
 30
0.0
 70
   64
 71
   167
 72
   342
  0
VERTEX
  8
CoffeeMug01
 10
44.095748
 20
49.588137
 30
-0.978201
 70
   192
  0
VERTEX
  8
CoffeeMug01
 10
44.672605
 20
42.011881
 30
-1.061140
 70
   192
  0
VERTEX
  8
CoffeeMug01
 10
38.133685
 20
16.485505
 30
11.506894
 70
   192
  0
VERTEX
  8
CoffeeMug01
 10
34.767062
 20
11.066063
 30
9.969409
 70
   192
  0
VERTEX
  8
CoffeeMug01
 10
39.830869
 20
16.485505
 30
-0.297284
 70
   192
  0
VERTEX
  8
CoffeeMug01
 10
36.167459
 20
11.066063
 30
0.229435
 70
   192
  0
VERTEX
  8
CoffeeMug01
 10
42.828944
 20
49.362627
 30
12.956765
 70
   192
  0
VERTEX
  8
CoffeeMug01
 10
43.285173
 20
42.842440
 30
13.165117
 70
   192
  0
VERTEX
  8
CoffeeMug01
 10
-42.162802
 20
36.496882
 30
19.255106
 70
   192
  0
VERTEX
  8
CoffeeMug01
 10
-40.209935
 20
21.110942
 30
18.363262
 70
   192
  0
VERTEX
  8
CoffeeMug01
 10
-31.096558
 20
6.440626
 30
14.201322
 70
   192
  0
VERTEX
  8
CoffeeMug01
 10
44.603328
 20
49.362627
 30
0.615659
 70
   192
  0
VERTEX
  8
CoffeeMug01
 10
45.099775
 20
42.842440
 30
0.544281
 70
   192
  0
VERTEX
  8
CoffeeMug01
 10
-21.332225
 20
0.000000
 30
9.742101
 70
   192
  0
VERTEX
  8
CoffeeMug01
 10
73.085322
 20
50.520465
 30
14.135321
 70
   192
  0
VERTEX
  8
CoffeeMug01
 10
-20.029859
 20
43.839315
 30
31.167069
 70
   192
  0
VERTEX
  8
CoffeeMug01
 10
-20.997100
 20
55.460948
 30
32.672125
 70
   192
  0
VERTEX
  8
CoffeeMug01
 10
38.616071
 20
16.055427
 30
11.618398
 70
   192
  0
VERTEX
  8
CoffeeMug01
 10
35.464912
 20
10.982830
 30
10.179312
 70
   192
  0
VERTEX
  8
CoffeeMug01
 10
-24.285717
 20
55.103136
 30
37.789313
 70
   192
  0
VERTEX
  8
CoffeeMug01
 10
-25.059509
 20
36.496882
 30
38.993358
 70
   192
  0
VERTEX
  8
CoffeeMug01
 10
-23.898821
 20
21.110942
 30
37.187291
 70
   192
  0
VERTEX
  8
CoffeeMug01
 10
-18.482275
 20
6.440626
 30
28.758981
 70
   192
  0
VERTEX
  8
CoffeeMug01
 10
40.204636
 20
16.055427
 30
0.569688
 70
   192
  0
VERTEX
  8
CoffeeMug01
 10
-12.678832
 20
0.000000
 30
19.728648
 70
   192
  0
VERTEX
  8
CoffeeMug01
 10
41.855780
 20
50.425858
 30
14.166659
 70
   192
  0
VERTEX
  8
CoffeeMug01
 10
42.503137
 20
41.174160
 30
14.462297
 70
   192
  0
VERTEX
  8
CoffeeMug01
 10
44.151536
 20
50.425858
 30
-1.800674
 70
   192
  0
VERTEX
  8
CoffeeMug01
 10
44.855961
 20
41.174160
 30
-1.901955
 70
   192
  0
VERTEX
  8
CoffeeMug01
 10
38.449065
 20
17.188103
 30
12.548368
 70
   192
  0
VERTEX
  8
CoffeeMug01
 10
34.209517
 20
10.363465
 30
10.612231
 70
   192
  0
VERTEX
  8
CoffeeMug01
 10
40.426891
 20
17.188103
 30
-1.207717
 70
   192
  0
VERTEX
  8
CoffeeMug01
 10
-33.948455
 20
55.103136
 30
-29.416504
 70
   192
  0
VERTEX
  8
CoffeeMug01
 10
-35.030122
 20
36.496882
 30
-30.353773
 70
   192
  0
VERTEX
  8
CoffeeMug01
 10
35.813602
 20
10.363465
 30
-0.544427
 70
   192
  0
VERTEX
  8
CoffeeMug01
 10
42.033969
 20
49.588137
 30
13.361784
 70
   192
  0
VERTEX
  8
CoffeeMug01
 10
42.564093
 20
42.011881
 30
13.603884
 70
   192
  0
VERTEX
  8
CoffeeMug01
 10
-38.442121
 20
55.460948
 30
-5.527143
 70
   192
  0
VERTEX
  8
CoffeeMug01
 10
-44.463020
 20
55.103136
 30
-6.392817
 70
   192
  0
VERTEX
  8
CoffeeMug01
 10
-45.879702
 20
36.496882
 30
-6.596505
 70
   192
  0
VERTEX
  8
CoffeeMug01
 10
-43.754679
 20
21.110942
 30
-6.290973
 70
   192
  0
VERTEX
  8
CoffeeMug01
 10
-33.837903
 20
6.440626
 30
-4.865156
 70
   192
  0
VERTEX
  8
CoffeeMug01
 10
-23.212787
 20
0.000000
 30
-3.337495
 70
   192
  0
VERTEX
  8
CoffeeMug01
 10
78.694142
 20
39.346455
 30
12.026057
 70
   192
  0
VERTEX
  8
CoffeeMug01
 10
-33.407621
 20
21.110942
 30
-28.947869
 70
   192
  0
VERTEX
  8
CoffeeMug01
 10
-25.835954
 20
6.440626
 30
-22.386981
 70
   192
  0
VERTEX
  8
CoffeeMug01
 10
-33.700380
 20
43.839315
 30
15.390448
 70
   192
  0
VERTEX
  8
CoffeeMug01
 10
-35.327769
 20
55.460948
 30
16.133651
 70
   192
  0
VERTEX
  8
CoffeeMug01
 10
-40.860891
 20
55.103136
 30
18.660543
 70
   192
  0
VERTEX
  8
CoffeeMug01
 10
77.396913
 20
39.308882
 30
8.861408
 70
   192
  0
VERTEX
  8
CoffeeMug01
 10
-36.671268
 20
43.839315
 30
-5.272532
 70
   192
  0
VERTEX
  8
CoffeeMug01
 10
73.916491
 20
39.233735
 30
8.329530
 70
   192
  0
VERTEX
  8
CoffeeMug01
 10
36.775684
 20
10.982830
 30
1.062696
 70
   192
  0
VERTEX
  8
CoffeeMug01
 10
-29.351371
 20
55.460948
 30
-25.433108
 70
   192
  0
VERTEX
  8
CoffeeMug01
 10
-17.723453
 20
0.000000
 30
-15.357459
 70
   192
  0
VERTEX
  8
CoffeeMug01
 10
-27.999287
 20
43.839315
 30
-24.261521
 70
   192
  0
VERTEX
  8
CoffeeMug01
 10
71.733298
 20
39.196162
 30
10.962299
 70
   192
  0
VERTEX
  8
CoffeeMug01
 10
0.000000
 20
43.839315
 30
37.048367
 70
   192
  0
VERTEX
  8
CoffeeMug01
 10
0.000000
 20
55.460948
 30
38.837430
 70
   192
  0
VERTEX
  8
CoffeeMug01
 10
0.000000
 20
55.103136
 30
44.920243
 70
   192
  0
VERTEX
  8
CoffeeMug01
 10
0.000000
 20
36.496882
 30
46.351494
 70
   192
  0
VERTEX
  8
CoffeeMug01
 10
0.000000
 20
21.110942
 30
44.204618
 70
   192
  0
VERTEX
  8
CoffeeMug01
 10
0.000000
 20
6.440626
 30
34.185866
 70
   192
  0
VERTEX
  8
CoffeeMug01
 10
0.000000
 20
0.000000
 30
23.451489
 70
   192
  0
VERTEX
  8
CoffeeMug01
 10
73.030528
 20
39.233735
 30
14.126948
 70
   192
  0
VERTEX
  8
CoffeeMug01
 10
20.029859
 20
43.839315
 30
31.167069
 70
   192
  0
VERTEX
  8
CoffeeMug01
 10
20.997100
 20
55.460948
 30
32.672125
 70
   192
  0
VERTEX
  8
CoffeeMug01
 10
24.285717
 20
55.103136
 30
37.789313
 70
   192
  0
VERTEX
  8
CoffeeMug01
 10
25.059509
 20
36.496882
 30
38.993358
 70
   192
  0
VERTEX
  8
CoffeeMug01
 10
23.898821
 20
21.110942
 30
37.187291
 70
   192
  0
VERTEX
  8
CoffeeMug01
 10
18.482275
 20
6.440626
 30
28.758981
 70
   192
  0
VERTEX
  8
CoffeeMug01
 10
12.678832
 20
0.000000
 30
19.728648
 70
   192
  0
VERTEX
  8
CoffeeMug01
 10
76.510950
 20
39.308882
 30
14.658827
 70
   192
  0
VERTEX
  8
CoffeeMug01
 10
33.700380
 20
43.839315
 30
15.390448
 70
   192
  0
VERTEX
  8
CoffeeMug01
 10
35.327769
 20
55.460948
 30
16.133651
 70
   192
  0
VERTEX
  8
CoffeeMug01
 10
40.860891
 20
55.103136
 30
18.660543
 70
   192
  0
VERTEX
  8
CoffeeMug01
 10
42.162802
 20
36.496882
 30
19.255106
 70
   192
  0
VERTEX
  8
CoffeeMug01
 10
40.209935
 20
21.110942
 30
18.363262
 70
   192
  0
VERTEX
  8
CoffeeMug01
 10
31.096558
 20
6.440626
 30
14.201322
 70
   192
  0
VERTEX
  8
CoffeeMug01
 10
21.332225
 20
0.000000
 30
9.742101
 70
   192
  0
VERTEX
  8
CoffeeMug01
 10
73.851624
 20
20.713977
 30
11.286022
 70
   192
  0
VERTEX
  8
CoffeeMug01
 10
36.671268
 20
43.839315
 30
-5.272532
 70
   192
  0
VERTEX
  8
CoffeeMug01
 10
38.442121
 20
55.460948
 30
-5.527143
 70
   192
  0
VERTEX
  8
CoffeeMug01
 10
44.463020
 20
55.103136
 30
-6.392817
 70
   192
  0
VERTEX
  8
CoffeeMug01
 10
45.879702
 20
36.496882
 30
-6.596505
 70
   192
  0
VERTEX
  8
CoffeeMug01
 10
43.754679
 20
21.110942
 30
-6.290973
 70
   192
  0
VERTEX
  8
CoffeeMug01
 10
33.837903
 20
6.440626
 30
-4.865156
 70
   192
  0
VERTEX
  8
CoffeeMug01
 10
23.212787
 20
0.000000
 30
-3.337495
 70
   192
  0
VERTEX
  8
CoffeeMug01
 10
72.793547
 20
21.596588
 30
8.157921
 70
   192
  0
VERTEX
  8
CoffeeMug01
 10
27.999287
 20
43.839315
 30
-24.261521
 70
   192
  0
VERTEX
  8
CoffeeMug01
 10
29.351371
 20
55.460948
 30
-25.433108
 70
   192
  0
VERTEX
  8
CoffeeMug01
 10
33.948455
 20
55.103136
 30
-29.416504
 70
   192
  0
VERTEX
  8
CoffeeMug01
 10
35.030122
 20
36.496882
 30
-30.353773
 70
   192
  0
VERTEX
  8
CoffeeMug01
 10
33.407621
 20
21.110942
 30
-28.947869
 70
   192
  0
VERTEX
  8
CoffeeMug01
 10
25.835954
 20
6.440626
 30
-22.386981
 70
   192
  0
VERTEX
  8
CoffeeMug01
 10
17.723453
 20
0.000000
 30
-15.357459
 70
   192
  0
VERTEX
  8
CoffeeMug01
 10
69.791431
 20
23.361809
 30
7.699137
 70
   192
  0
VERTEX
  8
CoffeeMug01
 10
10.437731
 20
43.839315
 30
-35.547648
 70
   192
  0
VERTEX
  8
CoffeeMug01
 10
10.941768
 20
55.460948
 30
-37.264241
 70
   192
  0
VERTEX
  8
CoffeeMug01
 10
12.655495
 20
55.103136
 30
-43.100658
 70
   192
  0
VERTEX
  8
CoffeeMug01
 10
13.058725
 20
36.496882
 30
-44.473932
 70
   192
  0
VERTEX
  8
CoffeeMug01
 10
12.453880
 20
21.110942
 30
-42.414021
 70
   192
  0
VERTEX
  8
CoffeeMug01
 10
9.631272
 20
6.440626
 30
-32.801098
 70
   192
  0
VERTEX
  8
CoffeeMug01
 10
6.607048
 20
0.000000
 30
-22.501539
 70
   192
  0
VERTEX
  8
CoffeeMug01
 10
67.847391
 20
24.244420
 30
10.368454
 70
   192
  0
VERTEX
  8
CoffeeMug01
 10
-10.437731
 20
43.839315
 30
-35.547648
 70
   192
  0
VERTEX
  8
CoffeeMug01
 10
-10.941768
 20
55.460948
 30
-37.264241
 70
   192
  0
VERTEX
  8
CoffeeMug01
 10
-12.655495
 20
55.103136
 30
-43.100658
 70
   192
  0
VERTEX
  8
CoffeeMug01
 10
-13.058725
 20
36.496882
 30
-44.473932
 70
   192
  0
VERTEX
  8
CoffeeMug01
 10
-12.453880
 20
21.110942
 30
-42.414021
 70
   192
  0
VERTEX
  8
CoffeeMug01
 10
-9.631272
 20
6.440626
 30
-32.801098
 70
   192
  0
VERTEX
  8
CoffeeMug01
 10
-6.607048
 20
0.000000
 30
-22.501539
 70
   192
  0
VERTEX
  8
CoffeeMug01
 10
38.662004
 20
17.662486
 30
13.251554
 70
   192
  0
VERTEX
  8
CoffeeMug01
 10
40.261190
 20
10.501614
 30
3.685415
 70
   192
  0
VERTEX
  8
CoffeeMug01
 10
40.829315
 20
17.662486
 30
-1.822428
 70
   192
  0
VERTEX
  8
CoffeeMug01
 10
39.115594
 20
9.289896
 30
6.074068
 70
   192
  0
VERTEX
  8
CoffeeMug01
 10
41.711769
 20
51.102897
 30
14.817151
 70
   192
  0
VERTEX
  8
CoffeeMug01
 10
42.453873
 20
40.497121
 30
15.156059
 70
   192
  0
VERTEX
  8
CoffeeMug01
 10
44.196624
 20
51.102897
 30
-2.465389
 70
   192
  0
VERTEX
  8
CoffeeMug01
 10
45.004148
 20
40.497121
 30
-2.581494
 70
   192
  0
VERTEX
  8
CoffeeMug01
 10
62.456647
 20
11.357722
 30
6.578234
 70
   192
  0
VERTEX
  8
CoffeeMug01
 10
41.119062
 20
12.946985
 30
8.978064
 70
   192
  0
VERTEX
  8
CoffeeMug01
 10
68.905468
 20
23.361809
 30
13.496555
 70
   192
  0
VERTEX
  8
CoffeeMug01
 10
47.113481
 20
49.227396
 30
7.178275
 70
   192
  0
VERTEX
  8
CoffeeMug01
 10
41.864206
 20
12.961753
 30
3.863467
 70
   192
  0
VERTEX
  8
CoffeeMug01
 10
42.311688
 20
14.218502
 30
6.537638
 70
   192
  0
VERTEX
  8
CoffeeMug01
 10
47.744352
 20
44.291586
 30
5.350274
 70
   192
  0
VERTEX
  8
CoffeeMug01
 10
62.890929
 20
9.857232
 30
9.611006
 70
   192
  0
VERTEX
  8
CoffeeMug01
 10
46.853865
 20
47.676109
 30
9.788469
 70
   192
  0
VERTEX
  8
CoffeeMug01
 10
39.530752
 20
10.485761
 30
8.692729
 70
   192
  0
VERTEX
  8
CoffeeMug01
 10
60.702121
 20
14.358701
 30
6.310107
 70
   192
  0
VERTEX
  8
CoffeeMug01
 10
71.907584
 20
21.596588
 30
13.955339
 70
   192
  0
VERTEX
  8
CoffeeMug01
 10
59.381876
 20
15.859191
 30
9.074752
 70
   192
  0
VERTEX
  8
CoffeeMug01
 10
59.816158
 20
14.358701
 30
12.107525
 70
   192
  0
VERTEX
  8
CoffeeMug01
 10
61.570685
 20
11.357722
 30
12.375652
 70
   192
  0
VERTEX
  8
CoffeeMug01
 10
47.552501
 20
5.170436
 30
7.266984
 70
   192
  0
VERTEX
  8
CoffeeMug01
 10
47.666003
 20
46.699920
 30
4.646197
 70
   192
  0
VERTEX
  8
CoffeeMug01
 10
47.982366
 20
6.934974
 30
4.366271
 70
   192
  0
VERTEX
  8
CoffeeMug01
 10
47.956134
 20
10.464049
 30
4.362262
 70
   192
  0
VERTEX
  8
CoffeeMug01
 10
47.080923
 20
44.671700
 30
9.767394
 70
   192
  0
VERTEX
  8
CoffeeMug01
 10
47.425560
 20
43.598201
 30
7.927129
 70
   192
  0
VERTEX
  8
CoffeeMug01
 10
47.500036
 20
12.228587
 30
7.258966
 70
   192
  0
VERTEX
  8
CoffeeMug01
 10
47.070171
 20
10.464049
 30
10.159680
 70
   192
  0
VERTEX
  8
CoffeeMug01
 10
47.096404
 20
6.934974
 30
10.163689
 70
   192
  0
VERTEX
  8
CoffeeMug01
 10
49.348712
 20
49.928861
 30
7.541482
 70
   192
  0
VERTEX
  8
CoffeeMug01
 10
50.509145
 20
48.327504
 30
4.752414
 70
   192
  0
VERTEX
  8
CoffeeMug01
 10
51.944050
 20
45.124790
 30
4.971696
 70
   192
  0
VERTEX
  8
CoffeeMug01
 10
52.218521
 20
43.523433
 30
7.980046
 70
   192
  0
VERTEX
  8
CoffeeMug01
 10
51.058087
 20
45.124790
 30
10.769114
 70
   192
  0
VERTEX
  8
CoffeeMug01
 10
49.623183
 20
48.327504
 30
10.549832
 70
   192
  0
VERTEX
  8
CoffeeMug01
 10
57.239986
 20
56.634025
 30
8.747428
 70
   192
  0
VERTEX
  8
CoffeeMug01
 10
58.255021
 20
54.909124
 30
5.936140
 70
   192
  0
VERTEX
  8
CoffeeMug01
 10
59.399128
 20
51.459321
 30
6.110983
 70
   192
  0
VERTEX
  8
CoffeeMug01
 10
59.528200
 20
49.734420
 30
9.097113
 70
   192
  0
VERTEX
  8
CoffeeMug01
 10
58.513165
 20
51.459321
 30
11.908401
 70
   192
  0
VERTEX
  8
CoffeeMug01
 10
57.369058
 20
54.909124
 30
11.733558
 70
   192
  0
VERTEX
  8
CoffeeMug01
 10
66.331112
 20
56.162401
 30
10.136736
 70
   192
  0
VERTEX
  8
CoffeeMug01
 10
66.329377
 20
54.490247
 30
7.170065
 70
   192
  0
VERTEX
  8
CoffeeMug01
 10
65.439944
 20
51.145939
 30
7.034142
 70
   192
  0
VERTEX
  8
CoffeeMug01
 10
64.552246
 20
49.473785
 30
9.864889
 70
   192
  0
VERTEX
  8
CoffeeMug01
 10
64.553981
 20
51.145939
 30
12.831560
 70
   192
  0
VERTEX
  8
CoffeeMug01
 10
65.443414
 20
54.490247
 30
12.967483
 70
   192
  0
VERTEX
  8
CoffeeMug01
 10
74.919270
 20
51.701066
 30
11.449180
 70
   192
  0
VERTEX
  8
CoffeeMug01
 10
73.971285
 20
50.520465
 30
8.337903
 70
   192
  0
VERTEX
  8
CoffeeMug01
 10
71.189352
 20
48.159264
 30
7.912768
 70
   192
  0
VERTEX
  8
CoffeeMug01
 10
69.355404
 20
46.978663
 30
10.598909
 70
   192
  0
VERTEX
  8
CoffeeMug01
 10
70.303389
 20
48.159264
 30
13.710186
 70
   192
  0
VERTEX
  8
CoffeeMug01
 10
0.0
 20
0.0
 30
0.0
 70
   128
 71
   80
 72
   88
 73
   96
  0
VERTEX
  8
CoffeeMug01
 10
0.0
 20
0.0
 30
0.0
 70
   128
 71
   64
 72
   80
 73
   96
  0
VERTEX
  8
CoffeeMug01
 10
0.0
 20
0.0
 30
0.0
 70
   128
 71
   43
 72
   96
 73
   104
  0
VERTEX
  8
CoffeeMug01
 10
0.0
 20
0.0
 30
0.0
 70
   128
 71
   112
 72
   55
 73
   43
  0
VERTEX
  8
CoffeeMug01
 10
0.0
 20
0.0
 30
0.0
 70
   128
 71
   64
 72
   43
 73
   14
  0
VERTEX
  8
CoffeeMug01
 10
0.0
 20
0.0
 30
0.0
 70
   128
 71
   119
 72
   28
 73
   26
  0
VERTEX
  8
CoffeeMug01
 10
0.0
 20
0.0
 30
0.0
 70
   128
 71
   76
 72
   117
 73
   118
  0
VERTEX
  8
CoffeeMug01
 10
0.0
 20
0.0
 30
0.0
 70
   128
 71
   60
 72
   61
 73
   21
  0
VERTEX
  8
CoffeeMug01
 10
0.0
 20
0.0
 30
0.0
 70
   128
 71
   77
 72
   118
 73
   120
  0
VERTEX
  8
CoffeeMug01
 10
0.0
 20
0.0
 30
0.0
 70
   128
 71
   120
 72
   29
 73
   28
  0
VERTEX
  8
CoffeeMug01
 10
0.0
 20
0.0
 30
0.0
 70
   128
 71
   115
 72
   32
 73
   30
  0
VERTEX
  8
CoffeeMug01
 10
0.0
 20
0.0
 30
0.0
 70
   128
 71
   78
 72
   113
 73
   31
  0
VERTEX
  8
CoffeeMug01
 10
0.0
 20
0.0
 30
0.0
 70
   128
 71
   61
 72
   62
 73
   22
  0
VERTEX
  8
CoffeeMug01
 10
0.0
 20
0.0
 30
0.0
 70
   128
 71
   90
 72
   82
 73
   98
  0
VERTEX
  8
CoffeeMug01
 10
0.0
 20
0.0
 30
0.0
 70
   128
 71
   79
 72
   31
 73
   35
  0
VERTEX
  8
CoffeeMug01
 10
0.0
 20
0.0
 30
0.0
 70
   128
 71
   35
 72
   32
 73
   115
  0
VERTEX
  8
CoffeeMug01
 10
0.0
 20
0.0
 30
0.0
 70
   128
 71
   28
 72
   1
 73
   36
  0
VERTEX
  8
CoffeeMug01
 10
0.0
 20
0.0
 30
0.0
 70
   128
 71
   51
 72
   38
 73
   54
  0
VERTEX
  8
CoffeeMug01
 10
0.0
 20
0.0
 30
0.0
 70
   128
 71
   38
 72
   39
 73
   33
  0
VERTEX
  8
CoffeeMug01
 10
0.0
 20
0.0
 30
0.0
 70
   128
 71
   39
 72
   40
 73
   34
  0
VERTEX
  8
CoffeeMug01
 10
0.0
 20
0.0
 30
0.0
 70
   128
 71
   26
 72
   36
 73
   37
  0
VERTEX
  8
CoffeeMug01
 10
0.0
 20
0.0
 30
0.0
 70
   128
 71
   27
 72
   37
 73
   2
  0
VERTEX
  8
CoffeeMug01
 10
0.0
 20
0.0
 30
0.0
 70
   128
 71
   29
 72
   2
 73
   1
  0
VERTEX
  8
CoffeeMug01
 10
0.0
 20
0.0
 30
0.0
 70
   128
 71
   40
 72
   41
 73
   45
  0
VERTEX
  8
CoffeeMug01
 10
0.0
 20
0.0
 30
0.0
 70
   128
 71
   41
 72
   42
 73
   46
  0
VERTEX
  8
CoffeeMug01
 10
0.0
 20
0.0
 30
0.0
 70
   128
 71
   42
 72
   43
 73
   55
  0
VERTEX
  8
CoffeeMug01
 10
0.0
 20
0.0
 30
0.0
 70
   128
 71
   138
 72
   114
 73
   116
  0
VERTEX
  8
CoffeeMug01
 10
0.0
 20
0.0
 30
0.0
 70
   128
 71
   89
 72
   97
 73
   131
  0
VERTEX
  8
CoffeeMug01
 10
0.0
 20
0.0
 30
0.0
 70
   128
 71
   73
 72
   44
 73
   81
  0
VERTEX
  8
CoffeeMug01
 10
0.0
 20
0.0
 30
0.0
 70
   128
 71
   114
 72
   116
 73
   130
  0
VERTEX
  8
CoffeeMug01
 10
0.0
 20
0.0
 30
0.0
 70
   128
 71
   126
 72
   125
 73
   114
  0
VERTEX
  8
CoffeeMug01
 10
0.0
 20
0.0
 30
0.0
 70
   128
 71
   126
 72
   114
 73
   130
  0
VERTEX
  8
CoffeeMug01
 10
0.0
 20
0.0
 30
0.0
 70
   128
 71
   97
 72
   105
 73
   133
  0
VERTEX
  8
CoffeeMug01
 10
0.0
 20
0.0
 30
0.0
 70
   128
 71
   24
 72
   125
 73
   126
  0
VERTEX
  8
CoffeeMug01
 10
0.0
 20
0.0
 30
0.0
 70
   128
 71
   125
 72
   114
 73
   138
  0
VERTEX
  8
CoffeeMug01
 10
0.0
 20
0.0
 30
0.0
 70
   128
 71
   53
 72
   116
 73
   114
  0
VERTEX
  8
CoffeeMug01
 10
0.0
 20
0.0
 30
0.0
 70
   128
 71
   53
 72
   19
 73
   116
  0
VERTEX
  8
CoffeeMug01
 10
0.0
 20
0.0
 30
0.0
 70
   128
 71
   53
 72
   114
 73
   125
  0
VERTEX
  8
CoffeeMug01
 10
0.0
 20
0.0
 30
0.0
 70
   128
 71
   105
 72
   123
 73
   134
  0
VERTEX
  8
CoffeeMug01
 10
0.0
 20
0.0
 30
0.0
 70
   128
 71
   19
 72
   130
 73
   116
  0
VERTEX
  8
CoffeeMug01
 10
0.0
 20
0.0
 30
0.0
 70
   128
 71
   81
 72
   89
 73
   121
  0
VERTEX
  8
CoffeeMug01
 10
0.0
 20
0.0
 30
0.0
 70
   128
 71
   130
 72
   19
 73
   18
  0
VERTEX
  8
CoffeeMug01
 10
0.0
 20
0.0
 30
0.0
 70
   128
 71
   18
 72
   24
 73
   126
  0
VERTEX
  8
CoffeeMug01
 10
0.0
 20
0.0
 30
0.0
 70
   128
 71
   18
 72
   126
 73
   122
  0
VERTEX
  8
CoffeeMug01
 10
0.0
 20
0.0
 30
0.0
 70
   128
 71
   142
 72
   126
 73
   125
  0
VERTEX
  8
CoffeeMug01
 10
0.0
 20
0.0
 30
0.0
 70
   128
 71
   143
 72
   122
 73
   126
  0
VERTEX
  8
CoffeeMug01
 10
0.0
 20
0.0
 30
0.0
 70
   128
 71
   122
 72
   143
 73
   144
  0
VERTEX
  8
CoffeeMug01
 10
0.0
 20
0.0
 30
0.0
 70
   128
 71
   123
 72
   132
 73
   135
  0
VERTEX
  8
CoffeeMug01
 10
0.0
 20
0.0
 30
0.0
 70
   128
 71
   136
 72
   116
 73
   130
  0
VERTEX
  8
CoffeeMug01
 10
0.0
 20
0.0
 30
0.0
 70
   128
 71
   166
 72
   167
 73
   65
  0
VERTEX
  8
CoffeeMug01
 10
0.0
 20
0.0
 30
0.0
 70
   128
 71
   137
 72
   127
 73
   141
  0
VERTEX
  8
CoffeeMug01
 10
0.0
 20
0.0
 30
0.0
 70
   128
 71
   140
 72
   129
 73
   141
  0
VERTEX
  8
CoffeeMug01
 10
0.0
 20
0.0
 30
0.0
 70
   128
 71
   129
 72
   124
 73
   137
  0
VERTEX
  8
CoffeeMug01
 10
0.0
 20
0.0
 30
0.0
 70
   128
 71
   167
 72
   15
 73
   73
  0
VERTEX
  8
CoffeeMug01
 10
0.0
 20
0.0
 30
0.0
 70
   128
 71
   52
 72
   57
 73
   105
  0
VERTEX
  8
CoffeeMug01
 10
0.0
 20
0.0
 30
0.0
 70
   128
 71
   132
 72
   81
 73
   128
  0
VERTEX
  8
CoffeeMug01
 10
0.0
 20
0.0
 30
0.0
 70
   128
 71
   128
 72
   121
 73
   138
  0
VERTEX
  8
CoffeeMug01
 10
0.0
 20
0.0
 30
0.0
 70
   128
 71
   121
 72
   131
 73
   139
  0
VERTEX
  8
CoffeeMug01
 10
0.0
 20
0.0
 30
0.0
 70
   128
 71
   13
 72
   141
 73
   127
  0
VERTEX
  8
CoffeeMug01
 10
0.0
 20
0.0
 30
0.0
 70
   128
 71
   137
 72
   12
 73
   13
  0
VERTEX
  8
CoffeeMug01
 10
0.0
 20
0.0
 30
0.0
 70
   128
 71
   12
 72
   137
 73
   124
  0
VERTEX
  8
CoffeeMug01
 10
0.0
 20
0.0
 30
0.0
 70
   128
 71
   12
 72
   124
 73
   7
  0
VERTEX
  8
CoffeeMug01
 10
0.0
 20
0.0
 30
0.0
 70
   128
 71
   13
 72
   8
 73
   141
  0
VERTEX
  8
CoffeeMug01
 10
0.0
 20
0.0
 30
0.0
 70
   128
 71
   8
 72
   140
 73
   141
  0
VERTEX
  8
CoffeeMug01
 10
0.0
 20
0.0
 30
0.0
 70
   128
 71
   44
 72
   50
 73
   89
  0
VERTEX
  8
CoffeeMug01
 10
0.0
 20
0.0
 30
0.0
 70
   128
 71
   7
 72
   124
 73
   129
  0
VERTEX
  8
CoffeeMug01
 10
0.0
 20
0.0
 30
0.0
 70
   128
 71
   140
 72
   8
 73
   7
  0
VERTEX
  8
CoffeeMug01
 10
0.0
 20
0.0
 30
0.0
 70
   128
 71
   62
 72
   63
 73
   23
  0
VERTEX
  8
CoffeeMug01
 10
0.0
 20
0.0
 30
0.0
 70
   128
 71
   63
 72
   64
 73
   25
  0
VERTEX
  8
CoffeeMug01
 10
0.0
 20
0.0
 30
0.0
 70
   128
 71
   51
 72
   98
 73
   82
  0
VERTEX
  8
CoffeeMug01
 10
0.0
 20
0.0
 30
0.0
 70
   128
 71
   47
 72
   48
 73
   38
  0
VERTEX
  8
CoffeeMug01
 10
0.0
 20
0.0
 30
0.0
 70
   128
 71
   48
 72
   49
 73
   39
  0
VERTEX
  8
CoffeeMug01
 10
0.0
 20
0.0
 30
0.0
 70
   128
 71
   49
 72
   9
 73
   40
  0
VERTEX
  8
CoffeeMug01
 10
0.0
 20
0.0
 30
0.0
 70
   128
 71
   74
 72
   66
 73
   58
  0
VERTEX
  8
CoffeeMug01
 10
0.0
 20
0.0
 30
0.0
 70
   128
 71
   51
 72
   74
 73
   58
  0
VERTEX
  8
CoffeeMug01
 10
0.0
 20
0.0
 30
0.0
 70
   128
 71
   16
 72
   47
 73
   51
  0
VERTEX
  8
CoffeeMug01
 10
0.0
 20
0.0
 30
0.0
 70
   128
 71
   109
 72
   110
 73
   102
  0
VERTEX
  8
CoffeeMug01
 10
0.0
 20
0.0
 30
0.0
 70
   128
 71
   51
 72
   56
 73
   106
  0
VERTEX
  8
CoffeeMug01
 10
0.0
 20
0.0
 30
0.0
 70
   128
 71
   75
 72
   74
 73
   82
  0
VERTEX
  8
CoffeeMug01
 10
0.0
 20
0.0
 30
0.0
 70
   128
 71
   157
 72
   158
 73
   164
  0
VERTEX
  8
CoffeeMug01
 10
0.0
 20
0.0
 30
0.0
 70
   128
 71
   72
 72
   80
 73
   64
  0
VERTEX
  8
CoffeeMug01
 10
0.0
 20
0.0
 30
0.0
 70
   128
 71
   110
 72
   111
 73
   103
  0
VERTEX
  8
CoffeeMug01
 10
0.0
 20
0.0
 30
0.0
 70
   128
 71
   111
 72
   112
 73
   104
  0
VERTEX
  8
CoffeeMug01
 10
0.0
 20
0.0
 30
0.0
 70
   128
 71
   58
 72
   59
 73
   17
  0
VERTEX
  8
CoffeeMug01
 10
0.0
 20
0.0
 30
0.0
 70
   128
 71
   59
 72
   60
 73
   20
  0
VERTEX
  8
CoffeeMug01
 10
0.0
 20
0.0
 30
0.0
 70
   128
 71
   158
 72
   159
 73
   165
  0
VERTEX
  8
CoffeeMug01
 10
0.0
 20
0.0
 30
0.0
 70
   128
 71
   56
 72
   54
 73
   107
  0
VERTEX
  8
CoffeeMug01
 10
0.0
 20
0.0
 30
0.0
 70
   128
 71
   54
 72
   33
 73
   108
  0
VERTEX
  8
CoffeeMug01
 10
0.0
 20
0.0
 30
0.0
 70
   128
 71
   108
 72
   109
 73
   101
  0
VERTEX
  8
CoffeeMug01
 10
0.0
 20
0.0
 30
0.0
 70
   128
 71
   33
 72
   34
 73
   109
  0
VERTEX
  8
CoffeeMug01
 10
0.0
 20
0.0
 30
0.0
 70
   128
 71
   34
 72
   45
 73
   110
  0
VERTEX
  8
CoffeeMug01
 10
0.0
 20
0.0
 30
0.0
 70
   128
 71
   45
 72
   46
 73
   111
  0
VERTEX
  8
CoffeeMug01
 10
0.0
 20
0.0
 30
0.0
 70
   128
 71
   46
 72
   55
 73
   112
  0
VERTEX
  8
CoffeeMug01
 10
0.0
 20
0.0
 30
0.0
 70
   128
 71
   36
 72
   7
 73
   8
  0
VERTEX
  8
CoffeeMug01
 10
0.0
 20
0.0
 30
0.0
 70
   128
 71
   37
 72
   8
 73
   13
  0
VERTEX
  8
CoffeeMug01
 10
0.0
 20
0.0
 30
0.0
 70
   128
 71
   2
 72
   13
 73
   12
  0
VERTEX
  8
CoffeeMug01
 10
0.0
 20
0.0
 30
0.0
 70
   128
 71
   5
 72
   24
 73
   18
  0
VERTEX
  8
CoffeeMug01
 10
0.0
 20
0.0
 30
0.0
 70
   128
 71
   32
 72
   5
 73
   3
  0
VERTEX
  8
CoffeeMug01
 10
0.0
 20
0.0
 30
0.0
 70
   128
 71
   30
 72
   3
 73
   4
  0
VERTEX
  8
CoffeeMug01
 10
0.0
 20
0.0
 30
0.0
 70
   128
 71
   31
 72
   4
 73
   6
  0
VERTEX
  8
CoffeeMug01
 10
0.0
 20
0.0
 30
0.0
 70
   128
 71
   35
 72
   6
 73
   5
  0
VERTEX
  8
CoffeeMug01
 10
0.0
 20
0.0
 30
0.0
 70
   128
 71
   9
 72
   10
 73
   41
  0
VERTEX
  8
CoffeeMug01
 10
0.0
 20
0.0
 30
0.0
 70
   128
 71
   159
 72
   160
 73
   166
  0
VERTEX
  8
CoffeeMug01
 10
0.0
 20
0.0
 30
0.0
 70
   128
 71
   66
 72
   67
 73
   59
  0
VERTEX
  8
CoffeeMug01
 10
0.0
 20
0.0
 30
0.0
 70
   128
 71
   67
 72
   68
 73
   60
  0
VERTEX
  8
CoffeeMug01
 10
0.0
 20
0.0
 30
0.0
 70
   128
 71
   68
 72
   69
 73
   61
  0
VERTEX
  8
CoffeeMug01
 10
0.0
 20
0.0
 30
0.0
 70
   128
 71
   69
 72
   70
 73
   62
  0
VERTEX
  8
CoffeeMug01
 10
0.0
 20
0.0
 30
0.0
 70
   128
 71
   70
 72
   71
 73
   63
  0
VERTEX
  8
CoffeeMug01
 10
0.0
 20
0.0
 30
0.0
 70
   128
 71
   71
 72
   72
 73
   64
  0
VERTEX
  8
CoffeeMug01
 10
0.0
 20
0.0
 30
0.0
 70
   128
 71
   10
 72
   11
 73
   42
  0
VERTEX
  8
CoffeeMug01
 10
0.0
 20
0.0
 30
0.0
 70
   128
 71
   11
 72
   14
 73
   43
  0
VERTEX
  8
CoffeeMug01
 10
0.0
 20
0.0
 30
0.0
 70
   128
 71
   160
 72
   161
 73
   167
  0
VERTEX
  8
CoffeeMug01
 10
0.0
 20
0.0
 30
0.0
 70
   128
 71
   74
 72
   75
 73
   67
  0
VERTEX
  8
CoffeeMug01
 10
0.0
 20
0.0
 30
0.0
 70
   128
 71
   75
 72
   76
 73
   68
  0
VERTEX
  8
CoffeeMug01
 10
0.0
 20
0.0
 30
0.0
 70
   128
 71
   76
 72
   77
 73
   69
  0
VERTEX
  8
CoffeeMug01
 10
0.0
 20
0.0
 30
0.0
 70
   128
 71
   77
 72
   78
 73
   70
  0
VERTEX
  8
CoffeeMug01
 10
0.0
 20
0.0
 30
0.0
 70
   128
 71
   78
 72
   79
 73
   71
  0
VERTEX
  8
CoffeeMug01
 10
0.0
 20
0.0
 30
0.0
 70
   128
 71
   79
 72
   80
 73
   72
  0
VERTEX
  8
CoffeeMug01
 10
0.0
 20
0.0
 30
0.0
 70
   128
 71
   161
 72
   162
 73
   15
  0
VERTEX
  8
CoffeeMug01
 10
0.0
 20
0.0
 30
0.0
 70
   128
 71
   16
 72
   17
 73
   48
  0
VERTEX
  8
CoffeeMug01
 10
0.0
 20
0.0
 30
0.0
 70
   128
 71
   1
 72
   12
 73
   7
  0
VERTEX
  8
CoffeeMug01
 10
0.0
 20
0.0
 30
0.0
 70
   128
 71
   3
 72
   18
 73
   19
  0
VERTEX
  8
CoffeeMug01
 10
0.0
 20
0.0
 30
0.0
 70
   128
 71
   83
 72
   84
 73
   76
  0
VERTEX
  8
CoffeeMug01
 10
0.0
 20
0.0
 30
0.0
 70
   128
 71
   4
 72
   19
 73
   53
  0
VERTEX
  8
CoffeeMug01
 10
0.0
 20
0.0
 30
0.0
 70
   128
 71
   85
 72
   86
 73
   78
  0
VERTEX
  8
CoffeeMug01
 10
0.0
 20
0.0
 30
0.0
 70
   128
 71
   6
 72
   53
 73
   24
  0
VERTEX
  8
CoffeeMug01
 10
0.0
 20
0.0
 30
0.0
 70
   128
 71
   87
 72
   88
 73
   80
  0
VERTEX
  8
CoffeeMug01
 10
0.0
 20
0.0
 30
0.0
 70
   128
 71
   17
 72
   20
 73
   49
  0
VERTEX
  8
CoffeeMug01
 10
0.0
 20
0.0
 30
0.0
 70
   128
 71
   20
 72
   21
 73
   9
  0
VERTEX
  8
CoffeeMug01
 10
0.0
 20
0.0
 30
0.0
 70
   128
 71
   162
 72
   157
 73
   163
  0
VERTEX
  8
CoffeeMug01
 10
0.0
 20
0.0
 30
0.0
 70
   128
 71
   90
 72
   91
 73
   83
  0
VERTEX
  8
CoffeeMug01
 10
0.0
 20
0.0
 30
0.0
 70
   128
 71
   91
 72
   92
 73
   84
  0
VERTEX
  8
CoffeeMug01
 10
0.0
 20
0.0
 30
0.0
 70
   128
 71
   92
 72
   93
 73
   85
  0
VERTEX
  8
CoffeeMug01
 10
0.0
 20
0.0
 30
0.0
 70
   128
 71
   93
 72
   94
 73
   86
  0
VERTEX
  8
CoffeeMug01
 10
0.0
 20
0.0
 30
0.0
 70
   128
 71
   94
 72
   95
 73
   87
  0
VERTEX
  8
CoffeeMug01
 10
0.0
 20
0.0
 30
0.0
 70
   128
 71
   95
 72
   96
 73
   88
  0
VERTEX
  8
CoffeeMug01
 10
0.0
 20
0.0
 30
0.0
 70
   128
 71
   21
 72
   22
 73
   10
  0
VERTEX
  8
CoffeeMug01
 10
0.0
 20
0.0
 30
0.0
 70
   128
 71
   22
 72
   23
 73
   11
  0
VERTEX
  8
CoffeeMug01
 10
0.0
 20
0.0
 30
0.0
 70
   128
 71
   163
 72
   164
 73
   50
  0
VERTEX
  8
CoffeeMug01
 10
0.0
 20
0.0
 30
0.0
 70
   128
 71
   98
 72
   99
 73
   91
  0
VERTEX
  8
CoffeeMug01
 10
0.0
 20
0.0
 30
0.0
 70
   128
 71
   99
 72
   100
 73
   92
  0
VERTEX
  8
CoffeeMug01
 10
0.0
 20
0.0
 30
0.0
 70
   128
 71
   100
 72
   101
 73
   93
  0
VERTEX
  8
CoffeeMug01
 10
0.0
 20
0.0
 30
0.0
 70
   128
 71
   101
 72
   102
 73
   94
  0
VERTEX
  8
CoffeeMug01
 10
0.0
 20
0.0
 30
0.0
 70
   128
 71
   102
 72
   103
 73
   95
  0
VERTEX
  8
CoffeeMug01
 10
0.0
 20
0.0
 30
0.0
 70
   128
 71
   103
 72
   104
 73
   96
  0
VERTEX
  8
CoffeeMug01
 10
0.0
 20
0.0
 30
0.0
 70
   128
 71
   23
 72
   25
 73
   14
  0
VERTEX
  8
CoffeeMug01
 10
0.0
 20
0.0
 30
0.0
 70
   128
 71
   164
 72
   165
 73
   52
  0
VERTEX
  8
CoffeeMug01
 10
0.0
 20
0.0
 30
0.0
 70
   128
 71
   165
 72
   166
 73
   57
  0
VERTEX
  8
CoffeeMug01
 10
0.0
 20
0.0
 30
0.0
 70
   128
 71
   106
 72
   107
 73
   99
  0
VERTEX
  8
CoffeeMug01
 10
0.0
 20
0.0
 30
0.0
 70
   128
 71
   107
 72
   108
 73
   100
  0
VERTEX
  8
CoffeeMug01
 10
0.0
 20
0.0
 30
0.0
 70
   128
 71
   113
 72
   78
 73
   86
  0
VERTEX
  8
CoffeeMug01
 10
0.0
 20
0.0
 30
0.0
 70
   128
 71
   113
 72
   30
 73
   31
  0
VERTEX
  8
CoffeeMug01
 10
0.0
 20
0.0
 30
0.0
 70
   128
 71
   131
 72
   133
 73
   142
  0
VERTEX
  8
CoffeeMug01
 10
0.0
 20
0.0
 30
0.0
 70
   128
 71
   115
 72
   86
 73
   87
  0
VERTEX
  8
CoffeeMug01
 10
0.0
 20
0.0
 30
0.0
 70
   128
 71
   117
 72
   76
 73
   84
  0
VERTEX
  8
CoffeeMug01
 10
0.0
 20
0.0
 30
0.0
 70
   128
 71
   117
 72
   26
 73
   27
  0
VERTEX
  8
CoffeeMug01
 10
0.0
 20
0.0
 30
0.0
 70
   128
 71
   118
 72
   27
 73
   29
  0
VERTEX
  8
CoffeeMug01
 10
0.0
 20
0.0
 30
0.0
 70
   128
 71
   119
 72
   84
 73
   85
  0
VERTEX
  8
CoffeeMug01
 10
0.0
 20
0.0
 30
0.0
 70
   128
 71
   57
 72
   65
 73
   123
  0
VERTEX
  8
CoffeeMug01
 10
0.0
 20
0.0
 30
0.0
 70
   128
 71
   15
 72
   163
 73
   44
  0
VERTEX
  8
CoffeeMug01
 10
0.0
 20
0.0
 30
0.0
 70
   128
 71
   146
 72
   145
 73
   124
  0
VERTEX
  8
CoffeeMug01
 10
0.0
 20
0.0
 30
0.0
 70
   128
 71
   127
 72
   147
 73
   146
  0
VERTEX
  8
CoffeeMug01
 10
0.0
 20
0.0
 30
0.0
 70
   128
 71
   133
 72
   134
 73
   143
  0
VERTEX
  8
CoffeeMug01
 10
0.0
 20
0.0
 30
0.0
 70
   128
 71
   141
 72
   148
 73
   147
  0
VERTEX
  8
CoffeeMug01
 10
0.0
 20
0.0
 30
0.0
 70
   128
 71
   134
 72
   135
 73
   144
  0
VERTEX
  8
CoffeeMug01
 10
0.0
 20
0.0
 30
0.0
 70
   128
 71
   140
 72
   149
 73
   148
  0
VERTEX
  8
CoffeeMug01
 10
0.0
 20
0.0
 30
0.0
 70
   128
 71
   135
 72
   128
 73
   136
  0
VERTEX
  8
CoffeeMug01
 10
0.0
 20
0.0
 30
0.0
 70
   128
 71
   65
 72
   73
 73
   132
  0
VERTEX
  8
CoffeeMug01
 10
0.0
 20
0.0
 30
0.0
 70
   128
 71
   129
 72
   150
 73
   149
  0
VERTEX
  8
CoffeeMug01
 10
0.0
 20
0.0
 30
0.0
 70
   128
 71
   145
 72
   150
 73
   129
  0
VERTEX
  8
CoffeeMug01
 10
0.0
 20
0.0
 30
0.0
 70
   128
 71
   50
 72
   52
 73
   97
  0
VERTEX
  8
CoffeeMug01
 10
0.0
 20
0.0
 30
0.0
 70
   128
 71
   145
 72
   146
 73
   152
  0
VERTEX
  8
CoffeeMug01
 10
0.0
 20
0.0
 30
0.0
 70
   128
 71
   146
 72
   147
 73
   153
  0
VERTEX
  8
CoffeeMug01
 10
0.0
 20
0.0
 30
0.0
 70
   128
 71
   147
 72
   148
 73
   154
  0
VERTEX
  8
CoffeeMug01
 10
0.0
 20
0.0
 30
0.0
 70
   128
 71
   148
 72
   149
 73
   155
  0
VERTEX
  8
CoffeeMug01
 10
0.0
 20
0.0
 30
0.0
 70
   128
 71
   149
 72
   150
 73
   156
  0
VERTEX
  8
CoffeeMug01
 10
0.0
 20
0.0
 30
0.0
 70
   128
 71
   150
 72
   145
 73
   151
  0
VERTEX
  8
CoffeeMug01
 10
0.0
 20
0.0
 30
0.0
 70
   128
 71
   151
 72
   152
 73
   158
  0
VERTEX
  8
CoffeeMug01
 10
0.0
 20
0.0
 30
0.0
 70
   128
 71
   152
 72
   153
 73
   159
  0
VERTEX
  8
CoffeeMug01
 10
0.0
 20
0.0
 30
0.0
 70
   128
 71
   153
 72
   154
 73
   160
  0
VERTEX
  8
CoffeeMug01
 10
0.0
 20
0.0
 30
0.0
 70
   128
 71
   154
 72
   155
 73
   161
  0
VERTEX
  8
CoffeeMug01
 10
0.0
 20
0.0
 30
0.0
 70
   128
 71
   155
 72
   156
 73
   162
  0
VERTEX
  8
CoffeeMug01
 10
0.0
 20
0.0
 30
0.0
 70
   128
 71
   156
 72
   151
 73
   157
  0
VERTEX
  8
CoffeeMug01
 10
0.0
 20
0.0
 30
0.0
 70
   128
 71
   64
 72
   96
 73
   43
  0
VERTEX
  8
CoffeeMug01
 10
0.0
 20
0.0
 30
0.0
 70
   128
 71
   43
 72
   104
 73
   112
  0
VERTEX
  8
CoffeeMug01
 10
0.0
 20
0.0
 30
0.0
 70
   128
 71
   64
 72
   14
 73
   25
  0
VERTEX
  8
CoffeeMug01
 10
0.0
 20
0.0
 30
0.0
 70
   128
 71
   119
 72
   26
 73
   117
  0
VERTEX
  8
CoffeeMug01
 10
0.0
 20
0.0
 30
0.0
 70
   128
 71
   76
 72
   118
 73
   77
  0
VERTEX
  8
CoffeeMug01
 10
0.0
 20
0.0
 30
0.0
 70
   128
 71
   60
 72
   21
 73
   20
  0
VERTEX
  8
CoffeeMug01
 10
0.0
 20
0.0
 30
0.0
 70
   128
 71
   77
 72
   120
 73
   85
  0
VERTEX
  8
CoffeeMug01
 10
0.0
 20
0.0
 30
0.0
 70
   128
 71
   120
 72
   28
 73
   119
  0
VERTEX
  8
CoffeeMug01
 10
0.0
 20
0.0
 30
0.0
 70
   128
 71
   115
 72
   30
 73
   113
  0
VERTEX
  8
CoffeeMug01
 10
0.0
 20
0.0
 30
0.0
 70
   128
 71
   78
 72
   31
 73
   79
  0
VERTEX
  8
CoffeeMug01
 10
0.0
 20
0.0
 30
0.0
 70
   128
 71
   61
 72
   22
 73
   21
  0
VERTEX
  8
CoffeeMug01
 10
0.0
 20
0.0
 30
0.0
 70
   128
 71
   79
 72
   35
 73
   87
  0
VERTEX
  8
CoffeeMug01
 10
0.0
 20
0.0
 30
0.0
 70
   128
 71
   28
 72
   36
 73
   26
  0
VERTEX
  8
CoffeeMug01
 10
0.0
 20
0.0
 30
0.0
 70
   128
 71
   51
 72
   54
 73
   56
  0
VERTEX
  8
CoffeeMug01
 10
0.0
 20
0.0
 30
0.0
 70
   128
 71
   38
 72
   33
 73
   54
  0
VERTEX
  8
CoffeeMug01
 10
0.0
 20
0.0
 30
0.0
 70
   128
 71
   39
 72
   34
 73
   33
  0
VERTEX
  8
CoffeeMug01
 10
0.0
 20
0.0
 30
0.0
 70
   128
 71
   26
 72
   37
 73
   27
  0
VERTEX
  8
CoffeeMug01
 10
0.0
 20
0.0
 30
0.0
 70
   128
 71
   27
 72
   2
 73
   29
  0
VERTEX
  8
CoffeeMug01
 10
0.0
 20
0.0
 30
0.0
 70
   128
 71
   29
 72
   1
 73
   28
  0
VERTEX
  8
CoffeeMug01
 10
0.0
 20
0.0
 30
0.0
 70
   128
 71
   40
 72
   45
 73
   34
  0
VERTEX
  8
CoffeeMug01
 10
0.0
 20
0.0
 30
0.0
 70
   128
 71
   41
 72
   46
 73
   45
  0
VERTEX
  8
CoffeeMug01
 10
0.0
 20
0.0
 30
0.0
 70
   128
 71
   42
 72
   55
 73
   46
  0
VERTEX
  8
CoffeeMug01
 10
0.0
 20
0.0
 30
0.0
 70
   128
 71
   138
 72
   116
 73
   136
  0
VERTEX
  8
CoffeeMug01
 10
0.0
 20
0.0
 30
0.0
 70
   128
 71
   89
 72
   131
 73
   121
  0
VERTEX
  8
CoffeeMug01
 10
0.0
 20
0.0
 30
0.0
 70
   128
 71
   73
 72
   81
 73
   132
  0
VERTEX
  8
CoffeeMug01
 10
0.0
 20
0.0
 30
0.0
 70
   128
 71
   126
 72
   130
 73
   122
  0
VERTEX
  8
CoffeeMug01
 10
0.0
 20
0.0
 30
0.0
 70
   128
 71
   97
 72
   133
 73
   131
  0
VERTEX
  8
CoffeeMug01
 10
0.0
 20
0.0
 30
0.0
 70
   128
 71
   125
 72
   138
 73
   139
  0
VERTEX
  8
CoffeeMug01
 10
0.0
 20
0.0
 30
0.0
 70
   128
 71
   53
 72
   125
 73
   24
  0
VERTEX
  8
CoffeeMug01
 10
0.0
 20
0.0
 30
0.0
 70
   128
 71
   105
 72
   134
 73
   133
  0
VERTEX
  8
CoffeeMug01
 10
0.0
 20
0.0
 30
0.0
 70
   128
 71
   81
 72
   121
 73
   128
  0
VERTEX
  8
CoffeeMug01
 10
0.0
 20
0.0
 30
0.0
 70
   128
 71
   130
 72
   18
 73
   122
  0
VERTEX
  8
CoffeeMug01
 10
0.0
 20
0.0
 30
0.0
 70
   128
 71
   142
 72
   125
 73
   139
  0
VERTEX
  8
CoffeeMug01
 10
0.0
 20
0.0
 30
0.0
 70
   128
 71
   143
 72
   126
 73
   142
  0
VERTEX
  8
CoffeeMug01
 10
0.0
 20
0.0
 30
0.0
 70
   128
 71
   122
 72
   144
 73
   130
  0
VERTEX
  8
CoffeeMug01
 10
0.0
 20
0.0
 30
0.0
 70
   128
 71
   123
 72
   135
 73
   134
  0
VERTEX
  8
CoffeeMug01
 10
0.0
 20
0.0
 30
0.0
 70
   128
 71
   136
 72
   130
 73
   144
  0
VERTEX
  8
CoffeeMug01
 10
0.0
 20
0.0
 30
0.0
 70
   128
 71
   166
 72
   65
 73
   57
  0
VERTEX
  8
CoffeeMug01
 10
0.0
 20
0.0
 30
0.0
 70
   128
 71
   129
 72
   137
 73
   141
  0
VERTEX
  8
CoffeeMug01
 10
0.0
 20
0.0
 30
0.0
 70
   128
 71
   167
 72
   73
 73
   65
  0
VERTEX
  8
CoffeeMug01
 10
0.0
 20
0.0
 30
0.0
 70
   128
 71
   52
 72
   105
 73
   97
  0
VERTEX
  8
CoffeeMug01
 10
0.0
 20
0.0
 30
0.0
 70
   128
 71
   132
 72
   128
 73
   135
  0
VERTEX
  8
CoffeeMug01
 10
0.0
 20
0.0
 30
0.0
 70
   128
 71
   128
 72
   138
 73
   136
  0
VERTEX
  8
CoffeeMug01
 10
0.0
 20
0.0
 30
0.0
 70
   128
 71
   121
 72
   139
 73
   138
  0
VERTEX
  8
CoffeeMug01
 10
0.0
 20
0.0
 30
0.0
 70
   128
 71
   137
 72
   13
 73
   127
  0
VERTEX
  8
CoffeeMug01
 10
0.0
 20
0.0
 30
0.0
 70
   128
 71
   44
 72
   89
 73
   81
  0
VERTEX
  8
CoffeeMug01
 10
0.0
 20
0.0
 30
0.0
 70
   128
 71
   140
 72
   7
 73
   129
  0
VERTEX
  8
CoffeeMug01
 10
0.0
 20
0.0
 30
0.0
 70
   128
 71
   62
 72
   23
 73
   22
  0
VERTEX
  8
CoffeeMug01
 10
0.0
 20
0.0
 30
0.0
 70
   128
 71
   63
 72
   25
 73
   23
  0
VERTEX
  8
CoffeeMug01
 10
0.0
 20
0.0
 30
0.0
 70
   128
 71
   51
 72
   82
 73
   74
  0
VERTEX
  8
CoffeeMug01
 10
0.0
 20
0.0
 30
0.0
 70
   128
 71
   47
 72
   38
 73
   51
  0
VERTEX
  8
CoffeeMug01
 10
0.0
 20
0.0
 30
0.0
 70
   128
 71
   48
 72
   39
 73
   38
  0
VERTEX
  8
CoffeeMug01
 10
0.0
 20
0.0
 30
0.0
 70
   128
 71
   49
 72
   40
 73
   39
  0
VERTEX
  8
CoffeeMug01
 10
0.0
 20
0.0
 30
0.0
 70
   128
 71
   51
 72
   58
 73
   16
  0
VERTEX
  8
CoffeeMug01
 10
0.0
 20
0.0
 30
0.0
 70
   128
 71
   109
 72
   102
 73
   101
  0
VERTEX
  8
CoffeeMug01
 10
0.0
 20
0.0
 30
0.0
 70
   128
 71
   51
 72
   106
 73
   98
  0
VERTEX
  8
CoffeeMug01
 10
0.0
 20
0.0
 30
0.0
 70
   128
 71
   75
 72
   82
 73
   83
  0
VERTEX
  8
CoffeeMug01
 10
0.0
 20
0.0
 30
0.0
 70
   128
 71
   157
 72
   164
 73
   163
  0
VERTEX
  8
CoffeeMug01
 10
0.0
 20
0.0
 30
0.0
 70
   128
 71
   110
 72
   103
 73
   102
  0
VERTEX
  8
CoffeeMug01
 10
0.0
 20
0.0
 30
0.0
 70
   128
 71
   111
 72
   104
 73
   103
  0
VERTEX
  8
CoffeeMug01
 10
0.0
 20
0.0
 30
0.0
 70
   128
 71
   58
 72
   17
 73
   16
  0
VERTEX
  8
CoffeeMug01
 10
0.0
 20
0.0
 30
0.0
 70
   128
 71
   59
 72
   20
 73
   17
  0
VERTEX
  8
CoffeeMug01
 10
0.0
 20
0.0
 30
0.0
 70
   128
 71
   158
 72
   165
 73
   164
  0
VERTEX
  8
CoffeeMug01
 10
0.0
 20
0.0
 30
0.0
 70
   128
 71
   56
 72
   107
 73
   106
  0
VERTEX
  8
CoffeeMug01
 10
0.0
 20
0.0
 30
0.0
 70
   128
 71
   54
 72
   108
 73
   107
  0
VERTEX
  8
CoffeeMug01
 10
0.0
 20
0.0
 30
0.0
 70
   128
 71
   108
 72
   101
 73
   100
  0
VERTEX
  8
CoffeeMug01
 10
0.0
 20
0.0
 30
0.0
 70
   128
 71
   33
 72
   109
 73
   108
  0
VERTEX
  8
CoffeeMug01
 10
0.0
 20
0.0
 30
0.0
 70
   128
 71
   34
 72
   110
 73
   109
  0
VERTEX
  8
CoffeeMug01
 10
0.0
 20
0.0
 30
0.0
 70
   128
 71
   45
 72
   111
 73
   110
  0
VERTEX
  8
CoffeeMug01
 10
0.0
 20
0.0
 30
0.0
 70
   128
 71
   46
 72
   112
 73
   111
  0
VERTEX
  8
CoffeeMug01
 10
0.0
 20
0.0
 30
0.0
 70
   128
 71
   36
 72
   8
 73
   37
  0
VERTEX
  8
CoffeeMug01
 10
0.0
 20
0.0
 30
0.0
 70
   128
 71
   37
 72
   13
 73
   2
  0
VERTEX
  8
CoffeeMug01
 10
0.0
 20
0.0
 30
0.0
 70
   128
 71
   2
 72
   12
 73
   1
  0
VERTEX
  8
CoffeeMug01
 10
0.0
 20
0.0
 30
0.0
 70
   128
 71
   5
 72
   18
 73
   3
  0
VERTEX
  8
CoffeeMug01
 10
0.0
 20
0.0
 30
0.0
 70
   128
 71
   32
 72
   3
 73
   30
  0
VERTEX
  8
CoffeeMug01
 10
0.0
 20
0.0
 30
0.0
 70
   128
 71
   30
 72
   4
 73
   31
  0
VERTEX
  8
CoffeeMug01
 10
0.0
 20
0.0
 30
0.0
 70
   128
 71
   31
 72
   6
 73
   35
  0
VERTEX
  8
CoffeeMug01
 10
0.0
 20
0.0
 30
0.0
 70
   128
 71
   35
 72
   5
 73
   32
  0
VERTEX
  8
CoffeeMug01
 10
0.0
 20
0.0
 30
0.0
 70
   128
 71
   9
 72
   41
 73
   40
  0
VERTEX
  8
CoffeeMug01
 10
0.0
 20
0.0
 30
0.0
 70
   128
 71
   159
 72
   166
 73
   165
  0
VERTEX
  8
CoffeeMug01
 10
0.0
 20
0.0
 30
0.0
 70
   128
 71
   66
 72
   59
 73
   58
  0
VERTEX
  8
CoffeeMug01
 10
0.0
 20
0.0
 30
0.0
 70
   128
 71
   67
 72
   60
 73
   59
  0
VERTEX
  8
CoffeeMug01
 10
0.0
 20
0.0
 30
0.0
 70
   128
 71
   68
 72
   61
 73
   60
  0
VERTEX
  8
CoffeeMug01
 10
0.0
 20
0.0
 30
0.0
 70
   128
 71
   69
 72
   62
 73
   61
  0
VERTEX
  8
CoffeeMug01
 10
0.0
 20
0.0
 30
0.0
 70
   128
 71
   70
 72
   63
 73
   62
  0
VERTEX
  8
CoffeeMug01
 10
0.0
 20
0.0
 30
0.0
 70
   128
 71
   71
 72
   64
 73
   63
  0
VERTEX
  8
CoffeeMug01
 10
0.0
 20
0.0
 30
0.0
 70
   128
 71
   10
 72
   42
 73
   41
  0
VERTEX
  8
CoffeeMug01
 10
0.0
 20
0.0
 30
0.0
 70
   128
 71
   11
 72
   43
 73
   42
  0
VERTEX
  8
CoffeeMug01
 10
0.0
 20
0.0
 30
0.0
 70
   128
 71
   160
 72
   167
 73
   166
  0
VERTEX
  8
CoffeeMug01
 10
0.0
 20
0.0
 30
0.0
 70
   128
 71
   74
 72
   67
 73
   66
  0
VERTEX
  8
CoffeeMug01
 10
0.0
 20
0.0
 30
0.0
 70
   128
 71
   75
 72
   68
 73
   67
  0
VERTEX
  8
CoffeeMug01
 10
0.0
 20
0.0
 30
0.0
 70
   128
 71
   76
 72
   69
 73
   68
  0
VERTEX
  8
CoffeeMug01
 10
0.0
 20
0.0
 30
0.0
 70
   128
 71
   77
 72
   70
 73
   69
  0
VERTEX
  8
CoffeeMug01
 10
0.0
 20
0.0
 30
0.0
 70
   128
 71
   78
 72
   71
 73
   70
  0
VERTEX
  8
CoffeeMug01
 10
0.0
 20
0.0
 30
0.0
 70
   128
 71
   79
 72
   72
 73
   71
  0
VERTEX
  8
CoffeeMug01
 10
0.0
 20
0.0
 30
0.0
 70
   128
 71
   161
 72
   15
 73
   167
  0
VERTEX
  8
CoffeeMug01
 10
0.0
 20
0.0
 30
0.0
 70
   128
 71
   16
 72
   48
 73
   47
  0
VERTEX
  8
CoffeeMug01
 10
0.0
 20
0.0
 30
0.0
 70
   128
 71
   1
 72
   7
 73
   36
  0
VERTEX
  8
CoffeeMug01
 10
0.0
 20
0.0
 30
0.0
 70
   128
 71
   3
 72
   19
 73
   4
  0
VERTEX
  8
CoffeeMug01
 10
0.0
 20
0.0
 30
0.0
 70
   128
 71
   83
 72
   76
 73
   75
  0
VERTEX
  8
CoffeeMug01
 10
0.0
 20
0.0
 30
0.0
 70
   128
 71
   4
 72
   53
 73
   6
  0
VERTEX
  8
CoffeeMug01
 10
0.0
 20
0.0
 30
0.0
 70
   128
 71
   85
 72
   78
 73
   77
  0
VERTEX
  8
CoffeeMug01
 10
0.0
 20
0.0
 30
0.0
 70
   128
 71
   6
 72
   24
 73
   5
  0
VERTEX
  8
CoffeeMug01
 10
0.0
 20
0.0
 30
0.0
 70
   128
 71
   87
 72
   80
 73
   79
  0
VERTEX
  8
CoffeeMug01
 10
0.0
 20
0.0
 30
0.0
 70
   128
 71
   17
 72
   49
 73
   48
  0
VERTEX
  8
CoffeeMug01
 10
0.0
 20
0.0
 30
0.0
 70
   128
 71
   20
 72
   9
 73
   49
  0
VERTEX
  8
CoffeeMug01
 10
0.0
 20
0.0
 30
0.0
 70
   128
 71
   162
 72
   163
 73
   15
  0
VERTEX
  8
CoffeeMug01
 10
0.0
 20
0.0
 30
0.0
 70
   128
 71
   90
 72
   83
 73
   82
  0
VERTEX
  8
CoffeeMug01
 10
0.0
 20
0.0
 30
0.0
 70
   128
 71
   91
 72
   84
 73
   83
  0
VERTEX
  8
CoffeeMug01
 10
0.0
 20
0.0
 30
0.0
 70
   128
 71
   92
 72
   85
 73
   84
  0
VERTEX
  8
CoffeeMug01
 10
0.0
 20
0.0
 30
0.0
 70
   128
 71
   93
 72
   86
 73
   85
  0
VERTEX
  8
CoffeeMug01
 10
0.0
 20
0.0
 30
0.0
 70
   128
 71
   94
 72
   87
 73
   86
  0
VERTEX
  8
CoffeeMug01
 10
0.0
 20
0.0
 30
0.0
 70
   128
 71
   95
 72
   88
 73
   87
  0
VERTEX
  8
CoffeeMug01
 10
0.0
 20
0.0
 30
0.0
 70
   128
 71
   21
 72
   10
 73
   9
  0
VERTEX
  8
CoffeeMug01
 10
0.0
 20
0.0
 30
0.0
 70
   128
 71
   22
 72
   11
 73
   10
  0
VERTEX
  8
CoffeeMug01
 10
0.0
 20
0.0
 30
0.0
 70
   128
 71
   163
 72
   50
 73
   44
  0
VERTEX
  8
CoffeeMug01
 10
0.0
 20
0.0
 30
0.0
 70
   128
 71
   98
 72
   91
 73
   90
  0
VERTEX
  8
CoffeeMug01
 10
0.0
 20
0.0
 30
0.0
 70
   128
 71
   99
 72
   92
 73
   91
  0
VERTEX
  8
CoffeeMug01
 10
0.0
 20
0.0
 30
0.0
 70
   128
 71
   100
 72
   93
 73
   92
  0
VERTEX
  8
CoffeeMug01
 10
0.0
 20
0.0
 30
0.0
 70
   128
 71
   101
 72
   94
 73
   93
  0
VERTEX
  8
CoffeeMug01
 10
0.0
 20
0.0
 30
0.0
 70
   128
 71
   102
 72
   95
 73
   94
  0
VERTEX
  8
CoffeeMug01
 10
0.0
 20
0.0
 30
0.0
 70
   128
 71
   103
 72
   96
 73
   95
  0
VERTEX
  8
CoffeeMug01
 10
0.0
 20
0.0
 30
0.0
 70
   128
 71
   23
 72
   14
 73
   11
  0
VERTEX
  8
CoffeeMug01
 10
0.0
 20
0.0
 30
0.0
 70
   128
 71
   164
 72
   52
 73
   50
  0
VERTEX
  8
CoffeeMug01
 10
0.0
 20
0.0
 30
0.0
 70
   128
 71
   165
 72
   57
 73
   52
  0
VERTEX
  8
CoffeeMug01
 10
0.0
 20
0.0
 30
0.0
 70
   128
 71
   106
 72
   99
 73
   98
  0
VERTEX
  8
CoffeeMug01
 10
0.0
 20
0.0
 30
0.0
 70
   128
 71
   107
 72
   100
 73
   99
  0
VERTEX
  8
CoffeeMug01
 10
0.0
 20
0.0
 30
0.0
 70
   128
 71
   113
 72
   86
 73
   115
  0
VERTEX
  8
CoffeeMug01
 10
0.0
 20
0.0
 30
0.0
 70
   128
 71
   131
 72
   142
 73
   139
  0
VERTEX
  8
CoffeeMug01
 10
0.0
 20
0.0
 30
0.0
 70
   128
 71
   115
 72
   87
 73
   35
  0
VERTEX
  8
CoffeeMug01
 10
0.0
 20
0.0
 30
0.0
 70
   128
 71
   117
 72
   84
 73
   119
  0
VERTEX
  8
CoffeeMug01
 10
0.0
 20
0.0
 30
0.0
 70
   128
 71
   117
 72
   27
 73
   118
  0
VERTEX
  8
CoffeeMug01
 10
0.0
 20
0.0
 30
0.0
 70
   128
 71
   118
 72
   29
 73
   120
  0
VERTEX
  8
CoffeeMug01
 10
0.0
 20
0.0
 30
0.0
 70
   128
 71
   119
 72
   85
 73
   120
  0
VERTEX
  8
CoffeeMug01
 10
0.0
 20
0.0
 30
0.0
 70
   128
 71
   57
 72
   123
 73
   105
  0
VERTEX
  8
CoffeeMug01
 10
0.0
 20
0.0
 30
0.0
 70
   128
 71
   15
 72
   44
 73
   73
  0
VERTEX
  8
CoffeeMug01
 10
0.0
 20
0.0
 30
0.0
 70
   128
 71
   146
 72
   124
 73
   137
  0
VERTEX
  8
CoffeeMug01
 10
0.0
 20
0.0
 30
0.0
 70
   128
 71
   127
 72
   146
 73
   137
  0
VERTEX
  8
CoffeeMug01
 10
0.0
 20
0.0
 30
0.0
 70
   128
 71
   133
 72
   143
 73
   142
  0
VERTEX
  8
CoffeeMug01
 10
0.0
 20
0.0
 30
0.0
 70
   128
 71
   141
 72
   147
 73
   127
  0
VERTEX
  8
CoffeeMug01
 10
0.0
 20
0.0
 30
0.0
 70
   128
 71
   134
 72
   144
 73
   143
  0
VERTEX
  8
CoffeeMug01
 10
0.0
 20
0.0
 30
0.0
 70
   128
 71
   140
 72
   148
 73
   141
  0
VERTEX
  8
CoffeeMug01
 10
0.0
 20
0.0
 30
0.0
 70
   128
 71
   135
 72
   136
 73
   144
  0
VERTEX
  8
CoffeeMug01
 10
0.0
 20
0.0
 30
0.0
 70
   128
 71
   65
 72
   132
 73
   123
  0
VERTEX
  8
CoffeeMug01
 10
0.0
 20
0.0
 30
0.0
 70
   128
 71
   129
 72
   149
 73
   140
  0
VERTEX
  8
CoffeeMug01
 10
0.0
 20
0.0
 30
0.0
 70
   128
 71
   145
 72
   129
 73
   124
  0
VERTEX
  8
CoffeeMug01
 10
0.0
 20
0.0
 30
0.0
 70
   128
 71
   50
 72
   97
 73
   89
  0
VERTEX
  8
CoffeeMug01
 10
0.0
 20
0.0
 30
0.0
 70
   128
 71
   145
 72
   152
 73
   151
  0
VERTEX
  8
CoffeeMug01
 10
0.0
 20
0.0
 30
0.0
 70
   128
 71
   146
 72
   153
 73
   152
  0
VERTEX
  8
CoffeeMug01
 10
0.0
 20
0.0
 30
0.0
 70
   128
 71
   147
 72
   154
 73
   153
  0
VERTEX
  8
CoffeeMug01
 10
0.0
 20
0.0
 30
0.0
 70
   128
 71
   148
 72
   155
 73
   154
  0
VERTEX
  8
CoffeeMug01
 10
0.0
 20
0.0
 30
0.0
 70
   128
 71
   149
 72
   156
 73
   155
  0
VERTEX
  8
CoffeeMug01
 10
0.0
 20
0.0
 30
0.0
 70
   128
 71
   150
 72
   151
 73
   156
  0
VERTEX
  8
CoffeeMug01
 10
0.0
 20
0.0
 30
0.0
 70
   128
 71
   151
 72
   158
 73
   157
  0
VERTEX
  8
CoffeeMug01
 10
0.0
 20
0.0
 30
0.0
 70
   128
 71
   152
 72
   159
 73
   158
  0
VERTEX
  8
CoffeeMug01
 10
0.0
 20
0.0
 30
0.0
 70
   128
 71
   153
 72
   160
 73
   159
  0
VERTEX
  8
CoffeeMug01
 10
0.0
 20
0.0
 30
0.0
 70
   128
 71
   154
 72
   161
 73
   160
  0
VERTEX
  8
CoffeeMug01
 10
0.0
 20
0.0
 30
0.0
 70
   128
 71
   155
 72
   162
 73
   161
  0
VERTEX
  8
CoffeeMug01
 10
0.0
 20
0.0
 30
0.0
 70
   128
 71
   156
 72
   157
 73
   162
  0
SEQEND
  0
ENDSEC
  0
EOF
