999
FBX AutoCAD (*.DXF) exporter
  0
SECTION
  2
HEADER
  9
$ACADVER
  1
AC1008
  9
$UCSORG
 10
0.0
 20
0.0
 30
0.0
  9
$UCSXDIR
 10
1.0
 20
0.0
 30
0.0
  9
$TILEMODE
 70
   1
  9
$UCSYDIR
 10
0.0
 20
1.0
 30
0.0
  0
ENDSEC
  0
SECTION
  2
TABLES
  0
TABLE
  2
LTYPE
 70
   1
  0
LTYPE
  2
CONTINUOUS
 70
   64
  3
Solid line
 72
   65
 73
   0
 40
0.0
  0
ENDTAB
  0
TABLE
  2
LAYER
 70
   1
  0
LAYER
  2
chilly
 70
   0
 62
   250
  6
CONTINUOUS
  0
ENDTAB
  0
ENDSEC
  0
SECTION
  2
BLOCKS
  0
ENDSEC
  0
SECTION
  2
ENTITIES
  0
POLYLINE
  8
chilly
 66
   1
 10
0.0
 20
0.0
 30
0.0
 70
   64
 71
   133
 72
   262
  0
VERTEX
  8
chilly
 10
45.413488
 20
174.115788
 30
-32.676881
 70
   192
  0
VERTEX
  8
chilly
 10
48.305309
 20
171.618723
 30
-28.185041
 70
   192
  0
VERTEX
  8
chilly
 10
53.299042
 20
158.603621
 30
-19.848604
 70
   192
  0
VERTEX
  8
chilly
 10
55.553215
 20
139.328296
 30
-13.427968
 70
   192
  0
VERTEX
  8
chilly
 10
47.609755
 20
108.132838
 30
-5.182878
 70
   192
  0
VERTEX
  8
chilly
 10
15.046403
 20
74.667613
 30
10.524878
 70
   192
  0
VERTEX
  8
chilly
 10
-25.528654
 20
64.256478
 30
25.515866
 70
   192
  0
VERTEX
  8
chilly
 10
-54.575296
 20
61.612209
 30
32.736278
 70
   192
  0
VERTEX
  8
chilly
 10
-77.076251
 20
60.024788
 30
36.958131
 70
   192
  0
VERTEX
  8
chilly
 10
49.144764
 20
173.904007
 30
-36.935355
 70
   192
  0
VERTEX
  8
chilly
 10
53.851988
 20
171.303903
 30
-34.515420
 70
   192
  0
VERTEX
  8
chilly
 10
62.121291
 20
157.953546
 30
-29.918481
 70
   192
  0
VERTEX
  8
chilly
 10
66.410549
 20
136.582644
 30
-25.885568
 70
   192
  0
VERTEX
  8
chilly
 10
57.523597
 20
99.468858
 30
-17.325036
 70
   192
  0
VERTEX
  8
chilly
 10
17.937921
 20
61.279388
 30
3.963926
 70
   192
  0
VERTEX
  8
chilly
 10
-25.891441
 20
54.733523
 30
22.740513
 70
   192
  0
VERTEX
  8
chilly
 10
-54.926193
 20
57.114159
 30
31.552938
 70
   192
  0
VERTEX
  8
chilly
 10
34.102388
 20
197.833479
 30
-36.362668
 70
   192
  0
VERTEX
  8
chilly
 10
50.245671
 20
173.730352
 30
-42.490508
 70
   192
  0
VERTEX
  8
chilly
 10
55.488527
 20
171.045758
 30
-42.773360
 70
   192
  0
VERTEX
  8
chilly
 10
64.722194
 20
157.433606
 30
-43.057053
 70
   192
  0
VERTEX
  8
chilly
 10
69.537756
 20
134.517632
 30
-42.212491
 70
   192
  0
VERTEX
  8
chilly
 10
59.626608
 20
93.067520
 30
-33.919644
 70
   192
  0
VERTEX
  8
chilly
 10
15.683927
 20
51.428612
 30
-7.373326
 70
   192
  0
VERTEX
  8
chilly
 10
-29.013559
 20
47.729613
 30
16.438251
 70
   192
  0
VERTEX
  8
chilly
 10
-56.525413
 20
53.806027
 30
28.679848
 70
   192
  0
VERTEX
  8
chilly
 10
34.434641
 20
198.853527
 30
-37.676262
 70
   192
  0
VERTEX
  8
chilly
 10
48.421221
 20
173.641352
 30
-47.853841
 70
   192
  0
VERTEX
  8
chilly
 10
52.776415
 20
170.913457
 30
-50.746151
 70
   192
  0
VERTEX
  8
chilly
 10
60.404840
 20
157.183119
 30
-55.743850
 70
   192
  0
VERTEX
  8
chilly
 10
64.096904
 20
133.686578
 30
-58.033951
 70
   192
  0
VERTEX
  8
chilly
 10
53.355287
 20
90.644058
 30
-50.520192
 70
   192
  0
VERTEX
  8
chilly
 10
8.888376
 20
47.754794
 30
-20.449071
 70
   192
  0
VERTEX
  8
chilly
 10
-34.058439
 20
45.121442
 30
8.297765
 70
   192
  0
VERTEX
  8
chilly
 10
-58.944447
 20
52.574227
 30
24.886851
 70
   192
  0
VERTEX
  8
chilly
 10
33.482086
 20
197.207619
 30
-36.187762
 70
   192
  0
VERTEX
  8
chilly
 10
44.160275
 20
173.660856
 30
-51.588253
 70
   192
  0
VERTEX
  8
chilly
 10
46.442362
 20
170.942450
 30
-56.297493
 70
   192
  0
VERTEX
  8
chilly
 10
50.326062
 20
157.269201
 30
-64.579455
 70
   192
  0
VERTEX
  8
chilly
 10
51.545864
 20
134.312162
 30
-69.110600
 70
   192
  0
VERTEX
  8
chilly
 10
40.390030
 20
92.847836
 30
-62.678575
 70
   192
  0
VERTEX
  8
chilly
 10
-0.627870
 20
51.242330
 30
-31.759672
 70
   192
  0
VERTEX
  8
chilly
 10
-39.674310
 20
47.607867
 30
0.500293
 70
   192
  0
VERTEX
  8
chilly
 10
-61.535116
 20
53.748816
 30
21.190278
 70
   192
  0
VERTEX
  8
chilly
 10
34.089751
 20
199.000874
 30
-38.461371
 70
   192
  0
VERTEX
  8
chilly
 10
38.604549
 20
173.783637
 30
-52.693111
 70
   192
  0
VERTEX
  8
chilly
 10
38.183571
 20
171.124968
 30
-57.939905
 70
   192
  0
VERTEX
  8
chilly
 10
37.186459
 20
157.668788
 30
-67.196375
 70
   192
  0
VERTEX
  8
chilly
 10
35.247678
 20
136.226761
 30
-72.474460
 70
   192
  0
VERTEX
  8
chilly
 10
24.204867
 20
99.088355
 30
-67.136965
 70
   192
  0
VERTEX
  8
chilly
 10
-10.314940
 20
60.956737
 30
-38.274464
 70
   192
  0
VERTEX
  8
chilly
 10
-44.356402
 20
54.522651
 30
-4.864840
 70
   192
  0
VERTEX
  8
chilly
 10
-63.603253
 20
57.015066
 30
18.580621
 70
   192
  0
VERTEX
  8
chilly
 10
32.743103
 20
196.730289
 30
-36.457286
 70
   192
  0
VERTEX
  8
chilly
 10
33.242696
 20
173.976796
 30
-50.872371
 70
   192
  0
VERTEX
  8
chilly
 10
30.212978
 20
171.412106
 30
-55.233307
 70
   192
  0
VERTEX
  8
chilly
 10
24.506778
 20
158.274811
 30
-62.893408
 70
   192
  0
VERTEX
  8
chilly
 10
19.569431
 20
138.917358
 30
-67.224186
 70
   192
  0
VERTEX
  8
chilly
 10
9.136600
 20
107.693471
 30
-62.700739
 70
   192
  0
VERTEX
  8
chilly
 10
-17.577191
 20
74.295048
 30
-38.247814
 70
   192
  0
VERTEX
  8
chilly
 10
-46.850154
 20
64.012984
 30
-6.360050
 70
   192
  0
VERTEX
  8
chilly
 10
-64.594703
 20
61.497787
 30
17.757138
 70
   192
  0
VERTEX
  8
chilly
 10
33.496857
 20
198.842818
 30
-39.078261
 70
   192
  0
VERTEX
  8
chilly
 10
29.511420
 20
174.188576
 30
-46.613896
 70
   192
  0
VERTEX
  8
chilly
 10
24.666299
 20
171.726926
 30
-48.902928
 70
   192
  0
VERTEX
  8
chilly
 10
15.684529
 20
158.924885
 30
-52.823531
 70
   192
  0
VERTEX
  8
chilly
 10
8.712097
 20
141.663010
 30
-54.766586
 70
   192
  0
VERTEX
  8
chilly
 10
-0.777242
 20
116.357452
 30
-50.558582
 70
   192
  0
VERTEX
  8
chilly
 10
-20.468710
 20
87.683273
 30
-31.686862
 70
   192
  0
VERTEX
  8
chilly
 10
-46.487366
 20
73.535940
 30
-3.584697
 70
   192
  0
VERTEX
  8
chilly
 10
-64.243806
 20
65.995837
 30
18.940479
 70
   192
  0
VERTEX
  8
chilly
 10
32.097717
 20
196.547792
 30
-37.110181
 70
   192
  0
VERTEX
  8
chilly
 10
28.410513
 20
174.362232
 30
-41.058743
 70
   192
  0
VERTEX
  8
chilly
 10
23.029760
 20
171.985071
 30
-40.644988
 70
   192
  0
VERTEX
  8
chilly
 10
13.083626
 20
159.444825
 30
-39.684959
 70
   192
  0
VERTEX
  8
chilly
 10
5.584890
 20
143.728022
 30
-38.439663
 70
   192
  0
VERTEX
  8
chilly
 10
-2.880253
 20
122.758790
 30
-33.963974
 70
   192
  0
VERTEX
  8
chilly
 10
-18.214715
 20
97.534049
 30
-20.349610
 70
   192
  0
VERTEX
  8
chilly
 10
-43.365248
 20
80.539849
 30
2.717566
 70
   192
  0
VERTEX
  8
chilly
 10
-62.644586
 20
69.303969
 30
21.813569
 70
   192
  0
VERTEX
  8
chilly
 10
32.796886
 20
198.413560
 30
-39.374302
 70
   192
  0
VERTEX
  8
chilly
 10
30.234963
 20
174.451231
 30
-35.695410
 70
   192
  0
VERTEX
  8
chilly
 10
25.741872
 20
172.117372
 30
-32.672196
 70
   192
  0
VERTEX
  8
chilly
 10
17.400980
 20
159.695313
 30
-26.998163
 70
   192
  0
VERTEX
  8
chilly
 10
11.025742
 20
144.559076
 30
-22.618203
 70
   192
  0
VERTEX
  8
chilly
 10
3.391068
 20
125.182252
 30
-17.363426
 70
   192
  0
VERTEX
  8
chilly
 10
-11.419164
 20
101.207867
 30
-7.273866
 70
   192
  0
VERTEX
  8
chilly
 10
-38.320368
 20
83.148020
 30
10.858052
 70
   192
  0
VERTEX
  8
chilly
 10
-60.225552
 20
70.535769
 30
25.606565
 70
   192
  0
VERTEX
  8
chilly
 10
31.739419
 20
196.718827
 30
-37.957806
 70
   192
  0
VERTEX
  8
chilly
 10
34.495909
 20
174.431728
 30
-31.960998
 70
   192
  0
VERTEX
  8
chilly
 10
32.075926
 20
172.088379
 30
-27.120855
 70
   192
  0
VERTEX
  8
chilly
 10
27.479758
 20
159.609231
 30
-18.162558
 70
   192
  0
VERTEX
  8
chilly
 10
23.576782
 20
143.933491
 30
-11.541554
 70
   192
  0
VERTEX
  8
chilly
 10
16.356325
 20
122.978473
 30
-5.205043
 70
   192
  0
VERTEX
  8
chilly
 10
-1.902918
 20
97.720331
 30
4.036736
 70
   192
  0
VERTEX
  8
chilly
 10
-32.704498
 20
80.661596
 30
18.655524
 70
   192
  0
VERTEX
  8
chilly
 10
-57.634883
 20
69.361180
 30
29.303139
 70
   192
  0
VERTEX
  8
chilly
 10
32.163157
 20
197.811333
 30
-39.261843
 70
   192
  0
VERTEX
  8
chilly
 10
40.051635
 20
174.308947
 30
-30.856140
 70
   192
  0
VERTEX
  8
chilly
 10
40.334717
 20
171.905861
 30
-25.478442
 70
   192
  0
VERTEX
  8
chilly
 10
40.619361
 20
159.209644
 30
-15.545638
 70
   192
  0
VERTEX
  8
chilly
 10
39.874968
 20
142.018893
 30
-8.177695
 70
   192
  0
VERTEX
  8
chilly
 10
32.541488
 20
116.737955
 30
-0.746653
 70
   192
  0
VERTEX
  8
chilly
 10
7.784151
 20
88.005924
 30
10.551528
 70
   192
  0
VERTEX
  8
chilly
 10
-28.022405
 20
73.746811
 30
24.020657
 70
   192
  0
VERTEX
  8
chilly
 10
-55.566746
 20
66.094930
 30
31.912795
 70
   192
  0
VERTEX
  8
chilly
 10
31.769093
 20
197.188057
 30
-38.748708
 70
   192
  0
VERTEX
  8
chilly
 10
42.448787
 20
186.195155
 30
-41.279784
 70
   192
  0
VERTEX
  8
chilly
 10
42.674832
 20
186.264292
 30
-42.572940
 70
   192
  0
VERTEX
  8
chilly
 10
42.239303
 20
186.283446
 30
-43.815385
 70
   192
  0
VERTEX
  8
chilly
 10
41.257433
 20
186.248105
 30
-44.691970
 70
   192
  0
VERTEX
  8
chilly
 10
39.976458
 20
186.166920
 30
-44.975947
 70
   192
  0
VERTEX
  8
chilly
 10
38.724668
 20
186.060176
 30
-44.581713
 70
   192
  0
VERTEX
  8
chilly
 10
37.838262
 20
185.955787
 30
-43.596693
 70
   192
  0
VERTEX
  8
chilly
 10
37.571057
 20
185.882545
 30
-42.275984
 70
   192
  0
VERTEX
  8
chilly
 10
38.010303
 20
185.861614
 30
-40.983424
 70
   192
  0
VERTEX
  8
chilly
 10
39.037059
 20
185.899287
 30
-40.084291
 70
   192
  0
VERTEX
  8
chilly
 10
40.359185
 20
185.984576
 30
-39.827882
 70
   192
  0
VERTEX
  8
chilly
 10
34.444030
 20
198.432371
 30
-36.911801
 70
   192
  0
VERTEX
  8
chilly
 10
41.607250
 20
186.093095
 30
-40.272216
 70
   192
  0
VERTEX
  8
chilly
 10
39.812182
 20
192.634599
 30
-39.256579
 70
   192
  0
VERTEX
  8
chilly
 10
40.453425
 20
193.480540
 30
-41.227476
 70
   192
  0
VERTEX
  8
chilly
 10
38.834336
 20
192.118421
 30
-38.954304
 70
   192
  0
VERTEX
  8
chilly
 10
39.986544
 20
193.600866
 30
-42.364432
 70
   192
  0
VERTEX
  8
chilly
 10
37.718690
 20
191.726374
 30
-39.297172
 70
   192
  0
VERTEX
  8
chilly
 10
39.114853
 20
193.465254
 30
-43.228659
 70
   192
  0
VERTEX
  8
chilly
 10
36.782020
 20
191.574830
 30
-40.205479
 70
   192
  0
VERTEX
  8
chilly
 10
38.048289
 20
193.104212
 30
-43.604502
 70
   192
  0
VERTEX
  8
chilly
 10
36.299096
 20
191.710163
 30
-41.419484
 70
   192
  0
VERTEX
  8
chilly
 10
37.054460
 20
192.603105
 30
-43.379408
 70
   192
  0
VERTEX
  8
chilly
 10
36.405395
 20
192.090682
 30
-42.585601
 70
   192
  0
VERTEX
  8
chilly
 10
40.396122
 20
193.131025
 30
-40.094460
 70
   192
  0
VERTEX
  8
chilly
 10
0.0
 20
0.0
 30
0.0
 70
   128
 71
   10
 72
   11
 73
   2
  0
VERTEX
  8
chilly
 10
0.0
 20
0.0
 30
0.0
 70
   128
 71
   11
 72
   12
 73
   3
  0
VERTEX
  8
chilly
 10
0.0
 20
0.0
 30
0.0
 70
   128
 71
   12
 72
   13
 73
   4
  0
VERTEX
  8
chilly
 10
0.0
 20
0.0
 30
0.0
 70
   128
 71
   13
 72
   14
 73
   5
  0
VERTEX
  8
chilly
 10
0.0
 20
0.0
 30
0.0
 70
   128
 71
   14
 72
   15
 73
   6
  0
VERTEX
  8
chilly
 10
0.0
 20
0.0
 30
0.0
 70
   128
 71
   15
 72
   16
 73
   7
  0
VERTEX
  8
chilly
 10
0.0
 20
0.0
 30
0.0
 70
   128
 71
   16
 72
   17
 73
   8
  0
VERTEX
  8
chilly
 10
0.0
 20
0.0
 30
0.0
 70
   128
 71
   17
 72
   9
 73
   8
  0
VERTEX
  8
chilly
 10
0.0
 20
0.0
 30
0.0
 70
   128
 71
   19
 72
   20
 73
   11
  0
VERTEX
  8
chilly
 10
0.0
 20
0.0
 30
0.0
 70
   128
 71
   20
 72
   21
 73
   12
  0
VERTEX
  8
chilly
 10
0.0
 20
0.0
 30
0.0
 70
   128
 71
   21
 72
   22
 73
   13
  0
VERTEX
  8
chilly
 10
0.0
 20
0.0
 30
0.0
 70
   128
 71
   22
 72
   23
 73
   14
  0
VERTEX
  8
chilly
 10
0.0
 20
0.0
 30
0.0
 70
   128
 71
   23
 72
   24
 73
   15
  0
VERTEX
  8
chilly
 10
0.0
 20
0.0
 30
0.0
 70
   128
 71
   24
 72
   25
 73
   16
  0
VERTEX
  8
chilly
 10
0.0
 20
0.0
 30
0.0
 70
   128
 71
   25
 72
   26
 73
   17
  0
VERTEX
  8
chilly
 10
0.0
 20
0.0
 30
0.0
 70
   128
 71
   26
 72
   9
 73
   17
  0
VERTEX
  8
chilly
 10
0.0
 20
0.0
 30
0.0
 70
   128
 71
   28
 72
   29
 73
   20
  0
VERTEX
  8
chilly
 10
0.0
 20
0.0
 30
0.0
 70
   128
 71
   29
 72
   30
 73
   21
  0
VERTEX
  8
chilly
 10
0.0
 20
0.0
 30
0.0
 70
   128
 71
   30
 72
   31
 73
   22
  0
VERTEX
  8
chilly
 10
0.0
 20
0.0
 30
0.0
 70
   128
 71
   31
 72
   32
 73
   23
  0
VERTEX
  8
chilly
 10
0.0
 20
0.0
 30
0.0
 70
   128
 71
   32
 72
   33
 73
   24
  0
VERTEX
  8
chilly
 10
0.0
 20
0.0
 30
0.0
 70
   128
 71
   33
 72
   34
 73
   25
  0
VERTEX
  8
chilly
 10
0.0
 20
0.0
 30
0.0
 70
   128
 71
   34
 72
   35
 73
   26
  0
VERTEX
  8
chilly
 10
0.0
 20
0.0
 30
0.0
 70
   128
 71
   35
 72
   9
 73
   26
  0
VERTEX
  8
chilly
 10
0.0
 20
0.0
 30
0.0
 70
   128
 71
   37
 72
   38
 73
   29
  0
VERTEX
  8
chilly
 10
0.0
 20
0.0
 30
0.0
 70
   128
 71
   38
 72
   39
 73
   30
  0
VERTEX
  8
chilly
 10
0.0
 20
0.0
 30
0.0
 70
   128
 71
   39
 72
   40
 73
   31
  0
VERTEX
  8
chilly
 10
0.0
 20
0.0
 30
0.0
 70
   128
 71
   40
 72
   41
 73
   32
  0
VERTEX
  8
chilly
 10
0.0
 20
0.0
 30
0.0
 70
   128
 71
   41
 72
   42
 73
   33
  0
VERTEX
  8
chilly
 10
0.0
 20
0.0
 30
0.0
 70
   128
 71
   42
 72
   43
 73
   34
  0
VERTEX
  8
chilly
 10
0.0
 20
0.0
 30
0.0
 70
   128
 71
   43
 72
   44
 73
   35
  0
VERTEX
  8
chilly
 10
0.0
 20
0.0
 30
0.0
 70
   128
 71
   44
 72
   9
 73
   35
  0
VERTEX
  8
chilly
 10
0.0
 20
0.0
 30
0.0
 70
   128
 71
   46
 72
   47
 73
   38
  0
VERTEX
  8
chilly
 10
0.0
 20
0.0
 30
0.0
 70
   128
 71
   47
 72
   48
 73
   39
  0
VERTEX
  8
chilly
 10
0.0
 20
0.0
 30
0.0
 70
   128
 71
   48
 72
   49
 73
   40
  0
VERTEX
  8
chilly
 10
0.0
 20
0.0
 30
0.0
 70
   128
 71
   49
 72
   50
 73
   41
  0
VERTEX
  8
chilly
 10
0.0
 20
0.0
 30
0.0
 70
   128
 71
   50
 72
   51
 73
   42
  0
VERTEX
  8
chilly
 10
0.0
 20
0.0
 30
0.0
 70
   128
 71
   51
 72
   52
 73
   43
  0
VERTEX
  8
chilly
 10
0.0
 20
0.0
 30
0.0
 70
   128
 71
   52
 72
   53
 73
   44
  0
VERTEX
  8
chilly
 10
0.0
 20
0.0
 30
0.0
 70
   128
 71
   53
 72
   9
 73
   44
  0
VERTEX
  8
chilly
 10
0.0
 20
0.0
 30
0.0
 70
   128
 71
   55
 72
   56
 73
   47
  0
VERTEX
  8
chilly
 10
0.0
 20
0.0
 30
0.0
 70
   128
 71
   56
 72
   57
 73
   48
  0
VERTEX
  8
chilly
 10
0.0
 20
0.0
 30
0.0
 70
   128
 71
   57
 72
   58
 73
   49
  0
VERTEX
  8
chilly
 10
0.0
 20
0.0
 30
0.0
 70
   128
 71
   58
 72
   59
 73
   50
  0
VERTEX
  8
chilly
 10
0.0
 20
0.0
 30
0.0
 70
   128
 71
   59
 72
   60
 73
   51
  0
VERTEX
  8
chilly
 10
0.0
 20
0.0
 30
0.0
 70
   128
 71
   60
 72
   61
 73
   52
  0
VERTEX
  8
chilly
 10
0.0
 20
0.0
 30
0.0
 70
   128
 71
   61
 72
   62
 73
   53
  0
VERTEX
  8
chilly
 10
0.0
 20
0.0
 30
0.0
 70
   128
 71
   62
 72
   9
 73
   53
  0
VERTEX
  8
chilly
 10
0.0
 20
0.0
 30
0.0
 70
   128
 71
   64
 72
   65
 73
   56
  0
VERTEX
  8
chilly
 10
0.0
 20
0.0
 30
0.0
 70
   128
 71
   65
 72
   66
 73
   57
  0
VERTEX
  8
chilly
 10
0.0
 20
0.0
 30
0.0
 70
   128
 71
   66
 72
   67
 73
   58
  0
VERTEX
  8
chilly
 10
0.0
 20
0.0
 30
0.0
 70
   128
 71
   67
 72
   68
 73
   59
  0
VERTEX
  8
chilly
 10
0.0
 20
0.0
 30
0.0
 70
   128
 71
   68
 72
   69
 73
   60
  0
VERTEX
  8
chilly
 10
0.0
 20
0.0
 30
0.0
 70
   128
 71
   69
 72
   70
 73
   61
  0
VERTEX
  8
chilly
 10
0.0
 20
0.0
 30
0.0
 70
   128
 71
   70
 72
   71
 73
   62
  0
VERTEX
  8
chilly
 10
0.0
 20
0.0
 30
0.0
 70
   128
 71
   71
 72
   9
 73
   62
  0
VERTEX
  8
chilly
 10
0.0
 20
0.0
 30
0.0
 70
   128
 71
   73
 72
   74
 73
   65
  0
VERTEX
  8
chilly
 10
0.0
 20
0.0
 30
0.0
 70
   128
 71
   74
 72
   75
 73
   66
  0
VERTEX
  8
chilly
 10
0.0
 20
0.0
 30
0.0
 70
   128
 71
   75
 72
   76
 73
   67
  0
VERTEX
  8
chilly
 10
0.0
 20
0.0
 30
0.0
 70
   128
 71
   76
 72
   77
 73
   68
  0
VERTEX
  8
chilly
 10
0.0
 20
0.0
 30
0.0
 70
   128
 71
   77
 72
   78
 73
   69
  0
VERTEX
  8
chilly
 10
0.0
 20
0.0
 30
0.0
 70
   128
 71
   78
 72
   79
 73
   70
  0
VERTEX
  8
chilly
 10
0.0
 20
0.0
 30
0.0
 70
   128
 71
   79
 72
   80
 73
   71
  0
VERTEX
  8
chilly
 10
0.0
 20
0.0
 30
0.0
 70
   128
 71
   80
 72
   9
 73
   71
  0
VERTEX
  8
chilly
 10
0.0
 20
0.0
 30
0.0
 70
   128
 71
   82
 72
   83
 73
   74
  0
VERTEX
  8
chilly
 10
0.0
 20
0.0
 30
0.0
 70
   128
 71
   83
 72
   84
 73
   75
  0
VERTEX
  8
chilly
 10
0.0
 20
0.0
 30
0.0
 70
   128
 71
   84
 72
   85
 73
   76
  0
VERTEX
  8
chilly
 10
0.0
 20
0.0
 30
0.0
 70
   128
 71
   85
 72
   86
 73
   77
  0
VERTEX
  8
chilly
 10
0.0
 20
0.0
 30
0.0
 70
   128
 71
   86
 72
   87
 73
   78
  0
VERTEX
  8
chilly
 10
0.0
 20
0.0
 30
0.0
 70
   128
 71
   87
 72
   88
 73
   79
  0
VERTEX
  8
chilly
 10
0.0
 20
0.0
 30
0.0
 70
   128
 71
   88
 72
   89
 73
   80
  0
VERTEX
  8
chilly
 10
0.0
 20
0.0
 30
0.0
 70
   128
 71
   89
 72
   9
 73
   80
  0
VERTEX
  8
chilly
 10
0.0
 20
0.0
 30
0.0
 70
   128
 71
   91
 72
   92
 73
   83
  0
VERTEX
  8
chilly
 10
0.0
 20
0.0
 30
0.0
 70
   128
 71
   92
 72
   93
 73
   84
  0
VERTEX
  8
chilly
 10
0.0
 20
0.0
 30
0.0
 70
   128
 71
   93
 72
   94
 73
   85
  0
VERTEX
  8
chilly
 10
0.0
 20
0.0
 30
0.0
 70
   128
 71
   94
 72
   95
 73
   86
  0
VERTEX
  8
chilly
 10
0.0
 20
0.0
 30
0.0
 70
   128
 71
   95
 72
   96
 73
   87
  0
VERTEX
  8
chilly
 10
0.0
 20
0.0
 30
0.0
 70
   128
 71
   96
 72
   97
 73
   88
  0
VERTEX
  8
chilly
 10
0.0
 20
0.0
 30
0.0
 70
   128
 71
   97
 72
   98
 73
   89
  0
VERTEX
  8
chilly
 10
0.0
 20
0.0
 30
0.0
 70
   128
 71
   98
 72
   9
 73
   89
  0
VERTEX
  8
chilly
 10
0.0
 20
0.0
 30
0.0
 70
   128
 71
   100
 72
   101
 73
   92
  0
VERTEX
  8
chilly
 10
0.0
 20
0.0
 30
0.0
 70
   128
 71
   101
 72
   102
 73
   93
  0
VERTEX
  8
chilly
 10
0.0
 20
0.0
 30
0.0
 70
   128
 71
   102
 72
   103
 73
   94
  0
VERTEX
  8
chilly
 10
0.0
 20
0.0
 30
0.0
 70
   128
 71
   103
 72
   104
 73
   95
  0
VERTEX
  8
chilly
 10
0.0
 20
0.0
 30
0.0
 70
   128
 71
   104
 72
   105
 73
   96
  0
VERTEX
  8
chilly
 10
0.0
 20
0.0
 30
0.0
 70
   128
 71
   105
 72
   106
 73
   97
  0
VERTEX
  8
chilly
 10
0.0
 20
0.0
 30
0.0
 70
   128
 71
   106
 72
   107
 73
   98
  0
VERTEX
  8
chilly
 10
0.0
 20
0.0
 30
0.0
 70
   128
 71
   107
 72
   9
 73
   98
  0
VERTEX
  8
chilly
 10
0.0
 20
0.0
 30
0.0
 70
   128
 71
   1
 72
   2
 73
   101
  0
VERTEX
  8
chilly
 10
0.0
 20
0.0
 30
0.0
 70
   128
 71
   2
 72
   3
 73
   102
  0
VERTEX
  8
chilly
 10
0.0
 20
0.0
 30
0.0
 70
   128
 71
   3
 72
   4
 73
   103
  0
VERTEX
  8
chilly
 10
0.0
 20
0.0
 30
0.0
 70
   128
 71
   4
 72
   5
 73
   104
  0
VERTEX
  8
chilly
 10
0.0
 20
0.0
 30
0.0
 70
   128
 71
   5
 72
   6
 73
   105
  0
VERTEX
  8
chilly
 10
0.0
 20
0.0
 30
0.0
 70
   128
 71
   6
 72
   7
 73
   106
  0
VERTEX
  8
chilly
 10
0.0
 20
0.0
 30
0.0
 70
   128
 71
   7
 72
   8
 73
   107
  0
VERTEX
  8
chilly
 10
0.0
 20
0.0
 30
0.0
 70
   128
 71
   8
 72
   9
 73
   107
  0
VERTEX
  8
chilly
 10
0.0
 20
0.0
 30
0.0
 70
   128
 71
   121
 72
   122
 73
   133
  0
VERTEX
  8
chilly
 10
0.0
 20
0.0
 30
0.0
 70
   128
 71
   10
 72
   109
 73
   110
  0
VERTEX
  8
chilly
 10
0.0
 20
0.0
 30
0.0
 70
   128
 71
   100
 72
   119
 73
   121
  0
VERTEX
  8
chilly
 10
0.0
 20
0.0
 30
0.0
 70
   128
 71
   125
 72
   111
 73
   110
  0
VERTEX
  8
chilly
 10
0.0
 20
0.0
 30
0.0
 70
   128
 71
   126
 72
   54
 73
   36
  0
VERTEX
  8
chilly
 10
0.0
 20
0.0
 30
0.0
 70
   128
 71
   28
 72
   111
 73
   112
  0
VERTEX
  8
chilly
 10
0.0
 20
0.0
 30
0.0
 70
   128
 71
   82
 72
   117
 73
   118
  0
VERTEX
  8
chilly
 10
0.0
 20
0.0
 30
0.0
 70
   128
 71
   129
 72
   113
 73
   112
  0
VERTEX
  8
chilly
 10
0.0
 20
0.0
 30
0.0
 70
   128
 71
   130
 72
   90
 73
   72
  0
VERTEX
  8
chilly
 10
0.0
 20
0.0
 30
0.0
 70
   128
 71
   46
 72
   113
 73
   114
  0
VERTEX
  8
chilly
 10
0.0
 20
0.0
 30
0.0
 70
   128
 71
   64
 72
   115
 73
   116
  0
VERTEX
  8
chilly
 10
0.0
 20
0.0
 30
0.0
 70
   128
 71
   131
 72
   99
 73
   108
  0
VERTEX
  8
chilly
 10
0.0
 20
0.0
 30
0.0
 70
   128
 71
   109
 72
   10
 73
   1
  0
VERTEX
  8
chilly
 10
0.0
 20
0.0
 30
0.0
 70
   128
 71
   27
 72
   123
 73
   133
  0
VERTEX
  8
chilly
 10
0.0
 20
0.0
 30
0.0
 70
   128
 71
   124
 72
   36
 73
   18
  0
VERTEX
  8
chilly
 10
0.0
 20
0.0
 30
0.0
 70
   128
 71
   111
 72
   28
 73
   19
  0
VERTEX
  8
chilly
 10
0.0
 20
0.0
 30
0.0
 70
   128
 71
   119
 72
   100
 73
   91
  0
VERTEX
  8
chilly
 10
0.0
 20
0.0
 30
0.0
 70
   128
 71
   127
 72
   112
 73
   111
  0
VERTEX
  8
chilly
 10
0.0
 20
0.0
 30
0.0
 70
   128
 71
   128
 72
   72
 73
   54
  0
VERTEX
  8
chilly
 10
0.0
 20
0.0
 30
0.0
 70
   128
 71
   113
 72
   46
 73
   37
  0
VERTEX
  8
chilly
 10
0.0
 20
0.0
 30
0.0
 70
   128
 71
   117
 72
   82
 73
   73
  0
VERTEX
  8
chilly
 10
0.0
 20
0.0
 30
0.0
 70
   128
 71
   131
 72
   114
 73
   113
  0
VERTEX
  8
chilly
 10
0.0
 20
0.0
 30
0.0
 70
   128
 71
   115
 72
   132
 73
   130
  0
VERTEX
  8
chilly
 10
0.0
 20
0.0
 30
0.0
 70
   128
 71
   115
 72
   64
 73
   55
  0
VERTEX
  8
chilly
 10
0.0
 20
0.0
 30
0.0
 70
   128
 71
   54
 72
   120
 73
   18
  0
VERTEX
  8
chilly
 10
0.0
 20
0.0
 30
0.0
 70
   128
 71
   72
 72
   27
 73
   120
  0
VERTEX
  8
chilly
 10
0.0
 20
0.0
 30
0.0
 70
   128
 71
   63
 72
   45
 73
   27
  0
VERTEX
  8
chilly
 10
0.0
 20
0.0
 30
0.0
 70
   128
 71
   72
 72
   90
 73
   81
  0
VERTEX
  8
chilly
 10
0.0
 20
0.0
 30
0.0
 70
   128
 71
   90
 72
   108
 73
   99
  0
VERTEX
  8
chilly
 10
0.0
 20
0.0
 30
0.0
 70
   128
 71
   122
 72
   18
 73
   120
  0
VERTEX
  8
chilly
 10
0.0
 20
0.0
 30
0.0
 70
   128
 71
   123
 72
   27
 73
   45
  0
VERTEX
  8
chilly
 10
0.0
 20
0.0
 30
0.0
 70
   128
 71
   124
 72
   119
 73
   118
  0
VERTEX
  8
chilly
 10
0.0
 20
0.0
 30
0.0
 70
   128
 71
   127
 72
   63
 73
   81
  0
VERTEX
  8
chilly
 10
0.0
 20
0.0
 30
0.0
 70
   128
 71
   128
 72
   117
 73
   116
  0
VERTEX
  8
chilly
 10
0.0
 20
0.0
 30
0.0
 70
   128
 71
   132
 72
   115
 73
   114
  0
VERTEX
  8
chilly
 10
0.0
 20
0.0
 30
0.0
 70
   128
 71
   123
 72
   110
 73
   109
  0
VERTEX
  8
chilly
 10
0.0
 20
0.0
 30
0.0
 70
   128
 71
   122
 72
   121
 73
   119
  0
VERTEX
  8
chilly
 10
0.0
 20
0.0
 30
0.0
 70
   128
 71
   125
 72
   45
 73
   63
  0
VERTEX
  8
chilly
 10
0.0
 20
0.0
 30
0.0
 70
   128
 71
   126
 72
   118
 73
   117
  0
VERTEX
  8
chilly
 10
0.0
 20
0.0
 30
0.0
 70
   128
 71
   129
 72
   81
 73
   99
  0
VERTEX
  8
chilly
 10
0.0
 20
0.0
 30
0.0
 70
   128
 71
   132
 72
   108
 73
   90
  0
VERTEX
  8
chilly
 10
0.0
 20
0.0
 30
0.0
 70
   128
 71
   10
 72
   2
 73
   1
  0
VERTEX
  8
chilly
 10
0.0
 20
0.0
 30
0.0
 70
   128
 71
   11
 72
   3
 73
   2
  0
VERTEX
  8
chilly
 10
0.0
 20
0.0
 30
0.0
 70
   128
 71
   12
 72
   4
 73
   3
  0
VERTEX
  8
chilly
 10
0.0
 20
0.0
 30
0.0
 70
   128
 71
   13
 72
   5
 73
   4
  0
VERTEX
  8
chilly
 10
0.0
 20
0.0
 30
0.0
 70
   128
 71
   14
 72
   6
 73
   5
  0
VERTEX
  8
chilly
 10
0.0
 20
0.0
 30
0.0
 70
   128
 71
   15
 72
   7
 73
   6
  0
VERTEX
  8
chilly
 10
0.0
 20
0.0
 30
0.0
 70
   128
 71
   16
 72
   8
 73
   7
  0
VERTEX
  8
chilly
 10
0.0
 20
0.0
 30
0.0
 70
   128
 71
   19
 72
   11
 73
   10
  0
VERTEX
  8
chilly
 10
0.0
 20
0.0
 30
0.0
 70
   128
 71
   20
 72
   12
 73
   11
  0
VERTEX
  8
chilly
 10
0.0
 20
0.0
 30
0.0
 70
   128
 71
   21
 72
   13
 73
   12
  0
VERTEX
  8
chilly
 10
0.0
 20
0.0
 30
0.0
 70
   128
 71
   22
 72
   14
 73
   13
  0
VERTEX
  8
chilly
 10
0.0
 20
0.0
 30
0.0
 70
   128
 71
   23
 72
   15
 73
   14
  0
VERTEX
  8
chilly
 10
0.0
 20
0.0
 30
0.0
 70
   128
 71
   24
 72
   16
 73
   15
  0
VERTEX
  8
chilly
 10
0.0
 20
0.0
 30
0.0
 70
   128
 71
   25
 72
   17
 73
   16
  0
VERTEX
  8
chilly
 10
0.0
 20
0.0
 30
0.0
 70
   128
 71
   28
 72
   20
 73
   19
  0
VERTEX
  8
chilly
 10
0.0
 20
0.0
 30
0.0
 70
   128
 71
   29
 72
   21
 73
   20
  0
VERTEX
  8
chilly
 10
0.0
 20
0.0
 30
0.0
 70
   128
 71
   30
 72
   22
 73
   21
  0
VERTEX
  8
chilly
 10
0.0
 20
0.0
 30
0.0
 70
   128
 71
   31
 72
   23
 73
   22
  0
VERTEX
  8
chilly
 10
0.0
 20
0.0
 30
0.0
 70
   128
 71
   32
 72
   24
 73
   23
  0
VERTEX
  8
chilly
 10
0.0
 20
0.0
 30
0.0
 70
   128
 71
   33
 72
   25
 73
   24
  0
VERTEX
  8
chilly
 10
0.0
 20
0.0
 30
0.0
 70
   128
 71
   34
 72
   26
 73
   25
  0
VERTEX
  8
chilly
 10
0.0
 20
0.0
 30
0.0
 70
   128
 71
   37
 72
   29
 73
   28
  0
VERTEX
  8
chilly
 10
0.0
 20
0.0
 30
0.0
 70
   128
 71
   38
 72
   30
 73
   29
  0
VERTEX
  8
chilly
 10
0.0
 20
0.0
 30
0.0
 70
   128
 71
   39
 72
   31
 73
   30
  0
VERTEX
  8
chilly
 10
0.0
 20
0.0
 30
0.0
 70
   128
 71
   40
 72
   32
 73
   31
  0
VERTEX
  8
chilly
 10
0.0
 20
0.0
 30
0.0
 70
   128
 71
   41
 72
   33
 73
   32
  0
VERTEX
  8
chilly
 10
0.0
 20
0.0
 30
0.0
 70
   128
 71
   42
 72
   34
 73
   33
  0
VERTEX
  8
chilly
 10
0.0
 20
0.0
 30
0.0
 70
   128
 71
   43
 72
   35
 73
   34
  0
VERTEX
  8
chilly
 10
0.0
 20
0.0
 30
0.0
 70
   128
 71
   46
 72
   38
 73
   37
  0
VERTEX
  8
chilly
 10
0.0
 20
0.0
 30
0.0
 70
   128
 71
   47
 72
   39
 73
   38
  0
VERTEX
  8
chilly
 10
0.0
 20
0.0
 30
0.0
 70
   128
 71
   48
 72
   40
 73
   39
  0
VERTEX
  8
chilly
 10
0.0
 20
0.0
 30
0.0
 70
   128
 71
   49
 72
   41
 73
   40
  0
VERTEX
  8
chilly
 10
0.0
 20
0.0
 30
0.0
 70
   128
 71
   50
 72
   42
 73
   41
  0
VERTEX
  8
chilly
 10
0.0
 20
0.0
 30
0.0
 70
   128
 71
   51
 72
   43
 73
   42
  0
VERTEX
  8
chilly
 10
0.0
 20
0.0
 30
0.0
 70
   128
 71
   52
 72
   44
 73
   43
  0
VERTEX
  8
chilly
 10
0.0
 20
0.0
 30
0.0
 70
   128
 71
   55
 72
   47
 73
   46
  0
VERTEX
  8
chilly
 10
0.0
 20
0.0
 30
0.0
 70
   128
 71
   56
 72
   48
 73
   47
  0
VERTEX
  8
chilly
 10
0.0
 20
0.0
 30
0.0
 70
   128
 71
   57
 72
   49
 73
   48
  0
VERTEX
  8
chilly
 10
0.0
 20
0.0
 30
0.0
 70
   128
 71
   58
 72
   50
 73
   49
  0
VERTEX
  8
chilly
 10
0.0
 20
0.0
 30
0.0
 70
   128
 71
   59
 72
   51
 73
   50
  0
VERTEX
  8
chilly
 10
0.0
 20
0.0
 30
0.0
 70
   128
 71
   60
 72
   52
 73
   51
  0
VERTEX
  8
chilly
 10
0.0
 20
0.0
 30
0.0
 70
   128
 71
   61
 72
   53
 73
   52
  0
VERTEX
  8
chilly
 10
0.0
 20
0.0
 30
0.0
 70
   128
 71
   64
 72
   56
 73
   55
  0
VERTEX
  8
chilly
 10
0.0
 20
0.0
 30
0.0
 70
   128
 71
   65
 72
   57
 73
   56
  0
VERTEX
  8
chilly
 10
0.0
 20
0.0
 30
0.0
 70
   128
 71
   66
 72
   58
 73
   57
  0
VERTEX
  8
chilly
 10
0.0
 20
0.0
 30
0.0
 70
   128
 71
   67
 72
   59
 73
   58
  0
VERTEX
  8
chilly
 10
0.0
 20
0.0
 30
0.0
 70
   128
 71
   68
 72
   60
 73
   59
  0
VERTEX
  8
chilly
 10
0.0
 20
0.0
 30
0.0
 70
   128
 71
   69
 72
   61
 73
   60
  0
VERTEX
  8
chilly
 10
0.0
 20
0.0
 30
0.0
 70
   128
 71
   70
 72
   62
 73
   61
  0
VERTEX
  8
chilly
 10
0.0
 20
0.0
 30
0.0
 70
   128
 71
   73
 72
   65
 73
   64
  0
VERTEX
  8
chilly
 10
0.0
 20
0.0
 30
0.0
 70
   128
 71
   74
 72
   66
 73
   65
  0
VERTEX
  8
chilly
 10
0.0
 20
0.0
 30
0.0
 70
   128
 71
   75
 72
   67
 73
   66
  0
VERTEX
  8
chilly
 10
0.0
 20
0.0
 30
0.0
 70
   128
 71
   76
 72
   68
 73
   67
  0
VERTEX
  8
chilly
 10
0.0
 20
0.0
 30
0.0
 70
   128
 71
   77
 72
   69
 73
   68
  0
VERTEX
  8
chilly
 10
0.0
 20
0.0
 30
0.0
 70
   128
 71
   78
 72
   70
 73
   69
  0
VERTEX
  8
chilly
 10
0.0
 20
0.0
 30
0.0
 70
   128
 71
   79
 72
   71
 73
   70
  0
VERTEX
  8
chilly
 10
0.0
 20
0.0
 30
0.0
 70
   128
 71
   82
 72
   74
 73
   73
  0
VERTEX
  8
chilly
 10
0.0
 20
0.0
 30
0.0
 70
   128
 71
   83
 72
   75
 73
   74
  0
VERTEX
  8
chilly
 10
0.0
 20
0.0
 30
0.0
 70
   128
 71
   84
 72
   76
 73
   75
  0
VERTEX
  8
chilly
 10
0.0
 20
0.0
 30
0.0
 70
   128
 71
   85
 72
   77
 73
   76
  0
VERTEX
  8
chilly
 10
0.0
 20
0.0
 30
0.0
 70
   128
 71
   86
 72
   78
 73
   77
  0
VERTEX
  8
chilly
 10
0.0
 20
0.0
 30
0.0
 70
   128
 71
   87
 72
   79
 73
   78
  0
VERTEX
  8
chilly
 10
0.0
 20
0.0
 30
0.0
 70
   128
 71
   88
 72
   80
 73
   79
  0
VERTEX
  8
chilly
 10
0.0
 20
0.0
 30
0.0
 70
   128
 71
   91
 72
   83
 73
   82
  0
VERTEX
  8
chilly
 10
0.0
 20
0.0
 30
0.0
 70
   128
 71
   92
 72
   84
 73
   83
  0
VERTEX
  8
chilly
 10
0.0
 20
0.0
 30
0.0
 70
   128
 71
   93
 72
   85
 73
   84
  0
VERTEX
  8
chilly
 10
0.0
 20
0.0
 30
0.0
 70
   128
 71
   94
 72
   86
 73
   85
  0
VERTEX
  8
chilly
 10
0.0
 20
0.0
 30
0.0
 70
   128
 71
   95
 72
   87
 73
   86
  0
VERTEX
  8
chilly
 10
0.0
 20
0.0
 30
0.0
 70
   128
 71
   96
 72
   88
 73
   87
  0
VERTEX
  8
chilly
 10
0.0
 20
0.0
 30
0.0
 70
   128
 71
   97
 72
   89
 73
   88
  0
VERTEX
  8
chilly
 10
0.0
 20
0.0
 30
0.0
 70
   128
 71
   100
 72
   92
 73
   91
  0
VERTEX
  8
chilly
 10
0.0
 20
0.0
 30
0.0
 70
   128
 71
   101
 72
   93
 73
   92
  0
VERTEX
  8
chilly
 10
0.0
 20
0.0
 30
0.0
 70
   128
 71
   102
 72
   94
 73
   93
  0
VERTEX
  8
chilly
 10
0.0
 20
0.0
 30
0.0
 70
   128
 71
   103
 72
   95
 73
   94
  0
VERTEX
  8
chilly
 10
0.0
 20
0.0
 30
0.0
 70
   128
 71
   104
 72
   96
 73
   95
  0
VERTEX
  8
chilly
 10
0.0
 20
0.0
 30
0.0
 70
   128
 71
   105
 72
   97
 73
   96
  0
VERTEX
  8
chilly
 10
0.0
 20
0.0
 30
0.0
 70
   128
 71
   106
 72
   98
 73
   97
  0
VERTEX
  8
chilly
 10
0.0
 20
0.0
 30
0.0
 70
   128
 71
   1
 72
   101
 73
   100
  0
VERTEX
  8
chilly
 10
0.0
 20
0.0
 30
0.0
 70
   128
 71
   2
 72
   102
 73
   101
  0
VERTEX
  8
chilly
 10
0.0
 20
0.0
 30
0.0
 70
   128
 71
   3
 72
   103
 73
   102
  0
VERTEX
  8
chilly
 10
0.0
 20
0.0
 30
0.0
 70
   128
 71
   4
 72
   104
 73
   103
  0
VERTEX
  8
chilly
 10
0.0
 20
0.0
 30
0.0
 70
   128
 71
   5
 72
   105
 73
   104
  0
VERTEX
  8
chilly
 10
0.0
 20
0.0
 30
0.0
 70
   128
 71
   6
 72
   106
 73
   105
  0
VERTEX
  8
chilly
 10
0.0
 20
0.0
 30
0.0
 70
   128
 71
   7
 72
   107
 73
   106
  0
VERTEX
  8
chilly
 10
0.0
 20
0.0
 30
0.0
 70
   128
 71
   121
 72
   133
 73
   109
  0
VERTEX
  8
chilly
 10
0.0
 20
0.0
 30
0.0
 70
   128
 71
   10
 72
   110
 73
   19
  0
VERTEX
  8
chilly
 10
0.0
 20
0.0
 30
0.0
 70
   128
 71
   100
 72
   121
 73
   1
  0
VERTEX
  8
chilly
 10
0.0
 20
0.0
 30
0.0
 70
   128
 71
   125
 72
   110
 73
   123
  0
VERTEX
  8
chilly
 10
0.0
 20
0.0
 30
0.0
 70
   128
 71
   126
 72
   36
 73
   124
  0
VERTEX
  8
chilly
 10
0.0
 20
0.0
 30
0.0
 70
   128
 71
   28
 72
   112
 73
   37
  0
VERTEX
  8
chilly
 10
0.0
 20
0.0
 30
0.0
 70
   128
 71
   82
 72
   118
 73
   91
  0
VERTEX
  8
chilly
 10
0.0
 20
0.0
 30
0.0
 70
   128
 71
   129
 72
   112
 73
   127
  0
VERTEX
  8
chilly
 10
0.0
 20
0.0
 30
0.0
 70
   128
 71
   130
 72
   72
 73
   128
  0
VERTEX
  8
chilly
 10
0.0
 20
0.0
 30
0.0
 70
   128
 71
   46
 72
   114
 73
   55
  0
VERTEX
  8
chilly
 10
0.0
 20
0.0
 30
0.0
 70
   128
 71
   64
 72
   116
 73
   73
  0
VERTEX
  8
chilly
 10
0.0
 20
0.0
 30
0.0
 70
   128
 71
   131
 72
   108
 73
   132
  0
VERTEX
  8
chilly
 10
0.0
 20
0.0
 30
0.0
 70
   128
 71
   109
 72
   1
 73
   121
  0
VERTEX
  8
chilly
 10
0.0
 20
0.0
 30
0.0
 70
   128
 71
   27
 72
   133
 73
   120
  0
VERTEX
  8
chilly
 10
0.0
 20
0.0
 30
0.0
 70
   128
 71
   124
 72
   18
 73
   122
  0
VERTEX
  8
chilly
 10
0.0
 20
0.0
 30
0.0
 70
   128
 71
   111
 72
   19
 73
   110
  0
VERTEX
  8
chilly
 10
0.0
 20
0.0
 30
0.0
 70
   128
 71
   119
 72
   91
 73
   118
  0
VERTEX
  8
chilly
 10
0.0
 20
0.0
 30
0.0
 70
   128
 71
   127
 72
   111
 73
   125
  0
VERTEX
  8
chilly
 10
0.0
 20
0.0
 30
0.0
 70
   128
 71
   128
 72
   54
 73
   126
  0
VERTEX
  8
chilly
 10
0.0
 20
0.0
 30
0.0
 70
   128
 71
   113
 72
   37
 73
   112
  0
VERTEX
  8
chilly
 10
0.0
 20
0.0
 30
0.0
 70
   128
 71
   117
 72
   73
 73
   116
  0
VERTEX
  8
chilly
 10
0.0
 20
0.0
 30
0.0
 70
   128
 71
   131
 72
   113
 73
   129
  0
VERTEX
  8
chilly
 10
0.0
 20
0.0
 30
0.0
 70
   128
 71
   115
 72
   130
 73
   116
  0
VERTEX
  8
chilly
 10
0.0
 20
0.0
 30
0.0
 70
   128
 71
   115
 72
   55
 73
   114
  0
VERTEX
  8
chilly
 10
0.0
 20
0.0
 30
0.0
 70
   128
 71
   54
 72
   18
 73
   36
  0
VERTEX
  8
chilly
 10
0.0
 20
0.0
 30
0.0
 70
   128
 71
   72
 72
   120
 73
   54
  0
VERTEX
  8
chilly
 10
0.0
 20
0.0
 30
0.0
 70
   128
 71
   63
 72
   27
 73
   72
  0
VERTEX
  8
chilly
 10
0.0
 20
0.0
 30
0.0
 70
   128
 71
   72
 72
   81
 73
   63
  0
VERTEX
  8
chilly
 10
0.0
 20
0.0
 30
0.0
 70
   128
 71
   90
 72
   99
 73
   81
  0
VERTEX
  8
chilly
 10
0.0
 20
0.0
 30
0.0
 70
   128
 71
   122
 72
   120
 73
   133
  0
VERTEX
  8
chilly
 10
0.0
 20
0.0
 30
0.0
 70
   128
 71
   123
 72
   45
 73
   125
  0
VERTEX
  8
chilly
 10
0.0
 20
0.0
 30
0.0
 70
   128
 71
   124
 72
   118
 73
   126
  0
VERTEX
  8
chilly
 10
0.0
 20
0.0
 30
0.0
 70
   128
 71
   127
 72
   81
 73
   129
  0
VERTEX
  8
chilly
 10
0.0
 20
0.0
 30
0.0
 70
   128
 71
   128
 72
   116
 73
   130
  0
VERTEX
  8
chilly
 10
0.0
 20
0.0
 30
0.0
 70
   128
 71
   132
 72
   114
 73
   131
  0
VERTEX
  8
chilly
 10
0.0
 20
0.0
 30
0.0
 70
   128
 71
   123
 72
   109
 73
   133
  0
VERTEX
  8
chilly
 10
0.0
 20
0.0
 30
0.0
 70
   128
 71
   122
 72
   119
 73
   124
  0
VERTEX
  8
chilly
 10
0.0
 20
0.0
 30
0.0
 70
   128
 71
   125
 72
   63
 73
   127
  0
VERTEX
  8
chilly
 10
0.0
 20
0.0
 30
0.0
 70
   128
 71
   126
 72
   117
 73
   128
  0
VERTEX
  8
chilly
 10
0.0
 20
0.0
 30
0.0
 70
   128
 71
   129
 72
   99
 73
   131
  0
VERTEX
  8
chilly
 10
0.0
 20
0.0
 30
0.0
 70
   128
 71
   132
 72
   90
 73
   130
  0
SEQEND
  0
ENDSEC
  0
EOF
