999
FBX AutoCAD (*.DXF) exporter
  0
SECTION
  2
HEADER
  9
$ACADVER
  1
AC1008
  9
$UCSORG
 10
0.0
 20
0.0
 30
0.0
  9
$UCSXDIR
 10
1.0
 20
0.0
 30
0.0
  9
$TILEMODE
 70
   1
  9
$UCSYDIR
 10
0.0
 20
1.0
 30
0.0
  0
ENDSEC
  0
SECTION
  2
TABLES
  0
TABLE
  2
LTYPE
 70
   1
  0
LTYPE
  2
CONTINUOUS
 70
   64
  3
Solid line
 72
   65
 73
   0
 40
0.0
  0
ENDTAB
  0
TABLE
  2
LAYER
 70
   1
  0
LAYER
  2
friedChicken
 70
   0
 62
   250
  6
CONTINUOUS
  0
ENDTAB
  0
ENDSEC
  0
SECTION
  2
BLOCKS
  0
ENDSEC
  0
SECTION
  2
ENTITIES
  0
POLYLINE
  8
friedChicken
 66
   1
 10
0.0
 20
0.0
 30
0.0
 70
   64
 71
   78
 72
   152
  0
VERTEX
  8
friedChicken
 10
0.273419
 20
4.875984
 30
7.288569
 70
   192
  0
VERTEX
  8
friedChicken
 10
0.274722
 20
20.807649
 30
6.829736
 70
   192
  0
VERTEX
  8
friedChicken
 10
0.273419
 20
12.826694
 30
-6.481556
 70
   192
  0
VERTEX
  8
friedChicken
 10
15.398166
 20
12.887110
 30
-12.050641
 70
   192
  0
VERTEX
  8
friedChicken
 10
24.538205
 20
4.973739
 30
-1.722401
 70
   192
  0
VERTEX
  8
friedChicken
 10
24.473703
 20
20.874372
 30
-1.722401
 70
   192
  0
VERTEX
  8
friedChicken
 10
24.409061
 20
12.923663
 30
12.047724
 70
   192
  0
VERTEX
  8
friedChicken
 10
9.515575
 20
12.863247
 30
17.616809
 70
   192
  0
VERTEX
  8
friedChicken
 10
9.724533
 20
0.000000
 30
-4.663721
 70
   192
  0
VERTEX
  8
friedChicken
 10
15.293573
 20
0.022591
 30
10.229888
 70
   192
  0
VERTEX
  8
friedChicken
 10
15.189207
 20
25.750356
 30
10.229888
 70
   192
  0
VERTEX
  8
friedChicken
 10
9.620168
 20
25.727765
 30
-4.663721
 70
   192
  0
VERTEX
  8
friedChicken
 10
-9.073329
 20
25.727765
 30
-4.663721
 70
   192
  0
VERTEX
  8
friedChicken
 10
-14.642369
 20
25.750356
 30
10.229888
 70
   192
  0
VERTEX
  8
friedChicken
 10
-14.746734
 20
0.022591
 30
10.229888
 70
   192
  0
VERTEX
  8
friedChicken
 10
-14.851328
 20
12.887110
 30
-12.050641
 70
   192
  0
VERTEX
  8
friedChicken
 10
-23.991366
 20
4.973739
 30
-1.722401
 70
   192
  0
VERTEX
  8
friedChicken
 10
-23.926865
 20
20.874372
 30
-1.722401
 70
   192
  0
VERTEX
  8
friedChicken
 10
-23.862223
 20
12.923663
 30
12.047724
 70
   192
  0
VERTEX
  8
friedChicken
 10
-8.968736
 20
12.863247
 30
17.616809
 70
   192
  0
VERTEX
  8
friedChicken
 10
-9.177695
 20
0.000000
 30
-4.663721
 70
   192
  0
VERTEX
  8
friedChicken
 10
-3.694095
 20
22.488554
 30
5.145925
 70
   192
  0
VERTEX
  8
friedChicken
 10
-5.388775
 20
23.640624
 30
1.065923
 70
   192
  0
VERTEX
  8
friedChicken
 10
-3.683375
 20
19.845749
 30
-3.014079
 70
   192
  0
VERTEX
  8
friedChicken
 10
4.465648
 20
22.569379
 30
5.145924
 70
   192
  0
VERTEX
  8
friedChicken
 10
6.150994
 20
23.718092
 30
1.065922
 70
   192
  0
VERTEX
  8
friedChicken
 10
4.475435
 20
20.156687
 30
-3.014080
 70
   192
  0
VERTEX
  8
friedChicken
 10
0.273419
 20
13.888142
 30
-4.643014
 70
   192
  0
VERTEX
  8
friedChicken
 10
-6.258537
 20
53.508046
 30
-6.612642
 70
   192
  0
VERTEX
  8
friedChicken
 10
9.705668
 20
53.572806
 30
-0.000001
 70
   192
  0
VERTEX
  8
friedChicken
 10
-8.997561
 20
53.496935
 30
0.000003
 70
   192
  0
VERTEX
  8
friedChicken
 10
-25.581566
 20
140.710969
 30
44.308943
 70
   192
  0
VERTEX
  8
friedChicken
 10
-6.258536
 20
53.508046
 30
6.612647
 70
   192
  0
VERTEX
  8
friedChicken
 10
-10.612710
 20
74.005195
 30
18.851012
 70
   192
  0
VERTEX
  8
friedChicken
 10
0.298167
 20
53.534644
 30
9.348768
 70
   192
  0
VERTEX
  8
friedChicken
 10
0.299761
 20
53.534650
 30
-9.329201
 70
   192
  0
VERTEX
  8
friedChicken
 10
-2.004956
 20
173.799613
 30
3.168250
 70
   192
  0
VERTEX
  8
friedChicken
 10
6.966644
 20
53.561695
 30
-6.612643
 70
   192
  0
VERTEX
  8
friedChicken
 10
-25.135019
 20
111.026991
 30
43.744070
 70
   192
  0
VERTEX
  8
friedChicken
 10
6.966645
 20
53.561695
 30
6.612646
 70
   192
  0
VERTEX
  8
friedChicken
 10
-20.180822
 20
88.327529
 30
35.322705
 70
   192
  0
VERTEX
  8
friedChicken
 10
-18.580571
 20
162.522864
 30
32.029711
 70
   192
  0
VERTEX
  8
friedChicken
 10
-7.148567
 20
53.504436
 30
12.995029
 70
   192
  0
VERTEX
  8
friedChicken
 10
-3.834131
 20
173.792193
 30
0.000000
 70
   192
  0
VERTEX
  8
friedChicken
 10
-37.072783
 20
162.447850
 30
0.000003
 70
   192
  0
VERTEX
  8
friedChicken
 10
-51.163138
 20
140.607196
 30
0.000004
 70
   192
  0
VERTEX
  8
friedChicken
 10
-50.390464
 20
110.924542
 30
0.000004
 70
   192
  0
VERTEX
  8
friedChicken
 10
-40.574229
 20
88.244802
 30
0.000003
 70
   192
  0
VERTEX
  8
friedChicken
 10
-21.496258
 20
73.961046
 30
0.000002
 70
   192
  0
VERTEX
  8
friedChicken
 10
-14.651189
 20
53.474001
 30
0.000001
 70
   192
  0
VERTEX
  8
friedChicken
 10
-2.004957
 20
173.799613
 30
-3.168249
 70
   192
  0
VERTEX
  8
friedChicken
 10
-18.580576
 20
162.522864
 30
-32.029708
 70
   192
  0
VERTEX
  8
friedChicken
 10
-25.581572
 20
140.710969
 30
-44.308940
 70
   192
  0
VERTEX
  8
friedChicken
 10
-25.135025
 20
111.026991
 30
-43.744066
 70
   192
  0
VERTEX
  8
friedChicken
 10
-20.180827
 20
88.327529
 30
-35.322702
 70
   192
  0
VERTEX
  8
friedChicken
 10
-10.612712
 20
74.005195
 30
-18.851011
 70
   192
  0
VERTEX
  8
friedChicken
 10
-7.148569
 20
53.504436
 30
-12.995028
 70
   192
  0
VERTEX
  8
friedChicken
 10
1.653393
 20
173.814453
 30
-3.168250
 70
   192
  0
VERTEX
  8
friedChicken
 10
18.403843
 20
162.672893
 30
-32.029711
 70
   192
  0
VERTEX
  8
friedChicken
 10
25.581566
 20
140.918514
 30
-44.308943
 70
   192
  0
VERTEX
  8
friedChicken
 10
25.375858
 20
111.231890
 30
-43.744070
 70
   192
  0
VERTEX
  8
friedChicken
 10
20.605983
 20
88.492982
 30
-35.322705
 70
   192
  0
VERTEX
  8
friedChicken
 10
11.154382
 20
74.093494
 30
-18.851012
 70
   192
  0
VERTEX
  8
friedChicken
 10
7.856675
 20
53.565305
 30
-12.995029
 70
   192
  0
VERTEX
  8
friedChicken
 10
3.482567
 20
173.821873
 30
-0.000000
 70
   192
  0
VERTEX
  8
friedChicken
 10
36.896055
 20
162.747907
 30
-0.000003
 70
   192
  0
VERTEX
  8
friedChicken
 10
51.163138
 20
141.022286
 30
-0.000004
 70
   192
  0
VERTEX
  8
friedChicken
 10
50.631303
 20
111.334340
 30
-0.000004
 70
   192
  0
VERTEX
  8
friedChicken
 10
40.999390
 20
88.575708
 30
-0.000003
 70
   192
  0
VERTEX
  8
friedChicken
 10
22.037930
 20
74.137644
 30
-0.000002
 70
   192
  0
VERTEX
  8
friedChicken
 10
15.359297
 20
53.595740
 30
-0.000001
 70
   192
  0
VERTEX
  8
friedChicken
 10
1.653393
 20
173.814453
 30
3.168249
 70
   192
  0
VERTEX
  8
friedChicken
 10
18.403847
 20
162.672893
 30
32.029708
 70
   192
  0
VERTEX
  8
friedChicken
 10
25.581572
 20
140.918514
 30
44.308940
 70
   192
  0
VERTEX
  8
friedChicken
 10
25.375864
 20
111.231890
 30
43.744066
 70
   192
  0
VERTEX
  8
friedChicken
 10
20.605988
 20
88.492982
 30
35.322702
 70
   192
  0
VERTEX
  8
friedChicken
 10
11.154384
 20
74.093494
 30
18.851011
 70
   192
  0
VERTEX
  8
friedChicken
 10
7.856676
 20
53.565305
 30
12.995028
 70
   192
  0
VERTEX
  8
friedChicken
 10
0.0
 20
0.0
 30
0.0
 70
   128
 71
   10
 72
   9
 73
   1
  0
VERTEX
  8
friedChicken
 10
0.0
 20
0.0
 30
0.0
 70
   128
 71
   9
 72
   3
 73
   1
  0
VERTEX
  8
friedChicken
 10
0.0
 20
0.0
 30
0.0
 70
   128
 71
   9
 72
   4
 73
   3
  0
VERTEX
  8
friedChicken
 10
0.0
 20
0.0
 30
0.0
 70
   128
 71
   9
 72
   5
 73
   4
  0
VERTEX
  8
friedChicken
 10
0.0
 20
0.0
 30
0.0
 70
   128
 71
   9
 72
   10
 73
   5
  0
VERTEX
  8
friedChicken
 10
0.0
 20
0.0
 30
0.0
 70
   128
 71
   5
 72
   10
 73
   7
  0
VERTEX
  8
friedChicken
 10
0.0
 20
0.0
 30
0.0
 70
   128
 71
   7
 72
   10
 73
   8
  0
VERTEX
  8
friedChicken
 10
0.0
 20
0.0
 30
0.0
 70
   128
 71
   10
 72
   1
 73
   8
  0
VERTEX
  8
friedChicken
 10
0.0
 20
0.0
 30
0.0
 70
   128
 71
   29
 72
   24
 73
   28
  0
VERTEX
  8
friedChicken
 10
0.0
 20
0.0
 30
0.0
 70
   128
 71
   77
 72
   78
 73
   43
  0
VERTEX
  8
friedChicken
 10
0.0
 20
0.0
 30
0.0
 70
   128
 71
   11
 72
   25
 73
   26
  0
VERTEX
  8
friedChicken
 10
0.0
 20
0.0
 30
0.0
 70
   128
 71
   11
 72
   26
 73
   12
  0
VERTEX
  8
friedChicken
 10
0.0
 20
0.0
 30
0.0
 70
   128
 71
   27
 72
   28
 73
   3
  0
VERTEX
  8
friedChicken
 10
0.0
 20
0.0
 30
0.0
 70
   128
 71
   12
 72
   26
 73
   27
  0
VERTEX
  8
friedChicken
 10
0.0
 20
0.0
 30
0.0
 70
   128
 71
   43
 72
   78
 73
   40
  0
VERTEX
  8
friedChicken
 10
0.0
 20
0.0
 30
0.0
 70
   128
 71
   22
 72
   33
 73
   35
  0
VERTEX
  8
friedChicken
 10
0.0
 20
0.0
 30
0.0
 70
   128
 71
   65
 72
   72
 73
   37
  0
VERTEX
  8
friedChicken
 10
0.0
 20
0.0
 30
0.0
 70
   128
 71
   14
 72
   13
 73
   23
  0
VERTEX
  8
friedChicken
 10
0.0
 20
0.0
 30
0.0
 70
   128
 71
   3
 72
   4
 73
   12
  0
VERTEX
  8
friedChicken
 10
0.0
 20
0.0
 30
0.0
 70
   128
 71
   4
 72
   6
 73
   12
  0
VERTEX
  8
friedChicken
 10
0.0
 20
0.0
 30
0.0
 70
   128
 71
   6
 72
   11
 73
   12
  0
VERTEX
  8
friedChicken
 10
0.0
 20
0.0
 30
0.0
 70
   128
 71
   6
 72
   7
 73
   11
  0
VERTEX
  8
friedChicken
 10
0.0
 20
0.0
 30
0.0
 70
   128
 71
   7
 72
   8
 73
   11
  0
VERTEX
  8
friedChicken
 10
0.0
 20
0.0
 30
0.0
 70
   128
 71
   8
 72
   2
 73
   11
  0
VERTEX
  8
friedChicken
 10
0.0
 20
0.0
 30
0.0
 70
   128
 71
   2
 72
   8
 73
   1
  0
VERTEX
  8
friedChicken
 10
0.0
 20
0.0
 30
0.0
 70
   128
 71
   17
 72
   16
 73
   18
  0
VERTEX
  8
friedChicken
 10
0.0
 20
0.0
 30
0.0
 70
   128
 71
   5
 72
   6
 73
   4
  0
VERTEX
  8
friedChicken
 10
0.0
 20
0.0
 30
0.0
 70
   128
 71
   5
 72
   7
 73
   6
  0
VERTEX
  8
friedChicken
 10
0.0
 20
0.0
 30
0.0
 70
   128
 71
   15
 72
   1
 73
   21
  0
VERTEX
  8
friedChicken
 10
0.0
 20
0.0
 30
0.0
 70
   128
 71
   21
 72
   1
 73
   3
  0
VERTEX
  8
friedChicken
 10
0.0
 20
0.0
 30
0.0
 70
   128
 71
   21
 72
   3
 73
   16
  0
VERTEX
  8
friedChicken
 10
0.0
 20
0.0
 30
0.0
 70
   128
 71
   21
 72
   16
 73
   17
  0
VERTEX
  8
friedChicken
 10
0.0
 20
0.0
 30
0.0
 70
   128
 71
   21
 72
   17
 73
   15
  0
VERTEX
  8
friedChicken
 10
0.0
 20
0.0
 30
0.0
 70
   128
 71
   17
 72
   19
 73
   15
  0
VERTEX
  8
friedChicken
 10
0.0
 20
0.0
 30
0.0
 70
   128
 71
   19
 72
   20
 73
   15
  0
VERTEX
  8
friedChicken
 10
0.0
 20
0.0
 30
0.0
 70
   128
 71
   15
 72
   20
 73
   1
  0
VERTEX
  8
friedChicken
 10
0.0
 20
0.0
 30
0.0
 70
   128
 71
   22
 72
   2
 73
   14
  0
VERTEX
  8
friedChicken
 10
0.0
 20
0.0
 30
0.0
 70
   128
 71
   23
 72
   31
 73
   33
  0
VERTEX
  8
friedChicken
 10
0.0
 20
0.0
 30
0.0
 70
   128
 71
   24
 72
   23
 73
   13
  0
VERTEX
  8
friedChicken
 10
0.0
 20
0.0
 30
0.0
 70
   128
 71
   13
 72
   3
 73
   28
  0
VERTEX
  8
friedChicken
 10
0.0
 20
0.0
 30
0.0
 70
   128
 71
   17
 72
   18
 73
   19
  0
VERTEX
  8
friedChicken
 10
0.0
 20
0.0
 30
0.0
 70
   128
 71
   3
 72
   13
 73
   16
  0
VERTEX
  8
friedChicken
 10
0.0
 20
0.0
 30
0.0
 70
   128
 71
   16
 72
   13
 73
   18
  0
VERTEX
  8
friedChicken
 10
0.0
 20
0.0
 30
0.0
 70
   128
 71
   18
 72
   13
 73
   14
  0
VERTEX
  8
friedChicken
 10
0.0
 20
0.0
 30
0.0
 70
   128
 71
   18
 72
   14
 73
   19
  0
VERTEX
  8
friedChicken
 10
0.0
 20
0.0
 30
0.0
 70
   128
 71
   19
 72
   14
 73
   20
  0
VERTEX
  8
friedChicken
 10
0.0
 20
0.0
 30
0.0
 70
   128
 71
   20
 72
   14
 73
   2
  0
VERTEX
  8
friedChicken
 10
0.0
 20
0.0
 30
0.0
 70
   128
 71
   2
 72
   1
 73
   20
  0
VERTEX
  8
friedChicken
 10
0.0
 20
0.0
 30
0.0
 70
   128
 71
   73
 72
   74
 73
   32
  0
VERTEX
  8
friedChicken
 10
0.0
 20
0.0
 30
0.0
 70
   128
 71
   27
 72
   38
 73
   36
  0
VERTEX
  8
friedChicken
 10
0.0
 20
0.0
 30
0.0
 70
   128
 71
   75
 72
   76
 73
   41
  0
VERTEX
  8
friedChicken
 10
0.0
 20
0.0
 30
0.0
 70
   128
 71
   26
 72
   30
 73
   38
  0
VERTEX
  8
friedChicken
 10
0.0
 20
0.0
 30
0.0
 70
   128
 71
   24
 72
   29
 73
   31
  0
VERTEX
  8
friedChicken
 10
0.0
 20
0.0
 30
0.0
 70
   128
 71
   25
 72
   40
 73
   30
  0
VERTEX
  8
friedChicken
 10
0.0
 20
0.0
 30
0.0
 70
   128
 71
   25
 72
   2
 73
   35
  0
VERTEX
  8
friedChicken
 10
0.0
 20
0.0
 30
0.0
 70
   128
 71
   42
 72
   32
 73
   46
  0
VERTEX
  8
friedChicken
 10
0.0
 20
0.0
 30
0.0
 70
   128
 71
   32
 72
   39
 73
   47
  0
VERTEX
  8
friedChicken
 10
0.0
 20
0.0
 30
0.0
 70
   128
 71
   23
 72
   22
 73
   14
  0
VERTEX
  8
friedChicken
 10
0.0
 20
0.0
 30
0.0
 70
   128
 71
   11
 72
   2
 73
   25
  0
VERTEX
  8
friedChicken
 10
0.0
 20
0.0
 30
0.0
 70
   128
 71
   44
 72
   45
 73
   52
  0
VERTEX
  8
friedChicken
 10
0.0
 20
0.0
 30
0.0
 70
   128
 71
   45
 72
   46
 73
   53
  0
VERTEX
  8
friedChicken
 10
0.0
 20
0.0
 30
0.0
 70
   128
 71
   46
 72
   47
 73
   54
  0
VERTEX
  8
friedChicken
 10
0.0
 20
0.0
 30
0.0
 70
   128
 71
   47
 72
   48
 73
   55
  0
VERTEX
  8
friedChicken
 10
0.0
 20
0.0
 30
0.0
 70
   128
 71
   48
 72
   49
 73
   56
  0
VERTEX
  8
friedChicken
 10
0.0
 20
0.0
 30
0.0
 70
   128
 71
   49
 72
   50
 73
   57
  0
VERTEX
  8
friedChicken
 10
0.0
 20
0.0
 30
0.0
 70
   128
 71
   37
 72
   42
 73
   45
  0
VERTEX
  8
friedChicken
 10
0.0
 20
0.0
 30
0.0
 70
   128
 71
   29
 72
   57
 73
   50
  0
VERTEX
  8
friedChicken
 10
0.0
 20
0.0
 30
0.0
 70
   128
 71
   39
 72
   41
 73
   48
  0
VERTEX
  8
friedChicken
 10
0.0
 20
0.0
 30
0.0
 70
   128
 71
   51
 72
   52
 73
   59
  0
VERTEX
  8
friedChicken
 10
0.0
 20
0.0
 30
0.0
 70
   128
 71
   52
 72
   53
 73
   60
  0
VERTEX
  8
friedChicken
 10
0.0
 20
0.0
 30
0.0
 70
   128
 71
   53
 72
   54
 73
   61
  0
VERTEX
  8
friedChicken
 10
0.0
 20
0.0
 30
0.0
 70
   128
 71
   54
 72
   55
 73
   62
  0
VERTEX
  8
friedChicken
 10
0.0
 20
0.0
 30
0.0
 70
   128
 71
   55
 72
   56
 73
   63
  0
VERTEX
  8
friedChicken
 10
0.0
 20
0.0
 30
0.0
 70
   128
 71
   56
 72
   57
 73
   64
  0
VERTEX
  8
friedChicken
 10
0.0
 20
0.0
 30
0.0
 70
   128
 71
   36
 72
   38
 73
   64
  0
VERTEX
  8
friedChicken
 10
0.0
 20
0.0
 30
0.0
 70
   128
 71
   57
 72
   29
 73
   36
  0
VERTEX
  8
friedChicken
 10
0.0
 20
0.0
 30
0.0
 70
   128
 71
   74
 72
   75
 73
   39
  0
VERTEX
  8
friedChicken
 10
0.0
 20
0.0
 30
0.0
 70
   128
 71
   41
 72
   34
 73
   49
  0
VERTEX
  8
friedChicken
 10
0.0
 20
0.0
 30
0.0
 70
   128
 71
   58
 72
   59
 73
   66
  0
VERTEX
  8
friedChicken
 10
0.0
 20
0.0
 30
0.0
 70
   128
 71
   59
 72
   60
 73
   67
  0
VERTEX
  8
friedChicken
 10
0.0
 20
0.0
 30
0.0
 70
   128
 71
   60
 72
   61
 73
   68
  0
VERTEX
  8
friedChicken
 10
0.0
 20
0.0
 30
0.0
 70
   128
 71
   61
 72
   62
 73
   69
  0
VERTEX
  8
friedChicken
 10
0.0
 20
0.0
 30
0.0
 70
   128
 71
   62
 72
   63
 73
   70
  0
VERTEX
  8
friedChicken
 10
0.0
 20
0.0
 30
0.0
 70
   128
 71
   63
 72
   64
 73
   71
  0
VERTEX
  8
friedChicken
 10
0.0
 20
0.0
 30
0.0
 70
   128
 71
   64
 72
   38
 73
   30
  0
VERTEX
  8
friedChicken
 10
0.0
 20
0.0
 30
0.0
 70
   128
 71
   76
 72
   77
 73
   34
  0
VERTEX
  8
friedChicken
 10
0.0
 20
0.0
 30
0.0
 70
   128
 71
   34
 72
   43
 73
   50
  0
VERTEX
  8
friedChicken
 10
0.0
 20
0.0
 30
0.0
 70
   128
 71
   65
 72
   66
 73
   73
  0
VERTEX
  8
friedChicken
 10
0.0
 20
0.0
 30
0.0
 70
   128
 71
   66
 72
   67
 73
   74
  0
VERTEX
  8
friedChicken
 10
0.0
 20
0.0
 30
0.0
 70
   128
 71
   67
 72
   68
 73
   75
  0
VERTEX
  8
friedChicken
 10
0.0
 20
0.0
 30
0.0
 70
   128
 71
   68
 72
   69
 73
   76
  0
VERTEX
  8
friedChicken
 10
0.0
 20
0.0
 30
0.0
 70
   128
 71
   69
 72
   70
 73
   77
  0
VERTEX
  8
friedChicken
 10
0.0
 20
0.0
 30
0.0
 70
   128
 71
   70
 72
   71
 73
   78
  0
VERTEX
  8
friedChicken
 10
0.0
 20
0.0
 30
0.0
 70
   128
 71
   44
 72
   51
 73
   58
  0
VERTEX
  8
friedChicken
 10
0.0
 20
0.0
 30
0.0
 70
   128
 71
   40
 72
   78
 73
   71
  0
VERTEX
  8
friedChicken
 10
0.0
 20
0.0
 30
0.0
 70
   128
 71
   43
 72
   35
 73
   33
  0
VERTEX
  8
friedChicken
 10
0.0
 20
0.0
 30
0.0
 70
   128
 71
   33
 72
   31
 73
   50
  0
VERTEX
  8
friedChicken
 10
0.0
 20
0.0
 30
0.0
 70
   128
 71
   72
 72
   73
 73
   42
  0
VERTEX
  8
friedChicken
 10
0.0
 20
0.0
 30
0.0
 70
   128
 71
   27
 72
   36
 73
   28
  0
VERTEX
  8
friedChicken
 10
0.0
 20
0.0
 30
0.0
 70
   128
 71
   22
 72
   35
 73
   2
  0
VERTEX
  8
friedChicken
 10
0.0
 20
0.0
 30
0.0
 70
   128
 71
   25
 72
   35
 73
   40
  0
VERTEX
  8
friedChicken
 10
0.0
 20
0.0
 30
0.0
 70
   128
 71
   29
 72
   28
 73
   36
  0
VERTEX
  8
friedChicken
 10
0.0
 20
0.0
 30
0.0
 70
   128
 71
   77
 72
   43
 73
   34
  0
VERTEX
  8
friedChicken
 10
0.0
 20
0.0
 30
0.0
 70
   128
 71
   27
 72
   3
 73
   12
  0
VERTEX
  8
friedChicken
 10
0.0
 20
0.0
 30
0.0
 70
   128
 71
   43
 72
   40
 73
   35
  0
VERTEX
  8
friedChicken
 10
0.0
 20
0.0
 30
0.0
 70
   128
 71
   65
 72
   37
 73
   44
  0
VERTEX
  8
friedChicken
 10
0.0
 20
0.0
 30
0.0
 70
   128
 71
   23
 72
   33
 73
   22
  0
VERTEX
  8
friedChicken
 10
0.0
 20
0.0
 30
0.0
 70
   128
 71
   13
 72
   28
 73
   24
  0
VERTEX
  8
friedChicken
 10
0.0
 20
0.0
 30
0.0
 70
   128
 71
   73
 72
   32
 73
   42
  0
VERTEX
  8
friedChicken
 10
0.0
 20
0.0
 30
0.0
 70
   128
 71
   75
 72
   41
 73
   39
  0
VERTEX
  8
friedChicken
 10
0.0
 20
0.0
 30
0.0
 70
   128
 71
   26
 72
   38
 73
   27
  0
VERTEX
  8
friedChicken
 10
0.0
 20
0.0
 30
0.0
 70
   128
 71
   24
 72
   31
 73
   23
  0
VERTEX
  8
friedChicken
 10
0.0
 20
0.0
 30
0.0
 70
   128
 71
   25
 72
   30
 73
   26
  0
VERTEX
  8
friedChicken
 10
0.0
 20
0.0
 30
0.0
 70
   128
 71
   42
 72
   46
 73
   45
  0
VERTEX
  8
friedChicken
 10
0.0
 20
0.0
 30
0.0
 70
   128
 71
   32
 72
   47
 73
   46
  0
VERTEX
  8
friedChicken
 10
0.0
 20
0.0
 30
0.0
 70
   128
 71
   44
 72
   52
 73
   51
  0
VERTEX
  8
friedChicken
 10
0.0
 20
0.0
 30
0.0
 70
   128
 71
   45
 72
   53
 73
   52
  0
VERTEX
  8
friedChicken
 10
0.0
 20
0.0
 30
0.0
 70
   128
 71
   46
 72
   54
 73
   53
  0
VERTEX
  8
friedChicken
 10
0.0
 20
0.0
 30
0.0
 70
   128
 71
   47
 72
   55
 73
   54
  0
VERTEX
  8
friedChicken
 10
0.0
 20
0.0
 30
0.0
 70
   128
 71
   48
 72
   56
 73
   55
  0
VERTEX
  8
friedChicken
 10
0.0
 20
0.0
 30
0.0
 70
   128
 71
   49
 72
   57
 73
   56
  0
VERTEX
  8
friedChicken
 10
0.0
 20
0.0
 30
0.0
 70
   128
 71
   37
 72
   45
 73
   44
  0
VERTEX
  8
friedChicken
 10
0.0
 20
0.0
 30
0.0
 70
   128
 71
   29
 72
   50
 73
   31
  0
VERTEX
  8
friedChicken
 10
0.0
 20
0.0
 30
0.0
 70
   128
 71
   39
 72
   48
 73
   47
  0
VERTEX
  8
friedChicken
 10
0.0
 20
0.0
 30
0.0
 70
   128
 71
   51
 72
   59
 73
   58
  0
VERTEX
  8
friedChicken
 10
0.0
 20
0.0
 30
0.0
 70
   128
 71
   52
 72
   60
 73
   59
  0
VERTEX
  8
friedChicken
 10
0.0
 20
0.0
 30
0.0
 70
   128
 71
   53
 72
   61
 73
   60
  0
VERTEX
  8
friedChicken
 10
0.0
 20
0.0
 30
0.0
 70
   128
 71
   54
 72
   62
 73
   61
  0
VERTEX
  8
friedChicken
 10
0.0
 20
0.0
 30
0.0
 70
   128
 71
   55
 72
   63
 73
   62
  0
VERTEX
  8
friedChicken
 10
0.0
 20
0.0
 30
0.0
 70
   128
 71
   56
 72
   64
 73
   63
  0
VERTEX
  8
friedChicken
 10
0.0
 20
0.0
 30
0.0
 70
   128
 71
   36
 72
   64
 73
   57
  0
VERTEX
  8
friedChicken
 10
0.0
 20
0.0
 30
0.0
 70
   128
 71
   74
 72
   39
 73
   32
  0
VERTEX
  8
friedChicken
 10
0.0
 20
0.0
 30
0.0
 70
   128
 71
   41
 72
   49
 73
   48
  0
VERTEX
  8
friedChicken
 10
0.0
 20
0.0
 30
0.0
 70
   128
 71
   58
 72
   66
 73
   65
  0
VERTEX
  8
friedChicken
 10
0.0
 20
0.0
 30
0.0
 70
   128
 71
   59
 72
   67
 73
   66
  0
VERTEX
  8
friedChicken
 10
0.0
 20
0.0
 30
0.0
 70
   128
 71
   60
 72
   68
 73
   67
  0
VERTEX
  8
friedChicken
 10
0.0
 20
0.0
 30
0.0
 70
   128
 71
   61
 72
   69
 73
   68
  0
VERTEX
  8
friedChicken
 10
0.0
 20
0.0
 30
0.0
 70
   128
 71
   62
 72
   70
 73
   69
  0
VERTEX
  8
friedChicken
 10
0.0
 20
0.0
 30
0.0
 70
   128
 71
   63
 72
   71
 73
   70
  0
VERTEX
  8
friedChicken
 10
0.0
 20
0.0
 30
0.0
 70
   128
 71
   64
 72
   30
 73
   71
  0
VERTEX
  8
friedChicken
 10
0.0
 20
0.0
 30
0.0
 70
   128
 71
   76
 72
   34
 73
   41
  0
VERTEX
  8
friedChicken
 10
0.0
 20
0.0
 30
0.0
 70
   128
 71
   34
 72
   50
 73
   49
  0
VERTEX
  8
friedChicken
 10
0.0
 20
0.0
 30
0.0
 70
   128
 71
   65
 72
   73
 73
   72
  0
VERTEX
  8
friedChicken
 10
0.0
 20
0.0
 30
0.0
 70
   128
 71
   66
 72
   74
 73
   73
  0
VERTEX
  8
friedChicken
 10
0.0
 20
0.0
 30
0.0
 70
   128
 71
   67
 72
   75
 73
   74
  0
VERTEX
  8
friedChicken
 10
0.0
 20
0.0
 30
0.0
 70
   128
 71
   68
 72
   76
 73
   75
  0
VERTEX
  8
friedChicken
 10
0.0
 20
0.0
 30
0.0
 70
   128
 71
   69
 72
   77
 73
   76
  0
VERTEX
  8
friedChicken
 10
0.0
 20
0.0
 30
0.0
 70
   128
 71
   70
 72
   78
 73
   77
  0
VERTEX
  8
friedChicken
 10
0.0
 20
0.0
 30
0.0
 70
   128
 71
   44
 72
   58
 73
   65
  0
VERTEX
  8
friedChicken
 10
0.0
 20
0.0
 30
0.0
 70
   128
 71
   40
 72
   71
 73
   30
  0
VERTEX
  8
friedChicken
 10
0.0
 20
0.0
 30
0.0
 70
   128
 71
   33
 72
   50
 73
   43
  0
VERTEX
  8
friedChicken
 10
0.0
 20
0.0
 30
0.0
 70
   128
 71
   72
 72
   42
 73
   37
  0
SEQEND
  0
ENDSEC
  0
EOF
