999
FBX AutoCAD (*.DXF) exporter
  0
SECTION
  2
HEADER
  9
$ACADVER
  1
AC1008
  9
$UCSORG
 10
0.0
 20
0.0
 30
0.0
  9
$UCSXDIR
 10
1.0
 20
0.0
 30
0.0
  9
$TILEMODE
 70
   1
  9
$UCSYDIR
 10
0.0
 20
1.0
 30
0.0
  0
ENDSEC
  0
SECTION
  2
TABLES
  0
TABLE
  2
LTYPE
 70
   1
  0
LTYPE
  2
CONTINUOUS
 70
   64
  3
Solid line
 72
   65
 73
   0
 40
0.0
  0
ENDTAB
  0
TABLE
  2
LAYER
 70
   1
  0
LAYER
  2
chocolateBar
 70
   0
 62
   250
  6
CONTINUOUS
  0
ENDTAB
  0
ENDSEC
  0
SECTION
  2
BLOCKS
  0
ENDSEC
  0
SECTION
  2
ENTITIES
  0
POLYLINE
  8
chocolateBar
 66
   1
 10
0.0
 20
0.0
 30
0.0
 70
   64
 71
   64
 72
   124
  0
VERTEX
  8
chocolateBar
 10
-66.961987
 20
0.000000
 30
99.803680
 70
   192
  0
VERTEX
  8
chocolateBar
 10
-67.330234
 20
34.709268
 30
99.805189
 70
   192
  0
VERTEX
  8
chocolateBar
 10
65.679123
 20
0.000000
 30
99.930186
 70
   192
  0
VERTEX
  8
chocolateBar
 10
65.310876
 20
34.709268
 30
99.931695
 70
   192
  0
VERTEX
  8
chocolateBar
 10
65.869760
 20
0.000000
 30
-100.069723
 70
   192
  0
VERTEX
  8
chocolateBar
 10
65.501512
 20
34.709268
 30
-100.068213
 70
   192
  0
VERTEX
  8
chocolateBar
 10
-66.771350
 20
0.000000
 30
-100.196229
 70
   192
  0
VERTEX
  8
chocolateBar
 10
-67.139597
 20
34.709268
 30
-100.194720
 70
   192
  0
VERTEX
  8
chocolateBar
 10
58.529733
 20
58.766898
 30
26.056484
 70
   192
  0
VERTEX
  8
chocolateBar
 10
-1.009679
 20
34.709268
 30
99.868442
 70
   192
  0
VERTEX
  8
chocolateBar
 10
58.579547
 20
58.766898
 30
-26.203492
 70
   192
  0
VERTEX
  8
chocolateBar
 10
-0.819043
 20
34.709268
 30
-100.131467
 70
   192
  0
VERTEX
  8
chocolateBar
 10
5.401809
 20
58.766898
 30
26.005813
 70
   192
  0
VERTEX
  8
chocolateBar
 10
-67.266688
 20
34.709268
 30
33.138553
 70
   192
  0
VERTEX
  8
chocolateBar
 10
-60.855201
 20
58.766898
 30
-40.724076
 70
   192
  0
VERTEX
  8
chocolateBar
 10
65.374421
 20
34.709268
 30
33.265059
 70
   192
  0
VERTEX
  8
chocolateBar
 10
5.451622
 20
58.766898
 30
-26.254163
 70
   192
  0
VERTEX
  8
chocolateBar
 10
-0.946133
 20
34.709268
 30
33.201806
 70
   192
  0
VERTEX
  8
chocolateBar
 10
-60.805387
 20
58.766898
 30
-92.984053
 70
   192
  0
VERTEX
  8
chocolateBar
 10
65.437967
 20
34.709268
 30
-33.401577
 70
   192
  0
VERTEX
  8
chocolateBar
 10
-7.727276
 20
58.766898
 30
-40.673406
 70
   192
  0
VERTEX
  8
chocolateBar
 10
-67.203143
 20
34.709268
 30
-33.528084
 70
   192
  0
VERTEX
  8
chocolateBar
 10
-7.677463
 20
58.766898
 30
-92.933382
 70
   192
  0
VERTEX
  8
chocolateBar
 10
-0.882588
 20
34.709268
 30
-33.464830
 70
   192
  0
VERTEX
  8
chocolateBar
 10
2.821623
 20
34.709268
 30
-95.827993
 70
   192
  0
VERTEX
  8
chocolateBar
 10
61.852650
 20
34.709268
 30
-95.771692
 70
   192
  0
VERTEX
  8
chocolateBar
 10
61.797302
 20
34.709268
 30
-37.705051
 70
   192
  0
VERTEX
  8
chocolateBar
 10
2.766274
 20
34.709268
 30
-37.761352
 70
   192
  0
VERTEX
  8
chocolateBar
 10
-4.650344
 20
34.709268
 30
95.564968
 70
   192
  0
VERTEX
  8
chocolateBar
 10
-63.681371
 20
34.709268
 30
95.508667
 70
   192
  0
VERTEX
  8
chocolateBar
 10
-63.626023
 20
34.709268
 30
37.442027
 70
   192
  0
VERTEX
  8
chocolateBar
 10
-4.594996
 20
34.709268
 30
37.498328
 70
   192
  0
VERTEX
  8
chocolateBar
 10
61.725559
 20
34.709268
 30
37.561581
 70
   192
  0
VERTEX
  8
chocolateBar
 10
61.670211
 20
34.709268
 30
95.628221
 70
   192
  0
VERTEX
  8
chocolateBar
 10
2.639184
 20
34.709268
 30
95.571920
 70
   192
  0
VERTEX
  8
chocolateBar
 10
2.694532
 20
34.709268
 30
37.505280
 70
   192
  0
VERTEX
  8
chocolateBar
 10
-63.617826
 20
34.709268
 30
28.842031
 70
   192
  0
VERTEX
  8
chocolateBar
 10
-63.562478
 20
34.709268
 30
-29.224610
 70
   192
  0
VERTEX
  8
chocolateBar
 10
-4.531451
 20
34.709268
 30
-29.168309
 70
   192
  0
VERTEX
  8
chocolateBar
 10
-4.586799
 20
34.709268
 30
28.898332
 70
   192
  0
VERTEX
  8
chocolateBar
 10
61.789104
 20
34.709268
 30
-29.105055
 70
   192
  0
VERTEX
  8
chocolateBar
 10
61.733756
 20
34.709268
 30
28.961585
 70
   192
  0
VERTEX
  8
chocolateBar
 10
2.702729
 20
34.709268
 30
28.905284
 70
   192
  0
VERTEX
  8
chocolateBar
 10
2.758077
 20
34.709268
 30
-29.161356
 70
   192
  0
VERTEX
  8
chocolateBar
 10
-63.554280
 20
34.709268
 30
-37.824606
 70
   192
  0
VERTEX
  8
chocolateBar
 10
-63.498932
 20
34.709268
 30
-95.891246
 70
   192
  0
VERTEX
  8
chocolateBar
 10
-4.467905
 20
34.709268
 30
-95.834945
 70
   192
  0
VERTEX
  8
chocolateBar
 10
-4.523253
 20
34.709268
 30
-37.768305
 70
   192
  0
VERTEX
  8
chocolateBar
 10
5.515168
 20
58.766898
 30
-92.920799
 70
   192
  0
VERTEX
  8
chocolateBar
 10
58.643092
 20
58.766898
 30
-92.870129
 70
   192
  0
VERTEX
  8
chocolateBar
 10
58.593279
 20
58.766898
 30
-40.610152
 70
   192
  0
VERTEX
  8
chocolateBar
 10
5.465354
 20
58.766898
 30
-40.660823
 70
   192
  0
VERTEX
  8
chocolateBar
 10
-7.854367
 20
58.766898
 30
92.659867
 70
   192
  0
VERTEX
  8
chocolateBar
 10
-60.982291
 20
58.766898
 30
92.609196
 70
   192
  0
VERTEX
  8
chocolateBar
 10
-60.932478
 20
58.766898
 30
40.349220
 70
   192
  0
VERTEX
  8
chocolateBar
 10
-7.804554
 20
58.766898
 30
40.399891
 70
   192
  0
VERTEX
  8
chocolateBar
 10
58.516001
 20
58.766898
 30
40.463144
 70
   192
  0
VERTEX
  8
chocolateBar
 10
58.466188
 20
58.766898
 30
92.723120
 70
   192
  0
VERTEX
  8
chocolateBar
 10
5.338263
 20
58.766898
 30
92.672449
 70
   192
  0
VERTEX
  8
chocolateBar
 10
5.388077
 20
58.766898
 30
40.412473
 70
   192
  0
VERTEX
  8
chocolateBar
 10
-60.918746
 20
58.766898
 30
25.942560
 70
   192
  0
VERTEX
  8
chocolateBar
 10
-60.868933
 20
58.766898
 30
-26.317416
 70
   192
  0
VERTEX
  8
chocolateBar
 10
-7.741008
 20
58.766898
 30
-26.266746
 70
   192
  0
VERTEX
  8
chocolateBar
 10
-7.790821
 20
58.766898
 30
25.993231
 70
   192
  0
VERTEX
  8
chocolateBar
 10
0.0
 20
0.0
 30
0.0
 70
   128
 71
   10
 72
   4
 73
   3
  0
VERTEX
  8
chocolateBar
 10
0.0
 20
0.0
 30
0.0
 70
   128
 71
   20
 72
   6
 73
   5
  0
VERTEX
  8
chocolateBar
 10
0.0
 20
0.0
 30
0.0
 70
   128
 71
   12
 72
   8
 73
   7
  0
VERTEX
  8
chocolateBar
 10
0.0
 20
0.0
 30
0.0
 70
   128
 71
   14
 72
   2
 73
   1
  0
VERTEX
  8
chocolateBar
 10
0.0
 20
0.0
 30
0.0
 70
   128
 71
   49
 72
   50
 73
   51
  0
VERTEX
  8
chocolateBar
 10
0.0
 20
0.0
 30
0.0
 70
   128
 71
   44
 72
   17
 73
   13
  0
VERTEX
  8
chocolateBar
 10
0.0
 20
0.0
 30
0.0
 70
   128
 71
   1
 72
   2
 73
   10
  0
VERTEX
  8
chocolateBar
 10
0.0
 20
0.0
 30
0.0
 70
   128
 71
   7
 72
   5
 73
   6
  0
VERTEX
  8
chocolateBar
 10
0.0
 20
0.0
 30
0.0
 70
   128
 71
   53
 72
   54
 73
   55
  0
VERTEX
  8
chocolateBar
 10
0.0
 20
0.0
 30
0.0
 70
   128
 71
   3
 72
   5
 73
   7
  0
VERTEX
  8
chocolateBar
 10
0.0
 20
0.0
 30
0.0
 70
   128
 71
   3
 72
   4
 73
   16
  0
VERTEX
  8
chocolateBar
 10
0.0
 20
0.0
 30
0.0
 70
   128
 71
   1
 72
   7
 73
   22
  0
VERTEX
  8
chocolateBar
 10
0.0
 20
0.0
 30
0.0
 70
   128
 71
   57
 72
   58
 73
   59
  0
VERTEX
  8
chocolateBar
 10
0.0
 20
0.0
 30
0.0
 70
   128
 71
   45
 72
   15
 73
   21
  0
VERTEX
  8
chocolateBar
 10
0.0
 20
0.0
 30
0.0
 70
   128
 71
   61
 72
   62
 73
   63
  0
VERTEX
  8
chocolateBar
 10
0.0
 20
0.0
 30
0.0
 70
   128
 71
   46
 72
   19
 73
   15
  0
VERTEX
  8
chocolateBar
 10
0.0
 20
0.0
 30
0.0
 70
   128
 71
   5
 72
   3
 73
   16
  0
VERTEX
  8
chocolateBar
 10
0.0
 20
0.0
 30
0.0
 70
   128
 71
   11
 72
   9
 73
   13
  0
VERTEX
  8
chocolateBar
 10
0.0
 20
0.0
 30
0.0
 70
   128
 71
   48
 72
   21
 73
   23
  0
VERTEX
  8
chocolateBar
 10
0.0
 20
0.0
 30
0.0
 70
   128
 71
   47
 72
   23
 73
   19
  0
VERTEX
  8
chocolateBar
 10
0.0
 20
0.0
 30
0.0
 70
   128
 71
   7
 72
   8
 73
   22
  0
VERTEX
  8
chocolateBar
 10
0.0
 20
0.0
 30
0.0
 70
   128
 71
   15
 72
   19
 73
   23
  0
VERTEX
  8
chocolateBar
 10
0.0
 20
0.0
 30
0.0
 70
   128
 71
   12
 72
   25
 73
   28
  0
VERTEX
  8
chocolateBar
 10
0.0
 20
0.0
 30
0.0
 70
   128
 71
   6
 72
   26
 73
   25
  0
VERTEX
  8
chocolateBar
 10
0.0
 20
0.0
 30
0.0
 70
   128
 71
   20
 72
   27
 73
   26
  0
VERTEX
  8
chocolateBar
 10
0.0
 20
0.0
 30
0.0
 70
   128
 71
   24
 72
   28
 73
   27
  0
VERTEX
  8
chocolateBar
 10
0.0
 20
0.0
 30
0.0
 70
   128
 71
   10
 72
   29
 73
   32
  0
VERTEX
  8
chocolateBar
 10
0.0
 20
0.0
 30
0.0
 70
   128
 71
   2
 72
   30
 73
   29
  0
VERTEX
  8
chocolateBar
 10
0.0
 20
0.0
 30
0.0
 70
   128
 71
   14
 72
   31
 73
   30
  0
VERTEX
  8
chocolateBar
 10
0.0
 20
0.0
 30
0.0
 70
   128
 71
   18
 72
   32
 73
   31
  0
VERTEX
  8
chocolateBar
 10
0.0
 20
0.0
 30
0.0
 70
   128
 71
   16
 72
   33
 73
   36
  0
VERTEX
  8
chocolateBar
 10
0.0
 20
0.0
 30
0.0
 70
   128
 71
   4
 72
   34
 73
   33
  0
VERTEX
  8
chocolateBar
 10
0.0
 20
0.0
 30
0.0
 70
   128
 71
   10
 72
   35
 73
   34
  0
VERTEX
  8
chocolateBar
 10
0.0
 20
0.0
 30
0.0
 70
   128
 71
   18
 72
   36
 73
   35
  0
VERTEX
  8
chocolateBar
 10
0.0
 20
0.0
 30
0.0
 70
   128
 71
   14
 72
   37
 73
   40
  0
VERTEX
  8
chocolateBar
 10
0.0
 20
0.0
 30
0.0
 70
   128
 71
   22
 72
   38
 73
   37
  0
VERTEX
  8
chocolateBar
 10
0.0
 20
0.0
 30
0.0
 70
   128
 71
   24
 72
   39
 73
   38
  0
VERTEX
  8
chocolateBar
 10
0.0
 20
0.0
 30
0.0
 70
   128
 71
   18
 72
   40
 73
   39
  0
VERTEX
  8
chocolateBar
 10
0.0
 20
0.0
 30
0.0
 70
   128
 71
   20
 72
   41
 73
   44
  0
VERTEX
  8
chocolateBar
 10
0.0
 20
0.0
 30
0.0
 70
   128
 71
   16
 72
   42
 73
   41
  0
VERTEX
  8
chocolateBar
 10
0.0
 20
0.0
 30
0.0
 70
   128
 71
   18
 72
   43
 73
   42
  0
VERTEX
  8
chocolateBar
 10
0.0
 20
0.0
 30
0.0
 70
   128
 71
   24
 72
   44
 73
   43
  0
VERTEX
  8
chocolateBar
 10
0.0
 20
0.0
 30
0.0
 70
   128
 71
   22
 72
   45
 73
   48
  0
VERTEX
  8
chocolateBar
 10
0.0
 20
0.0
 30
0.0
 70
   128
 71
   8
 72
   46
 73
   45
  0
VERTEX
  8
chocolateBar
 10
0.0
 20
0.0
 30
0.0
 70
   128
 71
   12
 72
   47
 73
   46
  0
VERTEX
  8
chocolateBar
 10
0.0
 20
0.0
 30
0.0
 70
   128
 71
   24
 72
   48
 73
   47
  0
VERTEX
  8
chocolateBar
 10
0.0
 20
0.0
 30
0.0
 70
   128
 71
   25
 72
   49
 73
   52
  0
VERTEX
  8
chocolateBar
 10
0.0
 20
0.0
 30
0.0
 70
   128
 71
   26
 72
   50
 73
   49
  0
VERTEX
  8
chocolateBar
 10
0.0
 20
0.0
 30
0.0
 70
   128
 71
   27
 72
   51
 73
   50
  0
VERTEX
  8
chocolateBar
 10
0.0
 20
0.0
 30
0.0
 70
   128
 71
   28
 72
   52
 73
   51
  0
VERTEX
  8
chocolateBar
 10
0.0
 20
0.0
 30
0.0
 70
   128
 71
   29
 72
   53
 73
   56
  0
VERTEX
  8
chocolateBar
 10
0.0
 20
0.0
 30
0.0
 70
   128
 71
   30
 72
   54
 73
   53
  0
VERTEX
  8
chocolateBar
 10
0.0
 20
0.0
 30
0.0
 70
   128
 71
   31
 72
   55
 73
   54
  0
VERTEX
  8
chocolateBar
 10
0.0
 20
0.0
 30
0.0
 70
   128
 71
   32
 72
   56
 73
   55
  0
VERTEX
  8
chocolateBar
 10
0.0
 20
0.0
 30
0.0
 70
   128
 71
   33
 72
   57
 73
   60
  0
VERTEX
  8
chocolateBar
 10
0.0
 20
0.0
 30
0.0
 70
   128
 71
   34
 72
   58
 73
   57
  0
VERTEX
  8
chocolateBar
 10
0.0
 20
0.0
 30
0.0
 70
   128
 71
   35
 72
   59
 73
   58
  0
VERTEX
  8
chocolateBar
 10
0.0
 20
0.0
 30
0.0
 70
   128
 71
   36
 72
   60
 73
   59
  0
VERTEX
  8
chocolateBar
 10
0.0
 20
0.0
 30
0.0
 70
   128
 71
   37
 72
   61
 73
   64
  0
VERTEX
  8
chocolateBar
 10
0.0
 20
0.0
 30
0.0
 70
   128
 71
   38
 72
   62
 73
   61
  0
VERTEX
  8
chocolateBar
 10
0.0
 20
0.0
 30
0.0
 70
   128
 71
   39
 72
   63
 73
   62
  0
VERTEX
  8
chocolateBar
 10
0.0
 20
0.0
 30
0.0
 70
   128
 71
   40
 72
   64
 73
   63
  0
VERTEX
  8
chocolateBar
 10
0.0
 20
0.0
 30
0.0
 70
   128
 71
   41
 72
   11
 73
   17
  0
VERTEX
  8
chocolateBar
 10
0.0
 20
0.0
 30
0.0
 70
   128
 71
   42
 72
   9
 73
   11
  0
VERTEX
  8
chocolateBar
 10
0.0
 20
0.0
 30
0.0
 70
   128
 71
   43
 72
   13
 73
   9
  0
VERTEX
  8
chocolateBar
 10
0.0
 20
0.0
 30
0.0
 70
   128
 71
   10
 72
   3
 73
   1
  0
VERTEX
  8
chocolateBar
 10
0.0
 20
0.0
 30
0.0
 70
   128
 71
   49
 72
   51
 73
   52
  0
VERTEX
  8
chocolateBar
 10
0.0
 20
0.0
 30
0.0
 70
   128
 71
   44
 72
   13
 73
   43
  0
VERTEX
  8
chocolateBar
 10
0.0
 20
0.0
 30
0.0
 70
   128
 71
   7
 72
   6
 73
   12
  0
VERTEX
  8
chocolateBar
 10
0.0
 20
0.0
 30
0.0
 70
   128
 71
   53
 72
   55
 73
   56
  0
VERTEX
  8
chocolateBar
 10
0.0
 20
0.0
 30
0.0
 70
   128
 71
   3
 72
   7
 73
   1
  0
VERTEX
  8
chocolateBar
 10
0.0
 20
0.0
 30
0.0
 70
   128
 71
   1
 72
   22
 73
   14
  0
VERTEX
  8
chocolateBar
 10
0.0
 20
0.0
 30
0.0
 70
   128
 71
   57
 72
   59
 73
   60
  0
VERTEX
  8
chocolateBar
 10
0.0
 20
0.0
 30
0.0
 70
   128
 71
   45
 72
   21
 73
   48
  0
VERTEX
  8
chocolateBar
 10
0.0
 20
0.0
 30
0.0
 70
   128
 71
   61
 72
   63
 73
   64
  0
VERTEX
  8
chocolateBar
 10
0.0
 20
0.0
 30
0.0
 70
   128
 71
   46
 72
   15
 73
   45
  0
VERTEX
  8
chocolateBar
 10
0.0
 20
0.0
 30
0.0
 70
   128
 71
   5
 72
   16
 73
   20
  0
VERTEX
  8
chocolateBar
 10
0.0
 20
0.0
 30
0.0
 70
   128
 71
   11
 72
   13
 73
   17
  0
VERTEX
  8
chocolateBar
 10
0.0
 20
0.0
 30
0.0
 70
   128
 71
   48
 72
   23
 73
   47
  0
VERTEX
  8
chocolateBar
 10
0.0
 20
0.0
 30
0.0
 70
   128
 71
   47
 72
   19
 73
   46
  0
VERTEX
  8
chocolateBar
 10
0.0
 20
0.0
 30
0.0
 70
   128
 71
   15
 72
   23
 73
   21
  0
VERTEX
  8
chocolateBar
 10
0.0
 20
0.0
 30
0.0
 70
   128
 71
   12
 72
   28
 73
   24
  0
VERTEX
  8
chocolateBar
 10
0.0
 20
0.0
 30
0.0
 70
   128
 71
   6
 72
   25
 73
   12
  0
VERTEX
  8
chocolateBar
 10
0.0
 20
0.0
 30
0.0
 70
   128
 71
   20
 72
   26
 73
   6
  0
VERTEX
  8
chocolateBar
 10
0.0
 20
0.0
 30
0.0
 70
   128
 71
   24
 72
   27
 73
   20
  0
VERTEX
  8
chocolateBar
 10
0.0
 20
0.0
 30
0.0
 70
   128
 71
   10
 72
   32
 73
   18
  0
VERTEX
  8
chocolateBar
 10
0.0
 20
0.0
 30
0.0
 70
   128
 71
   2
 72
   29
 73
   10
  0
VERTEX
  8
chocolateBar
 10
0.0
 20
0.0
 30
0.0
 70
   128
 71
   14
 72
   30
 73
   2
  0
VERTEX
  8
chocolateBar
 10
0.0
 20
0.0
 30
0.0
 70
   128
 71
   18
 72
   31
 73
   14
  0
VERTEX
  8
chocolateBar
 10
0.0
 20
0.0
 30
0.0
 70
   128
 71
   16
 72
   36
 73
   18
  0
VERTEX
  8
chocolateBar
 10
0.0
 20
0.0
 30
0.0
 70
   128
 71
   4
 72
   33
 73
   16
  0
VERTEX
  8
chocolateBar
 10
0.0
 20
0.0
 30
0.0
 70
   128
 71
   10
 72
   34
 73
   4
  0
VERTEX
  8
chocolateBar
 10
0.0
 20
0.0
 30
0.0
 70
   128
 71
   18
 72
   35
 73
   10
  0
VERTEX
  8
chocolateBar
 10
0.0
 20
0.0
 30
0.0
 70
   128
 71
   14
 72
   40
 73
   18
  0
VERTEX
  8
chocolateBar
 10
0.0
 20
0.0
 30
0.0
 70
   128
 71
   22
 72
   37
 73
   14
  0
VERTEX
  8
chocolateBar
 10
0.0
 20
0.0
 30
0.0
 70
   128
 71
   24
 72
   38
 73
   22
  0
VERTEX
  8
chocolateBar
 10
0.0
 20
0.0
 30
0.0
 70
   128
 71
   18
 72
   39
 73
   24
  0
VERTEX
  8
chocolateBar
 10
0.0
 20
0.0
 30
0.0
 70
   128
 71
   20
 72
   44
 73
   24
  0
VERTEX
  8
chocolateBar
 10
0.0
 20
0.0
 30
0.0
 70
   128
 71
   16
 72
   41
 73
   20
  0
VERTEX
  8
chocolateBar
 10
0.0
 20
0.0
 30
0.0
 70
   128
 71
   18
 72
   42
 73
   16
  0
VERTEX
  8
chocolateBar
 10
0.0
 20
0.0
 30
0.0
 70
   128
 71
   24
 72
   43
 73
   18
  0
VERTEX
  8
chocolateBar
 10
0.0
 20
0.0
 30
0.0
 70
   128
 71
   22
 72
   48
 73
   24
  0
VERTEX
  8
chocolateBar
 10
0.0
 20
0.0
 30
0.0
 70
   128
 71
   8
 72
   45
 73
   22
  0
VERTEX
  8
chocolateBar
 10
0.0
 20
0.0
 30
0.0
 70
   128
 71
   12
 72
   46
 73
   8
  0
VERTEX
  8
chocolateBar
 10
0.0
 20
0.0
 30
0.0
 70
   128
 71
   24
 72
   47
 73
   12
  0
VERTEX
  8
chocolateBar
 10
0.0
 20
0.0
 30
0.0
 70
   128
 71
   25
 72
   52
 73
   28
  0
VERTEX
  8
chocolateBar
 10
0.0
 20
0.0
 30
0.0
 70
   128
 71
   26
 72
   49
 73
   25
  0
VERTEX
  8
chocolateBar
 10
0.0
 20
0.0
 30
0.0
 70
   128
 71
   27
 72
   50
 73
   26
  0
VERTEX
  8
chocolateBar
 10
0.0
 20
0.0
 30
0.0
 70
   128
 71
   28
 72
   51
 73
   27
  0
VERTEX
  8
chocolateBar
 10
0.0
 20
0.0
 30
0.0
 70
   128
 71
   29
 72
   56
 73
   32
  0
VERTEX
  8
chocolateBar
 10
0.0
 20
0.0
 30
0.0
 70
   128
 71
   30
 72
   53
 73
   29
  0
VERTEX
  8
chocolateBar
 10
0.0
 20
0.0
 30
0.0
 70
   128
 71
   31
 72
   54
 73
   30
  0
VERTEX
  8
chocolateBar
 10
0.0
 20
0.0
 30
0.0
 70
   128
 71
   32
 72
   55
 73
   31
  0
VERTEX
  8
chocolateBar
 10
0.0
 20
0.0
 30
0.0
 70
   128
 71
   33
 72
   60
 73
   36
  0
VERTEX
  8
chocolateBar
 10
0.0
 20
0.0
 30
0.0
 70
   128
 71
   34
 72
   57
 73
   33
  0
VERTEX
  8
chocolateBar
 10
0.0
 20
0.0
 30
0.0
 70
   128
 71
   35
 72
   58
 73
   34
  0
VERTEX
  8
chocolateBar
 10
0.0
 20
0.0
 30
0.0
 70
   128
 71
   36
 72
   59
 73
   35
  0
VERTEX
  8
chocolateBar
 10
0.0
 20
0.0
 30
0.0
 70
   128
 71
   37
 72
   64
 73
   40
  0
VERTEX
  8
chocolateBar
 10
0.0
 20
0.0
 30
0.0
 70
   128
 71
   38
 72
   61
 73
   37
  0
VERTEX
  8
chocolateBar
 10
0.0
 20
0.0
 30
0.0
 70
   128
 71
   39
 72
   62
 73
   38
  0
VERTEX
  8
chocolateBar
 10
0.0
 20
0.0
 30
0.0
 70
   128
 71
   40
 72
   63
 73
   39
  0
VERTEX
  8
chocolateBar
 10
0.0
 20
0.0
 30
0.0
 70
   128
 71
   41
 72
   17
 73
   44
  0
VERTEX
  8
chocolateBar
 10
0.0
 20
0.0
 30
0.0
 70
   128
 71
   42
 72
   11
 73
   41
  0
VERTEX
  8
chocolateBar
 10
0.0
 20
0.0
 30
0.0
 70
   128
 71
   43
 72
   9
 73
   42
  0
SEQEND
  0
ENDSEC
  0
EOF
