999
FBX AutoCAD (*.DXF) exporter
  0
SECTION
  2
HEADER
  9
$ACADVER
  1
AC1008
  9
$UCSORG
 10
0.0
 20
0.0
 30
0.0
  9
$UCSXDIR
 10
1.0
 20
0.0
 30
0.0
  9
$TILEMODE
 70
   1
  9
$UCSYDIR
 10
0.0
 20
1.0
 30
0.0
  0
ENDSEC
  0
SECTION
  2
TABLES
  0
TABLE
  2
LTYPE
 70
   1
  0
LTYPE
  2
CONTINUOUS
 70
   64
  3
Solid line
 72
   65
 73
   0
 40
0.0
  0
ENDTAB
  0
TABLE
  2
LAYER
 70
   1
  0
LAYER
  2
glassOJ
 70
   0
 62
   250
  6
CONTINUOUS
  0
ENDTAB
  0
ENDSEC
  0
SECTION
  2
BLOCKS
  0
ENDSEC
  0
SECTION
  2
ENTITIES
  0
POLYLINE
  8
glassOJ
 66
   1
 10
0.0
 20
0.0
 30
0.0
 70
   64
 71
   40
 72
   76
  0
VERTEX
  8
glassOJ
 10
34.117221
 20
112.739356
 30
24.787612
 70
   192
  0
VERTEX
  8
glassOJ
 10
13.031619
 20
112.739356
 30
40.107199
 70
   192
  0
VERTEX
  8
glassOJ
 10
38.050000
 20
0.000000
 30
0.000000
 70
   192
  0
VERTEX
  8
glassOJ
 10
50.000000
 20
150.724536
 30
0.000000
 70
   192
  0
VERTEX
  8
glassOJ
 10
30.783097
 20
0.000000
 30
-22.365229
 70
   192
  0
VERTEX
  8
glassOJ
 10
40.450850
 20
150.724536
 30
-29.389263
 70
   192
  0
VERTEX
  8
glassOJ
 10
11.758097
 20
0.000000
 30
-36.187700
 70
   192
  0
VERTEX
  8
glassOJ
 10
15.450850
 20
150.724536
 30
-47.552826
 70
   192
  0
VERTEX
  8
glassOJ
 10
-11.758097
 20
0.000000
 30
-36.187700
 70
   192
  0
VERTEX
  8
glassOJ
 10
-15.450850
 20
150.724536
 30
-47.552826
 70
   192
  0
VERTEX
  8
glassOJ
 10
-30.783097
 20
0.000000
 30
-22.365229
 70
   192
  0
VERTEX
  8
glassOJ
 10
-40.450850
 20
150.724536
 30
-29.389263
 70
   192
  0
VERTEX
  8
glassOJ
 10
-38.050000
 20
0.000000
 30
-0.000000
 70
   192
  0
VERTEX
  8
glassOJ
 10
-50.000000
 20
150.724536
 30
-0.000000
 70
   192
  0
VERTEX
  8
glassOJ
 10
-30.783097
 20
0.000000
 30
22.365229
 70
   192
  0
VERTEX
  8
glassOJ
 10
-40.450850
 20
150.724536
 30
29.389263
 70
   192
  0
VERTEX
  8
glassOJ
 10
-11.758097
 20
0.000000
 30
36.187700
 70
   192
  0
VERTEX
  8
glassOJ
 10
-15.450850
 20
150.724536
 30
47.552826
 70
   192
  0
VERTEX
  8
glassOJ
 10
11.758097
 20
0.000000
 30
36.187700
 70
   192
  0
VERTEX
  8
glassOJ
 10
15.450850
 20
150.724536
 30
47.552826
 70
   192
  0
VERTEX
  8
glassOJ
 10
30.783097
 20
0.000000
 30
22.365229
 70
   192
  0
VERTEX
  8
glassOJ
 10
40.450850
 20
150.724536
 30
29.389263
 70
   192
  0
VERTEX
  8
glassOJ
 10
43.901519
 20
150.724536
 30
-0.000000
 70
   192
  0
VERTEX
  8
glassOJ
 10
35.517075
 20
150.724536
 30
-25.804665
 70
   192
  0
VERTEX
  8
glassOJ
 10
13.566315
 20
150.724536
 30
-41.752826
 70
   192
  0
VERTEX
  8
glassOJ
 10
-13.566315
 20
150.724536
 30
-41.752826
 70
   192
  0
VERTEX
  8
glassOJ
 10
-35.517075
 20
150.724536
 30
-25.804665
 70
   192
  0
VERTEX
  8
glassOJ
 10
-43.901519
 20
150.724536
 30
-0.000000
 70
   192
  0
VERTEX
  8
glassOJ
 10
-35.517075
 20
150.724536
 30
25.804665
 70
   192
  0
VERTEX
  8
glassOJ
 10
-13.566315
 20
150.724536
 30
41.752826
 70
   192
  0
VERTEX
  8
glassOJ
 10
13.566315
 20
150.724536
 30
41.752826
 70
   192
  0
VERTEX
  8
glassOJ
 10
35.517075
 20
150.724536
 30
25.804665
 70
   192
  0
VERTEX
  8
glassOJ
 10
42.171205
 20
112.739356
 30
-0.000000
 70
   192
  0
VERTEX
  8
glassOJ
 10
34.117221
 20
112.739356
 30
-24.787612
 70
   192
  0
VERTEX
  8
glassOJ
 10
13.031619
 20
112.739356
 30
-40.107199
 70
   192
  0
VERTEX
  8
glassOJ
 10
-13.031619
 20
112.739356
 30
-40.107199
 70
   192
  0
VERTEX
  8
glassOJ
 10
-34.117221
 20
112.739356
 30
-24.787612
 70
   192
  0
VERTEX
  8
glassOJ
 10
-42.171205
 20
112.739356
 30
-0.000000
 70
   192
  0
VERTEX
  8
glassOJ
 10
-34.117221
 20
112.739356
 30
24.787612
 70
   192
  0
VERTEX
  8
glassOJ
 10
-13.031619
 20
112.739356
 30
40.107199
 70
   192
  0
VERTEX
  8
glassOJ
 10
0.0
 20
0.0
 30
0.0
 70
   128
 71
   21
 72
   3
 73
   5
  0
VERTEX
  8
glassOJ
 10
0.0
 20
0.0
 30
0.0
 70
   128
 71
   3
 72
   4
 73
   6
  0
VERTEX
  8
glassOJ
 10
0.0
 20
0.0
 30
0.0
 70
   128
 71
   34
 72
   33
 73
   1
  0
VERTEX
  8
glassOJ
 10
0.0
 20
0.0
 30
0.0
 70
   128
 71
   17
 72
   21
 73
   7
  0
VERTEX
  8
glassOJ
 10
0.0
 20
0.0
 30
0.0
 70
   128
 71
   5
 72
   6
 73
   8
  0
VERTEX
  8
glassOJ
 10
0.0
 20
0.0
 30
0.0
 70
   128
 71
   1
 72
   2
 73
   40
  0
VERTEX
  8
glassOJ
 10
0.0
 20
0.0
 30
0.0
 70
   128
 71
   21
 72
   17
 73
   19
  0
VERTEX
  8
glassOJ
 10
0.0
 20
0.0
 30
0.0
 70
   128
 71
   7
 72
   8
 73
   10
  0
VERTEX
  8
glassOJ
 10
0.0
 20
0.0
 30
0.0
 70
   128
 71
   34
 72
   40
 73
   39
  0
VERTEX
  8
glassOJ
 10
0.0
 20
0.0
 30
0.0
 70
   128
 71
   7
 72
   9
 73
   11
  0
VERTEX
  8
glassOJ
 10
0.0
 20
0.0
 30
0.0
 70
   128
 71
   9
 72
   10
 73
   12
  0
VERTEX
  8
glassOJ
 10
0.0
 20
0.0
 30
0.0
 70
   128
 71
   39
 72
   38
 73
   37
  0
VERTEX
  8
glassOJ
 10
0.0
 20
0.0
 30
0.0
 70
   128
 71
   13
 72
   15
 73
   17
  0
VERTEX
  8
glassOJ
 10
0.0
 20
0.0
 30
0.0
 70
   128
 71
   11
 72
   12
 73
   14
  0
VERTEX
  8
glassOJ
 10
0.0
 20
0.0
 30
0.0
 70
   128
 71
   37
 72
   36
 73
   35
  0
VERTEX
  8
glassOJ
 10
0.0
 20
0.0
 30
0.0
 70
   128
 71
   28
 72
   38
 73
   39
  0
VERTEX
  8
glassOJ
 10
0.0
 20
0.0
 30
0.0
 70
   128
 71
   13
 72
   14
 73
   16
  0
VERTEX
  8
glassOJ
 10
0.0
 20
0.0
 30
0.0
 70
   128
 71
   23
 72
   33
 73
   34
  0
VERTEX
  8
glassOJ
 10
0.0
 20
0.0
 30
0.0
 70
   128
 71
   29
 72
   39
 73
   40
  0
VERTEX
  8
glassOJ
 10
0.0
 20
0.0
 30
0.0
 70
   128
 71
   15
 72
   16
 73
   18
  0
VERTEX
  8
glassOJ
 10
0.0
 20
0.0
 30
0.0
 70
   128
 71
   24
 72
   34
 73
   35
  0
VERTEX
  8
glassOJ
 10
0.0
 20
0.0
 30
0.0
 70
   128
 71
   30
 72
   40
 73
   2
  0
VERTEX
  8
glassOJ
 10
0.0
 20
0.0
 30
0.0
 70
   128
 71
   17
 72
   18
 73
   20
  0
VERTEX
  8
glassOJ
 10
0.0
 20
0.0
 30
0.0
 70
   128
 71
   25
 72
   35
 73
   36
  0
VERTEX
  8
glassOJ
 10
0.0
 20
0.0
 30
0.0
 70
   128
 71
   31
 72
   2
 73
   1
  0
VERTEX
  8
glassOJ
 10
0.0
 20
0.0
 30
0.0
 70
   128
 71
   19
 72
   20
 73
   22
  0
VERTEX
  8
glassOJ
 10
0.0
 20
0.0
 30
0.0
 70
   128
 71
   26
 72
   36
 73
   37
  0
VERTEX
  8
glassOJ
 10
0.0
 20
0.0
 30
0.0
 70
   128
 71
   32
 72
   1
 73
   33
  0
VERTEX
  8
glassOJ
 10
0.0
 20
0.0
 30
0.0
 70
   128
 71
   21
 72
   22
 73
   4
  0
VERTEX
  8
glassOJ
 10
0.0
 20
0.0
 30
0.0
 70
   128
 71
   27
 72
   37
 73
   38
  0
VERTEX
  8
glassOJ
 10
0.0
 20
0.0
 30
0.0
 70
   128
 71
   4
 72
   23
 73
   24
  0
VERTEX
  8
glassOJ
 10
0.0
 20
0.0
 30
0.0
 70
   128
 71
   6
 72
   24
 73
   25
  0
VERTEX
  8
glassOJ
 10
0.0
 20
0.0
 30
0.0
 70
   128
 71
   8
 72
   25
 73
   26
  0
VERTEX
  8
glassOJ
 10
0.0
 20
0.0
 30
0.0
 70
   128
 71
   10
 72
   26
 73
   27
  0
VERTEX
  8
glassOJ
 10
0.0
 20
0.0
 30
0.0
 70
   128
 71
   12
 72
   27
 73
   28
  0
VERTEX
  8
glassOJ
 10
0.0
 20
0.0
 30
0.0
 70
   128
 71
   14
 72
   28
 73
   29
  0
VERTEX
  8
glassOJ
 10
0.0
 20
0.0
 30
0.0
 70
   128
 71
   16
 72
   29
 73
   30
  0
VERTEX
  8
glassOJ
 10
0.0
 20
0.0
 30
0.0
 70
   128
 71
   18
 72
   30
 73
   31
  0
VERTEX
  8
glassOJ
 10
0.0
 20
0.0
 30
0.0
 70
   128
 71
   20
 72
   31
 73
   32
  0
VERTEX
  8
glassOJ
 10
0.0
 20
0.0
 30
0.0
 70
   128
 71
   22
 72
   32
 73
   23
  0
VERTEX
  8
glassOJ
 10
0.0
 20
0.0
 30
0.0
 70
   128
 71
   21
 72
   5
 73
   7
  0
VERTEX
  8
glassOJ
 10
0.0
 20
0.0
 30
0.0
 70
   128
 71
   3
 72
   6
 73
   5
  0
VERTEX
  8
glassOJ
 10
0.0
 20
0.0
 30
0.0
 70
   128
 71
   34
 72
   1
 73
   40
  0
VERTEX
  8
glassOJ
 10
0.0
 20
0.0
 30
0.0
 70
   128
 71
   17
 72
   7
 73
   13
  0
VERTEX
  8
glassOJ
 10
0.0
 20
0.0
 30
0.0
 70
   128
 71
   5
 72
   8
 73
   7
  0
VERTEX
  8
glassOJ
 10
0.0
 20
0.0
 30
0.0
 70
   128
 71
   7
 72
   10
 73
   9
  0
VERTEX
  8
glassOJ
 10
0.0
 20
0.0
 30
0.0
 70
   128
 71
   34
 72
   39
 73
   37
  0
VERTEX
  8
glassOJ
 10
0.0
 20
0.0
 30
0.0
 70
   128
 71
   7
 72
   11
 73
   13
  0
VERTEX
  8
glassOJ
 10
0.0
 20
0.0
 30
0.0
 70
   128
 71
   9
 72
   12
 73
   11
  0
VERTEX
  8
glassOJ
 10
0.0
 20
0.0
 30
0.0
 70
   128
 71
   11
 72
   14
 73
   13
  0
VERTEX
  8
glassOJ
 10
0.0
 20
0.0
 30
0.0
 70
   128
 71
   37
 72
   35
 73
   34
  0
VERTEX
  8
glassOJ
 10
0.0
 20
0.0
 30
0.0
 70
   128
 71
   28
 72
   39
 73
   29
  0
VERTEX
  8
glassOJ
 10
0.0
 20
0.0
 30
0.0
 70
   128
 71
   13
 72
   16
 73
   15
  0
VERTEX
  8
glassOJ
 10
0.0
 20
0.0
 30
0.0
 70
   128
 71
   23
 72
   34
 73
   24
  0
VERTEX
  8
glassOJ
 10
0.0
 20
0.0
 30
0.0
 70
   128
 71
   29
 72
   40
 73
   30
  0
VERTEX
  8
glassOJ
 10
0.0
 20
0.0
 30
0.0
 70
   128
 71
   15
 72
   18
 73
   17
  0
VERTEX
  8
glassOJ
 10
0.0
 20
0.0
 30
0.0
 70
   128
 71
   24
 72
   35
 73
   25
  0
VERTEX
  8
glassOJ
 10
0.0
 20
0.0
 30
0.0
 70
   128
 71
   30
 72
   2
 73
   31
  0
VERTEX
  8
glassOJ
 10
0.0
 20
0.0
 30
0.0
 70
   128
 71
   17
 72
   20
 73
   19
  0
VERTEX
  8
glassOJ
 10
0.0
 20
0.0
 30
0.0
 70
   128
 71
   25
 72
   36
 73
   26
  0
VERTEX
  8
glassOJ
 10
0.0
 20
0.0
 30
0.0
 70
   128
 71
   31
 72
   1
 73
   32
  0
VERTEX
  8
glassOJ
 10
0.0
 20
0.0
 30
0.0
 70
   128
 71
   19
 72
   22
 73
   21
  0
VERTEX
  8
glassOJ
 10
0.0
 20
0.0
 30
0.0
 70
   128
 71
   26
 72
   37
 73
   27
  0
VERTEX
  8
glassOJ
 10
0.0
 20
0.0
 30
0.0
 70
   128
 71
   32
 72
   33
 73
   23
  0
VERTEX
  8
glassOJ
 10
0.0
 20
0.0
 30
0.0
 70
   128
 71
   21
 72
   4
 73
   3
  0
VERTEX
  8
glassOJ
 10
0.0
 20
0.0
 30
0.0
 70
   128
 71
   27
 72
   38
 73
   28
  0
VERTEX
  8
glassOJ
 10
0.0
 20
0.0
 30
0.0
 70
   128
 71
   4
 72
   24
 73
   6
  0
VERTEX
  8
glassOJ
 10
0.0
 20
0.0
 30
0.0
 70
   128
 71
   6
 72
   25
 73
   8
  0
VERTEX
  8
glassOJ
 10
0.0
 20
0.0
 30
0.0
 70
   128
 71
   8
 72
   26
 73
   10
  0
VERTEX
  8
glassOJ
 10
0.0
 20
0.0
 30
0.0
 70
   128
 71
   10
 72
   27
 73
   12
  0
VERTEX
  8
glassOJ
 10
0.0
 20
0.0
 30
0.0
 70
   128
 71
   12
 72
   28
 73
   14
  0
VERTEX
  8
glassOJ
 10
0.0
 20
0.0
 30
0.0
 70
   128
 71
   14
 72
   29
 73
   16
  0
VERTEX
  8
glassOJ
 10
0.0
 20
0.0
 30
0.0
 70
   128
 71
   16
 72
   30
 73
   18
  0
VERTEX
  8
glassOJ
 10
0.0
 20
0.0
 30
0.0
 70
   128
 71
   18
 72
   31
 73
   20
  0
VERTEX
  8
glassOJ
 10
0.0
 20
0.0
 30
0.0
 70
   128
 71
   20
 72
   32
 73
   22
  0
VERTEX
  8
glassOJ
 10
0.0
 20
0.0
 30
0.0
 70
   128
 71
   22
 72
   23
 73
   4
  0
SEQEND
  0
ENDSEC
  0
EOF
