999
FBX AutoCAD (*.DXF) exporter
  0
SECTION
  2
HEADER
  9
$ACADVER
  1
AC1008
  9
$UCSORG
 10
0.0
 20
0.0
 30
0.0
  9
$UCSXDIR
 10
1.0
 20
0.0
 30
0.0
  9
$TILEMODE
 70
   1
  9
$UCSYDIR
 10
0.0
 20
1.0
 30
0.0
  0
ENDSEC
  0
SECTION
  2
TABLES
  0
TABLE
  2
LTYPE
 70
   1
  0
LTYPE
  2
CONTINUOUS
 70
   64
  3
Solid line
 72
   65
 73
   0
 40
0.0
  0
ENDTAB
  0
TABLE
  2
LAYER
 70
   1
  0
LAYER
  2
lemon
 70
   0
 62
   250
  6
CONTINUOUS
  0
ENDTAB
  0
ENDSEC
  0
SECTION
  2
BLOCKS
  0
ENDSEC
  0
SECTION
  2
ENTITIES
  0
POLYLINE
  8
lemon
 66
   1
 10
0.0
 20
0.0
 30
0.0
 70
   64
 71
   134
 72
   264
  0
VERTEX
  8
lemon
 10
-63.005008
 20
171.077259
 30
-0.635882
 70
   192
  0
VERTEX
  8
lemon
 10
-65.287580
 20
164.849024
 30
2.255881
 70
   192
  0
VERTEX
  8
lemon
 10
-61.736005
 20
155.888050
 30
3.900399
 70
   192
  0
VERTEX
  8
lemon
 10
-62.426343
 20
147.433482
 30
6.939458
 70
   192
  0
VERTEX
  8
lemon
 10
-73.347434
 20
116.723576
 30
21.075204
 70
   192
  0
VERTEX
  8
lemon
 10
-72.748740
 20
85.248206
 30
31.222923
 70
   192
  0
VERTEX
  8
lemon
 10
-54.276431
 20
51.334166
 30
35.595070
 70
   192
  0
VERTEX
  8
lemon
 10
-30.511641
 20
31.118235
 30
33.506975
 70
   192
  0
VERTEX
  8
lemon
 10
-2.696471
 20
21.699776
 30
26.371305
 70
   192
  0
VERTEX
  8
lemon
 10
27.657123
 20
23.564179
 30
14.584688
 70
   192
  0
VERTEX
  8
lemon
 10
41.419457
 20
28.386465
 30
7.930606
 70
   192
  0
VERTEX
  8
lemon
 10
49.850975
 20
28.536950
 30
4.777583
 70
   192
  0
VERTEX
  8
lemon
 10
60.419789
 20
23.920201
 30
2.408212
 70
   192
  0
VERTEX
  8
lemon
 10
65.405406
 20
25.272139
 30
0.160066
 70
   192
  0
VERTEX
  8
lemon
 10
-76.826354
 20
113.516609
 30
-5.965218
 70
   192
  0
VERTEX
  8
lemon
 10
-63.431944
 20
166.497197
 30
4.950181
 70
   192
  0
VERTEX
  8
lemon
 10
-58.843804
 20
158.456900
 30
8.099745
 70
   192
  0
VERTEX
  8
lemon
 10
-57.590581
 20
151.728599
 30
13.960767
 70
   192
  0
VERTEX
  8
lemon
 10
-59.441723
 20
129.074611
 30
41.265675
 70
   192
  0
VERTEX
  8
lemon
 10
-52.364494
 20
103.353468
 30
60.819937
 70
   192
  0
VERTEX
  8
lemon
 10
-31.171200
 20
71.856203
 30
69.142832
 70
   192
  0
VERTEX
  8
lemon
 10
-8.831688
 20
50.374342
 30
64.985298
 70
   192
  0
VERTEX
  8
lemon
 10
14.318937
 20
36.812839
 30
51.076916
 70
   192
  0
VERTEX
  8
lemon
 10
37.027860
 20
31.887255
 30
28.190578
 70
   192
  0
VERTEX
  8
lemon
 10
46.487448
 20
32.887848
 30
15.289102
 70
   192
  0
VERTEX
  8
lemon
 10
52.872747
 20
31.220884
 30
9.165061
 70
   192
  0
VERTEX
  8
lemon
 10
61.887572
 20
25.223884
 30
4.539368
 70
   192
  0
VERTEX
  8
lemon
 10
2.899767
 20
26.286325
 30
-37.680266
 70
   192
  0
VERTEX
  8
lemon
 10
-77.848455
 20
80.547144
 30
-8.415368
 70
   192
  0
VERTEX
  8
lemon
 10
-60.774066
 20
168.842309
 30
5.874973
 70
   192
  0
VERTEX
  8
lemon
 10
-54.701224
 20
162.112000
 30
9.541131
 70
   192
  0
VERTEX
  8
lemon
 10
-50.664185
 20
157.839930
 30
16.370765
 70
   192
  0
VERTEX
  8
lemon
 10
-39.524187
 20
146.648347
 30
48.195862
 70
   192
  0
VERTEX
  8
lemon
 10
-23.167571
 20
129.114636
 30
70.978830
 70
   192
  0
VERTEX
  8
lemon
 10
1.923065
 20
101.056093
 30
80.657783
 70
   192
  0
VERTEX
  8
lemon
 10
22.221112
 20
77.772997
 30
75.789932
 70
   192
  0
VERTEX
  8
lemon
 10
38.690579
 20
58.316543
 30
59.556883
 70
   192
  0
VERTEX
  8
lemon
 10
50.449826
 20
43.729789
 30
32.860670
 70
   192
  0
VERTEX
  8
lemon
 10
53.746472
 20
39.292665
 30
17.814836
 70
   192
  0
VERTEX
  8
lemon
 10
57.200915
 20
35.039733
 30
10.671021
 70
   192
  0
VERTEX
  8
lemon
 10
63.989920
 20
27.078837
 30
5.270867
 70
   192
  0
VERTEX
  8
lemon
 10
30.739087
 20
26.090087
 30
-20.689834
 70
   192
  0
VERTEX
  8
lemon
 10
-60.056880
 20
46.005584
 30
-9.334326
 70
   192
  0
VERTEX
  8
lemon
 10
-58.157803
 20
171.139803
 30
4.736644
 70
   192
  0
VERTEX
  8
lemon
 10
-50.623505
 20
165.692884
 30
7.766926
 70
   192
  0
VERTEX
  8
lemon
 10
-43.846237
 20
163.827170
 30
13.404293
 70
   192
  0
VERTEX
  8
lemon
 10
-19.918502
 20
163.865247
 30
39.665480
 70
   192
  0
VERTEX
  8
lemon
 10
5.572212
 20
154.352723
 30
58.474227
 70
   192
  0
VERTEX
  8
lemon
 10
34.499169
 20
129.663077
 30
66.484006
 70
   192
  0
VERTEX
  8
lemon
 10
52.787715
 20
104.615321
 30
62.490485
 70
   192
  0
VERTEX
  8
lemon
 10
62.680631
 20
79.383612
 30
49.118874
 70
   192
  0
VERTEX
  8
lemon
 10
63.661642
 20
55.331858
 30
27.112244
 70
   192
  0
VERTEX
  8
lemon
 10
60.891841
 20
45.567432
 30
14.705905
 70
   192
  0
VERTEX
  8
lemon
 10
61.461316
 20
38.781041
 30
8.817331
 70
   192
  0
VERTEX
  8
lemon
 10
66.059350
 20
28.896125
 30
4.370463
 70
   192
  0
VERTEX
  8
lemon
 10
43.086281
 20
29.752556
 30
-11.146972
 70
   192
  0
VERTEX
  8
lemon
 10
-35.935515
 20
26.118354
 30
-8.650890
 70
   192
  0
VERTEX
  8
lemon
 10
-56.413800
 20
172.660241
 30
1.896604
 70
   192
  0
VERTEX
  8
lemon
 10
-47.905294
 20
168.062646
 30
3.340429
 70
   192
  0
VERTEX
  8
lemon
 10
-39.301387
 20
167.789412
 30
6.003187
 70
   192
  0
VERTEX
  8
lemon
 10
-6.849334
 20
175.259067
 30
18.382865
 70
   192
  0
VERTEX
  8
lemon
 10
24.730176
 20
171.054813
 30
27.276249
 70
   192
  0
VERTEX
  8
lemon
 10
56.214429
 20
148.594641
 30
31.121576
 70
   192
  0
VERTEX
  8
lemon
 10
73.163439
 20
122.379064
 30
29.309435
 70
   192
  0
VERTEX
  8
lemon
 10
78.672421
 20
93.325402
 30
23.076885
 70
   192
  0
VERTEX
  8
lemon
 10
72.468651
 20
63.009890
 30
12.770383
 70
   192
  0
VERTEX
  8
lemon
 10
65.654950
 20
49.719954
 30
6.949373
 70
   192
  0
VERTEX
  8
lemon
 10
64.301303
 20
41.256968
 30
4.192526
 70
   192
  0
VERTEX
  8
lemon
 10
67.438834
 20
30.098772
 30
2.124029
 70
   192
  0
VERTEX
  8
lemon
 10
50.844813
 20
29.351477
 30
-6.597356
 70
   192
  0
VERTEX
  8
lemon
 10
-6.953373
 20
17.775643
 30
-6.716094
 70
   192
  0
VERTEX
  8
lemon
 10
-56.095765
 20
172.920895
 30
-1.743453
 70
   192
  0
VERTEX
  8
lemon
 10
-47.409604
 20
168.468902
 30
-2.332980
 70
   192
  0
VERTEX
  8
lemon
 10
-38.472592
 20
168.468673
 30
-3.482756
 70
   192
  0
VERTEX
  8
lemon
 10
-4.466053
 20
177.212350
 30
-8.894903
 70
   192
  0
VERTEX
  8
lemon
 10
28.223805
 20
173.918111
 30
-12.709965
 70
   192
  0
VERTEX
  8
lemon
 10
60.174403
 20
151.840145
 30
-14.202185
 70
   192
  0
VERTEX
  8
lemon
 10
76.879137
 20
125.424366
 30
-13.218469
 70
   192
  0
VERTEX
  8
lemon
 10
81.588668
 20
95.715492
 30
-10.300936
 70
   192
  0
VERTEX
  8
lemon
 10
74.074689
 20
64.326162
 30
-5.611472
 70
   192
  0
VERTEX
  8
lemon
 10
66.523546
 20
50.431836
 30
-2.992117
 70
   192
  0
VERTEX
  8
lemon
 10
64.819200
 20
41.681425
 30
-1.735052
 70
   192
  0
VERTEX
  8
lemon
 10
67.690396
 20
30.304946
 30
-0.755210
 70
   192
  0
VERTEX
  8
lemon
 10
60.902532
 20
24.315846
 30
-3.117006
 70
   192
  0
VERTEX
  8
lemon
 10
25.312760
 20
21.403078
 30
-3.637225
 70
   192
  0
VERTEX
  8
lemon
 10
-57.304672
 20
171.839009
 30
-5.027836
 70
   192
  0
VERTEX
  8
lemon
 10
-49.293812
 20
166.782670
 30
-7.452033
 70
   192
  0
VERTEX
  8
lemon
 10
-41.622990
 20
165.649292
 30
-12.041815
 70
   192
  0
VERTEX
  8
lemon
 10
-13.525334
 20
169.104942
 30
-33.507325
 70
   192
  0
VERTEX
  8
lemon
 10
14.943894
 20
162.033540
 30
-48.789075
 70
   192
  0
VERTEX
  8
lemon
 10
45.121828
 20
138.369166
 30
-55.097304
 70
   192
  0
VERTEX
  8
lemon
 10
62.755100
 20
112.784363
 30
-51.590916
 70
   192
  0
VERTEX
  8
lemon
 10
70.503486
 20
85.795046
 30
-40.417369
 70
   192
  0
VERTEX
  8
lemon
 10
67.969850
 20
58.862767
 30
-22.197213
 70
   192
  0
VERTEX
  8
lemon
 10
63.221856
 20
47.477059
 30
-11.962210
 70
   192
  0
VERTEX
  8
lemon
 10
62.850579
 20
39.919649
 30
-7.083438
 70
   192
  0
VERTEX
  8
lemon
 10
66.734165
 20
29.449189
 30
-3.353114
 70
   192
  0
VERTEX
  8
lemon
 10
-65.751821
 20
164.421073
 30
-1.352504
 70
   192
  0
VERTEX
  8
lemon
 10
40.151551
 20
27.217673
 30
-1.924382
 70
   192
  0
VERTEX
  8
lemon
 10
-59.656703
 20
169.758074
 30
-6.913776
 70
   192
  0
VERTEX
  8
lemon
 10
-52.959697
 20
163.539317
 30
-10.391467
 70
   192
  0
VERTEX
  8
lemon
 10
-47.752350
 20
160.226403
 30
-16.956550
 70
   192
  0
VERTEX
  8
lemon
 10
-31.150917
 20
153.510888
 30
-47.640131
 70
   192
  0
VERTEX
  8
lemon
 10
-10.893277
 20
139.174368
 30
-69.506218
 70
   192
  0
VERTEX
  8
lemon
 10
15.835790
 20
112.458645
 30
-78.579869
 70
   192
  0
VERTEX
  8
lemon
 10
35.275611
 20
88.472167
 30
-73.624927
 70
   192
  0
VERTEX
  8
lemon
 10
48.936340
 20
66.713735
 30
-57.710657
 70
   192
  0
VERTEX
  8
lemon
 10
56.092378
 20
48.354296
 30
-31.720984
 70
   192
  0
VERTEX
  8
lemon
 10
56.798143
 20
41.793745
 30
-17.112967
 70
   192
  0
VERTEX
  8
lemon
 10
59.020463
 20
36.530993
 30
-10.154559
 70
   192
  0
VERTEX
  8
lemon
 10
64.873740
 20
27.803196
 30
-4.844869
 70
   192
  0
VERTEX
  8
lemon
 10
-62.459574
 20
155.221044
 30
-1.723645
 70
   192
  0
VERTEX
  8
lemon
 10
49.094991
 20
27.840062
 30
-1.098418
 70
   192
  0
VERTEX
  8
lemon
 10
-62.405103
 20
167.338773
 30
-6.802500
 70
   192
  0
VERTEX
  8
lemon
 10
-57.243365
 20
159.768583
 30
-10.218032
 70
   192
  0
VERTEX
  8
lemon
 10
-54.914646
 20
153.921735
 30
-16.666567
 70
   192
  0
VERTEX
  8
lemon
 10
-51.746806
 20
135.381190
 30
-46.806256
 70
   192
  0
VERTEX
  8
lemon
 10
-41.084590
 20
112.598220
 30
-68.283849
 70
   192
  0
VERTEX
  8
lemon
 10
-18.385602
 20
82.334988
 30
-77.194332
 70
   192
  0
VERTEX
  8
lemon
 10
3.165213
 20
60.206729
 30
-72.324859
 70
   192
  0
VERTEX
  8
lemon
 10
23.734647
 20
44.529741
 30
-56.690305
 70
   192
  0
VERTEX
  8
lemon
 10
42.213286
 20
36.137112
 30
-31.159054
 70
   192
  0
VERTEX
  8
lemon
 10
49.291890
 20
35.186305
 30
-16.809058
 70
   192
  0
VERTEX
  8
lemon
 10
54.544886
 20
32.591331
 30
-9.973354
 70
   192
  0
VERTEX
  8
lemon
 10
62.699791
 20
25.889560
 30
-4.756851
 70
   192
  0
VERTEX
  8
lemon
 10
-63.636150
 20
146.318247
 30
-2.463948
 70
   192
  0
VERTEX
  8
lemon
 10
60.052580
 20
23.581697
 30
-0.445974
 70
   192
  0
VERTEX
  8
lemon
 10
-64.677275
 20
165.349216
 30
-4.729338
 70
   192
  0
VERTEX
  8
lemon
 10
-60.784782
 20
156.667651
 30
-6.986793
 70
   192
  0
VERTEX
  8
lemon
 10
-60.835897
 20
148.736975
 30
-11.263934
 70
   192
  0
VERTEX
  8
lemon
 10
-68.773951
 20
120.471898
 30
-31.270449
 70
   192
  0
VERTEX
  8
lemon
 10
-66.044516
 20
90.742835
 30
-45.510060
 70
   192
  0
VERTEX
  8
lemon
 10
-46.677296
 20
57.562244
 30
-51.380591
 70
   192
  0
VERTEX
  8
lemon
 10
-23.381269
 20
36.962125
 30
-48.103474
 70
   192
  0
VERTEX
  8
lemon
 10
0.0
 20
0.0
 30
0.0
 70
   128
 71
   1
 72
   16
 73
   2
  0
VERTEX
  8
lemon
 10
0.0
 20
0.0
 30
0.0
 70
   128
 71
   16
 72
   17
 73
   3
  0
VERTEX
  8
lemon
 10
0.0
 20
0.0
 30
0.0
 70
   128
 71
   17
 72
   18
 73
   4
  0
VERTEX
  8
lemon
 10
0.0
 20
0.0
 30
0.0
 70
   128
 71
   18
 72
   19
 73
   5
  0
VERTEX
  8
lemon
 10
0.0
 20
0.0
 30
0.0
 70
   128
 71
   19
 72
   20
 73
   6
  0
VERTEX
  8
lemon
 10
0.0
 20
0.0
 30
0.0
 70
   128
 71
   20
 72
   21
 73
   7
  0
VERTEX
  8
lemon
 10
0.0
 20
0.0
 30
0.0
 70
   128
 71
   21
 72
   22
 73
   8
  0
VERTEX
  8
lemon
 10
0.0
 20
0.0
 30
0.0
 70
   128
 71
   22
 72
   23
 73
   9
  0
VERTEX
  8
lemon
 10
0.0
 20
0.0
 30
0.0
 70
   128
 71
   23
 72
   24
 73
   10
  0
VERTEX
  8
lemon
 10
0.0
 20
0.0
 30
0.0
 70
   128
 71
   24
 72
   25
 73
   11
  0
VERTEX
  8
lemon
 10
0.0
 20
0.0
 30
0.0
 70
   128
 71
   25
 72
   26
 73
   12
  0
VERTEX
  8
lemon
 10
0.0
 20
0.0
 30
0.0
 70
   128
 71
   26
 72
   27
 73
   13
  0
VERTEX
  8
lemon
 10
0.0
 20
0.0
 30
0.0
 70
   128
 71
   27
 72
   14
 73
   13
  0
VERTEX
  8
lemon
 10
0.0
 20
0.0
 30
0.0
 70
   128
 71
   1
 72
   30
 73
   16
  0
VERTEX
  8
lemon
 10
0.0
 20
0.0
 30
0.0
 70
   128
 71
   30
 72
   31
 73
   17
  0
VERTEX
  8
lemon
 10
0.0
 20
0.0
 30
0.0
 70
   128
 71
   31
 72
   32
 73
   18
  0
VERTEX
  8
lemon
 10
0.0
 20
0.0
 30
0.0
 70
   128
 71
   32
 72
   33
 73
   19
  0
VERTEX
  8
lemon
 10
0.0
 20
0.0
 30
0.0
 70
   128
 71
   33
 72
   34
 73
   20
  0
VERTEX
  8
lemon
 10
0.0
 20
0.0
 30
0.0
 70
   128
 71
   34
 72
   35
 73
   21
  0
VERTEX
  8
lemon
 10
0.0
 20
0.0
 30
0.0
 70
   128
 71
   35
 72
   36
 73
   22
  0
VERTEX
  8
lemon
 10
0.0
 20
0.0
 30
0.0
 70
   128
 71
   36
 72
   37
 73
   23
  0
VERTEX
  8
lemon
 10
0.0
 20
0.0
 30
0.0
 70
   128
 71
   37
 72
   38
 73
   24
  0
VERTEX
  8
lemon
 10
0.0
 20
0.0
 30
0.0
 70
   128
 71
   38
 72
   39
 73
   25
  0
VERTEX
  8
lemon
 10
0.0
 20
0.0
 30
0.0
 70
   128
 71
   39
 72
   40
 73
   26
  0
VERTEX
  8
lemon
 10
0.0
 20
0.0
 30
0.0
 70
   128
 71
   40
 72
   41
 73
   27
  0
VERTEX
  8
lemon
 10
0.0
 20
0.0
 30
0.0
 70
   128
 71
   41
 72
   14
 73
   27
  0
VERTEX
  8
lemon
 10
0.0
 20
0.0
 30
0.0
 70
   128
 71
   1
 72
   44
 73
   30
  0
VERTEX
  8
lemon
 10
0.0
 20
0.0
 30
0.0
 70
   128
 71
   44
 72
   45
 73
   31
  0
VERTEX
  8
lemon
 10
0.0
 20
0.0
 30
0.0
 70
   128
 71
   45
 72
   46
 73
   32
  0
VERTEX
  8
lemon
 10
0.0
 20
0.0
 30
0.0
 70
   128
 71
   46
 72
   47
 73
   33
  0
VERTEX
  8
lemon
 10
0.0
 20
0.0
 30
0.0
 70
   128
 71
   47
 72
   48
 73
   34
  0
VERTEX
  8
lemon
 10
0.0
 20
0.0
 30
0.0
 70
   128
 71
   48
 72
   49
 73
   35
  0
VERTEX
  8
lemon
 10
0.0
 20
0.0
 30
0.0
 70
   128
 71
   49
 72
   50
 73
   36
  0
VERTEX
  8
lemon
 10
0.0
 20
0.0
 30
0.0
 70
   128
 71
   50
 72
   51
 73
   37
  0
VERTEX
  8
lemon
 10
0.0
 20
0.0
 30
0.0
 70
   128
 71
   51
 72
   52
 73
   38
  0
VERTEX
  8
lemon
 10
0.0
 20
0.0
 30
0.0
 70
   128
 71
   52
 72
   53
 73
   39
  0
VERTEX
  8
lemon
 10
0.0
 20
0.0
 30
0.0
 70
   128
 71
   53
 72
   54
 73
   40
  0
VERTEX
  8
lemon
 10
0.0
 20
0.0
 30
0.0
 70
   128
 71
   54
 72
   55
 73
   41
  0
VERTEX
  8
lemon
 10
0.0
 20
0.0
 30
0.0
 70
   128
 71
   55
 72
   14
 73
   41
  0
VERTEX
  8
lemon
 10
0.0
 20
0.0
 30
0.0
 70
   128
 71
   1
 72
   58
 73
   44
  0
VERTEX
  8
lemon
 10
0.0
 20
0.0
 30
0.0
 70
   128
 71
   58
 72
   59
 73
   45
  0
VERTEX
  8
lemon
 10
0.0
 20
0.0
 30
0.0
 70
   128
 71
   59
 72
   60
 73
   46
  0
VERTEX
  8
lemon
 10
0.0
 20
0.0
 30
0.0
 70
   128
 71
   60
 72
   61
 73
   47
  0
VERTEX
  8
lemon
 10
0.0
 20
0.0
 30
0.0
 70
   128
 71
   61
 72
   62
 73
   48
  0
VERTEX
  8
lemon
 10
0.0
 20
0.0
 30
0.0
 70
   128
 71
   62
 72
   63
 73
   49
  0
VERTEX
  8
lemon
 10
0.0
 20
0.0
 30
0.0
 70
   128
 71
   63
 72
   64
 73
   50
  0
VERTEX
  8
lemon
 10
0.0
 20
0.0
 30
0.0
 70
   128
 71
   64
 72
   65
 73
   51
  0
VERTEX
  8
lemon
 10
0.0
 20
0.0
 30
0.0
 70
   128
 71
   65
 72
   66
 73
   52
  0
VERTEX
  8
lemon
 10
0.0
 20
0.0
 30
0.0
 70
   128
 71
   66
 72
   67
 73
   53
  0
VERTEX
  8
lemon
 10
0.0
 20
0.0
 30
0.0
 70
   128
 71
   67
 72
   68
 73
   54
  0
VERTEX
  8
lemon
 10
0.0
 20
0.0
 30
0.0
 70
   128
 71
   68
 72
   69
 73
   55
  0
VERTEX
  8
lemon
 10
0.0
 20
0.0
 30
0.0
 70
   128
 71
   69
 72
   14
 73
   55
  0
VERTEX
  8
lemon
 10
0.0
 20
0.0
 30
0.0
 70
   128
 71
   1
 72
   72
 73
   58
  0
VERTEX
  8
lemon
 10
0.0
 20
0.0
 30
0.0
 70
   128
 71
   72
 72
   73
 73
   59
  0
VERTEX
  8
lemon
 10
0.0
 20
0.0
 30
0.0
 70
   128
 71
   73
 72
   74
 73
   60
  0
VERTEX
  8
lemon
 10
0.0
 20
0.0
 30
0.0
 70
   128
 71
   74
 72
   75
 73
   61
  0
VERTEX
  8
lemon
 10
0.0
 20
0.0
 30
0.0
 70
   128
 71
   75
 72
   76
 73
   62
  0
VERTEX
  8
lemon
 10
0.0
 20
0.0
 30
0.0
 70
   128
 71
   76
 72
   77
 73
   63
  0
VERTEX
  8
lemon
 10
0.0
 20
0.0
 30
0.0
 70
   128
 71
   77
 72
   78
 73
   64
  0
VERTEX
  8
lemon
 10
0.0
 20
0.0
 30
0.0
 70
   128
 71
   78
 72
   79
 73
   65
  0
VERTEX
  8
lemon
 10
0.0
 20
0.0
 30
0.0
 70
   128
 71
   79
 72
   80
 73
   66
  0
VERTEX
  8
lemon
 10
0.0
 20
0.0
 30
0.0
 70
   128
 71
   80
 72
   81
 73
   67
  0
VERTEX
  8
lemon
 10
0.0
 20
0.0
 30
0.0
 70
   128
 71
   81
 72
   82
 73
   68
  0
VERTEX
  8
lemon
 10
0.0
 20
0.0
 30
0.0
 70
   128
 71
   82
 72
   83
 73
   69
  0
VERTEX
  8
lemon
 10
0.0
 20
0.0
 30
0.0
 70
   128
 71
   83
 72
   14
 73
   69
  0
VERTEX
  8
lemon
 10
0.0
 20
0.0
 30
0.0
 70
   128
 71
   1
 72
   86
 73
   72
  0
VERTEX
  8
lemon
 10
0.0
 20
0.0
 30
0.0
 70
   128
 71
   86
 72
   87
 73
   73
  0
VERTEX
  8
lemon
 10
0.0
 20
0.0
 30
0.0
 70
   128
 71
   87
 72
   88
 73
   74
  0
VERTEX
  8
lemon
 10
0.0
 20
0.0
 30
0.0
 70
   128
 71
   88
 72
   89
 73
   75
  0
VERTEX
  8
lemon
 10
0.0
 20
0.0
 30
0.0
 70
   128
 71
   89
 72
   90
 73
   76
  0
VERTEX
  8
lemon
 10
0.0
 20
0.0
 30
0.0
 70
   128
 71
   90
 72
   91
 73
   77
  0
VERTEX
  8
lemon
 10
0.0
 20
0.0
 30
0.0
 70
   128
 71
   91
 72
   92
 73
   78
  0
VERTEX
  8
lemon
 10
0.0
 20
0.0
 30
0.0
 70
   128
 71
   92
 72
   93
 73
   79
  0
VERTEX
  8
lemon
 10
0.0
 20
0.0
 30
0.0
 70
   128
 71
   93
 72
   94
 73
   80
  0
VERTEX
  8
lemon
 10
0.0
 20
0.0
 30
0.0
 70
   128
 71
   94
 72
   95
 73
   81
  0
VERTEX
  8
lemon
 10
0.0
 20
0.0
 30
0.0
 70
   128
 71
   95
 72
   96
 73
   82
  0
VERTEX
  8
lemon
 10
0.0
 20
0.0
 30
0.0
 70
   128
 71
   96
 72
   97
 73
   83
  0
VERTEX
  8
lemon
 10
0.0
 20
0.0
 30
0.0
 70
   128
 71
   97
 72
   14
 73
   83
  0
VERTEX
  8
lemon
 10
0.0
 20
0.0
 30
0.0
 70
   128
 71
   1
 72
   100
 73
   86
  0
VERTEX
  8
lemon
 10
0.0
 20
0.0
 30
0.0
 70
   128
 71
   100
 72
   101
 73
   87
  0
VERTEX
  8
lemon
 10
0.0
 20
0.0
 30
0.0
 70
   128
 71
   101
 72
   102
 73
   88
  0
VERTEX
  8
lemon
 10
0.0
 20
0.0
 30
0.0
 70
   128
 71
   102
 72
   103
 73
   89
  0
VERTEX
  8
lemon
 10
0.0
 20
0.0
 30
0.0
 70
   128
 71
   103
 72
   104
 73
   90
  0
VERTEX
  8
lemon
 10
0.0
 20
0.0
 30
0.0
 70
   128
 71
   104
 72
   105
 73
   91
  0
VERTEX
  8
lemon
 10
0.0
 20
0.0
 30
0.0
 70
   128
 71
   105
 72
   106
 73
   92
  0
VERTEX
  8
lemon
 10
0.0
 20
0.0
 30
0.0
 70
   128
 71
   106
 72
   107
 73
   93
  0
VERTEX
  8
lemon
 10
0.0
 20
0.0
 30
0.0
 70
   128
 71
   107
 72
   108
 73
   94
  0
VERTEX
  8
lemon
 10
0.0
 20
0.0
 30
0.0
 70
   128
 71
   108
 72
   109
 73
   95
  0
VERTEX
  8
lemon
 10
0.0
 20
0.0
 30
0.0
 70
   128
 71
   109
 72
   110
 73
   96
  0
VERTEX
  8
lemon
 10
0.0
 20
0.0
 30
0.0
 70
   128
 71
   110
 72
   111
 73
   97
  0
VERTEX
  8
lemon
 10
0.0
 20
0.0
 30
0.0
 70
   128
 71
   111
 72
   14
 73
   97
  0
VERTEX
  8
lemon
 10
0.0
 20
0.0
 30
0.0
 70
   128
 71
   1
 72
   114
 73
   100
  0
VERTEX
  8
lemon
 10
0.0
 20
0.0
 30
0.0
 70
   128
 71
   114
 72
   115
 73
   101
  0
VERTEX
  8
lemon
 10
0.0
 20
0.0
 30
0.0
 70
   128
 71
   115
 72
   116
 73
   102
  0
VERTEX
  8
lemon
 10
0.0
 20
0.0
 30
0.0
 70
   128
 71
   116
 72
   117
 73
   103
  0
VERTEX
  8
lemon
 10
0.0
 20
0.0
 30
0.0
 70
   128
 71
   117
 72
   118
 73
   104
  0
VERTEX
  8
lemon
 10
0.0
 20
0.0
 30
0.0
 70
   128
 71
   118
 72
   119
 73
   105
  0
VERTEX
  8
lemon
 10
0.0
 20
0.0
 30
0.0
 70
   128
 71
   119
 72
   120
 73
   106
  0
VERTEX
  8
lemon
 10
0.0
 20
0.0
 30
0.0
 70
   128
 71
   120
 72
   121
 73
   107
  0
VERTEX
  8
lemon
 10
0.0
 20
0.0
 30
0.0
 70
   128
 71
   121
 72
   122
 73
   108
  0
VERTEX
  8
lemon
 10
0.0
 20
0.0
 30
0.0
 70
   128
 71
   122
 72
   123
 73
   109
  0
VERTEX
  8
lemon
 10
0.0
 20
0.0
 30
0.0
 70
   128
 71
   123
 72
   124
 73
   110
  0
VERTEX
  8
lemon
 10
0.0
 20
0.0
 30
0.0
 70
   128
 71
   124
 72
   125
 73
   111
  0
VERTEX
  8
lemon
 10
0.0
 20
0.0
 30
0.0
 70
   128
 71
   125
 72
   14
 73
   111
  0
VERTEX
  8
lemon
 10
0.0
 20
0.0
 30
0.0
 70
   128
 71
   1
 72
   128
 73
   114
  0
VERTEX
  8
lemon
 10
0.0
 20
0.0
 30
0.0
 70
   128
 71
   128
 72
   129
 73
   115
  0
VERTEX
  8
lemon
 10
0.0
 20
0.0
 30
0.0
 70
   128
 71
   129
 72
   130
 73
   116
  0
VERTEX
  8
lemon
 10
0.0
 20
0.0
 30
0.0
 70
   128
 71
   130
 72
   131
 73
   117
  0
VERTEX
  8
lemon
 10
0.0
 20
0.0
 30
0.0
 70
   128
 71
   131
 72
   132
 73
   118
  0
VERTEX
  8
lemon
 10
0.0
 20
0.0
 30
0.0
 70
   128
 71
   132
 72
   133
 73
   119
  0
VERTEX
  8
lemon
 10
0.0
 20
0.0
 30
0.0
 70
   128
 71
   133
 72
   134
 73
   120
  0
VERTEX
  8
lemon
 10
0.0
 20
0.0
 30
0.0
 70
   128
 71
   134
 72
   28
 73
   121
  0
VERTEX
  8
lemon
 10
0.0
 20
0.0
 30
0.0
 70
   128
 71
   28
 72
   42
 73
   122
  0
VERTEX
  8
lemon
 10
0.0
 20
0.0
 30
0.0
 70
   128
 71
   42
 72
   56
 73
   123
  0
VERTEX
  8
lemon
 10
0.0
 20
0.0
 30
0.0
 70
   128
 71
   56
 72
   70
 73
   124
  0
VERTEX
  8
lemon
 10
0.0
 20
0.0
 30
0.0
 70
   128
 71
   70
 72
   84
 73
   125
  0
VERTEX
  8
lemon
 10
0.0
 20
0.0
 30
0.0
 70
   128
 71
   84
 72
   14
 73
   125
  0
VERTEX
  8
lemon
 10
0.0
 20
0.0
 30
0.0
 70
   128
 71
   1
 72
   98
 73
   128
  0
VERTEX
  8
lemon
 10
0.0
 20
0.0
 30
0.0
 70
   128
 71
   98
 72
   112
 73
   129
  0
VERTEX
  8
lemon
 10
0.0
 20
0.0
 30
0.0
 70
   128
 71
   112
 72
   126
 73
   130
  0
VERTEX
  8
lemon
 10
0.0
 20
0.0
 30
0.0
 70
   128
 71
   126
 72
   15
 73
   131
  0
VERTEX
  8
lemon
 10
0.0
 20
0.0
 30
0.0
 70
   128
 71
   15
 72
   29
 73
   132
  0
VERTEX
  8
lemon
 10
0.0
 20
0.0
 30
0.0
 70
   128
 71
   29
 72
   43
 73
   133
  0
VERTEX
  8
lemon
 10
0.0
 20
0.0
 30
0.0
 70
   128
 71
   43
 72
   57
 73
   134
  0
VERTEX
  8
lemon
 10
0.0
 20
0.0
 30
0.0
 70
   128
 71
   57
 72
   71
 73
   28
  0
VERTEX
  8
lemon
 10
0.0
 20
0.0
 30
0.0
 70
   128
 71
   71
 72
   85
 73
   42
  0
VERTEX
  8
lemon
 10
0.0
 20
0.0
 30
0.0
 70
   128
 71
   85
 72
   99
 73
   56
  0
VERTEX
  8
lemon
 10
0.0
 20
0.0
 30
0.0
 70
   128
 71
   99
 72
   113
 73
   70
  0
VERTEX
  8
lemon
 10
0.0
 20
0.0
 30
0.0
 70
   128
 71
   113
 72
   127
 73
   84
  0
VERTEX
  8
lemon
 10
0.0
 20
0.0
 30
0.0
 70
   128
 71
   127
 72
   14
 73
   84
  0
VERTEX
  8
lemon
 10
0.0
 20
0.0
 30
0.0
 70
   128
 71
   1
 72
   2
 73
   98
  0
VERTEX
  8
lemon
 10
0.0
 20
0.0
 30
0.0
 70
   128
 71
   2
 72
   3
 73
   112
  0
VERTEX
  8
lemon
 10
0.0
 20
0.0
 30
0.0
 70
   128
 71
   3
 72
   4
 73
   126
  0
VERTEX
  8
lemon
 10
0.0
 20
0.0
 30
0.0
 70
   128
 71
   4
 72
   5
 73
   15
  0
VERTEX
  8
lemon
 10
0.0
 20
0.0
 30
0.0
 70
   128
 71
   5
 72
   6
 73
   29
  0
VERTEX
  8
lemon
 10
0.0
 20
0.0
 30
0.0
 70
   128
 71
   6
 72
   7
 73
   43
  0
VERTEX
  8
lemon
 10
0.0
 20
0.0
 30
0.0
 70
   128
 71
   7
 72
   8
 73
   57
  0
VERTEX
  8
lemon
 10
0.0
 20
0.0
 30
0.0
 70
   128
 71
   8
 72
   9
 73
   71
  0
VERTEX
  8
lemon
 10
0.0
 20
0.0
 30
0.0
 70
   128
 71
   9
 72
   10
 73
   85
  0
VERTEX
  8
lemon
 10
0.0
 20
0.0
 30
0.0
 70
   128
 71
   10
 72
   11
 73
   99
  0
VERTEX
  8
lemon
 10
0.0
 20
0.0
 30
0.0
 70
   128
 71
   11
 72
   12
 73
   113
  0
VERTEX
  8
lemon
 10
0.0
 20
0.0
 30
0.0
 70
   128
 71
   12
 72
   13
 73
   127
  0
VERTEX
  8
lemon
 10
0.0
 20
0.0
 30
0.0
 70
   128
 71
   13
 72
   14
 73
   127
  0
VERTEX
  8
lemon
 10
0.0
 20
0.0
 30
0.0
 70
   128
 71
   16
 72
   3
 73
   2
  0
VERTEX
  8
lemon
 10
0.0
 20
0.0
 30
0.0
 70
   128
 71
   17
 72
   4
 73
   3
  0
VERTEX
  8
lemon
 10
0.0
 20
0.0
 30
0.0
 70
   128
 71
   18
 72
   5
 73
   4
  0
VERTEX
  8
lemon
 10
0.0
 20
0.0
 30
0.0
 70
   128
 71
   19
 72
   6
 73
   5
  0
VERTEX
  8
lemon
 10
0.0
 20
0.0
 30
0.0
 70
   128
 71
   20
 72
   7
 73
   6
  0
VERTEX
  8
lemon
 10
0.0
 20
0.0
 30
0.0
 70
   128
 71
   21
 72
   8
 73
   7
  0
VERTEX
  8
lemon
 10
0.0
 20
0.0
 30
0.0
 70
   128
 71
   22
 72
   9
 73
   8
  0
VERTEX
  8
lemon
 10
0.0
 20
0.0
 30
0.0
 70
   128
 71
   23
 72
   10
 73
   9
  0
VERTEX
  8
lemon
 10
0.0
 20
0.0
 30
0.0
 70
   128
 71
   24
 72
   11
 73
   10
  0
VERTEX
  8
lemon
 10
0.0
 20
0.0
 30
0.0
 70
   128
 71
   25
 72
   12
 73
   11
  0
VERTEX
  8
lemon
 10
0.0
 20
0.0
 30
0.0
 70
   128
 71
   26
 72
   13
 73
   12
  0
VERTEX
  8
lemon
 10
0.0
 20
0.0
 30
0.0
 70
   128
 71
   30
 72
   17
 73
   16
  0
VERTEX
  8
lemon
 10
0.0
 20
0.0
 30
0.0
 70
   128
 71
   31
 72
   18
 73
   17
  0
VERTEX
  8
lemon
 10
0.0
 20
0.0
 30
0.0
 70
   128
 71
   32
 72
   19
 73
   18
  0
VERTEX
  8
lemon
 10
0.0
 20
0.0
 30
0.0
 70
   128
 71
   33
 72
   20
 73
   19
  0
VERTEX
  8
lemon
 10
0.0
 20
0.0
 30
0.0
 70
   128
 71
   34
 72
   21
 73
   20
  0
VERTEX
  8
lemon
 10
0.0
 20
0.0
 30
0.0
 70
   128
 71
   35
 72
   22
 73
   21
  0
VERTEX
  8
lemon
 10
0.0
 20
0.0
 30
0.0
 70
   128
 71
   36
 72
   23
 73
   22
  0
VERTEX
  8
lemon
 10
0.0
 20
0.0
 30
0.0
 70
   128
 71
   37
 72
   24
 73
   23
  0
VERTEX
  8
lemon
 10
0.0
 20
0.0
 30
0.0
 70
   128
 71
   38
 72
   25
 73
   24
  0
VERTEX
  8
lemon
 10
0.0
 20
0.0
 30
0.0
 70
   128
 71
   39
 72
   26
 73
   25
  0
VERTEX
  8
lemon
 10
0.0
 20
0.0
 30
0.0
 70
   128
 71
   40
 72
   27
 73
   26
  0
VERTEX
  8
lemon
 10
0.0
 20
0.0
 30
0.0
 70
   128
 71
   44
 72
   31
 73
   30
  0
VERTEX
  8
lemon
 10
0.0
 20
0.0
 30
0.0
 70
   128
 71
   45
 72
   32
 73
   31
  0
VERTEX
  8
lemon
 10
0.0
 20
0.0
 30
0.0
 70
   128
 71
   46
 72
   33
 73
   32
  0
VERTEX
  8
lemon
 10
0.0
 20
0.0
 30
0.0
 70
   128
 71
   47
 72
   34
 73
   33
  0
VERTEX
  8
lemon
 10
0.0
 20
0.0
 30
0.0
 70
   128
 71
   48
 72
   35
 73
   34
  0
VERTEX
  8
lemon
 10
0.0
 20
0.0
 30
0.0
 70
   128
 71
   49
 72
   36
 73
   35
  0
VERTEX
  8
lemon
 10
0.0
 20
0.0
 30
0.0
 70
   128
 71
   50
 72
   37
 73
   36
  0
VERTEX
  8
lemon
 10
0.0
 20
0.0
 30
0.0
 70
   128
 71
   51
 72
   38
 73
   37
  0
VERTEX
  8
lemon
 10
0.0
 20
0.0
 30
0.0
 70
   128
 71
   52
 72
   39
 73
   38
  0
VERTEX
  8
lemon
 10
0.0
 20
0.0
 30
0.0
 70
   128
 71
   53
 72
   40
 73
   39
  0
VERTEX
  8
lemon
 10
0.0
 20
0.0
 30
0.0
 70
   128
 71
   54
 72
   41
 73
   40
  0
VERTEX
  8
lemon
 10
0.0
 20
0.0
 30
0.0
 70
   128
 71
   58
 72
   45
 73
   44
  0
VERTEX
  8
lemon
 10
0.0
 20
0.0
 30
0.0
 70
   128
 71
   59
 72
   46
 73
   45
  0
VERTEX
  8
lemon
 10
0.0
 20
0.0
 30
0.0
 70
   128
 71
   60
 72
   47
 73
   46
  0
VERTEX
  8
lemon
 10
0.0
 20
0.0
 30
0.0
 70
   128
 71
   61
 72
   48
 73
   47
  0
VERTEX
  8
lemon
 10
0.0
 20
0.0
 30
0.0
 70
   128
 71
   62
 72
   49
 73
   48
  0
VERTEX
  8
lemon
 10
0.0
 20
0.0
 30
0.0
 70
   128
 71
   63
 72
   50
 73
   49
  0
VERTEX
  8
lemon
 10
0.0
 20
0.0
 30
0.0
 70
   128
 71
   64
 72
   51
 73
   50
  0
VERTEX
  8
lemon
 10
0.0
 20
0.0
 30
0.0
 70
   128
 71
   65
 72
   52
 73
   51
  0
VERTEX
  8
lemon
 10
0.0
 20
0.0
 30
0.0
 70
   128
 71
   66
 72
   53
 73
   52
  0
VERTEX
  8
lemon
 10
0.0
 20
0.0
 30
0.0
 70
   128
 71
   67
 72
   54
 73
   53
  0
VERTEX
  8
lemon
 10
0.0
 20
0.0
 30
0.0
 70
   128
 71
   68
 72
   55
 73
   54
  0
VERTEX
  8
lemon
 10
0.0
 20
0.0
 30
0.0
 70
   128
 71
   72
 72
   59
 73
   58
  0
VERTEX
  8
lemon
 10
0.0
 20
0.0
 30
0.0
 70
   128
 71
   73
 72
   60
 73
   59
  0
VERTEX
  8
lemon
 10
0.0
 20
0.0
 30
0.0
 70
   128
 71
   74
 72
   61
 73
   60
  0
VERTEX
  8
lemon
 10
0.0
 20
0.0
 30
0.0
 70
   128
 71
   75
 72
   62
 73
   61
  0
VERTEX
  8
lemon
 10
0.0
 20
0.0
 30
0.0
 70
   128
 71
   76
 72
   63
 73
   62
  0
VERTEX
  8
lemon
 10
0.0
 20
0.0
 30
0.0
 70
   128
 71
   77
 72
   64
 73
   63
  0
VERTEX
  8
lemon
 10
0.0
 20
0.0
 30
0.0
 70
   128
 71
   78
 72
   65
 73
   64
  0
VERTEX
  8
lemon
 10
0.0
 20
0.0
 30
0.0
 70
   128
 71
   79
 72
   66
 73
   65
  0
VERTEX
  8
lemon
 10
0.0
 20
0.0
 30
0.0
 70
   128
 71
   80
 72
   67
 73
   66
  0
VERTEX
  8
lemon
 10
0.0
 20
0.0
 30
0.0
 70
   128
 71
   81
 72
   68
 73
   67
  0
VERTEX
  8
lemon
 10
0.0
 20
0.0
 30
0.0
 70
   128
 71
   82
 72
   69
 73
   68
  0
VERTEX
  8
lemon
 10
0.0
 20
0.0
 30
0.0
 70
   128
 71
   86
 72
   73
 73
   72
  0
VERTEX
  8
lemon
 10
0.0
 20
0.0
 30
0.0
 70
   128
 71
   87
 72
   74
 73
   73
  0
VERTEX
  8
lemon
 10
0.0
 20
0.0
 30
0.0
 70
   128
 71
   88
 72
   75
 73
   74
  0
VERTEX
  8
lemon
 10
0.0
 20
0.0
 30
0.0
 70
   128
 71
   89
 72
   76
 73
   75
  0
VERTEX
  8
lemon
 10
0.0
 20
0.0
 30
0.0
 70
   128
 71
   90
 72
   77
 73
   76
  0
VERTEX
  8
lemon
 10
0.0
 20
0.0
 30
0.0
 70
   128
 71
   91
 72
   78
 73
   77
  0
VERTEX
  8
lemon
 10
0.0
 20
0.0
 30
0.0
 70
   128
 71
   92
 72
   79
 73
   78
  0
VERTEX
  8
lemon
 10
0.0
 20
0.0
 30
0.0
 70
   128
 71
   93
 72
   80
 73
   79
  0
VERTEX
  8
lemon
 10
0.0
 20
0.0
 30
0.0
 70
   128
 71
   94
 72
   81
 73
   80
  0
VERTEX
  8
lemon
 10
0.0
 20
0.0
 30
0.0
 70
   128
 71
   95
 72
   82
 73
   81
  0
VERTEX
  8
lemon
 10
0.0
 20
0.0
 30
0.0
 70
   128
 71
   96
 72
   83
 73
   82
  0
VERTEX
  8
lemon
 10
0.0
 20
0.0
 30
0.0
 70
   128
 71
   100
 72
   87
 73
   86
  0
VERTEX
  8
lemon
 10
0.0
 20
0.0
 30
0.0
 70
   128
 71
   101
 72
   88
 73
   87
  0
VERTEX
  8
lemon
 10
0.0
 20
0.0
 30
0.0
 70
   128
 71
   102
 72
   89
 73
   88
  0
VERTEX
  8
lemon
 10
0.0
 20
0.0
 30
0.0
 70
   128
 71
   103
 72
   90
 73
   89
  0
VERTEX
  8
lemon
 10
0.0
 20
0.0
 30
0.0
 70
   128
 71
   104
 72
   91
 73
   90
  0
VERTEX
  8
lemon
 10
0.0
 20
0.0
 30
0.0
 70
   128
 71
   105
 72
   92
 73
   91
  0
VERTEX
  8
lemon
 10
0.0
 20
0.0
 30
0.0
 70
   128
 71
   106
 72
   93
 73
   92
  0
VERTEX
  8
lemon
 10
0.0
 20
0.0
 30
0.0
 70
   128
 71
   107
 72
   94
 73
   93
  0
VERTEX
  8
lemon
 10
0.0
 20
0.0
 30
0.0
 70
   128
 71
   108
 72
   95
 73
   94
  0
VERTEX
  8
lemon
 10
0.0
 20
0.0
 30
0.0
 70
   128
 71
   109
 72
   96
 73
   95
  0
VERTEX
  8
lemon
 10
0.0
 20
0.0
 30
0.0
 70
   128
 71
   110
 72
   97
 73
   96
  0
VERTEX
  8
lemon
 10
0.0
 20
0.0
 30
0.0
 70
   128
 71
   114
 72
   101
 73
   100
  0
VERTEX
  8
lemon
 10
0.0
 20
0.0
 30
0.0
 70
   128
 71
   115
 72
   102
 73
   101
  0
VERTEX
  8
lemon
 10
0.0
 20
0.0
 30
0.0
 70
   128
 71
   116
 72
   103
 73
   102
  0
VERTEX
  8
lemon
 10
0.0
 20
0.0
 30
0.0
 70
   128
 71
   117
 72
   104
 73
   103
  0
VERTEX
  8
lemon
 10
0.0
 20
0.0
 30
0.0
 70
   128
 71
   118
 72
   105
 73
   104
  0
VERTEX
  8
lemon
 10
0.0
 20
0.0
 30
0.0
 70
   128
 71
   119
 72
   106
 73
   105
  0
VERTEX
  8
lemon
 10
0.0
 20
0.0
 30
0.0
 70
   128
 71
   120
 72
   107
 73
   106
  0
VERTEX
  8
lemon
 10
0.0
 20
0.0
 30
0.0
 70
   128
 71
   121
 72
   108
 73
   107
  0
VERTEX
  8
lemon
 10
0.0
 20
0.0
 30
0.0
 70
   128
 71
   122
 72
   109
 73
   108
  0
VERTEX
  8
lemon
 10
0.0
 20
0.0
 30
0.0
 70
   128
 71
   123
 72
   110
 73
   109
  0
VERTEX
  8
lemon
 10
0.0
 20
0.0
 30
0.0
 70
   128
 71
   124
 72
   111
 73
   110
  0
VERTEX
  8
lemon
 10
0.0
 20
0.0
 30
0.0
 70
   128
 71
   128
 72
   115
 73
   114
  0
VERTEX
  8
lemon
 10
0.0
 20
0.0
 30
0.0
 70
   128
 71
   129
 72
   116
 73
   115
  0
VERTEX
  8
lemon
 10
0.0
 20
0.0
 30
0.0
 70
   128
 71
   130
 72
   117
 73
   116
  0
VERTEX
  8
lemon
 10
0.0
 20
0.0
 30
0.0
 70
   128
 71
   131
 72
   118
 73
   117
  0
VERTEX
  8
lemon
 10
0.0
 20
0.0
 30
0.0
 70
   128
 71
   132
 72
   119
 73
   118
  0
VERTEX
  8
lemon
 10
0.0
 20
0.0
 30
0.0
 70
   128
 71
   133
 72
   120
 73
   119
  0
VERTEX
  8
lemon
 10
0.0
 20
0.0
 30
0.0
 70
   128
 71
   134
 72
   121
 73
   120
  0
VERTEX
  8
lemon
 10
0.0
 20
0.0
 30
0.0
 70
   128
 71
   28
 72
   122
 73
   121
  0
VERTEX
  8
lemon
 10
0.0
 20
0.0
 30
0.0
 70
   128
 71
   42
 72
   123
 73
   122
  0
VERTEX
  8
lemon
 10
0.0
 20
0.0
 30
0.0
 70
   128
 71
   56
 72
   124
 73
   123
  0
VERTEX
  8
lemon
 10
0.0
 20
0.0
 30
0.0
 70
   128
 71
   70
 72
   125
 73
   124
  0
VERTEX
  8
lemon
 10
0.0
 20
0.0
 30
0.0
 70
   128
 71
   98
 72
   129
 73
   128
  0
VERTEX
  8
lemon
 10
0.0
 20
0.0
 30
0.0
 70
   128
 71
   112
 72
   130
 73
   129
  0
VERTEX
  8
lemon
 10
0.0
 20
0.0
 30
0.0
 70
   128
 71
   126
 72
   131
 73
   130
  0
VERTEX
  8
lemon
 10
0.0
 20
0.0
 30
0.0
 70
   128
 71
   15
 72
   132
 73
   131
  0
VERTEX
  8
lemon
 10
0.0
 20
0.0
 30
0.0
 70
   128
 71
   29
 72
   133
 73
   132
  0
VERTEX
  8
lemon
 10
0.0
 20
0.0
 30
0.0
 70
   128
 71
   43
 72
   134
 73
   133
  0
VERTEX
  8
lemon
 10
0.0
 20
0.0
 30
0.0
 70
   128
 71
   57
 72
   28
 73
   134
  0
VERTEX
  8
lemon
 10
0.0
 20
0.0
 30
0.0
 70
   128
 71
   71
 72
   42
 73
   28
  0
VERTEX
  8
lemon
 10
0.0
 20
0.0
 30
0.0
 70
   128
 71
   85
 72
   56
 73
   42
  0
VERTEX
  8
lemon
 10
0.0
 20
0.0
 30
0.0
 70
   128
 71
   99
 72
   70
 73
   56
  0
VERTEX
  8
lemon
 10
0.0
 20
0.0
 30
0.0
 70
   128
 71
   113
 72
   84
 73
   70
  0
VERTEX
  8
lemon
 10
0.0
 20
0.0
 30
0.0
 70
   128
 71
   2
 72
   112
 73
   98
  0
VERTEX
  8
lemon
 10
0.0
 20
0.0
 30
0.0
 70
   128
 71
   3
 72
   126
 73
   112
  0
VERTEX
  8
lemon
 10
0.0
 20
0.0
 30
0.0
 70
   128
 71
   4
 72
   15
 73
   126
  0
VERTEX
  8
lemon
 10
0.0
 20
0.0
 30
0.0
 70
   128
 71
   5
 72
   29
 73
   15
  0
VERTEX
  8
lemon
 10
0.0
 20
0.0
 30
0.0
 70
   128
 71
   6
 72
   43
 73
   29
  0
VERTEX
  8
lemon
 10
0.0
 20
0.0
 30
0.0
 70
   128
 71
   7
 72
   57
 73
   43
  0
VERTEX
  8
lemon
 10
0.0
 20
0.0
 30
0.0
 70
   128
 71
   8
 72
   71
 73
   57
  0
VERTEX
  8
lemon
 10
0.0
 20
0.0
 30
0.0
 70
   128
 71
   9
 72
   85
 73
   71
  0
VERTEX
  8
lemon
 10
0.0
 20
0.0
 30
0.0
 70
   128
 71
   10
 72
   99
 73
   85
  0
VERTEX
  8
lemon
 10
0.0
 20
0.0
 30
0.0
 70
   128
 71
   11
 72
   113
 73
   99
  0
VERTEX
  8
lemon
 10
0.0
 20
0.0
 30
0.0
 70
   128
 71
   12
 72
   127
 73
   113
  0
SEQEND
  0
ENDSEC
  0
EOF
