999
FBX AutoCAD (*.DXF) exporter
  0
SECTION
  2
HEADER
  9
$ACADVER
  1
AC1008
  9
$UCSORG
 10
0.0
 20
0.0
 30
0.0
  9
$UCSXDIR
 10
1.0
 20
0.0
 30
0.0
  9
$TILEMODE
 70
   1
  9
$UCSYDIR
 10
0.0
 20
1.0
 30
0.0
  0
ENDSEC
  0
SECTION
  2
TABLES
  0
TABLE
  2
LTYPE
 70
   1
  0
LTYPE
  2
CONTINUOUS
 70
   64
  3
Solid line
 72
   65
 73
   0
 40
0.0
  0
ENDTAB
  0
TABLE
  2
LAYER
 70
   1
  0
LAYER
  2
lemonSliceGreen
 70
   0
 62
   250
  6
CONTINUOUS
  0
ENDTAB
  0
ENDSEC
  0
SECTION
  2
BLOCKS
  0
ENDSEC
  0
SECTION
  2
ENTITIES
  0
POLYLINE
  8
lemonSliceGreen
 66
   1
 10
0.0
 20
0.0
 30
0.0
 70
   64
 71
   67
 72
   130
  0
VERTEX
  8
lemonSliceGreen
 10
49.200639
 20
27.632796
 30
-53.360498
 70
   192
  0
VERTEX
  8
lemonSliceGreen
 10
44.875713
 20
23.954705
 30
-48.873851
 70
   192
  0
VERTEX
  8
lemonSliceGreen
 10
38.228001
 20
25.920994
 30
-41.977562
 70
   192
  0
VERTEX
  8
lemonSliceGreen
 10
32.207316
 20
23.485156
 30
-35.731746
 70
   192
  0
VERTEX
  8
lemonSliceGreen
 10
10.861408
 20
5.703727
 30
-13.587653
 70
   192
  0
VERTEX
  8
lemonSliceGreen
 10
-11.749984
 20
-0.000001
 30
9.869244
 70
   192
  0
VERTEX
  8
lemonSliceGreen
 10
-37.222072
 20
12.783560
 30
36.293803
 70
   192
  0
VERTEX
  8
lemonSliceGreen
 10
32.779543
 20
12.160237
 30
1.626841
 70
   192
  0
VERTEX
  8
lemonSliceGreen
 10
42.739471
 20
24.816287
 30
-51.722228
 70
   192
  0
VERTEX
  8
lemonSliceGreen
 10
34.898445
 20
27.263860
 30
-46.417054
 70
   192
  0
VERTEX
  8
lemonSliceGreen
 10
26.640296
 20
25.730429
 30
-43.154580
 70
   192
  0
VERTEX
  8
lemonSliceGreen
 10
-5.147108
 20
12.160232
 30
-34.932744
 70
   192
  0
VERTEX
  8
lemonSliceGreen
 10
-35.216711
 20
9.464526
 30
-21.420318
 70
   192
  0
VERTEX
  8
lemonSliceGreen
 10
-63.821248
 20
23.511456
 30
0.827563
 70
   192
  0
VERTEX
  8
lemonSliceGreen
 10
20.379596
 20
9.464534
 30
32.172021
 70
   192
  0
VERTEX
  8
lemonSliceGreen
 10
42.070074
 20
27.127489
 30
-54.484357
 70
   192
  0
VERTEX
  8
lemonSliceGreen
 10
33.855120
 20
30.866109
 30
-50.722121
 70
   192
  0
VERTEX
  8
lemonSliceGreen
 10
24.895857
 20
31.753391
 30
-50.352653
 70
   192
  0
VERTEX
  8
lemonSliceGreen
 10
-10.163414
 20
29.479856
 30
-55.631518
 70
   192
  0
VERTEX
  8
lemonSliceGreen
 10
-42.570066
 20
34.853195
 30
-51.762449
 70
   192
  0
VERTEX
  8
lemonSliceGreen
 10
-72.156163
 20
52.289124
 30
-33.564777
 70
   192
  0
VERTEX
  8
lemonSliceGreen
 10
-0.803685
 20
23.511466
 30
61.573660
 70
   192
  0
VERTEX
  8
lemonSliceGreen
 10
43.080052
 20
30.154520
 30
-56.283283
 70
   192
  0
VERTEX
  8
lemonSliceGreen
 10
35.429276
 20
35.584053
 30
-53.525934
 70
   192
  0
VERTEX
  8
lemonSliceGreen
 10
27.527846
 20
39.641795
 30
-55.040630
 70
   192
  0
VERTEX
  8
lemonSliceGreen
 10
-2.594869
 20
52.163742
 30
-69.112259
 70
   192
  0
VERTEX
  8
lemonSliceGreen
 10
-31.475409
 20
68.105282
 30
-71.523736
 70
   192
  0
VERTEX
  8
lemonSliceGreen
 10
-59.580540
 20
89.979856
 30
-55.963894
 70
   192
  0
VERTEX
  8
lemonSliceGreen
 10
45.448743
 20
32.936320
 30
-56.547858
 70
   192
  0
VERTEX
  8
lemonSliceGreen
 10
39.121128
 20
39.919777
 30
-53.938303
 70
   192
  0
VERTEX
  8
lemonSliceGreen
 10
33.700625
 20
46.891128
 30
-55.730111
 70
   192
  0
VERTEX
  8
lemonSliceGreen
 10
15.155568
 20
73.009916
 30
-71.094929
 70
   192
  0
VERTEX
  8
lemonSliceGreen
 10
-5.455217
 20
98.663486
 30
-74.430112
 70
   192
  0
VERTEX
  8
lemonSliceGreen
 10
-30.087051
 20
124.617112
 30
-59.258226
 70
   192
  0
VERTEX
  8
lemonSliceGreen
 10
48.424106
 20
34.589686
 30
-55.194083
 70
   192
  0
VERTEX
  8
lemonSliceGreen
 10
43.758540
 20
42.496720
 30
-51.828302
 70
   192
  0
VERTEX
  8
lemonSliceGreen
 10
41.454380
 20
51.199778
 30
-52.202190
 70
   192
  0
VERTEX
  8
lemonSliceGreen
 10
37.452258
 20
85.399865
 30
-60.950042
 70
   192
  0
VERTEX
  8
lemonSliceGreen
 10
27.229283
 20
116.825792
 30
-59.558822
 70
   192
  0
VERTEX
  8
lemonSliceGreen
 10
6.960331
 20
145.203808
 30
-42.401847
 70
   192
  0
VERTEX
  8
lemonSliceGreen
 10
51.061482
 20
34.589686
 30
-52.651771
 70
   192
  0
VERTEX
  8
lemonSliceGreen
 10
47.869166
 20
42.496720
 30
-47.865844
 70
   192
  0
VERTEX
  8
lemonSliceGreen
 10
48.327349
 20
51.199779
 30
-45.576957
 70
   192
  0
VERTEX
  8
lemonSliceGreen
 10
57.216160
 20
85.399868
 30
-41.898530
 70
   192
  0
VERTEX
  8
lemonSliceGreen
 10
56.200995
 20
116.825796
 30
-31.631395
 70
   192
  0
VERTEX
  8
lemonSliceGreen
 10
39.799322
 20
145.203813
 30
-10.746536
 70
   192
  0
VERTEX
  8
lemonSliceGreen
 10
47.800559
 20
24.816288
 30
-46.843566
 70
   192
  0
VERTEX
  8
lemonSliceGreen
 10
52.523524
 20
32.936321
 30
-49.728088
 70
   192
  0
VERTEX
  8
lemonSliceGreen
 10
50.147911
 20
39.919779
 30
-43.308979
 70
   192
  0
VERTEX
  8
lemonSliceGreen
 10
52.137413
 20
46.891131
 30
-37.957877
 70
   192
  0
VERTEX
  8
lemonSliceGreen
 10
68.172374
 20
73.009924
 30
-19.989112
 70
   192
  0
VERTEX
  8
lemonSliceGreen
 10
72.261603
 20
98.663498
 30
0.485407
 70
   192
  0
VERTEX
  8
lemonSliceGreen
 10
58.003776
 20
124.617125
 30
25.657368
 70
   192
  0
VERTEX
  8
lemonSliceGreen
 10
42.786678
 20
27.263862
 30
-38.813152
 70
   192
  0
VERTEX
  8
lemonSliceGreen
 10
52.346045
 20
30.154522
 30
-47.351283
 70
   192
  0
VERTEX
  8
lemonSliceGreen
 10
49.871291
 20
35.584055
 30
-39.604481
 70
   192
  0
VERTEX
  8
lemonSliceGreen
 10
51.674903
 20
39.641799
 30
-31.763954
 70
   192
  0
VERTEX
  8
lemonSliceGreen
 10
66.842381
 20
52.163752
 30
-2.177874
 70
   192
  0
VERTEX
  8
lemonSliceGreen
 10
70.311979
 20
68.105298
 30
26.594727
 70
   192
  0
VERTEX
  8
lemonSliceGreen
 10
55.793906
 20
89.979873
 30
55.251882
 70
   192
  0
VERTEX
  8
lemonSliceGreen
 10
39.829427
 20
25.730431
 30
-30.440851
 70
   192
  0
VERTEX
  8
lemonSliceGreen
 10
50.585391
 20
27.127490
 30
-46.275975
 70
   192
  0
VERTEX
  8
lemonSliceGreen
 10
47.127129
 20
30.866111
 30
-37.928502
 70
   192
  0
VERTEX
  8
lemonSliceGreen
 10
47.086663
 20
31.753395
 30
-28.961715
 70
   192
  0
VERTEX
  8
lemonSliceGreen
 10
53.648443
 20
29.479866
 30
5.880242
 70
   192
  0
VERTEX
  8
lemonSliceGreen
 10
50.971114
 20
34.853209
 30
38.407041
 70
   192
  0
VERTEX
  8
lemonSliceGreen
 10
33.871332
 20
52.289140
 30
68.640959
 70
   192
  0
VERTEX
  8
lemonSliceGreen
 10
0.0
 20
0.0
 30
0.0
 70
   128
 71
   1
 72
   9
 73
   2
  0
VERTEX
  8
lemonSliceGreen
 10
0.0
 20
0.0
 30
0.0
 70
   128
 71
   9
 72
   10
 73
   3
  0
VERTEX
  8
lemonSliceGreen
 10
0.0
 20
0.0
 30
0.0
 70
   128
 71
   10
 72
   11
 73
   4
  0
VERTEX
  8
lemonSliceGreen
 10
0.0
 20
0.0
 30
0.0
 70
   128
 71
   11
 72
   12
 73
   5
  0
VERTEX
  8
lemonSliceGreen
 10
0.0
 20
0.0
 30
0.0
 70
   128
 71
   12
 72
   13
 73
   6
  0
VERTEX
  8
lemonSliceGreen
 10
0.0
 20
0.0
 30
0.0
 70
   128
 71
   13
 72
   14
 73
   7
  0
VERTEX
  8
lemonSliceGreen
 10
0.0
 20
0.0
 30
0.0
 70
   128
 71
   41
 72
   42
 73
   36
  0
VERTEX
  8
lemonSliceGreen
 10
0.0
 20
0.0
 30
0.0
 70
   128
 71
   1
 72
   48
 73
   41
  0
VERTEX
  8
lemonSliceGreen
 10
0.0
 20
0.0
 30
0.0
 70
   128
 71
   48
 72
   49
 73
   42
  0
VERTEX
  8
lemonSliceGreen
 10
0.0
 20
0.0
 30
0.0
 70
   128
 71
   49
 72
   50
 73
   43
  0
VERTEX
  8
lemonSliceGreen
 10
0.0
 20
0.0
 30
0.0
 70
   128
 71
   50
 72
   51
 73
   44
  0
VERTEX
  8
lemonSliceGreen
 10
0.0
 20
0.0
 30
0.0
 70
   128
 71
   51
 72
   52
 73
   45
  0
VERTEX
  8
lemonSliceGreen
 10
0.0
 20
0.0
 30
0.0
 70
   128
 71
   52
 72
   53
 73
   46
  0
VERTEX
  8
lemonSliceGreen
 10
0.0
 20
0.0
 30
0.0
 70
   128
 71
   1
 72
   16
 73
   9
  0
VERTEX
  8
lemonSliceGreen
 10
0.0
 20
0.0
 30
0.0
 70
   128
 71
   16
 72
   17
 73
   10
  0
VERTEX
  8
lemonSliceGreen
 10
0.0
 20
0.0
 30
0.0
 70
   128
 71
   17
 72
   18
 73
   11
  0
VERTEX
  8
lemonSliceGreen
 10
0.0
 20
0.0
 30
0.0
 70
   128
 71
   18
 72
   19
 73
   12
  0
VERTEX
  8
lemonSliceGreen
 10
0.0
 20
0.0
 30
0.0
 70
   128
 71
   19
 72
   20
 73
   13
  0
VERTEX
  8
lemonSliceGreen
 10
0.0
 20
0.0
 30
0.0
 70
   128
 71
   20
 72
   21
 73
   14
  0
VERTEX
  8
lemonSliceGreen
 10
0.0
 20
0.0
 30
0.0
 70
   128
 71
   42
 72
   43
 73
   37
  0
VERTEX
  8
lemonSliceGreen
 10
0.0
 20
0.0
 30
0.0
 70
   128
 71
   43
 72
   44
 73
   38
  0
VERTEX
  8
lemonSliceGreen
 10
0.0
 20
0.0
 30
0.0
 70
   128
 71
   1
 72
   55
 73
   48
  0
VERTEX
  8
lemonSliceGreen
 10
0.0
 20
0.0
 30
0.0
 70
   128
 71
   55
 72
   56
 73
   49
  0
VERTEX
  8
lemonSliceGreen
 10
0.0
 20
0.0
 30
0.0
 70
   128
 71
   56
 72
   57
 73
   50
  0
VERTEX
  8
lemonSliceGreen
 10
0.0
 20
0.0
 30
0.0
 70
   128
 71
   57
 72
   58
 73
   51
  0
VERTEX
  8
lemonSliceGreen
 10
0.0
 20
0.0
 30
0.0
 70
   128
 71
   58
 72
   59
 73
   52
  0
VERTEX
  8
lemonSliceGreen
 10
0.0
 20
0.0
 30
0.0
 70
   128
 71
   1
 72
   23
 73
   16
  0
VERTEX
  8
lemonSliceGreen
 10
0.0
 20
0.0
 30
0.0
 70
   128
 71
   23
 72
   24
 73
   17
  0
VERTEX
  8
lemonSliceGreen
 10
0.0
 20
0.0
 30
0.0
 70
   128
 71
   24
 72
   25
 73
   18
  0
VERTEX
  8
lemonSliceGreen
 10
0.0
 20
0.0
 30
0.0
 70
   128
 71
   25
 72
   26
 73
   19
  0
VERTEX
  8
lemonSliceGreen
 10
0.0
 20
0.0
 30
0.0
 70
   128
 71
   26
 72
   27
 73
   20
  0
VERTEX
  8
lemonSliceGreen
 10
0.0
 20
0.0
 30
0.0
 70
   128
 71
   27
 72
   28
 73
   21
  0
VERTEX
  8
lemonSliceGreen
 10
0.0
 20
0.0
 30
0.0
 70
   128
 71
   44
 72
   45
 73
   39
  0
VERTEX
  8
lemonSliceGreen
 10
0.0
 20
0.0
 30
0.0
 70
   128
 71
   59
 72
   60
 73
   53
  0
VERTEX
  8
lemonSliceGreen
 10
0.0
 20
0.0
 30
0.0
 70
   128
 71
   5
 72
   6
 73
   15
  0
VERTEX
  8
lemonSliceGreen
 10
0.0
 20
0.0
 30
0.0
 70
   128
 71
   1
 72
   62
 73
   55
  0
VERTEX
  8
lemonSliceGreen
 10
0.0
 20
0.0
 30
0.0
 70
   128
 71
   62
 72
   63
 73
   56
  0
VERTEX
  8
lemonSliceGreen
 10
0.0
 20
0.0
 30
0.0
 70
   128
 71
   63
 72
   64
 73
   57
  0
VERTEX
  8
lemonSliceGreen
 10
0.0
 20
0.0
 30
0.0
 70
   128
 71
   64
 72
   65
 73
   58
  0
VERTEX
  8
lemonSliceGreen
 10
0.0
 20
0.0
 30
0.0
 70
   128
 71
   1
 72
   29
 73
   23
  0
VERTEX
  8
lemonSliceGreen
 10
0.0
 20
0.0
 30
0.0
 70
   128
 71
   29
 72
   30
 73
   24
  0
VERTEX
  8
lemonSliceGreen
 10
0.0
 20
0.0
 30
0.0
 70
   128
 71
   30
 72
   31
 73
   25
  0
VERTEX
  8
lemonSliceGreen
 10
0.0
 20
0.0
 30
0.0
 70
   128
 71
   31
 72
   32
 73
   26
  0
VERTEX
  8
lemonSliceGreen
 10
0.0
 20
0.0
 30
0.0
 70
   128
 71
   32
 72
   33
 73
   27
  0
VERTEX
  8
lemonSliceGreen
 10
0.0
 20
0.0
 30
0.0
 70
   128
 71
   33
 72
   34
 73
   28
  0
VERTEX
  8
lemonSliceGreen
 10
0.0
 20
0.0
 30
0.0
 70
   128
 71
   45
 72
   46
 73
   40
  0
VERTEX
  8
lemonSliceGreen
 10
0.0
 20
0.0
 30
0.0
 70
   128
 71
   65
 72
   66
 73
   59
  0
VERTEX
  8
lemonSliceGreen
 10
0.0
 20
0.0
 30
0.0
 70
   128
 71
   66
 72
   67
 73
   60
  0
VERTEX
  8
lemonSliceGreen
 10
0.0
 20
0.0
 30
0.0
 70
   128
 71
   6
 72
   7
 73
   22
  0
VERTEX
  8
lemonSliceGreen
 10
0.0
 20
0.0
 30
0.0
 70
   128
 71
   1
 72
   47
 73
   62
  0
VERTEX
  8
lemonSliceGreen
 10
0.0
 20
0.0
 30
0.0
 70
   128
 71
   47
 72
   54
 73
   63
  0
VERTEX
  8
lemonSliceGreen
 10
0.0
 20
0.0
 30
0.0
 70
   128
 71
   54
 72
   61
 73
   64
  0
VERTEX
  8
lemonSliceGreen
 10
0.0
 20
0.0
 30
0.0
 70
   128
 71
   1
 72
   35
 73
   29
  0
VERTEX
  8
lemonSliceGreen
 10
0.0
 20
0.0
 30
0.0
 70
   128
 71
   35
 72
   36
 73
   30
  0
VERTEX
  8
lemonSliceGreen
 10
0.0
 20
0.0
 30
0.0
 70
   128
 71
   36
 72
   37
 73
   31
  0
VERTEX
  8
lemonSliceGreen
 10
0.0
 20
0.0
 30
0.0
 70
   128
 71
   37
 72
   38
 73
   32
  0
VERTEX
  8
lemonSliceGreen
 10
0.0
 20
0.0
 30
0.0
 70
   128
 71
   38
 72
   39
 73
   33
  0
VERTEX
  8
lemonSliceGreen
 10
0.0
 20
0.0
 30
0.0
 70
   128
 71
   39
 72
   40
 73
   34
  0
VERTEX
  8
lemonSliceGreen
 10
0.0
 20
0.0
 30
0.0
 70
   128
 71
   3
 72
   4
 73
   61
  0
VERTEX
  8
lemonSliceGreen
 10
0.0
 20
0.0
 30
0.0
 70
   128
 71
   61
 72
   8
 73
   65
  0
VERTEX
  8
lemonSliceGreen
 10
0.0
 20
0.0
 30
0.0
 70
   128
 71
   8
 72
   15
 73
   66
  0
VERTEX
  8
lemonSliceGreen
 10
0.0
 20
0.0
 30
0.0
 70
   128
 71
   15
 72
   22
 73
   67
  0
VERTEX
  8
lemonSliceGreen
 10
0.0
 20
0.0
 30
0.0
 70
   128
 71
   4
 72
   5
 73
   8
  0
VERTEX
  8
lemonSliceGreen
 10
0.0
 20
0.0
 30
0.0
 70
   128
 71
   1
 72
   2
 73
   47
  0
VERTEX
  8
lemonSliceGreen
 10
0.0
 20
0.0
 30
0.0
 70
   128
 71
   2
 72
   3
 73
   54
  0
VERTEX
  8
lemonSliceGreen
 10
0.0
 20
0.0
 30
0.0
 70
   128
 71
   1
 72
   41
 73
   35
  0
VERTEX
  8
lemonSliceGreen
 10
0.0
 20
0.0
 30
0.0
 70
   128
 71
   40
 72
   46
 73
   53
  0
VERTEX
  8
lemonSliceGreen
 10
0.0
 20
0.0
 30
0.0
 70
   128
 71
   28
 72
   34
 73
   40
  0
VERTEX
  8
lemonSliceGreen
 10
0.0
 20
0.0
 30
0.0
 70
   128
 71
   60
 72
   7
 73
   28
  0
VERTEX
  8
lemonSliceGreen
 10
0.0
 20
0.0
 30
0.0
 70
   128
 71
   14
 72
   21
 73
   28
  0
VERTEX
  8
lemonSliceGreen
 10
0.0
 20
0.0
 30
0.0
 70
   128
 71
   60
 72
   67
 73
   22
  0
VERTEX
  8
lemonSliceGreen
 10
0.0
 20
0.0
 30
0.0
 70
   128
 71
   9
 72
   3
 73
   2
  0
VERTEX
  8
lemonSliceGreen
 10
0.0
 20
0.0
 30
0.0
 70
   128
 71
   10
 72
   4
 73
   3
  0
VERTEX
  8
lemonSliceGreen
 10
0.0
 20
0.0
 30
0.0
 70
   128
 71
   11
 72
   5
 73
   4
  0
VERTEX
  8
lemonSliceGreen
 10
0.0
 20
0.0
 30
0.0
 70
   128
 71
   12
 72
   6
 73
   5
  0
VERTEX
  8
lemonSliceGreen
 10
0.0
 20
0.0
 30
0.0
 70
   128
 71
   13
 72
   7
 73
   6
  0
VERTEX
  8
lemonSliceGreen
 10
0.0
 20
0.0
 30
0.0
 70
   128
 71
   41
 72
   36
 73
   35
  0
VERTEX
  8
lemonSliceGreen
 10
0.0
 20
0.0
 30
0.0
 70
   128
 71
   48
 72
   42
 73
   41
  0
VERTEX
  8
lemonSliceGreen
 10
0.0
 20
0.0
 30
0.0
 70
   128
 71
   49
 72
   43
 73
   42
  0
VERTEX
  8
lemonSliceGreen
 10
0.0
 20
0.0
 30
0.0
 70
   128
 71
   50
 72
   44
 73
   43
  0
VERTEX
  8
lemonSliceGreen
 10
0.0
 20
0.0
 30
0.0
 70
   128
 71
   51
 72
   45
 73
   44
  0
VERTEX
  8
lemonSliceGreen
 10
0.0
 20
0.0
 30
0.0
 70
   128
 71
   52
 72
   46
 73
   45
  0
VERTEX
  8
lemonSliceGreen
 10
0.0
 20
0.0
 30
0.0
 70
   128
 71
   16
 72
   10
 73
   9
  0
VERTEX
  8
lemonSliceGreen
 10
0.0
 20
0.0
 30
0.0
 70
   128
 71
   17
 72
   11
 73
   10
  0
VERTEX
  8
lemonSliceGreen
 10
0.0
 20
0.0
 30
0.0
 70
   128
 71
   18
 72
   12
 73
   11
  0
VERTEX
  8
lemonSliceGreen
 10
0.0
 20
0.0
 30
0.0
 70
   128
 71
   19
 72
   13
 73
   12
  0
VERTEX
  8
lemonSliceGreen
 10
0.0
 20
0.0
 30
0.0
 70
   128
 71
   20
 72
   14
 73
   13
  0
VERTEX
  8
lemonSliceGreen
 10
0.0
 20
0.0
 30
0.0
 70
   128
 71
   42
 72
   37
 73
   36
  0
VERTEX
  8
lemonSliceGreen
 10
0.0
 20
0.0
 30
0.0
 70
   128
 71
   43
 72
   38
 73
   37
  0
VERTEX
  8
lemonSliceGreen
 10
0.0
 20
0.0
 30
0.0
 70
   128
 71
   55
 72
   49
 73
   48
  0
VERTEX
  8
lemonSliceGreen
 10
0.0
 20
0.0
 30
0.0
 70
   128
 71
   56
 72
   50
 73
   49
  0
VERTEX
  8
lemonSliceGreen
 10
0.0
 20
0.0
 30
0.0
 70
   128
 71
   57
 72
   51
 73
   50
  0
VERTEX
  8
lemonSliceGreen
 10
0.0
 20
0.0
 30
0.0
 70
   128
 71
   58
 72
   52
 73
   51
  0
VERTEX
  8
lemonSliceGreen
 10
0.0
 20
0.0
 30
0.0
 70
   128
 71
   23
 72
   17
 73
   16
  0
VERTEX
  8
lemonSliceGreen
 10
0.0
 20
0.0
 30
0.0
 70
   128
 71
   24
 72
   18
 73
   17
  0
VERTEX
  8
lemonSliceGreen
 10
0.0
 20
0.0
 30
0.0
 70
   128
 71
   25
 72
   19
 73
   18
  0
VERTEX
  8
lemonSliceGreen
 10
0.0
 20
0.0
 30
0.0
 70
   128
 71
   26
 72
   20
 73
   19
  0
VERTEX
  8
lemonSliceGreen
 10
0.0
 20
0.0
 30
0.0
 70
   128
 71
   27
 72
   21
 73
   20
  0
VERTEX
  8
lemonSliceGreen
 10
0.0
 20
0.0
 30
0.0
 70
   128
 71
   44
 72
   39
 73
   38
  0
VERTEX
  8
lemonSliceGreen
 10
0.0
 20
0.0
 30
0.0
 70
   128
 71
   59
 72
   53
 73
   52
  0
VERTEX
  8
lemonSliceGreen
 10
0.0
 20
0.0
 30
0.0
 70
   128
 71
   5
 72
   15
 73
   8
  0
VERTEX
  8
lemonSliceGreen
 10
0.0
 20
0.0
 30
0.0
 70
   128
 71
   62
 72
   56
 73
   55
  0
VERTEX
  8
lemonSliceGreen
 10
0.0
 20
0.0
 30
0.0
 70
   128
 71
   63
 72
   57
 73
   56
  0
VERTEX
  8
lemonSliceGreen
 10
0.0
 20
0.0
 30
0.0
 70
   128
 71
   64
 72
   58
 73
   57
  0
VERTEX
  8
lemonSliceGreen
 10
0.0
 20
0.0
 30
0.0
 70
   128
 71
   29
 72
   24
 73
   23
  0
VERTEX
  8
lemonSliceGreen
 10
0.0
 20
0.0
 30
0.0
 70
   128
 71
   30
 72
   25
 73
   24
  0
VERTEX
  8
lemonSliceGreen
 10
0.0
 20
0.0
 30
0.0
 70
   128
 71
   31
 72
   26
 73
   25
  0
VERTEX
  8
lemonSliceGreen
 10
0.0
 20
0.0
 30
0.0
 70
   128
 71
   32
 72
   27
 73
   26
  0
VERTEX
  8
lemonSliceGreen
 10
0.0
 20
0.0
 30
0.0
 70
   128
 71
   33
 72
   28
 73
   27
  0
VERTEX
  8
lemonSliceGreen
 10
0.0
 20
0.0
 30
0.0
 70
   128
 71
   45
 72
   40
 73
   39
  0
VERTEX
  8
lemonSliceGreen
 10
0.0
 20
0.0
 30
0.0
 70
   128
 71
   65
 72
   59
 73
   58
  0
VERTEX
  8
lemonSliceGreen
 10
0.0
 20
0.0
 30
0.0
 70
   128
 71
   66
 72
   60
 73
   59
  0
VERTEX
  8
lemonSliceGreen
 10
0.0
 20
0.0
 30
0.0
 70
   128
 71
   6
 72
   22
 73
   15
  0
VERTEX
  8
lemonSliceGreen
 10
0.0
 20
0.0
 30
0.0
 70
   128
 71
   47
 72
   63
 73
   62
  0
VERTEX
  8
lemonSliceGreen
 10
0.0
 20
0.0
 30
0.0
 70
   128
 71
   54
 72
   64
 73
   63
  0
VERTEX
  8
lemonSliceGreen
 10
0.0
 20
0.0
 30
0.0
 70
   128
 71
   35
 72
   30
 73
   29
  0
VERTEX
  8
lemonSliceGreen
 10
0.0
 20
0.0
 30
0.0
 70
   128
 71
   36
 72
   31
 73
   30
  0
VERTEX
  8
lemonSliceGreen
 10
0.0
 20
0.0
 30
0.0
 70
   128
 71
   37
 72
   32
 73
   31
  0
VERTEX
  8
lemonSliceGreen
 10
0.0
 20
0.0
 30
0.0
 70
   128
 71
   38
 72
   33
 73
   32
  0
VERTEX
  8
lemonSliceGreen
 10
0.0
 20
0.0
 30
0.0
 70
   128
 71
   39
 72
   34
 73
   33
  0
VERTEX
  8
lemonSliceGreen
 10
0.0
 20
0.0
 30
0.0
 70
   128
 71
   3
 72
   61
 73
   54
  0
VERTEX
  8
lemonSliceGreen
 10
0.0
 20
0.0
 30
0.0
 70
   128
 71
   61
 72
   65
 73
   64
  0
VERTEX
  8
lemonSliceGreen
 10
0.0
 20
0.0
 30
0.0
 70
   128
 71
   8
 72
   66
 73
   65
  0
VERTEX
  8
lemonSliceGreen
 10
0.0
 20
0.0
 30
0.0
 70
   128
 71
   15
 72
   67
 73
   66
  0
VERTEX
  8
lemonSliceGreen
 10
0.0
 20
0.0
 30
0.0
 70
   128
 71
   4
 72
   8
 73
   61
  0
VERTEX
  8
lemonSliceGreen
 10
0.0
 20
0.0
 30
0.0
 70
   128
 71
   2
 72
   54
 73
   47
  0
VERTEX
  8
lemonSliceGreen
 10
0.0
 20
0.0
 30
0.0
 70
   128
 71
   40
 72
   53
 73
   60
  0
VERTEX
  8
lemonSliceGreen
 10
0.0
 20
0.0
 30
0.0
 70
   128
 71
   60
 72
   28
 73
   40
  0
VERTEX
  8
lemonSliceGreen
 10
0.0
 20
0.0
 30
0.0
 70
   128
 71
   14
 72
   28
 73
   7
  0
VERTEX
  8
lemonSliceGreen
 10
0.0
 20
0.0
 30
0.0
 70
   128
 71
   60
 72
   22
 73
   7
  0
SEQEND
  0
ENDSEC
  0
EOF
