999
FBX AutoCAD (*.DXF) exporter
  0
SECTION
  2
HEADER
  9
$ACADVER
  1
AC1008
  9
$UCSORG
 10
0.0
 20
0.0
 30
0.0
  9
$UCSXDIR
 10
1.0
 20
0.0
 30
0.0
  9
$TILEMODE
 70
   1
  9
$UCSYDIR
 10
0.0
 20
1.0
 30
0.0
  0
ENDSEC
  0
SECTION
  2
TABLES
  0
TABLE
  2
LTYPE
 70
   1
  0
LTYPE
  2
CONTINUOUS
 70
   64
  3
Solid line
 72
   65
 73
   0
 40
0.0
  0
ENDTAB
  0
TABLE
  2
LAYER
 70
   3
  0
LAYER
  2
cherry_2
 70
   0
 62
   250
  6
CONTINUOUS
  0
LAYER
  2
cherry_3
 70
   0
 62
   250
  6
CONTINUOUS
  0
ENDTAB
  0
ENDSEC
  0
SECTION
  2
BLOCKS
  0
ENDSEC
  0
SECTION
  2
ENTITIES
  0
POLYLINE
  8
cherry_2
 66
   1
 10
0.0
 20
0.0
 30
0.0
 70
   64
 71
   72
 72
   142
  0
VERTEX
  8
cherry_2
 10
24.336328
 20
93.989451
 30
16.642712
 70
   192
  0
VERTEX
  8
cherry_2
 10
24.889478
 20
95.794767
 30
5.530591
 70
   192
  0
VERTEX
  8
cherry_2
 10
19.884325
 20
90.908498
 30
13.530493
 70
   192
  0
VERTEX
  8
cherry_2
 10
20.206204
 20
91.959012
 30
7.064351
 70
   192
  0
VERTEX
  8
cherry_2
 10
29.983821
 20
95.966382
 30
14.854958
 70
   192
  0
VERTEX
  8
cherry_2
 10
30.305699
 20
97.016896
 30
8.388817
 70
   192
  0
VERTEX
  8
cherry_2
 10
28.346824
 20
105.051473
 30
13.740864
 70
   192
  0
VERTEX
  8
cherry_2
 10
24.833883
 20
104.344890
 30
14.499240
 70
   192
  0
VERTEX
  8
cherry_2
 10
22.379516
 20
104.106513
 30
11.820558
 70
   192
  0
VERTEX
  8
cherry_2
 10
23.438091
 20
104.574719
 30
8.383501
 70
   192
  0
VERTEX
  8
cherry_2
 10
26.951033
 20
105.281302
 30
7.625125
 70
   192
  0
VERTEX
  8
cherry_2
 10
29.405399
 20
105.519679
 30
10.303807
 70
   192
  0
VERTEX
  8
cherry_2
 10
18.236783
 20
131.120774
 30
16.944271
 70
   192
  0
VERTEX
  8
cherry_2
 10
14.675909
 20
129.480840
 30
16.254983
 70
   192
  0
VERTEX
  8
cherry_2
 10
13.434008
 20
128.844333
 30
12.520702
 70
   192
  0
VERTEX
  8
cherry_2
 10
15.752981
 20
129.847760
 30
9.475708
 70
   192
  0
VERTEX
  8
cherry_2
 10
19.313856
 20
131.487694
 30
10.164996
 70
   192
  0
VERTEX
  8
cherry_2
 10
20.555757
 20
132.124201
 30
13.899277
 70
   192
  0
VERTEX
  8
cherry_2
 10
6.397475
 20
149.335123
 30
14.997204
 70
   192
  0
VERTEX
  8
cherry_2
 10
3.673892
 20
146.523333
 30
13.226914
 70
   192
  0
VERTEX
  8
cherry_2
 10
4.071896
 20
145.324916
 30
9.139609
 70
   192
  0
VERTEX
  8
cherry_2
 10
7.193482
 20
146.938290
 30
6.822594
 70
   192
  0
VERTEX
  8
cherry_2
 10
9.917065
 20
149.750080
 30
8.592884
 70
   192
  0
VERTEX
  8
cherry_2
 10
9.519061
 20
150.948496
 30
12.680189
 70
   192
  0
VERTEX
  8
cherry_2
 10
-9.144389
 20
161.767381
 30
5.766982
 70
   192
  0
VERTEX
  8
cherry_2
 10
-10.594912
 20
158.384399
 30
3.236349
 70
   192
  0
VERTEX
  8
cherry_2
 10
-8.721498
 20
157.609601
 30
-0.743940
 70
   192
  0
VERTEX
  8
cherry_2
 10
-5.397560
 20
160.217786
 30
-2.193596
 70
   192
  0
VERTEX
  8
cherry_2
 10
-3.947037
 20
163.600768
 30
0.337037
 70
   192
  0
VERTEX
  8
cherry_2
 10
-5.820451
 20
164.375566
 30
4.317326
 70
   192
  0
VERTEX
  8
cherry_2
 10
58.028300
 20
100.877445
 30
12.383246
 70
   192
  0
VERTEX
  8
cherry_2
 10
76.384485
 20
65.490330
 30
7.547877
 70
   192
  0
VERTEX
  8
cherry_2
 10
57.780723
 20
82.868477
 30
-23.508173
 70
   192
  0
VERTEX
  8
cherry_2
 10
22.119191
 20
65.008980
 30
-28.184889
 70
   192
  0
VERTEX
  8
cherry_2
 10
0.326728
 20
71.980172
 30
4.816160
 70
   192
  0
VERTEX
  8
cherry_2
 10
18.682914
 20
36.593058
 30
-0.019209
 70
   192
  0
VERTEX
  8
cherry_2
 10
18.930491
 20
54.602026
 30
35.872210
 70
   192
  0
VERTEX
  8
cherry_2
 10
54.592023
 20
72.461523
 30
40.548926
 70
   192
  0
VERTEX
  8
cherry_2
 10
24.490504
 20
100.579954
 30
-9.700818
 70
   192
  0
VERTEX
  8
cherry_2
 10
22.519779
 20
94.148103
 30
29.888646
 70
   192
  0
VERTEX
  8
cherry_2
 10
52.220710
 20
36.890549
 30
22.064855
 70
   192
  0
VERTEX
  8
cherry_2
 10
54.191435
 20
43.322400
 30
-17.524609
 70
   192
  0
VERTEX
  8
cherry_2
 10
25.563792
 20
93.395353
 30
9.551626
 70
   192
  0
VERTEX
  8
cherry_2
 10
41.769223
 20
106.345805
 30
0.491311
 70
   192
  0
VERTEX
  8
cherry_2
 10
40.610860
 20
102.565258
 30
23.761415
 70
   192
  0
VERTEX
  8
cherry_2
 10
41.623700
 20
95.760399
 30
-20.605136
 70
   192
  0
VERTEX
  8
cherry_2
 10
61.336723
 20
95.935260
 30
-7.624448
 70
   192
  0
VERTEX
  8
cherry_2
 10
20.662378
 20
85.262850
 30
-23.354040
 70
   192
  0
VERTEX
  8
cherry_2
 10
40.229878
 20
74.852305
 30
-31.469800
 70
   192
  0
VERTEX
  8
cherry_2
 10
7.853090
 20
89.360415
 30
-3.956510
 70
   192
  0
VERTEX
  8
cherry_2
 10
6.459267
 20
68.452321
 30
-14.821175
 70
   192
  0
VERTEX
  8
cherry_2
 10
6.694727
 20
85.579867
 30
19.313593
 70
   192
  0
VERTEX
  8
cherry_2
 10
17.629744
 20
75.365249
 30
37.567882
 70
   192
  0
VERTEX
  8
cherry_2
 10
4.584996
 20
62.335267
 30
22.830644
 70
   192
  0
VERTEX
  8
cherry_2
 10
38.591067
 20
85.862798
 30
40.316786
 70
   192
  0
VERTEX
  8
cherry_2
 10
36.481336
 20
62.618197
 30
43.833837
 70
   192
  0
VERTEX
  8
cherry_2
 10
59.462452
 20
89.818206
 30
30.027370
 70
   192
  0
VERTEX
  8
cherry_2
 10
55.813376
 20
35.080106
 30
1.583309
 70
   192
  0
VERTEX
  8
cherry_2
 10
68.858124
 20
48.110088
 30
16.320547
 70
   192
  0
VERTEX
  8
cherry_2
 10
70.016487
 20
51.890635
 30
-6.949556
 70
   192
  0
VERTEX
  8
cherry_2
 10
59.081470
 20
62.105253
 30
-25.203845
 70
   192
  0
VERTEX
  8
cherry_2
 10
72.126218
 20
75.135236
 30
-10.466607
 70
   192
  0
VERTEX
  8
cherry_2
 10
38.120147
 20
51.607705
 30
-27.952749
 70
   192
  0
VERTEX
  8
cherry_2
 10
17.248762
 20
47.652297
 30
-17.663333
 70
   192
  0
VERTEX
  8
cherry_2
 10
36.100354
 20
34.905245
 30
-11.397378
 70
   192
  0
VERTEX
  8
cherry_2
 10
34.941991
 20
31.124698
 30
11.872726
 70
   192
  0
VERTEX
  8
cherry_2
 10
15.374491
 20
41.535243
 30
19.988485
 70
   192
  0
VERTEX
  8
cherry_2
 10
35.087513
 20
41.710104
 30
32.969173
 70
   192
  0
VERTEX
  8
cherry_2
 10
56.048836
 20
52.207652
 30
35.718077
 70
   192
  0
VERTEX
  8
cherry_2
 10
70.251947
 20
69.018182
 30
27.185212
 70
   192
  0
VERTEX
  8
cherry_2
 10
72.271740
 20
85.720642
 30
10.629840
 70
   192
  0
VERTEX
  8
cherry_2
 10
4.439474
 20
51.749861
 30
1.734197
 70
   192
  0
VERTEX
  8
cherry_2
 10
0.0
 20
0.0
 30
0.0
 70
   128
 71
   5
 72
   1
 73
   8
  0
VERTEX
  8
cherry_2
 10
0.0
 20
0.0
 30
0.0
 70
   128
 71
   1
 72
   3
 73
   9
  0
VERTEX
  8
cherry_2
 10
0.0
 20
0.0
 30
0.0
 70
   128
 71
   3
 72
   4
 73
   10
  0
VERTEX
  8
cherry_2
 10
0.0
 20
0.0
 30
0.0
 70
   128
 71
   4
 72
   2
 73
   11
  0
VERTEX
  8
cherry_2
 10
0.0
 20
0.0
 30
0.0
 70
   128
 71
   2
 72
   6
 73
   12
  0
VERTEX
  8
cherry_2
 10
0.0
 20
0.0
 30
0.0
 70
   128
 71
   6
 72
   5
 73
   7
  0
VERTEX
  8
cherry_2
 10
0.0
 20
0.0
 30
0.0
 70
   128
 71
   7
 72
   8
 73
   14
  0
VERTEX
  8
cherry_2
 10
0.0
 20
0.0
 30
0.0
 70
   128
 71
   8
 72
   9
 73
   15
  0
VERTEX
  8
cherry_2
 10
0.0
 20
0.0
 30
0.0
 70
   128
 71
   9
 72
   10
 73
   16
  0
VERTEX
  8
cherry_2
 10
0.0
 20
0.0
 30
0.0
 70
   128
 71
   10
 72
   11
 73
   17
  0
VERTEX
  8
cherry_2
 10
0.0
 20
0.0
 30
0.0
 70
   128
 71
   11
 72
   12
 73
   18
  0
VERTEX
  8
cherry_2
 10
0.0
 20
0.0
 30
0.0
 70
   128
 71
   12
 72
   7
 73
   13
  0
VERTEX
  8
cherry_2
 10
0.0
 20
0.0
 30
0.0
 70
   128
 71
   13
 72
   14
 73
   20
  0
VERTEX
  8
cherry_2
 10
0.0
 20
0.0
 30
0.0
 70
   128
 71
   14
 72
   15
 73
   21
  0
VERTEX
  8
cherry_2
 10
0.0
 20
0.0
 30
0.0
 70
   128
 71
   15
 72
   16
 73
   22
  0
VERTEX
  8
cherry_2
 10
0.0
 20
0.0
 30
0.0
 70
   128
 71
   16
 72
   17
 73
   23
  0
VERTEX
  8
cherry_2
 10
0.0
 20
0.0
 30
0.0
 70
   128
 71
   17
 72
   18
 73
   24
  0
VERTEX
  8
cherry_2
 10
0.0
 20
0.0
 30
0.0
 70
   128
 71
   18
 72
   13
 73
   19
  0
VERTEX
  8
cherry_2
 10
0.0
 20
0.0
 30
0.0
 70
   128
 71
   19
 72
   20
 73
   26
  0
VERTEX
  8
cherry_2
 10
0.0
 20
0.0
 30
0.0
 70
   128
 71
   20
 72
   21
 73
   27
  0
VERTEX
  8
cherry_2
 10
0.0
 20
0.0
 30
0.0
 70
   128
 71
   21
 72
   22
 73
   28
  0
VERTEX
  8
cherry_2
 10
0.0
 20
0.0
 30
0.0
 70
   128
 71
   22
 72
   23
 73
   29
  0
VERTEX
  8
cherry_2
 10
0.0
 20
0.0
 30
0.0
 70
   128
 71
   23
 72
   24
 73
   30
  0
VERTEX
  8
cherry_2
 10
0.0
 20
0.0
 30
0.0
 70
   128
 71
   24
 72
   19
 73
   25
  0
VERTEX
  8
cherry_2
 10
0.0
 20
0.0
 30
0.0
 70
   128
 71
   6
 72
   2
 73
   4
  0
VERTEX
  8
cherry_2
 10
0.0
 20
0.0
 30
0.0
 70
   128
 71
   6
 72
   4
 73
   3
  0
VERTEX
  8
cherry_2
 10
0.0
 20
0.0
 30
0.0
 70
   128
 71
   6
 72
   3
 73
   5
  0
VERTEX
  8
cherry_2
 10
0.0
 20
0.0
 30
0.0
 70
   128
 71
   3
 72
   1
 73
   5
  0
VERTEX
  8
cherry_2
 10
0.0
 20
0.0
 30
0.0
 70
   128
 71
   25
 72
   26
 73
   27
  0
VERTEX
  8
cherry_2
 10
0.0
 20
0.0
 30
0.0
 70
   128
 71
   25
 72
   27
 73
   28
  0
VERTEX
  8
cherry_2
 10
0.0
 20
0.0
 30
0.0
 70
   128
 71
   25
 72
   28
 73
   30
  0
VERTEX
  8
cherry_2
 10
0.0
 20
0.0
 30
0.0
 70
   128
 71
   28
 72
   29
 73
   30
  0
VERTEX
  8
cherry_2
 10
0.0
 20
0.0
 30
0.0
 70
   128
 71
   40
 72
   1
 73
   5
  0
VERTEX
  8
cherry_2
 10
0.0
 20
0.0
 30
0.0
 70
   128
 71
   44
 72
   6
 73
   2
  0
VERTEX
  8
cherry_2
 10
0.0
 20
0.0
 30
0.0
 70
   128
 71
   45
 72
   5
 73
   6
  0
VERTEX
  8
cherry_2
 10
0.0
 20
0.0
 30
0.0
 70
   128
 71
   45
 72
   44
 73
   31
  0
VERTEX
  8
cherry_2
 10
0.0
 20
0.0
 30
0.0
 70
   128
 71
   39
 72
   46
 73
   44
  0
VERTEX
  8
cherry_2
 10
0.0
 20
0.0
 30
0.0
 70
   128
 71
   46
 72
   33
 73
   47
  0
VERTEX
  8
cherry_2
 10
0.0
 20
0.0
 30
0.0
 70
   128
 71
   47
 72
   44
 73
   46
  0
VERTEX
  8
cherry_2
 10
0.0
 20
0.0
 30
0.0
 70
   128
 71
   44
 72
   47
 73
   31
  0
VERTEX
  8
cherry_2
 10
0.0
 20
0.0
 30
0.0
 70
   128
 71
   39
 72
   48
 73
   46
  0
VERTEX
  8
cherry_2
 10
0.0
 20
0.0
 30
0.0
 70
   128
 71
   48
 72
   34
 73
   49
  0
VERTEX
  8
cherry_2
 10
0.0
 20
0.0
 30
0.0
 70
   128
 71
   49
 72
   46
 73
   48
  0
VERTEX
  8
cherry_2
 10
0.0
 20
0.0
 30
0.0
 70
   128
 71
   46
 72
   49
 73
   33
  0
VERTEX
  8
cherry_2
 10
0.0
 20
0.0
 30
0.0
 70
   128
 71
   39
 72
   50
 73
   48
  0
VERTEX
  8
cherry_2
 10
0.0
 20
0.0
 30
0.0
 70
   128
 71
   50
 72
   35
 73
   51
  0
VERTEX
  8
cherry_2
 10
0.0
 20
0.0
 30
0.0
 70
   128
 71
   51
 72
   48
 73
   50
  0
VERTEX
  8
cherry_2
 10
0.0
 20
0.0
 30
0.0
 70
   128
 71
   48
 72
   51
 73
   34
  0
VERTEX
  8
cherry_2
 10
0.0
 20
0.0
 30
0.0
 70
   128
 71
   39
 72
   2
 73
   4
  0
VERTEX
  8
cherry_2
 10
0.0
 20
0.0
 30
0.0
 70
   128
 71
   52
 72
   3
 73
   1
  0
VERTEX
  8
cherry_2
 10
0.0
 20
0.0
 30
0.0
 70
   128
 71
   50
 72
   4
 73
   3
  0
VERTEX
  8
cherry_2
 10
0.0
 20
0.0
 30
0.0
 70
   128
 71
   50
 72
   52
 73
   35
  0
VERTEX
  8
cherry_2
 10
0.0
 20
0.0
 30
0.0
 70
   128
 71
   35
 72
   52
 73
   54
  0
VERTEX
  8
cherry_2
 10
0.0
 20
0.0
 30
0.0
 70
   128
 71
   52
 72
   40
 73
   53
  0
VERTEX
  8
cherry_2
 10
0.0
 20
0.0
 30
0.0
 70
   128
 71
   53
 72
   54
 73
   52
  0
VERTEX
  8
cherry_2
 10
0.0
 20
0.0
 30
0.0
 70
   128
 71
   54
 72
   53
 73
   37
  0
VERTEX
  8
cherry_2
 10
0.0
 20
0.0
 30
0.0
 70
   128
 71
   37
 72
   53
 73
   56
  0
VERTEX
  8
cherry_2
 10
0.0
 20
0.0
 30
0.0
 70
   128
 71
   53
 72
   40
 73
   55
  0
VERTEX
  8
cherry_2
 10
0.0
 20
0.0
 30
0.0
 70
   128
 71
   55
 72
   56
 73
   53
  0
VERTEX
  8
cherry_2
 10
0.0
 20
0.0
 30
0.0
 70
   128
 71
   56
 72
   55
 73
   38
  0
VERTEX
  8
cherry_2
 10
0.0
 20
0.0
 30
0.0
 70
   128
 71
   40
 72
   45
 73
   55
  0
VERTEX
  8
cherry_2
 10
0.0
 20
0.0
 30
0.0
 70
   128
 71
   45
 72
   31
 73
   57
  0
VERTEX
  8
cherry_2
 10
0.0
 20
0.0
 30
0.0
 70
   128
 71
   57
 72
   55
 73
   45
  0
VERTEX
  8
cherry_2
 10
0.0
 20
0.0
 30
0.0
 70
   128
 71
   55
 72
   57
 73
   38
  0
VERTEX
  8
cherry_2
 10
0.0
 20
0.0
 30
0.0
 70
   128
 71
   42
 72
   58
 73
   60
  0
VERTEX
  8
cherry_2
 10
0.0
 20
0.0
 30
0.0
 70
   128
 71
   58
 72
   41
 73
   59
  0
VERTEX
  8
cherry_2
 10
0.0
 20
0.0
 30
0.0
 70
   128
 71
   59
 72
   60
 73
   58
  0
VERTEX
  8
cherry_2
 10
0.0
 20
0.0
 30
0.0
 70
   128
 71
   60
 72
   59
 73
   32
  0
VERTEX
  8
cherry_2
 10
0.0
 20
0.0
 30
0.0
 70
   128
 71
   33
 72
   61
 73
   62
  0
VERTEX
  8
cherry_2
 10
0.0
 20
0.0
 30
0.0
 70
   128
 71
   61
 72
   42
 73
   60
  0
VERTEX
  8
cherry_2
 10
0.0
 20
0.0
 30
0.0
 70
   128
 71
   60
 72
   62
 73
   61
  0
VERTEX
  8
cherry_2
 10
0.0
 20
0.0
 30
0.0
 70
   128
 71
   62
 72
   60
 73
   32
  0
VERTEX
  8
cherry_2
 10
0.0
 20
0.0
 30
0.0
 70
   128
 71
   33
 72
   49
 73
   61
  0
VERTEX
  8
cherry_2
 10
0.0
 20
0.0
 30
0.0
 70
   128
 71
   49
 72
   34
 73
   63
  0
VERTEX
  8
cherry_2
 10
0.0
 20
0.0
 30
0.0
 70
   128
 71
   63
 72
   61
 73
   49
  0
VERTEX
  8
cherry_2
 10
0.0
 20
0.0
 30
0.0
 70
   128
 71
   61
 72
   63
 73
   42
  0
VERTEX
  8
cherry_2
 10
0.0
 20
0.0
 30
0.0
 70
   128
 71
   34
 72
   64
 73
   63
  0
VERTEX
  8
cherry_2
 10
0.0
 20
0.0
 30
0.0
 70
   128
 71
   64
 72
   36
 73
   65
  0
VERTEX
  8
cherry_2
 10
0.0
 20
0.0
 30
0.0
 70
   128
 71
   65
 72
   63
 73
   64
  0
VERTEX
  8
cherry_2
 10
0.0
 20
0.0
 30
0.0
 70
   128
 71
   63
 72
   65
 73
   42
  0
VERTEX
  8
cherry_2
 10
0.0
 20
0.0
 30
0.0
 70
   128
 71
   36
 72
   66
 73
   65
  0
VERTEX
  8
cherry_2
 10
0.0
 20
0.0
 30
0.0
 70
   128
 71
   66
 72
   41
 73
   58
  0
VERTEX
  8
cherry_2
 10
0.0
 20
0.0
 30
0.0
 70
   128
 71
   58
 72
   65
 73
   66
  0
VERTEX
  8
cherry_2
 10
0.0
 20
0.0
 30
0.0
 70
   128
 71
   65
 72
   58
 73
   42
  0
VERTEX
  8
cherry_2
 10
0.0
 20
0.0
 30
0.0
 70
   128
 71
   36
 72
   67
 73
   66
  0
VERTEX
  8
cherry_2
 10
0.0
 20
0.0
 30
0.0
 70
   128
 71
   67
 72
   37
 73
   68
  0
VERTEX
  8
cherry_2
 10
0.0
 20
0.0
 30
0.0
 70
   128
 71
   68
 72
   66
 73
   67
  0
VERTEX
  8
cherry_2
 10
0.0
 20
0.0
 30
0.0
 70
   128
 71
   66
 72
   68
 73
   41
  0
VERTEX
  8
cherry_2
 10
0.0
 20
0.0
 30
0.0
 70
   128
 71
   37
 72
   56
 73
   68
  0
VERTEX
  8
cherry_2
 10
0.0
 20
0.0
 30
0.0
 70
   128
 71
   56
 72
   38
 73
   69
  0
VERTEX
  8
cherry_2
 10
0.0
 20
0.0
 30
0.0
 70
   128
 71
   69
 72
   68
 73
   56
  0
VERTEX
  8
cherry_2
 10
0.0
 20
0.0
 30
0.0
 70
   128
 71
   68
 72
   69
 73
   41
  0
VERTEX
  8
cherry_2
 10
0.0
 20
0.0
 30
0.0
 70
   128
 71
   38
 72
   70
 73
   69
  0
VERTEX
  8
cherry_2
 10
0.0
 20
0.0
 30
0.0
 70
   128
 71
   70
 72
   32
 73
   59
  0
VERTEX
  8
cherry_2
 10
0.0
 20
0.0
 30
0.0
 70
   128
 71
   59
 72
   69
 73
   70
  0
VERTEX
  8
cherry_2
 10
0.0
 20
0.0
 30
0.0
 70
   128
 71
   69
 72
   59
 73
   41
  0
VERTEX
  8
cherry_2
 10
0.0
 20
0.0
 30
0.0
 70
   128
 71
   32
 72
   70
 73
   71
  0
VERTEX
  8
cherry_2
 10
0.0
 20
0.0
 30
0.0
 70
   128
 71
   70
 72
   38
 73
   57
  0
VERTEX
  8
cherry_2
 10
0.0
 20
0.0
 30
0.0
 70
   128
 71
   57
 72
   71
 73
   70
  0
VERTEX
  8
cherry_2
 10
0.0
 20
0.0
 30
0.0
 70
   128
 71
   71
 72
   57
 73
   31
  0
VERTEX
  8
cherry_2
 10
0.0
 20
0.0
 30
0.0
 70
   128
 71
   33
 72
   62
 73
   47
  0
VERTEX
  8
cherry_2
 10
0.0
 20
0.0
 30
0.0
 70
   128
 71
   62
 72
   32
 73
   71
  0
VERTEX
  8
cherry_2
 10
0.0
 20
0.0
 30
0.0
 70
   128
 71
   71
 72
   47
 73
   62
  0
VERTEX
  8
cherry_2
 10
0.0
 20
0.0
 30
0.0
 70
   128
 71
   47
 72
   71
 73
   31
  0
VERTEX
  8
cherry_2
 10
0.0
 20
0.0
 30
0.0
 70
   128
 71
   35
 72
   72
 73
   51
  0
VERTEX
  8
cherry_2
 10
0.0
 20
0.0
 30
0.0
 70
   128
 71
   72
 72
   36
 73
   64
  0
VERTEX
  8
cherry_2
 10
0.0
 20
0.0
 30
0.0
 70
   128
 71
   64
 72
   51
 73
   72
  0
VERTEX
  8
cherry_2
 10
0.0
 20
0.0
 30
0.0
 70
   128
 71
   51
 72
   64
 73
   34
  0
VERTEX
  8
cherry_2
 10
0.0
 20
0.0
 30
0.0
 70
   128
 71
   35
 72
   54
 73
   72
  0
VERTEX
  8
cherry_2
 10
0.0
 20
0.0
 30
0.0
 70
   128
 71
   54
 72
   37
 73
   67
  0
VERTEX
  8
cherry_2
 10
0.0
 20
0.0
 30
0.0
 70
   128
 71
   67
 72
   72
 73
   54
  0
VERTEX
  8
cherry_2
 10
0.0
 20
0.0
 30
0.0
 70
   128
 71
   72
 72
   67
 73
   36
  0
VERTEX
  8
cherry_2
 10
0.0
 20
0.0
 30
0.0
 70
   128
 71
   5
 72
   8
 73
   7
  0
VERTEX
  8
cherry_2
 10
0.0
 20
0.0
 30
0.0
 70
   128
 71
   1
 72
   9
 73
   8
  0
VERTEX
  8
cherry_2
 10
0.0
 20
0.0
 30
0.0
 70
   128
 71
   3
 72
   10
 73
   9
  0
VERTEX
  8
cherry_2
 10
0.0
 20
0.0
 30
0.0
 70
   128
 71
   4
 72
   11
 73
   10
  0
VERTEX
  8
cherry_2
 10
0.0
 20
0.0
 30
0.0
 70
   128
 71
   2
 72
   12
 73
   11
  0
VERTEX
  8
cherry_2
 10
0.0
 20
0.0
 30
0.0
 70
   128
 71
   6
 72
   7
 73
   12
  0
VERTEX
  8
cherry_2
 10
0.0
 20
0.0
 30
0.0
 70
   128
 71
   7
 72
   14
 73
   13
  0
VERTEX
  8
cherry_2
 10
0.0
 20
0.0
 30
0.0
 70
   128
 71
   8
 72
   15
 73
   14
  0
VERTEX
  8
cherry_2
 10
0.0
 20
0.0
 30
0.0
 70
   128
 71
   9
 72
   16
 73
   15
  0
VERTEX
  8
cherry_2
 10
0.0
 20
0.0
 30
0.0
 70
   128
 71
   10
 72
   17
 73
   16
  0
VERTEX
  8
cherry_2
 10
0.0
 20
0.0
 30
0.0
 70
   128
 71
   11
 72
   18
 73
   17
  0
VERTEX
  8
cherry_2
 10
0.0
 20
0.0
 30
0.0
 70
   128
 71
   12
 72
   13
 73
   18
  0
VERTEX
  8
cherry_2
 10
0.0
 20
0.0
 30
0.0
 70
   128
 71
   13
 72
   20
 73
   19
  0
VERTEX
  8
cherry_2
 10
0.0
 20
0.0
 30
0.0
 70
   128
 71
   14
 72
   21
 73
   20
  0
VERTEX
  8
cherry_2
 10
0.0
 20
0.0
 30
0.0
 70
   128
 71
   15
 72
   22
 73
   21
  0
VERTEX
  8
cherry_2
 10
0.0
 20
0.0
 30
0.0
 70
   128
 71
   16
 72
   23
 73
   22
  0
VERTEX
  8
cherry_2
 10
0.0
 20
0.0
 30
0.0
 70
   128
 71
   17
 72
   24
 73
   23
  0
VERTEX
  8
cherry_2
 10
0.0
 20
0.0
 30
0.0
 70
   128
 71
   18
 72
   19
 73
   24
  0
VERTEX
  8
cherry_2
 10
0.0
 20
0.0
 30
0.0
 70
   128
 71
   19
 72
   26
 73
   25
  0
VERTEX
  8
cherry_2
 10
0.0
 20
0.0
 30
0.0
 70
   128
 71
   20
 72
   27
 73
   26
  0
VERTEX
  8
cherry_2
 10
0.0
 20
0.0
 30
0.0
 70
   128
 71
   21
 72
   28
 73
   27
  0
VERTEX
  8
cherry_2
 10
0.0
 20
0.0
 30
0.0
 70
   128
 71
   22
 72
   29
 73
   28
  0
VERTEX
  8
cherry_2
 10
0.0
 20
0.0
 30
0.0
 70
   128
 71
   23
 72
   30
 73
   29
  0
VERTEX
  8
cherry_2
 10
0.0
 20
0.0
 30
0.0
 70
   128
 71
   24
 72
   25
 73
   30
  0
VERTEX
  8
cherry_2
 10
0.0
 20
0.0
 30
0.0
 70
   128
 71
   40
 72
   5
 73
   45
  0
VERTEX
  8
cherry_2
 10
0.0
 20
0.0
 30
0.0
 70
   128
 71
   44
 72
   2
 73
   39
  0
VERTEX
  8
cherry_2
 10
0.0
 20
0.0
 30
0.0
 70
   128
 71
   45
 72
   6
 73
   44
  0
VERTEX
  8
cherry_2
 10
0.0
 20
0.0
 30
0.0
 70
   128
 71
   39
 72
   4
 73
   50
  0
VERTEX
  8
cherry_2
 10
0.0
 20
0.0
 30
0.0
 70
   128
 71
   52
 72
   1
 73
   40
  0
VERTEX
  8
cherry_2
 10
0.0
 20
0.0
 30
0.0
 70
   128
 71
   50
 72
   3
 73
   52
  0
SEQEND
  0
POLYLINE
  8
cherry_3
 66
   1
 10
0.0
 20
0.0
 30
0.0
 70
   64
 71
   72
 72
   142
  0
VERTEX
  8
cherry_3
 10
-41.135867
 20
99.610401
 30
0.000000
 70
   192
  0
VERTEX
  8
cherry_3
 10
-30.072520
 20
97.454768
 30
0.000000
 70
   192
  0
VERTEX
  8
cherry_3
 10
-39.024780
 20
98.124547
 30
-5.686304
 70
   192
  0
VERTEX
  8
cherry_3
 10
-32.587021
 20
96.870184
 30
-5.686304
 70
   192
  0
VERTEX
  8
cherry_3
 10
-39.024780
 20
98.124547
 30
5.686304
 70
   192
  0
VERTEX
  8
cherry_3
 10
-32.587021
 20
96.870184
 30
5.686304
 70
   192
  0
VERTEX
  8
cherry_3
 10
-34.948696
 20
106.112560
 30
8.143341
 70
   192
  0
VERTEX
  8
cherry_3
 10
-35.757366
 20
107.364797
 30
4.797731
 70
   192
  0
VERTEX
  8
cherry_3
 10
-33.208279
 20
107.468515
 30
2.200142
 70
   192
  0
VERTEX
  8
cherry_3
 10
-29.850522
 20
106.319994
 30
2.948161
 70
   192
  0
VERTEX
  8
cherry_3
 10
-29.041853
 20
105.067756
 30
6.293771
 70
   192
  0
VERTEX
  8
cherry_3
 10
-31.590940
 20
104.964039
 30
8.891361
 70
   192
  0
VERTEX
  8
cherry_3
 10
-29.086033
 20
133.476379
 30
11.132277
 70
   192
  0
VERTEX
  8
cherry_3
 10
-28.829329
 20
133.527808
 30
7.160403
 70
   192
  0
VERTEX
  8
cherry_3
 10
-25.460357
 20
132.420185
 30
5.339547
 70
   192
  0
VERTEX
  8
cherry_3
 10
-22.348089
 20
131.261135
 30
7.490565
 70
   192
  0
VERTEX
  8
cherry_3
 10
-22.604793
 20
131.209706
 30
11.462439
 70
   192
  0
VERTEX
  8
cherry_3
 10
-25.973765
 20
132.317328
 30
13.283295
 70
   192
  0
VERTEX
  8
cherry_3
 10
-20.848832
 20
153.498908
 30
8.492267
 70
   192
  0
VERTEX
  8
cherry_3
 10
-19.985556
 20
151.857520
 30
4.616884
 70
   192
  0
VERTEX
  8
cherry_3
 10
-16.530510
 20
149.421625
 30
3.961334
 70
   192
  0
VERTEX
  8
cherry_3
 10
-13.938740
 20
148.627119
 30
7.181167
 70
   192
  0
VERTEX
  8
cherry_3
 10
-14.802016
 20
150.268507
 30
11.056550
 70
   192
  0
VERTEX
  8
cherry_3
 10
-18.257062
 20
152.704402
 30
11.712100
 70
   192
  0
VERTEX
  8
cherry_3
 10
-7.469793
 20
168.159298
 30
-0.855560
 70
   192
  0
VERTEX
  8
cherry_3
 10
-6.124297
 20
165.224990
 30
-3.942981
 70
   192
  0
VERTEX
  8
cherry_3
 10
-2.690264
 20
162.499530
 30
-3.087421
 70
   192
  0
VERTEX
  8
cherry_3
 10
-0.601729
 20
162.708377
 30
0.855560
 70
   192
  0
VERTEX
  8
cherry_3
 10
-1.947226
 20
165.642685
 30
3.942981
 70
   192
  0
VERTEX
  8
cherry_3
 10
-5.381258
 20
168.368146
 30
3.087421
 70
   192
  0
VERTEX
  8
cherry_3
 10
-36.190948
 20
88.617759
 30
32.487630
 70
   192
  0
VERTEX
  8
cherry_3
 10
-43.870882
 20
49.202067
 30
32.487630
 70
   192
  0
VERTEX
  8
cherry_3
 10
-8.142950
 20
62.696716
 30
20.078460
 70
   192
  0
VERTEX
  8
cherry_3
 10
-8.142950
 20
62.696716
 30
-20.078460
 70
   192
  0
VERTEX
  8
cherry_3
 10
-36.190948
 20
88.617759
 30
-32.487630
 70
   192
  0
VERTEX
  8
cherry_3
 10
-43.870882
 20
49.202067
 30
-32.487630
 70
   192
  0
VERTEX
  8
cherry_3
 10
-71.918880
 20
75.123110
 30
-20.078460
 70
   192
  0
VERTEX
  8
cherry_3
 10
-71.918880
 20
75.123110
 30
20.078460
 70
   192
  0
VERTEX
  8
cherry_3
 10
-14.109872
 20
96.957911
 30
0.000000
 70
   192
  0
VERTEX
  8
cherry_3
 10
-53.525564
 20
104.637845
 30
0.000000
 70
   192
  0
VERTEX
  8
cherry_3
 10
-65.951958
 20
40.861915
 30
0.000000
 70
   192
  0
VERTEX
  8
cherry_3
 10
-26.536266
 20
33.181981
 30
0.000000
 70
   192
  0
VERTEX
  8
cherry_3
 10
-34.679025
 20
96.377397
 30
0.000000
 70
   192
  0
VERTEX
  8
cherry_3
 10
-22.537832
 20
96.980094
 30
19.095750
 70
   192
  0
VERTEX
  8
cherry_3
 10
-45.705795
 20
101.494246
 30
19.095750
 70
   192
  0
VERTEX
  8
cherry_3
 10
-6.051633
 20
81.744087
 30
11.801823
 70
   192
  0
VERTEX
  8
cherry_3
 10
-19.030564
 20
76.841869
 30
30.897573
 70
   192
  0
VERTEX
  8
cherry_3
 10
-6.051633
 20
81.744087
 30
-11.801823
 70
   192
  0
VERTEX
  8
cherry_3
 10
-2.544364
 20
61.605862
 30
0.000000
 70
   192
  0
VERTEX
  8
cherry_3
 10
-22.537832
 20
96.980094
 30
-19.095750
 70
   192
  0
VERTEX
  8
cherry_3
 10
-19.030564
 20
76.841869
 30
-30.897573
 70
   192
  0
VERTEX
  8
cherry_3
 10
-45.705795
 20
101.494246
 30
-19.095750
 70
   192
  0
VERTEX
  8
cherry_3
 10
-66.706147
 20
93.562290
 30
-11.801823
 70
   192
  0
VERTEX
  8
cherry_3
 10
-56.517115
 20
84.145920
 30
-30.897573
 70
   192
  0
VERTEX
  8
cherry_3
 10
-66.706147
 20
93.562290
 30
11.801823
 70
   192
  0
VERTEX
  8
cherry_3
 10
-77.517466
 20
76.213964
 30
0.000000
 70
   192
  0
VERTEX
  8
cherry_3
 10
-56.517115
 20
84.145920
 30
30.897573
 70
   192
  0
VERTEX
  8
cherry_3
 10
-47.334966
 20
31.423362
 30
0.000000
 70
   192
  0
VERTEX
  8
cherry_3
 10
-57.523998
 20
40.839732
 30
19.095750
 70
   192
  0
VERTEX
  8
cherry_3
 10
-34.356035
 20
36.325580
 30
19.095750
 70
   192
  0
VERTEX
  8
cherry_3
 10
-13.355684
 20
44.257536
 30
11.801823
 70
   192
  0
VERTEX
  8
cherry_3
 10
-23.544716
 20
53.673906
 30
30.897573
 70
   192
  0
VERTEX
  8
cherry_3
 10
-13.355684
 20
44.257536
 30
-11.801823
 70
   192
  0
VERTEX
  8
cherry_3
 10
-23.544716
 20
53.673906
 30
-30.897573
 70
   192
  0
VERTEX
  8
cherry_3
 10
-34.356035
 20
36.325580
 30
-19.095750
 70
   192
  0
VERTEX
  8
cherry_3
 10
-57.523998
 20
40.839732
 30
-19.095750
 70
   192
  0
VERTEX
  8
cherry_3
 10
-61.031267
 20
60.977957
 30
-30.897573
 70
   192
  0
VERTEX
  8
cherry_3
 10
-74.010198
 20
56.075739
 30
-11.801823
 70
   192
  0
VERTEX
  8
cherry_3
 10
-74.010198
 20
56.075739
 30
11.801823
 70
   192
  0
VERTEX
  8
cherry_3
 10
-61.031267
 20
60.977957
 30
30.897573
 70
   192
  0
VERTEX
  8
cherry_3
 10
-40.030915
 20
68.909913
 30
38.191500
 70
   192
  0
VERTEX
  8
cherry_3
 10
-40.030915
 20
68.909913
 30
-38.191500
 70
   192
  0
VERTEX
  8
cherry_3
 10
0.0
 20
0.0
 30
0.0
 70
   128
 71
   5
 72
   1
 73
   8
  0
VERTEX
  8
cherry_3
 10
0.0
 20
0.0
 30
0.0
 70
   128
 71
   1
 72
   3
 73
   9
  0
VERTEX
  8
cherry_3
 10
0.0
 20
0.0
 30
0.0
 70
   128
 71
   3
 72
   4
 73
   10
  0
VERTEX
  8
cherry_3
 10
0.0
 20
0.0
 30
0.0
 70
   128
 71
   4
 72
   2
 73
   11
  0
VERTEX
  8
cherry_3
 10
0.0
 20
0.0
 30
0.0
 70
   128
 71
   2
 72
   6
 73
   12
  0
VERTEX
  8
cherry_3
 10
0.0
 20
0.0
 30
0.0
 70
   128
 71
   6
 72
   5
 73
   7
  0
VERTEX
  8
cherry_3
 10
0.0
 20
0.0
 30
0.0
 70
   128
 71
   7
 72
   8
 73
   14
  0
VERTEX
  8
cherry_3
 10
0.0
 20
0.0
 30
0.0
 70
   128
 71
   8
 72
   9
 73
   15
  0
VERTEX
  8
cherry_3
 10
0.0
 20
0.0
 30
0.0
 70
   128
 71
   9
 72
   10
 73
   16
  0
VERTEX
  8
cherry_3
 10
0.0
 20
0.0
 30
0.0
 70
   128
 71
   10
 72
   11
 73
   17
  0
VERTEX
  8
cherry_3
 10
0.0
 20
0.0
 30
0.0
 70
   128
 71
   11
 72
   12
 73
   18
  0
VERTEX
  8
cherry_3
 10
0.0
 20
0.0
 30
0.0
 70
   128
 71
   12
 72
   7
 73
   13
  0
VERTEX
  8
cherry_3
 10
0.0
 20
0.0
 30
0.0
 70
   128
 71
   13
 72
   14
 73
   20
  0
VERTEX
  8
cherry_3
 10
0.0
 20
0.0
 30
0.0
 70
   128
 71
   14
 72
   15
 73
   21
  0
VERTEX
  8
cherry_3
 10
0.0
 20
0.0
 30
0.0
 70
   128
 71
   15
 72
   16
 73
   22
  0
VERTEX
  8
cherry_3
 10
0.0
 20
0.0
 30
0.0
 70
   128
 71
   16
 72
   17
 73
   23
  0
VERTEX
  8
cherry_3
 10
0.0
 20
0.0
 30
0.0
 70
   128
 71
   17
 72
   18
 73
   24
  0
VERTEX
  8
cherry_3
 10
0.0
 20
0.0
 30
0.0
 70
   128
 71
   18
 72
   13
 73
   19
  0
VERTEX
  8
cherry_3
 10
0.0
 20
0.0
 30
0.0
 70
   128
 71
   19
 72
   20
 73
   26
  0
VERTEX
  8
cherry_3
 10
0.0
 20
0.0
 30
0.0
 70
   128
 71
   20
 72
   21
 73
   27
  0
VERTEX
  8
cherry_3
 10
0.0
 20
0.0
 30
0.0
 70
   128
 71
   21
 72
   22
 73
   28
  0
VERTEX
  8
cherry_3
 10
0.0
 20
0.0
 30
0.0
 70
   128
 71
   22
 72
   23
 73
   29
  0
VERTEX
  8
cherry_3
 10
0.0
 20
0.0
 30
0.0
 70
   128
 71
   23
 72
   24
 73
   30
  0
VERTEX
  8
cherry_3
 10
0.0
 20
0.0
 30
0.0
 70
   128
 71
   24
 72
   19
 73
   25
  0
VERTEX
  8
cherry_3
 10
0.0
 20
0.0
 30
0.0
 70
   128
 71
   6
 72
   2
 73
   4
  0
VERTEX
  8
cherry_3
 10
0.0
 20
0.0
 30
0.0
 70
   128
 71
   6
 72
   4
 73
   3
  0
VERTEX
  8
cherry_3
 10
0.0
 20
0.0
 30
0.0
 70
   128
 71
   6
 72
   3
 73
   5
  0
VERTEX
  8
cherry_3
 10
0.0
 20
0.0
 30
0.0
 70
   128
 71
   3
 72
   1
 73
   5
  0
VERTEX
  8
cherry_3
 10
0.0
 20
0.0
 30
0.0
 70
   128
 71
   25
 72
   26
 73
   27
  0
VERTEX
  8
cherry_3
 10
0.0
 20
0.0
 30
0.0
 70
   128
 71
   25
 72
   27
 73
   28
  0
VERTEX
  8
cherry_3
 10
0.0
 20
0.0
 30
0.0
 70
   128
 71
   25
 72
   28
 73
   30
  0
VERTEX
  8
cherry_3
 10
0.0
 20
0.0
 30
0.0
 70
   128
 71
   28
 72
   29
 73
   30
  0
VERTEX
  8
cherry_3
 10
0.0
 20
0.0
 30
0.0
 70
   128
 71
   40
 72
   1
 73
   5
  0
VERTEX
  8
cherry_3
 10
0.0
 20
0.0
 30
0.0
 70
   128
 71
   44
 72
   6
 73
   2
  0
VERTEX
  8
cherry_3
 10
0.0
 20
0.0
 30
0.0
 70
   128
 71
   45
 72
   5
 73
   6
  0
VERTEX
  8
cherry_3
 10
0.0
 20
0.0
 30
0.0
 70
   128
 71
   45
 72
   44
 73
   31
  0
VERTEX
  8
cherry_3
 10
0.0
 20
0.0
 30
0.0
 70
   128
 71
   39
 72
   46
 73
   44
  0
VERTEX
  8
cherry_3
 10
0.0
 20
0.0
 30
0.0
 70
   128
 71
   46
 72
   33
 73
   47
  0
VERTEX
  8
cherry_3
 10
0.0
 20
0.0
 30
0.0
 70
   128
 71
   47
 72
   44
 73
   46
  0
VERTEX
  8
cherry_3
 10
0.0
 20
0.0
 30
0.0
 70
   128
 71
   44
 72
   47
 73
   31
  0
VERTEX
  8
cherry_3
 10
0.0
 20
0.0
 30
0.0
 70
   128
 71
   39
 72
   48
 73
   46
  0
VERTEX
  8
cherry_3
 10
0.0
 20
0.0
 30
0.0
 70
   128
 71
   48
 72
   34
 73
   49
  0
VERTEX
  8
cherry_3
 10
0.0
 20
0.0
 30
0.0
 70
   128
 71
   49
 72
   46
 73
   48
  0
VERTEX
  8
cherry_3
 10
0.0
 20
0.0
 30
0.0
 70
   128
 71
   46
 72
   49
 73
   33
  0
VERTEX
  8
cherry_3
 10
0.0
 20
0.0
 30
0.0
 70
   128
 71
   39
 72
   50
 73
   48
  0
VERTEX
  8
cherry_3
 10
0.0
 20
0.0
 30
0.0
 70
   128
 71
   50
 72
   35
 73
   51
  0
VERTEX
  8
cherry_3
 10
0.0
 20
0.0
 30
0.0
 70
   128
 71
   51
 72
   48
 73
   50
  0
VERTEX
  8
cherry_3
 10
0.0
 20
0.0
 30
0.0
 70
   128
 71
   48
 72
   51
 73
   34
  0
VERTEX
  8
cherry_3
 10
0.0
 20
0.0
 30
0.0
 70
   128
 71
   39
 72
   2
 73
   4
  0
VERTEX
  8
cherry_3
 10
0.0
 20
0.0
 30
0.0
 70
   128
 71
   52
 72
   3
 73
   1
  0
VERTEX
  8
cherry_3
 10
0.0
 20
0.0
 30
0.0
 70
   128
 71
   50
 72
   4
 73
   3
  0
VERTEX
  8
cherry_3
 10
0.0
 20
0.0
 30
0.0
 70
   128
 71
   50
 72
   52
 73
   35
  0
VERTEX
  8
cherry_3
 10
0.0
 20
0.0
 30
0.0
 70
   128
 71
   35
 72
   52
 73
   54
  0
VERTEX
  8
cherry_3
 10
0.0
 20
0.0
 30
0.0
 70
   128
 71
   52
 72
   40
 73
   53
  0
VERTEX
  8
cherry_3
 10
0.0
 20
0.0
 30
0.0
 70
   128
 71
   53
 72
   54
 73
   52
  0
VERTEX
  8
cherry_3
 10
0.0
 20
0.0
 30
0.0
 70
   128
 71
   54
 72
   53
 73
   37
  0
VERTEX
  8
cherry_3
 10
0.0
 20
0.0
 30
0.0
 70
   128
 71
   37
 72
   53
 73
   56
  0
VERTEX
  8
cherry_3
 10
0.0
 20
0.0
 30
0.0
 70
   128
 71
   53
 72
   40
 73
   55
  0
VERTEX
  8
cherry_3
 10
0.0
 20
0.0
 30
0.0
 70
   128
 71
   55
 72
   56
 73
   53
  0
VERTEX
  8
cherry_3
 10
0.0
 20
0.0
 30
0.0
 70
   128
 71
   56
 72
   55
 73
   38
  0
VERTEX
  8
cherry_3
 10
0.0
 20
0.0
 30
0.0
 70
   128
 71
   40
 72
   45
 73
   55
  0
VERTEX
  8
cherry_3
 10
0.0
 20
0.0
 30
0.0
 70
   128
 71
   45
 72
   31
 73
   57
  0
VERTEX
  8
cherry_3
 10
0.0
 20
0.0
 30
0.0
 70
   128
 71
   57
 72
   55
 73
   45
  0
VERTEX
  8
cherry_3
 10
0.0
 20
0.0
 30
0.0
 70
   128
 71
   55
 72
   57
 73
   38
  0
VERTEX
  8
cherry_3
 10
0.0
 20
0.0
 30
0.0
 70
   128
 71
   42
 72
   58
 73
   60
  0
VERTEX
  8
cherry_3
 10
0.0
 20
0.0
 30
0.0
 70
   128
 71
   58
 72
   41
 73
   59
  0
VERTEX
  8
cherry_3
 10
0.0
 20
0.0
 30
0.0
 70
   128
 71
   59
 72
   60
 73
   58
  0
VERTEX
  8
cherry_3
 10
0.0
 20
0.0
 30
0.0
 70
   128
 71
   60
 72
   59
 73
   32
  0
VERTEX
  8
cherry_3
 10
0.0
 20
0.0
 30
0.0
 70
   128
 71
   33
 72
   61
 73
   62
  0
VERTEX
  8
cherry_3
 10
0.0
 20
0.0
 30
0.0
 70
   128
 71
   61
 72
   42
 73
   60
  0
VERTEX
  8
cherry_3
 10
0.0
 20
0.0
 30
0.0
 70
   128
 71
   60
 72
   62
 73
   61
  0
VERTEX
  8
cherry_3
 10
0.0
 20
0.0
 30
0.0
 70
   128
 71
   62
 72
   60
 73
   32
  0
VERTEX
  8
cherry_3
 10
0.0
 20
0.0
 30
0.0
 70
   128
 71
   33
 72
   49
 73
   61
  0
VERTEX
  8
cherry_3
 10
0.0
 20
0.0
 30
0.0
 70
   128
 71
   49
 72
   34
 73
   63
  0
VERTEX
  8
cherry_3
 10
0.0
 20
0.0
 30
0.0
 70
   128
 71
   63
 72
   61
 73
   49
  0
VERTEX
  8
cherry_3
 10
0.0
 20
0.0
 30
0.0
 70
   128
 71
   61
 72
   63
 73
   42
  0
VERTEX
  8
cherry_3
 10
0.0
 20
0.0
 30
0.0
 70
   128
 71
   34
 72
   64
 73
   63
  0
VERTEX
  8
cherry_3
 10
0.0
 20
0.0
 30
0.0
 70
   128
 71
   64
 72
   36
 73
   65
  0
VERTEX
  8
cherry_3
 10
0.0
 20
0.0
 30
0.0
 70
   128
 71
   65
 72
   63
 73
   64
  0
VERTEX
  8
cherry_3
 10
0.0
 20
0.0
 30
0.0
 70
   128
 71
   63
 72
   65
 73
   42
  0
VERTEX
  8
cherry_3
 10
0.0
 20
0.0
 30
0.0
 70
   128
 71
   36
 72
   66
 73
   65
  0
VERTEX
  8
cherry_3
 10
0.0
 20
0.0
 30
0.0
 70
   128
 71
   66
 72
   41
 73
   58
  0
VERTEX
  8
cherry_3
 10
0.0
 20
0.0
 30
0.0
 70
   128
 71
   58
 72
   65
 73
   66
  0
VERTEX
  8
cherry_3
 10
0.0
 20
0.0
 30
0.0
 70
   128
 71
   65
 72
   58
 73
   42
  0
VERTEX
  8
cherry_3
 10
0.0
 20
0.0
 30
0.0
 70
   128
 71
   36
 72
   67
 73
   66
  0
VERTEX
  8
cherry_3
 10
0.0
 20
0.0
 30
0.0
 70
   128
 71
   67
 72
   37
 73
   68
  0
VERTEX
  8
cherry_3
 10
0.0
 20
0.0
 30
0.0
 70
   128
 71
   68
 72
   66
 73
   67
  0
VERTEX
  8
cherry_3
 10
0.0
 20
0.0
 30
0.0
 70
   128
 71
   66
 72
   68
 73
   41
  0
VERTEX
  8
cherry_3
 10
0.0
 20
0.0
 30
0.0
 70
   128
 71
   37
 72
   56
 73
   68
  0
VERTEX
  8
cherry_3
 10
0.0
 20
0.0
 30
0.0
 70
   128
 71
   56
 72
   38
 73
   69
  0
VERTEX
  8
cherry_3
 10
0.0
 20
0.0
 30
0.0
 70
   128
 71
   69
 72
   68
 73
   56
  0
VERTEX
  8
cherry_3
 10
0.0
 20
0.0
 30
0.0
 70
   128
 71
   68
 72
   69
 73
   41
  0
VERTEX
  8
cherry_3
 10
0.0
 20
0.0
 30
0.0
 70
   128
 71
   38
 72
   70
 73
   69
  0
VERTEX
  8
cherry_3
 10
0.0
 20
0.0
 30
0.0
 70
   128
 71
   70
 72
   32
 73
   59
  0
VERTEX
  8
cherry_3
 10
0.0
 20
0.0
 30
0.0
 70
   128
 71
   59
 72
   69
 73
   70
  0
VERTEX
  8
cherry_3
 10
0.0
 20
0.0
 30
0.0
 70
   128
 71
   69
 72
   59
 73
   41
  0
VERTEX
  8
cherry_3
 10
0.0
 20
0.0
 30
0.0
 70
   128
 71
   32
 72
   70
 73
   71
  0
VERTEX
  8
cherry_3
 10
0.0
 20
0.0
 30
0.0
 70
   128
 71
   70
 72
   38
 73
   57
  0
VERTEX
  8
cherry_3
 10
0.0
 20
0.0
 30
0.0
 70
   128
 71
   57
 72
   71
 73
   70
  0
VERTEX
  8
cherry_3
 10
0.0
 20
0.0
 30
0.0
 70
   128
 71
   71
 72
   57
 73
   31
  0
VERTEX
  8
cherry_3
 10
0.0
 20
0.0
 30
0.0
 70
   128
 71
   33
 72
   62
 73
   47
  0
VERTEX
  8
cherry_3
 10
0.0
 20
0.0
 30
0.0
 70
   128
 71
   62
 72
   32
 73
   71
  0
VERTEX
  8
cherry_3
 10
0.0
 20
0.0
 30
0.0
 70
   128
 71
   71
 72
   47
 73
   62
  0
VERTEX
  8
cherry_3
 10
0.0
 20
0.0
 30
0.0
 70
   128
 71
   47
 72
   71
 73
   31
  0
VERTEX
  8
cherry_3
 10
0.0
 20
0.0
 30
0.0
 70
   128
 71
   35
 72
   72
 73
   51
  0
VERTEX
  8
cherry_3
 10
0.0
 20
0.0
 30
0.0
 70
   128
 71
   72
 72
   36
 73
   64
  0
VERTEX
  8
cherry_3
 10
0.0
 20
0.0
 30
0.0
 70
   128
 71
   64
 72
   51
 73
   72
  0
VERTEX
  8
cherry_3
 10
0.0
 20
0.0
 30
0.0
 70
   128
 71
   51
 72
   64
 73
   34
  0
VERTEX
  8
cherry_3
 10
0.0
 20
0.0
 30
0.0
 70
   128
 71
   35
 72
   54
 73
   72
  0
VERTEX
  8
cherry_3
 10
0.0
 20
0.0
 30
0.0
 70
   128
 71
   54
 72
   37
 73
   67
  0
VERTEX
  8
cherry_3
 10
0.0
 20
0.0
 30
0.0
 70
   128
 71
   67
 72
   72
 73
   54
  0
VERTEX
  8
cherry_3
 10
0.0
 20
0.0
 30
0.0
 70
   128
 71
   72
 72
   67
 73
   36
  0
VERTEX
  8
cherry_3
 10
0.0
 20
0.0
 30
0.0
 70
   128
 71
   5
 72
   8
 73
   7
  0
VERTEX
  8
cherry_3
 10
0.0
 20
0.0
 30
0.0
 70
   128
 71
   1
 72
   9
 73
   8
  0
VERTEX
  8
cherry_3
 10
0.0
 20
0.0
 30
0.0
 70
   128
 71
   3
 72
   10
 73
   9
  0
VERTEX
  8
cherry_3
 10
0.0
 20
0.0
 30
0.0
 70
   128
 71
   4
 72
   11
 73
   10
  0
VERTEX
  8
cherry_3
 10
0.0
 20
0.0
 30
0.0
 70
   128
 71
   2
 72
   12
 73
   11
  0
VERTEX
  8
cherry_3
 10
0.0
 20
0.0
 30
0.0
 70
   128
 71
   6
 72
   7
 73
   12
  0
VERTEX
  8
cherry_3
 10
0.0
 20
0.0
 30
0.0
 70
   128
 71
   7
 72
   14
 73
   13
  0
VERTEX
  8
cherry_3
 10
0.0
 20
0.0
 30
0.0
 70
   128
 71
   8
 72
   15
 73
   14
  0
VERTEX
  8
cherry_3
 10
0.0
 20
0.0
 30
0.0
 70
   128
 71
   9
 72
   16
 73
   15
  0
VERTEX
  8
cherry_3
 10
0.0
 20
0.0
 30
0.0
 70
   128
 71
   10
 72
   17
 73
   16
  0
VERTEX
  8
cherry_3
 10
0.0
 20
0.0
 30
0.0
 70
   128
 71
   11
 72
   18
 73
   17
  0
VERTEX
  8
cherry_3
 10
0.0
 20
0.0
 30
0.0
 70
   128
 71
   12
 72
   13
 73
   18
  0
VERTEX
  8
cherry_3
 10
0.0
 20
0.0
 30
0.0
 70
   128
 71
   13
 72
   20
 73
   19
  0
VERTEX
  8
cherry_3
 10
0.0
 20
0.0
 30
0.0
 70
   128
 71
   14
 72
   21
 73
   20
  0
VERTEX
  8
cherry_3
 10
0.0
 20
0.0
 30
0.0
 70
   128
 71
   15
 72
   22
 73
   21
  0
VERTEX
  8
cherry_3
 10
0.0
 20
0.0
 30
0.0
 70
   128
 71
   16
 72
   23
 73
   22
  0
VERTEX
  8
cherry_3
 10
0.0
 20
0.0
 30
0.0
 70
   128
 71
   17
 72
   24
 73
   23
  0
VERTEX
  8
cherry_3
 10
0.0
 20
0.0
 30
0.0
 70
   128
 71
   18
 72
   19
 73
   24
  0
VERTEX
  8
cherry_3
 10
0.0
 20
0.0
 30
0.0
 70
   128
 71
   19
 72
   26
 73
   25
  0
VERTEX
  8
cherry_3
 10
0.0
 20
0.0
 30
0.0
 70
   128
 71
   20
 72
   27
 73
   26
  0
VERTEX
  8
cherry_3
 10
0.0
 20
0.0
 30
0.0
 70
   128
 71
   21
 72
   28
 73
   27
  0
VERTEX
  8
cherry_3
 10
0.0
 20
0.0
 30
0.0
 70
   128
 71
   22
 72
   29
 73
   28
  0
VERTEX
  8
cherry_3
 10
0.0
 20
0.0
 30
0.0
 70
   128
 71
   23
 72
   30
 73
   29
  0
VERTEX
  8
cherry_3
 10
0.0
 20
0.0
 30
0.0
 70
   128
 71
   24
 72
   25
 73
   30
  0
VERTEX
  8
cherry_3
 10
0.0
 20
0.0
 30
0.0
 70
   128
 71
   40
 72
   5
 73
   45
  0
VERTEX
  8
cherry_3
 10
0.0
 20
0.0
 30
0.0
 70
   128
 71
   44
 72
   2
 73
   39
  0
VERTEX
  8
cherry_3
 10
0.0
 20
0.0
 30
0.0
 70
   128
 71
   45
 72
   6
 73
   44
  0
VERTEX
  8
cherry_3
 10
0.0
 20
0.0
 30
0.0
 70
   128
 71
   39
 72
   4
 73
   50
  0
VERTEX
  8
cherry_3
 10
0.0
 20
0.0
 30
0.0
 70
   128
 71
   52
 72
   1
 73
   40
  0
VERTEX
  8
cherry_3
 10
0.0
 20
0.0
 30
0.0
 70
   128
 71
   50
 72
   3
 73
   52
  0
SEQEND
  0
ENDSEC
  0
EOF
